<?xml version="1.0" encoding="utf-8"?>
<!-- Generator: Adobe Illustrator 22.0.1, SVG Export Plug-In . SVG Version: 6.00 Build 0)  -->
<svg version="1.1" id="Capa_1" xmlns="http://www.w3.org/2000/svg" xmlns:xlink="http://www.w3.org/1999/xlink" x="0px" y="0px"
	 viewBox="0 0 27 27" style="enable-background:new 0 0 27 27;" xml:space="preserve">
<style type="text/css">
	.st0{fill:#FFFFFF;}
</style>
<g>
	<g>
		<path class="st0" d="M21.9,18.7c-0.1,0-0.2,0-0.3-0.1l-5-4.7c-0.2-0.2-0.2-0.4,0-0.6c0.2-0.2,0.4-0.2,0.6,0l5,4.7
			c0.2,0.2,0.2,0.4,0,0.6C22.1,18.7,22,18.7,21.9,18.7z"/>
		<path class="st0" d="M5.1,18.7c-0.1,0-0.2,0-0.3-0.1c-0.2-0.2-0.2-0.5,0-0.6l5-4.7c0.2-0.2,0.5-0.2,0.6,0c0.2,0.2,0.2,0.5,0,0.6
			l-5,4.7C5.4,18.7,5.2,18.7,5.1,18.7z"/>
	</g>
	<path class="st0" d="M24.8,23.1H2.2c-1.2,0-2.2-1-2.2-2.2V6.1c0-1.2,1-2.2,2.2-2.2h22.6c1.2,0,2.2,1,2.2,2.2v14.8
		C27,22.1,26,23.1,24.8,23.1z M2.2,4.8c-0.7,0-1.3,0.6-1.3,1.3v14.8c0,0.7,0.6,1.3,1.3,1.3h22.6c0.7,0,1.3-0.6,1.3-1.3V6.1
		c0-0.7-0.6-1.3-1.3-1.3H2.2z"/>
	<path class="st0" d="M13.5,15.7c-0.6,0-1.2-0.2-1.6-0.6L0.7,5.4c-0.2-0.2-0.2-0.4,0-0.6c0.2-0.2,0.4-0.2,0.6,0l11.2,9.8
		c0.6,0.5,1.5,0.5,2.1,0l11.2-9.7c0.2-0.2,0.5-0.1,0.6,0c0.2,0.2,0.1,0.5,0,0.6l-11.2,9.7C14.7,15.5,14.1,15.7,13.5,15.7z"/>
</g>
</svg>
