<svg width="84" height="94" viewBox="0 0 84 94" fill="none" xmlns="http://www.w3.org/2000/svg">
<g clip-path="url(#clip0)">
<path d="M36.9835 36.9059C42.2309 34.7051 44.078 35.1284 47.8561 39.0644C52.4318 43.8046 57.0075 48.5025 61.5832 53.2427C61.961 53.6236 62.3808 54.0045 62.7167 54.4278C63.934 55.9091 64.018 57.5174 62.5907 58.8717C61.2054 60.2261 59.6102 60.0991 58.2249 58.7447C55.7481 56.2477 53.3134 53.7083 50.8366 51.1689C50.2909 50.6187 49.7451 50.1108 48.6957 49.095C48.6957 50.534 48.6957 51.3382 48.6957 52.1423C48.6957 62.9347 48.6537 73.6849 48.6537 84.4773C48.6537 85.0275 48.6537 85.5777 48.6537 86.1279C48.5697 88.2441 47.3943 89.5984 45.6312 89.5984C43.8681 89.5984 42.5667 88.2864 42.5248 86.1702C42.4408 82.2342 42.4828 78.2981 42.4828 74.362C42.4828 71.4417 42.5248 68.5637 42.4408 65.6434C42.4408 65.0932 41.8951 64.543 41.6012 63.9505C41.2654 64.543 40.5937 65.0932 40.5937 65.6858C40.5098 72.2035 40.5517 78.7213 40.5517 85.2814C40.5517 86.0433 40.5517 86.8897 40.2999 87.6092C39.7122 89.0905 38.5787 89.8524 36.9835 89.5561C35.3044 89.2175 34.5068 88.0324 34.4648 86.3395C34.4228 82.3188 34.4228 78.3404 34.4228 74.3197C34.4228 64.5854 34.4648 54.8087 34.3389 45.0743C34.3389 43.8893 33.7092 42.4926 32.9116 41.6461C28.8396 37.0752 24.5158 32.7583 20.2759 28.3566C18.2189 26.1981 18.2189 25.4787 19.7721 22.8546C20.1919 22.1774 20.2759 21.2463 20.2759 20.3999C20.3179 15.448 20.2759 10.4962 20.3179 5.54439C20.3179 4.82489 20.8636 4.14772 21.1994 3.42822C21.4933 4.14772 21.997 4.86721 21.997 5.58671C22.081 9.81904 22.123 14.0937 21.997 18.326C21.955 20.5268 22.3748 22.0505 24.2219 23.7011C28.3359 27.3832 32.03 31.6155 35.8921 35.5939C36.2699 35.9748 36.6057 36.4404 36.9835 36.9059Z" fill="black"/>
<path d="M22.9204 15.702C22.9204 11.5967 22.9204 7.95688 22.9204 4.14779C25.2712 3.08971 27.748 3.00506 30.1408 3.76688C33.3732 4.82496 36.5636 5.58678 40.2577 4.02082C40.2577 7.91456 40.2997 11.4697 40.2158 15.0249C40.2158 15.4058 39.4182 16.0406 38.9564 16.083C36.8994 16.2099 34.7165 16.5908 32.7855 16.083C29.5531 15.3211 26.4886 14.2631 22.9204 15.702Z" fill="black"/>
<path d="M35.4727 27.9758C35.4727 24.4207 38.1593 21.6273 41.6016 21.5427C45.0859 21.5004 47.9824 24.4207 47.9404 28.0182C47.9404 31.5733 45.2118 34.3666 41.7695 34.409C38.2433 34.4936 35.4727 31.658 35.4727 27.9758Z" fill="black"/>
</g>
<defs>
<clipPath id="clip0">
<rect width="84" height="94" fill="white"/>
</clipPath>
</defs>
</svg>
