<svg height="512pt" viewBox="0 -3 512.00015 512" width="512pt" xmlns="http://www.w3.org/2000/svg"><path d="m250.242188 23.394531c0 12.917969-10.476563 23.394531-23.394532 23.394531-12.921875 0-23.394531-10.476562-23.394531-23.394531 0-12.921875 10.472656-23.394531 23.394531-23.394531 12.917969 0 23.394532 10.472656 23.394532 23.394531zm0 0" fill="#cb97e7"/><path d="m362.988281 51.125c0 10.503906-8.515625 19.019531-19.019531 19.019531s-19.023438-8.515625-19.023438-19.019531 8.519532-19.019531 19.023438-19.019531 19.019531 8.515625 19.019531 19.019531zm0 0" fill="#fe8ecc"/><path d="m510.964844 261.332031c-1.265625-2.210937-3.523438-3.667969-6.058594-3.90625l-19.65625-1.867187-14.445312-13.460938c-1.863282-1.738281-4.453126-2.460937-6.941407-1.9375-2.492187.519532-4.574219 2.21875-5.585937 4.550782l-7.851563 18.121093-17.265625 9.578125c-2.226562 1.234375-3.714844 3.472656-3.988281 6.003906-.277344 2.527344.695313 5.035157 2.605469 6.71875l14.804687 13.066407 3.773438 19.378906c.488281 2.5 2.15625 4.605469 4.476562 5.648437 1.027344.460938 2.121094.6875 3.210938.6875 1.382812 0 2.761719-.363281 3.984375-1.089843l17-10.042969 19.601562 2.402344c2.527344.304687 5.042969-.628906 6.753906-2.515625 1.710938-1.882813 2.398438-4.484375 1.84375-6.96875l-4.300781-19.269531 8.339844-17.898438c1.078125-2.304688.964844-4.992188-.300781-7.199219zm0 0" fill="#fee97d"/><path d="m435.871094 108.421875c.058594 0 .117187.003906.179687.003906 2.476563 0 4.8125-1.175781 6.292969-3.171875l8.519531-11.503906 13.765625-3.929688c2.445313-.695312 4.402344-2.542968 5.242188-4.945312.84375-2.402344.460937-5.0625-1.015625-7.132812l-8.308594-11.65625.519531-14.304688c.089844-2.546875-1.058594-4.972656-3.082031-6.515625-2.027344-1.542969-4.671875-2.003906-7.101563-1.242187l-13.652343 4.300781-13.445313-4.914063c-2.390625-.875-5.054687-.53125-7.148437.917969s-3.351563 3.824219-3.371094 6.371094l-.128906 14.3125-8.828125 11.269531c-1.570313 2.003906-2.066406 4.644531-1.335938 7.082031.730469 2.4375 2.601563 4.367188 5.015625 5.175781l13.574219 4.546876 7.984375 11.875c1.421875 2.113281 3.78125 3.402343 6.324219 3.460937zm0 0" fill="#fee97d"/><path d="m510.964844 261.332031c-1.265625-2.210937-3.523438-3.667969-6.058594-3.90625l-19.65625-1.867187-1.191406-1.113282-6.339844 13.605469 4.300781 19.273438c.554688 2.480469-.132812 5.082031-1.84375 6.964843-1.710937 1.886719-4.230469 2.824219-6.753906 2.515626l-19.601563-2.402344-7.15625 4.230468 3.691407 18.949219c.484375 2.496094 2.15625 4.601563 4.476562 5.644531 1.023438.460938 2.117188.691407 3.210938.691407 1.382812 0 2.761719-.367188 3.984375-1.089844l17-10.046875 19.601562 2.402344c2.523438.308594 5.042969-.628906 6.753906-2.515625 1.710938-1.882813 2.398438-4.480469 1.84375-6.964844l-4.300781-19.273437 8.339844-17.898438c1.078125-2.304688.964844-4.992188-.300781-7.199219zm0 0" fill="#fedf30"/><path d="m407.074219 87.550781-1.808594-.605469c.695313.617188 1.496094 1.113282 2.382813 1.457032zm0 0" fill="#fedf30"/><path d="m468.859375 77.742188-8.3125-11.65625.519531-14.304688c.089844-2.546875-1.058594-4.972656-3.082031-6.515625s-4.671875-2.003906-7.101563-1.242187l-4.324218 1.363281c.023437.285156.03125.570312.023437.859375l-.519531 14.304687 8.308594 11.65625c1.476562 2.070313 1.855468 4.734375 1.015625 7.136719-.839844 2.402344-2.796875 4.242188-5.242188 4.941406l-13.765625 3.929688-8.519531 11.503906c-.316406.421875-.675781.804688-1.0625 1.152344l2.753906 4.089844c1.417969 2.113281 3.777344 3.402343 6.320313 3.460937.0625 0 .121094.003906.179687.003906 2.480469 0 4.816407-1.175781 6.292969-3.171875l8.519531-11.503906 13.765625-3.929688c2.449219-.695312 4.402344-2.542968 5.246094-4.945312.839844-2.402344.460938-5.0625-1.015625-7.132812zm0 0" fill="#fedf30"/><g fill="#e1d3ce"><path d="m319.203125 190.992188c1.160156-1.160157 1.851563-1.246094 5.234375-1.199219 4.21875.054687 10.597656.140625 16.527344-5.789063 5.933594-5.933594 5.847656-12.308594 5.789062-16.527344-.046875-3.378906.039063-4.074218 1.199219-5.234374 1.164063-1.164063 1.851563-1.25 5.238281-1.203126 4.21875.054688 10.59375.140626 16.527344-5.789062 5.933594-5.933594 5.847656-12.308594 5.789062-16.527344-.046874-3.378906.039063-4.074218 1.203126-5.238281 1.164062-1.164063 1.867187-1.246094 5.238281-1.203125 4.222656.058594 10.59375.144531 16.527343-5.789062 3.058594-3.058594 3.058594-8.019532 0-11.078126-3.058593-3.058593-8.019531-3.0625-11.078124 0-1.164063 1.164063-1.855469 1.246094-5.238282 1.203126-4.21875-.058594-10.59375-.144532-16.527344 5.789062-5.933593 5.933594-5.847656 12.308594-5.789062 16.527344.042969 3.378906-.039062 4.074218-1.203125 5.238281-1.164063 1.160156-1.855469 1.25-5.238281 1.203125-4.222656-.058594-10.59375-.144531-16.523438 5.789062-5.933594 5.929688-5.847656 12.304688-5.789062 16.523438.042968 3.378906-.039063 4.074219-1.203125 5.238281-1.160157 1.160157-1.859375 1.246094-5.234375 1.199219-4.222656-.054688-10.59375-.144531-16.527344 5.789062-3.058594 3.058594-3.058594 8.019532 0 11.078126 1.53125 1.53125 3.535156 2.296874 5.539062 2.296874 2.003907 0 4.007813-.765624 5.539063-2.296874zm0 0"/><path d="m469.566406 169.4375h-1.613281v-1.617188c0-4.324218-3.507813-7.832031-7.835937-7.832031-4.324219 0-7.832032 3.507813-7.832032 7.832031v1.617188h-1.613281c-4.328125 0-7.835937 3.503906-7.835937 7.832031 0 4.324219 3.507812 7.832031 7.835937 7.832031h1.613281v1.617188c0 4.324219 3.507813 7.832031 7.832032 7.832031 4.328124 0 7.835937-3.507812 7.835937-7.832031v-1.617188h1.613281c4.328125 0 7.832032-3.507812 7.832032-7.832031 0-4.328125-3.507813-7.832031-7.832032-7.832031zm0 0"/><path d="m384.140625 285.445312h-1.613281v-1.617187c0-4.324219-3.507813-7.832031-7.835938-7.832031-4.324218 0-7.832031 3.507812-7.832031 7.832031v1.617187h-1.613281c-4.328125 0-7.835938 3.507813-7.835938 7.832032 0 4.328125 3.507813 7.835937 7.835938 7.835937h1.613281v1.613281c0 4.324219 3.507813 7.832032 7.832031 7.832032 4.328125 0 7.835938-3.507813 7.835938-7.832032v-1.613281h1.613281c4.328125 0 7.835937-3.507812 7.835937-7.835937 0-4.324219-3.507812-7.832032-7.835937-7.832032zm0 0"/><path d="m194.910156 96.15625h-1.613281v-1.617188c0-4.324218-3.507813-7.832031-7.835937-7.832031-4.324219 0-7.832032 3.507813-7.832032 7.832031v1.617188h-1.613281c-4.328125 0-7.835937 3.503906-7.835937 7.832031s3.507812 7.832031 7.835937 7.832031h1.613281v1.617188c0 4.324219 3.507813 7.832031 7.832032 7.832031 4.328124 0 7.835937-3.507812 7.835937-7.832031v-1.617188h1.613281c4.328125 0 7.835938-3.503906 7.835938-7.832031s-3.507813-7.832031-7.835938-7.832031zm0 0"/><path d="m245.785156 60.058594c-3.0625 3.058594-3.0625 8.019531 0 11.078125 28.707032 28.707031 28.707032 75.421875 0 104.132812-3.0625 3.058594-3.0625 8.019531 0 11.074219 1.527344 1.53125 3.535156 2.296875 5.539063 2.296875 2.003906 0 4.007812-.765625 5.539062-2.296875 34.816407-34.816406 34.816407-91.46875 0-126.285156-3.058593-3.058594-8.019531-3.0625-11.078125 0zm0 0"/><path d="m374.691406 214.878906c-23.851562 0-46.277344 9.289063-63.144531 26.15625-3.058594 3.058594-3.058594 8.015625 0 11.078125 3.0625 3.058594 8.019531 3.058594 11.082031 0 13.90625-13.910156 32.398438-21.566406 52.0625-21.566406 19.667969 0 38.160156 7.65625 52.066406 21.566406 1.53125 1.527344 3.535157 2.292969 5.542969 2.292969 2.003907 0 4.007813-.765625 5.539063-2.292969 3.058594-3.0625 3.058594-8.019531 0-11.078125-16.867188-16.867187-39.292969-26.15625-63.148438-26.15625zm0 0"/></g><path d="m.5625 497.855469c-2.335938 5.253906 3.03125 10.621093 8.285156 8.285156l122.949219-75.523437 203.1875-69.394532-189.503906-189.507812-49.785157 112.042968-38.1875 118.320313-56.945312 95.777344c-2.335938 5.253906 3.03125 10.621093 8.285156 8.285156" fill="#f8eedb"/><path d="m334.984375 361.222656-189.503906-189.507812-49.785157 112.042968" fill="#f8eedb"/><path d="m312.902344 339.140625-301.308594 133.886719-11.03125 24.828125c-2.335938 5.253906 3.03125 10.621093 8.285156 8.285156l326.136719-144.917969zm0 0" fill="#f8e0b3"/><path d="m284.054688 312.109375c-.046876 23.925781-.058594 47.847656-.066407 71.773437l51-22.660156-50.929687-50.925781c0 .605469-.003906 1.207031-.003906 1.8125zm0 0" fill="#fdb441"/><path d="m153.125 265.117188v176.914062l73.433594-32.628906c0-52.105469.03125-104.210938.285156-156.320313l-73.71875-73.714843zm0 0" fill="#fec165"/><path d="m226.566406 377.503906-73.4375 32.632813v31.894531l73.429688-32.628906c0-10.632813.003906-21.265625.007812-31.898438zm0 0" fill="#fdb441"/><path d="m95.695312 283.757812-95.132812 214.097657c-2.335938 5.253906 3.03125 10.621093 8.285156 8.285156l86.847656-38.589844zm0 0" fill="#fec165"/><path d="m95.695312 435.65625-84.101562 37.371094-11.03125 24.828125c-2.335938 5.253906 3.03125 10.621093 8.285156 8.285156l86.847656-38.589844zm0 0" fill="#fdb441"/><path d="m331.328125 378.875-202.910156-202.90625c-8.222657-8.222656-8.222657-21.558594 0-29.78125 8.226562-8.226562 21.558593-8.226562 29.78125 0l202.910156 202.90625c8.222656 8.226562 8.222656 21.558594 0 29.78125-8.226563 8.226562-21.558594 8.226562-29.78125 0zm0 0" fill="#fedf30"/><path d="m361.109375 349.09375-202.910156-202.90625c-8.222657-8.226562-21.554688-8.226562-29.78125 0-.261719.261719-.492188.542969-.738281.816406l202.09375 202.089844c7.964843 7.960938 8.191406 20.699219.738281 28.96875l.816406.8125c8.222656 8.226562 21.554687 8.226562 29.78125 0 8.222656-8.222656 8.222656-21.554688 0-29.78125zm0 0" fill="#fed402"/></svg>