<?xml version="1.0" encoding="utf-8"?>
<!-- Generator: Adobe Illustrator 22.0.1, SVG Export Plug-In . SVG Version: 6.00 Build 0)  -->
<svg version="1.1" id="Layer_1" xmlns="http://www.w3.org/2000/svg" xmlns:xlink="http://www.w3.org/1999/xlink" x="0px" y="0px"
	 viewBox="0 0 512 512" style="enable-background:new 0 0 512 512;" xml:space="preserve">
<style type="text/css">
	.st0{fill:#FFFFFF;}
</style>
<path class="st0" d="M30.9,492.9h180c3.3,0,6-2.7,6-6v-44c0-0.2,0-0.3,0-0.5c-1.2-14.1-9.7-26.6-22.3-33c-0.1-0.1-0.2-0.1-0.3-0.2
	l-36.8-15.7v-21.7c20-13,32-35.2,32-59v-3.7c10.1-4.4,15.6-15.4,13-26.1c-1.5-6.3-6.3-11.4-12.5-13.3v-19.9
	c-0.1-39.6-32.4-71.6-72-71.5c-39.4,0.1-71.4,32.1-71.5,71.5v20.5c-5.5,2.2-9.5,6.9-10.9,12.7c-2.6,10.7,2.9,21.7,13,26.1v3.7
	c0,25.4,13.7,48.9,35.9,61.4v19.4l-36.8,15.7c-0.1,0-0.2,0.1-0.3,0.2c-12.7,6.4-21.1,18.9-22.3,33c0,0.2,0,0.3,0,0.5v44
	C24.9,490.2,27.6,492.9,30.9,492.9L30.9,492.9z M58.4,249.9c0.1-33,27-59.7,60-59.5c32.8,0.1,59.4,26.7,59.5,59.5v20.6
	c-12.3,1.2-44.9,2.4-72.1-14.1c25-3.7,45-11.2,59.4-22.3c2.7-2,3.2-5.7,1.3-8.4c-2-2.7-5.7-3.2-8.4-1.3c-0.1,0-0.1,0.1-0.2,0.1
	c-32.3,24.8-90.3,22.2-90.9,22.1c-3.3-0.2-6.1,2.3-6.3,5.6l-1.3,21.6l-1.1-0.5L58.4,249.9z M60.6,312.8v-8.2c0-2.9-2.1-5.4-5-5.9
	c-5.7-1-9.6-6.5-8.5-12.2c0-0.2,0.1-0.4,0.1-0.7c0.4-1.6,1.4-3,2.8-3.9c0.8,0.7,1.6,1.4,2.6,1.9l7.8,4c3.6,1.8,8,0.4,9.9-3.2
	c0.4-0.9,0.7-1.8,0.8-2.8c0,0,0-0.1,0-0.1l1.4-23c3.8,0,9.2-0.1,15.6-0.5c39.3,33.1,94.6,23.8,97,23.4c0.4-0.1,0.9-0.2,1.3-0.4
	c2.3,0.6,4,2.4,4.5,4.7c0.2,0.8,0.3,1.7,0.3,2.5c0,5.1-3.7,9.5-8.7,10.4c-2.9,0.5-5,3.1-5,6v8.1c0,32.3-26.2,58.5-58.5,58.5
	C86.7,371.3,60.5,345.1,60.6,312.8L60.6,312.8z M119,383.3c9.1,0,18-1.8,26.4-5.2v14.4c-15.7,6.2-33.3,6.2-49,0v-13
	C103.7,382,111.3,383.3,119,383.3L119,383.3z M36.9,443.2c0.9-9.8,6.8-18.4,15.5-22.9l39.1-16.7c18.8,7.6,39.8,7.6,58.6,0l39.1,16.7
	c8.8,4.5,14.6,13.1,15.6,22.9v37.7h-168L36.9,443.2z"/>
<path class="st0" d="M443.9,206c-27.3-29.2-73-30.8-102.2-3.5c-15.9,14.9-24.3,36.1-22.8,57.8l1.2,17.5c-6.9,1.3-12.5,6.5-14.2,13.3
	c-0.4,1.7-0.6,3.5-0.6,5.2c0,4,1.1,8,3.2,11.4c-15.3,12-18,34.2-5.9,49.5c3.1,3.9,7,7.2,11.4,9.5c2.9,1.5,6,2.6,9.2,3.3
	c2.9,0.6,5.9,0.8,8.8,0.7c3.3,10.5,11.3,18.9,21.6,22.7l-31.8,11.5c-0.2,0.1-0.4,0.2-0.6,0.3c-12.3,6.2-20.5,18.3-21.7,32
	c0,0.2,0,0.3,0,0.5v49.6c0,3.3,2.7,6,6,6h171.3c3.3,0,6-2.7,6-6v-49.6c0-0.2,0-0.3,0-0.5c-1.2-13.7-9.4-25.8-21.7-32
	c-0.2-0.1-0.4-0.2-0.6-0.3l-32-11.5c1.4-0.5,2.8-1.1,4.2-1.8c8.3-4.4,14.6-11.8,17.4-20.8c6.3,0.3,12.5-1.1,18-4
	c11.7-6.1,18.9-18.1,18.9-31.3c0-10.6-6.3-20.5-13.9-27.1c2.3-3.6,3.6-7.7,3.6-12c0-1.8-0.2-3.5-0.6-5.2
	c-1.7-6.8-7.2-12.1-14.1-13.4l1.2-17.4C464.7,240.3,457.7,220.6,443.9,206L443.9,206z M347,214.2c22.7-24.4,60.9-25.7,85.3-2.9
	c13.3,12.4,20.3,30.1,19,48.2L450,277c-11.2-1.7-19.5-6.1-24.9-13.2c-11.1-14.8-6.2-37.1-6.2-37.3c0.7-3.2-1.3-6.5-4.5-7.2
	c-2.2-0.5-4.5,0.3-6,2l-16.8,20.5l-0.1,0.1c-9.1,11.5-22.9,18.2-37.5,18.1c-8.2,0-16.2,2.8-22.6,7.9l-0.6-8.5
	C329.7,242.8,335.5,226.4,347,214.2L347,214.2z M342.7,363.2c-0.4-3.3-3.4-5.6-6.7-5.2c-0.2,0-0.4,0.1-0.5,0.1
	c-3.2,0.7-6.6,0.7-9.8,0.1c-1.1-0.2-2.1-0.5-3.1-0.9c-9.3-3.3-15.4-12.1-15.4-21.9c0-7.8,4-15.1,10.5-19.4c1.7,0.8,3.4,1.5,5.3,1.8
	c2.8,24.6,18.6,45.9,41.4,55.6v10C353.1,382.7,344.1,374.2,342.7,363.2L342.7,363.2z M391,411.9l-14.9-20.1v-14.6
	c9.8,2.2,20,2.2,29.8,0v14.5L391,411.9z M470.9,437.9v43.3H311.6v-43.3c0.9-9.3,6.4-17.6,14.8-21.9l41.7-15l17.1,23v19.9
	c0,3.3,2.7,6,6,6s6-2.7,6-6v-19.9l17.1-23.1l41.9,15.1C464.4,420.3,470,428.5,470.9,437.9L470.9,437.9z M462.6,356.1
	c-1.9,1-4,1.7-6.1,2.2c-3.2,0.7-6.6,0.6-9.8-0.1c-3.2-0.7-6.4,1.3-7.2,4.6c0,0.2-0.1,0.4-0.1,0.5c-1,7.5-5.6,14.1-12.3,17.6
	c-2.9,1.5-6,2.4-9.2,2.6v-10c22.8-9.7,38.6-31,41.4-55.6c1.6-0.3,3.1-0.9,4.6-1.5c5.9,4.7,11.1,12.1,11.1,19.2
	C475.1,344.1,470.3,352.1,462.6,356.1L462.6,356.1z M464.5,293.9c1.3,5.3-2,10.7-7.3,12.1c-0.8,0.2-1.6,0.3-2.4,0.3h-1.1
	c-3.2,0-5.9,2.6-6,5.8c-1,31.3-27.3,55.8-58.5,54.8c-29.8-1-53.8-24.9-54.8-54.8c-0.1-3.2-2.8-5.8-6-5.8h-1.1c-5.5,0-10-4.5-10-10
	c0-0.8,0.1-1.6,0.3-2.4c0.7-2.7,3.2-4.6,6.1-4.5c0.4,0,0.8,0,1.3,0.1c0.4,0.1,0.7,0.1,1.1,0.1h0.5h0c0.2,0,0.5,0,0.7-0.1
	c0.1,0,0.1,0,0.2,0c0.2,0,0.4-0.1,0.6-0.1c0.1,0,0.1,0,0.2,0c0.2-0.1,0.5-0.2,0.7-0.3c0,0,0.1,0,0.1-0.1c0.2-0.1,0.4-0.2,0.6-0.3
	c0.1,0,0.1-0.1,0.2-0.1c0.2-0.1,0.3-0.2,0.5-0.4c0,0,0.1-0.1,0.1-0.1c0.2-0.1,0.3-0.3,0.5-0.5c0,0,0,0,0.1-0.1
	c0-0.1,0.1-0.1,0.1-0.2c0.1-0.2,0.2-0.3,0.4-0.5c0-0.1,0.1-0.1,0.1-0.2c0.1-0.2,0.3-0.5,0.4-0.7l0,0c4-8.6,12.6-14.1,22.1-14.1
	c18.3,0,35.5-8.3,46.9-22.6l5.1-6.2c0.6,8.7,3,18.9,9.5,27.7c8.4,11.3,21.8,17.6,39.7,18.6h0.2c0,0,0.1,0,0.2,0h0.5
	c0.4,0,0.7,0,1.1-0.1C460.4,288.7,463.6,290.7,464.5,293.9L464.5,293.9z"/>
<path class="st0" d="M342,139V64.1c0-2.3-1.3-4.4-3.4-5.4l-80-39.3c-1.7-0.8-3.6-0.8-5.3,0l-80,39.2c-2.1,1-3.4,3.1-3.4,5.4v75
	c0,19.9,12.9,44.2,29.3,55.4l53.3,36.4c2,1.4,4.7,1.4,6.8,0l53.3-36.4C329.1,183.2,342,158.8,342,139L342,139z M306,184.4l-50,34.1
	l-50-34.1c-13-8.9-24-29.7-24-45.5V67.7l74-36.2l74,36.3V139C330,154.7,319,175.6,306,184.4z"/>
<path class="st0" d="M285.7,99.8l-39.3,38.4l-20-19.5c-2.4-2.3-6.2-2.3-8.5,0s-2.3,6.2,0,8.5c0,0,0,0,0.1,0.1l24.2,23.6
	c2.3,2.3,6.1,2.3,8.4,0l43.5-42.5c2.4-2.3,2.5-6.1,0.2-8.5C291.9,97.5,288.1,97.4,285.7,99.8C285.7,99.7,285.7,99.7,285.7,99.8
	L285.7,99.8z"/>
</svg>
