<svg id="Layer_1" enable-background="new 0 0 128 128" height="512" viewBox="0 0 128 128" width="512" xmlns="http://www.w3.org/2000/svg"><path d="m112.001 112.045h-16.25v-17.81c.445-.526.844-1.12 1.18-1.782.373-.738.57-1.603.57-2.5 0-2.706-1.873-4.908-4.176-4.908h-8.824v-14.125c0-1.585-1.29-2.875-2.875-2.875h-.125v-1.371c.756-.417 1.93-1.288 2.434-2.899.705-2.258-.181-5.061-2.634-8.33-.377-.504-1.223-.504-1.6 0-.386.515-3.739 5.128-2.651 8.611.265.848.909 1.948 2.451 2.664v1.324h-.125c-1.585 0-2.875 1.29-2.875 2.875v14.125h-6.5v-14.124c0-1.585-1.29-2.875-2.875-2.875h-.125v-1.371c.756-.417 1.93-1.288 2.434-2.899.705-2.258-.181-5.061-2.634-8.33-.377-.504-1.223-.504-1.6 0-.386.515-3.739 5.128-2.651 8.611.265.848.909 1.948 2.451 2.664v1.324h-.125c-1.585 0-2.875 1.29-2.875 2.875v14.125h-6.5v-14.124c0-1.585-1.29-2.875-2.875-2.875h-.125v-1.371c.756-.417 1.93-1.288 2.434-2.899.705-2.258-.181-5.061-2.634-8.33-.377-.504-1.223-.504-1.6 0-.386.515-3.739 5.128-2.651 8.611.265.848.909 1.948 2.451 2.664v1.324h-.125c-1.585 0-2.875 1.29-2.875 2.875v14.125h-8.825c-2.302 0-4.175 2.202-4.175 4.908 0 .898.197 1.763.57 2.501.203.401.434.771.68 1.123v18.468h-15.75c-1.93 0-3.5 1.57-3.5 3.5s1.57 3.5 3.5 3.5h57.833 4.226 4.441 4.499 21.001c1.93 0 3.5-1.57 3.5-3.5s-1.571-3.499-3.5-3.499z" fill="#e6e7e8"/><path d="m18.879 29.468c.191.287.508.447.835.447.147 0 .297-.032.437-.101 2.894-1.41 4.443-2.377 6.714-4.244 2.263 2.968 3.76 4.646 6.598 7.439.188.185.439.287.701.287h.016c.268-.004.522-.115.707-.309 2.302-2.406 3.5-3.902 5.161-6.514 2.585 2.172 4.285 3.358 7.398 5.201.156.093.332.14.51.14.094 0 .188-.013.279-.04.265-.077.486-.261.612-.507 1.639-3.223 2.439-5.135 3.457-8.356 2.802 1.314 4.615 1.935 7.848 2.731.079.02.159.029.239.029.184 0 .364-.051.523-.147.228-.141.391-.366.451-.627.981-4.232 1.325-6.466 1.669-10.863.032-.419-.2-.814-.583-.988-.381-.173-.832-.092-1.128.21-3.653 3.722-5.631 5.166-10.074 7.359-4.401 2.171-6.667 2.83-11.544 3.355-4.926.532-7.37.371-12.451-.812-5.223-1.217-7.732-2.235-12.787-5.188-.38-.222-.859-.17-1.185.129-.322.3-.412.774-.22 1.171 2.035 4.198 3.232 6.295 5.817 10.198z" fill="#e6e7e8"/><path d="m71.086 25.524c.159.097.34.147.523.147.08 0 .16-.01.239-.029 3.234-.797 5.046-1.417 7.848-2.731 1.019 3.222 1.818 5.134 3.457 8.356.126.246.348.43.612.507.092.027.186.04.279.04.178 0 .354-.047.51-.14 3.112-1.843 4.812-3.028 7.398-5.201 1.661 2.612 2.859 4.108 5.161 6.514.185.193.439.305.707.309h.016c.262 0 .514-.103.701-.287 2.838-2.793 4.336-4.471 6.598-7.439 2.271 1.868 3.82 2.835 6.714 4.244.14.068.289.101.437.101.326 0 .644-.16.835-.447 2.583-3.897 3.778-5.994 5.815-10.197.192-.396.103-.871-.22-1.171-.324-.298-.805-.352-1.184-.129-5.056 2.952-7.565 3.971-12.788 5.188-5.081 1.183-7.524 1.344-12.451.812-4.877-.525-7.143-1.185-11.544-3.355-4.443-2.193-6.421-3.638-10.074-7.359-.296-.302-.748-.383-1.128-.21-.383.174-.615.569-.583.988.344 4.397.688 6.631 1.669 10.863.062.26.225.485.453.626z" fill="#e6e7e8"/><path d="m99.21 54.785c.377.608 1.038.947 1.766.876l1.048-.101.677.807c.361.431.881.668 1.424.668.148 0 .3-.018.449-.055.695-.17 1.223-.71 1.378-1.407l.229-1.029.976-.394c.663-.269 1.108-.878 1.161-1.591.054-.714-.297-1.383-.912-1.746l-.908-.535-.072-1.05c-.001-.001-.001-.001-.001-.001-.05-.714-.492-1.325-1.154-1.596s-1.404-.146-1.943.328l-.788.698-1.022-.256c-.699-.169-1.413.061-1.875.606s-.571 1.293-.286 1.948l.419.966-.559.894c-.381.608-.383 1.363-.007 1.97z" fill="#e6e7e8"/><path d="m32.544 49.281c-.431-.571-1.132-.843-1.837-.71l-1.036.196-.748-.741c-.507-.503-1.243-.673-1.92-.439-.677.232-1.153.818-1.244 1.528l-.133 1.045-.936.482c-.636.327-1.023.976-1.012 1.69.013.715.422 1.35 1.069 1.655l.952.449.17 1.039c.115.706.612 1.274 1.297 1.483.182.056.367.083.551.083.505 0 .993-.206 1.353-.588l.722-.767 1.04.159c.701.107 1.402-.186 1.812-.773.411-.586.452-1.34.108-1.967l-.506-.924.473-.94c.322-.637.254-1.389-.175-1.96z" fill="#e6e7e8"/><path d="m62.663 34.267-2.915.423c-.814.118-1.479.678-1.732 1.461-.254.782-.046 1.626.543 2.199l2.108 2.055c.035.034.051.082.043.13l-.498 2.903c-.139.812.188 1.616.854 2.1.376.272.815.411 1.259.411.341 0 .684-.082 1-.249l2.609-1.37c.042-.021.092-.021.134 0l2.606 1.37c.731.385 1.595.32 2.26-.162.666-.483.993-1.288.854-2.1l-.498-2.905c-.008-.046.008-.094.042-.127l2.109-2.056c.589-.573.797-1.417.543-2.199-.254-.783-.918-1.343-1.732-1.461l-2.913-.423c-.049-.007-.09-.036-.111-.08l-1.304-2.642v-.001c-.364-.737-1.102-1.195-1.925-1.195-.822 0-1.56.458-1.924 1.196l-1.305 2.643c-.019.043-.06.072-.107.079z" fill="#e6e7e8"/><path d="m65 82.048v-15.128c0-1.035-.839-1.875-1.875-1.875h-2.25c-1.036 0-1.875.84-1.875 1.875v15.128z" fill="#6dc9f7"/><path d="m62 52.045s-6 8 0 10c0 0 6-2 0-10z" fill="#ffd7e5"/><path d="m50.5 82.048v-15.128c0-1.035-.839-1.875-1.875-1.875h-2.25c-1.036 0-1.875.84-1.875 1.875v15.128z" fill="#6dc9f7"/><path d="m47.5 52.045s-6 8 0 10c0 0 6-2 0-10z" fill="#ffd7e5"/><path d="m79.5 82.048v-15.128c0-1.035-.839-1.875-1.875-1.875h-2.25c-1.036 0-1.875.84-1.875 1.875v15.128z" fill="#6dc9f7"/><path d="m76.5 52.045s-6 8 0 10c0 0 6-2 0-10z" fill="#ffd7e5"/><path d="m86.414 91.847c-1.6 0-3.06-.7-4.2-1.85-1.09-1.1-2.72-1.1-3.81 0-1.14 1.15-2.6 1.85-4.19 1.85-1.6 0-3.06-.7-4.21-1.85-1.09-1.1-2.72-1.1-3.81 0-1.14 1.15-2.6 1.85-4.19 1.85-1.6 0-3.06-.7-4.2-1.85-1.09-1.1-2.72-1.1-3.81 0-1.14 1.15-2.61 1.85-4.2 1.85-1.6 0-3.06-.7-4.2-1.85-1.09-1.1-2.72-1.1-3.81 0-1.14 1.15-2.6 1.85-4.19 1.85-1.92 0-3.635-1.012-4.844-2.612v19.809h58v-19.21c-1.162 1.247-2.676 2.013-4.336 2.013z" fill="#ffd7e5"/><path d="m90.75 85.482c-.431-.269-.911-.435-1.426-.435h-54.65c-.723 0-1.39.316-1.924.827v6.361c1.209 1.6 2.924 2.612 4.844 2.612 1.59 0 3.05-.7 4.19-1.85 1.09-1.1 2.72-1.1 3.81 0 1.14 1.15 2.6 1.85 4.2 1.85 1.59 0 3.06-.7 4.2-1.85 1.09-1.1 2.72-1.1 3.81 0 1.14 1.15 2.6 1.85 4.2 1.85 1.59 0 3.05-.7 4.19-1.85 1.09-1.1 2.72-1.1 3.81 0 1.15 1.15 2.61 1.85 4.21 1.85 1.59 0 3.05-.7 4.19-1.85 1.09-1.1 2.72-1.1 3.81 0 1.14 1.15 2.6 1.85 4.2 1.85 1.66 0 3.174-.767 4.336-2.013z" fill="#fff"/><path d="m92.504 85.958c0 .51-.08 1.02-.25 1.49-.05.19-.13.37-.22.55-1.16 2.31-3.25 3.85-5.62 3.85-1.6 0-3.06-.7-4.2-1.85-1.09-1.1-2.72-1.1-3.81 0-1.14 1.15-2.6 1.85-4.19 1.85-1.6 0-3.06-.7-4.21-1.85-1.09-1.1-2.72-1.1-3.81 0-1.14 1.15-2.6 1.85-4.19 1.85-1.6 0-3.06-.7-4.2-1.85-1.09-1.1-2.72-1.1-3.81 0-1.14 1.15-2.61 1.85-4.2 1.85-1.6 0-3.06-.7-4.2-1.85-1.09-1.1-2.72-1.1-3.81 0-1.14 1.15-2.6 1.85-4.19 1.85-2.38 0-4.46-1.54-5.63-3.85-.09-.17-.16-.35-.22-.53-.16-.48-.24-.99-.24-1.51 0-1.08.36-2.06.93-2.76.57-.71 1.37-1.15 2.24-1.15h54.65c1.75 0 3.18 1.75 3.18 3.91z" fill="#fa759e"/><path d="m92.504 85.958c0 .51-.08 1.02-.25 1.49-.05.19-.13.37-.22.55-1.16 2.31-3.25 3.85-5.62 3.85-1.6 0-3.06-.7-4.2-1.85-1.09-1.1-2.72-1.1-3.81 0-1.14 1.15-2.6 1.85-4.19 1.85-1.6 0-3.06-.7-4.21-1.85-1.09-1.1-2.72-1.1-3.81 0-1.14 1.15-2.6 1.85-4.19 1.85-1.6 0-3.06-.7-4.2-1.85-1.09-1.1-2.72-1.1-3.81 0-1.14 1.15-2.61 1.85-4.2 1.85-1.6 0-3.06-.7-4.2-1.85-1.09-1.1-2.72-1.1-3.81 0-1.14 1.15-2.6 1.85-4.19 1.85-2.38 0-4.46-1.54-5.63-3.85-.09-.17-.16-.35-.22-.53-.16-.48-.24-.99-.24-1.51 0-1.08.36-2.06.93-2.76.57-.71 1.37-1.15 2.24-1.15h54.65c1.75 0 3.18 1.75 3.18 3.91z" fill="#fa759e"/><circle cx="38" cy="86.545" fill="#6dc9f7" r="1.5"/><circle cx="44" cy="85.545" fill="#ffd7e5" r="1.5"/><circle cx="50" cy="87.545" fill="#6dc9f7" r="1.5"/><circle cx="63" cy="87.545" fill="#6dc9f7" r="1.5"/><circle cx="69" cy="85.545" fill="#ffd7e5" r="1.5"/><circle cx="75" cy="87.545" fill="#6dc9f7" r="1.5"/><circle cx="81" cy="85.545" fill="#ffd7e5" r="1.5"/><circle cx="87" cy="87.545" fill="#6dc9f7" r="1.5"/><circle cx="57" cy="85.545" fill="#ffd7e5" r="1.5"/><path d="m108 109.045h-92c-1.375 0-2.5 1.125-2.5 2.5s1.125 2.5 2.5 2.5h92c1.375 0 2.5-1.125 2.5-2.5s-1.125-2.5-2.5-2.5z" fill="#0089ef"/><path d="m23.028 20.132c-2.626 2.23-4.094 3.214-7.315 4.782-2.598-3.921-3.753-5.961-5.751-10.081 5.199 3.038 7.854 4.086 13.066 5.299z" fill="#0089ef"/><path d="m35.813 20.964c-1.938 3.143-3.069 4.635-5.649 7.332-3.115-3.063-4.55-4.719-7.136-8.163 5.212 1.213 7.811 1.368 12.785.831z" fill="#fa759e"/><path d="m47.692 17.511c-1.166 3.828-1.911 5.713-3.737 9.303-3.466-2.052-5.106-3.244-8.142-5.85 4.975-.536 7.392-1.239 11.879-3.453z" fill="#0089ef"/><path d="m58.038 9.955c-.336 4.294-.66 6.461-1.647 10.716-3.624-.894-5.378-1.547-8.699-3.16 4.486-2.214 6.597-3.737 10.346-7.556z" fill="#fa759e"/><path d="m100.972 20.132c2.626 2.23 4.094 3.214 7.315 4.782 2.598-3.921 3.753-5.961 5.751-10.081-5.199 3.038-7.854 4.086-13.066 5.299z" fill="#0089ef"/><path d="m88.187 20.964c1.938 3.143 3.069 4.635 5.649 7.332 3.115-3.063 4.55-4.719 7.136-8.163-5.212 1.213-7.811 1.368-12.785.831z" fill="#fa759e"/><path d="m76.309 17.511c1.166 3.828 1.911 5.713 3.737 9.303 3.466-2.052 5.106-3.244 8.142-5.85-4.975-.536-7.393-1.239-11.879-3.453z" fill="#0089ef"/><path d="m65.962 9.955c.336 4.294.66 6.461 1.647 10.716 3.624-.894 5.378-1.547 8.699-3.16-4.486-2.214-6.597-3.737-10.346-7.556z" fill="#fa759e"/><path d="m101.425 45.298.079 1.121c.02.284.178.54.424.685l.968.571c.618.364.55 1.279-.115 1.548l-1.042.421c-.264.107-.459.337-.521.615l-.244 1.097c-.156.7-1.047.918-1.508.369l-.723-.861c-.183-.218-.462-.332-.746-.305l-1.119.107c-.714.068-1.197-.712-.817-1.32l.595-.953c.151-.242.173-.542.06-.803l-.448-1.031c-.286-.658.307-1.358 1.003-1.185l1.09.272c.276.069.569-.003.783-.191l.842-.744c.54-.477 1.389-.129 1.439.587z" fill="#6dc9f7"/><path d="m24.219 44.735.798.791c.202.201.491.289.77.236l1.104-.209c.705-.134 1.257.599.934 1.24l-.506 1.004c-.128.254-.123.556.014.806l.54.985c.345.629-.181 1.381-.891 1.272l-1.111-.171c-.282-.043-.566.055-.762.262l-.77.818c-.492.522-1.369.254-1.485-.454l-.181-1.109c-.046-.281-.227-.522-.485-.643l-1.016-.48c-.649-.306-.665-1.224-.027-1.552l.999-.515c.253-.131.426-.377.462-.66l.142-1.115c.094-.712.961-1.011 1.471-.506z" fill="#fa759e"/><path d="m63.028 27.987 1.304 2.642c.167.338.489.573.863.627l2.915.424c.94.137 1.315 1.291.635 1.954l-2.109 2.056c-.27.263-.393.642-.33 1.014l.498 2.903c.161.936-.822 1.65-1.662 1.208l-2.607-1.371c-.334-.175-.733-.175-1.066 0l-2.607 1.371c-.841.442-1.823-.272-1.662-1.208l.498-2.903c.064-.372-.059-.751-.33-1.014l-2.109-2.056c-.68-.663-.305-1.818.635-1.954l2.915-.424c.373-.054.696-.289.863-.627l1.304-2.642c.417-.851 1.631-.851 2.052 0z" fill="#ffd7e5"/><g fill="#3a2c60"><path d="m82.5 113.045h-6.441c-.553 0-1 .447-1 1s.447 1 1 1h6.441c.553 0 1-.447 1-1s-.447-1-1-1z"/><path d="m108 108.045h-16.25v-17.809c.446-.526.844-1.12 1.18-1.783.373-.738.57-1.603.57-2.5 0-2.706-1.873-4.908-4.176-4.908h-8.824v-14.125c0-1.585-1.29-2.875-2.875-2.875h-.125v-1.371c.756-.417 1.93-1.288 2.434-2.899.705-2.258-.181-5.061-2.634-8.33-.377-.504-1.223-.504-1.6 0-.386.515-3.739 5.128-2.651 8.611.265.848.909 1.948 2.451 2.664v1.324h-.125c-1.585 0-2.875 1.29-2.875 2.875v14.125h-6.5v-14.124c0-1.585-1.29-2.875-2.875-2.875h-.125v-1.371c.756-.417 1.93-1.288 2.434-2.899.705-2.258-.181-5.061-2.634-8.33-.377-.504-1.223-.504-1.6 0-.386.515-3.739 5.128-2.651 8.611.265.848.909 1.948 2.451 2.664v1.324h-.125c-1.585 0-2.875 1.29-2.875 2.875v14.125h-6.5v-14.124c0-1.585-1.29-2.875-2.875-2.875h-.125v-1.371c.756-.417 1.93-1.288 2.434-2.899.705-2.258-.181-5.061-2.634-8.33-.377-.504-1.223-.504-1.6 0-.386.515-3.739 5.128-2.651 8.611.265.848.909 1.948 2.451 2.664v1.324h-.125c-1.585 0-2.875 1.29-2.875 2.875v14.125h-8.824c-2.303 0-4.176 2.202-4.176 4.908 0 .899.197 1.765.57 2.5.203.401.434.771.68 1.124v18.468h-15.75c-1.93 0-3.5 1.57-3.5 3.5s1.57 3.5 3.5 3.5h55.833c.553 0 1-.447 1-1s-.447-1-1-1h-55.833c-.827 0-1.5-.673-1.5-1.5s.673-1.5 1.5-1.5h92c.827 0 1.5.673 1.5 1.5s-.673 1.5-1.5 1.5h-21c-.553 0-1 .447-1 1s.447 1 1 1h21c1.93 0 3.5-1.57 3.5-3.5s-1.57-3.499-3.5-3.499zm-33.041-48.583c-.51-1.627.612-4.061 1.563-5.643 1.397 2.161 1.918 3.989 1.51 5.336-.315 1.04-1.124 1.585-1.561 1.812-.806-.339-1.302-.833-1.512-1.505zm-14.5 0c-.51-1.627.612-4.061 1.563-5.643 1.397 2.161 1.918 3.989 1.51 5.336-.315 1.04-1.124 1.585-1.561 1.812-.806-.339-1.302-.833-1.512-1.505zm-14.5 0c-.51-1.627.612-4.061 1.563-5.643 1.397 2.161 1.918 3.989 1.51 5.336-.315 1.04-1.124 1.585-1.561 1.812-.806-.339-1.302-.833-1.512-1.505zm28.541 7.458c0-.482.393-.875.875-.875h2.25c.482 0 .875.393.875.875v14.125h-4zm-14.5 0c0-.482.393-.875.875-.875h2.25c.482 0 .875.393.875.875v14.125h-4zm-14.5 0c0-.482.393-.875.875-.875h2.25c.482 0 .875.393.875.875v14.125h-4zm-10.824 16.125h9.81c.005 0 .009.003.015.003h6c.005 0 .009-.003.015-.003h8.471c.005 0 .009.003.015.003h6c.005 0 .009-.003.015-.003h8.471c.005 0 .009.003.015.003h6c.005 0 .009-.003.015-.003h9.81c1.18 0 2.176 1.332 2.176 2.908 0 .585-.123 1.138-.355 1.598-1.043 2.062-2.813 3.292-4.734 3.292-1.277 0-2.481-.536-3.483-1.55-.717-.725-1.646-1.124-2.615-1.124-.001 0-.001 0-.001 0-.971 0-1.899.398-2.618 1.125-2.003 2.028-4.972 2.022-6.975 0-1.434-1.449-3.797-1.449-5.23 0-2.007 2.025-4.972 2.027-6.975 0-1.434-1.449-3.797-1.449-5.23 0-2.002 2.021-4.969 2.03-6.977-.001-.717-.725-1.646-1.124-2.615-1.124-.001 0-.001 0-.001 0-.971 0-1.899.398-2.618 1.125-1 1.013-2.205 1.549-3.482 1.549-1.921 0-3.69-1.23-4.734-3.293-.231-.458-.354-1.01-.354-1.597-.007-1.576.989-2.908 2.169-2.908zm-.926 8.562c1.142.796 2.455 1.236 3.839 1.236 1.799 0 3.541-.762 4.905-2.144.339-.342.763-.53 1.195-.53s.855.188 1.194.53c1.365 1.382 3.108 2.144 4.905 2.144 1.802 0 3.548-.761 4.915-2.143.676-.684 1.711-.684 2.387 0 1.366 1.382 3.109 2.143 4.909 2.143 1.798 0 3.542-.761 4.909-2.143.676-.684 1.711-.684 2.387 0 1.367 1.382 3.112 2.143 4.914 2.143 1.799 0 3.541-.762 4.905-2.144.339-.342.763-.53 1.195-.53s.855.188 1.194.53c1.365 1.382 3.107 2.144 4.905 2.144 1.188 0 2.319-.336 3.34-.929v16.132h-56v-16.439z"/><path d="m15.714 25.915c.147 0 .297-.032.438-.101 2.891-1.41 4.441-2.376 6.713-4.243 2.262 2.966 3.758 4.645 6.597 7.438.188.185.439.287.701.287h.016c.268-.004.522-.115.707-.309 2.304-2.409 3.502-3.905 5.161-6.514 2.585 2.172 4.285 3.358 7.398 5.201.156.093.332.14.51.14.094 0 .188-.013.279-.04.265-.077.486-.261.612-.507 1.639-3.223 2.439-5.135 3.457-8.356 2.8 1.313 4.613 1.934 7.848 2.731.079.02.159.029.239.029.184 0 .364-.051.523-.147.228-.141.391-.366.45-.627.982-4.23 1.325-6.464 1.671-10.863.033-.419-.2-.814-.583-.988-.38-.175-.832-.091-1.128.21-3.654 3.722-5.632 5.166-10.075 7.359-4.401 2.171-6.667 2.83-11.544 3.355-4.928.531-7.37.372-12.45-.811-5.222-1.217-7.732-2.234-12.789-5.188-.378-.223-.859-.169-1.184.129-.322.3-.412.774-.22 1.171 2.035 4.198 3.23 6.295 5.816 10.197.194.287.511.447.837.447zm41.087-13.343c-.251 2.415-.564 4.239-1.157 6.879-2.225-.579-3.718-1.092-5.684-1.979 2.719-1.451 4.58-2.779 6.841-4.9zm-10.754 6.822c-.731 2.197-1.396 3.778-2.503 6.01-2.132-1.291-3.539-2.27-5.334-3.731 2.968-.437 5.097-1.056 7.837-2.279zm-12.169 2.755c-1.185 1.801-2.17 3.035-3.738 4.717-1.916-1.912-3.16-3.285-4.664-5.187 3.044.579 5.326.699 8.402.47zm-13.027-1.522c-1.565 1.23-2.829 2.013-4.789 3-1.596-2.433-2.611-4.13-3.753-6.329 2.982 1.587 5.31 2.485 8.542 3.329z"/><path d="m114.718 14.101c-.324-.3-.806-.353-1.184-.13-5.057 2.954-7.567 3.972-12.789 5.188-5.079 1.184-7.523 1.343-12.451.811-4.877-.525-7.143-1.185-11.543-3.355-4.442-2.192-6.42-3.637-10.075-7.359-.296-.301-.747-.385-1.128-.21-.383.174-.615.569-.583.988.344 4.393.688 6.627 1.671 10.863.06.261.223.486.45.627.159.097.34.147.523.147.08 0 .16-.01.239-.029 3.236-.798 5.049-1.418 7.848-2.731 1.018 3.221 1.817 5.133 3.457 8.356.126.246.348.43.612.507.092.027.186.04.279.04.178 0 .354-.047.51-.14 3.112-1.843 4.812-3.028 7.398-5.201 1.661 2.612 2.859 4.108 5.161 6.514.185.193.439.305.707.309h.016c.262 0 .514-.103.701-.287 2.836-2.789 4.332-4.468 6.598-7.438 2.272 1.867 3.821 2.833 6.715 4.243.14.068.289.101.437.101.326 0 .644-.16.835-.447 2.582-3.896 3.778-5.993 5.816-10.197.192-.397.102-.871-.22-1.17zm-46.361 5.349c-.593-2.642-.907-4.467-1.157-6.878 2.261 2.12 4.123 3.448 6.841 4.901-1.965.886-3.46 1.399-5.684 1.977zm12.098 5.953c-1.107-2.232-1.771-3.813-2.502-6.01 2.739 1.224 4.868 1.843 7.836 2.278-1.794 1.463-3.202 2.441-5.334 3.732zm13.405 1.462c-1.566-1.68-2.552-2.914-3.738-4.717 3.079.231 5.359.107 8.402-.47-1.506 1.905-2.749 3.277-4.664 5.187zm14.079-3.238c-1.961-.987-3.225-1.769-4.79-2.999 3.233-.845 5.56-1.743 8.542-3.33-1.144 2.202-2.158 3.899-3.752 6.329z"/><path d="m95.209 50.785c.377.609 1.052.941 1.766.876l1.048-.101.677.807c.361.431.881.668 1.424.668.148 0 .3-.018.449-.055.695-.17 1.223-.71 1.378-1.407l.229-1.029.976-.394c.664-.269 1.109-.878 1.162-1.592.053-.713-.297-1.382-.913-1.745l-.908-.535-.072-1.05c-.001-.001-.001-.001-.001-.001-.05-.714-.493-1.325-1.155-1.596s-1.406-.144-1.941.329l-.789.697-1.021-.255c-.691-.167-1.412.059-1.875.604s-.572 1.293-.287 1.949l.419.966-.557.893c-.383.608-.385 1.362-.009 1.971zm2.425-3.594-.339-.78.828.206c.595.149 1.227-.008 1.685-.413l.639-.564.06.853c.044.611.385 1.162.913 1.474l.733.433-.79.319c-.569.231-.988.727-1.121 1.324l-.185.832-.548-.651c-.355-.425-.881-.667-1.432-.667-.058 0-.116.003-.175.009l-.848.081.449-.721c.329-.524.377-1.172.131-1.735z"/><path d="m23.002 43.587c-.677.232-1.153.818-1.244 1.528l-.133 1.044-.937.482c-.636.328-1.022.977-1.01 1.691s.422 1.349 1.069 1.654l.952.449.169 1.039c.115.706.611 1.275 1.296 1.484.182.056.367.082.551.082.505 0 .994-.206 1.354-.588l.722-.767 1.042.16c.714.109 1.401-.188 1.812-.774.41-.587.45-1.34.106-1.967l-.506-.923.475-.941c.321-.64.253-1.392-.178-1.963-.431-.57-1.14-.84-1.836-.709l-1.036.195-.747-.74s0 0 0-.001c-.509-.5-1.244-.668-1.921-.435zm2.971 3.157.838-.158-.384.762c-.275.548-.264 1.196.03 1.734l.409.747-.841-.129c-.613-.096-1.22.118-1.642.564l-.583.62-.137-.84c-.1-.607-.491-1.126-1.046-1.387l-.77-.363.759-.392c.545-.281.916-.813.994-1.422l.107-.845.604.601c.438.433 1.061.623 1.662.508z"/><path d="m58.662 30.267-2.914.424c-.814.117-1.478.676-1.732 1.458-.255.783-.047 1.626.542 2.201l2.109 2.056c.034.033.05.081.042.13l-.497 2.902c-.14.811.187 1.615.853 2.099.376.273.816.412 1.26.412.341 0 .684-.082 1-.249l2.608-1.37c.041-.021.093-.021.136 0l2.606 1.37c.728.385 1.594.32 2.259-.162.666-.483.994-1.287.854-2.099l-.498-2.902c-.008-.049.008-.098.042-.131l2.109-2.056c.59-.574.798-1.418.543-2.2-.255-.783-.919-1.342-1.732-1.459l-2.913-.424c-.049-.007-.09-.037-.111-.08l-1.304-2.642v-.001c-.364-.737-1.102-1.195-1.924-1.195-.001 0-.001 0-.001 0-.822 0-1.56.459-1.923 1.196l-1.304 2.641c-.021.044-.063.074-.11.081zm1.904.804 1.304-2.642c.012-.022.04-.081.131-.081s.12.06.131.082l1.304 2.642c.313.632.916 1.07 1.615 1.173l2.916.424c.024.004.089.014.117.099.027.086-.02.133-.038.15l-2.11 2.057c-.504.493-.734 1.202-.615 1.898l.498 2.903c.004.024.015.089-.059.143-.072.053-.131.022-.153.011l-2.606-1.37c-.625-.33-1.372-.33-1.997 0l-2.608 1.37c-.022.013-.081.042-.153-.011-.072-.054-.062-.117-.058-.143l.497-2.901c.121-.697-.109-1.408-.616-1.901l-2.109-2.056c-.018-.018-.065-.063-.037-.15.028-.085.093-.095.117-.099l2.917-.424c.696-.102 1.299-.541 1.612-1.174z"/></g></svg>