<?xml version="1.0" encoding="UTF-8"?>
<!DOCTYPE svg PUBLIC "-//W3C//DTD SVG 1.1//EN" "http://www.w3.org/Graphics/SVG/1.1/DTD/svg11.dtd">
<!-- Creator: CorelDRAW X6 -->
<svg xmlns="http://www.w3.org/2000/svg" xml:space="preserve" width="131.003mm" height="39.9242mm" version="1.1" style="shape-rendering:geometricPrecision; text-rendering:geometricPrecision; image-rendering:optimizeQuality; fill-rule:evenodd; clip-rule:evenodd"
viewBox="0 0 14100 4297"
 xmlns:xlink="http://www.w3.org/1999/xlink">
 <defs>
  <style type="text/css">
   <![CDATA[
    .fil3 {fill:#03C03C}
    .fil2 {fill:#2B2B2A}
    .fil0 {fill:#675349}
    .fil1 {fill:#FEFEFE}
   ]]>
  </style>
 </defs>
 <g id="Слой_x0020_1">
  <metadata id="CorelCorpID_0Corel-Layer"/>
  <path class="fil0" d="M12570 1336l378 0c247,0 415,-152 415,-382 0,-218 -169,-378 -415,-378l-378 0 0 761zm-724 1427l0 -2763 1221 0c304,0 551,90 744,267 193,177 288,407 288,687 0,280 -95,510 -288,691 -193,177 -440,267 -744,267l-498 0 0 851 -724 0zm-2491 -49l0 -2713 1966 0 0 549 -1228 0 0 509 1098 0 0 533 -1098 0 0 573 1292 0 0 549 -2031 0zm-3537 0l0 -2713 711 0 779 1078 779 -1078 711 0 0 2713 -678 0 0 -1708 -610 844 -404 0 -606 -844 0 1708 -682 0zm-2895 -2713l771 0 561 1308 557 -1308 771 0 -1009 2148c-194,408 -501,614 -921,614 -133,0 -287,-20 -456,-65l105 -561c117,20 202,32 262,32 141,0 246,-65 307,-198l20 -40 -969 -1930zm-1040 11l0 982 -571 -374 -571 379 0 -987 -736 0 0 2703 736 0 0 -1153 560 -372 11 -7 11 7 560 368 0 1157 736 0 0 -2703 -736 0z"/>
  <path class="fil1" d="M1255 2368l-273 0 0 -273 273 0 0 273zm0 -394l-273 0 0 -273 273 0 0 273zm387 394l-273 0 0 -273 273 0 0 273zm0 -394l-273 0 0 -273 273 0 0 273z"/>
  <path class="fil2" d="M251 3828l228 0 -114 -292 -114 292zm-251 279l298 -728 133 0 298 728 -145 0 -67 -173 -305 0 -67 173 -145 0zm1411 -111l0 -507 -280 0 0 185c0,121 -23,229 -68,322l348 0zm-554 0l52 0c55,-99 83,-209 83,-333l0 -285 557 0 0 618 104 0 0 301 -133 0 0 -191 -531 0 0 191 -132 0 0 -301zm1161 -249l138 0c82,0 139,-52 139,-129 0,-75 -56,-129 -139,-129l-138 0 0 258zm-139 360l0 -728 298 0c76,0 138,23 186,67 49,44 73,102 73,172 0,70 -24,128 -73,173 -49,44 -111,67 -186,67l-159 0 0 248 -139 0zm783 0l0 -728 497 0 0 108 -353 0 0 194 319 0 0 106 -319 0 0 211 371 0 0 108 -515 0zm1080 -741c90,0 177,27 261,82l-59 96c-62,-42 -124,-64 -184,-64 -73,0 -132,25 -178,74 -45,49 -68,112 -68,189 0,77 23,141 68,190 46,49 105,73 178,73 62,0 122,-22 184,-64l59 96c-85,55 -171,82 -261,82 -221,0 -374,-156 -374,-377 0,-222 154,-377 374,-377zm481 741l0 -728 144 0 0 300 372 0 0 -300 144 0 0 728 -144 0 0 -318 -372 0 0 318 -144 0zm1642 0l0 -728 144 0 0 728 -144 0zm-559 -111l169 0c74,0 125,-47 125,-115 0,-68 -51,-115 -125,-115l-169 0 0 230zm-139 111l0 -728 139 0 0 276 191 0c72,0 130,22 176,64 47,42 69,96 69,163 0,66 -23,120 -69,163 -46,42 -104,63 -176,63l-329 0zm1128 0l0 -728 497 0 0 108 -353 0 0 194 319 0 0 106 -319 0 0 211 371 0 0 108 -515 0zm1049 -618l0 -111 605 0 0 111 -230 0 0 618 -144 0 0 -618 -231 0zm987 339l228 0 -114 -292 -114 292zm-251 279l298 -728 133 0 298 728 -145 0 -67 -173 -305 0 -67 173 -145 0zm1066 -105l173 0c70,0 120,-44 120,-111 0,-66 -48,-111 -120,-111l-173 0 0 221zm-139 105l0 -728 512 0 0 105 -373 0 0 191 195 0c70,0 128,21 172,61 46,40 68,92 68,156 0,64 -23,116 -68,156 -44,40 -102,60 -172,60l-334 0zm733 -108c26,3 44,4 54,4 70,0 112,-52 112,-142l0 -482 593 0 0 728 -139 0 0 -618 -315 0 0 383c0,153 -87,248 -229,248 -26,0 -55,-2 -88,-8l12 -114zm1043 108l0 -728 133 0 0 531 387 -531 140 0 0 728 -133 0 0 -531 -387 531 -140 0zm910 -728l144 0 0 193c0,88 61,149 151,149 57,0 118,-8 183,-22l0 -320 144 0 0 728 -144 0 0 -297c-83,16 -156,24 -216,24 -77,0 -141,-24 -190,-71 -49,-47 -73,-107 -73,-181l0 -204zm907 728l0 -728 139 0 0 300 77 0 241 -300 160 0 -282 349 300 379 -163 0 -251 -318 -82 0 0 318 -139 0zm840 0l0 -728 133 0 0 531 387 -531 140 0 0 728 -133 0 0 -531 -387 531 -140 0z"/>
  <path class="fil3" d="M982 1701l273 0 0 273 -273 0 0 -273zm0 394l273 0 0 273 -273 0 0 -273zm-241 619l1142 0 0 -1157 -560 -368 -11 -7 -11 7 -560 372 0 1153zm628 -1013l273 0 0 273 -273 0 0 -273zm0 394l273 0 0 273 -273 0 0 -273z"/>
 </g>
</svg>
