<svg width="39" height="41" viewBox="0 0 39 41" fill="none" xmlns="http://www.w3.org/2000/svg">
<path d="M37.1196 21.0311C36.9561 20.6935 36.9561 20.3064 37.1196 19.969L38.6355 16.8409C39.4796 15.0991 38.8108 13.0231 37.1131 12.1144L34.064 10.4825C33.735 10.3064 33.5095 9.99319 33.4451 9.62331L32.8488 6.19367C32.5167 4.28414 30.7657 3.00098 28.8631 3.27252L25.4454 3.76019C25.0765 3.81272 24.7118 3.69308 24.4442 3.43195L21.9633 1.01105C20.582 -0.336976 18.418 -0.337056 17.0367 1.01105L14.5558 3.43211C14.2882 3.69333 13.9234 3.81272 13.5546 3.76035L10.1369 3.27268C8.23366 3.00098 6.48325 4.2843 6.15119 6.19383L5.55486 9.62331C5.49048 9.99327 5.26495 10.3064 4.93607 10.4825L1.88695 12.1145C0.189251 13.0231 -0.479476 15.0992 0.364529 16.841L1.88036 19.9691C2.04389 20.3066 2.04389 20.6937 1.88036 21.0312L0.36445 24.1593C-0.479555 25.9011 0.189171 27.9771 1.88687 28.8857L4.93599 30.5177C5.26495 30.6937 5.49048 31.007 5.55486 31.3768L6.15119 34.8065C6.45348 36.5448 7.93113 37.7639 9.62938 37.7637C9.79664 37.7637 9.96636 37.7519 10.137 37.7276L13.5547 37.2399C13.9232 37.1871 14.2882 37.307 14.5559 37.5681L17.0367 39.989C17.7275 40.6631 18.6136 41.0001 19.5 41C20.3862 40.9999 21.2728 40.663 21.9633 39.989L24.4442 37.5681C24.7118 37.307 25.0767 37.1877 25.4454 37.2399L28.8631 37.7276C30.7666 37.9992 32.5167 36.7159 32.8488 34.8064L33.4451 31.3769C33.5095 31.007 33.735 30.6938 34.0639 30.5177L37.1131 28.8857C38.8107 27.9772 39.4795 25.901 38.6355 24.1592L37.1196 21.0311Z" fill="#FF5B55"/>
</svg>
