<svg width="38" height="37" viewBox="0 0 38 37" fill="none" xmlns="http://www.w3.org/2000/svg">
<rect width="38" height="37" rx="5" fill="#C251C0"/>
<path d="M22.4414 28.9942C21.3691 28.9676 20.3659 28.8745 19.4319 28.7149C18.5065 28.5552 17.7325 28.4266 17.1099 28.329C16.4959 28.2226 16.1889 28.1694 16.1889 28.1694C16.1889 28.1694 16.2062 28.298 16.2407 28.5552C16.1629 28.6262 15.9251 28.6528 15.5273 28.635C15.1295 28.6262 14.6754 28.5907 14.1652 28.5286C13.6636 28.4754 13.2269 28.4089 12.855 28.329C12.4831 28.2403 12.2886 28.1605 12.2713 28.0896C12.2713 27.6727 12.2886 26.9542 12.3232 25.9342C12.3664 24.9054 12.388 24.0495 12.388 23.3665C12.4053 23.0029 12.4183 22.4441 12.4269 21.6902C12.4442 20.9983 12.4486 19.832 12.4399 18.1911C12.4399 16.7897 12.4442 15.5436 12.4529 14.4526C12.4615 13.3616 12.4875 12.2707 12.5307 11.1797C12.574 10.0799 12.6475 9.46348 12.7512 9.33043C12.8464 9.27722 13.0972 9.25948 13.5036 9.27722C13.9187 9.29496 14.3771 9.3393 14.8787 9.41026C15.3889 9.47235 15.83 9.5433 16.2018 9.62313C16.5823 9.70296 16.7726 9.77835 16.7726 9.8493C16.7726 9.92026 16.7423 10.2706 16.6818 10.9003C16.6299 11.5212 16.5607 12.2751 16.4742 13.1621C16.3099 14.3151 16.1586 15.4504 16.0202 16.568C16.1413 16.5591 16.5607 16.5325 17.2785 16.4882C17.9963 16.4438 18.7357 16.4128 19.4968 16.395C20.2664 16.3773 21.114 16.3862 22.0393 16.4216C22.9733 16.4571 23.5441 16.5503 23.7516 16.701C23.9851 16.9671 24.1927 17.7343 24.3743 19.0027C24.5559 20.271 24.7072 21.5394 24.8283 22.8077C24.958 24.0761 25.0142 25.3178 24.9969 26.5329C24.9883 27.7481 24.9105 28.4399 24.7634 28.6084C24.2878 28.9011 23.5138 29.0297 22.4414 28.9942ZM19.6524 19.5748C18.9692 19.5836 18.2385 19.6324 17.4601 19.7211C16.6818 19.8098 15.9554 19.9118 15.2808 20.0271C15.0819 20.1158 14.9392 20.4484 14.8527 21.0249C14.7749 21.5926 14.7403 22.1514 14.749 22.7013C14.7662 23.2512 14.8484 23.6104 14.9954 23.7789C15.2895 23.9918 15.83 24.2002 16.6169 24.4042C17.4126 24.6082 18.1304 24.759 18.7703 24.8566C19.4103 24.9542 20.1021 24.963 20.8459 24.8832C21.088 24.83 21.2739 24.5905 21.4037 24.1648C21.542 23.7302 21.6155 23.1581 21.6242 22.4485C21.6415 21.7301 21.6112 21.1092 21.5334 20.5859C21.4642 20.0626 21.3604 19.7655 21.2221 19.6945C20.8675 19.5969 20.3443 19.557 19.6524 19.5748ZM14.243 12.5634C12.401 12.8029 11.3978 12.9182 11.2335 12.9093C11.0778 12.9004 11 12.8738 11 12.8295C11.0173 12.182 11.0432 11.5035 11.0778 10.7939C11.1124 10.0843 11.1427 9.5433 11.1686 9.17078C12.0248 9.09096 13.335 8.97122 15.0992 8.81156C16.8721 8.64304 18.6536 8.46565 20.4437 8.27939C22.2339 8.09313 23.2327 8 23.4403 8C23.5441 8.02661 23.6089 8.22174 23.6349 8.58539C23.6608 8.94017 23.6565 9.35704 23.6219 9.836C23.596 10.3061 23.5484 10.723 23.4792 11.0866C23.41 11.4503 23.3279 11.6543 23.2327 11.6986C22.9646 11.7075 22.5712 11.7474 22.0523 11.8183C21.5334 11.8804 20.2491 12.0002 18.1995 12.1776C17.4039 12.1953 16.0851 12.3239 14.243 12.5634Z" fill="white"/>
</svg>
