<svg width="34" height="32" viewBox="0 0 34 32" fill="none" xmlns="http://www.w3.org/2000/svg">
<path d="M31.156 14.1218H2.84542C2.54885 14.1218 2.30859 14.3622 2.30859 14.6586V31.3155C2.30859 31.612 2.54885 31.8523 2.84542 31.8523H31.1561C31.4526 31.8523 31.6929 31.6119 31.6929 31.3155V14.6587C31.6928 14.3621 31.4525 14.1218 31.156 14.1218Z" fill="#C251C0"/>
<path d="M31.156 14.1218H2.84542C2.54885 14.1218 2.30859 14.3622 2.30859 14.6586V16.806H31.6929V14.6586C31.6928 14.3621 31.4525 14.1218 31.156 14.1218Z" fill="#00B6C6"/>
<path d="M19.7445 14.1218H14.2595C13.9629 14.1218 13.7227 14.3622 13.7227 14.6587V31.3155C13.7227 31.612 13.9629 31.8524 14.2595 31.8524H19.7445C20.041 31.8524 20.2813 31.612 20.2813 31.3155V14.6587C20.2813 14.3621 20.0409 14.1218 19.7445 14.1218Z" fill="#FFC100"/>
<path d="M19.7445 14.1218H14.2595C13.9629 14.1218 13.7227 14.3622 13.7227 14.6587V16.7945H20.2813V14.6587C20.2813 14.3622 20.0409 14.1218 19.7445 14.1218Z" fill="#00B6C6"/>
<path d="M30.1088 4.20481C29.5824 2.83279 28.7518 1.49278 27.887 0.620132C27.5697 0.299988 27.1423 0.137691 26.6559 0.148116C25.0441 0.185636 22.4176 2.20857 18.8494 6.16067C18.7603 6.25928 18.7109 6.38752 18.7109 6.52046V9.36006C18.7109 9.65656 18.9512 9.89689 19.2478 9.89689H27.5056C29.3456 9.89689 30.105 9.00173 30.418 8.25074C30.8355 7.24967 30.7256 5.8127 30.1088 4.20481Z" fill="#FFC100"/>
<path d="M30.4167 5.14021C30.4017 5.08509 30.378 5.03269 30.3465 4.98508C29.5358 3.75942 27.7842 4.21802 26.4576 4.81853C22.6035 6.56316 21.0119 8.96633 20.946 9.06774C20.8388 9.23289 20.8305 9.44333 20.9245 9.61632C21.0184 9.78931 21.1994 9.89695 21.3962 9.89695H27.5064C28.6772 9.89695 29.5455 9.53756 30.0871 8.82881C30.7305 7.98678 30.8444 6.71124 30.4167 5.14021Z" fill="#FF5C57"/>
<path d="M15.1498 6.16074C11.5816 2.20864 8.95509 0.185703 7.34328 0.148183C6.85559 0.137691 6.42946 0.300054 6.11217 0.620199C5.24743 1.49278 4.41682 2.83286 3.89048 4.20487C3.27364 5.81277 3.16373 7.24967 3.58103 8.25088C3.89407 9.00186 4.65342 9.89702 6.49347 9.89702H14.7513C15.0479 9.89702 15.2881 9.65663 15.2881 9.36019V6.52053C15.2882 6.38758 15.239 6.25935 15.1498 6.16074Z" fill="#FFC100"/>
<path d="M13.0569 9.06766C12.991 8.96626 11.3994 6.56302 7.54523 4.81846C6.2185 4.21795 4.46697 3.75955 3.65634 4.98494C3.62487 5.03262 3.60116 5.08495 3.58615 5.14013C3.1583 6.71117 3.27238 7.9867 3.91579 8.82867C4.45734 9.53742 5.3256 9.89681 6.49647 9.89681H12.6066C12.8035 9.89681 12.9845 9.78917 13.0784 9.61618C13.1723 9.44326 13.1641 9.23282 13.0569 9.06766Z" fill="#FF5C57"/>
<path d="M19.2488 5.453H14.7517C14.4551 5.453 14.2148 5.69339 14.2148 5.98983V9.36015C14.2148 9.65665 14.4551 9.89697 14.7517 9.89697H19.2488C19.5454 9.89697 19.7857 9.65658 19.7857 9.36015V5.98983C19.7857 5.69333 19.5454 5.453 19.2488 5.453Z" fill="#00B6C6"/>
<path d="M33.4632 8.82434H0.536828C0.240258 8.82434 0 9.06473 0 9.36117L0 14.6586C0 14.9551 0.240258 15.1954 0.536828 15.1954H33.4632C33.7597 15.1954 34 14.955 34 14.6586V9.36117C34 9.06467 33.7597 8.82434 33.4632 8.82434Z" fill="#C251C0"/>
<path d="M21.1262 8.82416H12.8789V15.1954H21.1262V8.82416Z" fill="#FFC100"/>
</svg>
