<svg width="38" height="37" viewBox="0 0 38 37" fill="none" xmlns="http://www.w3.org/2000/svg">
<rect width="38" height="37" rx="5" fill="#00B6C6"/>
<path d="M11.8123 13.3576C12.0269 13.4128 12.2415 13.7996 12.4203 14.4995C12.5991 15.2177 12.7421 16.0834 12.8673 17.1147C12.9924 18.1461 13.0818 19.1775 13.1533 20.2089C13.2249 21.2403 13.2606 22.1059 13.2606 22.7873C13.2606 23.4872 13.2427 23.8556 13.1891 23.8924C12.7421 23.8371 12.2415 23.7819 11.7229 23.7082C11.2044 23.6345 10.7753 23.5425 10.4356 23.4504C10.3998 22.4927 10.3283 21.2403 10.2389 19.73C10.1852 18.8828 10.1495 18.0725 10.1137 17.3358C10.078 16.5806 10.0422 16.0097 10.0422 15.5861C9.57731 15.8439 9.09455 16.157 8.59391 16.5254C8.09326 16.8937 7.73566 17.1516 7.5211 17.3358C7.5211 17.9804 7.55686 18.9933 7.6105 20.3562C7.66414 21.7191 7.71778 22.8978 7.75354 23.874C7.41382 23.874 7.03834 23.8556 6.64497 23.8003C6.25161 23.7635 5.89401 23.7082 5.59004 23.653C5.28608 23.5977 5.0894 23.5609 5 23.524C5.07152 22.5295 5.16092 21.1298 5.28608 19.3248C5.37548 17.8699 5.46488 16.5622 5.5364 15.4019C5.6258 14.2416 5.67945 13.597 5.69733 13.4865C6.14433 13.5233 6.60921 13.5602 7.12774 13.6338C7.64626 13.6891 8.02174 13.7628 8.27207 13.818C8.25419 13.9653 8.2363 14.1127 8.21842 14.2784C8.20054 14.4442 8.1469 14.6468 8.09326 14.8862C8.62967 14.5731 9.09455 14.2969 9.50579 14.0943C9.89916 13.8917 10.3104 13.7075 10.7216 13.5602C11.1329 13.3944 11.4905 13.3392 11.8123 13.3576Z" fill="white"/>
<path d="M20.8631 20.4299C20.9704 20.7614 21.0419 21.1666 21.0419 21.6638C21.0419 22.1611 20.9704 22.5294 20.8273 22.7689C20.6843 22.9162 20.2373 23.0636 19.5042 23.2293C18.7711 23.3951 18.0023 23.5424 17.1798 23.6713C16.3752 23.8003 15.8566 23.8739 15.6242 23.8923C15.4454 23.9108 15.2666 23.7634 15.1057 23.4687C14.9447 23.1741 14.8017 22.7873 14.6944 22.3269C14.5693 21.8664 14.4799 21.3876 14.3905 20.9087C14.3189 20.4114 14.2653 19.8037 14.2295 19.1038C14.1938 18.4039 14.2117 17.7225 14.2653 17.0963C14.3189 16.4701 14.4262 16.0096 14.605 15.7334C14.8732 15.4019 15.3381 15.144 16.0176 14.923C16.697 14.7204 17.448 14.5731 18.2705 14.4994C19.0929 14.4257 19.7187 14.4257 20.1121 14.4994C20.3088 14.5915 20.4518 14.8862 20.5233 15.3834C20.6127 15.8623 20.6128 16.4148 20.5591 17.041C20.5055 17.6672 20.3624 18.2013 20.13 18.6802C19.8975 19.159 19.5578 19.4353 19.1108 19.509C17.8056 19.6563 16.8222 19.7484 16.1606 19.7668C16.1785 20.0983 16.2142 20.4114 16.2679 20.7429C16.3394 21.0745 16.4109 21.3507 16.4824 21.5717C16.554 21.7927 16.6076 21.9217 16.6434 21.9217C16.9116 21.7927 17.4658 21.5902 18.342 21.3139C19.236 21.0192 20.0585 20.7245 20.8631 20.4299ZM16.3036 16.5069C16.0533 16.5622 15.8924 16.7463 15.7851 17.041C15.6957 17.3357 15.66 17.5936 15.6778 17.7961C15.7136 18.0172 15.7851 18.1461 15.9282 18.2013C16.0533 18.2197 16.25 18.2382 16.5003 18.2382C16.7506 18.2382 17.0188 18.2197 17.287 18.1829C17.5552 18.1461 17.7519 18.1092 17.895 18.054C18.0559 17.9803 18.1632 17.8514 18.2347 17.6856C18.3062 17.5199 18.342 17.3357 18.3241 17.1699C18.3241 16.9858 18.2883 16.8753 18.2168 16.8016C18.1095 16.7095 17.9307 16.6358 17.6983 16.5806C17.4658 16.5438 17.2155 16.5069 16.9294 16.4885C16.697 16.4701 16.4646 16.4885 16.3036 16.5069Z" fill="white"/>
<path d="M31.1768 13.4312C31.3019 13.3576 31.5344 13.3023 31.8741 13.2286C32.2138 13.1734 32.482 13.1181 32.6966 13.0813C32.9112 13.0445 33.1794 13.026 33.4654 13.0076C33.7694 12.9892 33.9482 13.0076 34.0018 13.026C33.8946 14.1864 33.7694 15.6045 33.6085 17.2621C33.3582 19.6932 33.1615 21.9585 32.9827 24.0766C32.0708 24.0029 31.1589 23.9108 30.2291 23.8003C30.0682 23.5609 29.8179 23.1925 29.5139 22.6768C29.21 22.1611 28.8881 21.627 28.5484 21.0745C28.2087 20.5036 27.8153 19.8221 27.3326 19.0117L25.0975 23.524C24.6505 23.6161 24.3823 23.6714 24.2572 23.7082C24.132 23.7266 23.9532 23.7635 23.685 23.8187C23.4168 23.874 23.2559 23.8924 23.1665 23.8924C23.0234 23.3767 22.8268 22.3822 22.5586 20.9272C22.3082 19.4722 22.04 18.0356 21.7897 16.599C21.5215 15.1625 21.3606 14.1864 21.2891 13.6707C21.593 13.5233 21.9864 13.3944 22.4513 13.3023C22.9162 13.2102 23.4347 13.1366 24.0068 13.0629C24.1141 14.039 24.2214 15.1256 24.2929 16.3228C24.3644 17.5199 24.5075 18.9565 24.7042 20.6325C25.9915 17.7962 26.6889 16.1754 26.8319 15.7887C27.1895 15.7887 27.869 15.8623 28.8345 15.9729C28.9775 16.3044 29.21 16.8016 29.496 17.4647C29.7643 18.054 30.0325 18.6802 30.3185 19.3064C30.6046 19.9326 30.8549 20.4667 31.0516 20.8903C31.0516 20.08 31.0516 19.0486 31.0695 17.7778C31.0874 16.507 31.1053 15.4019 31.1231 14.481C31.1589 13.9469 31.1768 13.597 31.1768 13.4312Z" fill="white"/>
</svg>
