<?xml version="1.0" encoding="utf-8"?>
<!-- Generator: Adobe Illustrator 17.1.0, SVG Export Plug-In . SVG Version: 6.00 Build 0)  -->
<!DOCTYPE svg PUBLIC "-//W3C//DTD SVG 1.1//EN" "http://www.w3.org/Graphics/SVG/1.1/DTD/svg11.dtd">
<svg version="1.1" id="Слой_1" xmlns="http://www.w3.org/2000/svg" xmlns:xlink="http://www.w3.org/1999/xlink" x="0px" y="0px"
	 viewBox="0 0 512 512" enable-background="new 0 0 512 512" xml:space="preserve">
<path fill="#3DADC2" d="M354,64h-54v-2.6c0-16-13-29-29-29h-18.5C244,13,224.6,0,203,0H201c-21.7,0-41.1,13-49.5,32.4H133
	c-16,0-29,13-29,29V64H50C18.7,64,0,79,0,104v358c0,27.6,22.4,50,50,50h304c27.6,0,50-22.4,50-50V235.7c0-5.5-4.5-10-10-10
	s-10,4.5-10,10V462c0,16.5-13.5,30-30,30H50c-16.5,0-30-13.5-30-30V104c0-4.9,0-20,30-20h54v14c0,5.5,4.5,10,10,10h176
	c5.5,0,10-4.5,10-10V84h54c16.5,0,30,13.5,30,30v33.7c0,5.5,4.5,10,10,10s10-4.5,10-10V114C404,86.4,381.6,64,354,64z M280,88H124
	V61.4c0-4.9,4-9,9-9h25.6c4.5,0,8.5-3,9.7-7.4c4-14.8,17.5-25.1,32.8-25.1h1.9c15.3,0,28.8,10.3,32.8,25.1c1.2,4.4,5.1,7.4,9.6,7.4
	H271c4.9,0,9,4,9,9V88z"/>
<path fill="#FFFFFF" d="M394,179.5c-2.6,0-5.2,1.1-7.1,2.9c-1.9,1.9-2.9,4.4-2.9,7.1c0,2.6,1.1,5.2,2.9,7.1c1.9,1.9,4.4,2.9,7.1,2.9
	s5.2-1.1,7.1-2.9c1.9-1.9,2.9-4.4,2.9-7.1c0-2.6-1.1-5.2-2.9-7.1S396.6,179.5,394,179.5z"/>
<path fill="#FFFFFF" d="M502,322c-2.6,0-5.2,1.1-7.1,2.9s-2.9,4.4-2.9,7.1s1.1,5.2,2.9,7.1s4.4,2.9,7.1,2.9s5.2-1.1,7.1-2.9
	s2.9-4.4,2.9-7.1s-1.1-5.2-2.9-7.1S504.6,322,502,322z"/>
<path fill="#3DADC2" d="M511.1,185.4l-32-71.5c-1.6-3.6-5.2-5.9-9.1-5.9s-7.5,2.3-9.1,5.9l-32,71.5c-0.6,1.3-0.9,2.7-0.9,4.1v298.6
	c0,13.2,10.7,23.9,23.9,23.9h36.3c13.2,0,23.9-10.7,23.9-23.9V375.7c0-5.5-4.5-10-10-10s-10,4.5-10,10v69.9h-44V199.5h44v92.3
	c0,5.5,4.5,10,10,10s10-4.5,10-10V189.5C512,188.1,511.7,186.7,511.1,185.4z M470,142.5l16.6,37h-33.1L470,142.5z M492,465.6v22.5
	c0,2.1-1.7,3.9-3.9,3.9h-36.3c-2.1,0-3.9-1.7-3.9-3.9v-22.5H492z"/>
<path fill="#FFFFFF" d="M117.7,144c-23.2,0-42,18.8-42,42s18.8,42,42,42c23.2,0,42-18.8,42-42S140.8,144,117.7,144z M117.7,208
	c-12.1,0-22-9.9-22-22s9.9-22,22-22c12.1,0,22,9.9,22,22S129.8,208,117.7,208z"/>
<path fill="#FFFFFF" d="M117.7,264c-23.2,0-42,18.8-42,42s18.8,42,42,42c23.2,0,42-18.8,42-42S140.8,264,117.7,264z M117.7,328
	c-12.1,0-22-9.9-22-22s9.9-22,22-22c12.1,0,22,9.9,22,22S129.8,328,117.7,328z"/>
<path fill="#FFFFFF" d="M117.7,384c-23.2,0-42,18.8-42,42s18.8,42,42,42c23.2,0,42-18.8,42-42S140.8,384,117.7,384z M117.7,448
	c-12.1,0-22-9.9-22-22s9.9-22,22-22c12.1,0,22,9.9,22,22S129.8,448,117.7,448z"/>
<path fill="#FFFFFF" d="M318.3,208H203.7c-5.5,0-10,4.5-10,10s4.5,10,10,10h114.7c5.5,0,10-4.5,10-10S323.9,208,318.3,208z"/>
<path fill="#FFFFFF" d="M318.3,160H203.7c-5.5,0-10,4.5-10,10s4.5,10,10,10h114.7c5.5,0,10-4.5,10-10S323.9,160,318.3,160z"/>
<path fill="#FFFFFF" d="M318.3,328H203.7c-5.5,0-10,4.5-10,10s4.5,10,10,10h114.7c5.5,0,10-4.5,10-10S323.9,328,318.3,328z"/>
<path fill="#FFFFFF" d="M318.3,280H203.7c-5.5,0-10,4.5-10,10s4.5,10,10,10h114.7c5.5,0,10-4.5,10-10S323.9,280,318.3,280z"/>
<path fill="#FFFFFF" d="M318.3,448H203.7c-5.5,0-10,4.5-10,10s4.5,10,10,10h114.7c5.5,0,10-4.5,10-10S323.9,448,318.3,448z"/>
<path fill="#FFFFFF" d="M318.3,400H203.7c-5.5,0-10,4.5-10,10s4.5,10,10,10h114.7c5.5,0,10-4.5,10-10S323.9,400,318.3,400z"/>
</svg>
