<?xml version="1.0" encoding="utf-8"?>
<!-- Generator: Adobe Illustrator 22.0.1, SVG Export Plug-In . SVG Version: 6.00 Build 0)  -->
<svg version="1.1" id="Слой_1" xmlns="http://www.w3.org/2000/svg" xmlns:xlink="http://www.w3.org/1999/xlink" x="0px" y="0px"
	 viewBox="0 0 512 512" style="enable-background:new 0 0 512 512;" xml:space="preserve">
<style type="text/css">
	.st0{fill:#FFAB00;}
</style>
<path class="st0" d="M461.6,451.9c4.2,0,7.6-3.4,7.6-7.6v-4.7c0-39.6-26.6-74.6-64.7-85.1l-82.9-23l-22-22v-32.5
	c28-13.3,49-39,56-69.9h10.1c15.3,0,27.8-12.5,27.8-27.8v-14.1c0-8.1-3.5-15.4-9.1-20.5V15.1h34.3V89c-10.5,3.2-18.2,13.1-18.2,24.6
	s7.7,21.4,18.2,24.6V157c0,4.2,3.4,7.6,7.6,7.6c4.2,0,7.6-3.4,7.6-7.6v-18.8c10.5-3.2,18.2-13.1,18.2-24.6s-7.7-21.4-18.2-24.6V15.1
	h7.6c4.2,0,7.6-3.4,7.6-7.6S445.6,0,441.4,0H69.8c-4.2,0-7.6,3.4-7.6,7.6s3.4,7.6,7.6,7.6h57.1v15.2c0,4.2,3.4,7.6,7.6,7.6
	s7.6-3.4,7.6-7.6V15.1h227.2V104H142V65.7c0-4.2-3.4-7.6-7.6-7.6s-7.6,3.4-7.6,7.6v78.9c-5.6,5.1-9.1,12.4-9.1,20.5v14.1
	c0,15.3,12.5,27.8,27.8,27.8h10.1c7,30.9,28,56.5,56,69.9v32.5l-22,22l-82.9,23C68.6,365,42,400.1,42,439.6v4.7
	c0,4.2,3.4,7.6,7.6,7.6s7.6-3.4,7.6-7.6v-4.7c0-32.8,22-61.8,53.6-70.5l49.9-13.9l28.1,88.9c0.3,1.1,0.9,2.1,1.7,2.9l47.4,49.8h-104
	v-23.7c0-4.2-3.4-7.6-7.6-7.6s-7.6,3.4-7.6,7.6v23.7H57.1v-17.2c0-4.2-3.4-7.6-7.6-7.6s-7.6,3.4-7.6,7.6v24.8c0,4.2,3.4,7.6,7.6,7.6
	h412c4.2,0,7.6-3.4,7.6-7.6v-24.8c0-4.2-3.4-7.6-7.6-7.6s-7.6,3.4-7.6,7.6v17.2h-61.6v-23.7c0-4.2-3.4-7.6-7.6-7.6s-7.6,3.4-7.6,7.6
	v23.7h-104l47.4-49.8c0.8-0.8,1.4-1.8,1.7-2.9l28.1-88.9l49.9,13.9c31.6,8.8,53.6,37.8,53.6,70.5v4.7
	C454,448.5,457.4,451.9,461.6,451.9z M426.3,124.2c-5.8,0-10.6-4.8-10.6-10.6s4.8-10.6,10.6-10.6s10.6,4.8,10.6,10.6
	S432.1,124.2,426.3,124.2z M242.6,418.1h26l10.2,51l-23.2,24.4l-23.2-24.4L242.6,418.1z M271.3,402.9h-31.5L227,388.2l28.5-28.5
	l28.5,28.5L271.3,402.9z M292,374.6l-25.7-25.7l25.6-25.6l15.7,15.7L292,374.6z M378.3,179.2c0,7-5.7,12.6-12.6,12.6h-7.6v-39.4h7.6
	c7,0,12.6,5.7,12.6,12.6V179.2z M369.2,137.6c-1.2-0.1-2.3-0.2-3.5-0.2h-7.6v-18.2h11.1V137.6z M142,119.2h11.1v18.2h-7.6
	c-1.2,0-2.4,0.1-3.5,0.2V119.2z M153.1,191.9h-7.6c-7,0-12.6-5.7-12.6-12.6v-14.1c0-7,5.7-12.6,12.6-12.6h7.6V191.9z M168.2,184.3
	v-65.1h174.7v65.1c0,48.2-39.2,87.4-87.4,87.4S168.2,232.5,168.2,184.3z M255.6,286.8c10,0,19.6-1.4,28.8-4.1v26.7l-28.8,28.8
	l-28.8-28.8v-26.7C235.9,285.4,245.6,286.8,255.6,286.8z M219.2,323.3l25.6,25.6l-25.7,25.7L203.5,339L219.2,323.3z M175.3,351.1
	l15.1-4.2l19.3,43.9c0.1,0.3,0.3,0.6,0.4,0.8c0,0.1,0.1,0.1,0.1,0.2c0.1,0.2,0.2,0.3,0.3,0.5c0.1,0.1,0.1,0.2,0.2,0.2
	c0.1,0.1,0.1,0.1,0.2,0.2l17.3,19.9l-8.6,43l-16.9-17.8L175.3,351.1z M308.5,437.9l-16.9,17.8l-8.6-43l17.3-19.9
	c0.1-0.1,0.1-0.1,0.2-0.2c0.1-0.1,0.1-0.2,0.2-0.3c0.1-0.2,0.2-0.3,0.3-0.5c0-0.1,0.1-0.1,0.1-0.2c0.2-0.3,0.3-0.5,0.4-0.8
	l19.3-43.9l15.1,4.2L308.5,437.9z"/>
</svg>
