<?xml version="1.0" encoding="utf-8"?>
<!-- Generator: Adobe Illustrator 17.0.0, SVG Export Plug-In . SVG Version: 6.00 Build 0)  -->
<!DOCTYPE svg PUBLIC "-//W3C//DTD SVG 1.1//EN" "http://www.w3.org/Graphics/SVG/1.1/DTD/svg11.dtd">
<svg version="1.1" xmlns="http://www.w3.org/2000/svg" xmlns:xlink="http://www.w3.org/1999/xlink" x="0px" y="0px" width="230px"
	 height="170px" viewBox="185 15 230 170" style="enable-background:new 185 15 230 170;" xml:space="preserve">
<g id="Layer_1" style="display:none;">
	<g style="display:inline;">
		<polygon style="fill:#E6AF78;" points="266.2940979,121.9526443 266.2940979,110.4632263 236.7500763,110.4632263 
			236.7500763,121.9526443 251.5222778,135.0830536 		"/>
		<path style="fill:#D29B6E;" d="M236.7500763,110.4632263v12.1222153
			c18.6085205,6.7046585,29.5440216-10.0753479,29.5440216-10.0753479v-2.0468674H236.7500763L236.7500763,110.4632263z"/>
		<path style="fill:#EFF2FA;" d="M299.1189575,143.0595856c-0.0117188-6.3241882-4.0112915-13.0675201-10.8929138-14.9819641
			l-13.7616577-2.8515472l-3.9082031-5.9019318c-0.5617065-0.7460938-1.6316223-0.8738251-2.3531189-0.2808609
			l-16.7030487,14.4327621l0,0l0,0l-16.7573547-14.3702621c-0.7238312-0.5898438-1.7933655-0.4578094-2.3523407,0.2898483
			l-3.8855286,5.9163666l-13.7507324,2.9031219c-6.8749695,1.9402313-10.8487854,8.6987915-10.8366699,15.0229797
			l0.0078125,4.0710754c0.0046844,2.3812408,2.2128754,4.3074036,4.9324036,4.3023224l37.7521973-0.070694l9.8483887-0.0183563
			l37.7521973-0.0707092c2.7195435-0.0050812,4.9206848-1.9398346,4.9160156-4.320694L299.1189575,143.0595856z"/>
		<g>
			<path style="fill:#E4EAF6;" d="M215.8985901,140.0830383l-8.7667542-6.5316162
				c-2.09375,2.8222656-3.2203064,6.3159943-3.2140503,9.6866913l0.0078125,4.0710754
				c0.0046844,2.3812408,2.2128754,4.3074036,4.9323883,4.3023224l10.1691132-0.0191498v-4.6152039
				C219.0267029,144.3470764,217.8892059,141.8408508,215.8985901,140.0830383z"/>
			<path style="fill:#E4EAF6;" d="M299.1263733,147.130661l-0.0074158-4.0710754
				c-0.0074158-4.039032-1.6441345-8.2472229-4.617157-11.2608948l-8.2241821,8.2851257
				c-1.9910278,1.7578125-3.1281128,4.2640381-3.1281128,6.894104v4.4945221l11.0608826-0.0207062
				C296.9302979,151.4462738,299.131073,149.5115204,299.1263733,147.130661z"/>
		</g>
		<path style="fill:#785550;" d="M227.8251038,88.438324c0.2683563-6.6199036,3.7531128-14.9417343,4.6148376-16.7569656
			c0.1101532-0.2312469,0.1714783-0.3558578,0.1714783-0.3558578c2.6593628-0.3371124,5.207016-0.5417938,7.6347351-0.6386642
			c0.6933594-0.0277328,1.3777313-0.046875,2.0519409-0.0574265c18.5374451-0.2980423,29.5780029,5.5921631,29.5780029,5.5921631
			l3.4691467,7.9667664c4.9085693-15.0198593,3.1773071-27.7119942,1.6062317-31.1588593
			c-11.9440918,1.6777306-29.7393341-8.1675415-40.8646851,0.063282l0,0
			c-7.0691071,0.0128937-11.9409637,5.8937263-11.9269104,13.1847191c0.0136719,7.0382538,3.308197,21.1042175,3.308197,21.1042175
			l0.3570251,2.2984238c-0.0003815-0.2355423-0.0093689-0.5871048,0-0.8277283
			C227.8255005,88.8406601,227.8243256,88.4500427,227.8251038,88.438324z"/>
		<path style="fill:#F0C087;" d="M275.1647644,93.6363525c0.0171814-0.130867,0.0335999-0.2613297,0.0492249-0.3917999
			c0.413269-3.4378738,0.8117065-7.7894211-0.7046814-10.9749603c-0.9441528-1.9831924-1.7570496-4.035141-2.6332092-6.0476303
			c0,0-11.0405579-5.8906021-29.5780029-5.5921631c-0.6738281,0.0109406-1.3582001,0.029686-2.0519409,0.0574265
			c-2.4281158,0.0972595-4.9753723,0.3015594-7.6347351,0.6386642c0,0-0.0617218,0.1246109-0.1714783,0.3558578
			c-6.3941193,13.4772873-7.4085693,30.2252655,4.3152161,41.3521729c2.6882629,2.5519409,5.9542694,4.5737991,9.5882416,5.5773239
			c0.4511566,0.1250076,0.9070282,0.2335892,1.3671722,0.3261719c0.0890656,0.0179596,0.1785126,0.0355453,0.2679749,0.0519485
			c1.1495972,0.2136688,2.3234253,0.3257828,3.5167847,0.3234406
			C265.3288574,119.2878036,273.5936584,105.5222397,275.1647644,93.6363525z"/>
		<path style="fill:#E6AF78;" d="M235.9317169,93.4285355c-0.4007874-18.525322,2.7734222-17.5932922,2.7734222-17.5932922
			c7.8300476-1.7531204,20.7944641-0.515625,33.9037781,2.101944c-0.2421875-0.5734406-0.4847717-1.1460953-0.7332153-1.7152328
			c0,0-11.0405579-5.8906021-29.5780029-5.5921631c-0.6738129,0.0109406-1.3581848,0.0296936-2.0519409,0.0574265
			c-2.4281158,0.0972595-4.9753723,0.3015594-7.6347351,0.6386642c0,0-0.0617218,0.1246109-0.1714783,0.3558578
			c-6.3941193,13.4772873-7.4085693,30.2252731,4.3152161,41.3521805c2.6882629,2.5519409,5.9542694,4.5737991,9.5882416,5.5773239
			c0.4511719,0.1250076,0.9070282,0.2335892,1.3671722,0.3261719c0.0890656,0.0179596,0.1785278,0.0355453,0.2679749,0.0519485
			c1.1464844,0.2132797,2.3175659,0.3249969,3.5077972,0.3234406
			C247.1844025,117.8483582,236.2289734,107.1644211,235.9317169,93.4285355z"/>
		<path style="fill:#694B4B;" d="M276.9510803,53.0298691c-11.9440918,1.6777267-29.7393341-8.1675453-40.8646851,0.063282
			c0,0-8.7163696,10.0198822-3.4753723,18.2327385c2.6593628-0.3371124,5.207016-0.5417938,7.6347351-0.6386642
			c0.0144501-0.0007858,0.0289001-0.0007858,0.0433655-0.001564c0.6785126-0.0265579,1.3484344-0.045311,2.008194-0.0558624
			c18.5374298-0.2980423,29.5779877,5.5921631,29.5779877,5.5921631l3.4691467,7.9667664
			C280.2538147,69.168869,278.5221558,56.4763374,276.9510803,53.0298691z"/>
		<path style="fill:#E4EAF6;" d="M246.5851898,138.4096069l4.9148254-4.9335785l-16.7573547-14.3702545
			c-0.7238312-0.5898438-1.7933655-0.4578094-2.3523407,0.2898407l-3.8855286,5.9163818l13.1651917,18.0307922
			L246.5851898,138.4096069z"/>
		<path id="SVGCleanerId_0" style="fill:#E4EAF6;" d="M261.367157,143.3060608l13.097229-18.0800018l-3.9082031-5.9019318
			c-0.5617065-0.7460938-1.6316223-0.8738251-2.3531189-0.2808533l-16.7030487,14.4327698l4.9335785,4.9148254
			L261.367157,143.3060608z"/>
		<g>
			<path id="SVGCleanerId_0_1_" style="fill:#E4EAF6;" d="M261.367157,143.3060608l13.097229-18.0800018l-3.9082031-5.9019318
				c-0.5617065-0.7460938-1.6316223-0.8738251-2.3531189-0.2808533l-16.7030487,14.4327698l4.9335785,4.9148254
				L261.367157,143.3060608z"/>
		</g>
		<polygon style="fill:#E6AF78;" points="364.8597107,121.6104584 364.8597107,109.9886246 334.9750671,109.9886246 
			334.9750671,121.6104584 349.9176025,134.8924255 		"/>
		<path style="fill:#D29B6E;" d="M334.9750671,109.9886246v12.2620544
			c18.8229675,6.7816086,29.8846436-10.1913605,29.8846436-10.1913605v-2.0703049L334.9750671,109.9886246L334.9750671,109.9886246z
			"/>
		<path style="fill:#EFF2FA;" d="M398.0631104,142.9607544c-0.0121155-6.3968506-4.0574036-13.2183075-11.0187073-15.1542435
			l-13.9198914-2.8843613l-3.9530945-5.9698792c-0.5683594-0.7546921-1.6503906-0.8835907-2.3804626-0.2843781
			l-16.8956299,14.5995483l0,0l0,0l-16.9503174-14.5354843c-0.7324219-0.5968781-1.8140564-0.4632797-2.379303,0.2933655
			l-3.9304504,5.9843521l-13.9089355,2.9363174c-6.9542542,1.9624863-10.9737854,8.79879-10.9620667,15.1960373l0.0078125,4.1179504
			c0.0046997,2.4089661,2.2382812,4.3570099,4.9890442,4.3519287l38.1873474-0.0714874l9.9620667-0.0187531l38.1873779-0.0714874
			c2.7511597-0.0050812,4.9773254-1.9621124,4.9726257-4.3706818L398.0631104,142.9607544z"/>
		<g>
			<path style="fill:#E4EAF6;" d="M313.8829651,139.9502258l-8.8679199-6.6066132
				c-2.117981,2.8546753-3.2574158,6.3886414-3.2511597,9.7980042l0.007782,4.1179504
				c0.0046997,2.4089661,2.2382812,4.3570099,4.9890442,4.3519287l10.2863159-0.0191345v-4.668335
				C317.0470276,144.2631073,315.8970337,141.7283325,313.8829651,139.9502258z"/>
			<path style="fill:#E4EAF6;" d="M398.0705261,147.0787201l-0.0078125-4.1179504
				c-0.0078125-4.0855255-1.6628723-8.3425446-4.6702881-11.390976l-8.3190918,8.3804321
				c-2.0140686,1.7781219-3.1644592,4.3128815-3.1644592,6.9734192v4.546463l11.1886292-0.0210876
				C395.8486633,151.4443207,398.0752258,149.4872894,398.0705261,147.0787201z"/>
		</g>
		<path style="fill:#785550;" d="M325.946991,87.7101974c0.2714844-6.6960678,3.7968445-15.1139984,4.6679382-16.9499283
			c0.1113281-0.2339859,0.1734314-0.3601532,0.1734314-0.3601532c2.6902161-0.3410187,5.2671814-0.5480499,7.7230225-0.6460953
			c0.7015686-0.0281296,1.3937378-0.0472641,2.0753784-0.0582047c18.7510986-0.3015594,29.9190369,5.6570053,29.9190369,5.6570053
			l3.5089722,8.0589523c4.96521-15.1932983,3.2140503-28.0315285,1.6246033-31.5182343
			c-12.081604,1.6968689-30.0823059-8.2620773-41.3357849,0.0636711l0,0
			c-7.1507568,0.0128937-12.0784607,5.9616928-12.0644226,13.3362694
			c0.0136719,7.1191177,3.3460999,21.3475723,3.3460999,21.3475723l0.3613281,2.3249893
			c-0.0003967-0.2382812-0.0093689-0.59375,0-0.8374939C325.9473572,88.1172256,325.9465942,87.7219162,325.946991,87.7101974z"/>
		<path style="fill:#F0C087;" d="M373.8323364,92.9679871c0.0175781-0.1324234,0.0339966-0.2644501,0.0499878-0.3964844
			c0.4179688-3.4777145,0.821106-7.8792648-0.7128906-11.1019058c-0.9550781-2.0062485-1.7773132-4.0816269-2.6636658-6.1175537
			c0,0-11.1679077-5.9585724-29.9190063-5.6570053c-0.6816406,0.0109329-1.3738098,0.0300751-2.0753784,0.0582047
			c-2.4562378,0.0984344-5.0331726,0.3050766-7.7230225,0.6460876c0,0-0.0621033,0.1261749-0.1734314,0.3601532
			c-6.4679565,13.6327667-7.4941101,30.5741043,4.3648376,41.8287354c2.7195129,2.5812454,6.023407,4.6269379,9.6991577,5.641777
			c0.4562683,0.1261673,0.9172058,0.2363281,1.3828125,0.3296814c0.0902405,0.0179672,0.180481,0.0359421,0.2711182,0.0527344
			c1.1628723,0.2160187,2.3503723,0.3292923,3.5570068,0.3273544
			C363.8835449,118.9151611,372.2432861,104.9909973,373.8323364,92.9679871z"/>
		<path style="fill:#E6AF78;" d="M334.1473389,92.7578354c-0.4050598-18.7389908,2.8054504-17.7960205,2.8054504-17.7960205
			c7.9202881-1.7734299,21.033905-0.5218735,34.2944031,2.1261597c-0.2449341-0.5800781-0.4906311-1.1593704-0.7417908-1.7355423
			c0,0-11.1679077-5.9585648-29.9190063-5.6570053c-0.6816406,0.0109406-1.3738403,0.0300751-2.0753784,0.0582047
			c-2.4562378,0.0984344-5.0332031,0.3050766-7.7230225,0.6460953c0,0-0.0621033,0.1261673-0.1734314,0.3601532
			c-6.4679565,13.6327591-7.4941101,30.5740967,4.3648071,41.828743c2.7195435,2.5812454,6.0230408,4.6269379,9.6991882,5.641777
			c0.4562378,0.1261673,0.9171753,0.2363281,1.3828125,0.3296814c0.0902405,0.0179672,0.180481,0.0359421,0.2710876,0.052742
			c1.1597595,0.2156219,2.3441467,0.3285141,3.5480347,0.3269501
			C345.5297241,117.4589157,334.4477234,106.6523132,334.1473389,92.7578354z"/>
		<path style="fill:#694B4B;" d="M375.6397705,51.8931541c-12.081604,1.6968651-30.0823059-8.2620773-41.3357849,0.0636673
			c0,0-8.8167725,10.1355095-3.515625,18.4428978c2.6902161-0.341011,5.2671814-0.5480423,7.7230225-0.6460953
			c0.0148315-0.0007782,0.0292969-0.0007782,0.0441589-0.0015564c0.6863098-0.0269547,1.3640442-0.0460968,2.0312195-0.0566483
			c18.7510986-0.3015594,29.9190369,5.6570129,29.9190369,5.6570129l3.5089722,8.0589447
			C378.9799805,68.2180939,377.2292175,55.3798561,375.6397705,51.8931541z"/>
		<path style="fill:#E4EAF6;" d="M344.9234619,138.2572632l4.9714661-4.9902039l-16.9503174-14.5354919
			c-0.7324219-0.5968781-1.8140564-0.4632874-2.379303,0.2933578l-3.9304504,5.9843521l13.3167419,18.2386017
			L344.9234619,138.2572632z"/>
		<path id="SVGCleanerId_1" style="fill:#E4EAF6;" d="M359.8761597,143.2099762l13.2483521-18.2886047l-3.9530945-5.9694977
			c-0.5683594-0.7546844-1.6503906-0.8835907-2.3804626-0.2843704l-16.8956299,14.599556l4.9906006,4.9714508
			L359.8761597,143.2099762z"/>
		<g>
			<path id="SVGCleanerId_1_1_" style="fill:#E4EAF6;" d="M359.8761597,143.2099762l13.2483521-18.2886047l-3.9530945-5.9694977
				c-0.5683594-0.7546844-1.6503906-0.8835907-2.3804626-0.2843704l-16.8956299,14.599556l4.9906006,4.9714508
				L359.8761597,143.2099762z"/>
		</g>
		<g>
			<polyline style="fill:#515262;" points="353.0062561,142.7787323 346.7800903,142.5713196 344.9484558,151.5400238 
				354.9105225,151.5212708 353.0062561,142.7787323 			"/>
			<path style="fill:#515262;" d="M344.9266052,139.9178009c0.0035095,1.8265533,1.5003662,3.3179626,3.3269348,3.3144379
				l3.3206787-0.0062408c1.8265686-0.0035248,3.3175659-1.5003815,3.3144531-3.3269348l-0.0031433-1.6601562l-4.9906006-4.9714661
				l-4.9714661,4.9906158L344.9266052,139.9178009z"/>
		</g>
		<polygon style="fill:#E6AF78;" points="322.1134033,131.0049438 322.1134033,114.3917313 279.3924866,114.3917313 
			279.3924866,131.0049438 300.7529602,149.9923706 		"/>
		<path style="fill:#D29B6E;" d="M279.3924866,114.3917313v17.5288315
			c26.9080811,9.6948853,42.7209167-14.5690765,42.7209167-14.5690765v-2.9601517h-42.7209167V114.3917313z"/>
		<path style="fill:#B4E1FA;" d="M369.5776672,161.525528c-0.0171814-9.1445007-5.800354-18.8960114-15.7514954-21.6635895
			l-19.8991394-4.1230316l-5.6511536-8.5335617c-0.8121338-1.0785065-2.359375-1.2632828-3.4027405-0.4066315
			l-24.1530151,20.8698349l0,0l0,0l-24.2311707-20.779213c-1.0464783-0.8527374-2.5929565-0.6621094-3.4011536,0.4195328
			l-5.6191101,8.5550385l-19.8827209,4.1980438c-9.9413757,2.8054504-15.687439,12.5784607-15.6702576,21.7229462
			l0.0109406,5.8867035c0.0066376,3.4433441,3.1996002,6.2288818,7.1320038,6.2214661l54.5896301-0.1027374l14.2409668-0.0265656
			l54.5895996-0.1023407c3.9324036-0.007431,7.1152344-2.8046722,7.1085815-6.2480164L369.5776672,161.525528z"/>
		<g>
			<path style="fill:#A0D2F0;" d="M249.2410431,157.2220306l-12.6765137-9.4445038
				c-3.0277252,4.0808411-4.6566315,9.132782-4.647644,14.0069733l0.0109406,5.8867035
				c0.0066376,3.4433441,3.1996002,6.2288971,7.1320038,6.2214661l14.7042389-0.0277405v-6.6741791
				C253.7648468,163.3876343,252.1203156,159.7638245,249.2410431,157.2220306z"/>
			<path style="fill:#A0D2F0;" d="M369.588623,167.4122314l-0.0109558-5.8867035
				c-0.0109558-5.8406067-2.3773193-11.9257355-6.6761475-16.2835388l-11.8921509,11.9804382
				c-2.8788757,2.5413971-4.523407,6.1655884-4.523407,9.969101v6.4991913l15.9944763-0.0300751
				C366.4128418,173.6532135,369.5952454,170.8555756,369.588623,167.4122314z"/>
		</g>
		<path style="fill:#785550;" d="M266.4382324,82.1477203c0.3890686-9.5042572,5.4351501-21.4526482,6.6824036-24.0588913
			c0.1589661-0.3324203,0.2480469-0.5105476,0.2480469-0.5105476c3.8511353-0.483593,7.5401917-0.777729,11.0558167-0.9171867
			c1.0046692-0.0398445,1.9953003-0.0671844,2.9714661-0.0824203c26.8436279-0.4281197,42.8310852,8.0292587,42.8310852,8.0292587
			l5.0238037,11.4386292c7.1081543-21.5647583,4.6011353-39.7873421,2.3257751-44.7365417
			c-17.2956543,2.4089756-42.8619385-11.7108898-58.9728088,0.1066418l-1.3691406,0.0023422
			c-10.2366943,0.0183582-16.2581482,8.5812187-16.2374573,19.0495377
			c0.0195312,10.1050377,4.9238281,30.1627731,4.9238281,30.1627731l0.5171814,3.2999878
			c-0.0007935-0.3386765-0.0136719-0.8429718,0-1.1886673C266.4390259,82.7254562,266.4374695,82.1649094,266.4382324,82.1477203z"
			/>
		<path style="fill:#F0C087;" d="M334.9891357,89.6109695c0.0249939-0.1878891,0.0488281-0.3753891,0.0715027-0.5628815
			c0.5984192-4.9359207,1.1753845-11.1835556-1.0207214-15.7573624c-1.3671875-2.8472595-2.5441284-5.793335-3.8132629-8.6831741
			c0,0-15.9874268-8.4577789-42.8310852-8.0292587c-0.9761658,0.0156212-1.9667969,0.0425758-2.9714661,0.0824203
			c-3.5159912,0.139843-7.2046509,0.4332008-11.0558167,0.9171867c0,0-0.0890503,0.1785164-0.2484436,0.5113297
			c-9.2589417,19.3503151-10.7284546,43.3967018,6.2492065,59.372036c3.8933411,3.6632614,8.6222229,6.5671616,13.8847046,8.007782
			c0.6535339,0.1792984,1.3132935,0.3355484,1.9796753,0.4675674c0.129303,0.0257874,0.258606,0.051178,0.3882751,0.0749969
			c1.6644592,0.3070297,3.3648376,0.4671936,5.0925598,0.4640579
			C320.7466125,126.4405136,332.7145386,106.6765213,334.9891357,89.6109695z"/>
		<path style="fill:#E6AF78;" d="M278.1772461,89.3125381c-0.5800781-26.5979424,4.0160217-25.2596588,4.0160217-25.2596588
			c11.338623-2.5167885,30.1115723-0.7406235,49.0950928,3.017952c-0.350769-0.8230438-0.7023315-1.6453094-1.0613098-2.4628754
			c0,0-15.9874573-8.4577789-42.8310852-8.0292702c-0.9761658,0.0156212-1.9667969,0.0425758-2.9714661,0.0824203
			c-3.5160217,0.139843-7.2046814,0.4332008-11.0558167,0.9171867c0,0-0.0890808,0.1785164-0.2484436,0.5113297
			c-9.2589417,19.3499222-10.7284851,43.3967056,6.249176,59.3716431c3.8929749,3.6632614,8.6222534,6.5671616,13.8847351,8.007782
			c0.6535034,0.1792984,1.3132629,0.3355484,1.9796753,0.4675674c0.1292725,0.0257874,0.2585754,0.051178,0.3882751,0.0749969
			c1.6601562,0.3062439,3.3562317,0.466011,5.0796814,0.4636765
			C294.4721069,124.3737259,278.6077271,109.0343323,278.1772461,89.3125381z"/>
		<path style="fill:#694B4B;" d="M337.5766296,31.3096409c-17.2956543,2.4089756-42.8619385-11.7108898-58.9728088,0.1066418
			c0,0-12.8241882,14.3706474-5.2355347,26.1616096c3.8511658-0.483593,7.5401917-0.777729,11.0558167-0.9171829
			c0.0210876-0.000782,0.0417786-0.0011749,0.0628967-0.002346c0.9827881-0.0382805,1.9526978-0.0652351,2.9077759-0.0804634
			c26.8436584-0.4281197,42.8310852,8.0292625,42.8310852,8.0292625l5.0238037,11.4386292
			C342.3590393,54.4814262,339.8516235,36.2584496,337.5766296,31.3096409z"/>
		<path style="fill:#A0D2F0;" d="M293.6138916,154.802124l7.1070251-7.1339569l-24.2311707-20.779213
			c-1.0464783-0.8527374-2.5929565-0.6621094-3.4011536,0.4195328l-5.6191101,8.5550385l19.0366516,26.0725555
			L293.6138916,154.802124z"/>
		<path style="fill:#E4EAF6;" d="M314.9884338,161.8821716l18.9385986-26.1436462l-5.6511536-8.5335617
			c-0.8121033-1.0785065-2.359375-1.2632828-3.40271-0.4066315l-24.1530457,20.8698349l7.1339722,7.1070099L314.9884338,161.8821716
			z"/>
		<path style="fill:#A0D2F0;" d="M314.9884338,161.8821716l18.9385986-26.1436462l-5.6511536-8.5335617
			c-0.8121033-1.0785065-2.359375-1.2632828-3.40271-0.4066315l-24.1530457,20.8698349l7.1339722,7.1070099L314.9884338,161.8821716
			z"/>
		<polyline style="fill:#5B5D6E;" points="305.1685486,161.2657776 296.2681885,160.9688873 293.6498413,173.7895508 
			307.8904114,173.7629852 305.1685486,161.2657776 		"/>
		<path style="fill:#515262;" d="M293.2272034,157.6396027c0.0050659,2.7542877,2.2628784,5.003891,5.0171509,4.9984131
			l5.007782-0.0093689c2.754303-0.0050812,5.0039062-2.2628784,4.9984131-5.0171661l-0.0046692-2.5034943l-7.5257568-7.4976349
			l-7.4976196,7.5257568L293.2272034,157.6396027z"/>
		<path d="M263.003479,85.9465332c0.0203247,10.8464432,3.9921875,21.823349,10.8956604,30.1162949
			c7.2390442,8.6948853,16.666748,13.4800186,26.5553589,13.4796219c0.0187683,0,0.0386658,0,0.0574341,0
			c9.9073792-0.0187378,19.3292236-4.839035,26.5295715-13.5725937
			c6.8503723-8.3085556,10.7675476-19.2960205,10.7468567-30.1447983l-0.0179749-9.6245804
			c5.1136475-22.1995163,3.1710815-40.9267883,1.4859314-46.0877075c-0.4375-1.3406181-1.7484436-2.1511631-3.0964661-2.007803
			c-0.2265625-0.0210953-0.4586182-0.0191422-0.6937561,0.0148449c-5.8546753,0.8480415-13.0175476-0.576561-20.600708-2.0843678
			c-12.2425232-2.4343643-26.07724-5.1800575-36.5924377,2.1839771c-0.1101379-0.0124989-0.2210999-0.0203133-0.3343811-0.0203133
			c-0.0019531,0-0.0039062,0-0.0058594,0c-5.9694824,0.0113277-11.0511169,2.3089771-14.6956482,6.6452885
			c-3.3233948,3.9542809-5.1476135,9.3933182-5.1366882,15.3151741c0.0183716,9.7788658,4.2281189,27.884655,4.8925476,30.6834755
			L263.003479,85.9465332z M300.5009766,123.6717834c-0.0152283,0-0.0304565,0-0.0456848,0
			c-8.1140442,0-15.9409485-4.035141-22.0440674-11.3655853c-6.043335-7.2585678-9.5195007-16.8702469-9.5370789-26.3705978
			l-0.007019-3.7542801c0,0,0-0.0003967,0-0.0007858c-0.0148315-7.8593369,5.276947-18.552269,7.2073975-22.1913147
			c28.4026184-3.3242035,47.3861389,4.5503769,51.5665894,6.5077896l4.2593689,9.9843369l0.0175781,9.3550415
			C331.9563293,105.9597321,317.2751465,123.6401291,300.5009766,123.6717834z M267.7315979,38.6205521
			c2.4960632-2.9699097,6.02771-4.5437355,10.2124634-4.5515442c0.2253723-0.0003929,0.4437256-0.0285149,0.6542969-0.0769539
			c0.8199158,0.1871071,1.7136536,0.0230446,2.4347534-0.5269508c8.5003357-6.4820061,20.79599-4.0370922,32.6873474-1.6722584
			c6.3034973,1.2535114,12.3339539,2.4527264,17.9307861,2.4527264c0.8605652,0,1.710144-0.0312538,2.5499878-0.0917969
			c0.9851685,5.3308372,1.8183594,17.1483727-0.4296875,31.7526054l-1.1570129-2.7120934
			c-0.2589722-0.607811-0.7160034-1.1101494-1.2960815-1.4261665c-0.8976746-0.4886742-22.347168-11.8976097-57.2376709-7.4487991
			c-0.9632874,0.0484352-1.8824158,0.5679665-2.3992004,1.466011c-0.2062683,0.358593-3.1027222,5.4417763-5.4953003,11.8202667
			c-1.1316223-5.9714622-2.2062378-12.8476067-2.2148438-17.4577446
			C263.9628601,45.6095848,265.2984009,41.5162392,267.7315979,38.6205521z"/>
		<path d="M354.3952942,136.7568817c-0.0628967-0.0171967-0.1269531-0.0328217-0.1910095-0.0460968l-18.7147827-3.8777313
			l-4.9831543-7.5253448c-0.0324402-0.0492249-0.066803-0.0976562-0.102356-0.1453171
			c-0.9980469-1.3249969-2.5843506-2.1160049-4.2433472-2.1160049c-1.2242126,0-2.4206848,0.4285049-3.3675537,1.2062531
			c-0.0187683,0.015625-0.0379028,0.0312424-0.0562744,0.0472641l-22.2405396,19.2178879l-22.3131714-19.1343002
			c-0.0183716-0.015625-0.0371094-0.0312424-0.0562744-0.046875c-0.9449158-0.7699203-2.1351318-1.1937408-3.3519287-1.1937408
			c-1.6671753,0-3.257782,0.796875-4.2550659,2.1312408c-0.0351562,0.0472641-0.0691223,0.0956955-0.1015625,0.1453094
			l-4.9550476,7.5441055l-18.7003174,3.9480286c-0.0640564,0.0132904-0.1281281,0.0289154-0.1910095,0.046875
			c-11.7155914,3.3058472-17.8264923,14.854248-17.8077393,24.553421l0.0109253,5.8866882
			c0.0046997,2.523819,1.1054688,4.8718567,3.0996094,6.6112976c1.8781128,1.6382751,4.3460693,2.5398407,6.9519196,2.5394592
			c0.0070343,0,0.0144501,0,0.0214844,0l54.5751801-0.1023407c0.0039062,0,0.0082092,0.0003815,0.0121155,0.0003815
			c0.0050659,0,0.0097656-0.0003815,0.0144348-0.0003815l14.2085571-0.0265656c0.0039062,0,0.0074158,0.0003967,0.011322,0.0003967
			c0.0035095,0,0.007019-0.0003967,0.0105591-0.0003967l54.5876465-0.1027374
			c5.5445251-0.0105438,10.0480042-4.132782,10.0382385-9.1890259l-0.0109253-5.8866882
			C372.2772827,151.5439301,366.1229858,140.0189819,354.3952942,136.7568817z M326.0438538,129.201828l4.0956726,6.1847382
			l-15.7303772,21.7151642l-9.5929565-9.5573883L326.0438538,129.201828z M298.3216858,163.9337311
			c0.0379028,0.0007782,0.0754089,0.0066376,0.1140747,0.0066376c0.0039062,0,0.0082092,0,0.0121155,0l4.1741943-0.0078125
			c0.0422058,0,0.0832214-0.0062408,0.1257935-0.007431l1.339447,6.6324005l-7.0800476,0.0132751L298.3216858,163.9337311z
			 M303.8470764,156.1486053c0.0019531,1.0761719-0.6625061,1.9120941-1.2359314,1.913269l-4.1742249,0.0078125
			c-0.0003662,0-0.0007629,0-0.0011597,0c-0.3269653,0-0.5941467-0.2519531-0.7242126-0.4027405
			c-0.328125-0.3792877-0.5167847-0.9281158-0.5179749-1.5058594l-0.0023499-1.2859192l3.3203125-3.3328094l3.3327942,3.3202972
			L303.8470764,156.1486053z M274.8952332,129.2979279l21.2967834,18.2628174l-9.5569763,9.592926l-15.8120728-21.6553802
			L274.8952332,129.2979279z M238.8371735,170.6797791c-0.0035248,0-0.0070343,0-0.0105438,0
			c-1.1863251,0-2.2839813-0.3878937-3.0925751-1.0929565c-0.4054565-0.3539124-1.0855408-1.109375-1.0878906-2.1984253
			l-0.0109253-5.8867035c-0.0140686-7.4613037,4.5984192-16.3194733,13.4409637-18.8667297l17.9257202-3.7847443
			l17.9174805,24.5389709c0.5058594,0.6929626,1.2902527,1.1304626,2.1464844,1.195694
			c0.0746155,0.0058746,0.1499939,0.008606,0.2242126,0.008606c0.7773438,0,1.5261841-0.3089905,2.0792847-0.863678
			l3.8296814-3.8441162c0.2039185,0.4074097,0.4402466,0.7964783,0.7109375,1.1620941
			c-0.0015564,0.0078125-0.0039062,0.0148468-0.0054626,0.0222778l-1.883606,9.5112915L238.8371735,170.6797791z
			 M362.2569885,170.4481506l-52.1829834,0.0976562l-1.9191284-9.5042572
			c-0.0015564-0.008194-0.004303-0.015625-0.0062561-0.0238342c0.2660217-0.3625031,0.5054626-0.7496033,0.7093811-1.1605377
			l3.8413696,3.8269348c0.5527649,0.5503845,1.2980652,0.8558655,2.0715027,0.8558655
			c0.078125,0,0.1566467-0.0031281,0.2351379-0.0093689c0.8558655-0.0683594,1.6386719-0.508606,2.1417847-1.2039032
			l17.8249207-24.6065521l17.9401855,3.7171631c8.8522949,2.5136719,13.4975891,11.3546448,13.5116577,18.8155518
			l0.0109558,5.8867035C366.4397888,168.9294128,364.5257263,170.4438629,362.2569885,170.4481506z"/>
		<path d="M225.5157471,91.8898697c0.0292969,15.6089249,11.2585449,28.2893448,25.0424805,28.2881622
			c0.0132751,0,0.0285034,0,0.0421753,0c5.0527191-0.0093689,9.9148254-1.7054596,14.0601196-4.9046707
			c1.2831726-0.9902267,1.5206909-2.83358,0.5304565-4.1171722c-0.9906311-1.2835922-2.8335876-1.5206985-4.117157-0.5304642
			c-3.1121216,2.4015579-6.7374878,3.6745987-10.4847412,3.6816177c-0.0109406,0-0.0203094,0-0.03125,0
			c-10.550354,0-19.1483612-10.0542603-19.1717987-22.428421l-0.0035095-1.8406219l0,0
			c-0.0097656-5.0394363,2.0847473-11.7265167,3.1433411-14.7839279c6.8292694-0.6359329,12.9210358,0.2476578,17.8917236,0.9718781
			l0.5605469,0.0816422c0.1433563,0.0206985,0.2851562,0.0308533,0.425766,0.0308533
			c1.4343719,0,2.6886597-1.0523376,2.9011536-2.5132751c0.2332153-1.6046829-0.8781128-3.0937347-2.4823914-3.3269348
			l-0.5582123-0.080864c-5.7425537-0.8371048-12.8874359-1.8781128-21.2206116-0.7953033
			c-0.0117188,0.0011749-0.0230408,0.0023422-0.0347595,0.0038986h-0.0003967c-0.0019531,0-0.0035095,0.0007858-0.0054626,0.0007858
			c-0.0929718,0.0124969-0.1851654,0.0292969-0.2761688,0.0503845c-0.0425873,0.0097656-0.0832062,0.023056-0.125,0.0343781
			c-0.0488281,0.0136719-0.098053,0.0261688-0.1464844,0.0421906c-0.0546875,0.0183563-0.1078186,0.0402298-0.1609497,0.0613251
			c-0.0339813,0.0136719-0.0683594,0.0257797-0.1015625,0.0406265c-0.055069,0.0246124-0.1085815,0.0523453-0.1617126,0.0804672
			c-0.0308533,0.0160141-0.0621033,0.0308533-0.0921936,0.0480423c-0.0488281,0.0277328-0.0953064,0.0582047-0.1425629,0.0886765
			c-0.0335999,0.0218735-0.0679779,0.042572-0.1007843,0.0656204c-0.0394592,0.0277405-0.0769501,0.0578156-0.1148529,0.0878983
			c-0.0378876,0.029686-0.0761719,0.0589828-0.1132812,0.0906219c-0.0300751,0.0261688-0.058197,0.0539017-0.0874939,0.0812454
			c-0.0410156,0.0382843-0.0820312,0.076561-0.1210938,0.1179657c-0.0234375,0.0246124-0.0453033,0.0511703-0.0679626,0.0769577
			c-0.0402374,0.045311-0.0800781,0.0902328-0.117981,0.1386719c-0.0218658,0.0281219-0.0413971,0.0574188-0.0621033,0.0863266
			c-0.0339813,0.0472641-0.0687561,0.0941391-0.0999908,0.1441345c-0.0261841,0.0410156-0.0488281,0.0843811-0.0730438,0.1273499
			c-0.0222778,0.0394516-0.0457153,0.0773392-0.0664062,0.1183548c-0.039856,0.078125-0.0750122,0.1585922-0.1082153,0.2402344
			c-0.0027313,0.0070343-0.0062408,0.0132828-0.0089722,0.0203171c0,0.0003891-0.0007935,0.0019531-0.0011749,0.0027313
			c-0.0027313,0.0070343-0.0050812,0.0136719-0.0078125,0.0203171c-0.0671844,0.1734314-0.4066467,1.0574188-0.8671875,2.4179611
			c-0.3152313-2.3011703-0.5316315-4.4980316-0.5347595-6.2148209c-0.0054779-2.9605331,0.7023315-5.6046638,1.9945221-7.4445038
			c1.1898346-1.6953049,2.7660065-2.5566292,4.6847534-2.5605354c0.1535034,0,0.3031158-0.0160141,0.4503784-0.0390625
			c0.1461029,0.0222664,0.2929688,0.0374947,0.4414062,0.0374947c0.6203156,0,1.2460938-0.1960907,1.7777252-0.6015549
			c2.9605408-2.2570229,6.7710724-3.0226479,12.3558197-2.4820251c1.6136627,0.1550789,3.0484161-1.0253868,3.2046661-2.6386604
			c0.15625-1.6136665-1.0253906-3.0484276-2.6390533-3.2046776c-4.2261505-0.4089813-10.3448792-0.5078125-15.6425171,3.0585785
			c-3.8113098,0.0195351-7.1616821,1.8136673-9.4382477,5.0566254c-1.9812317,2.8222542-3.0679474,6.6679459-3.0601349,10.828476
			c0.0124969,6.5948944,2.6472473,18.6448517,3.1367035,20.8264847L225.5157471,91.8898697z"/>
		<path d="M222.2372437,148.8017426c-0.0019531,0-0.0039062,0-0.0058594,0l-13.9378357,0.0261688
			c-0.569931-0.0039062-1.1195374-0.1859436-1.4953156-0.5136719c-0.1910095-0.1667938-0.4191284-0.4394531-0.4195251-0.7921906
			l-0.0074158-4.0085754c-0.0089874-4.7187195,2.8874817-10.315567,8.4413605-11.9335327l11.531601-2.4347534l5.9781036,8.5894165
			c0.570694,0.8195343,1.4835815,1.2585907,2.4120941,1.2585907c0.5785217,0,1.1632843-0.1707153,1.6738281-0.5265656
			c1.3308563-0.9261627,1.6585846-2.7554474,0.7328033-4.0859222l-5.9558258-8.5573883l1.913269-2.9128799l12.3940887,9.2171555
			c1.3000031,0.9675751,3.1394348,0.6968689,4.1070099-0.6035156c0.9675751-1.300766,0.6968689-3.1394348-0.6035004-4.1070175
			l-13.422226-9.9823837c-0.9480438-0.744133-2.1699066-1.0855408-3.3683472-0.9382782
			c-1.2245941,0.1511688-2.350769,0.8046799-3.0894318,1.7933502c-0.035553,0.0476608-0.0691376,0.0960999-0.1023407,0.1456985
			l-3.1617126,4.8140488l-12.354248,2.6085815c-0.0640564,0.0136795-0.1281281,0.0293045-0.1910095,0.046875
			c-8.4249725,2.3773499-12.81987,10.6636505-12.8065948,17.6202545l0.0074158,4.0081787
			c0.0035248,1.9636688,0.8894501,3.8609314,2.4312439,5.2054443c1.4492188,1.2640533,3.3484344,1.960556,5.3488159,1.9601593
			c0.0054626,0,0.0109253,0,0.0164032,0l13.9378357-0.0261688c1.6210785-0.0031281,2.9328003-1.3199158,2.9296722-2.9406281
			C225.1692505,150.1122894,223.8559875,148.8017426,222.2372437,148.8017426z"/>
		<path d="M347.2293091,51.1138611c4.6171875,0.0832024,9.71521,0.8984375,14.6456604,1.6867104
			c3.7906189,0.605854,7.418335,1.1812439,10.5444946,1.3617172c-0.0914307,7.6652031-0.5894775,14.5409584-1.1515808,20.0217934
			c-0.0210876-0.0199203-0.043335-0.0394516-0.0652161-0.0585938c-0.042572-0.0378876-0.0859375-0.0734329-0.1304932-0.1089859
			c-0.0304565-0.0238266-0.0605164-0.0476532-0.0921631-0.0707016c-0.0492249-0.0359344-0.0996094-0.0691376-0.1511841-0.1015625
			c-0.0202942-0.012886-0.0386658-0.0277328-0.0593567-0.0402298c-0.0234375-0.014061-0.0472717-0.0269547-0.0707092-0.0410156
			c-0.0066528-0.0035172-0.0128784-0.0078125-0.019928-0.0113297c-6.2460632-3.7464676-13.8163452-5.9007568-23.1409302-6.5823975
			c-1.6179504-0.119133-3.023407,1.096489-3.1413879,2.7132721c-0.1179504,1.6167908,1.0964966,3.0234299,2.7132874,3.1413956
			c8.0382385,0.5875015,14.5456543,2.3468628,19.8624268,5.3644333c0.7390442,1.7214813,2.4273071,6.2191162,2.4371033,11.3913651
			l0,0l0.0035095,1.8402252c0.011322,6.1335678-2.0308533,11.8554153-5.7515564,16.110878
			c-3.5945129,4.1109161-8.3413696,6.3800507-13.3671265,6.3894196c-3.7343445,0.0121155-7.3773193-1.2523346-10.4987793-3.6421738
			c-1.2871094-0.9855423-3.1292725-0.7414093-4.1152344,0.5460968c-0.9855347,1.2871094-0.7409973,3.1296692,0.5464783,4.11483
			c4.1460876,3.1745987,8.9980164,4.8519287,14.0354919,4.8515472c0.0144653,0,0.0289001,0,0.0429688,0
			c6.7402039-0.0125046,13.0530701-2.9945145,17.7753296-8.3960571c4.6589661-5.3288879,7.2163696-12.4265137,7.202301-19.9858627
			l-0.0062561-3.4023285c0.4242249-2.2765579,2.995697-16.8807907,3.0261841-36.1963463
			c0.0784912-0.2957039,0.1140442-0.6085892,0.0941162-0.9308548c-0.0949097-1.5663986-1.4019165-2.7671738-2.9542542-2.7538948
			c-0.0246277-0.0003929-0.0484619-0.0035172-0.0734558-0.0035172c-0.0019531,0-0.0039062,0-0.0058594,0
			c-0.0644531,0-0.1277161,0.0058594-0.1914062,0.0097656c-3.0495911,0.1601562-7.5776978-0.5621071-12.3710327-1.3285103
			c-4.8917847-0.7820282-10.4363098-1.668354-15.4659729-1.759758c-1.6031189-0.0226555-2.9589539,1.2609329-2.987854,2.8816299
			C344.3179932,49.7466774,345.6082458,51.0845604,347.2293091,51.1138611z"/>
		<path d="M400.4920044,143.1494293c-0.0132751-6.956604-4.4394531-15.2265091-12.8729858-17.5718079
			c-0.0632935-0.0175858-0.1269836-0.0328217-0.19104-0.0460968l-12.3636169-2.5617142l-3.1796875-4.8019409
			c-0.0324097-0.0492172-0.0667725-0.0976486-0.1027222-0.1453094c-0.7421875-0.9859314-1.870697-1.6351547-3.0960999-1.7816391
			c-1.198822-0.1433563-2.4191284,0.203125-3.3644409,0.9507751l-13.3854675,10.0327682
			c-1.296875,0.9722672-1.5605469,2.8124924-0.5882874,4.1093521c0.9722595,1.296875,2.8117065,1.5605469,4.1093445,0.5882874
			l12.359314-9.2640305l1.9242249,2.9058456l-5.9238281,8.5796509c-0.9214783,1.3343658-0.5863037,3.1620941,0.7480469,4.0835876
			c0.5090027,0.3511658,1.0898438,0.5203094,1.664856,0.5203094c0.9320068,0,1.8484192-0.4425812,2.418335-1.2679749
			l5.9460754-8.6116791l11.5405884,2.3910065c5.5601501,1.5972595,8.4776917,7.1831818,8.4866943,11.9019165l0.0074158,4.0081787
			c0.0011902,0.6195221-0.7828064,1.3109283-1.9097595,1.3128815l-13.9378357,0.0257874
			c-1.6210632,0.0031128-2.9328003,1.319519-2.929657,2.9409943c0.0031128,1.6191254,1.3163757,2.9296722,2.9351501,2.9292908
			c0.0019531,0,0.0039062,0,0.0058594,0l13.9378357-0.0257874c4.2913818-0.0082092,7.7769165-3.2359314,7.7695007-7.1949005
			L400.4920044,143.1494293z"/>
	</g>
</g>
<g id="Слой_2" style="display:none;">
	<g style="display:inline;">
		<path style="fill:#FF6464;" d="M371.7984009,84.7060776h-14.2154236h-6.663269c0,0-26.5057678-21.3229256-39.5361328-21.3229256
			H293.614624h-6.2189941c-4.5222778,0-9.0183716,0.6863213-13.3344727,2.0350151l-32.869339,13.236496
			c-5.2972565,1.6550598-10.8148651,2.4974365-16.3648529,2.4974365h-24.4991455
			c-3.4351349,0-6.2198792,2.7847443-6.2198792,6.2198944v29.3180313c0,6.2190094,4.2943726,11.9942093,12.438446,14.2154312
			l35.5383606,3.5539551h113.2778625h32.8728638h19.1017151V120.243988
			C407.3367615,100.6169128,391.4259338,84.7060776,371.7984009,84.7060776z"/>
		<path style="fill:#C7CFE2;" d="M269.1819763,84.7060776l74.1860046,7.1074905c0,0,3.8501282-7.1074905,14.2154236-7.1074905
			h-6.6632385c0,0-26.5057983-21.3229256-39.5361328-21.3229256H293.614624
			C277.5113831,63.383152,269.1819763,84.7060776,269.1819763,84.7060776z"/>
		<g>
			<circle style="fill:#464655;" cx="226.0918884" cy="120.243988" r="21.3229237"/>
			<circle style="fill:#464655;" cx="371.7984009" cy="120.243988" r="21.3229237"/>
		</g>
		<g>
			<circle style="fill:#B8BFD4;" cx="226.0918884" cy="120.243988" r="11.1057138"/>
			<circle style="fill:#B8BFD4;" cx="371.3541565" cy="120.243988" r="11.1057138"/>
		</g>
		<path style="fill:#FF6464;" d="M204.7490082,70.4906464h-7.0675964c-3.936142,0-7.1274414-3.1912994-7.1274414-7.1274452
			v-3.5340157h21.3229218v3.5340157C211.8768921,67.2993469,208.6855927,70.4906464,204.7490082,70.4906464z"/>
		<path d="M254.5223083,120.243988c0-1.9627533,1.5907593-3.5539627,3.5539551-3.5539627h59.3210449
			c3.8177795,0,7.4094238-2.0336914,9.3735046-5.3070145l6.4415588-10.7363892
			c1.0099792-1.682991,3.1930847-2.2287674,4.8756409-1.2187958c1.6829834,1.0095291,2.2287598,3.192627,1.2187805,4.8756332
			l-6.4415588,10.7363892c-3.2409668,5.4023361-9.1682434,8.7581177-15.467926,8.7581177h-59.3214722
			C256.1130676,123.7979584,254.5223083,122.2067413,254.5223083,120.243988z M414,134.4594116
			c0,1.9627533-1.591217,3.5539703-3.5539551,3.5539703h-21.2617493c-4.4885559,4.3923645-10.6250916,7.1074982-17.386322,7.1074982
			s-12.8977966-2.7151337-17.3863525-7.1074982H243.4782257c-4.4885712,4.3923645-10.6251068,7.1074982-17.3863373,7.1074982
			c-8.4898987,0-15.9968567-4.2779694-20.4876404-10.7886963c-9.1429596-2.4961243-15.0502777-9.4200668-15.0502777-17.6421585
			V87.3720016c0-5.3894806,4.3843842-9.7738571,9.7738495-9.7738571h2.9691772l-3.5539551-3.5539703h-2.0620728
			C191.7918243,74.0446091,187,69.2523422,187,63.3632011v-3.5340157c0-1.963192,1.591217-3.5539703,3.5539703-3.5539703h21.3229218
			c1.9627533,0,3.5539703,1.5907707,3.5539703,3.5539703v3.5340157c0,4.4034462-2.6792145,8.1923943-6.4925537,9.824398
			l3.4524384,3.4524384c0.28685,0.2868576,0.5112,0.6122818,0.6796722,0.9580994h11.7565613
			c5.1496124,0,10.2526855-0.7714462,15.1713104-2.2943878l32.7354431-13.1824036
			c0.0877686-0.0354691,0.1769104-0.0669479,0.267334-0.0953178c4.6645813-1.457325,9.5074158-2.1968498,14.394104-2.1968498
			h23.9884033c12.8459167,0,35.2710266,16.9930801,40.7762146,21.3229294h19.6390381
			c21.5552673,0,39.0918884,17.5366364,39.0918884,39.0918808v10.6920624C412.6428833,131.1550751,414,132.6474152,414,134.4594116z
			 M197.6814117,66.936676h7.0675964c1.9640808,0,3.5632782-1.5925446,3.5739136-3.5539703h-14.2154236
			C194.1181335,65.3441315,195.7173309,66.936676,197.6814117,66.936676z M311.3835754,66.936676H293.614624
			c-9.3398132,0-15.8545227,9.0924149-18.9917297,14.7204132l67.0691833,6.4256058
			c0.8139954-0.9656296,1.9937744-2.1471863,3.5801392-3.2600174
			C336.4028015,78.1421432,319.7755127,66.936676,311.3835754,66.936676z M201.597168,124.5578842
			c-0.2465057-1.4023438-0.3821869-2.8423843-0.3821869-4.3138962c0-13.7166443,11.1598053-24.8768921,24.8769073-24.8768921
			c13.7170868,0,24.8768921,11.1597977,24.8768921,24.8768921c0,3.8137741-0.8650055,7.4280472-2.4052277,10.6614685H349.327179
			c-1.5402527-3.2334213-2.4052429-6.8476944-2.4052429-10.6614685c0-13.7166443,11.1598206-24.8768921,24.8768921-24.8768921
			c13.7171021,0,24.8768921,11.1597977,24.8768921,24.8768921c0,3.8137741-0.8649902,7.4280472-2.4052124,10.6614685h9.5122681
			V120.243988c0-17.6363831-14.3479919-31.9843826-31.984375-31.9843826h-14.2154236
			c-7.7964783,0-10.8516846,4.8472443-11.0995178,5.2644501c-0.6082764,1.1788864-1.7818604,1.8448105-3.0840149,1.8448105
			c-0.1228027,0-0.2464905-0.0062103-0.3710938-0.0181732l-74.1859741-7.1074982
			c-1.1092834-0.1059647-2.104187-0.7266693-2.6881104-1.6754608c-0.5838928-0.949234-0.6885071-2.1170349-0.2832947-3.1549454
			c0.2145691-0.5497665,3.2564697-8.1564789,9.2347412-14.5843048l-32.5873718,13.1229935
			c-0.0877838,0.0354691-0.1768951,0.0669479-0.267334,0.0953217c-5.646637,1.7645645-11.508728,2.6592712-17.4249115,2.6592712
			h-24.4982758c-1.4701691,0-2.6663513,1.1957397-2.6663513,2.6663589v29.3180313
			C197.6614685,119.7678223,199.0904083,122.5135422,201.597168,124.5578842z M226.0918884,138.0129547
			c9.7977905,0,17.7689514-7.9711609,17.7689514-17.7689667s-7.9711609-17.768959-17.7689514-17.768959
			c-9.7978058,0-17.7689667,7.9711609-17.7689667,17.768959S216.2940826,138.0129547,226.0918884,138.0129547z
			 M389.5673523,120.243988c0-9.7977982-7.9711609-17.768959-17.7689514-17.768959
			c-9.797821,0-17.7689819,7.9711609-17.7689819,17.768959s7.9711609,17.7689667,17.7689819,17.7689667
			C381.5961914,138.0129547,389.5673523,130.0417938,389.5673523,120.243988z M236.7533417,116.6900253
			c-1.9631958,0-3.5539703,1.5912094-3.5539703,3.5539627c0,3.9188538-3.1886292,7.1074982-7.1074829,7.1074982
			s-7.1074982-3.1886368-7.1074982-7.1074982c0-3.9188461,3.1886444-7.1074905,7.1074982-7.1074905
			c1.9631958,0,3.5539703-1.591217,3.5539703-3.5539703s-1.5907745-3.5539627-3.5539703-3.5539627
			c-7.8385925,0-14.2154388,6.3768387-14.2154388,14.2154236s6.3768463,14.2154236,14.2154388,14.2154236
			s14.2154236-6.3768311,14.2154236-14.2154236C240.307312,118.2812347,238.7165375,116.6900253,236.7533417,116.6900253z
			 M382.4598389,116.6900253c-1.962738,0-3.5539551,1.5912094-3.5539551,3.5539627
			c0,3.9188538-3.1886292,7.1074982-7.1074829,7.1074982c-3.9188843,0-7.1075134-3.1886368-7.1075134-7.1074982
			c0-3.9188461,3.1886292-7.1074905,7.1075134-7.1074905c1.962738,0,3.5539551-1.591217,3.5539551-3.5539703
			s-1.591217-3.5539627-3.5539551-3.5539627c-7.8385925,0-14.2154236,6.3768387-14.2154236,14.2154236
			s6.3768311,14.2154236,14.2154236,14.2154236s14.2154236-6.3768311,14.2154236-14.2154236
			C386.0138245,118.2812347,384.4226074,116.6900253,382.4598389,116.6900253z"/>
	</g>
</g>
<g id="Слой_3">
	<g>
		<polygon style="fill:#EDEADA;" points="378.0862122,67.2532578 329.8103333,18.9773941 222.9137878,18.9773941 
			222.9137878,177.4203949 378.0862122,177.4203949 		"/>
		<polygon style="fill:#CEC9AE;" points="329.8103333,18.9773941 329.8103333,67.2532578 378.0862122,67.2532578 		"/>
		<g>
			<path style="fill:#CEC9AE;" d="M316.0172424,119.2187729h-58.620697c-1.9034424,0-3.4482727,1.5413742-3.4482727,3.4482727
				c0,1.9069061,1.5448303,3.4482803,3.4482727,3.4482803h58.620697c1.9034424,0,3.4482727-1.5413742,3.4482727-3.4482803
				C319.4655151,120.7601471,317.9206848,119.2187729,316.0172424,119.2187729z"/>
			<path style="fill:#CEC9AE;" d="M353.9482727,105.4256668c0-1.9068909-1.5448303-3.4482727-3.4482727-3.4482727h-24.1379395
				c-1.9034424,0-3.4482727,1.5413818-3.4482727,3.4482727c0,1.9068985,1.5448303,3.4482803,3.4482727,3.4482803H350.5
				C352.4034424,108.8739471,353.9482727,107.3325653,353.9482727,105.4256668z"/>
			<path style="fill:#CEC9AE;" d="M274.6379395,108.8739471h34.4827576c1.9034424,0,3.4482727-1.5413818,3.4482727-3.4482803
				c0-1.9068909-1.5448303-3.4482727-3.4482727-3.4482727h-34.4827576c-1.9034424,0-3.4482727,1.5413818-3.4482727,3.4482727
				C271.1896667,107.3325653,272.7344971,108.8739471,274.6379395,108.8739471z"/>
			<path style="fill:#CEC9AE;" d="M257.3965454,108.8739471c0.9310303,0,1.7931213-0.3793182,2.4482727-1.0000076
				c0.620697-0.6551743,1-1.5517273,1-2.4482727c0-0.9000015-0.379303-1.7965469-1-2.4482727
				c-1.2758484-1.2758636-3.6551514-1.2413788-4.8965454,0c-0.620697,0.6517258-1,1.5482712-1,2.4482727
				c0,0.896553,0.379303,1.7931061,1,2.4137955C255.5689697,108.4946289,256.4655151,108.8739471,257.3965454,108.8739471z"/>
			<path style="fill:#CEC9AE;" d="M330.8103333,120.2187729c-0.6206665,0.6517258-1,1.5137939-1,2.4482727
				c0,0.9310379,0.3448181,1.7931061,1,2.4482727c0.6551819,0.6206894,1.5517273,1.0000076,2.4482727,1.0000076
				s1.7931213-0.3793182,2.4482727-1.0000076c0.6551819-0.6551666,1.0000305-1.5172348,1.0000305-2.4482727
				c0-0.9000015-0.3793335-1.7965469-1.0000305-2.4482727C334.3965454,118.9429016,332.120697,118.9429016,330.8103333,120.2187729z
				"/>
			<path style="fill:#CEC9AE;" d="M348.0517273,120.2187729c-0.620697,0.6517258-1,1.5137939-1,2.4482727
				c0,0.9310379,0.3448181,1.7931061,1,2.4482727c0.6551514,0.6206894,1.5517273,1.0000076,2.4482727,1.0000076
				s1.7930908-0.3793182,2.4482727-1.0344849c0.6551514-0.6551666,1-1.5172348,1-2.4137955
				c0-0.9000015-0.379303-1.7965469-1-2.4482727C351.6379395,118.9429016,349.3620605,118.9429016,348.0517273,120.2187729z"/>
		</g>
		<g>
			<path style="fill:#7383BF;" d="M276.4482727,137.0325623c-7.5551758,3.9344788-10.0965576,11.4517212-11.0206909,19.2482758
				c-1.4275818-1.1965485-2.8551636-2.3896484-4.2792969-3.5862122c-3.382782-2.8344727-8.2896729,2.0172424-4.875885,4.8793182
				c3.2241516,2.7000122,6.4517517,5.4034576,9.6758728,8.1069031c2.2827759,1.9138031,5.7793274,0.7275848,5.8862-2.4379272
				c0.2517395-7.4724121,0.6103516-16.3551788,8.0965576-20.2517395
				C283.8758545,140.9360199,280.3862,134.9842834,276.4482727,137.0325623z"/>
			<path style="fill:#7383BF;" d="M329.3379211,154.5635986c-1.4586182-2-2.9620667-3.6655121-5.627594-3.865509
				c-5.0241394-0.3793182-13.6482544,6.8103333-17.2137756,0.4551697c-0.9034424-1.6137848-3.1379395-2.2068939-4.7172546-1.2379303
				c-4.8827515,2.9965515-11.2655029,7.3068848-16.3999939,1.7241364c-3.0172424-3.2793121-7.8827515,1.6103363-4.8758545,4.8758698
				c6.4517212,7.0137939,14.7723999,4.865509,22.0931091,0.8930969c1.5447998,1.6586151,3.3930969,2.7931061,5.8517151,3.679306
				c3.1344604,1.1310425,14.0931091-4.2068939,14.9413757-3.0448151
				C325.9793091,161.594635,331.9689636,158.160141,329.3379211,154.5635986z"/>
		</g>
		<path style="fill:#CEC9AE;" d="M290.4758606,74.7084274l-8.6586304-4.4241486
			c-0.5896301-0.3034439-0.9620667-0.9103394-0.9620667-1.5758591V66.056694
			c4.4448242-1.9137878,7.0000305-5.6344833,8.241394-10.2862015c1.872406-0.5793114,3.251709-2.3137932,3.251709-4.3724136
			v-2.2999992c0-1.7620697-1.0137939-3.2793121-2.4758606-4.0517235
			c-1.0137939-8.6448288-6.7275696-12.1413803-15.9137878-12.1413803c-0.4344788,0-0.8620605,0.0172424-1.2792969,0.0517235
			c-3.120697,0.2482758-6.2793274-0.3413773-8.8758545-2.089653c-1.0793152-0.7275887-1.9896545-1.5-2.627594-2.3103447
			c-0.2896423-0.3689651-0.8758545-0.1344833-0.8207092,0.3344822c0.0931091,0.8034477,0.2276001,1.7413807,0.4310608,2.7689667
			c0.758606,3.8172436,0.3068848,3.2586193-1.1689758,6.8586216c-0.8172302,1.993103-1.3413696,4.2000008-1.5862122,6.5413818
			c-1.4551697,0.7758636-2.4620667,2.2896538-2.4620667,4.041378v2.2999992c0,2.0586205,1.379303,3.7931061,3.2517395,4.3724136
			c1.2413635,4.6517258,3.7965393,8.3724098,8.2413635,10.2862053v2.6344833c0,0.6724091-0.3827515,1.2896576-0.9862061,1.5862045
			l-8.8758545,4.3724136c-1.5034485,0.8206863-2.5931091,2.1344757-3.2482758,3.6517181
			c5.6413727,4.031044,12.5379181,6.4310455,20.0034332,6.4310455c7.4379272,0,14.3103333-2.3793182,19.9448242-6.3862076
			C293.1965637,76.8118744,292.0448303,75.4946365,290.4758606,74.7084274z"/>
	</g>
</g>
</svg>
