<?xml version="1.0" encoding="utf-8"?>
<!-- Generator: Adobe Illustrator 22.0.1, SVG Export Plug-In . SVG Version: 6.00 Build 0)  -->
<svg version="1.1" id="Слой_1" xmlns="http://www.w3.org/2000/svg" xmlns:xlink="http://www.w3.org/1999/xlink" x="0px" y="0px"
	 viewBox="0 0 60 60" style="enable-background:new 0 0 60 60;" xml:space="preserve">
<g>
	<g>
		<g>
			<g>
				<path d="M57.3,46l-8.5-8.5c-1.7-1.7-4.5-1.6-6.2,0.1l-4.3,4.3c-0.3-0.1-0.6-0.3-0.8-0.5c-2.7-1.5-6.4-3.5-10.3-7.4
					c-3.9-3.9-6-7.6-7.5-10.3c-0.2-0.3-0.3-0.6-0.5-0.8l2.9-2.9l1.4-1.4c1.8-1.8,1.8-4.6,0.1-6.2l-8.5-8.5c-1.7-1.7-4.5-1.6-6.2,0.1
					L6.5,6.3l0.1,0.1c-0.8,1-1.5,2.2-2,3.5c-0.5,1.2-0.7,2.4-0.9,3.5c-1.1,9.3,3.1,17.8,14.7,29.3c15.9,15.9,28.8,14.7,29.3,14.7
					c1.2-0.1,2.4-0.4,3.5-0.9c1.3-0.5,2.4-1.2,3.5-2l0.1,0l2.4-2.4C58.9,50.5,59,47.7,57.3,46z"/>
			</g>
		</g>
	</g>
</g>
</svg>
