<?xml version="1.0" encoding="utf-8"?>
<!-- Generator: Adobe Illustrator 22.0.1, SVG Export Plug-In . SVG Version: 6.00 Build 0)  -->
<svg version="1.1" id="Слой_1" xmlns="http://www.w3.org/2000/svg" xmlns:xlink="http://www.w3.org/1999/xlink" x="0px" y="0px"
	 viewBox="0 0 60 60" style="enable-background:new 0 0 60 60;" xml:space="preserve">
<g>
	<g>
		<path d="M56.7,53.4L43.1,39.3c3.5-4.1,5.4-9.4,5.4-14.8c0-12.7-10.3-23-23-23s-23,10.3-23,23s10.3,23,23,23
			c4.8,0,9.3-1.4,13.2-4.2l13.7,14.2c0.6,0.6,1.3,0.9,2.2,0.9c0.8,0,1.5-0.3,2.1-0.8C57.8,56.5,57.8,54.6,56.7,53.4z M25.5,7.5
			c9.4,0,17,7.6,17,17s-7.6,17-17,17s-17-7.6-17-17S16.1,7.5,25.5,7.5z"/>
	</g>
</g>
</svg>
