<?xml version="1.0" encoding="utf-8"?>
<!-- Generator: Adobe Illustrator 22.0.1, SVG Export Plug-In . SVG Version: 6.00 Build 0)  -->
<svg version="1.1" id="Слой_1" xmlns="http://www.w3.org/2000/svg" xmlns:xlink="http://www.w3.org/1999/xlink" x="0px" y="0px"
	 viewBox="0 0 60 60" style="enable-background:new 0 0 60 60;" xml:space="preserve">
<g>
	<g>
		<path d="M31,29.4c6.1,0,11.1-6,11.1-13.4c0-7.4-1.6-13.4-11.1-13.4s-11.1,6-11.1,13.4C19.9,23.4,24.9,29.4,31,29.4z"/>
		<path d="M10.1,49.9C10.1,49.5,10.1,49.8,10.1,49.9L10.1,49.9z"/>
		<path d="M51.9,50.3C51.9,50.2,51.9,49.4,51.9,50.3L51.9,50.3z"/>
		<path d="M51.9,49.4c-0.2-12.9-1.9-16.6-14.8-19c0,0-1.8,2.3-6.1,2.3s-6.1-2.3-6.1-2.3C12.1,32.7,10.4,36.4,10.1,49c0,1,0,1.1,0,1
			c0,0.2,0,0.6,0,1.4c0,0,3.1,6.2,20.9,6.2c17.8,0,20.9-6.2,20.9-6.2c0-0.5,0-0.8,0-1C51.9,50.4,51.9,50.2,51.9,49.4z"/>
	</g>
</g>
</svg>
