<svg xmlns="http://www.w3.org/2000/svg" width="13.073" height="13.073" viewBox="0 0 13.073 13.073">
    <defs>
        <style>
            .cls-1{fill:#1745a0}
        </style>
    </defs>
    <g id="ic_picture_as_pdf_24px" transform="translate(-2 -2)">
        <path id="Path_23" d="M13.766 2H5.922a1.311 1.311 0 0 0-1.307 1.307v7.844a1.311 1.311 0 0 0 1.307 1.307h7.844a1.311 1.311 0 0 0 1.307-1.307V3.307A1.311 1.311 0 0 0 13.766 2zM8.21 6.9a.979.979 0 0 1-.981.981h-.653V9.19H5.6V5.268h1.629a.979.979 0 0 1 .981.981zm3.268 1.31a.979.979 0 0 1-.981.981H8.864V5.268H10.5a.979.979 0 0 1 .981.981zm2.615-1.961h-.981V6.9h.981v.981h-.981V9.19h-.981V5.268h1.961zM6.576 6.9h.654v-.651h-.654zM3.307 4.615H2v9.151a1.311 1.311 0 0 0 1.307 1.307h9.151v-1.307H3.307zm6.537 3.6h.656V6.249h-.656z" class="cls-1" data-name="Path 23"/>
    </g>
</svg>
