<?xml version="1.0" encoding="utf-8"?>
<!-- Generator: Adobe Illustrator 22.0.1, SVG Export Plug-In . SVG Version: 6.00 Build 0)  -->
<svg version="1.1" id="Слой_1" xmlns="http://www.w3.org/2000/svg" xmlns:xlink="http://www.w3.org/1999/xlink" x="0px" y="0px"
	 viewBox="0 0 15 14" style="enable-background:new 0 0 15 14;" xml:space="preserve">
<style type="text/css">
	.st0{fill:#1745A0;}
</style>
<path id="Path_32" class="st0" d="M12.6,4h-10c-1.2,0-2.1,1-2.1,2.1c0,0,0,0,0,0v4.3h2.9v2.9h8.5v-2.9h2.9V6.1
	C14.8,4.9,13.8,4,12.6,4C12.6,4,12.6,4,12.6,4z M10.5,11.8H4.8V8.2h5.7V11.8z M12.6,6.8c-0.4,0-0.7-0.3-0.7-0.7
	c0-0.4,0.3-0.7,0.7-0.7c0.4,0,0.7,0.3,0.7,0.7C13.4,6.5,13,6.8,12.6,6.8L12.6,6.8z M11.9,0.4H3.4v2.9h8.5V0.4z"/>
</svg>
