<?xml version="1.0" encoding="utf-8"?>
<!-- Generator: Adobe Illustrator 22.0.1, SVG Export Plug-In . SVG Version: 6.00 Build 0)  -->
<svg version="1.1" id="Capa_1" xmlns="http://www.w3.org/2000/svg" xmlns:xlink="http://www.w3.org/1999/xlink" x="0px" y="0px"
	 viewBox="0 0 91.1 90.7" style="enable-background:new 0 0 91.1 90.7;" xml:space="preserve">
<style type="text/css">
	.st0{fill:#5FC94E;}
	.st1{fill:#FFFFFF;}
</style>
<g>
	<path class="st0" d="M66.2,27c-1.7,0-3.3,0.7-4.5,1.9L37.9,52.6L28,42.7c-1.2-1.2-2.8-1.9-4.5-1.9c-1.7,0-3.3,0.7-4.5,1.9
		c-1.2,1.2-1.9,2.8-1.9,4.5c0,1.7,0.7,3.3,1.9,4.5l14.4,14.4c1.2,1.2,2.8,1.9,4.5,1.9s3.3-0.7,4.5-1.9l28.3-28.3
		c2.5-2.5,2.5-6.5,0-9C69.5,27.7,67.9,27,66.2,27z"/>
	<path class="st1" d="M44.8,0.5c-24.8,0-45,20.2-45,45s20.2,45,45,45s45-20.2,45-45C89.8,20.7,69.7,0.5,44.8,0.5z M70.7,37.9
		L42.4,66.1c-1.2,1.2-2.8,1.9-4.5,1.9s-3.3-0.7-4.5-1.9L19,51.7c-1.2-1.2-1.9-2.8-1.9-4.5c0-1.7,0.7-3.3,1.9-4.5
		c1.2-1.2,2.8-1.9,4.5-1.9c1.7,0,3.3,0.7,4.5,1.9l9.9,9.9l23.8-23.8c1.2-1.2,2.8-1.9,4.5-1.9s3.3,0.7,4.5,1.9
		C73.2,31.3,73.2,35.4,70.7,37.9z"/>
</g>
</svg>
