<?xml version="1.0" encoding="utf-8"?>
<!-- Generator: Adobe Illustrator 22.0.1, SVG Export Plug-In . SVG Version: 6.00 Build 0)  -->
<svg version="1.1" id="Слой_1" xmlns="http://www.w3.org/2000/svg" xmlns:xlink="http://www.w3.org/1999/xlink" x="0px" y="0px"
	 viewBox="0 0 138.5 45" style="enable-background:new 0 0 138.5 45;" xml:space="preserve">
<style type="text/css">
	.st0{fill:#2665E1;}
	.st1{fill:none;stroke:#2665E1;stroke-width:2;}
	.st2{font-family:'Arial-BoldMT';}
	.st3{font-size:13.0059px;}
	.st4{letter-spacing:1;}
	.st5{fill:none;stroke:#FFFFFF;stroke-width:4;stroke-linejoin:round;}
	.st6{fill:none;stroke:#FFFFFF;stroke-width:5;}
	.st7{fill:#FFFFFF;stroke:#2665E1;stroke-width:0.5;stroke-linejoin:round;}
</style>
<g id="Group_118" transform="translate(-803.91 -425.464)">
	<g id="Rectangle_1581" transform="rotate(5 -4562.11 9527.74)">
		<path class="st0" d="M2,0l22.9,0c1.1,0,2,0.9,2,2l0,17c0,1.1-0.9,2-2,2L2,21c-1.1,0-2-0.9-2-2L0,2C0,0.9,0.9,0,2,0z"/>
		<path class="st1" d="M2,1l22.9,0c0.6,0,1,0.4,1,1l0,17c0,0.6-0.4,1-1,1L2,20c-0.6,0-1-0.4-1-1L1,2C1,1.4,1.4,1,2,1z"/>
	</g>
	<text transform="matrix(0.9975 6.996838e-02 -6.996838e-02 0.9975 844.5466 450.6205)" class="st0 st2 st3 st4">ЗАВЕРШЁН</text>
	<g id="Group_114" transform="rotate(5 -4593.348 9586.988)">
		<path id="Path_42" class="st5" d="M0,4.4c-0.1,1,0,6.5,0,7.4c0.3,1.2,1.3,2,2.5,2c1.4,0,8.8,0,9.7,0s3-0.9,3-2s0.1-6.2,0-7.4
			c-0.1-1.2-1.7-2.1-3-2.1c-1.3-0.1-8.6-0.1-9.7,0C1.3,2.3,0.3,3.2,0,4.4z"/>
		<path id="Path_43" class="st6" d="M13.9,12.6l2.5,2.3"/>
		<path id="Path_44" class="st7" d="M2.6,6l2.9,3.9L12.9,0L5.5,7.3L2.6,6z"/>
	</g>
	<g id="Group_113" transform="translate(720.421 -145.52)">
		<g id="Group_68" transform="translate(83.489 570.984)">
			<g id="Group_67">
				<g id="Group_26">
					<path id="Path_47" class="st0" d="M1.9,6.9C1.9,7,1.8,7,1.7,7C1.6,7,1.6,6.9,1.6,6.8c0,0,0,0,0-0.1C1.4,7,1.4,7.2,1.4,7.5l0,2
						c0,0.4,0,0.9,0,1.3l0,2c0,0.4-0.1,0.9-0.2,1.3l-0.5,2c-0.1,0.4-0.1,0.9-0.2,1.3l0,1.6c0.2,0.1,0.1,0.3,0.1,0.4c0,0,0,0-0.1,0
						l0,0v0c0,0.4,0,0.9-0.1,1.3l-0.4,2C0,23,0,23.4,0,23.9l0.2,2c0,0.4,0,0.9,0,1.3l-0.1,2c0,0.4,0,0.9,0,1.3v0.4l0.1-0.2l0.4,0.2
						c0.5,0.3,1.1,0.7,0.8,1.4l-0.1,0.2l-0.3,0c-0.1,0-0.1,0-0.2,0c-0.2,0-0.4-0.3-0.4-0.5c0,0,0,0,0-0.1l0,0l0-0.1l-0.1,0
						c-0.1-0.1-0.2-0.1-0.3-0.2v0.9c0,0.4,0.2,0.8,0.5,1.1L2.2,35c0.1,0.1,0.2,0.1,0.3,0.2c0.1-0.1,0.1-0.1,0.2-0.2
						c0.1-0.5-1-0.9-0.6-1.3c0.3,0.5,1.3,1.1,0.6,1.6l0.1,0.1c0.5,0.2,1.2,0.3,1.1,0.8L5.1,37c0.1,0.1,0.3,0.2,0.5,0.2l0,0
						c0.1,0,0.1,0,0.2,0c0.1,0,0.2,0.1,0.2,0.2l0.1,0c0.1,0,0.3,0.1,0.4,0.1l2,0.3c-0.1-0.1-0.1-0.2-0.2-0.2c0.4-0.6,0-0.9,0-1.4
						c0.1,0,0.1,0,0.2,0c0.1,0,0.2,0.1,0.3,0.2c0.1,0.1,0.2,0.1,0.4,0.2c0.1,0,0.2,0,0.3,0c0,0.3,0.1,0.6,0.2,0.9l1.3,0.4
						c0,0.1-0.1,0.1-0.1,0.2l1.8,0.1c0.4,0,1.1,0.1,1.5,0.1l2.5,0.3c0.1,0,0.3,0,0.4,0c0-0.1,0.1-0.2,0.1-0.4c0.1,0,0.3,0,0.4-0.1
						c0.2,0.1,0.1,0.2,0,0.5c0.2,0,0.4,0,0.5,0l2.5-0.1c0.5,0,0.9,0,1.4,0.1c0.2-0.2,0.2-0.4,0.2-0.6c0,0,0.1,0,0.1,0
						c0.3,0.1,0.2,0.3,0.3,0.5c-0.1,0.1-0.1,0.1-0.2,0.2l2.2,0.4c0.5,0.1,1,0.1,1.5,0.1l2.5,0c0.5,0,1,0,1.5,0.1l2.5,0.3
						c0.4,0,0.9,0.1,1.3,0.1v0l0,0c0.1,0,0.1,0,0.2,0l2.5-0.1c0.5,0,1,0,1.5,0l2.5,0.2l0.7,0.1c0.2-0.3,0.2-0.7,1-0.5
						C42.1,39.7,42,39.7,42,40l0.3,0l2.5,0.2c0.4,0,1.1,0.1,1.5,0.2l2,0.2c0-0.1-0.1-0.1-0.1-0.2c0.1-0.1,0.2,0,0.3,0l0.1,0l0.1,0
						c0,0,0.1,0,0.1,0c0,0.1,0,0.1,0,0.2c0.5,0.1,1,0.1,1.5,0.1l2.5,0c0.4,0,1.1,0,1.5,0l2.5,0.1c0.4,0,1.1,0.1,1.5,0.1l2.5,0.3
						c0.5,0.1,1,0.1,1.5,0.1l2.5,0c0.4,0,0.9,0,1.3,0c0-0.3,0.3-0.2,0.4-0.3c0.1,0.1,0.1,0.2,0.2,0.3l0.9,0c0,0,0,0,0-0.1
						c0,0,0.1,0,0.1,0.1l1.1,0c0.5,0,1,0.1,1.5,0.2l2.4,0.4c0.5,0.1,1,0.1,1.5,0.1l2.5,0c0.4,0,1.1,0,1.5,0l2.5,0
						c0.4,0,1.1,0,1.5,0.1l2.5,0.2c0.4,0,1.1,0.1,1.5,0.1l2.5,0.1c0.5,0,1,0.1,1.5,0.1l2.5,0.3c0.4,0,1.1,0.1,1.5,0.1l2.5,0
						c0.4,0,1.1,0.1,1.5,0.1l2.5,0.3c0.4,0,1.1,0.1,1.5,0.1l2.5,0c0.4,0,1.1,0,1.5,0l2.5,0.1c0.4,0,1.1,0.1,1.5,0.1l2.5,0.2
						c0.4,0,1.1,0,1.5,0l2.5,0c0.5,0,1,0,1.5,0.1l2.5,0.4c0.5,0.1,1,0.1,1.5,0.2l0.6,0c-0.3-0.4-0.7-0.7-0.3-1.3c0.1,0,0.1,0,0.2,0
						c0.4,0.1,0.2,0.4,0.3,0.6c0.4,0,0-0.4,0.3-0.7c0.2,0.3,0.6,0.5,0.4,0.9c-0.1,0.1-0.5-0.1-0.6,0c-0.1,0.2,0,0.4,0.2,0.5l0.4,0
						c0-0.2,0.1-0.3,0.2-0.5c0.1,0.1,0.2,0.3,0.3,0.5l0.5,0c0.3,0,0.7,0,1,0c-0.1-0.1,0-0.2,0-0.3l0.4,0.1l-0.1,0.2l0.1,0l2.2-0.4
						c0.3-0.1,0.8-0.2,1.2-0.3l-0.1,0c-0.5-0.1-0.5-0.5-0.2-0.7c0.1,0.3,0.4,0.4,0.4,0.7l0.2,0l2.2-0.5c0.5-0.1,0.9-0.3,1.3-0.6
						l0.1-0.1c-0.1-0.1-0.2-0.2-0.3-0.2c-0.1,0-0.1,0-0.2,0l0.2-0.4c0,0-0.1,0-0.1,0c-0.2,0-0.3,0-0.3,0.1c-0.1-0.1-0.1-0.3-0.1-0.5
						c0.3-0.1,0.9,0.3,0.9-0.2c0.6,0.2,0.3,0.6,0.1,0.9c0,0.1,0,0.2,0.1,0.2l0.7-0.7c-0.1-0.1-0.2-0.3-0.1-0.4
						c0.1,0.1,0.2,0.1,0.3,0.2l0.2-0.2c0.3-0.3,0.6-0.7,0.7-1.1l0.7-1.9c0.1-0.4,0.2-0.8,0.2-1.3l0-1.9c-0.2,0.1-0.4,0.1-0.5,0.1
						c-0.1-0.5-0.1-1,0.1-1.5c0.2,0,0.3,0,0.5,0l0.1,0v0l0.2-2c0-0.4,0.1-0.9,0.1-1.3l0.1-2c0-0.4,0.1-0.9,0.1-1.3l0.1-2
						c0-0.4,0.1-0.9,0.1-1.3l0.2-2c0-0.4,0.1-0.9,0.2-1.3l0.4-2c0.1-0.4,0.2-0.9,0.2-1.3l0.2-2c0-0.4,0-0.9-0.1-1.3l-0.3-1.9
						c-0.1-0.4-0.3-0.8-0.7-1.1l-1.6-1.4c-0.3-0.3-0.8-0.7-1.1-0.9l-1.7-1.3c-0.3-0.2-0.7-0.4-1.1-0.5c-0.1,0-0.2,0-0.2-0.1
						l-2.3-0.4c-0.5-0.1-1-0.1-1.5-0.2l-2.5-0.1c-0.5,0-1-0.1-1.5-0.1l-2.5-0.1c-0.4,0-1.1,0-1.5-0.1l-2.5-0.1c-0.5,0-1,0-1.5-0.1
						l-2.5-0.2c-0.5,0-1,0-1.5,0l-2.5,0.1c0.1,0.1,0.2,0.2,0.1,0.3c-0.1,0-0.2,0-0.2,0c-0.1,0-0.2-0.2-0.3-0.3l-0.2,0
						c-0.1,0.1-0.2,0.3-0.4,0.3c0,0,0,0-0.1,0c-0.2-0.1-0.2-0.2-0.1-0.3c-0.1,0-0.3,0-0.4-0.1l-2.5-0.6c-0.5-0.1-1-0.2-1.5-0.2
						l-2.5-0.1c-0.5,0-1,0-1.5,0l-2.5,0.1c-0.5,0-0.9,0-1.4-0.1c0.1,0.1,0,0.3,0.1,0.4c0,0,0.1,0,0.2-0.1c0.3,0.1,0.2,0.3,0.1,0.5h0
						c-0.1,0-0.2-0.1-0.3-0.2c-0.1-0.1-0.2-0.2-0.3-0.2c-0.1,0-0.1,0-0.2,0c0-0.1,0.1-0.3,0.2-0.4l-1.1-0.2c-0.1,0-0.1,0.1-0.1,0.1
						c0,0-0.1-0.1-0.1-0.1l-0.8-0.1C93.9,4.7,94,5,94,5.3c0,0,0,0,0.1,0c0.1,0,0.2,0,0.3,0c0.1,0,0.2,0,0.3,0c0.1,0,0.1,0,0.1,0.1
						c-0.5,0.5,0.2,0.6-0.4,1.1c-0.2-0.7-1.9-1-1-1.9c-0.5-0.1-0.9-0.1-1.4-0.1l-1.2-0.1c0.1,0.1,0.1,0.2,0,0.2
						c-0.8-0.2-0.1,0.3-0.2,0.6c0,0-0.1,0-0.1-0.1c-0.1,0-0.1,0-0.2,0.1c0,0.1-0.1,0.1-0.2,0.1c0,0-0.1,0-0.1-0.1
						c0-0.3,0.1-0.7,0.3-0.9l-0.8-0.1c-0.2,0-0.3,0-0.5,0c0.2,0.2,0.3,0.6,0.2,0.9l0,0.1l-0.6,0l-0.1,0.3l-0.2-0.1L88.5,5h0
						c0-0.1-0.1-0.2-0.2-0.3c-0.1-0.2-0.2-0.3-0.3-0.5l-0.1,0h-0.1c0.2,0.3,0.4,0.8,0.2,0.8c0,0,0,0,0,0c-0.3-0.1-0.4-0.4-0.5-0.8
						l-2.2,0.1c-0.5,0-1,0-1.5,0l-0.2,0c0.1,0,0.1,0.1,0.2,0.1c0.1,0.1,0.2,0.2,0.4,0.2c0.1,0,0.1,0,0.2,0c0.1-0.1,0.2-0.2,0.4-0.2
						c0.3,0.2,0.5,0.5,0.5,0.8c-0.7-0.2-1.4-0.5-2-1c0,0,0.1-0.1,0.1-0.1l-0.5-0.1c0.1,0,0.1,0.1,0.2,0.2c0.1,0.1,0.2,0.1,0.3,0.2
						l0.4,0.2l-0.3,0.2c-0.2,0.2-0.6,0.3-0.9,0.2c-0.2-0.1-0.3-0.2-0.5-0.3c-0.1-0.1-0.2-0.2-0.3-0.2c-0.1,0-0.2,0-0.2,0l-0.8,0.1
						L81,4.2c0,0,0-0.1,0.1-0.1C81,4,81,4,80.9,4l-0.2-0.1c-0.3,0-0.6,0-0.9,0l-2.5-0.1c-0.5,0-1,0-1.5-0.1
						c-0.2,0.1-0.3,0.1-0.5,0.1c-0.1,0-0.1-0.1-0.2-0.1l-0.6,0c0,0,0,0,0.1,0c0.2,0,0.3,0.2,0.2,0.3c0,0.1,0,0.1-0.1,0.1L74.2,4
						c0-0.1,0-0.1,0-0.2c0,0,0,0,0,0c0.1-0.1,0.2-0.1,0.3-0.1l-1-0.1c-0.3,0-0.6,0-0.9,0c0,0.1,0,0.2,0,0.3c0,0.1,0,0.1-0.1,0.2
						c0.1,0,0.1,0.1,0.2,0.1s0.2,0.1,0.2,0.1l0.2,0.1l0,0.2c0,0,0,0.1,0,0.1c0.1,0,0.2,0,0.3,0c0.1,0,0.2,0.1,0.3,0.2L73.8,5
						l-0.1,0.2c0.3,0.1,0.1,0.5-0.3,0.4l0,0c0,0-0.1,0-0.1,0.1l1.4,0c-0.1,0-0.2,0-0.2,0c-0.2-0.3,0.3-0.4,0.3-0.8c0,0,0,0,0,0
						c-0.1,0-0.2,0-0.2,0.1s-0.1,0.2-0.2,0.1c0,0-0.1,0-0.1,0c0.3-0.3-0.1-0.4,0-0.7c0.1,0,0.2,0,0.3,0.1c0.7,0.2,1.3,0.6,1.9,1.1
						c0.3,0,0.6,0.1,0.9,0.1l2.2,0.5c0,0-0.1-0.1-0.1-0.1c0.4-0.3,0.3-0.8-0.1-1c0.3-0.3,0.6-0.4,1-0.3c0.1,0,0.2,0.1,0.3,0.1
						c-0.3,0.3-0.2,0.4-0.3,0.8C80.1,6,80.8,6,80.6,6.2l0,0l-0.2,0l-0.2-0.1c-0.2-0.1-0.4-0.1-0.5-0.1c0,0.1-0.1,0.1,0,0.2l0.1,0
						c0.5,0.1,1,0.2,1.5,0.2h0l0-0.1l0.2,0.1l0,0.1l2.2,0.1c0.2,0,0.6,0,0.9,0c0-0.1,0-0.2,0.2-0.2l0,0c0.1,0,0.2,0.1,0.3,0.2h0.1
						l0.3,0h0c0.1,0,0.1,0,0.2,0c0,0,0,0,0.1,0l2-0.1c0.5,0,1,0,1.5,0.1l0.3,0c-0.2-0.1-0.4-0.3-0.4-0.6c0,0,0.1,0,0.1,0
						c0.1,0,0.1,0,0.2,0.1s0.1,0,0.2,0.1c0.2,0,0.3,0,0.3-0.1l0.4,0.1c-0.2,0.2-0.1,0.4,0,0.5l0.5,0.1c0-0.3,0.2-0.5,0.5-0.5
						c0,0,0.1,0,0.1,0c0.3,0.1,0.2,0.4,0.1,0.6l0.2,0C92,6.9,92.3,7,92.6,7c0,0,0.1-0.1,0.1-0.1c0,0,0.1,0,0.1,0C93,6.9,93,7,92.9,7
						c0.1,0,0.3,0,0.4,0l2.5,0.2c0.5,0,1,0,1.5,0l2.5-0.2c0.5,0,1,0,1.5,0l2.5,0.3c0.4,0,1.1,0.1,1.5,0.1c-0.6-0.3-1-0.9-1-1.6
						c0.1,0,0.2,0,0.2,0c0.3,0.1,0.5,0.3,0.8,0.5c-0.1,0.4,0.2,0.7,0.1,1.1l1.9,0.1c-0.1-0.1-0.1-0.3,0-0.4c0,0,0.1,0,0.1,0
						c0.1,0,0.1,0.1,0.2,0.1c0,0.1,0.1,0.1,0.2,0.1c0,0,0,0,0.1,0l-0.1,0.2h0c0.4,0,1.1,0,1.5,0.1l2.5,0.1c0.4,0,1.1,0.1,1.5,0.1
						l2.5,0.2c0.4,0,1.1,0.1,1.5,0.1l2.5,0.1c0.4,0,1.1,0,1.5,0.1l2.5,0.1c0.4,0,1.1,0.1,1.5,0.1l2.5,0.2c0.5,0,1,0.1,1.5,0.2l2,0.5
						l0,0c0.4,0.1,0.8,0.4,1.1,0.7l1.1,1.4c0.3,0.4,0.5,0.7,0.8,1.1l0.8,1.5c0.2,0.4,0.3,0.8,0.2,1.2l-0.4,2
						c-0.1,0.4-0.2,0.9-0.2,1.3l-0.2,2c0,0.4,0,0.9,0,1.3l0.2,2c0,0.3,0,0.5,0,0.8c0.1,0,0.2,0,0.3,0c0.2,0.1,0.3,0.2,0.2,0.3
						c-0.1,0-0.1,0-0.2,0c-0.1,0-0.2-0.1-0.3-0.2c0,0.1,0,0.3-0.1,0.4l-0.5,2c-0.1,0.4-0.1,0.9-0.1,1.3l0.1,2c0,0.4,0,0.9-0.1,1.3
						l-0.2,2c0,0.1,0,0.3,0,0.4c0.1,0,0.1-0.1,0.1-0.2c0,0,0,0,0.1,0c0.1,0,0.1,0.1,0.3,0.2c-0.1,0.2-0.3,0.3-0.5,0.3
						c0,0.2,0,0.4,0,0.5l0.1,2c0,0.4-0.1,0.9-0.3,1.2l-0.9,1.6c-0.2,0.4-0.5,0.7-0.9,1c0.1,0.1,0.3,0.2,0.5,0.3
						c-0.1,0.1-0.3,0.1-0.4,0.1c-0.1,0-0.2-0.1-0.3-0.2l-0.4,0.3c0.1,0.2,0.1,0.3,0.1,0.5c-0.1,0-0.1,0-0.2,0
						c-0.1,0-0.2-0.1-0.3-0.2l-0.5,0.3c-0.4,0.2-0.9,0.4-1.4,0.4l-2.1-0.1c-0.4,0-1.1,0-1.5,0l-2.5,0.1c-0.5,0-1,0-1.5-0.1l-2.5-0.5
						c-0.5-0.1-1-0.1-1.5-0.1l-2.5,0c-0.4,0-1.1,0-1.5,0l-2.5,0c-0.5,0-1-0.1-1.5-0.1l-2.5-0.4c-0.5-0.1-1-0.1-1.5-0.1l-2.5,0
						c-0.5,0-1,0-1.5-0.1l-2.5-0.3c-0.5-0.1-1-0.1-1.5,0l-2.5,0.2c-0.5,0-1,0-1.5,0l-2.5-0.1c-0.5,0-1-0.1-1.5-0.2l-2.5-0.5
						C86,40,85.5,40,85,40l-2.5,0.1c-0.5,0-1,0-1.5-0.1l-2.5-0.3c-0.5-0.1-1-0.1-1.5-0.1l-2.5,0c-0.5,0-1,0-1.5,0l-2.5-0.1
						c-0.5,0-1-0.1-1.5-0.1L66.5,39h0c-0.1,0.2-0.2,0.4-0.2,0.6c-0.2-0.1-0.5-0.2-0.7-0.4c0-0.1,0.1-0.2,0.1-0.3c-0.3,0-0.6,0-0.8,0
						L62.5,39h-0.4c0,0.2,0.1,0.3,0.1,0.5c-0.1,0-0.1,0-0.2,0c-0.3,0-0.5-0.3-0.5-0.5c-0.2,0-0.3,0-0.5-0.1l-0.9-0.2
						c0,0,0,0.1-0.1,0.1c0,0-0.1,0-0.1,0c-0.1,0-0.1-0.1-0.1-0.1l-1.3-0.3c-0.4-0.1-0.9-0.1-1.3-0.1c0,0.1-0.1,0.2-0.3,0.3
						c0,0-0.1,0-0.1,0c-0.1,0-0.1-0.1-0.2-0.1c0-0.1-0.1-0.1-0.2-0.1c0,0,0,0-0.1,0l0,0l-1.8,0c-0.5,0-1,0-1.5-0.1l-2.5-0.3
						c-0.2,0-0.4,0-0.6,0c0,0.2-0.2,0.6-0.2,0.8c-0.3-0.2-0.4-0.5-0.3-0.8c-0.2,0-0.3,0-0.5,0L46.4,38c-0.5,0-1,0-1.5,0l-0.7-0.1
						c0.3,0.2,0.5,0.5,0.4,0.9c0,0-0.1,0-0.1,0c-0.5-0.1-0.3-0.5-0.6-0.7c0-0.2,0.3-0.1,0.4-0.2l-1.6-0.1c-0.5,0-1-0.1-1.5-0.1
						l-2.5-0.2c-0.4,0-1.1-0.1-1.5-0.2L34.5,37c-0.5-0.1-1-0.1-1.5-0.1l-2.5,0c-0.5,0-1,0-1.5,0l-2.3-0.1c0.2,0.1,0.4,0.3,0.3,0.5
						c-0.2-0.1-0.2,0.1-0.5,0.1c0,0-0.1,0-0.1,0c0.1-0.2-0.1-0.3,0-0.6c-0.4,0-1-0.1-1.3-0.1L23,36.4c0,0.1,0,0.2,0,0.3
						c-0.4-0.1-0.5,0.2-0.9,0.1l0,0c-0.1-0.1,0-0.3,0.1-0.5c-0.2,0-0.3,0-0.5,0c-0.2,0-0.3,0-0.5,0c-0.1,0.1-0.1,0.2-0.2,0.2
						c-0.1,0-0.1,0-0.2-0.1c-0.1,0-0.2,0-0.3,0c-0.1,0-0.2,0-0.3,0h0l0-0.1h-1.8c-0.3,0-0.9,0-1.3,0c-0.2,0.4,0.4,0.7-0.1,0.9
						c-0.3-0.3-0.6-0.6-0.9-0.9l-0.9,0c0,0-0.1,0.1-0.1,0.1c-0.1,0-0.1-0.1-0.1-0.1l-0.7,0c-0.5,0-1-0.1-1.5-0.2l-2.4-0.4l-0.6-0.1
						h0c0.1,0.3,0.4,0.6,0.3,0.9c-0.1,0-0.1-0.1-0.2-0.1c-0.1,0-0.2,0-0.3,0c-0.1,0-0.2,0.1-0.3,0c-0.1,0-0.1,0-0.2-0.1
						c0.6-0.1,0.1-0.5-0.3-0.6c-0.1,0-0.1,0-0.2,0c-0.1-0.1-0.2-0.3-0.2-0.5l-1.3-0.2c-0.1,0-0.2,0-0.2-0.1c-0.1,0-0.3-0.1-0.4-0.1
						c0,0.1,0,0.1-0.1,0.2c-0.1,0-0.2-0.1-0.3-0.1c-0.3-0.1-0.6-0.2-0.4-0.5l0,0l-0.2-0.2c0,0.3-0.2,0.7-0.3,1.1
						c-0.8-0.3-0.1-0.9,0-1.3l-0.9-0.7c-0.3-0.3-0.6-0.6-0.7-1c-0.2-0.1-0.3-0.2-0.2-0.4c0,0,0-0.1,0-0.1l0,0l-0.1-0.2l-0.4-0.1
						L3,31.2c0.1,0,0.1,0,0.2,0l-0.2-0.6C3,30.2,2.9,29.8,3,29.3l0.1-2c0-0.4,0.1-0.9,0.1-1.3l0.3-2c0.1-0.4,0.1-0.9,0.1-1.3l0-2
						c0-0.4,0.1-0.9,0.1-1.3c0,0,0,0,0,0l-0.5-0.1c0-0.2,0.2-0.2,0.3-0.2c0.1,0,0.2,0.1,0.2,0.2l0.3-1.9c0.1-0.4,0.1-0.9,0.1-1.3
						l0-2c0-0.4,0-0.9,0.1-1.3l0.1-2c0-0.4,0.1-0.9,0.1-1.3l0.2-2C4.8,7.3,4.9,6.9,5,6.4l0.6-1.7C5.8,4.4,6.1,4,6.5,3.8L8.4,3
						c0.5-0.2,1-0.3,1.4-0.4l1.9-0.3c0.5-0.1,1-0.1,1.5-0.1l2.5,0c0.4,0,1.1,0,1.5,0l2.5,0.1c0.4,0,1.1,0.1,1.5,0.1l2,0.1
						c-0.1-0.1-0.1-0.2-0.1-0.3l0.1,0c0.1,0,0.2,0.1,0.3,0.2c0,0,0.1,0.1,0.1,0.1h0c0.4,0,1.1,0,1.5,0.1l2.5,0.1
						c0.4,0,1.1,0.1,1.5,0.1L31.7,3c0.4,0,1.1,0.1,1.5,0.2l2.5,0.3c0.4,0.1,1.1,0.1,1.5,0.2l0.8,0c-0.1-0.1-0.2-0.1-0.4-0.1
						c-0.2-0.1-0.4-0.1-0.5-0.1c0-0.2-0.6-0.5-0.1-0.7c0.1,0,0.1,0,0.2,0c0.4,0.1,0.1,0.4,0.4,0.5l0.1,0c0.3,0.1,0.7,0,0.9-0.3h0
						c0.1,0,0.3,0.1,0.3,0.2c0.1,0.1,0.2,0.2,0.3,0.2c0.1,0,0.1,0,0.2,0c-0.1,0.2-0.2,0.2-0.4,0.2l0.7,0c0.4,0,1.1,0.1,1.5,0.1
						l0.1,0l-0.1,0c0.1-0.3,0.3-0.5,0.7-0.4c-0.1,0.2-0.2,0.4-0.5,0.4l1.6,0.1c0-0.1,0-0.2,0.1-0.3C42.8,3.6,43,3.3,43.1,3
						c0.1,0,0.1,0.1,0.1,0.2c0.1,0,0.2-0.1,0.2-0.2l0.4,0.1c0,0.1-0.1,0.2-0.2,0.2l0.2,0.1c0.3,0.1,0.6,0.4,0.6,0.7
						c0.3,0,0.7,0,0.9,0l2.5-0.2c0.5,0,1,0,1.5,0.1l2.5,0.5c0.5,0.1,1,0.2,1.5,0.2l2.5,0.1c0.4,0,1.1,0,1.5,0.1L59.7,5
						c0.4,0,1.1,0.1,1.5,0.1l2.1,0.1c0.1-0.1,0.1-0.2,0.1-0.3l0.4,0.1c0,0.1-0.1,0.2-0.1,0.2c0.4,0,1.1,0,1.5,0.1l0.4,0
						c-0.3-0.2,0.3-0.7,0.4-0.8c0.1,0.1,0,0.6-0.2,0.8l1.9,0.1h0c0-0.4-0.1-0.8,0.3-1.1l0,0c0.3,0.1,0.5,0.2,0.7,0.4
						c-0.2,0.2-0.3,0.5-0.3,0.8c0.3,0,0.5,0,0.8,0.1l2.5,0.2c0.1,0,0.3,0,0.4,0c-0.2-0.1-0.4-0.1-0.6-0.2c-0.1,0-0.2-0.1-0.3-0.1
						L71,5.2L71.1,5c0.1-0.2,0.2-0.3,0.4-0.3c-0.2-0.4-0.1-0.8,0-1.2l-0.4,0l0.2,0l-0.1,0.3l-0.1,0c-0.2-0.1-0.3-0.2-0.2-0.3
						l-1.5-0.1h0l0.1,0c-0.2,0.3-1,0-1.1,0.4c-0.2-0.2-0.4-0.3-0.4-0.5h-0.1l-2.5-0.1c-0.5,0-1,0-1.5-0.1L61.4,3
						c-0.5,0-1-0.1-1.5-0.1l-1.2-0.1c0,0.2,0.1,0.5,0.1,0.7c-0.2,0-0.4-0.1-0.6-0.1c-0.5-0.2-1-0.4-1.5-0.7l-0.8-0.1l-2.5-0.2
						c-0.5,0-1-0.1-1.5-0.2l-2.5-0.5c-0.5-0.1-1-0.1-1.5-0.1l-0.1,0c0,0.1-0.1,0.1-0.2,0.1c0,0-0.1,0-0.1,0l-2.1,0.2l-0.1,0
						c-0.2,0.4,0.2,0.8,0.1,1.4C44.8,3,45,2.4,44.9,2c0.1,0,0.3,0,0.4-0.1c-0.5,0-0.9,0-1.4-0.1l-2.5-0.4c-0.5-0.1-1-0.1-1.5-0.2
						l-1-0.1l-0.2,0.4c-0.2,0-0.4,0-0.5-0.1c-0.1,0-0.2,0-0.2-0.1c0.1-0.1,0.3-0.2,0.4-0.3l-0.9-0.1c-0.5,0-1,0-1.5,0l-2.5,0.1
						c-0.5,0-1,0-1.5-0.1l-2.5-0.4c-0.5-0.1-1-0.1-1.5-0.1l-0.4,0v0.1l-0.1-0.1l-2,0c-0.4,0-1.1,0-1.5,0l-2.5-0.2
						c-0.5,0-1-0.1-1.5,0l-1.1,0c0,0,0,0.1,0,0.1c-0.1,0-0.2,0-0.4-0.1l-1,0c-0.5,0-1,0-1.5-0.1L13.4,0c-0.1,0-0.2,0-0.3,0
						c0,0.1,0,0.1,0,0.2C13,0.1,13,0,12.9,0c-0.2-0.1-0.5,0.2-0.2,0.3c-0.1,0-0.1,0.1-0.2,0c-0.1,0-0.2-0.2-0.1-0.4
						c-0.2,0-0.4,0-0.5,0L9.7,0.3C9.3,0.3,8.6,0.5,8.2,0.5L6,1.1C5.5,1.2,5.1,1.4,4.8,1.8L3.5,3.4c0,0.1-0.1,0.1-0.1,0.2
						c0.1,0,0.2,0,0.2,0c0.1,0,0.1,0,0.2,0.1s0.1,0,0.2,0.1c0.2,0.1,0.5,0.1,0.6-0.2c0.2,0.2,0.4,0.6,0,0.7C4.3,4.2,4,4.1,3.8,4
						C3.6,3.9,3.4,3.9,3.1,3.9C3,4.1,2.8,4.3,2.7,4.5l-1,1.7l0,0C1.9,6.5,1.8,6.7,1.9,6.9L1.9,6.9z M135.6,40.3
						c-0.1,0.4-0.3,0.3-0.2,0.6l0,0c-0.4-0.1-0.2-0.6-0.1-0.7L135.6,40.3z M136.4,36.8c0,0,0.1,0,0.1,0c0.1,0,0.1,0.1,0.1,0.2
						c0,0,0,0,0,0c0,0.1-0.1,0.1-0.2,0.1c0,0-0.1,0-0.1,0L136.4,36.8z M135.8,36.9c0.1,0,0.2,0.1,0.2,0.1c-0.1,0-0.2,0.1-0.3,0
						c-0.1,0-0.1-0.1-0.1-0.1S135.6,36.9,135.8,36.9L135.8,36.9z M76.4,4.8l-0.1,0.1l-0.2,0c-0.1,0-0.1,0-0.2,0
						c-0.2,0-0.3-0.2-0.4-0.3l-0.2-0.1l0-0.2c0-0.1,0.1-0.2,0.2-0.2c0.1,0,0.3,0,0.4,0c0.2,0.1,0.4,0.2,0.5,0.4
						C76.6,4.5,76.6,4.7,76.4,4.8L76.4,4.8z M77.9,4.5c-0.1,0-0.1-0.1-0.3-0.2c0.1-0.1,0.2,0,0.2-0.1C77.9,4.3,78,4.4,77.9,4.5
						C77.9,4.5,77.9,4.5,77.9,4.5z M83.2,6.4c-0.1-0.5-0.8-0.8-1.3-1.2c-0.3,0.1,0,0.4,0.2,0.5c-0.1,0-0.2,0-0.2,0c0,0-0.1,0-0.1,0
						s-0.1,0-0.1,0c-0.1,0-0.2,0-0.3,0c-0.2-0.5,0.5-0.4,0.8-0.6c0.5,0.5,1.7,0.8,2.3,1.4C84,6.5,83.6,6.5,83.2,6.4L83.2,6.4z
						 M86.2,5.7C86,5.5,85.9,5.2,85.5,5l0.2-0.4C86.2,4.8,86.6,5.4,86.2,5.7L86.2,5.7z M87.6,5.3l1,0.3c0,0.3,0.2,0.5,0.2,0.8
						C88.4,6,87.5,5.8,87.6,5.3L87.6,5.3z M89.8,5.8c-0.1-0.1-0.1-0.2-0.3-0.3c0-0.3,0.3-0.2,0.3-0.4C90,5.3,90,5.5,89.8,5.8
						C89.8,5.7,89.8,5.8,89.8,5.8z M91,6c-0.2-0.1-0.1-0.3-0.4-0.4c0.1-0.1,0.2,0,0.2-0.1c0.2,0.1,0.1,0.3,0.4,0.4
						C91.2,5.9,91.1,5.9,91,6L91,6z M94.5,6.9c-0.1,0-0.1-0.1-0.3-0.2c0.1-0.1,0.2,0,0.2-0.1C94.6,6.7,94.6,6.8,94.5,6.9
						C94.5,6.9,94.5,6.9,94.5,6.9L94.5,6.9z M95.8,7.1c0,0-0.1,0-0.1,0c-0.2-0.1,0-0.3,0-0.4c0-0.2-0.6-0.3-0.6-0.5
						c0.1-0.1,0.3-0.1,0.4-0.1C96,6.3,96.4,6.9,95.8,7.1L95.8,7.1z M99.3,5c0.1,0,0.1,0,0.2,0c0.3,0.1,0.3,0.2,0.5,0.3
						c-0.5,0.3-0.5,0.6-0.3,1c-0.1,0-0.2,0-0.3,0C98.7,6.2,99.5,5.4,99.3,5L99.3,5z M99.4,7c0,0-0.1,0-0.1,0c0-0.2,0.2-0.2,0.3-0.3
						c0,0,0,0,0.1,0c0.1,0,0.1,0.1,0.3,0.2C99.8,7,99.6,7.1,99.4,7L99.4,7z M100.3,5.3c-0.1,0-0.1,0-0.2-0.1c0-0.2,0.1-0.2,0.3-0.1
						c0.1,0,0.1,0,0.2,0.1s0.1,0,0.2,0.1c0,0,0.1,0,0.1,0C100.7,5.4,100.5,5.3,100.3,5.3L100.3,5.3z M101.9,7L101.9,7l0.1-0.4
						c0.3,0.1,0.4,0.3,0.3,0.5C102.2,7,102,7,101.9,7L101.9,7z M102.9,7.3l-0.2-0.1l0.1-0.2l0.2,0.1L102.9,7.3z M103.5,6.8
						c-0.4-0.1-0.5-0.3-0.4-0.6c0.2,0,0.4-0.1,0.6,0l0,0C103.7,6.4,103.8,6.7,103.5,6.8L103.5,6.8z M107.8,6c-0.1,0-0.1,0-0.1,0.1
						c-0.1-0.1,0-0.2,0-0.3c0,0,0,0,0.1,0C107.9,5.8,107.9,5.9,107.8,6C107.9,6,107.9,6,107.8,6L107.8,6z M107.9,6.5
						c0-0.1,0.1-0.1,0.1-0.1c0.1,0,0.1,0.1,0.2,0.1c-0.1,0-0.2,0.1-0.2,0C107.9,6.6,107.9,6.5,107.9,6.5
						C107.9,6.5,107.9,6.5,107.9,6.5L107.9,6.5z M108.1,7.1c-0.1,0-0.2-0.1-0.2-0.1c0.1-0.1,0.2-0.1,0.4-0.1c0,0,0.1,0,0.1,0
						C108.4,7.2,108.2,7.2,108.1,7.1L108.1,7.1z M113.8,7.4c-0.1,0-0.1,0-0.2-0.1c0.1-0.3,0.3-0.3,0.4-0.4
						C114.4,7.1,114.2,7.6,113.8,7.4L113.8,7.4z M125,6.8l0.2,0.1l-0.1,0.3l-0.2-0.1L125,6.8z M125.2,7.6c-0.1,0-0.1-0.1-0.1-0.1
						c0-0.2,0.2-0.2,0.5-0.2c0,0,0.1,0,0.1,0C125.5,7.5,125.4,7.6,125.2,7.6L125.2,7.6z M134.4,12c0.1,0.1,0.2,0.3,0.1,0.4
						C134.3,12.3,134.3,12.2,134.4,12L134.4,12z M136.1,10.5C136.1,10.5,136.1,10.6,136.1,10.5c0.1,0.1,0.1,0.1,0.2,0.1h0
						c0,0-0.1,0.1-0.2,0C136.1,10.7,136,10.6,136.1,10.5C136.1,10.5,136.1,10.5,136.1,10.5L136.1,10.5z M135.9,11.9l-0.2-0.1
						c0.1-0.1,0-0.1-0.1-0.1c0-0.1,0.1-0.1,0.2-0.1C135.9,11.7,136.1,11.8,135.9,11.9L135.9,11.9z M136.4,13.9c-0.1,0-0.1-0.1,0-0.3
						C136.7,13.7,136.5,13.9,136.4,13.9L136.4,13.9z M137.9,15.8c-0.1-0.1-0.2-0.2-0.4-0.2l-0.1,0l0.1-0.3l0.4,0.1
						C137.8,15.5,138.1,15.6,137.9,15.8L137.9,15.8z M137,18.3l0.1-0.2c0,0,0,0,0.1,0c0.2,0.1,0.1,0.2,0.1,0.3
						C137.1,18.4,137.2,18.4,137,18.3L137,18.3z M135.9,22.1c-0.3-0.1-0.3-0.2-0.2-0.4l0.1,0C136.1,21.8,136,22,135.9,22.1
						C136,22.2,136,22.2,135.9,22.1L135.9,22.1z M134.5,31.9c-0.1,0-0.1-0.1-0.2-0.2c0.1-0.1,0.2,0,0.2-0.1c0.1,0,0.1,0.1,0.2,0.2
						C134.6,31.8,134.5,31.8,134.5,31.9L134.5,31.9z M133.7,41.4c-0.1,0.1-0.2,0.1-0.3,0.1c-0.2-0.1-0.3-0.2-0.4-0.3
						c0.5-0.5-0.3-0.9,0.2-1.1C133.7,40.4,133,41.1,133.7,41.4L133.7,41.4z M134.7,36.4c0.1,0,0.1,0.1,0.2,0.1
						c0.1,0,0.2,0.1,0.2,0.1c0,0,0.1,0,0.1,0c0,0.1-0.1,0.1-0.2,0c-0.1,0-0.1,0-0.2-0.1s-0.1-0.1-0.2-0.1c0,0-0.1,0-0.1,0
						C134.5,36.4,134.6,36.4,134.7,36.4L134.7,36.4z M135,32.6c0-0.1,0.2-0.1,0.3-0.1c0.3,0.1,0.5,0.3,0.4,0.5l0,0
						C135.4,32.9,135.2,32.8,135,32.6L135,32.6z M132.4,41.8c0.1,0,0.1,0,0.2,0.1c0.1,0.1,0,0.3-0.1,0.5h0c-0.4-0.1-0.4-0.3-0.6-0.5
						C132,41.7,132.2,41.7,132.4,41.8L132.4,41.8z M130,42.4c0,0.2,0.3,0.2,0.2,0.4c0,0-0.1,0-0.1,0c-0.2,0-0.2-0.1-0.3-0.2
						C129.9,42.6,130,42.5,130,42.4L130,42.4z M127.1,43.3c0.1,0,0.1,0,0.2,0c0.1,0,0.1,0.2,0.3,0.2c0,0.1-0.2,0.1-0.3,0
						C127.1,43.5,127,43.4,127.1,43.3L127.1,43.3z M124.3,42.6l0.4,0.1l-0.1,0.2l-0.4-0.1L124.3,42.6z M121.5,44.1
						c-0.3-0.1-0.4-0.3-0.3-0.5C121.3,43.8,121.7,43.8,121.5,44.1L121.5,44.1z M119.7,43.6L119.7,43.6c0.4,0.1,0.5,0.5,0.2,0.6
						l-0.4-0.1C119.4,43.8,119.6,43.7,119.7,43.6L119.7,43.6z M119.4,42.6L119.4,42.6c0.1,0,0.1,0,0.2,0l0,0c0.1,0,0.1,0.1,0.1,0.1
						c0,0,0,0,0,0c0,0.1-0.1,0.1-0.2,0.1c0,0-0.1,0-0.1-0.1L119.4,42.6z M108.4,41.9c0.1,0,0.1,0.1,0.1,0.2c0,0,0,0,0,0
						c-0.1,0-0.1,0-0.1,0.1C108.2,42.2,108.3,42,108.4,41.9C108.3,41.9,108.3,41.9,108.4,41.9L108.4,41.9z M105.8,42.4l0.4,0.1
						l-0.1,0.3c0,0,0,0-0.1,0C105.7,42.8,105.7,42.6,105.8,42.4L105.8,42.4z M93.3,42.7C93.4,42.7,93.4,42.7,93.3,42.7
						c0.1,0.1,0.1,0.1,0.2,0.1h0c0,0-0.1,0.1-0.2,0C93.3,42.8,93.3,42.8,93.3,42.7C93.3,42.7,93.3,42.7,93.3,42.7L93.3,42.7z
						 M90.7,42.4l0.5,0.1l-0.1,0.2l-0.5-0.1L90.7,42.4z M85.3,40.5L85.3,40.5c0.1,0,0.1,0.1,0.1,0.2c0,0.1-0.1,0.2-0.2,0.1
						c0,0-0.1,0-0.1-0.1C85.1,40.6,85.2,40.6,85.3,40.5L85.3,40.5z M83.4,41.8c0,0,0.1,0,0.1,0c0.2,0.1,0,0.3,0,0.4
						C83.3,42.1,83.3,42,83.4,41.8L83.4,41.8z M74.5,41.8c-0.3-0.1-0.2-0.4,0.1-0.5C74.9,41.5,74.7,41.8,74.5,41.8L74.5,41.8z
						 M76.3,41.4c-0.1,0-0.2,0-0.2-0.1c-0.2,0-0.3-0.1-0.5-0.2c0-0.2,0.2-0.1,0.3-0.3C75.9,41,76.4,41.1,76.3,41.4L76.3,41.4z
						 M75.3,39.7c0.1,0,0.2,0.1,0.3,0.1c0.1,0,0.2,0.1,0.2,0.1c0.1,0,0.2,0,0.2,0c0.3,0.2,0.7,0.3,0.6,0.5c-0.1,0-0.3,0-0.4,0
						c-0.2-0.1-0.3-0.1-0.5-0.2c-0.2-0.1-0.4-0.2-0.6-0.2c-0.1,0-0.2-0.1-0.3-0.1C74.9,39.7,75.1,39.7,75.3,39.7L75.3,39.7z
						 M75.1,41.1c-0.4-0.2-0.7-0.4-0.6-0.8C74.8,40.5,75,40.8,75.1,41.1L75.1,41.1z M73.3,41.1c0,0,0.1,0,0.1,0
						c0.4,0.1,0.2,0.5,0.5,0.6c-0.1,0-0.2,0-0.3,0C73.4,41.7,73.1,41.4,73.3,41.1L73.3,41.1z M72.4,40.2c0.3,0.1,0.1,0.3,0,0.3
						C72.3,40.4,72.3,40.3,72.4,40.2L72.4,40.2z M71.3,41.7C71.3,41.8,71.3,41.8,71.3,41.7c-0.1,0-0.1,0-0.1,0c0,0-0.1,0-0.1-0.1h0
						c0,0,0.1-0.1,0.2,0C71.3,41.6,71.4,41.7,71.3,41.7L71.3,41.7z M71.2,40.9c0.1,0,0.3,0.2,0.2,0.3c0,0-0.1,0-0.1,0
						c-0.2,0-0.2-0.1-0.3-0.2C71,40.9,71.1,40.8,71.2,40.9L71.2,40.9z M69.8,39.9c0.4,0.2,0,0.7-0.4,0.5c0,0,0,0-0.1,0
						C69.4,40.1,69.6,40,69.8,39.9L69.8,39.9z M69.1,39.9c-0.1,0.4-0.5,0.3-0.9,0.2C68.4,39.8,68.7,39.8,69.1,39.9L69.1,39.9z
						 M67.2,40.9c0.1,0.1,0.3,0.2,0.3,0.3c0,0.1-0.1,0.1-0.2,0c-0.1,0-0.3-0.1-0.4-0.2C67,40.9,67.1,40.9,67.2,40.9L67.2,40.9z
						 M65.6,40.2c0,0,0.1,0,0.1,0c0.1,0,0.1,0.1,0.1,0.2c0,0,0,0,0,0c0,0.1-0.1,0.1-0.2,0.1c0,0-0.1,0-0.1,0L65.6,40.2z M64.1,40.1
						c-0.3,0.1-0.4,0.3-0.8,0.2C63.5,40.1,63.8,40,64.1,40.1L64.1,40.1z M59.6,40.5l0.2,0.1l-0.1,0.2l-0.2-0.1L59.6,40.5z
						 M54.8,40.3c-0.1-0.1-0.2-0.2-0.1-0.3C54.8,40.1,54.9,40.2,54.8,40.3L54.8,40.3z M52.3,38.3c0.2,0.1,0.3,0.2,0.2,0.3l-0.1,0
						C52.3,38.5,52.2,38.4,52.3,38.3L52.3,38.3z M52,39l0.5,0.1l-0.2,0.5c-0.1,0-0.1,0-0.2,0C51.7,39.5,51.8,39.3,52,39L52,39z
						 M49.2,40.2c0.2,0.1,0.2,0.2,0.1,0.4c0,0-0.1,0-0.1,0C49,40.5,49.2,40.3,49.2,40.2L49.2,40.2z M48,40.2c0.1,0,0.1,0.1,0.1,0.1
						L48,40.5c0,0-0.1,0-0.1,0c-0.2,0-0.2-0.1-0.1-0.2C47.8,40.2,47.9,40.2,48,40.2L48,40.2z M47.2,38.9c0.5,0.4-0.6,0.4-0.4,0.9
						C46.1,39.5,46.9,39,47.2,38.9L47.2,38.9z M45,39.4c0.3,0.1,0.5,0.2,0.3,0.4c0,0-0.1,0-0.1-0.1c-0.1,0-0.1,0-0.2,0
						c-0.1,0-0.1,0-0.2,0c0,0,0,0-0.1,0c-0.1-0.1-0.1-0.3,0-0.4C44.8,39.3,44.9,39.3,45,39.4L45,39.4z M37.8,38.4
						c0.2,0.1,0.3,0.2,0.2,0.3l-0.1,0C37.7,38.6,37.6,38.5,37.8,38.4L37.8,38.4z M35.9,37.8c0.3,0.2,0.2,1.2-0.3,1.1
						C36,38.4,35.5,38,35.9,37.8L35.9,37.8z M32.8,37.8c-0.2-0.1-0.4-0.3-0.3-0.6c0,0,0,0,0-0.1C32.8,37.2,32.9,37.5,32.8,37.8
						C32.8,37.8,32.8,37.8,32.8,37.8L32.8,37.8z M30.9,38.5c0.1,0,0.1,0.1,0.2,0.2c-0.1,0.1-0.2,0-0.2,0.1c-0.1,0-0.1-0.1-0.2-0.2
						C30.8,38.5,30.9,38.6,30.9,38.5L30.9,38.5z M27.4,38.6c0.2,0.1,0.5,0.3,0.4,0.5c-0.1,0-0.2,0-0.3,0c-0.2-0.1-0.4-0.3-0.3-0.5
						C27.3,38.6,27.4,38.6,27.4,38.6L27.4,38.6z M26.7,39.1C26.7,39.1,26.7,39.1,26.7,39.1c-0.5-0.1-0.3-0.5,0-0.6c0,0,0.1,0,0.1,0
						C27.1,38.7,26.7,39,26.7,39.1L26.7,39.1z M26.9,37.8c0.4,0.1,0.2,0.4,0.1,0.7c-0.1,0-0.2,0-0.3,0c-0.2,0-0.4-0.2-0.4-0.5
						c0,0,0,0,0-0.1C26.5,37.9,26.8,37.9,26.9,37.8L26.9,37.8z M25,37.6c0.3,0.2,0.3,0.4,0,0.6l0,0c-0.2,0-0.3-0.2-0.2-0.4
						C24.8,37.7,24.9,37.6,25,37.6L25,37.6z M24.2,37.1c0.3,0.2,0.2,0.8,0,0.9l0,0c-0.3-0.1-0.3-0.2-0.5-0.3
						C23.8,37.3,24,37.2,24.2,37.1L24.2,37.1z M21.3,36.9c0.1,0,0.1,0,0.2,0.1c0,0.2-0.1,0.5-0.2,0.7c-0.3-0.2-0.7-0.4-0.5-0.8
						C21,36.8,21.1,36.8,21.3,36.9L21.3,36.9z M16.7,37.8c0.1,0,0.1,0.1,0.1,0.1c-0.1,0-0.1,0-0.2,0c0,0-0.1,0,0-0.1c0,0,0,0,0,0
						C16.5,37.8,16.6,37.8,16.7,37.8L16.7,37.8z M15.2,37.7c0.1,0,0.1,0,0.2,0c0,0,0.1,0,0.1,0.1c0.2,0.3-0.1,0.6-0.6,0.5l0,0
						c0-0.1,0.2-0.1,0.2-0.2c0.1-0.1,0-0.1-0.1-0.1l0,0l0,0c-0.1,0-0.2-0.1-0.1-0.2c0,0,0,0,0.1,0C15.1,37.7,15.2,37.7,15.2,37.7
						L15.2,37.7z M14.8,37l0.4,0.1c0,0.2-0.2,0.2-0.3,0.3C14.7,37.3,14.7,37.2,14.8,37L14.8,37z M12,36.1L12,36.1
						c0.4,0.1,0.5,0.5,0.2,0.6C11.8,36.6,11.7,36.2,12,36.1L12,36.1z M2.4,30.7c0.4,0.1,0.1,0.6-0.1,0.7C1.9,31.3,2.5,31.1,2.4,30.7
						C2.3,30.7,2.4,30.7,2.4,30.7L2.4,30.7z M2.7,29.2l0.2,0.1l-0.1,0.2l-0.2-0.1L2.7,29.2z M1.6,31.9L1.9,32l-0.1,0.2l-0.4-0.1
						L1.6,31.9z M1.4,31c-0.3-0.2-0.5-0.5-0.5-0.8C1.1,30.5,1.8,30.6,1.4,31L1.4,31z M0.5,25.4c-0.1,0-0.1-0.1-0.1-0.1
						c0,0,0.1,0,0.1,0C0.5,25.2,0.5,25.2,0.5,25.4c0.1-0.1,0.1-0.1,0.1,0h0C0.6,25.4,0.5,25.4,0.5,25.4z M2.7,22.7l-0.2-0.1l0.1-0.2
						l0.2,0.1L2.7,22.7z M3.1,21.1c0.1,0,0.1,0.1,0.2,0.1c0.1,0.1,0.2,0.1,0.3,0.2l0,0c-0.1,0.1-0.2,0.1-0.3,0
						c-0.2,0-0.3-0.1-0.4-0.2C2.9,21.1,3,21,3.1,21.1z M0.9,25.5c0.5,0.2,0.2,1.2-0.3,1c0,0,0,0-0.1,0C0.4,26.2,0.7,25.7,0.9,25.5
						L0.9,25.5z M2,20.6c0.6,0.2,0.2,0.7,0.4,1c-0.1,0-0.2,0-0.2,0c-0.3-0.1-0.5-0.3-0.4-0.6C1.8,20.8,1.9,20.7,2,20.6L2,20.6z
						 M0.4,23.8C0.4,23.8,0.5,23.9,0.4,23.8c0.3,0.1,0.2,0.2,0.1,0.3c-0.1,0-0.1-0.1-0.2-0.2L0.4,23.8z M70.2,4.1
						c0.4,0.2,0.2,0.5,0.7,0.7c0,0,0.1,0,0.1,0c-0.1,0.1-0.3,0.1-0.4,0.1C70.2,4.7,69.9,4.3,70.2,4.1L70.2,4.1z M69.5,4.7L69.5,4.7
						c0.3,0.1,0.3,0.2,0.3,0.4L69.4,5L69.5,4.7z M67.2,5c-0.1,0-0.1,0-0.2,0c-0.2-0.1-0.3-0.6,0-0.6c0,0,0.1,0,0.1,0
						C67.5,4.5,66.9,4.9,67.2,5L67.2,5z M67,3.5c0.4,0.1,0.4,0.5,0.1,0.6C67.1,3.9,67,3.7,67,3.5L67,3.5z M64.3,4.5
						c0.2,0,0.3,0.2,0.2,0.3c0,0.1-0.1,0.2-0.2,0.2C64.2,4.9,64.2,4.7,64.3,4.5L64.3,4.5z M53.9,2.6c0.1,0.1,0,0.2,0.2,0.2
						c0.3-0.1,0.6-0.1,0.8,0c0.5,0.1,1,0.5,0.8,0.9c-0.4-0.2-0.8-0.4-1.2-0.5c-0.3-0.1-0.7-0.1-1-0.1C53.2,2.8,53.8,2.9,53.9,2.6
						L53.9,2.6z M46.5,3.1c0.4,0.1,0.5-0.2,0.7-0.4l0.1,0c0.5,0.1-0.5,0.5,0.1,0.7c0,0,0.1,0,0.1,0.1c0.1,0,0.2-0.1,0.2-0.2
						s0.1-0.2,0.2-0.2c0,0,0.1,0,0.1,0.1l-0.2,0.5c-0.3,0-0.5,0-0.8-0.1C46.7,3.6,46.4,3.4,46.5,3.1C46.5,3.1,46.5,3.1,46.5,3.1
						L46.5,3.1z M45.9,3.4L45.9,3.4C46,3.4,46,3.5,46,3.6c0,0.1-0.1,0.2-0.2,0.1c0,0-0.1,0-0.1-0.1C45.7,3.5,45.8,3.5,45.9,3.4
						L45.9,3.4z M42.7,2.4c0.1,0,0.2,0.1,0.2,0.2c0,0,0,0.1,0,0.1c-0.1,0-0.1-0.1-0.2-0.1c-0.1,0-0.2,0-0.3,0s-0.2,0.1-0.3,0
						c0,0-0.1,0-0.1,0C42,2.4,42.4,2.3,42.7,2.4z M41.2,1.5c0.4,0.1,0.3,0.3,0.3,0.6C41.3,1.9,41.1,1.7,41.2,1.5L41.2,1.5z
						 M37.1,1.6c0.2,0.1,0.4,0.2,0.2,0.4c-0.1,0-0.2,0-0.2,0c-0.2,0-0.3-0.2-0.4-0.3C36.7,1.6,36.9,1.5,37.1,1.6L37.1,1.6z
						 M36.2,2.7c0.3,0.1,0.3,0.2,0.2,0.4C36.2,3,36,2.9,36.2,2.7L36.2,2.7z M33.7,2.1l0.2,0.1l-0.1,0.2l-0.2-0.1L33.7,2.1z
						 M23.8,1.6C23.8,1.6,23.8,1.6,23.8,1.6C24,1.6,24,1.7,24.1,1.8c0,0.1-0.1,0.1-0.2,0.1C23.7,1.8,23.6,1.7,23.8,1.6L23.8,1.6z
						 M22.1,1.4c0.2,0.4,0.6,0.6,0.7,1c-0.1,0-0.2,0-0.4,0c-0.3-0.1-0.6-0.3-0.9-0.4C21.6,1.6,21.9,1.6,22.1,1.4L22.1,1.4z
						 M20.3,2.2c-0.2,0-0.3,0-0.5-0.1c-0.3-0.1-0.4-0.2-0.2-0.5C19.7,1.8,20.5,1.9,20.3,2.2L20.3,2.2z M17.1,0.4
						c0,0.2,0.2,0.3,0.3,0.3c0.1,0,0.2,0,0.2,0c0.1,0,0.2,0,0.3,0c0.1,0,0.1,0,0.2,0.1c0.2,0.3-0.4,0.3-0.7,0.4c0,0-0.1,0-0.1,0
						C17,1.2,17,1,16.8,0.9C16.9,0.7,16.9,0.5,17.1,0.4z M4.2,3.2C4.1,3.1,4.1,3,3.9,3c0.1-0.1,0.2,0,0.2-0.1C4.3,2.9,4.3,3,4.2,3.2
						C4.2,3.2,4.2,3.2,4.2,3.2L4.2,3.2z M3.6,10.4L3.6,10.4c-0.3-0.1-0.3-0.2-0.5-0.3c0-0.1,0.1-0.1,0.2-0.1
						C3.5,10,3.6,10.2,3.6,10.4L3.6,10.4z M4.7,6.5C4.6,6.5,4.6,6.5,4.7,6.5C4.5,6.5,4.5,6.4,4.3,6.3c0.1-0.1,0.2,0,0.2-0.1
						C4.7,6.3,4.7,6.4,4.7,6.5L4.7,6.5z M5,5.3c0-0.2,0.2-0.1,0.3-0.3C5.5,5.1,5.5,5.4,5,5.3C5.1,5.3,5,5.3,5,5.3L5,5.3z M5.5,3.5
						L5.5,3.5c0.1,0,0.2,0.1,0.2,0.2c0,0.1,0.1,0.2,0.1,0.2c0,0,0.1,0,0.1,0c0.3,0.3-0.4,0.5-0.7,0.4C5.4,3.9,5.2,3.6,5.5,3.5
						L5.5,3.5z M3.1,7.4c0.1,0,0.1,0,0.2,0c0.6,0.2,0.8,0.5,0.4,0.8C3.7,8,3.1,7.9,3,7.7L3.1,7.4z M3.3,4.2l0.4,0.1
						C3.6,4.5,3.5,4.7,3.2,4.6l-0.1,0L3.3,4.2z"/>
				</g>
				<g id="Group_27" transform="translate(7.709 37.846)">
					<path id="Path_48" class="st0" d="M0,0.1c0.2,0,0.4,0.1,0.6,0.1C0.6,0.1,0.5,0.1,0.4,0C0.3,0,0.1,0,0,0.1z"/>
				</g>
				<g id="Group_28" transform="translate(68.126 6.27)">
					<path id="Path_49" class="st0" d="M0,0.2c0.4,0.1,0.8,0.3,1,0.7h0.1l2.1-0.1h0.1C3.3,0.6,3.3,0.4,3.3,0.2h0L1.2,0
						C0.9,0,0.6,0,0.4,0C0.3,0.1,0.1,0.2,0,0.2L0,0.2z"/>
				</g>
				<g id="Group_29" transform="translate(74.008 6.625)">
					<path id="Path_50" class="st0" d="M0.2,0.7l1.4,0.2c0.2,0,0.4,0,0.6,0.1c0,0,0,0,0,0c0,0,0,0,0.1,0s0,0,0.1,0c0,0,0,0,0,0
						c0.2,0,0.4,0,0.6,0l0.1,0c0-0.2,0.1-0.5,0.3-0.7l0,0L3,0.3c-0.3,0-0.7-0.1-1-0.1c0.2,0.2,0.2,0.5,0,0.6c0,0-0.1,0.1-0.1,0.1
						l0,0c-0.1,0-0.2-0.1-0.3-0.3S1.4,0.4,1.3,0.3l0,0c0-0.1,0.1-0.1,0.1-0.2l-0.3,0c0,0,0.1,0.1,0.1,0.1C1.1,0.3,1,0.2,0.9,0.3
						c-0.1,0-0.1-0.1-0.1-0.2L0,0C-0.1,0.2,0.3,0.4,0.2,0.7L0.2,0.7z"/>
				</g>
				<g id="Group_30" transform="translate(72.619 6.531)">
					<path id="Path_51" class="st0" d="M0.2,0.6c0.1,0,0.2,0,0.3,0l0.6,0.1C1,0.5,0.8,0.3,0.7,0.1l-0.1,0L0,0
						C0.1,0.2,0.2,0.4,0.2,0.6L0.2,0.6z"/>
				</g>
				<g id="Group_31" transform="translate(52.574 5.644)">
					<path id="Path_52" class="st0" d="M1.2,0.5l2.1,0c0.4,0,0.9,0,1.3,0.1l2.1,0.2C7,0.8,7.6,0.8,8,0.8L10.1,1
						c0.3,0,0.9,0.1,1.2,0.1c0-0.1,0-0.3,0-0.4c-0.4,0-0.8,0-1.2-0.1L8,0.4C7.6,0.3,7.1,0.3,6.7,0.3l-2.1,0c-0.4,0-0.9,0-1.3,0
						L1.2,0.1c-0.4,0-0.7-0.1-1-0.1c0,0.1-0.1,0.3-0.2,0.4C0.4,0.4,0.9,0.5,1.2,0.5L1.2,0.5z"/>
				</g>
				<g id="Group_32" transform="translate(7.442 33.897)">
					<path id="Path_53" class="st0" d="M3,0.6C3,0.6,3,0.5,3,0.6L1.6,0.4c-0.4,0-0.8-0.1-1.1-0.2l-0.1,0L0,0c0,0,0,0.1,0,0.1
						l0.3,0.1c0.1,0,0.1,0,0.2,0.1c0.4,0.1,0.7,0.2,1.1,0.2l1.7,0.1c0,0-0.1,0-0.1,0C3.1,0.6,3,0.6,3,0.6z"/>
				</g>
				<g id="Group_33" transform="translate(50.375 5.362)">
					<path id="Path_54" class="st0" d="M0.1,0L0.1,0L0,0C0,0,0,0,0.1,0L0.1,0z"/>
				</g>
				<g id="Group_34" transform="translate(65.524 6.3)">
					<path id="Path_55" class="st0" d="M0,0.5l1.9,0.3c0.1,0,0.2,0,0.2,0C1.9,0.7,1.7,0.5,1.5,0.3c0.1-0.2,0-0.2,0-0.3L0.3,0.1
						C0.1,0.1,0,0.3,0,0.5z M0.6,0.2l0.2,0.1L0.8,0.4L0.6,0.3L0.6,0.2z"/>
				</g>
				<g id="Group_35" transform="translate(94.518 8.011)">
					<path id="Path_56" class="st0" d="M0,0.4l1.9,0.1c0.4,0,0.9,0.1,1.3,0.1l0.2,0c0.1-0.1,0.2-0.1,0.2-0.2
						c0.1,0.1,0.2,0.2,0.3,0.3l0.7,0.1c0-0.1,0-0.2,0-0.2c0.1,0.1,0.1,0.2,0.1,0.3L5.3,1C5.6,1,6.2,1.1,6.6,1.1l1.8,0.1
						c0.1-0.1,0.2-0.1,0.3,0c0,0,0.1,0,0.1,0h0C9,0.9,8.6,0.8,8.4,0.6L8,0.6C7.9,0.7,7.8,0.8,7.7,1C7.5,0.9,7.2,0.7,7,0.5l-0.4,0
						c-0.4,0-0.9-0.1-1.3-0.1L4.1,0.2c0,0,0,0.1,0,0.1c-0.1,0-0.1,0-0.2,0c-0.1,0-0.1-0.1-0.1-0.1l-0.4,0c0,0.2-0.2,0.4-0.5,0.3
						c0,0-0.1,0-0.1,0C2.8,0.2,2.8,0.1,3,0c-0.3,0-0.7,0-1,0L0.2,0C0.1,0.1,0,0.3,0,0.4L0,0.4z"/>
				</g>
				<g id="Group_36" transform="translate(13.398 34.337)">
					<path id="Path_57" class="st0" d="M28.7,2.4L28.7,2.4c-0.2,0-0.4,0-0.6-0.1L26,2.2c-0.4,0-0.9-0.1-1.3-0.1l-2.1-0.3
						c-0.4-0.1-0.9-0.1-1.3-0.1l-2.1,0c-0.4,0-0.9-0.1-1.3-0.1l-0.3,0c0,0.1,0,0.2,0,0.3c-0.2-0.1-0.3-0.2-0.4-0.4l-1.4-0.2
						c-0.4-0.1-0.9-0.1-1.3-0.1l-2.1,0.1c-0.4,0-0.9,0-1.3-0.1L9.1,0.8l-0.2,0c0,0,0,0,0,0c0,0,0,0,0,0c-0.3-0.1-0.7-0.1-1-0.1
						L5.7,0.4c-0.4,0-0.9-0.1-1.3-0.1L2.4,0C1.9,0,1.5,0,1.1,0L0,0.1c0.1,0.2,0.2,0.4,0.2,0.6L1,0.8c0.2,0,0.4,0.1,0.7,0.1
						C1.5,0.8,1.4,0.6,1.2,0.5c0.1,0,0.1,0,0.2,0c0.2,0.1,0.3,0.3,0.3,0.5l0.2,0c0,0,0-0.1,0-0.1c0.1,0,0.2,0.1,0.3,0.1h0.1l1.1,0
						c0-0.1,0-0.1,0-0.2c0,0,0.1,0,0.1,0c0.1,0,0.1,0.1,0.1,0.2l0.8,0c0.4,0,0.9,0,1.3,0l2.1,0.2c0.4,0,0.9,0.1,1.3,0.1l0.1,0
						C9.2,1.1,9.1,1,9.2,0.9C9.5,1,9.6,1.2,9.8,1.4l1.3,0.2c0.4,0.1,0.9,0.1,1.3,0.2L14.5,2l0.2,0l0-0.1c0,0,0.1,0,0.1,0
						c0,0,0.1,0,0.1,0.1c0.3,0,0.7,0,0.9,0h2.7c0.1-0.1,0.2-0.3,0.3-0.3l0,0C18.9,1.7,19,1.9,19,2h0.2l2.1,0c0.4,0,0.9,0,1.3,0
						l2.1,0.1c0.4,0,0.9,0.1,1.3,0.1L28,2.6c0.3,0,0.7,0.1,1.1,0.1c0-0.1-0.1-0.2-0.3-0.3C28.8,2.4,28.7,2.4,28.7,2.4L28.7,2.4z
						 M0.5,0.5c0,0-0.1-0.1-0.1-0.1c0,0,0-0.1,0.1-0.1c0.1,0,0.1,0.1,0.2,0.2C0.6,0.5,0.6,0.5,0.5,0.5L0.5,0.5z M1.9,0.4L1.9,0.4
						L1.9,0.4z M2,0.3L2,0.3L2,0.3z M10.9,1.4c0,0-0.1,0-0.1,0C10.7,1.5,10.7,1.5,10.9,1.4C10.9,1.4,10.9,1.4,10.9,1.4
						C10.9,1.4,10.9,1.4,10.9,1.4L10.9,1.4z"/>
				</g>
				<g id="Group_37" transform="translate(64.114 8.674)">
					<path id="Path_58" class="st0" d="M45.6,0.6c0.2,0,0.4,0,0.6,0.1l2.1,0.2c0.4,0,0.9,0.1,1.3,0.1l1.3,0.1c0-0.1,0-0.1,0.1-0.2
						c0,0,0.1,0,0.1,0c0.1,0,0.1,0.1,0.1,0.2l0.5,0c0.4,0,0.9,0.1,1.3,0.1l0.1,0l0,0L55,1.5c0.4,0,0.9,0,1.3,0l2.1-0.1
						c0.4,0,0.9,0,1.3,0.1l2.1,0.3c0.4,0.1,0.9,0.1,1.3,0.1l2.1,0c0.4,0,0.8,0.1,1.1,0.2c0,0,0.1,0,0.1,0l1.7,0.7
						c0.4,0.2,0.6,0.5,0.8,0.9l0.4,1.6c0.1,0.4,0.1,0.9,0.1,1.3l0,2c0,0.4,0,0.9-0.1,1.3l-0.2,2c0,0.4-0.1,0.9,0,1.3l0,2
						c0,0.4,0,0.9-0.1,1.3l-0.4,2c-0.1,0.4-0.1,0.9-0.1,1.3l0.1,2c0,0.4,0,0.9,0,1.3l-0.1,2c0,0.4-0.1,0.9-0.1,1.3l-0.2,2
						c-0.1,0.4-0.2,0.8-0.4,1.2l-0.9,1.4c-0.2,0.2-0.4,0.4-0.6,0.6c0.1,0.1,0.1,0.2,0.1,0.3c-0.3,0-0.5-0.1-0.8-0.1l-1.3,0.3
						C63.9,32,63.4,32,63,32.1l-2.1,0.2c0,0-0.1,0-0.2,0c0,0.1,0,0.1,0,0.2c0,0-0.1,0-0.1,0c-0.1,0-0.1-0.1-0.2-0.1
						c-0.3,0-0.6,0-0.9-0.1l-2.1-0.3c-0.4-0.1-0.9-0.1-1.3-0.2l-2.1-0.2c-0.4,0-0.9,0-1.3,0l-2.1,0.1c-0.4,0-0.9,0-1.3,0l-2.1-0.1
						c-0.4,0-0.9-0.1-1.3-0.1L44,31.1c-0.4,0-0.9-0.1-1.3-0.2l-2.1-0.5c-0.4-0.1-0.9-0.1-1.3-0.1l-2.1,0.1c-0.4,0-0.9,0-1.3,0
						l-2.1-0.2c-0.4,0-0.9-0.1-1.3-0.1l-2.1,0c-0.4,0-0.9,0-1.3,0L27.2,30c-0.4,0-0.9-0.1-1.3-0.1l-2.1-0.2c-0.4,0-0.9-0.1-1.3-0.2
						l-2.1-0.4c-0.4-0.1-0.9-0.1-1.3-0.1l-2.1,0c-0.4,0-0.9,0-1.3,0L15,29c-0.1,0.1-0.1,0.1-0.2,0.1c-0.1,0-0.1-0.1-0.1-0.1
						l-0.9-0.1c-0.4,0-0.9-0.1-1.3-0.1l-2.1-0.3c-0.4-0.1-0.9-0.1-1.3-0.2L7,28c-0.1,0-0.3,0-0.4,0c0.1,0.2,0,0.5-0.2,0.6
						c-0.2-0.1-0.2-0.4-0.1-0.6c-0.2,0-0.4,0-0.6,0H3.6c-0.4,0-0.9,0-1.3,0l-2.1,0h0c0,0.1-0.1,0.2-0.2,0.3h0.2l2.1,0
						c0.4,0,0.9,0.1,1.3,0.1l0,0c0-0.1,0-0.1,0-0.2c0.1,0,0.2,0.1,0.2,0.2l1.8,0.3c0.4,0.1,0.9,0.1,1.3,0.1l2.1-0.1
						c0.4,0,0.9,0,1.3,0.1l2.1,0.4c0.4,0.1,0.9,0.1,1.3,0.2l2.1,0.2h0c-0.1-0.1,0-0.3,0-0.4c0.1,0,0.1,0,0.2,0
						c0.2,0.1,0.4,0.2,0.5,0.4c0,0,0,0-0.1,0.1l0.6,0.1l0.2,0c0-0.1,0-0.1,0-0.2l0,0c0.1,0,0.2,0.1,0.2,0.2l1.6,0.2
						c0.4,0,0.9,0,1.3,0l2.1-0.1c0.4,0,0.9,0,1.3,0l2.1,0.2c0.4,0,0.9,0.1,1.3,0.1l2.1,0.1c0.4,0,0.9,0.1,1.3,0.1l2.1,0.3l0.2,0
						c0-0.1,0-0.1,0.1-0.2c0.1,0.1,0.2,0.1,0.3,0.2c0.3,0,0.6,0,0.8,0l2.1,0c0.4,0,0.9,0.1,1.3,0.2l2.1,0.4c0.4,0.1,0.9,0.1,1.3,0.1
						l2.1,0c0.4,0,0.9,0,1.3,0.1l2.1,0.2c0.4,0,0.9,0.1,1.3,0.1l2.1,0.2c0.4,0,0.9,0,1.3,0l2.1-0.1c0.4,0,0.9,0,1.3,0l2.1,0.1
						c0.4,0,0.9,0.1,1.3,0.2l2.1,0.5c0.4,0.1,0.9,0.1,1.3,0.1l2.1,0c0.4,0,0.9-0.1,1.3-0.2l1.8-0.5c0-0.1,0.1-0.3,0.3-0.3l0.3,0.1
						c0.3-0.2,0.5-0.4,0.7-0.6l1-1.8c0.2-0.4,0.3-0.8,0.4-1.2l0.3-2c0.1-0.4,0.1-0.9,0.2-1.3l0.2-2c0-0.4,0.1-0.9,0.1-1.3l0.1-2
						c0-0.4,0-0.9,0-1.3l0-2c0-0.4,0-0.9,0.1-1.3l0.3-2c0-0.4,0.1-0.9,0.1-1.3l0.1-2c0-0.4,0-0.9,0-1.3l-0.1-2
						c0-0.4-0.1-0.9-0.2-1.3l-0.7-1.9c-0.2-0.4-0.5-0.7-0.8-0.8l-2-0.7l-0.1,0c-0.4-0.1-0.8-0.2-1.2-0.3l-2.1-0.2
						c-0.4,0-0.9-0.1-1.3-0.1l-2.1-0.1c-0.4,0-0.9-0.1-1.3-0.2l-2.1-0.4c-0.4-0.1-0.9-0.1-1.3-0.1l-0.3,0c0.1,0.1,0.2,0.1,0.2,0.3
						c0,0.1,0.1,0.2,0.3,0.3l0,0c-0.1,0.1-0.2,0.1-0.4,0.1c-0.3-0.1-0.6-0.5-0.3-0.6l-1.7,0.1c-0.4,0-0.9,0-1.3-0.1l-2.1-0.3
						c-0.4-0.1-0.9-0.1-1.3-0.1l-2.1-0.1C46,0,45.6,0,45.3,0C45.5,0.2,45.8,0.4,45.6,0.6L45.6,0.6z M5.5,28.3l-0.2-0.1L5.3,28
						l0.2,0.1L5.5,28.3z M39.1,31l-0.2-0.1c0-0.1,0.1-0.1,0.2-0.2l0.2,0.1C39.3,30.9,39.1,30.9,39.1,31z M39.3,30.7
						c-0.1,0-0.1-0.1,0.1-0.2C39.5,30.6,39.4,30.7,39.3,30.7z M69.8,5.6c0.3,0.1,0.1,0.4,0.1,0.6c0,0-0.1,0-0.1,0
						C69.4,6,69.7,5.8,69.8,5.6L69.8,5.6z"/>
				</g>
				<g id="Group_38" transform="translate(78.316 7.609)">
					<path id="Path_59" class="st0" d="M0.3,0L0.3,0C0.1,0,0.1,0,0,0.1L0.3,0L0.3,0z"/>
				</g>
				<g id="Group_39" transform="translate(104.032 9.119)">
					<path id="Path_60" class="st0" d="M0.2,0C0.1,0,0.1,0,0,0.1l0.3,0C0.3,0.1,0.2,0,0.2,0L0.2,0z"/>
				</g>
				<g id="Group_40" transform="translate(11.489 34.417)">
					<path id="Path_61" class="st0" d="M1.8,0L0.9,0.1c-0.2,0-0.6,0-0.9,0c0,0.1,0.1,0.1,0.2,0.2c0.3,0,0.5,0.1,0.7,0.1l0.9,0.2
						C1.9,0.4,1.8,0.3,1.8,0L1.8,0z"/>
				</g>
				<g id="Group_41" transform="translate(130.004 40.117)">
					<path id="Path_62" class="st0" d="M0.3,0C0.2,0,0.1,0.1,0,0.1h0l0,0C0.1,0.2,0.3,0.1,0.3,0C0.3,0,0.3,0,0.3,0z"/>
				</g>
				<g id="Group_42" transform="translate(5.295 3.037)">
					<path id="Path_63" class="st0" d="M0.1,5.1c0.1,0,0.2,0.1,0.3,0.2l0-0.5c0-0.4,0.2-0.8,0.4-1.2L2,2.3c0.3-0.3,0.6-0.6,1-0.7
						L4.6,1C5,0.8,5.4,0.8,5.9,0.8l2.1,0.1c0.4,0,0.9,0,1.3,0.1L11.3,1c0.4,0,0.9,0.1,1.3,0.1l2.1,0.3C15,1.5,15.6,1.6,16,1.6
						L18,1.9C18.4,1.9,19,2,19.3,2l1.1,0c-0.1-0.2,0.1-0.6-0.2-0.7c0,0-0.1,0-0.1,0c0,0,0.1-0.1,0.1-0.1l-0.4,0c0,0.1,0,0.1-0.1,0.2
						c-0.1,0-0.1-0.1-0.1-0.2l-0.2,0c-0.2,0-0.5,0-0.7,0c-0.1,0-0.2,0.1-0.1,0.3l0,0c-0.1,0-0.2-0.2-0.1-0.3c-0.1,0-0.2,0-0.3,0
						L16,1c-0.4,0-0.9-0.1-1.3-0.1l-2.1-0.2l-1.3-0.1L9.3,0.4C8.9,0.4,8.3,0.3,8,0.3L5.9,0C5.5,0,5.1,0,4.7,0.2L2.6,1.1
						c-0.4,0.2-0.7,0.5-1,0.8L0.4,3.6C0.2,3.9,0.1,4.3,0,4.8l0,0.3L0.1,5.1C0,5.1,0.1,5.1,0.1,5.1L0.1,5.1z M14.3,1.1
						c-0.1,0.1-0.2,0-0.3,0C14,1,14.2,1.1,14.3,1.1L14.3,1.1z"/>
				</g>
				<g id="Group_43" transform="translate(44.421 4.937)">
					<path id="Path_64" class="st0" d="M0,0.2c0.2,0.1,0.2,0.4,0.1,0.6c0.2,0,0.5,0,0.7,0l1.5,0C2,0.6,1.8,0.4,1.6,0.2
						C1.7,0,1.8,0.1,2,0L1.4,0c0,0.1,0,0.2,0,0.2c-0.1,0-0.3,0-0.4,0c0,0-0.1,0-0.1-0.1c0,0,0-0.1,0-0.1C0.6,0,0.5,0,0.3,0L0.2,0.1
						C0.2,0.1,0.1,0.2,0,0.2L0,0.2z"/>
				</g>
				<g id="Group_44" transform="translate(90.724 7.99)">
					<path id="Path_65" class="st0" d="M1,0.4c0.4,0,0.9,0,1.3,0c0-0.1-0.1-0.2-0.1-0.4c-0.4,0-0.9,0-1.2,0L0,0
						c0,0.1,0.1,0.3,0.1,0.4L1,0.4z"/>
				</g>
				<g id="Group_45" transform="translate(31.226 4.104)">
					<path id="Path_66" class="st0" d="M0.2,0.5c0.1,0,0.1,0,0.2,0C0.3,0.7,0.2,0.8,0.1,1l0.7,0h0.1c-0.2-0.1,0-0.3,0-0.5l0,0
						C1.2,0.6,1.1,0.8,1.1,1C1.4,1,1.8,1,2,1c0.1-0.1,0.3-0.1,0.4,0l1.7,0C4.6,1,5,1,5.4,1.1l2.1,0.3c0.4,0,0.9,0.1,1.3,0.1l1.5,0.1
						l0,0l0.1,0c0.1,0,0.2-0.2,0.3-0.4l0-0.2c0,0-0.1-0.1-0.1-0.2L8.9,0.6c-0.4,0-0.9-0.1-1.3,0H7.3c0,0.1-0.1,0.2-0.2,0.3
						c0-0.1-0.1-0.2-0.1-0.3l-0.6,0C6.6,0.7,6.8,0.8,6.8,1l0,0C6.7,1,6.6,0.9,6.6,0.9S6.5,0.8,6.4,0.8l0,0c-0.1,0-0.2,0.1-0.3,0.1
						c0,0,0,0,0,0C5.9,0.7,6,0.6,6.1,0.6H5.9c0,0,0,0.1,0,0.1c0,0,0,0-0.1,0c0,0-0.1,0-0.1,0s-0.1,0-0.1,0H5.5c-0.4,0-0.9,0-1.3-0.1
						L2.1,0.1h0c0.1,0.1,0.1,0.3,0.1,0.5C2,0.4,1.9,0.2,1.8,0C1.5,0,1.3,0,1,0C1,0.1,1,0.2,0.9,0.2C0.8,0.1,0.7,0.1,0.7,0L0,0
						C0,0.2,0,0.4,0.2,0.5L0.2,0.5z M3.7,0.6C3.9,0.9,3.5,1,3.3,0.9c-0.1,0-0.1-0.1-0.2-0.1C3.3,0.7,3.5,0.7,3.7,0.6L3.7,0.6z
						 M2.5,0.2c0.1,0,0.1,0.1,0.1,0.1c-0.1,0-0.1,0-0.2,0c0,0,0,0,0-0.1C2.4,0.2,2.5,0.2,2.5,0.2L2.5,0.2z"/>
				</g>
				<g id="Group_46" transform="translate(3.887 27.944)">
					<path id="Path_67" class="st0" d="M2.1,5.4L2.1,5.4C2,5.4,2,5.4,2,5.3l0,0C1.6,5.1,1.4,4.8,1.3,4.5L0.7,2.8
						C0.5,2.4,0.5,1.9,0.5,1.5l0-1.4c0,0-0.1,0-0.1,0C0.3,0.1,0.2,0.1,0.2,0l0,0L0,1.5c0,0.4,0,0.8,0.2,1.2l0.9,1.9
						C1.3,4.9,1.6,5.2,2,5.4l1.2,0.5c0,0,0-0.1,0-0.1L2.1,5.4z"/>
				</g>
				<g id="Group_47" transform="translate(3.989 8.806)">
					<path id="Path_68" class="st0" d="M0.4,18.7c0-0.4,0.1-0.9,0.2-1.3l0.4-2c0.1-0.4,0.1-0.9,0.1-1.3v-2c0,0,0,0,0-0.1
						c0,0,0,0,0,0c0-0.4,0-0.9,0.1-1.2l0.1-0.6C1,10.2,1.1,9.9,0.9,9.8c0.1-0.1,0.2-0.1,0.3-0.1c0.1,0,0.1,0.1,0.2,0.1l0.1-1
						c0-0.4,0.1-0.9,0.1-1.3l0.2-2c0-0.4,0-0.9,0-1.3l-0.1-2c0-0.4,0-0.9,0-1.3l0-0.8c-0.1,0-0.1,0-0.2,0l0,0C1.4,0.2,1.3,0.1,1.2,0
						L1.2,1c0,0.4,0,0.9,0,1.3l0.1,2c0,0.4,0,0.9,0,1.3L1,7.5C1,7.9,1,8.5,0.9,8.8l-0.2,1.8c0,0,0.1-0.1,0.1-0.1
						c0.2,0.2,0.2,0.6,0,0.9c-0.1,0-0.2-0.1-0.2-0.2c0,0.3-0.1,0.6-0.2,0.9l-0.4,2C0,14.5,0,14.9,0,15.3l0.1,2c0,0.4,0,0.9,0,1.3
						l0,0.2c0.1,0.1,0.2,0.1,0.3,0.2L0.4,18.7z M0.3,14.1c-0.1-0.5,0.5-0.8,0.5-1.2C1.6,13.4,0.5,13.6,0.3,14.1L0.3,14.1z M0.8,14.4
						l-0.2-0.1l0.1-0.2l0.2,0.1L0.8,14.4z"/>
				</g>
				<g id="Group_48" transform="translate(47.029 4.989)">
					<path id="Path_69" class="st0" d="M0.1,0.3c0.2,0.1,0.3-0.2,0.5-0.1c0,0,0,0,0.1,0c0,0.2,0,0.3,0,0.5h0c0.4,0,0.9,0,1.3,0.1
						l1.2,0.1C2.9,0.8,2.8,0.6,2.7,0.3L2,0.2L2,0.2c0.1,0.1,0.1,0.3,0.1,0.5C1.9,0.5,1.7,0.3,1.7,0.1C1.4,0.1,1.1,0,0.7,0L0.2,0
						C0.1,0.1-0.1,0.1,0.1,0.3L0.1,0.3z"/>
				</g>
				<g id="Group_49" transform="translate(5.276 8.269)">
					<path id="Path_70" class="st0" d="M0.4,0.3l0-0.2c0,0-0.1,0-0.2,0C0.1,0.1,0.1,0,0,0l0,0.1c0,0,0.1,0,0.1,0
						C0.2,0.2,0.3,0.2,0.4,0.3z"/>
				</g>
				<g id="Group_50" transform="translate(80.05 7.107)">
					<path id="Path_71" class="st0" d="M0.1,0.4L0,0.6l0.3,0c0,0,0,0-0.1,0c0.1-0.3,0.6,0,0.6-0.5c0,0,0.1,0,0.1,0
						c0.2,0.1,0,0.2-0.1,0.3C1,0.5,1.1,0.6,1.2,0.7c0.2,0,0.4,0,0.6,0.1l1.5,0.1c0-0.1,0-0.1,0-0.2c0,0,0,0,0.1,0
						c0.1,0,0.2,0.1,0.3,0.2l0.2,0L4.7,1c0-0.1,0.1-0.2,0.2-0.3l0,0C5,0.8,5,0.8,5.1,0.8c0.1,0,0.1,0.1,0.2,0.1c0.1,0,0.2,0,0.2-0.2
						C5.7,0.8,5.8,1,5.8,1.1l0.3,0C6,1.1,6,1,5.9,1C6,0.9,6,0.9,6.1,0.9C6.2,0.9,6.2,1,6.3,1c0.1,0,0.1,0.1,0.2,0.1
						c0.1,0,0.1,0,0.2,0l0,0l0.6,0.1c0.4,0,0.9,0.1,1.3,0.1l0.5,0C9,1.2,9,1,8.9,0.9l-0.3,0c-0.4,0-0.9-0.1-1.3-0.1L5.2,0.4
						C4.8,0.3,4.3,0.3,3.9,0.3L1.8,0.2c-0.4,0-0.9-0.1-1.3-0.1L0.1,0C0.1,0.1,0.1,0.3,0.1,0.4L0.1,0.4z M2.3,0.3
						c0.1,0.1,0.2,0.2,0.1,0.3c0,0-0.1,0-0.1,0C2,0.5,2.1,0.4,2.3,0.3L2.3,0.3z"/>
				</g>
			</g>
		</g>
	</g>
</g>
</svg>
