<svg xmlns="http://www.w3.org/2000/svg" width="138.521" height="45.036" viewBox="0 0 138.521 45.036">
    <defs>
        <style>
            .cls-1,.cls-2,.cls-6{fill:#2665e1}.cls-1,.cls-5{stroke:#2665e1}.cls-1{stroke-width:2px}.cls-2{font-size:13px;font-family:OpenSans-Bold,Open Sans;font-weight:700;letter-spacing:.1em}.cls-3,.cls-4,.cls-8{fill:none}.cls-3,.cls-4{stroke:#fff}.cls-3,.cls-5{stroke-linejoin:round}.cls-3{stroke-width:4px}.cls-4{stroke-width:5px}.cls-5{fill:#fff;stroke-width:.5px}.cls-7{stroke:none}
        </style>
    </defs>
    <g id="Group_118" data-name="Group 118" transform="translate(-803.91 -425.464)">
        <g id="Rectangle_1581" class="cls-1" data-name="Rectangle 1581" transform="rotate(5 -4562.11 9527.74)">
            <rect width="26.859" height="21" class="cls-7" rx="2"/>
            <rect width="24.859" height="19" x="1" y="1" class="cls-8" rx="1"/>
        </g>
        <text id="ЗАВЕРШЁН" class="cls-2" transform="matrix(.998 .07 -.07 .998 844.546 450.62)">
            <tspan x="0" y="0">ЗАВЕРШЁН</tspan>
        </text>
        <g id="Group_114" data-name="Group 114" transform="rotate(5 -4593.348 9586.988)">
            <path id="Path_42" d="M3129.565 116.7c-.058 1.021-.019 6.544 0 7.4a2.565 2.565 0 0 0 2.527 1.969c1.374.04 8.771-.007 9.75 0s3.046-.949 3.041-1.969.067-6.211 0-7.4-1.7-2.069-3.041-2.125-8.589-.062-9.75 0a2.782 2.782 0 0 0-2.527 2.125z" class="cls-3" data-name="Path 42" transform="translate(-3129.534 -112.338)"/>
            <path id="Path_43" d="M3153.328 132.452l2.489 2.334" class="cls-4" data-name="Path 43" transform="translate(-3139.463 -119.817)"/>
            <path id="Path_44" d="M3133.94 116.751l2.9 3.893 7.479-9.877-7.479 7.261z" class="cls-5" data-name="Path 44" transform="translate(-3131.373 -110.768)"/>
        </g>
        <g id="Group_113" data-name="Group 113" transform="translate(720.421 -145.52)">
            <g id="Group_68" data-name="Group 68" transform="translate(83.489 570.984)">
                <g id="Group_67" data-name="Group 67">
                    <g id="Group_26" data-name="Group 26">
                        <path id="Path_47" d="M85.416 577.921a.247.247 0 0 1-.2.057c-.079-.023-.125-.114-.167-.2-.011-.024-.022-.048-.034-.07a2.647 2.647 0 0 0-.135.767l.023 1.991c0 .359 0 .947-.009 1.305l-.048 1.984a6.991 6.991 0 0 1-.179 1.291l-.5 1.966a5.9 5.9 0 0 0-.153 1.291l.025 1.572c.192.087.124.256.111.407a.802.802 0 0 1-.07-.017l-.034-.011v.039a7.858 7.858 0 0 1-.11 1.3l-.367 1.966a5.526 5.526 0 0 0-.056 1.3l.2 2.009a10.541 10.541 0 0 1 .031 1.3l-.1 1.976c-.019.359-.035.946-.037 1.305v.439l.145-.219.377.217c.545.315 1.067.722.805 1.358l-.08.2-.291-.026a1.094 1.094 0 0 1-.2-.037.441.441 0 0 1-.366-.563l-.023-.016-.008-.081-.075-.046a1.2 1.2 0 0 1-.284-.214v.937a1.814 1.814 0 0 0 .51 1.141L85.641 606c.072.069.159.146.255.226a1.434 1.434 0 0 1 .17-.2c.052-.474-.979-.936-.55-1.291.3.471 1.252 1.078.56 1.642l.122.1c.508.224 1.214.308 1.14.767l1.246.787a3.249 3.249 0 0 0 .464.234l.026-.039a.986.986 0 0 1 .166.031.341.341 0 0 1 .225.162l.109.033a3.213 3.213 0 0 0 .389.09l2.022.317a.54.54 0 0 0-.246-.235c.444-.606.017-.935.035-1.4a.262.262 0 0 1 .184-.006 1.376 1.376 0 0 1 .329.18 1.425 1.425 0 0 0 .365.191.462.462 0 0 0 .325-.015 2.735 2.735 0 0 0 .172.9l1.324.385a.579.579 0 0 0-.09.225l1.812.085c.425.02 1.117.078 1.538.129l2.456.3c.124.015.272.028.429.039.042-.114.092-.234.148-.36.126-.044.35.046.43-.063.173.061.075.249 0 .452.193.005.377.007.527 0l2.489-.073a8.489 8.489 0 0 1 1.389.1.99.99 0 0 0 .234-.639.739.739 0 0 1 .076.017c.3.087.183.305.268.46a1.649 1.649 0 0 0-.2.233l2.216.433a9.285 9.285 0 0 0 1.527.142l2.48-.018a14.41 14.41 0 0 1 1.539.089l2.452.3a10.51 10.51 0 0 0 1.333.057v-.014l.029.013c.061 0 .118 0 .171-.007l2.5-.147a12.621 12.621 0 0 1 1.541.024l2.456.22.677.058c.245-.323.189-.673.965-.47-.247.226-.369.229-.392.517l.289.023 2.458.189c.424.033 1.115.1 1.536.15l2.048.241a.313.313 0 0 0-.128-.184c.054-.067.175-.04.3 0l.053.015.051.015c.037.011.073.021.108.028a.339.339 0 0 1 .042.179 14.624 14.624 0 0 0 1.515.078l2.481-.031c.425-.006 1.121.01 1.545.036l2.461.145c.424.025 1.116.089 1.536.141l2.452.307a15.233 15.233 0 0 0 1.539.1l2.476.006c.356 0 .9.008 1.319.018.019-.275.3-.189.412-.332a1.69 1.69 0 0 1 .2.348l.853.024a.64.64 0 0 1 .033-.057.549.549 0 0 1 .114.061l1.086.031a12.952 12.952 0 0 1 1.53.154l2.45.427a11.16 11.16 0 0 0 1.53.136l2.475.014c.425 0 1.121.009 1.547.014l2.471.03c.425.005 1.12.037 1.543.07l2.456.195c.423.034 1.118.076 1.542.1l2.462.108a29.29 29.29 0 0 1 1.54.117l2.452.265c.422.045 1.115.088 1.541.095l2.472.038c.425.006 1.118.052 1.539.1l2.453.287c.421.049 1.114.092 1.539.094l2.474.015c.425 0 1.121.022 1.545.044l2.462.124c.425.022 1.119.063 1.543.093l2.458.173c.424.03 1.119.049 1.544.042l2.481-.038a9.616 9.616 0 0 1 1.53.124l2.451.441a14.144 14.144 0 0 0 1.529.171l.64.029c-.335-.359-.657-.722-.312-1.3a.989.989 0 0 1 .167.031c.355.1.172.378.263.565.392-.037-.014-.429.275-.674.2.277.616.488.447.884-.121.1-.468-.122-.55.029-.145.219.036.356.16.482l.433.02a.634.634 0 0 1 .2-.461 1.431 1.431 0 0 1 .288.483l.455.021a7.348 7.348 0 0 0 1.038-.046c-.053-.081-.029-.185.042-.305l.361.105-.063.154.146-.027 2.186-.448c.329-.068.825-.172 1.221-.257l-.08-.021c-.514-.149-.51-.5-.176-.724.072.256.4.432.368.721l.169-.036 2.233-.487a3.2 3.2 0 0 0 1.269-.647l.147-.136a.48.48 0 0 0-.278-.187 1.172 1.172 0 0 0-.21-.038l.172-.421a1.055 1.055 0 0 0-.119-.044c-.164-.048-.273-.02-.31.107-.15-.123-.063-.322-.069-.491.279-.1.938.333.894-.212.567.207.288.57.051.864-.026.087.02.151.107.2l.749-.7a.329.329 0 0 1-.081-.412 1.691 1.691 0 0 1 .319.192l.224-.208a3.251 3.251 0 0 0 .735-1.11l.654-1.907a4.552 4.552 0 0 0 .207-1.28l-.025-1.884a.987.987 0 0 1-.548.052 3.456 3.456 0 0 1 .069-1.489.864.864 0 0 1 .458.032l.061.019v-.026l.16-1.976c.029-.358.068-.945.085-1.3l.1-1.978c.018-.359.053-.946.079-1.3l.14-1.976c.025-.358.074-.945.108-1.3l.188-1.972c.034-.358.121-.94.193-1.294l.4-1.965c.072-.354.155-.937.184-1.295l.163-1.972a6.252 6.252 0 0 0-.057-1.3l-.334-1.946a2.217 2.217 0 0 0-.654-1.111l-1.592-1.362c-.3-.255-.8-.667-1.1-.914l-1.654-1.324a3.506 3.506 0 0 0-1.083-.529 2.281 2.281 0 0 0-.234-.056l-2.275-.409a14.936 14.936 0 0 0-1.529-.177l-2.466-.13a157.97 157.97 0 0 0-1.544-.073l-2.469-.1c-.425-.017-1.12-.043-1.545-.056l-2.468-.078a37.726 37.726 0 0 1-1.542-.088l-2.459-.2a16.191 16.191 0 0 0-1.542-.038l-2.481.08c.136.067.2.156.1.3a.407.407 0 0 1-.242.021c-.145-.042-.189-.2-.263-.323l-.2-.012c-.13.085-.164.3-.364.288a.469.469 0 0 1-.07-.014c-.178-.052-.162-.194-.086-.329a4.975 4.975 0 0 1-.408-.072l-2.455-.557a9.95 9.95 0 0 0-1.52-.2l-2.462-.11a25.706 25.706 0 0 0-1.546 0l-2.49.085a11.226 11.226 0 0 1-1.4-.061c.111.116.048.342.123.364.032.01.091-.019.2-.109.258.089.172.287.069.491h-.018a.527.527 0 0 1-.278-.187.528.528 0 0 0-.278-.187 1.028 1.028 0 0 0-.2-.035.507.507 0 0 1 .229-.352l-1.15-.156a.351.351 0 0 0-.128.109.3.3 0 0 1-.109-.141l-.766-.1a1.1 1.1 0 0 1 .273.73.674.674 0 0 0 .066.024.411.411 0 0 0 .29-.022.408.408 0 0 1 .29-.021.745.745 0 0 1 .144.061c-.478.485.188.627-.447 1.1-.182-.685-1.865-1.024-1.045-1.925a31.59 31.59 0 0 0-1.384-.141l-1.244-.091a.217.217 0 0 1 .011.243c-.784-.15-.149.333-.241.59a.433.433 0 0 0-.108-.052.14.14 0 0 0-.167.066.139.139 0 0 1-.167.066.44.44 0 0 1-.108-.052 1.3 1.3 0 0 1 .349-.893l-.784-.057a9.271 9.271 0 0 0-.461-.021 1.055 1.055 0 0 1 .247.909l-.011.129-.561-.045-.1.254-.241-.07.138-.337h.011a.668.668 0 0 0-.165-.287 1.084 1.084 0 0 1-.277-.547l-.118.007h-.066c.229.34.376.822.221.8a.328.328 0 0 1-.046-.01c-.254-.074-.353-.431-.455-.771l-2.157.142a10.707 10.707 0 0 1-1.538-.033l-.183-.02c.051.037.1.083.16.129a1.085 1.085 0 0 0 .386.23.654.654 0 0 0 .188.026.343.343 0 0 1 .37-.161.873.873 0 0 1 .454.779 5.59 5.59 0 0 1-2.029-.967.587.587 0 0 1 .1-.077l-.532-.058c.072.05.136.1.2.15a1.5 1.5 0 0 0 .26.182l.382.193-.273.229a.916.916 0 0 1-.862.225 1.185 1.185 0 0 1-.477-.3.945.945 0 0 0-.344-.232.661.661 0 0 0-.246-.016l-.819.078.386-.511a.262.262 0 0 0 .051-.093.654.654 0 0 0-.14-.059l-.157-.051a20.38 20.38 0 0 0-.862-.046l-2.468-.069a79.553 79.553 0 0 1-1.5-.059.541.541 0 0 1-.51.054.791.791 0 0 1-.206-.09l-.645-.033a.431.431 0 0 1 .052.012.293.293 0 0 1 .178.477l-.6-.175a.125.125 0 0 0-.052-.2.484.484 0 0 1 .29-.117l-1.012-.052a96.762 96.762 0 0 1-.89-.05.5.5 0 0 1 .005.266.456.456 0 0 1-.088.172c.06.044.135.089.212.137s.16.1.233.149l.163.113-.03.15a.943.943 0 0 1-.031.113 1.337 1.337 0 0 1 .265.048 1.2 1.2 0 0 1 .328.151l.2.132-.07.173c.339.141.111.524-.27.413l-.043-.014a.974.974 0 0 1-.115.069l1.443-.047a1.311 1.311 0 0 0-.248-.011c-.177-.261.293-.37.309-.759a.4.4 0 0 0-.044-.016c-.14-.041-.192.042-.243.125s-.1.165-.243.124a.494.494 0 0 1-.088-.036c.281-.309-.119-.4 0-.66.113.021.222.048.33.079a4.551 4.551 0 0 1 1.87 1.139 6.835 6.835 0 0 1 .9.125l2.213.5a.612.612 0 0 0-.089-.136c.415-.286.341-.769-.137-.983a1.147 1.147 0 0 1 1.023-.326.834.834 0 0 1 .266.135c-.294.315-.23.441-.344.843-.168.249.584.2.343.477l-.017-.005-.162-.049-.167-.051a.977.977 0 0 0-.53-.056.17.17 0 0 0-.022.188l.078.018a9.929 9.929 0 0 0 1.52.2h.01l.048-.117.241.07-.023.056 2.189.078c.247.009.585.013.909.011-.015-.1.034-.188.192-.233l.029.008a.357.357 0 0 1 .273.218h.143l.285-.009h-.009a.284.284 0 0 1 .2-.035.128.128 0 0 1 .052.029l1.964-.067a10.977 10.977 0 0 1 1.536.077l.326.044a.627.627 0 0 1-.36-.572.636.636 0 0 1 .12.024c.061.018.128.043.194.068s.133.05.195.068c.155.045.276.044.281-.119l.361.1c-.221.215-.087.395-.045.527l.476.065a.652.652 0 0 1 .48-.516.449.449 0 0 1 .085.016c.271.079.239.384.092.589l.243.033c.228.031.536.067.837.1a.493.493 0 0 0 .118-.147.629.629 0 0 1 .109.02c.117.034.13.1.1.159.135.012.261.023.37.031l2.457.18a13.569 13.569 0 0 0 1.541.006l2.5-.165a10.7 10.7 0 0 1 1.538.033l2.453.268c.417.046 1.1.093 1.525.105a1.8 1.8 0 0 1-1.025-1.61.505.505 0 0 1 .234.02 2.784 2.784 0 0 1 .78.464c-.054.4.212.7.076 1.128l1.866.052a.361.361 0 0 1 .035-.417.7.7 0 0 1 .143.024.38.38 0 0 1 .177.11.386.386 0 0 0 .178.11.624.624 0 0 0 .07.015l-.07.172h.019c.425.012 1.12.039 1.545.061l2.462.125c.425.022 1.119.063 1.543.092l2.459.168c.424.029 1.119.065 1.544.079l2.466.084c.425.015 1.12.046 1.544.069l2.462.136c.425.024 1.119.067 1.542.1l2.458.174a10.16 10.16 0 0 1 1.51.245l2.032.525.044.012a2.625 2.625 0 0 1 1.135.716l1.142 1.4a8.964 8.964 0 0 1 .763 1.13l.832 1.522a2.093 2.093 0 0 1 .188 1.236l-.416 1.968c-.075.354-.17.935-.212 1.292l-.23 1.972a7.906 7.906 0 0 0-.021 1.3l.169 2.006a4.365 4.365 0 0 1-.02.763.415.415 0 0 1 .3-.01c.181.053.331.191.2.342a1.6 1.6 0 0 1-.168-.04.958.958 0 0 1-.344-.17 3.526 3.526 0 0 1-.074.4l-.5 1.967a5.556 5.556 0 0 0-.143 1.291l.062 1.993a11.2 11.2 0 0 1-.052 1.3l-.219 1.969a9.54 9.54 0 0 0-.036.448.222.222 0 0 0 .118-.225.427.427 0 0 1 .056.012c.143.042.134.133.27.177a.551.551 0 0 1-.459.349c-.007.2-.009.39-.005.541l.05 1.99a2.9 2.9 0 0 1-.31 1.245l-.9 1.633a3.514 3.514 0 0 1-.914.992 2.294 2.294 0 0 0 .476.288.484.484 0 0 1-.443.059 1.109 1.109 0 0 1-.314-.155l-.435.3a.733.733 0 0 1 .092.517 1.734 1.734 0 0 1-.2-.045.973.973 0 0 1-.34-.167l-.5.338a2.738 2.738 0 0 1-1.375.39l-2.059-.052c-.425-.011-1.12 0-1.544.026l-2.5.148a7.526 7.526 0 0 1-1.526-.1l-2.481-.472a9.55 9.55 0 0 0-1.528-.138l-2.48.015c-.425 0-1.121 0-1.547-.009l-2.473-.047a11.746 11.746 0 0 1-1.53-.149l-2.452-.438a9.979 9.979 0 0 0-1.53-.128l-2.479.023a13.432 13.432 0 0 1-1.538-.093l-2.451-.321a9.457 9.457 0 0 0-1.536-.048l-2.5.167a18.05 18.05 0 0 1-1.543.022l-2.466-.092a11.564 11.564 0 0 1-1.525-.18l-2.454-.493a7.785 7.785 0 0 0-1.525-.121l-2.492.1a12.5 12.5 0 0 1-1.539-.054l-2.454-.271a20.8 20.8 0 0 0-1.54-.1l-2.471-.044a66.499 66.499 0 0 1-1.546-.05l-2.464-.115a25.434 25.434 0 0 1-1.538-.129l-2.452-.3h-.015a1 1 0 0 0-.181.588 3.366 3.366 0 0 1-.653-.378.434.434 0 0 1 .136-.264c-.3-.014-.6-.02-.826-.014l-2.486.073h-.366a2.106 2.106 0 0 1 .052.512 1.551 1.551 0 0 1-.211-.045.637.637 0 0 1-.511-.517 6.288 6.288 0 0 1-.49-.071l-.855-.167a.3.3 0 0 1-.066.086.544.544 0 0 1-.143-.016c-.08-.023-.086-.07-.068-.125l-1.321-.259a9.5 9.5 0 0 0-1.337-.139.463.463 0 0 1-.26.289.712.712 0 0 1-.143-.024.387.387 0 0 1-.177-.11.384.384 0 0 0-.177-.11.609.609 0 0 0-.07-.015l.006-.027-1.846.013a14.336 14.336 0 0 1-1.539-.089l-2.451-.3a8.135 8.135 0 0 0-.6-.047c.031.237-.187.554-.169.8a.681.681 0 0 1-.285-.808c-.176 0-.341 0-.479.01l-2.5.147a12.646 12.646 0 0 1-1.541-.023l-.745-.067c.331.242.548.519.355.928a1.26 1.26 0 0 1-.146-.032c-.478-.139-.324-.479-.644-.669.005-.236.263-.122.358-.234l-1.632-.146a88.65 88.65 0 0 0-1.539-.129l-2.457-.189c-.424-.033-1.115-.1-1.536-.15l-2.452-.288a14.412 14.412 0 0 0-1.539-.081l-2.481.031a26.55 26.55 0 0 1-1.545-.036l-2.35-.138c.2.1.357.315.289.5-.211-.06-.242.13-.454.068a.523.523 0 0 1-.1-.039c.128-.229-.146-.331-.046-.552-.42-.03-.979-.083-1.34-.128l-1.873-.234c0 .114-.012.23-.008.341-.385-.062-.517.227-.947.1l-.032-.01c-.1-.14-.015-.337.086-.54a.9.9 0 0 1-.458-.035c-.162-.01-.324-.018-.473-.023-.058.08-.089.2-.2.2a1.016 1.016 0 0 0-.16-.063.919.919 0 0 0-.3-.031.911.911 0 0 1-.295-.03h-.007l-.044-.08h-1.756c-.348 0-.878-.008-1.292-.017-.2.378.4.674-.055.884a8.139 8.139 0 0 1-.875-.909l-.859-.024a1.603 1.603 0 0 1-.089.12.874.874 0 0 1-.146-.127l-.7-.02a12.953 12.953 0 0 1-1.53-.154l-2.45-.427-.592-.105h-.032c.075.318.368.567.292.934a.926.926 0 0 0-.173-.073.523.523 0 0 0-.343.017.52.52 0 0 1-.343.017.91.91 0 0 1-.173-.073c.633-.115.069-.474-.269-.572a.469.469 0 0 0-.161-.024.659.659 0 0 1-.21-.488l-1.33-.249a2.943 2.943 0 0 1-.248-.06 4.163 4.163 0 0 1-.4-.141.279.279 0 0 1-.062.19c-.114-.031-.233-.06-.343-.092-.331-.1-.583-.218-.362-.49l.026-.005-.226-.163c.036.31-.221.714-.3 1.06-.84-.35-.113-.894.02-1.26l-.939-.675a2.273 2.273 0 0 1-.74-1.015.33.33 0 0 1-.164-.5l.037.018-.055-.211-.4-.115.1-.253a.9.9 0 0 1 .194-.013l-.153-.593a5 5 0 0 1-.125-1.29l.121-1.978c.022-.359.084-.943.139-1.3l.3-1.97a11.828 11.828 0 0 0 .112-1.3l.039-1.982a10.837 10.837 0 0 1 .118-1.279.27.27 0 0 1-.022.034l-.481-.14c.019-.176.2-.215.34-.173a.25.25 0 0 1 .184.158l.311-1.866a9.839 9.839 0 0 0 .112-1.3l.012-1.985c0-.359.025-.946.05-1.3l.139-1.974c.025-.358.075-.944.111-1.3l.195-1.971a6.677 6.677 0 0 1 .283-1.277l.585-1.678a1.858 1.858 0 0 1 .906-.925l1.835-.817a6.839 6.839 0 0 1 1.45-.408l1.872-.27a12.689 12.689 0 0 1 1.536-.107l2.477.01c.425 0 1.12.023 1.545.048l2.467.143c.424.025 1.119.057 1.544.073l2.04.074a.245.245 0 0 1-.07-.3l.05.013a.568.568 0 0 1 .276.177.658.658 0 0 0 .147.122h.023c.425.015 1.12.046 1.545.067l2.465.125c.425.022 1.119.063 1.543.091l2.46.167c.424.028 1.114.1 1.534.16l2.451.348c.419.059 1.11.129 1.534.153l.8.047a3.389 3.389 0 0 0-.372-.131 4.937 4.937 0 0 0-.546-.124c0-.247-.582-.527-.12-.7a.921.921 0 0 1 .168.03c.356.1.128.392.416.517l.075.024a.71.71 0 0 0 .853-.321h.011a.509.509 0 0 1 .319.246.51.51 0 0 0 .319.246 1.185 1.185 0 0 0 .21.038c-.053.177-.214.2-.383.221l.71.042c.425.025 1.118.072 1.542.1l.074.006-.068-.017c.08-.329.3-.466.688-.366-.1.2-.22.379-.455.395l1.6.122a.968.968 0 0 1 .085-.349c-.357-.122-.184-.413-.079-.682.116.037.051.131.051.2.147.027.164-.125.224-.218l.361.105a.317.317 0 0 1-.2.209l.24.08a.678.678 0 0 1 .551.721c.329 0 .676-.006.927-.026l2.511-.2a6.472 6.472 0 0 1 1.521.094l2.454.508a11.2 11.2 0 0 0 1.524.185l2.466.1c.425.016 1.12.048 1.544.07l2.462.13c.424.022 1.119.055 1.544.072l2.144.089a.519.519 0 0 0 .085-.331l.361.105c-.026.09-.051.17-.066.242.428.018 1.08.041 1.485.054l.361.011c-.329-.234.261-.723.437-.794.141.129-.044.644-.25.8l1.919.061h.036c-.015-.438-.068-.821.289-1.13l.04.011a2.658 2.658 0 0 1 .734.4 1.311 1.311 0 0 0-.311.752c.274.016.547.034.755.051l2.457.2c.128.011.282.02.445.026a7.206 7.206 0 0 1-.569-.2c-.1-.037-.189-.07-.28-.1l-.314-.111.074-.231a.5.5 0 0 1 .417-.325 1.4 1.4 0 0 1 .036-1.161l-.418-.029.167.049-.1.253-.058-.015q-.305-.089-.22-.3l-1.488-.1h-.036l.082.014c-.25.314-.975-.033-1.118.43-.192-.157-.408-.306-.422-.519h-.05l-2.465-.084a88.675 88.675 0 0 1-1.545-.069l-2.461-.136a79.247 79.247 0 0 1-1.542-.1l-1.157-.082c0 .209.1.46.083.66a3 3 0 0 1-.564-.109 9.462 9.462 0 0 1-1.539-.692l-.823-.054-2.459-.156a12.526 12.526 0 0 1-1.52-.211l-2.452-.528a6.131 6.131 0 0 0-1.519-.094l-.076.007c-.008.084-.129.094-.234.064a.362.362 0 0 1-.084-.036l-2.12.187-.093.007c-.21.426.235.828.105 1.4-.63-.289-.417-.845-.55-1.292a.694.694 0 0 0 .415-.11 8.068 8.068 0 0 1-1.408-.054l-2.452-.362a29.024 29.024 0 0 0-1.531-.176l-1.031-.085-.166.405a1.017 1.017 0 0 1-.529-.054 6.546 6.546 0 0 1-.228-.072 1.64 1.64 0 0 1 .428-.32l-.932-.077a13.5 13.5 0 0 0-1.541-.02l-2.5.141a7.918 7.918 0 0 1-1.528-.092l-2.451-.438a9.424 9.424 0 0 0-1.53-.12l-.369.007v.058l-.1-.057-2.021.04c-.425.008-1.12-.012-1.543-.045l-2.457-.193a19.846 19.846 0 0 0-1.543-.048l-1.147.018a.2.2 0 0 1 0 .083c-.1-.025-.232-.05-.382-.077l-.956.015a15.239 15.239 0 0 1-1.541-.069l-2.453-.258c-.1-.01-.217-.018-.34-.023-.005.056-.012.113-.019.17a.163.163 0 0 0-.114-.118c-.179-.052-.463.156-.23.3a.245.245 0 0 1-.188.04c-.123-.036-.155-.226-.1-.394-.2.007-.388.02-.541.039l-2.142.266c-.421.052-1.1.173-1.511.268l-2.21.513a2.5 2.5 0 0 0-1.183.711L87 574.345c-.043.053-.09.113-.139.178a.956.956 0 0 1 .24.044c.054.016.11.034.165.053s.111.037.166.053c.241.07.462.089.57-.172.178.189.36.6-.034.744a5.841 5.841 0 0 0-.7-.264 5.51 5.51 0 0 0-.638-.138c-.155.221-.306.451-.409.626l-1.02 1.739-.022.039c.187.209.139.465.237.674zm133.66 33.4c-.11.359-.292.282-.241.59l-.049-.012c-.413-.12-.215-.617-.072-.684zm.775-3.547a.332.332 0 0 1 .112.01.137.137 0 0 1 .1.193.176.176 0 0 1-.218.1.3.3 0 0 1-.1-.05zm-.572.1a1.926 1.926 0 0 1 .228.086.392.392 0 0 1-.282.025c-.084-.024-.141-.073-.142-.1s.055-.051.196-.01zm-59.355-32.123l-.12.1-.191-.021a.933.933 0 0 1-.165-.032.513.513 0 0 1-.369-.31l-.161-.054.035-.218a.3.3 0 0 1 .2-.228.607.607 0 0 1 .391-.007.77.77 0 0 1 .479.388.313.313 0 0 1-.1.383zm1.417-.263c-.144-.042-.135-.133-.271-.177.051-.062.155-.049.189-.133.133.08.2.18.138.323a.46.46 0 0 1-.056-.013zm5.334 1.925c-.123-.5-.771-.83-1.255-1.214-.326.1.029.363.189.526a.363.363 0 0 1-.228.006c-.035-.01-.07-.024-.108-.039s-.082-.032-.132-.046a1.2 1.2 0 0 0-.288-.045c-.194-.522.484-.415.791-.618.515.5 1.721.76 2.252 1.409a6.488 6.488 0 0 1-1.222.021zm2.992-.733c-.207-.227-.249-.508-.671-.666l.172-.421c.474.237.887.807.499 1.087zm1.393-.444l.962.28c0 .293.242.51.206.814-.31-.389-1.216-.59-1.169-1.094zm2.2.546c-.146-.076-.129-.2-.292-.274 0-.267.259-.169.292-.387a.411.411 0 0 1 0 .661zm1.272.181c-.235-.1-.143-.3-.378-.393.051-.061.155-.049.189-.134.236.1.143.3.378.393-.051.063-.155.05-.189.135zm3.468.918c-.143-.042-.134-.133-.27-.177.051-.062.155-.049.189-.134.133.08.2.18.138.323a.494.494 0 0 1-.057-.011zm1.329.194a.545.545 0 0 1-.123-.018c-.209-.061-.009-.252.02-.389-.027-.211-.591-.252-.619-.463a.49.49 0 0 1 .449-.07c.456.134.844.759.273.941zm3.422-2.117a1.2 1.2 0 0 1 .189.037c.268.078.311.227.464.341-.46.348-.5.6-.292 1.047a1.244 1.244 0 0 1-.3-.039c-.628-.181.225-.934-.061-1.385zm.124 2.022a1.654 1.654 0 0 1-.124-.042c.02-.191.173-.2.258-.3a.505.505 0 0 1 .056.012c.144.042.134.133.27.177-.047.199-.219.224-.46.154zm.907-1.717c-.061-.018-.124-.039-.188-.06 0-.165.111-.165.256-.123.05.015.1.034.159.054s.108.039.158.054a.621.621 0 0 0 .1.022c-.076.141-.267.118-.486.054zm1.594 1.685l-.062-.019.172-.421q.453.149.344.477a.887.887 0 0 1-.455-.036zm1.021.3l-.241-.07.069-.169.241.07zm.6-.485q-.557-.19-.43-.6c.234.03.365-.083.634 0l.037.011c-.019.205.062.496-.238.586zm4.333-.818c-.07-.02-.1.02-.12.063-.136-.055-.039-.183-.017-.288a.537.537 0 0 1 .072.015c.14.041.124.131.1.224a.226.226 0 0 0-.034-.017zm.049.5a.107.107 0 0 1 .136-.053.343.343 0 0 1 .159.123.375.375 0 0 1-.237.039.078.078 0 0 1-.057-.107zm.178.685a.385.385 0 0 1-.21-.144c.075-.117.223-.131.423-.072.041.011.083.026.127.043-.032.179-.197.217-.34.175zm5.721.286a.629.629 0 0 1-.154-.07c.051-.282.306-.28.447-.436.351.137.12.628-.293.508zm11.246-.621l.241.07-.138.338-.241-.07zm.144.766a.258.258 0 0 1-.144-.105c.047-.2.22-.225.461-.154.039.011.081.025.123.042a.4.4 0 0 1-.44.218zm9.191 4.4a.338.338 0 0 1 .1.407c-.2-.079-.211-.222-.099-.404zm1.726-1.443a.173.173 0 0 1 .06.047.223.223 0 0 0 .092.056h.014a.137.137 0 0 1-.151.036c-.06-.017-.107-.061-.089-.106.033-.028.055-.036.075-.03zm-.2 1.322l-.241-.07c.051-.066-.014-.093-.086-.119.008-.074.113-.08.213-.051.146.044.278.154.119.243zm.491 2.014c-.066-.019-.1-.1.008-.266.347.144.116.305-.003.269zm1.555 1.881a.791.791 0 0 0-.387-.208l-.06-.016.137-.337.361.105c-.191.212.085.27-.046.459zm-.911 2.564l.069-.169a.473.473 0 0 1 .074.015c.18.052.1.186.063.308-.087-.041-.082-.115-.202-.153zm-1.1 3.831c-.259-.075-.267-.23-.152-.425l.053.013c.264.077.184.263.17.429a.31.31 0 0 1-.07-.013zm-1.478 9.751c-.091-.044-.085-.119-.206-.154.051-.062.155-.049.189-.134.091.044.085.119.206.154-.05.066-.154.053-.188.138zm-.776 9.487a.236.236 0 0 1-.272.094 1.887 1.887 0 0 1-.449-.3c.459-.47-.265-.851.172-1.082.551.314-.136 1.02.55 1.292zm.983-4.962a.815.815 0 0 1 .163.085 1 1 0 0 0 .235.106.862.862 0 0 0 .15.029c-.038.075-.133.069-.248.036-.061-.018-.128-.043-.195-.069s-.133-.051-.195-.069a.541.541 0 0 0-.119-.023c.082-.093.143-.111.21-.091zm.308-3.809c.039-.093.185-.1.342-.052.259.075.547.288.432.466l-.039-.011a2.664 2.664 0 0 1-.734-.4zm-2.6 9.14c.061.018.124.039.188.06.1.14.015.338-.085.541h-.012c-.4-.116-.432-.347-.573-.544.077-.14.267-.117.487-.053zm-2.339.645c.038.159.331.237.224.442a.785.785 0 0 1-.109-.023c-.169-.049-.21-.139-.338-.2a.4.4 0 0 0 .227-.215zm-2.906.852a.329.329 0 0 1 .185-.02c.1.03.1.159.262.244-.01.071-.157.07-.291.031-.168-.044-.312-.152-.152-.25zm-2.837-.636l.361.1-.069.169-.361-.1zm-2.751 1.463q-.453-.149-.344-.477c.094.171.464.248.348.481zm-1.805-.525l.035.009c.382.111.449.488.119.6l-.361-.105c-.167-.22.093-.314.211-.5zm-.292-.934l.034.013c.07.02.1-.02.12-.063l.027.006a.111.111 0 0 1 .06.174.183.183 0 0 1-.213.095.253.253 0 0 1-.1-.057zm-11.085-.685c.14.041.123.131.1.224a.215.215 0 0 0-.034-.013c-.07-.021-.1.019-.121.062-.135-.055-.039-.183-.017-.288a.507.507 0 0 1 .075.019zm-2.566.486l.361.1-.138.337c-.025 0-.048-.011-.07-.017-.256-.066-.265-.223-.15-.415zm-12.442.283a.177.177 0 0 1 .06.047.222.222 0 0 0 .093.057H177a.137.137 0 0 1-.151.037c-.06-.017-.108-.061-.09-.106.041-.028.058-.036.078-.03zm-2.62-.326l.481.14-.069.169-.481-.14zm-5.433-1.863h.017c.086.025.1.129.058.219a.2.2 0 0 1-.236.134.274.274 0 0 1-.1-.054c.027-.183.18-.196.264-.296zm-1.857 1.252a.545.545 0 0 1 .123.018c.21.061.009.252-.02.389-.2-.077-.212-.22-.1-.403zm-8.907.05c-.3-.1-.156-.4.052-.456.306.101.16.401-.049.457zm1.788-.423a7.533 7.533 0 0 1-.23-.061.907.907 0 0 1-.457-.233c.046-.155.22-.135.258-.3.009.245.543.318.433.598zm-1.053-1.657a1.934 1.934 0 0 1 .255.1 1.841 1.841 0 0 0 .233.1c.1.029.183.026.239-.05.265.16.663.278.584.547a1.045 1.045 0 0 1-.409-.046 4.328 4.328 0 0 1-.495-.193 4.7 4.7 0 0 0-.56-.212 2.4 2.4 0 0 0-.343-.074.391.391 0 0 1 .5-.167zm-.185 1.391c-.447-.176-.727-.4-.636-.751a.934.934 0 0 1 .64.756zm-1.736-.034a1 1 0 0 1 .14.029c.441.128.163.486.531.637a.606.606 0 0 1-.341-.008c-.316-.087-.586-.388-.327-.653zm-.963-.94c.343.14.113.3-.008.266-.06-.014-.096-.091.012-.261zm-1.049 1.581c-.033.035-.056.043-.075.037a.185.185 0 0 1-.06-.047.222.222 0 0 0-.093-.057h-.013a.137.137 0 0 1 .151-.037c.064.02.111.064.094.109zm-.1-.852c.141.041.266.174.189.312a.769.769 0 0 1-.109-.023c-.169-.049-.21-.139-.338-.2a.2.2 0 0 1 .258-.084zm-1.427-1.007c.4.2 0 .667-.411.546a.544.544 0 0 1-.07-.026c.048-.326.265-.421.482-.516zm-.67-.006c-.083.369-.47.316-.894.211.114-.321.501-.268.894-.207zm-1.96 1.047a.922.922 0 0 1 .343.274c-.042.071-.13.073-.226.045a1 1 0 0 1-.375-.22.231.231 0 0 1 .259-.098zm-1.531-.742a.344.344 0 0 1 .113.01.137.137 0 0 1 .1.193.175.175 0 0 1-.218.1.3.3 0 0 1-.1-.05zm-1.582-.083c-.266.071-.408.314-.774.246a.7.7 0 0 1 .775-.242zm-4.47.4l.241.07-.069.168-.241-.07zm-4.78-.164c-.133-.08-.2-.18-.137-.323.138.081.203.181.138.324zm-2.468-2.04q.332.1.2.343l-.058-.015q-.334-.1-.2-.343zm-.369.743l.481.14-.206.506a1.088 1.088 0 0 1-.162-.033c-.354-.101-.251-.351-.112-.611zm-2.768 1.175c.2.082.215.225.1.407a.548.548 0 0 1-.124-.018c-.205-.059-.005-.25.025-.387zm-1.251.016a.174.174 0 0 1 .116.126l-.069.168a.826.826 0 0 1-.12-.024c-.161-.047-.184-.126-.147-.188a.207.207 0 0 1 .22-.08zm-.76-1.355c.5.4-.639.367-.378.927-.705-.246.103-.834.378-.925zm-2.178.493c.27.079.483.176.338.386a.683.683 0 0 0-.13-.055.45.45 0 0 0-.22-.006.447.447 0 0 1-.22-.006.563.563 0 0 1-.066-.024.378.378 0 0 1 .017-.372c.093.028.19.052.281.079zm-7.254-.975q.333.1.2.343l-.059-.015q-.333-.1-.2-.343zm-1.83-.625c.322.169.2 1.171-.327 1.131.394-.49-.094-.84.327-1.129zm-3.112.038a.464.464 0 0 1-.275-.646.464.464 0 0 1 .275.648zm-1.892.676c.091.044.086.119.206.154-.051.062-.155.049-.189.133-.091-.044-.086-.119-.205-.154.05-.06.154-.047.188-.131zm-3.49.162c.22.064.462.265.412.451a.565.565 0 0 1-.315 0c-.232-.068-.4-.268-.3-.46a.386.386 0 0 1 .204.011zm-.688.509a.658.658 0 0 1-.1-.019c-.357-.1-.159-.488.062-.557a.558.558 0 0 1 .1.018c.299.087-.063.382-.062.559zm.155-1.369c.374.125.19.428.12.7a.982.982 0 0 1-.343-.035.434.434 0 0 1-.362-.547c.191-.042.481.047.585-.117zm-1.943-.188c.272.2.256.384.035.576l-.034-.009a.291.291 0 0 1-.001-.566zm-.739-.5c.34.195.2.817.017.948l-.037-.01c-.269-.078-.29-.235-.5-.334.069-.347.308-.456.52-.601zm-2.93-.2a1.65 1.65 0 0 1 .161.056 3.226 3.226 0 0 1-.155.71c-.272-.231-.674-.421-.481-.8a1.016 1.016 0 0 1 .476.036zm-4.639.937c.06.017.107.061.089.107a.525.525 0 0 1-.194.009.062.062 0 0 1-.046-.079.137.137 0 0 1 .151-.035zm-1.413-.1a.445.445 0 0 1 .22.006.648.648 0 0 1 .13.055c.169.272-.14.622-.553.5l-.049-.016c.021-.146.173-.112.224-.218.054-.078-.034-.111-.134-.14l-.027-.008-.026-.008c-.123-.036-.229-.077-.071-.2a.509.509 0 0 0 .066.024.453.453 0 0 0 .221.006zm-.406-.725l.361.1c-.021.191-.174.2-.258.3-.203-.073-.215-.216-.102-.399zm-2.855-.924l.036.009c.382.111.449.488.119.6-.315-.126-.414-.517-.154-.608zm-9.57-5.338c.416.121.084.638-.126.726-.4-.185.228-.4.034-.744a.609.609 0 0 1 .093.019zm.253-1.521l.241.07-.069.169-.241-.07zm-1.1 2.7l.361.1-.069.168-.361-.1zm-.172-.9a1.043 1.043 0 0 1-.481-.8c.149.27.856.362.481.801zm-.924-5.658c-.06-.017-.107-.061-.09-.106.033-.034.056-.043.075-.037a.185.185 0 0 1 .06.047.225.225 0 0 0 .093.057h.013a.137.137 0 0 1-.151.039zm2.283-2.622l-.241-.07.069-.169.241.07zm.321-1.671a.656.656 0 0 1 .2.139.748.748 0 0 0 .273.16l.032.008c-.051.069-.166.064-.289.028a1.063 1.063 0 0 1-.433-.238c.085-.095.157-.115.217-.097zm-2.126 4.446c.483.2.228 1.2-.34 1.038a.584.584 0 0 1-.072-.027c-.141-.289.19-.805.412-1.011zm1.05-4.881c.567.186.227.661.413.969a.743.743 0 0 1-.247-.026.521.521 0 0 1-.167-.943zM83.9 594.83a.528.528 0 0 1 .074.015c.179.052.1.186.063.308-.09-.044-.085-.119-.205-.154zm69.741-19.793c.42.159.173.531.655.671a1.169 1.169 0 0 0 .136.03.424.424 0 0 1-.388.053c-.331-.091-.644-.474-.402-.754zm-.67.653l.059.015q.333.1.2.343l-.361-.105zm-2.27.283a.229.229 0 0 1-.173.023c-.238-.069-.3-.581.018-.634a.551.551 0 0 1 .122.019c.332.096-.293.496.032.593zm-.185-1.468c.38.11.411.508.134.6a1.368 1.368 0 0 1-.155-.61zm-2.687 1.009a.291.291 0 0 1 0 .567.567.567 0 0 1-.034-.576zm-10.435-1.9c.122.059.013.191.172.239a1.347 1.347 0 0 1 .825.009c.513.149.969.519.809.937a5.99 5.99 0 0 0-1.243-.546 2.782 2.782 0 0 0-1.044-.119c-.261-.38.404-.217.481-.522zm-7.37.5c.412.12.494-.219.716-.363l.059.014c.461.134-.53.482.061.681a.491.491 0 0 0 .115.055c.128.037.161-.058.194-.153s.066-.19.194-.153a.5.5 0 0 1 .115.054l-.206.506a2.7 2.7 0 0 1-.8-.086c-.329-.1-.57-.279-.543-.587a.94.94 0 0 0 .095.033zm-.625.284h.017c.086.025.1.129.058.219a.2.2 0 0 1-.235.134.275.275 0 0 1-.1-.055c.023-.186.176-.196.261-.296zm-3.239-1.016a.211.211 0 0 1 .161.31.852.852 0 0 0-.184-.082.417.417 0 0 0-.305.026.417.417 0 0 1-.305.026.728.728 0 0 1-.116-.046c.055-.202.489-.308.749-.234zm-1.461-.917c.352.1.3.334.281.554-.162-.169-.4-.312-.309-.561zm-4.113.114c.213.062.394.209.25.366a.39.39 0 0 1-.243.01c-.169-.049-.288-.212-.445-.3.052-.119.252-.128.439-.075zm-.934 1.15c.259.075.266.23.152.425-.146-.124-.33-.237-.224-.442zm-2.513-.633l.241.07-.069.168-.241-.07zm-9.886-.518a.433.433 0 0 1 .056.012c.144.042.135.133.271.177-.008.074-.113.08-.214.051-.14-.041-.266-.15-.113-.239zm-1.667-.2c.2.352.621.633.653 1.039a.839.839 0 0 1-.367-.038 5.665 5.665 0 0 1-.923-.432c.114-.328.469-.319.637-.571zm-1.806.8a2.641 2.641 0 0 1-.459-.076c-.256-.074-.384-.212-.246-.506.149.215.882.25.705.575zm-3.18-1.778a.46.46 0 0 0 .319.308 1.5 1.5 0 0 0 .242.04 1.519 1.519 0 0 1 .258.045.683.683 0 0 1 .2.09c.173.278-.42.3-.688.366a1.232 1.232 0 0 1-.118-.027c-.285-.083-.329-.243-.535-.351.064-.215.143-.414.322-.471zm-12.9 2.759c-.144-.042-.134-.133-.271-.177.051-.061.155-.049.189-.134.133.08.2.18.138.323a.517.517 0 0 1-.056-.014zm-.582 7.182l-.036-.01c-.27-.078-.291-.235-.5-.334a.194.194 0 0 1 .229-.085.452.452 0 0 1 .307.427zm1.032-3.849a.434.434 0 0 1-.056-.012c-.143-.042-.134-.132-.27-.177.051-.062.155-.049.189-.133.133.077.203.176.137.319zm.362-1.215c.046-.156.22-.135.258-.3.2.148.181.434-.187.326-.022-.011-.046-.019-.071-.029zm.447-1.756h.018a.319.319 0 0 1 .167.182c.04.078.073.154.123.169.028.008.061 0 .105-.046.291.328-.365.453-.688.366.239-.292.023-.592.275-.673zm-2.373 3.836c.068.013.133.028.193.046.577.168.785.53.408.789.02-.251-.581-.3-.739-.5zm.207-3.146l.361.105c-.109.138-.183.326-.447.25l-.051-.017z" class="cls-6" data-name="Path 47" transform="translate(-83.489 -570.984)"/>
                    </g>
                    <g id="Group_27" data-name="Group 27" transform="translate(7.709 37.846)">
                        <path id="Path_48" d="M107.105 687.034c.2.028.412.053.608.072a2.188 2.188 0 0 0-.177-.182 1.235 1.235 0 0 0-.431.11z" class="cls-6" data-name="Path 48" transform="translate(-107.105 -686.924)"/>
                    </g>
                    <g id="Group_28" data-name="Group 28" transform="translate(68.126 6.27)">
                        <path id="Path_49" d="M258.862 590.406a1.378 1.378 0 0 1 1.019.728h.1l2.1-.1h.137a2.907 2.907 0 0 1-.09-.637h-.026l-2.068-.169a11.733 11.733 0 0 0-.785-.03.842.842 0 0 1-.387.208z" class="cls-6" data-name="Path 49" transform="translate(-258.862 -590.192)"/>
                    </g>
                    <g id="Group_29" data-name="Group 29" transform="translate(74.008 6.625)">
                        <path id="Path_50" d="M274.242 591.936l1.393.212c.157.024.358.049.565.07a.061.061 0 0 1 0-.034c.028-.034.047-.042.064-.037s.031.026.051.047a.224.224 0 0 0 .044.04c.209.02.413.035.573.042l.144.007a.984.984 0 0 1 .276-.659l.005-.007-.395-.047a71.46 71.46 0 0 0-1.008-.109.443.443 0 0 1-.087.7l-.035-.011a.4.4 0 0 1-.263-.28.4.4 0 0 0-.263-.28l-.034-.01a.611.611 0 0 1 .143-.173l-.319-.03a.174.174 0 0 0 .1.084c-.056.083-.222-.012-.261.1a.22.22 0 0 1-.147-.211l-.757-.071c-.146.178.281.396.211.657z" class="cls-6" data-name="Path 50" transform="translate(-274.003 -591.278)"/>
                    </g>
                    <g id="Group_30" data-name="Group 30" transform="translate(72.619 6.531)">
                        <path id="Path_51" d="M271.243 591.605c.112.01.216.023.306.036l.6.091a2.084 2.084 0 0 1-.47-.679l-.106-.01-.576-.052c.07.22.166.422.246.614z" class="cls-6" data-name="Path 51" transform="translate(-270.998 -590.992)"/>
                    </g>
                    <g id="Group_31" data-name="Group 31" transform="translate(52.574 5.644)">
                        <path id="Path_52" d="M218.454 588.741l2.08.035c.359.006.946.035 1.3.065l2.068.17c.358.03.944.074 1.3.1l2.07.141c.337.023.874.086 1.231.145a.5.5 0 0 0-.007-.384 8.2 8.2 0 0 1-1.22-.069l-2.062-.309a10.034 10.034 0 0 0-1.3-.091l-2.084.018c-.359 0-.946-.012-1.3-.033l-2.071-.122a10.508 10.508 0 0 1-1.045-.129.932.932 0 0 1-.2.382c.361.04.901.075 1.24.081z" class="cls-6" data-name="Path 52" transform="translate(-217.216 -588.275)"/>
                    </g>
                    <g id="Group_32" data-name="Group 32" transform="translate(7.442 33.897)">
                        <path id="Path_53" d="M109.28 675.416a.285.285 0 0 1-.049-.076l-1.372-.1a5.259 5.259 0 0 1-1.143-.246l-.116-.042-.313-.124a.944.944 0 0 1 .028.118l.28.117c.05.021.1.041.163.061a5.048 5.048 0 0 0 1.091.24l1.673.132a.588.588 0 0 0-.1-.044.8.8 0 0 0-.142-.036z" class="cls-6" data-name="Path 53" transform="translate(-106.288 -674.826)"/>
                    </g>
                    <g id="Group_33" data-name="Group 33" transform="translate(50.375 5.362)">
                        <path id="Path_54" d="M213.843 587.453v-.021l-.1-.022a.343.343 0 0 0 .076.037z" class="cls-6" data-name="Path 54" transform="translate(-213.746 -587.41)"/>
                    </g>
                    <g id="Group_34" data-name="Group 34" transform="translate(65.524 6.3)">
                        <path id="Path_55" d="M252.445 590.782l1.919.331c.073.012.155.024.243.034-.233-.171-.473-.339-.691-.516.129-.163.016-.234.012-.346l-1.175.055a.61.61 0 0 0-.308.442zm.629-.347l.2.07-.058.169-.2-.07z" class="cls-6" data-name="Path 55" transform="translate(-252.445 -590.284)"/>
                    </g>
                    <g id="Group_35" data-name="Group 35" transform="translate(94.518 8.011)">
                        <path id="Path_56" d="M324.839 595.934l1.905.087c.358.016.942.076 1.3.132l.161.025c.073-.076.153-.139.225-.218.081.083.184.2.306.3l.718.113a.58.58 0 0 1 .049-.233.911.911 0 0 1 .147.264l.456.072c.354.056.938.114 1.3.13l1.81.078a.35.35 0 0 1 .31-.016.79.79 0 0 1 .082.034h.025c.224-.32-.19-.4-.355-.573l-.442-.043c-.081.17-.229.229-.283.442a2.293 2.293 0 0 1-.669-.534l-.445-.043c-.357-.035-.942-.1-1.3-.135l-1.159-.13a.343.343 0 0 1-.028.074.224.224 0 0 1-.16.008.246.246 0 0 1-.133-.118l-.439-.049a.39.39 0 0 1-.559.28c-.06-.119.014-.245.147-.321a12.354 12.354 0 0 0-1.035-.036l-1.734.033a.606.606 0 0 0-.2.377z" class="cls-6" data-name="Path 56" transform="translate(-324.839 -595.526)"/>
                    </g>
                    <g id="Group_36" data-name="Group 36" transform="translate(13.398 34.337)">
                        <path id="Path_57" d="M153.2 678.545v-.031a17.962 17.962 0 0 1-.638-.029l-2.069-.143a26.001 26.001 0 0 1-1.3-.131l-2.063-.274a13.144 13.144 0 0 0-1.3-.093l-2.081-.023a9.331 9.331 0 0 1-1.3-.124l-.273-.05a.933.933 0 0 1-.031.3.692.692 0 0 1-.4-.377l-1.356-.246a6.482 6.482 0 0 0-1.294-.077l-2.1.13a6.58 6.58 0 0 1-1.295-.073l-2.061-.363-.207-.035a.1.1 0 0 1-.024.011.324.324 0 0 1-.044-.022 21.882 21.882 0 0 0-1.018-.133l-2.066-.2a197.37 197.37 0 0 1-1.3-.132l-2.065-.213a9.674 9.674 0 0 0-1.3-.028l-1.085.065a.9.9 0 0 1 .231.594l.8.151c.19.036.448.067.7.087a2.167 2.167 0 0 1-.491-.439.216.216 0 0 1 .195-.018.535.535 0 0 1 .332.46l.15.01a.457.457 0 0 1 .005-.122 1.624 1.624 0 0 1 .3.134h.105l1.052-.014a1.072 1.072 0 0 1 .04-.17.4.4 0 0 1 .08.018.147.147 0 0 1 .109.15l.805-.011c.359 0 .946.013 1.3.039l2.071.153c.358.027.942.092 1.3.145l.128.019a.7.7 0 0 1-.033-.413c.3.13.394.34.624.5l1.345.2c.355.053.938.129 1.295.169l2.065.233.2.02.021-.062a.241.241 0 0 1 .095.01.133.133 0 0 1 .079.067c.312.023.665.039.91.039H143.026a.612.612 0 0 1 .286-.328l.018.006a.293.293 0 0 1 .227.318h.179l2.087-.029c.359 0 .946.011 1.3.036l2.07.143c.358.025.943.084 1.3.131l2.064.274c.283.038.712.072 1.056.086a.425.425 0 0 0-.257-.258.77.77 0 0 0-.156-.037zm-28.144-1.879a.126.126 0 0 1-.081-.12c0-.046.028-.082.08-.064a.4.4 0 0 1 .161.154.2.2 0 0 1-.163.03zm1.412-.078l-.038.069zm.045-.081l.037-.068zm8.875 1.11a.378.378 0 0 1-.13.035c-.012 0 .008-.024.089-.071a.379.379 0 0 1 .122-.016c.015.006-.03.035-.084.051z" class="cls-6" data-name="Path 57" transform="translate(-124.535 -676.173)"/>
                    </g>
                    <g id="Group_37" data-name="Group 37" transform="translate(64.114 8.674)">
                        <path id="Path_58" d="M259.415 598.114c.2.017.4.036.552.054l2.064.244c.357.042.941.1 1.3.138l1.305.123a.5.5 0 0 1 .058-.17.4.4 0 0 1 .1.018c.091.031.09.1.064.174l.535.05c.357.034.943.085 1.3.115l.142.011.02.007 1.9.155a12.222 12.222 0 0 0 1.3.022l2.1-.1a8.016 8.016 0 0 1 1.3.066l2.062.308a9.991 9.991 0 0 0 1.3.091l2.085-.018a3.894 3.894 0 0 1 1.129.2c.045.015.087.031.126.047l1.7.711a1.455 1.455 0 0 1 .756.887l.391 1.616a6.07 6.07 0 0 1 .14 1.287l-.04 1.98c-.007.359-.039.945-.071 1.3l-.176 1.969c-.032.358-.053.944-.047 1.3l.033 1.986a7.859 7.859 0 0 1-.108 1.295l-.364 1.963a6.9 6.9 0 0 0-.091 1.294l.087 1.994c.015.359.009.945-.015 1.3l-.131 1.969c-.024.358-.07.944-.1 1.3l-.179 1.966a3.33 3.33 0 0 1-.4 1.207l-.877 1.432a1.746 1.746 0 0 1-.637.563.243.243 0 0 1 .089.3 8.175 8.175 0 0 1-.769-.1l-1.268.275a11.894 11.894 0 0 1-1.289.192l-2.11.172c-.049 0-.1.007-.159.009a.271.271 0 0 0 .007.164.562.562 0 0 1-.075-.02.223.223 0 0 1-.158-.14 6.453 6.453 0 0 1-.909-.064l-2.065-.335a17.526 17.526 0 0 0-1.3-.153l-2.07-.155a15.701 15.701 0 0 0-1.3-.032l-2.092.054c-.359.009-.946 0-1.3-.026l-2.071-.136a43.233 43.233 0 0 1-1.3-.108l-2.066-.207a15.436 15.436 0 0 1-1.287-.2l-2.062-.451a5.512 5.512 0 0 0-1.289-.1l-2.1.144a8.815 8.815 0 0 1-1.3-.027l-2.065-.229a15.737 15.737 0 0 0-1.3-.077l-2.082-.018c-.359 0-.946-.022-1.3-.042l-2.072-.117c-.358-.02-.945-.06-1.3-.088l-2.069-.164c-.358-.028-.94-.106-1.293-.172l-2.062-.388a7.888 7.888 0 0 0-1.294-.112l-2.087.028c-.359 0-.946-.013-1.3-.039l-.811-.06a.312.312 0 0 1-.223.12c-.07-.046-.092-.092-.086-.143l-.949-.07a21.254 21.254 0 0 1-1.3-.144l-2.061-.307a43.238 43.238 0 0 0-1.295-.169l-2.065-.233a10.485 10.485 0 0 0-.387-.035.483.483 0 0 1-.207.585c-.195-.143-.164-.372-.119-.606a12.368 12.368 0 0 0-.59-.019h-2.082c-.359 0-.946 0-1.305.008l-2.086.029h-.028c-.047.1-.125.209-.172.317h.195l2.081.023a9.308 9.308 0 0 1 1.3.124l.049.009a1.032 1.032 0 0 0 .019-.171.615.615 0 0 1 .243.219l1.751.318a6.474 6.474 0 0 0 1.294.077l2.1-.13a6.63 6.63 0 0 1 1.295.073l2.062.364c.354.062.936.142 1.293.178l2.066.2h.04a.374.374 0 0 1 .048-.407 1.321 1.321 0 0 1 .187.049.918.918 0 0 1 .466.365.678.678 0 0 0-.063.058l.621.063.209.022a.286.286 0 0 1 .031-.151l.049.015a.269.269 0 0 1 .194.164l1.581.163a9.625 9.625 0 0 0 1.3.028l2.1-.126a11.871 11.871 0 0 1 1.3.009l2.068.154c.358.027.945.06 1.3.074l2.074.081c.359.014.944.062 1.3.105l2.062.255.158.018a.485.485 0 0 1 .05-.206.759.759 0 0 1 .255.235c.293.024.61.044.837.049l2.077.049a8.244 8.244 0 0 1 1.291.154l2.062.449a7.449 7.449 0 0 0 1.291.141l2.069.027c.359 0 .945.033 1.3.07l2.065.216c.357.037.942.09 1.3.118l2.069.16a12.849 12.849 0 0 0 1.3.021l2.1-.095c.359-.016.946-.015 1.3 0l2.073.1a8.469 8.469 0 0 1 1.287.183l2.063.492a6.477 6.477 0 0 0 1.288.146l2.085-.017a5.652 5.652 0 0 0 1.279-.189l1.794-.525a.493.493 0 0 1 .281-.319l.3.109a1.824 1.824 0 0 0 .661-.634l.988-1.808a4.489 4.489 0 0 0 .413-1.218l.3-1.964c.055-.355.135-.937.177-1.294l.233-1.966c.042-.357.087-.942.1-1.3l.069-1.975c.013-.359.02-.946.017-1.305l-.019-1.985a10.759 10.759 0 0 1 .084-1.3l.272-1.963c.049-.355.109-.939.133-1.3l.131-1.969c.024-.358.036-.945.026-1.3l-.052-1.988a4.979 4.979 0 0 0-.233-1.268l-.682-1.939a1.588 1.588 0 0 0-.828-.844l-1.993-.745-.067-.024a5.776 5.776 0 0 0-1.195-.258l-2.072-.17c-.358-.029-.944-.073-1.3-.1l-2.073-.141a15.244 15.244 0 0 1-1.295-.155l-2.063-.355a7.227 7.227 0 0 0-1.3-.081l-.282.013a.406.406 0 0 1 .221.264.4.4 0 0 0 .263.28l.034.011a.319.319 0 0 1-.367.066c-.295-.1-.576-.454-.3-.614l-1.664.077a8.025 8.025 0 0 1-1.3-.068l-2.063-.314a14.818 14.818 0 0 0-1.3-.128l-2.074-.093c-.243-.011-.59-.033-.9-.057.194.202.516.352.331.556zm-40.171 27.729l-.2-.07.058-.169.2.07zm33.615 2.718l-.2-.07c.018-.146.146-.112.189-.218l.2.07c-.019.146-.148.111-.189.218zm.253-.346c-.084-.029-.147-.122.052-.209.148.194.036.239-.052.209zm30.448-25.1c.3.1.147.383.126.609a1.21 1.21 0 0 1-.109-.033c-.402-.137-.144-.316-.016-.575z" class="cls-6" data-name="Path 58" transform="translate(-213.776 -597.555)"/>
                    </g>
                    <g id="Group_38" data-name="Group 38" transform="translate(78.316 7.609)">
                        <path id="Path_59" d="M286.2 594.334l-.05-.02a.2.2 0 0 0-.228.037l.353.016z" class="cls-6" data-name="Path 59" transform="translate(-285.925 -594.294)"/>
                    </g>
                    <g id="Group_39" data-name="Group 39" transform="translate(104.032 9.119)">
                        <path id="Path_60" d="M352.617 598.926c-.059-.02-.126.015-.2.079l.291.022a.181.181 0 0 0-.091-.101z" class="cls-6" data-name="Path 60" transform="translate(-352.42 -598.921)"/>
                    </g>
                    <g id="Group_40" data-name="Group 40" transform="translate(11.489 34.417)">
                        <path id="Path_61" d="M120.507 676.42l-.927.056c-.242.014-.587.017-.9.009a1.09 1.09 0 0 0 .15.176c.262.034.531.074.729.111l.875.164c.166-.129.036-.227.073-.516z" class="cls-6" data-name="Path 61" transform="translate(-118.684 -676.42)"/>
                    </g>
                    <g id="Group_41" data-name="Group 41" transform="translate(130.004 40.117)">
                        <path id="Path_62" d="M415.939 693.881a1.308 1.308 0 0 1-.294.107h-.021l.027.01a.212.212 0 0 0 .288-.117z" class="cls-6" data-name="Path 62" transform="translate(-415.624 -693.881)"/>
                    </g>
                    <g id="Group_42" data-name="Group 42" transform="translate(5.295 3.037)">
                        <path id="Path_63" d="M99.82 585.386c.139.048.176.135.277.2l.024-.511a2.3 2.3 0 0 1 .447-1.156l1.134-1.373a2.85 2.85 0 0 1 1.029-.728l1.57-.575a3.826 3.826 0 0 1 1.265-.191l2.076.106c.358.019.945.045 1.3.06l2.078.086c.359.015.943.071 1.3.125l2.063.315c.355.054.937.133 1.294.174l2.067.242c.357.042.942.086 1.3.1l1.131.041c-.071-.249.138-.6-.244-.737a.863.863 0 0 0-.131-.032.467.467 0 0 0 .069-.119l-.369.015a.905.905 0 0 0-.063.168.231.231 0 0 1-.142-.159l-.208.008c-.2.008-.46.009-.718 0-.1.043-.183.1-.122.3l-.026-.008c-.121-.041-.152-.168-.128-.3-.113 0-.219-.009-.31-.015l-2.07-.137c-.358-.024-.944-.07-1.3-.1l-2.066-.185-1.3-.12-2.067-.193c-.357-.034-.942-.1-1.3-.139l-2.064-.247a2.876 2.876 0 0 0-1.248.18l-2.05.879a2.7 2.7 0 0 0-.973.793l-1.19 1.708a2.83 2.83 0 0 0-.422 1.187l-.025.334.019-.016a.562.562 0 0 1 .093.02zm14.22-3.956c-.05.093-.21.007-.334-.021.051-.093.21-.009.334.022z" class="cls-6" data-name="Path 63" transform="translate(-99.709 -580.289)"/>
                    </g>
                    <g id="Group_43" data-name="Group 43" transform="translate(44.421 4.937)">
                        <path id="Path_64" d="M198.009 586.352a.406.406 0 0 1 .062.563c.249.006.5.008.69 0l1.534-.036a1.844 1.844 0 0 1-.695-.62c.075-.126.249-.089.387-.112l-.614-.013a.627.627 0 0 1-.035.224.727.727 0 0 1-.4-.034 1.364 1.364 0 0 1-.137-.056.973.973 0 0 0-.018-.146c-.134 0-.3-.01-.469-.018l-.06.068a.631.631 0 0 1-.245.18z" class="cls-6" data-name="Path 64" transform="translate(-198.009 -586.107)"/>
                    </g>
                    <g id="Group_44" data-name="Group 44" transform="translate(90.724 7.99)">
                        <path id="Path_65" d="M318.35 595.866c.358-.007.942 0 1.3.017a2.533 2.533 0 0 0-.12-.358c-.359 0-.855 0-1.172-.019l-.968-.044a2.686 2.686 0 0 0 .15.419z" class="cls-6" data-name="Path 65" transform="translate(-317.392 -595.462)"/>
                    </g>
                    <g id="Group_45" data-name="Group 45" transform="translate(31.226 4.104)">
                        <path id="Path_66" d="M163.178 584.011a.8.8 0 0 0 .162.035 1.479 1.479 0 0 1-.257.464l.663.024h.137c-.183-.09-.038-.3.023-.486l.023.008c.248.086.2.282.147.483.309.007.669.011.929.01a.459.459 0 0 1 .394 0l1.738-.012a11.1 11.1 0 0 1 1.3.083l2.063.282c.356.048.94.108 1.3.132l1.54.1-.013-.046.115-.039c.135-.046.221-.182.264-.417l.031-.169a.946.946 0 0 1-.128-.158l-1.758-.156a15.294 15.294 0 0 0-1.3-.048h-.231a.341.341 0 0 1-.166.3 5.45 5.45 0 0 0-.125-.3l-.617.009c.179.123.377.238.351.438l-.024-.008a.4.4 0 0 1-.156-.1.4.4 0 0 0-.156-.1l-.042-.012c-.112.018-.163.136-.318.082a.366.366 0 0 1-.045-.019c-.1-.152-.038-.218.055-.273h-.2a.253.253 0 0 1-.031.116.753.753 0 0 0-.071-.028c-.037-.013-.08-.025-.126-.039s-.089-.027-.136-.043h-.051a8.13 8.13 0 0 1-1.3-.108l-2.061-.376h-.015a.428.428 0 0 1 .054.453 1.577 1.577 0 0 1-.363-.5 8.089 8.089 0 0 0-.765-.047.275.275 0 0 1-.12.208.8.8 0 0 1-.233-.2l-.644.026c-.043.192-.058.355.163.431zm3.529.158c.217.256-.206.387-.462.3a.251.251 0 0 1-.162-.137c.169-.12.456-.045.624-.164zm-1.222-.407c.05.017.09.061.076.106a.376.376 0 0 1-.164.01c-.029-.01-.045-.033-.039-.08a.1.1 0 0 1 .127-.037z" class="cls-6" data-name="Path 66" transform="translate(-162.989 -583.556)"/>
                    </g>
                    <g id="Group_46" data-name="Group 46" transform="translate(3.887 27.944)">
                        <path id="Path_67" d="M97.5 661.969l-.034-.014a.68.68 0 0 1-.112-.023l-.014-.043a1.654 1.654 0 0 1-.661-.777l-.61-1.759a4.349 4.349 0 0 1-.2-1.269l.03-1.351a.6.6 0 0 1-.137-.029.637.637 0 0 1-.174-.1l-.022-.016-.164 1.46a2.718 2.718 0 0 0 .206 1.239l.884 1.866a1.969 1.969 0 0 0 .882.841l1.224.508c0-.031.01-.062.017-.093z" class="cls-6" data-name="Path 67" transform="translate(-95.396 -656.59)"/>
                    </g>
                    <g id="Group_47" data-name="Group 47" transform="translate(3.989 8.806)">
                        <path id="Path_68" d="M96.128 616.613a8.011 8.011 0 0 1 .156-1.29l.436-1.965a7.267 7.267 0 0 0 .142-1.29v-1.969a.072.072 0 0 1-.021-.072.19.19 0 0 1 .022-.023c0-.361.034-.889.069-1.219l.061-.578c-.269-.093-.193-.316-.4-.433a.234.234 0 0 1 .285-.083.505.505 0 0 1 .158.093l.1-.965c.038-.357.091-.942.119-1.3l.153-1.968a12.478 12.478 0 0 0 .019-1.3l-.1-1.994a16.102 16.102 0 0 1 0-1.3l.036-.763a.279.279 0 0 1-.17-.011l-.021-.008a.541.541 0 0 1-.215-.2l-.072.959c-.027.358-.04.944-.03 1.3l.057 1.992c.01.359 0 .946-.024 1.3l-.129 1.97c-.023.358-.072.944-.108 1.3l-.181 1.8a.416.416 0 0 1 .092-.069.724.724 0 0 1 .044.863.431.431 0 0 1-.209-.19c-.044.3-.1.624-.153.853l-.438 1.963a5.332 5.332 0 0 0-.095 1.288l.145 2a8.514 8.514 0 0 1-.025 1.3l-.023.2a.9.9 0 0 1 .3.222zm-.111-4.515c-.07-.493.463-.811.537-1.229.773.51-.361.74-.537 1.231zm.479.26l-.2-.07.058-.169.2.07z" class="cls-6" data-name="Path 68" transform="translate(-95.711 -597.961)"/>
                    </g>
                    <g id="Group_48" data-name="Group 48" transform="translate(47.029 4.989)">
                        <path id="Path_69" d="M204.638 586.581c.231.053.283-.19.535-.1a.548.548 0 0 1 .06.025 1.379 1.379 0 0 1 .006.476h.04a10.748 10.748 0 0 1 1.3.065l1.18.146a1.023 1.023 0 0 1-.5-.615l-.659-.143-.057-.012a.831.831 0 0 1 .138.49c-.164-.164-.418-.3-.385-.533a8.318 8.318 0 0 0-.987-.1l-.525-.011c-.125.076-.284.093-.146.312z" class="cls-6" data-name="Path 69" transform="translate(-204.585 -586.267)"/>
                    </g>
                    <g id="Group_49" data-name="Group 49" transform="translate(5.276 8.269)">
                        <path id="Path_70" d="M100.049 596.595l.009-.186c-.032.046-.138.04-.237.006a.383.383 0 0 1-.161-.1l-.008.107q.069.017.128.037a1.127 1.127 0 0 1 .269.136z" class="cls-6" data-name="Path 70" transform="translate(-99.652 -596.317)"/>
                    </g>
                    <g id="Group_50" data-name="Group 50" transform="translate(80.05 7.107)">
                        <path id="Path_71" d="M287.908 593.182l-.077.161.322.015a.82.82 0 0 0-.068-.047c.108-.306.591 0 .61-.45a.573.573 0 0 1 .1.023c.208.072 0 .214-.082.265a1.506 1.506 0 0 1 .3.258c.224.016.446.034.615.051l1.478.143a.565.565 0 0 1 .018-.187c.026.007.05.014.073.022a.508.508 0 0 1 .278.2l.219.021.791.081a.412.412 0 0 1 .208-.256l.016.005a1.233 1.233 0 0 1 .228.113 1.093 1.093 0 0 0 .184.1c.1.034.176.007.24-.175a.413.413 0 0 1 .253.339l.265.03c-.041-.05-.093-.1-.141-.144.063-.1.121-.113.187-.09a.869.869 0 0 1 .168.1 1.01 1.01 0 0 0 .228.118.686.686 0 0 0 .157.035l-.017.049.6.067a12.127 12.127 0 0 0 1.3.06l.54-.01c-.062-.159-.112-.322-.173-.468l-.346-.016a14.273 14.273 0 0 1-1.3-.132l-2.063-.325a14.057 14.057 0 0 0-1.3-.13l-2.074-.089a25.57 25.57 0 0 1-1.3-.1l-.439-.052a.436.436 0 0 1 .002.415zm2.195-.12a.253.253 0 0 1 .116.323.684.684 0 0 1-.138-.03c-.216-.073-.139-.23.019-.292z" class="cls-6" data-name="Path 71" transform="translate(-287.831 -592.757)"/>
                    </g>
                </g>
            </g>
        </g>
    </g>
</svg>
