<?xml version="1.0" encoding="utf-8"?>
<!-- Generator: Adobe Illustrator 17.1.0, SVG Export Plug-In . SVG Version: 6.00 Build 0)  -->
<!DOCTYPE svg PUBLIC "-//W3C//DTD SVG 1.1//EN" "http://www.w3.org/Graphics/SVG/1.1/DTD/svg11.dtd">
<svg version="1.1" id="Capa_1" xmlns="http://www.w3.org/2000/svg" xmlns:xlink="http://www.w3.org/1999/xlink" x="0px" y="0px"
	 viewBox="135 0 30 30" enable-background="new 135 0 30 30" xml:space="preserve">
<g>
	<g>
		<path fill="#3DAFC4" d="M164.2,3.8l-9.4-1.9c-0.1,0-0.2,0-0.4,0l-9.2,1.8l-9.2-1.8c-0.3-0.1-0.6,0-0.8,0.2
			c-0.2,0.2-0.3,0.4-0.3,0.7v22.5c0,0.4,0.3,0.8,0.8,0.9l9.4,1.9c0.1,0,0.2,0,0.4,0l9.2-1.8l9.2,1.8c0.1,0,0.1,0,0.2,0
			c0.2,0,0.4-0.1,0.6-0.2c0.2-0.2,0.3-0.4,0.3-0.7V4.7C165,4.2,164.7,3.9,164.2,3.8z M140.6,4.7l4.5,0.9c0.1,0,0.2,0,0.4,0l8.3-1.6
			v5.6l-8.4,1.7l-4.7-1.6V4.7z M144.4,26l-7.5-1.5v-4.6l7.5,1.5V26z M163.1,26l-3.8-0.7v-4.5l3.8,0.6V26z M163.1,19.5l-4.5-0.8
			c-0.3,0-0.6,0-0.8,0.2c-0.2,0.2-0.3,0.4-0.3,0.7v5.2l-2.6-0.5c-0.1,0-0.2,0-0.4,0l-8.3,1.7v-5.4c0-0.4-0.3-0.8-0.8-0.9l-8.6-1.7
			v-2.7l8.2,2.5c0.1,0,0.3,0.1,0.5,0l8.3-1.7v5.4h1.9V15c0-0.3-0.1-0.5-0.3-0.7c-0.2-0.2-0.5-0.3-0.8-0.2l-9.1,1.8l-8.5-2.5V4
			l1.9,0.4v6c0,0.4,0.3,0.8,0.6,0.9l5.6,1.9c0.1,0,0.2,0,0.3,0c0.1,0,0.1,0,0.2,0l9.4-1.9c0.4-0.1,0.8-0.5,0.8-0.9V4l1.9,0.4v4.1
			c0,0.5,0.3,0.8,0.8,0.9l4.8,0.8V19.5z M163.1,8.3l-3.8-0.6V4.7l3.8,0.8V8.3z"/>
	</g>
</g>
</svg>
