<?xml version="1.0" encoding="utf-8"?>
<!-- Generator: Adobe Illustrator 24.0.1, SVG Export Plug-In . SVG Version: 6.00 Build 0)  -->
<svg version="1.1" id="Слой_1" xmlns="http://www.w3.org/2000/svg" xmlns:xlink="http://www.w3.org/1999/xlink" x="0px" y="0px"
	 viewBox="0 0 30 29" style="enable-background:new 0 0 30 29;" xml:space="preserve">
<style type="text/css">
	.st0{fill-rule:evenodd;clip-rule:evenodd;fill:#C251C0;}
</style>
<path class="st0" d="M14.7,23.5h1.8c0,0,0.5-0.1,0.8-0.3c0.3-0.3,0.2-0.8,0.2-0.8s0-2.4,1.1-2.7c1.1-0.3,2.5,2.3,4,3.3
	c1.1,0.8,2,0.6,2,0.6l4-0.1c0,0,2.1-0.1,1.1-1.7c-0.1-0.1-0.6-1.2-3-3.4c-2.5-2.3-2.2-1.9,0.9-5.9c1.8-2.4,2.6-3.9,2.3-4.5
	c-0.2-0.6-1.6-0.4-1.6-0.4l-4.5,0c-0.2,0-0.4,0-0.6,0.1C23.1,7.9,23,8,22.9,8.2c-0.5,1.2-1,2.3-1.7,3.4c-2,3.3-2.8,3.5-3.1,3.3
	c-0.8-0.5-0.6-1.9-0.6-3c0-3.2,0.5-4.6-1-4.9c-0.5-0.1-0.9-0.2-2.1-0.2c-1.6,0-3,0-3.7,0.4C10.2,7.5,9.8,8,10,8.1
	c0.3,0,1,0.2,1.3,0.7c0.5,0.6,0.4,2,0.4,2s0.3,3.8-0.6,4.3c-0.6,0.3-1.4-0.3-3.2-3.4c-0.6-1.1-1.1-2.1-1.6-3.3C6.2,8.2,6.1,8,6,7.9
	C5.7,7.7,5.5,7.6,5.3,7.6L1,7.6c0,0-0.6,0-0.9,0.3c-0.2,0.2,0,0.7,0,0.7s3.4,7.7,7.2,11.6C10.7,23.8,14.7,23.5,14.7,23.5L14.7,23.5z
	"/>
</svg>
