<svg xmlns="http://www.w3.org/2000/svg" width="200" height="145" viewBox="0 0 200 145">
  <defs>
    <style>
      .cls-1 {
        fill: #8e9292;
        fill-rule: evenodd;
      }
    </style>
  </defs>
  <path id="vk" class="cls-1" d="M97.906,129.948h11.45s3.459-.381,5.227-2.284c1.625-1.748,1.573-5.029,1.573-5.029s-0.223-15.363,6.906-17.627c7.032-2.229,16.06,14.848,25.627,21.417,7.236,4.968,12.733,3.881,12.733,3.881l25.586-.358s13.384-.827,7.037-11.346c-0.52-.861-3.7-7.783-19.024-22.009-16.044-14.888-13.893-12.48,5.432-38.234,11.768-15.685,16.473-25.258,15-29.358-1.4-3.907-10.058-2.876-10.058-2.876l-28.807.179a6.548,6.548,0,0,0-3.72.656,8.042,8.042,0,0,0-2.541,3.091,167.044,167.044,0,0,1-10.64,22.458c-12.827,21.778-17.958,22.932-20.054,21.578-4.878-3.154-3.659-12.661-3.659-19.417,0-21.109,3.2-29.909-6.235-32.187-3.131-.756-5.438-1.254-13.447-1.337-10.279-.1-18.977.032-23.9,2.446-3.276,1.6-5.806,5.179-4.265,5.386,1.9,0.252,6.215,1.162,8.5,4.272,2.953,4.016,2.849,13.034,2.849,13.034s1.7,24.846-3.962,27.932c-3.883,2.117-9.209-2.2-20.646-21.965A183.717,183.717,0,0,1,44.587,30.942a8.566,8.566,0,0,0-2.375-3.21,11.9,11.9,0,0,0-4.425-1.786l-27.376.178s-4.108.115-5.617,1.9C3.451,29.617,4.687,32.9,4.687,32.9s21.43,50.134,45.7,75.4c22.255,23.166,47.521,21.646,47.521,21.646h0Z"/>
</svg>
