<?xml version="1.0" encoding="utf-8"?>
<!-- Generator: Adobe Illustrator 17.1.0, SVG Export Plug-In . SVG Version: 6.00 Build 0)  -->
<!DOCTYPE svg PUBLIC "-//W3C//DTD SVG 1.1//EN" "http://www.w3.org/Graphics/SVG/1.1/DTD/svg11.dtd">
<svg version="1.1" id="Слой_1" xmlns="http://www.w3.org/2000/svg" xmlns:xlink="http://www.w3.org/1999/xlink" x="0px" y="0px"
	 viewBox="224.5 141.5 30 30" enable-background="new 224.5 141.5 30 30" xml:space="preserve">
<path fill="#3DADC2" d="M247.5,154.4c-0.1-0.1-0.2-0.1-0.4-0.1h-12.9l-2.5-2.5c0.7-1,0.6-2.4-0.3-3.3l-1.5-1.5c-1-1-2.7-1-3.7,0
	l-1.5,1.5c-0.2,0.2-0.2,0.5,0,0.7l7.8,7.8l-1.6,5.1c-0.2,0.8-0.1,1.6,0.4,2.2c0.5,0.6,1.2,1,2,1h12.6c0.8,0,1.6-0.4,2-1
	s0.6-1.5,0.4-2.2l-1.1-3.5l5.1,5.1c0.2,0.2,0.5,0.2,0.7,0l1.5-1.5c0.2-0.2,0.2-0.5,0-0.7L247.5,154.4z M229.2,147.6l1.5,1.5
	c0.5,0.5,0.6,1.3,0.3,1.9l-3.7-3.7C227.9,147,228.7,147.1,229.2,147.6z M247.1,163.7c-0.3,0.4-0.7,0.6-1.2,0.6h-12.6
	c-0.5,0-0.9-0.2-1.2-0.6c-0.3-0.4-0.4-0.9-0.2-1.3l1.6-5.1h12.3l1.6,5.1C247.5,162.8,247.4,163.3,247.1,163.7z M252.7,162.6
	l-6.2-6.2c0,0,0,0,0,0c0,0-0.1-0.1-0.1-0.1c0,0,0,0,0,0c-0.1,0-0.1,0-0.2,0h-12.9l-7.5-7.5l0.8-0.8l7.2,7.2c0.1,0.1,0.2,0.1,0.4,0.1
	h12.9l6.5,6.5L252.7,162.6z"/>
</svg>
