<?xml version="1.0" encoding="utf-8"?>
<!-- Generator: Adobe Illustrator 22.0.1, SVG Export Plug-In . SVG Version: 6.00 Build 0)  -->
<svg version="1.1" id="Capa_1" xmlns="http://www.w3.org/2000/svg" xmlns:xlink="http://www.w3.org/1999/xlink" x="0px" y="0px"
	 viewBox="0 0 512 512" style="enable-background:new 0 0 512 512;" xml:space="preserve">
<style type="text/css">
	.st0{fill:#FFAB00;}
</style>
<g>
	<path class="st0" d="M509.4,238.5h-24.6v-113c0-27.1-22-49.1-49.1-49.1h-33.3l-34-61.2C363.2,5.8,353.4,0,342.6,0
		c-5,0-9.9,1.3-14.3,3.7L197.7,76.4h-146c-27.1,0-49.1,22-49.1,49.1v337.4c0,27.1,22,49.1,49.1,49.1h384c27.1,0,49.1-22,49.1-49.1
		v-99.1h24.6L509.4,238.5L509.4,238.5z M435.7,96c15.1,0,27.5,11.5,29.2,26.2H428L413.4,96H435.7z M337.9,20.9
		c4.6-2.6,10.8-0.8,13.4,3.8l54.2,97.5H155.6L337.9,20.9z M465.2,462.9c0,16.3-13.2,29.5-29.5,29.5h-384
		c-16.3,0-29.5-13.2-29.5-29.5V125.5c0-16.3,13.2-29.5,29.5-29.5h110.6l-47.1,26.2H57.8c-5.4,0-9.8,4.4-9.8,9.8
		c0,5.4,4.4,9.8,9.8,9.8h22h359h26.3v96.6h-71.9c-33.4,0-60.5,27.2-60.5,60.5v4.2c0,33.4,27.2,60.5,60.5,60.5h71.9L465.2,462.9
		L465.2,462.9z M489.8,344.1h-4.9h-91.5c-22.5,0-40.9-18.3-40.9-40.9V299c0-22.5,18.3-40.9,40.9-40.9h91.5h4.9V344.1z M423.5,302
		c0,12-9.7,21.7-21.7,21.7c-12,0-21.7-9.7-21.7-21.7c0-12,9.7-21.7,21.7-21.7C413.7,280.3,423.5,290,423.5,302z"/>
</g>
</svg>
