<?xml version="1.0" encoding="utf-8"?>
<!-- Generator: Adobe Illustrator 22.0.1, SVG Export Plug-In . SVG Version: 6.00 Build 0)  -->
<svg version="1.1" id="Слой_1" xmlns="http://www.w3.org/2000/svg" xmlns:xlink="http://www.w3.org/1999/xlink" x="0px" y="0px"
	 viewBox="0 0 293.8 183.5" style="enable-background:new 0 0 293.8 183.5;" xml:space="preserve">
<style type="text/css">
	.st0{opacity:0.1;fill:#7A7A7A;enable-background:new    ;}
	.st1{fill:#FFFFFF;stroke:#555555;stroke-width:10;stroke-miterlimit:10;}
	.st2{fill:none;stroke:#555555;stroke-width:10;stroke-miterlimit:10;}
	.st3{fill:#FF0000;}
	.st4{font-family:'Optima-Regular';}
	.st5{font-size:24px;}
	.st6{fill:#555555;}
</style>
<g>
	<path class="st0" d="M289.2,162.2c0,10.7-63.5,19.3-141.8,19.3S5.6,172.8,5.6,162.2c0-10.7,63.5-19.3,141.8-19.3
		C225.8,142.9,289.2,151.5,289.2,162.2z"/>
	<g>
		<polygon class="st1" points="266.8,60.5 230.6,60.5 215.6,31.5 98.6,31.5 83.6,60.5 56.8,60.5 56.8,132.6 83.6,132.6 98.6,161.5 
			215.6,161.5 230.6,132.6 266.8,132.6 		"/>
		<line class="st2" x1="118.4" y1="17.7" x2="198.4" y2="17.7"/>
		<line class="st2" x1="41.2" y1="127.2" x2="41.2" y2="65.9"/>
		<line class="st2" x1="266.8" y1="145.9" x2="266.8" y2="47.1"/>
		<text transform="matrix(1 0 0 1 120.1134 87.3916)" class="st3 st4 st5">CHECK </text>
		<text transform="matrix(1 0 0 1 120.1134 116.1916)" class="st3 st4 st5">ENGINE</text>
		<rect x="41.5" y="73" class="st6" width="18" height="50"/>
		<rect x="133.4" y="17" class="st6" width="50" height="18"/>
	</g>
</g>
</svg>
