<?xml version="1.0" encoding="utf-8"?>
<!-- Generator: Adobe Illustrator 17.1.0, SVG Export Plug-In . SVG Version: 6.00 Build 0)  -->
<!DOCTYPE svg PUBLIC "-//W3C//DTD SVG 1.1//EN" "http://www.w3.org/Graphics/SVG/1.1/DTD/svg11.dtd">
<svg version="1.1" id="Слой_1" xmlns="http://www.w3.org/2000/svg" xmlns:xlink="http://www.w3.org/1999/xlink" x="0px" y="0px"
	 viewBox="0 652.8 612 139.2" enable-background="new 0 652.8 612 139.2" xml:space="preserve">
<g>
	<path d="M84.3,695.9c0,0.1,0,0.6-0.1,1.3c-1.8,10.6-2.7,19.7-2.7,27.4c0,0.4,0.6,10.8,1.7,31.1v1c0,1.3-0.6,2-1.8,2
		c-1.3,0-3.1,0.1-5.8,0.4c-2.6,0.3-4.4,0.4-5.7,0.4c-0.9,0-1.6-1.6-2-4.8c-0.4-3.3-0.9-4.8-1.3-4.8c-0.3,0-1.6,0.9-3.7,2.7
		c-2.7,2.3-5.3,4-7.7,5.1c-3.7,1.8-7.2,2.8-10.9,2.8c-8.9,0-16.5-3.5-22.7-10.8c-5.8-6.8-8.8-14.8-8.8-23.9c0-10.2,3-18.7,8.8-25.4
		c6.1-7,14.2-10.5,24.3-10.5c7.1,0,13.2,2.4,18.5,7.4c0.9,1,2,2.3,3.7,4c0.1,0.1,0.3,0.1,0.4,0.1c0.3,0,0.7-1.4,1.1-4.4
		c0.6-3,1.1-4.4,2-4.4c1.3,0,3.5,0.3,7,1C82.5,694.4,84.3,695.3,84.3,695.9z M66.7,724.8c0-5.7-1.7-10.5-5.1-14.6
		c-3.5-4.4-8.1-6.5-13.6-6.5s-10.2,2.1-13.9,6.5c-3.5,4.1-5.4,9.1-5.4,14.8c0,5.5,1.8,10.5,5.4,14.6c3.7,4.3,8.4,6.4,13.9,6.4
		c5.4,0,9.9-2.1,13.6-6.5C65,735.2,66.7,730.4,66.7,724.8z"/>
	<path d="M159.9,695.7c0,3.4-0.1,8.5-0.4,15.3c-0.3,6.8-0.4,11.9-0.4,15.3s0.1,8.4,0.3,15.2c0.1,6.8,0.3,11.8,0.3,15.2
		c0,1-0.4,1.6-1.3,1.8c-0.4,0.1-5.1,0.1-14.1,0.1c-0.6,0-0.9-1.7-1-5.3c-0.1-3.4-0.4-5.3-0.9-5.3c-0.3,0-0.6,0.1-1,0.6
		c-7.7,6.7-15.3,10.1-22.9,10.1c-10.2,0-16.9-3.7-20.3-11.1c-2-4.5-3-12.8-3-24.7c0-10.8,0.9-19.7,2.6-27.3c0.4-1.8,1.1-2.7,2.3-2.7
		c1.3,0,3.4,0,6,0c2.7,0,4.7,0,6,0c1,0,1.4,0.6,1.4,1.6c0,1.8-0.3,4.8-0.9,8.9c-0.7,4.5-1,7.7-1,9.5c-0.1,2.8-0.1,5.8-0.1,9.1
		c0,8.1,0.6,13.5,1.7,16.3c2,5,6.4,7.5,13.2,7.5c3,0,6.4-1.4,10.4-4.3c4.3-3,6.4-6,6.5-8.7c0.3-3.4,0.3-15.6,0.3-36.6
		c0-2.3,1-3.4,2.8-3.4h11.5C159.2,693.3,159.9,694.2,159.9,695.7z"/>
	<path d="M191.4,739.9c0-0.4,0.4-14.5,0.4-14.9c0.1-2,0.4-3,0.7-3c1.8,0,4.7,0.1,8.4,0.4c3.7,0.3,6.5,0.4,8.4,0.4c1.3,0,2-0.4,2-1.3
		c0-0.7,0-1.7,0-3.1c0-1.4,0-2.6,0-3.1c0-0.6,0.1-1.6,0.3-2.7c0.1-1.3,0.3-2.1,0.3-2.7c0-0.6-0.4-0.9-1.1-0.9h-16.6
		c-1.3,0-1.8-0.7-1.8-2c0-2,0.1-5.1,0.4-9.1c0.3-4.1,0.4-7.1,0.4-9.1c0-0.9-0.6-1.4-1.6-1.6c-8.2-1.4-12.6-2.1-13.1-2.1
		c-1.3,0-2,1.7-2,5.1c0,1.8,0,4.7,0.1,8.5s0.1,6.7,0.1,8.5s-1,2.7-3.1,2.8c-1.1,0-2.3,0-3.4,0c-1.3,0.3-2.1,0.9-2.3,2
		c-0.1,1.4-0.3,2.8-0.3,4.3c0,3.5,0.4,5.4,1.4,5.7c1.7,0,3.4,0,5.1,0c1.8,0.1,2.8,1.1,2.8,3c0,4-0.1,9.8-0.3,17.7l0.3-15.6
		c-0.1,8-0.6,13.8-0.6,17.7c0,9.8,5.4,14.8,16.2,14.8c8.1,0,14.1-0.9,17.9-2.7c0.7-0.3,1.1-0.7,1.3-1c0.1-0.1,0.1-0.7,0.1-1.6
		c0-0.7,0.1-2,0.4-4.3c0.1-1.7,0.3-3.1,0.3-4.1c0-0.9-0.3-1.3-0.9-1.3c-1.3,0-3.4,0.3-6.1,1c-2.7,0.7-4.8,1-6.2,1
		c-3.4,0-5.8-1.1-6.8-3.5c-0.7-1.6-1.1-4.4-1.1-8.4v-10.4"/>
	<path d="M285.4,724.8c0,9.7-3.1,17.9-9.5,24.7c-6.5,7.1-14.5,10.6-24,10.6c-9.7,0-17.6-3.5-24.1-10.5c-6.4-6.8-9.5-15.1-9.5-24.7
		s3.1-17.9,9.5-24.7c6.5-7,14.6-10.4,24.1-10.4s17.5,3.4,24,10.4C282.1,707.1,285.4,715.3,285.4,724.8z M270.8,725
		c0-5.7-1.7-10.5-5.3-14.5c-3.5-4.3-8.2-6.2-13.8-6.2c-5.5,0-10.1,2.1-13.8,6.2c-3.4,4-5.3,8.8-5.3,14.5c0,5.5,1.7,10.4,5.3,14.5
		c3.7,4.3,8.2,6.4,13.8,6.4c5.5,0,10.1-2.1,13.8-6.4C269.1,735.3,270.8,730.5,270.8,725z"/>
</g>
<path d="M596.4,767.7c0,9.1-7.7,16.5-17,16.5h-267c-9.4,0-17-7.4-17-16.5v-83.9c0-9.1,7.7-16.5,17-16.5h267c9.4,0,17,7.4,17,16.5
	V767.7z"/>
<g>
	<path fill="#FFFFFF" d="M391.2,728.5c0,10.1-2.8,18.9-8.7,26.4c-5.7,7.5-13.6,11.4-23.6,11.4c-7.4,0-12.5-1.6-15.2-4.7h-0.9
		c0,11.4-0.1,12.9,0.3,24.4l-18,0.1c0.9-13.2,0.7-18.7,0.7-36.1c0-22.4-1.1-39.5-3.5-51.1l17.7-2l1,6h1.1c5-4.5,11.6-6.8,20.2-6.8
		c8.9,0,15.9,3.3,21,9.7C388.6,712.1,391.2,719.7,391.2,728.5z M372.9,730.4c0-5.8-1.4-10.8-4.4-15.1s-7-6.2-12.1-6.2
		c-6.4,0-11.1,1.8-14.1,5.7c0.7,12.9,1,24.8,1,35.6c3,2.3,6.7,3.4,11.4,3.4c6.1,0,10.6-2.3,13.6-6.8
		C371.3,742.3,372.9,736.8,372.9,730.4z"/>
	<path fill="#FFFFFF" d="M449.6,698.4l-4,16.2c-3.4-1.4-7-2.1-10.4-2.1c-6.8,0-11.2,3-13.5,9.1c0,18.5,0.1,32.7,0.4,42.6h-18.5
		c0.9-13.9,1.1-25.3,1.1-34.1c0-10.9-1.1-21.4-3.4-31.2l17.7-2c0.9,5.1,1.1,8.1,1.1,8.9h1.1c4.3-6.5,9.9-9.8,17-9.8
		C441.6,696.2,445.4,696.9,449.6,698.4z"/>
	<path fill="#FFFFFF" d="M522.1,764.3H501c0-1.7-3.5-7.5-10.5-17.3S479,732.2,477,732.2h-0.9c0,9.5,0.3,20.2,0.9,32.2h-18.3
		c0.6-21.6,0.9-38.8,0.9-51.5c0-17.6-0.7-33.1-2.1-46h19.2c-0.7,17.6-0.4,32.2-0.4,46c0,1.7,0,5.1,0,10.2h1c1.3,0,5-3.7,11.1-11.2
		s9.1-11.9,9.1-13.3H518c0,1.4-3.1,5.4-9.4,11.9s-11.4,11.1-15.2,13.6v1c4.3,3,10.2,9.8,17.7,20.4
		C518.7,756.2,522.1,762.5,522.1,764.3z"/>
	<g>
		<path fill="#FFFFFF" d="M573.7,750.7l-1.2,13c-3.4,1.5-7.7,2.2-12.9,2.2c-7.9,0-13.9-2.1-17.9-6.4c-4-4.3-6-12.6-6-24.8
			c0-7.4,0-15.7,0.1-25c-2.5,0-5.9,0.1-10.1,0.4l0.5-14.4c3.8,0.3,7.3,0.4,10.5,0.4c0-2.6,0.2-9.4,0.6-20.4l17.4-2.1
			c-0.7,9.7-1.1,17.2-1.1,22.6c4.1,0,10.2-0.2,18.4-0.6l-0.6,14.6c-7.4-0.3-13.5-0.4-18.1-0.4c-0.1,6.5-0.1,13.3-0.1,20.4
			c0,8.7,0.9,14.5,2.6,17.5s4.9,4.4,9.3,4.4C567.7,751.9,570.6,751.5,573.7,750.7z"/>
	</g>
</g>
</svg>
