<?xml version="1.0" encoding="utf-8"?>
<!-- Generator: Adobe Illustrator 22.0.1, SVG Export Plug-In . SVG Version: 6.00 Build 0)  -->
<svg version="1.1" id="Слой_1" xmlns="http://www.w3.org/2000/svg" xmlns:xlink="http://www.w3.org/1999/xlink" x="0px" y="0px"
	 viewBox="0 0 200 109.3" style="enable-background:new 0 0 200 109.3;" xml:space="preserve">
<style type="text/css">
	.st0{fill-rule:evenodd;clip-rule:evenodd;fill:#FFFFFF;}
</style>
<path class="st0" d="M100,4.9C45.9,4.9,2,27,2,54.3c0,22.1,28.8,40.8,68.5,47.1l0,0L100,30.8l29.5,70.6l0,0
	c39.7-6.3,68.5-25,68.5-47.1C198,27,154.1,4.9,100,4.9L100,4.9L100,4.9L100,4.9L100,4.9z M145,79.1l-45-52.3L55.2,79l0,0
	c-22.1-6.2-36.6-17-36.6-30.2C18.5,27.7,54.7,8,99.9,8c45.2,0,82.2,19.7,82.2,40.8C182.2,62.1,167.4,73,145,79.1L145,79.1L145,79.1
	L145,79.1L145,79.1z"/>
</svg>
