<?xml version="1.0" encoding="iso-8859-1"?>
<!-- Generator: Adobe Illustrator 19.0.0, SVG Export Plug-In . SVG Version: 6.00 Build 0)  -->
<svg version="1.1" id="Layer_1" xmlns="http://www.w3.org/2000/svg" xmlns:xlink="http://www.w3.org/1999/xlink" x="0px" y="0px"
	 viewBox="0 0 511.999 511.999" style="enable-background:new 0 0 511.999 511.999;" xml:space="preserve">
<path style="fill:#FFDA44;" d="M402.8,68.743c-81.075-81.075-212.525-81.075-293.6,0s-82.701,214.184,0,293.6
	C145.206,396.92,256,500.972,256,500.972S366.793,396.92,402.8,362.343C485.501,282.927,483.875,149.819,402.8,68.743z"/>
<path style="fill:#EEBF00;" d="M152.743,403.712C198.381,446.859,256,500.97,256,500.97s110.793-104.052,146.8-138.628
	c63.374-60.857,77.227-153.243,43.759-229.582C389.702,258.393,283.532,356.935,152.743,403.712z"/>
<g>
	<rect x="70.576" y="208.371" style="fill:#FFFFFF;" width="16.077" height="16.077"/>
	<rect x="422.67" y="208.371" style="fill:#FFFFFF;" width="16.077" height="16.077"/>
	<path style="fill:#FFFFFF;" d="M256.536,74.39c-8.571,0-16.959,0.778-25.102,2.26l-45.038,16.682
		c-41.381,24.159-69.196,69.021-69.196,120.394c0,76.953,62.383,139.336,139.336,139.336s139.336-62.383,139.336-139.336
		S333.489,74.39,256.536,74.39z"/>
</g>
<path d="M245.067,243.2v52.197H208.84V139.234h55.091c11.003,0,20.453,1.304,28.349,3.912c7.895,2.609,14.398,6.199,19.507,10.772
	c5.108,4.573,8.878,9.968,11.308,16.184c2.429,6.217,3.644,12.934,3.644,20.15c0,7.789-1.251,14.936-3.751,21.436
	c-2.502,6.503-6.324,12.076-11.468,16.72c-5.145,4.645-11.666,8.271-19.561,10.879c-7.896,2.61-17.239,3.912-28.028,3.912
	L245.067,243.2L245.067,243.2z M245.067,215.869h18.864c9.432,0,16.22-2.251,20.364-6.752c4.144-4.502,6.216-10.788,6.216-18.864
	c0-3.572-0.536-6.823-1.608-9.754c-1.072-2.928-2.699-5.448-4.877-7.556c-2.18-2.107-4.93-3.733-8.253-4.877
	c-3.323-1.143-7.272-1.715-11.844-1.715h-18.864L245.067,215.869L245.067,215.869z"/>
<path style="fill:#E0E0E2;" d="M395.701,220.616c-37.79,52.476-85.282,97.496-139.852,132.435c0.229,0.001,0.458,0.009,0.687,0.009
	C331.178,353.061,392.108,294.368,395.701,220.616z"/>
<path d="M256,511.999l-5.503-5.168c-1.108-1.041-111.238-104.478-146.864-138.689c-40.614-39-63.299-91.912-63.878-148.99
	c-0.289-28.576,4.957-56.539,15.595-83.115c10.988-27.452,27.194-52.005,48.166-72.978c84.079-84.079,220.888-84.079,304.967,0
	c20.972,20.972,37.178,45.525,48.166,72.978c10.638,26.576,15.884,54.539,15.595,83.115c-0.579,57.077-23.264,109.989-63.878,148.99
	C372.74,402.353,262.611,505.79,261.502,506.831L256,511.999z M256,16.069c-51.105,0-102.21,19.452-141.116,58.358
	c-38.074,38.074-59.598,90.765-59.053,144.561c0.535,52.721,21.465,101.573,58.937,137.555
	C145.729,386.276,233.162,468.478,256,489.939c22.838-21.461,110.27-103.665,141.232-133.396
	c37.472-35.983,58.402-84.834,58.937-137.555c0.546-53.796-20.979-106.488-59.053-144.561C358.21,35.522,307.105,16.069,256,16.069z
	"/>
<path d="M264.574,457.563h-16.077v-16.077h16.077V457.563z M264.574,425.409h-16.077v-16.077h16.077V425.409z M264.574,393.254
	h-16.077v-12.862h16.077V393.254z"/>
<path d="M203.986,93.386l-6.442-14.73c5.179-2.265,10.466-4.229,15.715-5.84l4.715,15.371
	C213.31,89.616,208.604,91.365,203.986,93.386z"/>
<path d="M256.536,361.1c-81.263,0-147.374-66.112-147.374-147.374c0-26.224,6.981-51.977,20.187-74.472
	c12.81-21.822,31.135-40.102,52.995-52.864l8.106,13.884c-40.223,23.482-65.21,66.955-65.21,113.451
	c0,72.398,58.899,131.297,131.297,131.297s131.297-58.899,131.297-131.297S328.933,82.428,256.536,82.428
	c-7.935,0-15.896,0.717-23.663,2.131l-2.879-15.818c8.714-1.585,17.644-2.39,26.541-2.39c81.263,0,147.374,66.112,147.374,147.374
	S337.798,361.1,256.536,361.1z"/>
<g>
</g>
<g>
</g>
<g>
</g>
<g>
</g>
<g>
</g>
<g>
</g>
<g>
</g>
<g>
</g>
<g>
</g>
<g>
</g>
<g>
</g>
<g>
</g>
<g>
</g>
<g>
</g>
<g>
</g>
</svg>
