<?xml version="1.0"?>
<svg xmlns="http://www.w3.org/2000/svg" height="512px" viewBox="-54 0 512 512" width="512px" class=""><g><path d="m246 183c0-23.433594-19.066406-42.5-42.5-42.5s-42.5 19.066406-42.5 42.5 19.066406 42.5 42.5 42.5 42.5-19.066406 42.5-42.5zm-70 0c0-15.164062 12.335938-27.5 27.5-27.5s27.5 12.335938 27.5 27.5-12.335938 27.5-27.5 27.5-27.5-12.335938-27.5-27.5zm0 0" data-original="#000000" class="active-path" data-old_color="#000000" fill="#FFFFFF"/><path d="m290 183c0-47.695312-38.804688-86.5-86.5-86.5s-86.5 38.804688-86.5 86.5 38.804688 86.5 86.5 86.5 86.5-38.804688 86.5-86.5zm-158 0c0-39.425781 32.074219-71.5 71.5-71.5s71.5 32.074219 71.5 71.5-32.074219 71.5-71.5 71.5-71.5-32.074219-71.5-71.5zm0 0" data-original="#000000" class="active-path" data-old_color="#000000" fill="#FFFFFF"/><path d="m62.90625 74.164062c1.421875 1.242188 3.179688 1.851563 4.929688 1.851563 2.089843 0 4.171874-.871094 5.652343-2.570313 4.433594-5.074218 9.214844-9.941406 14.214844-14.464843 3.070313-2.777344 3.3125-7.519531.53125-10.59375-2.777344-3.070313-7.519531-3.308594-10.59375-.53125-5.4375 4.914062-10.636719 10.207031-15.453125 15.726562-2.722656 3.121094-2.402344 7.859375.71875 10.582031zm0 0" data-original="#000000" class="active-path" data-old_color="#000000" fill="#FFFFFF"/><path d="m380.5 467h-34.5v-19c0-4.144531-3.355469-7.5-7.5-7.5s-7.5 3.355469-7.5 7.5v19h-259v-57.179688c0-27.28125 16.757812-51.429687 42.015625-61.046874 26.199219 14.175781 56.167969 22.226562 87.984375 22.226562 31.648438 0 61.46875-7.96875 87.566406-22 24.910156 9.773438 41.433594 33.828125 41.433594 60.820312v5.804688c0 4.144531 3.355469 7.5 7.5 7.5s7.5-3.355469 7.5-7.5v-5.804688c0-29.460937-16.011719-56.078124-41.035156-70.089843 49.730468-33.304688 82.535156-90.007813 82.535156-154.230469 0-102.285156-83.214844-185.5-185.5-185.5-34.679688 0-68.5 9.632812-97.808594 27.855469-3.519531 2.183593-4.597656 6.808593-2.410156 10.328125 2.1875 3.515625 6.8125 4.597656 10.328125 2.410156 26.929687-16.742188 58.015625-25.59375 89.890625-25.59375 94.015625 0 170.5 76.484375 170.5 170.5s-76.484375 170.5-170.5 170.5-170.5-76.484375-170.5-170.5c0-30.804688 8.300781-60.984375 24-87.277344 2.125-3.558594.964844-8.160156-2.59375-10.285156-3.554688-2.125-8.160156-.960938-10.285156 2.59375-17.089844 28.621094-26.121094 61.460938-26.121094 94.96875 0 64.023438 32.601562 120.574219 82.074219 153.921875-25.351563 13.910156-41.574219 40.640625-41.574219 70.398437v57.179688h-34.5c-12.40625 0-22.5 10.09375-22.5 22.5s10.09375 22.5 22.5 22.5h358c12.40625 0 22.5-10.09375 22.5-22.5s-10.09375-22.5-22.5-22.5zm0 30h-358c-4.136719 0-7.5-3.363281-7.5-7.5s3.363281-7.5 7.5-7.5h358c4.136719 0 7.5 3.363281 7.5 7.5s-3.363281 7.5-7.5 7.5zm0 0" data-original="#000000" class="active-path" data-old_color="#000000" fill="#FFFFFF"/><path d="m185.128906 402.703125c-3.609375-2.035156-8.183594-.757813-10.21875 2.851563-2.558594 4.535156-3.910156 9.707031-3.910156 14.945312 0 16.816406 13.683594 30.5 30.5 30.5s30.5-13.683594 30.5-30.5c0-5.238281-1.351562-10.410156-3.910156-14.945312-2.035156-3.609376-6.609375-4.886719-10.21875-2.851563-3.605469 2.035156-4.882813 6.609375-2.847656 10.21875 1.292968 2.292969 1.976562 4.914063 1.976562 7.578125 0 8.546875-6.953125 15.5-15.5 15.5s-15.5-6.953125-15.5-15.5c0-2.664062.683594-5.285156 1.976562-7.578125 2.035157-3.609375.757813-8.183594-2.847656-10.21875zm0 0" data-original="#000000" class="active-path" data-old_color="#000000" fill="#FFFFFF"/><path d="m209 416.5v-25c0-4.144531-3.355469-7.5-7.5-7.5s-7.5 3.355469-7.5 7.5v25c0 4.144531 3.355469 7.5 7.5 7.5s7.5-3.355469 7.5-7.5zm0 0" data-original="#000000" class="active-path" data-old_color="#000000" fill="#FFFFFF"/></g> </svg>
