<?xml version="1.0" encoding="utf-8"?>
<!-- Generator: Adobe Illustrator 17.0.0, SVG Export Plug-In . SVG Version: 6.00 Build 0)  -->
<!DOCTYPE svg PUBLIC "-//W3C//DTD SVG 1.1//EN" "http://www.w3.org/Graphics/SVG/1.1/DTD/svg11.dtd">
<svg version="1.1" id="Layer_1" xmlns="http://www.w3.org/2000/svg" xmlns:xlink="http://www.w3.org/1999/xlink" x="0px" y="0px"
	 width="300px" height="300px" viewBox="0 0 300 300" enable-background="new 0 0 300 300" xml:space="preserve">
<g display="none">
	<polygon display="inline" fill="#080708" points="200.556,231.274 99.444,231.274 67.75,213.493 232.25,213.493 	"/>
	<g display="inline">
		<path fill="#333842" d="M8.469,206.936v36.759c0,3.468,2.887,6.305,6.416,6.305h30.539c3.529,0,6.416-2.837,6.416-6.305v-36.759
			H8.469z"/>
		<path fill="#333842" d="M248.225,206.936v36.759c0,3.468,2.887,6.305,6.416,6.305h30.539c3.529,0,6.416-2.837,6.416-6.305v-36.759
			H248.225z"/>
		<rect x="43.306" y="208.512" fill="#333842" width="213.388" height="14.565"/>
	</g>
	<path display="inline" fill="#FBD303" d="M294.739,124.59c-1.668-4.035-13.152-18.537-16.039-18.537
		c-2.887,0-12.703-2.837-14.371-5.233c-1.668-2.396-25.855-44.01-34.068-47.226C223.139,50.82,151.155,50,150,50
		s-73.204,0.82-80.261,3.594c-8.212,3.216-32.464,44.767-34.068,47.226c-1.668,2.396-11.484,5.233-14.371,5.233
		S6.929,120.555,5.261,124.59c-1.668,4.035,3.272,85.939,3.721,92.812c0.385,6.873,41.638,6.179,42.729,4.855
		c4.17-5.233,6.993-5.233,6.993-5.233l91.36,3.153l91.36-3.153c0,0,2.823,0,6.993,5.233c1.027,1.324,42.28,2.018,42.729-4.855
		C291.467,210.593,296.407,128.625,294.739,124.59z"/>
	<g display="inline">
		<polygon fill="#F8B517" points="38.751,104.855 30.86,86.633 6.287,86.633 0,95.712 6.287,104.855 31.245,104.855 		"/>
		<polygon fill="#F8B517" points="261.249,104.855 269.14,86.633 293.713,86.633 300,95.712 293.713,104.855 268.755,104.855 		"/>
	</g>
	<path display="inline" fill="#333842" d="M150,140.29l-124.658-7.125v10.404c0,5.233,3.914,9.647,9.239,10.34l115.483,15.069
		l115.483-15.069c5.261-0.694,9.239-5.107,9.239-10.34v-10.404L150,140.29z"/>
	<path display="inline" fill="#6EB1E1" d="M255.346,97.163c-7.25-11.097-14.5-23.077-21.749-35.561
		c-0.513-0.946-1.476-1.513-2.502-1.576c-54.085-2.585-108.234-2.585-162.254,0c-1.027,0.063-1.989,0.631-2.502,1.576
		c-7.25,12.484-14.5,24.401-21.749,35.561c-1.219,1.892,0.192,4.414,2.502,4.603c69.739-3.468,138.067-3.594,205.689,0
		C255.154,101.639,256.565,99.054,255.346,97.163z"/>
	<ellipse display="inline" fill="#FFFFFC" cx="43.884" cy="144.956" rx="7.827" ry="7.692"/>
	<ellipse display="inline" fill="#DEDEDF" cx="61.976" cy="146.469" rx="7.442" ry="7.314"/>
	<ellipse display="inline" fill="#4F5565" cx="34.902" cy="186.444" rx="11.356" ry="11.16"/>
	<ellipse display="inline" fill="#FFFFFF" cx="34.902" cy="186.444" rx="7.827" ry="7.692"/>
	<ellipse display="inline" fill="#FFFFFC" cx="256.116" cy="144.956" rx="7.827" ry="7.692"/>
	<ellipse display="inline" fill="#DEDEDF" cx="238.024" cy="146.469" rx="7.442" ry="7.314"/>
	<ellipse display="inline" fill="#4F5565" cx="265.098" cy="186.444" rx="11.356" ry="11.16"/>
	<ellipse display="inline" fill="#FFFFFF" cx="265.098" cy="186.444" rx="7.827" ry="7.692"/>
	<path display="inline" fill="#4F5565" d="M234.367,198.298c-1.861-7.188-9.046-12.799-16.232-12.799H75.898
		c-7.186,0-14.371,5.612-16.232,12.799l-2.181,8.638h179.127L234.367,198.298z"/>
	<path display="inline" fill="#646B79" d="M150,93.38c-61.206,0-54.341,6.431-54.341,6.431l6.801,18.159l47.476,3.342l47.476-3.342
		l6.801-18.159C204.341,99.874,211.206,93.38,150,93.38z"/>
	<path display="inline" fill="#FBD303" d="M150,93.38c-2.823,0-5.453,0-8.02,0.063v27.364l8.02,0.567l7.956-0.567V93.443
		C155.453,93.38,152.823,93.38,150,93.38z"/>
</g>
<g display="none">
	<g display="inline">
		<polygon fill="#EDE9DC" points="241.58,72.414 169.167,0 8.822,0 8.822,300 241.58,300 		"/>
		<g>
			<path fill="#D3CEB9" d="M60.546,118.966h129.31c2.855,0,5.172-2.312,5.172-5.172s-2.317-5.172-5.172-5.172H60.546
				c-2.855,0-5.172,2.312-5.172,5.172S57.691,118.966,60.546,118.966z"/>
			<path fill="#D3CEB9" d="M60.546,77.586h51.724c2.855,0,5.172-2.312,5.172-5.172c0-2.86-2.317-5.172-5.172-5.172H60.546
				c-2.855,0-5.172,2.312-5.172,5.172C55.373,75.274,57.691,77.586,60.546,77.586z"/>
			<path fill="#D3CEB9" d="M189.856,150H60.546c-2.855,0-5.172,2.312-5.172,5.172c0,2.86,2.317,5.172,5.172,5.172h129.31
				c2.855,0,5.172-2.312,5.172-5.172C195.029,152.312,192.711,150,189.856,150z"/>
			<path fill="#D3CEB9" d="M189.856,191.379H60.546c-2.855,0-5.172,2.312-5.172,5.172s2.317,5.172,5.172,5.172h129.31
				c2.855,0,5.172-2.312,5.172-5.172S192.711,191.379,189.856,191.379z"/>
			<path fill="#D3CEB9" d="M189.856,232.759H60.546c-2.855,0-5.172,2.312-5.172,5.172s2.317,5.172,5.172,5.172h129.31
				c2.855,0,5.172-2.312,5.172-5.172S192.711,232.759,189.856,232.759z"/>
		</g>
		<polygon fill="#D3CEB9" points="169.167,0 169.167,72.414 241.58,72.414 		"/>
	</g>
	<g display="inline">
		<circle fill="#51AE91" cx="231.236" cy="237.931" r="62.069"/>
		<path fill="#FFFFFF" d="M265.223,207.822c-2.353-1.634-5.571-1.055-7.2,1.293l-28.945,41.586l-20.426-16.769
			c-2.203-1.816-5.467-1.49-7.278,0.719c-1.816,2.209-1.495,5.467,0.719,7.278l24.755,20.322c0.931,0.76,2.09,1.174,3.279,1.174
			c0.233,0,0.471-0.016,0.709-0.047c1.428-0.202,2.71-0.983,3.538-2.167l32.141-46.184
			C268.146,212.679,267.567,209.457,265.223,207.822z"/>
	</g>
</g>
<g display="none">
	<path display="inline" fill="#EEF1F9" d="M76.291,296.891l-0.001-46.372c0-9.468,2.92-18.709,8.369-26.482l50.098-71.459
		L84.658,80.563c-5.449-7.833-8.37-17.146-8.37-26.688l0-46.734l149.549-0.002l0,46.734c0,9.542-2.92,18.855-8.37,26.688
		l-50.098,72.017l50.1,71.458c5.449,7.772,8.37,17.013,8.37,26.481l0.001,46.372"/>
	<g display="inline">
		<path fill="#E6CFAE" d="M118.124,95.934c0,0,32.646,46.979,32.94,47.501c0.293-0.522,32.938-47.502,32.938-47.502L118.124,95.934z
			"/>
	</g>
	<path display="inline" fill="#E2E8F4" d="M76.287,53.875c0,9.542,2.922,18.855,8.371,26.688l50.099,72.015l-50.098,71.459
		c-5.448,7.772-8.37,17.013-8.369,26.482l0.001,46.372l50.498-0.001l0.081-43.688c0.027-14.612,1.814-28.691,5.008-39.457
		l14.325-48.287c0.958-3.23,1.494-7.453,1.502-11.837c0.008-4.384-0.513-8.609-1.458-11.842l-14.146-48.342
		c-3.154-10.777-4.888-24.862-4.861-39.474l0.087-46.823L76.286,7.141L76.287,53.875z"/>
	<g display="inline">
		<path fill="#DDC09F" d="M143.55,132.559l-10.717-36.624l-14.71,0C118.124,95.934,133.828,118.535,143.55,132.559z"/>
	</g>
	<path display="inline" fill="#000002" d="M235.195,292.507c-0.003,0-0.006,0-0.009,0l-4.966,0l-0.001-41.99
		c0-10.419-3.17-20.445-9.164-28.997l-48.343-68.952l48.35-69.506c5.989-8.609,9.154-18.704,9.154-29.191l0-42.353l4.966,0
		c2.42,0,4.382-1.962,4.381-4.381c-0.001-2.416-1.958-4.376-4.374-4.38c-0.003,0-0.006,0-0.009,0l-9.335,0c-0.001,0-0.002,0-0.003,0
		c-0.003,0-0.006,0-0.009,0c-0.001,0-0.002,0-0.003,0L66.94,2.76c-2.42,0-4.382,1.962-4.381,4.381c0,2.417,1.957,4.377,4.373,4.381
		c0.003,0,0.006,0,0.009,0l4.966,0l0,42.353c0,10.487,3.166,20.581,9.155,29.19l48.352,69.505l-48.341,68.953
		c-5.995,8.551-9.163,18.579-9.163,28.997l0.001,41.99l-4.966,0c-2.42,0-4.382,1.962-4.381,4.381c0,2.417,1.957,4.377,4.373,4.381
		c0.003,0,0.006,0,0.009,0l168.242-0.003c2.42,0,4.382-1.962,4.381-4.381C239.567,294.471,237.611,292.512,235.195,292.507z
		 M80.672,250.519c0-8.609,2.619-16.896,7.576-23.966l50.097-71.459c1.055-1.505,1.059-3.508,0.009-5.017l-50.1-72.016
		c-4.963-7.133-7.586-15.497-7.586-24.186l0-42.353l140.786-0.002l0,42.353c0,8.689-2.623,17.052-7.585,24.186l-50.098,72.018
		c-1.05,1.509-1.046,3.512,0.009,5.017l50.099,71.458c4.957,7.069,7.576,15.357,7.577,23.966l0.001,41.991l-140.786,0.002
		L80.672,250.519z"/>
	<path display="inline" fill="#000002" d="M151.055,147.817c0.003,0,0.006,0,0.009,0c1.509,0,2.907-0.777,3.706-2.047
		c1.01-1.52,20.141-29.079,32.828-47.337c0.93-1.339,1.041-3.085,0.285-4.53c-0.754-1.443-2.246-2.349-3.875-2.352
		c-0.002,0-0.005,0-0.008,0l-65.877,0.001c-1.631,0-3.127,0.906-3.883,2.352c-0.756,1.445-0.646,3.191,0.285,4.53
		c12.687,18.257,31.82,45.815,32.83,47.336C148.154,147.038,149.548,147.814,151.055,147.817z M175.621,100.315
		c-13.893,19.999-20.954,30.183-24.559,35.396c-3.604-5.212-10.664-15.395-24.56-35.395L175.621,100.315z"/>
	<g display="inline">
		<path fill="#E6CFAE" d="M183.793,206.624c0,0-32.646-46.979-32.94-47.501c-0.293,0.522-32.938,47.502-32.938,47.502
			L183.793,206.624z"/>
	</g>
	<g display="inline">
		<path fill="#DDC09F" d="M158.366,170l10.717,36.624l14.71,0C183.793,206.624,168.088,184.024,158.366,170z"/>
	</g>
	<path display="inline" fill="#000002" d="M150.862,154.742c-0.003,0-0.006,0-0.009,0c-1.509,0-2.907,0.777-3.706,2.047
		c-1.01,1.52-20.141,29.079-32.828,47.337c-0.93,1.339-1.041,3.085-0.285,4.53c0.754,1.443,2.246,2.349,3.875,2.352
		c0.002,0,0.005,0,0.008,0l65.877-0.001c1.631,0,3.127-0.906,3.883-2.352c0.756-1.445,0.646-3.191-0.285-4.53
		c-12.687-18.257-31.82-45.815-32.83-47.336C153.763,155.52,152.369,154.745,150.862,154.742z M126.295,202.244
		c13.893-19.999,20.954-30.183,24.559-35.396c3.604,5.212,10.664,15.395,24.56,35.395L126.295,202.244z"/>
	<path display="inline" fill="#000002" d="M194.502,80.837c0.76,0.529,1.629,0.783,2.49,0.785c1.389,0.003,2.755-0.653,3.609-1.88
		l5.117-7.354c3.799-5.46,5.807-11.862,5.806-18.515l0-4.673c0-2.417-1.957-4.377-4.373-4.381c-0.003,0-0.006,0-0.009,0
		c-2.42,0-4.382,1.962-4.381,4.381l0,4.673c0,4.854-1.465,9.527-4.236,13.511l-5.117,7.354
		C192.026,76.725,192.516,79.455,194.502,80.837z"/>
	<path display="inline" fill="#000002" d="M207.133,34.887c0.003,0,0.006,0,0.009,0c2.42,0,4.382-1.962,4.381-4.381l0-4.673
		c0-2.42-1.987-4.386-4.381-4.381c-2.42,0-4.382,1.962-4.381,4.381l0,4.673C202.761,32.922,204.718,34.883,207.133,34.887z"/>
	<path display="inline" fill="#000002" d="M114.687,226.258c-0.76-0.529-1.629-0.783-2.49-0.785
		c-1.388-0.003-2.755,0.653-3.609,1.88l-5.117,7.354c-3.799,5.46-5.807,11.862-5.806,18.515l0,4.673
		c0,2.417,1.957,4.377,4.373,4.381c0.003,0,0.006,0,0.009,0c2.42,0,4.382-1.962,4.381-4.381l0-4.673
		c0-4.854,1.465-9.527,4.236-13.511l5.117-7.354C117.163,230.37,116.674,227.64,114.687,226.258z"/>
	<path display="inline" fill="#000002" d="M102.056,272.208c-0.003,0-0.006,0-0.009,0c-2.42,0-4.382,1.962-4.381,4.381l0,4.673
		c0,2.42,1.987,4.386,4.381,4.381c2.42,0,4.382-1.962,4.381-4.381l0-4.673C106.428,274.173,104.472,272.213,102.056,272.208z"/>
</g>
<g display="none">
	<g transform="translate(5 1)" display="inline">
		<g>
			<path fill="#E0EDDB" d="M69.35,23.161v61.37H48.894c0-40.914-30.685-20.457-30.685-61.37H69.35z M222.776,115.216h51.142
				c0,40.914-30.685,20.457-30.685,61.37h-20.457V115.216z M222.776,207.271h51.142c0,40.914-30.685,20.457-30.685,61.37h-20.457
				V207.271z M222.776,23.161h51.142c0,40.914-30.685,20.457-30.685,61.37h-20.457V23.161z M69.35,207.271v61.37H48.894
				c0-40.914-30.685-20.457-30.685-61.37H69.35z M69.35,115.216v61.37H48.894c0-40.914-30.685-20.457-30.685-61.37H69.35z"/>
			<path fill="#E0EDDB" d="M202.319,2.704c11.251,0,20.457,9.206,20.457,20.457v61.37v30.685v61.37v30.685v61.37v10.229
				c0,11.251-9.206,20.457-20.457,20.457H89.807c-11.251,0-20.457-9.206-20.457-20.457v-10.229v-61.37v-30.685v-61.37V84.531v-61.37
				c0-11.251,9.206-20.457,20.457-20.457C89.807,2.704,202.319,2.704,202.319,2.704z"/>
		</g>
		<path fill="#9E9E9E" d="M146.063,207.271c19.945,0,35.799,15.854,35.799,35.799s-15.854,35.799-35.799,35.799
			s-35.799-15.854-35.799-35.799S126.118,207.271,146.063,207.271"/>
		<path fill="#9E9E9E" d="M146.063,115.216c19.945,0,35.799,15.854,35.799,35.799s-15.854,35.799-35.799,35.799
			s-35.799-15.854-35.799-35.799S126.118,115.216,146.063,115.216"/>
		<path fill="#D55E5E" d="M146.063,23.161c19.945,0,35.799,15.854,35.799,35.799s-15.854,35.799-35.799,35.799
			s-35.799-15.854-35.799-35.799S126.118,23.161,146.063,23.161"/>
	</g>
	<path display="inline" fill="#50555E" d="M207.319,302.884H94.807c-12.785,0-23.014-10.229-23.014-23.014v-51.142
		c0-1.534,1.023-2.557,2.557-2.557c1.534,0,2.557,1.023,2.557,2.557v51.142c0,9.717,8.182,17.9,17.9,17.9h112.511
		c9.717,0,17.9-8.182,17.9-17.9v-51.142c0-1.534,1.023-2.557,2.557-2.557s2.557,1.023,2.557,2.557v51.142
		C230.333,292.655,220.104,302.884,207.319,302.884z M151.063,282.427c-20.968,0-38.356-17.388-38.356-38.356
		s17.388-38.356,38.356-38.356s38.356,17.388,38.356,38.356S172.031,282.427,151.063,282.427z M151.063,210.828
		c-18.411,0-33.242,14.831-33.242,33.242s14.831,33.242,33.242,33.242s33.242-14.831,33.242-33.242S169.474,210.828,151.063,210.828
		z M248.233,272.199c-1.534,0-2.557-1.023-2.557-2.557c0-21.991,8.694-27.617,16.366-32.731c7.16-4.603,13.808-9.206,14.32-26.082
		h-48.585c-1.534,0-2.557-1.023-2.557-2.557v-71.599c0-1.534,1.023-2.557,2.557-2.557c1.534,0,2.557,1.023,2.557,2.557v69.041
		h48.585c1.534,0,2.557,1.023,2.557,2.557c0,21.991-8.694,27.617-16.366,32.731c-7.671,5.114-14.32,9.717-14.32,28.64
		C250.789,271.176,249.767,272.199,248.233,272.199z M53.894,272.199c-1.534,0-2.557-1.023-2.557-2.557
		c0-18.922-6.648-23.525-14.32-28.64c-7.671-5.114-16.366-10.74-16.366-32.731c0-1.534,1.023-2.557,2.557-2.557h48.585v-69.041
		c0-1.534,1.023-2.557,2.557-2.557c1.534,0,2.557,1.023,2.557,2.557v71.599c0,1.534-1.023,2.557-2.557,2.557H25.766
		c0.511,16.877,6.648,20.968,14.32,26.082c7.671,5.114,16.366,10.74,16.366,32.731C56.451,271.176,55.428,272.199,53.894,272.199z
		 M165.383,241.513c-0.511,0-1.534,0-2.045-0.511l-9.206-9.206c-1.023-1.023-1.023-2.045-0.511-3.068
		c0.511-1.023,2.045-1.534,3.069-1.023c5.114,1.534,9.206,5.626,10.74,10.74c0.511,1.023,0,2.557-1.023,3.068
		C166.405,241.002,165.894,241.513,165.383,241.513z M151.063,190.371c-20.968,0-38.356-17.388-38.356-38.356
		s17.388-38.356,38.356-38.356s38.356,17.388,38.356,38.356S172.031,190.371,151.063,190.371z M151.063,118.773
		c-18.411,0-33.242,14.831-33.242,33.242s14.831,33.242,33.242,33.242s33.242-14.831,33.242-33.242S169.474,118.773,151.063,118.773
		z M248.233,180.143c-1.534,0-2.557-1.023-2.557-2.557c0-21.991,8.694-27.617,16.366-32.731c7.16-4.603,13.808-9.206,14.32-26.082
		h-48.585c-1.534,0-2.557-1.023-2.557-2.557V44.617c0-1.534,1.023-2.557,2.557-2.557c1.534,0,2.557,1.023,2.557,2.557v69.041h48.585
		c1.534,0,2.557,1.023,2.557,2.557c0,21.991-8.694,27.617-16.366,32.731s-14.32,9.717-14.32,28.64
		C250.789,179.12,249.767,180.143,248.233,180.143z M53.894,180.143c-1.534,0-2.557-1.023-2.557-2.557
		c0-18.922-6.648-23.525-14.32-28.64c-7.671-5.114-16.366-10.74-16.366-32.731c0-1.534,1.023-2.557,2.557-2.557h48.585V44.617
		c0-1.534,1.023-2.557,2.557-2.557c1.534,0,2.557,1.023,2.557,2.557v71.599c0,1.534-1.023,2.557-2.557,2.557H25.766
		c0.511,16.877,6.648,20.968,14.32,26.082s16.366,10.74,16.366,32.731C56.451,179.12,55.428,180.143,53.894,180.143z
		 M165.383,149.458c-0.511,0-1.534,0-2.045-0.511l-9.206-9.206c-1.023-1.023-1.023-2.045-0.511-3.068
		c0.511-1.023,2.045-1.534,3.069-1.023c5.114,2.045,9.206,5.626,10.74,10.74c0.511,1.023,0,2.557-1.023,3.069
		C166.405,148.946,165.894,149.458,165.383,149.458z M151.063,98.316c-20.968,0-38.356-17.388-38.356-38.356
		s17.388-38.356,38.356-38.356s38.356,17.388,38.356,38.356S172.031,98.316,151.063,98.316z M151.063,26.718
		c-18.411,0-33.242,14.831-33.242,33.242s14.831,33.242,33.242,33.242s33.242-14.832,33.242-33.243S169.474,26.718,151.063,26.718z
		 M248.233,88.088c-1.534,0-2.557-1.023-2.557-2.557c0-21.991,8.694-27.617,16.366-32.731c7.16-4.603,13.808-9.206,14.32-26.082
		h-48.585c-1.534,0-2.557-1.023-2.557-2.557c0-9.717-8.182-17.9-17.9-17.9H94.807c-9.717,0-17.9,8.183-17.9,17.9
		c0,1.534-1.023,2.557-2.557,2.557H25.766c0.511,16.877,6.648,20.968,14.32,26.082s16.366,10.74,16.366,32.731
		c0,1.534-1.023,2.557-2.557,2.557s-2.557-1.023-2.557-2.557c0-18.922-6.648-23.525-14.32-28.64s-16.366-10.74-16.366-32.731
		c0-1.534,1.023-2.557,2.557-2.557h48.585C72.816,10.352,83.044,1.147,94.807,1.147h112.512c11.763,0,21.48,9.206,23.014,20.457
		h48.585c1.534,0,2.557,1.023,2.557,2.557c0,21.991-8.694,27.617-16.366,32.731s-14.32,9.717-14.32,28.64
		C250.789,87.065,249.767,88.088,248.233,88.088z M165.383,57.403c-0.511,0-1.534,0-2.045-0.511l-9.206-9.206
		c-1.023-1.023-1.023-2.045-0.511-3.069c0.511-1.023,2.045-1.534,3.069-1.023c5.114,2.045,9.206,5.626,10.74,10.74
		c0.511,1.023,0,2.557-1.023,3.069C166.405,56.891,165.894,57.403,165.383,57.403z"/>
</g>
<g display="none">
	<g transform="translate(5 1)" display="inline">
		<g>
			<path fill="#E0EDDB" d="M69.35,23.161v61.37H48.894c0-40.914-30.685-20.457-30.685-61.37H69.35z M222.776,115.216h51.142
				c0,40.914-30.685,20.457-30.685,61.37h-20.457V115.216z M222.776,207.271h51.142c0,40.914-30.685,20.457-30.685,61.37h-20.457
				V207.271z M222.776,23.161h51.142c0,40.914-30.685,20.457-30.685,61.37h-20.457V23.161z M69.35,207.271v61.37H48.894
				c0-40.914-30.685-20.457-30.685-61.37H69.35z M69.35,115.216v61.37H48.894c0-40.914-30.685-20.457-30.685-61.37H69.35z"/>
			<path fill="#E0EDDB" d="M202.319,2.704c11.251,0,20.457,9.206,20.457,20.457v61.37v30.685v61.37v30.685v61.37v10.229
				c0,11.251-9.206,20.457-20.457,20.457H89.807c-11.251,0-20.457-9.206-20.457-20.457v-10.229v-61.37v-30.685v-61.37V84.531v-61.37
				c0-11.251,9.206-20.457,20.457-20.457C89.807,2.704,202.319,2.704,202.319,2.704z"/>
		</g>
		<path fill="#5CAE64" d="M146.063,207.271c19.945,0,35.799,15.854,35.799,35.799s-15.854,35.799-35.799,35.799
			s-35.799-15.854-35.799-35.799S126.118,207.271,146.063,207.271"/>
		<path fill="#9E9E9E" d="M146.063,115.216c19.945,0,35.799,15.854,35.799,35.799s-15.854,35.799-35.799,35.799
			s-35.799-15.854-35.799-35.799S126.118,115.216,146.063,115.216"/>
		<path fill="#9E9E9E" d="M146.063,23.161c19.945,0,35.799,15.854,35.799,35.799s-15.854,35.799-35.799,35.799
			s-35.799-15.854-35.799-35.799S126.118,23.161,146.063,23.161"/>
	</g>
	<path display="inline" fill="#50555E" d="M207.319,302.884H94.807c-12.785,0-23.014-10.229-23.014-23.014v-51.142
		c0-1.534,1.023-2.557,2.557-2.557c1.534,0,2.557,1.023,2.557,2.557v51.142c0,9.717,8.182,17.9,17.9,17.9h112.511
		c9.717,0,17.9-8.182,17.9-17.9v-51.142c0-1.534,1.023-2.557,2.557-2.557s2.557,1.023,2.557,2.557v51.142
		C230.333,292.655,220.104,302.884,207.319,302.884z M151.063,282.427c-20.968,0-38.356-17.388-38.356-38.356
		s17.388-38.356,38.356-38.356s38.356,17.388,38.356,38.356S172.031,282.427,151.063,282.427z M151.063,210.828
		c-18.411,0-33.242,14.831-33.242,33.242s14.831,33.242,33.242,33.242s33.242-14.831,33.242-33.242S169.474,210.828,151.063,210.828
		z M248.233,272.199c-1.534,0-2.557-1.023-2.557-2.557c0-21.991,8.694-27.617,16.366-32.731c7.16-4.603,13.808-9.206,14.32-26.082
		h-48.585c-1.534,0-2.557-1.023-2.557-2.557v-71.599c0-1.534,1.023-2.557,2.557-2.557c1.534,0,2.557,1.023,2.557,2.557v69.041
		h48.585c1.534,0,2.557,1.023,2.557,2.557c0,21.991-8.694,27.617-16.366,32.731c-7.671,5.114-14.32,9.717-14.32,28.64
		C250.789,271.176,249.767,272.199,248.233,272.199z M53.894,272.199c-1.534,0-2.557-1.023-2.557-2.557
		c0-18.922-6.648-23.525-14.32-28.64c-7.671-5.114-16.366-10.74-16.366-32.731c0-1.534,1.023-2.557,2.557-2.557h48.585v-69.041
		c0-1.534,1.023-2.557,2.557-2.557c1.534,0,2.557,1.023,2.557,2.557v71.599c0,1.534-1.023,2.557-2.557,2.557H25.766
		c0.511,16.877,6.648,20.968,14.32,26.082c7.671,5.114,16.366,10.74,16.366,32.731C56.451,271.176,55.428,272.199,53.894,272.199z
		 M165.383,241.513c-0.511,0-1.534,0-2.045-0.511l-9.206-9.206c-1.023-1.023-1.023-2.045-0.511-3.068
		c0.511-1.023,2.045-1.534,3.069-1.023c5.114,1.534,9.206,5.626,10.74,10.74c0.511,1.023,0,2.557-1.023,3.068
		C166.405,241.002,165.894,241.513,165.383,241.513z M151.063,190.371c-20.968,0-38.356-17.388-38.356-38.356
		s17.388-38.356,38.356-38.356s38.356,17.388,38.356,38.356S172.031,190.371,151.063,190.371z M151.063,118.773
		c-18.411,0-33.242,14.831-33.242,33.242s14.831,33.242,33.242,33.242s33.242-14.831,33.242-33.242S169.474,118.773,151.063,118.773
		z M248.233,180.143c-1.534,0-2.557-1.023-2.557-2.557c0-21.991,8.694-27.617,16.366-32.731c7.16-4.603,13.808-9.206,14.32-26.082
		h-48.585c-1.534,0-2.557-1.023-2.557-2.557V44.617c0-1.534,1.023-2.557,2.557-2.557c1.534,0,2.557,1.023,2.557,2.557v69.041h48.585
		c1.534,0,2.557,1.023,2.557,2.557c0,21.991-8.694,27.617-16.366,32.731s-14.32,9.717-14.32,28.64
		C250.789,179.12,249.767,180.143,248.233,180.143z M53.894,180.143c-1.534,0-2.557-1.023-2.557-2.557
		c0-18.922-6.648-23.525-14.32-28.64c-7.671-5.114-16.366-10.74-16.366-32.731c0-1.534,1.023-2.557,2.557-2.557h48.585V44.617
		c0-1.534,1.023-2.557,2.557-2.557c1.534,0,2.557,1.023,2.557,2.557v71.599c0,1.534-1.023,2.557-2.557,2.557H25.766
		c0.511,16.877,6.648,20.968,14.32,26.082s16.366,10.74,16.366,32.731C56.451,179.12,55.428,180.143,53.894,180.143z
		 M165.383,149.458c-0.511,0-1.534,0-2.045-0.511l-9.206-9.206c-1.023-1.023-1.023-2.045-0.511-3.068
		c0.511-1.023,2.045-1.534,3.069-1.023c5.114,2.045,9.206,5.626,10.74,10.74c0.511,1.023,0,2.557-1.023,3.069
		C166.405,148.946,165.894,149.458,165.383,149.458z M151.063,98.316c-20.968,0-38.356-17.388-38.356-38.356
		s17.388-38.356,38.356-38.356s38.356,17.388,38.356,38.356S172.031,98.316,151.063,98.316z M151.063,26.718
		c-18.411,0-33.242,14.831-33.242,33.242s14.831,33.242,33.242,33.242s33.242-14.832,33.242-33.243S169.474,26.718,151.063,26.718z
		 M248.233,88.088c-1.534,0-2.557-1.023-2.557-2.557c0-21.991,8.694-27.617,16.366-32.731c7.16-4.603,13.808-9.206,14.32-26.082
		h-48.585c-1.534,0-2.557-1.023-2.557-2.557c0-9.717-8.182-17.9-17.9-17.9H94.807c-9.717,0-17.9,8.183-17.9,17.9
		c0,1.534-1.023,2.557-2.557,2.557H25.766c0.511,16.877,6.648,20.968,14.32,26.082s16.366,10.74,16.366,32.731
		c0,1.534-1.023,2.557-2.557,2.557s-2.557-1.023-2.557-2.557c0-18.922-6.648-23.525-14.32-28.64s-16.366-10.74-16.366-32.731
		c0-1.534,1.023-2.557,2.557-2.557h48.585C72.816,10.352,83.044,1.147,94.807,1.147h112.512c11.763,0,21.48,9.206,23.014,20.457
		h48.585c1.534,0,2.557,1.023,2.557,2.557c0,21.991-8.694,27.617-16.366,32.731s-14.32,9.717-14.32,28.64
		C250.789,87.065,249.767,88.088,248.233,88.088z M165.383,57.403c-0.511,0-1.534,0-2.045-0.511l-9.206-9.206
		c-1.023-1.023-1.023-2.045-0.511-3.069c0.511-1.023,2.045-1.534,3.069-1.023c5.114,2.045,9.206,5.626,10.74,10.74
		c0.511,1.023,0,2.557-1.023,3.069C166.405,56.891,165.894,57.403,165.383,57.403z"/>
</g>
<g>
	<path fill="#56555B" d="M190.791,275.708V100.481c0-12.033,9.459-21.787,21.128-21.787h62.571c11.669,0,21.128,9.755,21.128,21.787
		v175.227c0,12.033-9.459,21.787-21.128,21.787h-62.572C200.251,297.496,190.792,287.741,190.791,275.708z"/>
	<path fill="#3B3A3F" d="M211.917,78.695h25.128c-11.664,0-21.125,9.756-21.125,21.785l0,175.231
		c0,12.028,9.461,21.785,21.125,21.785h-25.129c-11.664,0-21.125-9.756-21.125-21.785V100.48
		C190.791,88.451,200.252,78.694,211.917,78.695z"/>
	<path fill="#EBEAEB" d="M216.05,255.167V121.022c0-1.798,1.414-3.256,3.158-3.256H267.2c1.744,0,3.158,1.458,3.158,3.256v134.146
		c0,1.798-1.414,3.256-3.158,3.256h-47.992C217.464,258.424,216.05,256.966,216.05,255.167z"/>
	<path fill="#D6D7D8" d="M219.21,117.769h20.453c-1.747,0-3.162,1.453-3.162,3.254l0,134.144c0,1.802,1.414,3.254,3.162,3.254
		H219.21c-1.747,0-3.162-1.453-3.162-3.254V121.023C216.048,119.221,217.463,117.769,219.21,117.769z"/>
	<path fill="#F6D989" d="M102.313,108.889L4.382,202.696v17.123c0,1.56,1.154,2.862,2.661,3.001l14.95,1.384
		c0.825,0.077,1.643-0.212,2.25-0.793l25.842-24.753c0.607-0.582,0.946-1.402,0.933-2.256l-0.205-13.149
		c-0.03-1.908,1.646-3.364,3.465-3.009l11.036,2.154c0.912,0.178,1.852-0.102,2.532-0.753l13.668-13.092
		c0.619-0.594,0.959-1.435,0.932-2.306l-0.438-13.844c-0.063-1.994,1.736-3.5,3.615-3.025l11.062,2.792
		c0.955,0.241,1.963-0.029,2.684-0.719l22.161-21.227c25.085,17.975,59.84,16.048,82.951-6.602
		c26.204-25.682,27.308-68.808,2.48-95.906c-24.81-27.078-66.2-28.513-92.721-3.109C91.13,46.741,86.902,81.987,102.313,108.889z"/>
	<ellipse fill="#F5CC50" cx="159.36" cy="73.51" rx="52.121" ry="53.749"/>
	<ellipse fill="#FFFFFF" cx="177.98" cy="56.278" rx="14.419" ry="14.869"/>
	<path fill="#000002" d="M0,202.697l0,17.123c0,3.926,2.859,7.151,6.651,7.502l14.951,1.384c0.217,0.02,0.434,0.03,0.65,0.03
		c1.836,0,3.619-0.715,4.975-2.013l25.843-24.754c1.515-1.451,2.365-3.506,2.333-5.639l-0.176-11.302l9.274,1.81
		c2.271,0.443,4.636-0.26,6.329-1.882l13.669-13.093c1.549-1.482,2.398-3.583,2.33-5.764l-0.376-11.86l9.192,2.32
		c2.393,0.605,4.902-0.068,6.708-1.798l19.644-18.816c12.372,7.923,27.034,11.724,41.678,10.746
		c7.86-0.526,15.547-2.437,22.736-5.569l0,134.588c0,14.505,11.444,26.306,25.51,26.306h62.571c14.066,0,25.51-11.801,25.51-26.306
		V217.21c0-2.496-1.961-4.52-4.382-4.52c-2.421,0-4.383,2.024-4.383,4.52v58.499c0,9.521-7.511,17.267-16.744,17.267h-62.572
		c-9.233,0-16.744-7.746-16.744-17.267v-139.17c4.184-2.581,8.122-5.61,11.728-9.063c1.676-1.605,3.265-3.282,4.766-5.023l0,132.717
		c0,4.287,3.382,7.776,7.54,7.776H267.2c4.157,0,7.54-3.488,7.54-7.776V121.023c0-4.287-3.382-7.775-7.54-7.775h-47.994
		c-0.279,0-0.554,0.018-0.826,0.049c5.599-9.043,9.171-19.274,10.442-30.082h19.465c-2.117,6.146-5.899,11.612-11.053,15.773
		c-1.906,1.539-2.242,4.379-0.749,6.344c0.865,1.139,2.153,1.734,3.455,1.734c0.945,0,1.897-0.314,2.699-0.961
		c7.324-5.913,12.443-13.921,14.834-22.891h17.016c9.233,0,16.744,7.746,16.744,17.267v84.185c0,2.496,1.962,4.52,4.383,4.52
		c2.421,0,4.383-2.024,4.383-4.52V100.48c0-14.506-11.444-26.306-25.51-26.306h-15.566c0.052-0.891,0.08-1.786,0.08-2.686
		c0-24.228-19.114-43.939-42.609-43.939c-1.201,0-2.391,0.057-3.572,0.158c-0.582-0.712-1.175-1.417-1.787-2.109
		c-12.585-14.248-29.877-22.594-48.69-23.501c-18.813-0.906-36.784,5.743-50.595,18.725c-5.042,4.74-9.367,10.167-12.859,16.13
		c-1.251,2.137-0.585,4.914,1.487,6.205c2.07,1.289,4.765,0.604,6.017-1.534c3.054-5.218,6.843-9.969,11.26-14.121
		c12.079-11.354,27.805-17.169,44.28-16.376c15.636,0.753,30.062,7.372,40.902,18.697c-5.816,2.007-11.126,5.283-15.579,9.586
		c-2.594-1.521-5.52-2.39-8.588-2.507c-5.016-0.19-9.81,1.645-13.49,5.17c-7.596,7.277-8.036,19.57-0.98,27.403
		c3.698,4.106,8.735,6.184,13.783,6.184c4.583,0,9.175-1.712,12.79-5.174c6.824-6.535,7.868-17.117,2.898-24.88
		c4.318-4.033,9.608-6.875,15.377-8.191c17.76,25.531,14.725,61.559-8.113,83.436c-21.028,20.143-53.371,22.522-76.906,5.658
		c-1.692-1.213-3.974-1.046-5.483,0.4l-21.584,20.675l-10.297-2.599c-2.239-0.565-4.549-0.03-6.339,1.467
		c-1.789,1.497-2.774,3.719-2.699,6.095l0.417,13.158l-12.64,12.108L55.094,175.8c-2.167-0.424-4.376,0.175-6.063,1.639
		c-1.687,1.465-2.634,3.609-2.599,5.883l0.195,12.477l-24.889,23.841l-12.973-1.201v-13.775l96.531-92.465
		c1.509-1.445,1.839-3.78,0.79-5.61c-6.247-10.905-9.148-23.392-8.389-36.112c0.148-2.491-1.69-4.636-4.106-4.789
		c-2.415-0.16-4.495,1.743-4.644,4.234c-0.793,13.301,1.921,26.384,7.864,38.066L1.4,199.384C0.507,200.239,0,201.439,0,202.697z
		 M181.325,46.522c-1.628,2.436-3.04,5.061-4.189,7.862c-0.943,2.298,0.1,4.951,2.329,5.923c2.229,0.973,4.801-0.103,5.744-2.402
		c0.674-1.643,1.46-3.211,2.346-4.698c0.332,1.105,0.496,2.266,0.453,3.456c-0.098,2.763-1.235,5.321-3.199,7.202
		c-4.054,3.883-10.417,3.642-14.184-0.54c-1.825-2.026-2.776-4.662-2.677-7.425c0.098-2.763,1.235-5.321,3.199-7.202
		c1.871-1.793,4.281-2.767,6.821-2.767c0.126,0,0.253,0.002,0.379,0.007C179.379,45.977,180.379,46.178,181.325,46.522z
		 M250.127,74.175h-20.783c-0.025-13.362-3.568-26.236-10.22-37.463c17.388,1.439,31.113,16.481,31.113,34.776
		C250.238,72.391,250.192,73.285,250.127,74.175z M265.975,122.286v61.289h-45.542v-61.289H265.975z M265.975,253.904h-45.541
		v-61.29h45.541V253.904L265.975,253.904z"/>
</g>
</svg>
