<?xml version="1.0" encoding="utf-8"?>
<!-- Generator: Adobe Illustrator 17.0.0, SVG Export Plug-In . SVG Version: 6.00 Build 0)  -->
<!DOCTYPE svg PUBLIC "-//W3C//DTD SVG 1.1//EN" "http://www.w3.org/Graphics/SVG/1.1/DTD/svg11.dtd">
<svg version="1.1" id="Layer_1" xmlns="http://www.w3.org/2000/svg" xmlns:xlink="http://www.w3.org/1999/xlink" x="0px" y="0px"
	 width="300px" height="300px" viewBox="0 0 300 300" enable-background="new 0 0 300 300" xml:space="preserve">
<g display="none">
	<polygon display="inline" fill="#080708" points="200.5560303,231.2736511 99.4439697,231.2736511 67.7502136,213.4930878 
		232.2498016,213.4930878 	"/>
	<g display="inline">
		<path fill="#333842" d="M8.4687777,206.9356842v36.75914c0,3.4678497,2.8870831,6.3051758,6.41574,6.3051758H45.423439
			c3.528656,0,6.415741-2.837326,6.415741-6.3051758v-36.75914H8.4687777z"/>
		<path fill="#333842" d="M248.2249908,206.9356842v36.75914c0,3.4678497,2.887085,6.3051758,6.415741,6.3051758h30.5389252
			c3.528656,0,6.415741-2.837326,6.415741-6.3051758v-36.75914H248.2249908z"/>
		<rect x="43.3062439" y="208.5119781" fill="#333842" width="213.3875122" height="14.5649481"/>
	</g>
	<path display="inline" fill="#FBD303" d="M294.7391052,124.5901642
		c-1.6680908-4.0353012-13.1522827-18.5371933-16.0393372-18.5371933c-2.887085,0-12.703186-2.837326-14.3712769-5.2332993
		c-1.6680908-2.3959656-25.855423-44.0100899-34.0675812-47.2257271C223.1394348,50.8196678,151.1548309,50,150,50
		s-73.203598,0.8196754-80.26091,3.5939445c-8.2121468,3.2156372-32.4636421,44.7667198-34.0675774,47.2257271
		c-1.6680908,2.3959732-11.4841766,5.2332993-14.3712597,5.2332993S6.9289951,120.554863,5.2609024,124.5901642
		c-1.6680925,4.0353088,3.272027,85.9394836,3.7211285,92.8121185c0.384944,6.8726349,41.6381531,6.1790619,42.7288284,4.8549805
		c4.1702309-5.2332764,6.9931564-5.2332764,6.9931564-5.2332764l91.3601379,3.1525879l91.3601379-3.1525879
		c0,0,2.8229218,0,6.9931488,5.2332764c1.0265198,1.3240967,42.2797089,2.0176697,42.7288361-4.8549805
		C291.4670715,210.5926971,296.407196,128.6254883,294.7391052,124.5901642z"/>
	<g display="inline">
		<polygon fill="#F8B517" points="38.7510681,104.8549805 30.8597107,86.6330414 6.287425,86.6330414 0,95.7124863 
			6.287425,104.8549805 31.2446556,104.8549805 		"/>
		<polygon fill="#F8B517" points="261.2489319,104.8549805 269.1403198,86.6330414 293.7125854,86.6330414 300,95.7124863 
			293.7125854,104.8549805 268.7553711,104.8549805 		"/>
	</g>
	<path display="inline" fill="#333842" d="M150,140.2900543l-124.6578293-7.1248474v10.4035339
		c0,5.2332916,3.9136047,9.6469116,9.2386646,10.3404846l115.4833221,15.0693512l115.4833221-15.0693512
		c5.2609253-0.693573,9.238678-5.107193,9.238678-10.3404846v-10.4035339L150,140.2900543z"/>
	<path display="inline" fill="#6EB1E1" d="M255.3464661,97.162674
		c-7.2497864-11.0971069-14.4995728-23.0769196-21.7493591-35.5611649
		c-0.5132446-0.9457741-1.4756165-1.5132408-2.5021362-1.5762901c-54.084671-2.5851212-108.2335281-2.5851212-162.2540588,0
		c-1.0265198,0.0630493-1.9888763,0.6305161-2.5021439,1.5762901C59.0889816,74.0857468,51.8391991,86.0025253,44.5894127,97.162674
		c-1.2189941,1.8915482,0.1924744,4.41362,2.5021362,4.6027756c69.73909-3.4678421,138.0667114-3.5939407,205.6886292,0
		C255.1539764,101.6393509,256.5654602,99.0542221,255.3464661,97.162674z"/>
	<ellipse display="inline" fill="#FFFFFC" cx="43.8836594" cy="144.9558716" rx="7.8272009" ry="7.6923113"/>
	<ellipse display="inline" fill="#DEDEDF" cx="61.9760513" cy="146.469101" rx="7.4422626" ry="7.314002"/>
	<ellipse display="inline" fill="#4F5565" cx="34.9016266" cy="186.4438782" rx="11.3558626" ry="11.1601601"/>
	<ellipse display="inline" fill="#FFFFFF" cx="34.9016266" cy="186.4438782" rx="7.8272009" ry="7.6923161"/>
	<ellipse display="inline" fill="#FFFFFC" cx="256.116333" cy="144.9558716" rx="7.8272109" ry="7.6923113"/>
	<ellipse display="inline" fill="#DEDEDF" cx="238.0239716" cy="146.469101" rx="7.4422626" ry="7.314002"/>
	<ellipse display="inline" fill="#4F5565" cx="265.0983887" cy="186.4438782" rx="11.3558674" ry="11.1601601"/>
	<ellipse display="inline" fill="#FFFFFF" cx="265.0983887" cy="186.4438782" rx="7.8272109" ry="7.6923161"/>
	<path display="inline" fill="#4F5565" d="M234.3669891,198.2976227
		c-1.8605652-7.1878967-9.0462036-12.7994995-16.2318115-12.7994995H75.8982086
		c-7.1856308,0-14.3712616,5.6116028-16.2318268,12.7994995l-2.1813545,8.638092h179.1274567L234.3669891,198.2976227z"/>
	<path display="inline" fill="#646B79" d="M150,93.37957c-61.2061539,0-54.3413162,6.4312744-54.3413162,6.4312744
		l6.8006897,18.1588898l47.4764786,3.3417435l47.4764862-3.3417435l6.8006897-18.1588898
		C204.3413239,99.8739014,211.2061615,93.37957,150,93.37957z"/>
	<path display="inline" fill="#FBD303" d="M150,93.37957c-2.8229218,0-5.4533691,0-8.0196686,0.0630569v27.3644485L150,121.3745346
		l7.9555206-0.5674591V93.4426346C155.4533844,93.37957,152.8229218,93.37957,150,93.37957z"/>
</g>
<g display="none">
	<g display="inline">
		<polygon fill="#EDE9DC" points="241.5803833,72.4137955 169.1665955,-0.0000001 8.8217659,-0.0000001 8.8217659,300 
			241.5803833,300 		"/>
		<g>
			<path fill="#D3CEB9" d="M60.5459061,118.9655151h129.3103333c2.8551636,0,5.1724243-2.3120651,5.1724243-5.1724091
				s-2.3172607-5.1724167-5.1724243-5.1724167H60.5459061c-2.855175,0-5.1724167,2.3120728-5.1724167,5.1724167
				S57.690731,118.9655151,60.5459061,118.9655151z"/>
			<path fill="#D3CEB9" d="M60.5459061,77.5862045h51.7241364c2.8551712,0,5.1724167-2.3120651,5.1724167-5.1724091
				c0-2.8603516-2.3172455-5.1724167-5.1724167-5.1724167H60.5459061c-2.855175,0-5.1724167,2.3120651-5.1724167,5.1724167
				C55.3734894,75.2741394,57.690731,77.5862045,60.5459061,77.5862045z"/>
			<path fill="#D3CEB9" d="M189.8562469,150H60.5459061c-2.855175,0-5.1724167,2.3120728-5.1724167,5.1724091
				c0,2.8603516,2.3172417,5.1724243,5.1724167,5.1724243h129.3103333c2.8551636,0,5.1724243-2.3120728,5.1724243-5.1724243
				C195.0286713,152.3120728,192.7114105,150,189.8562469,150z"/>
			<path fill="#D3CEB9" d="M189.8562469,191.3793182H60.5459061c-2.855175,0-5.1724167,2.3120575-5.1724167,5.1724091
				s2.3172417,5.1724091,5.1724167,5.1724091h129.3103333c2.8551636,0,5.1724243-2.3120575,5.1724243-5.1724091
				S192.7114105,191.3793182,189.8562469,191.3793182z"/>
			<path fill="#D3CEB9" d="M189.8562469,232.7586212H60.5459061c-2.855175,0-5.1724167,2.3120575-5.1724167,5.1724091
				s2.3172417,5.1724243,5.1724167,5.1724243h129.3103333c2.8551636,0,5.1724243-2.3120728,5.1724243-5.1724243
				S192.7114105,232.7586212,189.8562469,232.7586212z"/>
		</g>
		<polygon fill="#D3CEB9" points="169.1665955,-0.0000001 169.1665955,72.4137955 241.5803833,72.4137955 		"/>
	</g>
	<g display="inline">
		<circle fill="#51AE91" cx="231.2355652" cy="237.9310303" r="62.0689659"/>
		<path fill="#FFFFFF" d="M265.2234802,207.8224182c-2.3534546-1.634491-5.5706787-1.0551605-7.1999817,1.2931061
			l-28.9448395,41.5862122l-20.4258575-16.7689667c-2.2034454-1.8155365-5.4672394-1.4896545-7.2776031,0.7189636
			c-1.8155212,2.2086029-1.4948273,5.4672394,0.7189636,7.2775879l24.7551727,20.3224182
			c0.9310303,0.7603455,2.0896606,1.1741333,3.2793121,1.1741333c0.2327423,0,0.4706879-0.0155029,0.7086182-0.0465393
			c1.427597-0.2017212,2.7103424-0.9827576,3.5379181-2.1672363l32.1413879-46.1844788
			C268.1459045,212.679306,267.5665894,209.4568939,265.2234802,207.8224182z"/>
	</g>
</g>
<g>
	<path fill="#EEF1F9" d="M76.2913361,296.8908997l-0.0005569-46.3716431
		c0.0001373-9.4679871,2.920433-18.7093201,8.3692932-26.4815521l50.0977402-71.4593048L84.6583633,80.5629425
		c-5.4489594-7.8328247-8.370285-17.1457443-8.370018-26.687851L76.2878799,7.1410131l149.5488281-0.0020642l0.0004578,46.7340736
		c0.0003204,9.5421066-2.9201202,18.8552322-8.3696747,26.688179l-50.0976257,72.0172577l50.0999298,71.4580841
		c5.4490662,7.7721252,8.3699341,17.0132446,8.3703918,26.4812317l0.0005493,46.3716278"/>
	<g>
		<path fill="#E6CFAE" d="M118.1236725,95.9344406c0,0,32.6459198,46.9787674,32.9396973,47.501091
			c0.2927856-0.5224152,32.9375458-47.5020752,32.9375458-47.5020752L118.1236725,95.9344406z"/>
	</g>
	<path fill="#E2E8F4" d="M76.287178,53.8750725c0.0003128,9.5421028,2.9216385,18.8550301,8.3705978,26.6878548
		l50.0994415,72.0154572l-50.0977325,71.4593048c-5.4482727,7.7722321-8.3697357,17.0130005-8.3692932,26.4815521
		l0.0005569,46.3716278l50.4980469-0.0010376l0.0814133-43.6884308c0.0272293-14.6122437,1.8143311-28.6912231,5.0082855-39.4571228
		l14.3252258-48.287323c0.9579468-3.2298889,1.4940186-7.4527588,1.5021973-11.8365631
		c0.0081635-4.3837891-0.5127563-8.6086273-1.4580688-11.8420715l-14.145752-48.3415527
		c-3.1538086-10.7771454-4.888443-24.8615341-4.8612137-39.4737625l0.0872498-46.8226166L76.2861252,7.1409931L76.287178,53.8750725
		z"/>
	<g>
		<path fill="#DDC09F" d="M143.5504608,132.5586243l-10.717041-36.6236191l-14.7103271,0.0000229
			C118.1236725,95.9344406,133.8284607,118.5346451,143.5504608,132.5586243z"/>
	</g>
	<path fill="#000002" d="M235.1949005,292.5072632c-0.0029144,0-0.0058441,0-0.0087585,0l-4.9656982,0.0000916
		l-0.0005493-41.9901733c-0.0004272-10.4187622-3.1696472-20.4453583-9.1641541-28.9965057l-48.3425446-68.9521179
		l48.350174-69.5061646c5.9885406-8.6093674,9.1538086-18.703537,9.1540833-29.1905746l-0.0004425-42.3526154l4.9656982-0.0000849
		c2.4198151-0.0001602,4.3816223-1.9616566,4.3814697-4.3814726c-0.0013428-2.4162984-1.9581757-4.3757582-4.3744812-4.3802609
		c-0.0029144-0.0000055-0.0058289-0.000011-0.0087585-0.0000162l-9.335495,0.0001135
		c-0.0011749-0.0000021-0.0017395-0.0000033-0.0029144-0.0000055c-0.0029144-0.0000055-0.0058441-0.0000107-0.0087585-0.0000162
		c-0.0011749-0.0000021-0.0023346-0.0000043-0.0029297-0.0000055L66.9395447,2.7596207
		c-2.4198227,0.0001602-4.3816223,1.9616561-4.3814621,4.3814726c0.000164,2.4174814,1.9569931,4.3769417,4.3732986,4.381444
		c0.0029221,0.0000057,0.0058441,0.0000105,0.0087585,0.0000162l4.9656982-0.0000849l0.0004578,42.3526154
		c0.0003052,10.4870377,3.1658936,20.581337,9.1550369,29.1896744l48.3520126,69.5048523L81.0723877,221.523056
		c-5.9948578,8.5509949-9.1629181,18.5786133-9.1630707,28.9967804l0.0005493,41.9901733l-4.9657059,0.0000916
		c-2.4198151,0.0001526-4.3816185,1.9616394-4.3814583,4.3814697c0.000164,2.4174805,1.9569893,4.3769226,4.3733025,4.3814392
		c0.0029144,0,0.0058365,0,0.0087509,0.0000305l168.2420044-0.0028381c2.4198151-0.0001526,4.3816223-1.9616699,4.3814697-4.3814697
		C239.5674438,294.4712524,237.6106262,292.5117798,235.1949005,292.5072632z M80.6722488,250.5192566
		c-0.0002975-8.6088562,2.6193924-16.8964844,7.576088-23.9663391l50.097168-71.4593048
		c1.0551147-1.5050354,1.0588531-3.5081177,0.0093384-5.0170441L88.2548065,78.0605164
		c-4.9629135-7.1332932-7.5860138-15.4966393-7.5861664-24.1860313l-0.0004578-42.3526154l140.7858887-0.0020514
		l0.0004578,42.3526115c0.0001526,8.6888084-2.6226044,17.0523033-7.5852661,24.1857796l-50.0976105,72.0184326
		c-1.0498962,1.5085297-1.0460358,3.512207,0.0093231,5.0170898l50.0993347,71.4580841
		c4.9566193,7.0690765,7.576355,15.3565369,7.5766602,23.9659729l0.0005493,41.9907532l-140.7858887,0.0020447
		L80.6722488,250.5192566z"/>
	<path fill="#000002" d="M151.0546265,147.8169861c0.0029144,0,0.0064087,0.0000153,0.0093384,0.0000153
		c1.5093231-0.0001068,2.9074402-0.7772522,3.7064819-2.0469513c1.0096436-1.5196991,20.1411285-29.0790558,32.8275146-47.3371048
		c0.9304962-1.338913,1.0405731-3.0849915,0.2845001-4.5297699c-0.754303-1.4430237-2.24617-2.3487091-3.8745575-2.351738
		c-0.0023346-0.0000076-0.005249-0.0000153-0.0081787-0.0000153l-65.8766479,0.0009766
		c-1.6313019-0.0001144-3.1271362,0.905838-3.8827438,2.3518829c-0.7556,1.4454575-0.6462097,3.190773,0.2845535,4.5302429
		c12.6872253,18.2574692,31.8199005,45.8145905,32.8302765,47.3363037
		C148.1535797,147.0382385,149.5476532,147.8141785,151.0546265,147.8169861z M175.62146,100.3150787
		c-13.8931274,19.9991608-20.9544373,30.1829681-24.5588531,35.3958435
		c-3.6036682-5.2123108-10.6638031-15.394989-24.5600204-35.3951645L175.62146,100.3150787z"/>
	<g>
		<path fill="#E6CFAE" d="M183.792984,206.6242676c0,0-32.6459198-46.978775-32.9396973-47.5010834
			c-0.2927856,0.5223999-32.9375458,47.5020599-32.9375458,47.5020599L183.792984,206.6242676z"/>
	</g>
	<g>
		<path fill="#DDC09F" d="M158.3661957,170.0000763l10.717041,36.6236267l14.7103271-0.0000305
			C183.792984,206.6242676,168.0881958,184.0240631,158.3661957,170.0000763z"/>
	</g>
	<path fill="#000002" d="M150.86203,154.7417145c-0.0029144,0-0.0064087-0.0000153-0.0093384-0.0000153
		c-1.5093231,0.0001068-2.9074402,0.7772675-3.7064819,2.0469666c-1.0096436,1.5196838-20.1411209,29.0790558-32.8275146,47.3370972
		c-0.9304962,1.338913-1.0405655,3.0849915-0.2845001,4.5297699c0.754303,1.4430237,2.24617,2.3487091,3.8745575,2.3517456
		c0.0023346,0,0.0052567,0,0.0081787,0.0000153l65.8766479-0.0009918c1.6313019,0.0001221,3.1271362-0.905838,3.8827515-2.3518677
		c0.7555847-1.4454651,0.6462097-3.1907806-0.2845612-4.5302429
		c-12.6872253-18.2574768-31.8199005-45.8146057-32.8302765-47.3363037
		C153.7630768,155.520462,152.3690033,154.7445221,150.86203,154.7417145z M126.2952042,202.2436218
		c13.8931198-19.9991608,20.9544296-30.1829681,24.5588455-35.3958282
		c3.6036682,5.2122955,10.6638031,15.3949738,24.5600281,35.3951569L126.2952042,202.2436218z"/>
	<path fill="#000002" d="M194.5020752,80.8370667c0.7600861,0.5290375,1.6292572,0.7833786,2.4901428,0.7849808
		c1.388504,0.002594,2.7554626-0.6532211,3.6087189-1.879631l5.1165619-7.3543777
		c3.7986603-5.4599762,5.8066864-11.8623886,5.8062286-18.5148392l-0.0000458-4.6732903
		c-0.0001678-2.4168968-1.9570007-4.3769379-4.373291-4.3814392c-0.0029297-0.0000076-0.0058441-0.0000114-0.0087738-0.0000153
		c-2.4198151,0.0001602-4.3816223,1.9616547-4.3814697,4.3814697l0.000061,4.6732903
		c0.0002899,4.8542252-1.46521,9.526535-4.2362061,13.5112076l-5.1165771,7.3543854
		C192.0257111,76.7253036,192.5155792,79.4553604,194.5020752,80.8370667z"/>
	<path fill="#000002" d="M207.1332703,34.8870201c0.0029144,0.0000038,0.0058441,0.0000114,0.0087585,0.0000153
		c2.4198151-0.0001602,4.3816223-1.9616547,4.3814697-4.3814716l-0.000061-4.6732903
		c-0.0001526-2.419817-1.9867401-4.3863354-4.3814697-4.3814602c-2.4198151,0.0001602-4.3816223,1.9616566-4.3814697,4.3814735
		l0.000061,4.6732903C202.7607269,32.9224739,204.7175446,34.8825188,207.1332703,34.8870201z"/>
	<path fill="#000002" d="M114.6871185,226.2583618c-0.7600861-0.5290375-1.6292648-0.783371-2.4901505-0.7849731
		c-1.3884964-0.002594-2.7554626,0.6532288-3.6087112,1.8796234l-5.1165695,7.3543854
		c-3.7986526,5.4599762-5.8066788,11.8623962-5.8062286,18.5148315l0.0000534,4.6733093
		c0.0001602,2.4168701,1.9570007,4.3769226,4.3732986,4.3814392c0.0029144,0,0.0058365,0,0.0087585,0
		c2.4198151-0.0001526,4.3816223-1.9616394,4.3814697-4.3814697l-0.000061-4.6732941
		c-0.0002823-4.8542175,1.4652176-9.5265198,4.2362213-13.5112l5.1165619-7.3543854
		C117.1634827,230.3701324,116.6736145,227.6400757,114.6871185,226.2583618z"/>
	<path fill="#000002" d="M102.0559235,272.2084045c-0.0029221,0-0.0058441,0-0.0087662,0
		c-2.4198074,0.0001526-4.3816223,1.9616394-4.3814621,4.3814697l0.0000534,4.6732788
		c0.0001602,2.4198303,1.9867477,4.3863525,4.3814697,4.3814697c2.4198151-0.0001526,4.3816223-1.9616699,4.3814697-4.3814697
		l-0.0000534-4.6733093C106.4284668,274.1729736,104.4716492,272.2129211,102.0559235,272.2084045z"/>
</g>
<g display="none">
	<g transform="translate(5 1)" display="inline">
		<g>
			<path fill="#E0EDDB" d="M69.3501282,23.1605644v61.3701744H48.8936005c0-40.9136467-30.6850891-20.4565201-30.6850891-61.3701744
				H69.3501282z M222.7755585,115.2158279h51.1416168c0,40.9136429-30.6850891,20.4565201-30.6850891,61.3701706h-20.4565277
				V115.2158279z M222.7755585,207.2710876h51.1416168c0,40.9136505-30.6850891,20.4565277-30.6850891,61.3701782h-20.4565277
				V207.2710876z M222.7755585,23.1605644h51.1416168c0,40.9136467-30.6850891,20.4565277-30.6850891,61.3701744h-20.4565277
				V23.1605644z M69.3501282,207.2710876v61.3701782H48.8936005c0-40.9136505-30.6850891-20.4565277-30.6850891-61.3701782
				H69.3501282z M69.3501282,115.2158279v61.3701706H48.8936005c0-40.9136505-30.6850891-20.4565277-30.6850891-61.3701706
				H69.3501282z"/>
			<path fill="#E0EDDB" d="M202.319046,2.7040379c11.2510071,0,20.4565125,9.2055264,20.4565125,20.4565239v61.3701782v30.6850891
				v61.3701706v30.6850891v61.3701782v10.2285461c0,11.2510071-9.2055054,20.456543-20.4565125,20.456543H89.807251
				c-11.2509918,0-20.4565201-9.2055359-20.4565201-20.456543v-10.2285461v-61.3701782v-30.6850891v-61.3701706V84.5307388
				V23.1605644c0-11.2509995,9.2055283-20.4565258,20.4565201-20.4565258
				C89.807251,2.7040393,202.319046,2.7040393,202.319046,2.7040379z"/>
		</g>
		<path fill="#9E9E9E" d="M146.062851,207.2710876c19.9452972,0,35.7990723,15.853775,35.7990723,35.7990723
			s-15.853775,35.7990723-35.7990723,35.7990723s-35.7990723-15.8537598-35.7990723-35.7990723
			S126.1175385,207.2710876,146.062851,207.2710876"/>
		<path fill="#9E9E9E" d="M146.062851,115.2158279c19.9452972,0,35.7990723,15.8537674,35.7990723,35.7990646
			s-15.853775,35.7990723-35.7990723,35.7990723s-35.7990723-15.8537598-35.7990723-35.7990723
			S126.1175385,115.2158279,146.062851,115.2158279"/>
		<path fill="#D55E5E" d="M146.062851,23.1605644c19.9452972,0,35.7990723,15.8537598,35.7990723,35.7990685
			s-15.853775,35.7990646-35.7990723,35.7990646s-35.7990723-15.8537598-35.7990723-35.7990646
			S126.1175385,23.1605644,146.062851,23.1605644"/>
	</g>
	<path display="inline" fill="#50555E" d="M207.319046,302.8836365H94.807251
		c-12.7852554,0-23.0138168-10.2285461-23.0138168-23.0137939v-51.1416168c0-1.534256,1.0230408-2.5572968,2.5572891-2.5572968
		c1.534256,0,2.5572968,1.0230408,2.5572968,2.5572968v51.1416168c0,9.7167358,8.1824875,17.8998413,17.8998337,17.8998413
		H207.319046c9.7167511,0,17.8998413-8.1824951,17.8998413-17.8998413v-51.1416168
		c0-1.534256,1.0230255-2.5572968,2.5572815-2.5572968s2.5572968,1.0230408,2.5572968,2.5572968v51.1416168
		C230.3328552,292.6550903,220.1042938,302.8836365,207.319046,302.8836365z M151.062851,282.4265137
		c-20.9683533,0-38.3563614-17.3880005-38.3563614-38.3563538s17.3880081-38.3563538,38.3563614-38.3563538
		s38.3563538,17.3880157,38.3563538,38.3563538S172.031189,282.4265137,151.062851,282.4265137z M151.062851,210.8283844
		c-18.4110565,0-33.2423782,14.8313293-33.2423782,33.2423859s14.8313217,33.2423706,33.2423782,33.2423706
		s33.2423859-14.8313293,33.2423859-33.2423706S169.4739075,210.8283844,151.062851,210.8283844z M248.2326965,272.1985474
		c-1.534256,0-2.5572968-1.0230408-2.5572968-2.5572815c0-21.9907837,8.6943054-27.6165924,16.3655853-32.7305603
		c7.1600647-4.6027679,13.8082886-9.2055206,14.319519-26.0823212H227.775589c-1.534256,0-2.5572968-1.0230408-2.5572968-2.5572968
		V136.672348c0-1.534256,1.0230408-2.5572815,2.5572968-2.5572815c1.5342407,0,2.5572815,1.0230255,2.5572815,2.5572815v69.0414581
		h48.5849152c1.5342407,0,2.5572815,1.0230408,2.5572815,2.5572815c0,21.9907837-8.6943054,27.6165771-16.3655701,32.7305756
		c-7.6712646,5.1139679-14.319519,9.7167511-14.319519,28.6396027
		C250.7893829,271.1755066,249.7669525,272.1985474,248.2326965,272.1985474z M53.8936005,272.1985474
		c-1.5342522,0-2.5572891-1.0230408-2.5572891-2.5572815c0-18.9222717-6.6482391-23.5250244-14.3195076-28.6396027
		c-7.6712704-5.1139832-16.3655777-10.7397919-16.3655777-32.7305756c0-1.5342407,1.023035-2.5572815,2.5572891-2.5572815h48.584919
		v-69.0414429c0-1.534256,1.0230408-2.5572968,2.5572891-2.5572968c1.534256,0,2.5572968,1.0230408,2.5572968,2.5572968v71.5987244
		c0,1.534256-1.0230331,2.5572968-2.5572891,2.5572968H25.7658043c0.511219,16.8768005,6.6482353,20.968338,14.3195076,26.0823212
		c7.6712723,5.1139679,16.3655777,10.7397766,16.3655777,32.7305603
		C56.4508896,271.1755066,55.4278564,272.1985474,53.8936005,272.1985474z M165.3829651,241.5134583
		c-0.5112152,0-1.534256,0-2.0454712-0.5112152l-9.2055206-9.2055206c-1.0230408-1.0230408-1.0230408-2.0454712-0.5112152-3.0684967
		c0.5112152-1.0230408,2.0454712-1.534256,3.068512-1.0230408c5.1139679,1.534256,9.2055054,5.6257935,10.7397766,10.7397919
		c0.5112152,1.0230255,0,2.5572815-1.0230255,3.0684967C166.4053955,241.0016632,165.8941803,241.5134583,165.3829651,241.5134583z
		 M151.062851,190.3712616c-20.9683533,0-38.3563614-17.3880157-38.3563614-38.356369s17.3880081-38.3563538,38.3563614-38.3563538
		s38.3563538,17.3880157,38.3563538,38.3563538S172.031189,190.3712616,151.062851,190.3712616z M151.062851,118.7731171
		c-18.4110565,0-33.2423782,14.8313141-33.2423782,33.2423706s14.8313217,33.2423859,33.2423782,33.2423859
		s33.2423859-14.8313446,33.2423859-33.2423859S169.4739075,118.7731171,151.062851,118.7731171z M248.2326965,180.14328
		c-1.534256,0-2.5572968-1.0230255-2.5572968-2.5572815c0-21.9907837,8.6943054-27.6165771,16.3655853-32.7305603
		c7.1600647-4.6027679,13.8082886-9.2055359,14.319519-26.0823288H227.775589c-1.534256,0-2.5572968-1.0230408-2.5572968-2.5572891
		v-71.598732c0-1.534256,1.0230408-2.5572891,2.5572968-2.5572891c1.5342407,0,2.5572815,1.0230331,2.5572815,2.5572891v69.0414505
		h48.5849152c1.5342407,0,2.5572815,1.0230331,2.5572815,2.5572891c0,21.9907761-8.6943054,27.6165848-16.3655701,32.7305679
		s-14.319519,9.7167511-14.319519,28.6396027C250.7893829,179.1202545,249.7669525,180.14328,248.2326965,180.14328z
		 M53.8936005,180.14328c-1.5342522,0-2.5572891-1.0230255-2.5572891-2.5572815
		c0-18.9222717-6.6482391-23.5250244-14.3195076-28.6396179c-7.6712704-5.1139832-16.3655777-10.7397766-16.3655777-32.7305527
		c0-1.534256,1.023035-2.5572891,2.5572891-2.5572891h48.584919V44.6170921c0-1.5342522,1.0230408-2.5572891,2.5572891-2.5572891
		c1.534256,0,2.5572968,1.023037,2.5572968,2.5572891v71.5987396c0,1.5342484-1.0230331,2.5572891-2.5572891,2.5572891H25.7658043
		c0.511219,16.8768005,6.6482353,20.968338,14.3195076,26.0823212s16.3655777,10.7397766,16.3655777,32.7305603
		C56.4508896,179.1202545,55.4278564,180.14328,53.8936005,180.14328z M165.3829651,149.4582062
		c-0.5112152,0-1.534256,0-2.0454712-0.5112152l-9.2055206-9.2055359c-1.0230408-1.0230408-1.0230408-2.0454712-0.5112152-3.0684967
		c0.5112152-1.0230408,2.0454712-1.534256,3.068512-1.0230408c5.1139679,2.0454712,9.2055054,5.6257935,10.7397766,10.7397766
		c0.5112152,1.0230408,0,2.5572968-1.0230255,3.068512C166.4053955,148.9463959,165.8941803,149.4582062,165.3829651,149.4582062z
		 M151.062851,98.3159866c-20.9683533,0-38.3563614-17.3880157-38.3563614-38.3563576s17.3880081-38.3563614,38.3563614-38.3563614
		s38.3563538,17.3880177,38.3563538,38.3563614S172.031189,98.3159866,151.062851,98.3159866z M151.062851,26.7178535
		c-18.4110565,0-33.2423782,14.8313255-33.2423782,33.2423782s14.8313217,33.2423744,33.2423782,33.2423744
		s33.2423859-14.8319244,33.2423859-33.2429733S169.4739075,26.7178535,151.062851,26.7178535z M248.2326965,88.088028
		c-1.534256,0-2.5572968-1.0230331-2.5572968-2.5572891c0-21.9907799,8.6943054-27.6165771,16.3655853-32.7305565
		c7.1600647-4.6027641,13.8082886-9.2055283,14.319519-26.0823269H227.775589c-1.534256,0-2.5572968-1.023037-2.5572968-2.557291
		c0-9.7167444-8.1824799-17.8998337-17.8998413-17.8998337h-112.5112
		c-9.7173462-0.000001-17.8998337,8.1830893-17.8998337,17.8998337c0,1.5342541-1.0230331,2.5572891-2.5572891,2.5572891H25.7658043
		c0.511219,16.8767967,6.6482353,20.9683418,14.3195076,26.0823212s16.3655777,10.7397804,16.3655777,32.7305565
		c0,1.534256-1.023037,2.5572891-2.5572891,2.5572891s-2.5572891-1.0230331-2.5572891-2.5572891
		c0-18.9222717-6.6482391-23.525032-14.3195076-28.6396179s-16.3655815-10.739769-16.3655815-32.7305489
		c0-1.534256,1.023037-2.5572891,2.5572929-2.5572891h48.584919C72.8158722,10.3522739,83.0444412,1.1467476,94.807251,1.1467476
		h112.511795c11.7628174,0,21.4795532,9.2055264,23.0138092,20.4565258h48.5849304
		c1.5342407,0,2.5572815,1.023035,2.5572815,2.557291c0,21.9907799-8.6943054,27.616581-16.3655701,32.7305603
		s-14.319519,9.7167397-14.319519,28.6396141C250.7893829,87.0649948,249.7669525,88.088028,248.2326965,88.088028z
		 M165.3829651,57.4029388c-0.5112152,0-1.534256,0-2.0454712-0.5112152l-9.2055206-9.2055283
		c-1.0230408-1.023037-1.0230408-2.0454712-0.5112152-3.0685081c0.5112152-1.023037,2.0454712-1.534256,3.068512-1.023037
		c5.1139679,2.0454712,9.2055054,5.6257973,10.7397766,10.7397804c0.5112152,1.0230331,0,2.5572891-1.0230255,3.0685081
		C166.4053955,56.8911247,165.8941803,57.4029388,165.3829651,57.4029388z"/>
</g>
<g display="none">
	<g transform="translate(5 1)" display="inline">
		<g>
			<path fill="#E0EDDB" d="M69.3501282,23.1605644v61.3701744H48.8936005c0-40.9136467-30.6850891-20.4565201-30.6850891-61.3701744
				H69.3501282z M222.7755585,115.2158279h51.1416168c0,40.9136429-30.6850891,20.4565201-30.6850891,61.3701706h-20.4565277
				V115.2158279z M222.7755585,207.2710876h51.1416168c0,40.9136505-30.6850891,20.4565277-30.6850891,61.3701782h-20.4565277
				V207.2710876z M222.7755585,23.1605644h51.1416168c0,40.9136467-30.6850891,20.4565277-30.6850891,61.3701744h-20.4565277
				V23.1605644z M69.3501282,207.2710876v61.3701782H48.8936005c0-40.9136505-30.6850891-20.4565277-30.6850891-61.3701782
				H69.3501282z M69.3501282,115.2158279v61.3701706H48.8936005c0-40.9136505-30.6850891-20.4565277-30.6850891-61.3701706
				H69.3501282z"/>
			<path fill="#E0EDDB" d="M202.319046,2.7040379c11.2510071,0,20.4565125,9.2055264,20.4565125,20.4565239v61.3701782v30.6850891
				v61.3701706v30.6850891v61.3701782v10.2285461c0,11.2510071-9.2055054,20.456543-20.4565125,20.456543H89.807251
				c-11.2509918,0-20.4565201-9.2055359-20.4565201-20.456543v-10.2285461v-61.3701782v-30.6850891v-61.3701706V84.5307388
				V23.1605644c0-11.2509995,9.2055283-20.4565258,20.4565201-20.4565258
				C89.807251,2.7040393,202.319046,2.7040393,202.319046,2.7040379z"/>
		</g>
		<path fill="#5CAE64" d="M146.062851,207.2710876c19.9452972,0,35.7990723,15.853775,35.7990723,35.7990723
			s-15.853775,35.7990723-35.7990723,35.7990723s-35.7990723-15.8537598-35.7990723-35.7990723
			S126.1175385,207.2710876,146.062851,207.2710876"/>
		<path fill="#9E9E9E" d="M146.062851,115.2158279c19.9452972,0,35.7990723,15.8537674,35.7990723,35.7990646
			s-15.853775,35.7990723-35.7990723,35.7990723s-35.7990723-15.8537598-35.7990723-35.7990723
			S126.1175385,115.2158279,146.062851,115.2158279"/>
		<path fill="#9E9E9E" d="M146.062851,23.1605644c19.9452972,0,35.7990723,15.8537598,35.7990723,35.7990685
			s-15.853775,35.7990646-35.7990723,35.7990646s-35.7990723-15.8537598-35.7990723-35.7990646
			S126.1175385,23.1605644,146.062851,23.1605644"/>
	</g>
	<path display="inline" fill="#50555E" d="M207.319046,302.8836365H94.807251
		c-12.7852554,0-23.0138168-10.2285461-23.0138168-23.0137939v-51.1416168c0-1.534256,1.0230408-2.5572968,2.5572891-2.5572968
		c1.534256,0,2.5572968,1.0230408,2.5572968,2.5572968v51.1416168c0,9.7167358,8.1824875,17.8998413,17.8998337,17.8998413
		H207.319046c9.7167511,0,17.8998413-8.1824951,17.8998413-17.8998413v-51.1416168
		c0-1.534256,1.0230255-2.5572968,2.5572815-2.5572968s2.5572968,1.0230408,2.5572968,2.5572968v51.1416168
		C230.3328552,292.6550903,220.1042938,302.8836365,207.319046,302.8836365z M151.062851,282.4265137
		c-20.9683533,0-38.3563614-17.3880005-38.3563614-38.3563538s17.3880081-38.3563538,38.3563614-38.3563538
		s38.3563538,17.3880157,38.3563538,38.3563538S172.031189,282.4265137,151.062851,282.4265137z M151.062851,210.8283844
		c-18.4110565,0-33.2423782,14.8313293-33.2423782,33.2423859s14.8313217,33.2423706,33.2423782,33.2423706
		s33.2423859-14.8313293,33.2423859-33.2423706S169.4739075,210.8283844,151.062851,210.8283844z M248.2326965,272.1985474
		c-1.534256,0-2.5572968-1.0230408-2.5572968-2.5572815c0-21.9907837,8.6943054-27.6165924,16.3655853-32.7305603
		c7.1600647-4.6027679,13.8082886-9.2055206,14.319519-26.0823212H227.775589c-1.534256,0-2.5572968-1.0230408-2.5572968-2.5572968
		V136.672348c0-1.534256,1.0230408-2.5572815,2.5572968-2.5572815c1.5342407,0,2.5572815,1.0230255,2.5572815,2.5572815v69.0414581
		h48.5849152c1.5342407,0,2.5572815,1.0230408,2.5572815,2.5572815c0,21.9907837-8.6943054,27.6165771-16.3655701,32.7305756
		c-7.6712646,5.1139679-14.319519,9.7167511-14.319519,28.6396027
		C250.7893829,271.1755066,249.7669525,272.1985474,248.2326965,272.1985474z M53.8936005,272.1985474
		c-1.5342522,0-2.5572891-1.0230408-2.5572891-2.5572815c0-18.9222717-6.6482391-23.5250244-14.3195076-28.6396027
		c-7.6712704-5.1139832-16.3655777-10.7397919-16.3655777-32.7305756c0-1.5342407,1.023035-2.5572815,2.5572891-2.5572815h48.584919
		v-69.0414429c0-1.534256,1.0230408-2.5572968,2.5572891-2.5572968c1.534256,0,2.5572968,1.0230408,2.5572968,2.5572968v71.5987244
		c0,1.534256-1.0230331,2.5572968-2.5572891,2.5572968H25.7658043c0.511219,16.8768005,6.6482353,20.968338,14.3195076,26.0823212
		c7.6712723,5.1139679,16.3655777,10.7397766,16.3655777,32.7305603
		C56.4508896,271.1755066,55.4278564,272.1985474,53.8936005,272.1985474z M165.3829651,241.5134583
		c-0.5112152,0-1.534256,0-2.0454712-0.5112152l-9.2055206-9.2055206c-1.0230408-1.0230408-1.0230408-2.0454712-0.5112152-3.0684967
		c0.5112152-1.0230408,2.0454712-1.534256,3.068512-1.0230408c5.1139679,1.534256,9.2055054,5.6257935,10.7397766,10.7397919
		c0.5112152,1.0230255,0,2.5572815-1.0230255,3.0684967C166.4053955,241.0016632,165.8941803,241.5134583,165.3829651,241.5134583z
		 M151.062851,190.3712616c-20.9683533,0-38.3563614-17.3880157-38.3563614-38.356369s17.3880081-38.3563538,38.3563614-38.3563538
		s38.3563538,17.3880157,38.3563538,38.3563538S172.031189,190.3712616,151.062851,190.3712616z M151.062851,118.7731171
		c-18.4110565,0-33.2423782,14.8313141-33.2423782,33.2423706s14.8313217,33.2423859,33.2423782,33.2423859
		s33.2423859-14.8313446,33.2423859-33.2423859S169.4739075,118.7731171,151.062851,118.7731171z M248.2326965,180.14328
		c-1.534256,0-2.5572968-1.0230255-2.5572968-2.5572815c0-21.9907837,8.6943054-27.6165771,16.3655853-32.7305603
		c7.1600647-4.6027679,13.8082886-9.2055359,14.319519-26.0823288H227.775589c-1.534256,0-2.5572968-1.0230408-2.5572968-2.5572891
		v-71.598732c0-1.534256,1.0230408-2.5572891,2.5572968-2.5572891c1.5342407,0,2.5572815,1.0230331,2.5572815,2.5572891v69.0414505
		h48.5849152c1.5342407,0,2.5572815,1.0230331,2.5572815,2.5572891c0,21.9907761-8.6943054,27.6165848-16.3655701,32.7305679
		s-14.319519,9.7167511-14.319519,28.6396027C250.7893829,179.1202545,249.7669525,180.14328,248.2326965,180.14328z
		 M53.8936005,180.14328c-1.5342522,0-2.5572891-1.0230255-2.5572891-2.5572815
		c0-18.9222717-6.6482391-23.5250244-14.3195076-28.6396179c-7.6712704-5.1139832-16.3655777-10.7397766-16.3655777-32.7305527
		c0-1.534256,1.023035-2.5572891,2.5572891-2.5572891h48.584919V44.6170921c0-1.5342522,1.0230408-2.5572891,2.5572891-2.5572891
		c1.534256,0,2.5572968,1.023037,2.5572968,2.5572891v71.5987396c0,1.5342484-1.0230331,2.5572891-2.5572891,2.5572891H25.7658043
		c0.511219,16.8768005,6.6482353,20.968338,14.3195076,26.0823212s16.3655777,10.7397766,16.3655777,32.7305603
		C56.4508896,179.1202545,55.4278564,180.14328,53.8936005,180.14328z M165.3829651,149.4582062
		c-0.5112152,0-1.534256,0-2.0454712-0.5112152l-9.2055206-9.2055359c-1.0230408-1.0230408-1.0230408-2.0454712-0.5112152-3.0684967
		c0.5112152-1.0230408,2.0454712-1.534256,3.068512-1.0230408c5.1139679,2.0454712,9.2055054,5.6257935,10.7397766,10.7397766
		c0.5112152,1.0230408,0,2.5572968-1.0230255,3.068512C166.4053955,148.9463959,165.8941803,149.4582062,165.3829651,149.4582062z
		 M151.062851,98.3159866c-20.9683533,0-38.3563614-17.3880157-38.3563614-38.3563576s17.3880081-38.3563614,38.3563614-38.3563614
		s38.3563538,17.3880177,38.3563538,38.3563614S172.031189,98.3159866,151.062851,98.3159866z M151.062851,26.7178535
		c-18.4110565,0-33.2423782,14.8313255-33.2423782,33.2423782s14.8313217,33.2423744,33.2423782,33.2423744
		s33.2423859-14.8319244,33.2423859-33.2429733S169.4739075,26.7178535,151.062851,26.7178535z M248.2326965,88.088028
		c-1.534256,0-2.5572968-1.0230331-2.5572968-2.5572891c0-21.9907799,8.6943054-27.6165771,16.3655853-32.7305565
		c7.1600647-4.6027641,13.8082886-9.2055283,14.319519-26.0823269H227.775589c-1.534256,0-2.5572968-1.023037-2.5572968-2.557291
		c0-9.7167444-8.1824799-17.8998337-17.8998413-17.8998337h-112.5112
		c-9.7173462-0.000001-17.8998337,8.1830893-17.8998337,17.8998337c0,1.5342541-1.0230331,2.5572891-2.5572891,2.5572891H25.7658043
		c0.511219,16.8767967,6.6482353,20.9683418,14.3195076,26.0823212s16.3655777,10.7397804,16.3655777,32.7305565
		c0,1.534256-1.023037,2.5572891-2.5572891,2.5572891s-2.5572891-1.0230331-2.5572891-2.5572891
		c0-18.9222717-6.6482391-23.525032-14.3195076-28.6396179s-16.3655815-10.739769-16.3655815-32.7305489
		c0-1.534256,1.023037-2.5572891,2.5572929-2.5572891h48.584919C72.8158722,10.3522739,83.0444412,1.1467476,94.807251,1.1467476
		h112.511795c11.7628174,0,21.4795532,9.2055264,23.0138092,20.4565258h48.5849304
		c1.5342407,0,2.5572815,1.023035,2.5572815,2.557291c0,21.9907799-8.6943054,27.616581-16.3655701,32.7305603
		s-14.319519,9.7167397-14.319519,28.6396141C250.7893829,87.0649948,249.7669525,88.088028,248.2326965,88.088028z
		 M165.3829651,57.4029388c-0.5112152,0-1.534256,0-2.0454712-0.5112152l-9.2055206-9.2055283
		c-1.0230408-1.023037-1.0230408-2.0454712-0.5112152-3.0685081c0.5112152-1.023037,2.0454712-1.534256,3.068512-1.023037
		c5.1139679,2.0454712,9.2055054,5.6257973,10.7397766,10.7397804c0.5112152,1.0230331,0,2.5572891-1.0230255,3.0685081
		C166.4053955,56.8911247,165.8941803,57.4029388,165.3829651,57.4029388z"/>
</g>
<g display="none">
	<path display="inline" fill="#56555B" d="M88.0816422,297.4955444h-62.571682
		c-11.6683588,0-21.1277332-9.7540588-21.1277332-21.7872925V100.4811554c0-12.0326233,9.4587898-21.7873001,21.1277332-21.7873001
		h62.5710945c11.6683578,0,21.1277313,9.7540741,21.1277313,21.7873001V275.708252
		C109.2082062,287.7414856,99.7494125,297.4955444,88.0816422,297.4955444z"/>
	<path display="inline" fill="#3B3A3F" d="M109.208786,100.47995v175.2307129
		c0,12.0284119-9.4611359,21.7848816-21.1253891,21.7848816H62.9548798c11.6642532,0,21.1253891-9.7564697,21.1253891-21.7848816
		V100.47995c0-12.0283966-9.4611359-21.7848892-21.1253891-21.7848892h25.1279221
		C99.7476501,78.6944504,109.208786,88.450943,109.208786,100.47995z"/>
	<path display="inline" fill="#EBEAEB" d="M80.7919922,258.4242859h-47.992382
		c-1.7437515,0-3.1576176-1.4580078-3.1576176-3.2562103V121.0219269c0-1.7981873,1.413866-3.2561951,3.1576176-3.2561951h47.992382
		c1.7437439,0,3.157608,1.4580002,3.157608,3.2561951v134.1455688
		C83.9496078,256.9662781,82.5357361,258.4242859,80.7919922,258.4242859z"/>
	<path display="inline" fill="#D6D7D8" d="M83.9519501,121.0231323v134.1437378c0,1.8018188-1.4144516,3.254364-3.1617126,3.254364
		H60.3369179c1.7472649,0,3.1617165-1.4525452,3.1617165-3.254364V121.0231323c0-1.8018036-1.4144554-3.2543793-3.1617165-3.2543793
		h20.4533195C82.5374985,117.7687531,83.9519501,119.2213287,83.9519501,121.0231323z"/>
	<path display="inline" fill="#F6D989" d="M185.7603607,24.6044502c-26.5201263-25.403614-67.9107513-23.9685688-92.72052,3.1093636
		c-24.8279343,27.097271-23.7240219,70.2235336,2.480278,95.9056931c23.1111221,22.6501465,57.8666,24.5776215,82.9511795,6.602417
		l22.1607208,21.2271729c0.7201233,0.690033,1.7285309,0.9601135,2.6835938,0.7190399l11.0619049-2.7921448
		c1.8791046-0.4743195,3.6785278,1.0314178,3.6152496,3.0253601l-0.4382782,13.844101
		c-0.0275421,0.8712921,0.3123016,1.7123871,0.9316406,2.3063354l13.6681671,13.0924377
		c0.6802673,0.6513672,1.6201172,0.9311066,2.5324097,0.7528687l11.0355377-2.154068
		c1.8187561-0.3546906,3.4951172,1.1008911,3.4652405,3.0090637l-0.2050781,13.1486206
		c-0.0134888,0.8543854,0.3257751,1.6743164,0.9328156,2.2561951l25.8421936,24.753479
		c0.6070251,0.5812683,1.4249878,0.8700867,2.25,0.793335l14.9501648-1.3842773
		c1.5064697-0.1395721,2.6607361-1.4416809,2.6607361-3.0012054v-17.1226654l-97.9312134-93.806572
		C213.0978546,81.9869003,208.8703003,46.7409973,185.7603607,24.6044502z"/>
	<ellipse display="inline" fill="#F5CC50" cx="140.6396484" cy="73.5095673" rx="52.1214905" ry="53.7486153"/>
	<ellipse display="inline" fill="#FFFFFF" cx="122.019722" cy="56.2781525" rx="14.4193325" ry="14.8694801"/>
	<path display="inline" fill="#000002" d="M298.6001892,199.3838196l-95.4117126-91.3939056
		c5.9437561-11.681572,8.6572266-24.7643433,7.8644409-38.0658417c-0.148819-2.4918442-2.2288971-4.393959-4.6441345-4.2344437
		c-2.4163971,0.1528702-4.2544861,2.2972794-4.1062469,4.7885208c0.7582092,12.7196274-2.1427765,25.2066269-8.3894501,36.111763
		c-1.048233,1.8296051-0.7189331,4.1643448,0.7904358,5.6096649l96.5308533,92.4646072v13.7752228l-12.9726562,1.2012177
		l-24.8888397-23.8410797l0.194519-12.4773254c0.0351562-2.2737274-0.9123077-4.4181366-2.5992126-5.882782
		c-1.6863251-1.4646606-3.8958893-2.0628357-6.0626831-1.6392822l-10.3107452,2.0126953l-12.6398315-12.1081543
		l0.4165955-13.1583099c0.0749969-2.3758392-0.9093781-4.59758-2.698822-6.0948639
		c-1.7900238-1.4972839-4.0992126-2.0320282-6.3386688-1.4670715l-10.2966766,2.5987854l-21.5841827-20.6749039
		c-1.5093689-1.4459229-3.7915955-1.6126938-5.4832001-0.4000015
		c-23.5353546,16.8640442-55.8779221,14.4845886-76.9060593-5.6580048
		c-22.838089-21.8761215-25.8732376-57.9045029-8.1134796-83.4356079c5.7691422,1.3160133,11.058403,4.1583099,15.3767624,8.1909332
		c-4.9699249,7.7631378-3.9257812,18.3444023,2.8980408,24.8797455c3.6146545,3.4622345,8.2072296,5.1740189,12.7898483,5.1740189
		c5.0478516,0,10.0845718-2.0785522,13.7829971-6.184288c7.0558777-7.8332291,6.6164246-20.1262779-0.9796753-27.4030151
		c-3.6802826-3.525074-8.4744186-5.3601189-13.490036-5.1697845c-3.0673828,0.1166153-5.9935608,0.9854965-8.5875092,2.5069466
		c-4.453125-4.3033218-9.7634735-7.5794506-15.5794907-9.5860958
		c10.8404236-11.3256741,25.2662125-17.9437981,40.9019547-18.6972713
		c16.4747925-0.7927494,32.2013702,5.0217495,44.2798767,16.3758221c4.4173889,4.1528683,8.2054749,8.9033184,11.259964,14.1214428
		c1.2515564,2.137764,3.9468689,2.8223534,6.0169983,1.533535c2.072464-1.2906342,2.7380981-4.0682755,1.4871063-6.2048264
		c-3.4916077-5.9631405-7.8169861-11.3903275-12.858963-16.1299038
		C174.4377441,7.8395071,156.4664612,1.1911731,137.6537781,2.0969119
		c-18.8126984,0.9069486-36.1043015,9.2525635-48.6896515,23.5008945c-0.6117249,0.6924458-1.2041016,1.3975811-1.7865219,2.1093655
		c-1.1812515-0.101511-2.3718796-0.1583099-3.572464-0.1583099c-23.4943314,0-42.6087875,19.711174-42.6087875,43.9389534
		c0,0.9003067,0.0281219,1.7957687,0.079689,2.686409h-15.566082C11.4439459,74.1736069,0,85.9742126,0,100.47995v84.1860657
		c0,2.4960785,1.9623047,4.5196533,4.3833985,4.5196533s4.3833985-2.0235748,4.3833985-4.5196533v-84.1848602
		c0-9.5208435,7.5117178-17.2670593,16.7443352-17.2670593h17.0156269
		c2.390625,8.9703827,7.5099602,16.978241,14.8335953,22.8912201c0.8021507,0.6471329,1.7537079,0.9613342,2.6988297,0.9613342
		c1.3013649,0,2.5898399-0.5951691,3.4546852-1.7341385c1.4923782-1.9655609,1.1566391-4.8054352-0.7494164-6.3444061
		c-5.153904-4.1607208-8.9361305-9.6265869-11.0531235-15.7728043h19.4654274
		c1.2709045,10.8078461,4.8427734,21.0386658,10.4419937,30.0815582c-0.271286-0.0308075-0.5466766-0.0489349-0.8255844-0.0489349
		h-47.993557c-4.157814,0-7.5398445,3.4882126-7.5398445,7.7752228v134.1455688c0,4.2876129,3.382616,7.7758026,7.5398445,7.7758026
		h47.9929695c4.1578064,0,7.5398407-3.4888,7.5398407-7.7758026V122.4521408
		c1.5011673,1.7407837,3.0902328,3.4181213,4.7660141,5.0229568c3.6058655,3.4537811,7.5433578,6.4827881,11.7275391,9.063446
		v139.1703186c0,9.520813-7.5117111,17.2670593-16.7443314,17.2670593h-62.571682
		c-9.233202,0-16.7443352-7.7462463-16.7443352-17.2670593v-58.4990845c0-2.4960785-1.9623041-4.5196381-4.3833981-4.5196381
		S0,214.7137299,0,217.2098083v58.499054c0,14.5057373,11.4439459,26.3063354,25.5099602,26.3063354h62.5705147
		c14.0660095,0,25.5099564-11.8012085,25.5099564-26.3063354V141.1210022
		c7.1888657,3.1323395,14.8757858,5.0435028,22.7361374,5.5691833c14.6443329,0.9788513,29.3062439-2.8223572,41.678299-10.7456055
		l19.6435547,18.8162994c1.8058624,1.7305145,4.3148499,2.4029999,6.7078094,1.7981873l9.1921844-2.3202362l-0.3755798,11.8604126
		c-0.0685577,2.1806641,0.7810516,4.2821808,2.3296967,5.7637482l13.6687469,13.0930481
		c1.6933746,1.6217499,4.0587921,2.3250732,6.3292999,1.8821716l9.2742157-1.8102722l-0.1763611,11.3015137
		c-0.0328064,2.132309,0.8173828,4.187912,2.3326111,5.6386566l25.8427887,24.7540588
		c1.3552551,1.2978973,3.138855,2.0132904,4.9746094,2.0132904c0.2161865,0,0.4330139-0.0096588,0.6498108-0.0296021
		l14.9507751-1.3842926C297.140625,226.97052,300,223.7451324,300,219.819458v-17.1226654
		C300,201.4394073,299.4925842,200.2394257,298.6001892,199.3838196z M121.6523438,45.937973
		c0.126564-0.0048332,0.2531281-0.0072479,0.379097-0.0072479c2.5406265,0,4.9500046,0.9746208,6.8214798,2.7673683
		c1.9646606,1.8815689,3.1007843,4.4398766,3.199234,7.2024155c0.0990295,2.7631378-0.8513794,5.3993912-2.6765594,7.4253731
		c-3.7675781,4.1818695-10.1302795,4.4229584-14.1843719,0.5395775c-1.9646454-1.8815727-3.1007767-4.4398804-3.1992264-7.2024155
		c-0.0427704-1.1897278,0.1207047-2.3516579,0.4529266-3.456192c0.8853531,1.4876137,1.6716766,3.0555878,2.3455124,4.6984901
		c0.9433594,2.2990913,3.5150375,3.3746185,5.7439423,2.4018097c2.2294846-0.9722061,3.2724686-3.6247711,2.3291092-5.9232597
		c-1.149025-2.8006058-2.5605469-5.4253731-4.1888733-7.8616295
		C119.6208954,46.1778526,120.6210938,45.977253,121.6523438,45.937973z M49.7625008,71.4884109
		c0-18.2948532,13.7250023-33.3371391,31.1132774-34.7758141c-6.6521454,11.2265816-10.194725,24.1008987-10.2199173,37.4628258
		H49.8732414C49.8076172,73.2853928,49.7625008,72.3905334,49.7625008,71.4884109z M79.566803,122.2859726v61.2894058H34.0248032
		v-61.2894058H79.566803z M34.0248032,253.9040527v-61.2900238h45.5414047v61.2899933H34.0248032V253.9040527z"/>
</g>
</svg>
