<?xml version="1.0" encoding="utf-8"?>
<!-- Generator: Adobe Illustrator 23.0.6, SVG Export Plug-In . SVG Version: 6.00 Build 0)  -->
<svg version="1.1" xmlns="http://www.w3.org/2000/svg" xmlns:xlink="http://www.w3.org/1999/xlink" x="0px" y="0px"
	 viewBox="0 0 34 34" style="enable-background:new 0 0 34 34;" xml:space="preserve">
<style type="text/css">
	.st0{display:none;}
	.st1{display:inline;}
	.st2{clip-path:url(#SVGID_2_);}
	.st3{clip-path:url(#SVGID_4_);}
	.st4{fill:#FFFFFF;}
	.st5{fill:none;stroke:#FFFFFF;stroke-miterlimit:10;}
	.st6{clip-path:url(#SVGID_6_);}
	.st7{clip-path:url(#SVGID_8_);}
	.st8{clip-path:url(#SVGID_10_);}
	.st9{clip-path:url(#SVGID_12_);}
	.st10{clip-path:url(#SVGID_14_);}
	.st11{clip-path:url(#SVGID_16_);}
	.st12{clip-path:url(#SVGID_18_);}
	.st13{clip-path:url(#SVGID_20_);fill:#FFFFFF;}
	.st14{clip-path:url(#SVGID_22_);fill:#FFFFFF;}
	.st15{clip-path:url(#SVGID_24_);fill:#FFFFFF;}
</style>
<g id="Слой_1">
	<g class="st0">
		<g class="st1">
			<defs>
				<rect id="SVGID_13_" x="1.24" y="1.12" width="31.76" height="31.76"/>
			</defs>
			<clipPath id="SVGID_2_">
				<use xlink:href="#SVGID_13_"  style="overflow:visible;"/>
			</clipPath>
			<g class="st2">
				<defs>
					<rect id="SVGID_15_" x="1.24" y="1.12" width="31.76" height="31.76"/>
				</defs>
				<clipPath id="SVGID_4_">
					<use xlink:href="#SVGID_15_"  style="overflow:visible;"/>
				</clipPath>
				<path class="st3" d="M9.14,28.88l0.23,0.15c2.37,1.55,5.12,2.37,7.95,2.37c8.04,0,14.58-6.54,14.58-14.58S25.36,2.23,17.32,2.23
					S2.74,8.78,2.74,16.82c0,2.91,0.86,5.73,2.48,8.14l0.16,0.24l-2.24,5.82L9.14,28.88z M1.23,32.88l2.9-7.55
					c-1.64-2.54-2.51-5.48-2.51-8.52c0-8.66,7.04-15.7,15.69-15.7c8.65,0,15.69,7.04,15.69,15.7c0,8.65-7.04,15.69-15.69,15.69
					c-2.95,0-5.82-0.83-8.33-2.4L1.23,32.88z"/>
			</g>
			<g class="st2">
				<defs>
					<rect id="SVGID_17_" x="1.24" y="1.12" width="31.76" height="31.76"/>
				</defs>
				<clipPath id="SVGID_6_">
					<use xlink:href="#SVGID_17_"  style="overflow:visible;"/>
				</clipPath>
				<path class="st6" d="M13,9.69c-0.88,0.21-2.36,1.83-2.36,3.18c0,1.69,2.29,5.35,3.79,6.84c1.81,1.81,5.39,3.79,6.85,3.79
					c1.34,0,2.96-1.48,3.17-2.36c-0.74-0.86-1.82-2.01-2.25-2.28l-0.28-0.07c-0.44,0.05-1.23,0.65-1.75,1.23l-0.24,0.26l-0.34-0.1
					c-0.21-0.06-2.05-0.64-3.52-2.11c-0.97-0.97-2.46-2.61-2.59-3.08l-0.09-0.33l0.26-0.23c1-0.9,1.82-2.1,1.66-2.43
					C15.1,11.6,13.89,10.46,13,9.69z M21.27,24.61c-1.9,0-5.78-2.26-7.63-4.11c-1.66-1.66-4.11-5.59-4.11-7.63
					c0-2.04,2.18-4.31,3.65-4.31h0.21l0.15,0.13c0.39,0.33,2.37,2.03,2.76,2.8c0.57,1.11-0.83,2.71-1.56,3.44
					c0.33,0.42,1.08,1.3,2.12,2.35c0.98,0.98,2.18,1.52,2.74,1.73c0.48-0.48,1.47-1.33,2.38-1.33l0.13,0.01l0.55,0.15
					c0.76,0.39,2.46,2.37,2.79,2.76l0.13,0.16v0.2C25.58,22.43,23.31,24.61,21.27,24.61z"/>
			</g>
		</g>
	</g>
</g>
<g id="Слой_2">
	<g>
		<defs>
			<rect id="SVGID_21_" x="0.64" y="0.62" width="32.36" height="32.36"/>
		</defs>
		<clipPath id="SVGID_8_">
			<use xlink:href="#SVGID_21_"  style="overflow:visible;"/>
		</clipPath>
		<path style="clip-path:url(#SVGID_8_);fill:#FFFFFF;" d="M12.62,9.35c-0.9,0.22-2.41,1.87-2.41,3.24c0,1.72,2.33,5.45,3.86,6.97
			c1.84,1.84,5.49,3.86,6.97,3.86c1.37,0,3.02-1.51,3.23-2.41c-0.76-0.88-1.85-2.05-2.29-2.32l-0.28-0.07
			c-0.45,0.05-1.25,0.66-1.79,1.25l-0.24,0.26l-0.34-0.1c-0.21-0.06-2.08-0.65-3.59-2.15c-0.98-0.98-2.5-2.66-2.63-3.13l-0.1-0.34
			l0.26-0.24c1.02-0.92,1.86-2.14,1.69-2.47C14.77,11.29,13.53,10.14,12.62,9.35z M21.05,24.55c-1.93,0-5.89-2.3-7.78-4.19
			c-1.69-1.69-4.19-5.7-4.19-7.78c0-2.08,2.22-4.39,3.72-4.39h0.21l0.16,0.13c0.4,0.34,2.41,2.07,2.81,2.85
			c0.58,1.14-0.84,2.76-1.59,3.51c0.34,0.42,1.1,1.33,2.16,2.39c1,1,2.22,1.54,2.79,1.76c0.49-0.49,1.5-1.35,2.42-1.35l0.13,0.01
			l0.56,0.15c0.78,0.4,2.51,2.41,2.84,2.81l0.13,0.16v0.21C25.44,22.33,23.13,24.55,21.05,24.55z"/>
	</g>
	<g>
		<defs>
			<rect id="SVGID_23_" x="0.64" y="0.62" width="32.36" height="32.36"/>
		</defs>
		<clipPath id="SVGID_10_">
			<use xlink:href="#SVGID_23_"  style="overflow:visible;"/>
		</clipPath>
		<path style="clip-path:url(#SVGID_10_);fill:#FFFFFF;" d="M8.69,28.9l0.24,0.15c2.42,1.58,5.22,2.41,8.1,2.41
			c8.19,0,14.85-6.66,14.85-14.85S25.21,1.76,17.02,1.76S2.16,8.42,2.16,16.61c0,2.97,0.87,5.84,2.53,8.29l0.17,0.25l-2.28,5.93
			L8.69,28.9z M0.63,32.98l2.96-7.69c-1.67-2.59-2.56-5.58-2.56-8.68c0-8.82,7.17-15.99,15.99-15.99c8.82,0,15.99,7.17,15.99,15.99
			c0,8.82-7.17,15.99-15.99,15.99c-3.01,0-5.93-0.85-8.48-2.44L0.63,32.98z"/>
	</g>
</g>
</svg>
