<?xml version="1.0" encoding="utf-8"?>
<!-- Generator: Adobe Illustrator 17.0.0, SVG Export Plug-In . SVG Version: 6.00 Build 0)  -->
<!DOCTYPE svg PUBLIC "-//W3C//DTD SVG 1.1//EN" "http://www.w3.org/Graphics/SVG/1.1/DTD/svg11.dtd">
<svg version="1.1" id="Слой_1" xmlns="http://www.w3.org/2000/svg" xmlns:xlink="http://www.w3.org/1999/xlink" x="0px" y="0px"
	 width="24px" height="24px" viewBox="0 0 24 24" enable-background="new 0 0 24 24" xml:space="preserve">
<g>
	<path fill="#1F1F1F" d="M11.9999981,0.0000005c-6.6166153,0-12,5.3829231-12,12S5.3833828,24,11.9999981,24
		s12-5.3829231,12-11.999999S18.6166134,0.0000005,11.9999981,0.0000005z M11.9999981,23.0769234
		c-6.1075382,0-11.0769234-4.9693832-11.0769234-11.0769224S5.8924599,0.9230775,11.9999981,0.9230775
		S23.0769215,5.8924623,23.0769215,12.000001S18.1075382,23.0769234,11.9999981,23.0769234z"/>
	<path fill="#1F1F1F" d="M17.6547661,7.0781546l-7.0933838,7.9799995l-4.2733841-3.4186153
		c-0.198462-0.1592302-0.4896922-0.126461-0.6484613,0.0720005c-0.1592312,0.1993837-0.1269231,0.4896927,0.072,0.6489229
		l4.6153846,3.6923065c0.0849228,0.0678482,0.186923,0.101078,0.2884617,0.101078
		c0.1273842,0,0.2543077-0.0526142,0.3452301-0.155076l7.3846169-8.3076925
		c0.169384-0.1901541,0.1523075-0.4823079-0.0383091-0.6512308C18.1158447,6.8700008,17.8246136,6.8870773,17.6547661,7.0781546z"/>
</g>
</svg>
