<?xml version="1.0" encoding="utf-8"?>
<!-- Generator: Adobe Illustrator 17.1.0, SVG Export Plug-In . SVG Version: 6.00 Build 0)  -->
<!DOCTYPE svg PUBLIC "-//W3C//DTD SVG 1.1//EN" "http://www.w3.org/Graphics/SVG/1.1/DTD/svg11.dtd">
<svg version="1.1" id="Capa_1" xmlns="http://www.w3.org/2000/svg" xmlns:xlink="http://www.w3.org/1999/xlink" x="0px" y="0px"
	 viewBox="135 0 30 30" enable-background="new 135 0 30 30" xml:space="preserve">
<g>
	<g>
		<g>
			<path fill="#3DADC2" d="M158.7,28.5c0,0.2-0.1,0.3-0.3,0.3h-19.3c-0.2,0-0.3-0.1-0.3-0.3c0,0,0,0,0,0V2c0-0.2,0-0.5-0.1-0.7h19.2
				c0.5,0,0.8,0.4,0.8,0.8c0,0,0,0,0,0v11h1.2v-11c0-1.2-0.9-2.1-2.1-2.1h-20.5c-0.5-0.1-1-0.1-1.4,0.2c-0.6,0.4-0.9,1.1-0.9,1.8
				v4.5c0,0.8,0.6,1.5,1.5,1.6c0,0,0,0,0,0h1v20.3c0,0.9,0.7,1.5,1.5,1.5h19.3c0.9,0,1.6-0.7,1.6-1.5c0,0,0,0,0,0v-5.3h-1.2V28.5z
				 M137.5,6.9h-1c-0.1,0-0.2-0.1-0.2-0.3V2.1c0-0.3,0.1-0.6,0.4-0.8c0.1-0.1,0.2-0.1,0.3-0.1v0.1h0.3c0.2,0.1,0.4,0.4,0.4,0.7
				L137.5,6.9L137.5,6.9z"/>
			<path fill="#3DADC2" d="M164.8,14.6l-1.9-1.9c-0.2-0.2-0.6-0.2-0.9,0l-9.7,9.7c-0.1,0.1-0.1,0.1-0.1,0.2l-1.6,3.5
				c-0.1,0.3,0,0.7,0.3,0.8c0.2,0.1,0.3,0.1,0.5,0l3.5-1.6c0.1,0,0.1-0.1,0.2-0.1l9.7-9.7C165,15.3,165,14.9,164.8,14.6z
				 M152.4,25.1l0.6-1.2l0.7,0.7L152.4,25.1z M154.7,23.9l-1.1-1l6.5-6.5l1.1,1.1L154.7,23.9z M162.1,16.5l-1.1-1.1l1.4-1.4l1.1,1.1
				L162.1,16.5z"/>
			<rect x="143.1" y="4.4" fill="#3DADC2" width="11.2" height="1.2"/>
			<rect x="143.1" y="8.8" fill="#3DADC2" width="11.2" height="1.2"/>
			<rect x="143.1" y="13.2" fill="#3DADC2" width="11.2" height="1.2"/>
			<rect x="143.1" y="17.5" fill="#3DADC2" width="5" height="1.2"/>
			<rect x="150" y="17.5" fill="#3DADC2" width="1.2" height="1.2"/>
			<rect x="153.1" y="17.5" fill="#3DADC2" width="1.2" height="1.2"/>
		</g>
	</g>
</g>
</svg>
