<?xml version="1.0" encoding="utf-8"?>
<!-- Generator: Adobe Illustrator 22.0.1, SVG Export Plug-In . SVG Version: 6.00 Build 0)  -->
<svg version="1.1" id="Слой_1" xmlns="http://www.w3.org/2000/svg" xmlns:xlink="http://www.w3.org/1999/xlink" x="0px" y="0px"
	 viewBox="0 0 1016.2 184.6" style="enable-background:new 0 0 1016.2 184.6;" xml:space="preserve">
<style type="text/css">
	.st0{fill:#23DBD2;}
	.st1{fill:#B4F476;}
	.st2{fill:#CC5050;}
	.st3{fill:#006697;}
	.st4{font-family:'NotoSerif-Bold';}
	.st5{font-size:72px;}
	.st6{fill:#B7B7B7;}
	.st7{font-family:'NotoSerif';}
	.st8{font-size:47px;}
</style>
<g>
	<g>
		<g>
			<path class="st0" d="M87.3,147.2c1.4-2.7,4.2-4.6,7.5-4.6s6.1,1.9,7.5,4.6V82.3h7.5l-15-13.9l-15,13.9h7.5V147.2z"/>
			<path class="st1" d="M59.6,154.7c1.4-2.7,4.2-4.6,7.5-4.6c3.3,0,6.1,1.9,7.5,4.6v-50.9h7.5L67.2,89.9l-15.1,13.9h7.5V154.7z"/>
			<path class="st2" d="M115,139.6c1.4-2.7,4.2-4.6,7.5-4.6s6.1,1.9,7.5,4.6V63.5h7.5l-15.1-13.9l-15.1,13.9h7.5v76.1H115z"/>
			<circle class="st0" cx="94.8" cy="153.3" r="7.3"/>
			<circle class="st1" cx="67.2" cy="160.8" r="7.3"/>
			<circle class="st2" cx="122.5" cy="145.8" r="7.3"/>
			<path class="st1" d="M84.3,161.1l-4.1,1.1c-1.6,0.4-3.2-0.5-3.7-2.1l0,0c-0.4-1.6,0.5-3.2,2.1-3.7l4.1-1.1
				c1.6-0.4,3.2,0.5,3.7,2.1l0,0C86.9,159,85.9,160.7,84.3,161.1z"/>
			<path class="st0" d="M112.3,153.1l-4.1,1.1c-1.6,0.4-3.2-0.5-3.7-2.1l0,0c-0.4-1.6,0.5-3.2,2.1-3.7l4.1-1.1
				c1.6-0.4,3.2,0.5,3.7,2.1l0,0C114.9,151,113.9,152.7,112.3,153.1z"/>
		</g>
		<path class="st3" d="M96.4,14.8c-42.4,0-76.7,34.3-76.7,76.7c0,19.6,6.9,36.3,19,49.9c0,0,0.5,0.5,0.9,0.8
			c1.4,1.6,3.3,2.5,5.4,2.5c4.3,0,7.7-4,7.7-9c0-2.5-0.9-4.8-2.3-6.4l0,0c-9.2-10.5-13.5-22.8-13.5-37.8c0-32.9,26.7-59.6,59.6-59.6
			s59.6,26.7,59.6,59.6c0,15.8-6.1,30.1-16.1,40.7c-0.2,0.2-0.4,0.5-0.6,0.8c-1.4,1.6-2.3,3.9-2.3,6.4c0,5,3.5,9,7.7,9
			c1.9,0,3.7-0.8,5-2.2c0.9-0.8,1.9-1.6,2.7-2.4c12.9-13.7,20.7-32.2,20.7-52.4C173.1,49.1,138.8,14.8,96.4,14.8z"/>
	</g>
	<g>
		<text transform="matrix(1 0 0 1 208.3895 95.6272)" class="st4 st5">ФОРУМ ИНВЕСТОРА</text>
		<text transform="matrix(1 0 0 1 208.3896 140.9307)" class="st6 st7 st8">Как заработать на инвестициях</text>
	</g>
</g>
<g>
	<g>
		<g>
			<path class="st0" d="M87.3-52.8c1.4-2.7,4.2-4.6,7.5-4.6s6.1,1.9,7.5,4.6v-64.9h7.5l-15-13.9l-15,13.9h7.5V-52.8z"/>
			<path class="st1" d="M59.6-45.3c1.4-2.7,4.2-4.6,7.5-4.6c3.3,0,6.1,1.9,7.5,4.6v-50.9h7.5l-14.9-13.9L52.1-96.2h7.5V-45.3z"/>
			<path class="st2" d="M115-60.4c1.4-2.7,4.2-4.6,7.5-4.6s6.1,1.9,7.5,4.6v-76.1h7.5l-15.1-13.9l-15.1,13.9h7.5v76.1H115z"/>
			<circle class="st0" cx="94.8" cy="-46.7" r="7.3"/>
			<circle class="st1" cx="67.2" cy="-39.2" r="7.3"/>
			<circle class="st2" cx="122.5" cy="-54.2" r="7.3"/>
			<path class="st1" d="M84.3-38.9l-4.1,1.1c-1.6,0.4-3.2-0.5-3.7-2.1l0,0c-0.4-1.6,0.5-3.2,2.1-3.7l4.1-1.1
				c1.6-0.4,3.2,0.5,3.7,2.1l0,0C86.9-41,85.9-39.3,84.3-38.9z"/>
			<path class="st0" d="M112.3-46.9l-4.1,1.1c-1.6,0.4-3.2-0.5-3.7-2.1l0,0c-0.4-1.6,0.5-3.2,2.1-3.7l4.1-1.1
				c1.6-0.4,3.2,0.5,3.7,2.1l0,0C114.9-49,113.9-47.3,112.3-46.9z"/>
		</g>
		<path class="st3" d="M96.4-185.2c-42.4,0-76.7,34.3-76.7,76.7c0,19.6,6.9,36.3,19,49.9c0,0,0.5,0.5,0.9,0.8
			c1.4,1.6,3.3,2.5,5.4,2.5c4.3,0,7.7-4,7.7-9c0-2.5-0.9-4.8-2.3-6.4l0,0c-9.2-10.5-13.5-22.8-13.5-37.8c0-32.9,26.7-59.6,59.6-59.6
			s59.6,26.7,59.6,59.6c0,15.8-6.1,30.1-16.1,40.7c-0.2,0.2-0.4,0.5-0.6,0.8c-1.4,1.6-2.3,3.9-2.3,6.4c0,5,3.5,9,7.7,9
			c1.9,0,3.7-0.8,5-2.2c0.9-0.8,1.9-1.6,2.7-2.4c12.9-13.7,20.7-32.2,20.7-52.4C173.1-150.9,138.8-185.2,96.4-185.2z"/>
	</g>
	<g>
		<text transform="matrix(1 0 0 1 208.3895 -104.3728)" class="st4 st5">ШКОЛА ИНВЕСТОРА</text>
		<text transform="matrix(1 0 0 1 208.3896 -59.2271)" class="st6 st7" style="font-size:48px;">Как заработать на инвестициях</text>
	</g>
</g>
<g>
	<g>
		<g>
			<path class="st0" d="M119,417.4c2.2-4.2,6.6-7.1,11.7-7.1c5.1,0,9.5,2.9,11.7,7.1V316.8H154l-23.4-21.6l-23.4,21.6H119V417.4z"/>
			<path class="st1" d="M76.1,429.1c2.2-4.2,6.6-7.1,11.7-7.1s9.5,2.9,11.7,7.1v-79h11.7l-23.4-21.6l-23.4,21.6h11.7L76.1,429.1
				L76.1,429.1z"/>
			<path class="st2" d="M161.9,405.7c2.2-4.2,6.6-7.1,11.7-7.1s9.5,2.9,11.7,7.1V287.6H197L173.6,266l-23.4,21.6h11.7L161.9,405.7
				L161.9,405.7z"/>
			<circle class="st0" cx="130.7" cy="426.9" r="11.4"/>
			<circle class="st1" cx="87.7" cy="438.6" r="11.4"/>
			<circle class="st2" cx="173.6" cy="415.2" r="11.4"/>
			<path class="st1" d="M115.9,437.6l-9.5,2.5c-1.6,0.4-3.2-0.5-3.7-2.1l-0.9-3.2c-0.4-1.6,0.5-3.2,2.1-3.7l9.5-2.5
				c1.6-0.4,3.2,0.5,3.7,2.1l0.9,3.2C118.5,435.5,117.5,437.2,115.9,437.6z"/>
			<path class="st0" d="M158.4,425.2l-9.5,2.5c-1.6,0.4-3.2-0.5-3.7-2.1l-0.9-3.2c-0.4-1.6,0.5-3.2,2.1-3.7l9.5-2.5
				c1.6-0.4,3.2,0.5,3.7,2.1l0.9,3.2C160.9,423.1,160,424.8,158.4,425.2z"/>
		</g>
		<path class="st3" d="M133.1,212c-65.7,0-119,53.3-119,119c0,30.4,10.6,56.4,29.4,77.4c0.1,0.1,0.8,0.8,1.3,1.3
			c2.2,2.4,5.1,3.9,8.3,3.9c6.6,0,12-6.3,12-14c0-3.9-1.3-7.4-3.5-9.9l0,0c-14.3-16.3-21-35.4-21-58.7c0-51,41.4-92.4,92.4-92.4
			s92.4,41.4,92.4,92.4c0,24.4-9.5,46.7-25,63.2c-0.4,0.4-0.7,0.8-1,1.3c-2.2,2.5-3.6,6.1-3.6,10c0,7.7,5.4,14,12,14
			c3,0,5.7-1.3,7.8-3.4c1.3-1.2,3-2.5,4.2-3.8C239.7,391,252,362.4,252,331C252.1,265.2,198.8,212,133.1,212z"/>
	</g>
	<g>
		<text transform="matrix(1 0 0 1 283.3895 299.6272)" class="st4 st5">ШКОЛА </text>
		<text transform="matrix(1 0 0 1 283.3895 386.0272)" class="st4 st5">ИНВЕСТОРА</text>
		<text transform="matrix(1 0 0 1 283.105 429.1201)" class="st6 st7" style="font-size:28.5px;">Как заработать на инвестициях</text>
	</g>
</g>
<rect x="-89.6" y="846" width="1194.2" height="1572.2"/>
<g>
	<g>
		<g>
			<path class="st0" d="M149,1479.4c2.2-4.2,6.6-7.1,11.7-7.1s9.5,2.9,11.7,7.1v-100.6H184l-23.4-21.6l-23.4,21.6H149V1479.4z"/>
			<path class="st1" d="M106.1,1491.1c2.2-4.2,6.6-7.1,11.7-7.1s9.5,2.9,11.7,7.1v-79h11.7l-23.4-21.6l-23.4,21.6h11.7
				C106.1,1412.1,106.1,1491.1,106.1,1491.1z"/>
			<path class="st2" d="M191.9,1467.7c2.2-4.2,6.6-7.1,11.7-7.1s9.5,2.9,11.7,7.1v-118.1H227l-23.4-21.6l-23.4,21.6h11.7
				L191.9,1467.7L191.9,1467.7z"/>
			<circle class="st0" cx="160.7" cy="1488.9" r="11.4"/>
			
				<ellipse transform="matrix(3.327798e-02 -0.9994 0.9994 3.327798e-02 -1385.9857 1568.2979)" class="st1" cx="117.7" cy="1500.6" rx="11.4" ry="11.4"/>
			<circle class="st2" cx="203.6" cy="1477.2" r="11.4"/>
			<path class="st1" d="M145.9,1499.6l-9.5,2.5c-1.6,0.4-3.2-0.5-3.7-2.1l-0.9-3.2c-0.4-1.6,0.5-3.2,2.1-3.7l9.5-2.5
				c1.6-0.4,3.2,0.5,3.7,2.1l0.9,3.2C148.5,1497.5,147.5,1499.2,145.9,1499.6z"/>
			<path class="st0" d="M188.4,1487.2l-9.5,2.5c-1.6,0.4-3.2-0.5-3.7-2.1l-0.9-3.2c-0.4-1.6,0.5-3.2,2.1-3.7l9.5-2.5
				c1.6-0.4,3.2,0.5,3.7,2.1l0.9,3.2C190.9,1485.1,190,1486.8,188.4,1487.2z"/>
		</g>
		<path class="st3" d="M163.1,1274c-65.7,0-119,53.3-119,119c0,30.4,10.6,56.4,29.4,77.4c0.1,0.1,0.8,0.8,1.3,1.3
			c2.2,2.4,5.1,3.9,8.3,3.9c6.6,0,12-6.3,12-14c0-3.9-1.3-7.4-3.5-9.9l0,0c-14.3-16.3-21-35.4-21-58.7c0-51,41.4-92.4,92.4-92.4
			s92.4,41.4,92.4,92.4c0,24.4-9.5,46.7-25,63.2c-0.4,0.4-0.7,0.8-1,1.3c-2.2,2.5-3.6,6.1-3.6,10c0,7.7,5.4,14,12,14
			c3,0,5.7-1.3,7.8-3.4c1.3-1.2,3-2.5,4.2-3.8c19.9-21.3,32.2-49.9,32.2-81.3C282.1,1327.2,228.8,1274,163.1,1274z"/>
	</g>
	<g>
		<text transform="matrix(1 0 0 1 313.3895 1361.6272)" class="st4 st5" style="fill:#FFFFFF;">ШКОЛА </text>
		<text transform="matrix(1 0 0 1 313.3895 1448.0272)" class="st4 st5" style="fill:#FFFFFF;">ИНВЕСТОРА</text>
		<text transform="matrix(1 0 0 1 313.1053 1491.6146)" class="st6 st7" style="font-size:29px;">Как заработать на инвестициях</text>
	</g>
</g>
<g>
	<g>
		<g>
			<path class="st0" d="M92.3,1183.2c1.4-2.7,4.2-4.6,7.5-4.6s6.1,1.9,7.5,4.6v-64.8h7.5l-15.1-13.9l-15.1,13.9h7.5v64.8H92.3z"/>
			<path class="st1" d="M64.6,1190.7c1.4-2.7,4.2-4.6,7.5-4.6s6.1,1.9,7.5,4.6v-50.9h7.5L72,1125.9l-15.1,13.9h7.5v50.9H64.6z"/>
			<path class="st2" d="M120,1175.6c1.4-2.7,4.2-4.6,7.5-4.6s6.1,1.9,7.5,4.6v-76.1h7.5l-15.1-13.9l-15.1,13.9h7.5v76.1H120z"/>
			<circle class="st0" cx="99.8" cy="1189.3" r="7.3"/>
			<circle class="st1" cx="72.2" cy="1196.8" r="7.3"/>
			<circle class="st2" cx="127.5" cy="1181.8" r="7.3"/>
			<path class="st1" d="M89.3,1197.1l-4.1,1.1c-1.6,0.4-3.2-0.5-3.7-2.1l0,0c-0.4-1.6,0.5-3.2,2.1-3.7l4.1-1.1
				c1.6-0.4,3.2,0.5,3.7,2.1l0,0C91.9,1195,90.9,1196.7,89.3,1197.1z"/>
			<path class="st0" d="M117.3,1189.1l-4.1,1.1c-1.6,0.4-3.2-0.5-3.7-2.1l0,0c-0.4-1.6,0.5-3.2,2.1-3.7l4.1-1.1
				c1.6-0.4,3.2,0.5,3.7,2.1l0,0C119.9,1187,118.9,1188.7,117.3,1189.1z"/>
		</g>
		<path class="st3" d="M101.4,1050.8c-42.4,0-76.7,34.3-76.7,76.7c0,19.6,6.9,36.3,19,49.9c0,0,0.5,0.5,0.9,0.8
			c1.4,1.6,3.3,2.5,5.4,2.5c4.3,0,7.7-4,7.7-9c0-2.5-0.9-4.8-2.3-6.4l0,0c-9.2-10.5-13.5-22.8-13.5-37.8c0-32.9,26.7-59.6,59.6-59.6
			s59.6,26.7,59.6,59.6c0,15.8-6.1,30.1-16.1,40.7c-0.2,0.2-0.4,0.5-0.6,0.8c-1.4,1.6-2.3,3.9-2.3,6.4c0,5,3.5,9,7.7,9
			c1.9,0,3.7-0.8,5-2.2c0.9-0.8,1.9-1.6,2.7-2.4c12.9-13.7,20.7-32.2,20.7-52.4C178.1,1085.1,143.8,1050.8,101.4,1050.8z"/>
	</g>
	<g>
		<text transform="matrix(1 0 0 1 213.3895 1131.6273)" class="st4 st5" style="fill:#FFFFFF;">ШКОЛА ИНВЕСТОРА</text>
		<text transform="matrix(1 0 0 1 213.39 1177.532)" class="st6 st7" style="font-size:48px;">Как заработать на инвестициях</text>
	</g>
</g>
<g>
	<g>
		<g>
			<path class="st0" d="M149,2049.4c2.2-4.2,6.6-7.1,11.7-7.1s9.5,2.9,11.7,7.1v-100.6H184l-23.4-21.6l-23.4,21.6H149V2049.4z"/>
			<path class="st1" d="M106.1,2061.1c2.2-4.2,6.6-7.1,11.7-7.1s9.5,2.9,11.7,7.1v-79h11.7l-23.4-21.6l-23.4,21.6h11.7
				C106.1,1982.1,106.1,2061.1,106.1,2061.1z"/>
			<path class="st2" d="M191.9,2037.7c2.2-4.2,6.6-7.1,11.7-7.1s9.5,2.9,11.7,7.1v-118.1H227l-23.4-21.6l-23.4,21.6h11.7
				L191.9,2037.7L191.9,2037.7z"/>
			<circle class="st0" cx="160.7" cy="2058.9" r="11.4"/>
			
				<ellipse transform="matrix(3.327798e-02 -0.9994 0.9994 3.327798e-02 -1955.6699 2119.3293)" class="st1" cx="117.7" cy="2070.6" rx="11.4" ry="11.4"/>
			<circle class="st2" cx="203.6" cy="2047.2" r="11.4"/>
			<path class="st1" d="M145.9,2069.6l-9.5,2.5c-1.6,0.4-3.2-0.5-3.7-2.1l-0.9-3.2c-0.4-1.6,0.5-3.2,2.1-3.7l9.5-2.5
				c1.6-0.4,3.2,0.5,3.7,2.1l0.9,3.2C148.5,2067.5,147.5,2069.2,145.9,2069.6z"/>
			<path class="st0" d="M188.4,2057.2l-9.5,2.5c-1.6,0.4-3.2-0.5-3.7-2.1l-0.9-3.2c-0.4-1.6,0.5-3.2,2.1-3.7l9.5-2.5
				c1.6-0.4,3.2,0.5,3.7,2.1l0.9,3.2C190.9,2055.1,190,2056.8,188.4,2057.2z"/>
		</g>
		<path class="st3" d="M163.1,1844c-65.7,0-119,53.3-119,119c0,30.4,10.6,56.4,29.4,77.4c0.1,0.1,0.8,0.8,1.3,1.3
			c2.2,2.4,5.1,3.9,8.3,3.9c6.6,0,12-6.3,12-14c0-3.9-1.3-7.4-3.5-9.9l0,0c-14.3-16.3-21-35.4-21-58.7c0-51,41.4-92.4,92.4-92.4
			s92.4,41.4,92.4,92.4c0,24.4-9.5,46.7-25,63.2c-0.4,0.4-0.7,0.8-1,1.3c-2.2,2.5-3.6,6.1-3.6,10c0,7.7,5.4,14,12,14
			c3,0,5.7-1.3,7.8-3.4c1.3-1.2,3-2.5,4.2-3.8c19.9-21.3,32.2-49.9,32.2-81.3C282.1,1897.2,228.8,1844,163.1,1844z"/>
	</g>
	<g>
		<text transform="matrix(1 0 0 1 313.3895 1931.6272)" class="st4 st5" style="fill:#FFFFFF;">ФОРУМ </text>
		<text transform="matrix(1 0 0 1 313.3895 2018.0272)" class="st4 st5" style="fill:#FFFFFF;">ИНВЕСТОРА</text>
		<text transform="matrix(1 0 0 1 313.1053 2061.6147)" class="st6 st7" style="font-size:29px;">Как заработать на инвестициях</text>
	</g>
</g>
<g>
	<g>
		<g>
			<path class="st0" d="M92.3,1733.2c1.4-2.7,4.2-4.6,7.5-4.6s6.1,1.9,7.5,4.6v-64.8h7.5l-15.1-13.9l-15.1,13.9h7.5v64.8H92.3z"/>
			<path class="st1" d="M64.6,1740.7c1.4-2.7,4.2-4.6,7.5-4.6s6.1,1.9,7.5,4.6v-50.9h7.5L72,1675.9l-15.1,13.9h7.5v50.9H64.6z"/>
			<path class="st2" d="M120,1725.6c1.4-2.7,4.2-4.6,7.5-4.6s6.1,1.9,7.5,4.6v-76.1h7.5l-15.1-13.9l-15.1,13.9h7.5v76.1H120z"/>
			<circle class="st0" cx="99.8" cy="1739.3" r="7.3"/>
			<circle class="st1" cx="72.2" cy="1746.8" r="7.3"/>
			<circle class="st2" cx="127.5" cy="1731.8" r="7.3"/>
			<path class="st1" d="M89.3,1747.1l-4.1,1.1c-1.6,0.4-3.2-0.5-3.7-2.1l0,0c-0.4-1.6,0.5-3.2,2.1-3.7l4.1-1.1
				c1.6-0.4,3.2,0.5,3.7,2.1l0,0C91.9,1745,90.9,1746.7,89.3,1747.1z"/>
			<path class="st0" d="M117.3,1739.1l-4.1,1.1c-1.6,0.4-3.2-0.5-3.7-2.1l0,0c-0.4-1.6,0.5-3.2,2.1-3.7l4.1-1.1
				c1.6-0.4,3.2,0.5,3.7,2.1l0,0C119.9,1737,118.9,1738.7,117.3,1739.1z"/>
		</g>
		<path class="st3" d="M101.4,1600.8c-42.4,0-76.7,34.3-76.7,76.7c0,19.6,6.9,36.3,19,49.9c0,0,0.5,0.5,0.9,0.8
			c1.4,1.6,3.3,2.5,5.4,2.5c4.3,0,7.7-4,7.7-9c0-2.5-0.9-4.8-2.3-6.4l0,0c-9.2-10.5-13.5-22.8-13.5-37.8c0-32.9,26.7-59.6,59.6-59.6
			s59.6,26.7,59.6,59.6c0,15.8-6.1,30.1-16.1,40.7c-0.2,0.2-0.4,0.5-0.6,0.8c-1.4,1.6-2.3,3.9-2.3,6.4c0,5,3.5,9,7.7,9
			c1.9,0,3.7-0.8,5-2.2c0.9-0.8,1.9-1.6,2.7-2.4c12.9-13.7,20.7-32.2,20.7-52.4C178.1,1635.1,143.8,1600.8,101.4,1600.8z"/>
	</g>
	<g>
		<text transform="matrix(1 0 0 1 213.3895 1681.6273)" class="st4 st5" style="fill:#FFFFFF;">ФОРУМ ИНВЕСТОРА</text>
		<text transform="matrix(1 0 0 1 213.39 1730.532)" class="st6 st7 st8">Как заработать на инвестициях</text>
	</g>
</g>
<g>
	<g>
		<g>
			<path class="st0" d="M121,700.4c2.2-4.2,6.6-7.1,11.7-7.1c5.1,0,9.5,2.9,11.7,7.1V599.8H156l-23.4-21.6l-23.4,21.6H121V700.4z"/>
			<path class="st1" d="M78.1,712.1c2.2-4.2,6.6-7.1,11.7-7.1s9.5,2.9,11.7,7.1v-79h11.7l-23.4-21.6l-23.4,21.6h11.7L78.1,712.1
				L78.1,712.1z"/>
			<path class="st2" d="M163.9,688.7c2.2-4.2,6.6-7.1,11.7-7.1s9.5,2.9,11.7,7.1V570.6H199L175.6,549l-23.4,21.6h11.7L163.9,688.7
				L163.9,688.7z"/>
			<circle class="st0" cx="132.7" cy="709.9" r="11.4"/>
			<circle class="st1" cx="89.7" cy="721.6" r="11.4"/>
			<circle class="st2" cx="175.6" cy="698.2" r="11.4"/>
			<path class="st1" d="M117.9,720.6l-9.5,2.5c-1.6,0.4-3.2-0.5-3.7-2.1l-0.9-3.2c-0.4-1.6,0.5-3.2,2.1-3.7l9.5-2.5
				c1.6-0.4,3.2,0.5,3.7,2.1l0.9,3.2C120.5,718.5,119.5,720.2,117.9,720.6z"/>
			<path class="st0" d="M160.4,708.2l-9.5,2.5c-1.6,0.4-3.2-0.5-3.7-2.1l-0.9-3.2c-0.4-1.6,0.5-3.2,2.1-3.7l9.5-2.5
				c1.6-0.4,3.2,0.5,3.7,2.1l0.9,3.2C162.9,706.1,162,707.8,160.4,708.2z"/>
		</g>
		<path class="st3" d="M135.1,495c-65.7,0-119,53.3-119,119c0,30.4,10.6,56.4,29.4,77.4c0.1,0.1,0.8,0.8,1.3,1.3
			c2.2,2.4,5.1,3.9,8.3,3.9c6.6,0,12-6.3,12-14c0-3.9-1.3-7.4-3.5-9.9l0,0c-14.3-16.3-21-35.4-21-58.7c0-51,41.4-92.4,92.4-92.4
			s92.4,41.4,92.4,92.4c0,24.4-9.5,46.7-25,63.2c-0.4,0.4-0.7,0.8-1,1.3c-2.2,2.5-3.6,6.1-3.6,10c0,7.7,5.4,14,12,14
			c3,0,5.7-1.3,7.8-3.4c1.3-1.2,3-2.5,4.2-3.8C241.7,674,254,645.4,254,614C254.1,548.2,200.8,495,135.1,495z"/>
	</g>
	<g>
		<text transform="matrix(1 0 0 1 285.3895 582.6272)" class="st4 st5">ФОРУМ </text>
		<text transform="matrix(1 0 0 1 285.3895 669.0272)" class="st4 st5">ИНВЕСТОРА</text>
		<text transform="matrix(1 0 0 1 285.105 712.1201)" class="st6 st7" style="font-size:28.5px;">Как заработать на инвестициях</text>
	</g>
</g>
</svg>
