<?xml version="1.0" encoding="utf-8"?>
<!-- Generator: Adobe Illustrator 22.0.1, SVG Export Plug-In . SVG Version: 6.00 Build 0)  -->
<svg version="1.1" id="Capa_1" xmlns="http://www.w3.org/2000/svg" xmlns:xlink="http://www.w3.org/1999/xlink" x="0px" y="0px"
	 viewBox="0 0 512 512" style="enable-background:new 0 0 512 512;" xml:space="preserve">
<style type="text/css">
	.st0{fill:#FFAB00;}
</style>
<g>
	<g>
		<path class="st0" d="M303.6,119.4c-3.7,0-7-2.7-7.6-6.5c-0.7-4.2,2.2-8.2,6.4-8.9l167.8-28c4.2-0.7,8.2,2.1,8.9,6.4
			c0.7,4.2-2.2,8.2-6.4,8.9l-167.8,28C304.5,119.3,304,119.4,303.6,119.4z"/>
		<path class="st0" d="M40.6,163.3c-3.7,0-7-2.7-7.6-6.5c-0.7-4.2,2.2-8.2,6.4-8.9l169.1-28.2c4.3-0.8,8.2,2.2,8.9,6.4
			c0.7,4.2-2.2,8.2-6.4,8.9L41.9,163.1C41.4,163.2,41,163.3,40.6,163.3z"/>
	</g>
	<g>
		<g>
			<path class="st0" d="M416.4,361.6c-52.7,0-95.6-42.9-95.6-95.6c0-4.3,3.5-7.8,7.8-7.8h175.7c4.3,0,7.8,3.5,7.8,7.8
				C512,318.7,469.1,361.6,416.4,361.6z M336.6,273.7c3.9,40.6,38.2,72.4,79.7,72.4c41.6,0,75.8-31.8,79.7-72.4H336.6z"/>
			<path class="st0" d="M328.5,273.7c-1.2,0-2.4-0.3-3.6-0.9c-3.8-2-5.3-6.7-3.3-10.5L409.5,94c2.7-5.1,11.1-5.1,13.8,0l87.9,168.3
				c2,3.8,0.5,8.5-3.3,10.5c-3.8,2-8.5,0.5-10.5-3.3l-81-155.2l-81,155.2C334,272.2,331.3,273.7,328.5,273.7z"/>
		</g>
		<g>
			<path class="st0" d="M95.6,411.8C42.9,411.8,0,368.9,0,316.1c0-4.3,3.5-7.8,7.8-7.8h175.7c4.3,0,7.8,3.5,7.8,7.8
				C191.3,368.9,148.4,411.8,95.6,411.8z M15.9,323.9c3.9,40.6,38.2,72.4,79.7,72.4c41.5,0,75.8-31.8,79.7-72.4H15.9z"/>
			<path class="st0" d="M183.5,323.9c-2.8,0-5.5-1.5-6.9-4.2l-81-155.2l-81,155.2c-2,3.8-6.7,5.2-10.5,3.3c-3.8-2-5.3-6.7-3.3-10.5
				l87.9-168.3c2.7-5.1,11.1-5.1,13.8,0l87.9,168.3c2,3.8,0.5,8.5-3.3,10.5C185.9,323.6,184.7,323.9,183.5,323.9z"/>
		</g>
	</g>
	<path class="st0" d="M256,174.6c-30.4,0-55.1-24.7-55.1-55.1c0-30.4,24.7-55.1,55.1-55.1s55.1,24.7,55.1,55.1
		C311.1,149.9,286.4,174.6,256,174.6z M256,80c-21.8,0-39.6,17.7-39.6,39.6s17.7,39.6,39.6,39.6c21.8,0,39.6-17.8,39.6-39.6
		S277.8,80,256,80z"/>
	<path class="st0" d="M256,466.4c-4.3,0-7.8-3.5-7.8-7.8V166.9c0-4.3,3.5-7.8,7.8-7.8c4.3,0,7.8,3.5,7.8,7.8v291.7
		C263.8,462.9,260.3,466.4,256,466.4z"/>
	<path class="st0" d="M256,80c-4.3,0-7.8-3.5-7.8-7.8V53.4c0-4.3,3.5-7.8,7.8-7.8c4.3,0,7.8,3.5,7.8,7.8v18.8
		C263.8,76.5,260.3,80,256,80z"/>
	<path class="st0" d="M358.3,466.4H153.7c-4.3,0-7.8-3.5-7.8-7.8s3.5-7.8,7.8-7.8h204.7c4.3,0,7.8,3.5,7.8,7.8
		S362.6,466.4,358.3,466.4z"/>
</g>
</svg>
