<?xml version="1.0" encoding="utf-8"?>
<!-- Generator: Adobe Illustrator 22.0.1, SVG Export Plug-In . SVG Version: 6.00 Build 0)  -->
<svg version="1.1" id="Capa_1" xmlns="http://www.w3.org/2000/svg" xmlns:xlink="http://www.w3.org/1999/xlink" x="0px" y="0px"
	 viewBox="0 0 27 27" style="enable-background:new 0 0 27 27;" xml:space="preserve">
<style type="text/css">
	.st0{fill:#FFFFFF;}
</style>
<g>
	<path class="st0" d="M13.6,5.9c-1.9,0-3.5,1.5-3.5,3.5s1.5,3.5,3.5,3.5S17,11.3,17,9.4S15.5,5.9,13.6,5.9z M13.6,11.8
		c-1.4,0-2.5-1.1-2.5-2.5s1.1-2.5,2.5-2.5S16,8,16,9.4S14.9,11.8,13.6,11.8z"/>
	<path class="st0" d="M20.2,2.8C18.4,1,16,0,13.5,0C11,0,8.6,1,6.8,2.8c-3.3,3.3-3.7,9.5-0.9,13.3L13.5,27l7.6-10.9
		C23.9,12.3,23.5,6.1,20.2,2.8z M20.3,15.5l-6.8,9.8l-6.8-9.8c-2.6-3.4-2.2-9,0.8-12c1.6-1.6,3.7-2.5,6-2.5s4.4,0.9,6,2.5
		C22.5,6.4,22.8,12.1,20.3,15.5z"/>
</g>
</svg>
