<?xml version="1.0" encoding="utf-8"?>
<!-- Generator: Adobe Illustrator 17.1.0, SVG Export Plug-In . SVG Version: 6.00 Build 0)  -->
<!DOCTYPE svg PUBLIC "-//W3C//DTD SVG 1.1//EN" "http://www.w3.org/Graphics/SVG/1.1/DTD/svg11.dtd">
<svg version="1.1" id="Capa_1" xmlns="http://www.w3.org/2000/svg" xmlns:xlink="http://www.w3.org/1999/xlink" x="0px" y="0px"
	 viewBox="0 0 30 30" enable-background="new 0 0 30 30" xml:space="preserve">
<g>
	<g>
		<path fill="#3DAFC4" d="M26.2,4.4C23.6,1.6,20.1,0,16.5,0c-3.7,0-7.2,1.6-9.9,4.5c-0.3,0.3-0.3,0.8,0,1.1s0.8,0.3,1,0
			c2.3-2.6,5.5-4,8.8-4c6.8,0,12.3,6,12.3,13.4s-5.5,13.4-12.3,13.4S4.1,22.4,4.1,15v-0.2l1.2,1.3c0.1,0.2,0.3,0.2,0.5,0.2
			s0.4-0.1,0.5-0.2c0.3-0.3,0.3-0.8,0-1.1l-2.5-2.7c-0.3-0.3-0.8-0.3-1,0L0.3,15c-0.3,0.3-0.3,0.8,0,1.1c0.3,0.3,0.8,0.3,1,0
			l1.2-1.3V15c0,4,1.4,7.8,4,10.6s6.1,4.4,9.7,4.4c3.7,0,7.1-1.6,9.7-4.4s4-6.6,4-10.6C30.2,11,28.8,7.2,26.2,4.4z"/>
		<path fill="#3DAFC4" d="M20.4,9.5l-9.1,9.9c-0.3,0.3-0.3,0.8,0,1.1c0.1,0.2,0.3,0.2,0.5,0.2s0.4-0.1,0.5-0.2l9.1-9.9
			c0.3-0.3,0.3-0.8,0-1.1C21.1,9.2,20.7,9.2,20.4,9.5z"/>
		<path fill="#3DAFC4" d="M18,16.2c-1,1.1-1,3,0,4.1c0.5,0.5,1.2,0.8,1.9,0.8s1.4-0.3,1.9-0.8c1-1.1,1-3,0-4.1
			c-0.5-0.5-1.2-0.8-1.9-0.8S18.5,15.7,18,16.2z M20.7,19.2c-0.2,0.2-0.5,0.4-0.8,0.4s-0.6-0.1-0.8-0.4c-0.5-0.5-0.5-1.3,0-1.8
			c0.2-0.2,0.5-0.4,0.8-0.4s0.6,0.1,0.8,0.4C21.2,17.9,21.2,18.7,20.7,19.2z"/>
		<path fill="#3DAFC4" d="M13,8.8c-0.7,0-1.4,0.3-1.9,0.8s-0.8,1.3-0.8,2s0.3,1.5,0.8,2s1.2,0.8,1.9,0.8s1.4-0.3,1.9-0.8
			s0.8-1.3,0.8-2s-0.3-1.5-0.8-2S13.7,8.8,13,8.8z M13.9,12.6c-0.2,0.2-0.5,0.4-0.8,0.4s-0.6-0.1-0.8-0.4C12.1,12.4,12,12,12,11.7
			s0.1-0.7,0.3-0.9s0.5-0.4,0.8-0.4s0.6,0.1,0.8,0.4c0.2,0.2,0.3,0.6,0.3,0.9C14.2,12.1,14.1,12.4,13.9,12.6z"/>
	</g>
</g>
</svg>
