<?xml version="1.0" encoding="utf-8"?>
<!-- Generator: Adobe Illustrator 17.0.0, SVG Export Plug-In . SVG Version: 6.00 Build 0)  -->
<!DOCTYPE svg PUBLIC "-//W3C//DTD SVG 1.1//EN" "http://www.w3.org/Graphics/SVG/1.1/DTD/svg11.dtd">
<svg version="1.1" id="Слой_1" xmlns="http://www.w3.org/2000/svg" xmlns:xlink="http://www.w3.org/1999/xlink" x="0px" y="0px"
	 width="328px" height="60px" viewBox="0 0 328 60" style="enable-background:new 0 0 328 60;" xml:space="preserve">
<path style="fill:#EAEAEA;stroke:#6F7070;stroke-width:0.25;stroke-miterlimit:10;" d="M-0.667,41.4023056h4.284874
	l1.0292742-2.2216034h1.7149558V22.9414043h1.2007699v-0.8544998h3.4278145v-1.6229992h3.6002951v1.2821999h2.5709295V38.752903
	h5.3141575v-6.2383003h5.3151684v-1.0262985h6.2563686v3.4188995h6.9438667v1.282299h3.5993118v3.3330002l1.8872452-0.7695999
	v-1.2821999h4.3710289l0.1723976,0.6846008h1.0273705v-5.9189987l1.265358-0.705101v-1.9237995h3.0204277v-3.4598999h3.021431
	v2.4354954h2.8931618v1.0244045h0.9646873l0.6640167,1.0263996l0.9422264-2.1366997h3.5159607H69.19207v-1.964901
	l0.6855774-1.112299v-3.6737995h0.9432297v3.5888939l1.0282669,1.0263062v2.0507984h1.629715l1.0283813,2.6494007
	l0.9422073-0.9403992V23.967804h5.7646637l0.9001083-0.8974991h5.6569366l0.321228-2.4355011l1.0293732,5.0634003h0.9001007
	l0.1928635,2.8204002h1.3497009v7.5l1.54245,0.3212013v-6.0263004h-0.4494934l0.3849106-2.7569008h2.0586472v-3.2040997
	c0,0,0.5131836-1.1522999,0.5131836-1.1543007c0.093071-0.2069988,0.0069199-0.625,0.0186539-0.8446999
	c0.0411224-0.7362995,0.1792221-1.4618988,0.4034653-2.1660004c0.5768814-1.8095989,1.884346-3.4003983,3.4083481-4.5175991
	c0.0606766-0.0449047,1.3133011-0.7226,1.3133011-0.4843998v-1.4745998l0.7071381-0.2558002V8.9033051l0.6424561-0.7051001
	V6.2754049l0.6425629-0.5771999v-2.5644l-0.321228-0.6406c0,0,0.4505005-1.0264001,1.1566391-0.5127001
	c0.708046,0.5127001,0,0.8329999,0,0.8329999v2.8202999l0.6434631,0.6416001v1.4101l0.7717285,1.1542997v4.4863997
	l0.9646835,0.5771008c0,0,0,1.0859995,0,1.0899c0,0.1327953,0.8354187,0.1922998,1.8001022,0.7684994
	c0.6561966,0.3935995,1.5043488,1.2041006,1.9931641,1.7948999c1.1223373,1.3603954,1.5062485,3.2929993,1.8001022,5
	l0.5131836,1.4755993v3.3330002h2.0577393l0.5464859,2.8203011h-0.5788727v2.9482994h6.9546967
	c0,0,1.8001022,0.2363014,1.8853455,2.2011948c0.0842438,1.9658051,0,1.4521065,0,1.4521065h2.3995361v-1.9648018h3.686348
	h5.9145966v1.3671989h7.9712372v-1.282299h5.1437683v5.4706993c0,0,3.771698-0.1709023,4.6286621-0.1709023
	c0.8569794,0,1.4563141-0.8553963,2.5718384-0.9403954c1.1126099-0.0859032,1.8002014,0,1.8002014,0h0.5141907v-1.0264015h2.3994293
	v1.0264015l4.8852234,2.1357002v-2.4775009l1.0293732-1.0264015h2.3132935v-1.1963005h8.8302002v0.7686005h2.0567474
	l1.2859192,1.2821999l0.8990936-1.0243988v-5.6836014l0.6013336-2.6913986l0.8569794,2.7764015v5.0429993l1.2859192,1.1102982
	h2.0567474v-9.9989986l-0.4505005-0.4492054v-2.2431946h7.6941376h4.1996307v12.7783012h2.4866943v-0.5566025h1.1125031V27.5996037
	l0.9442291-0.9813995h1.241806v-0.6415997h4.2437439v1.0263004h1.8432312l0.7717285,0.8544998v12.4345951h3.7491302
	l0.5787811,0.9189034h1.446579l0.9636841,0.8017998h1.2860107l0.5474854,0.9297028l0.851059-0.8506012l1.3339539-1.169899
	l0.4182129-0.5127029V27.140604h4.532608v-1.6346989h5.9351501V9.5234051h2.6570587V4.1387048h6.6010742v7.8632951h2.313385
	v29.4003067l1.0292816-0.5116997l0.3427887-1.7099037l0.4280548,1.7099037v0.9394989l0.9441071-0.0849991l0.9001007,0.8974991
	v-7.222702l3.2134094-0.4266968h6.7509003h10.2219238V22.6855049h2.7637939
	c0.3016663-1.8837013,0.4300537-3.7880001,0.9882812-5.6230011c0.4367371-1.4395037,1.0684509-2.7958994,1.7363892-4.1415987
	c0.5749512-1.1563005,1.6013184-3.4696999,3.2790833-3.0019999c1.0312805,0.2890949,1.5758362,1.5126991,2.078186,2.3427992
	c2.1292725,3.5205002,3.0567322,7.6493998,3.4260254,11.7060995c0.0645752,0.7040997,0.7061157,2.2441006,0.7061157,2.7558002
	c0,0.512701,0.1292725,2.6923962,0.1292725,2.6923962v5.9619026l6.1064453,1.0254021v3.5253983h1.5435791h2.1860046v-8.0770988
	h0.8569946v-2.9698009l0.5356445-0.5340996h3.4934998l0.5249939,0.5234013v1.8485985h1.5748596v-0.7264996h4.7148438v-2.3516006
	c0,0,2.4914856-3.3554993,4.3073425-3.4179993c1.8637695-0.0643997,4.3494568,2.2206993,4.9929199,2.8633003
	c0.4064636,0.4062996,0.2987671,0.6406002,0.2987671,0.6406002v3.4200001l1.6727295,0.4696999v2.3934994h13.5861816v28.2901001
	H-0.6248783L-0.667,41.4023056z"/>
</svg>
