<?xml version="1.0" encoding="utf-8"?>
<!-- Generator: Adobe Illustrator 17.0.0, SVG Export Plug-In . SVG Version: 6.00 Build 0)  -->
<!DOCTYPE svg PUBLIC "-//W3C//DTD SVG 1.1//EN" "http://www.w3.org/Graphics/SVG/1.1/DTD/svg11.dtd">
<svg version="1.1" id="Capa_1" xmlns="http://www.w3.org/2000/svg" xmlns:xlink="http://www.w3.org/1999/xlink" x="0px" y="0px"
	 width="130px" height="100px" viewBox="0 0 130 100" enable-background="new 0 0 130 100" xml:space="preserve">
<g>
	<path d="M110.648,77.092c-0.021,0.008-0.034,0.025-0.054,0.034c0.273-17.854-0.485-35.747-0.76-53.6
		c0.188-0.159,0.275-0.436,0.052-0.648c-0.706-0.676-2.149-1.645-3.16-1.26c-0.106,0.041-0.186,0.126-0.238,0.223
		c-0.091-2.291-0.278-4.585-0.643-6.892c-0.079-0.499-0.655-0.472-0.911-0.155c0.007-0.205-0.08-0.411-0.329-0.545
		C92.401,7.745,76.07,8.506,65.391,17.713c-3.172-4.944-10.848-7.395-16.235-8.625c-7.625-1.742-15.306-1.18-22.695,1.283
		c-0.226,0.075-0.346,0.237-0.398,0.417c-0.159,0.055-0.301,0.166-0.316,0.386c-0.196,2.901-0.35,5.806-0.485,8.714
		c-1.449,0.088-3.104,0.335-4.421,1.008c-0.159-0.116-0.442-0.039-0.475,0.222c-0.003,0.025-0.005,0.05-0.008,0.075
		c-0.147,0.097-0.317,0.166-0.451,0.278c-0.408,0.339-0.08,0.807,0.325,0.905c-1.39,11.691-1.746,23.668-1.671,35.591
		c-0.244-0.003-0.24,0.37,0.005,0.393c0.05,7.01,0.244,14,0.465,20.903c0.009,0.287,0.185,0.463,0.398,0.531
		c0.076,0.109,0.182,0.193,0.341,0.18c13.082-1.025,26.041-1.574,39.165-1.626c0.154,0,0.268-0.055,0.36-0.129
		c1.148,1.3,2.894,1.973,4.619,1.607c0.007-0.001,0.011-0.007,0.018-0.008c-0.027,2.726-0.04,5.456-0.08,8.18
		c-0.006,0.374,0.239,0.58,0.523,0.638c-0.123,0.373,0.286,0.838,0.677,0.573c1.96-1.331,3.823-2.798,5.655-4.298
		c1.53,1.53,3.053,3.314,4.931,4.333c0.148,0.08,0.298,0.054,0.431-0.008c0.043,0.881,1.427,0.873,1.424-0.036
		c-0.01-3.288,0.01-6.578,0.035-9.868c10.474-0.393,20.942-0.216,31.406-0.515c0.202-0.006,0.326-0.101,0.407-0.224
		c0.103,0.096,0.269,0.142,0.4,0.082c0.531-0.247,1.012-0.54,1.336-1.03C111.247,77.386,110.956,76.971,110.648,77.092z
		 M23.151,21.43c0.687-0.242,1.38-0.478,2.072-0.71c-0.23,5.119-0.371,10.248-0.485,15.376c-0.021-0.034-0.055-0.062-0.104-0.072
		c-0.999-0.207-2.04-0.235-3.055-0.321c-0.169-0.015-0.212,0.276-0.041,0.3c1.008,0.141,2.029,0.35,3.049,0.371
		c0.075,0.001,0.121-0.048,0.147-0.106c-0.19,8.614-0.283,17.233-0.42,25.838c-1.323-0.185-2.651-0.327-3.982-0.453
		c0.017-1.105,0.043-2.21,0.064-3.314c0.834-0.075,1.658-0.244,2.446-0.561c0.221-0.089,0.14-0.437-0.101-0.368
		c-0.779,0.228-1.553,0.392-2.335,0.484c0.019-1.023,0.043-2.045,0.064-3.068c1.169,0.118,2.346,0.253,3.516,0.255
		c0.221,0,0.287-0.362,0.055-0.399c-1.173-0.187-2.372-0.242-3.561-0.313c0.024-1.155,0.049-2.309,0.074-3.463
		c0.8,0.034,1.589-0.059,2.333-0.39c0.215-0.096,0.056-0.409-0.154-0.365c-0.734,0.158-1.438,0.245-2.168,0.231
		c0.025-1.145,0.043-2.289,0.068-3.434c0.918,0.011,1.838,0.023,2.752-0.047c0.235-0.018,0.235-0.346,0-0.365
		c-0.911-0.069-1.828-0.059-2.743-0.047c0.018-0.86,0.031-1.72,0.048-2.579c0.799,0.025,1.6,0.055,2.395,0.013
		c0.278-0.015,0.278-0.417,0-0.432c-0.792-0.043-1.59-0.013-2.387,0.011c0.024-1.18,0.04-2.361,0.063-3.542
		c1.128,0.399,2.346,0.548,3.534,0.428c0.309-0.032,0.321-0.508,0-0.492c-1.211,0.064-2.343-0.03-3.527-0.286
		c0.04-2.121,0.071-4.243,0.101-6.364c1.176,0.109,2.486,0.141,3.523-0.286c0.304-0.125,0.286-0.587-0.081-0.599
		c-0.704-0.024-1.407,0.145-2.111,0.182c-0.441,0.024-0.88-0.011-1.319-0.03c0.015-1.097,0.01-2.194,0.021-3.291
		c0.963-0.039,1.955-0.065,2.864-0.298c0.337-0.087,0.245-0.561-0.079-0.582c-0.902-0.06-1.857,0.092-2.781,0.228
		c0.007-0.759,0.007-1.517,0.015-2.276c1.128-0.077,2.228,0.009,3.366-0.009c0.355-0.006,0.458-0.565,0.087-0.64
		c-1.113-0.224-2.315-0.1-3.45,0.097c0.01-1.152,0.026-2.305,0.023-3.456C21.693,22.075,22.421,21.687,23.151,21.43z M20.325,62.122
		c1.325,0.162,2.652,0.308,3.982,0.41c-0.027,1.692-0.048,3.386-0.082,5.075c-1.283-0.128-2.566-0.245-3.85-0.365
		c-0.058-0.006-0.096,0.018-0.13,0.043C20.261,65.565,20.299,63.844,20.325,62.122z M63.94,78.665
		c-0.059-0.018-0.121-0.032-0.191-0.028c-1.45,0.08-2.768-0.224-3.879-1.22c-0.178-0.159-0.36-0.142-0.517-0.069
		c-0.096-0.108-0.235-0.185-0.422-0.194c-12.884-0.598-25.967,0.025-38.739,1.841c-0.014-0.96-0.011-1.92-0.018-2.88
		c6.332,0.242,12.653,0.003,18.931-0.87c0.239-0.033,0.185-0.448-0.057-0.424c-6.289,0.597-12.559,0.966-18.876,0.967
		c-0.008-1.169,0.019-2.338,0.021-3.507c11.269,0.69,22.656,0.623,33.916-0.234c0.473-0.036,0.484-0.766,0-0.745
		c-11.316,0.457-22.588,0.681-33.913,0.649c0.002-1.442,0.034-2.883,0.047-4.325c0.035,0.034,0.075,0.066,0.134,0.073
		c1.279,0.139,2.559,0.279,3.84,0.408c-0.018,0.907-0.027,1.815-0.049,2.721c-0.014,0.6,0.664,0.756,1.034,0.475
		c0.091,0.021,0.19,0.01,0.286-0.076c4.989-4.538,12.198-6.293,18.74-7.104c3.715-0.46,18.637-1.538,19.262,3.745
		c0.04,0.338,0.283,0.533,0.549,0.597C64.014,71.869,63.972,75.266,63.94,78.665z M64.056,66.095
		c-2.479-3.174-10.42-3.674-13.293-3.728c-8.239-0.155-19.536,1.439-25.311,7.921c0.016-0.686,0.039-1.374,0.057-2.06
		c0.396,0.035,0.792,0.08,1.189,0.108c0.3,0.022,0.284-0.42,0-0.458c-0.391-0.05-0.784-0.084-1.176-0.129
		c0.5-18.691,1.504-37.475,1.142-56.157c0.043-0.005,0.081,0,0.128-0.015c11.995-3.929,29.338-3.229,38.313,7.054
		c0.015,0.017,0.034,0.011,0.051,0.025C64.317,34.434,64.173,50.271,64.056,66.095z M76.054,88.25
		c-1.245-1.824-3.199-3.276-4.797-4.776c-0.294-0.276-0.695-0.252-0.993,0c-1.688,1.423-3.381,2.842-5.038,4.303
		c0.313-23.095,1.219-46.276,0.629-69.367c-0.001-0.025-0.021-0.034-0.025-0.057c3.788-2.29,7.62-4.035,11.5-5.173
		C75.471,38.058,75.991,63.314,76.054,88.25z M77.976,13.009c8.417-2.317,17.055-1.762,25.948,2.403
		c0.371,0.174,0.718,0.005,0.895-0.261c0,0.027-0.008,0.052-0.003,0.081c2.634,16.731-0.793,34.075,1.277,51.021
		c0.006,0.044,0.039,0.065,0.055,0.1c-0.043-0.041-0.087-0.082-0.15-0.109c-9.072-3.85-18.91-4.517-28.297-1.417
		C77.977,47.547,78.381,30.252,77.976,13.009z M109.385,78.148c-0.059-0.193-0.191-0.366-0.453-0.39
		c-10.343-0.954-21.083-0.366-31.402,0.704c0.036-4.254,0.09-8.51,0.157-12.766c9.512-2.406,18.711-1.986,27.827,1.695
		c0.517,0.21,0.918-0.455,0.742-0.88c0.214,0.147,0.561,0.075,0.541-0.259c-0.531-9.103-0.981-18.186-0.689-27.307
		c0.18-5.637,0.587-11.176,0.393-16.737c0.017,0.026,0.023,0.056,0.049,0.08c0.358,0.322,0.701,0.361,1.156,0.515
		c0.415,0.14,0.794,0.334,1.17,0.54c-0.025,0.06-0.075,0.099-0.074,0.179c0.277,17.961,0.063,35.98,0.903,53.924
		c0.005,0.098,0.057,0.157,0.103,0.222C109.658,77.817,109.518,77.977,109.385,78.148z"/>
</g>
</svg>
