<svg width="50" height="24" viewBox="0 0 50 24" fill="none" xmlns="http://www.w3.org/2000/svg">
<path d="M49.0248 19.0507L43.5497 14.2507L39.7248 8.70073C39.6498 8.62573 39.6498 8.55073 39.5748 8.55073L34.2498 4.65073C34.1748 4.57573 34.0248 4.50073 33.8748 4.50073L28.8498 4.12573L24.0497 0.675731C23.9747 0.600731 23.8247 0.525733 23.6747 0.525733L16.2498 0.000732422C16.1748 0.000732422 16.0998 0.000732422 16.0248 0.000732422L8.67474 1.72573L0.724761 1.35073C0.424761 1.35073 0.27477 1.42573 0.12477 1.65073C-0.0252304 1.87573 -0.0252579 2.10073 0.0497421 2.32573L2.14978 8.32573V14.2507C2.14978 14.3257 2.14976 14.4007 2.22476 14.4757L4.17474 19.5757C4.24974 19.8757 4.54976 20.0257 4.84976 20.0257L12.8748 19.7257L14.2997 23.5507C14.3747 23.8507 14.6748 24.0007 14.9748 24.0007H15.7248L25.9247 23.5507C25.9997 23.5507 25.9998 23.5507 26.0748 23.5507L34.4748 21.4507H34.5497L36.8748 20.8507L48.4998 20.2507C48.7998 20.2507 49.0247 20.0257 49.1748 19.8007C49.3248 19.5757 49.2498 19.2757 49.0248 19.0507ZM29.5998 21.3007L34.3248 16.5757L37.7748 16.4257L33.9498 20.2507L29.5998 21.3007ZM38.8998 15.2257C38.8998 15.1507 38.8248 15.1507 38.7498 15.0757L37.1747 13.6507L39.6498 11.1757L40.9998 13.1257L38.8998 15.2257ZM38.8248 9.97573L36.1248 12.6757L34.3998 11.1757L37.0998 8.47573L38.6747 9.60073L38.8248 9.97573ZM30.1998 5.70073L32.2248 5.85073L31.0998 6.97573L30.1998 5.70073ZM33.9498 6.22573L35.8248 7.65073L33.2748 10.2007L31.9247 8.25073L33.9498 6.22573ZM3.57475 14.1757V8.25073C3.57475 8.17573 3.57477 8.10073 3.49977 8.02573L1.69975 2.92573L8.67474 3.22573C8.74974 3.22573 8.82478 3.22573 8.89978 3.22573L16.2498 1.50073L23.3748 2.02573L28.3998 5.70073L32.2248 11.2507C32.2248 11.3257 32.2998 11.3257 32.3748 11.4007L35.6747 14.2507C35.6747 14.2507 35.6748 14.2507 35.7498 14.2507L36.5748 15.0007L34.0998 15.1507C34.0248 15.1507 34.0248 15.1507 33.9498 15.1507L28.4748 15.4507C28.3998 15.4507 28.3998 15.4507 28.3248 15.4507L26.5998 15.5257L15.6498 18.2257L5.22476 18.6757L3.57475 14.1757ZM17.6747 22.5757L22.0998 18.1507L26.4498 17.0257L21.1248 22.3507L17.6747 22.5757ZM14.3748 19.7257L15.7997 19.6507C15.8747 19.6507 15.8748 19.6507 15.9498 19.6507L19.2498 18.8257L15.4247 22.6507L14.3748 19.7257ZM25.8498 22.2007L23.1498 22.2757L28.6248 16.8007L32.0748 16.6507L26.8248 21.9007L25.8498 22.2007ZM36.7248 19.5007L41.8248 14.4007L42.3498 15.2257C42.3498 15.3007 42.4248 15.3007 42.4998 15.3757L43.3998 16.1257L40.1747 19.3507L36.7248 19.5007ZM42.3498 19.2007L44.4498 17.1007L46.6248 18.9757L42.3498 19.2007Z" fill="#2C2C75"/>
</svg>
