<svg width="26" height="29" viewBox="0 0 26 29" fill="none" xmlns="http://www.w3.org/2000/svg">
<path d="M12.7151 29C12.5796 29 12.4441 28.9323 12.3086 28.8645L9.12396 26.2898C8.51415 25.8155 7.83657 25.5444 7.09125 25.4767L1.9417 24.9346C1.73843 24.9346 1.53516 24.7991 1.4674 24.5958L0.0445089 21.208C-0.0232483 21.0047 -0.0232545 20.8014 0.11226 20.5982L3.09358 16.736C4.10994 15.3809 4.17769 13.5514 3.22909 12.1963L0.11226 7.65655C-0.0232545 7.45328 -0.0232545 7.18225 0.11226 6.97898L2.61927 2.64253C2.75479 2.43925 3.02581 2.30374 3.29684 2.3715L4.24544 2.57477C6.07488 3.04907 7.97208 2.10047 8.71741 0.338786C8.78517 0.135514 9.05621 0 9.25948 0H16.1707C16.4417 0 16.645 0.135514 16.7128 0.338786C17.4581 2.10047 19.3553 2.98131 21.1847 2.57477L22.1333 2.3715C22.4044 2.30374 22.6754 2.43925 22.8109 2.64253L25.3179 6.97898C25.4534 7.18225 25.4534 7.45328 25.3179 7.65655L22.2011 12.1963C21.2525 13.5514 21.3202 15.3809 22.3366 16.736L25.3179 20.5982C25.4534 20.8014 25.4534 21.0047 25.3857 21.208L23.9628 24.5958C23.895 24.7991 23.6917 24.9346 23.4885 24.9346L18.3389 25.4767C17.5936 25.5444 16.916 25.8155 16.3062 26.2898L13.1216 28.8645C12.9861 29 12.8506 29 12.7151 29ZM2.48376 23.8505L7.22677 24.3248C8.17537 24.3926 9.12396 24.7991 9.86929 25.4089L12.7151 27.6449L15.5609 25.4089C16.3062 24.7991 17.2548 24.4603 18.2034 24.3248L22.9464 23.8505L24.0983 21.1402L21.3202 17.5491C19.9651 15.7874 19.8973 13.4159 21.1847 11.5865L24.0983 7.38552L21.9978 3.7944L21.5235 3.92991C19.2198 4.47197 16.916 3.45561 15.8319 1.35514H9.66601C8.58189 3.38786 6.27816 4.47197 3.97441 3.92991L3.50013 3.7944L1.33189 7.31777L4.24544 11.5187C5.46507 13.3482 5.46508 15.7197 4.10994 17.4813L1.33189 21.0725L2.48376 23.8505Z" fill="#2C2C75"/>
</svg>
