<svg width="26" height="30" viewBox="0 0 26 30" fill="none" xmlns="http://www.w3.org/2000/svg">
<path d="M22.3955 17.6554C21.3781 16.2988 21.3102 14.4673 22.2599 13.1107L25.3801 8.56591C25.5158 8.36242 25.5158 8.09109 25.3801 7.88759L22.8704 3.54633C22.7347 3.34284 22.4634 3.20717 22.192 3.27501L21.2424 3.4785C19.4109 3.95333 17.5116 3.00368 16.7655 1.24004C16.6976 1.03654 16.4263 0.900879 16.2228 0.900879H9.30391C9.03259 0.900879 8.8291 1.03654 8.76127 1.24004C8.01511 3.00368 6.11581 3.88549 4.28434 3.4785L3.33469 3.27501C3.06336 3.20717 2.79203 3.34284 2.65637 3.54633L0.14657 7.88759C0.010906 8.09109 0.010906 8.36242 0.14657 8.56591L3.26685 13.1107C4.21651 14.4673 4.14866 16.2988 3.13118 17.6554L0.14657 21.5219C0.010906 21.7254 0.0109018 21.9289 0.078734 22.1324L1.09622 24.6421L1.43538 25.524C1.50321 25.7275 1.70671 25.8631 1.91021 25.8631L7.06546 26.4058C7.81161 26.4736 8.48994 26.7449 9.10043 27.2198L12.2885 29.7974C12.2885 29.7974 12.3564 29.7974 12.3564 29.8652C12.3564 29.8652 12.4242 29.8652 12.4242 29.9331C12.492 29.9331 12.5599 30.0009 12.6277 30.0009C12.6955 30.0009 12.7634 30.0009 12.8312 29.9331C12.8312 29.9331 12.899 29.9331 12.899 29.8652C12.899 29.8652 12.9668 29.8652 12.9668 29.7974L16.155 27.2198C16.7655 26.7449 17.4438 26.4736 18.1899 26.4058L23.3452 25.8631C23.5487 25.8631 23.7522 25.7275 23.82 25.524L25.2445 22.1324C25.3123 21.9289 25.3123 21.7254 25.1766 21.5219L22.3955 17.6554ZM3.53818 4.63165L4.01301 4.76731C4.28434 4.83515 4.48784 4.83515 4.75917 4.90298L1.50321 8.15892L3.53818 4.63165ZM2.99553 10.4652L2.1137 9.1764L6.65846 4.63165C7.94728 4.29249 9.10042 3.41067 9.71091 2.12186H11.3389L2.99553 10.4652ZM12.2207 28.0338L11.4067 27.4233L12.2207 26.6093V28.0338ZM12.2207 24.9135L10.4571 26.6771L9.98224 26.2701C9.71091 26.0666 9.43959 25.8631 9.16826 25.7275L12.2207 22.675V24.9135ZM12.2207 20.9792L7.87943 25.3205C7.67594 25.2526 7.54028 25.2526 7.33679 25.2526L5.91231 25.117L12.2207 18.8086V20.9792ZM12.2207 17.0449L4.35217 24.9135L2.5207 24.71L2.45286 24.5743L12.1529 14.8743V17.0449H12.2207ZM12.2207 13.1107L1.97805 23.3533L1.43538 21.9967L2.45286 20.64L12.2207 10.8722V13.1107ZM12.2207 9.1764L5.16615 16.231C5.30181 15.5526 5.30183 14.8065 5.09833 14.1282L12.2207 7.00577V9.1764ZM12.2207 5.24214L4.6235 12.8393C4.55567 12.7037 4.48784 12.568 4.35217 12.3645L3.74169 11.4827L12.2207 3.00368V5.24214ZM23.0739 24.71L18.3256 25.1848C17.376 25.2526 16.4263 25.6596 15.6801 26.2701L13.4417 28.0338V2.18969H15.8836C16.969 4.22466 19.2752 5.30997 21.5815 4.76731L22.0564 4.63165L24.1592 8.22675L21.2424 12.4323C20.0214 14.2638 20.0214 16.6379 21.3781 18.4016L24.1592 21.9967L23.0739 24.71Z" fill="#2C2C75"/>
</svg>
