<svg width="52" height="24" viewBox="0 0 52 24" fill="none" xmlns="http://www.w3.org/2000/svg">
<path d="M51.7294 18.885L47.5351 15.3489L46.0593 14.0699L42.1758 9.7063L41.3214 8.72824L36.2727 4.28938C36.1174 4.13891 35.8843 4.06367 35.729 4.06367L29.5929 4.13891L25.4763 0.226673C25.321 0.0762025 25.088 0.000976562 24.9326 0.000976562L0.776718 0.828556C0.543702 0.828556 0.310687 0.979033 0.233015 1.1295C0 1.27997 0 1.5809 0 1.73138L4.34962 19.3364C4.42729 19.6373 4.73798 19.9383 5.12634 19.9383H5.20401L13.4372 19.0355V19.1107L15.146 23.5496C15.2237 23.8505 15.5344 24.001 15.845 24.001H16.6218L27.3405 23.5496C27.4181 23.5496 27.4181 23.5496 27.4958 23.5496L36.3504 21.443H36.4281L38.9135 20.8411L51.1857 20.2392C51.4964 20.2392 51.8071 20.0135 51.8847 19.7126C52.1177 19.4116 51.9624 19.0355 51.7294 18.885ZM31.3017 21.142L35.729 16.8536C35.8067 16.7784 35.8843 16.7032 35.8843 16.6279L39.8456 16.1765L35.8843 20.0135L31.3017 21.142ZM41.166 14.9728C41.166 14.8975 41.0884 14.8975 41.0884 14.8223L39.4573 13.2424L41.6321 11.1358L43.2632 12.9414L41.166 14.9728ZM40.5447 10.0825L38.2922 12.2643L36.5057 10.6091L38.7582 8.42731L40.1563 9.63106L40.5447 10.0825ZM35.8067 5.79408L37.5931 7.37401L35.4183 9.48059L33.6319 7.82542L35.8067 5.79408ZM33.9426 5.49313L32.5445 6.84737L31.1464 5.49313H33.9426ZM1.70878 2.33326L24.6219 1.50568L38.8359 14.8223L22.9908 16.5527C22.9132 16.5527 22.8355 16.5527 22.7578 16.5527L5.74771 18.4336L1.70878 2.33326ZM18.6412 22.421L23.2239 17.9822L27.1074 17.5308L22.2141 22.2706L18.6412 22.421ZM14.9906 18.885L20.816 18.2831L16.3887 22.5715L14.9906 18.885ZM27.3405 22.0449L24.5443 22.1953L29.5929 17.3051L33.4765 16.8536L28.3502 21.8192L27.3405 22.0449ZM38.8359 19.3364L44.1176 14.1452L44.8943 15.048L45.8263 15.8756L42.4088 19.1859L38.8359 19.3364ZM44.7389 19.0355L46.9914 16.8536L49.3216 18.8098L44.7389 19.0355Z" fill="#2C2C75"/>
</svg>
