<svg width="46" height="26" viewBox="0 0 46 26" fill="none" xmlns="http://www.w3.org/2000/svg">
<path d="M44.6828 15.8549C44.527 15.6991 44.4491 15.6212 44.2933 15.4654L40.7102 10.2465C40.4765 9.85703 40.1649 9.62334 39.8534 9.31177L35.4134 6.04021C35.2576 5.88442 35.1018 5.80653 34.946 5.72864C34.946 5.72864 34.946 5.65074 34.8681 5.65074C34.7123 5.49495 34.4008 5.41706 34.1671 5.41706C33.9334 5.33916 33.6997 5.33916 33.466 5.26127L28.7924 4.94969C28.7145 4.94969 28.5587 4.94969 28.4808 4.94969C27.4682 3.93707 26.3777 3.00234 25.2093 2.2234L24.664 1.83393C24.1187 1.44446 23.4177 1.21077 22.7167 1.13288L19.8346 0.899198C17.1083 0.74341 14.3041 0.899196 11.6557 1.60024C9.16306 2.2234 6.51464 2.45708 3.94413 2.30129C2.69783 2.2234 1.52943 2.76866 0.750492 3.78128C-0.0284497 4.79391 -0.184248 6.04021 0.205223 7.28652C0.672588 8.68861 0.984165 10.1686 0.984165 11.6486V12.0381C0.984165 14.5307 1.45154 16.9454 2.30837 19.2822C2.85363 20.7622 4.25573 21.6969 5.81361 21.6969C5.89151 21.6969 5.89151 21.6969 5.96941 21.6969L10.5651 21.5411C11.1104 21.5411 11.6557 21.4633 12.2009 21.4633L12.9799 23.4885C13.5251 24.9685 14.9272 25.9032 16.4851 25.9032C16.563 25.9032 16.563 25.9032 16.6409 25.9032L25.7545 25.5138C25.9882 25.5138 26.2219 25.4359 26.5334 25.4359L37.4386 22.7096C37.5944 22.7096 37.7502 22.6317 37.8281 22.6317L42.4239 22.398C43.9817 22.3201 45.228 21.3854 45.7733 19.9054C46.3186 18.4254 45.8512 16.8675 44.6828 15.8549ZM33.466 22.0864L29.8829 23.0211L40.3986 12.5054L41.4891 14.0633L33.5439 22.0085C33.5439 22.0085 33.5439 22.0085 33.466 22.0864ZM39.5418 11.1033L35.1018 15.6212C35.4134 14.5307 35.3355 13.4402 34.7123 12.5054L37.6723 9.54545L38.9965 10.4802C39.2302 10.7139 39.386 10.8696 39.5418 11.1033ZM36.426 8.68861L33.6997 11.337L33.6218 11.2591L32.765 10.0907C32.6092 9.85703 32.3755 9.62334 32.2197 9.38966L34.3228 7.28652C34.4007 7.28652 34.4008 7.28652 34.4786 7.36441L36.426 8.68861ZM30.1166 6.66336L32.6871 6.81915L31.3629 8.14335C30.9734 7.59809 30.5061 7.13073 30.1166 6.66336ZM10.5651 19.9833L5.96941 20.1391C5.03468 20.1391 4.17785 19.5938 3.78838 18.737C3.00944 16.5559 2.54205 14.297 2.54205 12.0381V11.6486C2.54205 10.0128 2.23049 8.37704 1.68523 6.81915C1.45155 6.1181 1.52941 5.33916 1.99678 4.79391C2.38625 4.24865 3.08734 3.93707 3.78838 3.93707H3.86626C6.59255 4.09286 9.31887 3.78128 11.9673 3.15813C14.5378 2.53497 17.1083 2.37919 19.6788 2.53497L22.5609 2.76866C22.9503 2.76866 23.3398 2.92444 23.7293 3.15813L24.2745 3.5476C27.0787 5.57284 29.4935 8.06546 31.4408 10.9475L32.2976 12.116C32.4534 12.3496 32.6871 12.5833 32.9208 12.817C33.7776 13.5181 33.7776 14.5307 33.5439 15.2317C33.3102 15.9328 32.6871 16.6338 31.5966 16.7117L29.6492 16.7896C29.3376 16.7896 28.9482 16.8675 28.6366 16.8675C28.4808 16.8675 28.4029 16.8675 28.2471 16.8675C26.7671 17.0233 25.2871 17.257 23.8071 17.6464L19.7567 18.6591C16.7967 19.438 13.6809 19.9054 10.5651 19.9833ZM17.3419 24.3453L21.9377 19.7496L24.2745 19.2043C24.9756 19.0485 25.6766 18.8927 26.3777 18.737L20.9251 24.1895L17.3419 24.3453ZM14.5378 22.9432L13.9146 21.3075C15.7062 21.1517 17.4198 20.8401 19.1335 20.4506L15.4725 24.1117C15.0051 23.8001 14.6936 23.4106 14.5378 22.9432ZM26.2219 23.878C26.0661 23.878 25.9103 23.9559 25.7545 23.9559L23.184 24.0338L28.8703 18.3475C29.1818 18.3475 29.4934 18.2696 29.7271 18.2696L31.6745 18.1917C31.9861 18.1917 32.2976 18.1138 32.6092 18.0359L26.9229 23.7222L26.2219 23.878ZM37.8281 21.0738C37.5944 21.0738 37.3608 21.1517 37.1271 21.1517L36.3481 21.3854L42.4239 15.3096L43.1249 16.3222C43.2028 16.4001 43.2807 16.5559 43.3586 16.6338L38.9186 21.0738H37.8281ZM44.3712 19.3601C44.1375 20.0612 43.5144 20.7622 42.4239 20.8401L41.2554 20.918L44.3712 17.8022C44.527 18.3475 44.527 18.8927 44.3712 19.3601Z" fill="#2C2C75"/>
</svg>
