<?xml version="1.0" encoding="utf-8"?>
<!-- Generator: Adobe Illustrator 22.0.1, SVG Export Plug-In . SVG Version: 6.00 Build 0)  -->
<svg version="1.1" id="Layer_1" xmlns="http://www.w3.org/2000/svg" xmlns:xlink="http://www.w3.org/1999/xlink" x="0px" y="0px"
	 viewBox="0 0 512 512" style="enable-background:new 0 0 512 512;" xml:space="preserve">
<style type="text/css">
	.st0{fill:#FFFFFF;}
</style>
<title>Blackboard</title>
<path class="st0" d="M471.2,20H40.8C28.9,19.9,19.1,29.4,19,41.3c0,0.1,0,0.2,0,0.4v42.3c-0.1,12.1,9.6,22,21.7,22.1c0,0,0,0,0.1,0
	H42v260.3c-0.1,18,14.3,32.6,32.3,32.7c0.1,0,0.2,0,0.3,0H250v38.8l-56.9,43.8c-2.6,2-3.1,5.8-1.1,8.4c2,2.6,5.8,3.1,8.4,1.1
	c0,0,0,0,0.1,0l55.1-42.4l55.6,42.4c2.6,2,6.4,1.5,8.4-1.1s1.5-6.4-1.1-8.4l0,0L262,438.5V399h175c18.2,0.1,33-14.6,33-32.7V106h1.2
	c12.1-0.1,21.8-9.9,21.8-22c0,0,0,0,0-0.1V41.6c0.1-11.9-9.5-21.6-21.4-21.6C471.5,20,471.4,20,471.2,20z M458,366.3
	c-0.1,11.5-9.5,20.8-21,20.7c0,0,0,0,0,0H257.5c-0.5,0-1-0.2-1.5-0.2s-1,0.2-1.5,0.2H74.6c-11.3,0.1-20.5-9.1-20.6-20.4
	c0-0.1,0-0.2,0-0.3V106h404V366.3z M481,84c0,5.5-4.5,10-10,10H41c-5.5,0-10-4.5-10-10V42c0-5.5,4.5-10,10-10h430
	c5.5,0,10,4.5,10,10V84z"/>
<path class="st0" d="M100,197.3l43,16.8v106.5c0,2.5,1.6,4.8,4,5.6c64.5,24,135.5,24,200,0c2.4-0.9,3.9-3.1,4-5.6V214.1l35-13.6
	v105.2c-12.6,3.4-20,16.4-16.6,29s16.4,20,29,16.6s20-16.4,16.6-29c-2.2-8.2-8.7-14.6-17-16.7V192.9c0-0.2-0.1-0.4-0.1-0.7
	c0-0.2,0-0.4,0-0.6c0-2.5-1.6-4.7-3.9-5.6l-144.8-53.2c-1.3-0.5-2.8-0.5-4.1,0l-144.8,53.2c-2.4,0.9-3.9,3.1-4,5.6
	C96.2,194.2,97.7,196.4,100,197.3z M155,316.4v-34.2c59.7,20.2,124.3,20.2,184,0v34.2C280,337.5,215,337.5,155,316.4z M339,269.5
	c-59.5,21.1-124.5,21.1-184,0v-50.7l89.8,34.9c0.7,0.3,1.5,0.4,2.2,0.4c0.8,0,1.5-0.1,2.3-0.4l89.7-34.9V269.5z M403.7,328.5
	c0,6.5-5.2,11.7-11.7,11.7c-6.5,0-11.7-5.2-11.7-11.7c0-6.5,5.2-11.7,11.7-11.7c0,0,0,0,0,0C398.5,316.8,403.7,322.1,403.7,328.5
	L403.7,328.5z M247.1,144.9l127.8,47l-31.7,12.3c-0.3,0.1-0.6,0.2-0.9,0.4l-95.2,37.1l-95.2-37.1c-0.3-0.1-0.6-0.3-0.9-0.4
	l-31.7-12.3L247.1,144.9z"/>
</svg>
