<?xml version="1.0" encoding="utf-8"?>
<!-- Generator: Adobe Illustrator 22.0.1, SVG Export Plug-In . SVG Version: 6.00 Build 0)  -->
<svg version="1.1" id="Слой_1" xmlns="http://www.w3.org/2000/svg" xmlns:xlink="http://www.w3.org/1999/xlink" x="0px" y="0px"
	 viewBox="0 0 511 511" style="enable-background:new 0 0 511 511;" xml:space="preserve">
<style type="text/css">
	.st0{fill:#FFFFFF;}
</style>
<path class="st0" d="M424.6,87.4H179.5c-4,0-7.3,3.3-7.3,7.3c0,4,3.3,7.3,7.3,7.3h245.1c4,0,7.3-3.3,7.3-7.3
	C431.9,90.7,428.6,87.4,424.6,87.4z"/>
<path class="st0" d="M424.6,195.8H179.5c-4,0-7.3,3.3-7.3,7.3c0,4,3.3,7.3,7.3,7.3h245.1c4,0,7.3-3.3,7.3-7.3
	C431.9,199,428.6,195.8,424.6,195.8z"/>
<path class="st0" d="M424.6,123.5H179.5c-4,0-7.3,3.3-7.3,7.3c0,4,3.3,7.3,7.3,7.3h245.1c4,0,7.3-3.3,7.3-7.3
	C431.9,126.8,428.6,123.5,424.6,123.5z"/>
<path class="st0" d="M424.6,51.3H179.5c-4,0-7.3,3.3-7.3,7.3s3.3,7.3,7.3,7.3h245.1c4,0,7.3-3.3,7.3-7.3S428.6,51.3,424.6,51.3z"/>
<path class="st0" d="M424.6,159.7H179.5c-4,0-7.3,3.3-7.3,7.3c0,4,3.3,7.3,7.3,7.3h245.1c4,0,7.3-3.3,7.3-7.3
	C431.9,162.9,428.6,159.7,424.6,159.7z"/>
<path class="st0" d="M424.6,231.9H179.5c-4,0-7.3,3.3-7.3,7.3c0,4,3.3,7.3,7.3,7.3h245.1c4,0,7.3-3.3,7.3-7.3
	C431.9,235.2,428.6,231.9,424.6,231.9z"/>
<path class="st0" d="M471.8,0H132.3c-17.9,0-32.4,14.5-32.4,32.4v105H40.4C22.5,137.4,8,152,8,169.9v228.3
	c0,17.9,14.5,32.4,32.4,32.4h132.3c4,0,7.3-3.3,7.3-7.3c0-4-3.3-7.3-7.3-7.3H40.4c-9.9,0-17.9-8-17.9-17.9V169.9
	c0-9.9,8-17.9,17.9-17.9h59.5v108.7c0,17.9,14.5,32.4,32.4,32.4h4.9c8,43.9,45.7,77.6,90.4,80.4c21.6,1.3,30.3-23.5,16.3-36.3
	c-12.8-11.7-21.7-27.3-25.4-44.1h179.3v105c0,9.9-8,17.9-17.9,17.9h-7c-6,0-11,4.3-11.9,10.2c-6,37.3-37.6,67.9-78.2,70.3
	c-4.1,0.2-5.8-2.9-6.2-3.9c-0.4-1-1.5-4.4,1.6-7.2c15.8-14.5,26.7-34.1,30.4-55.1c0.6-3.6-0.3-7.2-2.6-10c-2.3-2.7-5.7-4.3-9.2-4.3
	h-90.1c-4,0-7.3,3.3-7.3,7.3c0,4,3.3,7.3,7.3,7.3h87.1c-3.6,16.8-12.6,32.4-25.4,44.1c-14.1,12.8-5.3,37.7,16.3,36.3
	c44.7-2.8,82.3-36.5,90.4-80.4h4.9c17.9,0,32.4-14.5,32.4-32.4v-105h59.5c17.9,0,32.4-14.5,32.4-32.4v-89.5c0-4-3.3-7.3-7.3-7.3
	c-4,0-7.3,3.3-7.3,7.3v89.5c0,9.9-8,17.9-17.9,17.9c-5.9,0-249.2,0-256.3,0c-7.6,0-13.2,6.8-11.9,14.3c3.8,21,14.6,40.6,30.4,55.1
	c4.1,3.8,2.1,11.5-5.5,11.1c-38.6-2.5-71.1-32-77.3-70.3c-0.9-5.9-6-10.2-11.9-10.2h-7c-9.9,0-17.9-8-17.9-17.9c0-4,0-202.7,0-228.3
	c0-9.9,8-17.9,17.9-17.9h339.5c9.9,0,17.9,8,17.9,17.9v104.9c0,4,3.3,7.3,7.3,7.3c4,0,7.3-3.3,7.3-7.3V32.4
	C504.2,14.5,489.7,0,471.8,0z"/>
</svg>
