<?xml version="1.0"?>
<svg xmlns="http://www.w3.org/2000/svg" height="512px" viewBox="0 0 487.90041 487" width="512px"><path d="m405 224.25v-157.898438c.074219-15.285156-12.214844-27.757812-27.5-27.902343h-23.5v-27.597657c0-5.5-4.398438-10.402343-10-10.402343h-61.601562c-5.667969.171875-10.226563 4.730469-10.398438 10.402343v27.597657h-139v-27.597657c-.125-5.652343-4.648438-10.222656-10.300781-10.402343h-61.597657c-5.628906.164062-10.105468 4.773437-10.101562 10.402343v27.597657h-23.398438c-15.304687.136719-27.6289058 12.597656-27.601562 27.902343v304.199219c-.0625 15.316407 12.28125 27.796875 27.601562 27.898438h193.898438c19.5 52 69.898438 89.699219 129 89.699219 75.800781 0 137.398438-61.699219 137.398438-137.597657.085937-54.882812-32.511719-104.546875-82.898438-126.300781zm-54.5-11.398438c-4.398438 0-8.699219.597657-13 .597657h-25.5v-59h73v59h-21.5c-4.199219 0-8.601562-.597657-13-.597657zm-237.5 79.597657v-59h80v59zm80 20v66h-80v-66zm99-158v59h-79v-59zm-99 59h-80v-59h80zm-100 0h-73v-59h73zm0 20v59h-73v-59zm120 0h65.199219c-22.695313 14.285156-40.839844 34.753906-52.300781 59h-12.898438zm79-213h42v62h-42zm-221 0h42v62h-42zm-43.398438 38h23.398438v33.699219c.003906 5.609374 4.492188 10.1875 10.101562 10.300781h61.597657c5.648437-.097657 10.203125-4.652344 10.300781-10.300781v-33.699219h139v33.699219c.179688 5.652343 4.746094 10.175781 10.398438 10.300781h61.601562c5.589844-.121094 10.042969-4.710938 10-10.300781v-33.699219h23.5c4.25.113281 7.609375 3.648437 7.5 7.902343v68.097657h-365v-68.097657c-.023438-4.257812 3.34375-7.761718 7.601562-7.902343zm-7.601562 312.101562v-58.101562h73v66h-65.398438c-4.273437-.105469-7.660156-3.628907-7.601562-7.898438zm193 7.898438v-66h5.398438c-3.589844 12.417969-5.40625 25.277343-5.398438 38.199219.015625 9.339843.953125 18.648437 2.800781 27.800781zm137.5 89.601562c-64.800781 0-117.5-52.800781-117.5-117.601562 0-60.699219 46.300781-111 105.5-117h24.199219c59.199219 6 105.5 56.300781 105.5 117-.097657 64.800781-52.800781 117.601562-117.699219 117.601562zm0 0" fill="#FFFFFF"/><path d="m381 319.351562-41 41-19.898438-20.101562c-3.867187-3.921875-10.179687-3.964844-14.101562-.101562-3.921875 3.867187-3.964844 10.179687-.101562 14.101562l27 27.199219c1.882812 1.882812 4.441406 2.925781 7.101562 2.902343 2.660156.023438 5.21875-1.019531 7.101562-2.902343l48.097657-48.097657c1.875-1.871093 2.925781-4.40625 2.925781-7.050781s-1.050781-5.183593-2.925781-7.050781c-3.957031-3.871094-10.296875-3.828125-14.199219.101562zm0 0" fill="#FFFFFF"/></svg>
