<?xml version="1.0" encoding="utf-8"?>
<!-- Generator: Adobe Illustrator 17.1.0, SVG Export Plug-In . SVG Version: 6.00 Build 0)  -->
<!DOCTYPE svg PUBLIC "-//W3C//DTD SVG 1.1//EN" "http://www.w3.org/Graphics/SVG/1.1/DTD/svg11.dtd">
<svg version="1.1" id="Capa_1" xmlns="http://www.w3.org/2000/svg" xmlns:xlink="http://www.w3.org/1999/xlink" x="0px" y="0px"
	 viewBox="241 241 30 30" enable-background="new 241 241 30 30" xml:space="preserve">
<g>
	<g>
		<g>
			<path d="M256,241c-5.8,0-10.6,4.8-10.6,10.7v8.5c0,5.9,4.7,10.7,10.6,10.7c5.8,0,10.6-4.8,10.6-10.7v-8.6
				C266.6,245.8,261.8,241,256,241z M264.6,260.3c0,4.8-3.8,8.7-8.6,8.7c-4.7,0-8.6-3.9-8.6-8.7v-8.5c0-4.8,3.8-8.7,8.6-8.7
				c4.7,0,8.6,3.9,8.6,8.7V260.3z"/>
		</g>
	</g>
	<g>
		<g>
			<path d="M256,249.2c-0.5,0-1,0.4-1,1v3.5c0,0.5,0.4,1,1,1s1-0.4,1-1v-3.5C257,249.7,256.5,249.2,256,249.2z"/>
		</g>
	</g>
</g>
</svg>
