<?xml version="1.0" encoding="utf-8"?>
<!-- Generator: Adobe Illustrator 17.1.0, SVG Export Plug-In . SVG Version: 6.00 Build 0)  -->
<!DOCTYPE svg PUBLIC "-//W3C//DTD SVG 1.1//EN" "http://www.w3.org/Graphics/SVG/1.1/DTD/svg11.dtd">
<svg version="1.1" id="Слой_1" xmlns="http://www.w3.org/2000/svg" xmlns:xlink="http://www.w3.org/1999/xlink" x="0px" y="0px"
	 viewBox="241 241 30 30" enable-background="new 241 241 30 30" xml:space="preserve">
<g>
	<path fill="#3DAFC4" d="M266.9,253.6V247c0,0,0,0,0,0c0,0,0,0,0,0c0,0,0-0.1,0-0.1c0,0,0,0,0-0.1c0,0,0,0,0,0c0,0,0,0,0-0.1
		c0,0,0,0,0,0c0,0,0,0,0-0.1c0,0,0,0,0,0c0,0,0,0-0.1-0.1l-5.4-5.4c0,0,0,0-0.1-0.1c0,0,0,0,0,0c0,0,0,0-0.1,0c0,0,0,0,0,0
		c0,0,0,0-0.1,0c0,0,0,0,0,0c0,0,0,0-0.1,0c0,0,0,0,0,0c0,0,0,0-0.1,0c0,0,0,0,0,0c0,0,0,0,0,0h-15.1c-0.3,0-0.6,0.3-0.6,0.6v12
		c-1.3,1-2.6,2.3-4,4c-0.2,0.2-0.2,0.5,0,0.8c1.4,1.6,2.7,2.9,4,4v8.1c0,0.3,0.3,0.6,0.6,0.6h20.6c0.3,0,0.6-0.3,0.6-0.6v-8.1
		c1.3-1,2.6-2.3,4-4c0.2-0.2,0.2-0.5,0-0.8C269.4,255.9,268.1,254.6,266.9,253.6z M261.5,243l3.4,3.4h-3.4V243z M246.3,242.2h14v4.8
		c0,0.3,0.3,0.6,0.6,0.6h4.8v5.1c-0.4-0.3-0.7-0.5-1.1-0.7c-2.6-1.6-5.4-2.3-8.6-2.3s-6,0.8-8.6,2.3c-0.4,0.2-0.7,0.5-1.1,0.7V242.2
		z M263.4,257.9c0,3.9-3.3,7.1-7.4,7.1s-7.4-3.2-7.4-7.1c0-3.9,3.3-7.1,7.4-7.1S263.4,254,263.4,257.9z M246,261.5
		c-1.3-1.1-2.5-2.3-3.7-3.6c1.1-1.3,2.3-2.5,3.7-3.6c0,0,0.1,0,0.1-0.1c1.2-0.9,2.5-1.7,4-2.3c-1.6,1.5-2.7,3.6-2.7,6
		c0,2.4,1,4.5,2.7,6C248.6,263.3,247.3,262.5,246,261.5C246.1,261.5,246.1,261.5,246,261.5z M265.7,269.8h-19.4v-6.7
		c0.4,0.3,0.7,0.5,1.1,0.7c2.6,1.6,5.4,2.3,8.6,2.3s6-0.8,8.6-2.3c0.4-0.2,0.7-0.5,1.1-0.7V269.8z M266,261.5
		C265.9,261.5,265.9,261.5,266,261.5c-1.3,1-2.6,1.8-4.1,2.4c1.6-1.5,2.7-3.6,2.7-6c0-2.4-1-4.5-2.7-6c1.5,0.6,2.8,1.4,4,2.3
		c0,0,0.1,0.1,0.1,0.1c1.3,1.1,2.5,2.3,3.7,3.6C268.5,259.2,267.3,260.4,266,261.5z"/>
	<path fill="#3DAFC4" d="M252.1,257.9c0,2.1,1.8,3.8,3.9,3.8s3.9-1.7,3.9-3.8c0-2.1-1.8-3.8-3.9-3.8S252.1,255.8,252.1,257.9z
		 M258.8,257.9c0,1.5-1.2,2.7-2.8,2.7c-1.5,0-2.8-1.2-2.8-2.7c0-1.5,1.2-2.7,2.8-2.7S258.8,256.5,258.8,257.9z"/>
</g>
</svg>
