<?xml version="1.0" encoding="utf-8"?>
<!-- Generator: Adobe Illustrator 22.0.1, SVG Export Plug-In . SVG Version: 6.00 Build 0)  -->
<svg version="1.1" id="Слой_1" xmlns="http://www.w3.org/2000/svg" xmlns:xlink="http://www.w3.org/1999/xlink" x="0px" y="0px"
	 viewBox="0 0 200 120" style="enable-background:new 0 0 200 120;" xml:space="preserve">
<style type="text/css">
	.st0{fill:none;stroke:#FFFFFF;stroke-miterlimit:10;}
</style>
<g>
	<path class="st0" d="M199,1v118h-98V1H199 M200,0H100v120h100V0L200,0z"/>
</g>
<g>
	<path class="st0" d="M195,4v112h-90V4H195 M196,3h-92v114h92V3L196,3z"/>
</g>
<g>
	<line class="st0" x1="195.5" y1="3.5" x2="104.5" y2="60.5"/>
</g>
<line class="st0" x1="194.5" y1="116.5" x2="104.5" y2="60.5"/>
<line class="st0" x1="104.5" y1="116.5" x2="150.5" y2="3.5"/>
<line class="st0" x1="195.5" y1="116.5" x2="150.5" y2="3.5"/>
<g>
	<path class="st0" d="M100,1v118H2V1H100 M101,0H1v120h100V0L101,0z"/>
</g>
<g>
	<path class="st0" d="M96,4v112H6V4H96 M97,3H5v114h92V3L97,3z"/>
</g>
</svg>
