<?xml version="1.0" encoding="utf-8"?>
<!-- Generator: Adobe Illustrator 24.0.1, SVG Export Plug-In . SVG Version: 6.00 Build 0)  -->
<svg version="1.1" id="Слой_1" xmlns="http://www.w3.org/2000/svg" xmlns:xlink="http://www.w3.org/1999/xlink" x="0px" y="0px"
	 viewBox="0 0 399 399" style="enable-background:new 0 0 399 399;" xml:space="preserve">
<style type="text/css">
	.st0{fill:#D4E1F4;}
	.st1{fill:#0635C9;}
	.st2{fill:#1AE5BE;}
</style>
<path class="st0" d="M238.2,191.1l-86.6,26.5L175.9,76l-21.8-66l-42.3,247.6l86.6-26.5l51.2,158l17.4-109.3L238.2,191.1z"/>
<path class="st1" d="M295.8,130.2c-2.7-2.2-6.4-2.9-9.7-1.7l-73.7,26.4l-48.9-148c-1.4-4.4-5.6-7.2-10.2-6.8
	c-4.6,0.3-8.3,3.8-9.1,8.3l-42.4,247.6c-0.6,3.4,0.6,6.9,3.2,9.2c2.6,2.3,6.2,3.1,9.5,2l77.2-23.7L240,392.1
	c1.3,4.1,5.2,6.9,9.5,6.9c0.3,0,0.5,0,0.8,0c4.6-0.4,8.4-3.8,9.1-8.4l40-251.2C299.9,135.9,298.5,132.4,295.8,130.2z M246.2,346.4
	l-38.4-118.5c-1.7-5.2-7.2-8.1-12.4-6.5l-71.1,21.8l32.9-192.1l39.5,119.7c1.7,5.2,7.4,8.1,12.6,6.3c0.1,0,0.2-0.1,0.2-0.1
	l67.5-24.2L246.2,346.4z"/>
<rect x="251.9" y="158.7" transform="matrix(0.9863 0.165 -0.165 0.9863 42.6173 -39.1084)" class="st2" width="9.4" height="156.3"/>
<rect x="142.2" y="76.3" transform="matrix(0.9863 0.165 -0.165 0.9863 27.4979 -22.1267)" class="st2" width="9.4" height="156.3"/>
</svg>
