<svg width="80" height="80" viewBox="0 0 80 80" fill="none" xmlns="http://www.w3.org/2000/svg">
<path d="M43.1095 13.25H21.5782V18.3438H43.1095V13.25Z" fill="#56A2CC"/>
<path d="M47.7344 12.125H18.2812V4.70316H29.375C31.5469 1.57816 33.3594 1.62503 34.8438 4.70316H47.7188V12.125H47.7344Z" fill="#56A2CC"/>
<path d="M22.9999 27.3281C22.3905 26.7187 21.4062 26.7187 20.7968 27.3281L17.4062 30.7188L16.2655 29.5781C15.6562 28.9688 14.6718 28.9688 14.0624 29.5781C13.453 30.1875 13.453 31.1719 14.0624 31.7813L16.3124 34.0313C16.6249 34.3438 17.0155 34.4844 17.4218 34.4844C17.828 34.4844 18.2187 34.3281 18.5312 34.0313L23.0155 29.5469C23.6093 28.9375 23.6093 27.9375 22.9999 27.3281Z" fill="black"/>
<path d="M20.7812 57.2188L17.3906 60.6094L16.2499 59.4688C15.6406 58.8594 14.6562 58.8594 14.0468 59.4688C13.4374 60.0782 13.4374 61.0626 14.0468 61.6719L16.2968 63.9219C16.6093 64.2344 16.9999 64.3751 17.4062 64.3751C17.8124 64.3751 18.2031 64.2188 18.5156 63.9219L22.9999 59.4376C23.6093 58.8282 23.6093 57.8438 22.9999 57.2344C22.3906 56.6251 21.3906 56.6095 20.7812 57.2188Z" fill="black"/>
<path d="M22.9999 42.2812C22.3905 41.6719 21.4062 41.6719 20.7968 42.2812L17.4062 45.6719L16.2655 44.5312C15.6562 43.9219 14.6718 43.9219 14.0624 44.5312C13.453 45.1406 13.453 46.125 14.0624 46.7344L16.3124 48.9844C16.6249 49.2969 17.0155 49.4375 17.4218 49.4375C17.828 49.4375 18.2187 49.2812 18.5312 48.9844L23.0155 44.5C23.6093 43.875 23.6093 42.8906 22.9999 42.2812Z" fill="black"/>
<path d="M49.5312 32.25C50.3906 32.25 51.0938 31.5469 51.0938 30.6875C51.0938 29.8281 50.3906 29.125 49.5312 29.125H32.3438C31.4844 29.125 30.7812 29.8281 30.7812 30.6875C30.7812 31.5469 31.4844 32.25 32.3438 32.25H49.5312Z" fill="black"/>
<path d="M78.2188 51.5625L73.3438 48.75L78.2188 45.9375C78.7031 45.6562 79 45.1406 79 44.5781C79 44.0156 78.7031 43.5 78.2188 43.2188L63.7813 34.8906C63.7188 34.8594 63.6563 34.8281 63.5938 34.7969V10.3125C63.5938 8.07812 61.7656 6.25 59.5313 6.25H49.2188C48.6094 4.78125 47.1563 3.75 45.4688 3.75H37.4219C36.75 1.57812 34.7344 0 32.3438 0C29.9531 0 27.9375 1.57812 27.2656 3.75H19.2188C17.5313 3.75 16.0781 4.78125 15.4688 6.25H5.15625C2.92188 6.25 1.09375 8.07812 1.09375 10.3125V14.0625C1.09375 14.9219 1.79688 15.625 2.65625 15.625C3.51563 15.625 4.21875 14.9219 4.21875 14.0625V10.3125C4.21875 9.79688 4.64063 9.375 5.15625 9.375H15.1563V10.3125C15.1563 11.125 15.3906 11.875 15.7969 12.5H8.90625C8.04688 12.5 7.34375 13.2031 7.34375 14.0625V72.1875C7.34375 73.0469 8.04688 73.75 8.90625 73.75H27.2813C28.1406 73.75 28.8438 73.0469 28.8438 72.1875C28.8438 71.3281 28.1406 70.625 27.2813 70.625H10.4688V15.625H18.875V16.6875C18.875 18.8594 20.6406 20.625 22.8125 20.625H41.8594C44.0313 20.625 45.7969 18.8594 45.7969 16.6875V15.625H54.2188V37.7031L49.3438 34.8906C48.8594 34.6094 48.2656 34.6094 47.7813 34.8906L33.3438 43.2188C32.8594 43.5 32.5625 44.0156 32.5625 44.5781C32.5625 45.1406 32.8594 45.6562 33.3438 45.9375L38.2188 48.75L33.3438 51.5625C32.8594 51.8438 32.5625 52.3594 32.5625 52.9219C32.5625 53.4844 32.8594 54 33.3438 54.2812L39.7813 58V65.4375C39.7813 66 40.0781 66.5156 40.5625 66.7969L47.2344 70.6562H41.3438C40.4844 70.6562 39.7813 71.3594 39.7813 72.2188C39.7813 73.0781 40.4844 73.7812 41.3438 73.7812H52.6563L55 75.1406C55.2344 75.2812 55.5156 75.3438 55.7813 75.3438C56.0469 75.3438 56.3281 75.2812 56.5625 75.1406L60.4688 72.8906V75.9375C60.4688 76.4531 60.0469 76.875 59.5313 76.875H5.15625C4.64063 76.875 4.21875 76.4375 4.21875 75.9375V28.125C4.21875 27.2656 3.51563 26.5625 2.65625 26.5625C1.79688 26.5625 1.09375 27.2656 1.09375 28.125V75.9375C1.09375 78.1719 2.92188 80 5.15625 80H59.5313C61.7656 80 63.5938 78.1719 63.5938 75.9375V71.0469L71 66.7656C71.4844 66.4844 71.7813 65.9688 71.7813 65.4062V57.9688L78.2188 54.25C78.7031 53.9688 79 53.4531 79 52.8906C79 52.3281 78.7031 51.8438 78.2188 51.5625ZM74.3125 44.5781L70.2188 46.9375L58.9063 40.4219L63 38.0625L74.3125 44.5781ZM57.3438 43.125L67.0938 48.75L57.3438 54.375V43.125ZM54.2188 54.375L44.4688 48.75L54.2188 43.125V54.375ZM19.2188 6.875H28.5938C29.4531 6.875 30.1563 6.17188 30.1563 5.3125C30.1563 4.10938 31.1406 3.125 32.3438 3.125C33.5469 3.125 34.5313 4.10938 34.5313 5.3125C34.5313 6.17188 35.2344 6.875 36.0938 6.875H45.4688C45.9844 6.875 46.4063 7.29688 46.4063 7.8125V10.3125C46.4063 10.8281 45.9688 11.25 45.4688 11.25H19.2188C18.7031 11.25 18.2813 10.8125 18.2813 10.3125V7.8125C18.2813 7.29688 18.7031 6.875 19.2188 6.875ZM41.8594 17.5H22.8125C22.375 17.5 22 17.125 22 16.6875V14.375H42.6875V16.6875C42.6875 17.125 42.3125 17.5 41.8594 17.5ZM48.8906 12.5C49.2969 11.875 49.5313 11.125 49.5313 10.3125V9.375H59.5313C60.0469 9.375 60.4688 9.79688 60.4688 10.3125V35.9062L57.3438 37.7031V14.0625C57.3438 13.2031 56.6406 12.5 55.7813 12.5H48.8906ZM37.25 44.5781L48.5625 38.0469L52.6563 40.4062L41.3438 46.9375L37.25 44.5781ZM41.3438 50.5469L52.6563 57.0781L48.5625 59.4375L37.25 52.9062L41.3438 50.5469ZM42.9063 59.7969L47.7813 62.6094C48.0156 62.75 48.2969 62.8125 48.5625 62.8125C48.8281 62.8125 49.1094 62.75 49.3438 62.6094L54.2188 59.7969V71.0469L42.9063 64.5156V59.7969ZM68.6563 64.5156L57.3438 71.0469V59.7969L62.2188 62.6094C62.4531 62.75 62.7344 62.8125 63 62.8125C63.2656 62.8125 63.5469 62.75 63.7813 62.6094L68.6563 59.7969V64.5156ZM63 59.4531L58.9063 57.0781L70.2188 50.5469L74.3125 52.9062L63 59.4531Z" fill="black"/>
<path d="M2.65625 22.6562C3.51562 22.6562 4.21875 21.9531 4.21875 21.0938C4.21875 20.2344 3.51562 19.5312 2.65625 19.5312C1.79688 19.5312 1.09375 20.2344 1.09375 21.0938C1.09375 21.9531 1.79688 22.6562 2.65625 22.6562Z" fill="black"/>
<path d="M35.8751 72.1875C35.8751 71.3281 35.172 70.625 34.3126 70.625C33.4532 70.625 32.7501 71.3281 32.7501 72.1875C32.7501 73.0469 33.4532 73.75 34.3126 73.75C35.172 73.75 35.8751 73.0469 35.8751 72.1875Z" fill="black"/>
</svg>
