<?xml version="1.0" encoding="utf-8"?>
<!-- Generator: Adobe Illustrator 17.1.0, SVG Export Plug-In . SVG Version: 6.00 Build 0)  -->
<!DOCTYPE svg PUBLIC "-//W3C//DTD SVG 1.1//EN" "http://www.w3.org/Graphics/SVG/1.1/DTD/svg11.dtd">
<svg version="1.1" id="Слой_1" xmlns="http://www.w3.org/2000/svg" xmlns:xlink="http://www.w3.org/1999/xlink" x="0px" y="0px"
	 viewBox="134.3 -0.9 31.5 30.9" enable-background="new 134.3 -0.9 31.5 30.9" xml:space="preserve">
<g>
	<g>
		<ellipse fill="none" stroke="#000000" cx="145.6" cy="10.6" rx="9.9" ry="9.5"/>
		<polyline fill="none" stroke="#000000" points="152.2,2.1 152.2,1.1 155.6,1.1 155.6,20.1 152.2,20.1 152.2,19 		"/>
		<line fill="none" stroke="#000000" x1="152.2" y1="5.2" x2="152.2" y2="16.1"/>
		<line fill="none" stroke="#000000" x1="161.8" y1="1.1" x2="155.6" y2="12.9"/>
		<line fill="none" stroke="#000000" x1="164.6" y1="20.1" x2="156.8" y2="10.6"/>
	</g>
	<g enable-background="new    ">
		<path d="M144.3,27.2c0.2,0,0.3,0.1,0.3,0.3s-0.2,0.3-0.3,0.3s-0.3-0.1-0.3-0.3S144.1,27.2,144.3,27.2z"/>
		<path d="M145.1,27.5c0-0.9,0.8-1.5,1.8-1.5s1.8,0.6,1.8,1.5c0,0.9-0.8,1.5-1.8,1.5S145.1,28.4,145.1,27.5z M145.5,27.5
			c0,0.7,0.6,1.2,1.4,1.2c0.8,0,1.4-0.5,1.4-1.2s-0.6-1.2-1.4-1.2C146.1,26.3,145.5,26.8,145.5,27.5z"/>
		<path d="M149.8,27.3l1.5-1.3h0.5l-1.6,1.4l1.7,1.6h-0.5l-1.4-1.4l-0.1,0.1V29h-0.4v-3h0.4V27.3z"/>
		<path d="M152.5,27.2c0.2,0,0.3,0.1,0.3,0.3s-0.2,0.3-0.3,0.3s-0.3-0.1-0.3-0.3S152.3,27.2,152.5,27.2z"/>
		<path d="M153.9,27.2h1.8V26h0.4v3h-0.4v-1.4h-1.8V29h-0.4v-3h0.4V27.2z"/>
		<path d="M158.9,28.2h-1.5L157,29h-0.4l1.6-3.1l1.6,3.1h-0.4L158.9,28.2z M158.7,27.9l-0.6-1.2l-0.6,1.2H158.7z"/>
		<path d="M160.6,26v2.7h1V29h-1.4v-3H160.6z"/>
		<path d="M162.5,26v2.7h1V29h-1.4v-3H162.5z"/>
		<path d="M164.1,27.2c0.2,0,0.3,0.1,0.3,0.3s-0.2,0.3-0.3,0.3c-0.2,0-0.3-0.1-0.3-0.3S163.9,27.2,164.1,27.2z"/>
	</g>
</g>
<g id="Слой_2">
</g>
</svg>
