<svg width="63" height="58" viewBox="0 0 63 58" fill="none" xmlns="http://www.w3.org/2000/svg">
<g clip-path="url(#clip0)">
<path d="M26.7056 12.1962C30.0142 11.6481 31.4323 12.4703 32.884 15.0739C33.6943 16.5128 34.6734 17.8832 35.8213 19.0479C37.7795 21.035 39.9403 21.172 42.2699 19.6646C43.1139 19.1165 43.8905 18.4313 44.8358 17.6776C45.1397 19.322 45.4435 20.8294 45.6461 22.371C45.6798 22.6794 45.2409 23.159 44.9033 23.3988C40.9194 26.1395 36.6654 25.8654 33.0528 22.7136C32.749 22.5081 32.4789 22.2683 32.1075 21.9257C31.6348 23.4673 31.2297 24.9404 30.757 26.3793C30.2843 27.7839 29.7104 29.12 29.1364 30.6274C29.7779 31.0728 30.7233 31.6209 31.5673 32.3403C35.0786 35.2866 36.0914 39.4319 34.4371 44.1938C33.3229 47.3799 31.4323 50.1206 29.204 52.6215C27.9548 54.0261 26.0303 54.0946 24.6461 52.9641C23.2618 51.8335 22.8567 49.778 23.8358 48.2364C24.511 47.1401 25.3888 46.2151 26.0641 45.1188C26.7731 43.9198 27.4821 42.6865 27.9548 41.3504C28.5962 39.5347 28.1236 38.4384 26.503 37.4791C25.7602 37.0338 24.9162 36.7254 24.0046 36.3143C23.7345 36.9653 23.5319 37.4791 23.3294 37.993C19.8519 46.9003 13.8085 53.4094 5.30042 57.589C3.2747 58.5825 1.3165 58.0001 0.404923 56.1844C-0.540415 54.3344 0.101064 52.1761 2.09303 51.1826C6.88724 48.7845 10.9724 45.5642 13.876 40.9735C14.9564 39.2606 15.8004 37.3764 16.6782 35.5264C16.8133 35.2181 16.7458 34.5671 16.5094 34.3273C15.0239 32.6487 14.7538 30.7302 15.294 28.6746C16.3744 24.5979 18.0625 20.7951 20.6284 17.4035C21.1011 16.8211 21.54 16.5471 22.2152 16.8554C23.3631 17.3693 24.5448 17.8146 25.6927 18.397C27.212 19.185 28.7313 18.8767 29.5753 17.5406C30.3856 16.2387 30.048 14.5258 28.7313 13.5666C28.1911 13.0869 27.5496 12.7443 26.7056 12.1962ZM30.1155 22.8507C29.9805 22.7821 29.8792 22.7136 29.7442 22.6451C28.4274 24.8377 27.1107 26.996 25.6927 29.2913C26.3004 29.4626 26.6043 29.5311 26.7731 29.5996C27.9548 27.27 29.0351 25.0775 30.1155 22.8507Z" fill="black"/>
<path d="M49.3259 23.6044C48.3131 23.7414 47.469 23.8442 46.4899 23.9812C45.9835 21.1035 45.5108 18.3628 45.0044 15.5536C45.9835 15.348 46.7938 15.1767 47.7391 14.9369C47.5703 13.9092 47.4353 12.9156 47.2327 11.9221C47.0301 10.7916 47.4353 10.1064 48.5832 9.86662C51.8581 9.24997 55.133 8.59905 58.3742 7.98239C59.4546 7.77684 60.096 8.25646 60.2648 9.31848C61.1427 14.2517 62.0205 19.1507 62.8983 24.084C63.1346 25.3173 62.5607 25.934 61.4128 26.1395C58.2729 26.7219 55.133 27.3728 51.9931 27.9552C50.5751 28.2293 50.0687 27.8524 49.7986 26.3793C49.6636 25.5229 49.4947 24.6321 49.3259 23.6044ZM49.1234 22.3711C48.752 20.2128 48.3806 18.2257 48.0092 16.136C47.3677 16.273 46.8613 16.41 46.3211 16.5128C46.6925 18.6369 47.0639 20.6239 47.4353 22.6794C48.043 22.5766 48.4819 22.4738 49.1234 22.3711Z" fill="black"/>
<path d="M30.284 6.4407C30.3178 2.84353 33.1875 -0.0342001 36.665 5.85899e-05C40.1087 0.0343173 42.9448 3.08334 42.8435 6.64625C42.776 10.1749 39.9062 13.0526 36.53 13.0184C33.0862 12.9841 30.2502 10.0036 30.284 6.4407Z" fill="black"/>
<path d="M20.0881 11.3054C22.9916 11.4082 25.7264 12.1619 28.191 13.8063C29.5415 14.697 29.8791 16.0331 29.1701 17.1979C28.4611 18.3627 27.2794 18.534 25.8614 17.7461C20.7296 14.7998 16.2055 15.5878 12.3228 20.0756C11.9852 20.4525 11.6814 20.8636 11.31 21.2404C10.4659 22.0969 9.18296 22.1654 8.33891 21.446C7.46109 20.7266 7.15723 19.3905 7.86624 18.4312C10.9048 14.2517 14.7875 11.511 20.0881 11.3054Z" fill="black"/>
<path d="M47.6042 20.6581C47.4353 19.6988 47.2328 18.7053 47.064 17.6433C47.9755 18.1914 48.2794 19.5275 47.6042 20.6581Z" fill="black"/>
</g>
<defs>
<clipPath id="clip0">
<rect width="63" height="58" fill="white"/>
</clipPath>
</defs>
</svg>
