<svg width="88" height="98" viewBox="0 0 88 98" fill="none" xmlns="http://www.w3.org/2000/svg">
<g clip-path="url(#clip0)">
<path d="M28.8058 62.2153C28.9378 62.2153 29.0257 62.2153 29.1577 62.2153C29.2016 62.436 29.2896 62.6125 29.2896 62.8331C30.2571 70.3342 31.2686 77.7912 32.2361 85.2923C32.5879 87.8957 34.3031 89.3518 36.546 89.0429C38.6569 88.734 39.8003 86.8367 39.4925 84.2775C39.1407 81.6741 38.7888 79.0267 38.437 76.4234C36.9857 65.7453 35.2706 55.1555 36.0622 44.3009C36.1062 43.8596 36.1502 43.3743 36.2381 42.4035C38.0412 45.5364 40.2401 47.522 43.4065 47.8749C45.6934 48.1397 48.0242 48.1838 50.2671 48.0073C52.8178 47.7867 53.8293 45.0069 52.3341 42.8889C51.9383 42.3153 51.6744 41.4328 51.7624 40.7268C51.9822 38.3882 52.378 36.0938 52.7299 33.8434C51.4985 33.5346 50.443 33.2698 49.2996 32.9609C48.552 35.2554 47.8483 37.5057 47.1447 39.7561C46.397 42.0947 45.8253 42.4035 43.5385 41.4328C42.9668 41.2122 42.439 40.6827 42.1312 40.1532C41.4715 39.006 40.9438 37.8146 40.416 36.5791C39.2286 33.7552 37.1177 32.4315 34.1272 32.4315C31.2686 32.4315 28.41 32.5638 25.5515 32.3873C21.9892 32.255 19.7903 33.9758 18.0312 36.9763C15.2606 41.7417 14.0732 46.9925 13.1497 52.2874C12.7978 54.2288 13.8093 55.6849 15.5245 55.9938C17.3276 56.3468 18.6909 55.3319 19.1307 53.2581C19.6144 51.0078 20.0542 48.7133 20.5819 46.463C20.8018 45.4922 21.1976 44.5215 21.5055 43.5949C21.6374 43.639 21.7694 43.639 21.9453 43.6831C21.9453 48.6692 22.3411 53.6994 21.8573 58.5971C21.0217 67.2014 19.6584 75.7615 18.559 84.3216C18.2511 86.7484 19.5705 88.6899 21.6814 88.9547C23.7484 89.2194 25.4635 87.7192 25.7713 85.3365C26.3431 81.1447 26.8708 76.9087 27.4425 72.7169C27.8383 69.2311 28.3221 65.7012 28.8058 62.2153ZM64.6039 65.7894C65.6154 70.7313 66.6269 75.4967 67.6384 80.3063C68.1222 82.5566 68.474 84.8511 69.0897 87.1014C69.2656 87.7192 70.1012 88.1163 70.6729 88.6017C70.9807 87.9398 71.2886 87.2338 71.5525 86.5719C71.5964 86.4396 71.5085 86.2631 71.4645 86.0866C70.453 81.2329 69.3975 76.3792 68.386 71.5256C67.9902 69.6723 67.6384 67.8191 67.2426 65.8777C67.9902 65.8335 68.562 65.9659 68.9138 65.7453C69.4855 65.4364 69.9693 64.8628 70.453 64.3774C69.9253 63.9803 69.4855 63.4067 68.9138 63.2302C68.2101 63.0537 67.4185 63.1861 66.5829 63.1861C66.0992 60.7592 65.6594 58.4648 65.1317 55.9497C67.9902 55.9497 70.541 55.9497 73.1796 55.9497C73.1796 41.3004 73.1796 26.8277 73.1796 12.3108C62.7569 12.3108 52.466 12.3108 42.0432 12.3108C42.0432 20.2532 41.9553 28.0632 42.1312 35.8731C42.1752 37.3292 42.9668 38.8295 44.55 40.1973C44.55 31.4607 44.55 23.1654 44.55 14.87C53.3456 14.87 61.9653 14.87 70.5849 14.87C70.5849 27.7543 70.5849 40.5062 70.5849 53.3464C61.8773 53.3464 53.2576 53.3464 44.462 53.3464C44.462 52.3315 44.7259 51.2725 44.3741 50.5224C44.0662 49.9047 43.0107 49.6399 42.0872 49.1104C42.0872 51.7138 42.0872 53.7876 42.0872 56.0379C44.7699 56.0379 47.3206 56.0379 50.0472 56.0379C49.5195 58.553 49.0797 60.8475 48.5959 63.1861C47.9363 63.1861 47.4085 63.1861 46.9248 63.1861C46.0012 63.1861 44.8578 63.0537 44.8138 64.3774C44.7699 65.7012 45.8253 65.7012 46.7928 65.7453C47.1447 65.7453 47.5405 65.8335 48.0682 65.8777C47.3646 69.3635 46.6609 72.761 45.9573 76.1145C45.2096 79.6886 44.418 83.2185 43.8023 86.7926C43.7144 87.3221 44.2861 87.9398 44.55 88.5134C45.0777 88.1163 45.6934 87.8074 46.0452 87.3221C46.3531 86.9249 46.3091 86.2631 46.441 85.7336C47.7164 79.5121 48.9917 73.3347 50.3111 67.1131C50.443 66.5836 50.9707 65.7894 51.3226 65.7453C55.7204 65.7894 60.1182 65.7894 64.6039 65.7894ZM35.4905 17.0762C31.0927 19.856 26.475 21.2239 21.4175 20.6503C20.7139 24.0037 22.561 27.5337 25.8153 29.1221C29.0257 30.6665 32.8518 29.784 35.1826 26.96C37.5135 24.0478 37.6894 19.9443 35.4905 17.0762ZM25.4635 14.0316C24.2321 14.2081 22.8688 14.3405 21.4615 14.6494C20.406 14.87 19.1307 14.9582 18.9987 16.4143C18.8668 17.8704 20.0102 18.3558 21.1537 18.7529C21.5055 18.8853 21.9013 18.9735 22.2971 19.0177C26.475 19.5472 30.2131 18.3117 33.7754 16.2378C35.7104 15.1347 36.2821 13.8993 35.7544 12.7079C35.1826 11.3842 33.6874 11.0312 31.5765 11.7813C30.6529 12.1343 29.7733 12.5314 28.8498 12.9285C28.454 13.105 28.0582 13.1933 27.3546 13.458C27.3985 12.3549 27.4865 11.4283 27.4865 10.5458C27.4865 10.0163 27.3106 9.53096 27.2226 9.00146C26.7828 9.31033 26.0352 9.57508 25.9473 10.0163C25.6394 11.2077 25.5954 12.4873 25.4635 14.0316ZM54.2691 23.2536C52.2901 23.2977 49.8713 25.4157 49.1677 27.8867C48.7719 29.2986 49.1237 30.5341 50.3111 31.3725C51.3226 32.1226 52.466 32.1667 53.5215 31.4607C54.7089 30.6665 55.1487 29.5193 54.8408 28.019C54.6209 26.5188 54.489 24.9745 54.2691 23.2536Z" fill="white"/>
<path d="M28.8059 62.2152C28.3221 65.7451 27.8823 69.2751 27.3986 72.7609C26.8269 76.9527 26.2991 81.1886 25.7274 85.3804C25.4196 87.7631 23.7044 89.2634 21.6375 88.9986C19.4825 88.7339 18.1632 86.7924 18.515 84.3656C19.6145 75.8055 20.9778 67.2454 21.8134 58.6411C22.2971 53.6992 21.9013 48.6691 21.9013 43.7271C21.7694 43.683 21.6374 43.683 21.4615 43.6389C21.1537 44.6096 20.7579 45.5362 20.538 46.507C20.0103 48.7573 19.5705 51.0518 19.0867 53.3021C18.6469 55.3759 17.3276 56.3908 15.4805 56.0378C13.7654 55.7289 12.7539 54.2728 13.1057 52.3314C14.0732 46.9482 15.2606 41.7415 18.0313 36.9761C19.7904 33.9757 21.9893 32.2548 25.5515 32.4313C28.4101 32.5637 31.2686 32.4754 34.1272 32.4754C37.1177 32.4754 39.2726 33.755 40.4161 36.6231C40.8998 37.8586 41.4715 39.05 42.1312 40.1972C42.439 40.7267 42.9668 41.2562 43.5385 41.4768C45.8254 42.4475 46.3971 42.1387 47.1447 39.8001C47.8483 37.5497 48.552 35.2994 49.2996 33.0049C50.443 33.3138 51.4545 33.5786 52.7299 33.8874C52.4221 36.1378 52.0263 38.4322 51.7624 40.7708C51.6744 41.4768 51.9383 42.3593 52.3341 42.9329C53.8294 45.0509 52.8618 47.8307 50.2671 48.0513C47.9803 48.2278 45.6494 48.1837 43.4066 47.9189C40.2401 47.5659 38.0412 45.5804 36.2381 42.4475C36.1502 43.4183 36.1062 43.9036 36.0622 44.3449C35.2267 55.1553 36.9858 65.7893 38.3931 76.4232C38.7449 79.0265 39.0967 81.674 39.4485 84.2773C39.8004 86.8365 38.613 88.7339 36.502 89.0428C34.2591 89.3516 32.544 87.8955 32.1922 85.2922C31.1807 77.7911 30.2132 70.3341 29.2456 62.8329C29.2017 62.6123 29.1577 62.4358 29.1137 62.2152C29.0258 62.2152 28.8938 62.2152 28.8059 62.2152Z" fill="black"/>
<path d="M64.6037 65.7892C60.1179 65.7892 55.7201 65.7451 51.3223 65.8333C50.9705 65.8333 50.4428 66.6717 50.3109 67.2012C48.9915 73.3786 47.7161 79.6001 46.4408 85.8216C46.3089 86.3511 46.3528 87.013 46.045 87.4101C45.6932 87.8955 45.0335 88.2044 44.5497 88.6015C44.2859 88.0279 43.7141 87.366 43.8021 86.8806C44.4618 83.3066 45.2094 79.7325 45.957 76.2025C46.6607 72.805 47.3643 69.4515 48.068 65.9657C47.5402 65.9216 47.1884 65.8333 46.7926 65.8333C45.8251 65.7892 44.7256 65.7892 44.8136 64.4655C44.8576 63.1418 46.001 63.23 46.9245 63.2741C47.4083 63.2741 47.8921 63.2741 48.5957 63.2741C49.0795 60.9356 49.5632 58.6411 50.047 56.126C47.3203 56.126 44.7696 56.126 42.087 56.126C42.087 53.8757 42.087 51.8018 42.087 49.1985C43.0105 49.728 44.066 49.9927 44.3738 50.6105C44.7256 51.3606 44.4618 52.4196 44.4618 53.4344C53.2134 53.4344 61.8331 53.4344 70.5847 53.4344C70.5847 40.5943 70.5847 27.8424 70.5847 14.9581C61.921 14.9581 53.3453 14.9581 44.5497 14.9581C44.5497 23.2534 44.5497 31.5488 44.5497 40.2854C42.9225 38.9175 42.1309 37.4173 42.1309 35.9612C41.955 28.1071 42.043 20.2971 42.043 12.3547C52.4658 12.3547 62.7566 12.3547 73.1794 12.3547C73.1794 26.8716 73.1794 41.3444 73.1794 55.9936C70.5407 55.9936 67.99 55.9936 65.1314 55.9936C65.6152 58.5087 66.099 60.8032 66.5827 63.23C67.4183 63.23 68.2099 63.0976 68.9135 63.2741C69.4853 63.4506 69.969 64.0243 70.4528 64.4214C69.925 64.8626 69.4853 65.4362 68.9135 65.7892C68.5177 66.0098 67.946 65.8775 67.2424 65.9216C67.6382 67.8631 67.99 69.7604 68.3858 71.5695C69.3973 76.4232 70.4528 81.2768 71.4643 86.1305C71.5083 86.307 71.5962 86.4835 71.5522 86.6159C71.2884 87.3219 70.9805 87.9837 70.6727 88.6456C70.1449 88.1602 69.2654 87.719 69.0895 87.1454C68.4738 84.9392 68.078 82.6447 67.6382 80.3502C66.6267 75.5407 65.6152 70.7311 64.6037 65.7892Z" fill="black"/>
<path d="M35.4902 17.0762C37.6891 19.9443 37.5132 24.0478 35.1824 26.9159C32.8516 29.7398 29.0255 30.6223 25.8151 29.078C22.5607 27.4895 20.7136 23.9596 21.4173 20.6061C26.5187 21.2239 31.1364 19.8119 35.4902 17.0762Z" fill="black"/>
<path d="M25.4637 14.0316C25.5956 12.5313 25.6396 11.2076 25.9034 9.97213C25.9914 9.57502 26.739 9.31027 27.1788 8.95728C27.2667 9.48677 27.4427 9.97213 27.4427 10.5016C27.4427 11.3841 27.3987 12.3107 27.3107 13.4138C28.0144 13.1932 28.4102 13.0608 28.806 12.8843C29.7295 12.5313 30.6091 12.0901 31.5326 11.7371C33.6436 10.987 35.1388 11.34 35.7105 12.6637C36.2383 13.8551 35.6665 15.0905 33.7315 16.1937C30.2133 18.2234 26.4312 19.4588 22.2533 18.9735C21.8575 18.9294 21.5056 18.8411 21.1098 18.7087C20.0104 18.3116 18.823 17.8263 18.9549 16.3702C19.0868 14.914 20.3622 14.8258 21.4177 14.6052C22.8689 14.3404 24.2762 14.2081 25.4637 14.0316Z" fill="black"/>
<path d="M54.2692 23.2537C54.4891 24.9745 54.577 26.5189 54.8849 28.0632C55.1927 29.5634 54.753 30.6665 53.5655 31.5049C52.5101 32.2109 51.3666 32.1668 50.3551 31.4167C49.1677 30.5342 48.8159 29.3428 49.2117 27.9308C49.8714 25.4599 52.2902 23.2978 54.2692 23.2537Z" fill="black"/>
</g>
<defs>
<clipPath id="clip0">
<rect width="88" height="98" fill="white"/>
</clipPath>
</defs>
</svg>
