<svg width="68" height="76" viewBox="0 0 68 76" fill="none" xmlns="http://www.w3.org/2000/svg">
<g clip-path="url(#clip0)">
<path d="M27.764 27.8541C27.5261 26.1432 27.3562 24.7744 27.1523 23.4057C27.0164 22.6871 27.2203 22.3107 27.9339 21.9343C29.1233 21.3183 30.1428 20.4286 31.5361 19.4363C32.2158 24.0558 32.9294 28.7096 33.677 33.7397C31.672 33.2265 29.837 32.9185 28.1038 32.3368C24.7735 31.1733 22.1228 29.1886 20.5596 25.8694C19.778 24.2269 18.0109 23.6452 16.4816 24.3638C14.9524 25.0824 14.2727 26.8275 14.9184 28.47C15.9039 31.0022 17.5351 33.0896 19.642 34.7321C20.4576 35.3822 20.6276 36.0324 20.4916 37.0248C20.2198 38.7357 20.1178 40.4809 19.9479 42.3629C20.5936 42.3971 21.0354 42.4655 21.4771 42.4655C25.0793 42.4655 28.6815 42.4655 32.3177 42.4655C35.648 42.4655 36.9394 43.5948 37.2792 46.9482C37.823 52.5259 38.2987 58.1035 38.7745 63.6812C38.9784 66.2134 37.4831 68.1297 35.2402 68.3008C33.0653 68.4376 31.3322 66.7951 31.0943 64.3314C30.7205 60.3278 30.3807 56.3242 30.0408 52.3206C29.8709 50.3701 29.8709 50.3701 28.0019 50.3701C24.1958 50.3701 20.3557 50.3701 16.5496 50.3701C11.69 50.3359 9.65104 48.4196 9.10731 43.5263C8.49562 37.9829 9.10732 32.6105 10.9424 27.375C11.826 24.8771 13.2872 22.9266 15.8699 22.0369C17.671 21.421 19.4042 21.6605 20.9334 22.8239C22.7685 24.1927 24.6036 25.5614 26.4726 26.9302C26.7445 27.1697 27.1183 27.4093 27.764 27.8541Z" fill="black"/>
<path d="M1.73291 25.7324C2.92232 25.4929 3.94181 25.2876 5.02926 25.0823C6.72841 34.0818 7.30612 43.0129 7.03426 52.1836C7.61197 52.1836 8.08773 52.1836 8.52951 52.1836C12.8114 52.1836 17.0932 52.2178 21.4091 52.1836C22.4286 52.1836 22.9383 52.3889 22.7684 53.5181C22.6325 54.3736 23.0403 55.3659 22.0887 56.0503C21.8848 56.1872 22.0208 56.7689 22.0208 57.1795C22.0208 60.6698 22.0208 64.1944 22.0208 67.7874C20.8993 67.7874 19.8798 67.7874 18.6564 67.7874C18.6564 66.4186 18.6564 65.0156 18.6564 63.4758C17.3991 63.4758 16.3116 63.4758 15.2242 63.4758C12.5055 63.4758 9.78688 63.51 7.06824 63.4758C6.32062 63.4758 5.9468 63.6811 5.91282 64.4681C5.91282 64.7761 5.81087 65.0499 5.77689 65.3578C5.30113 68.2322 5.06324 68.4033 2.00477 67.7531C4.38358 53.7576 4.31562 39.8306 1.73291 25.7324ZM18.5205 55.7081C14.7484 55.7081 11.0782 55.7081 7.40807 55.7423C7.20417 55.7423 6.83036 56.1187 6.79638 56.3583C6.59248 58.035 6.49053 59.7459 6.32062 61.5253C10.4326 61.5253 14.4426 61.5253 18.5205 61.5253C18.5205 59.5748 18.5205 57.6928 18.5205 55.7081Z" fill="black"/>
<path d="M60.6596 67.8217C59.5381 67.8217 58.5866 67.8217 57.4652 67.8217C57.4652 59.0275 57.4652 50.3017 57.4652 41.4048C56.8195 41.4048 56.3098 41.4048 55.834 41.4048C47.6781 41.4048 39.5222 41.4048 31.3662 41.4048C29.837 41.4048 29.803 41.3706 30.1089 39.7281C31.9439 39.8649 33.779 40.0018 35.6481 40.1387C37.0754 40.2414 38.3327 39.9676 39.2163 38.6673C39.3862 38.4278 39.862 38.2567 40.2018 38.2567C48.3917 38.2224 56.5816 38.2567 64.8055 38.2567C64.9414 38.2567 65.0434 38.3251 65.2813 38.3593C65.2813 39.2832 65.2813 40.2414 65.2813 41.3706C63.786 41.3706 62.3248 41.3706 60.6936 41.3706C60.6596 50.2675 60.6596 58.9933 60.6596 67.8217Z" fill="black"/>
<path d="M31.8078 14.8852C31.7739 18.8203 28.7154 21.9342 24.8753 21.9C21.0692 21.9 18.0107 18.6835 18.0107 14.7825C18.0447 10.8816 21.1372 7.69921 24.9433 7.73343C28.7834 7.73343 31.8418 10.95 31.8078 14.8852ZM24.8413 18.8888C25.3171 19.7785 26.2686 20.3602 27.3221 20.1549C28.5115 19.9495 29.395 18.9914 29.565 17.7938C28.0357 18.1702 26.4385 18.5466 24.8413 18.8888Z" fill="black"/>
<path d="M35.0705 39.42C30.0071 39.1462 25.3854 38.0512 21.3074 35.211C18.8946 33.5343 16.9576 31.4128 15.7002 28.7095C15.0206 27.2723 15.2584 26.0062 16.2779 25.2191C17.3654 24.3637 19.0985 24.569 19.7102 25.8009C22.9046 32.1998 28.6477 33.8423 35.0705 34.3214C35.6143 34.3556 36.192 34.3214 36.7357 34.3898C38.163 34.5609 39.0805 35.5875 39.0466 36.9562C39.0126 38.325 38.0271 39.2831 36.5658 39.3857C35.9881 39.4542 35.4443 39.42 35.0705 39.42Z" fill="black"/>
<path d="M60.2517 22.1738C60.9653 22.5502 61.5091 22.824 62.1207 23.1662C60.9313 25.6299 59.7759 27.991 58.5865 30.3521C57.703 32.1657 56.8194 33.9451 55.9019 35.7245C55.698 36.1009 55.1882 36.5457 54.8484 36.5457C50.5325 36.6142 46.1827 36.58 41.8669 36.5457C41.731 36.5457 41.629 36.4773 41.5271 36.4431C41.0513 34.4926 41.1532 34.3557 43.0563 34.3557C46.2847 34.3557 49.5131 34.2873 52.7414 34.3899C53.9308 34.4242 54.4746 33.9793 54.9503 32.987C56.6155 29.4282 58.4166 25.9037 60.2517 22.1738Z" fill="black"/>
</g>
<defs>
<clipPath id="clip0">
<rect width="68" height="76" fill="white"/>
</clipPath>
</defs>
</svg>
