<svg width="72" height="86" viewBox="0 0 72 86" fill="none" xmlns="http://www.w3.org/2000/svg">
<g clip-path="url(#clip0)">
<path d="M26.4313 39.0312C25.0037 40.038 23.8847 40.8124 22.8043 41.5868C19.486 43.9875 16.1676 46.3495 12.8493 48.7503C11.3831 49.7957 9.95542 49.7183 9.10654 48.5567C8.25767 47.395 8.60494 45.9623 10.0326 44.9169C15.8204 40.735 21.5696 36.5531 27.4345 32.4486C28.2062 31.9065 29.4795 31.7516 30.4827 31.9065C33.6467 32.4099 36.7721 33.0681 39.8975 33.8038C40.9779 34.0362 41.711 33.8813 42.5599 33.1843C47.8461 28.7314 53.2094 24.3558 58.5342 19.9416C58.8043 19.748 59.0358 19.5157 59.3059 19.3221C60.5792 18.3928 61.8911 18.4702 62.7786 19.5544C63.6274 20.6386 63.4731 21.9939 62.277 23.0006C59.7303 25.1303 57.1451 27.2599 54.5985 29.3509C51.0487 32.2937 47.4217 35.1978 43.9104 38.2568C43.2159 38.8763 42.6371 39.8831 42.4442 40.8124C41.6725 44.1037 41.0551 47.4337 40.3991 50.7638C40.322 51.2284 40.2834 51.6931 40.1676 52.3513C43.0229 52.0029 45.6853 51.6931 48.3863 51.3446C49.9683 51.1123 51.3188 51.4608 52.2448 52.816C53.1709 54.1712 53.0551 55.5652 52.322 56.9979C49.8139 61.7606 47.3445 66.5621 44.8364 71.3635C43.7175 73.5319 41.711 74.2676 39.8204 73.2996C37.8911 72.2928 37.3123 70.1631 38.4313 67.956C39.8204 65.2455 41.248 62.5351 42.83 59.4761C40.2448 59.7858 38.0069 59.902 35.8075 60.3279C33.1451 60.87 31.0229 60.4828 29.8654 57.4238C29.1323 58.8565 28.5149 59.9794 27.9361 61.1411C24.2319 68.4207 20.5664 75.739 16.8622 83.0573C15.7432 85.2645 14.0069 86.0776 12.1162 85.4193C9.994 84.6836 9.14513 82.2829 10.3027 79.9984C13.0037 74.6161 15.5117 69.1951 18.4828 63.9677C22.3027 57.269 24.7721 50.2217 25.7754 42.6323C25.8525 41.5094 26.1226 40.4639 26.4313 39.0312Z" fill="black"/>
<path d="M40.4377 8.98333C39.7818 8.67356 39.3574 8.47995 38.9329 8.28635C39.7818 6.1954 41.3638 5.61458 43.4088 5.53714C43.0229 5.34353 42.6757 5.18864 42.0969 4.9176C42.6757 4.29805 43.1387 3.63979 43.7561 3.17514C45.6467 1.78117 47.6918 1.70373 49.7368 2.82665C51.8204 3.98828 52.7078 6.00179 52.5921 9.06077C52.8236 8.44123 53.0551 7.86041 53.3252 7.16343C54.7528 7.24087 55.5631 8.09274 55.9104 9.37054C56.2577 10.6871 55.8332 11.81 54.7914 12.5457C53.2866 13.6299 51.8204 13.1652 50.4699 12.0036C48.695 13.1652 46.9201 13.2427 44.875 12.8167C43.4088 12.507 41.7882 12.8167 40.2834 13.1265C39.203 13.3588 38.2384 13.3976 37.6982 12.4682C37.3509 11.8487 37.158 10.7258 37.4667 10.2611C37.8911 9.64159 38.9329 9.40927 39.7046 9.02205C39.8204 8.98333 39.9747 9.02205 40.4377 8.98333Z" fill="black"/>
<path d="M44.489 24.6655C44.5276 28.4989 41.6337 31.4418 37.8524 31.4418C34.1868 31.4418 31.2543 28.4989 31.2157 24.7817C31.1771 21.1419 34.1868 18.0442 37.8138 18.0442C41.4794 18.0442 44.489 21.0257 44.489 24.6655ZM41.5179 28.4989C39.7044 27.7245 37.9295 26.9501 36.116 26.1369C36.5019 28.8862 39.3572 30.0478 41.5179 28.4989Z" fill="black"/>
<path d="M25.1193 16.4179C25.1193 15.5273 25.1193 14.6754 25.1193 13.6687C26.4698 13.4751 27.5116 14.0559 28.129 15.2562C28.7464 16.4179 28.6306 17.6182 27.7817 18.625C26.8943 19.6705 25.8139 20.0189 24.4248 19.6317C23.7303 19.4381 22.92 19.5543 22.1483 19.593C21.8396 19.593 21.4923 19.8253 21.1837 19.7866C19.6788 19.6317 18.2512 19.0896 16.6306 19.3994C16.2062 19.4769 15.0872 18.2765 15.01 17.5795C14.9328 16.8825 15.666 16.0307 16.2062 15.3337C16.5148 14.9465 17.2865 14.9465 17.4795 14.5592C18.4827 12.7393 19.9489 11.8875 21.9168 12.3909C23.9232 12.9717 24.7335 14.4431 25.1193 16.4179Z" fill="black"/>
<path d="M7.83301 70.744C10.1095 66.1748 12.3861 61.6057 14.624 57.0366C14.7783 57.1141 14.9327 57.1915 15.1256 57.2689C12.8491 61.8381 10.5726 66.4072 8.33462 70.9763C8.14169 70.8989 7.98735 70.8214 7.83301 70.744Z" fill="black"/>
<path d="M22.9585 84.5284C25.1964 79.998 27.4344 75.4676 29.6723 70.9373C29.8267 71.0147 29.981 71.0921 30.1739 71.1696C27.936 75.7 25.698 80.2304 23.4215 84.7608C23.3058 84.6833 23.1128 84.6059 22.9585 84.5284Z" fill="black"/>
<path d="M14.5855 54.713C13.0035 57.8495 11.4601 61.0246 9.87806 64.161C9.72372 64.0836 9.56938 64.0062 9.41504 63.9287C10.9584 60.7923 12.5404 57.6171 14.0839 54.4807C14.2382 54.5582 14.3925 54.6356 14.5855 54.713Z" fill="black"/>
<path d="M33.5693 68.0719C32.0259 71.1696 30.4825 74.3061 28.9391 77.4038C28.7848 77.3263 28.6304 77.2489 28.4375 77.1714C29.9809 74.0737 31.5243 70.9373 33.0677 67.8396C33.2606 67.8783 33.415 67.9558 33.5693 68.0719Z" fill="black"/>
<path d="M29.5952 68.6527C28.0518 71.7504 26.5084 74.8481 24.965 77.9459C24.8106 77.8684 24.6563 77.791 24.4634 77.7135C26.0068 74.6158 27.5502 71.5181 29.0936 68.4204C29.2865 68.4979 29.4409 68.5753 29.5952 68.6527Z" fill="black"/>
<path d="M18.521 54.2099C16.9776 57.3463 15.3956 60.444 13.8522 63.5804C13.6978 63.503 13.5435 63.4255 13.3892 63.3481C14.9326 60.2117 16.5146 57.0752 18.058 53.9775C18.2123 54.055 18.3667 54.1324 18.521 54.2099Z" fill="black"/>
</g>
<defs>
<clipPath id="clip0">
<rect width="72" height="86" fill="white"/>
</clipPath>
</defs>
</svg>
