<svg id="Слой_1" data-name="Слой 1" xmlns="http://www.w3.org/2000/svg" viewBox="0 0 500.2 238.6"><defs><style>.cls-1{isolation:isolate;}.cls-2{fill:#00baf0;}.cls-3{fill:#2b3238;}.cls-4{opacity:0.4;}.cls-5{opacity:0.6;}.cls-6{opacity:0.8;}</style></defs><title>logo</title><g id="logo"><g class="cls-1"><path class="cls-2" d="M118,167a28.82,28.82,0,0,1-11.2,4.3,75.36,75.36,0,0,1-14.3,1.4,53.89,53.89,0,0,1-16.6-2.6,37.35,37.35,0,0,1-14.1-8.3A41.66,41.66,0,0,1,52,147.2q-3.6-8.85-3.6-21.6c0-8.8,1.4-16.2,4.1-22.2A42.29,42.29,0,0,1,63.1,88.9,39.56,39.56,0,0,1,77.4,81a53.35,53.35,0,0,1,15.5-2.5,80.14,80.14,0,0,1,14.1,1,51.5,51.5,0,0,1,9.5,2.5l-3.7,16a36.23,36.23,0,0,0-7.6-2.1,81.69,81.69,0,0,0-10.9-.6,26.92,26.92,0,0,0-10.5,1.9,21.49,21.49,0,0,0-8.1,5.6,25.8,25.8,0,0,0-5.2,9.4,44,44,0,0,0-1.9,13.3,43,43,0,0,0,1.7,12.3,27.42,27.42,0,0,0,5,9.6,22.31,22.31,0,0,0,8.5,6.2,29.88,29.88,0,0,0,12,2.2,41,41,0,0,0,10.7-1.2,38.6,38.6,0,0,0,7.7-3Z" transform="translate(-6 -14.3)"/><path class="cls-2" d="M183.8,97.2H149.2v73.7H130V80.4h72.9v90.4H183.8V97.2Z" transform="translate(-6 -14.3)"/><path class="cls-2" d="M271.1,97.2H250.3c-.4,8.2-.9,15.6-1.4,22.2s-1.1,12.5-1.9,17.8a80.18,80.18,0,0,1-3.3,14,45.13,45.13,0,0,1-5.2,10.8,21.68,21.68,0,0,1-4.6,4.9,21.18,21.18,0,0,1-5.2,3,28.32,28.32,0,0,1-5.3,1.5,28,28,0,0,1-4.8.5,22.7,22.7,0,0,1-5.2-.5,24.42,24.42,0,0,1-4.1-1.6l2.1-16a11.09,11.09,0,0,0,3.4.5,10.06,10.06,0,0,0,4.4-1,9.64,9.64,0,0,0,3.9-3.4,28,28,0,0,0,3.7-8.1,80,80,0,0,0,2.7-13.8c.7-5.6,1.3-12.4,1.8-20.2s.8-17,1-27.4h58v90.4H271.2V97.2Z" transform="translate(-6 -14.3)"/><path class="cls-2" d="M364.5,121l1-11.5h-.6l-6.6,11.6-37.1,49.7H307V80.4h19.1v48.7l-1.3,12h.8l7-12,36.7-48.7h14.3v90.4H364.5Z" transform="translate(-6 -14.3)"/><path class="cls-2" d="M470.1,97.2H441.4v73.7H422.3V97.2H393.6V80.4h76.5V97.2Z" transform="translate(-6 -14.3)"/></g><rect class="cls-2" x="83.2" y="190" width="83.7" height="2"/><rect class="cls-2" x="66.4" y="181.5" width="100.5" height="2.4"/><rect class="cls-2" x="442.1" y="221.1" width="34.9" height="2"/><rect class="cls-2" x="442.1" y="213.8" width="41.9" height="2.4"/><path class="cls-2" d="M9.6,205.4V57.6A12.61,12.61,0,0,1,22.2,45H384.7V41.5H22.2A16.24,16.24,0,0,0,6,57.6V205.4a16.26,16.26,0,0,0,16.2,16.2H172.9V218H22.2A12.61,12.61,0,0,1,9.6,205.4Z" transform="translate(-6 -14.3)"/><path class="cls-2" d="M490,41.5H476.8V45H490a12.61,12.61,0,0,1,12.6,12.6V205.4A12.61,12.61,0,0,1,490,218H448.1v3.6H490a16.26,16.26,0,0,0,16.2-16.2V57.6A16.37,16.37,0,0,0,490,41.5Z" transform="translate(-6 -14.3)"/><path class="cls-3" d="M217.4,205.4H195v46.4H182.7V194.9h47v56.9H217.4Z" transform="translate(-6 -14.3)"/><path class="cls-3" d="M240.6,195.3c2.5-.5,5.3-.7,8.4-1s6.1-.4,9.2-.4a62.57,62.57,0,0,1,9.5.7,25.79,25.79,0,0,1,8.5,2.8,18.74,18.74,0,0,1,6.2,5.7c1.6,2.5,2.4,5.7,2.4,9.8a20.14,20.14,0,0,1-2,9.2,17.93,17.93,0,0,1-5.5,6.1,22.69,22.69,0,0,1-7.9,3.5,39.75,39.75,0,0,1-9.1,1.1h-3.6c-.7,0-1.4-.1-2.2-.1s-1.2-.1-1.6-.1v19.1H240.6V195.3Zm18.3,9.2c-1.2,0-2.3,0-3.3.1a6.46,6.46,0,0,0-2.6.4v16.9c.2,0,.6.1,1.1.1s1.1.1,1.6.1a8.08,8.08,0,0,1,1.6.1h1.1a25.92,25.92,0,0,0,4.8-.4,12.1,12.1,0,0,0,4.3-1.4,8.34,8.34,0,0,0,3-2.9,8.89,8.89,0,0,0,1.2-4.9,7.46,7.46,0,0,0-1.1-4.2,7.06,7.06,0,0,0-2.9-2.5,12.32,12.32,0,0,0-4.1-1.2C262,204.6,260.5,204.5,258.9,204.5Z" transform="translate(-6 -14.3)"/><path class="cls-3" d="M316.6,239.6H297l-4.8,12.1H279.9l22.9-57.3h9.1l23,57.3h-13Zm-16.2-9.5h13.4l-4.5-11.8-2-9h-.4l-2,9.1Z" transform="translate(-6 -14.3)"/><path class="cls-3" d="M377.3,220.3l.7-7.3h-.5l-4.3,7.3-23.9,31.3H340V194.7h12.3v30.6l-.8,7.5h.5l4.5-7.5,23.7-30.6h9.2v56.9H377.1V220.3Z" transform="translate(-6 -14.3)"/><path class="cls-3" d="M443.3,249.3a20.62,20.62,0,0,1-7.3,2.8,47,47,0,0,1-9.2.8,35.86,35.86,0,0,1-10.8-1.7,23.75,23.75,0,0,1-9.1-5.3,25.52,25.52,0,0,1-6.3-9.2,34.48,34.48,0,0,1-2.4-13.6c0-5.5.8-10.2,2.6-14a26.83,26.83,0,0,1,6.8-9.1,27.51,27.51,0,0,1,9.2-5,31.67,31.67,0,0,1,10-1.6,57.54,57.54,0,0,1,9.1.6,40.43,40.43,0,0,1,6.1,1.6l-2.4,10a16.68,16.68,0,0,0-4.9-1.3,65.2,65.2,0,0,0-7.1-.4,18.31,18.31,0,0,0-6.8,1.2,14.29,14.29,0,0,0-5.3,3.6,17.29,17.29,0,0,0-3.3,6,26.16,26.16,0,0,0-1.2,8.4,27.21,27.21,0,0,0,1.1,7.8,17.29,17.29,0,0,0,3.2,6,13.13,13.13,0,0,0,5.5,3.9,20.87,20.87,0,0,0,7.8,1.4,25.81,25.81,0,0,0,6.8-.7,20,20,0,0,0,4.9-1.9Z" transform="translate(-6 -14.3)"/><g class="cls-4"><polygon class="cls-2" points="397.1 22.3 397.1 25 395.8 23.6 394.2 25.1 397.1 28 397.1 33.9 392.2 31 391.1 26.9 389 27.5 389.4 29.4 387 28 386 29.9 388.4 31.2 386.6 31.8 387 33.9 391 32.8 396 35.7 391 38.6 387 37.6 386.6 39.6 388.4 40.2 386 41.5 387 43.4 389.4 42 389 43.9 391.1 44.4 392.2 40.4 397.1 37.6 397.1 43.4 394.2 46.3 395.8 47.9 397.1 46.4 397.1 49.2 398.2 49.2 398.2 22.3 397.1 22.3"/></g><g class="cls-5"><polygon class="cls-2" points="409.9 39.6 409.4 37.6 405.5 38.6 400.4 35.7 405.5 32.8 409.4 33.9 409.9 31.8 408.1 31.2 410.5 29.9 409.4 28 407 29.4 407.5 27.5 405.3 26.9 404.3 31 399.4 33.9 399.4 28 402.2 25.1 400.7 23.6 399.4 25 399.4 22.3 398.2 22.3 398.2 49.2 399.4 49.2 399.4 46.4 400.7 47.9 402.2 46.3 399.4 43.4 399.4 37.6 404.3 40.4 405.3 44.4 407.5 43.9 407 42 409.4 43.4 410.5 41.5 408.1 40.2 409.9 39.6"/></g><g class="cls-6"><polygon class="cls-2" points="442.2 0 442.2 4.9 439.8 2.4 436.9 5.1 442.2 10.4 442.2 20.8 433.2 15.7 431.3 8.5 427.5 9.4 428.3 12.8 424.1 10.4 422.1 13.8 426.4 16.3 423.1 17.1 424.1 20.9 431.2 19 440.3 24.2 431.2 29.4 424.1 27.5 423.1 31.3 426.4 32.2 422.1 34.7 424.1 38 428.3 35.7 427.5 38.9 431.3 40 433.2 32.8 442.2 27.6 442.2 38 436.9 43.2 439.8 46.1 442.2 43.5 442.2 48.5 444.1 48.5 444.1 0 442.2 0"/></g><polygon class="cls-2" points="465.3 31.3 464.2 27.5 457.2 29.4 448.1 24.2 457.2 19 464.2 20.9 465.3 17.1 461.9 16.3 466.1 13.8 464.2 10.4 459.9 12.8 460.9 9.4 457 8.5 455.1 15.7 446.1 20.8 446.1 10.4 451.3 5.1 448.5 2.4 446.1 4.9 446.1 0 444.1 0 444.1 48.5 446.1 48.5 446.1 43.5 448.5 46.1 451.3 43.2 446.1 38 446.1 27.6 455.1 32.8 457 40 460.9 38.9 459.9 35.7 464.2 38 466.1 34.7 461.9 32.2 465.3 31.3"/><path class="cls-3" d="M360.6,181.7a3.45,3.45,0,0,0,1.7,2.8,5.87,5.87,0,0,0,3.5.8q4.65,0,5.1-3.6l7.8,1.1a7.81,7.81,0,0,1-4.1,6c-2.2,1.2-5.1,1.8-9,1.8a26.39,26.39,0,0,1-5.1-.4,12.93,12.93,0,0,1-4.2-1.2,7.43,7.43,0,0,1-2.9-2.3A8.19,8.19,0,0,1,352,183Z" transform="translate(-6 -14.3)"/></g></svg>