<?xml version="1.0" encoding="utf-8"?>
<!-- Generator: Adobe Illustrator 22.0.1, SVG Export Plug-In . SVG Version: 6.00 Build 0)  -->
<svg version="1.1" id="Слой_1" xmlns="http://www.w3.org/2000/svg" xmlns:xlink="http://www.w3.org/1999/xlink" x="0px" y="0px"
	 viewBox="0 0 512 512" style="enable-background:new 0 0 512 512;" xml:space="preserve">
<style type="text/css">
	.st0{fill:#00BAF0;}
</style>
<path class="st0" d="M404.3,54.6l20.3,18.6L167.8,220.8L43.5,148.8l11.6-23.2L167.8,190L404.3,54.6z M352.6,25l27.3,14L167.8,161
	L69,104.6l16.9-20.3l81.9,47.1L352.6,25z M442.7,92.4l15.1,20.3l-290,166.8l-140-80.2l6.4-25.6l133.6,76.7L442.7,92.4z"/>
<path class="st0" d="M484.5,167.4c8.5,24,12.8,49.2,12.8,75.5s-4.3,51.9-12.8,76.7l-5.8,15.7c-12,28.3-28.9,53.5-50.6,75.5
	c-22.1,21.7-47.3,38.3-75.5,50C322.8,473.6,292,480,260.2,480c-32.2,0-63-6.4-92.4-19.2c-27.5-11.6-52.5-28.3-75-50
	c-22.1-22.1-38.9-47.3-50.6-75.5c-12.4-29.9-18.6-60.6-18.6-92.4v-15.7l144.1,81.9l303.9-174.3L484.5,167.4z"/>
</svg>
