<svg width="80" height="80" viewBox="0 0 80 80" fill="none" xmlns="http://www.w3.org/2000/svg">
<g clip-path="url(#clip0)">
<path fill-rule="evenodd" clip-rule="evenodd" d="M60.7186 77.4844L77.578 60.6406C79.0155 59.2188 79.0155 56.875 77.578 55.4375L74.7967 52.6719C73.3592 51.25 71.0311 51.25 69.5936 52.6719L69.5155 52.75L52.8123 69.4375L52.7342 69.5156C51.2967 70.9375 51.2967 73.2813 52.7342 74.7031L55.5154 77.4844C55.7967 77.7656 56.1248 78 56.4686 78.1719H59.7654C60.1092 78 60.4217 77.7656 60.7186 77.4844Z" fill="#3498DB"/>
<path fill-rule="evenodd" clip-rule="evenodd" d="M20.6875 78.1719H23.9844C24.3281 78 24.6563 77.7656 24.9375 77.4844L27.7188 74.7031C29.1563 73.2813 29.1563 70.9375 27.7188 69.5156L27.6406 69.4375L10.9219 52.7344L10.8438 52.6563C9.40626 51.2344 7.07813 51.2344 5.64063 52.6563L2.85938 55.4219C1.42188 56.8438 1.42188 59.1875 2.85938 60.625L19.7188 77.4688C20.0156 77.7656 20.3438 78 20.6875 78.1719Z" fill="#3498DB"/>
<path d="M39.8594 10.1719C40.7344 10.1719 41.4375 9.46875 41.4375 8.59375V1.57812C41.4375 0.703125 40.7344 0 39.8594 0C38.9844 0 38.2812 0.703125 38.2812 1.57812V8.59375C38.2812 9.46875 38.9844 10.1719 39.8594 10.1719Z" fill="white"/>
<path d="M78.3279 54.0625L75.5467 51.2969C74.5623 50.3125 73.2342 49.7657 71.8279 49.7657C70.9373 49.7657 70.0623 49.9844 69.2967 50.4063L64.0623 45.1719L64.3123 44.9219C66.4373 42.7969 66.4373 39.3282 64.3123 37.2032C63.5467 36.4375 62.6092 35.9375 61.5779 35.7188C61.7185 35.2344 61.7967 34.7188 61.7967 34.1875C61.7967 32.7188 61.2342 31.3594 60.2029 30.3282C59.4373 29.5625 58.4998 29.0625 57.4685 28.8438C57.6092 28.3594 57.6873 27.8438 57.6873 27.3125C57.6873 25.8438 57.1248 24.4844 56.0935 23.4532C55.3123 22.6719 54.3592 22.1875 53.3592 21.9688C53.8904 20.125 53.4373 18.0313 51.9842 16.5782C50.7654 15.375 49.1248 14.8594 47.5467 15.0157L37.1717 13.0469C35.5935 12.75 33.6092 12.5469 32.3592 13.6875C32.281 13.7657 32.2029 13.8438 32.1248 13.9375C30.1873 13.2344 27.9373 13.6563 26.3904 15.2032C25.3592 16.2344 24.7967 17.5938 24.7967 19.0625C24.7967 19.5938 24.8748 20.1094 25.0154 20.5938C23.9842 20.8125 23.031 21.3125 22.281 22.0782C21.2498 23.1094 20.6873 24.4688 20.6873 25.9375C20.6873 26.4688 20.7654 26.9844 20.906 27.4688C19.8748 27.6875 18.9217 28.1875 18.1717 28.9375C17.1404 29.9688 16.5779 31.3438 16.5779 32.7969C16.5779 33.9219 16.906 34.9844 17.531 35.875C16.7498 36.1407 16.031 36.5782 15.4373 37.1719C13.3123 39.2969 13.3123 42.75 15.4373 44.8907L15.6873 45.1407L10.4529 50.375C8.4998 49.4532 6.10917 49.7969 4.4998 51.4063L1.71855 54.1875C0.734173 55.1719 0.187298 56.5 0.187298 57.9063C0.187298 59.3125 0.734173 60.625 1.71855 61.625L5.1873 65.0938C5.79667 65.7032 6.79667 65.7032 7.40605 65.0938C8.01542 64.4844 8.01542 63.4844 7.40605 62.875L3.9373 59.4063C3.54667 59.0157 3.32792 58.4844 3.32792 57.9219C3.32792 57.3594 3.54667 56.8282 3.9373 56.4375L6.71855 53.6563C7.40605 52.9688 8.48417 52.8594 9.28105 53.3438C9.34355 53.4219 9.40605 53.5157 9.48417 53.5782C9.6248 53.7188 9.76542 53.8125 9.9373 53.8907L25.8904 69.8125C25.9685 69.9844 26.0779 70.1407 26.2029 70.2657C26.3279 70.3907 26.4842 70.5 26.6404 70.5782C26.9842 70.9532 27.1717 71.4532 27.1717 71.9688C27.1717 72.5313 26.9529 73.0625 26.5623 73.4532L23.7342 76.25C22.906 77.0625 21.5779 77.0625 20.7654 76.25L17.2967 72.7813C16.6873 72.1719 15.6873 72.1719 15.0779 72.7813C14.4685 73.3907 14.4685 74.3907 15.0779 75L18.5467 78.4688C19.5623 79.4844 20.906 80 22.2498 80C23.5935 80 24.9373 79.4844 25.9685 78.4688L28.7498 75.6875C29.7342 74.7032 30.281 73.375 30.281 71.9688C30.281 70.9688 29.9998 70.0157 29.4842 69.1875L35.3748 63.2969L35.3904 63.2813C36.0623 62.5782 37.9529 62.7188 39.7654 62.8438C41.0623 62.9375 42.4998 63.0313 43.906 62.875L50.3592 69.3282C49.9373 70.0938 49.7185 70.9532 49.7185 71.8438C49.7185 73.25 50.2654 74.5625 51.2498 75.5469L54.031 78.3282C55.0154 79.3125 56.3435 79.8594 57.7498 79.8594C59.156 79.8594 60.4685 79.3125 61.4685 78.3282L78.3279 61.4844C79.3123 60.5 79.8592 59.1719 79.8592 57.7657C79.8592 56.375 79.3123 55.0469 78.3279 54.0625ZM36.5623 16.1563L43.3904 17.4532L39.3123 21.5313C38.6873 21.2344 37.8123 20.6563 36.8592 19.75C35.5623 18.5 34.6248 17.0625 34.5467 16.1719C34.5467 16.1094 34.5467 16.0625 34.5467 16.0157C34.7342 15.9688 35.281 15.9219 36.5623 16.1563ZM28.5935 17.4375C29.3904 16.6407 30.6248 16.5469 31.531 17.1563C32.0467 19.2969 33.8748 21.2344 34.6873 22.0157C35.2967 22.5938 37.2498 24.3438 39.2185 24.8282C39.4842 25.2032 39.6248 25.6719 39.6248 26.1407C39.6248 26.7657 39.3904 27.3438 38.9529 27.7657C38.5154 28.2032 37.9373 28.4375 37.3123 28.4375C36.6873 28.4375 36.1092 28.2032 35.6717 27.7657L28.5935 20.7032C28.156 20.2657 27.9217 19.6875 27.9217 19.0782C27.9217 18.4532 28.156 17.875 28.5935 17.4375ZM24.4685 24.3125C24.906 23.875 25.4842 23.6407 26.0935 23.6407C26.7185 23.6407 27.2967 23.875 27.7342 24.3125L33.4529 30.0157C34.3592 30.9219 34.3592 32.3907 33.4529 33.2813C33.0154 33.7188 32.4373 33.9532 31.8123 33.9532C31.1873 33.9532 30.6092 33.7188 30.1717 33.2813L25.8435 28.9532L25.8279 28.9375L24.4685 27.5782C24.031 27.1407 23.7967 26.5625 23.7967 25.9375C23.7967 25.3282 24.0467 24.75 24.4685 24.3125ZM20.3592 31.1719C20.7967 30.7344 21.3748 30.5 21.9998 30.5C22.6092 30.5 23.1873 30.7344 23.6248 31.1563L27.9685 35.5C28.406 35.9375 28.6404 36.5157 28.6404 37.125C28.6404 37.75 28.406 38.3282 27.9685 38.75C27.531 39.1875 26.9529 39.4219 26.3279 39.4219C25.7029 39.4219 25.1248 39.1875 24.6873 38.75L23.1092 37.1719L20.3592 34.4219C19.9217 33.9844 19.6873 33.4063 19.6873 32.7813C19.6873 32.1875 19.9217 31.6094 20.3592 31.1719ZM17.6092 39.4219C18.0467 38.9844 18.6248 38.75 19.2498 38.75C19.8748 38.75 20.4529 38.9844 20.8904 39.4219L22.4685 41C22.906 41.4375 23.1404 42.0157 23.1404 42.625C23.1404 43.2344 22.906 43.8282 22.4685 44.25C22.031 44.6875 21.4529 44.9219 20.8279 44.9219C20.2029 44.9219 19.6248 44.6875 19.1873 44.25L18.9842 44.0469C18.9842 44.0469 18.9842 44.0469 18.9842 44.0313C18.9842 44.0313 18.9842 44.0313 18.9685 44.0157L17.6092 42.6563C16.7185 41.7813 16.7185 40.3282 17.6092 39.4219ZM49.6873 57.3125C49.0779 56.7032 48.0779 56.7032 47.4685 57.3125L46.0623 58.7032C44.7342 60.0313 42.3279 59.8594 39.9842 59.7032C37.4529 59.5313 34.8279 59.3438 33.1404 61.0782L27.3435 66.875L12.8435 52.4063L17.9685 47.2813C18.8123 47.7969 19.7967 48.0782 20.8123 48.0782C22.281 48.0782 23.6404 47.5157 24.6717 46.4844C25.7029 45.4532 26.2654 44.0938 26.2654 42.625C26.2654 42.6094 26.2654 42.5938 26.2654 42.5782C26.281 42.5782 26.2967 42.5782 26.3123 42.5782C27.7654 42.5782 29.1404 42.0157 30.1717 40.9844C31.2029 39.9532 31.7654 38.5938 31.7654 37.125C31.7654 37.1094 31.7654 37.0938 31.7654 37.0782C31.781 37.0782 31.7967 37.0782 31.8123 37.0782C33.2654 37.0782 34.6404 36.5157 35.6717 35.4844C36.7498 34.4063 37.281 33 37.2654 31.5938C37.281 31.5938 37.2967 31.5938 37.3123 31.5938C38.781 31.5938 40.1404 31.0313 41.1717 30C42.2029 28.9688 42.7654 27.6094 42.7654 26.1407C42.7654 25.125 42.4842 24.1407 41.9685 23.2969L46.4685 18.7969C46.7967 18.4688 47.2185 18.25 47.656 18.1719C47.7029 18.1719 47.7498 18.1563 47.7967 18.1563C48.4842 18.0625 49.2185 18.2813 49.7498 18.7969C50.656 19.7032 50.656 21.1719 49.7498 22.0625L48.3748 23.4219L48.3592 23.4375L46.781 25.0157C46.1717 25.625 46.1717 26.625 46.781 27.2344C47.3904 27.8438 48.3904 27.8438 48.9998 27.2344L50.3748 25.8594L50.5779 25.6563C51.4842 24.7657 52.9373 24.7657 53.8435 25.6719C54.281 26.1094 54.5154 26.6875 54.5154 27.2969C54.5154 27.9219 54.281 28.5 53.8435 28.9219L52.4685 30.2969L50.8904 31.875C50.281 32.4844 50.2654 33.4844 50.8904 34.0938C51.4998 34.7032 52.4998 34.7188 53.1092 34.0938L54.6873 32.5157C55.1248 32.0782 55.7029 31.8438 56.3279 31.8438C56.9529 31.8438 57.531 32.0782 57.9685 32.5157C58.406 32.9532 58.6404 33.5313 58.6404 34.1407C58.6404 34.75 58.406 35.3438 57.9685 35.7657L55.2185 38.5157C54.6092 39.125 54.6092 40.125 55.2185 40.7344C55.531 41.0469 55.9217 41.1875 56.3279 41.1875C56.7342 41.1875 57.1404 41.0313 57.4373 40.7188L58.781 39.375C58.781 39.375 58.7967 39.3594 58.8123 39.3594C59.2498 38.9219 59.8279 38.6875 60.4529 38.6875C61.0779 38.6875 61.656 38.9219 62.0935 39.3594C62.9998 40.25 62.9842 41.7188 62.0935 42.625L60.7185 43.9844L58.5467 46.1563C57.9373 46.7657 57.9373 47.7657 58.5467 48.375C58.8592 48.6875 59.2498 48.8438 59.656 48.8438C60.0623 48.8438 60.4685 48.6875 60.7654 48.3907L61.8279 47.3282L66.9217 52.4063L52.4217 66.875L47.2342 61.6875C47.5935 61.4532 47.9373 61.1875 48.2654 60.8594L49.6717 59.4688C50.2967 58.9219 50.2967 57.9219 49.6873 57.3125ZM76.1092 59.25L59.2342 76.1094C58.8435 76.5 58.3123 76.7188 57.7498 76.7188C57.1873 76.7188 56.656 76.5 56.2654 76.1094L53.4842 73.3282C53.0935 72.9375 52.8748 72.4063 52.8748 71.8438C52.8748 71.2813 53.0935 70.75 53.4842 70.3594L70.3435 53.5157C70.7342 53.125 71.2654 52.9063 71.8279 52.9063C72.3904 52.9063 72.9217 53.125 73.3123 53.5157L76.0935 56.2813C76.4842 56.6719 76.7029 57.2032 76.7029 57.7657C76.7185 58.3438 76.4998 58.8594 76.1092 59.25Z" fill="white"/>
<path d="M18.9688 8.84375C19.2813 9.15625 19.6719 9.29687 20.0781 9.29687C20.4844 9.29687 20.8906 9.14062 21.1875 8.82812C21.7969 8.21875 21.7969 7.21875 21.1875 6.60937L15.4531 0.890625C14.8438 0.28125 13.8438 0.28125 13.2344 0.890625C12.625 1.5 12.625 2.5 13.2344 3.10937L18.9688 8.84375Z" fill="white"/>
<path d="M59.6408 9.29688C60.0471 9.29688 60.4533 9.14062 60.7502 8.84375L66.4846 3.125C67.094 2.51562 67.094 1.51562 66.4846 0.90625C65.8752 0.296875 64.8752 0.296875 64.2658 0.90625L58.5315 6.625C57.9221 7.23438 57.9221 8.23437 58.5315 8.84375C58.844 9.14062 59.2346 9.29688 59.6408 9.29688Z" fill="white"/>
<path d="M9.8123 67.6874C9.20292 68.3124 9.21855 69.2968 9.82792 69.9062C10.1404 70.203 10.531 70.3593 10.9217 70.3593C11.3279 70.3593 11.7342 70.203 12.0467 69.8905C12.656 69.2655 12.6404 68.2655 12.031 67.6562C11.4217 67.0468 10.4217 67.0624 9.8123 67.6874Z" fill="white"/>
<path d="M53.5311 55.0468C53.7655 55.0468 54.0155 55 54.2343 54.875C55.0155 54.4843 55.328 53.5312 54.9374 52.7656C54.5468 51.9843 53.5936 51.6718 52.828 52.0625H52.8124C52.0311 52.4531 51.7343 53.3906 52.1249 54.1718C52.4061 54.7187 52.953 55.0468 53.5311 55.0468Z" fill="white"/>
</g>
<defs>
<clipPath id="clip0">
<rect width="80" height="80" fill="white"/>
</clipPath>
</defs>
</svg>
