<svg width="67" height="66" viewBox="0 0 67 66" fill="none" xmlns="http://www.w3.org/2000/svg">
<path d="M13.9523 21.0095C13.9777 15.8138 17.3755 11.4974 22.1679 10.6181C24.171 10.2451 25.3628 10.8579 26.1742 12.9095C27.1631 15.4141 27.9999 17.972 28.8874 20.5032C29.0395 20.9562 29.0902 21.4624 29.0902 21.942C29.1156 23.0877 28.6591 23.9936 27.6956 24.5532C27.0363 24.9528 26.3771 25.3259 25.6924 25.6722C25.1346 25.9653 24.8303 26.4183 24.881 27.0311C24.9317 27.6972 24.9824 28.4433 25.236 29.0294C27.9492 34.8113 32.0062 39.2343 37.4579 42.1918C37.8889 42.4316 38.4468 42.5115 38.9539 42.5648C39.74 42.6448 40.3739 42.3783 40.6782 41.499C40.9064 40.8862 41.2107 40.3267 41.5149 39.7405C42.2503 38.2751 43.3913 37.609 44.8874 38.1418C47.5498 39.101 50.1869 40.1402 52.7479 41.3658C54.7257 42.325 55.1061 44.0569 54.32 46.6414C52.3929 52.8229 47.3216 55.5673 41.1346 53.7022C37.61 52.6364 34.5419 50.6647 31.7019 48.2934C26.0728 43.604 21.1282 38.2218 17.3501 31.7738C15.6766 28.9229 14.4088 25.8587 14.0538 22.4749C14.003 21.9953 13.9777 21.5157 13.9523 21.0095ZM44.3802 52.9295C48.9698 52.9562 52.4183 49.9453 53.255 45.4957C53.5593 43.8438 53.3564 43.0977 51.9872 42.4849C49.6037 41.4191 47.1694 40.4333 44.7352 39.5007C43.6702 39.101 43.0617 39.4741 42.5545 40.5398C42.2249 41.2326 41.9967 42.0053 41.5403 42.5915C41.1346 43.1244 40.5007 43.7638 39.9175 43.8171C38.9286 43.9237 37.7875 43.8704 36.9254 43.4174C31.1694 40.3533 26.9095 35.7172 24.0696 29.6156C23.6893 28.8163 23.6132 27.8038 23.5878 26.8712C23.5371 25.7788 24.0696 24.9262 25.0585 24.4199C25.591 24.1535 26.1235 23.8604 26.656 23.5673C27.721 22.9811 27.9999 22.3417 27.6956 21.116C27.5435 20.5299 27.3406 19.9703 27.1378 19.4108C26.4278 17.3858 25.7431 15.3342 24.9571 13.3358C24.4246 11.977 23.6893 11.6572 22.3454 11.9237C18.1108 12.803 15.2455 16.4 15.2455 20.9295C15.2455 24.1535 16.3105 27.0577 17.7558 29.8554C19.6829 33.5856 22.2186 36.8629 24.9824 39.927C28.6845 44.0569 32.6148 47.8937 37.3818 50.6115C39.6893 51.9437 42.0981 52.8496 44.3802 52.9295Z" fill="black"/>
<path d="M33.7812 65C51.4543 65 65.7812 50.6731 65.7812 33C65.7812 15.3269 51.4543 1 33.7812 1C16.1081 1 1.78119 15.3269 1.78119 33C1.78119 50.6731 16.1081 65 33.7812 65Z" stroke="black" stroke-width="2" stroke-miterlimit="10"/>
</svg>
