<?xml version="1.0" encoding="utf-8"?>
<!-- Generator: Adobe Illustrator 17.1.0, SVG Export Plug-In . SVG Version: 6.00 Build 0)  -->
<!DOCTYPE svg PUBLIC "-//W3C//DTD SVG 1.1//EN" "http://www.w3.org/Graphics/SVG/1.1/DTD/svg11.dtd">
<svg version="1.1" id="Capa_1" xmlns="http://www.w3.org/2000/svg" xmlns:xlink="http://www.w3.org/1999/xlink" x="0px" y="0px"
	 viewBox="135 0 30 30" enable-background="new 135 0 30 30" xml:space="preserve">
<g>
	<g>
		<g>
			<path fill="#3DADC2" d="M144.2,17.6h17.7L165,6.4h-4.6l-1.7-5.1l-6.9,2.2l0.9,2.9h-0.3l-1.7-5.1l-6.9,2.2l0.9,2.9h-3.7l-0.8-3.1
				c-0.4-1.5-1.7-2.6-3.3-2.6H135V2h2.1c1,0,1.8,0.6,2,1.6l3.4,13.2c-0.7,0.5-1.2,1.3-1.2,2.3c0,1.5,1.3,2.8,2.8,2.8h17.2v-1.3
				h-17.2c-0.8,0-1.5-0.7-1.5-1.5C142.7,18.3,143.4,17.6,144.2,17.6L144.2,17.6z M157.9,2.9l1.2,3.4h-5l-0.7-2L157.9,2.9z
				 M149.9,2.9l1.2,3.4h-5l-0.7-2L149.9,2.9z M163.3,7.7l-2.4,8.7h-17.2l-2.2-8.7L163.3,7.7L163.3,7.7z"/>
			<path fill="#3DADC2" d="M155.8,23.9c-1.5,0-2.7,1.2-2.7,2.7c0,1.5,1.2,2.7,2.7,2.7c1.5,0,2.7-1.2,2.7-2.7
				C158.5,25.1,157.3,23.9,155.8,23.9z M155.8,28c-0.8,0-1.5-0.7-1.5-1.5c0-0.8,0.7-1.5,1.5-1.5c0.8,0,1.5,0.6,1.5,1.5
				C157.3,27.4,156.6,28,155.8,28z"/>
			<path fill="#3DADC2" d="M146,23.9c-1.5,0-2.7,1.2-2.7,2.7c0,1.5,1.2,2.7,2.7,2.7s2.7-1.2,2.7-2.7C148.7,25.1,147.4,23.9,146,23.9
				z M146,28c-0.8,0-1.5-0.7-1.5-1.5c0-0.8,0.7-1.5,1.5-1.5c0.8,0,1.5,0.6,1.5,1.5C147.4,27.4,146.7,28,146,28z"/>
		</g>
	</g>
</g>
</svg>
