<svg width="18" height="18" viewBox="0 0 18 18" fill="none" xmlns="http://www.w3.org/2000/svg">
<path d="M9.90597 16.3638H1.54382V1.64586H9.90597V7.03548C10.4733 7.03548 11.0167 7.03548 11.5169 7.03548V0H0V18H11.5169V14.0024C11.0147 14.0024 10.4726 14.0024 9.90597 14.0024V16.3638Z" fill="#D60016"/>
<path d="M17.8795 10.2189C17.4809 9.83672 13.6898 6.29301 13.6898 6.29301C13.6898 6.29301 13.1849 5.80252 13.1849 6.45138C13.1849 7.10344 13.1849 8.13892 13.1849 8.13892C13.1849 8.13892 12.8926 8.13892 12.4456 8.13892C11.0652 8.13892 6.30217 8.13892 5.27318 8.13892C5.27318 8.13892 5.0327 8.13058 5.0327 8.43193C5.0327 8.73328 5.0327 12.1526 5.0327 12.5738C5.0327 12.997 5.31968 12.9226 5.31968 12.9226C6.3779 12.9226 11.0525 12.9226 12.4808 12.9226C12.9803 12.9226 13.3052 12.9226 13.3052 12.9226C13.3052 12.9226 13.3052 14.2139 13.3052 14.7493C13.3052 15.2828 13.7861 14.7916 13.7861 14.7916L17.8456 10.7632C17.8456 10.7632 18.1691 10.4984 17.8795 10.2189Z" fill="#D60016"/>
</svg>
