<svg width="105" height="56" viewBox="0 0 105 56" fill="none" xmlns="http://www.w3.org/2000/svg">
<path fill-rule="evenodd" clip-rule="evenodd" d="M23.1747 40.9922C24.0132 41.1881 24.9033 41.3007 25.7492 41.1395C28.0701 40.6971 30.3294 39.9769 32.6072 39.3502C32.6761 39.3312 32.7449 39.3119 32.8149 39.2971C32.8265 39.4317 32.8407 39.5662 32.8497 39.701C32.8653 39.9337 32.8771 40.1668 32.8888 40.3997C32.8968 40.563 32.8862 40.6893 32.9533 40.8422C33.0104 40.9725 33.1056 41.0914 33.2156 41.1814C33.4129 41.3429 33.6809 41.4607 33.9268 41.5202C34.2256 41.5926 34.5296 41.6525 34.8363 41.6754C35.2003 41.7026 35.5675 41.6959 35.9317 41.6701C36.4116 41.6361 36.9092 41.5302 37.3614 41.3645C37.5988 41.2774 37.832 41.1454 38.0089 40.9625C38.1482 40.8183 38.2387 40.6253 38.229 40.4227L38.2099 40.042C39.6731 40.3059 40.2245 40.9041 41.3069 41.2265C40.2493 40.6854 39.526 40.1413 38.2087 39.9315C38.2039 39.7795 38.199 39.6276 38.1941 39.4755C38.5983 39.5415 38.9932 39.6915 39.3678 39.8596C40.1538 40.2125 40.7617 40.5151 41.4892 41.1153C41.8758 41.3027 42.1699 41.6783 42.5937 41.9044C43.1997 42.2278 43.9039 42.5907 44.1967 43.0467C44.9452 44.2118 43.9015 45.2813 42.7685 45.7816C41.9952 46.1231 41.2138 46.3269 40.4457 46.442C39.4662 46.7755 38.4958 46.9514 37.5344 46.9697C36.3891 47.307 35.254 47.5606 34.1167 47.6667C33.9453 47.6827 33.7735 47.6996 33.6021 47.7194C33.176 47.5447 32.7974 47.254 32.6009 46.8706C32.058 45.8107 32.3252 44.1528 32.3677 43.123C32.1971 44.3862 32.0076 45.764 32.4404 46.8893C32.5671 47.219 33.056 47.6204 33.3563 47.7707C33.2282 47.7924 32.7413 47.8503 32.6144 47.8783C32.0324 48.0063 31.4907 48.3222 30.8971 48.375C30.4295 48.4166 29.9662 48.2352 29.4992 48.1887C28.9374 47.5536 29.1108 47.4147 29.283 46.5625C28.9669 47.2926 28.8642 47.585 29.2843 48.1535C28.8319 48.2587 27.8126 48.5993 27.4323 48.628C27.6061 48.4319 27.5765 47.9775 27.5363 47.7441C27.4825 47.4322 27.3679 47.1418 27.127 46.9208C26.847 46.664 26.4219 46.5404 26.0526 46.5161C25.3881 46.4721 24.63 46.5462 23.9688 46.6082C23.3488 46.6664 22.7863 46.727 22.1931 46.928C21.7638 47.0733 21.4092 47.2717 21.0599 47.5573C20.8456 47.7324 20.6001 47.9187 20.5201 48.1929C20.4438 48.4549 20.4948 48.5991 20.5447 48.8177C18.837 48.515 16.7587 47.9125 15.0826 46.9748C11.6739 45.0679 9.56032 42.6359 8.89516 39.7243C8.69162 38.8329 8.62375 37.8966 8.69601 36.9168C8.80749 35.4044 9.25294 33.7882 10.0481 32.0726C10.9545 30.1172 12.5549 27.9505 14.0887 25.8754C15.51 23.9528 17.0262 22.5258 18.5519 21.067C20.5757 19.1321 26.4283 16.0084 26.9565 12.4779C28.1718 4.35345 6.27791 1.27959 0.0839615 0.206414C7.72512 -0.101236 36.1184 2.86785 29.582 15.9826C27.7018 19.7553 24.205 21.3006 21.6296 24.6418C20.4542 25.7056 19.1019 28.4237 18.4343 29.5888C18.2094 29.9815 18.2241 29.397 18.1043 29.5628C17.4101 30.5249 16.9617 31.8616 17.0171 33.0328C17.0352 33.4164 17.1835 33.9847 17.4761 34.5627C17.5577 34.7237 17.6565 34.6979 17.7745 34.8347C18.0486 35.1525 18.1017 35.6748 18.2753 36.0567C18.3593 36.2417 18.2803 36.6082 18.2642 36.8298C17.4586 36.6075 16.7128 36.4355 15.6646 36.8735C16.8549 36.6611 17.5566 36.7353 18.3186 37.0171L18.3243 37.0256C18.4897 37.2635 18.8647 37.3312 19.0245 37.5879C19.1024 37.7131 19.1122 37.8904 19.1429 38.0492C18.6496 37.9862 18.084 37.8768 17.4672 38.3275C17.7285 38.1813 19.0736 37.9747 19.4982 38.4506C19.7964 38.7849 19.58 38.897 19.2373 38.8517C18.367 38.7366 17.1998 38.6882 16.6365 39.5404C17.5113 38.8106 18.5038 38.9097 19.4783 39.075C18.6178 39.4106 18.1511 39.7238 17.8849 40.5779C18.4324 39.6991 18.9549 39.3157 19.807 39.3716C20.2257 39.3989 20.4379 39.7177 20.0136 39.8892C19.6167 40.0497 19.4031 40.2559 19.1902 40.6264C19.522 40.2685 20.0869 39.8215 20.6284 40.0947C20.692 40.1269 20.7748 40.0941 20.8412 40.1203C21.1527 40.2428 20.3749 40.4001 20.2489 40.8697C20.4841 40.6196 21.1119 40.2241 21.3738 40.4118C21.4069 40.4356 21.375 40.509 21.4108 40.5283C21.8928 40.7877 22.5852 40.8546 23.1747 40.9922ZM10.9756 27.4128C10.6345 27.2637 10.3007 27.0157 10.2761 26.8681C10.1879 26.3401 9.9126 25.9189 9.86038 25.4561C9.78491 24.7873 9.83266 23.984 10.3699 23.502C10.8132 23.1045 11.5062 23.073 12.0569 22.8455C12.6502 22.6003 12.6506 22.2467 12.028 22.3078C11.2627 22.383 10.485 22.6888 9.8918 23.1773C9.47988 23.5165 9.25701 24.1233 9.05482 24.6168C8.83301 25.1579 8.81827 25.7271 8.62109 26.2777C7.90313 25.4863 7.41121 24.6952 7.2946 23.4253C7.27564 23.2176 6.80059 23.0047 6.71192 23.1937C6.54144 23.5573 6.7086 23.9889 6.76297 24.3865C6.86671 25.1456 7.42296 26.1639 7.80362 26.9129C7.23826 26.9643 6.29466 26.4115 5.80107 26.2002C5.59021 26.1098 5.30408 26.4052 5.58183 26.6884C6.07757 27.1944 7.12395 27.5782 7.66878 27.8942C7.1587 27.9447 6.53903 27.9359 6.52699 28.1469C6.52284 28.2192 6.47875 28.3201 6.61894 28.3722C6.79913 28.4392 7.18192 28.4516 7.26676 28.4935C7.74002 28.2867 7.81609 28.2808 8.31686 28.1615C8.83469 28.0569 9.28017 28.0237 9.80618 27.9846C10.3549 27.9438 10.9846 27.8549 11.5302 27.7832L10.9756 27.4128ZM10.1777 31.5217C9.37144 31.7633 8.33057 31.9677 7.60463 31.8716C7.10949 31.8061 5.95029 31.483 5.81708 30.788C5.66219 29.9797 6.05628 29.1104 6.8797 28.8234C8.32685 28.0681 9.70728 28.2406 11.5311 27.9929C11.6787 27.9729 11.7419 27.7825 11.8387 27.6696C12.2208 27.224 12.5726 26.7524 12.9673 26.3179C13.0486 26.2284 13.1494 26.1514 13.2607 26.1042C13.3351 26.0728 13.7823 25.9463 13.8962 25.926C12.4967 27.8984 11.2511 29.369 10.1777 31.5217ZM23.0881 40.7864C22.7076 39.9254 22.3788 38.3985 22.7416 38.057C23.0258 37.7894 24.8478 38.119 25.1607 38.2283C25.9156 38.4919 26.548 39.0281 27.2773 39.3554C27.3649 39.3948 27.5002 39.3798 27.561 39.3056C28.0554 38.7035 28.4107 37.9972 28.894 37.3862C29.2389 36.9504 29.6714 37.1953 29.405 37.6958C29.2375 38.0104 27.7677 39.6503 29.1469 39.3139C29.7292 39.1719 30.2681 38.8821 30.8491 38.7351C31.3174 38.6165 31.8007 38.5559 32.2825 38.5201C32.7097 38.4884 32.6947 39.0385 32.3337 39.0673C31.4389 39.1895 30.5328 39.3552 29.7309 39.7926C29.7124 39.8027 29.6533 40.0035 29.6396 40.0159C28.5682 40.3174 27.1964 40.6587 26.1091 40.8937C26.0557 40.9053 26.5853 40.51 26.6785 39.9521C26.4941 40.3388 26.3932 40.4538 26.0435 40.6675C25.9765 40.4902 25.9059 40.2877 25.8388 40.1103C25.9331 39.9504 26.0045 39.7866 26.0479 39.5835C25.9564 39.7268 25.9376 39.8671 25.7693 39.9384C25.7267 39.8256 25.6236 39.7192 25.6065 39.5978C25.6092 39.4082 25.6079 39.2 25.5299 39.019C25.5362 39.1661 25.558 39.3756 25.4993 39.4921C25.3013 39.2189 25.0021 38.9094 24.6939 38.6966C25.26 39.2906 25.6168 40.1795 25.8469 40.9503C25.0185 41.1231 23.923 41.0145 23.0881 40.7864ZM17.945 24.431C15.2058 27.9571 12.0206 32.4108 12.6766 36.5247C13.1782 39.6706 15.9483 41.374 18.5284 42.1857C22.3588 43.3908 25.9715 42.7247 29.8089 41.3717C25.8555 42.4289 22.1936 43.0585 18.6511 41.7787C15.974 40.8116 13.4486 39.0311 13.0983 36.404C12.5511 32.3003 15.4507 28.3685 17.945 24.431ZM44.0261 44.1438C43.9794 44.2056 43.8436 44.1088 43.7948 44.1688C43.7302 44.2479 43.8404 44.412 43.7582 44.4727C43.694 44.5202 43.5792 44.4223 43.5547 44.3464C43.5057 44.1948 43.4508 43.9821 43.5629 43.8687C43.666 43.7645 43.8761 43.819 44.0021 43.8938C44.0742 43.9366 44.0765 44.0769 44.0261 44.1438ZM31.4949 35.0878L31.4999 35.0934L31.5048 35.0988L31.5179 35.1138L31.5196 35.1157L31.5245 35.1214L31.5294 35.127L31.5342 35.1326C31.5881 35.1943 31.6408 35.2572 31.6908 35.322C31.795 35.4575 31.8925 35.5985 31.9827 35.7437C32.0684 35.8818 32.1459 36.0251 32.2181 36.1708C32.2762 36.2883 32.3287 36.4084 32.3789 36.5295L32.3801 36.5322L32.3818 36.5364L32.4136 36.6135C32.466 36.7421 32.5138 36.8729 32.5578 37.0046C32.5835 37.0814 32.6071 37.1586 32.6296 37.2363L32.6314 37.2423C32.8267 37.8972 32.9533 38.6252 33.0208 39.4095L33.0216 39.4166L33.0222 39.4236L33.0228 39.4308L33.0238 39.4422L33.0242 39.4451L33.0247 39.4521L33.0315 39.5306C33.0355 39.5803 33.0389 39.6297 33.0419 39.6793L33.0421 39.6818L33.0427 39.6891L33.0431 39.6963L33.0441 39.7102L33.0445 39.7181C33.051 39.8172 33.0567 39.9173 33.0614 40.018L33.0616 40.0222L33.0618 40.0266L33.0638 40.0688L33.0841 40.5274L33.0843 40.5316L33.0847 40.5359L33.0871 40.5824L33.0874 40.5846C33.0947 40.6896 33.1304 40.7854 33.1906 40.8717C33.2558 40.9459 33.3236 41.0211 33.4043 41.0781C33.5012 41.1463 33.6091 41.1989 33.7186 41.2439C33.843 41.2949 33.9732 41.3323 34.1037 41.3654C34.2351 41.3987 34.3688 41.423 34.5028 41.4429C34.6318 41.4622 34.7618 41.4752 34.8919 41.4831C35.0642 41.4935 35.237 41.4981 35.4097 41.4977C35.5574 41.4973 35.7053 41.4911 35.8527 41.4809C35.9868 41.4717 36.1208 41.4579 36.254 41.4391C36.3888 41.4201 36.523 41.395 36.6564 41.3675C36.7651 41.345 36.8735 41.32 36.98 41.2889C37.0826 41.259 37.1834 41.2224 37.2833 41.1842C37.3571 41.156 37.4305 41.1259 37.5004 41.0893C37.574 41.0508 37.6457 41.0077 37.7132 40.9595C37.7671 40.9211 37.8191 40.8788 37.8637 40.83C37.9087 40.7807 37.947 40.7249 37.98 40.667C37.9842 40.6595 37.9879 40.6517 37.9915 40.644C37.9974 40.6302 38.003 40.6163 38.0077 40.6023L38.011 40.5922L38.0116 40.5901C38.0281 40.5366 38.0361 40.4811 38.0334 40.4232L38.0324 40.4049C38.0314 40.3903 38.0301 40.3758 38.0295 40.361L38.0243 40.2285L38.0241 40.2249L38.024 40.2213L38.0238 40.2176L38.0238 40.2163L38.0075 39.8592L38.0069 39.8459L38.0065 39.8379L38.0061 39.8303C38.0028 39.7629 38.0001 39.6957 37.9981 39.6282C37.9942 39.5083 37.9921 39.3878 37.9915 39.2678V39.2608L37.9914 39.2541V39.2468V39.2397V39.2327L37.9913 39.2255L37.9914 39.2185V39.2113L37.9916 39.1039L37.9917 39.0958V39.0878L37.9918 39.0798L37.9917 39.0719L37.9919 39.0639L37.9919 39.0559L37.9919 39.0545L37.992 39.0478C37.993 38.9199 37.9951 38.7913 38.0009 38.6634C38.0094 38.4719 38.022 38.2805 38.0396 38.0897C38.0534 37.9409 38.0736 37.7925 38.0953 37.6446L38.0959 37.6402L38.0997 37.6141C38.1209 37.4711 38.1433 37.3276 38.1728 37.1861C38.193 37.0893 38.2158 36.9928 38.2401 36.8968L38.242 36.8892L38.2424 36.8879C38.266 36.792 38.2915 36.697 38.3189 36.6027L38.3195 36.6008L38.3218 36.5925L38.3224 36.5904L38.3234 36.5869L38.3242 36.5846C38.3486 36.4999 38.375 36.4154 38.4034 36.3319C38.451 36.1916 38.5015 36.0519 38.5584 35.915C38.6134 35.7824 38.6746 35.6522 38.7389 35.5239C38.7959 35.4103 38.8573 35.2986 38.9224 35.1895C38.9593 35.1279 38.9978 35.0671 39.0371 35.007C39.0679 34.9591 39.0996 34.9114 39.1322 34.8642L39.1378 34.8561C39.1925 34.7751 39.2477 34.6945 39.3078 34.6176C39.3946 34.5065 39.4859 34.3988 39.5783 34.2924C39.618 34.2467 39.6622 34.2049 39.7044 34.1614L39.7057 34.1601L39.7065 34.1593L39.7073 34.1585L39.7106 34.1551C39.6972 34.1401 39.6845 34.1243 39.6727 34.1081C38.5333 34.9382 37.9897 36.1216 37.5486 37.3959L37.3921 37.8482C37.3163 38.0673 37.0868 38.089 37.0042 37.8631C36.6419 36.8726 36.3881 35.8961 36.1001 34.9041C36.0466 34.9208 35.9901 34.9311 35.9315 34.934C35.8142 34.9399 35.7022 34.9156 35.6033 34.8681C35.1476 35.6231 34.8279 36.573 34.5805 37.6084L34.4869 38.0006C34.4094 38.325 34.046 38.3525 33.9201 38.0439L33.7494 37.625C33.1751 36.2157 32.3956 35.1672 31.3607 34.6795C31.3292 34.7338 31.2899 34.7832 31.2441 34.826C31.291 34.8696 31.3373 34.9138 31.3803 34.961C31.4187 35.0031 31.4569 35.0452 31.4949 35.0878ZM31.5246 34.3049C31.6223 34.4387 31.7176 34.574 31.8096 34.7114C32.816 35.3447 33.4789 36.4617 33.9241 37.5541L34.0948 37.973C34.1514 38.112 34.2685 38.1028 34.3032 37.957L34.3969 37.5648C34.6167 36.6447 34.9272 35.6284 35.4318 34.7872L35.4066 34.7257C35.2975 34.6122 35.2273 34.4604 35.2189 34.2909L35.2185 34.2839C35.173 34.1813 35.1268 34.0796 35.0796 33.9788C35.025 34.0022 34.9655 34.0165 34.9026 34.0197C34.8607 34.0218 34.8196 34.0187 34.78 34.0112C34.6413 35.0307 34.5608 36.026 34.3614 37.0474L34.301 37.3566C34.2682 37.5247 34.0506 37.5475 33.9874 37.372L33.877 37.0655C33.3664 35.6485 32.5127 34.703 31.6519 34.1597C31.6181 34.2151 31.575 34.2642 31.5246 34.3049ZM38.1359 35.5516C38.2023 35.0052 38.3389 34.4267 38.5964 33.8832C38.5332 33.8505 38.4773 33.805 38.4326 33.7501C37.5895 34.4542 37.1106 35.5508 36.7827 36.6659C36.8845 36.9828 36.9977 37.308 37.097 37.6313C37.1539 37.8163 37.2135 37.869 37.2907 37.611C37.5083 36.8841 37.8472 36.2186 38.1359 35.5516ZM30.7882 33.9187C31.0342 33.9063 31.2438 34.0954 31.2561 34.341C31.2684 34.5866 31.079 34.7958 30.833 34.8082C30.587 34.8205 30.3774 34.6313 30.365 34.3857C30.3527 34.1402 30.5422 33.931 30.7882 33.9187ZM35.8727 33.7676C36.1433 33.754 36.3737 33.962 36.3874 34.2322C36.401 34.5024 36.1926 34.7324 35.922 34.746C35.6513 34.7596 35.4208 34.5515 35.4072 34.2814C35.3935 34.0113 35.6021 33.7812 35.8727 33.7676ZM40.1528 33.3151C40.3907 33.3032 40.5932 33.4861 40.6051 33.7234C40.6171 33.9608 40.4339 34.163 40.196 34.1749C39.9583 34.1868 39.7558 34.004 39.7438 33.7666C39.7318 33.5293 39.915 33.327 40.1528 33.3151ZM38.8169 33.0998C38.9973 33.0907 39.1509 33.2294 39.16 33.4095C39.1691 33.5895 39.0301 33.7429 38.8497 33.752C38.6692 33.7611 38.5156 33.6223 38.5065 33.4423C38.4975 33.2621 38.6364 33.1088 38.8169 33.0998ZM31.1542 33.499C31.3592 33.4888 31.5338 33.6463 31.5441 33.851C31.5502 33.9724 31.4972 34.0831 31.4104 34.1552C31.3254 33.911 31.0958 33.7373 30.8284 33.7301C30.8812 33.6007 31.0051 33.5066 31.1542 33.499ZM34.8604 33.1794C35.0407 33.1703 35.1944 33.3091 35.2035 33.4892C35.2126 33.6692 35.0735 33.8226 34.8932 33.8316C34.7127 33.8407 34.5591 33.702 34.5501 33.5219C34.541 33.3418 34.6799 33.1885 34.8604 33.1794ZM35.4875 43.1412C35.8436 43.1471 36.4308 43.0819 36.9759 42.7995C37.2767 42.6438 37.604 42.8318 37.9409 42.8608C39.3253 42.9799 39.9692 42.4335 40.0191 42.401C39.8788 42.745 38.6821 43.1318 37.9812 43.0866C37.6779 43.0671 37.3236 42.9498 37.0321 43.0363C36.5125 43.1678 35.8268 43.2323 35.4875 43.1412ZM37.5793 43.2076C37.4434 43.3985 37.4001 43.5442 37.3308 43.777C37.2789 43.5496 37.2319 43.4398 37.2637 43.2795C37.3572 43.2314 37.4652 43.2132 37.5793 43.2076ZM38.5083 43.4646C38.4357 43.3995 38.304 43.2492 38.2352 43.1867C38.1836 43.1928 38.1319 43.1977 38.0798 43.1964C38.1541 43.3029 38.1977 43.4321 38.1977 43.5717C38.1977 43.9343 37.9032 44.2282 37.54 44.2282C37.1767 44.2282 36.8821 43.9343 36.8821 43.5717C36.8821 43.4064 36.9435 43.2554 37.0445 43.14C36.9946 43.1436 36.9532 43.138 36.9033 43.1472C36.7448 43.361 35.9673 43.5446 35.8494 43.581C35.8731 43.6014 35.9859 43.6679 36.0253 43.6713C36.4734 43.7096 36.5368 43.9905 36.9792 44.198C37.1986 44.3009 37.4595 44.4616 37.785 44.36C38.0807 44.2676 38.3153 44.041 38.5315 43.8427C38.6657 43.7197 38.6023 43.5487 38.5083 43.4646ZM33.4972 43.8448C33.4512 43.7426 33.4424 43.6108 33.3558 43.5393C33.0441 43.2813 33.095 43.8134 33.0593 43.9324C32.9938 44.1516 32.8441 44.3448 32.8043 44.5701C32.7495 44.8817 33.0232 45.8173 33.4716 45.5811C33.6121 45.5071 33.7327 45.3777 33.7958 45.2323C34.0208 44.7135 33.7029 44.302 33.4972 43.8448ZM25.8991 50.9491C26.3598 50.9972 26.5824 51.0953 27.043 51.1435C27.1872 50.9526 27.4918 50.6588 27.6364 50.5625C27.8596 50.4142 28.4 50.3235 28.5637 50.372C28.7684 50.4329 28.4599 50.5377 28.1767 50.8736C27.9192 51.1791 27.7967 51.3817 27.901 51.4342C28.5296 51.2706 29.3032 50.9145 29.6911 50.803C30.4407 50.5874 31.1269 50.5682 31.6038 50.6163C31.8924 50.6452 31.9325 50.9434 31.7442 51.0123C31.5485 51.0841 30.9413 51.1204 30.2424 51.2935C29.9436 51.3674 29.2983 51.5928 29.0481 51.7799C29.889 51.7983 30.2322 51.9034 31.0307 51.9415C31.8996 51.983 32.8618 52.1508 33.6461 52.4151C33.898 52.4996 33.8809 53.0101 33.5536 52.9409C32.8626 52.7949 32.049 52.7473 31.1622 52.741C30.3023 52.7347 29.748 52.7167 29.0103 52.6913C28.9414 52.6888 28.9321 52.8747 28.999 52.8883C29.6943 53.0303 29.7459 53.0309 30.6082 53.2056C31.4682 53.38 32.0689 53.5761 32.7957 53.9515C33.08 54.0983 32.9313 54.5813 32.6455 54.4789C31.8178 54.1828 31.3486 54.0228 30.4391 53.8938C29.4771 53.7576 28.8434 53.7325 27.9717 53.7258C27.8475 53.7248 27.6788 53.7975 27.738 53.8926C28.1196 54.5065 28.5962 54.761 29.1224 55.2663C29.4352 55.616 29.0747 55.9803 28.773 55.7738C27.8336 55.1308 27.1 54.2914 26.2635 53.5503C25.6565 53.3462 25.1245 53.0396 24.538 52.8058L24.537 52.8054C23.8048 52.3594 23.0985 51.8799 22.4178 51.3681C21.411 50.299 20.8187 49.5032 20.6444 48.517C20.6172 48.3917 20.7023 48.1366 20.758 48.0793C21.533 47.2248 22.4671 46.8511 24.1555 46.7675C25.6495 46.6936 27.3513 46.2733 27.3736 48.1312C27.3251 49.5048 25.6698 49.6604 25.0825 49.5963L24.8424 49.7113C25.3162 50.2279 25.4497 50.401 25.8991 50.9491ZM19.8586 32.3472C20.0657 32.7384 20.4083 32.7734 20.793 32.9937C21.0335 32.8422 21.2961 32.4792 21.4966 32.4939C21.9935 32.5303 22.4493 32.3671 22.9528 32.1932C23.6285 31.9598 24.1044 31.4046 24.7541 31.1063C25.2005 30.9014 25.9039 30.6679 26.3939 30.6306C26.6002 30.6147 26.6145 31.0499 26.4259 31.1072C25.9685 31.2461 25.2352 31.4815 24.8631 31.7813C24.6985 31.914 24.4861 32.0165 24.3447 32.1736C24.8049 32.233 25.2651 32.2923 25.7253 32.3517C26.4246 32.2822 27.3186 31.9853 28.0294 31.9885C28.9117 31.9926 29.9095 32.0899 30.6993 32.1896C31.2094 32.254 30.8544 32.6428 30.6131 32.6781C29.9821 32.7706 28.4111 32.5899 27.8145 32.7441C27.0565 32.9401 26.442 33.1565 25.9165 33.3535C26.5946 33.6566 27.5258 33.7649 28.2087 34.0565C29.045 34.4136 29.7192 34.7905 30.5287 35.2046C30.821 35.354 30.648 35.8205 30.2286 35.684C29.4187 35.4205 28.7138 34.9454 27.9272 34.6838C27.1376 34.4211 26.437 34.3757 25.6175 34.2296C26.3775 34.7461 27.6655 35.57 28.2138 36.2975C28.3406 36.4658 28.0847 36.6522 27.9184 36.5673C26.9155 36.0547 25.8287 35.2936 24.8731 34.6828C24.888 34.773 26.9241 37.3326 25.4927 36.404C24.6729 35.8722 24.0642 35.1117 23.4221 34.4015C22.9412 34.7046 22.8041 35.5272 22.2524 35.6652C21.6753 35.8096 21.0574 35.6591 20.47 35.5633C19.8046 35.4547 19.0971 35.3897 18.5124 35.0546C18.0444 34.7865 17.5728 34.6489 17.382 34.0847C16.869 32.5674 17.2561 31.2516 18.0189 29.8733C18.3562 29.3825 19.5819 31.8242 19.8586 32.3472Z" fill="white"/>
<path fill-rule="evenodd" clip-rule="evenodd" d="M47.9058 10.1315H48.1525C48.462 10.1315 48.6814 10.151 48.8087 10.1901C48.936 10.2292 49.1632 10.2489 49.4922 10.2489C49.7802 10.2489 50.0545 10.2292 50.317 10.1901C50.5813 10.151 50.787 10.1315 50.9358 10.1315H51.1259V10.5771H50.9847C50.838 10.5771 50.742 10.618 50.697 10.6984C50.6539 10.7803 50.6323 10.8918 50.6323 11.0346C50.6323 11.3024 50.981 12.0138 51.6783 13.171C51.8584 12.8817 52.0759 12.5003 52.3323 12.0275C52.5869 11.5544 52.73 11.232 52.7574 11.058V10.837C52.73 10.6632 52.6243 10.5771 52.442 10.5771H52.2521V10.1315H52.4304C52.685 10.1315 52.8731 10.151 52.9946 10.1901C53.1158 10.2292 53.2571 10.2489 53.4175 10.2489C53.5919 10.2489 53.7741 10.2292 53.968 10.1901C54.1599 10.151 54.3283 10.1315 54.4732 10.1315H54.7572V10.5771H54.5458C54.3382 10.5771 54.1539 10.6259 53.9914 10.7236C53.8288 10.8215 53.6839 10.9485 53.5548 11.1068C53.4272 11.2651 53.2805 11.4878 53.1119 11.7752C52.9454 12.0627 52.8515 12.2231 52.8299 12.2543C52.544 12.7232 52.2892 13.1789 52.0659 13.6263C52.2148 13.8746 52.3363 14.076 52.4283 14.2285C52.5225 14.3826 52.6203 14.5449 52.7242 14.717C53.2784 15.6532 53.6781 16.3098 53.9248 16.6891C54.1697 17.0666 54.3675 17.3223 54.5145 17.4533C54.6633 17.5843 54.8219 17.6489 54.9923 17.6489H55.1451V18.0947H54.7572C54.4458 18.0947 54.1833 18.0713 53.968 18.0243C53.7544 17.9773 53.6134 17.9539 53.5469 17.9539C53.4333 17.9539 53.2294 17.9813 52.9357 18.038C52.7221 18.0752 52.4617 18.0947 52.158 18.0947H51.7585V17.6489H51.972C52.1935 17.6489 52.3481 17.6079 52.4381 17.5237C52.5264 17.4397 52.5714 17.3439 52.5714 17.2404C52.5714 17.1094 52.4812 16.8653 52.2992 16.5074C52.117 16.1499 51.7606 15.5222 51.2317 14.6252C50.9789 15.0494 50.7438 15.4792 50.5245 15.9134C50.217 16.5093 50.0487 16.8886 50.0211 17.0509V17.3575C50.0642 17.5512 50.2404 17.6489 50.5481 17.6489H50.7028V18.0947H50.3972C50.3501 18.0947 50.2288 18.0752 50.0329 18.038C49.8194 17.9813 49.6353 17.9539 49.4806 17.9539C49.3317 17.9539 49.1163 17.9773 48.8323 18.0222C48.5638 18.0713 48.3505 18.0947 48.1877 18.0947H47.9058V17.6489H48.1409C48.4131 17.6489 48.7382 17.4202 49.1164 16.9608C49.4961 16.5035 50.0721 15.5692 50.8438 14.156C50.6441 13.773 50.3404 13.2453 49.9369 12.5728C49.792 12.3168 49.6529 12.0724 49.5198 11.8398C49.3865 11.6072 49.2534 11.3998 49.12 11.2184C48.9851 11.0365 48.8302 10.884 48.654 10.7608C48.4757 10.6377 48.2858 10.5771 48.0801 10.5771H47.9058V10.1315ZM55.7209 13.9431C55.7209 13.337 55.8326 12.7896 56.0559 12.2973C56.2771 11.8065 56.5848 11.3862 56.9764 11.0423C57.3683 10.6963 57.8167 10.4324 58.3222 10.2507C58.8274 10.0691 59.3603 9.97905 59.9165 9.97905C60.4512 9.97905 60.9567 10.0806 61.4325 10.2859C61.9085 10.491 62.3238 10.7842 62.6801 11.1617C63.0368 11.5408 63.3168 11.9923 63.5165 12.52C63.7182 13.0498 63.8181 13.6205 63.8181 14.2343C63.8181 15.0806 63.6262 15.8097 63.2424 16.4214C62.8566 17.0333 62.3629 17.4945 61.7557 17.8054C61.1505 18.1162 60.5296 18.2705 59.8931 18.2705C59.3603 18.2705 58.8432 18.1708 58.3456 17.9734C57.8462 17.776 57.3975 17.4885 57.0001 17.1094C56.6024 16.7303 56.291 16.2709 56.0617 15.7314C55.8345 15.1919 55.7209 14.5958 55.7209 13.9431V13.9431ZM57.378 14.025C57.378 14.7698 57.5053 15.4285 57.762 15.9992C58.0166 16.5699 58.3475 17.0099 58.7551 17.3166C59.1625 17.6234 59.5815 17.778 60.0125 17.778C60.367 17.778 60.7097 17.6586 61.0369 17.4221C61.3659 17.1837 61.6342 16.7947 61.8459 16.2573C62.0555 15.7178 62.1612 15.0336 62.1612 14.2012C62.1612 13.5089 62.0476 12.8778 61.8183 12.3071C61.5892 11.7361 61.2818 11.2887 60.8959 10.9622C60.5099 10.6356 60.0927 10.4715 59.6482 10.4715C59.2858 10.4715 58.9332 10.5889 58.5865 10.8215C58.2399 11.0541 57.9519 11.4371 57.7228 11.9726C57.4935 12.5063 57.378 13.1926 57.378 14.025V14.025ZM64.4998 15.8664H64.8878C65.0366 16.6012 65.2912 17.1076 65.6497 17.3851C66.01 17.6626 66.39 17.8014 66.7935 17.8014C67.058 17.8014 67.3184 17.735 67.573 17.604C67.8278 17.473 68.0372 17.2601 68.2018 16.9648C68.3665 16.6715 68.4485 16.2982 68.4485 15.8428C68.4485 15.0591 68.241 14.5469 67.8278 14.3044C67.4144 14.0641 66.9991 13.9431 66.5799 13.9431C66.3235 13.9431 66.1157 13.9586 65.9571 13.988V13.3448C66.0786 13.3682 66.2785 13.38 66.5565 13.38C66.7837 13.38 67.0128 13.3212 67.25 13.2023C67.487 13.0849 67.6827 12.9109 67.8394 12.6822C67.9943 12.4554 68.0725 12.1879 68.0725 11.8789C68.0725 11.4429 67.9628 11.0913 67.7416 10.8233C67.5222 10.5574 67.2087 10.4246 66.8032 10.4246C66.5155 10.4246 66.2785 10.4831 66.0923 10.6025C65.9064 10.7199 65.7554 10.8918 65.6399 11.1147C65.5242 11.3374 65.4185 11.6248 65.3225 11.9747H64.8878C64.8897 11.8771 64.9033 11.6248 64.9249 11.2202C64.9485 10.8157 64.9582 10.5438 64.9582 10.403V10.0846C65.1208 10.1158 65.2931 10.1315 65.4753 10.1315C65.6105 10.1315 65.8848 10.1082 66.298 10.0612C66.7112 10.0142 67.1149 9.99085 67.5086 9.99085C67.9962 9.99085 68.3957 10.0728 68.7071 10.2352C69.0166 10.3972 69.242 10.6141 69.3809 10.884C69.52 11.1557 69.5886 11.4547 69.5886 11.7831C69.5886 12.3635 69.3751 12.7917 68.9461 13.0634C68.519 13.3349 68.0511 13.5071 67.5438 13.5793V13.7084H67.7455C68.0177 13.7084 68.3331 13.7767 68.6915 13.9098C69.05 14.0447 69.3614 14.2636 69.6257 14.5624C69.8903 14.8635 70.0234 15.2486 70.0234 15.7157C70.0234 16.1538 69.9058 16.5681 69.6728 16.9571C69.4398 17.3478 69.091 17.6646 68.6268 17.907C68.1626 18.1495 67.6104 18.2705 66.9679 18.2705C65.9592 18.2705 65.2931 18.0986 64.9719 17.7544C64.6487 17.4103 64.4883 17.0391 64.4883 16.6403C64.4883 16.5563 64.4902 16.4623 64.494 16.3628C64.498 16.2612 64.4998 16.1811 64.4998 16.1244V15.8664ZM77.874 18.0947H77.4626C77.3509 18.0947 77.1902 18.0674 76.9808 18.0125C76.7457 17.9734 76.5066 17.9539 76.2639 17.9539C76.0209 17.9539 75.7821 17.9734 75.5451 18.0125C75.3373 18.0674 75.1767 18.0947 75.063 18.0947H74.6304V17.6489H74.8771C75.1317 17.6489 75.3002 17.5082 75.3805 17.2289C75.4607 16.9472 75.4999 16.5836 75.4999 16.1362V15.7509V10.6005H75.0867C73.8193 10.6005 73.1847 11.1517 73.1847 12.2543C73.1847 12.6704 73.2846 13.0185 73.4863 13.2921C73.6862 13.5677 73.9389 13.7691 74.2425 13.898C74.5441 14.0271 74.8613 14.0954 75.1924 14.1054V14.4354C75.0123 14.4745 74.8516 14.5469 74.7164 14.6525C74.5812 14.758 74.4463 14.9066 74.3129 15.0982C74.1778 15.2917 74.0055 15.5711 73.7959 15.9349C73.5921 16.2809 73.4198 16.5642 73.2749 16.7831C73.13 17.0039 72.9595 17.2228 72.7636 17.4397C72.5658 17.6568 72.3483 17.8308 72.1114 17.9637C71.8744 18.0986 71.6177 18.165 71.3397 18.165C71.1359 18.165 70.8539 18.1416 70.4934 18.0947V17.6489C70.5857 17.6802 70.6875 17.6959 70.7971 17.6959C71.0751 17.6959 71.2984 17.6001 71.467 17.4103C71.6353 17.221 71.7921 16.9784 71.9391 16.6852C72.221 16.0911 72.5169 15.5965 72.8283 15.2019C73.1416 14.8068 73.596 14.5509 74.1954 14.4354V14.2715C73.4726 14.2303 72.9106 14.0954 72.5069 13.8649C72.1016 13.636 71.8273 13.3722 71.6845 13.0731C71.5414 12.772 71.4689 12.4652 71.4689 12.1488C71.4689 11.8065 71.5532 11.4762 71.7197 11.1596C71.8881 10.8409 72.176 10.5771 72.5834 10.366C72.9927 10.1549 73.5334 10.0494 74.2072 10.0494C74.548 10.0494 74.789 10.0591 74.9241 10.0767C75.0593 10.0943 75.2747 10.1276 75.5704 10.1764C75.8662 10.2253 76.1208 10.2489 76.3362 10.2489C76.7223 10.2489 76.9593 10.2429 77.0492 10.2292C77.1394 10.2176 77.2275 10.198 77.3138 10.1707C77.3998 10.1452 77.531 10.1315 77.7093 10.1315H77.8974V10.575H77.676C77.394 10.575 77.2118 10.7335 77.1297 11.0501C77.0453 11.3647 77.0042 11.7597 77.0042 12.2309V15.7275C77.0042 16.3373 77.0413 16.8104 77.1139 17.1467C77.1883 17.4807 77.3588 17.6489 77.627 17.6489H77.874V18.0947ZM78.718 10.1315H79.0941C79.1509 10.1315 79.3468 10.151 79.6819 10.1901C79.9796 10.2292 80.191 10.2489 80.3162 10.2489C80.4398 10.2489 80.6513 10.2292 80.9509 10.1901C81.2859 10.151 81.4818 10.1315 81.5386 10.1315H81.9263V10.5771H81.6796C81.4229 10.5771 81.2565 10.6905 81.182 10.9173C81.1057 11.1459 81.0684 11.4702 81.0684 11.8907V12.3149V15.0239C81.0684 15.3678 81.0216 15.8566 80.9274 16.4899H81.0332C81.2801 16.1068 81.8206 15.4694 82.6551 14.5763C83.0212 14.1796 83.4267 13.72 83.8715 13.2002C84.318 12.6802 84.7549 12.1527 85.1838 11.6151C85.6128 11.0774 86.0044 10.5634 86.3571 10.0728C86.543 10.0376 86.7429 10.0142 86.9583 10.0024C86.9094 10.5868 86.8857 11.1147 86.8857 11.5857V15.8897C86.8857 16.2748 86.8976 16.5857 86.921 16.8261C86.9426 17.0685 86.9994 17.264 87.0896 17.4182C87.1797 17.5728 87.3147 17.6489 87.4969 17.6489H87.7436V18.0947H87.3441C87.2326 18.0947 87.0719 18.0674 86.8623 18.0125C86.6272 17.9734 86.3844 17.9539 86.1338 17.9539C85.9005 17.9539 85.6657 17.9734 85.4305 18.0125C85.217 18.0674 85.0563 18.0947 84.9487 18.0947H84.5119V17.6489H84.7586C84.9506 17.6489 85.0916 17.561 85.1817 17.3851C85.2738 17.2092 85.3287 17.002 85.3503 16.7634C85.3716 16.523 85.3816 16.2242 85.3816 15.8682V13.1592C85.3816 12.8854 85.4247 12.5786 85.5108 12.2425H85.4424C85.3169 12.4964 84.9408 12.9794 84.3141 13.6869C83.6874 14.3963 83.0291 15.114 82.3416 15.8409C81.6541 16.5681 81.182 17.0627 80.9274 17.3223C80.6003 17.6626 80.377 17.9206 80.2557 18.0947L79.4583 18.2958C79.529 17.137 79.5643 16.523 79.5643 16.4547V12.2895V11.7849C79.5643 11.4019 79.5251 11.105 79.4467 10.8937C79.3684 10.6826 79.2077 10.5771 78.9649 10.5771H78.718V10.1315ZM82.7608 7.97362V8.60475C82.7608 8.7788 82.8352 8.91765 82.9822 9.0174C83.129 9.11902 83.2915 9.16992 83.468 9.16992C83.6913 9.16992 83.9341 9.08777 84.1926 8.9216C84.4532 8.75543 84.692 8.43858 84.9114 7.97362C85.0505 8.09859 85.2033 8.21987 85.3698 8.33721C85.0329 8.77487 84.6941 9.10142 84.3551 9.31249C84.0143 9.52543 83.7108 9.6564 83.4483 9.70525C83.184 9.75431 82.9078 9.77955 82.6217 9.77955C82.0909 9.77955 81.7267 9.459 81.5268 8.8179C81.9439 8.60683 82.3122 8.32541 82.6314 7.97362H82.7608ZM88.6584 10.1315H89.0463C89.1168 10.1315 89.3088 10.151 89.6202 10.1901C89.92 10.2292 90.1372 10.2489 90.2685 10.2489C90.392 10.2489 90.6035 10.2292 90.9031 10.1901C91.2145 10.151 91.4065 10.1315 91.479 10.1315H91.8785V10.5771H91.6318C91.4417 10.5771 91.3028 10.6474 91.2126 10.7863C91.1224 10.9252 91.0677 11.099 91.0501 11.3063C91.0304 11.5132 91.0206 11.7968 91.0206 12.1603V16.1948C91.0206 17.1643 91.2284 17.6489 91.6434 17.6489H91.8785V18.0947H91.4535C91.3439 18.0947 91.1832 18.0674 90.9757 18.0125C90.7347 17.9734 90.4957 17.9539 90.2569 17.9539C90.0139 17.9539 89.775 17.9734 89.5399 18.0125C89.3303 18.0674 89.1696 18.0947 89.0581 18.0947H88.6331V17.6489H88.868C89.3009 17.6489 89.5165 17.1643 89.5165 16.1948V12.1603C89.5165 11.7968 89.5065 11.5132 89.4871 11.3063C89.4695 11.099 89.4145 10.9252 89.3245 10.7863C89.2343 10.6474 89.0952 10.5771 88.9053 10.5771H88.6584V10.1315ZM93.43 10.5771V10.1315H93.6767C93.7374 10.1315 93.8216 10.1355 93.9294 10.1452C94.0391 10.1549 94.1193 10.1628 94.1703 10.1667C94.2174 10.1725 94.321 10.1882 94.4857 10.2137C94.6501 10.2371 94.7834 10.2489 94.8852 10.2489C95.0222 10.2489 95.1143 10.245 95.1595 10.2371C95.2045 10.2313 95.2671 10.2156 95.3454 10.194C95.4259 10.1707 95.5061 10.1549 95.5884 10.1452C95.6707 10.1355 95.8057 10.1315 95.9919 10.1315H96.2504V10.5771H96.0839C95.9351 10.5771 95.7902 10.6005 95.6471 10.6474C95.5043 10.6944 95.3102 10.8018 95.0653 10.9701C94.8205 11.1402 94.5033 11.398 94.1114 11.7479C93.7177 12.0978 93.2007 12.5864 92.5581 13.2178C92.3467 13.4289 92.1978 13.5696 92.1137 13.6399C92.4506 13.7573 92.7541 13.9371 93.0263 14.1815C93.2987 14.4257 93.5612 14.7268 93.8158 15.0846C94.0704 15.4401 94.4386 15.9913 94.9225 16.7361C95.134 17.0627 95.2965 17.2932 95.4101 17.4318C95.5237 17.5688 95.6589 17.6371 95.8157 17.6371C95.9801 17.6371 96.2033 17.5785 96.4855 17.4631V17.9206C96.3622 17.95 96.2407 17.9891 96.121 18.038C95.8704 18.1241 95.6158 18.1671 95.3554 18.1671C95.0438 18.1671 94.7755 18.1004 94.5504 17.9694C94.3231 17.8366 94.1272 17.6684 93.9586 17.4651C93.7903 17.2601 93.5436 16.9356 93.2183 16.4878C92.5113 15.5125 91.853 14.6759 91.2439 13.9783C91.4614 13.7573 91.6886 13.5187 91.9296 13.2608C92.1705 13.0049 92.3467 12.819 92.4584 12.7038C92.57 12.5904 92.7052 12.4594 92.8658 12.3149C93.1967 12.0178 93.4476 11.7752 93.6199 11.5896C93.7922 11.4038 93.9058 11.1948 93.9586 10.9661C93.9586 10.706 93.8687 10.5771 93.6885 10.5771H93.43ZM96.7675 18.0947V17.6489H97.0144C97.2219 17.6489 97.4179 17.5413 97.5959 17.3284C97.7763 17.1154 97.9604 16.791 98.1464 16.3549C98.3326 15.9191 98.5774 15.2683 98.8828 14.4023C99.0493 13.9177 99.1571 13.6029 99.2002 13.462C99.2373 13.3624 99.2765 13.2453 99.3217 13.1104C99.3649 12.9755 99.4217 12.8074 99.494 12.6059C99.9072 11.4429 100.17 10.5986 100.281 10.0728C100.622 10.0063 100.924 9.91655 101.186 9.80315C101.284 10.1707 101.404 10.5713 101.545 11.0013C101.686 11.4311 101.966 12.2367 102.385 13.4171C102.458 13.6244 102.559 13.9098 102.689 14.2734C102.93 14.9515 103.098 15.4185 103.194 15.6708C103.29 15.9249 103.378 16.1439 103.46 16.3295C103.543 16.5172 103.615 16.6833 103.676 16.8298C103.827 17.1876 103.976 17.4124 104.123 17.5061C104.269 17.6019 104.469 17.6489 104.724 17.6489H104.841V18.0947H104.549C104.491 18.0947 104.43 18.0907 104.363 18.0828C104.297 18.0752 104.236 18.0674 104.179 18.0595C104.12 18.0498 104.072 18.0437 104.028 18.038C103.776 17.997 103.521 17.9773 103.266 17.9773C102.937 17.9773 102.671 17.9931 102.469 18.0222C102.16 18.0713 101.972 18.0947 101.903 18.0947H101.398V17.6489H101.668C101.811 17.6489 101.925 17.6059 102.005 17.5179C102.087 17.4318 102.127 17.3184 102.127 17.1819C102.127 17.1018 102.115 17.0275 102.093 16.959L101.563 15.3366C101.09 15.3697 100.669 15.3854 100.293 15.3854C100.221 15.3834 100.152 15.3815 100.086 15.3794C100.019 15.3775 99.9445 15.3757 99.8604 15.3697C99.7762 15.3658 99.6802 15.36 99.5724 15.3542C99.4646 15.3482 99.3412 15.3424 99.2002 15.3366L98.7302 16.7694C98.6832 16.9004 98.6616 17.0314 98.6616 17.1682C98.6616 17.4885 98.8476 17.6489 99.2237 17.6489H99.494V18.0947H99.2844C99.1963 18.0947 99.065 18.0789 98.8928 18.0498C98.644 18.0086 98.4049 17.9891 98.1798 17.9891C97.9623 17.9891 97.8271 17.9931 97.7724 18.0009C97.7195 18.0106 97.6861 18.0243 97.6764 18.0419C97.6667 18.0595 97.6351 18.0731 97.5783 18.081C97.5215 18.0907 97.3805 18.0947 97.1554 18.0947H96.7675ZM100.411 11.7734L100.305 11.7849C100.274 12.0178 100.164 12.4163 99.9758 12.9812C99.919 13.1338 99.8191 13.4425 99.6702 13.9077C99.6331 14.0329 99.6076 14.1111 99.5979 14.1424C99.5882 14.1736 99.5626 14.2479 99.5253 14.365C99.4861 14.4824 99.4372 14.631 99.3765 14.8108C99.6997 14.8578 100.064 14.8811 100.469 14.8811C100.812 14.8811 101.124 14.8578 101.398 14.8108C101.367 14.7131 101.337 14.627 101.31 14.5509C101.282 14.4766 101.257 14.4023 101.235 14.3298C101.157 14.1463 101.079 13.9195 101 13.6517C100.922 13.4152 100.801 13.0634 100.636 12.5943C100.513 12.2288 100.438 11.955 100.411 11.7734V11.7734ZM47.8705 31.4172V30.9717H48.0488C48.1938 30.9717 48.3387 30.9286 48.4817 30.8407C48.6246 30.7527 48.7579 30.5787 48.8773 30.3188C48.9988 30.0589 49.079 29.6971 49.1182 29.2359L49.412 25.8564C49.4669 25.1704 49.5061 24.3453 49.5295 23.3816C49.8075 23.3446 50.0663 23.28 50.3033 23.1845L52.6908 28.5184C52.8986 28.9838 53.0474 29.3629 53.1356 29.6601H53.2294C53.2999 29.4175 53.3822 29.1833 53.4764 28.9505C53.5703 28.7179 53.6702 28.4969 53.7741 28.2879C53.8778 28.0768 54.0326 27.7699 54.2362 27.3672C54.4419 26.9627 54.6026 26.6361 54.722 26.3859C55.4018 24.9436 55.8366 23.9408 56.0265 23.3816C56.3536 23.3504 56.7179 23.2858 57.1195 23.1845C57.1253 23.2624 57.1332 23.3719 57.139 23.5126C57.145 23.6536 57.1508 23.761 57.1547 23.841C57.1547 24.0523 57.1626 24.2553 57.1781 24.4509C57.1881 24.6191 57.1958 24.7441 57.2018 24.8263C57.2097 24.9103 57.2173 25.0316 57.2273 25.1899L57.4251 28.274C57.4388 28.5614 57.4525 28.8626 57.4701 29.1755C57.4877 29.486 57.5229 29.7774 57.574 30.0471C57.6247 30.3148 57.711 30.5377 57.8325 30.7115C57.9519 30.8856 58.1184 30.9717 58.3319 30.9717H58.5063V31.4172H58.1302C57.7717 31.4172 57.5503 31.3938 57.4622 31.3468C57.3741 31.2998 57.1705 31.2765 56.8512 31.2765C56.6945 31.2765 56.4594 31.2998 56.144 31.3447C55.9013 31.3938 55.7132 31.4172 55.5799 31.4172H55.2861V30.9717H55.4507C55.6406 30.9717 55.7895 30.911 55.8992 30.7879C56.007 30.6666 56.0617 30.4067 56.0617 30.01C56.0617 29.9885 56.0598 29.9512 56.0559 29.8985C56.052 29.8438 56.0501 29.8047 56.0501 29.7774L55.8405 26.1515L55.8639 25.5416H55.7916C55.7387 25.655 55.6446 25.874 55.5115 26.1985C55.1099 27.127 54.5928 28.2388 53.9582 29.5309C53.821 29.8105 53.7212 30.014 53.6623 30.1371C53.6016 30.2621 53.5077 30.4535 53.3823 30.7136C53.296 30.9092 53.2139 31.0869 53.1356 31.2431H52.7027C52.6185 31.0753 52.5322 30.8955 52.4441 30.7018C52.305 30.3931 52.0583 29.8927 51.7038 29.2007C51.2709 28.3737 50.934 27.6917 50.693 27.1525C50.45 26.6127 50.2933 26.2334 50.2189 26.0108C50.1445 25.79 50.0995 25.6335 50.08 25.5416L49.9506 25.5298V25.7273C49.9506 26.0538 49.9311 26.5639 49.8938 27.2538C49.8644 27.809 49.8449 28.2154 49.8331 28.4735C49.8291 28.5966 49.8252 28.7825 49.8194 29.0308C49.8136 29.2787 49.8057 29.4645 49.7978 29.5876C49.7841 29.7598 49.7763 29.9006 49.7763 30.01C49.7763 30.6511 49.9643 30.9717 50.3404 30.9717H50.6107V31.4172H50.3404C50.2365 31.4172 50.0876 31.3938 49.8938 31.3447C49.7039 31.2998 49.5159 31.2765 49.3278 31.2765C49.22 31.2765 49.0556 31.2998 48.8342 31.3447C48.5796 31.3938 48.3758 31.4172 48.223 31.4172H47.8705ZM59.1038 23.4541H59.4681C59.6306 23.4541 59.85 23.4696 60.1261 23.501C60.4004 23.5323 60.7707 23.5478 61.2328 23.5478C62.369 23.5478 63.27 23.5284 63.9359 23.4892C64.0241 23.4853 64.0887 23.4814 64.1258 23.4795C64.165 23.4756 64.2944 23.4677 64.5138 23.4541C64.4491 23.8353 64.3609 24.2107 64.2531 24.58C64.2237 24.6971 64.1905 24.8321 64.1513 24.9867C64.114 25.141 64.0848 25.26 64.0651 25.3421H63.6185C63.6577 25.0158 63.6774 24.8205 63.6774 24.7559C63.6774 24.3023 63.4031 24.0778 62.8547 24.0778H61.515V27.0194H62.455C62.7372 27.0194 62.9565 26.9999 63.1151 26.9627C63.2737 26.9236 63.3952 26.8396 63.4794 26.7104C63.5638 26.5794 63.6067 26.3781 63.6067 26.1066H64.0554C63.9202 26.8729 63.8536 27.4279 63.8536 27.7699V28.5693H63.4305C63.4462 28.4969 63.4541 28.3992 63.4541 28.274C63.4541 27.766 63.1759 27.5119 62.6196 27.5119H61.515V29.4312C61.515 29.8517 61.5424 30.1665 61.5952 30.3773C61.6481 30.5865 61.7283 30.733 61.834 30.8133C61.9419 30.8934 62.0889 30.9462 62.2788 30.9717C62.4453 30.9971 62.5962 31.0087 62.7254 31.0087C62.8684 31.0087 63.0173 30.9971 63.1719 30.9717C63.4757 30.9286 63.7379 30.8152 63.9633 30.6275C64.1866 30.4419 64.3707 30.1077 64.5138 29.6288H64.9348C64.9054 30.2757 64.8055 30.733 64.639 31.001C64.4725 31.2686 64.2571 31.4347 63.9946 31.4993C63.9241 31.5148 63.8184 31.5227 63.6774 31.5227C63.5677 31.5227 63.411 31.5148 63.2072 31.4993C63.0799 31.4896 62.9565 31.4797 62.8411 31.472C62.7235 31.4641 62.4826 31.4466 62.1142 31.4172C61.9027 31.4035 61.7244 31.3938 61.5816 31.3859C61.4366 31.378 61.2954 31.3723 61.1526 31.3683C61.0116 31.3644 60.8665 31.3605 60.7176 31.3565H60.0459C60.0086 31.3605 59.946 31.3702 59.856 31.3838C59.7658 31.3996 59.7011 31.4074 59.6601 31.4114C59.6188 31.4153 59.5778 31.4172 59.5404 31.4172H59.1038V30.9717H59.3271C59.6051 30.9717 59.7874 30.8212 59.8773 30.522C59.9657 30.223 60.0107 29.8438 60.0107 29.3863V25.6981C60.0107 24.4997 59.7795 23.8998 59.3171 23.8998H59.1038V23.4541ZM65.8162 33.3756H65.2168C65.3893 32.4531 65.4753 31.5463 65.4753 30.6548C65.7222 30.7175 65.9963 30.7488 66.298 30.7488C66.3842 30.7488 66.4684 30.6921 66.5507 30.5805C66.633 30.4673 66.729 30.2776 66.8348 30.01C66.9426 29.7441 67.0522 29.4411 67.1638 29.1051C67.2755 28.7707 67.532 27.9967 67.9317 26.7828C68.4135 25.3324 68.762 24.1912 68.9795 23.3601C69.3341 23.3289 69.7062 23.2742 70.0941 23.1963C70.3663 24.3317 70.7385 25.6335 71.2105 27.0995C71.6806 28.5654 72.0527 29.6092 72.327 30.2306C72.417 30.4222 72.5111 30.5592 72.609 30.6451C72.7089 30.7291 72.8656 30.7722 73.0792 30.7722C73.2691 30.7722 73.5118 30.733 73.8077 30.6548C73.6707 31.5639 73.4748 32.4707 73.2202 33.3756H72.6579C72.7657 33.028 72.8204 32.5822 72.8204 32.0388C72.8204 31.7768 72.7207 31.6088 72.5227 31.5324C72.3231 31.4563 72.0664 31.4172 71.751 31.4172C71.563 31.4172 71.2358 31.425 70.7698 31.4405C70.3016 31.4563 69.9137 31.4641 69.6005 31.4641C68.6994 31.4641 67.9922 31.4484 67.4752 31.4172C67.442 31.4172 67.3968 31.4172 67.3381 31.4172C67.2774 31.4172 67.2324 31.4172 67.203 31.4172C66.9326 31.4172 66.7133 31.4621 66.5449 31.5521C66.3745 31.6419 66.2296 31.8277 66.1081 32.1092C65.9866 32.3906 65.8887 32.813 65.8162 33.3756V33.3756ZM69.2028 24.7793H69.1068C69.0324 25.1332 68.8875 25.6881 68.6681 26.4447C68.4506 27.201 68.0648 28.3504 67.5086 29.8927C67.4497 30.057 67.4028 30.1878 67.3694 30.2833C67.3342 30.3773 67.2716 30.5532 67.1795 30.8073C67.8728 30.8446 68.5153 30.864 69.1068 30.864C69.5886 30.864 70.2096 30.8446 70.9754 30.8073C70.9323 30.6823 70.901 30.5944 70.8813 30.5416C70.8618 30.4886 70.8305 30.4046 70.7892 30.2894C70.7463 30.1741 70.7072 30.0686 70.6719 29.9728C70.4739 29.4236 70.243 28.7316 69.9766 27.8991C69.4926 26.3801 69.2341 25.3421 69.2028 24.7793V24.7793ZM74.2427 23.4541H74.6304C74.699 23.4541 74.891 23.4735 75.2063 23.5126C75.508 23.5517 75.7234 23.5714 75.8528 23.5714C75.9801 23.5714 76.1915 23.5517 76.4874 23.5126C76.8027 23.4735 76.9945 23.4541 77.0631 23.4541H77.4626V23.8998H77.2159C77.0376 23.8998 76.9064 23.9584 76.8204 24.0739C76.7341 24.1891 76.6792 24.3395 76.6557 24.5233C76.6342 24.7089 76.6205 24.9475 76.6166 25.2366C76.6166 25.3539 76.6146 25.5122 76.6107 25.7117C76.6068 25.9131 76.6047 26.052 76.6047 26.1302V26.9627C77.1357 27.0312 77.8682 27.0664 78.8024 27.0664C79.6271 27.0664 80.3204 27.0351 80.8827 26.9745V26.1066C80.8827 26.0265 80.8846 25.8934 80.8885 25.7057C80.8924 25.5201 80.8943 25.3755 80.8943 25.2739C80.8943 24.8517 80.8514 24.5173 80.767 24.271C80.6828 24.023 80.5182 23.8998 80.2715 23.8998H80.0248V23.4541H80.4125C80.4811 23.4541 80.6731 23.4735 80.9884 23.5126C81.288 23.5517 81.5036 23.5714 81.6328 23.5714C81.7601 23.5714 81.9718 23.5517 82.2674 23.5126C82.5827 23.4735 82.7747 23.4541 82.8434 23.4541H83.2429V23.8998H82.9962C82.7376 23.8998 82.573 24.0151 82.5025 24.2437C82.4339 24.4724 82.3986 24.8244 82.3986 25.2972V25.6942C82.3889 25.8036 82.3849 25.9483 82.3849 26.1302V29.5173C82.3849 30.4868 82.5925 30.9717 83.0098 30.9717H83.2429V31.4172H82.8197C82.7082 31.4172 82.5475 31.3899 82.3379 31.335C82.103 31.2959 81.8639 31.2765 81.623 31.2765C81.384 31.2765 81.1452 31.2959 80.9061 31.335C80.6965 31.3899 80.5361 31.4172 80.4243 31.4172H80.0011V30.9717H80.2362C80.6673 30.9717 80.8827 30.4868 80.8827 29.5173V27.5237C80.5105 27.5607 79.8367 27.5841 78.8631 27.594H77.921C77.3961 27.5841 76.9574 27.5607 76.6047 27.5237V29.5173C76.6047 30.4868 76.8125 30.9717 77.2278 30.9717H77.4626V31.4172H77.0416C76.9279 31.4172 76.7675 31.3899 76.5597 31.335C76.3228 31.2959 76.0837 31.2765 75.841 31.2765C75.598 31.2765 75.3591 31.2959 75.124 31.335C74.9144 31.3899 74.754 31.4172 74.6422 31.4172H74.219V30.9717H74.4542C74.885 30.9717 75.1006 30.4868 75.1006 29.5173V26.1066C75.1006 26.0265 75.1025 25.8934 75.1064 25.7057C75.1103 25.5201 75.1122 25.3755 75.1122 25.2739C75.1122 24.8517 75.0693 24.5173 74.9849 24.271C74.8989 24.023 74.7342 23.8998 74.4894 23.8998H74.2427V23.4541ZM84.0655 27.2656C84.0655 26.6597 84.1773 26.1124 84.4006 25.6199C84.6218 25.1292 84.9295 24.7089 85.3211 24.3648C85.713 24.019 86.1614 23.7552 86.6669 23.5733C87.1721 23.3916 87.7049 23.3015 88.2612 23.3015C88.7959 23.3015 89.3013 23.4032 89.7771 23.6084C90.2531 23.8137 90.6684 24.107 91.0248 24.4842C91.3814 24.8635 91.6615 25.3148 91.8611 25.8427C92.0629 26.3723 92.1628 26.9432 92.1628 27.5568C92.1628 28.4031 91.9708 29.1324 91.5871 29.7441C91.2013 30.3558 90.7076 30.8173 90.1004 31.1281C89.4952 31.4387 88.8742 31.5931 88.2378 31.5931C87.7049 31.5931 87.1879 31.4933 86.6903 31.2959C86.1908 31.0987 85.7422 30.8113 85.3447 30.4319C84.9471 30.0531 84.6357 29.5934 84.4064 29.0542C84.1791 28.5145 84.0655 27.9185 84.0655 27.2656V27.2656ZM85.7227 27.3476C85.7227 28.0926 85.85 28.7512 86.1067 29.3217C86.3613 29.8927 86.6921 30.3324 87.0998 30.6393C87.5071 30.9462 87.9261 31.1008 88.3572 31.1008C88.7117 31.1008 89.0544 30.9814 89.3816 30.7448C89.7106 30.5062 89.9789 30.1174 90.1906 29.5798C90.4002 29.0405 90.5059 28.3562 90.5059 27.5237C90.5059 26.8317 90.3923 26.2006 90.163 25.6296C89.9339 25.0589 89.6264 24.6113 89.2406 24.2847C88.8545 23.9584 88.4374 23.7943 87.9929 23.7943C87.6305 23.7943 87.2778 23.9116 86.9312 24.1442C86.5845 24.3766 86.2966 24.7598 86.0675 25.2952C85.8382 25.8291 85.7227 26.5151 85.7227 27.3476V27.3476Z" fill="white"/>
<path fill-rule="evenodd" clip-rule="evenodd" d="M92.915 23.454H93.2911C93.3479 23.454 93.5438 23.4735 93.8789 23.5126C94.1766 23.5517 94.388 23.5714 94.5133 23.5714C94.6368 23.5714 94.8483 23.5517 95.1479 23.5126C95.4829 23.4735 95.6789 23.454 95.7357 23.454H96.1234V23.8998H95.8766C95.62 23.8998 95.4535 24.0132 95.3791 24.2397C95.3028 24.4684 95.2654 24.7929 95.2654 25.2134V25.6374V28.3464C95.2654 28.6905 95.2186 29.1793 95.1245 29.8126H95.2302C95.4771 29.4293 96.0176 28.7921 96.8521 27.899C97.2182 27.5021 97.6238 27.0427 98.0685 26.5227C98.5151 26.0028 98.9519 25.4752 99.3809 24.9378C99.8098 24.3999 100.201 23.8861 100.554 23.3952C100.74 23.3601 100.94 23.3367 101.155 23.3249C101.106 23.9095 101.083 24.4372 101.083 24.9084V29.2122C101.083 29.5973 101.095 29.9084 101.118 30.1488C101.14 30.3909 101.196 30.5865 101.287 30.7409C101.377 30.8955 101.512 30.9716 101.694 30.9716H101.941V31.4171H101.541C101.43 31.4171 101.269 31.3898 101.059 31.3349C100.824 31.2958 100.581 31.2764 100.331 31.2764C100.098 31.2764 99.8627 31.2958 99.6276 31.3349C99.414 31.3898 99.2533 31.4171 99.1457 31.4171H98.7089V30.9716H98.9556C99.1476 30.9716 99.2886 30.8837 99.3788 30.7078C99.4708 30.5316 99.5258 30.3245 99.5473 30.0861C99.5687 29.8457 99.5786 29.5466 99.5786 29.1907V26.4817C99.5786 26.2081 99.6218 25.9012 99.7078 25.565H99.6394C99.5139 25.8191 99.1379 26.3019 98.5111 27.0096C97.8844 27.719 97.2261 28.4364 96.5386 29.1636C95.8511 29.8908 95.3791 30.3851 95.1245 30.645C94.7973 30.9853 94.574 31.2431 94.4527 31.4171L93.6553 31.6185C93.7261 30.4594 93.7613 29.8457 93.7613 29.7774V25.6119V25.1076C93.7613 24.7246 93.7221 24.4274 93.6437 24.2164C93.5654 24.0053 93.4047 23.8998 93.1619 23.8998H92.915V23.454ZM96.9578 21.2961V21.9274C96.9578 22.1015 97.0323 22.2401 97.1793 22.3399C97.326 22.4415 97.4886 22.4924 97.665 22.4924C97.8883 22.4924 98.1311 22.4102 98.3896 22.2441C98.6502 22.0781 98.889 21.7613 99.1084 21.2961C99.2475 21.4211 99.4003 21.5423 99.5668 21.6597C99.2299 22.0975 98.8912 22.4239 98.5522 22.635C98.2113 22.8481 97.9078 22.9791 97.6453 23.0279C97.381 23.077 97.1048 23.1022 96.8187 23.1022C96.288 23.1022 95.9237 22.7817 95.7238 22.1406C96.141 21.9295 96.5092 21.6479 96.8285 21.2961H96.9578ZM48.1643 36.7768H48.7264C49.038 36.7768 49.2494 36.7886 49.3631 36.8119C49.4767 36.8353 49.6647 36.8511 49.9272 36.8589C50.1289 36.8589 50.3796 36.8609 50.6754 36.8647C50.9732 36.8686 51.1572 36.8705 51.2335 36.8705C51.5157 36.8705 51.8584 36.8589 52.264 36.8374C52.6674 36.8159 53.114 36.8001 53.6055 36.7886C53.4725 37.5019 53.3039 38.1957 53.1003 38.8662H52.6419C52.7045 38.6336 52.7358 38.3246 52.7358 37.9379C52.7358 37.6798 52.6419 37.5116 52.4499 37.4333C52.2579 37.3551 51.9897 37.316 51.643 37.316H51.3727H50.5382V42.2672V42.5134C50.5382 43.0629 50.5755 43.4966 50.6518 43.8153C50.7262 44.1337 50.9006 44.2941 51.1728 44.2941H51.5862V44.7399H50.9966C50.885 44.7399 50.7244 44.7125 50.5147 44.6577C50.2796 44.6186 50.0408 44.5991 49.7978 44.5991C49.5551 44.5991 49.316 44.6186 49.079 44.6577C48.8715 44.7125 48.7108 44.7399 48.5972 44.7399H48.1525V44.2941H48.3994C48.658 44.2941 48.8284 44.167 48.9107 43.9111C48.9928 43.657 49.034 43.2991 49.034 42.84V42.2183V38.8662C49.034 38.3677 48.9949 37.9691 48.9144 37.6699C48.8342 37.3709 48.6695 37.2223 48.4228 37.2223H48.1643V36.7768ZM54.0853 40.5883C54.0853 39.9824 54.197 39.4348 54.4203 38.9426C54.6415 38.4517 54.9492 38.0316 55.3408 37.6875C55.7327 37.3415 56.1811 37.0779 56.6866 36.896C57.1918 36.7143 57.7247 36.6242 58.2809 36.6242C58.8156 36.6242 59.3211 36.7258 59.7969 36.9311C60.2729 37.1362 60.6882 37.4294 61.0445 37.8069C61.4012 38.186 61.6813 38.6375 61.8809 39.1652C62.0826 39.695 62.1826 40.2657 62.1826 40.8795C62.1826 41.7258 61.9906 42.4549 61.6068 43.0668C61.221 43.6785 60.7274 44.1397 60.1201 44.4506C59.5149 44.7614 58.894 44.9158 58.2575 44.9158C57.7247 44.9158 57.2076 44.816 56.71 44.6186C56.2106 44.4212 55.7619 44.1337 55.3645 43.7546C54.9668 43.3755 54.6554 42.9161 54.4261 42.3766C54.1989 41.8372 54.0853 41.241 54.0853 40.5883ZM55.7424 40.6702C55.7424 41.415 55.8697 42.0739 56.1264 42.6444C56.381 43.2151 56.7119 43.6551 57.1195 43.962C57.5269 44.2686 57.9459 44.4232 58.3769 44.4232C58.7315 44.4232 59.0741 44.3038 59.4013 44.0673C59.7303 43.8289 59.9986 43.4399 60.2103 42.9025C60.4199 42.363 60.5256 41.6789 60.5256 40.8464C60.5256 40.1541 60.412 39.523 60.1827 38.9523C59.9536 38.3813 59.6462 37.934 59.2603 37.6074C58.8743 37.2808 58.4571 37.117 58.0127 37.117C57.6502 37.117 57.2976 37.2341 56.9509 37.4667C56.6043 37.6993 56.3163 38.0825 56.0872 38.6179C55.8579 39.1516 55.7424 39.8378 55.7424 40.6702V40.6702ZM66.3548 44.7399H65.8493C65.7378 44.7399 65.5771 44.7125 65.3675 44.6577C65.1287 44.6186 64.8857 44.5991 64.639 44.5991C64.4038 44.5991 64.1687 44.6186 63.9339 44.6577C63.7242 44.7125 63.5636 44.7399 63.4518 44.7399H63.0152V44.2941H63.2619C63.5186 44.2941 63.6909 44.1376 63.779 43.8231C63.8652 43.5084 63.9102 43.0763 63.9102 42.5252C63.9102 42.406 63.9083 42.228 63.9044 41.9897C63.9005 41.7513 63.8986 41.5772 63.8986 41.4678V39.2295C63.8986 38.8565 63.8868 38.5338 63.8652 38.2603C63.8437 37.9867 63.785 37.7442 63.689 37.5352C63.593 37.326 63.4481 37.2223 63.2501 37.2223H63.0289L63.0152 36.7768H63.2756C63.3618 36.7768 63.491 36.7846 63.6635 36.8001C63.8868 36.8237 64.114 36.8353 64.3431 36.8353C64.5488 36.8353 64.8328 36.8119 65.1971 36.765C65.5613 36.718 65.8846 36.6946 66.1667 36.6946C66.9934 36.6946 67.624 36.8374 68.0606 37.1207C68.4956 37.4042 68.7797 37.715 68.9088 38.0513C69.0401 38.3892 69.1047 38.6961 69.1047 38.9717C69.1047 39.3939 69.0048 39.7868 68.807 40.1541C68.6072 40.5198 68.3173 40.813 67.9333 41.0341C67.5514 41.2528 67.103 41.3622 66.5918 41.3622C66.3743 41.3622 66.1431 41.3386 65.8964 41.2937V40.9049C66.0021 40.9283 66.1078 40.9401 66.2136 40.9401C66.4624 40.9401 66.6896 40.8697 66.8974 40.7309C67.103 40.592 67.2674 40.3907 67.3871 40.1268C67.5065 39.863 67.5651 39.5482 67.5651 39.1807C67.5651 38.6806 67.4712 38.2836 67.285 37.9946C67.0991 37.7032 66.8621 37.5019 66.5781 37.3903C66.292 37.279 65.9866 37.2223 65.6613 37.2223C65.5437 37.2223 65.4577 37.2262 65.4027 37.2359V38.3853V42.2183V42.49C65.4027 42.8536 65.4146 43.1584 65.438 43.4068C65.4596 43.6551 65.5184 43.8643 65.6084 44.0363C65.7004 44.208 65.8396 44.2941 66.0255 44.2941H66.3548V44.7399ZM69.9842 36.7768H70.3719C70.4405 36.7768 70.6325 36.7962 70.9479 36.8353C71.2456 36.8744 71.4591 36.8941 71.5941 36.8941C71.7156 36.8941 71.927 36.8744 72.2287 36.8353C72.544 36.7962 72.736 36.7768 72.8046 36.7768H73.1926V37.2223H72.9456C72.6968 37.2223 72.5324 37.3278 72.4541 37.541C72.3738 37.752 72.3347 38.0571 72.3347 38.4556V38.9933V40.2851C72.6813 40.2363 73.0064 40.2129 73.3099 40.2129C73.974 40.2129 74.5205 40.3185 74.9513 40.5316C75.3823 40.7445 75.6919 41.0183 75.8818 41.3504C76.0717 41.6849 76.1658 42.0406 76.1658 42.4176C76.1658 42.662 76.1403 42.9064 76.0914 43.1527C76.0404 43.3989 75.9267 43.6512 75.7505 43.9071C75.5722 44.165 75.2921 44.3802 74.9102 44.5522C74.5284 44.7241 74.0268 44.8123 73.404 44.8123C72.8712 44.8123 72.5304 44.8005 72.3836 44.7771C72.2387 44.7535 72.0937 44.7183 71.9546 44.6714C71.8136 44.6246 71.6217 44.5991 71.3808 44.5991C71.2553 44.5991 71.0712 44.6264 70.8303 44.6832C70.5757 44.7204 70.3564 44.7399 70.1702 44.7399H69.9235V44.2941H70.1584C70.4424 44.2941 70.6246 44.1319 70.7069 43.8076C70.789 43.4829 70.8303 43.0589 70.8303 42.537V38.9953V38.4908C70.8303 38.0765 70.793 37.7618 70.7167 37.5468C70.6422 37.3299 70.4797 37.2223 70.2309 37.2223H69.9842V36.7768ZM72.3347 40.682V43.217C72.3347 43.6433 72.3933 43.9405 72.5127 44.1104C72.6303 44.2805 72.8614 44.3665 73.2042 44.3665C73.4295 44.3665 73.6489 44.302 73.8643 44.1749C74.0797 44.0481 74.2561 43.8504 74.395 43.5847C74.5341 43.3188 74.6028 42.9886 74.6028 42.5916C74.6028 42.0834 74.4989 41.6867 74.2893 41.4014C74.0797 41.1158 73.8272 40.9225 73.5295 40.8228C73.2336 40.7212 72.9261 40.6702 72.6048 40.6702C72.4796 40.6702 72.3894 40.6742 72.3347 40.682V40.682ZM76.9062 36.7768H77.2959C77.3664 36.7768 77.5584 36.7962 77.8698 36.8353C78.1696 36.8744 78.385 36.8941 78.5181 36.8941C78.6396 36.8941 78.8511 36.8744 79.1509 36.8353C79.4623 36.7962 79.6542 36.7768 79.7247 36.7768H80.1263V37.2223H79.8794C79.6229 37.2223 79.4565 37.3375 79.382 37.5664C79.3055 37.7969 79.2684 38.133 79.2684 38.573V39.0169V42.6659C79.2684 43.1742 79.3076 43.5729 79.386 43.8622C79.4641 44.1495 79.6327 44.2941 79.8912 44.2941H80.1263V44.7399H79.7013C79.5895 44.7399 79.4289 44.7125 79.2195 44.6577C78.9844 44.6186 78.7453 44.5991 78.5026 44.5991C78.2635 44.5991 78.0247 44.6186 77.7896 44.6577C77.576 44.7125 77.4153 44.7399 77.3078 44.7399H76.8827V44.2941H77.1176C77.3901 44.2941 77.5663 44.1376 77.6447 43.8271C77.7249 43.5162 77.7641 43.1096 77.7641 42.6074V39.0657V38.653C77.7641 38.182 77.727 37.8263 77.6525 37.584C77.5781 37.3435 77.4114 37.2223 77.1529 37.2223H76.9062V36.7768ZM84.2394 36.8811C84.2394 36.624 84.2893 36.3699 84.3883 36.119C84.4871 35.8686 84.6301 35.6418 84.8161 35.4395C85.0023 35.2372 85.2265 35.0771 85.4862 34.9597C85.7466 34.8415 86.0325 34.7829 86.3429 34.7829C86.6555 34.7829 86.9423 34.8424 87.2029 34.9607C87.4645 35.0789 87.6866 35.2382 87.871 35.4386C88.056 35.639 88.1979 35.8647 88.2978 36.1169C88.3968 36.369 88.4467 36.624 88.4467 36.8811C88.4467 37.139 88.3968 37.3942 88.2978 37.6453C88.1979 37.8976 88.055 38.1242 87.8688 38.3255C87.6829 38.5269 87.4596 38.6873 87.1981 38.8046C86.9374 38.9229 86.6525 38.9814 86.3429 38.9814C85.9933 38.9814 85.6564 38.8935 85.3322 38.7185C85.0071 38.5426 84.7437 38.2943 84.542 37.9738C84.3403 37.6532 84.2394 37.2885 84.2394 36.8811ZM84.539 36.8811C84.539 37.1022 84.5812 37.3199 84.6663 37.5359C84.7516 37.7509 84.875 37.9464 85.0366 38.1203C85.1973 38.2943 85.389 38.432 85.6105 38.5318C85.8328 38.6324 86.0768 38.6824 86.342 38.6824C86.6937 38.6824 87.007 38.5954 87.2822 38.4223C87.5584 38.2494 87.7719 38.0238 87.9217 37.7451C88.0715 37.4655 88.1471 37.1781 88.1471 36.8811C88.1471 36.6592 88.104 36.4393 88.0186 36.2222C87.9326 36.0065 87.8102 35.8119 87.6504 35.6399C87.4909 35.4677 87.2989 35.3319 87.0756 35.2324C86.8514 35.1317 86.6075 35.0819 86.342 35.0819C86.0452 35.0819 85.7563 35.1569 85.4783 35.3067C85.1991 35.4562 84.9728 35.6693 84.7996 35.9438C84.6262 36.2183 84.539 36.5312 84.539 36.8811V36.8811ZM86.2667 37.9249H86.1549C86.1285 37.9249 86.0914 37.9182 86.0434 37.9025C85.9905 37.8907 85.9298 37.8849 85.8611 37.8849C85.7691 37.8849 85.7171 37.8918 85.7055 37.9055C85.6946 37.9191 85.6545 37.9249 85.585 37.9249H85.4322V37.8321H85.4968C85.5694 37.8321 85.6144 37.7881 85.633 37.6981C85.6515 37.6092 85.6615 37.4773 85.6615 37.3042V36.4247C85.6615 36.275 85.6515 36.1567 85.633 36.069C85.6135 35.982 85.5683 35.938 85.4968 35.938H85.4322V35.8559H86.3429C86.6163 35.8559 86.8162 35.9077 86.9414 36.0105C87.0678 36.1139 87.1304 36.2419 87.1304 36.3944C87.1304 36.7698 86.8915 36.9857 86.4125 37.0406V37.0582C86.6555 37.0658 86.867 37.2281 87.0483 37.5447C87.1099 37.6484 87.1638 37.7284 87.2097 37.7833C87.2567 37.8391 87.3126 37.8664 87.3773 37.8664H87.436V37.9728C87.3175 37.9728 87.2157 37.9543 87.1294 37.9182C87.0443 37.8819 86.9699 37.833 86.9071 37.7724C86.8435 37.7118 86.7573 37.6171 86.6485 37.4861C86.5683 37.3873 86.5134 37.3209 86.483 37.2866C86.4538 37.2514 86.4185 37.2172 86.3772 37.182C86.3362 37.1478 86.2873 37.1204 86.2314 37.0992C86.1746 37.0776 86.1081 37.064 86.0315 37.0582V37.3042C86.0315 37.3315 86.0306 37.3697 86.0288 37.4185C86.0267 37.4674 86.0257 37.5016 86.0257 37.5213C86.0257 37.6238 86.0376 37.7011 86.0619 37.7539C86.0856 37.8057 86.1324 37.8321 86.202 37.8321H86.2667V37.9249ZM86.0315 35.9917V36.9348C86.0628 36.9388 86.1099 36.9409 86.1716 36.9409C86.3782 36.9409 86.5261 36.8929 86.6154 36.7962C86.7044 36.6995 86.7485 36.586 86.7485 36.4539C86.7485 36.3405 86.7132 36.2322 86.6427 36.1285C86.5732 36.025 86.4331 35.9732 86.2256 35.9732C86.1725 35.9732 86.1081 35.9792 86.0315 35.9917V35.9917Z" fill="white"/>
</svg>
