<svg id="Layer_1" enable-background="new 0 0 128 128" height="512" viewBox="0 0 128 128" width="512" xmlns="http://www.w3.org/2000/svg"><path d="m114.203 70.643c-4.506-2.446-13.625-6.55-24.077-6.55-1.685 0-3.369.114-5.031.339 1.592-2.421 2.922-4.919 3.966-7.451 5.248-12.729 2.986-25.565 2.887-26.105-.021-.112-.055-.218-.078-.27-.013-.046-.037-.118-.056-.162-.087-.201-.21-.389-.368-.56-.018-.019-.091-.091-.11-.108-.187-.173-.38-.3-.592-.388-.21-.086-.437-.133-.722-.144-.024-.001-.104-.001-.128 0-.232.01-.453.057-.645.134-.049.019-.072.029-.117.055-.103.047-.203.098-.292.162-.372.258-8.415 5.926-13.975 15.71-1.613-10.565-6.54-18.333-6.772-18.694-.042-.063-.1-.131-.163-.191-.772-.924-2.285-.907-3.034.002-.063.061-.122.129-.164.194-.229.357-5.156 8.124-6.769 18.689-5.56-9.784-13.604-15.453-13.978-15.712-.089-.061-.182-.109-.243-.135-.041-.023-.113-.059-.156-.076-.202-.081-.421-.127-.642-.137-.029 0-.14 0-.168 0-.253.009-.479.055-.695.143-.21.087-.404.214-.606.402-.019.018-.077.075-.094.094-.158.171-.281.359-.371.566-.005.012-.032.091-.037.104-.04.104-.074.21-.095.323-.099.541-2.36 13.376 2.888 26.105 1.062 2.576 2.421 5.117 4.053 7.581-1.943-.312-3.933-.469-5.942-.469-10.46 0-19.581 4.104-24.087 6.551-4.293 2.333-5.914 7.734-3.615 12.04 9.982 18.695 22.581 22.619 31.393 22.619 8.236 0 15.57-3.358 20.43-6.315 6.888 4.191 13.761 6.315 20.44 6.315 8.813 0 21.411-3.924 31.381-22.617 2.311-4.309.689-9.711-3.616-12.044zm-39.686 13.182c4.441-4.133 9.543-6.143 15.6-6.143 3.397 0 7.033.651 10.805 1.936.593.204 1.038.666 1.221 1.267.182.601.069 1.232-.313 1.735-4.554 6.027-9.732 9.083-15.392 9.083-3.517 0-7.304-1.055-11.258-3.137-.858-.447-1.425-1.257-1.556-2.222-.13-.953.196-1.871.893-2.519zm-44.657-2.94c.184-.601.629-1.063 1.219-1.266 3.774-1.285 7.407-1.937 10.797-1.937 6.056 0 11.159 2.009 15.6 6.143.697.648 1.023 1.566.896 2.521-.129.964-.694 1.774-1.548 2.221-.001 0-.002.001-.002.001-3.95 2.08-7.737 3.135-11.254 3.135-5.667 0-10.849-3.056-15.402-9.083-.379-.5-.49-1.133-.306-1.735z" fill="#e6e7e8"/><path d="m61.997 70.582c.725-.668 1.47-1.295 2.229-1.894 2.063-4.194 5.151-11.954 5.151-20.839 0-13.339-6.962-24.152-6.962-24.152s-6.962 10.813-6.962 24.152c0 9.822 3.773 18.269 5.763 22.043.26.229.524.453.781.69z" fill="#6dc9f7"/><path d="m47.636 62.427c3.581 1.017 6.959 2.612 10.091 4.756.226-4.79-.067-12.59-3.241-20.268-3.45-8.39-9.44-14.47-12.92-17.5-1.64-1.43-2.72-2.18-2.72-2.18s-2.32 12.65 2.77 24.98c1.622 3.94 3.803 7.368 6.02 10.212z" fill="#fff"/><path d="m51.864 63.941c2.036.881 3.993 1.963 5.863 3.242.226-4.79-.067-12.59-3.241-20.268-3.45-8.39-9.44-14.47-12.92-17.5-.42 4.13-.77 13.56 3.05 22.8 1.923 4.669 4.628 8.618 7.248 11.726z" fill="#fa759e"/><path d="m77.4 62.156c2.145-2.79 4.241-6.125 5.813-9.938 5.084-12.332 2.768-24.983 2.768-24.983s-10.558 7.343-15.642 19.675c-3.049 7.396-3.436 14.903-3.258 19.73 3.207-2.067 6.663-3.569 10.319-4.484z" fill="#ffd7e5"/><path d="m109.727 67.522c-4.42-2.4-13.36-6.43-23.6-6.43-9.12 0-17.37 3.26-24.13 9.49-6.76-6.23-15-9.49-24.12-9.49-10.24 0-19.19 4.03-23.61 6.43-3.81 2.07-5.25 6.87-3.21 10.69 9.75 18.26 21.97 22.09 30.51 22.09 7.97 0 15.15-3.19 20.43-6.49 5.29 3.3 12.47 6.49 20.44 6.49 8.53 0 20.76-3.83 30.5-22.09 2.05-3.82.61-8.62-3.21-10.69zm-56.44 17.93c-3.38 1.78-7.48 3.25-11.72 3.25-6.02 0-11.44-3.18-16.2-9.48-1.2-1.59-.5-3.9 1.39-4.55 3.23-1.1 7.08-1.99 11.12-1.99 6.28 0 11.66 2.11 16.28 6.41 1.98 1.84 1.52 5.11-.87 6.36zm45.34-6.23c-4.76 6.3-10.18 9.48-16.19 9.48-4.25 0-8.34-1.47-11.72-3.25-2.4-1.25-2.86-4.52-.88-6.36 4.62-4.3 10.01-6.41 16.28-6.41 4.04 0 7.9.89 11.13 1.99 1.89.65 2.59 2.96 1.38 4.55z" fill="#fa759e"/><g fill="#ffd7e5"><path d="m61.149 92.395c-.333 0-.66-.167-.849-.47-.292-.468-.15-1.085.318-1.378l.848-.53c.324-.202.734-.202 1.059 0l.848.529c.469.292.611.909.319 1.377-.292.469-.91.612-1.377.319l-.319-.199-.318.199c-.165.104-.349.153-.529.153z"/><path d="m49.283 97.753c-.442 0-.847-.296-.966-.744-.142-.534.176-1.082.709-1.223.591-.157 1.171-.329 1.74-.512.527-.167 1.089.12 1.259.645.169.525-.119 1.089-.645 1.259-.602.194-1.216.375-1.841.542-.085.022-.171.033-.256.033zm6.136-2.223c-.379 0-.741-.216-.91-.583-.23-.502-.009-1.096.493-1.326.566-.26 1.114-.525 1.644-.795.493-.252 1.094-.056 1.345.437.251.492.056 1.094-.437 1.345-.553.282-1.126.561-1.719.832-.134.061-.276.09-.416.09z"/><path d="m42.838 98.773c-.531 0-.973-.418-.998-.954-.025-.552.401-1.02.953-1.045.604-.028 1.203-.076 1.794-.143.542-.062 1.044.332 1.106.881s-.333 1.044-.881 1.106c-.636.072-1.278.124-1.927.154-.016 0-.032.001-.047.001zm-4.655-.196c-.044 0-.089-.003-.134-.009-.64-.086-1.283-.197-1.913-.33-.541-.114-.886-.645-.772-1.185.114-.541.642-.888 1.185-.772.582.123 1.175.225 1.766.304.547.073.932.577.858 1.124-.067.504-.496.868-.99.868zm-6.294-1.689c-.126 0-.254-.024-.378-.075-.589-.241-1.183-.509-1.765-.797-.495-.245-.698-.844-.454-1.339.244-.496.843-.699 1.339-.454.55.271 1.096.518 1.637.739.511.209.756.793.546 1.304-.157.388-.53.622-.925.622zm-5.694-3.17c-.201 0-.404-.061-.58-.186-.51-.364-1.021-.752-1.532-1.164-.43-.347-.498-.976-.151-1.406s.976-.498 1.406-.151c.48.387.959.751 1.439 1.093.449.321.554.945.233 1.395-.195.274-.503.419-.815.419zm-4.909-4.29c-.264 0-.527-.104-.723-.31-.431-.451-.86-.921-1.288-1.413-.363-.417-.319-1.048.097-1.411s1.049-.319 1.411.097c.408.468.817.917 1.226 1.346.381.399.367 1.033-.033 1.414-.193.185-.441.277-.69.277zm-4.131-5.049c-.313 0-.623-.147-.817-.422-.358-.507-.716-1.03-1.07-1.57-.303-.462-.174-1.082.287-1.385.461-.302 1.083-.175 1.385.287.342.521.686 1.024 1.031 1.513.319.451.212 1.075-.239 1.394-.176.123-.378.183-.577.183zm-3.455-5.54c-.353 0-.695-.187-.877-.518l-.442-.814c-.179-.334-.327-.683-.442-1.038-.171-.525.116-1.089.641-1.26s1.09.116 1.26.641c.08.244.182.483.304.713l.431.793c.267.484.09 1.092-.394 1.358-.152.085-.318.125-.481.125zm-.282-6.172c-.177 0-.355-.046-.517-.145-.473-.287-.624-.901-.337-1.374.385-.635.872-1.193 1.447-1.659.429-.348 1.059-.282 1.407.148.347.429.281 1.059-.148 1.407-.396.32-.73.704-.995 1.141-.189.31-.519.482-.857.482zm44.271-1.44c-.211 0-.424-.066-.605-.205-.484-.369-.975-.722-1.471-1.06-.457-.311-.575-.933-.265-1.39.311-.456.933-.574 1.39-.265.526.358 1.045.732 1.558 1.123.439.335.524.962.189 1.401-.197.26-.494.396-.796.396zm-38.935-2.149c-.379 0-.742-.217-.91-.585-.229-.502-.008-1.096.494-1.325.551-.251 1.132-.506 1.742-.761.511-.214 1.096.028 1.308.538.213.51-.028 1.095-.538 1.308-.589.246-1.15.492-1.681.734-.134.061-.276.091-.415.091zm33.388-1.283c-.147 0-.296-.032-.438-.101-.542-.265-1.091-.512-1.646-.743-.51-.212-.751-.797-.54-1.307s.798-.751 1.307-.54c.592.246 1.177.509 1.755.792.496.242.703.841.46 1.337-.171.356-.527.562-.898.562zm-27.294-1.071c-.424 0-.818-.272-.953-.698-.167-.526.125-1.088.651-1.255.594-.188 1.203-.37 1.827-.542.533-.149 1.083.166 1.229.698.147.532-.166 1.083-.698 1.229-.598.165-1.183.339-1.753.52-.101.032-.203.048-.303.048zm21.168-1.158c-.08 0-.162-.009-.243-.03-.583-.145-1.172-.274-1.767-.385-.542-.102-.9-.625-.798-1.167s.623-.898 1.167-.798c.633.119 1.26.256 1.881.411.536.133.862.676.729 1.212-.113.453-.52.757-.969.757zm-14.826-.392c-.479 0-.902-.344-.985-.832-.093-.544.273-1.061.818-1.154.621-.106 1.251-.2 1.891-.28.54-.069 1.047.32 1.116.868s-.32 1.048-.868 1.116c-.609.076-1.21.166-1.803.267-.056.011-.113.015-.169.015zm8.37-.543c-.016 0-.032 0-.047-.001-.542-.025-1.086-.038-1.636-.038h-.176c-.002 0-.005 0-.008 0-.549 0-.996-.442-1-.992-.004-.552.44-1.003.992-1.008h.192c.581 0 1.157.014 1.729.04.552.026.978.494.953 1.045-.026.537-.468.954-.999.954z"/><path d="m61.997 74.982c-.243 0-.486-.088-.678-.265l-.735-.678c-.406-.375-.432-1.007-.058-1.413s1.005-.433 1.413-.058l.058.053.058-.053c.407-.375 1.039-.348 1.413.058s.349 1.039-.058 1.413l-.735.678c-.192.177-.435.265-.678.265z"/><path d="m66.268 71.255c-.301 0-.599-.135-.796-.393-.335-.439-.251-1.066.188-1.402.512-.391 1.031-.766 1.557-1.125.458-.312 1.08-.193 1.39.263.311.457.193 1.079-.263 1.39-.497.338-.986.692-1.47 1.062-.181.138-.395.205-.606.205zm5.544-3.44c-.37 0-.726-.206-.899-.561-.243-.496-.037-1.095.459-1.337.578-.283 1.163-.547 1.755-.794.508-.213 1.095.028 1.308.538s-.028 1.095-.538 1.308c-.555.232-1.104.48-1.647.745-.141.068-.291.101-.438.101z"/><path d="m81.199 98.774c-.016 0-.031 0-.046-.001-.649-.029-1.291-.081-1.927-.152-.549-.061-.944-.556-.883-1.104.061-.549.556-.943 1.104-.883.592.066 1.191.114 1.795.141.552.025.979.493.954 1.044-.024.537-.466.955-.997.955zm4.654-.201c-.492 0-.921-.363-.989-.865-.075-.547.308-1.051.855-1.126.595-.082 1.19-.185 1.767-.307.542-.114 1.071.23 1.186.771.114.541-.231 1.071-.771 1.186-.625.132-1.268.244-1.911.332-.046.006-.092.009-.137.009zm-11.099-.812c-.084 0-.17-.011-.256-.034-.625-.165-1.24-.346-1.843-.541-.526-.169-.814-.733-.645-1.258s.731-.815 1.258-.645c.57.184 1.15.354 1.741.51.534.141.853.688.711 1.222-.118.449-.523.746-.966.746zm17.391-.885c-.393 0-.766-.233-.925-.62-.21-.511.033-1.095.544-1.306.541-.223 1.087-.47 1.636-.742.497-.247 1.094-.043 1.34.452.245.495.043 1.095-.452 1.34-.581.288-1.173.557-1.763.799-.124.053-.253.077-.38.077zm-23.531-1.332c-.139 0-.28-.029-.415-.09-.592-.27-1.166-.547-1.72-.829-.492-.25-.688-.852-.438-1.345.25-.492.852-.688 1.345-.438.53.269 1.078.535 1.644.793.502.229.724.822.495 1.325-.169.366-.532.584-.911.584zm29.222-1.846c-.312 0-.619-.145-.814-.417-.322-.449-.218-1.074.23-1.396.479-.343.958-.708 1.438-1.095.429-.347 1.06-.28 1.406.148.348.43.281 1.059-.148 1.406-.511.413-1.021.801-1.53 1.167-.177.126-.381.187-.582.187zm4.904-4.297c-.248 0-.496-.091-.689-.275-.4-.381-.416-1.014-.035-1.414.409-.43.818-.879 1.225-1.347.361-.417.993-.462 1.411-.099.417.362.461.994.099 1.411-.427.492-.855.963-1.285 1.415-.199.205-.462.309-.726.309zm4.126-5.055c-.199 0-.4-.06-.576-.183-.451-.318-.559-.942-.24-1.394.345-.489.688-.993 1.03-1.514.303-.462.922-.591 1.384-.289s.591.922.289 1.384c-.354.541-.71 1.064-1.069 1.572-.195.276-.504.424-.818.424zm3.448-5.543c-.163 0-.328-.04-.48-.124-.484-.266-.661-.874-.395-1.358.138-.251.275-.504.413-.762.128-.238.234-.486.315-.742.168-.526.733-.814 1.257-.648.526.168.816.73.648 1.257-.119.373-.273.736-.458 1.079-.139.26-.28.521-.422.779-.182.331-.525.519-.878.519zm.246-6.171c-.335 0-.663-.168-.852-.475-.268-.435-.606-.815-1.004-1.132-.433-.343-.504-.973-.161-1.405.343-.433.972-.506 1.405-.161.58.461 1.072 1.015 1.462 1.647.29.47.144 1.086-.326 1.376-.163.102-.344.15-.524.15zm-5.354-3.57c-.139 0-.28-.029-.415-.09-.532-.243-1.093-.488-1.681-.733-.51-.212-.751-.797-.54-1.307.212-.509.798-.75 1.307-.54.61.253 1.192.508 1.744.76.502.229.724.823.494 1.325-.166.368-.529.585-.909.585zm-6.095-2.35c-.1 0-.202-.015-.302-.047-.571-.181-1.156-.354-1.755-.52-.533-.146-.845-.697-.698-1.229.146-.533.698-.848 1.229-.698.623.172 1.232.353 1.826.54.527.167.819.729.652 1.255-.133.426-.528.699-.952.699zm-21.171-1.135c-.448 0-.855-.303-.969-.757-.135-.536.191-1.079.727-1.213.62-.156 1.248-.293 1.88-.413.547-.106 1.066.253 1.168.796.103.542-.254 1.066-.796 1.168-.595.113-1.183.242-1.766.388-.081.022-.163.031-.244.031zm14.826-.41c-.056 0-.112-.004-.169-.014-.592-.101-1.194-.19-1.803-.266-.548-.068-.937-.567-.869-1.116.068-.548.567-.943 1.116-.869.639.08 1.27.172 1.892.278.544.093.911.609.818 1.154-.083.489-.506.833-.985.833zm-8.371-.533c-.53 0-.972-.417-.998-.952-.026-.552.399-1.021.951-1.047.588-.028 1.18-.042 1.777-.042h.148c.552.006.995.458.989 1.011-.006.552-.498 1.02-1.011.989h-.125c-.565 0-1.126.014-1.683.041-.015-.001-.032 0-.048 0z"/></g><path d="m107.347 71.912c-7.29-3.96-29.28-13.42-45.35 5.93-16.06-19.35-38.05-9.89-45.34-5.93-1.41.77-1.94 2.53-1.19 3.95 15.66 29.33 37.32 18.53 46.53 11.94 9.21 6.59 30.87 17.39 46.53-11.94.76-1.42.23-3.18-1.18-3.95zm-54.06 13.54c-3.38 1.78-7.48 3.25-11.72 3.25-6.02 0-11.44-3.18-16.2-9.48-1.2-1.59-.5-3.9 1.39-4.55 3.23-1.1 7.08-1.99 11.12-1.99 6.28 0 11.66 2.11 16.28 6.41 1.98 1.84 1.52 5.11-.87 6.36zm45.34-6.23c-4.76 6.3-10.18 9.48-16.19 9.48-4.25 0-8.34-1.47-11.72-3.25-2.4-1.25-2.86-4.52-.88-6.36 4.62-4.3 10.01-6.41 16.28-6.41 4.04 0 7.9.89 11.13 1.99 1.89.65 2.59 2.96 1.38 4.55z" fill="#6dc9f7"/><path d="m110.203 66.643c-4.507-2.447-13.626-6.551-24.077-6.551-2.177 0-4.313.189-6.399.553 1.632-2.376 3.176-5.053 4.41-8.046 5.137-12.461 2.925-25.016 2.828-25.544-.011-.058-.033-.113-.053-.167-.006-.016-.009-.033-.015-.049-.045-.104-.109-.196-.185-.278-.018-.019-.036-.036-.055-.053-.086-.08-.182-.151-.294-.197s-.229-.064-.347-.068c-.027-.001-.052-.002-.079-.001-.111.005-.22.025-.324.066-.019.008-.035.02-.054.028-.05.024-.102.045-.149.078-.418.291-9.817 6.925-15.166 18.248-.929-11.95-6.724-21.091-6.991-21.507-.014-.021-.039-.028-.054-.047-.182-.243-.459-.411-.787-.411s-.604.168-.787.411c-.015.02-.04.026-.054.047-.267.415-6.063 9.559-6.991 21.512-.672-1.421-1.433-2.832-2.284-4.213-.291-.471-.906-.617-1.376-.326-.47.29-.616.906-.326 1.376.286.464.561.932.827 1.402l-2.547 6.033-3.349-8.124 1.692-4.065c.332.413.665.826.979 1.244.197.261.497.399.8.399.209 0 .42-.065.6-.201.441-.332.53-.959.198-1.4-.664-.883-1.379-1.752-2.114-2.608-.021-.024-.038-.049-.061-.071-.239-.278-.472-.56-.717-.833-.368-.411-1-.445-1.412-.075-.411.369-.444 1.001-.075 1.412.121.134.233.274.352.41l-1.32 3.173-3.178-7.709c.504.448 1.046.945 1.628 1.509.396.384 1.03.375 1.414-.021.385-.396.375-1.03-.021-1.414-2.74-2.657-4.787-4.089-4.873-4.149-.046-.032-.097-.054-.147-.078-.019-.009-.036-.021-.056-.029-.103-.041-.211-.061-.321-.066-.028-.001-.054 0-.082.001-.117.004-.234.022-.345.068-.112.046-.208.117-.294.197-.019.018-.038.034-.055.053-.076.082-.14.174-.185.278-.007.016-.009.032-.015.049-.02.055-.042.109-.053.167-.097.528-2.309 13.083 2.828 25.544 1.267 3.072 2.86 5.811 4.54 8.232-2.387-.485-4.843-.74-7.353-.74-10.459 0-19.581 4.104-24.087 6.551-4.293 2.333-5.915 7.733-3.615 12.04 9.982 18.694 22.581 22.619 31.392 22.619 8.235 0 15.57-3.358 20.43-6.315 6.888 4.191 13.762 6.315 20.44 6.315 8.812 0 21.41-3.924 31.381-22.617 2.31-4.307.688-9.709-3.617-12.042zm-37.782-3.893.448-1.088 5.215-2.171c-.429.622-.863 1.224-1.302 1.801-1.485.392-2.94.879-4.361 1.458zm-17.123 1.77-1.182-2.866c.029-.046.063-.088.085-.14l1.966-4.724c.499 3.2.627 6.157.596 8.583-.483-.297-.971-.582-1.465-.853zm1.153-16.67c0-.707.025-1.406.063-2.098l4.899 4.659v7.284l-3.716-3.716c-.314-1.474-.71-2.984-1.206-4.507-.023-.537-.04-1.076-.04-1.622zm1.834-12.113 3.128 3.31v8.603l-4.671-4.442c.32-2.674.876-5.198 1.543-7.471zm9.773 7.252-4.645 4.597v-8.788l3.112-3.112c.657 2.224 1.207 4.689 1.533 7.303zm.318 4.861c0 .543-.017 1.081-.04 1.615-.617 1.894-1.077 3.767-1.42 5.577l-3.502 3.502v-8.145l4.885-4.834c.045.753.077 1.513.077 2.285zm-2.234 13.398c-.886 2.745-1.886 5.064-2.729 6.801v-6.722c.043-.031.093-.049.132-.088l2.857-2.857c-.117.99-.201 1.946-.26 2.866zm-4.729 6.808c-.841-1.732-1.84-4.044-2.725-6.783-.077-1.226-.204-2.522-.391-3.866l3.115 3.115v7.534zm2-32.087v-8.32c.748 1.541 1.618 3.545 2.425 5.895zm-2 .166-2.431-2.573c.808-2.358 1.682-4.368 2.431-5.913zm6.652 28.748c-.01-2.328.138-5.09.602-8.076l1.959 4.706c.021.05.06.086.088.132l-.957 2.321c-.571.29-1.135.596-1.692.917zm11.823-8.226c-.125.001-.251.023-.373.073l-5.567 2.317 2.776-6.734 6.306-2.441c-.228.655-.472 1.31-.741 1.964-.704 1.708-1.522 3.313-2.401 4.821zm-2.277-19.907 1.691 4.064-3.349 8.124-2.542-6.02c1.297-2.291 2.745-4.361 4.2-6.168zm7.789-5.48c.104 1.714.145 3.906-.006 6.394l-3.229 1.452zm-1.612 16.165-6.012 2.327 3.279-7.954 4.154-1.868c-.249 2.356-.697 4.9-1.421 7.495zm-.237-16.927-3.171 7.692-1.318-3.166c1.642-1.866 3.211-3.386 4.489-4.526zm-11.345 14.7 2.674 6.332-3.104 7.53-2.412-5.796c.468-1.969 1.075-3.979 1.9-5.982.294-.713.612-1.404.942-2.084zm-19.585.001c.335.693.656 1.387.942 2.083.823 1.996 1.44 4.003 1.908 5.965l-2.42 5.814-3.104-7.53zm-13.194-13.939 3.235 7.846-3.228-1.452c-.152-2.489-.111-4.68-.007-6.394zm.191 8.67 4.154 1.868 3.279 7.954-6.012-2.327c-.723-2.594-1.172-5.139-1.421-7.495zm2.179 9.933 6.305 2.44 2.776 6.734-5.567-2.317c-.123-.051-.25-.073-.375-.074-.879-1.506-1.694-3.113-2.398-4.819-.269-.654-.512-1.309-.741-1.964zm4.943 9.618 5.217 2.171.624 1.513c-1.401-.622-2.838-1.15-4.306-1.585-.517-.668-1.031-1.368-1.535-2.099zm65.315 18.251c-9.506 17.82-21.353 21.561-29.618 21.561-6.469 0-13.168-2.132-19.911-6.338-.162-.101-.346-.151-.529-.151-.184 0-.368.051-.53.152-4.626 2.892-11.835 6.338-19.9 6.338-8.264 0-20.112-3.741-29.627-21.561-1.784-3.34-.526-7.53 2.805-9.34 4.339-2.356 13.115-6.309 23.133-6.309 8.787 0 16.893 3.19 23.442 9.226.383.353.973.353 1.355 0 6.549-6.036 14.658-9.226 23.452-9.226 10.009 0 18.784 3.953 23.123 6.309 3.339 1.808 4.598 5.997 2.805 9.339z" fill="#3a2c60"/><path d="m100.056 76.304c-.371-1.222-1.276-2.162-2.487-2.578-3.98-1.355-7.833-2.043-11.453-2.043-6.494 0-12.2 2.247-16.96 6.677-1.18 1.097-1.732 2.646-1.515 4.252.215 1.594 1.192 2.987 2.61 3.725 4.24 2.233 8.34 3.365 12.186 3.365 5.078 0 9.765-2.15 13.979-6.392.047-.048.095-.091.143-.139.119-.122.236-.254.355-.379.856-.903 1.694-1.886 2.51-2.965 0 0 0-.001.001-.001 0 0 0 0 0-.001.083-.109.135-.232.205-.347.093-.152.201-.299.271-.459.373-.847.433-1.798.155-2.715zm-28.877 8.262c-.858-.447-1.425-1.257-1.556-2.221-.128-.953.197-1.872.895-2.52 4.441-4.133 9.543-6.142 15.599-6.142 3.399 0 7.036.651 10.805 1.936.593.204 1.038.666 1.221 1.267.182.601.069 1.232-.312 1.732 0 .001-.001.001-.002.002-4.554 6.027-9.732 9.083-15.392 9.083-3.518-.001-7.305-1.055-11.258-3.137z" fill="#3a2c60"/><path d="m107.827 71.035s-.001-.001-.002-.001c-6.603-3.585-29.175-13.646-45.828 5.27-16.642-18.917-39.216-8.856-45.82-5.269-1.879 1.027-2.594 3.402-1.593 5.299 5.803 10.866 13.009 17.373 21.419 19.339 1.861.435 3.705.627 5.51.626 8.448 0 16.047-4.195 20.484-7.274 5.385 3.737 15.425 9.119 25.994 6.647 8.41-1.966 15.616-8.473 21.417-19.338 1.013-1.891.304-4.269-1.581-5.299zm-.183 4.356c-5.519 10.337-12.285 16.505-20.109 18.334-10.193 2.384-20.012-3.198-24.957-6.737-.349-.249-.815-.249-1.164 0-4.945 3.54-14.764 9.118-24.957 6.737-7.824-1.829-14.59-7.998-20.107-18.331-.492-.931-.14-2.1.783-2.604 4.306-2.339 12.083-5.76 20.719-5.76 7.729 0 16.146 2.741 23.374 11.45.19.229.472.361.77.361s.579-.132.77-.361c15.314-18.439 35.945-10.122 44.103-5.69.925.507 1.272 1.673.775 2.601z" fill="#3a2c60"/><path d="m37.877 71.683c-3.612 0-7.462.688-11.445 2.044-1.206.415-2.111 1.353-2.484 2.573-.373 1.222-.147 2.507.622 3.525 4.952 6.554 10.671 9.877 16.998 9.877.961 0 1.939-.071 2.93-.212.09-.013.181-.034.272-.048 1.898-.294 3.845-.835 5.832-1.638.274-.111.551-.239.827-.36.247-.108.493-.207.741-.322.484-.225.971-.469 1.458-.724.042-.022.083-.04.124-.062.001 0 .001-.001.002-.001.104-.055.201-.12.3-.181.069-.043.142-.08.209-.126s.127-.1.191-.15c.092-.07.187-.137.273-.214.023-.02.042-.044.064-.064.699-.641 1.207-1.474 1.448-2.404.05-.192.088-.388.115-.587.215-1.606-.337-3.156-1.516-4.251-4.828-4.491-10.376-6.675-16.961-6.675zm-11.712 6.937c-.378-.5-.489-1.133-.305-1.735.184-.601.629-1.063 1.219-1.266 3.772-1.285 7.405-1.937 10.798-1.937 6.056 0 11.158 2.009 15.599 6.142.523.486.837 1.124.908 1.815.023.23.02.467-.012.705-.129.964-.693 1.774-1.548 2.221-.001 0-.002.001-.002.001-3.95 2.08-7.736 3.135-11.254 3.135-5.668.001-10.85-3.054-15.403-9.081z" fill="#3a2c60"/></svg>