<?xml version="1.0" encoding="utf-8"?>
<!-- Generator: Adobe Illustrator 22.0.1, SVG Export Plug-In . SVG Version: 6.00 Build 0)  -->
<svg version="1.1" id="Слой_1" xmlns="http://www.w3.org/2000/svg" xmlns:xlink="http://www.w3.org/1999/xlink" x="0px" y="0px"
	 viewBox="0 0 991.1 173.5" style="enable-background:new 0 0 991.1 173.5;" xml:space="preserve">
<style type="text/css">
	.st0{fill:#23DBD2;}
	.st1{fill:#B4F476;}
	.st2{fill:#CC5050;}
	.st3{fill:#006697;}
	.st4{enable-background:new    ;}
	.st5{fill:#B7B7B7;}
</style>
<g>
	<g>
		<g>
			<path class="st0" d="M77.6,142c1.4-2.7,4.2-4.6,7.5-4.6s6.1,1.9,7.5,4.6V77.1h7.5l-15-13.9l-15,13.9h7.5V142z"/>
			<path class="st1" d="M49.9,149.5c1.4-2.7,4.2-4.6,7.5-4.6c3.3,0,6.1,1.9,7.5,4.6V98.6h7.5L57.5,84.7L42.4,98.6h7.5V149.5z"/>
			<path class="st2" d="M105.3,134.4c1.4-2.7,4.2-4.6,7.5-4.6s6.1,1.9,7.5,4.6V58.3h7.5l-15.1-13.9L97.6,58.3h7.5v76.1H105.3z"/>
			<circle class="st0" cx="85.1" cy="148.1" r="7.3"/>
			<circle class="st1" cx="57.5" cy="155.6" r="7.3"/>
			<circle class="st2" cx="112.8" cy="140.6" r="7.3"/>
			<path class="st1" d="M74.6,155.9l-4.1,1.1c-1.6,0.4-3.2-0.5-3.7-2.1l0,0c-0.4-1.6,0.5-3.2,2.1-3.7l4.1-1.1
				c1.6-0.4,3.2,0.5,3.7,2.1l0,0C77.2,153.8,76.2,155.5,74.6,155.9z"/>
			<path class="st0" d="M102.6,147.9l-4.1,1.1c-1.6,0.4-3.2-0.5-3.7-2.1l0,0c-0.4-1.6,0.5-3.2,2.1-3.7l4.1-1.1
				c1.6-0.4,3.2,0.5,3.7,2.1l0,0C105.2,145.8,104.2,147.5,102.6,147.9z"/>
		</g>
		<path class="st3" d="M86.7,9.6C44.3,9.6,10,43.9,10,86.3c0,19.6,6.9,36.3,19,49.9c0,0,0.5,0.5,0.9,0.8c1.4,1.6,3.3,2.5,5.4,2.5
			c4.3,0,7.7-4,7.7-9c0-2.5-0.9-4.8-2.3-6.4l0,0c-9.2-10.5-13.5-22.8-13.5-37.8c0-32.9,26.7-59.6,59.6-59.6s59.6,26.7,59.6,59.6
			c0,15.8-6.1,30.1-16.1,40.7c-0.2,0.2-0.4,0.5-0.6,0.8c-1.4,1.6-2.3,3.9-2.3,6.4c0,5,3.5,9,7.7,9c1.9,0,3.7-0.8,5-2.2
			c0.9-0.8,1.9-1.6,2.7-2.4c12.9-13.7,20.7-32.2,20.7-52.4C163.4,43.9,129.1,9.6,86.7,9.6z"/>
	</g>
	<g>
		<g class="st4">
			<path d="M200.7,90.4v-3.8h3c0.5,0,1,0,1.4-0.1c0.4-0.1,0.8-0.3,1.2-0.6c0.3-0.3,0.6-0.8,0.8-1.3c0.2-0.6,0.3-1.3,0.3-2.3V47.5
				c0-1-0.1-1.9-0.3-2.5c-0.2-0.6-0.5-1.1-0.8-1.4c-0.3-0.3-0.7-0.5-1.2-0.7c-0.4-0.1-0.9-0.2-1.4-0.2h-3V39h23.7v3.8H222
				c-0.5,0-1,0.1-1.4,0.2c-0.4,0.1-0.8,0.3-1.2,0.7c-0.3,0.3-0.6,0.8-0.8,1.4c-0.2,0.6-0.3,1.4-0.3,2.5V86h15.9V47.5
				c0-1-0.1-1.9-0.3-2.5c-0.2-0.6-0.5-1.1-0.8-1.4c-0.3-0.3-0.7-0.5-1.2-0.7c-0.4-0.1-0.9-0.2-1.4-0.2h-2.4V39h23v3.8h-2.3
				c-0.5,0-1,0-1.4,0.1c-0.4,0.1-0.8,0.3-1.2,0.6c-0.3,0.3-0.6,0.7-0.8,1.3c-0.2,0.6-0.3,1.3-0.3,2.3V86H261V47.5
				c0-1-0.1-1.9-0.3-2.5c-0.2-0.6-0.5-1.1-0.8-1.4c-0.3-0.3-0.7-0.5-1.2-0.7s-0.9-0.2-1.4-0.2h-2.4V39h23.7v3.8h-3
				c-0.5,0-1,0.1-1.4,0.2c-0.4,0.1-0.8,0.3-1.2,0.7c-0.3,0.3-0.6,0.8-0.8,1.4c-0.2,0.6-0.3,1.4-0.3,2.5v34.7c0,0.9,0.1,1.7,0.3,2.3
				c0.2,0.6,0.5,1,0.8,1.3c0.3,0.3,0.7,0.5,1.2,0.6c0.4,0.1,0.9,0.1,1.4,0.1h3v3.8H200.7z"/>
			<path d="M327.4,90.4c-1.9,0-3.5-0.1-4.8-0.4s-2.6-0.7-3.6-1.3s-1.9-1.3-2.7-2.1c-0.8-0.8-1.4-1.8-2-3l-6.8-12.4
				c-0.6-1.1-1.1-1.9-1.6-2.5s-1-1-1.6-1.3c-0.6-0.3-1.2-0.5-1.8-0.6s-1.5-0.1-2.4-0.1v15.3c0,1,0.1,1.9,0.3,2.5
				c0.2,0.6,0.5,1.1,0.8,1.4c0.3,0.3,0.7,0.5,1.2,0.7s0.9,0.2,1.5,0.2h3v3.8h-24.1v-3.8h3c0.5,0,1,0,1.4-0.1
				c0.4-0.1,0.8-0.3,1.2-0.6c0.3-0.3,0.6-0.7,0.8-1.3c0.2-0.6,0.3-1.3,0.3-2.3V47.2c0-1-0.1-1.7-0.3-2.3c-0.2-0.6-0.5-1-0.8-1.3
				c-0.3-0.3-0.7-0.5-1.2-0.6c-0.4-0.1-0.9-0.2-1.4-0.2h-3V39h24.1v3.8h-3c-0.5,0-1,0.1-1.5,0.2s-0.8,0.3-1.2,0.7
				c-0.3,0.3-0.6,0.8-0.8,1.4c-0.2,0.6-0.3,1.4-0.3,2.5v15c0.8,0,1.5,0,2.1-0.1c0.6-0.1,1.1-0.2,1.5-0.3s0.9-0.4,1.2-0.6
				c0.4-0.3,0.8-0.6,1.1-1c0.7-0.7,1.5-1.9,2.6-3.6s2.2-3.9,3.6-6.6c1.1-2.1,2-3.9,3-5.4c0.9-1.5,1.9-2.7,2.9-3.6
				c1-0.9,2.1-1.6,3.2-2.1c1.1-0.4,2.4-0.7,3.9-0.7c2,0,3.5,0.4,4.3,1.3s1.3,1.9,1.3,3.3c0,1.5-0.3,2.7-0.9,3.6s-1.5,1.5-2.6,1.7
				c-0.1-0.5-0.2-1-0.5-1.4s-0.5-0.8-0.8-1.2c-0.3-0.3-0.7-0.6-1.2-0.8s-1-0.3-1.6-0.3c-0.7,0-1.4,0.1-2,0.4s-1.2,0.8-1.7,1.4
				s-1.1,1.5-1.7,2.5s-1.3,2.2-2,3.7c-0.8,1.5-1.5,2.8-2.1,3.9c-0.6,1.1-1.2,2-1.7,2.8c-0.5,0.8-1.1,1.5-1.6,2
				c-0.5,0.6-1.1,1.1-1.6,1.5c1.1,0,2.1,0.2,3,0.5c1,0.3,1.9,0.8,2.7,1.4c0.8,0.6,1.6,1.3,2.3,2.1s1.3,1.8,1.9,2.8l5.8,10.4
				c0.7,1.1,1.3,2.1,1.9,3c0.6,0.8,1.2,1.5,1.8,2c0.6,0.5,1.2,0.9,1.9,1.1c0.6,0.2,1.3,0.4,2.1,0.4h0.5v3.8H327.4z"/>
			<path d="M385.2,64.7c0,4-0.5,7.6-1.6,10.8c-1.1,3.3-2.6,6-4.7,8.4s-4.6,4.1-7.6,5.4c-3,1.3-6.5,1.9-10.4,1.9
				c-4.1,0-7.7-0.6-10.7-1.9s-5.6-3.1-7.6-5.4c-2-2.3-3.5-5.1-4.5-8.4c-1-3.3-1.5-6.9-1.5-10.9S337,57,338,53.7c1-3.2,2.5-6,4.6-8.3
				c2-2.3,4.6-4.1,7.6-5.3s6.6-1.9,10.8-1.9c3.9,0,7.3,0.6,10.4,1.9c3,1.3,5.5,3,7.6,5.3c2.1,2.3,3.6,5.1,4.7,8.3
				C384.7,57,385.2,60.7,385.2,64.7z M348.6,64.7c0,3.4,0.2,6.5,0.7,9.2c0.4,2.7,1.2,5,2.1,6.8s2.3,3.3,3.8,4.3
				c1.6,1,3.5,1.5,5.7,1.5c2.2,0,4.2-0.5,5.7-1.5c1.6-1,2.8-2.4,3.8-4.3c1-1.9,1.7-4.1,2.1-6.8c0.4-2.7,0.7-5.8,0.7-9.2
				s-0.2-6.5-0.7-9.2c-0.4-2.7-1.1-5-2.1-6.8c-1-1.9-2.2-3.3-3.8-4.3s-3.4-1.5-5.7-1.5c-2.2,0-4.2,0.5-5.7,1.5
				c-1.6,1-2.8,2.4-3.8,4.3s-1.7,4.1-2.1,6.8C348.8,58.1,348.6,61.2,348.6,64.7z"/>
			<path d="M414.7,90.4v-3.8h3.1c0.5,0,1-0.1,1.4-0.2s0.8-0.3,1.2-0.7c0.3-0.3,0.6-0.8,0.8-1.4c0.2-0.6,0.3-1.4,0.3-2.5V42.8h-9.4
				c-0.1,3-0.4,6.2-0.6,9.5s-0.6,6.6-1.1,9.8c-0.4,3.3-0.9,6.4-1.5,9.4s-1.2,5.7-1.9,8.1c-0.7,2.2-1.4,4-2.2,5.5
				c-0.8,1.5-1.7,2.6-2.7,3.5c-1,0.9-2.1,1.5-3.3,1.8c-1.2,0.4-2.4,0.5-3.8,0.5c-1.7,0-3.1-0.5-4.2-1.4s-1.6-2.3-1.6-4
				c0-0.7,0.1-1.4,0.3-2c0.2-0.6,0.5-1.1,0.8-1.5c0.3-0.4,0.7-0.7,1.1-1s0.9-0.3,1.3-0.3c0,0.9,0.3,1.7,0.9,2.4c0.6,0.7,1.3,1,2.3,1
				c0.8,0,1.5-0.1,2.2-0.4s1.3-0.8,1.9-1.5c0.6-0.7,1.1-1.7,1.6-2.9c0.5-1.2,1-2.7,1.5-4.6c0.4-1.5,0.8-3.3,1.2-5.2s0.7-3.8,1-5.8
				c0.3-2,0.6-3.9,0.8-5.9c0.2-1.9,0.4-3.7,0.6-5.3c0.2-1.6,0.3-3,0.3-4.3s0.1-2.1,0.1-2.6c0-0.7-0.2-1.2-0.5-1.6
				c-0.3-0.4-0.7-0.7-1.2-0.9s-1.1-0.3-1.8-0.4c-0.7,0-1.4-0.1-2.2-0.1h-1.1V39h39.4v3.8h-3c-0.5,0-1,0.1-1.4,0.2
				c-0.4,0.1-0.8,0.3-1.2,0.7c-0.3,0.3-0.6,0.8-0.8,1.4c-0.2,0.6-0.3,1.4-0.3,2.4v34.8c0,1,0.1,1.7,0.3,2.3c0.2,0.6,0.5,1,0.8,1.3
				c0.3,0.3,0.7,0.5,1.2,0.6c0.4,0.1,0.9,0.1,1.4,0.1h3v3.8H414.7z"/>
			<path d="M457.2,73.5l-2.1,6.2c-0.2,0.6-0.4,1.3-0.6,2.1s-0.3,1.5-0.3,2.1c0,0.5,0.1,0.9,0.3,1.2c0.2,0.4,0.4,0.6,0.7,0.9
				s0.7,0.4,1,0.5s0.8,0.2,1.2,0.2h3v3.8h-18.7v-3.8h0.9c0.6,0,1.2-0.1,1.7-0.2s1-0.4,1.5-0.8s0.9-0.9,1.3-1.6
				c0.4-0.7,0.8-1.6,1.2-2.6L464,39h9.9l15,42.4c0.4,1,0.7,1.8,1.1,2.5s0.8,1.2,1.3,1.6s0.9,0.7,1.5,0.8s1.1,0.2,1.6,0.2h1.3v3.8
				H472v-3.8h2.8c0.4,0,0.7-0.1,1.1-0.2s0.7-0.3,1-0.5s0.5-0.5,0.7-0.9s0.3-0.8,0.3-1.3c0-0.6-0.1-1.1-0.2-1.7s-0.3-1-0.4-1.4
				l-2.5-7.2H457.2z M469.5,57.3c-0.3-0.8-0.5-1.7-0.8-2.6s-0.5-1.8-0.8-2.8s-0.5-1.9-0.8-2.8s-0.5-1.8-0.7-2.7
				c-0.2,0.7-0.5,1.5-0.7,2.4s-0.6,1.8-0.9,2.7s-0.6,1.8-0.9,2.7s-0.6,1.8-0.9,2.6l-4.3,12.2h14.6L469.5,57.3z"/>
			<path d="M553.3,54.9L534.5,79v2.9c0,1,0.1,1.9,0.3,2.5s0.5,1.1,0.8,1.4s0.7,0.5,1.2,0.7s0.9,0.2,1.4,0.2h3.1v3.8h-24.9v-3.8h3
				c0.5,0,1-0.1,1.4-0.2s0.8-0.3,1.2-0.7s0.6-0.8,0.8-1.4s0.3-1.4,0.3-2.5V47.2c0-1-0.1-1.7-0.3-2.3s-0.5-1-0.8-1.3
				s-0.7-0.5-1.2-0.6s-0.9-0.2-1.4-0.2h-3V39h24.9v3.8h-3.1c-0.5,0-1,0.1-1.4,0.2s-0.8,0.3-1.2,0.7s-0.6,0.8-0.8,1.4
				s-0.3,1.4-0.3,2.5v25.3l18.8-24.1v-1.2c0-1-0.1-1.9-0.3-2.5s-0.5-1.1-0.8-1.4s-0.7-0.5-1.2-0.7s-0.9-0.2-1.4-0.2h-3.1V39h24.9
				v3.8h-3c-0.5,0-1,0.1-1.4,0.2s-0.8,0.3-1.2,0.7s-0.6,0.8-0.8,1.4s-0.3,1.4-0.3,2.5v34.8c0,0.9,0.1,1.7,0.3,2.3s0.5,1,0.8,1.3
				s0.7,0.5,1.2,0.6s0.9,0.1,1.4,0.1h3v3.8h-24.9v-3.8h3.1c0.5,0,1-0.1,1.4-0.2s0.8-0.3,1.2-0.7s0.6-0.8,0.8-1.4s0.3-1.4,0.3-2.5
				V54.9z"/>
			<path d="M605.5,90.4v-3.8h3.1c0.5,0,1-0.1,1.4-0.2s0.8-0.3,1.2-0.7s0.6-0.8,0.8-1.4s0.3-1.4,0.3-2.5V65.8h-18.8v16.1
				c0,1,0.1,1.9,0.3,2.5s0.5,1.1,0.8,1.4s0.7,0.5,1.2,0.7s0.9,0.2,1.4,0.2h3.1v3.8h-24.9v-3.8h3c0.5,0,1-0.1,1.4-0.2
				s0.8-0.3,1.2-0.7s0.6-0.8,0.8-1.4s0.3-1.4,0.3-2.5V47.3c0-1-0.1-1.7-0.3-2.3s-0.5-1-0.8-1.3s-0.7-0.5-1.2-0.6s-0.9-0.2-1.4-0.2
				h-3V39h24.9v3.8h-3.1c-0.5,0-1,0.1-1.4,0.2s-0.8,0.3-1.2,0.7s-0.6,0.8-0.8,1.4s-0.3,1.4-0.3,2.5v13.9h18.8V47.5
				c0-1-0.1-1.9-0.3-2.5s-0.5-1.1-0.8-1.4s-0.7-0.5-1.2-0.7s-0.9-0.2-1.4-0.2h-3.1V39h24.9v3.8h-3c-0.5,0-1,0.1-1.4,0.2
				s-0.8,0.3-1.2,0.7s-0.6,0.8-0.8,1.4s-0.3,1.4-0.3,2.5v34.8c0,0.9,0.1,1.7,0.3,2.3s0.5,1,0.8,1.3s0.7,0.5,1.2,0.6s0.9,0.1,1.4,0.1
				h3v3.8H605.5z"/>
			<path d="M676,52.1c0,1.6-0.2,3-0.7,4.2s-1,2.2-1.8,3.1s-1.8,1.6-2.9,2.2s-2.3,1.1-3.7,1.5v0.4c1.7,0.4,3.2,1,4.6,1.7
				s2.6,1.6,3.6,2.7s1.8,2.3,2.3,3.7s0.8,3,0.8,4.7c0,4.7-1.7,8.3-5.2,10.6s-8.6,3.5-15.4,3.5h-23.2v-3.8h3c0.5,0,1-0.1,1.5-0.2
				s0.8-0.3,1.2-0.7s0.6-0.8,0.8-1.4s0.3-1.4,0.3-2.5V47.4c0-1-0.1-1.7-0.3-2.3s-0.5-1.1-0.8-1.4s-0.7-0.6-1.2-0.7s-0.9-0.2-1.5-0.2
				h-3V39h21c6.8,0,12,1.1,15.4,3.2S676,47.6,676,52.1z M652.4,61.4h2.7c1.7,0,3.1-0.2,4.2-0.5s2-0.9,2.7-1.6s1.1-1.7,1.4-2.9
				s0.4-2.6,0.4-4.2s-0.2-3-0.5-4.1s-0.8-2-1.5-2.7s-1.6-1.2-2.7-1.5s-2.5-0.4-4.1-0.4h-2.6V61.4z M652.4,86h4.8
				c1.6,0,3-0.2,4.1-0.5s2-0.9,2.7-1.7s1.2-1.8,1.5-3.1s0.5-2.8,0.5-4.6c0-1.8-0.1-3.3-0.4-4.6s-0.8-2.4-1.4-3.2s-1.6-1.5-2.7-1.9
				s-2.5-0.6-4.1-0.6h-4.9V86z"/>
			<path d="M700.9,86h14.4c0.7,0,1.3-0.1,1.9-0.4s1-0.7,1.3-1.1s0.7-1.1,0.9-1.7s0.4-1.4,0.5-2.2l0.6-3.4h5l-0.5,13.3h-42.2v-3.8h3
				c0.5,0,1,0,1.4-0.1s0.8-0.3,1.2-0.6s0.6-0.7,0.8-1.3s0.3-1.3,0.3-2.3V47.5c0-1-0.1-1.9-0.3-2.5s-0.4-1.1-0.8-1.4
				s-0.7-0.5-1.2-0.7s-0.9-0.2-1.5-0.2h-3V39h40l0.3,13.3h-5l-0.4-3.4c-0.2-1.8-0.6-3.1-1.3-4s-1.8-1.4-3.3-1.4h-12.1v18h17.1v4.3
				h-17.1V86z"/>
			<path d="M758.3,85.4c1.8,0,3.3-0.2,4.7-0.6s2.6-0.9,3.7-1.6s2-1.4,2.8-2.2s1.5-1.6,2.1-2.4c0.4,0.3,0.7,0.7,0.9,1.3
				s0.3,1.2,0.3,1.8c0,1-0.3,2.1-0.8,3.2s-1.4,2.1-2.7,3.1s-2.9,1.7-5,2.3s-4.7,0.9-7.7,0.9c-4.2,0-7.8-0.6-10.9-1.9
				s-5.7-3.1-7.8-5.4s-3.6-5.1-4.6-8.4s-1.5-6.9-1.5-10.8c0-3.9,0.5-7.5,1.6-10.7s2.6-6,4.7-8.3s4.7-4.1,7.8-5.4s6.7-1.9,10.8-1.9
				c2.8,0,5.2,0.2,7.2,0.7s3.8,1,5.1,1.8s2.4,1.6,3.1,2.7s1,2.1,1,3.3c0,0.9-0.2,1.7-0.6,2.5s-1,1.4-1.7,2s-1.7,1-2.8,1.3
				s-2.4,0.5-3.9,0.5c0-1.2-0.1-2.4-0.4-3.6s-0.7-2.3-1.3-3.2s-1.4-1.7-2.4-2.3s-2.3-0.9-3.8-0.9c-2.3,0-4.2,0.5-5.8,1.4
				s-2.8,2.4-3.8,4.2s-1.6,4.1-2.1,6.8s-0.6,5.8-0.6,9.3s0.3,6.5,0.8,9.1s1.3,4.8,2.5,6.5s2.6,3,4.5,3.9S755.6,85.4,758.3,85.4z"/>
			<path d="M805,81.9c0,1,0.1,1.9,0.3,2.5s0.5,1.1,0.8,1.4s0.7,0.5,1.2,0.7s0.9,0.2,1.4,0.2h3v3.8h-24.9v-3.8h3c0.5,0,1-0.1,1.5-0.2
				s0.8-0.3,1.2-0.7s0.6-0.8,0.8-1.4s0.3-1.4,0.3-2.5V43.4h-5.8c-1.1,0-2,0.1-2.7,0.4s-1.3,0.6-1.8,1s-0.8,1-1,1.6s-0.4,1.3-0.5,2.1
				l-0.5,4.5h-4.9l0.4-14h44.9l0.4,14h-4.8l-0.5-4.5c-0.1-0.8-0.3-1.5-0.5-2.1s-0.6-1.2-1-1.6s-1-0.8-1.8-1s-1.6-0.4-2.7-0.4H805
				V81.9z"/>
			<path d="M875.5,64.7c0,4-0.5,7.6-1.6,10.8s-2.6,6-4.7,8.4s-4.6,4.1-7.6,5.4s-6.5,1.9-10.4,1.9c-4.1,0-7.7-0.6-10.7-1.9
				s-5.6-3.1-7.6-5.4s-3.5-5.1-4.5-8.4s-1.5-6.9-1.5-10.9s0.5-7.6,1.5-10.8s2.5-6,4.6-8.3s4.6-4.1,7.6-5.3s6.7-1.9,10.8-1.9
				c3.9,0,7.3,0.6,10.4,1.9s5.5,3,7.6,5.3s3.6,5.1,4.7,8.3S875.5,60.7,875.5,64.7z M838.9,64.7c0,3.4,0.2,6.5,0.7,9.2s1.2,5,2.1,6.8
				s2.3,3.3,3.8,4.3s3.5,1.5,5.7,1.5c2.2,0,4.2-0.5,5.7-1.5s2.8-2.4,3.8-4.3s1.7-4.1,2.1-6.8s0.7-5.8,0.7-9.2s-0.2-6.5-0.7-9.2
				s-1.1-5-2.1-6.8s-2.2-3.3-3.8-4.3s-3.4-1.5-5.7-1.5c-2.2,0-4.2,0.5-5.7,1.5s-2.8,2.4-3.8,4.3s-1.7,4.1-2.1,6.8
				S838.9,61.2,838.9,64.7z"/>
			<path d="M923.3,54.3c0,2.2-0.4,4.2-1.1,6.2s-2,3.8-3.7,5.3s-3.9,2.7-6.6,3.6s-6,1.4-9.9,1.4h-2.5v11.5c0,0.9,0.1,1.7,0.3,2.3
				s0.5,1,0.8,1.3s0.8,0.5,1.2,0.6s0.9,0.1,1.4,0.1h4.4v3.8h-26.3v-3.8h3c0.5,0,1-0.1,1.5-0.2s0.8-0.3,1.2-0.7s0.6-0.8,0.8-1.4
				s0.3-1.4,0.3-2.5V47.2c0-1-0.1-1.7-0.3-2.3s-0.5-1-0.8-1.3s-0.7-0.5-1.2-0.6s-0.9-0.2-1.4-0.2h-3V39h22.1c3.3,0,6.2,0.4,8.7,1.1
				s4.5,1.7,6.1,3s2.8,2.9,3.6,4.8S923.3,51.9,923.3,54.3z M899.6,66.6h1.8c1.8,0,3.3-0.2,4.5-0.7s2.3-1.1,3-2.1s1.4-2.2,1.7-3.7
				s0.5-3.4,0.5-5.5c0-1.9-0.2-3.6-0.5-5s-0.8-2.6-1.5-3.5s-1.6-1.6-2.7-2.1s-2.5-0.7-4.1-0.7h-2.8V66.6z"/>
			<path d="M941.1,73.5l-2.1,6.2c-0.2,0.6-0.4,1.3-0.6,2.1s-0.3,1.5-0.3,2.1c0,0.5,0.1,0.9,0.3,1.2s0.4,0.6,0.7,0.9s0.7,0.4,1,0.5
				s0.8,0.2,1.2,0.2h3v3.8h-18.7v-3.8h0.9c0.6,0,1.2-0.1,1.7-0.2s1-0.4,1.5-0.8s0.9-0.9,1.3-1.6s0.8-1.6,1.2-2.6L948,39h9.9l15,42.4
				c0.4,1,0.7,1.8,1.1,2.5s0.8,1.2,1.3,1.6s0.9,0.7,1.5,0.8s1.1,0.2,1.6,0.2h1.3v3.8h-23.8v-3.8h2.8c0.4,0,0.7-0.1,1.1-0.2
				s0.7-0.3,1-0.5s0.5-0.5,0.7-0.9s0.3-0.8,0.3-1.3c0-0.6-0.1-1.1-0.2-1.7s-0.3-1-0.4-1.4l-2.5-7.2H941.1z M953.4,57.3
				c-0.3-0.8-0.5-1.7-0.8-2.6s-0.5-1.8-0.8-2.8s-0.5-1.9-0.8-2.8s-0.5-1.8-0.7-2.7c-0.2,0.7-0.5,1.5-0.7,2.4s-0.6,1.8-0.9,2.7
				s-0.6,1.8-0.9,2.7s-0.6,1.8-0.9,2.6l-4.3,12.2h14.6L953.4,57.3z"/>
		</g>
		<g class="st4">
			<path class="st5" d="M230.4,104c0,0.5-0.1,0.9-0.2,1.2s-0.3,0.7-0.5,1s-0.5,0.5-0.7,0.7s-0.6,0.3-0.9,0.4c-0.1-0.4-0.2-0.7-0.3-1
				s-0.3-0.6-0.6-0.9s-0.5-0.4-0.8-0.6s-0.7-0.2-1.1-0.2c-0.9,0-1.8,0.5-2.7,1.4s-1.8,2.4-2.8,4.3c-0.5,1-0.9,1.9-1.3,2.6
				s-0.7,1.4-1.1,2s-0.6,1.1-0.9,1.5s-0.6,0.8-1,1.1c0.8,0,1.6,0.1,2.2,0.3s1.1,0.5,1.6,0.8s0.9,0.8,1.2,1.3s0.7,1.1,1.1,1.7
				l4.5,8.1c0.8,1.4,1.6,2.3,2.4,2.9s1.9,0.9,2.9,0.9h0.1v2h-0.7c-1.5,0-2.8-0.1-3.8-0.2s-1.9-0.4-2.6-0.7s-1.3-0.8-1.8-1.4
				s-1-1.3-1.5-2.3l-4.4-8.3c-0.4-0.7-0.7-1.3-1.1-1.7s-0.8-0.8-1.3-1s-1.1-0.4-1.8-0.4s-1.7-0.1-2.8-0.1v10.7
				c0,0.8,0.1,1.4,0.3,1.8s0.5,0.8,0.8,1s0.8,0.4,1.3,0.5s1,0.1,1.5,0.1h0.6v2h-14v-2h0.6c0.5,0,1,0,1.5-0.1s0.9-0.2,1.3-0.4
				s0.6-0.5,0.9-1s0.3-1,0.3-1.7v-23.8c0-0.7-0.1-1.3-0.3-1.7s-0.5-0.8-0.9-1s-0.8-0.4-1.3-0.5s-1-0.1-1.5-0.1h-0.6v-2h14v2h-0.6
				c-0.5,0-1,0-1.5,0.1s-0.9,0.2-1.3,0.5s-0.6,0.6-0.8,1s-0.3,1.1-0.3,1.8v10.5c0.8,0,1.4,0,1.8-0.1s0.9-0.1,1.2-0.3
				s0.6-0.3,0.8-0.5s0.4-0.4,0.6-0.7c0.4-0.5,0.9-1.3,1.5-2.5s1.3-2.7,2.2-4.4c0.6-1.2,1.2-2.3,1.8-3.2s1.3-1.8,1.9-2.5
				s1.4-1.2,2.2-1.6s1.6-0.6,2.6-0.6c0.7,0,1.3,0.1,1.8,0.2s0.9,0.4,1.2,0.6s0.5,0.6,0.7,1S230.4,103.6,230.4,104z"/>
			<path class="st5" d="M245.2,111.8c-0.9,0-1.7,0.1-2.2,0.4s-1,0.6-1.3,1.1s-0.5,1-0.6,1.7s-0.2,1.3-0.2,2.1c-1.3,0-2.3-0.2-3-0.7
				s-1-1.2-1-2.3c0-0.8,0.2-1.5,0.7-2.1s1.1-1.1,1.9-1.4s1.7-0.6,2.8-0.8s2.2-0.3,3.4-0.3c1.5,0,2.8,0.1,3.8,0.4s2,0.8,2.7,1.4
				s1.3,1.5,1.7,2.6s0.6,2.3,0.6,3.9v12.4c0,0.7,0.1,1.2,0.2,1.7s0.3,0.8,0.5,1.1s0.5,0.5,0.9,0.6s0.8,0.2,1.4,0.2h0.1v2h-6.5
				l-0.8-4.1h-0.4c-0.5,0.7-1,1.3-1.5,1.9s-1,1-1.5,1.5s-1.2,0.7-1.9,0.9s-1.6,0.3-2.6,0.3c-1.1,0-2.1-0.2-3-0.5s-1.7-0.8-2.4-1.4
				s-1.2-1.4-1.6-2.4s-0.6-2.1-0.6-3.4c0-2.5,0.9-4.4,2.7-5.7s4.6-1.9,8.2-2l4-0.1v-2.9c0-0.9,0-1.7-0.1-2.4s-0.3-1.4-0.6-1.9
				s-0.8-0.9-1.3-1.2S246.1,111.8,245.2,111.8z M239.4,128.6c0,1.5,0.3,2.6,0.9,3.4s1.6,1.1,2.9,1.1c1,0,1.8-0.2,2.6-0.5
				s1.5-0.8,2-1.3s1-1.3,1.3-2.1s0.4-1.8,0.4-2.8v-3.9l-3.1,0.1c-1.4,0.1-2.5,0.2-3.4,0.5s-1.7,0.7-2.2,1.1s-1,1.1-1.2,1.8
				S239.4,127.7,239.4,128.6z"/>
			<path class="st5" d="M286.7,135.6c-1.2,0-2.3-0.1-3.1-0.2s-1.6-0.4-2.3-0.7s-1.2-0.8-1.7-1.4s-1-1.3-1.5-2.3l-2.4-4.6
				c-0.4-0.7-0.7-1.3-1.1-1.7s-0.7-0.8-1.2-1s-1-0.4-1.6-0.5s-1.4-0.1-2.3-0.1v7.2c0,0.7,0.1,1.3,0.3,1.7s0.5,0.8,0.9,1
				s0.8,0.4,1.3,0.4s1,0.1,1.5,0.1h0.1v2h-13.4v-2h0.9c0.5,0,1,0,1.5-0.1s0.9-0.2,1.3-0.5s0.6-0.6,0.8-1s0.3-1.1,0.3-1.8v-15
				c0-0.7-0.1-1.3-0.3-1.7s-0.5-0.8-0.9-1s-0.8-0.4-1.3-0.5s-1-0.1-1.5-0.1h-0.9v-2h13.4v2h-0.1c-0.5,0-1,0-1.5,0.1
				s-0.9,0.2-1.3,0.4s-0.6,0.5-0.9,0.9s-0.3,0.9-0.3,1.6v6c0.5,0,0.9,0,1.2-0.1s0.6-0.1,0.9-0.2s0.5-0.2,0.7-0.3s0.4-0.3,0.6-0.5
				c0.4-0.4,0.9-1,1.4-1.8s1.2-1.9,2.1-3.1c0.5-0.8,1.1-1.6,1.5-2.3s1-1.2,1.5-1.7s1.1-0.8,1.8-1.1s1.4-0.4,2.4-0.4
				c1.4,0,2.4,0.3,3.1,0.8s1,1.2,1,2.1c0,0.5-0.1,0.9-0.2,1.2s-0.3,0.6-0.5,0.9s-0.5,0.5-0.7,0.6s-0.6,0.3-0.9,0.3
				c-0.1-0.4-0.2-0.7-0.3-1s-0.3-0.6-0.5-0.9s-0.5-0.4-0.8-0.6s-0.7-0.2-1.1-0.2c-0.8,0-1.5,0.3-2.2,0.9s-1.4,1.5-2.2,2.8
				c-0.4,0.6-0.8,1.2-1.2,1.7s-0.7,0.9-1,1.3s-0.6,0.7-0.9,1s-0.6,0.5-0.9,0.7c0.8,0,1.4,0.1,2,0.3s1.1,0.5,1.5,0.8s0.9,0.8,1.3,1.3
				s0.7,1.1,1.1,1.7l2.5,4.4c0.8,1.4,1.6,2.3,2.4,2.9s1.9,0.9,2.9,0.9h0.1v2H286.7z"/>
			<path class="st5" d="M312.1,133.7c1.8,0,3.2-0.5,4.1-1.5s1.3-2.4,1.3-4.1c0-1.6-0.5-2.8-1.5-3.6s-2.4-1.1-4.1-1.1h-4.5v-2.6h4.5
				c0.8,0,1.5-0.1,2.1-0.4s1.1-0.6,1.5-1s0.7-0.9,0.9-1.5s0.3-1.2,0.3-1.8c0-0.6-0.1-1.2-0.2-1.8s-0.4-1-0.7-1.5s-0.8-0.7-1.3-1
				s-1.2-0.4-2-0.4c-1.6,0-2.8,0.5-3.7,1.4s-1.3,2.2-1.3,3.8c-1.3,0-2.2-0.2-2.8-0.7s-0.9-1.2-0.9-2.2c0-0.6,0.2-1.1,0.5-1.7
				s0.9-1,1.6-1.4s1.6-0.7,2.8-1s2.4-0.4,4-0.4c1.4,0,2.6,0.1,3.7,0.4s2,0.7,2.8,1.2s1.3,1.2,1.7,2s0.6,1.7,0.6,2.6
				c0,0.8-0.1,1.5-0.4,2.1s-0.6,1.3-1,1.8s-0.9,1-1.5,1.4s-1.2,0.7-2,0.9v0.3c0.8,0.2,1.6,0.5,2.3,0.8s1.3,0.7,1.8,1.2
				s0.9,1.1,1.2,1.7s0.4,1.4,0.4,2.3c0,1.1-0.2,2.1-0.6,3.1s-1,1.8-1.8,2.5s-1.9,1.3-3.2,1.7s-2.9,0.6-4.7,0.6
				c-1.7,0-3.1-0.2-4.2-0.5s-2-0.7-2.6-1.3s-1.1-1.1-1.3-1.7s-0.4-1.2-0.4-1.8c0-2,1.2-3.1,3.5-3.1c0,0.8,0.1,1.6,0.3,2.4
				s0.5,1.4,1,1.9s1,0.9,1.7,1.3S311.2,133.7,312.1,133.7z"/>
			<path class="st5" d="M337.6,111.8c-0.9,0-1.7,0.1-2.2,0.4s-1,0.6-1.3,1.1s-0.5,1-0.6,1.7s-0.2,1.3-0.2,2.1c-1.3,0-2.3-0.2-3-0.7
				s-1-1.2-1-2.3c0-0.8,0.2-1.5,0.7-2.1s1.1-1.1,1.9-1.4s1.7-0.6,2.8-0.8s2.2-0.3,3.4-0.3c1.5,0,2.8,0.1,3.8,0.4s2,0.8,2.7,1.4
				s1.3,1.5,1.7,2.6s0.6,2.3,0.6,3.9v12.4c0,0.7,0.1,1.2,0.2,1.7s0.3,0.8,0.5,1.1s0.5,0.5,0.9,0.6s0.8,0.2,1.4,0.2h0.1v2h-6.5
				l-0.8-4.1h-0.4c-0.5,0.7-1,1.3-1.5,1.9s-1,1-1.5,1.5s-1.2,0.7-1.9,0.9s-1.6,0.3-2.6,0.3c-1.1,0-2.1-0.2-3-0.5s-1.7-0.8-2.4-1.4
				s-1.2-1.4-1.6-2.4s-0.6-2.1-0.6-3.4c0-2.5,0.9-4.4,2.7-5.7s4.6-1.9,8.2-2l4-0.1v-2.9c0-0.9,0-1.7-0.1-2.4s-0.3-1.4-0.6-1.9
				s-0.8-0.9-1.3-1.2S338.6,111.8,337.6,111.8z M331.8,128.6c0,1.5,0.3,2.6,0.9,3.4s1.6,1.1,2.9,1.1c1,0,1.8-0.2,2.6-0.5
				s1.5-0.8,2-1.3s1-1.3,1.3-2.1s0.4-1.8,0.4-2.8v-3.9l-3.1,0.1c-1.4,0.1-2.5,0.2-3.4,0.5s-1.7,0.7-2.2,1.1s-1,1.1-1.2,1.8
				S331.8,127.7,331.8,128.6z"/>
			<path class="st5" d="M378.6,122.7c0,2.3-0.2,4.3-0.6,6s-1.1,3.1-1.9,4.2s-1.9,1.9-3.1,2.4s-2.6,0.8-4.2,0.8
				c-0.9,0-1.8-0.1-2.5-0.3s-1.4-0.5-2-0.9s-1.1-0.8-1.6-1.3s-0.9-1.1-1.2-1.7h-0.2c0,0.8,0.1,1.6,0.1,2.3c0,0.3,0,0.6,0,0.9
				s0,0.6,0,0.9s0,0.5,0,0.8s0,0.4,0,0.5v4.6c0,0.7,0.1,1.3,0.3,1.7s0.5,0.8,0.9,1s0.8,0.4,1.3,0.4s1,0.1,1.5,0.1h0.1v2h-12.9v-2
				h0.4c0.5,0,1.1,0,1.5-0.1s0.9-0.2,1.2-0.5s0.6-0.6,0.8-1.1s0.3-1.1,0.3-1.8v-26.5c0-0.7-0.1-1.3-0.3-1.7s-0.5-0.8-0.9-1
				s-0.8-0.4-1.3-0.5s-1-0.1-1.5-0.1h-0.6v-2h8.4l0.5,4.3h0.2c0.4-0.7,0.8-1.4,1.2-2s1-1.1,1.6-1.5s1.3-0.7,2-1s1.6-0.3,2.5-0.3
				c1.6,0,3,0.3,4.2,0.8s2.2,1.3,3.1,2.4s1.5,2.5,1.9,4.1S378.6,120.4,378.6,122.7z M368,112.4c-1.2,0-2.3,0.2-3.1,0.6s-1.5,1-2,1.9
				s-0.9,1.9-1.1,3.2s-0.3,2.8-0.3,4.5c0,1.7,0.1,3.1,0.3,4.4s0.6,2.4,1.1,3.2s1.2,1.5,2,2s1.9,0.7,3.2,0.7c1.1,0,2-0.2,2.7-0.7
				s1.4-1.1,1.8-2s0.8-2,1-3.2s0.3-2.8,0.3-4.5c0-1.7-0.1-3.2-0.3-4.5s-0.6-2.3-1-3.2s-1.1-1.5-1.9-1.9S369.1,112.4,368,112.4z"/>
			<path class="st5" d="M394.1,111.8c-0.9,0-1.7,0.1-2.2,0.4s-1,0.6-1.3,1.1s-0.5,1-0.6,1.7s-0.2,1.3-0.2,2.1c-1.3,0-2.3-0.2-3-0.7
				s-1-1.2-1-2.3c0-0.8,0.2-1.5,0.7-2.1s1.1-1.1,1.9-1.4s1.7-0.6,2.8-0.8s2.2-0.3,3.4-0.3c1.5,0,2.8,0.1,3.8,0.4s2,0.8,2.7,1.4
				s1.3,1.5,1.7,2.6s0.6,2.3,0.6,3.9v12.4c0,0.7,0.1,1.2,0.2,1.7s0.3,0.8,0.5,1.1s0.5,0.5,0.9,0.6s0.8,0.2,1.4,0.2h0.1v2h-6.5
				l-0.8-4.1h-0.4c-0.5,0.7-1,1.3-1.5,1.9s-1,1-1.5,1.5s-1.2,0.7-1.9,0.9s-1.6,0.3-2.6,0.3c-1.1,0-2.1-0.2-3-0.5s-1.7-0.8-2.4-1.4
				s-1.2-1.4-1.6-2.4s-0.6-2.1-0.6-3.4c0-2.5,0.9-4.4,2.7-5.7s4.6-1.9,8.2-2l4-0.1v-2.9c0-0.9,0-1.7-0.1-2.4s-0.3-1.4-0.6-1.9
				s-0.8-0.9-1.3-1.2S395.1,111.8,394.1,111.8z M388.3,128.6c0,1.5,0.3,2.6,0.9,3.4s1.6,1.1,2.9,1.1c1,0,1.8-0.2,2.6-0.5
				s1.5-0.8,2-1.3s1-1.3,1.3-2.1s0.4-1.8,0.4-2.8v-3.9l-3.1,0.1c-1.4,0.1-2.5,0.2-3.4,0.5s-1.7,0.7-2.2,1.1s-1,1.1-1.2,1.8
				S388.3,127.7,388.3,128.6z"/>
			<path class="st5" d="M410.9,120.7c0-1.8,0.1-3.4,0.2-5s0.3-3.1,0.7-4.4s0.8-2.6,1.3-3.8s1.3-2.1,2.1-3s1.9-1.5,3.1-2.1
				s2.6-0.9,4.2-1.1c1.1-0.1,2.1-0.3,3-0.4s1.8-0.2,2.6-0.4s1.4-0.4,1.9-0.7s0.9-0.6,1.1-1.1h1.5c0,1.3-0.3,2.4-0.7,3.2
				s-1.1,1.4-2,1.8s-1.9,0.8-3.2,1s-2.7,0.4-4.4,0.6c-1.8,0.2-3.2,0.5-4.3,0.9s-1.9,1-2.5,1.8s-1,1.8-1.2,3.1s-0.4,2.9-0.4,4.8h0.2
				c0.2-0.7,0.6-1.4,1.1-2.1s1.1-1.2,1.8-1.7s1.5-0.9,2.4-1.1s1.9-0.4,3-0.4c3.6,0,6.4,1.1,8.2,3.2s2.8,5.3,2.8,9.4
				c0,2-0.2,3.9-0.7,5.4s-1.1,2.9-2.1,4s-2.1,1.9-3.5,2.4s-3.1,0.8-5,0.8c-3.7,0-6.4-1.2-8.3-3.8S410.9,125.9,410.9,120.7z
				 M428.7,123.3c0-1.7-0.1-3.2-0.3-4.4s-0.6-2.3-1.1-3.2s-1.2-1.5-2.1-1.9s-1.9-0.6-3.2-0.6s-2.3,0.2-3.2,0.6s-1.5,1.1-2,1.9
				s-0.8,1.9-1,3.2s-0.3,2.7-0.3,4.4c0,3.3,0.5,5.9,1.5,7.6s2.7,2.6,4.9,2.6c1.3,0,2.3-0.2,3.2-0.7s1.5-1.1,2.1-2s0.9-1.9,1.1-3.2
				S428.7,125,428.7,123.3z"/>
			<path class="st5" d="M461,122.7c0,4.5-1,7.9-2.9,10.1s-4.7,3.3-8.4,3.3c-1.7,0-3.3-0.3-4.7-0.8s-2.5-1.4-3.5-2.5
				s-1.7-2.5-2.2-4.2s-0.8-3.6-0.8-5.9c0-4.5,0.9-7.8,2.8-10s4.7-3.3,8.4-3.3c1.7,0,3.3,0.3,4.7,0.8s2.5,1.4,3.5,2.5
				s1.7,2.5,2.2,4.1S461,120.4,461,122.7z M443.2,122.7c0,1.8,0.1,3.4,0.4,4.7s0.6,2.5,1.1,3.4s1.2,1.6,2,2.1s1.9,0.7,3.1,0.7
				s2.2-0.2,3-0.7s1.5-1.2,2-2.1s0.9-2.1,1.1-3.4s0.3-2.9,0.3-4.7s-0.1-3.3-0.4-4.7s-0.6-2.5-1.1-3.4s-1.2-1.6-2-2s-1.9-0.7-3.1-0.7
				s-2.2,0.2-3,0.7s-1.5,1.1-2,2s-0.9,2-1.1,3.4S443.2,120.9,443.2,122.7z"/>
			<path class="st5" d="M488.7,109.8l0.3,7.7h-2.3l-0.2-1.6c-0.1-0.8-0.3-1.4-0.4-1.9s-0.4-0.9-0.6-1.2s-0.6-0.5-0.9-0.6
				s-0.8-0.2-1.4-0.2H479v18.3c0,0.7,0.1,1.3,0.3,1.7s0.5,0.8,0.9,1s0.8,0.4,1.3,0.4s1,0.1,1.5,0.1h1.1v2H470v-2h0.6
				c0.5,0,1,0,1.5-0.1s0.9-0.2,1.3-0.4s0.6-0.5,0.9-1s0.3-1,0.3-1.7V112h-4c-0.5,0-1,0.1-1.4,0.2s-0.7,0.3-0.9,0.6s-0.5,0.7-0.6,1.2
				s-0.3,1.1-0.4,1.9l-0.3,1.6h-2.3l0.3-7.7H488.7z"/>
			<path class="st5" d="M502.8,111.8c-0.9,0-1.7,0.1-2.2,0.4s-1,0.6-1.3,1.1s-0.5,1-0.6,1.7s-0.2,1.3-0.2,2.1c-1.3,0-2.3-0.2-3-0.7
				s-1-1.2-1-2.3c0-0.8,0.2-1.5,0.7-2.1s1.1-1.1,1.9-1.4s1.7-0.6,2.8-0.8s2.2-0.3,3.4-0.3c1.5,0,2.8,0.1,3.8,0.4s2,0.8,2.7,1.4
				s1.3,1.5,1.7,2.6s0.6,2.3,0.6,3.9v12.4c0,0.7,0.1,1.2,0.2,1.7s0.3,0.8,0.5,1.1c0.2,0.3,0.5,0.5,0.9,0.6s0.8,0.2,1.4,0.2h0.1v2
				h-6.5l-0.8-4.1h-0.4c-0.5,0.7-1,1.3-1.5,1.9s-1,1-1.5,1.5s-1.2,0.7-1.9,0.9s-1.6,0.3-2.6,0.3c-1.1,0-2.1-0.2-3-0.5
				s-1.7-0.8-2.4-1.4s-1.2-1.4-1.6-2.4s-0.6-2.1-0.6-3.4c0-2.5,0.9-4.4,2.7-5.7s4.6-1.9,8.2-2l4-0.1v-2.9c0-0.9,0-1.7-0.1-2.4
				s-0.3-1.4-0.6-1.9s-0.8-0.9-1.3-1.2S503.8,111.8,502.8,111.8z M497,128.6c0,1.5,0.3,2.6,0.9,3.4c0.6,0.7,1.6,1.1,2.9,1.1
				c1,0,1.8-0.2,2.6-0.5s1.5-0.8,2-1.3s1-1.3,1.3-2.1s0.4-1.8,0.4-2.8v-3.9l-3.1,0.1c-1.4,0.1-2.5,0.2-3.4,0.5s-1.7,0.7-2.2,1.1
				c-0.6,0.5-1,1.1-1.2,1.8S497,127.7,497,128.6z"/>
			<path class="st5" d="M541.9,109.8l0.3,7.7h-2.3l-0.2-1.6c-0.1-0.8-0.3-1.4-0.4-1.9s-0.4-0.9-0.6-1.2s-0.6-0.5-0.9-0.6
				s-0.8-0.2-1.4-0.2h-3.9v18.3c0,0.7,0.1,1.3,0.3,1.7s0.5,0.8,0.9,1s0.8,0.4,1.3,0.4s1,0.1,1.5,0.1h1.1v2h-14.1v-2h0.6
				c0.5,0,1,0,1.5-0.1s0.9-0.2,1.3-0.4s0.6-0.5,0.9-1s0.3-1,0.3-1.7V112h-4c-0.5,0-1,0.1-1.4,0.2s-0.7,0.3-0.9,0.6s-0.5,0.7-0.6,1.2
				s-0.3,1.1-0.4,1.9l-0.3,1.6h-2.3l0.3-7.7H541.9z"/>
			<path class="st5" d="M557.9,109.8v2h-0.6c-0.5,0-1,0-1.5,0.1s-0.9,0.2-1.3,0.5s-0.6,0.6-0.9,1s-0.3,1-0.3,1.7v6.1h4.7
				c1.5,0,2.9,0.1,4.2,0.3s2.5,0.5,3.5,1s1.8,1.2,2.4,2.1s0.9,2.1,0.9,3.6c0,1-0.2,2-0.6,2.9s-1,1.7-1.8,2.3s-1.9,1.2-3.1,1.5
				s-2.7,0.6-4.4,0.6h-14.9v-2h0.6c0.5,0,1,0,1.5-0.1s0.9-0.2,1.3-0.4s0.6-0.5,0.9-1s0.3-1,0.3-1.7v-15.2c0-0.7-0.1-1.3-0.3-1.7
				s-0.5-0.8-0.9-1s-0.8-0.4-1.3-0.5s-1-0.1-1.5-0.1h-0.6v-2H557.9z M558.2,133.4c1.1,0,2-0.1,2.7-0.3s1.4-0.5,1.9-0.9
				s0.8-1,1.1-1.7s0.3-1.5,0.3-2.5c0-1.6-0.5-2.8-1.6-3.5s-2.6-1-4.7-1h-4.6v9.9H558.2z"/>
			<path class="st5" d="M616.1,109.8v2h-0.6c-0.5,0-1,0-1.5,0.1s-0.9,0.2-1.3,0.4s-0.6,0.6-0.9,1s-0.3,1-0.3,1.7v15.3
				c0,0.7,0.1,1.3,0.3,1.7s0.5,0.8,0.9,1s0.8,0.4,1.3,0.4s1,0.1,1.5,0.1h0.6v2H603v-2h0.1c0.5,0,1,0,1.5-0.1s0.9-0.2,1.3-0.4
				s0.6-0.5,0.9-1s0.3-1,0.3-1.7v-6.9h-12.7v6.9c0,0.7,0.1,1.3,0.3,1.7s0.5,0.8,0.9,1s0.8,0.4,1.3,0.4s1,0.1,1.5,0.1h0.1v2h-13.1v-2
				h0.6c0.5,0,1,0,1.5-0.1s0.9-0.2,1.3-0.4s0.6-0.5,0.9-1s0.3-1,0.3-1.7v-15.2c0-0.7-0.1-1.3-0.3-1.7s-0.5-0.8-0.9-1
				s-0.8-0.4-1.3-0.5s-1-0.1-1.5-0.1h-0.6v-2h13.1v2h-0.1c-0.5,0-1,0-1.5,0.1s-0.9,0.2-1.3,0.4s-0.6,0.6-0.9,1s-0.3,1-0.3,1.7v6.2
				h12.7v-6.1c0-0.7-0.1-1.3-0.3-1.7s-0.5-0.8-0.9-1s-0.8-0.4-1.3-0.5s-1-0.1-1.5-0.1H603v-2H616.1z"/>
			<path class="st5" d="M630.1,111.8c-0.9,0-1.7,0.1-2.2,0.4s-1,0.6-1.3,1.1s-0.5,1-0.6,1.7s-0.2,1.3-0.2,2.1c-1.3,0-2.3-0.2-3-0.7
				s-1-1.2-1-2.3c0-0.8,0.2-1.5,0.7-2.1s1.1-1.1,1.9-1.4s1.7-0.6,2.8-0.8s2.2-0.3,3.4-0.3c1.5,0,2.8,0.1,3.8,0.4s2,0.8,2.7,1.4
				s1.3,1.5,1.7,2.6s0.6,2.3,0.6,3.9v12.4c0,0.7,0.1,1.2,0.2,1.7s0.3,0.8,0.5,1.1s0.5,0.5,0.9,0.6s0.8,0.2,1.4,0.2h0.1v2h-6.5
				l-0.8-4.1h-0.4c-0.5,0.7-1,1.3-1.5,1.9s-1,1-1.5,1.5s-1.2,0.7-1.9,0.9s-1.6,0.3-2.6,0.3c-1.1,0-2.1-0.2-3-0.5s-1.7-0.8-2.4-1.4
				s-1.2-1.4-1.6-2.4s-0.6-2.1-0.6-3.4c0-2.5,0.9-4.4,2.7-5.7s4.6-1.9,8.2-2l4-0.1v-2.9c0-0.9,0-1.7-0.1-2.4s-0.3-1.4-0.6-1.9
				s-0.8-0.9-1.3-1.2S631.1,111.8,630.1,111.8z M624.3,128.6c0,1.5,0.3,2.6,0.9,3.4s1.6,1.1,2.9,1.1c1,0,1.8-0.2,2.6-0.5
				s1.5-0.8,2-1.3s1-1.3,1.3-2.1s0.4-1.8,0.4-2.8v-3.9l-3.1,0.1c-1.4,0.1-2.5,0.2-3.4,0.5s-1.7,0.7-2.2,1.1s-1,1.1-1.2,1.8
				S624.3,127.7,624.3,128.6z"/>
			<path class="st5" d="M688.6,109.8v2H688c-0.5,0-1,0-1.5,0.1s-0.9,0.2-1.3,0.4s-0.6,0.6-0.9,1s-0.3,1-0.3,1.7v15.3
				c0,0.7,0.1,1.3,0.3,1.7s0.5,0.8,0.9,1s0.8,0.4,1.3,0.4s1,0.1,1.5,0.1h0.6v2H675v-2h0.6c0.5,0,1,0,1.5-0.1s0.9-0.2,1.3-0.4
				s0.6-0.5,0.9-1s0.3-1,0.3-1.7v-12l-12.7,11.7v0.2c0,0.7,0.1,1.3,0.3,1.7s0.5,0.8,0.9,1s0.8,0.4,1.3,0.4s1,0.1,1.5,0.1h0.6v2
				h-13.6v-2h0.6c0.5,0,1,0,1.5-0.1s0.9-0.2,1.3-0.4s0.6-0.5,0.9-1s0.3-1,0.3-1.7v-15.2c0-0.7-0.1-1.3-0.3-1.7s-0.5-0.8-0.9-1
				s-0.8-0.4-1.3-0.5s-1-0.1-1.5-0.1h-0.6v-2h13.6v2h-0.6c-0.5,0-1,0-1.5,0.1s-0.9,0.2-1.3,0.4s-0.6,0.6-0.9,1s-0.3,1-0.3,1.7v12
				l12.7-11.8v-0.1c0-0.7-0.1-1.3-0.3-1.7s-0.5-0.8-0.9-1s-0.8-0.4-1.3-0.5s-1-0.1-1.5-0.1h-0.1v-2H688.6z"/>
			<path class="st5" d="M721.7,109.8v2H721c-0.5,0-1,0-1.5,0.1s-0.9,0.2-1.3,0.4s-0.6,0.6-0.9,1s-0.3,1-0.3,1.7v15.3
				c0,0.7,0.1,1.3,0.3,1.7s0.5,0.8,0.9,1s0.8,0.4,1.3,0.4s1,0.1,1.5,0.1h0.6v2h-13.1v-2h0.1c0.5,0,1,0,1.5-0.1s0.9-0.2,1.3-0.4
				s0.6-0.5,0.9-1s0.3-1,0.3-1.7v-6.9h-12.7v6.9c0,0.7,0.1,1.3,0.3,1.7s0.5,0.8,0.9,1s0.8,0.4,1.3,0.4s1,0.1,1.5,0.1h0.1v2h-13.1v-2
				h0.6c0.5,0,1,0,1.5-0.1s0.9-0.2,1.3-0.4s0.6-0.5,0.9-1s0.3-1,0.3-1.7v-15.2c0-0.7-0.1-1.3-0.3-1.7s-0.5-0.8-0.9-1
				s-0.8-0.4-1.3-0.5s-1-0.1-1.5-0.1h-0.6v-2H704v2h-0.1c-0.5,0-1,0-1.5,0.1s-0.9,0.2-1.3,0.4s-0.6,0.6-0.9,1s-0.3,1-0.3,1.7v6.2
				h12.7v-6.1c0-0.7-0.1-1.3-0.3-1.7s-0.5-0.8-0.9-1s-0.8-0.4-1.3-0.5s-1-0.1-1.5-0.1h-0.1v-2H721.7z"/>
			<path class="st5" d="M723.9,109.8h14c3.4,0,5.8,0.5,7.4,1.6s2.3,2.6,2.3,4.6c0,1-0.1,1.8-0.4,2.5s-0.6,1.3-1.1,1.8
				s-1,0.9-1.7,1.2s-1.4,0.5-2.2,0.6v0.2c1,0.1,1.9,0.3,2.7,0.6s1.5,0.7,2.1,1.2s1,1.1,1.3,1.7s0.5,1.5,0.5,2.4c0,1-0.2,2-0.6,2.9
				s-1,1.7-1.8,2.3s-1.9,1.2-3.1,1.5s-2.7,0.6-4.4,0.6h-14.9v-2h0.6c0.5,0,1,0,1.5-0.1s0.9-0.2,1.3-0.4s0.6-0.5,0.9-1s0.3-1,0.3-1.7
				v-15.2c0-0.7-0.1-1.3-0.3-1.7s-0.5-0.8-0.9-1s-0.8-0.4-1.3-0.5s-1-0.1-1.5-0.1h-0.6V109.8z M732.9,112v9.1h4.7
				c1,0,1.8-0.1,2.5-0.3s1.2-0.5,1.7-1s0.7-0.9,0.9-1.5s0.3-1.2,0.3-1.9c0-0.6-0.1-1.2-0.3-1.8s-0.5-1-0.9-1.4s-1-0.7-1.6-0.9
				s-1.5-0.4-2.5-0.4H732.9z M737.8,133.4c1.1,0,2-0.1,2.7-0.3s1.4-0.5,1.9-0.9s0.8-1,1.1-1.6s0.3-1.5,0.3-2.4
				c0-1.7-0.5-2.9-1.6-3.6s-2.6-1-4.7-1h-4.6v9.9H737.8z"/>
			<path class="st5" d="M765.1,136c-1.7,0-3.3-0.3-4.7-0.9s-2.6-1.4-3.5-2.6s-1.7-2.5-2.2-4.1s-0.8-3.5-0.8-5.6
				c0-4.5,0.9-7.9,2.8-10.1s4.5-3.4,7.9-3.4c1.5,0,2.9,0.2,4.2,0.7s2.3,1.2,3.1,2.2s1.5,2.2,2,3.6s0.7,3.1,0.7,5v2.2h-16
				c0,1.8,0.2,3.3,0.5,4.5s0.8,2.3,1.4,3.1s1.3,1.4,2.2,1.8s1.9,0.6,3,0.6c0.8,0,1.6-0.1,2.3-0.3s1.4-0.4,1.9-0.8s1.1-0.7,1.5-1.1
				s0.8-0.8,1.1-1.3c0.2,0.1,0.4,0.3,0.6,0.6s0.3,0.6,0.3,1.1c0,0.5-0.2,1-0.5,1.6s-0.9,1.1-1.6,1.5s-1.6,0.9-2.6,1.2
				S766.5,136,765.1,136z M764.5,112c-1.8,0-3.2,0.7-4.1,2.2s-1.5,3.6-1.7,6.3h11c0-1.3-0.1-2.4-0.3-3.5s-0.5-1.9-0.9-2.7
				s-0.9-1.3-1.6-1.7S765.5,112,764.5,112z"/>
			<path class="st5" d="M790.6,136c-1.6,0-3.1-0.2-4.4-0.7s-2.5-1.3-3.5-2.3s-1.7-2.4-2.3-4.1s-0.8-3.7-0.8-6c0-2.6,0.3-4.7,0.8-6.4
				s1.3-3.1,2.2-4.2s2.1-1.8,3.4-2.2s2.7-0.7,4.2-0.7c1,0,2,0.1,3,0.3s1.9,0.5,2.7,0.9s1.4,0.9,1.9,1.5s0.8,1.3,0.8,2.2
				c0,1.1-0.4,1.9-1.1,2.3s-1.8,0.7-3.2,0.7c0-0.8-0.1-1.5-0.2-2.1s-0.3-1.3-0.6-1.8s-0.7-0.9-1.2-1.2s-1.2-0.4-2-0.4
				c-0.9,0-1.8,0.2-2.5,0.5s-1.4,0.9-1.9,1.8s-0.9,2-1.2,3.4s-0.4,3.2-0.4,5.3c0,3.4,0.6,5.9,1.7,7.6s3,2.5,5.6,2.5
				c1.5,0,2.8-0.3,3.9-0.9s1.9-1.4,2.5-2.4c0.2,0.2,0.4,0.4,0.6,0.8s0.2,0.7,0.2,1.1c0,0.5-0.2,1.1-0.5,1.6s-0.9,1-1.5,1.5
				s-1.5,0.8-2.5,1.1S792,136,790.6,136z"/>
			<path class="st5" d="M825.7,109.8l0.3,7.7h-2.3l-0.2-1.6c-0.1-0.8-0.3-1.4-0.4-1.9s-0.4-0.9-0.6-1.2s-0.6-0.5-0.9-0.6
				s-0.8-0.2-1.4-0.2h-3.9v18.3c0,0.7,0.1,1.3,0.3,1.7s0.5,0.8,0.9,1s0.8,0.4,1.3,0.4s1,0.1,1.5,0.1h1.1v2H807v-2h0.6
				c0.5,0,1,0,1.5-0.1s0.9-0.2,1.3-0.4s0.6-0.5,0.9-1s0.3-1,0.3-1.7V112h-4c-0.5,0-1,0.1-1.4,0.2s-0.7,0.3-0.9,0.6s-0.5,0.7-0.6,1.2
				s-0.3,1.1-0.4,1.9l-0.3,1.6h-2.3l0.3-7.7H825.7z"/>
			<path class="st5" d="M858.8,109.8v2h-0.6c-0.5,0-1,0-1.5,0.1s-0.9,0.2-1.3,0.4s-0.6,0.6-0.9,1s-0.3,1-0.3,1.7v15.3
				c0,0.7,0.1,1.3,0.3,1.7s0.5,0.8,0.9,1s0.8,0.4,1.3,0.4s1,0.1,1.5,0.1h0.6v2h-13.6v-2h0.6c0.5,0,1,0,1.5-0.1s0.9-0.2,1.3-0.4
				s0.6-0.5,0.9-1s0.3-1,0.3-1.7v-12l-12.7,11.7v0.2c0,0.7,0.1,1.3,0.3,1.7s0.5,0.8,0.9,1s0.8,0.4,1.3,0.4s1,0.1,1.5,0.1h0.6v2H828
				v-2h0.6c0.5,0,1,0,1.5-0.1s0.9-0.2,1.3-0.4s0.6-0.5,0.9-1s0.3-1,0.3-1.7v-15.2c0-0.7-0.1-1.3-0.3-1.7s-0.5-0.8-0.9-1
				s-0.8-0.4-1.3-0.5s-1-0.1-1.5-0.1H828v-2h13.6v2H841c-0.5,0-1,0-1.5,0.1s-0.9,0.2-1.3,0.4s-0.6,0.6-0.9,1s-0.3,1-0.3,1.7v12
				l12.7-11.8v-0.1c0-0.7-0.1-1.3-0.3-1.7s-0.5-0.8-0.9-1s-0.8-0.4-1.3-0.5s-1-0.1-1.5-0.1h-0.1v-2H858.8z"/>
			<path class="st5" d="M891.4,145.7H889l-0.2-3.5c-0.1-1.2-0.3-2.2-0.6-3.1s-0.7-1.5-1.1-2s-0.9-0.9-1.4-1.1s-1-0.3-1.6-0.3h-22.6
				v-2h0.1c0.5,0,1,0,1.5-0.1s0.9-0.2,1.3-0.5s0.6-0.6,0.9-1s0.3-1,0.3-1.7v-15.2c0-0.7-0.1-1.3-0.3-1.7s-0.5-0.8-0.9-1
				s-0.8-0.4-1.3-0.4s-1-0.1-1.5-0.1H861v-2h13.6v2H874c-0.5,0-1,0-1.5,0.1s-0.9,0.2-1.3,0.4s-0.6,0.6-0.9,1s-0.3,1-0.3,1.7v18.3
				h12.2v-18.3c0-0.7-0.1-1.3-0.3-1.7s-0.5-0.8-0.9-1s-0.8-0.4-1.3-0.4s-1-0.1-1.5-0.1h-0.6v-2h13.6v2h-0.6c-0.5,0-1,0-1.5,0.1
				s-0.9,0.2-1.3,0.4s-0.6,0.6-0.9,1s-0.3,1-0.3,1.7v15.1c0,0.7,0.1,1.2,0.3,1.6s0.4,0.7,0.7,0.9s0.7,0.4,1.1,0.5s0.9,0.1,1.3,0.2
				h1.1V145.7z"/>
			<path class="st5" d="M924.4,109.8v2h-0.6c-0.5,0-1,0-1.5,0.1s-0.9,0.2-1.3,0.4s-0.6,0.6-0.9,1s-0.3,1-0.3,1.7v15.3
				c0,0.7,0.1,1.3,0.3,1.7s0.5,0.8,0.9,1s0.8,0.4,1.3,0.4s1,0.1,1.5,0.1h0.6v2h-13.6v-2h0.6c0.5,0,1,0,1.5-0.1s0.9-0.2,1.3-0.4
				s0.6-0.5,0.9-1s0.3-1,0.3-1.7v-12l-12.7,11.7v0.2c0,0.7,0.1,1.3,0.3,1.7s0.5,0.8,0.9,1s0.8,0.4,1.3,0.4s1,0.1,1.5,0.1h0.6v2
				h-13.6v-2h0.6c0.5,0,1,0,1.5-0.1s0.9-0.2,1.3-0.4s0.6-0.5,0.9-1s0.3-1,0.3-1.7v-15.2c0-0.7-0.1-1.3-0.3-1.7s-0.5-0.8-0.9-1
				s-0.8-0.4-1.3-0.5s-1-0.1-1.5-0.1h-0.6v-2h13.6v2h-0.6c-0.5,0-1,0-1.5,0.1s-0.9,0.2-1.3,0.4s-0.6,0.6-0.9,1s-0.3,1-0.3,1.7v12
				l12.7-11.8v-0.1c0-0.7-0.1-1.3-0.3-1.7s-0.5-0.8-0.9-1s-0.8-0.4-1.3-0.5s-1-0.1-1.5-0.1h-0.1v-2H924.4z"/>
			<path class="st5" d="M934.5,131.7c-0.3,0.7-0.7,1.2-1.1,1.7s-0.9,0.9-1.5,1.2s-1.4,0.6-2.4,0.7s-2.2,0.2-3.6,0.2v-2h0.2
				c0.4,0,0.8-0.1,1.2-0.2s0.7-0.3,1-0.5s0.6-0.5,0.9-0.9s0.6-0.8,0.9-1.3l4.2-7.3c-0.7-0.1-1.5-0.4-2.2-0.7s-1.4-0.8-2-1.3
				s-1.1-1.2-1.5-2s-0.6-1.7-0.6-2.7c0-1.1,0.2-2,0.6-2.9s1-1.6,1.8-2.1s1.8-1,3-1.3s2.7-0.5,4.4-0.5h13.5v2h-0.2
				c-0.5,0-1,0-1.5,0.1s-0.9,0.2-1.2,0.5s-0.6,0.6-0.9,1s-0.3,1-0.3,1.7v15.2c0,0.7,0.1,1.3,0.3,1.7s0.5,0.8,0.9,1s0.8,0.4,1.2,0.4
				s1,0.1,1.5,0.1h0.6v2h-13.6v-2h0.6c0.5,0,1,0,1.5-0.1s0.9-0.2,1.3-0.4s0.6-0.5,0.9-1s0.3-1,0.3-1.7v-6.1h-4L934.5,131.7z
				 M937.8,112c-1,0-1.8,0.1-2.5,0.4s-1.2,0.6-1.6,1.1s-0.7,1-0.9,1.5s-0.3,1.2-0.3,1.8c0,0.7,0.1,1.3,0.3,2s0.5,1.2,0.9,1.6
				s1,0.8,1.6,1.1s1.5,0.4,2.5,0.4h4.7V112H937.8z"/>
			<path class="st5" d="M970.6,113.3c0-0.6-0.2-1-0.7-1.1s-1.1-0.3-1.8-0.3h-0.1v-2h10.5v2H978c-0.5,0-0.9,0-1.3,0.1
				s-0.8,0.2-1.1,0.4s-0.7,0.5-1.1,0.9s-0.8,0.9-1.3,1.6l-4.9,6.6l7.1,9.5c0.7,0.9,1.4,1.6,2,2s1.2,0.6,1.8,0.6h0.6v2h-12.4v-2h0.2
				c1.9,0,2.9-0.5,2.9-1.6c0-0.2,0-0.3-0.1-0.5s-0.1-0.4-0.3-0.6s-0.3-0.5-0.6-0.9s-0.5-0.8-0.9-1.3l-3.2-4.3L962,129
				c-0.1,0.2-0.3,0.4-0.4,0.7s-0.3,0.5-0.4,0.8s-0.2,0.5-0.3,0.8s-0.1,0.5-0.1,0.8c0,0.5,0.2,0.9,0.7,1.2s1.2,0.3,2.3,0.3h0.1v2
				h-11.4v-2h0.4c0.6,0,1.1,0,1.5-0.1s0.9-0.3,1.2-0.5s0.8-0.6,1.2-0.9s0.8-0.9,1.3-1.5l6-7.8l-6-8.2c-0.7-0.8-1.4-1.5-2.1-1.9
				s-1.4-0.7-2.1-0.7h-0.6v-2h12.2v2h-0.1c-0.5,0-1,0-1.4,0.1s-0.6,0.2-0.8,0.3s-0.3,0.3-0.4,0.5s-0.1,0.4-0.1,0.5
				c0,0.3,0.1,0.7,0.3,1s0.5,0.7,0.8,1.2l3.2,4.3l2.5-3.6c0.4-0.5,0.6-1.1,0.9-1.5S970.6,113.7,970.6,113.3z"/>
		</g>
	</g>
</g>
</svg>
