<svg width="14" height="14" viewBox="0 0 14 14" fill="none" xmlns="http://www.w3.org/2000/svg">
<path d="M5.73338 1.36194C6.10452 0.634688 7.14367 0.634689 7.51482 1.36194L8.80725 3.89447C8.95255 4.17919 9.22521 4.37728 9.54089 4.42749L12.3488 4.87407C13.1552 5.00232 13.4763 5.99061 12.8993 6.56832L10.8901 8.58009C10.6643 8.80626 10.5601 9.12679 10.6099 9.44254L11.0529 12.2511C11.1801 13.0576 10.3394 13.6684 9.61169 13.2982L7.07752 12.009C6.79261 11.8641 6.45559 11.8641 6.17068 12.009L3.63651 13.2982C2.90878 13.6684 2.06809 13.0576 2.1953 12.2511L2.63828 9.44254C2.68808 9.12679 2.58393 8.80626 2.35805 8.58009L0.348861 6.56832C-0.228106 5.99061 0.0930074 5.00232 0.899352 4.87407L3.70731 4.42749C4.02299 4.37728 4.29565 4.17918 4.44096 3.89446L5.73338 1.36194Z" fill="#AB52BF"/>
</svg>
