<svg height="512" viewBox="0 0 64 64" width="512" xmlns="http://www.w3.org/2000/svg"><g id="Eye_scanner" data-name="Eye scanner"><path d="m62 21h-2v-11h-11v-2h13z"/><path d="m4 21h-2v-13h13v2h-11z"/><path d="m62 56h-13v-2h11v-11h2z"/><path d="m15 56h-13v-13h2v11h11z"/><path d="m25 32a7 7 0 1 0 7-7 7.008 7.008 0 0 0 -7 7zm12 0h-2a3 3 0 0 0 -3-3v-2a5.006 5.006 0 0 1 5 5z"/><path d="m39.025 26.389a8.956 8.956 0 0 1 1.916 4.611h6.008a14.912 14.912 0 0 0 -3.674-8.861z"/><path d="m15 32a16.914 16.914 0 0 1 4.226-11.181 71.178 71.178 0 0 0 -14.816 11.181 71.178 71.178 0 0 0 14.816 11.181 16.914 16.914 0 0 1 -4.226-11.181z"/><path d="m17.051 31h6.008a8.956 8.956 0 0 1 1.916-4.611l-4.25-4.25a14.912 14.912 0 0 0 -3.674 8.861z"/><path d="m31 23.059v-6.008a14.912 14.912 0 0 0 -8.861 3.674l4.25 4.25a8.956 8.956 0 0 1 4.611-1.916z"/><path d="m44.769 43.187a71.082 71.082 0 0 0 14.822-11.187 71.221 71.221 0 0 0 -14.817-11.181 16.9 16.9 0 0 1 -.005 22.368z"/><path d="m32 47a15.006 15.006 0 0 0 14.949-14h-6.008a9 9 0 0 1 -17.882 0h-6.008a15.007 15.007 0 0 0 14.949 14zm10.848-13.165 1.972.33a12.794 12.794 0 0 1 -.536 2.1l-1.884-.659a10.923 10.923 0 0 0 .448-1.771zm-1.2 3.446 1.754.96a12.852 12.852 0 0 1 -1.2 1.8l-1.568-1.24a11 11 0 0 0 1.018-1.52zm-2.26 2.865 1.343 1.481a13.023 13.023 0 0 1 -1.717 1.316l-1.081-1.682a11.22 11.22 0 0 0 1.459-1.115zm-3.071 1.973.787 1.839a12.948 12.948 0 0 1 -2.054.682l-.465-1.94a10.8 10.8 0 0 0 1.736-.581zm-5.379.831a11.223 11.223 0 0 0 1.834.023l.14 2q-.449.027-.912.027-.633 0-1.248-.059zm-3.517-.95a10.976 10.976 0 0 0 1.721.621l-.518 1.932a12.89 12.89 0 0 1 -2.037-.735zm-1.595-.9-1.126 1.659a13.008 13.008 0 0 1 -1.68-1.359l1.38-1.446a11.02 11.02 0 0 0 1.426 1.151zm-6.646-6.933 1.972-.334a11.031 11.031 0 0 0 .365 1.507l-1.907.606a13.135 13.135 0 0 1 -.43-1.779zm1.257 3.779 1.779-.915a10.975 10.975 0 0 0 .971 1.552l-1.6 1.2a13.038 13.038 0 0 1 -1.15-1.837z"/><path d="m33 23.059a8.956 8.956 0 0 1 4.611 1.916l4.25-4.25a14.912 14.912 0 0 0 -8.861-3.674z"/></g></svg>