<svg id="Capa_1" enable-background="new 0 0 531.765 531.765" height="512" viewBox="0 0 531.765 531.765" width="512" xmlns="http://www.w3.org/2000/svg"><path d="m459.858 20.951c-3.457-3.164-8.114-4.641-12.739-4.268l-132.942 12.463c-8.536.811-15.06 7.968-15.06 16.553v20.772h-33.235v-16.618c0-27.491-22.362-49.853-49.853-49.853s-49.853 22.362-49.853 49.853v16.618h-16.618c-45.812 0-83.088 37.276-83.088 83.088 0 9.185 7.433 16.618 16.618 16.618s16.618-7.432 16.618-16.618c0-27.49 22.362-49.853 49.853-49.853h16.618v44.903c-39.156 18.746-66.471 58.43-66.471 104.656v265.882c0 9.185 7.433 16.618 16.618 16.618h199.412c9.185 0 16.618-7.433 16.618-16.618v-265.882c0-46.226-27.314-85.91-66.471-104.656v-44.903h33.235v20.772c0 8.585 6.524 15.741 15.06 16.553l132.941 12.463c.519.049 1.039.065 1.558.065 4.122 0 8.114-1.525 11.181-4.333 3.473-3.148 5.436-7.611 5.436-12.285v-99.706c0-4.673-1.964-9.136-5.436-12.284zm-260.446 28.902c0-9.169 7.449-16.618 16.618-16.618s16.618 7.449 16.618 16.618v16.618h-33.235v-16.618zm-66.471 249.265h66.471v99.706h-66.471zm166.176-49.853v249.265h-166.176v-66.471h66.471c18.322 0 33.235-14.914 33.235-33.235v-99.706c0-18.322-14.914-33.235-33.235-33.235h-66.471v-16.618c0-45.812 37.276-83.088 83.088-83.088s83.088 37.275 83.088 83.088zm-83.088-116.324c-5.69 0-11.143.886-16.618 1.68v-34.915h33.235v34.915c-5.474-.793-10.927-1.68-16.617-1.68zm216.03-18.24-99.706-9.347v-44.53l99.706-9.347z"/></svg>