<?xml version="1.0" encoding="utf-8"?>
<!-- Generator: Adobe Illustrator 22.0.1, SVG Export Plug-In . SVG Version: 6.00 Build 0)  -->
<svg version="1.1" id="Capa_1" xmlns="http://www.w3.org/2000/svg" xmlns:xlink="http://www.w3.org/1999/xlink" x="0px" y="0px"
	 viewBox="0 0 512 512" style="enable-background:new 0 0 512 512;" xml:space="preserve">
<g>
	<g>
		<path d="M458.7,85.3H53.3C23.9,85.3,0,109.3,0,138.7v234.7c0,29.4,23.9,53.3,53.3,53.3h405.3c29.4,0,53.3-23.9,53.3-53.3V138.7
			C512,109.3,488.1,85.3,458.7,85.3z M490.7,373.3c0,17.6-14.4,32-32,32H53.3c-17.6,0-32-14.4-32-32V138.7c0-17.6,14.4-32,32-32
			h405.3c17.6,0,32,14.4,32,32L490.7,373.3L490.7,373.3z"/>
	</g>
</g>
<g>
	<g>
		<path d="M450.3,96.7H61.7c-28.2,0-51.1,22.3-51.1,49.8v219c0,27.4,22.9,49.8,51.1,49.8h388.6c28.2,0,51.1-22.3,51.1-49.8v-219
			C501.4,119.1,478.5,96.7,450.3,96.7z M481,365.5c0,16.5-13.8,29.9-30.7,29.9H61.7c-16.9,0-30.7-13.4-30.7-29.9v-219
			c0-16.5,13.8-29.9,30.7-29.9h388.6c16.9,0,30.7,13.4,30.7,29.9L481,365.5L481,365.5z"/>
	</g>
</g>
<g>
	<g>
		<path d="M501.3,149.3H10.7C4.8,149.3,0,154.1,0,160v64c0,5.9,4.8,10.7,10.7,10.7h490.7c5.9,0,10.7-4.8,10.7-10.7v-64
			C512,154.1,507.2,149.3,501.3,149.3z M490.7,213.3H21.3v-42.7h469.3L490.7,213.3L490.7,213.3z"/>
	</g>
</g>
<g>
	<g>
		<path d="M202.7,298.7h-128c-5.9,0-10.7,4.8-10.7,10.7S68.8,320,74.7,320h128c5.9,0,10.7-4.8,10.7-10.7S208.6,298.7,202.7,298.7z"
			/>
	</g>
</g>
<g>
	<g>
		<path d="M202.7,341.3h-128c-5.9,0-10.7,4.8-10.7,10.7s4.8,10.7,10.7,10.7h128c5.9,0,10.7-4.8,10.7-10.7
			C213.3,346.1,208.6,341.3,202.7,341.3z"/>
	</g>
</g>
<g>
	<g>
		<path d="M416,277.3h-21.3c-17.6,0-32,14.4-32,32v21.3c0,17.6,14.4,32,32,32H416c17.6,0,32-14.4,32-32v-21.3
			C448,291.7,433.6,277.3,416,277.3z M426.7,330.7c0,5.9-4.8,10.7-10.7,10.7h-21.3c-5.9,0-10.7-4.8-10.7-10.7v-21.3
			c0-5.9,4.8-10.7,10.7-10.7H416c5.9,0,10.7,4.8,10.7,10.7V330.7z"/>
	</g>
</g>
</svg>
