<svg width="13" height="15" viewBox="0 0 13 15" fill="none" xmlns="http://www.w3.org/2000/svg">
<path d="M12.3096 3.71099L9.14079 0.663985C8.80209 0.338457 8.35508 0.126763 7.79996 0.029211V5H12.9697C12.8681 4.46599 12.6479 4.03638 12.3096 3.71099Z" fill="#2A6FF7"/>
<path d="M7.47503 6.24991C7.20407 6.24991 6.97384 6.15883 6.7843 5.97652C6.5947 5.79431 6.5 5.57293 6.5 5.31246V0H0.974959C0.704175 0 0.473944 0.0910876 0.284373 0.2734C0.0947674 0.455609 0 0.676983 0 0.937453V14.0625C0 14.3231 0.0947674 14.5444 0.284373 14.7267C0.473979 14.9088 0.704175 15 0.974995 15H12.0253C12.296 15 12.5261 14.9088 12.7156 14.7267C12.9052 14.5443 13 14.3231 13 14.0625V6.24991H7.47503Z" fill="#2A6FF7"/>
</svg>
