<svg width="13" height="11" viewBox="0 0 13 11" fill="none" xmlns="http://www.w3.org/2000/svg">
<path d="M11.8392 11C12.1314 11 12.3846 10.8961 12.5999 10.6909L8.91676 6.72436C8.8284 6.7925 8.74275 6.85877 8.66184 6.92178C8.38621 7.14047 8.16251 7.31113 7.99073 7.43341C7.81898 7.55598 7.59046 7.6809 7.3052 7.80845C7.01976 7.93615 6.75383 7.99979 6.50714 7.99979H6.4927C6.24598 7.99979 5.98005 7.93617 5.69463 7.80845C5.40921 7.6809 5.18069 7.55598 5.00911 7.43341C4.83735 7.31113 4.61377 7.1405 4.338 6.92178C4.26115 6.86111 4.17592 6.79454 4.08378 6.72329L0.399964 10.6909C0.615193 10.8961 0.868563 11 1.16076 11H11.8392Z" fill="#D60016"/>
<path d="M0.732779 4.22661C0.457176 4.02873 0.212774 3.80211 0 3.54684V9.58164L3.24628 6.08566C2.59684 5.59739 1.76007 4.97842 0.732779 4.22661Z" fill="#D60016"/>
<path d="M12.2746 4.22661C11.2865 4.94685 10.4466 5.56689 9.75502 6.08706L13 9.58179V3.54684C12.7919 3.79697 12.5502 4.02345 12.2746 4.22661Z" fill="#D60016"/>
<path d="M11.8392 0H1.16078C0.788244 0 0.501831 0.135476 0.301188 0.40615C0.10038 0.67695 0.000141613 1.01562 0.000141613 1.42177C0.000141613 1.74983 0.133164 2.1053 0.39909 2.48827C0.665017 2.87108 0.947984 3.17178 1.24785 3.39049C1.41224 3.51558 1.90798 3.88672 2.73508 4.50382C3.18156 4.83702 3.56984 5.12744 3.90351 5.37806C4.18791 5.59147 4.43319 5.77628 4.63569 5.92965C4.65894 5.94721 4.6955 5.97538 4.74403 6.01274C4.79631 6.05318 4.86246 6.1045 4.94408 6.16796C5.10125 6.29038 5.23182 6.38933 5.33581 6.46492C5.43966 6.54054 5.56548 6.625 5.71309 6.71879C5.86058 6.81246 5.99969 6.88289 6.13026 6.92973C6.26085 6.97655 6.38174 7.00004 6.49296 7.00004H6.5074C6.61859 7.00004 6.7395 6.97655 6.87012 6.92973C7.00066 6.88289 7.13966 6.81261 7.28726 6.71879C7.43473 6.625 7.56039 6.54036 7.66457 6.46492C7.76856 6.38933 7.89913 6.2904 8.05632 6.16796C8.13777 6.1045 8.20393 6.05315 8.25621 6.01287C8.30476 5.97535 8.34129 5.94736 8.36468 5.92965C8.52244 5.81143 8.76828 5.62738 9.09881 5.38022C9.70024 4.9302 10.586 4.26784 11.7598 3.39049C12.1128 3.12496 12.4077 2.80451 12.6448 2.42963C12.8814 2.05474 13 1.66151 13 1.25004C13 0.906269 12.885 0.612109 12.6555 0.367108C12.4257 0.122412 12.1536 0 11.8392 0Z" fill="#D60016"/>
</svg>
