<?xml version="1.0" encoding="utf-8"?>
<!-- Generator: Adobe Illustrator 17.0.0, SVG Export Plug-In . SVG Version: 6.00 Build 0)  -->
<!DOCTYPE svg PUBLIC "-//W3C//DTD SVG 1.1//EN" "http://www.w3.org/Graphics/SVG/1.1/DTD/svg11.dtd">
<svg version="1.1" id="Слой_1" xmlns="http://www.w3.org/2000/svg" xmlns:xlink="http://www.w3.org/1999/xlink" x="0px" y="0px"
	 width="223.338px" height="135px" viewBox="0 0 223.338 135" enable-background="new 0 0 223.338 135" xml:space="preserve">
<g>
	
		<image display="none" overflow="visible" enable-background="new    " width="402" height="402" xlink:href="7213C51393EE4027.jpeg"  transform="matrix(0.2974 0 0 0.2974 109.1337 21.4452)">
	</image>
	<g id="Стул_5_">
		<polygon fill="none" stroke="#588F5C" stroke-miterlimit="10" points="125.682,72.744 127.475,88.802 129.724,88.802 
			127.475,72.744 		"/>
		<polygon fill="none" stroke="#588F5C" stroke-miterlimit="10" points="127.703,89.083 129.05,101.772 131.128,101.772 
			129.724,89.083 		"/>
		<circle fill="none" stroke="#588F5C" stroke-width="0.5" stroke-miterlimit="10" cx="128.887" cy="90.522" r="0.516"/>
		<circle fill="none" stroke="#588F5C" stroke-width="0.5" stroke-miterlimit="10" cx="129.16" cy="93.33" r="0.516"/>
		<circle fill="none" stroke="#588F5C" stroke-width="0.5" stroke-miterlimit="10" cx="129.488" cy="96.441" r="0.516"/>
		<circle fill="none" stroke="#588F5C" stroke-width="0.5" stroke-miterlimit="10" cx="129.837" cy="99.588" r="0.516"/>
		<polygon fill="none" stroke="#588F5C" stroke-miterlimit="10" points="133.654,99.376 153.024,99.111 153.435,101.021 
			133.57,101.94 		"/>
		<polygon fill="none" stroke="#588F5C" stroke-miterlimit="10" points="131.128,104.807 156.31,120.777 157.447,119.093 
			132.361,103.64 		"/>
		<circle fill="none" stroke="#588F5C" stroke-miterlimit="10" cx="149.534" cy="115.359" r="0.516"/>
		<path fill="none" stroke="#588F5C" stroke-miterlimit="10" d="M156.31,120.777c1.528,0.8,1.499,2.378,1.516,3.327
			c0.045,2.443-2.633,3.537-3.243,3.537"/>
		<path fill="none" stroke="#588F5C" stroke-miterlimit="10" d="M154.583,128.863"/>
		<path fill="none" stroke="#588F5C" stroke-miterlimit="10" d="M157.552,119.239"/>
		<path fill="none" stroke="#588F5C" stroke-miterlimit="10" d="M157.447,119.093c3.411,1.895,3.411,6.738,1.102,8.38"/>
		<rect x="127.927" y="127.936" fill="none" stroke="#588F5C" stroke-miterlimit="10" width="26.656" height="2.106"/>
		<rect x="123.843" y="127.473" fill="none" stroke="#588F5C" stroke-miterlimit="10" width="4.085" height="3.285"/>
		<polygon fill="#FFFFFF" stroke="#588F5C" stroke-miterlimit="10" points="154.162,130.631 158.805,130.631 158.548,127.473 
			154.162,127.473 		"/>
		<circle fill="none" stroke="#588F5C" stroke-miterlimit="10" cx="132.632" cy="128.989" r="0.516"/>
		<path fill="none" stroke="#588F5C" stroke-miterlimit="10" d="M129.05,101.772c0.271,1.699,0.969,2.667,2.077,3.036"/>
		<path fill="none" stroke="#588F5C" stroke-miterlimit="10" d="M131.128,101.772c0.239,1.023,0.573,1.373,1.234,1.868"/>
		<path fill="none" stroke="#588F5C" stroke-miterlimit="10" d="M130.679,97.714c0,1.036,1.331,1.875,2.975,1.875"/>
		<path fill="none" stroke="#588F5C" stroke-miterlimit="10" d="M131.055,101.112c0,0.365,1.163,0.659,2.6,0.659"/>
		<path fill="none" stroke="#588F5C" stroke-miterlimit="10" d="M127.591,72.631c0-1.427-0.628-2.583-1.403-2.583"/>
		
			<line fill="none" stroke="#588F5C" stroke-linecap="round" stroke-miterlimit="10" x1="126.187" y1="70.049" x2="124.558" y2="70.049"/>
		
			<line fill="none" stroke="#588F5C" stroke-linecap="round" stroke-miterlimit="10" x1="124.558" y1="70.049" x2="125.148" y2="72.744"/>
		
			<line fill="none" stroke="#588F5C" stroke-linecap="round" stroke-miterlimit="10" x1="125.148" y1="72.744" x2="127.591" y2="72.631"/>
	</g>
	<g>
		
			<path fill="none" stroke="#E7E7E7" stroke-width="0.5" stroke-linecap="round" stroke-linejoin="round" stroke-miterlimit="10" d="
			M173.476,84.438c-0.51,0.422-0.67,1.068-0.359,1.445l0,0c0.312,0.376,0.977,0.339,1.486-0.083l9.077-7.516
			c0.509-0.422,0.67-1.069,0.358-1.445l0,0c-0.312-0.376-0.977-0.339-1.486,0.082L173.476,84.438z"/>
		
			<circle fill="none" stroke="#E7E7E7" stroke-linecap="round" stroke-linejoin="round" stroke-miterlimit="10" cx="184.189" cy="76.073" r="0.831"/>
		
			<path fill="none" stroke="#E7E7E7" stroke-width="0.5" stroke-linecap="round" stroke-linejoin="round" stroke-miterlimit="10" d="
			M180.344,79.161c0.049,0.586,0.482,1.028,0.97,0.987l0,0c0.486-0.041,0.842-0.548,0.793-1.133L181.24,68.58
			c-0.048-0.585-0.482-1.028-0.969-0.987l0,0c-0.487,0.041-0.841,0.548-0.793,1.133L180.344,79.161z"/>
		
			<circle fill="none" stroke="#E7E7E7" stroke-linecap="round" stroke-linejoin="round" stroke-miterlimit="10" cx="179.847" cy="67.253" r="0.685"/>
		<rect x="152.576" y="83.187" fill="none" stroke="#588F5C" stroke-miterlimit="10" width="52.722" height="2.246"/>
		<rect x="194.799" y="84.563" fill="none" stroke="#588F5C" stroke-miterlimit="10" width="9.517" height="41.689"/>
		<rect x="196.483" y="84.563" fill="none" stroke="#588F5C" stroke-miterlimit="10" width="6.401" height="41.689"/>
		<polygon fill="#FFFFFF" stroke="#588F5C" stroke-miterlimit="10" points="194.153,84.563 204.765,84.563 204.765,86.275 
			202.154,86.275 200.722,87.707 198.14,87.707 196.483,86.135 194.153,86.135 		"/>
		
			<rect x="198.14" y="87.707" fill="#FFFFFF" stroke="#588F5C" stroke-width="0.5" stroke-miterlimit="10" width="2.583" height="1.937"/>
		<path fill="none" stroke="#588F5C" stroke-linecap="round" stroke-miterlimit="10" d="M215.854,128.217
			c0-1.086-4.171-1.965-10.549-1.965"/>
		
			<circle fill="none" stroke="#E7E7E7" stroke-width="0.5" stroke-linecap="round" stroke-linejoin="round" stroke-miterlimit="10" cx="172.915" cy="86.691" r="0.831"/>
		<rect x="211.853" y="129.958" fill="none" stroke="#588F5C" stroke-miterlimit="10" width="3.327" height="0.674"/>
		<circle fill="none" stroke="#588F5C" stroke-miterlimit="10" cx="199.662" cy="120.546" r="1.495"/>
		<circle fill="none" stroke="#588F5C" stroke-width="0.5" stroke-miterlimit="10" cx="199.662" cy="120.546" r="2.043"/>
		<path fill="none" stroke="#588F5C" stroke-linecap="round" stroke-linejoin="round" stroke-miterlimit="10" d="M154.878,88.676
			l2.246-0.323v-0.646h37.675v30.292l-30.151-0.337C156.31,106.797,154.878,100.817,154.878,88.676l-3.144,0.07v-2.835h2.302
			l3.088,1.797"/>
		<path fill="none" stroke="#588F5C" stroke-linecap="round" stroke-linejoin="round" stroke-miterlimit="10" d="M151.734,88.745
			c1.788,16.367,2.302,17.63,10.253,28.902"/>
		
			<line fill="none" stroke="#A6A5A5" stroke-width="0.5" stroke-linecap="round" stroke-linejoin="round" stroke-miterlimit="10" x1="156.141" y1="82.64" x2="202.968" y2="69.74"/>
		
			<line fill="none" stroke="#A6A5A5" stroke-width="0.5" stroke-linecap="round" stroke-linejoin="round" stroke-miterlimit="10" x1="202.378" y1="68.224" x2="148.898" y2="82.71"/>
		<path fill="#FDFEFE" stroke="#588F5C" stroke-linecap="square" stroke-linejoin="round" stroke-miterlimit="10" d="
			M148.898,87.932c-1.923,0.21-3.639,0.093-4.717-1.137c-0.774-0.884-1.179-2.878-1.179-4.085h5.896c2.91,0,5.264,0.847,5.264,1.895
			l-0.126,1.305h-2.302C149.881,85.91,150.429,87.791,148.898,87.932z"/>
		
			<path fill="none" stroke="#588F5C" stroke-width="0.5" stroke-linecap="square" stroke-linejoin="round" stroke-miterlimit="10" d="
			M151.172,84.725c0.59-0.786-1.457-1.173-3.258-1.173h-3.65c0,0.747,0.25,1.981,0.73,2.528c0.667,0.761,1.729,0.834,2.919,0.704
			c1.125-0.257,0.6-1.235,2.094-1.688C150.429,84.97,150.906,85.194,151.172,84.725"/>
		
			<circle fill="none" stroke="#588F5C" stroke-width="0.5" stroke-linecap="square" stroke-linejoin="round" stroke-miterlimit="10" cx="146.678" cy="85.097" r="1.158"/>
		
			<line fill="none" stroke="#A6A5A5" stroke-width="0.5" stroke-linecap="round" stroke-linejoin="round" stroke-miterlimit="10" x1="202.968" y1="69.74" x2="202.378" y2="68.224"/>
		
			<line fill="none" stroke="#A6A5A5" stroke-width="0.5" stroke-linecap="round" stroke-linejoin="round" stroke-miterlimit="10" x1="167.596" y1="73.361" x2="196.988" y2="55.843"/>
		
			<line fill="none" stroke="#A6A5A5" stroke-width="0.5" stroke-linecap="round" stroke-linejoin="round" stroke-miterlimit="10" x1="195.978" y1="54.496" x2="164.311" y2="73.277"/>
		
			<circle fill="none" stroke="#588F5C" stroke-width="0.5" stroke-linecap="round" stroke-linejoin="round" stroke-miterlimit="10" cx="183.558" cy="86.657" r="0.972"/>
		<path fill="none" stroke="#588F5C" stroke-width="0.5" stroke-miterlimit="10" d="M174.389,85.869
			c-0.416,0.019-0.734,0.43-0.712,0.918l0,0c0.023,0.488,0.377,0.868,0.794,0.848l7.408-0.341c0.416-0.019,0.735-0.43,0.713-0.918
			l0,0c-0.023-0.488-0.378-0.868-0.794-0.849L174.389,85.869z"/>
		<rect x="159.805" y="129.958" fill="none" stroke="#588F5C" stroke-miterlimit="10" width="3.327" height="0.674"/>
		
			<line fill="none" stroke="#588F5C" stroke-linecap="round" stroke-linejoin="round" stroke-miterlimit="10" x1="164.648" y1="117.661" x2="161.987" y2="117.648"/>
		
			<line fill="none" stroke="#A6A5A5" stroke-width="0.5" stroke-linecap="round" stroke-linejoin="round" stroke-miterlimit="10" x1="196.988" y1="55.843" x2="195.978" y2="54.496"/>
		
			<rect x="157.124" y="128.217" fill="#FFFFFF" stroke="#588F5C" stroke-linecap="round" stroke-miterlimit="10" width="58.73" height="1.741"/>
		<path fill="none" stroke="#588F5C" stroke-linecap="round" stroke-miterlimit="10" d="M193.514,129.958v-3.706
			c-20.824,0-36.39,0.879-36.39,1.965"/>
		
			<line fill="none" stroke="#588F5C" stroke-linecap="round" stroke-miterlimit="10" x1="205.305" y1="126.252" x2="205.305" y2="129.958"/>
		
			<line fill="none" stroke="#588F5C" stroke-linecap="round" stroke-miterlimit="10" x1="193.514" y1="126.252" x2="205.305" y2="126.252"/>
	</g>
	<g>
		<path fill="#588F5C" d="M136.855,63.886l10.981,13.462l8.558-0.281l0.467,3.084l-11.341,2.138l-4.286-3.256
			c0.978,0,1.769,4.169,1.769,9.32l8.731,1.123l1.29,9.636l-18.864-0.039c-3.105-0.782-2.966-7.023-3.291-12.504
			c-5.794-16.879-0.168-27.173,0.26-27.173l3.593,3.467L136.855,63.886z"/>
		<g>
			<path fill="#588F5C" d="M131.128,59.465c0,0,0-0.398,0-0.884s-0.731-0.834-1.624-0.772c-0.893,0.062-1.259-0.128-0.812-0.421
				c0.447-0.293,0.875-0.761,0.951-1.039s0.076-0.619,0-0.758s-0.215-0.442-0.309-0.674c-0.094-0.232-0.296-0.598-0.451-0.814
				c-0.154-0.216-0.443-0.583-0.642-0.814s-0.527-0.674-0.73-0.983c-0.203-0.309-0.508-0.738-0.677-0.954
				c-0.17-0.216-0.384-0.633-0.477-0.926s-0.168-0.736-0.168-0.983s0-0.714,0-1.039s0.158-0.867,0.351-1.207
				s0.509-0.883,0.702-1.207s0.515-0.779,0.716-1.011c0.201-0.232,0.997-0.762,1.769-1.179s1.745-0.935,2.162-1.151
				s1.137-0.456,1.6-0.533c0.463-0.077,1.221-0.14,1.684-0.14c0.463,0,1.322,0,1.909,0c0.587,0,1.471,0,1.965,0
				s1.378,0.139,1.965,0.309c0.587,0.17,1.458,0.536,1.937,0.814s1.123,0.72,1.432,0.983s0.789,0.667,1.067,0.898
				c0.278,0.232,0.72,0.699,0.982,1.039s0.679,0.933,0.926,1.32s0.171,0.967-0.168,1.292c-0.34,0.324-1.035,0.927-1.544,1.34
				c-0.51,0.413-0.939,1.045-0.955,1.404c-0.015,0.359-0.104,0.842-0.196,1.074s-0.269,0.598-0.393,0.814
				c-0.124,0.216-0.3,0.582-0.393,0.814s-0.181,0.585-0.197,0.786c-0.015,0.201,0.111,0.504,0.281,0.674
				c0.17,0.17,0.448,0.422,0.618,0.561s0.359,0.404,0.421,0.59c0.062,0.185-0.014,0.463-0.168,0.618s-0.546,0.382-0.87,0.505
				c-0.324,0.124-0.615,0.313-0.646,0.421c-0.031,0.108-0.056,0.335-0.056,0.505s0,0.404,0,0.519s-0.24,0.267-0.533,0.337
				c-0.293,0.069-0.685,0.126-0.87,0.126s-0.299,0.114-0.253,0.253c0.046,0.139,0.097,0.379,0.112,0.533s-0.048,0.394-0.14,0.533
				c-0.093,0.139-0.358,0.152-0.59,0.028s-0.535-0.212-0.674-0.196c-0.139,0.016-0.291,0.117-0.337,0.225s-0.16,0.348-0.253,0.533
				s-0.282,0.413-0.421,0.505c-0.139,0.093-0.467,0.168-0.73,0.168c-0.262,0-0.686-0.114-0.941-0.253
				c-0.255-0.139-0.646-0.467-0.87-0.73s-0.647-0.616-0.94-0.786c-0.293-0.17-0.609-0.246-0.702-0.168
				c-0.093,0.077-0.219,0.241-0.281,0.365c-0.062,0.124-0.075,0.401-0.028,0.618s0.072,0.519,0.056,0.674
				c-0.015,0.154-0.015,0.407,0,0.561s0.028,0.281,0.028,0.281"/>
		</g>
		<polyline fill="#588F5C" points="128.208,43.154 127.478,42.826 126.636,42.48 128.208,42.48 129.275,42.691 129.893,42.817 
			130.398,43.154 131.016,42.48 131.717,41.343 132.476,40.627 133.093,40.29 132.433,41.189 132.195,41.975 132.195,42.649 
			131.328,42.938 130.679,43.772 129.864,44.165 129.048,44.165 		"/>
		<polyline fill="#588F5C" points="147.39,47.393 148.372,49.022 148.793,50.243 147.993,49.99 147.109,49.548 146.308,49.253 
			146.498,49.948 146.793,51.085 146.814,52.074 146.308,51.211 146.014,50.537 145.445,49.864 		"/>
		<polygon fill="#588F5C" points="161.363,117.198 161.742,123.515 163.132,123.515 163.132,124.273 162.542,125.241 
			162.247,126.084 162.247,126.757 162.247,127.227 175.221,126.537 172.312,126.252 170.585,125.073 169.28,123.978 
			168.902,122.883 172.354,122.589 172.396,120.777 172.101,118.84 171.891,117.742 164.942,117.999 162.5,117.999 		"/>
		<polygon fill="#588F5C" points="156.394,77.067 158.183,77.067 159.573,76.351 161.216,75.256 162.669,74.477 163.805,73.93 
			164.753,73.698 165.911,73.361 167.322,73.361 167.596,73.888 167.406,74.583 166.985,75.467 166.543,75.783 166.522,76.309 
			166.458,76.836 165.974,77.067 165.616,77.509 165.343,78.141 159.784,79.404 156.86,80.151 		"/>
		<polygon fill="#588F5C" points="158.878,70.919 159.679,70.056 169.111,76.899 		"/>
	</g>
	<g>
		<g>
			<path fill="#FFFFFF" d="M132.139,58.356c0.139-0.594,0.253-0.455,0.253,0.309c0,0.764-0.076,1.964-0.169,2.667
				s-0.326,1.669-0.52,2.148c-0.193,0.479-0.477,1.357-0.632,1.951c-0.154,0.594-0.363,1.662-0.463,2.372
				c-0.101,0.71-0.183,2.169-0.183,3.243c0,1.073,0.088,2.677,0.197,3.565c0.108,0.888,0.361,2.372,0.562,3.299
				c0.201,0.926,0.599,2.411,0.884,3.299s0.747,2.284,1.025,3.102s0.568,1.987,0.646,2.597c0.077,0.61,0.083,1.513,0.014,2.007
				c-0.069,0.494-0.12,1.353-0.112,1.909s0.014,1.347,0.014,1.759c0,0.411,0.082,1.094,0.182,1.516s0.296,1.006,0.435,1.298
				c0.139,0.291,0.392,0.677,0.562,0.856s0.359,0.412,0.421,0.516c0.062,0.104-0.338-0.043-0.889-0.326s-1.127-0.894-1.282-1.356
				c-0.154-0.462-0.416-1.231-0.582-1.71s-0.265-1.571-0.22-2.427s0.138-1.822,0.208-2.147c0.069-0.324,0.025-0.899-0.098-1.277
				s-0.363-1.124-0.533-1.656c-0.17-0.533-0.473-1.594-0.674-2.358c-0.201-0.764-0.529-1.933-0.73-2.597
				c-0.201-0.664-0.519-1.763-0.708-2.442s-0.416-1.715-0.505-2.302c-0.089-0.587-0.219-1.679-0.288-2.428s-0.076-1.886-0.014-2.527
				s0.119-1.538,0.126-1.993c0.008-0.455,0.159-1.378,0.337-2.049c0.178-0.672,0.462-1.594,0.632-2.049s0.473-1.245,0.674-1.755
				s0.46-1.274,0.575-1.698c0.116-0.425,0.299-1.1,0.407-1.502C131.798,59.765,132,58.95,132.139,58.356z"/>
		</g>
		<g>
			
				<line fill="none" stroke="#588F5C" stroke-width="0.5" stroke-miterlimit="10" x1="130.679" y1="62.792" x2="132.237" y2="62.806"/>
			
				<line fill="none" stroke="#588F5C" stroke-width="0.5" stroke-miterlimit="10" x1="129.233" y1="66.231" x2="131.577" y2="66.273"/>
			
				<line fill="none" stroke="#588F5C" stroke-width="0.5" stroke-miterlimit="10" x1="128.826" y1="69.754" x2="130.96" y2="69.754"/>
			
				<line fill="none" stroke="#588F5C" stroke-width="0.5" stroke-miterlimit="10" x1="128.405" y1="73.137" x2="131.31" y2="73.151"/>
			
				<line fill="none" stroke="#588F5C" stroke-width="0.5" stroke-miterlimit="10" x1="128.784" y1="76.407" x2="131.731" y2="76.407"/>
			
				<line fill="none" stroke="#588F5C" stroke-width="0.5" stroke-miterlimit="10" x1="129.472" y1="79.734" x2="132.265" y2="79.748"/>
			
				<line fill="none" stroke="#588F5C" stroke-width="0.5" stroke-miterlimit="10" x1="130.594" y1="83.047" x2="133.472" y2="83.047"/>
			
				<line fill="none" stroke="#588F5C" stroke-width="0.5" stroke-miterlimit="10" x1="131.451" y1="86.135" x2="134.3" y2="86.149"/>
			
				<line fill="none" stroke="#588F5C" stroke-width="0.5" stroke-miterlimit="10" x1="131.914" y1="89.588" x2="134.3" y2="89.293"/>
			
				<line fill="none" stroke="#588F5C" stroke-width="0.5" stroke-miterlimit="10" x1="131.816" y1="92.814" x2="134.132" y2="92.814"/>
		</g>
	</g>
	<g>
		<path fill="#588F5C" d="M207.531,81.726c0-0.577,0.082-1.082,0.245-1.517s0.412-0.777,0.748-1.027s0.738-0.375,1.206-0.375
			c0.471,0,0.874,0.125,1.21,0.375s0.585,0.593,0.75,1.027c0.165,0.435,0.247,0.94,0.247,1.517c0,0.573-0.087,1.08-0.263,1.521
			c-0.175,0.441-0.43,0.785-0.766,1.034c-0.336,0.249-0.729,0.373-1.179,0.373s-0.842-0.124-1.176-0.373
			c-0.334-0.248-0.588-0.593-0.762-1.034C207.618,82.807,207.531,82.299,207.531,81.726z M208.307,81.07
			c-0.028,0.211-0.042,0.43-0.042,0.656c0,0.227,0.015,0.447,0.043,0.662c0.029,0.215,0.08,0.429,0.152,0.642
			c0.072,0.213,0.163,0.399,0.27,0.557c0.108,0.158,0.248,0.287,0.419,0.385c0.171,0.099,0.364,0.148,0.58,0.148
			c0.216,0,0.41-0.049,0.582-0.148s0.312-0.227,0.42-0.385c0.108-0.158,0.198-0.344,0.271-0.557
			c0.072-0.213,0.124-0.428,0.154-0.644c0.03-0.216,0.045-0.436,0.045-0.66c0-0.226-0.014-0.445-0.041-0.656
			c-0.028-0.211-0.077-0.423-0.146-0.638c-0.07-0.215-0.159-0.401-0.267-0.559s-0.249-0.287-0.424-0.386
			c-0.175-0.099-0.373-0.148-0.594-0.148s-0.418,0.05-0.592,0.148c-0.174,0.099-0.314,0.227-0.42,0.386
			c-0.107,0.158-0.195,0.344-0.265,0.559C208.383,80.647,208.334,80.86,208.307,81.07z"/>
	</g>
	<g>
		<g>
			<path fill="#588F5C" d="M211.974,78.506c0-0.546,0.223-0.819,0.67-0.819c0.447,0,0.671,0.273,0.671,0.819
				c0,0.541-0.224,0.811-0.671,0.811C212.197,79.318,211.974,79.047,211.974,78.506z M212.232,78.327
				c-0.007,0.055-0.01,0.115-0.01,0.179s0.003,0.124,0.01,0.179c0.007,0.055,0.019,0.112,0.038,0.172
				c0.019,0.059,0.043,0.11,0.073,0.152c0.029,0.042,0.07,0.076,0.121,0.103s0.111,0.04,0.179,0.04s0.128-0.013,0.179-0.04
				c0.052-0.027,0.093-0.061,0.122-0.103c0.03-0.042,0.055-0.092,0.073-0.152c0.019-0.059,0.032-0.116,0.038-0.172
				c0.006-0.056,0.01-0.115,0.01-0.178s-0.003-0.123-0.01-0.178c-0.007-0.056-0.019-0.113-0.038-0.173
				c-0.019-0.059-0.043-0.11-0.073-0.152s-0.071-0.076-0.122-0.104c-0.051-0.027-0.111-0.041-0.179-0.041s-0.128,0.014-0.179,0.041
				c-0.052,0.027-0.092,0.062-0.121,0.103c-0.03,0.041-0.054,0.092-0.073,0.152C212.251,78.215,212.239,78.272,212.232,78.327z"/>
		</g>
	</g>
	<g>
		<path fill="#A0A0A0" d="M204.617,66.464c-0.042-0.147,0.02-0.267,0.185-0.359l1.165-0.635c0.084-0.05,0.173-0.075,0.265-0.075
			c0.216,0.01,0.324,0.113,0.324,0.308v4.761h0.809c0.184,0,0.276,0.105,0.276,0.316c0,0.205-0.092,0.308-0.276,0.308h-2.274
			c-0.182,0-0.272-0.103-0.272-0.308c0-0.21,0.091-0.316,0.272-0.316h0.778v-4.299c-0.127,0.105-0.261,0.188-0.403,0.249
			l-0.422,0.201c-0.082,0.039-0.151,0.062-0.207,0.069c-0.057,0.007-0.099-0.004-0.126-0.032c-0.028-0.028-0.047-0.054-0.059-0.079
			C204.639,66.548,204.628,66.512,204.617,66.464z"/>
		<path fill="#A0A0A0" d="M208.25,70.14c-0.087-0.187-0.046-0.324,0.122-0.411c0.076-0.042,0.157-0.054,0.243-0.035
			c0.086,0.018,0.151,0.068,0.195,0.15c0.056,0.11,0.11,0.205,0.164,0.282c0.054,0.078,0.128,0.159,0.221,0.245
			c0.093,0.086,0.211,0.151,0.353,0.195c0.142,0.045,0.305,0.067,0.489,0.067c0.353,0,0.64-0.118,0.863-0.353
			c0.223-0.236,0.334-0.545,0.334-0.93c0.003-0.208-0.028-0.39-0.093-0.547c-0.064-0.157-0.147-0.28-0.249-0.371
			c-0.101-0.091-0.227-0.164-0.379-0.221s-0.301-0.094-0.45-0.113c-0.148-0.019-0.314-0.028-0.495-0.028
			c-0.108,0-0.259,0.005-0.454,0.016c-0.268,0.016-0.463-0.026-0.585-0.124c-0.121-0.099-0.181-0.294-0.181-0.586v-1.342
			c0-0.124,0.019-0.228,0.055-0.314c0.037-0.086,0.086-0.148,0.146-0.188c0.061-0.039,0.119-0.067,0.174-0.083
			c0.055-0.016,0.113-0.024,0.173-0.024h2.377c0.1,0,0.174,0.03,0.221,0.089c0.048,0.059,0.071,0.132,0.071,0.219
			s-0.024,0.161-0.071,0.223c-0.047,0.062-0.121,0.093-0.221,0.093h-2.053c-0.071,0-0.12,0.014-0.146,0.042
			s-0.039,0.076-0.039,0.145V67.3c0,0.093,0.019,0.16,0.057,0.202s0.105,0.059,0.2,0.051c0.184-0.01,0.322-0.016,0.414-0.016
			c0.237,0.003,0.456,0.019,0.657,0.049c0.201,0.03,0.401,0.085,0.6,0.165s0.368,0.183,0.507,0.308
			c0.14,0.126,0.252,0.291,0.338,0.495c0.085,0.204,0.128,0.439,0.128,0.703c0,0.176-0.018,0.349-0.055,0.517
			c-0.037,0.169-0.102,0.338-0.195,0.509c-0.094,0.171-0.21,0.32-0.349,0.448c-0.14,0.128-0.322,0.232-0.547,0.312
			c-0.225,0.08-0.478,0.12-0.76,0.12C209.14,71.166,208.547,70.824,208.25,70.14z"/>
	</g>
	<g>
		<g>
			<path fill="#A0A0A0" d="M211.974,65.031c0-0.546,0.223-0.819,0.67-0.819c0.447,0,0.671,0.273,0.671,0.819
				c0,0.541-0.224,0.811-0.671,0.811C212.197,65.842,211.974,65.572,211.974,65.031z M212.232,64.852
				c-0.007,0.055-0.01,0.115-0.01,0.179s0.003,0.124,0.01,0.179c0.007,0.055,0.019,0.112,0.038,0.172
				c0.019,0.059,0.043,0.11,0.073,0.152c0.029,0.042,0.07,0.076,0.121,0.103s0.111,0.04,0.179,0.04s0.128-0.013,0.179-0.04
				c0.052-0.026,0.093-0.061,0.122-0.103c0.03-0.042,0.055-0.093,0.073-0.152c0.019-0.059,0.032-0.117,0.038-0.173
				c0.006-0.056,0.01-0.115,0.01-0.178s-0.003-0.122-0.01-0.178c-0.007-0.056-0.019-0.113-0.038-0.172
				c-0.019-0.059-0.043-0.11-0.073-0.152s-0.071-0.076-0.122-0.104c-0.051-0.027-0.111-0.04-0.179-0.04s-0.128,0.014-0.179,0.04
				c-0.052,0.027-0.092,0.062-0.121,0.103c-0.03,0.041-0.054,0.092-0.073,0.152C212.251,64.739,212.239,64.797,212.232,64.852z"/>
		</g>
	</g>
	<g>
		<path fill="#A0A0A0" d="M203.196,54.94c-0.087-0.189-0.043-0.326,0.13-0.41c0.071-0.045,0.151-0.058,0.241-0.04
			c0.089,0.019,0.153,0.068,0.19,0.15c0.042,0.087,0.082,0.162,0.12,0.225s0.093,0.133,0.164,0.209s0.147,0.139,0.227,0.188
			s0.182,0.089,0.306,0.122s0.261,0.05,0.41,0.05c0.353,0,0.641-0.119,0.867-0.357c0.225-0.238,0.337-0.548,0.337-0.93
			c0-0.218-0.034-0.407-0.103-0.566c-0.069-0.159-0.157-0.285-0.265-0.375c-0.108-0.091-0.243-0.162-0.407-0.213
			c-0.163-0.051-0.322-0.085-0.476-0.101c-0.154-0.016-0.331-0.022-0.531-0.02c-0.16,0.005-0.261-0.05-0.3-0.166
			c-0.04-0.116,0.004-0.241,0.13-0.375l1.046-1.102c0.145-0.153,0.29-0.279,0.434-0.379h-2.167c-0.181,0-0.272-0.105-0.272-0.316
			c0-0.205,0.091-0.308,0.272-0.308h2.79c0.182,0,0.273,0.103,0.273,0.308c0,0.103-0.037,0.192-0.113,0.268l-1.441,1.445
			c-0.026,0.032-0.036,0.056-0.028,0.073c0.008,0.017,0.025,0.028,0.051,0.033c0.261,0.029,0.495,0.081,0.705,0.156
			c0.209,0.075,0.397,0.178,0.564,0.31s0.296,0.303,0.387,0.513c0.091,0.211,0.136,0.453,0.136,0.726
			c0,0.177-0.018,0.349-0.055,0.517c-0.036,0.168-0.1,0.338-0.191,0.509c-0.091,0.171-0.206,0.321-0.344,0.448
			c-0.138,0.128-0.321,0.232-0.547,0.312c-0.226,0.08-0.48,0.121-0.762,0.121C204.095,55.967,203.502,55.625,203.196,54.94z"/>
		<path fill="#A0A0A0" d="M207.531,53.091c0-0.577,0.082-1.082,0.245-1.517c0.163-0.435,0.412-0.777,0.748-1.027
			s0.738-0.375,1.206-0.375c0.471,0,0.874,0.125,1.21,0.375s0.585,0.593,0.75,1.027c0.165,0.435,0.247,0.94,0.247,1.517
			c0,0.574-0.087,1.081-0.263,1.521c-0.175,0.441-0.43,0.785-0.766,1.033c-0.336,0.249-0.729,0.373-1.179,0.373
			s-0.842-0.124-1.176-0.373c-0.334-0.248-0.588-0.593-0.762-1.033C207.618,54.172,207.531,53.665,207.531,53.091z M208.307,52.435
			c-0.028,0.211-0.042,0.429-0.042,0.656c0,0.227,0.015,0.447,0.043,0.662c0.029,0.215,0.08,0.429,0.152,0.642
			c0.072,0.213,0.163,0.399,0.27,0.557c0.108,0.158,0.248,0.287,0.419,0.385c0.171,0.099,0.364,0.148,0.58,0.148
			c0.216,0,0.41-0.049,0.582-0.148s0.312-0.227,0.42-0.385c0.108-0.158,0.198-0.343,0.271-0.557
			c0.072-0.213,0.124-0.428,0.154-0.644s0.045-0.436,0.045-0.66c0-0.226-0.014-0.445-0.041-0.656
			c-0.028-0.211-0.077-0.423-0.146-0.638c-0.07-0.214-0.159-0.401-0.267-0.559s-0.249-0.287-0.424-0.385
			c-0.175-0.099-0.373-0.148-0.594-0.148s-0.418,0.049-0.592,0.148s-0.314,0.227-0.42,0.385c-0.107,0.158-0.195,0.345-0.265,0.559
			C208.383,52.012,208.334,52.224,208.307,52.435z"/>
	</g>
	<g>
		<g>
			<path fill="#A0A0A0" d="M211.974,49.872c0-0.546,0.223-0.819,0.67-0.819c0.447,0,0.671,0.273,0.671,0.819
				c0,0.541-0.224,0.811-0.671,0.811C212.197,50.683,211.974,50.412,211.974,49.872z M212.232,49.692
				c-0.007,0.055-0.01,0.115-0.01,0.179s0.003,0.124,0.01,0.179c0.007,0.056,0.019,0.113,0.038,0.172
				c0.019,0.059,0.043,0.11,0.073,0.152c0.029,0.042,0.07,0.076,0.121,0.103c0.051,0.026,0.111,0.04,0.179,0.04
				s0.128-0.014,0.179-0.04c0.052-0.027,0.093-0.061,0.122-0.103c0.03-0.042,0.055-0.092,0.073-0.152
				c0.019-0.059,0.032-0.117,0.038-0.173c0.006-0.056,0.01-0.115,0.01-0.178s-0.003-0.123-0.01-0.178
				c-0.007-0.056-0.019-0.113-0.038-0.172c-0.019-0.059-0.043-0.11-0.073-0.152s-0.071-0.076-0.122-0.104
				c-0.051-0.027-0.111-0.04-0.179-0.04s-0.128,0.013-0.179,0.04c-0.052,0.027-0.092,0.062-0.121,0.103
				c-0.03,0.041-0.054,0.092-0.073,0.152C212.251,49.579,212.239,49.637,212.232,49.692z"/>
		</g>
	</g>
</g>
<path fill="#5C8D5A" d="M131.593,16.76V8.432c0-0.197,0.016-0.37,0.049-0.513c0.034-0.148,0.089-0.285,0.17-0.416
	c0.078-0.131,0.198-0.23,0.36-0.299c0.161-0.067,0.362-0.101,0.599-0.101h4.395c0.453,0,0.766,0.117,0.936,0.356
	c0.169,0.237,0.255,0.561,0.255,0.974v8.328c0,0.363-0.203,0.542-0.61,0.542c-0.409,0-0.611-0.179-0.611-0.542V8.614
	c0-0.146-0.029-0.25-0.089-0.308c-0.057-0.06-0.157-0.092-0.303-0.092h-3.54c-0.14,0-0.24,0.032-0.297,0.092
	c-0.06,0.059-0.089,0.163-0.089,0.308v8.147c0,0.363-0.206,0.542-0.618,0.542C131.795,17.302,131.593,17.124,131.593,16.76
	L131.593,16.76z M140.235,16.775V8.432c0-0.197,0.016-0.37,0.047-0.513c0.034-0.148,0.089-0.285,0.17-0.416
	c0.079-0.131,0.2-0.23,0.36-0.299c0.161-0.067,0.362-0.101,0.599-0.101h2.271c0.91,0,1.651,0.271,2.225,0.812
	c0.573,0.541,0.857,1.273,0.857,2.195c0,0.882-0.273,1.599-0.821,2.154c-0.55,0.553-1.259,0.832-2.135,0.832h-2.352v3.683
	c0,0.349-0.206,0.524-0.618,0.524C140.436,17.302,140.235,17.127,140.235,16.775L140.235,16.775z M141.457,12.043h2.247
	c0.566,0,1.014-0.178,1.345-0.535c0.329-0.356,0.495-0.823,0.495-1.398c0-0.558-0.159-1.022-0.475-1.395
	c-0.313-0.372-0.741-0.558-1.28-0.558h-1.945c-0.143,0-0.244,0.031-0.302,0.095c-0.055,0.062-0.085,0.167-0.085,0.32L141.457,12.043
	L141.457,12.043z M147.399,16.775l3.065-9.18c0.122-0.363,0.381-0.547,0.779-0.547c0.392,0,0.65,0.183,0.772,0.547l3.064,9.18
	c0.105,0.352-0.041,0.527-0.444,0.527c-0.229,0-0.407-0.038-0.537-0.112c-0.13-0.075-0.222-0.214-0.285-0.416l-0.814-2.534h-3.51
	l-0.823,2.534c-0.062,0.201-0.156,0.34-0.285,0.416c-0.13,0.074-0.311,0.112-0.551,0.112
	C147.435,17.302,147.29,17.127,147.399,16.775L147.399,16.775z M149.788,13.292h2.907l-0.983-3.063
	c-0.109-0.318-0.265-0.936-0.47-1.853c-0.196,0.87-0.356,1.489-0.477,1.853L149.788,13.292L149.788,13.292z M156.273,15.856V8.432
	c0-0.412,0.083-0.736,0.253-0.974c0.169-0.239,0.477-0.356,0.928-0.356h2.683c0.511,0,0.977,0.089,1.394,0.265
	c0.417,0.177,0.758,0.455,1.02,0.834c0.261,0.381,0.394,0.834,0.394,1.359c0,0.571-0.145,1.053-0.432,1.444
	c-0.288,0.391-0.701,0.667-1.234,0.827c0.608,0.163,1.084,0.469,1.418,0.92c0.339,0.452,0.506,0.998,0.506,1.638
	c0,0.604-0.136,1.119-0.407,1.545c-0.271,0.427-0.636,0.738-1.092,0.939c-0.457,0.202-0.981,0.301-1.577,0.301h-2.675
	c-0.449,0-0.758-0.117-0.928-0.35C156.356,16.592,156.273,16.267,156.273,15.856L156.273,15.856z M157.452,15.713
	c0,0.153,0.029,0.263,0.088,0.333c0.058,0.068,0.159,0.106,0.298,0.106h2.232c0.558,0,1.016-0.159,1.372-0.476
	c0.359-0.316,0.539-0.761,0.539-1.325c0-0.657-0.19-1.148-0.57-1.475c-0.378-0.326-0.889-0.49-1.531-0.49h-2.429v3.327H157.452z
	 M157.452,11.436h2.129c1.427,0,2.141-0.582,2.141-1.749c0-0.528-0.172-0.918-0.516-1.175c-0.345-0.256-0.787-0.383-1.324-0.383
	h-2.044c-0.139,0-0.24,0.035-0.298,0.105c-0.058,0.072-0.088,0.183-0.088,0.338L157.452,11.436L157.452,11.436z M164.637,16.775
	v-9.18c0-0.363,0.206-0.547,0.618-0.547c0.404,0,0.605,0.183,0.605,0.547v7.524c0.167-0.351,0.383-0.741,0.647-1.165l4.073-6.631
	c0.104-0.184,0.286-0.275,0.547-0.275c0.412,0,0.618,0.183,0.618,0.547v9.18c0,0.352-0.206,0.527-0.618,0.527
	c-0.402,0-0.603-0.175-0.603-0.527V9.219c-0.114,0.29-0.295,0.642-0.547,1.054l-4.187,6.791c-0.086,0.16-0.263,0.238-0.535,0.238
	C164.843,17.302,164.637,17.127,164.637,16.775L164.637,16.775z M172.862,17.119c-0.08-0.08-0.118-0.167-0.113-0.26
	c0.005-0.094,0.008-0.185,0.008-0.271c0.018-0.17,0.072-0.287,0.158-0.357c0.086-0.068,0.211-0.095,0.377-0.081
	c0.206,0.013,0.36-0.044,0.462-0.169c0.104-0.127,0.161-0.296,0.169-0.506l0.371-7.043c0.025-0.417,0.125-0.743,0.305-0.978
	c0.18-0.234,0.496-0.351,0.952-0.351h3.29c0.449,0,0.757,0.117,0.926,0.356c0.169,0.237,0.253,0.561,0.253,0.974v8.252
	c0,0.365-0.203,0.547-0.602,0.547c-0.416,0-0.621-0.179-0.621-0.533V8.617c0-0.146-0.029-0.25-0.089-0.312
	c-0.057-0.06-0.163-0.092-0.312-0.092h-2.479c-0.146,0-0.251,0.032-0.316,0.092c-0.068,0.059-0.1,0.163-0.105,0.308l-0.329,6.476
	c-0.013,0.266-0.037,0.501-0.068,0.705c-0.034,0.203-0.094,0.409-0.183,0.616c-0.089,0.203-0.201,0.372-0.341,0.498
	c-0.136,0.124-0.321,0.222-0.548,0.29c-0.229,0.066-0.498,0.087-0.807,0.06C173.06,17.246,172.94,17.2,172.862,17.119
	L172.862,17.119z M181.888,15.856v-8.33c0-0.367,0.201-0.549,0.605-0.549c0.412,0,0.618,0.182,0.618,0.547v3.592h2.352
	c0.875,0,1.585,0.276,2.133,0.824c0.55,0.55,0.823,1.264,0.823,2.147c0,0.923-0.287,1.669-0.866,2.237
	c-0.578,0.568-1.316,0.852-2.216,0.852h-2.271c-0.237,0-0.44-0.034-0.6-0.1c-0.161-0.07-0.283-0.169-0.363-0.297
	c-0.083-0.128-0.136-0.264-0.169-0.41C181.902,16.223,181.888,16.051,181.888,15.856L181.888,15.856z M183.111,15.666
	c0,0.146,0.029,0.25,0.089,0.31c0.057,0.058,0.156,0.091,0.297,0.091h1.945c0.538,0,0.965-0.19,1.28-0.568
	c0.316-0.38,0.474-0.852,0.474-1.413c0-0.576-0.162-1.029-0.487-1.361c-0.326-0.334-0.777-0.5-1.351-0.5h-2.247L183.111,15.666
	L183.111,15.666z M189.728,16.775v-9.18c0-0.363,0.204-0.547,0.611-0.547s0.612,0.183,0.612,0.547v3.681h4.323V7.595
	c0-0.363,0.201-0.547,0.604-0.547c0.412,0,0.619,0.183,0.619,0.547v9.18c0,0.352-0.208,0.527-0.619,0.527
	c-0.402,0-0.604-0.175-0.604-0.527v-4.39h-4.323v4.39c0,0.352-0.205,0.527-0.612,0.527
	C189.932,17.302,189.728,17.127,189.728,16.775L189.728,16.775z M198.18,14.251c-0.165-0.628-0.25-1.331-0.25-2.108
	s0.081-1.479,0.248-2.107c0.162-0.629,0.409-1.176,0.74-1.643c0.329-0.466,0.762-0.824,1.3-1.079
	c0.535-0.251,1.155-0.378,1.856-0.378c0.703,0,1.321,0.127,1.856,0.378c0.535,0.255,0.967,0.613,1.295,1.079
	c0.331,0.467,0.577,1.014,0.741,1.643c0.166,0.628,0.247,1.331,0.247,2.107c0,0.778-0.084,1.48-0.25,2.108
	c-0.166,0.626-0.414,1.169-0.748,1.633c-0.333,0.463-0.764,0.821-1.296,1.074c-0.531,0.251-1.147,0.378-1.845,0.378
	s-1.311-0.127-1.846-0.378c-0.534-0.253-0.967-0.611-1.3-1.074C198.595,15.42,198.345,14.877,198.18,14.251L198.18,14.251z
	 M199.238,12.143c0,2.83,0.944,4.244,2.836,4.244c1.887,0,2.832-1.415,2.832-4.244c0-2.838-0.946-4.258-2.832-4.258
	C200.182,7.885,199.238,9.305,199.238,12.143z"/>
<g>
	<g>
		<g>
			<defs>
				<rect id="SVGID_1_" x="2.162" y="21.437" width="119.545" height="119.546"/>
			</defs>
			<clipPath id="SVGID_2_">
				<use xlink:href="#SVGID_1_"  overflow="visible"/>
			</clipPath>
			<g display="none" clip-path="url(#SVGID_2_)">
				
					<image display="inline" overflow="visible" enable-background="new    " width="407" height="407" xlink:href="7213C51393EE4024.jpg"  transform="matrix(0.2937 0 0 0.2937 2.1617 21.4371)">
				</image>
			</g>
		</g>
	</g>
	<g>
		<g>
			<defs>
				<rect id="SVGID_3_" x="2.162" y="21.437" width="119.545" height="119.546"/>
			</defs>
			<clipPath id="SVGID_4_">
				<use xlink:href="#SVGID_3_"  overflow="visible"/>
			</clipPath>
			<g id="Стол_2_" clip-path="url(#SVGID_4_)">
				<rect x="50.264" y="76.793" fill="none" stroke="#B54F46" stroke-miterlimit="10" width="61.313" height="2.863"/>
				<rect x="53.128" y="79.657" fill="none" stroke="#B54F46" stroke-miterlimit="10" width="56.681" height="6.064"/>
				<rect x="58.855" y="85.72" fill="none" stroke="#B54F46" stroke-miterlimit="10" width="4.379" height="44.047"/>
				<rect x="99.449" y="85.72" fill="none" stroke="#B54F46" stroke-miterlimit="10" width="4.38" height="44.047"/>
			</g>
		</g>
	</g>
	<g>
		<g>
			<defs>
				<rect id="SVGID_5_" x="2.162" y="21.437" width="119.545" height="119.546"/>
			</defs>
			<clipPath id="SVGID_6_">
				<use xlink:href="#SVGID_5_"  overflow="visible"/>
			</clipPath>
			<g id="Стул_4_" clip-path="url(#SVGID_6_)">
				<polygon fill="none" stroke="#B54F46" stroke-miterlimit="10" points="11.091,68.925 19.008,97.223 44.443,97.223 44.443,95.37 
					20.356,95.539 12.776,68.925 				"/>
				<polygon fill="none" stroke="#B54F46" stroke-miterlimit="10" points="16.425,81.21 11.747,65.985 14.087,65.985 18.26,81.206 
									"/>
				<polygon fill="none" stroke="#B54F46" stroke-miterlimit="10" points="20.618,95.362 20.618,93.228 47.569,93.228 
					48.018,95.362 				"/>
				<polygon fill="none" stroke="#B54F46" stroke-miterlimit="10" points="22.078,97.203 15.004,127.522 17.362,127.522 
					24.212,97.203 				"/>
				<polygon fill="none" stroke="#B54F46" stroke-miterlimit="10" points="38.024,97.203 44.762,127.522 46.549,127.522 
					40.158,97.203 				"/>
			</g>
		</g>
	</g>
	<g>
		<g>
			<defs>
				<rect id="SVGID_7_" x="2.162" y="21.437" width="119.545" height="119.546"/>
			</defs>
			<clipPath id="SVGID_8_">
				<use xlink:href="#SVGID_7_"  overflow="visible"/>
			</clipPath>
			<g id="мальчик_1_" clip-path="url(#SVGID_8_)">
				<path fill="#B74F45" d="M45.575,53.991c0.047-0.197,0.615-2.026,1.264-4.064c0.648-2.038,1.912-4.009,2.807-4.379
					c0.895-0.371,2.336-0.724,3.2-0.786s1.901-0.062,2.302,0s1.109,0.264,1.572,0.449s1.928,1.373,3.256,2.639
					c1.328,1.266,2.869,3.161,3.425,4.211s1.036,2.692,1.067,3.65c0.031,0.957-0.234,3.08-0.59,4.716
					c-0.355,1.637-0.938,2.521-1.296,1.965c-0.357-0.556-1.002-0.556-1.432,0s-0.63,0.329-0.445-0.505s-0.156-1.188-0.758-0.786
					c-0.602,0.401-1.663,0.856-2.358,1.011c-0.695,0.154-1.39,0.963-1.544,1.797c-0.154,0.834-0.584,1.516-0.954,1.516
					c-0.371,0-0.813-0.177-0.983-0.393c-0.17-0.216-0.6-0.09-0.955,0.281c-0.355,0.371-0.898,0.421-1.207,0.112
					s-0.814-0.309-1.123,0s0.904,1.85,2.695,3.425s4.874,3.066,6.85,3.313s3.982,0.266,4.457,0.042
					c0.475-0.224,1.441,0.348,2.148,1.27s-0.14,2.066-1.88,2.541c-1.741,0.475-5.663,0.838-8.717,0.807s-5.603,0.146-5.665,0.393
					c-0.062,0.247-1.983,0.929-4.269,1.516s-4.586-0.449-5.109-2.302c-0.524-1.853-1.963-2.257-3.198-0.898s-2.12,3.612-1.965,5.007
					s3.161,3.265,6.681,4.155s8.119,2.325,10.219,3.19c2.1,0.865,3.995,1.951,4.211,2.414s0.317,1.312,0.225,1.887
					c-0.093,0.575-0.27,1.525-0.393,2.112s-0.351,1.734-0.505,2.549s-0.483,3.225-0.73,5.356c-0.247,2.131-0.373,5.466-0.281,7.411
					c0.093,1.945-0.009,3.537-0.225,3.537s-0.444,0.859-0.505,1.909c-0.062,1.05-0.491,1.909-0.954,1.909s-0.842,0.126-0.842,0.281
					s0.303,0.559,0.674,0.898c0.371,0.34,1.053,0.921,1.516,1.291c0.463,0.371,1.373,0.8,2.021,0.954
					c0.649,0.154,1.255,0.862,1.348,1.572s-0.665,1.291-1.685,1.291c-1.019,0-2.409-0.152-3.088-0.337
					c-0.679-0.185-0.945,0.168-0.59,0.786s0.911,1.729,1.235,2.47s0.324,1.474,0,1.628s-1.385-0.174-2.358-0.73
					s-2.173-1.592-2.667-2.302s-1.227-1.317-1.628-1.348s-0.858-0.713-1.015-1.516s-0.662-1.814-1.123-2.246
					s-0.863-1.064-0.894-1.404s0.601-1.047,1.404-1.572s1.435-1.207,1.404-1.516s-0.41-0.561-0.842-0.561s-0.662-1.213-0.51-2.695
					s0.276-3.756,0.276-5.053s0.204-3.293,0.454-4.436s0.959-3.492,1.577-5.222c0.618-1.729,0.643-3.271,0.056-3.425
					c-0.587-0.154-1.296-0.407-1.577-0.562s-4.892-0.179-10.248-0.054s-9.965,0.019-10.243-0.236s-0.69-0.719-0.916-1.032
					s-0.567-0.867-0.758-1.232c-0.191-0.365-0.6-1.83-0.908-3.256s-0.561-3.798-0.561-5.27s0.227-3.889,0.505-5.372
					c0.278-1.482,0.783-3.706,1.123-4.941s1.072-3.08,1.628-4.099s1.642-2.586,2.414-3.481c0.772-0.895,2.162-2.108,3.088-2.695
					s2.536-1.372,3.576-1.744c1.041-0.373,2.733-0.979,3.762-1.348c1.029-0.369,2.697-1.04,3.707-1.492s1.932-1.225,2.049-1.719
					S45.529,54.188,45.575,53.991z"/>
			</g>
		</g>
	</g>
	<g>
		<g>
			<defs>
				<rect id="SVGID_9_" x="2.162" y="21.437" width="119.545" height="119.546"/>
			</defs>
			<clipPath id="SVGID_10_">
				<use xlink:href="#SVGID_9_"  overflow="visible"/>
			</clipPath>
			<g clip-path="url(#SVGID_10_)">
				<path fill="#B74F45" d="M65.285,74.009c-0.193-1.021-0.026-2.319,0.371-2.885c0.397-0.565,1.477-0.945,2.399-0.845
					c0.923,0.1,1.605,0.536,1.516,0.969s-0.297,1.156-0.463,1.607c-0.166,0.452-0.712,1.172-1.214,1.6
					c-0.502,0.429-1.215,0.921-1.585,1.095C65.939,75.724,65.478,75.031,65.285,74.009z"/>
			</g>
		</g>
	</g>
	<g>
		<g>
			<defs>
				<rect id="SVGID_11_" x="2.162" y="21.437" width="119.545" height="119.546"/>
			</defs>
			<clipPath id="SVGID_12_">
				<use xlink:href="#SVGID_11_"  overflow="visible"/>
			</clipPath>
			<polyline clip-path="url(#SVGID_12_)" fill="#B74F45" points="43.189,52.902 45.23,55.926 45.772,53.632 			"/>
		</g>
	</g>
	<g>
		<g>
			<defs>
				<rect id="SVGID_13_" x="2.162" y="21.437" width="119.545" height="119.546"/>
			</defs>
			<clipPath id="SVGID_14_">
				<use xlink:href="#SVGID_13_"  overflow="visible"/>
			</clipPath>
			<polyline clip-path="url(#SVGID_14_)" fill="#B74F45" points="53.465,41.754 54.419,44.842 55.879,45.066 57.704,45.874 
				59.922,45.179 56.103,44.842 			"/>
		</g>
	</g>
	<g>
		<g>
			<defs>
				<rect id="SVGID_15_" x="2.162" y="21.437" width="119.545" height="119.546"/>
			</defs>
			<clipPath id="SVGID_16_">
				<use xlink:href="#SVGID_15_"  overflow="visible"/>
			</clipPath>
			<polyline clip-path="url(#SVGID_16_)" fill="#B74F45" points="60.287,63.809 60.744,61.722 61.648,61.998 			"/>
		</g>
	</g>
	<g>
		<g>
			<defs>
				<rect id="SVGID_17_" x="2.162" y="21.437" width="119.545" height="119.546"/>
			</defs>
			<clipPath id="SVGID_18_">
				<use xlink:href="#SVGID_17_"  overflow="visible"/>
			</clipPath>
			<polyline clip-path="url(#SVGID_18_)" fill="#B74F45" points="62.518,62.288 62.869,63.641 63.403,61.928 			"/>
		</g>
	</g>
	<g>
		<g>
			<defs>
				<rect id="SVGID_19_" x="2.162" y="21.437" width="119.545" height="119.546"/>
			</defs>
			<clipPath id="SVGID_20_">
				<use xlink:href="#SVGID_19_"  overflow="visible"/>
			</clipPath>
			<polygon clip-path="url(#SVGID_20_)" fill="#B74F45" points="64.919,70.364 61.045,68.006 61.93,67.108 65.066,69.217 
				73.65,74.8 			"/>
		</g>
	</g>
	<g>
		<g>
			<defs>
				<rect id="SVGID_21_" x="2.162" y="21.437" width="119.545" height="119.546"/>
			</defs>
			<clipPath id="SVGID_22_">
				<use xlink:href="#SVGID_21_"  overflow="visible"/>
			</clipPath>
			<g clip-path="url(#SVGID_22_)">
				<path fill="#B74F45" d="M41.507,76.865c0,0,0.198,0.704,0.441,1.564s1.745,1.18,3.339,0.709c1.594-0.47,2.898-0.855,2.898-0.855
					"/>
			</g>
		</g>
	</g>
	<g>
		<g>
			<defs>
				<rect id="SVGID_23_" x="2.162" y="21.437" width="119.545" height="119.546"/>
			</defs>
			<clipPath id="SVGID_24_">
				<use xlink:href="#SVGID_23_"  overflow="visible"/>
			</clipPath>
			<g clip-path="url(#SVGID_24_)">
				<path fill="#FFFFFF" d="M44.65,68.792c0,0,0.202,1.314,0.449,2.92s1.712,2.743,3.257,2.527c1.544-0.216,2.808-0.393,2.808-0.393
					"/>
			</g>
		</g>
	</g>
	<g>
		<g>
			<defs>
				<rect id="SVGID_25_" x="2.162" y="21.437" width="119.545" height="119.546"/>
			</defs>
			<clipPath id="SVGID_26_">
				<use xlink:href="#SVGID_25_"  overflow="visible"/>
			</clipPath>
			<g id="Позвонок_1_" clip-path="url(#SVGID_26_)">
				<g id="Позвонок_3_">
					<path fill="#FFFFFF" d="M28.228,91.628c0,0-0.329-0.571-0.731-1.269s-0.901-2.008-1.11-2.912
						c-0.208-0.903-0.379-2.381-0.379-3.285c0-0.903,0.069-2.618,0.154-3.811s0.312-3.078,0.505-4.19s0.572-2.685,0.842-3.495
						c0.27-0.811,0.801-2.071,1.179-2.8s1.086-1.838,1.572-2.463s1.51-1.762,2.274-2.527c0.764-0.764,2.28-1.825,3.369-2.358
						c1.089-0.533,2.775-1.329,3.748-1.769s2.375-1.103,3.116-1.474s1.784-1.034,2.316-1.474c0.533-0.44,0.211-0.554-0.716-0.253
						s-2.556,0.851-3.621,1.221c-1.065,0.371-2.828,1.034-3.916,1.474s-2.794,1.331-3.79,1.979
						c-0.996,0.648-2.379,1.785-3.074,2.527s-1.718,2.143-2.274,3.116s-1.333,2.754-1.727,3.958s-0.868,3.118-1.053,4.253
						c-0.185,1.135-0.37,3.124-0.411,4.42s-0.008,3.377,0.073,4.624s0.416,2.82,0.744,3.495s0.888,1.544,1.243,1.93
						c0.356,0.386,0.81,0.816,1.011,0.954c0.2,0.139,0.443,0.256,0.539,0.26c0.096,0.004,0.175,0.007,0.175,0.007"/>
				</g>
				
					<line fill="none" stroke="#BA4F46" stroke-width="0.5" stroke-miterlimit="10" x1="36.394" y1="60.421" x2="37.884" y2="61.633"/>
				
					<line fill="none" stroke="#BA4F46" stroke-width="0.5" stroke-miterlimit="10" x1="32.578" y1="62.588" x2="34.15" y2="63.627"/>
				
					<line fill="none" stroke="#BA4F46" stroke-width="0.5" stroke-miterlimit="10" x1="29.069" y1="65.395" x2="31.202" y2="66.434"/>
				
					<line fill="none" stroke="#BA4F46" stroke-width="0.5" stroke-miterlimit="10" x1="26.767" y1="69.213" x2="29.237" y2="69.999"/>
				
					<line fill="none" stroke="#BA4F46" stroke-width="0.5" stroke-miterlimit="10" x1="25.251" y1="73.115" x2="27.862" y2="73.396"/>
				
					<line fill="none" stroke="#BA4F46" stroke-width="0.5" stroke-miterlimit="10" x1="24.437" y1="77.158" x2="26.556" y2="77.298"/>
				
					<line fill="none" stroke="#BA4F46" stroke-width="0.5" stroke-miterlimit="10" x1="24.296" y1="80.864" x2="26.318" y2="80.864"/>
				
					<line fill="none" stroke="#BA4F46" stroke-width="0.5" stroke-miterlimit="10" x1="24.465" y1="84.148" x2="26.556" y2="84.148"/>
				
					<line fill="none" stroke="#BA4F46" stroke-width="0.5" stroke-miterlimit="10" x1="25.117" y1="88.184" x2="27.209" y2="88.184"/>
			</g>
		</g>
	</g>
</g>
<path fill="#B74F45" d="M16.594,16.775v-9.18c0-0.363,0.205-0.547,0.612-0.547s0.612,0.183,0.612,0.547v3.681h4.323V7.595
	c0-0.363,0.201-0.547,0.604-0.547c0.412,0,0.619,0.183,0.619,0.547v9.18c0,0.352-0.207,0.527-0.619,0.527
	c-0.402,0-0.604-0.175-0.604-0.527v-4.39h-4.323v4.39c0,0.352-0.204,0.527-0.612,0.527C16.798,17.302,16.594,17.127,16.594,16.775
	L16.594,16.775z M25.226,15.855V8.432c0-0.412,0.084-0.736,0.251-0.974c0.17-0.239,0.48-0.356,0.928-0.356h4.331
	c0.324,0,0.485,0.187,0.485,0.562c0,0.367-0.161,0.549-0.485,0.549h-3.903c-0.141,0-0.238,0.032-0.297,0.092
	c-0.06,0.062-0.089,0.166-0.089,0.308v2.803h3.4c0.305,0,0.456,0.177,0.456,0.53c0,0.347-0.151,0.523-0.456,0.523h-3.4v3.196
	c0,0.146,0.029,0.25,0.089,0.31c0.058,0.058,0.156,0.091,0.297,0.091h3.903c0.324,0,0.485,0.186,0.485,0.561
	c0,0.367-0.161,0.548-0.485,0.548h-4.331c-0.448,0-0.758-0.117-0.928-0.35C25.31,16.592,25.226,16.267,25.226,15.855L25.226,15.855z
	 M32.657,16.76V8.432c0-0.197,0.018-0.37,0.049-0.513c0.034-0.148,0.089-0.285,0.17-0.416c0.08-0.131,0.2-0.23,0.36-0.299
	c0.161-0.067,0.362-0.101,0.599-0.101h4.394c0.453,0,0.766,0.117,0.936,0.356c0.169,0.237,0.256,0.561,0.256,0.974v8.328
	c0,0.363-0.205,0.542-0.612,0.542c-0.409,0-0.611-0.179-0.611-0.542V8.614c0-0.146-0.029-0.25-0.089-0.308
	c-0.057-0.06-0.157-0.092-0.303-0.092h-3.54c-0.14,0-0.24,0.032-0.297,0.092c-0.06,0.059-0.089,0.163-0.089,0.308v8.147
	c0,0.363-0.206,0.542-0.618,0.542C32.858,17.302,32.657,17.124,32.657,16.76L32.657,16.76z M41.299,16.775V8.432
	c0-0.197,0.016-0.37,0.047-0.513c0.034-0.148,0.089-0.285,0.17-0.416c0.079-0.131,0.2-0.23,0.36-0.299
	c0.161-0.067,0.362-0.101,0.6-0.101h2.27c0.912,0,1.651,0.271,2.226,0.812c0.573,0.541,0.858,1.273,0.858,2.195
	c0,0.882-0.274,1.599-0.823,2.154c-0.55,0.553-1.259,0.832-2.135,0.832H42.52v3.683c0,0.349-0.204,0.524-0.618,0.524
	C41.5,17.302,41.299,17.127,41.299,16.775L41.299,16.775z M42.52,12.043h2.247c0.566,0,1.016-0.178,1.346-0.535
	c0.328-0.356,0.493-0.823,0.493-1.398c0-0.558-0.157-1.022-0.475-1.395c-0.313-0.372-0.74-0.558-1.28-0.558h-1.945
	c-0.143,0-0.243,0.031-0.302,0.095c-0.055,0.062-0.084,0.167-0.084,0.32V12.043L42.52,12.043z M48.463,16.775l3.064-9.18
	c0.122-0.363,0.381-0.547,0.779-0.547c0.394,0,0.65,0.183,0.772,0.547l3.064,9.18c0.105,0.352-0.04,0.527-0.444,0.527
	c-0.229,0-0.407-0.038-0.537-0.112c-0.128-0.075-0.222-0.214-0.286-0.416l-0.814-2.534h-3.51l-0.823,2.534
	c-0.062,0.201-0.156,0.34-0.285,0.416c-0.128,0.074-0.312,0.112-0.552,0.112C48.498,17.302,48.356,17.127,48.463,16.775
	L48.463,16.775z M50.852,13.292h2.907l-0.983-3.063c-0.109-0.318-0.264-0.936-0.47-1.853c-0.196,0.87-0.355,1.489-0.477,1.853
	L50.852,13.292L50.852,13.292z M57.336,15.855V8.432c0-0.412,0.083-0.736,0.253-0.974c0.169-0.239,0.479-0.356,0.928-0.356H61.2
	c0.511,0,0.977,0.089,1.393,0.265c0.417,0.177,0.758,0.455,1.02,0.834c0.263,0.381,0.394,0.834,0.394,1.359
	c0,0.571-0.144,1.053-0.431,1.444c-0.289,0.391-0.701,0.667-1.235,0.827c0.608,0.163,1.084,0.469,1.418,0.92
	c0.339,0.452,0.506,0.998,0.506,1.638c0,0.604-0.136,1.119-0.407,1.545c-0.271,0.427-0.634,0.738-1.09,0.939
	c-0.459,0.202-0.983,0.301-1.578,0.301h-2.675c-0.448,0-0.758-0.117-0.928-0.35C57.419,16.592,57.336,16.267,57.336,15.855
	L57.336,15.855z M58.516,15.713c0,0.153,0.029,0.263,0.088,0.333c0.058,0.068,0.159,0.106,0.299,0.106h2.232
	c0.558,0,1.017-0.159,1.374-0.476c0.357-0.316,0.537-0.761,0.537-1.325c0-0.657-0.19-1.148-0.569-1.475
	c-0.378-0.326-0.889-0.49-1.531-0.49h-2.428v3.327H58.516z M58.516,11.436h2.128c1.428,0,2.141-0.582,2.141-1.749
	c0-0.528-0.172-0.918-0.516-1.175c-0.346-0.256-0.787-0.383-1.322-0.383h-2.045c-0.14,0-0.24,0.035-0.299,0.105
	c-0.058,0.072-0.088,0.183-0.088,0.338L58.516,11.436L58.516,11.436z M65.7,16.775v-9.18c0-0.363,0.208-0.547,0.62-0.547
	c0.403,0,0.603,0.183,0.603,0.547v7.524c0.169-0.351,0.383-0.741,0.647-1.165l4.074-6.631c0.104-0.184,0.285-0.275,0.547-0.275
	c0.412,0,0.62,0.183,0.62,0.547v9.18c0,0.352-0.207,0.527-0.62,0.527c-0.402,0-0.603-0.175-0.603-0.527V9.219
	c-0.113,0.29-0.295,0.642-0.547,1.054l-4.187,6.791c-0.086,0.16-0.263,0.238-0.534,0.238C65.908,17.302,65.7,17.127,65.7,16.775
	L65.7,16.775z M73.925,17.119c-0.08-0.08-0.118-0.167-0.114-0.26c0.005-0.094,0.008-0.185,0.008-0.271
	c0.018-0.17,0.071-0.287,0.157-0.357c0.088-0.068,0.211-0.095,0.377-0.081c0.207,0.013,0.36-0.044,0.462-0.169
	c0.104-0.127,0.161-0.296,0.169-0.506l0.375-7.043c0.023-0.417,0.124-0.743,0.304-0.978c0.18-0.234,0.497-0.351,0.952-0.351h3.29
	c0.451,0,0.758,0.117,0.928,0.356C81,7.696,81.084,8.02,81.084,8.433v8.252c0,0.365-0.201,0.547-0.602,0.547
	c-0.415,0-0.621-0.179-0.621-0.533V8.617c0-0.146-0.029-0.25-0.089-0.312c-0.057-0.06-0.162-0.092-0.312-0.092h-2.478
	c-0.146,0-0.252,0.032-0.317,0.092c-0.068,0.059-0.1,0.163-0.105,0.308l-0.329,6.476c-0.013,0.266-0.037,0.501-0.068,0.705
	c-0.034,0.203-0.094,0.409-0.183,0.616c-0.088,0.203-0.201,0.372-0.341,0.498c-0.136,0.124-0.321,0.222-0.548,0.29
	c-0.227,0.066-0.498,0.087-0.806,0.06C74.123,17.246,74.003,17.2,73.925,17.119L73.925,17.119z M82.951,15.855v-8.33
	c0-0.367,0.201-0.549,0.605-0.549c0.412,0,0.618,0.182,0.618,0.547v3.592h2.352c0.875,0,1.585,0.276,2.133,0.824
	c0.55,0.55,0.823,1.264,0.823,2.147c0,0.923-0.287,1.669-0.865,2.237c-0.579,0.568-1.317,0.852-2.218,0.852h-2.271
	c-0.237,0-0.438-0.034-0.6-0.1c-0.159-0.07-0.282-0.169-0.363-0.297c-0.081-0.128-0.136-0.264-0.169-0.41
	C82.966,16.223,82.951,16.051,82.951,15.855L82.951,15.855z M84.174,15.666c0,0.146,0.029,0.25,0.089,0.31
	c0.057,0.058,0.155,0.091,0.297,0.091h1.945c0.539,0,0.965-0.19,1.28-0.568c0.316-0.38,0.476-0.852,0.476-1.413
	c0-0.576-0.164-1.029-0.488-1.361c-0.324-0.334-0.777-0.5-1.351-0.5h-2.247v3.441H84.174z M90.791,16.775v-9.18
	c0-0.363,0.204-0.547,0.611-0.547s0.612,0.183,0.612,0.547v3.681h4.323V7.595c0-0.363,0.201-0.547,0.603-0.547
	c0.414,0,0.62,0.183,0.62,0.547v9.18c0,0.352-0.206,0.527-0.62,0.527c-0.402,0-0.603-0.175-0.603-0.527v-4.39h-4.323v4.39
	c0,0.352-0.204,0.527-0.612,0.527C90.996,17.302,90.791,17.127,90.791,16.775L90.791,16.775z M99.243,14.251
	c-0.166-0.628-0.25-1.331-0.25-2.108s0.081-1.479,0.248-2.107c0.162-0.629,0.409-1.176,0.74-1.643
	c0.329-0.466,0.762-0.824,1.299-1.079c0.535-0.251,1.157-0.378,1.856-0.378c0.702,0,1.321,0.127,1.856,0.378
	c0.535,0.255,0.967,0.613,1.294,1.079c0.331,0.467,0.578,1.014,0.741,1.643c0.166,0.628,0.247,1.331,0.247,2.107
	c0,0.778-0.085,1.48-0.25,2.108c-0.166,0.626-0.414,1.169-0.748,1.633c-0.332,0.463-0.764,0.821-1.296,1.074
	c-0.531,0.251-1.147,0.378-1.844,0.378c-0.698,0-1.311-0.127-1.846-0.378c-0.534-0.253-0.965-0.611-1.3-1.074
	C99.659,15.42,99.409,14.877,99.243,14.251L99.243,14.251z M100.301,12.143c0,2.83,0.944,4.244,2.836,4.244
	c1.887,0,2.832-1.415,2.832-4.244c0-2.838-0.945-4.258-2.832-4.258C101.245,7.885,100.301,9.305,100.301,12.143z"/>
<g>
	
		<line fill="none" stroke="#F6E146" stroke-linecap="round" stroke-miterlimit="10" x1="135.12" y1="67.717" x2="140.386" y2="96.39"/>
	
		<line fill="none" stroke="#F6E146" stroke-linecap="round" stroke-miterlimit="10" x1="140.386" y1="96.39" x2="168.575" y2="96.39"/>
	
		<line fill="none" stroke="#F6E146" stroke-linecap="round" stroke-miterlimit="10" x1="168.575" y1="96.39" x2="168.575" y2="125.765"/>
	
		<line fill="none" stroke="#F6E146" stroke-linecap="round" stroke-miterlimit="10" x1="168.575" y1="125.765" x2="180.461" y2="125.765"/>
	<circle fill="#F6E146" cx="140.902" cy="96.244" r="1.934"/>
	<circle fill="#F6E146" cx="134.902" cy="67.244" r="1.934"/>
	<circle fill="#F6E146" cx="168.902" cy="96.244" r="1.934"/>
	<circle fill="#F6E146" cx="168.902" cy="125.244" r="1.934"/>
	<circle fill="#F6E146" cx="178.902" cy="125.244" r="1.934"/>
	<text transform="matrix(1 0 0 1 158.6711 103.5713)" fill="#A0A0A0" font-family="'Fregat'" font-size="6">90</text>
	<text transform="matrix(1 0 0 1 170.8364 115.8236)" fill="#A0A0A0" font-family="'Fregat'" font-size="6">90</text>
</g>
</svg>
