<?xml version="1.0" encoding="utf-8"?>
<!-- Generator: Adobe Illustrator 17.1.0, SVG Export Plug-In . SVG Version: 6.00 Build 0)  -->
<!DOCTYPE svg PUBLIC "-//W3C//DTD SVG 1.1//EN" "http://www.w3.org/Graphics/SVG/1.1/DTD/svg11.dtd">
<svg version="1.1" id="Слой_1" xmlns="http://www.w3.org/2000/svg" xmlns:xlink="http://www.w3.org/1999/xlink" x="0px" y="0px"
	 viewBox="0 0 223.3 135" enable-background="new 0 0 223.3 135" xml:space="preserve">
<path fill="#5C8D5A" d="M135.5,19.7v-8.3c0-0.2,0-0.4,0-0.5c0-0.1,0.1-0.3,0.2-0.4c0.1-0.1,0.2-0.2,0.4-0.3c0.2-0.1,0.4-0.1,0.6-0.1
	h4.4c0.5,0,0.8,0.1,0.9,0.4c0.2,0.2,0.3,0.6,0.3,1v8.3c0,0.4-0.2,0.5-0.6,0.5c-0.4,0-0.6-0.2-0.6-0.5v-8.1c0-0.1,0-0.3-0.1-0.3
	c-0.1-0.1-0.2-0.1-0.3-0.1h-3.5c-0.1,0-0.2,0-0.3,0.1c-0.1,0.1-0.1,0.2-0.1,0.3v8.1c0,0.4-0.2,0.5-0.6,0.5
	C135.7,20.3,135.5,20.1,135.5,19.7L135.5,19.7z M144.2,19.7v-8.3c0-0.2,0-0.4,0-0.5c0-0.1,0.1-0.3,0.2-0.4c0.1-0.1,0.2-0.2,0.4-0.3
	c0.2-0.1,0.4-0.1,0.6-0.1h2.3c0.9,0,1.7,0.3,2.2,0.8c0.6,0.5,0.9,1.3,0.9,2.2c0,0.9-0.3,1.6-0.8,2.2c-0.6,0.6-1.3,0.8-2.1,0.8h-2.4
	v3.7c0,0.3-0.2,0.5-0.6,0.5C144.4,20.3,144.2,20.1,144.2,19.7L144.2,19.7z M145.4,15h2.2c0.6,0,1-0.2,1.3-0.5
	c0.3-0.4,0.5-0.8,0.5-1.4c0-0.6-0.2-1-0.5-1.4c-0.3-0.4-0.7-0.6-1.3-0.6h-1.9c-0.1,0-0.2,0-0.3,0.1c-0.1,0.1-0.1,0.2-0.1,0.3
	L145.4,15L145.4,15z M151.3,19.7l3.1-9.2c0.1-0.4,0.4-0.5,0.8-0.5c0.4,0,0.6,0.2,0.8,0.5l3.1,9.2c0.1,0.4,0,0.5-0.4,0.5
	c-0.2,0-0.4,0-0.5-0.1c-0.1-0.1-0.2-0.2-0.3-0.4l-0.8-2.5h-3.5l-0.8,2.5c-0.1,0.2-0.2,0.3-0.3,0.4c-0.1,0.1-0.3,0.1-0.6,0.1
	C151.4,20.3,151.2,20.1,151.3,19.7L151.3,19.7z M153.7,16.3h2.9l-1-3.1c-0.1-0.3-0.3-0.9-0.5-1.9c-0.2,0.9-0.4,1.5-0.5,1.9
	L153.7,16.3L153.7,16.3z M160.2,18.8v-7.4c0-0.4,0.1-0.7,0.3-1c0.2-0.2,0.5-0.4,0.9-0.4h2.7c0.5,0,1,0.1,1.4,0.3
	c0.4,0.2,0.8,0.5,1,0.8c0.3,0.4,0.4,0.8,0.4,1.4c0,0.6-0.1,1.1-0.4,1.4c-0.3,0.4-0.7,0.7-1.2,0.8c0.6,0.2,1.1,0.5,1.4,0.9
	c0.3,0.5,0.5,1,0.5,1.6c0,0.6-0.1,1.1-0.4,1.5c-0.3,0.4-0.6,0.7-1.1,0.9c-0.5,0.2-1,0.3-1.6,0.3h-2.7c-0.4,0-0.8-0.1-0.9-0.4
	C160.3,19.6,160.2,19.2,160.2,18.8L160.2,18.8z M161.4,18.7c0,0.2,0,0.3,0.1,0.3c0.1,0.1,0.2,0.1,0.3,0.1h2.2c0.6,0,1-0.2,1.4-0.5
	c0.4-0.3,0.5-0.8,0.5-1.3c0-0.7-0.2-1.1-0.6-1.5c-0.4-0.3-0.9-0.5-1.5-0.5h-2.4L161.4,18.7L161.4,18.7z M161.4,14.4h2.1
	c1.4,0,2.1-0.6,2.1-1.7c0-0.5-0.2-0.9-0.5-1.2c-0.3-0.3-0.8-0.4-1.3-0.4h-2c-0.1,0-0.2,0-0.3,0.1c-0.1,0.1-0.1,0.2-0.1,0.3
	L161.4,14.4L161.4,14.4z M168.6,19.7v-9.2c0-0.4,0.2-0.5,0.6-0.5c0.4,0,0.6,0.2,0.6,0.5v7.5c0.2-0.4,0.4-0.7,0.6-1.2l4.1-6.6
	c0.1-0.2,0.3-0.3,0.5-0.3c0.4,0,0.6,0.2,0.6,0.5v9.2c0,0.4-0.2,0.5-0.6,0.5c-0.4,0-0.6-0.2-0.6-0.5v-7.6c-0.1,0.3-0.3,0.6-0.5,1.1
	l-4.2,6.8c-0.1,0.2-0.3,0.2-0.5,0.2C168.8,20.3,168.6,20.1,168.6,19.7L168.6,19.7z M176.8,20.1c-0.1-0.1-0.1-0.2-0.1-0.3
	c0-0.1,0-0.2,0-0.3c0-0.2,0.1-0.3,0.2-0.4c0.1-0.1,0.2-0.1,0.4-0.1c0.2,0,0.4,0,0.5-0.2c0.1-0.1,0.2-0.3,0.2-0.5l0.4-7
	c0-0.4,0.1-0.7,0.3-1c0.2-0.2,0.5-0.4,1-0.4h3.3c0.4,0,0.8,0.1,0.9,0.4c0.2,0.2,0.3,0.6,0.3,1v8.3c0,0.4-0.2,0.5-0.6,0.5
	c-0.4,0-0.6-0.2-0.6-0.5v-8.1c0-0.1,0-0.3-0.1-0.3c-0.1-0.1-0.2-0.1-0.3-0.1h-2.5c-0.1,0-0.3,0-0.3,0.1c-0.1,0.1-0.1,0.2-0.1,0.3
	l-0.3,6.5c0,0.3,0,0.5-0.1,0.7c0,0.2-0.1,0.4-0.2,0.6c-0.1,0.2-0.2,0.4-0.3,0.5c-0.1,0.1-0.3,0.2-0.5,0.3c-0.2,0.1-0.5,0.1-0.8,0.1
	C177,20.2,176.9,20.2,176.8,20.1L176.8,20.1z M185.8,18.8v-8.3c0-0.4,0.2-0.5,0.6-0.5c0.4,0,0.6,0.2,0.6,0.5v3.6h2.4
	c0.9,0,1.6,0.3,2.1,0.8c0.6,0.5,0.8,1.3,0.8,2.1c0,0.9-0.3,1.7-0.9,2.2c-0.6,0.6-1.3,0.9-2.2,0.9H187c-0.2,0-0.4,0-0.6-0.1
	c-0.2-0.1-0.3-0.2-0.4-0.3c-0.1-0.1-0.1-0.3-0.2-0.4C185.8,19.2,185.8,19,185.8,18.8L185.8,18.8z M187,18.6c0,0.1,0,0.3,0.1,0.3
	c0.1,0.1,0.2,0.1,0.3,0.1h1.9c0.5,0,1-0.2,1.3-0.6c0.3-0.4,0.5-0.9,0.5-1.4c0-0.6-0.2-1-0.5-1.4c-0.3-0.3-0.8-0.5-1.4-0.5H187
	L187,18.6L187,18.6z M193.6,19.7v-9.2c0-0.4,0.2-0.5,0.6-0.5s0.6,0.2,0.6,0.5v3.7h4.3v-3.7c0-0.4,0.2-0.5,0.6-0.5
	c0.4,0,0.6,0.2,0.6,0.5v9.2c0,0.4-0.2,0.5-0.6,0.5c-0.4,0-0.6-0.2-0.6-0.5v-4.4h-4.3v4.4c0,0.4-0.2,0.5-0.6,0.5
	C193.8,20.3,193.6,20.1,193.6,19.7L193.6,19.7z M202.1,17.2c-0.2-0.6-0.3-1.3-0.3-2.1s0.1-1.5,0.2-2.1c0.2-0.6,0.4-1.2,0.7-1.6
	c0.3-0.5,0.8-0.8,1.3-1.1c0.5-0.3,1.2-0.4,1.9-0.4c0.7,0,1.3,0.1,1.9,0.4c0.5,0.3,1,0.6,1.3,1.1c0.3,0.5,0.6,1,0.7,1.6
	c0.2,0.6,0.2,1.3,0.2,2.1c0,0.8-0.1,1.5-0.3,2.1c-0.2,0.6-0.4,1.2-0.7,1.6c-0.3,0.5-0.8,0.8-1.3,1.1c-0.5,0.3-1.1,0.4-1.8,0.4
	s-1.3-0.1-1.8-0.4c-0.5-0.3-1-0.6-1.3-1.1C202.5,18.4,202.3,17.8,202.1,17.2L202.1,17.2z M203.2,15.1c0,2.8,0.9,4.2,2.8,4.2
	c1.9,0,2.8-1.4,2.8-4.2c0-2.8-0.9-4.3-2.8-4.3C204.1,10.8,203.2,12.3,203.2,15.1z"/>
<path fill="#B74F45" d="M14,19.7v-9.2c0-0.4,0.2-0.5,0.6-0.5s0.6,0.2,0.6,0.5v3.7h4.3v-3.7c0-0.4,0.2-0.5,0.6-0.5
	c0.4,0,0.6,0.2,0.6,0.5v9.2c0,0.4-0.2,0.5-0.6,0.5c-0.4,0-0.6-0.2-0.6-0.5v-4.4h-4.3v4.4c0,0.4-0.2,0.5-0.6,0.5
	C14.2,20.3,14,20.1,14,19.7L14,19.7z M22.6,18.8v-7.4c0-0.4,0.1-0.7,0.3-1c0.2-0.2,0.5-0.4,0.9-0.4h4.3c0.3,0,0.5,0.2,0.5,0.6
	c0,0.4-0.2,0.5-0.5,0.5h-3.9c-0.1,0-0.2,0-0.3,0.1c-0.1,0.1-0.1,0.2-0.1,0.3v2.8h3.4c0.3,0,0.5,0.2,0.5,0.5c0,0.3-0.2,0.5-0.5,0.5
	h-3.4v3.2c0,0.1,0,0.3,0.1,0.3C24,19,24.1,19,24.2,19h3.9c0.3,0,0.5,0.2,0.5,0.6c0,0.4-0.2,0.5-0.5,0.5h-4.3c-0.4,0-0.8-0.1-0.9-0.3
	C22.7,19.6,22.6,19.2,22.6,18.8L22.6,18.8z M30.1,19.7v-8.3c0-0.2,0-0.4,0-0.5c0-0.1,0.1-0.3,0.2-0.4c0.1-0.1,0.2-0.2,0.4-0.3
	c0.2-0.1,0.4-0.1,0.6-0.1h4.4c0.5,0,0.8,0.1,0.9,0.4c0.2,0.2,0.3,0.6,0.3,1v8.3c0,0.4-0.2,0.5-0.6,0.5c-0.4,0-0.6-0.2-0.6-0.5v-8.1
	c0-0.1,0-0.3-0.1-0.3c-0.1-0.1-0.2-0.1-0.3-0.1h-3.5c-0.1,0-0.2,0-0.3,0.1c-0.1,0.1-0.1,0.2-0.1,0.3v8.1c0,0.4-0.2,0.5-0.6,0.5
	C30.3,20.3,30.1,20.1,30.1,19.7L30.1,19.7z M38.7,19.7v-8.3c0-0.2,0-0.4,0-0.5c0-0.1,0.1-0.3,0.2-0.4c0.1-0.1,0.2-0.2,0.4-0.3
	c0.2-0.1,0.4-0.1,0.6-0.1h2.3c0.9,0,1.7,0.3,2.2,0.8c0.6,0.5,0.9,1.3,0.9,2.2c0,0.9-0.3,1.6-0.8,2.2c-0.6,0.6-1.3,0.8-2.1,0.8h-2.4
	v3.7c0,0.3-0.2,0.5-0.6,0.5C38.9,20.3,38.7,20.1,38.7,19.7L38.7,19.7z M39.9,15h2.2c0.6,0,1-0.2,1.3-0.5c0.3-0.4,0.5-0.8,0.5-1.4
	c0-0.6-0.2-1-0.5-1.4c-0.3-0.4-0.7-0.6-1.3-0.6h-1.9c-0.1,0-0.2,0-0.3,0.1c-0.1,0.1-0.1,0.2-0.1,0.3V15L39.9,15z M45.9,19.7l3.1-9.2
	c0.1-0.4,0.4-0.5,0.8-0.5c0.4,0,0.7,0.2,0.8,0.5l3.1,9.2c0.1,0.4,0,0.5-0.4,0.5c-0.2,0-0.4,0-0.5-0.1c-0.1-0.1-0.2-0.2-0.3-0.4
	l-0.8-2.5H48l-0.8,2.5c-0.1,0.2-0.2,0.3-0.3,0.4c-0.1,0.1-0.3,0.1-0.6,0.1C45.9,20.3,45.8,20.1,45.9,19.7L45.9,19.7z M48.3,16.3h2.9
	l-1-3.1c-0.1-0.3-0.3-0.9-0.5-1.9c-0.2,0.9-0.4,1.5-0.5,1.9L48.3,16.3L48.3,16.3z M54.7,18.8v-7.4c0-0.4,0.1-0.7,0.3-1
	c0.2-0.2,0.5-0.4,0.9-0.4h2.7c0.5,0,1,0.1,1.4,0.3c0.4,0.2,0.8,0.5,1,0.8c0.3,0.4,0.4,0.8,0.4,1.4c0,0.6-0.1,1.1-0.4,1.4
	c-0.3,0.4-0.7,0.7-1.2,0.8c0.6,0.2,1.1,0.5,1.4,0.9c0.3,0.5,0.5,1,0.5,1.6c0,0.6-0.1,1.1-0.4,1.5c-0.3,0.4-0.6,0.7-1.1,0.9
	c-0.5,0.2-1,0.3-1.6,0.3h-2.7c-0.4,0-0.8-0.1-0.9-0.4C54.8,19.6,54.7,19.2,54.7,18.8L54.7,18.8z M55.9,18.7c0,0.2,0,0.3,0.1,0.3
	c0.1,0.1,0.2,0.1,0.3,0.1h2.2c0.6,0,1-0.2,1.4-0.5c0.4-0.3,0.5-0.8,0.5-1.3c0-0.7-0.2-1.1-0.6-1.5c-0.4-0.3-0.9-0.5-1.5-0.5h-2.4
	L55.9,18.7L55.9,18.7z M55.9,14.4h2.1c1.4,0,2.1-0.6,2.1-1.7c0-0.5-0.2-0.9-0.5-1.2c-0.3-0.3-0.8-0.4-1.3-0.4h-2
	c-0.1,0-0.2,0-0.3,0.1c-0.1,0.1-0.1,0.2-0.1,0.3L55.9,14.4L55.9,14.4z M63.1,19.7v-9.2c0-0.4,0.2-0.5,0.6-0.5c0.4,0,0.6,0.2,0.6,0.5
	v7.5c0.2-0.4,0.4-0.7,0.6-1.2l4.1-6.6c0.1-0.2,0.3-0.3,0.5-0.3c0.4,0,0.6,0.2,0.6,0.5v9.2c0,0.4-0.2,0.5-0.6,0.5
	c-0.4,0-0.6-0.2-0.6-0.5v-7.6c-0.1,0.3-0.3,0.6-0.5,1.1L64.3,20c-0.1,0.2-0.3,0.2-0.5,0.2C63.3,20.3,63.1,20.1,63.1,19.7L63.1,19.7z
	 M71.3,20.1c-0.1-0.1-0.1-0.2-0.1-0.3c0-0.1,0-0.2,0-0.3c0-0.2,0.1-0.3,0.2-0.4c0.1-0.1,0.2-0.1,0.4-0.1c0.2,0,0.4,0,0.5-0.2
	c0.1-0.1,0.2-0.3,0.2-0.5l0.4-7c0-0.4,0.1-0.7,0.3-1c0.2-0.2,0.5-0.4,1-0.4h3.3c0.5,0,0.8,0.1,0.9,0.4c0.2,0.2,0.3,0.6,0.3,1v8.3
	c0,0.4-0.2,0.5-0.6,0.5c-0.4,0-0.6-0.2-0.6-0.5v-8.1c0-0.1,0-0.3-0.1-0.3c-0.1-0.1-0.2-0.1-0.3-0.1h-2.5c-0.1,0-0.3,0-0.3,0.1
	C74,11.3,74,11.4,74,11.6l-0.3,6.5c0,0.3,0,0.5-0.1,0.7c0,0.2-0.1,0.4-0.2,0.6c-0.1,0.2-0.2,0.4-0.3,0.5c-0.1,0.1-0.3,0.2-0.5,0.3
	c-0.2,0.1-0.5,0.1-0.8,0.1C71.5,20.2,71.4,20.2,71.3,20.1L71.3,20.1z M80.4,18.8v-8.3c0-0.4,0.2-0.5,0.6-0.5c0.4,0,0.6,0.2,0.6,0.5
	v3.6h2.4c0.9,0,1.6,0.3,2.1,0.8c0.6,0.5,0.8,1.3,0.8,2.1c0,0.9-0.3,1.7-0.9,2.2c-0.6,0.6-1.3,0.9-2.2,0.9h-2.3c-0.2,0-0.4,0-0.6-0.1
	c-0.2-0.1-0.3-0.2-0.4-0.3c-0.1-0.1-0.1-0.3-0.2-0.4C80.4,19.2,80.4,19,80.4,18.8L80.4,18.8z M81.6,18.6c0,0.1,0,0.3,0.1,0.3
	C81.7,19,81.8,19,82,19h1.9c0.5,0,1-0.2,1.3-0.6c0.3-0.4,0.5-0.9,0.5-1.4c0-0.6-0.2-1-0.5-1.4c-0.3-0.3-0.8-0.5-1.4-0.5h-2.2
	L81.6,18.6L81.6,18.6z M88.2,19.7v-9.2c0-0.4,0.2-0.5,0.6-0.5s0.6,0.2,0.6,0.5v3.7h4.3v-3.7c0-0.4,0.2-0.5,0.6-0.5
	c0.4,0,0.6,0.2,0.6,0.5v9.2c0,0.4-0.2,0.5-0.6,0.5c-0.4,0-0.6-0.2-0.6-0.5v-4.4h-4.3v4.4c0,0.4-0.2,0.5-0.6,0.5
	C88.4,20.3,88.2,20.1,88.2,19.7L88.2,19.7z M96.7,17.2c-0.2-0.6-0.3-1.3-0.3-2.1s0.1-1.5,0.2-2.1c0.2-0.6,0.4-1.2,0.7-1.6
	c0.3-0.5,0.8-0.8,1.3-1.1c0.5-0.3,1.2-0.4,1.9-0.4c0.7,0,1.3,0.1,1.9,0.4c0.5,0.3,1,0.6,1.3,1.1c0.3,0.5,0.6,1,0.7,1.6
	c0.2,0.6,0.2,1.3,0.2,2.1c0,0.8-0.1,1.5-0.3,2.1c-0.2,0.6-0.4,1.2-0.7,1.6c-0.3,0.5-0.8,0.8-1.3,1.1c-0.5,0.3-1.1,0.4-1.8,0.4
	c-0.7,0-1.3-0.1-1.8-0.4c-0.5-0.3-1-0.6-1.3-1.1C97.1,18.4,96.8,17.8,96.7,17.2L96.7,17.2z M97.7,15.1c0,2.8,0.9,4.2,2.8,4.2
	c1.9,0,2.8-1.4,2.8-4.2c0-2.8-0.9-4.3-2.8-4.3C98.7,10.8,97.7,12.3,97.7,15.1z"/>
<g>
	<g>
		<g>
			<g>
				<path fill="#588E5C" d="M152.7,55.1c0,0-0.2-0.4-0.4-1c-0.2-0.5-1.1-0.8-2-0.6c-0.9,0.2-1.3,0-0.9-0.3c0.4-0.4,0.8-0.9,0.8-1.2
					c0-0.3,0-0.6-0.1-0.8c-0.1-0.1-0.3-0.4-0.4-0.6c-0.1-0.2-0.4-0.6-0.6-0.7c-0.2-0.2-0.5-0.5-0.7-0.7s-0.6-0.6-0.9-0.9
					c-0.2-0.3-0.6-0.7-0.8-0.9c-0.2-0.2-0.5-0.6-0.6-0.9c-0.1-0.3-0.3-0.7-0.3-1c0-0.2-0.1-0.7-0.1-1s0-0.9,0.2-1.2
					c0.1-0.4,0.4-0.9,0.5-1.3c0.1-0.3,0.4-0.8,0.6-1.1c0.2-0.3,0.9-0.9,1.6-1.4s1.6-1.2,2-1.4s1.1-0.6,1.5-0.7s1.2-0.3,1.6-0.4
					s1.3-0.2,1.9-0.3c0.6-0.1,1.5-0.2,1.9-0.3c0.5-0.1,1.4,0,2,0s1.5,0.3,2,0.5c0.5,0.2,1.2,0.6,1.6,0.8s0.9,0.6,1.2,0.7
					c0.3,0.2,0.8,0.6,1.1,0.9c0.3,0.3,0.8,0.8,1.1,1.2s0.3,0.9,0,1.3s-0.9,1.1-1.4,1.5s-0.8,1.2-0.8,1.5s0,0.8-0.1,1.1
					c-0.1,0.2-0.2,0.6-0.3,0.9s-0.2,0.6-0.3,0.9s-0.1,0.6-0.1,0.8s0.2,0.5,0.4,0.6s0.5,0.4,0.7,0.5c0.2,0.1,0.4,0.4,0.5,0.5
					s0,0.5-0.1,0.6s-0.5,0.5-0.8,0.6c-0.3,0.2-0.6,0.4-0.6,0.5c0,0.1,0,0.3,0,0.5s0.1,0.4,0.1,0.5c0,0.1-0.2,0.3-0.5,0.4
					c-0.3,0.1-0.7,0.2-0.8,0.2s-0.3,0.2-0.2,0.3c0.1,0.1,0.1,0.4,0.2,0.5s0,0.4-0.1,0.5s-0.3,0.2-0.6,0.1c-0.2-0.1-0.6-0.1-0.7-0.1
					s-0.3,0.2-0.3,0.3c0,0.1-0.1,0.4-0.2,0.6s-0.2,0.4-0.3,0.6s-0.4,0.2-0.7,0.3c-0.3,0-0.7,0-1-0.1c-0.3-0.1-0.7-0.4-1-0.6
					s-0.7-0.5-1-0.7c-0.3-0.1-0.6-0.2-0.7-0.1s-0.2,0.3-0.2,0.4s0,0.4,0.1,0.6s0.1,0.5,0.1,0.7s0,0.4,0.1,0.6c0,0.2,0.1,0.3,0.1,0.3
					"/>
			</g>
			<polyline fill="#588E5C" points="147,39.2 146.2,38.9 145.3,38.7 146.9,38.5 148,38.6 148.6,38.6 149.1,38.9 149.7,38.1 
				150.2,36.9 150.9,36.1 151.4,35.7 150.9,36.6 150.8,37.5 150.9,38.1 150,38.5 149.5,39.4 148.7,39.9 147.9,40 			"/>
			<polyline fill="#588E5C" points="166.5,40.8 167.7,42.3 168.3,43.4 167.5,43.3 166.6,43 165.7,42.8 166,43.4 166.5,44.5 
				166.6,45.5 166,44.7 165.6,44.1 165,43.5 			"/>
			<path fill="#588E5C" d="M183.2,113.8l0.4,6.4h1.4v0.8l-0.6,1l-0.3,0.8v0.7v0.5l0.2,1.6h4l0.3-1.2l2.2,1.2h6.6h1.7l1.3-0.6l-0.8-1
				l-2.5-0.8l-2.9-0.3l-1.7-1.2l-1.3-1.1l-0.4-1.1l3.5-0.3l0-1.8l-0.3-1.9l-0.2-1.1l0-2 M158.7,58.6l11.1,20.3l4.8,3.3l10.9,3.1
				l-7.8-0.6l-11.6-0.6l-4.6-9.7c1,0,3.3,3.5,3.3,8.6l8.7,1.1l13.2,1.2l2.6,1.1l1,1.6l3.3,24.2l-10.5,1.4l0.6-17.3l-1-1.7l-2.1-1
				h-5.8l-18.9,0c-3.1-0.8-3-7-3.3-12.5c-5.8-16.9-0.2-27.2,0.3-27.2l3.6,3.5L158.7,58.6z M188.6,113.4l0.3,5.4h1.4v0.8l-0.6,1
				l-0.3,0.8v0.7v0.5l0.2,1.6h4l0.3-1.2l2.2,1.2h6.6h1.7l1.3-0.6l-0.8-1l-2.5-0.8l-2.9-0.3l-1.7-1.2l-1.3-1.1l-0.4-1.1l0.9-0.1
				l-0.2-2.2l-0.6-2.6l-3.8-11.3l1.4,10.4"/>
			<path fill="#588E5C" d="M189.6,83.3"/>
		</g>
		<g>
			<g>
				<path fill="#FFFFFF" d="M154,53c0.1-0.6,0.3-0.5,0.3,0.3s-0.1,2-0.2,2.7s-0.3,1.7-0.5,2.1c-0.2,0.5-0.5,1.4-0.6,2
					c-0.2,0.6-0.4,1.7-0.5,2.4c-0.1,0.7-0.2,2.2-0.2,3.2c0,1.1,0.1,2.7,0.2,3.6c0.1,0.9,0.4,2.4,0.6,3.3c0.2,0.9,0.6,2.4,0.9,3.3
					c0.3,0.9,0.7,2.3,1,3.1s0.6,2,0.6,2.6c0.1,0.6,0.1,1.5,0,2s-0.1,1.4-0.1,1.9s0,1.3,0,1.8c0,0.4,0.1,1.1,0.2,1.5s0.3,1,0.4,1.3
					c0.1,0.3,0.4,0.7,0.6,0.9s0.4,0.4,0.4,0.5c0.1,0.1-0.3,0-0.9-0.3s-1.1-0.9-1.3-1.4s-0.4-1.2-0.6-1.7s-0.3-1.6-0.2-2.4
					s0.1-1.8,0.2-2.1s0-0.9-0.1-1.3s-0.4-1.1-0.5-1.7c-0.2-0.5-0.5-1.6-0.7-2.4c-0.2-0.8-0.5-1.9-0.7-2.6s-0.5-1.8-0.7-2.4
					s-0.4-1.7-0.5-2.3s-0.2-1.7-0.3-2.4s-0.1-1.9,0-2.5s0.1-1.5,0.1-2c0-0.5,0.2-1.4,0.3-2c0.2-0.7,0.5-1.6,0.6-2
					c0.2-0.5,0.5-1.2,0.7-1.8s0.5-1.3,0.6-1.7c0.1-0.4,0.3-1.1,0.4-1.5C153.6,54.4,153.8,53.6,154,53z"/>
			</g>
			<g>
				<line fill="none" stroke="#588E5C" stroke-width="0.5" stroke-miterlimit="10" x1="152.5" y1="57.5" x2="154" y2="57.5"/>
				<line fill="none" stroke="#588E5C" stroke-width="0.5" stroke-miterlimit="10" x1="151" y1="60.9" x2="153.4" y2="61"/>
				<line fill="none" stroke="#588E5C" stroke-width="0.5" stroke-miterlimit="10" x1="150.6" y1="64.4" x2="152.8" y2="64.4"/>
				<line fill="none" stroke="#588E5C" stroke-width="0.5" stroke-miterlimit="10" x1="150.2" y1="67.8" x2="153.1" y2="67.8"/>
				<line fill="none" stroke="#588E5C" stroke-width="0.5" stroke-miterlimit="10" x1="150.6" y1="71.1" x2="153.5" y2="71.1"/>
				<line fill="none" stroke="#588E5C" stroke-width="0.5" stroke-miterlimit="10" x1="151.3" y1="74.4" x2="154.1" y2="74.4"/>
				<line fill="none" stroke="#588E5C" stroke-width="0.5" stroke-miterlimit="10" x1="152.4" y1="77.7" x2="155.3" y2="77.7"/>
				<line fill="none" stroke="#588E5C" stroke-width="0.5" stroke-miterlimit="10" x1="153.3" y1="80.8" x2="156.1" y2="80.8"/>
				<line fill="none" stroke="#588E5C" stroke-width="0.5" stroke-miterlimit="10" x1="153.7" y1="84.3" x2="156.1" y2="84"/>
				<line fill="none" stroke="#588E5C" stroke-width="0.5" stroke-miterlimit="10" x1="153.6" y1="87.5" x2="155.9" y2="87.5"/>
			</g>
		</g>
	</g>
	<g id="Стул_2_">
		<polygon fill="none" stroke="#588E5C" stroke-miterlimit="10" points="147.5,67.4 149.3,83.5 151.5,83.5 149.3,67.4 		"/>
		<polygon fill="none" stroke="#588E5C" stroke-miterlimit="10" points="149.5,83.8 150.9,96.5 152.9,96.5 151.5,83.8 		"/>
		<circle fill="none" stroke="#588E5C" stroke-width="0.5" stroke-miterlimit="10" cx="150.7" cy="85.2" r="0.5"/>
		<circle fill="none" stroke="#588E5C" stroke-width="0.5" stroke-miterlimit="10" cx="151" cy="88" r="0.5"/>
		<circle fill="none" stroke="#588E5C" stroke-width="0.5" stroke-miterlimit="10" cx="151.3" cy="91.1" r="0.5"/>
		<circle fill="none" stroke="#588E5C" stroke-width="0.5" stroke-miterlimit="10" cx="151.7" cy="94.3" r="0.5"/>
		<polygon fill="none" stroke="#588E5C" stroke-miterlimit="10" points="155.5,94.1 174.8,93.8 175.2,95.7 155.4,96.6 		"/>
		<polygon fill="none" stroke="#588E5C" stroke-miterlimit="10" points="152.9,99.5 178.1,115.5 179.3,113.8 154.2,98.3 		"/>
		<circle fill="none" stroke="#588E5C" stroke-miterlimit="10" cx="171.3" cy="110" r="0.5"/>
		<path fill="none" stroke="#588E5C" stroke-miterlimit="10" d="M178.1,115.5c1.5,0.8,1.5,2.4,1.5,3.3c0,2.4-2.6,3.5-3.2,3.5"/>
		<path fill="none" stroke="#588E5C" stroke-miterlimit="10" d="M176.4,123.5"/>
		<path fill="none" stroke="#588E5C" stroke-miterlimit="10" d="M179.4,113.9"/>
		<path fill="none" stroke="#588E5C" stroke-miterlimit="10" d="M179.3,113.8c3.4,1.9,3.4,6.7,1.1,8.4"/>
		<rect x="149.7" y="122.6" fill="none" stroke="#588E5C" stroke-miterlimit="10" width="26.7" height="2.1"/>
		<rect x="145.7" y="122.2" fill="none" stroke="#588E5C" stroke-miterlimit="10" width="4.1" height="3.3"/>
		<polygon fill="#FFFFFF" stroke="#588E5C" stroke-miterlimit="10" points="176,125.3 180.6,125.3 180.4,122.2 176,122.2 		"/>
		<circle fill="none" stroke="#588E5C" stroke-miterlimit="10" cx="154.4" cy="123.7" r="0.5"/>
		<path fill="none" stroke="#588E5C" stroke-miterlimit="10" d="M150.9,96.5c0.3,1.7,1,2.7,2.1,3"/>
		<path fill="none" stroke="#588E5C" stroke-miterlimit="10" d="M152.9,96.5c0.2,1,0.6,1.4,1.2,1.9"/>
		<path fill="none" stroke="#588E5C" stroke-miterlimit="10" d="M152.5,92.4c0,1,1.3,1.9,3,1.9"/>
		<path fill="none" stroke="#588E5C" stroke-miterlimit="10" d="M152.9,95.8c0,0.4,1.2,0.7,2.6,0.7"/>
		<path fill="none" stroke="#588E5C" stroke-miterlimit="10" d="M149.4,67.3c0-1.4-0.6-2.6-1.4-2.6"/>
		<line fill="none" stroke="#588E5C" stroke-linecap="round" stroke-miterlimit="10" x1="148" y1="64.7" x2="146.4" y2="64.7"/>
		<line fill="none" stroke="#588E5C" stroke-linecap="round" stroke-miterlimit="10" x1="146.4" y1="64.7" x2="147" y2="67.4"/>
		<line fill="none" stroke="#588E5C" stroke-linecap="round" stroke-miterlimit="10" x1="147" y1="67.4" x2="149.4" y2="67.3"/>
	</g>
</g>
<g>
	<g>
		<g>
			<path fill="#B34F46" d="M60.8,77.2c-0.1-0.8-0.2,0.2,0.3-2.6c0.2-1.2,0.7-1.9,0.8-3s0.5-2.9,0.4-4.2s-0.4-2.8-0.5-3.2
				c-0.2-0.4-0.2-1.1-0.1-1.6c0.1-0.4,0.4-1,0.5-1.2c0.1-0.2,0.6-1.5,1.1-2.8s-0.4-2.7-1.8-3c-1.4-0.3-2.9,0.1-3.3,1
				c-0.4,0.9-1.3,1.9-1.9,2.3c-0.7,0.4-1.5,1-2,1.4c-0.4,0.3-1.1,1-1.5,1.4c-0.4,0.4-1.1,1.3-1.5,2.1s-0.9,1.8-1.1,2.5
				s-0.5,1.9-0.7,2.7c-0.2,0.9-0.3,2.2-0.2,3c0.1,0.8,0.2,2.1,0.2,2.8s0.2,1.9,0.3,2.5s0.3,1.6,0.3,2.1s0.1,1.3,0.2,1.8
				c0.1,0.5,0.1,1.3,0.2,1.7s0.2,1.4,0.3,2c0.1,0.6,0.4,1.7,0.6,2.4c0.2,0.7,0.7,1.8,1.1,2.4s1.2,1.4,1.8,1.7
				c0.6,0.3,4.9,1.1,9.6,1.7l0.2,0c4.6,0.6,8.4,1.4,8.4,1.7c0,0.3-0.1,4.4-0.3,9l-0.1,3.2c-0.2,4.7,1.2,5,2.9,0.6l1.5-3.7
				c1.8-4.3,3.3-8.4,3.3-9s0.1-1.5,0.1-2c0-0.5,0-1.3-0.1-1.9s-0.3-1.3-0.6-1.6s-1-0.8-1.6-1.1c-0.6-0.3-1.7-0.8-2.5-1.1
				s-2.3-0.9-3.2-1.2c-1-0.4-3.7-1.2-6-1.9c-2.3-0.7-4.5-2.1-4.8-3.2"/>
		</g>
		<g>
			<path fill="#B34F46" d="M64.4,57.5c0.2-0.2,1,0,1.7,0.4c0.8,0.4,1.5,0.7,1.7,0.7c0.2,0,0.4-0.1,0.4-0.3c0.1-0.1,0.3-0.4,0.5-0.6
				s0.4-0.4,0.5-0.6c0.1-0.1,0.3-0.2,0.5-0.2s0.5,0.1,0.6,0.2c0.1,0.1,0.3,0,0.4-0.1c0.1-0.1,0.2-0.3,0.2-0.4s0-0.3-0.1-0.4
				s-0.1-0.4-0.1-0.6s0.2-0.3,0.3-0.2s0.3,0.2,0.5,0.3s0.4,0.1,0.5,0c0.1-0.1,0.3-0.2,0.3-0.3s0-0.3-0.1-0.5
				c-0.1-0.2-0.2-0.4-0.3-0.5s0-0.3,0.1-0.4s0.3-0.3,0.4-0.3s0.4-0.1,0.6-0.2s0.4-0.2,0.5-0.3s0.1-0.4,0.1-0.5
				c0-0.1-0.2-0.3-0.4-0.4c-0.2-0.1-0.6-0.4-0.9-0.6s-0.5-0.7-0.4-1.1c0-0.4,0.2-0.9,0.4-1.2c0.2-0.3,0.3-0.9,0.2-1.2
				c0-0.4-0.1-0.8-0.1-1.1s0-0.6,0.2-0.7s0.5-0.3,0.7-0.4c0.3-0.1,0.6-0.1,0.9-0.1s0.6-0.1,0.9-0.1c0.3-0.1,0.3-0.4,0.1-0.8
				c-0.2-0.4-0.6-1-0.9-1.4s-1-1.1-1.6-1.5c-0.6-0.5-1.6-1.1-2.2-1.4c-0.6-0.3-1.5-0.7-2.1-0.9c-0.5-0.2-1.4-0.3-1.9-0.4
				c-0.5,0-1.4,0-1.9,0c-0.6,0.1-1.4,0.2-1.8,0.3c-0.4,0.1-1.1,0.3-1.6,0.5s-1.1,0.4-1.5,0.6s-1.1,0.5-1.4,0.8s-0.9,0.7-1.3,1.1
				s-0.9,1-1.2,1.6c-0.3,0.5-0.7,1.4-0.9,2s-0.3,1.4-0.2,1.7c0.1,0.4,0.3,0.9,0.4,1.2s0.6,0.8,0.9,1.1c0.3,0.3,0.8,0.9,1.2,1.3
				s0.9,1,1.1,1.2s0.6,0.7,0.7,0.9s0.2,0.7,0.3,1.1c0,0.4,1.1,1.3,2.4,2.1C63,57.3,64.2,57.7,64.4,57.5z"/>
		</g>
		<polygon fill="#B34F46" points="57.2,42.1 56.3,41.6 54.7,41 57,40.9 58.2,41.2 58.8,40.1 60.4,38.1 59.6,39.5 59.3,40.8 		"/>
		<polygon fill="#B34F46" points="75.3,44.9 76.3,46.8 74.2,45.6 74.5,47.5 74.6,48.9 73.8,46.8 73.3,45.8 		"/>
		<polygon fill="#B34F46" points="59,53 58.4,54.4 56.9,55 58.5,55.1 59.7,55.1 		"/>
		<g>
			<g>
				<path fill="#FFFFFF" d="M59.1,57.8c0.6-0.3,1-0.4,0.8-0.1s-0.6,0.8-0.9,1.1s-0.8,0.7-1.2,0.9c-0.3,0.2-0.9,0.6-1.3,0.9
					c-0.4,0.3-1,0.9-1.3,1.2c-0.4,0.3-0.9,1-1.3,1.4c-0.3,0.4-0.8,1.1-1,1.4s-0.6,1.2-0.8,1.8c-0.2,0.6-0.5,1.4-0.6,1.9
					c-0.1,0.4-0.2,1.3-0.3,1.9c-0.1,0.6-0.1,1.5-0.1,1.9s0,1.1,0,1.5s0,1.2,0.1,1.7c0,0.5,0.1,1.3,0.2,1.9c0.1,0.6,0.2,1.5,0.2,2.1
					s0.2,1.6,0.3,2.1s0.2,1.3,0.2,1.7s0.2,1,0.2,1.5c0.1,0.5,0.2,1.1,0.2,1.4c0,0.3,0.1,0.7,0.2,1c0.1,0.3,0.3,0.7,0.5,1
					s0.1,0.3-0.3,0s-0.8-0.8-1-1.1c-0.2-0.3-0.4-1.1-0.5-1.7c-0.1-0.6-0.2-1.5-0.3-2.1c-0.1-0.6-0.3-1.6-0.4-2.4
					c-0.1-0.7-0.3-2-0.4-2.8s-0.3-2.1-0.4-2.9c-0.1-0.8-0.2-2.1-0.2-2.8c0-0.7,0-1.9,0.1-2.5c0-0.6,0.3-1.7,0.5-2.5s0.7-1.9,1-2.6
					c0.3-0.7,1-1.7,1.5-2.2c0.5-0.5,1.3-1.4,1.9-1.9s1.5-1.2,2.1-1.6C57.4,58.7,58.4,58.1,59.1,57.8z"/>
			</g>
			<g>
				<line fill="none" stroke="#B34F46" stroke-width="0.5" stroke-miterlimit="10" x1="56.9" y1="58.6" x2="59" y2="59.2"/>
				<line fill="none" stroke="#B34F46" stroke-width="0.5" stroke-miterlimit="10" x1="53.5" y1="61.1" x2="55.9" y2="61.8"/>
				<line fill="none" stroke="#B34F46" stroke-width="0.5" stroke-miterlimit="10" x1="51.5" y1="63.9" x2="53.4" y2="64.5"/>
				<line fill="none" stroke="#B34F46" stroke-width="0.5" stroke-miterlimit="10" x1="50.2" y1="67" x2="52.1" y2="67.4"/>
				<line fill="none" stroke="#B34F46" stroke-width="0.5" stroke-miterlimit="10" x1="49.6" y1="70.1" x2="51.7" y2="70.6"/>
				<line fill="none" stroke="#B34F46" stroke-width="0.5" stroke-miterlimit="10" x1="49.8" y1="73.7" x2="51.4" y2="74"/>
				<line fill="none" stroke="#B34F46" stroke-width="0.5" stroke-miterlimit="10" x1="50" y1="77" x2="51.7" y2="77.2"/>
				<line fill="none" stroke="#B34F46" stroke-width="0.5" stroke-miterlimit="10" x1="50.5" y1="80.2" x2="52.3" y2="80.6"/>
				<line fill="none" stroke="#B34F46" stroke-width="0.5" stroke-miterlimit="10" x1="51.1" y1="83.9" x2="52.8" y2="84.1"/>
				<line fill="none" stroke="#B34F46" stroke-width="0.5" stroke-miterlimit="10" x1="51.9" y1="87.4" x2="53.4" y2="87.3"/>
			</g>
		</g>
	</g>
	<polygon fill="#B34F46" points="72.4,94.3 70.3,97.3 68.8,112.7 70.3,112.7 70.3,113.5 67.9,115.8 69.4,118.2 69.7,120.8 
		71.4,120.8 72.4,122.5 73.7,123.6 76,124.8 77.3,125.2 76.1,122.4 74.2,120.2 74.9,119.8 77.1,120.8 80.8,120.7 83.8,120.3 
		83.2,119.3 80.6,118 77.5,116.9 76.2,116.4 75.2,114.8 75.5,114.5 76.9,114.5 77.1,111.5 77.9,111.2 78,102.4 78.1,97.3 	"/>
	<g id="Стул_1_">
		<polygon fill="none" stroke="#B34F46" stroke-miterlimit="10" points="34.8,67.5 42.8,95.8 68.2,95.8 68.2,94 44.1,94.1 
			36.5,67.5 		"/>
		<polygon fill="none" stroke="#B34F46" stroke-miterlimit="10" points="40.2,79.8 35.5,64.6 37.8,64.6 42,79.8 		"/>
		<polygon fill="none" stroke="#B34F46" stroke-miterlimit="10" points="44.4,94 44.4,91.8 71.3,91.8 71.8,94 		"/>
		<polygon fill="none" stroke="#B34F46" stroke-miterlimit="10" points="45.8,95.8 38.8,126.1 41.1,126.1 48,95.8 		"/>
		<polygon fill="none" stroke="#B34F46" stroke-miterlimit="10" points="61.8,95.8 68.5,126.1 70.3,126.1 63.9,95.8 		"/>
	</g>
</g>
</svg>
