<?xml version="1.0" encoding="utf-8"?>
<!-- Generator: Adobe Illustrator 17.0.0, SVG Export Plug-In . SVG Version: 6.00 Build 0)  -->
<!DOCTYPE svg PUBLIC "-//W3C//DTD SVG 1.1//EN" "http://www.w3.org/Graphics/SVG/1.1/DTD/svg11.dtd">
<svg version="1.1" id="Слой_1" xmlns="http://www.w3.org/2000/svg" xmlns:xlink="http://www.w3.org/1999/xlink" x="0px" y="0px"
	 width="223.338px" height="135px" viewBox="0 0 223.338 135" enable-background="new 0 0 223.338 135" xml:space="preserve">
<path fill="#5C8D5A" d="M131.843,16.328V8c0-0.197,0.016-0.37,0.049-0.513c0.034-0.148,0.089-0.285,0.17-0.416
	c0.078-0.131,0.198-0.23,0.36-0.299c0.161-0.067,0.362-0.101,0.599-0.101h4.395c0.453,0,0.766,0.117,0.936,0.356
	c0.169,0.237,0.255,0.561,0.255,0.974v8.328c0,0.363-0.203,0.542-0.61,0.542c-0.409,0-0.611-0.179-0.611-0.542V8.182
	c0-0.146-0.029-0.25-0.089-0.308c-0.057-0.06-0.157-0.092-0.303-0.092h-3.54c-0.14,0-0.24,0.032-0.297,0.092
	c-0.06,0.059-0.089,0.163-0.089,0.308v8.147c0,0.363-0.206,0.542-0.618,0.542C132.045,16.87,131.843,16.692,131.843,16.328
	L131.843,16.328z M140.485,16.343V8c0-0.197,0.016-0.37,0.047-0.513c0.034-0.148,0.089-0.285,0.17-0.416
	c0.079-0.131,0.2-0.23,0.36-0.299c0.161-0.067,0.362-0.101,0.599-0.101h2.271c0.91,0,1.651,0.271,2.225,0.812
	c0.573,0.541,0.857,1.273,0.857,2.195c0,0.882-0.273,1.599-0.821,2.154c-0.55,0.553-1.259,0.832-2.135,0.832h-2.352v3.683
	c0,0.349-0.206,0.524-0.618,0.524C140.686,16.87,140.485,16.695,140.485,16.343L140.485,16.343z M141.707,11.611h2.247
	c0.566,0,1.014-0.178,1.345-0.535c0.329-0.356,0.495-0.823,0.495-1.398c0-0.558-0.159-1.022-0.475-1.395
	c-0.313-0.372-0.741-0.558-1.28-0.558h-1.945c-0.143,0-0.244,0.031-0.302,0.095c-0.055,0.062-0.085,0.167-0.085,0.32L141.707,11.611
	L141.707,11.611z M147.649,16.343l3.065-9.18c0.122-0.363,0.381-0.547,0.779-0.547c0.392,0,0.65,0.183,0.772,0.547l3.064,9.18
	c0.105,0.352-0.041,0.527-0.444,0.527c-0.229,0-0.407-0.038-0.537-0.112c-0.13-0.075-0.222-0.214-0.285-0.416l-0.814-2.534h-3.51
	l-0.823,2.534c-0.062,0.201-0.156,0.34-0.285,0.416c-0.13,0.074-0.311,0.112-0.551,0.112
	C147.685,16.87,147.54,16.695,147.649,16.343L147.649,16.343z M150.038,12.86h2.907l-0.983-3.063
	c-0.109-0.318-0.265-0.936-0.47-1.853c-0.196,0.87-0.356,1.489-0.477,1.853L150.038,12.86L150.038,12.86z M156.523,15.424V8
	c0-0.412,0.083-0.736,0.253-0.974c0.169-0.239,0.477-0.356,0.928-0.356h2.683c0.511,0,0.977,0.089,1.394,0.265
	c0.417,0.177,0.758,0.455,1.02,0.834c0.261,0.381,0.394,0.834,0.394,1.359c0,0.571-0.145,1.053-0.432,1.444
	c-0.288,0.391-0.701,0.667-1.234,0.827c0.608,0.163,1.084,0.469,1.418,0.92c0.339,0.452,0.506,0.998,0.506,1.638
	c0,0.604-0.136,1.119-0.407,1.545c-0.271,0.427-0.636,0.738-1.092,0.939c-0.457,0.202-0.981,0.301-1.577,0.301h-2.675
	c-0.449,0-0.758-0.117-0.928-0.35C156.606,16.16,156.523,15.835,156.523,15.424L156.523,15.424z M157.702,15.281
	c0,0.153,0.029,0.263,0.088,0.333c0.058,0.068,0.159,0.106,0.298,0.106h2.232c0.558,0,1.016-0.159,1.372-0.476
	c0.359-0.316,0.539-0.761,0.539-1.325c0-0.657-0.19-1.148-0.57-1.475c-0.378-0.326-0.889-0.49-1.531-0.49h-2.429v3.327H157.702z
	 M157.702,11.004h2.129c1.427,0,2.141-0.582,2.141-1.749c0-0.528-0.172-0.918-0.516-1.175c-0.345-0.256-0.787-0.383-1.324-0.383
	h-2.044c-0.139,0-0.24,0.035-0.298,0.105c-0.058,0.072-0.088,0.183-0.088,0.338L157.702,11.004L157.702,11.004z M164.887,16.343
	v-9.18c0-0.363,0.206-0.547,0.618-0.547c0.404,0,0.605,0.183,0.605,0.547v7.524c0.167-0.351,0.383-0.741,0.647-1.165l4.073-6.631
	c0.104-0.184,0.286-0.275,0.547-0.275c0.412,0,0.618,0.183,0.618,0.547v9.18c0,0.352-0.206,0.527-0.618,0.527
	c-0.402,0-0.603-0.175-0.603-0.527V8.787c-0.114,0.29-0.295,0.642-0.547,1.054l-4.187,6.791c-0.086,0.16-0.263,0.238-0.535,0.238
	C165.093,16.87,164.887,16.695,164.887,16.343L164.887,16.343z M173.112,16.687c-0.08-0.08-0.118-0.167-0.113-0.26
	c0.005-0.094,0.008-0.185,0.008-0.271c0.018-0.17,0.072-0.287,0.158-0.357c0.086-0.068,0.211-0.095,0.377-0.081
	c0.206,0.013,0.36-0.044,0.462-0.169c0.104-0.127,0.161-0.296,0.169-0.506L174.544,8c0.025-0.417,0.125-0.743,0.305-0.978
	c0.18-0.234,0.496-0.351,0.952-0.351h3.29c0.449,0,0.757,0.117,0.926,0.356c0.169,0.237,0.253,0.561,0.253,0.974v8.252
	c0,0.365-0.203,0.547-0.602,0.547c-0.416,0-0.621-0.179-0.621-0.533V8.185c0-0.146-0.029-0.25-0.089-0.312
	c-0.057-0.06-0.163-0.092-0.312-0.092h-2.479c-0.146,0-0.251,0.032-0.316,0.092c-0.068,0.059-0.1,0.163-0.105,0.308l-0.329,6.476
	c-0.013,0.266-0.037,0.501-0.068,0.705c-0.034,0.203-0.094,0.409-0.183,0.616c-0.089,0.203-0.201,0.372-0.341,0.498
	c-0.136,0.124-0.321,0.222-0.548,0.29c-0.229,0.066-0.498,0.087-0.807,0.06C173.31,16.814,173.19,16.768,173.112,16.687
	L173.112,16.687z M182.138,15.424v-8.33c0-0.367,0.201-0.549,0.605-0.549c0.412,0,0.618,0.182,0.618,0.547v3.592h2.352
	c0.875,0,1.585,0.276,2.133,0.824c0.55,0.55,0.823,1.264,0.823,2.147c0,0.923-0.287,1.669-0.866,2.237
	c-0.578,0.568-1.316,0.852-2.216,0.852h-2.271c-0.237,0-0.44-0.034-0.6-0.1c-0.161-0.07-0.283-0.169-0.363-0.297
	c-0.083-0.128-0.136-0.264-0.169-0.41C182.152,15.791,182.138,15.619,182.138,15.424L182.138,15.424z M183.361,15.234
	c0,0.146,0.029,0.25,0.089,0.31c0.057,0.058,0.156,0.091,0.297,0.091h1.945c0.538,0,0.965-0.19,1.28-0.568
	c0.316-0.38,0.474-0.852,0.474-1.413c0-0.576-0.162-1.029-0.487-1.361c-0.326-0.334-0.777-0.5-1.351-0.5h-2.247L183.361,15.234
	L183.361,15.234z M189.978,16.343v-9.18c0-0.363,0.204-0.547,0.611-0.547s0.612,0.183,0.612,0.547v3.681h4.323V7.163
	c0-0.363,0.201-0.547,0.604-0.547c0.412,0,0.619,0.183,0.619,0.547v9.18c0,0.352-0.208,0.527-0.619,0.527
	c-0.402,0-0.604-0.175-0.604-0.527v-4.39h-4.323v4.39c0,0.352-0.205,0.527-0.612,0.527C190.182,16.87,189.978,16.695,189.978,16.343
	L189.978,16.343z M198.43,13.819c-0.165-0.628-0.25-1.331-0.25-2.108s0.081-1.479,0.248-2.107c0.162-0.629,0.409-1.176,0.74-1.643
	c0.329-0.466,0.762-0.824,1.3-1.079c0.535-0.251,1.155-0.378,1.856-0.378c0.703,0,1.321,0.127,1.856,0.378
	c0.535,0.255,0.967,0.613,1.295,1.079c0.331,0.467,0.577,1.014,0.741,1.643c0.166,0.628,0.247,1.331,0.247,2.107
	c0,0.778-0.084,1.48-0.25,2.108c-0.166,0.626-0.414,1.169-0.748,1.633c-0.333,0.463-0.764,0.821-1.296,1.074
	c-0.531,0.251-1.147,0.378-1.845,0.378s-1.311-0.127-1.846-0.378c-0.534-0.253-0.967-0.611-1.3-1.074
	C198.845,14.988,198.595,14.445,198.43,13.819L198.43,13.819z M199.488,11.711c0,2.83,0.944,4.244,2.836,4.244
	c1.887,0,2.832-1.415,2.832-4.244c0-2.838-0.946-4.258-2.832-4.258C200.432,7.453,199.488,8.873,199.488,11.711z"/>
<path fill="#B74F45" d="M16.844,16.343v-9.18c0-0.363,0.205-0.547,0.612-0.547s0.612,0.183,0.612,0.547v3.681h4.323V7.163
	c0-0.363,0.201-0.547,0.604-0.547c0.412,0,0.619,0.183,0.619,0.547v9.18c0,0.352-0.207,0.527-0.619,0.527
	c-0.402,0-0.604-0.175-0.604-0.527v-4.39h-4.323v4.39c0,0.352-0.204,0.527-0.612,0.527C17.048,16.87,16.844,16.695,16.844,16.343
	L16.844,16.343z M25.476,15.423V8c0-0.412,0.084-0.736,0.251-0.974c0.17-0.239,0.48-0.356,0.928-0.356h4.331
	c0.324,0,0.485,0.187,0.485,0.562c0,0.367-0.161,0.549-0.485,0.549h-3.903c-0.141,0-0.238,0.032-0.297,0.092
	c-0.06,0.062-0.089,0.166-0.089,0.308v2.803h3.4c0.305,0,0.456,0.177,0.456,0.53c0,0.347-0.151,0.523-0.456,0.523h-3.4v3.196
	c0,0.146,0.029,0.25,0.089,0.31c0.058,0.058,0.156,0.091,0.297,0.091h3.903c0.324,0,0.485,0.186,0.485,0.561
	c0,0.367-0.161,0.548-0.485,0.548h-4.331c-0.448,0-0.758-0.117-0.928-0.35C25.56,16.16,25.476,15.835,25.476,15.423L25.476,15.423z
	 M32.907,16.328V8c0-0.197,0.018-0.37,0.049-0.513c0.034-0.148,0.089-0.285,0.17-0.416c0.08-0.131,0.2-0.23,0.36-0.299
	c0.161-0.067,0.362-0.101,0.599-0.101h4.394c0.453,0,0.766,0.117,0.936,0.356c0.169,0.237,0.256,0.561,0.256,0.974v8.328
	c0,0.363-0.205,0.542-0.612,0.542c-0.409,0-0.611-0.179-0.611-0.542V8.182c0-0.146-0.029-0.25-0.089-0.308
	c-0.057-0.06-0.157-0.092-0.303-0.092h-3.54c-0.14,0-0.24,0.032-0.297,0.092c-0.06,0.059-0.089,0.163-0.089,0.308v8.147
	c0,0.363-0.206,0.542-0.618,0.542C33.108,16.87,32.907,16.692,32.907,16.328L32.907,16.328z M41.549,16.343V8
	c0-0.197,0.016-0.37,0.047-0.513c0.034-0.148,0.089-0.285,0.17-0.416c0.079-0.131,0.2-0.23,0.36-0.299
	c0.161-0.067,0.362-0.101,0.6-0.101h2.27c0.912,0,1.651,0.271,2.226,0.812c0.573,0.541,0.858,1.273,0.858,2.195
	c0,0.882-0.274,1.599-0.823,2.154c-0.55,0.553-1.259,0.832-2.135,0.832H42.77v3.683c0,0.349-0.204,0.524-0.618,0.524
	C41.75,16.87,41.549,16.695,41.549,16.343L41.549,16.343z M42.77,11.611h2.247c0.566,0,1.016-0.178,1.346-0.535
	c0.328-0.356,0.493-0.823,0.493-1.398c0-0.558-0.157-1.022-0.475-1.395c-0.313-0.372-0.74-0.558-1.28-0.558h-1.945
	c-0.143,0-0.243,0.031-0.302,0.095c-0.055,0.062-0.084,0.167-0.084,0.32V11.611L42.77,11.611z M48.713,16.343l3.064-9.18
	c0.122-0.363,0.381-0.547,0.779-0.547c0.394,0,0.65,0.183,0.772,0.547l3.064,9.18c0.105,0.352-0.04,0.527-0.444,0.527
	c-0.229,0-0.407-0.038-0.537-0.112c-0.128-0.075-0.222-0.214-0.286-0.416l-0.814-2.534h-3.51l-0.823,2.534
	c-0.062,0.201-0.156,0.34-0.285,0.416c-0.128,0.074-0.312,0.112-0.552,0.112C48.748,16.87,48.606,16.695,48.713,16.343
	L48.713,16.343z M51.102,12.86h2.907l-0.983-3.063c-0.109-0.318-0.264-0.936-0.47-1.853c-0.196,0.87-0.355,1.489-0.477,1.853
	L51.102,12.86L51.102,12.86z M57.586,15.423V8c0-0.412,0.083-0.736,0.253-0.974c0.169-0.239,0.479-0.356,0.928-0.356h2.683
	c0.511,0,0.977,0.089,1.393,0.265c0.417,0.177,0.758,0.455,1.02,0.834c0.263,0.381,0.394,0.834,0.394,1.359
	c0,0.571-0.144,1.053-0.431,1.444c-0.289,0.391-0.701,0.667-1.235,0.827c0.608,0.163,1.084,0.469,1.418,0.92
	c0.339,0.452,0.506,0.998,0.506,1.638c0,0.604-0.136,1.119-0.407,1.545c-0.271,0.427-0.634,0.738-1.09,0.939
	c-0.459,0.202-0.983,0.301-1.578,0.301h-2.675c-0.448,0-0.758-0.117-0.928-0.35C57.669,16.16,57.586,15.835,57.586,15.423
	L57.586,15.423z M58.766,15.281c0,0.153,0.029,0.263,0.088,0.333c0.058,0.068,0.159,0.106,0.299,0.106h2.232
	c0.558,0,1.017-0.159,1.374-0.476c0.357-0.316,0.537-0.761,0.537-1.325c0-0.657-0.19-1.148-0.569-1.475
	c-0.378-0.326-0.889-0.49-1.531-0.49h-2.428v3.327H58.766z M58.766,11.004h2.128c1.428,0,2.141-0.582,2.141-1.749
	c0-0.528-0.172-0.918-0.516-1.175c-0.346-0.256-0.787-0.383-1.322-0.383h-2.045c-0.14,0-0.24,0.035-0.299,0.105
	c-0.058,0.072-0.088,0.183-0.088,0.338L58.766,11.004L58.766,11.004z M65.95,16.343v-9.18c0-0.363,0.208-0.547,0.62-0.547
	c0.403,0,0.603,0.183,0.603,0.547v7.524c0.169-0.351,0.383-0.741,0.647-1.165l4.074-6.631c0.104-0.184,0.285-0.275,0.547-0.275
	c0.412,0,0.62,0.183,0.62,0.547v9.18c0,0.352-0.207,0.527-0.62,0.527c-0.402,0-0.603-0.175-0.603-0.527V8.787
	c-0.113,0.29-0.295,0.642-0.547,1.054l-4.187,6.791c-0.086,0.16-0.263,0.238-0.534,0.238C66.158,16.87,65.95,16.695,65.95,16.343
	L65.95,16.343z M74.175,16.687c-0.08-0.08-0.118-0.167-0.114-0.26c0.005-0.094,0.008-0.185,0.008-0.271
	c0.018-0.17,0.071-0.287,0.157-0.357c0.088-0.068,0.211-0.095,0.377-0.081c0.207,0.013,0.36-0.044,0.462-0.169
	c0.104-0.127,0.161-0.296,0.169-0.506L75.609,8c0.023-0.417,0.124-0.743,0.304-0.978c0.18-0.234,0.497-0.351,0.952-0.351h3.29
	c0.451,0,0.758,0.117,0.928,0.356c0.167,0.237,0.251,0.561,0.251,0.974v8.252c0,0.365-0.201,0.547-0.602,0.547
	c-0.415,0-0.621-0.179-0.621-0.533V8.185c0-0.146-0.029-0.25-0.089-0.312c-0.057-0.06-0.162-0.092-0.312-0.092h-2.478
	c-0.146,0-0.252,0.032-0.317,0.092c-0.068,0.059-0.1,0.163-0.105,0.308l-0.329,6.476c-0.013,0.266-0.037,0.501-0.068,0.705
	c-0.034,0.203-0.094,0.409-0.183,0.616c-0.088,0.203-0.201,0.372-0.341,0.498c-0.136,0.124-0.321,0.222-0.548,0.29
	c-0.227,0.066-0.498,0.087-0.806,0.06C74.373,16.814,74.253,16.768,74.175,16.687L74.175,16.687z M83.201,15.423v-8.33
	c0-0.367,0.201-0.549,0.605-0.549c0.412,0,0.618,0.182,0.618,0.547v3.592h2.352c0.875,0,1.585,0.276,2.133,0.824
	c0.55,0.55,0.823,1.264,0.823,2.147c0,0.923-0.287,1.669-0.865,2.237c-0.579,0.568-1.317,0.852-2.218,0.852h-2.271
	c-0.237,0-0.438-0.034-0.6-0.1c-0.159-0.07-0.282-0.169-0.363-0.297c-0.081-0.128-0.136-0.264-0.169-0.41
	C83.216,15.791,83.201,15.619,83.201,15.423L83.201,15.423z M84.424,15.234c0,0.146,0.029,0.25,0.089,0.31
	c0.057,0.058,0.155,0.091,0.297,0.091h1.945c0.539,0,0.965-0.19,1.28-0.568c0.316-0.38,0.476-0.852,0.476-1.413
	c0-0.576-0.164-1.029-0.488-1.361c-0.324-0.334-0.777-0.5-1.351-0.5h-2.247v3.441H84.424z M91.041,16.343v-9.18
	c0-0.363,0.204-0.547,0.611-0.547s0.612,0.183,0.612,0.547v3.681h4.323V7.163c0-0.363,0.201-0.547,0.603-0.547
	c0.414,0,0.62,0.183,0.62,0.547v9.18c0,0.352-0.206,0.527-0.62,0.527c-0.402,0-0.603-0.175-0.603-0.527v-4.39h-4.323v4.39
	c0,0.352-0.204,0.527-0.612,0.527C91.246,16.87,91.041,16.695,91.041,16.343L91.041,16.343z M99.493,13.819
	c-0.166-0.628-0.25-1.331-0.25-2.108s0.081-1.479,0.248-2.107c0.162-0.629,0.409-1.176,0.74-1.643
	c0.329-0.466,0.762-0.824,1.299-1.079c0.535-0.251,1.157-0.378,1.856-0.378c0.702,0,1.321,0.127,1.856,0.378
	c0.535,0.255,0.967,0.613,1.294,1.079c0.331,0.467,0.578,1.014,0.741,1.643c0.166,0.628,0.247,1.331,0.247,2.107
	c0,0.778-0.085,1.48-0.25,2.108c-0.166,0.626-0.414,1.169-0.748,1.633c-0.332,0.463-0.764,0.821-1.296,1.074
	c-0.531,0.251-1.147,0.378-1.844,0.378c-0.698,0-1.311-0.127-1.846-0.378c-0.534-0.253-0.965-0.611-1.3-1.074
	C99.909,14.988,99.659,14.445,99.493,13.819L99.493,13.819z M100.551,11.711c0,2.83,0.944,4.244,2.836,4.244
	c1.887,0,2.832-1.415,2.832-4.244c0-2.838-0.945-4.258-2.832-4.258C101.495,7.453,100.551,8.873,100.551,11.711z"/>
<g id="Слой_2">
	<g>
		<g id="Стул_7_">
			<polygon fill="none" stroke="#588F5C" stroke-miterlimit="10" points="117.025,72.874 118.819,88.932 121.068,88.932 
				118.819,72.874 			"/>
			<polygon fill="none" stroke="#588F5C" stroke-miterlimit="10" points="119.046,89.213 120.394,101.902 122.471,101.902 
				121.068,89.213 			"/>
			<circle fill="none" stroke="#588F5C" stroke-width="0.5" stroke-miterlimit="10" cx="120.23" cy="90.652" r="0.516"/>
			<circle fill="none" stroke="#588F5C" stroke-width="0.5" stroke-miterlimit="10" cx="120.503" cy="93.461" r="0.516"/>
			<circle fill="none" stroke="#588F5C" stroke-width="0.5" stroke-miterlimit="10" cx="120.832" cy="96.572" r="0.516"/>
			<circle fill="none" stroke="#588F5C" stroke-width="0.5" stroke-miterlimit="10" cx="121.181" cy="99.719" r="0.516"/>
			<polygon fill="none" stroke="#588F5C" stroke-miterlimit="10" points="124.998,99.507 144.367,99.242 144.779,101.151 
				124.913,102.071 			"/>
			<polygon fill="none" stroke="#588F5C" stroke-miterlimit="10" points="122.471,104.938 147.653,120.908 148.79,119.224 
				123.705,103.771 			"/>
			<circle fill="none" stroke="#588F5C" stroke-miterlimit="10" cx="140.877" cy="115.49" r="0.516"/>
			<path fill="none" stroke="#588F5C" stroke-miterlimit="10" d="M147.653,120.908c1.529,0.8,1.499,2.378,1.516,3.327
				c0.045,2.442-2.633,3.537-3.242,3.537"/>
			<path fill="none" stroke="#588F5C" stroke-miterlimit="10" d="M145.927,128.994"/>
			<path fill="none" stroke="#588F5C" stroke-miterlimit="10" d="M148.895,119.369"/>
			<path fill="none" stroke="#588F5C" stroke-miterlimit="10" d="M148.79,119.224c3.411,1.895,3.411,6.738,1.102,8.38"/>
			<rect x="119.271" y="128.067" fill="none" stroke="#588F5C" stroke-miterlimit="10" width="26.656" height="2.105"/>
			<rect x="115.186" y="127.604" fill="none" stroke="#588F5C" stroke-miterlimit="10" width="4.085" height="3.284"/>
			<polygon fill="#FFFFFF" stroke="#588F5C" stroke-miterlimit="10" points="145.505,130.762 150.148,130.762 149.892,127.604 
				145.505,127.604 			"/>
			<circle fill="none" stroke="#588F5C" stroke-miterlimit="10" cx="123.976" cy="129.12" r="0.516"/>
			<path fill="none" stroke="#588F5C" stroke-miterlimit="10" d="M120.394,101.902c0.271,1.699,0.969,2.667,2.077,3.036"/>
			<path fill="none" stroke="#588F5C" stroke-miterlimit="10" d="M122.471,101.902c0.239,1.023,0.573,1.373,1.234,1.868"/>
			<path fill="none" stroke="#588F5C" stroke-miterlimit="10" d="M122.022,97.844c0,1.036,1.331,1.875,2.976,1.875"/>
			<path fill="none" stroke="#588F5C" stroke-miterlimit="10" d="M122.398,101.243c0,0.365,1.163,0.659,2.6,0.659"/>
			<path fill="none" stroke="#588F5C" stroke-miterlimit="10" d="M118.934,72.762c0-1.428-0.628-2.583-1.404-2.583"/>
			
				<line fill="none" stroke="#588F5C" stroke-linecap="round" stroke-miterlimit="10" x1="117.53" y1="70.179" x2="115.902" y2="70.179"/>
			
				<line fill="none" stroke="#588F5C" stroke-linecap="round" stroke-miterlimit="10" x1="115.902" y1="70.179" x2="116.491" y2="72.874"/>
			
				<line fill="none" stroke="#588F5C" stroke-linecap="round" stroke-miterlimit="10" x1="116.491" y1="72.874" x2="118.934" y2="72.762"/>
		</g>
		<g>
			<rect x="143.919" y="83.318" fill="none" stroke="#588F5C" stroke-miterlimit="10" width="52.722" height="2.246"/>
			<rect x="186.142" y="84.693" fill="none" stroke="#588F5C" stroke-miterlimit="10" width="9.517" height="41.689"/>
			<rect x="187.826" y="84.693" fill="none" stroke="#588F5C" stroke-miterlimit="10" width="6.401" height="41.689"/>
			<polygon fill="#FFFFFF" stroke="#588F5C" stroke-miterlimit="10" points="185.496,84.693 196.109,84.693 196.109,86.406 
				193.497,86.406 192.066,87.837 189.483,87.837 187.826,86.266 185.496,86.266 			"/>
			
				<rect x="189.483" y="87.837" fill="#FFFFFF" stroke="#588F5C" stroke-width="0.5" stroke-miterlimit="10" width="2.583" height="1.937"/>
			<path fill="none" stroke="#588F5C" stroke-linecap="round" stroke-miterlimit="10" d="M207.198,128.348
				c0-1.086-4.171-1.965-10.549-1.965"/>
			<rect x="203.197" y="130.088" fill="none" stroke="#588F5C" stroke-miterlimit="10" width="3.327" height="0.674"/>
			<circle fill="none" stroke="#588F5C" stroke-width="0.5" stroke-miterlimit="10" cx="191.006" cy="120.677" r="1.495"/>
			<circle fill="none" stroke="#588F5C" stroke-miterlimit="10" cx="191.006" cy="120.677" r="2.042"/>
			<path fill="none" stroke="#588F5C" stroke-linecap="round" stroke-linejoin="round" stroke-miterlimit="10" d="M146.221,88.806
				l2.246-0.323v-0.646h37.674v30.292l-30.151-0.337C147.653,106.927,146.221,100.948,146.221,88.806l-3.144,0.07V86.04h2.303
				l3.088,1.797"/>
			<path fill="none" stroke="#588F5C" stroke-linecap="round" stroke-linejoin="round" stroke-miterlimit="10" d="M143.077,88.876
				c1.788,16.367,2.302,17.63,10.254,28.902"/>
			<path fill="#FDFEFE" stroke="#588F5C" stroke-linecap="square" stroke-linejoin="round" stroke-miterlimit="10" d="
				M140.242,88.062c-1.923,0.21-3.638,0.092-4.717-1.137c-0.775-0.884-1.179-2.878-1.179-4.085h5.896
				c2.909,0,5.264,0.848,5.264,1.895l-0.126,1.305h-2.303C141.224,86.041,141.772,87.922,140.242,88.062z"/>
			
				<path fill="none" stroke="#588F5C" stroke-width="0.5" stroke-linecap="square" stroke-linejoin="round" stroke-miterlimit="10" d="
				M142.516,84.856c0.59-0.786-1.458-1.173-3.259-1.173h-3.65c0,0.747,0.251,1.981,0.73,2.529c0.667,0.761,1.729,0.834,2.92,0.704
				c1.125-0.257,0.6-1.235,2.094-1.688C141.772,85.1,142.249,85.325,142.516,84.856"/>
			
				<circle fill="none" stroke="#588F5C" stroke-width="0.5" stroke-linecap="square" stroke-linejoin="round" stroke-miterlimit="10" cx="138.021" cy="85.228" r="1.158"/>
			
				<circle fill="none" stroke="#588F5C" stroke-width="0.5" stroke-linecap="round" stroke-linejoin="round" stroke-miterlimit="10" cx="174.901" cy="86.788" r="0.972"/>
			<path fill="none" stroke="#588F5C" stroke-width="0.5" stroke-miterlimit="10" d="M165.733,86
				c-0.416,0.019-0.734,0.43-0.712,0.918l0,0c0.023,0.487,0.378,0.868,0.793,0.848l7.408-0.341c0.416-0.019,0.735-0.43,0.712-0.918
				l0,0c-0.023-0.488-0.378-0.868-0.794-0.849L165.733,86z"/>
			<rect x="151.148" y="130.088" fill="none" stroke="#588F5C" stroke-miterlimit="10" width="3.327" height="0.674"/>
			
				<line fill="none" stroke="#588F5C" stroke-linecap="round" stroke-linejoin="round" stroke-miterlimit="10" x1="155.991" y1="117.792" x2="153.331" y2="117.778"/>
			
				<rect x="148.468" y="128.348" fill="#FFFFFF" stroke="#588F5C" stroke-linecap="round" stroke-miterlimit="10" width="58.73" height="1.74"/>
			<path fill="none" stroke="#588F5C" stroke-linecap="round" stroke-miterlimit="10" d="M184.858,130.088v-3.706
				c-20.824,0-36.39,0.879-36.39,1.965"/>
			
				<line fill="none" stroke="#588F5C" stroke-linecap="round" stroke-miterlimit="10" x1="196.648" y1="126.383" x2="196.648" y2="130.088"/>
			
				<line fill="none" stroke="#588F5C" stroke-linecap="round" stroke-miterlimit="10" x1="184.858" y1="126.383" x2="196.648" y2="126.383"/>
		</g>
		<g>
			<path fill="#588F5C" d="M128.198,64.017l3.697,3.766l7.252,10.78l8.877,1.009l0.951,3.268l-12.113-0.421l-4.285-3.256
				c0.978,0,1.768,4.169,1.768,9.32l8.731,1.123l1.29,9.636l-18.864-0.039c-3.105-0.782-3.481-7.73-3.806-13.212
				c-5.795-16.878,0.346-26.466,0.774-26.466l3.872,2.092L128.198,64.017z"/>
			<g>
				<path fill="#588F5C" d="M122.189,59.802c0,0-0.104-0.384-0.231-0.854s-0.923-0.614-1.77-0.321
					c-0.846,0.293-1.249,0.205-0.894-0.195s0.646-0.963,0.647-1.251s-0.088-0.617-0.197-0.732c-0.11-0.114-0.323-0.371-0.474-0.57
					s-0.442-0.5-0.648-0.668c-0.205-0.168-0.58-0.447-0.832-0.618c-0.252-0.172-0.685-0.513-0.961-0.758s-0.683-0.58-0.903-0.745
					s-0.536-0.511-0.702-0.77s-0.354-0.666-0.419-0.905c-0.064-0.239-0.186-0.69-0.271-1.003s-0.074-0.879,0.024-1.257
					s0.261-0.985,0.363-1.348s0.294-0.886,0.428-1.162s0.763-0.996,1.4-1.6s1.441-1.358,1.787-1.675s0.979-0.737,1.406-0.932
					s1.142-0.454,1.589-0.575c0.447-0.121,1.276-0.345,1.843-0.498c0.566-0.153,1.42-0.384,1.897-0.513s1.367-0.225,1.978-0.214
					c0.611,0.011,1.548,0.137,2.082,0.281c0.534,0.143,1.272,0.402,1.638,0.575c0.367,0.173,0.936,0.438,1.264,0.589
					s0.877,0.487,1.219,0.747s0.899,0.724,1.239,1.032c0.339,0.308,0.418,0.889,0.174,1.291c-0.243,0.402-0.757,1.165-1.141,1.697
					c-0.384,0.532-0.634,1.253-0.555,1.604c0.079,0.351,0.119,0.84,0.09,1.088s-0.104,0.648-0.167,0.889s-0.138,0.641-0.167,0.888
					c-0.029,0.248-0.022,0.612,0.015,0.81c0.038,0.198,0.239,0.457,0.447,0.577c0.208,0.12,0.542,0.291,0.743,0.381
					s0.452,0.297,0.56,0.459s0.107,0.451-0.001,0.64c-0.109,0.189-0.428,0.511-0.708,0.715s-0.512,0.463-0.514,0.575
					s0.033,0.339,0.078,0.503c0.044,0.164,0.105,0.39,0.135,0.501c0.03,0.112-0.162,0.321-0.427,0.464s-0.628,0.301-0.807,0.349
					s-0.259,0.188-0.178,0.31c0.081,0.122,0.192,0.341,0.248,0.486c0.055,0.145,0.057,0.393,0.004,0.552
					c-0.053,0.158-0.306,0.24-0.562,0.181s-0.572-0.065-0.702-0.014c-0.13,0.051-0.25,0.188-0.267,0.305
					c-0.016,0.116-0.064,0.378-0.105,0.581s-0.165,0.472-0.275,0.598s-0.407,0.284-0.661,0.353
					c-0.253,0.068-0.692,0.069-0.974,0.001s-0.746-0.283-1.03-0.478s-0.785-0.426-1.113-0.514c-0.328-0.087-0.652-0.078-0.722,0.02
					c-0.069,0.099-0.148,0.29-0.176,0.426c-0.027,0.135,0.033,0.407,0.134,0.604s0.205,0.483,0.23,0.636s-0.082,0.572-0.238,0.931
					s-0.284,0.652-0.284,0.652"/>
			</g>
			<polyline fill="#588F5C" points="115.116,44.818 114.326,44.691 113.423,44.577 114.94,44.167 116.025,44.092 116.654,44.053 
				117.23,44.247 117.651,43.435 118.031,42.154 118.577,41.266 119.085,40.779 118.682,41.819 118.657,42.64 118.833,43.29 
				118.072,43.796 117.662,44.77 116.979,45.362 116.191,45.575 			"/>
			<polyline fill="#588F5C" points="134.739,43.907 136.112,45.223 136.838,46.293 135.999,46.257 135.03,46.061 134.181,45.985 
				134.545,46.607 135.126,47.627 135.405,48.577 134.691,47.875 134.231,47.302 133.506,46.8 			"/>
			<polygon fill="#588F5C" points="152.707,117.329 153.085,123.645 154.475,123.645 154.475,124.403 153.885,125.372 
				153.59,126.214 153.59,126.888 153.59,127.357 166.564,126.668 163.655,126.383 161.928,125.203 160.623,124.109 
				160.246,123.014 163.697,122.719 163.739,120.908 163.445,118.971 163.234,117.873 156.286,118.129 153.843,118.129 			"/>
			<polygon fill="#588F5C" points="148.025,79.572 152.614,80.528 153.905,80.05 156.543,80.05 157.779,80.528 159.07,81.83 
				162.832,82.217 162.832,83.111 149.076,83.111 148.204,82.217 			"/>
		</g>
		<g>
			<g>
				<path fill="#FFFFFF" d="M123.482,58.486c0.139-0.594,0.253-0.455,0.253,0.309s-0.076,1.965-0.169,2.667
					s-0.326,1.669-0.519,2.148c-0.193,0.479-0.477,1.357-0.632,1.951s-0.363,1.662-0.463,2.372s-0.183,2.17-0.183,3.243
					s0.088,2.677,0.196,3.565s0.361,2.372,0.561,3.299c0.201,0.926,0.599,2.411,0.884,3.299c0.286,0.888,0.747,2.284,1.025,3.102
					s0.568,1.987,0.646,2.597c0.077,0.61,0.083,1.513,0.014,2.007c-0.069,0.494-0.12,1.353-0.112,1.909s0.014,1.347,0.014,1.759
					s0.082,1.094,0.183,1.516c0.1,0.422,0.296,1.006,0.435,1.298c0.139,0.291,0.392,0.677,0.561,0.856s0.359,0.412,0.421,0.516
					s-0.311-0.117-0.828-0.491s-1.073-0.99-1.235-1.369s-0.459-1.256-0.66-1.951s-0.321-1.781-0.267-2.414s0.155-1.416,0.225-1.74
					c0.069-0.324,0.025-0.899-0.098-1.278c-0.124-0.378-0.363-1.124-0.533-1.656c-0.17-0.533-0.473-1.594-0.674-2.358
					c-0.201-0.764-0.529-1.933-0.73-2.597s-0.519-1.763-0.708-2.442s-0.416-1.715-0.505-2.302c-0.089-0.587-0.219-1.68-0.288-2.428
					s-0.076-1.886-0.014-2.527s0.119-1.538,0.127-1.993s0.159-1.378,0.337-2.049c0.178-0.672,0.462-1.594,0.632-2.049
					c0.17-0.456,0.473-1.245,0.674-1.755s0.46-1.274,0.576-1.698s0.299-1.1,0.407-1.502S123.343,59.081,123.482,58.486z"/>
			</g>
			<g>
				
					<line fill="none" stroke="#588F5C" stroke-width="0.5" stroke-miterlimit="10" x1="122.022" y1="62.922" x2="123.58" y2="62.936"/>
				
					<line fill="none" stroke="#588F5C" stroke-width="0.5" stroke-miterlimit="10" x1="120.576" y1="66.361" x2="122.92" y2="66.403"/>
				
					<line fill="none" stroke="#588F5C" stroke-width="0.5" stroke-miterlimit="10" x1="119.58" y1="69.927" x2="122.303" y2="69.884"/>
				
					<line fill="none" stroke="#588F5C" stroke-width="0.5" stroke-miterlimit="10" x1="119.748" y1="73.267" x2="122.654" y2="73.281"/>
				
					<line fill="none" stroke="#588F5C" stroke-width="0.5" stroke-miterlimit="10" x1="120.127" y1="76.538" x2="123.075" y2="76.538"/>
				
					<line fill="none" stroke="#588F5C" stroke-width="0.5" stroke-miterlimit="10" x1="120.815" y1="79.865" x2="123.609" y2="79.879"/>
				
					<line fill="none" stroke="#588F5C" stroke-width="0.5" stroke-miterlimit="10" x1="121.938" y1="83.177" x2="124.815" y2="83.177"/>
				
					<line fill="none" stroke="#588F5C" stroke-width="0.5" stroke-miterlimit="10" x1="122.794" y1="86.265" x2="125.644" y2="86.279"/>
				
					<line fill="none" stroke="#588F5C" stroke-width="0.5" stroke-miterlimit="10" x1="123.257" y1="89.718" x2="125.644" y2="89.424"/>
				
					<line fill="none" stroke="#588F5C" stroke-width="0.5" stroke-miterlimit="10" x1="123.159" y1="92.945" x2="125.475" y2="92.945"/>
			</g>
		</g>
		<g>
			<g>
				<path fill="#588F5C" d="M140.753,71.691c-0.087-0.189-0.044-0.326,0.13-0.41c0.071-0.045,0.152-0.058,0.241-0.039
					c0.089,0.018,0.153,0.068,0.189,0.15c0.042,0.087,0.082,0.162,0.121,0.225c0.038,0.063,0.093,0.133,0.164,0.209
					s0.147,0.139,0.227,0.188c0.081,0.049,0.182,0.089,0.306,0.122c0.124,0.033,0.261,0.049,0.41,0.049
					c0.353,0,0.642-0.119,0.867-0.357s0.338-0.548,0.338-0.93c0-0.218-0.034-0.407-0.103-0.566
					c-0.069-0.159-0.156-0.284-0.264-0.375s-0.243-0.162-0.407-0.213c-0.163-0.051-0.322-0.085-0.476-0.101
					c-0.154-0.016-0.331-0.022-0.531-0.02c-0.16,0.005-0.261-0.05-0.3-0.166s0.004-0.241,0.13-0.375l1.046-1.101
					c0.145-0.153,0.289-0.279,0.434-0.379h-2.167c-0.182,0-0.273-0.105-0.273-0.316c0-0.205,0.091-0.308,0.273-0.308h2.789
					c0.182,0,0.273,0.103,0.273,0.308c0,0.103-0.038,0.192-0.113,0.268l-1.441,1.445c-0.026,0.032-0.036,0.056-0.027,0.073
					c0.008,0.017,0.025,0.028,0.051,0.033c0.261,0.029,0.495,0.081,0.705,0.156c0.209,0.075,0.397,0.178,0.564,0.31
					c0.167,0.132,0.296,0.303,0.387,0.513c0.091,0.211,0.137,0.453,0.137,0.726c0,0.176-0.018,0.349-0.055,0.517
					c-0.037,0.169-0.1,0.338-0.191,0.509c-0.091,0.171-0.206,0.32-0.344,0.448s-0.321,0.231-0.547,0.312
					c-0.226,0.08-0.48,0.121-0.762,0.121C141.652,72.718,141.058,72.376,140.753,71.691z"/>
				<path fill="#588F5C" d="M145.088,69.842c0-0.577,0.082-1.082,0.245-1.517s0.412-0.777,0.748-1.027
					c0.335-0.25,0.737-0.375,1.206-0.375c0.471,0,0.874,0.125,1.21,0.375c0.335,0.25,0.586,0.593,0.75,1.027
					c0.164,0.435,0.247,0.94,0.247,1.517c0,0.573-0.087,1.08-0.262,1.521c-0.175,0.441-0.431,0.785-0.766,1.034
					c-0.335,0.249-0.728,0.373-1.178,0.373c-0.451,0-0.842-0.124-1.177-0.373c-0.334-0.248-0.588-0.593-0.762-1.034
					C145.174,70.922,145.088,70.415,145.088,69.842z M145.863,69.186c-0.027,0.211-0.042,0.429-0.042,0.656
					c0,0.226,0.014,0.447,0.044,0.662c0.029,0.215,0.08,0.429,0.152,0.642c0.072,0.213,0.163,0.399,0.271,0.557
					s0.247,0.287,0.418,0.385c0.171,0.099,0.365,0.148,0.581,0.148c0.216,0,0.41-0.049,0.582-0.148
					c0.172-0.098,0.312-0.227,0.42-0.385c0.108-0.158,0.198-0.344,0.271-0.557c0.072-0.213,0.124-0.428,0.154-0.644
					c0.03-0.216,0.046-0.436,0.046-0.66c0-0.227-0.014-0.445-0.041-0.656c-0.028-0.211-0.076-0.423-0.146-0.638
					c-0.07-0.214-0.159-0.401-0.267-0.559s-0.249-0.287-0.424-0.385c-0.175-0.099-0.373-0.148-0.594-0.148s-0.419,0.049-0.592,0.148
					c-0.174,0.099-0.314,0.227-0.421,0.385c-0.106,0.158-0.194,0.345-0.264,0.559C145.939,68.763,145.891,68.975,145.863,69.186z"/>
			</g>
			<g>
				<path fill="#588F5C" d="M149.53,66.622c0-0.546,0.223-0.819,0.67-0.819c0.447,0,0.671,0.273,0.671,0.819
					c0,0.541-0.224,0.811-0.671,0.811C149.753,67.433,149.53,67.163,149.53,66.622z M149.789,66.443
					c-0.007,0.055-0.01,0.115-0.01,0.179s0.003,0.124,0.01,0.179c0.007,0.055,0.019,0.112,0.037,0.172
					c0.019,0.059,0.043,0.11,0.073,0.152s0.071,0.076,0.122,0.103s0.111,0.04,0.18,0.04c0.068,0,0.128-0.013,0.179-0.04
					s0.092-0.061,0.122-0.103s0.054-0.093,0.073-0.152s0.032-0.117,0.038-0.173c0.007-0.056,0.01-0.115,0.01-0.178
					s-0.003-0.122-0.01-0.178c-0.006-0.056-0.019-0.113-0.038-0.172s-0.043-0.11-0.073-0.152c-0.031-0.042-0.071-0.076-0.122-0.104
					c-0.052-0.027-0.111-0.04-0.179-0.04c-0.069,0-0.129,0.014-0.18,0.04c-0.051,0.027-0.092,0.062-0.122,0.103
					c-0.029,0.041-0.053,0.092-0.073,0.152C149.807,66.33,149.795,66.388,149.789,66.443z"/>
			</g>
			
				<line fill="none" stroke="#588F5C" stroke-width="0.5" stroke-miterlimit="10" x1="193.376" y1="77.247" x2="151.827" y2="59.525"/>
			
				<line fill="none" stroke="#588F5C" stroke-width="0.5" stroke-miterlimit="10" x1="193.376" y1="77.247" x2="154.074" y2="77.247"/>
			<path fill="none" stroke="#588F5C" stroke-width="0.5" stroke-miterlimit="10" d="M154.074,77.247
				c0.898-7.068,1.355-9.745,7.299-15.921"/>
			<text transform="matrix(0.9317 0.3632 -0.3632 0.9317 157.8955 58.81)" fill="#588F5C" font-family="'Fregat'" font-size="8">&gt; 50 см</text>
		</g>
		<g>
			<rect x="196.015" y="89.793" fill="none" stroke="#588F5C" stroke-miterlimit="10" width="25.323" height="1.291"/>
			<polyline fill="none" stroke="#588F5C" stroke-miterlimit="10" points="196.015,110.118 196.015,97.373 201.967,91.084 			"/>
			<path fill="none" stroke="#588F5C" stroke-miterlimit="10" d="M196.015,110.118c1.397,0,2.526-1.331,2.526-2.976
				c0.449-3.818,8.478-13.307,13.082-14.149c1.521,0,2.751-0.854,2.751-1.909"/>
			<path fill="none" stroke="#588F5C" stroke-linecap="round" stroke-linejoin="round" stroke-miterlimit="10" d="M197.924,103.324
				c2.863-3.481,3.907-5.562,9.545-10.331h-4.324l-5.222,5.222v5.109H197.924z"/>
			
				<path fill="none" stroke="#588F5C" stroke-width="0.5" stroke-linecap="round" stroke-linejoin="bevel" stroke-miterlimit="10" d="
				M220.959,89.793c0-2.012-0.169-3.639-0.379-3.639h-23.077c-0.303,0-0.547,1.628-0.547,3.639"/>
			<polyline fill="#588F5C" points="197.924,89.793 209.589,89.793 209.589,87.973 205.589,87.973 207.146,70.436 205.195,70.436 
				213.042,57.424 211.736,56.507 195.187,81.633 196.45,82.437 203.609,72.878 205.504,72.92 202.43,88.09 197.672,88.09 
				197.672,89.793 			"/>
		</g>
	</g>
	<g>
		<g id="Стул_6_">
			<rect x="18.767" y="97.12" fill="none" stroke="#B54F46" stroke-miterlimit="10" width="24.985" height="2.358"/>
			<path fill="none" stroke="#B54F46" stroke-miterlimit="10" d="M40.482,101.036"/>
			<polygon fill="none" stroke="#B54F46" stroke-miterlimit="10" points="17.195,100.966 40.524,100.966 40.524,99.45 18.289,99.45 
				11.51,74.563 10.204,75.026 			"/>
			<line fill="none" stroke="#B54F46" stroke-miterlimit="10" x1="10.878" y1="72.204" x2="15.089" y2="86.648"/>
			<line fill="none" stroke="#B54F46" stroke-miterlimit="10" x1="15.029" y1="86.442" x2="16.863" y2="86.052"/>
			<line fill="none" stroke="#B54F46" stroke-miterlimit="10" x1="16.9" y1="86.185" x2="13.026" y2="72.289"/>
			<path fill="none" stroke="#B54F46" stroke-miterlimit="10" d="M13.026,72.289c0-0.046-0.961-0.084-2.148-0.084"/>
			<polygon fill="none" stroke="#B54F46" stroke-miterlimit="10" points="19.848,101.008 13.489,129.012 15.469,129.012 
				21.869,101.008 			"/>
			<polygon fill="none" stroke="#B54F46" stroke-miterlimit="10" points="34.629,101.05 40.903,129.012 42.882,128.969 
				36.566,100.966 			"/>
		</g>
		<g id="Стол_3_">
			<rect x="46.083" y="79.237" fill="none" stroke="#B54F46" stroke-miterlimit="10" width="56.259" height="2.779"/>
			<rect x="53.999" y="82.016" fill="none" stroke="#B54F46" stroke-miterlimit="10" width="4.211" height="48.595"/>
			<rect x="75.756" y="66.688" fill="none" stroke="#B54F46" stroke-miterlimit="10" width="4.267" height="12.549"/>
			<rect x="91.084" y="66.688" fill="none" stroke="#B54F46" stroke-miterlimit="10" width="4.267" height="12.549"/>
			<rect x="69.243" y="63.937" fill="none" stroke="#B54F46" stroke-miterlimit="10" width="33.099" height="2.751"/>
			<rect x="34.881" y="84.374" fill="none" stroke="#B54F46" stroke-miterlimit="10" width="19.118" height="2.864"/>
			<rect x="70.591" y="101.387" fill="none" stroke="#B54F46" stroke-miterlimit="10" width="31.751" height="2.695"/>
			<polygon fill="#B54F46" points="71.995,101.387 71.995,99.731 70.703,99.731 70.703,96.923 84.712,96.923 86.115,92.46 
				87.21,92.46 86.06,96.923 88.979,96.923 88.979,99.759 87.07,99.759 87.07,101.387 84.01,101.387 83.982,99.787 75.532,99.787 
				75.532,101.387 			"/>
			<rect x="91.225" y="82.016" fill="#FFFFFF" stroke="#B54F46" stroke-miterlimit="10" width="4.211" height="48.595"/>
			<polygon fill="#B54F46" points="74.296,63.937 74.296,62.309 79.771,62.309 81.034,43.99 78.255,43.99 78.129,41.127 
				83.014,41.127 83.014,62.351 88.488,62.351 88.488,63.937 			"/>
			<polygon fill="#B54F46" points="78.129,41.127 75.181,28.031 73.328,28.031 78.129,56.413 79.813,56.413 			"/>
			<line fill="none" stroke="#B54F46" stroke-width="0.5" stroke-miterlimit="10" x1="73.328" y1="41.127" x2="38.082" y2="51.36"/>
			<line fill="none" stroke="#B54F46" stroke-width="0.5" stroke-miterlimit="10" x1="38.082" y1="51.36" x2="68.654" y2="51.36"/>
			<path fill="none" stroke="#B54F46" stroke-width="0.5" stroke-miterlimit="10" d="M60.735,44.783
				c2.192,6.194,0.039,12.388,0.087,12.388"/>
			<g>
				<path fill="#B54F46" d="M53.869,61.951c-0.042-0.147,0.02-0.267,0.186-0.359l1.165-0.636c0.084-0.05,0.172-0.075,0.264-0.075
					c0.216,0.01,0.324,0.113,0.324,0.308v4.761h0.809c0.184,0,0.276,0.105,0.276,0.316c0,0.205-0.092,0.308-0.276,0.308h-2.274
					c-0.182,0-0.273-0.103-0.273-0.308c0-0.211,0.091-0.316,0.273-0.316h0.778v-4.299c-0.126,0.105-0.261,0.188-0.403,0.249
					l-0.422,0.202c-0.082,0.039-0.151,0.062-0.207,0.069c-0.057,0.007-0.099-0.004-0.127-0.032
					c-0.027-0.028-0.047-0.054-0.059-0.079S53.879,61.999,53.869,61.951z"/>
				<path fill="#B54F46" d="M57.229,63.882c0.021-0.334,0.092-0.663,0.212-0.987c0.121-0.324,0.284-0.624,0.49-0.902
					s0.463-0.52,0.773-0.726c0.31-0.206,0.65-0.353,1.022-0.44c0.228-0.053,0.392,0.009,0.492,0.186
					c0.049,0.074,0.063,0.135,0.041,0.185c-0.022,0.05-0.056,0.087-0.099,0.112s-0.094,0.041-0.152,0.049
					c-0.293,0.045-0.572,0.146-0.836,0.306c-0.265,0.159-0.489,0.35-0.674,0.571c-0.184,0.221-0.333,0.461-0.446,0.721
					c-0.114,0.26-0.177,0.514-0.189,0.764h0.023c0.132-0.253,0.328-0.454,0.59-0.603c0.262-0.149,0.537-0.224,0.824-0.224
					c0.344,0,0.644,0.085,0.901,0.255s0.45,0.396,0.58,0.68c0.13,0.284,0.195,0.602,0.195,0.954c0,0.559-0.172,1.012-0.515,1.36
					c-0.344,0.347-0.782,0.521-1.314,0.521c-0.264,0-0.502-0.038-0.713-0.115c-0.212-0.076-0.388-0.183-0.527-0.322
					c-0.14-0.138-0.259-0.295-0.357-0.47s-0.171-0.37-0.219-0.584c-0.048-0.214-0.081-0.427-0.096-0.638
					C57.217,64.327,57.215,64.108,57.229,63.882z M57.963,64.792c0,0.166,0.022,0.328,0.067,0.484s0.112,0.301,0.202,0.434
					c0.089,0.133,0.211,0.241,0.365,0.323s0.332,0.123,0.532,0.123c0.369,0,0.654-0.131,0.856-0.393
					c0.202-0.261,0.302-0.591,0.302-0.987c0-0.439-0.099-0.769-0.297-0.992c-0.197-0.222-0.483-0.333-0.854-0.333
					c-0.195,0-0.371,0.044-0.526,0.131s-0.279,0.2-0.37,0.337s-0.16,0.281-0.208,0.432C57.987,64.502,57.963,64.649,57.963,64.792z"
					/>
			</g>
			<g>
				<path fill="#B54F46" d="M61.073,60.518c0-0.546,0.223-0.819,0.67-0.819s0.671,0.273,0.671,0.819
					c0,0.541-0.224,0.811-0.671,0.811C61.296,61.329,61.073,61.059,61.073,60.518z M61.331,60.339
					c-0.007,0.055-0.01,0.115-0.01,0.179s0.003,0.124,0.01,0.179c0.007,0.056,0.019,0.113,0.038,0.172
					c0.019,0.059,0.043,0.11,0.073,0.152s0.07,0.076,0.122,0.103c0.051,0.027,0.111,0.04,0.179,0.04s0.128-0.013,0.179-0.04
					s0.093-0.061,0.122-0.103c0.03-0.042,0.055-0.093,0.073-0.152c0.019-0.059,0.032-0.117,0.038-0.172
					c0.007-0.056,0.01-0.115,0.01-0.178s-0.003-0.123-0.01-0.178c-0.006-0.056-0.019-0.113-0.038-0.173
					c-0.019-0.059-0.043-0.11-0.073-0.152s-0.071-0.076-0.122-0.104c-0.051-0.027-0.111-0.04-0.179-0.04s-0.128,0.014-0.179,0.04
					c-0.052,0.027-0.092,0.062-0.122,0.103c-0.029,0.041-0.054,0.092-0.073,0.152C61.35,60.226,61.338,60.284,61.331,60.339z"/>
			</g>
			<rect x="70.591" y="110.146" fill="#B54F46" width="18.388" height="20.466"/>
		</g>
		<g>
			<g>
				<path fill="#B54F46" d="M35.01,97.212c4.677,0.004,8.57,0.234,8.651,0.512s0.28,0.619,0.442,0.758s0.333,0.471,0.379,0.737
					s0.179,0.873,0.295,1.347c0.116,0.475,0.343,1.309,0.505,1.853c0.162,0.544,0.494,1.397,0.737,1.895
					c0.243,0.498,1.645,3.558,3.116,6.801s2.835,6.36,3.032,6.927s0.301,1.288,0.232,1.6c-0.069,0.313-0.278,0.739-0.463,0.947
					s-0.422,0.559-0.526,0.779c-0.104,0.22-0.227,0.665-0.274,0.99c-0.046,0.324-0.056,0.741-0.021,0.926s0.698,0.574,1.474,0.863
					s1.368-3.3,1.316-7.977l-0.04-3.543c-0.052-4.677-0.288-8.769-0.523-9.093c-0.236-0.324-0.629-0.997-0.875-1.495
					s-0.56-1.303-0.699-1.79s-0.357-1.368-0.484-1.958c-0.127-0.591-0.308-1.562-0.4-2.158c-0.093-0.596-0.263-1.468-0.379-1.937
					c-0.116-0.469-0.353-1.298-0.526-1.842c-0.174-0.544-0.591-1.17-0.926-1.39c-0.336-0.22-1.141-0.514-1.79-0.653
					c-0.648-0.139-1.871-0.338-2.716-0.442c-0.845-0.104-2.39-0.284-3.432-0.4c-1.042-0.116-2.615-0.267-3.495-0.337
					s-2.879-0.164-4.443-0.211c-1.563-0.046-3.269-0.861-3.79-1.811s-0.568-1.774-0.105-1.832s1.487-0.228,2.274-0.379
					c0.788-0.151,1.858-0.331,2.379-0.4c0.521-0.069,3.932-0.126,7.58-0.126s6.699-0.047,6.78-0.105s0.024-0.39-0.127-0.737
					s-1.847-0.641-3.769-0.653s-3.704-0.154-3.958-0.316c-0.255-0.162-0.51-0.456-0.568-0.653s0.131-0.32,0.421-0.274
					s0.754,0.151,1.032,0.232s0.42,0.005,0.316-0.169c-0.104-0.174-0.341-0.42-0.526-0.548s-0.678-0.222-1.095-0.211
					c-0.417,0.012-1.156,0.097-1.642,0.19s-1.349,0.329-1.916,0.526s-1.591,0.443-2.274,0.547s-1.801,0.189-2.484,0.189
					s-2.029-0.047-2.99-0.105c-0.961-0.058-1.748-0.209-1.748-0.337s0-1.88,0-3.895s0-4.166,0-4.78s-0.066-1.646-0.147-2.295
					c-0.081-0.649-0.356-1.729-0.611-2.4c-0.255-0.672-0.378-2.358-0.274-3.748s-0.995-2.527-2.442-2.527s-2.783,0.777-2.969,1.726
					c-0.185,0.95-0.782,2.181-1.326,2.737s-1.255,1.371-1.579,1.811c-0.324,0.44-0.848,1.217-1.165,1.727s-0.752,1.571-0.969,2.358
					c-0.216,0.787-0.421,1.988-0.456,2.667s-0.035,1.949,0,2.821s0.29,2.221,0.568,2.997s0.676,1.989,0.884,2.695
					s0.616,1.758,0.905,2.337c0.289,0.579,0.668,1.451,0.842,1.937s0.458,1.263,0.632,1.726s0.439,1.202,0.59,1.642
					c0.15,0.44,0.492,1.274,0.758,1.853c0.266,0.579,0.81,1.577,1.207,2.218c0.398,0.641,0.925,1.247,1.172,1.348
					c0.247,0.1,0.923,0.208,1.502,0.239s4.879,0.059,9.557,0.063L35.01,97.212z"/>
			</g>
			<g>
				<path fill="#B54F46" d="M26.147,63.118c0.067-0.271,0.822-0.501,1.677-0.511s1.668-0.081,1.807-0.158
					c0.139-0.077,0.253-0.279,0.253-0.449s0.063-0.498,0.141-0.73s0.141-0.56,0.141-0.73s0.152-0.359,0.337-0.421
					s0.463-0.112,0.617-0.112s0.281-0.139,0.281-0.309s0-0.372,0-0.449s-0.139-0.216-0.309-0.309
					c-0.17-0.093-0.334-0.32-0.365-0.505s0.058-0.337,0.197-0.337s0.392,0,0.561,0s0.372-0.101,0.449-0.225
					c0.077-0.124,0.14-0.332,0.14-0.463s-0.139-0.308-0.309-0.393c-0.17-0.085-0.372-0.218-0.449-0.295
					c-0.077-0.077-0.14-0.267-0.14-0.421s0.088-0.382,0.196-0.505c0.108-0.124,0.31-0.326,0.449-0.449
					c0.139-0.124,0.253-0.351,0.253-0.505s-0.063-0.369-0.14-0.477c-0.077-0.108-0.33-0.196-0.562-0.196s-0.712-0.063-1.067-0.14
					s-0.772-0.418-0.926-0.758s-0.281-0.908-0.281-1.263s-0.164-0.886-0.365-1.179s-0.491-0.698-0.646-0.898
					s-0.243-0.529-0.196-0.73c0.046-0.201,0.248-0.504,0.449-0.674s0.516-0.41,0.702-0.533c0.185-0.124,0.526-0.376,0.758-0.561
					s0.105-0.528-0.281-0.762s-1.055-0.587-1.488-0.786c-0.432-0.199-1.393-0.462-2.134-0.586c-0.741-0.124-1.916-0.225-2.611-0.225
					s-1.705,0.101-2.246,0.225c-0.54,0.124-1.361,0.387-1.825,0.586s-1.221,0.616-1.684,0.926c-0.463,0.311-1.126,0.805-1.474,1.098
					c-0.347,0.293-0.865,0.811-1.151,1.151s-0.759,0.91-1.053,1.268c-0.293,0.358-0.698,0.977-0.898,1.376
					c-0.201,0.399-0.479,1.104-0.617,1.567s-0.253,1.335-0.253,1.937s0.088,1.588,0.196,2.19s0.399,1.335,0.646,1.628
					s0.689,0.685,0.983,0.87c0.293,0.185,0.862,0.425,1.263,0.533c0.401,0.108,1.147,0.348,1.656,0.534
					c0.509,0.186,1.217,0.438,1.572,0.561s0.823,0.35,1.039,0.504s0.573,0.539,0.793,0.855s1.613,0.609,3.095,0.651
					S26.08,63.389,26.147,63.118z"/>
			</g>
			<polygon fill="#B54F46" points="12.416,53.009 11.412,53.009 9.727,53.325 11.693,52.097 12.902,51.809 12.902,50.462 
				13.377,47.991 13.377,49.619 13.658,50.854 			"/>
			<polygon fill="#B54F46" points="29.73,46.84 31.456,47.991 29.042,47.991 30.249,49.507 30.951,50.658 29.323,49.17 
				28.338,48.526 			"/>
			<polygon fill="#B54F46" points="19.322,61.74 19.448,63.236 18.374,64.555 19.869,63.782 20.858,63.236 			"/>
			<polygon fill="#B54F46" points="58.211,115.593 62.65,119.915 63.909,120.87 66.885,121.993 68.289,122.611 65.313,123.565 
				63.011,123.846 61.832,123.453 60.26,122.891 58.744,122.554 58.969,123.565 60.148,124.674 61.495,125.474 62.65,126.26 
				63.797,126.878 63.572,127.495 62.112,127.495 60.035,127.495 58.211,126.934 			"/>
			<g>
				<g>
					<path fill="#FFFFFF" d="M21.715,64.99c0.525-0.486,0.885-0.606,0.8-0.267s-0.344,0.895-0.576,1.234s-0.649,0.845-0.926,1.123
						c-0.278,0.278-0.745,0.835-1.039,1.236c-0.293,0.401-0.748,1.077-1.011,1.502c-0.262,0.425-0.66,1.154-0.884,1.621
						s-0.521,1.212-0.66,1.656s-0.313,1.325-0.386,1.958S16.9,76.564,16.9,77.004c0,0.44,0.073,1.312,0.161,1.937
						c0.089,0.625,0.237,1.453,0.33,1.839c0.093,0.386,0.263,1.062,0.379,1.502s0.337,1.167,0.491,1.614
						c0.154,0.448,0.451,1.25,0.66,1.783c0.208,0.533,0.543,1.43,0.744,1.993c0.201,0.564,0.548,1.467,0.772,2.007
						c0.224,0.54,0.515,1.248,0.646,1.572c0.131,0.324,0.397,0.962,0.59,1.418s0.439,1.049,0.548,1.319
						c0.108,0.27,0.317,0.693,0.463,0.941c0.147,0.247,0.488,0.645,0.758,0.884c0.27,0.239,0.138,0.29-0.295,0.112
						c-0.432-0.178-0.995-0.557-1.249-0.842s-0.64-0.962-0.856-1.502s-0.589-1.425-0.828-1.965s-0.663-1.532-0.94-2.204
						s-0.751-1.853-1.053-2.625c-0.301-0.772-0.781-2.016-1.067-2.765s-0.674-1.949-0.863-2.667
						c-0.189-0.718-0.429-1.811-0.533-2.429c-0.104-0.618-0.164-1.748-0.134-2.513c0.031-0.764,0.17-2.005,0.309-2.758
						c0.139-0.753,0.543-1.896,0.898-2.541s0.968-1.665,1.361-2.267s1.133-1.518,1.642-2.035S21.19,65.476,21.715,64.99z"/>
				</g>
				<g>
					
						<line fill="none" stroke="#B54F46" stroke-width="0.5" stroke-miterlimit="10" x1="19.806" y1="66.351" x2="21.968" y2="66.407"/>
					
						<line fill="none" stroke="#B54F46" stroke-width="0.5" stroke-miterlimit="10" x1="17.083" y1="69.58" x2="19.609" y2="69.636"/>
					
						<line fill="none" stroke="#B54F46" stroke-width="0.5" stroke-miterlimit="10" x1="15.875" y1="72.78" x2="17.813" y2="72.892"/>
					
						<line fill="none" stroke="#B54F46" stroke-width="0.5" stroke-miterlimit="10" x1="15.342" y1="76.093" x2="17.251" y2="76.065"/>
					
						<line fill="none" stroke="#B54F46" stroke-width="0.5" stroke-miterlimit="10" x1="15.482" y1="79.237" x2="17.672" y2="79.237"/>
					
						<line fill="none" stroke="#B54F46" stroke-width="0.5" stroke-miterlimit="10" x1="16.577" y1="82.634" x2="18.205" y2="82.55"/>
					
						<line fill="none" stroke="#B54F46" stroke-width="0.5" stroke-miterlimit="10" x1="17.532" y1="85.806" x2="19.272" y2="85.61"/>
					
						<line fill="none" stroke="#B54F46" stroke-width="0.5" stroke-miterlimit="10" x1="18.823" y1="88.838" x2="20.648" y2="88.726"/>
					
						<line fill="none" stroke="#B54F46" stroke-width="0.5" stroke-miterlimit="10" x1="20.283" y1="92.319" x2="21.968" y2="92.095"/>
					
						<line fill="none" stroke="#B54F46" stroke-width="0.5" stroke-miterlimit="10" x1="21.968" y1="95.464" x2="23.399" y2="95.042"/>
				</g>
			</g>
		</g>
	</g>
</g>
<g>
	
		<line fill="none" stroke="#F6E146" stroke-linecap="round" stroke-miterlimit="10" x1="126.37" y1="68.285" x2="131.636" y2="96.958"/>
	
		<line fill="none" stroke="#F6E146" stroke-linecap="round" stroke-miterlimit="10" x1="131.636" y1="96.958" x2="159.825" y2="96.958"/>
	
		<line fill="none" stroke="#F6E146" stroke-linecap="round" stroke-miterlimit="10" x1="159.825" y1="96.958" x2="159.825" y2="126.333"/>
	
		<line fill="none" stroke="#F6E146" stroke-linecap="round" stroke-miterlimit="10" x1="159.825" y1="126.333" x2="171.711" y2="126.333"/>
	<circle fill="#F6E146" cx="132.152" cy="96.812" r="1.934"/>
	<circle fill="#F6E146" cx="126.152" cy="67.812" r="1.934"/>
	<circle fill="#F6E146" cx="160.152" cy="96.812" r="1.934"/>
	<circle fill="#F6E146" cx="160.152" cy="125.812" r="1.934"/>
	<circle fill="#F6E146" cx="170.152" cy="125.812" r="1.934"/>
	<text transform="matrix(1 0 0 1 149.9211 104.1392)" fill="#A0A0A0" font-family="'Fregat'" font-size="6">90</text>
	<text transform="matrix(1 0 0 1 162.0864 116.3915)" fill="#A0A0A0" font-family="'Fregat'" font-size="6">90</text>
</g>
</svg>
