<?xml version="1.0" encoding="utf-8"?>
<!-- Generator: Adobe Illustrator 17.1.0, SVG Export Plug-In . SVG Version: 6.00 Build 0)  -->
<!DOCTYPE svg PUBLIC "-//W3C//DTD SVG 1.1//EN" "http://www.w3.org/Graphics/SVG/1.1/DTD/svg11.dtd">
<svg version="1.1" id="Layer_1" xmlns="http://www.w3.org/2000/svg" xmlns:xlink="http://www.w3.org/1999/xlink" x="0px" y="0px"
	 viewBox="235 238.8 35 35" enable-background="new 235 238.8 35 35" xml:space="preserve">
<g>
	<path fill="#4CAF50" d="M252.5,239.3L252.5,239.3L252.5,239.3c-9.3,0-16.9,7.6-16.9,16.9c0,3.7,1.2,7.1,3.2,9.9l-2.1,6.3l6.5-2.1
		c2.7,1.8,5.9,2.8,9.3,2.8c9.3,0,16.9-7.6,16.9-16.9C269.3,246.9,261.8,239.3,252.5,239.3z"/>
	<path fill="#FAFAFA" d="M262.3,263.2c-0.4,1.1-2,2.1-3.3,2.4c-0.9,0.2-2,0.3-5.9-1.3c-5-2.1-8.2-7.1-8.4-7.4c-0.2-0.3-2-2.7-2-5.1
		s1.2-3.6,1.7-4.1c0.4-0.4,1.1-0.6,1.7-0.6c0.2,0,0.4,0,0.6,0c0.5,0,0.7,0.1,1.1,0.8c0.4,1,1.4,3.4,1.5,3.7c0.1,0.2,0.2,0.6,0.1,0.9
		c-0.2,0.3-0.3,0.5-0.5,0.8s-0.5,0.5-0.7,0.8c-0.2,0.3-0.5,0.6-0.2,1.1c0.3,0.5,1.3,2.1,2.7,3.4c1.9,1.7,3.4,2.2,4,2.4
		c0.4,0.2,0.9,0.1,1.2-0.2c0.4-0.4,0.8-1.1,1.3-1.7c0.3-0.5,0.8-0.5,1.2-0.4c0.5,0.2,2.9,1.4,3.4,1.6c0.5,0.2,0.8,0.4,0.9,0.6
		C262.7,261,262.7,262,262.3,263.2z"/>
</g>
</svg>
