<?xml version="1.0" encoding="utf-8"?>
<!-- Generator: Adobe Illustrator 22.0.1, SVG Export Plug-In . SVG Version: 6.00 Build 0)  -->
<svg version="1.1" id="Слой_1" xmlns="http://www.w3.org/2000/svg" xmlns:xlink="http://www.w3.org/1999/xlink" x="0px" y="0px"
	 viewBox="0 0 512 512" style="enable-background:new 0 0 512 512;" xml:space="preserve">
<style type="text/css">
	.st0{fill:#0F569D;}
</style>
<g>
	<path class="st0" d="M396.5,168.6h65c4.1,0,7.5-3.4,7.5-7.5c0-4.1-3.4-7.5-7.5-7.5h-65c-4.1,0-7.5,3.4-7.5,7.5
		S392.4,168.6,396.5,168.6z"/>
	<path class="st0" d="M396.5,211.7h65c4.1,0,7.5-3.4,7.5-7.5c0-4.1-3.4-7.5-7.5-7.5h-65c-4.1,0-7.5,3.4-7.5,7.5
		C389,208.4,392.4,211.7,396.5,211.7z"/>
	<path class="st0" d="M389,368.4c0,12.8,10.4,23.2,23.2,23.2h33.6c12.8,0,23.2-10.4,23.2-23.2v-32.9c0-4.1-3.4-7.5-7.5-7.5
		c-4.1,0-7.5,3.4-7.5,7.5v32.9c0,4.5-3.7,8.2-8.2,8.2h-33.6c-4.5,0-8.2-3.7-8.2-8.2V263.2c0-4.5,3.7-8.2,8.2-8.2h33.6
		c4.5,0,8.2,3.7,8.2,8.2v37.6c0,4.1,3.4,7.5,7.5,7.5c4.1,0,7.5-3.4,7.5-7.5v-37.6c0-12.8-10.4-23.2-23.2-23.2h-33.6
		c-12.8,0-23.2,10.4-23.2,23.2V368.4z"/>
	<path class="st0" d="M401.4,125.6h55.2c6.8,0,12.4-5.6,12.4-12.4V90.7c0-6.8-5.6-12.4-12.4-12.4h-55.2c-6.8,0-12.4,5.6-12.4,12.4
		v22.5C389,120,394.6,125.6,401.4,125.6z M404,93.3h50v17.3h-50V93.3z"/>
	<path class="st0" d="M122.5,233c-10.3-3.9-21-8-30.5-3c-6.7,3.5-11.2,10.7-14,22.4c-5.1,21.2,6.9,65,33.1,79.8
		c5.2,2.9,11.6,5.1,19.1,5.1c11.5,0,25.6-5.2,41.8-21.3c9.9-9.9,17.9-21.3,23.7-34c0.9,0.1,1.8,0.1,2.7,0.1c7.9,0,15.2-2.2,21.5-5.9
		c3.2,5.6,5.8,11.5,7.8,17.6c1.6,4.9,2.5,10.3,3.4,15.4c1.9,10.9,3.8,22.2,12.9,27.7c3.4,2.1,7.4,3.1,12,3.1c4.2,0,8.9-0.8,14.4-2.5
		c20.8-6.4,52.3-39,51.7-69.2c-0.3-15-8.4-34.8-45-44.3c-13.6-3.5-27.5-4.5-41.3-3c-3.2-6.3-8-11.7-13.8-15.7
		c3.7-5.3,8-10.1,12.6-14.5c3.8-3.6,8.2-6.7,12.5-9.7c9.1-6.3,18.4-12.8,19.6-23.5c0.9-7.6-2.5-15.2-10.6-24.2
		c-14.6-16.1-57.4-30.9-84.5-17.6c-13.4,6.6-28,22.3-21.1,59.5c2.5,13.8,7.5,26.8,14.8,38.8c-5.6,7.1-8.9,16.1-8.9,25.9
		c0,0,0,0.1,0,0.1c-6.5-0.1-12.9-0.9-19.1-2.2C132.4,236.8,127.4,234.9,122.5,233z M240.6,240.1c0-1.5-0.1-2.9-0.2-4.4
		c11.1-0.9,22.3,0,33.2,2.9c22.1,5.7,33.4,15.9,33.8,30.1c0.5,22.1-25.3,49.6-41.1,54.5c-6.7,2.1-11.7,2.4-14.1,0.9
		c-3.3-2-4.6-9.6-6-17.5c-0.9-5.4-2-11.6-4-17.6c-2.6-8-6.2-15.7-10.6-22.9C237.2,258.9,240.6,249.9,240.6,240.1z M225.6,240.1
		c0,14.9-12.1,27-27,27s-27-12.1-27-27s12.1-27,27-27S225.6,225.2,225.6,240.1z M165.5,172.7c-4.1-22.5,0.2-37.1,13-43.4
		c19.8-9.8,55.6,1.9,66.7,14.2c4.7,5.2,7.1,9.6,6.8,12.4c-0.4,3.9-6.7,8.2-13.3,12.9c-4.5,3.2-9.7,6.7-14.2,11.1
		c-6.1,5.8-11.6,12.2-16.3,19.3c-3.1-0.7-6.3-1.1-9.6-1.1c-7.9,0-15.3,2.2-21.6,6C171.4,194.3,167.5,183.8,165.5,172.7z
		 M159.4,255.2c3.9,10.2,11.8,18.5,21.6,23.1c-4.9,10.1-11.4,19.2-19.4,27.1c-16.2,16.1-30.7,20.7-43.1,13.7
		c-19.3-10.9-29.8-47.1-25.9-63.2c1.6-6.8,3.9-11.3,6.4-12.6c3.5-1.8,10.6,0.9,18.1,3.8c5.2,2,11,4.2,17.1,5.5
		C142.4,254.4,150.8,255.2,159.4,255.2z"/>
	<path class="st0" d="M206.3,220c-2.5-1-5-1.4-7.7-1.4c-5.3,0-10.4,2-14.3,5.6c-4.1,3.9-6.5,9.4-6.5,15.1c0,1.4,0.2,2.9,0.5,4.5
		c1.7,7.9,7.9,14,15.7,15.8c1.4,0.3,2.9,0.5,4.5,0.5c5.3,0,10.3-2,14.2-5.6c4.2-3.9,6.6-9.4,6.6-15.2c0-2.2-0.3-4.4-1-6.5
		c0,0,0,0,0,0C216.4,227,212.1,222.3,206.3,220z M202.5,243.5c-1.1,1-2.4,1.5-3.9,1.5c-0.5,0-0.8,0-1.1-0.1c-0.1,0-0.1,0-0.2,0
		c-2.1-0.5-3.9-2.2-4.3-4.3c-0.1-0.5-0.1-0.9-0.1-1.3c0-1.6,0.6-3.1,1.8-4.2c1.1-1,2.5-1.6,4-1.6c0.7,0,1.5,0.1,2.1,0.4
		c1.6,0.6,2.8,1.9,3.3,3.5c0.2,0.6,0.3,1.2,0.3,1.8C204.4,240.9,203.7,242.4,202.5,243.5z"/>
	<path class="st0" d="M333,164.4c3.6-2.1,4.7-6.7,2.6-10.3c-28.1-47.3-80.6-76.7-136.9-76.7c-88.6,0-160.6,72.1-160.6,160.7
		s72,160.7,160.6,160.7s160.6-72.1,160.6-160.7c0-15.9-2.4-31.7-7.2-47.1c-1.2-4-5.4-6.2-9.4-4.9c-4,1.2-6.2,5.4-4.9,9.4
		c4.3,14,6.6,28.3,6.6,42.7c0,80.3-65.3,145.7-145.6,145.7c-80.3,0-145.6-65.4-145.6-145.7c0-80.3,65.3-145.7,145.6-145.7
		c51.1,0,98.6,26.6,124,69.4C324.8,165.3,329.4,166.5,333,164.4z"/>
	<path class="st0" d="M484.9,37H242.8c-4.1,0-7.5,3.4-7.5,7.5c0,4.1,3.4,7.5,7.5,7.5h242.1c6.7,0,12.1,5.4,12.1,12.1v344.6
		c0,6.7-5.4,12.1-12.1,12.1H27.1c-6.6,0-12.1-5.4-12.1-12.1V64.1C15,57.4,20.4,52,27.1,52h181.1c4.1,0,7.5-3.4,7.5-7.5
		c0-4.1-3.4-7.5-7.5-7.5H27.1C12.1,37,0,49.1,0,64.1v344.6c0,14.9,12.1,27.1,27.1,27.1h9.5v21.7c0,9.7,7.9,17.5,17.5,17.5h76.8
		c9.7,0,17.5-7.9,17.5-17.5v-21.7h215.1v21.7c0,9.7,7.9,17.5,17.5,17.5h76.8c9.7,0,17.5-7.9,17.5-17.5v-21.7h9.5
		c14.9,0,27.1-12.2,27.1-27.1V64.1C512,49.1,499.8,37,484.9,37z M133.4,457.5c0,1.4-1.1,2.5-2.5,2.5H54.1c-1.4,0-2.5-1.1-2.5-2.5
		v-21.7h81.8V457.5z M460.4,457.5c0,1.4-1.1,2.5-2.5,2.5h-76.8c-1.4,0-2.5-1.1-2.5-2.5v-21.7h81.8V457.5z"/>
</g>
</svg>
