<?xml version="1.0" encoding="utf-8"?>
<!-- Generator: Adobe Illustrator 22.0.1, SVG Export Plug-In . SVG Version: 6.00 Build 0)  -->
<svg version="1.1" id="Capa_1" xmlns="http://www.w3.org/2000/svg" xmlns:xlink="http://www.w3.org/1999/xlink" x="0px" y="0px"
	 viewBox="0 0 31.5 50.3" style="enable-background:new 0 0 31.5 50.3;" xml:space="preserve">
<path d="M21.5,43.1c-0.2-0.2-0.5-0.2-0.7,0l-4.6,4.6V1.4c0-0.3-0.2-0.5-0.5-0.5s-0.5,0.2-0.5,0.5v46.3l-4.6-4.6
	c-0.2-0.2-0.5-0.2-0.7,0s-0.2,0.5,0,0.7l5.4,5.4c0,0,0.1,0.1,0.2,0.1c0.1,0,0.1,0,0.2,0s0.1,0,0.2,0c0.1,0,0.1-0.1,0.2-0.1l5.4-5.4
	C21.7,43.6,21.7,43.3,21.5,43.1z"/>
</svg>
