<?xml version="1.0" encoding="utf-8"?>
<!-- Generator: Adobe Illustrator 22.0.1, SVG Export Plug-In . SVG Version: 6.00 Build 0)  -->
<svg version="1.1" id="Capa_1" xmlns="http://www.w3.org/2000/svg" xmlns:xlink="http://www.w3.org/1999/xlink" x="0px" y="0px"
	 viewBox="0 0 512 512" style="enable-background:new 0 0 512 512;" xml:space="preserve">
<style type="text/css">
	.st0{fill:#FFFFFF;}
</style>
<g>
	<g>
		<path class="st0" d="M350.7,497H66.1V126.2c0-4.2-3.4-7.5-7.5-7.5s-7.5,3.4-7.5,7.5v373.2c0,6.9,5.6,12.5,12.5,12.5h287.1
			c4.1,0,7.5-3.4,7.5-7.5C358.2,500.3,354.8,497,350.7,497z"/>
	</g>
</g>
<g>
	<g>
		<path class="st0" d="M458.8,68L394.9,2.3c-1.4-1.5-3.4-2.3-5.4-2.3H63.6c-6.9,0-12.5,5.6-12.5,12.5v58.6c0,4.2,3.4,7.5,7.5,7.5
			s7.5-3.4,7.5-7.5V15h320.2l59.5,61.2V497h-42.6c-4.1,0-7.5,3.4-7.5,7.5s3.4,7.5,7.5,7.5h45.1c6.9,0,12.5-5.6,12.5-12.5V73.2
			C460.9,71.2,460.1,69.4,458.8,68z"/>
	</g>
</g>
<g>
	<g>
		<path class="st0" d="M458.8,68L394.9,2.3c-2.1-2.2-5.4-2.9-8.2-1.7s-4.7,3.9-4.7,7v65.7c0,4.2,3.4,7.5,7.5,7.5h63.9
			c3,0,5.7-1.8,6.9-4.6C461.5,73.3,460.9,70.1,458.8,68z M397,65.7V26l38.6,39.7C435.6,65.7,397,65.7,397,65.7z"/>
	</g>
</g>
<g>
	<g>
		<path class="st0" d="M290.8,39.9H109.7c-6.9,0-12.5,5.6-12.5,12.5V94c0,6.9,5.6,12.5,12.5,12.5h181.1c6.9,0,12.5-5.6,12.5-12.5
			V52.4C303.3,45.5,297.7,39.9,290.8,39.9z M288.3,91.5H112.2V54.9h176.1V91.5z"/>
	</g>
</g>
<g>
	<g>
		<path class="st0" d="M172.2,145.8c-3.3-2.5-8-1.9-10.5,1.4l-33.2,43.7l-10-8.7c-3.1-2.7-7.9-2.4-10.6,0.7
			c-2.7,3.1-2.4,7.9,0.7,10.6l16,14c1.4,1.2,3.1,1.9,4.9,1.9c0.3,0,0.5,0,0.8,0c2.1-0.2,4-1.3,5.2-2.9l38.1-50.1
			C176.2,153,175.6,148.3,172.2,145.8z"/>
	</g>
</g>
<g>
	<g>
		<path class="st0" d="M398.4,144.3H209.1c-4.1,0-7.5,3.4-7.5,7.5s3.4,7.5,7.5,7.5h189.3c4.1,0,7.5-3.4,7.5-7.5
			S402.6,144.3,398.4,144.3z"/>
	</g>
</g>
<g>
	<g>
		<path class="st0" d="M332,169.3H209.1c-4.1,0-7.5,3.4-7.5,7.5s3.4,7.5,7.5,7.5H332c4.1,0,7.5-3.4,7.5-7.5S336.2,169.3,332,169.3z"
			/>
	</g>
</g>
<g>
	<g>
		<path class="st0" d="M360.1,194.4H209.1c-4.1,0-7.5,3.4-7.5,7.5s3.4,7.5,7.5,7.5h150.9c4.1,0,7.5-3.4,7.5-7.5
			S364.2,194.4,360.1,194.4z"/>
	</g>
</g>
<g>
	<g>
		<path class="st0" d="M172.2,248c-3.3-2.5-8-1.9-10.5,1.4l-33.2,43.7l-10-8.7c-3.1-2.7-7.9-2.4-10.6,0.7c-2.7,3.1-2.4,7.9,0.7,10.6
			l16,14c1.4,1.2,3.1,1.9,4.9,1.9c0.3,0,0.5,0,0.8,0c2.1-0.2,4-1.3,5.2-2.9l38.1-50.1C176.2,255.2,175.6,250.5,172.2,248z"/>
	</g>
</g>
<g>
	<g>
		<path class="st0" d="M398.4,246.5H209.1c-4.1,0-7.5,3.4-7.5,7.5s3.4,7.5,7.5,7.5h189.3c4.1,0,7.5-3.4,7.5-7.5
			C405.9,249.8,402.6,246.5,398.4,246.5z"/>
	</g>
</g>
<g>
	<g>
		<path class="st0" d="M332,271.5H209.1c-4.1,0-7.5,3.4-7.5,7.5s3.4,7.5,7.5,7.5H332c4.1,0,7.5-3.4,7.5-7.5S336.2,271.5,332,271.5z"
			/>
	</g>
</g>
<g>
	<g>
		<path class="st0" d="M360.1,296.6H209.1c-4.1,0-7.5,3.4-7.5,7.5s3.4,7.5,7.5,7.5h150.9c4.1,0,7.5-3.4,7.5-7.5
			S364.2,296.6,360.1,296.6z"/>
	</g>
</g>
<g>
	<g>
		<path class="st0" d="M398.4,348.7H209.1c-4.1,0-7.5,3.4-7.5,7.5s3.4,7.5,7.5,7.5h189.3c4.1,0,7.5-3.4,7.5-7.5
			C405.9,352,402.6,348.7,398.4,348.7z"/>
	</g>
</g>
<g>
	<g>
		<path class="st0" d="M332,373.7H209.1c-4.1,0-7.5,3.4-7.5,7.5s3.4,7.5,7.5,7.5H332c4.1,0,7.5-3.4,7.5-7.5S336.2,373.7,332,373.7z"
			/>
	</g>
</g>
<g>
	<g>
		<path class="st0" d="M360.1,398.8H209.1c-4.1,0-7.5,3.4-7.5,7.5s3.4,7.5,7.5,7.5h150.9c4.1,0,7.5-3.4,7.5-7.5
			S364.2,398.8,360.1,398.8z"/>
	</g>
</g>
<g>
	<g>
		<path class="st0" d="M158.7,348.7h-40.1c-6.9,0-12.5,5.6-12.5,12.5v40.1c0,6.9,5.6,12.5,12.5,12.5h40.1c6.9,0,12.5-5.6,12.5-12.5
			v-40.1C171.2,354.3,165.6,348.7,158.7,348.7z M156.2,398.8h-35.1v-35.1h35.1V398.8z"/>
	</g>
</g>
</svg>
