<?xml version="1.0" encoding="utf-8"?>
<!-- Generator: Adobe Illustrator 22.0.1, SVG Export Plug-In . SVG Version: 6.00 Build 0)  -->
<svg version="1.1" id="Слой_1" xmlns="http://www.w3.org/2000/svg" xmlns:xlink="http://www.w3.org/1999/xlink" x="0px" y="0px"
	 viewBox="0 0 512 512" style="enable-background:new 0 0 512 512;" xml:space="preserve">
<style type="text/css">
	.st0{fill:#FFFFFF;}
</style>
<path class="st0" d="M459.7,45.2h-18.9V29.6c0-16.3-13.3-29.6-29.6-29.6H42.6C26.3,0,13,13.3,13,29.6V104
	c0,16.3,13.3,29.6,29.6,29.6h104.5v23.3c0,16,13.1,29.1,29.1,29.1c16,0,29.1-13.1,29.1-29.1v-23.3h205.8c16.3,0,29.6-13.3,29.6-29.6
	V88.4h15.8v72.8l-204.2,51.2c-27.7,6.9-47,31.7-47,60.3V304h-26.5c-8.5,0-15.3,6.9-15.3,15.3V335c0,8.5,6.9,15.3,15.3,15.3h10.1v133
	c0,15.8,12.9,28.7,28.7,28.7h18.6c15.8,0,28.7-12.9,28.7-28.7v-133H275c8.5,0,15.3-6.9,15.3-15.3v-15.7c0-8.5-6.9-15.3-15.3-15.3
	h-26.5v-31.3c0-8.7,5.9-16.3,14.3-18.4L469,202.6c18.1-4.3,30.8-20.3,30.8-39V85.3C499.8,63.2,481.8,45.2,459.7,45.2z M237.7,118.6
	h-32.4V103c0-7.8,6.3-14.1,14.1-14.1s14.1,6.3,14.1,14.1v0.5C233.5,109,235,114.2,237.7,118.6z M425.8,104c0,8.1-6.5,14.6-14.6,14.6
	H287.5c2.7-4.4,4.2-9.6,4.2-15.1V37.7c0-4.1-3.4-7.5-7.5-7.5c-4.1,0-7.5,3.4-7.5,7.5v65.9c0,7.8-6.3,14.1-14.1,14.1
	s-14.1-6.3-14.1-14.1V103c0-16-13.1-29.1-29.1-29.1c-16,0-29.1,13-29.1,29.1v53.9c0,7.8-6.3,14.1-14.1,14.1s-14.1-6.3-14.1-14.1
	V64.8c0-0.1,0-0.3,0-0.4c-0.9-15.4-13.6-27.4-29-27.4c-16,0-29.1,13.1-29.1,29.2c0,7.8-6.3,14.1-14.1,14.1s-14.1-6.3-14.1-14.1V37.7
	c0-4.1-3.4-7.5-7.5-7.5c-4.1,0-7.5,3.4-7.5,7.5v28.5c0,16,13,29.1,29.1,29.1c16,0,29.1-13.1,29.1-29.2c0-7.8,6.3-14.1,14.1-14.1
	c7.4,0,13.5,5.7,14,13.1v53.6H42.6c-8,0-14.6-6.5-14.6-14.6V29.6C28,21.5,34.6,15,42.6,15h368.6c8.1,0,14.6,6.5,14.6,14.6V104z
	 M249.9,483.3c0,7.5-6.1,13.7-13.7,13.7h-18.6c-7.5,0-13.7-6.1-13.7-13.7v-133h46V483.3z M275.3,319.4V335c0,0.2-0.1,0.3-0.3,0.3
	h-96.1c-0.2,0-0.3-0.1-0.3-0.3v-15.7c0-0.2,0.1-0.3,0.3-0.3H275C275.1,319,275.3,319.2,275.3,319.4z M484.8,163.6
	c0,11.6-7.9,21.7-19.3,24.4l-206.3,51.7c-15.1,3.8-25.7,17.3-25.7,32.9V304h-13.2v-31.3c0-21.7,14.7-40.5,35.7-45.7l206.4-51.8
	l0.1,0c5.4-1.3,9.1-6,9.1-11.5V85.3c0-6.5-5.3-11.9-11.9-11.9h-18.9V60.2h18.9c13.8,0,25.1,11.2,25.1,25.1V163.6z"/>
</svg>
