<?xml version="1.0"?>
<svg xmlns="http://www.w3.org/2000/svg" id="Layer_1" data-name="Layer 1" viewBox="0 0 128 128" width="512" height="512"><title>UNION</title><path d="M113,35.233h-5.963L104.6,31.7l2.433-3.535H113a1.75,1.75,0,0,0,1.558-2.546,13.381,13.381,0,0,0-21.615-3.153A6.594,6.594,0,0,1,88.274,24.4a7.274,7.274,0,0,0-11.192-2.706,7.271,7.271,0,0,0-10.547-2.879,7.282,7.282,0,0,0-13.728-1.249A7.28,7.28,0,0,0,41.08,23.342v.076a7.586,7.586,0,0,1-1.941-1.651,15.484,15.484,0,0,0-25.7,2.89A1.75,1.75,0,0,0,15,27.2h7.212L25.306,31.7l-3.093,4.495H15a1.75,1.75,0,0,0-1.558,2.546,15.485,15.485,0,0,0,25.7,2.891,7.58,7.58,0,0,1,1.994-1.674,7.252,7.252,0,0,0,.283,1.467A8.822,8.822,0,0,0,44.21,58.135a13.781,13.781,0,0,0,6.145,7.529,10.018,10.018,0,0,1,4.936,6.806H52.46a1.75,1.75,0,0,0-1.75,1.75V113a1.75,1.75,0,0,0,3.5,0V85.917h24V113a1.75,1.75,0,0,0,3.5,0V74.219a1.75,1.75,0,0,0-1.75-1.75H77.13a10.017,10.017,0,0,1,4.936-6.805A13.775,13.775,0,0,0,88.92,53.781V39.036a6.482,6.482,0,0,1,4.022,1.9,13.38,13.38,0,0,0,21.615-3.153A1.75,1.75,0,0,0,113,35.233ZM81.628,23.594a3.8,3.8,0,0,1,3.792,3.792V39.242a3.793,3.793,0,0,1-7.585,0V27.386A3.8,3.8,0,0,1,81.628,23.594ZM70.542,21.108A3.8,3.8,0,0,1,74.335,24.9V39.242a3.792,3.792,0,0,1-7.585,0V24.9A3.8,3.8,0,0,1,70.542,21.108Zm-14.877-.566a3.792,3.792,0,0,1,7.585,0v18.7a3.786,3.786,0,0,1-.928,2.481,8.768,8.768,0,0,0-4.405-1.188h-2a3.744,3.744,0,0,1-.252-1.292ZM36.451,39.388a11.985,11.985,0,0,1-18.154.305h4.835a1.748,1.748,0,0,0,1.441-.758l4.3-6.245a1.749,1.749,0,0,0,0-1.984l-4.3-6.245a1.748,1.748,0,0,0-1.441-.758H18.3a11.985,11.985,0,0,1,18.155.306,10.954,10.954,0,0,0,4.628,3.267v8.842A10.976,10.976,0,0,0,36.451,39.388Zm8.128-.146v-15.9a3.793,3.793,0,0,1,7.585,0v15.9a3.746,3.746,0,0,1-.251,1.292H45.25c-.144,0-.284.015-.426.022A3.778,3.778,0,0,1,44.58,39.242ZM39.917,49.368a5.34,5.34,0,0,1,5.333-5.333H57.917a5.333,5.333,0,0,1,0,10.667H45.25A5.34,5.34,0,0,1,39.917,49.368ZM78.21,82.417h-24V75.969h24Zm2.1-19.781a13.653,13.653,0,0,0-6.742,9.834H58.851a13.655,13.655,0,0,0-6.742-9.834,10.276,10.276,0,0,1-4.1-4.433h9.905a8.817,8.817,0,0,0,7.028-14.163c.02-.022.036-.047.055-.07a7.27,7.27,0,0,0,11.085,0,7.253,7.253,0,0,0,9.335,1.49v8.322A10.265,10.265,0,0,1,80.312,62.635Zm22.327-21.047a9.8,9.8,0,0,1-7.162-3.069,10.036,10.036,0,0,0-6.557-2.99V27.868a10.036,10.036,0,0,0,6.557-2.989,9.884,9.884,0,0,1,14.108-.215h-3.468a1.748,1.748,0,0,0-1.441.758l-3.637,5.285a1.749,1.749,0,0,0,0,1.984l3.637,5.285a1.748,1.748,0,0,0,1.441.758h3.468A9.831,9.831,0,0,1,102.639,41.588Z"/></svg>
