<svg width="54" height="54" viewBox="0 0 54 54" fill="none" xmlns="http://www.w3.org/2000/svg">
<path d="M26.9248 50.1559C39.6004 50.1559 49.8761 39.8803 49.8761 27.2047C49.8761 14.529 39.6004 4.25342 26.9248 4.25342C14.2492 4.25342 3.97354 14.529 3.97354 27.2047C3.97354 39.8803 14.2492 50.1559 26.9248 50.1559Z" fill="#998269"/>
<path d="M26.9248 44.9551C36.7281 44.9551 44.6753 37.0079 44.6753 27.2046C44.6753 17.4013 36.7281 9.4541 26.9248 9.4541C17.1215 9.4541 9.17429 17.4013 9.17429 27.2046C9.17429 37.0079 17.1215 44.9551 26.9248 44.9551Z" fill="#AA947D"/>
<path d="M26.6874 0.80127C24.7539 0.80127 23.1084 2.19789 21.2997 2.60985C19.9825 2.9098 18.1777 2.35314 16.9479 2.85053C15.7705 3.32661 14.6374 3.88887 13.5561 4.5297C12.5282 5.13888 12.0741 6.77861 11.1468 7.5229C9.92566 8.50291 7.98071 8.69234 6.96114 9.87981C6.07257 10.9148 5.26658 12.0225 4.55308 13.193C3.66366 14.6522 3.73506 17.111 3.15351 18.7452C2.75716 19.8589 2.43674 21.0088 2.1987 22.1884C2.02088 23.0696 1.88904 23.9675 1.80562 24.8794C1.73569 25.6451 1.69983 26.4208 1.69983 27.205C1.69983 28.7705 0.609813 30.7332 0.882767 32.2198C1.05489 33.1567 1.27859 34.0755 1.55112 34.9731C1.82492 35.8752 2.14786 36.7558 2.5169 37.6119C2.9586 38.6364 4.69894 39.1956 5.26721 40.1447C5.66556 40.8099 6.09356 41.4553 6.5496 42.0788C7.06724 42.7867 7.62085 43.4665 8.20778 44.1157C8.8986 44.8797 9.52794 46.6494 10.3065 47.3241C11.1842 48.0846 12.1149 48.7854 13.0923 49.4206C13.9803 49.9976 15.0146 49.4721 15.975 49.9357C17.2432 50.5476 18.5628 52.3731 19.9382 52.7682C21.151 53.1166 22.1283 53.0208 23.4085 53.1848C24.4679 53.3204 25.8281 52.4295 26.9244 52.4295C28.6067 52.4295 30.4492 53.4383 32.0394 53.1241C33.4237 52.8506 34.8396 52.1904 36.1324 51.7005C37.1529 51.3137 37.8709 49.9627 38.8233 49.4523C40.0048 48.819 41.1301 48.0944 42.1895 47.2878C43.0647 46.6215 44.7842 46.5903 45.5644 45.8175C46.5552 44.8362 47.465 43.7732 48.2831 42.6396C48.8686 41.828 48.5177 40.2894 49.0052 39.4094C49.6196 38.3002 50.1527 37.1399 50.5968 35.9364C51.0052 34.8297 52.4779 34.188 52.7292 33.0145C52.9189 32.1287 53.0622 31.2256 53.1561 30.3082C53.2437 29.4529 52.149 28.0833 52.149 27.2048C52.149 25.6977 52.0169 24.2215 51.7634 22.787C51.5586 21.6273 52.2519 20.9413 51.8944 19.8422C51.3505 18.17 50.7866 15.9551 49.9232 14.4567C49.4249 13.5919 47.7495 12.9326 47.1554 12.1363C46.5594 11.3375 46.1599 9.06538 45.4755 8.34355C44.6951 7.52037 43.8597 6.74981 42.9752 6.03758C41.8206 5.10788 40.3396 5.78741 39.0308 5.07001C37.7928 4.39153 36.4919 3.81377 35.1387 3.34802C34.0192 2.96264 32.627 1.47469 31.4423 1.24877C29.9024 0.955043 28.3129 0.80127 26.6874 0.80127ZM26.9245 48.3723C15.2341 48.3723 5.75722 38.8954 5.75722 27.205C5.75722 15.5145 15.234 6.03758 26.9245 6.03758C38.615 6.03758 48.0917 15.5146 48.0917 27.2048C48.0917 38.8951 38.6148 48.3723 26.9245 48.3723Z" fill="#564A3D"/>
<path d="M26.9248 41.0372C34.5643 41.0372 40.7573 34.8441 40.7573 27.2046C40.7573 19.5651 34.5643 13.3721 26.9248 13.3721C19.2853 13.3721 13.0923 19.5651 13.0923 27.2046C13.0923 34.8441 19.2853 41.0372 26.9248 41.0372Z" fill="#B5A593"/>
<path d="M26.9248 37.1813C32.4347 37.1813 36.9013 32.7146 36.9013 27.2048C36.9013 21.6949 32.4347 17.2283 26.9248 17.2283C21.4149 17.2283 16.9483 21.6949 16.9483 27.2048C16.9483 32.7146 21.4149 37.1813 26.9248 37.1813Z" fill="#C2B5A5"/>
<path d="M26.9248 33.2952C30.2886 33.2952 33.0154 30.5684 33.0154 27.2046C33.0154 23.8409 30.2886 21.114 26.9248 21.114C23.5611 21.114 20.8342 23.8409 20.8342 27.2046C20.8342 30.5684 23.5611 33.2952 26.9248 33.2952Z" fill="#AA947D"/>
<path d="M26.9248 29.3452C28.107 29.3452 29.0654 28.3868 29.0654 27.2046C29.0654 26.0223 28.107 25.064 26.9248 25.064C25.7426 25.064 24.7842 26.0223 24.7842 27.2046C24.7842 28.3868 25.7426 29.3452 26.9248 29.3452Z" fill="#C2B5A5"/>
<path opacity="0.19" d="M52.1556 27.2046C52.1556 25.6974 52.0234 24.2212 51.77 22.7867C51.5651 21.6271 52.2584 20.941 51.901 19.8419C51.3571 18.1697 50.7931 15.9549 49.9297 14.4565C49.4314 13.5916 47.756 12.9323 47.1619 12.1361C46.6754 11.4838 46.3197 9.85023 45.8331 8.87939C46.8107 11.7626 47.341 14.8523 47.341 18.0658C47.341 33.8572 34.5395 46.6586 18.7482 46.6586C15.2227 46.6586 11.8469 46.019 8.7287 44.8519C9.2321 45.7027 9.73086 46.8192 10.313 47.3238C11.1908 48.0843 12.1214 48.7852 13.0988 49.4203C13.9868 49.9973 15.0212 49.4719 15.9816 49.9354C17.2497 50.5474 18.5694 52.3728 19.9448 52.7679C21.1576 53.1164 22.1348 53.0205 23.415 53.1845C24.4744 53.3201 25.8347 52.4292 26.9309 52.4292C28.6133 52.4292 30.4558 53.438 32.0459 53.1239C33.4302 52.8504 34.8461 52.1901 36.139 51.7002C37.1595 51.3135 37.8774 49.9624 38.8298 49.4521C40.0114 48.8187 41.1366 48.0942 42.196 47.2875C43.0712 46.6213 44.7908 46.5901 45.5709 45.8173C46.5617 44.8359 47.4716 43.773 48.2896 42.6393C48.8752 41.8277 48.5243 40.2891 49.0118 39.4091C49.6261 38.2999 50.1593 37.1396 50.6034 35.9361C51.0118 34.8295 52.4844 34.1878 52.7358 33.0142C52.9255 32.1284 53.0687 31.2254 53.1627 30.3079C53.2503 29.4527 52.1556 28.083 52.1556 27.2046Z" fill="#564A3D"/>
<path d="M26.9244 24.2632C25.3024 24.2632 23.983 25.5828 23.983 27.2046C23.983 28.8265 25.3026 30.146 26.9244 30.146C28.5464 30.146 29.8659 28.8264 29.8659 27.2046C29.8659 25.5828 28.5465 24.2632 26.9244 24.2632ZM26.9244 28.5438C26.1859 28.5438 25.5852 27.943 25.5852 27.2046C25.5852 26.4662 26.186 25.8654 26.9244 25.8654C27.6628 25.8654 28.2637 26.4662 28.2637 27.2046C28.2637 27.9431 27.6629 28.5438 26.9244 28.5438Z" fill="black"/>
<path d="M26.9244 20.3132C23.1243 20.3132 20.0328 23.4047 20.0328 27.2048C20.0328 31.0048 23.1243 34.0963 26.9244 34.0963C30.7244 34.0963 33.8159 31.0048 33.8159 27.2048C33.8159 23.4047 30.7244 20.3132 26.9244 20.3132ZM26.9244 32.494C24.0078 32.494 21.635 30.1213 21.635 27.2047C21.635 24.288 24.0078 21.9153 26.9244 21.9153C29.8409 21.9153 32.2137 24.288 32.2137 27.2047C32.2137 30.1213 29.8409 32.494 26.9244 32.494Z" fill="black"/>
<path d="M26.9244 16.4272C20.9816 16.4272 16.1467 21.2621 16.1467 27.2049C16.1467 33.1476 20.9816 37.9824 26.9244 37.9824C32.8671 37.9824 37.702 33.1475 37.702 27.2049C37.702 21.262 32.8672 16.4272 26.9244 16.4272ZM26.9244 36.3802C21.8651 36.3802 17.749 32.2642 17.749 27.205C17.749 22.1458 21.8651 18.0296 26.9244 18.0296C31.9836 18.0296 36.0997 22.1458 36.0997 27.205C36.0997 32.2642 31.9837 36.3802 26.9244 36.3802Z" fill="black"/>
<path d="M26.9244 12.5715C18.8556 12.5715 12.2911 19.136 12.2911 27.2048C12.2911 35.2736 18.8556 41.8381 26.9244 41.8381C34.9933 41.8381 41.5577 35.2736 41.5577 27.2048C41.5577 19.136 34.9933 12.5715 26.9244 12.5715ZM26.9244 40.2359C19.739 40.2359 13.8933 34.3902 13.8933 27.2048C13.8933 20.0194 19.739 14.1737 26.9244 14.1737C34.1099 14.1737 39.9555 20.0194 39.9555 27.2048C39.9555 34.3902 34.1098 40.2359 26.9244 40.2359Z" fill="black"/>
<path d="M26.9244 8.65356C16.6952 8.65356 8.37308 16.9756 8.37308 27.205C8.37308 37.4344 16.6951 45.7563 26.9244 45.7563C37.1537 45.7563 45.4758 37.4343 45.4758 27.2049C45.4758 16.9755 37.1537 8.65356 26.9244 8.65356ZM26.9244 44.154C17.5786 44.154 9.97536 36.5507 9.97536 27.2049C9.97536 17.8591 17.5786 10.2558 26.9244 10.2558C36.2702 10.2558 43.8735 17.8592 43.8735 27.205C43.8735 36.5508 36.2703 44.154 26.9244 44.154Z" fill="black"/>
<path d="M53.3768 28.3527C53.1866 27.9489 52.9502 27.4463 52.9502 27.2049C52.9502 25.6753 52.8163 24.142 52.5523 22.6476C52.4848 22.2652 52.5599 21.9379 52.6468 21.559C52.7663 21.0383 52.9151 20.3903 52.6562 19.5943C52.5388 19.2336 52.4209 18.8483 52.2961 18.4403C51.8462 16.9703 51.3363 15.3046 50.6173 14.0567C50.2569 13.4311 49.5677 12.9703 48.901 12.5247C48.4536 12.2256 47.9909 11.9164 47.7975 11.6571C47.5973 11.3889 47.368 10.7171 47.1656 10.1244C46.8466 9.18991 46.5453 8.30725 46.0568 7.79203C45.2537 6.94501 44.3859 6.14472 43.4777 5.41329C42.656 4.75158 41.7512 4.70633 40.9529 4.66625C40.3672 4.63704 39.8615 4.61152 39.4158 4.36725C38.1324 3.66377 36.781 3.06598 35.3993 2.59021C35.0052 2.45457 34.4797 2.08195 33.9716 1.72167C33.2068 1.17946 32.4159 0.61868 31.5924 0.461531C29.9867 0.155355 28.3364 0 26.6874 0C25.3672 0 24.23 0.53209 23.1303 1.04667C22.4351 1.37194 21.7786 1.67917 21.1219 1.82851C20.6413 1.93788 20.0261 1.90434 19.3749 1.86891C18.4492 1.81849 17.4922 1.76607 16.6477 2.10758C15.4443 2.59411 14.2669 3.17704 13.1477 3.84022C12.4213 4.27075 11.9749 4.99679 11.5432 5.699C11.2447 6.18458 10.9627 6.64316 10.6456 6.89776C10.1971 7.25773 9.58933 7.50684 8.94576 7.77052C8.01321 8.15273 7.04869 8.54793 6.35334 9.35782C5.43629 10.4259 4.60055 11.5759 3.86902 12.7759C3.26353 13.7694 3.05902 15.0601 2.86137 16.3083C2.73386 17.1131 2.61342 17.8733 2.39879 18.4764C1.98767 19.6314 1.65618 20.8271 1.41339 22.0299C1.22924 22.9425 1.09287 23.8766 1.00797 24.8064C0.935514 25.5984 0.898916 26.4054 0.898916 27.2048C0.898916 27.7896 0.704854 28.4893 0.49919 29.2302C0.209361 30.2749 -0.0902753 31.3553 0.0950333 32.3642C0.270533 33.3203 0.502565 34.2763 0.784693 35.2057C1.06461 36.1277 1.4 37.0439 1.78148 37.9287C2.10801 38.686 2.81497 39.1713 3.49872 39.6405C3.94369 39.946 4.40375 40.2616 4.57999 40.5559C4.98815 41.2375 5.43323 41.909 5.90309 42.5513C6.43413 43.2776 7.00967 43.9846 7.61358 44.6527C7.86059 44.9259 8.14399 45.4458 8.4181 45.9485C8.82415 46.6932 9.24392 47.4632 9.78202 47.9293C10.6866 48.7132 11.6536 49.4408 12.6558 50.092C13.3245 50.5265 14.0263 50.5238 14.5896 50.5211C14.9921 50.5203 15.3395 50.5181 15.627 50.6569C16.0858 50.8781 16.6034 51.3382 17.1513 51.8252C17.9488 52.534 18.7734 53.2667 19.7171 53.5378C20.5785 53.7855 21.3376 53.8311 22.0716 53.8753C22.4655 53.8991 22.873 53.9235 23.3067 53.9791C23.4178 53.9934 23.5288 53.9998 23.6399 53.9998C24.2803 53.9997 24.9194 53.7828 25.5405 53.572C26.0356 53.404 26.5475 53.2302 26.9244 53.2302C27.557 53.2302 28.2484 53.4033 28.9807 53.5866C30.0324 53.8498 31.12 54.1225 32.1947 53.9096C33.3146 53.6886 34.4073 53.2494 35.4642 52.8248C35.7954 52.6918 36.1081 52.566 36.4165 52.4492C37.1414 52.1745 37.6994 51.5826 38.1918 51.0603C38.5457 50.6849 38.8798 50.3305 39.2018 50.158C40.4117 49.5096 41.5802 48.7582 42.6749 47.9249C42.9635 47.705 43.4918 47.5503 44.0027 47.4007C44.7716 47.1756 45.5666 46.9427 46.1283 46.3864C47.1495 45.3749 48.0931 44.2719 48.9328 43.108C49.3735 42.4972 49.4341 41.7085 49.4873 41.0128C49.5232 40.5445 49.5604 40.0604 49.706 39.7974C50.342 38.6491 50.8946 37.4434 51.3483 36.2136C51.4766 35.8659 51.8239 35.5243 52.1914 35.1623C52.7243 34.6379 53.3281 34.0435 53.5125 33.1819C53.7089 32.2648 53.8572 31.3253 53.9532 30.3895C54.0215 29.7225 53.6936 29.0261 53.3768 28.3527ZM52.3592 30.2264C52.2692 31.1046 52.1301 31.9862 51.9459 32.8467C51.8619 33.2387 51.4761 33.6185 51.0676 34.0205C50.6129 34.468 50.0975 34.9753 49.8453 35.659C49.4196 36.8127 48.9012 37.9439 48.3044 39.0212C47.9894 39.5898 47.9387 40.251 47.8897 40.8904C47.8507 41.3992 47.8104 41.9253 47.6333 42.1706C46.845 43.2633 45.9592 44.2987 45.0006 45.2483C44.727 45.5193 44.1298 45.6942 43.5522 45.8633C42.9015 46.0539 42.2287 46.2509 41.7041 46.6502C40.6767 47.4323 39.5801 48.1375 38.4447 48.746C37.8929 49.0417 37.4522 49.5093 37.0259 49.9613C36.6338 50.3772 36.2284 50.807 35.8485 50.951C35.5253 51.0736 35.1905 51.208 34.8667 51.3382C33.8786 51.7352 32.8567 52.1459 31.8842 52.3378C31.1611 52.4801 30.2909 52.2628 29.3697 52.0324C28.5755 51.8336 27.7544 51.6281 26.9244 51.6281C26.283 51.6281 25.6438 51.8451 25.0255 52.055C24.4693 52.2438 23.8943 52.4394 23.5102 52.3899C23.023 52.3276 22.5882 52.3013 22.1679 52.276C21.4614 52.2335 20.8512 52.1968 20.1594 51.998C19.5656 51.8273 18.8793 51.2174 18.2156 50.6275C17.6097 50.0891 16.9831 49.5322 16.3232 49.2138C15.7551 48.9397 15.1871 48.9186 14.7126 48.9186C14.6685 48.9186 14.6253 48.9188 14.5829 48.919C14.0947 48.9199 13.7833 48.9139 13.5287 48.7485C12.5879 48.1372 11.6802 47.4542 10.8311 46.7184C10.5121 46.4419 10.1469 45.7724 9.82484 45.1814C9.49135 44.5698 9.17642 43.9921 8.80211 43.5781C8.23511 42.9509 7.6949 42.2873 7.19635 41.6054C6.75538 41.0023 6.33752 40.3724 5.95467 39.7327C5.59871 39.1383 4.99205 38.7219 4.40533 38.3193C3.9091 37.9788 3.39599 37.6267 3.25266 37.2943C2.89481 36.4642 2.5803 35.6049 2.31779 34.74C2.05306 33.8683 1.83548 32.9715 1.67084 32.0747C1.55219 31.4282 1.80183 30.5285 2.04304 29.6583C2.26822 28.8468 2.50109 28.0075 2.50109 27.2046C2.50109 26.4536 2.53558 25.6958 2.6035 24.952C2.68334 24.0795 2.81128 23.2029 2.98403 22.3466C3.21163 21.2183 3.52256 20.097 3.90815 19.0136C4.17267 18.2706 4.31041 17.4004 4.44372 16.5591C4.61711 15.4646 4.7963 14.3328 5.23706 13.6098C5.92355 12.4835 6.70803 11.4041 7.56887 10.4016C8.01299 9.88432 8.76108 9.57783 9.55315 9.2532C10.2739 8.95778 11.0191 8.65234 11.6483 8.14725C12.1821 7.71894 12.5511 7.11861 12.908 6.53822C13.2377 6.00191 13.5787 5.44736 13.9646 5.21859C15.0145 4.59643 16.1193 4.04937 17.2482 3.593C17.7614 3.38555 18.5373 3.42763 19.2875 3.46876C20.0202 3.50873 20.7781 3.55029 21.4776 3.39082C22.3016 3.20319 23.068 2.8447 23.8092 2.49792C24.7939 2.03734 25.7237 1.60228 26.6876 1.60228C28.2361 1.60228 29.7853 1.74804 31.2925 2.03576C31.7738 2.12752 32.4493 2.60645 33.0452 3.02906C33.6456 3.45473 34.2665 3.89496 34.8781 4.10558C36.1742 4.55171 37.4418 5.1127 38.646 5.77262C39.4141 6.19355 40.1891 6.23247 40.8729 6.26674C41.6067 6.30345 42.0766 6.34226 42.473 6.66151C43.3257 7.34811 44.1404 8.09947 44.8943 8.8946C45.1422 9.15595 45.4354 10.015 45.6495 10.6422C45.9135 11.4151 46.1626 12.1451 46.5133 12.6153C46.8715 13.0954 47.4506 13.4826 48.0106 13.8569C48.5003 14.1842 49.0554 14.5552 49.2291 14.8565C49.8575 15.9471 50.3392 17.5207 50.764 18.9091C50.891 19.324 51.011 19.7158 51.1326 20.0898C51.2543 20.464 51.1835 20.773 51.0853 21.2005C50.9806 21.6563 50.8505 22.2236 50.9745 22.9262C51.2223 24.3288 51.348 25.7682 51.348 27.2047C51.348 27.8043 51.6424 28.4298 51.9271 29.0349C52.1083 29.4201 52.3822 30.0021 52.3592 30.2264Z" fill="black"/>
<path d="M26.9244 5.23633C14.811 5.23633 4.95596 15.0914 4.95596 27.2048C4.95596 39.3181 14.811 49.1732 26.9244 49.1732C39.0378 49.1732 48.8928 39.3181 48.8928 27.2048C48.8929 15.0913 39.0378 5.23633 26.9244 5.23633ZM26.9244 47.571C15.6944 47.571 6.55824 38.4347 6.55824 27.2048C6.55824 15.9749 15.6945 6.8385 26.9244 6.8385C38.1543 6.8385 47.2905 15.9748 47.2905 27.2047C47.2905 38.4346 38.1544 47.571 26.9244 47.571Z" fill="black"/>
</svg>
