<svg id="Capa_1" enable-background="new 0 0 128 128" height="512" viewBox="0 0 128 128" width="512" xmlns="http://www.w3.org/2000/svg" xmlns:xlink="http://www.w3.org/1999/xlink"><linearGradient id="lg1"><stop offset="0" stop-color="#f3f7ff"/><stop offset="1" stop-color="#cdd9ff"/></linearGradient><linearGradient id="SVGID_1_" gradientTransform="matrix(1 0 0 -1 0 130)" gradientUnits="userSpaceOnUse" x1="64" x2="64" xlink:href="#lg1" y1="166.55" y2="-62.23"/><linearGradient id="SVGID_2_" gradientTransform="matrix(1 0 0 -1 0 130)" gradientUnits="userSpaceOnUse" x1="64" x2="64" xlink:href="#lg1" y1="204.3" y2="13.43"/><linearGradient id="lg2"><stop offset="0" stop-color="#ffe7a3"/><stop offset="1" stop-color="#ffc219"/></linearGradient><linearGradient id="SVGID_3_" gradientTransform="matrix(1 0 0 -1 0 130)" gradientUnits="userSpaceOnUse" x1="64" x2="64" xlink:href="#lg2" y1="153.31" y2="-5.58"/><linearGradient id="SVGID_4_" gradientTransform="matrix(1 0 0 -1 0 130)" gradientUnits="userSpaceOnUse" x1="64" x2="64" xlink:href="#lg2" y1="62" y2="-19.37"/><linearGradient id="SVGID_5_" gradientTransform="matrix(1 0 0 -1 0 130)" gradientUnits="userSpaceOnUse" x1="63.283" x2="64.093" xlink:href="#lg2" y1="79.25" y2="39.17"/><g><path d="m32 16v96l6.41-6 6.4 6 6.41-6 6.39 6 6.41-6 6.39 6 6.4-6 6.4 6 6.4-6 6.39 6v-96l-6.41 6-6.4-6-6.41 6-6.39-6-6.41 6-6.39-6-6.4 6-6.4-6-6.4 6z" fill="url(#SVGID_1_)"/><path d="m44.81 112 6.41-6 6.39 6 6.4-6 6.4 6 6.4-6 6.4 6 6.4-6 6.39 6v-67.82c-9.64 33.91-31.5 46.19-64 44v23.82l6.41-6z" fill="url(#SVGID_2_)"/><g fill="#b1c3ef"><path d="m74 38.22h-20c-1.105 0-2-.895-2-2s.895-2 2-2h20c1.105 0 2 .895 2 2s-.895 2-2 2z"/><path d="m70 48.22h-28c-1.105 0-2-.895-2-2s.895-2 2-2h28c1.105 0 2 .895 2 2s-.895 2-2 2z"/><path d="m70 58.22h-28c-1.105 0-2-.895-2-2s.895-2 2-2h28c1.105 0 2 .895 2 2s-.895 2-2 2z"/><path d="m70 68.22h-28c-1.105 0-2-.895-2-2s.895-2 2-2h28c1.105 0 2 .895 2 2s-.895 2-2 2z"/><path d="m86 48.22h-6c-1.105 0-2-.895-2-2s.895-2 2-2h6c1.105 0 2 .895 2 2s-.895 2-2 2z"/><path d="m86 58.22h-6c-1.105 0-2-.895-2-2s.895-2 2-2h6c1.105 0 2 .895 2 2s-.895 2-2 2z"/><path d="m86 68.22h-6c-1.105 0-2-.895-2-2s.895-2 2-2h6c1.105 0 2 .895 2 2s-.895 2-2 2z"/></g><circle cx="64" cy="86.22" fill="url(#SVGID_3_)" r="10"/><circle cx="64" cy="86.22" fill="url(#SVGID_4_)" r="7.39"/><path d="m64.5 85.78v-2.66c.514.202.851.698.85 1.25 0 .276.224.5.5.5s.5-.224.5-.5c-.002-1.105-.771-2.061-1.85-2.3v-.48c0-.276-.224-.5-.5-.5s-.5.224-.5.5v.48c-1.27.266-2.084 1.512-1.818 2.782.191.913.905 1.626 1.818 1.818v2.66c-.513-.208-.85-.706-.85-1.26-.005-.274-.226-.495-.5-.5-.276 0-.5.224-.5.5-.002 1.107.769 2.065 1.85 2.3v.48c0 .276.224.5.5.5s.5-.224.5-.5v-.48c1.267-.279 2.069-1.533 1.79-2.8-.197-.895-.896-1.593-1.79-1.79zm-1.85-1.41c-.001-.552.336-1.048.85-1.25v2.5c-.514-.202-.851-.698-.85-1.25zm1.85 5v-2.55c.693.275 1.032 1.059.758 1.752-.137.346-.411.62-.758.758z" fill="url(#SVGID_5_)"/><g><path d="m44 97.22h-4c-2.206 0-4-1.794-4-4v-8.85c0-.553.448-1 1-1s1 .447 1 1v8.85c0 1.103.897 2 2 2h4c.552 0 1 .447 1 1s-.448 1-1 1z" fill="#fff"/></g><g><path d="m37.03 80.72c-.552 0-1-.447-1-1v-2.42c0-.553.448-1 1-1s1 .447 1 1v2.42c0 .552-.448 1-1 1z" fill="#fff"/></g><g><path d="m90.85 37c-.553 0-1-.448-1-1v-4.4c0-1.103-.897-2-2-2h-4.85c-.553 0-1-.448-1-1s.447-1 1-1h4.85c2.206 0 4 1.794 4 4v4.4c0 .552-.448 1-1 1z" fill="#fff"/></g></g></svg>