<svg width="29" height="26" viewBox="0 0 29 26" fill="none" xmlns="http://www.w3.org/2000/svg">
<path d="M26.7064 5.53368C26.7526 5.93659 26.7046 6.3447 26.5663 6.726C26.428 7.1073 26.203 7.45143 25.9091 7.73139C25.4926 8.02838 25.088 7.95711 22.7435 7.4938C20.1968 6.98298 19.8398 6.92359 19.5066 6.53156C19.1823 6.15759 18.9457 5.71615 18.814 5.23939C18.6822 4.76262 18.6586 4.26253 18.7449 3.77551C15.1818 3.66285 11.6566 4.53436 8.55799 6.29397L8.86741 8.66988C8.36759 9.14506 7.55834 9.94099 6.59439 10.9507C5.03541 12.6139 4.69029 13.196 4.03576 13.1603C3.01231 13.0415 2.22686 11.4972 1.98885 10.4874C1.82339 9.83853 1.80308 9.1612 1.92935 8.50356C2.26257 7.93335 6.7491 0.461119 15.3294 0.00969639C19.2452 -0.12456 23.0806 1.13902 26.1471 3.57356L26.7064 5.53368Z" fill="#C251C0"/>
<path d="M20.1503 7.80267C20.1963 7.76703 20.2528 7.74768 20.311 7.74768C20.3692 7.74768 20.4257 7.76703 20.4716 7.80267C20.8759 8.29019 21.4199 8.64255 22.0306 8.81243C22.5615 8.94821 23.1182 8.94821 23.6491 8.81243C23.6811 8.80348 23.7147 8.80101 23.7477 8.80515C23.7807 8.8093 23.8125 8.81999 23.8413 8.83658C23.8702 8.85318 23.8954 8.87536 23.9155 8.90181C23.9356 8.92826 23.9502 8.95845 23.9585 8.99062C23.9675 9.02261 23.97 9.05606 23.9658 9.08901C23.9617 9.12196 23.951 9.15376 23.9343 9.18253C23.9177 9.2113 23.8955 9.23646 23.869 9.25655C23.8425 9.27663 23.8122 9.29123 23.78 9.29949C23.1596 9.46048 22.5082 9.46048 21.8878 9.29949C21.1821 9.08719 20.5536 8.67442 20.0789 8.11154C20.0552 8.08831 20.0363 8.06059 20.0234 8.02999C20.0105 7.99939 20.0039 7.96654 20.0039 7.93335C20.0039 7.90016 20.0105 7.8673 20.0234 7.8367C20.0363 7.80611 20.0552 7.77838 20.0789 7.75515L20.1503 7.80267Z" fill="#C251C0"/>
<path d="M5.11813 3.35973C5.14821 3.45742 5.14593 3.5622 5.11163 3.6585C5.07732 3.7548 5.01283 3.83749 4.92772 3.89431C3.27412 4.88746 2.01342 6.41859 1.35754 8.23034C0.947315 9.412 0.812989 10.6716 0.964816 11.913C0.965831 12.0241 0.925755 12.1317 0.85226 12.2152C0.778765 12.2986 0.677016 12.3521 0.566492 12.3653C0.455968 12.3786 0.344435 12.3506 0.253246 12.2869C0.162057 12.2232 0.0976192 12.1281 0.0722696 12.0199C-0.10064 10.6564 0.0376859 9.27155 0.476891 7.96899C1.22917 5.98054 2.63456 4.30543 4.4636 3.21717C4.51281 3.18668 4.56756 3.16617 4.62471 3.15683C4.68187 3.1475 4.74031 3.1495 4.79669 3.16275C4.85307 3.17599 4.90628 3.2002 4.95327 3.234C5.00026 3.26781 5.04011 3.31053 5.07053 3.35973C5.08637 3.35846 5.10229 3.35846 5.11813 3.35973Z" fill="#C251C0"/>
<path d="M28.4482 20.8108C27.8921 18.8147 26.9942 16.9298 25.7943 15.2393C24.3995 13.2767 22.6176 11.6192 20.5581 10.3687L10.2164 10.4874C8.84765 11.4592 7.58695 12.5743 6.45582 13.8137C4.75404 15.6907 2.77853 17.9122 2.58812 20.9414C2.44315 22.0337 2.68293 23.1424 3.26646 24.0776C3.73909 24.7382 4.39169 25.2494 5.14676 25.5507L26.7583 25.3844C27.5491 24.9545 28.1564 24.2525 28.4673 23.4089C28.7782 22.5654 28.7714 21.6378 28.4482 20.7989V20.8108ZM11.2399 16.059C11.0857 16.075 10.9299 16.0585 10.7825 16.0106C10.6351 15.9626 10.4994 15.8843 10.3843 15.7808C10.2692 15.6772 10.1771 15.5506 10.1141 15.4092C10.0511 15.2678 10.0185 15.1148 10.0185 14.9601C10.0185 14.8054 10.0511 14.6524 10.1141 14.511C10.1771 14.3696 10.2692 14.243 10.3843 14.1394C10.4994 14.0358 10.6351 13.9575 10.7825 13.9096C10.9299 13.8617 11.0857 13.8452 11.2399 13.8612C11.5121 13.8895 11.7641 14.0175 11.9474 14.2204C12.1306 14.4234 12.232 14.6869 12.232 14.9601C12.232 15.2333 12.1306 15.4968 11.9474 15.6997C11.7641 15.9027 11.5121 16.0307 11.2399 16.059ZM19.844 19.7535C19.6241 19.7558 19.4085 19.6927 19.2247 19.5723C19.0409 19.4518 18.8972 19.2793 18.812 19.077C18.7267 18.8746 18.7038 18.6515 18.7461 18.4361C18.7884 18.2207 18.8941 18.0228 19.0496 17.8675C19.2051 17.7123 19.4034 17.6069 19.6192 17.5646C19.835 17.5224 20.0585 17.5452 20.2612 17.6303C20.4639 17.7154 20.6366 17.8589 20.7573 18.0423C20.878 18.2258 20.9412 18.4411 20.9389 18.6606C20.9358 18.9495 20.8194 19.2257 20.6148 19.43C20.4101 19.6343 20.1334 19.7504 19.844 19.7535Z" fill="#C251C0"/>
<path d="M15.3917 16.0827C15.9964 16.0827 16.4866 15.5934 16.4866 14.9898C16.4866 14.3862 15.9964 13.8969 15.3917 13.8969C14.7871 13.8969 14.2969 14.3862 14.2969 14.9898C14.2969 15.5934 14.7871 16.0827 15.3917 16.0827Z" fill="#EAF6F6"/>
<path d="M19.8058 16.0827C20.4105 16.0827 20.9007 15.5934 20.9007 14.9898C20.9007 14.3862 20.4105 13.8969 19.8058 13.8969C19.2011 13.8969 18.7109 14.3862 18.7109 14.9898C18.7109 15.5934 19.2011 16.0827 19.8058 16.0827Z" fill="#EAF6F6"/>
<path d="M11.2394 23.6381C11.8441 23.6381 12.3342 23.1488 12.3342 22.5452C12.3342 21.9416 11.8441 21.4523 11.2394 21.4523C10.6347 21.4523 10.1445 21.9416 10.1445 22.5452C10.1445 23.1488 10.6347 23.6381 11.2394 23.6381Z" fill="#EAF6F6"/>
<path d="M15.3917 23.6381C15.9964 23.6381 16.4866 23.1488 16.4866 22.5452C16.4866 21.9416 15.9964 21.4523 15.3917 21.4523C14.7871 21.4523 14.2969 21.9416 14.2969 22.5452C14.2969 23.1488 14.7871 23.6381 15.3917 23.6381Z" fill="#EAF6F6"/>
<path d="M19.8058 23.6381C20.4105 23.6381 20.9007 23.1488 20.9007 22.5452C20.9007 21.9416 20.4105 21.4523 19.8058 21.4523C19.2011 21.4523 18.7109 21.9416 18.7109 22.5452C18.7109 23.1488 19.2011 23.6381 19.8058 23.6381Z" fill="#EAF6F6"/>
<path d="M11.2394 19.7416C11.8441 19.7416 12.3342 19.2523 12.3342 18.6487C12.3342 18.0451 11.8441 17.5558 11.2394 17.5558C10.6347 17.5558 10.1445 18.0451 10.1445 18.6487C10.1445 19.2523 10.6347 19.7416 11.2394 19.7416Z" fill="#EAF6F6"/>
<path d="M15.3917 19.7416C15.9964 19.7416 16.4866 19.2523 16.4866 18.6487C16.4866 18.0451 15.9964 17.5558 15.3917 17.5558C14.7871 17.5558 14.2969 18.0451 14.2969 18.6487C14.2969 19.2523 14.7871 19.7416 15.3917 19.7416Z" fill="#EAF6F6"/>
</svg>
