<?xml version="1.0" encoding="utf-8"?>
<!-- Generator: Adobe Illustrator 22.0.1, SVG Export Plug-In . SVG Version: 6.00 Build 0)  -->
<svg version="1.1" id="Слой_1" xmlns="http://www.w3.org/2000/svg" xmlns:xlink="http://www.w3.org/1999/xlink" x="0px" y="0px"
	 viewBox="0 0 512 512" style="enable-background:new 0 0 512 512;" xml:space="preserve">
<style type="text/css">
	.st0{fill:#FFAB00;}
</style>
<path class="st0" d="M486.4,102.4H375.5V68.3c0-23.6-19.1-42.6-42.7-42.7H179.2c-23.6,0-42.6,19.1-42.7,42.7v34.1H25.6
	C11.5,102.4,0,113.9,0,128v190c0.1,10.8,6.9,20.5,17.1,24.1v118.8c0,14.1,11.5,25.6,25.6,25.6h426.7c14.1,0,25.6-11.5,25.6-25.6V342
	c10.2-3.6,17-13.3,17.1-24.1V128C512,113.9,500.5,102.4,486.4,102.4z M153.6,68.3c0-14.1,11.5-25.6,25.6-25.6h153.6
	c14.1,0,25.6,11.5,25.6,25.6v34.1h-17.1V68.3c0-4.7-3.8-8.5-8.5-8.5H179.2c-4.7,0-8.5,3.8-8.5,8.5v34.1h-17.1V68.3z M324.3,102.4
	H187.7V76.8h136.5V102.4z M477.9,460.8c0,4.7-3.8,8.5-8.5,8.5H42.7c-4.7,0-8.5-3.8-8.5-8.5V345l187.7,25.9v21.7
	c0,14.1,11.5,25.6,25.6,25.6h17.1c14.1,0,25.6-11.5,25.6-25.6v-21.7L477.9,345V460.8z M273.1,392.5c0,4.7-3.8,8.5-8.5,8.5h-17.1
	c-4.7,0-8.5-3.8-8.5-8.5v-51.2c0-4.7,3.8-8.5,8.5-8.5h17.1c4.7,0,8.5,3.8,8.5,8.5V392.5z M494.9,318c0,4.3-3.1,7.9-7.3,8.5l-2.4,0.3
	l-195.1,26.9v-12.3c0-14.1-11.5-25.6-25.6-25.6h-17.1c-14.1,0-25.6,11.5-25.6,25.6v12.3L24.4,326.4c-4.2-0.6-7.4-4.2-7.3-8.5V128
	c0-4.7,3.8-8.5,8.5-8.5h460.8c4.7,0,8.5,3.8,8.5,8.5V318z"/>
</svg>
