<?xml version="1.0" encoding="utf-8"?>
<!-- Generator: Adobe Illustrator 22.0.1, SVG Export Plug-In . SVG Version: 6.00 Build 0)  -->
<svg version="1.1" id="Capa_1" xmlns="http://www.w3.org/2000/svg" xmlns:xlink="http://www.w3.org/1999/xlink" x="0px" y="0px"
	 viewBox="0 0 512 512" style="enable-background:new 0 0 512 512;" xml:space="preserve">
<style type="text/css">
	.st0{fill:#282E3D;}
</style>
<g>
	<g>
		<path class="st0" d="M27,48.4c-39.6,59.5-37.3,174.1,35.7,255.4c67.7,75.4,168.8,159.2,169.7,159.9c2.2,2,54,48.2,130.3,48.2
			c7.4,0,14.9-0.5,22.3-1.3c82.9-10,113.2-63.1,124-93.9c6.1-17.5-5.6-36.3-20.4-42.9l-97.3-43.2c-4.7-2.1-10.3-3.2-16.1-3.2
			c-12,0-24.1,4.5-31.5,11.6L313,368.8c-4.6,4.4-12.7,7.4-20.1,7.4c-3.2,0-6-0.6-8.2-1.6c-20.7-10.4-53.2-31.1-90.7-70.8
			c-33.3-35.3-49-59.5-56.4-73.5c-4.1-7.9,0.2-21.5,6.6-28l27.3-27.3c11.3-11.3,16.4-32.2,11.6-47.5l-30.7-97.4
			C147.9,15.3,132.1,0,113.8,0C88.3,0.8,52.6,9.9,27,48.4z M114.7,17.3c8.8,0,18.6,9.7,21.2,18l30.7,97.4c2.9,9.2-0.5,23.2-7.4,30
			L132,189.9c-11.1,11.2-17.7,33.2-9.8,48.4c7.9,15,24.6,40.7,59.2,77.4c39.2,41.6,73.6,63.4,95.5,74.4c4.5,2.3,10,3.4,16,3.4
			c12.1,0,24.4-4.7,32.2-12.2l30.6-29.7c6.1-5.9,20.6-8.5,28.5-5.1l97.2,43.2c7.4,3.3,13.9,13.3,11.1,21.3
			c-9.4,27-36.1,73.5-109.6,82.4c-6.7,0.8-13.5,1.2-20.2,1.2c-68.9,0-116.8-42.1-118.9-44c-1-0.8-101-83.6-168.1-158.4
			C10.4,219.5,5.3,112.4,41.5,58.1C63,25.7,93.2,18.1,114.7,17.3z"/>
		<path class="st0" d="M386.4,198.7c8.1-7.7,8.5-20.5,0.9-28.6l-27.7-29.4c-7.1-7.5-21.1-8-28.6-0.9l-64.6,60.8c-1.1,1-3,0.9-4-0.1
			l-7.9-8.5c-4.3-4.6-8.6-5.6-11.5-5.6c-5.1,0-11.7,3.4-13.3,12.9l-15,85.8c-1,5.4,0.3,10.6,3.6,14.5c3.2,3.8,7.9,5.9,13.2,5.9
			c0.7,0,1.5,0,2.2-0.1l86.3-9.6c6.4-0.7,11.1-4,13-9c1.9-5,0.4-10.6-4.1-15.3l-7.3-7.7c-0.5-0.5-0.8-1.3-0.8-2.1
			c0-0.8,0.3-1.5,0.9-2L386.4,198.7z M303.5,261c-0.2,5.4,1.8,10.6,5.5,14.5c0,0,0.7,0.8,1.6,1.7c0.9,1-3.5,2.3-9.9,3l-57.5,6.4
			c-6.4,0.7-10.6-3.8-9.5-10.1l10-57.1c1.1-6.3,2.9-10.5,3.9-9.3l1.9,2.1c7,7.6,21,8.1,28.6,1l64.6-60.8c1-1,3.1-0.9,4.1,0.1
			l27.7,29.4c1.1,1.2,1,3-0.1,4.1l-64.6,60.8C305.9,250.6,303.6,255.6,303.5,261z"/>
	</g>
</g>
</svg>
