<?xml version="1.0" encoding="utf-8"?>
<!-- Generator: Adobe Illustrator 22.0.1, SVG Export Plug-In . SVG Version: 6.00 Build 0)  -->
<svg version="1.1" id="Слой_1" xmlns="http://www.w3.org/2000/svg" xmlns:xlink="http://www.w3.org/1999/xlink" x="0px" y="0px"
	 viewBox="0 0 512 512" style="enable-background:new 0 0 512 512;" xml:space="preserve">
<style type="text/css">
	.st0{fill:#282E3D;}
</style>
<path class="st0" d="M505.3,391.7L120.3,6.7c-8.9-8.9-23.3-8.9-32.3,0L6.7,88c-8.9,8.9-8.9,23.3,0,32.2l385.1,385.1
	c8.9,8.9,23.3,8.9,32.2,0l81.3-81.3C514.2,415.1,514.2,400.7,505.3,391.7z M495.9,414.6l-81.3,81.3c-3.7,3.7-9.7,3.7-13.4,0
	l-34.8-34.7l47.4-47.4c2.6-2.6,2.6-6.8,0-9.4c-2.6-2.6-6.8-2.6-9.4,0l-47.4,47.4l-24.7-24.6l21.3-21.3c2.6-2.6,2.6-6.8,0-9.4
	c-2.6-2.6-6.8-2.6-9.4,0l-21.3,21.3l-24.4-24.6l21.2-21.3c2.7-2.6,2.7-6.9,0.1-9.5c-2.6-2.7-6.9-2.7-9.5-0.1L289,383.5l-24.7-24.7
	l47.4-47.4c2.6-2.6,2.6-6.8,0-9.4c-2.6-2.6-6.8-2.6-9.4,0l-47.4,47.7l-24.7-24.7l21.2-21.3c2.6-2.6,2.6-6.8,0-9.4
	c-2.6-2.6-6.8-2.6-9.4,0l-21.2,21.2l-24.6-24.6l21.3-21.3c2.6-2.6,2.6-6.8,0-9.4c-2.6-2.6-6.8-2.6-9.4-0.1l-21.2,21.2l-24.7-24.5
	l47.4-47.4c2.6-2.6,2.6-6.8,0-9.4c-2.6-2.6-6.8-2.6-9.4,0l-47.4,47.4l-24.4-24.6l21.3-21.2c2.6-2.6,2.7-6.9,0-9.5
	c-2.6-2.6-6.9-2.7-9.5,0L119,213.5l-24.6-24.7l21.2-21.2c2.6-2.6,2.6-6.8,0-9.4c-2.6-2.6-6.8-2.6-9.4,0l-21.3,21.2l-24.7-24.4
	l47.4-47.4c2.6-2.6,2.6-6.8,0-9.4c-2.6-2.6-6.8-2.6-9.4,0l-47.4,47.4l-34.7-34.7c-3.7-3.7-3.7-9.7,0-13.4l81.3-81.3
	c1.8-1.8,4.2-2.8,6.7-2.8s5,1,6.7,2.8L496,401.2C499.7,404.9,499.7,410.9,495.9,414.6L495.9,414.6z"/>
<path class="st0" d="M59.8,59.8c-7.2,7.2-7.1,18.8,0,26c7.2,7.2,18.8,7.2,26,0c7.2-7.2,7.2-18.8,0-26C78.6,52.9,67.1,52.9,59.8,59.8
	z M76.5,76.5c-1.5,1.6-3.8,2.1-5.8,1.3c-2-0.8-3.4-2.8-3.4-5c0-2.2,1.3-4.1,3.4-4.9c2-0.8,4.3-0.3,5.8,1.3
	C78.4,71.3,78.4,74.4,76.5,76.5z"/>
</svg>
