<?xml version="1.0" encoding="utf-8"?>
<!-- Generator: Adobe Illustrator 22.0.1, SVG Export Plug-In . SVG Version: 6.00 Build 0)  -->
<svg version="1.1" id="Capa_1" xmlns="http://www.w3.org/2000/svg" xmlns:xlink="http://www.w3.org/1999/xlink" x="0px" y="0px"
	 viewBox="0 0 512 512" style="enable-background:new 0 0 512 512;" xml:space="preserve">
<style type="text/css">
	.st0{fill:#282E3D;}
</style>
<g>
	<g>
		<path d="M351.1,288.7L281.6,246c-0.8-0.5-1.8-0.9-2.8-1l-21.8-3.8c-4-0.7-8,2.1-8.7,6.1s2.1,8,6.1,8.7l20.5,3.6l68.3,42
			c3.3,2,7.9,1.1,10.1-2.2C355.8,295.8,354.7,290.9,351.1,288.7z"/>
	</g>
</g>
<g>
	<g>
		<path class="st0" d="M509.5,291.1c-2.8-3-7.6-3.2-10.6-0.4l-30.4,28.4L329.2,181.7L509.2,13c3-2.8,3.2-7.6,0.3-10.6
			c-2.8-3-7.6-3.2-10.6-0.3l-185.7,174c-3.1,2.9-3.1,7.9-0.1,10.8l12.3,12.2l-3.9,3.5l-82.4-7.1c-1.3-0.1-2.6,0.1-3.8,0.6
			l-65.3,29.7c-0.2,0-0.4-0.1-0.6-0.1l-37.5-6.6l3-7.8c1.5-3.8-0.4-8.2-4.2-9.7l-120-48c-3.8-1.5-8.2,0.3-9.8,4.2
			c-1.5,3.8,0.3,8.2,4.2,9.8l113.1,45.2L51.6,383.1l-41.2-14.6c-3.9-1.4-8.2,0.7-9.6,4.6c-1.4,3.9,0.7,8.2,4.6,9.6l48,17
			c3.8,1.3,8-0.6,9.5-4.3l11.1-28.5l29.2,16.4l-3.2,5.2c-9.1,14.8-4.5,34.2,10.3,43.4c7.8,4.8,17.5,6,26.3,3.1
			c1.4,9.1,6.8,17.2,14.6,22.1c7.8,4.8,17.5,6,26.3,3.1c1.4,9.1,6.8,17.2,14.6,22.1c7.8,4.8,17.5,6,26.3,3.1
			c1.4,9.1,6.8,17.2,14.6,22.1c11.4,7,26.5,6,36.8-2.6c2.6-2.2,4.8-4.8,6.6-7.6l5.1-8.3l4.2,2.6c11.4,7,26.5,5.9,36.8-2.7
			c2.6-2.2,4.8-4.8,6.6-7.6c3.5-5.7,5-12.1,4.6-18.4c2.4,0.6,4.8,0.9,7.3,0.9c10.9,0,21.2-5.7,26.9-15c3.4-5.6,5-12,4.6-18.4
			c2.4,0.6,4.8,0.9,7.3,0.9c10.9,0,21.2-5.7,26.9-15c3.4-5.6,5-12,4.6-18.4c2.4,0.6,4.8,0.9,7.3,0.9c10.6,0,21-5.3,26.9-15
			c9.1-14.8,4.5-34.2-10.3-43.3l-5.1-3.2l17.2-18l16.1,15.9c2.8,2.8,7.5,2.9,10.4,0.1l35.7-33.3
			C512.2,298.9,512.3,294.1,509.5,291.1z M140.9,413.6c-4.8,7.7-15,10.2-22.7,5.4c-7.7-4.8-10.2-15-5.4-22.7l42-68.1
			c4.7-7.6,14.8-10.1,22.4-5.5c7.9,4.7,10.1,15.6,5.4,23.3L140.9,413.6z M181.8,438.8c-4.8,7.7-15,10.2-22.7,5.4
			c-7.6-4.7-10.1-15-5.4-22.7l33.6-54.5c4.7-7.6,14.8-10.1,22.4-5.5c7.9,4.7,10.1,15.6,5.4,23.3L181.8,438.8z M222.6,464
			c-2.3,3.8-6,6.4-10.2,7.4c-4.3,1-8.7,0.3-12.5-2c-7.6-4.7-10.1-15-5.4-22.7l25.2-40.9c4.7-7.6,14.8-10.1,22.4-5.5
			c7.9,4.7,10.1,15.6,5.4,23.3L222.6,464z M280,462.4l-16.5,26.8c-4.7,7.6-15,10.1-22.7,5.4c-7.6-4.7-10.1-15-5.4-22.7l16.8-27.2
			c4.7-7.6,14.8-10.1,22.4-5.5C282.6,443.8,284.8,454.7,280,462.4z M416.7,328.9l-37.2-22.8c-3.4-2.1-8.2-1-10.3,2.5
			c-2.1,3.4-1,8.2,2.5,10.3l55.4,34c7.8,4.8,10.2,14.9,5.4,22.7c-4.8,7.8-14.9,10.2-22.7,5.4l-59.4-36.5c-3.5-2.2-8.1-1.1-10.3,2.5
			s-1.1,8.1,2.5,10.3l45.8,28.1c7.7,4.7,10.1,15,5.4,22.7c-4.7,7.7-15,10.1-22.7,5.4l-41.5-25.5c-3.5-2.2-8.1-1.1-10.3,2.5
			s-1.1,8.1,2.5,10.3l27.9,17.1c7.7,4.7,10.1,15,5.4,22.7c-4.7,7.7-15,10.1-22.7,5.4c0,0-24.5-15-24.7-15.1
			c-3.4-1.7-7.6-0.5-9.6,2.8c-2.2,3.5-1.1,8.1,2.5,10.3l10.4,6.4c7.8,4.8,10.2,14.9,5.4,22.7c-4.7,7.7-15,10.1-22.7,5.4l-4.2-2.6
			l3.5-5.7c4.5-7.3,5.9-16.3,3.8-24.7c-2-8.3-7.1-15.2-14.3-19.4c-5.6-3.3-11.9-4.7-18-4.3c1.1-4.9,1.2-10.1-0.1-15.1
			c-2-8.3-7.1-15.2-14.3-19.4c-5.6-3.3-11.9-4.7-18-4.3c3.1-13.3-2.6-27.6-14.4-34.6c-5.6-3.3-11.9-4.7-18-4.3
			c3.1-13.3-2.6-27.6-14.4-34.6c-14.7-8.7-33.9-3.9-42.8,10.6l-30.9,50.1l-31.6-17.7l46.7-119.4l25.4,4.5c-7.2,9-9.3,21.6-4.2,32.8
			c5.3,11.6,16.7,18.4,28.7,18.4c4.4,0,8.8-0.9,13-2.8l43.9-20c3.7-1.7,5.4-6.2,3.7-9.9c-1.7-3.7-6.2-5.4-9.9-3.7l-43.9,20
			c-8.3,3.8-18.1,0.1-21.9-8.2c-3.8-8.3-0.1-18.1,8.2-21.9l70.3-32l83.6,7.2c0.2,0,0.4,0,0.6,0c1.8,0,3.6-0.7,5-1.9l7.1-6.3
			l100.2,98.8L416.7,328.9z"/>
	</g>
</g>
</svg>
