<svg width="444" height="115" viewBox="0 0 444 115" fill="none" xmlns="http://www.w3.org/2000/svg">
<path d="M417.32 2.54223L301.336 13.5045C292.937 14.2984 286.8 22.0599 287.63 30.8439L294.067 98.9538C294.897 107.736 302.38 114.212 310.779 113.418L426.764 102.456C435.863 101.596 442.512 93.1839 441.613 83.6685L435.426 18.2128C434.527 8.69734 426.419 1.68224 417.32 2.54223Z" fill="#00B6C6"/>
<path d="M417.904 1.53088L303.9 12.306C295.644 13.0863 289.611 20.7075 290.426 29.3318L296.746 96.2035C297.561 104.826 304.916 111.184 313.171 110.403L427.176 99.6282C436.119 98.7829 442.656 90.5231 441.773 81.1805L435.699 16.9149C434.816 7.57238 426.848 0.685579 417.904 1.53088Z" fill="#FF5B55"/>
<path d="M291.036 35.7963L436.186 22.0774L438.125 42.5935L292.975 56.3124L291.036 35.7963Z" fill="#FFC100"/>
<rect y="44.0898" width="174.532" height="36.901" rx="9.97323" fill="#FF5B56"/>
<g clip-path="url(#clip0)">
<path d="M19.8749 54.5738L17.225 51.9239C16.5251 51.2116 15.2752 51.2116 14.5629 51.9239L14.1378 52.3615C14.1227 52.3766 13.6755 52.8169 13.6755 52.8364C13.4504 53.0739 13.4628 53.4614 13.7004 53.6864L18.1125 58.0985C18.3376 58.3487 18.7624 58.3485 18.9876 58.0985L19.8749 57.2111C20.5879 56.5227 20.6313 55.304 19.8749 54.5738Z" fill="#FFC100"/>
<path d="M32.4132 67.1375L29.7634 64.4878C29.0635 63.7754 27.8261 63.7754 27.1261 64.4878L26.6887 64.9378L26.2387 65.3752C25.9888 65.6127 25.9888 66.0126 26.2387 66.2501L30.6634 70.6747C30.8794 70.9152 31.2908 70.9345 31.5508 70.6747L31.9757 70.2373L32.4131 69.7873C33.1507 69.0625 33.1507 67.8625 32.4132 67.1375Z" fill="#FFC100"/>
<path d="M31.9763 70.2374L31.5513 70.6748C28.1392 73.7496 24.1519 73.0121 21.9022 70.7498L13.6133 62.4357C10.9759 59.8109 10.9759 55.5238 13.6133 52.8865C13.6258 52.8865 13.7258 52.7865 13.7258 52.7741L14.1382 52.3616L19.4252 57.6486L19.1753 57.9111L18.9879 58.0986C18.5879 58.5361 18.2629 58.811 18.2629 59.4235C18.2629 59.8109 18.4129 60.1609 18.6754 60.4359L20.7627 62.5232L23.9018 65.6877C24.4393 66.2252 25.3768 66.2252 25.9143 65.6877L26.2392 65.3753L26.6892 64.9378L31.9763 70.2374Z" fill="#FFC100"/>
<path d="M26.6891 64.9377L31.9761 70.2373L31.5512 70.6747C28.139 73.7495 24.1518 73.012 21.902 70.7497L17.2378 66.0603C17.2378 66.0479 17.2378 66.0479 17.2378 66.0479L20.7626 62.5232L23.9017 65.6877C24.4392 66.2251 25.3767 66.2251 25.9142 65.6877L26.2391 65.3752L26.6891 64.9377Z" fill="#FFC100"/>
</g>
<path d="M43.6693 65.0169V67.8843H41.8816V65.0169H38.9932V63.2082H41.8816V60.3478H43.6693V63.2082H46.5647V65.0169H43.6693ZM49.2148 68.2068L53.5263 59.9552V59.8291H48.4226V58.0834H55.6576V59.8501L51.4301 68.2068H49.2148ZM64.8625 68.4662C63.9044 68.4662 63.0842 68.2068 62.4018 67.688C61.7194 67.1645 61.3058 66.4822 61.1609 65.6409H63.2571C63.3553 65.9727 63.5492 66.2368 63.839 66.4331C64.1334 66.6294 64.4793 66.7275 64.8766 66.7275C65.5683 66.7275 66.1104 66.4167 66.503 65.7951C66.9003 65.1735 67.0873 64.3369 67.0639 63.2853H67.0008H66.9517H66.9377C66.7087 63.762 66.3675 64.1313 65.9141 64.393C65.4655 64.65 64.9467 64.7786 64.3578 64.7786C63.395 64.7786 62.5981 64.4631 61.9671 63.8321C61.3409 63.1965 61.0277 62.395 61.0277 61.4275C61.0277 60.3759 61.3899 59.5136 62.1144 58.8406C62.8388 58.1675 63.7665 57.831 64.8976 57.831C65.6267 57.831 66.2764 57.9876 66.8466 58.3007C67.4214 58.6092 67.8841 59.0602 68.2347 59.6538C68.8002 60.5325 69.083 61.6705 69.083 63.068C69.083 64.7505 68.7091 66.0709 67.9613 67.029C67.2134 67.9871 66.1805 68.4662 64.8625 68.4662ZM63.6006 62.6403C63.9465 62.9768 64.3835 63.1451 64.9116 63.1451C65.4398 63.1451 65.8768 62.9792 66.2226 62.6473C66.5731 62.3108 66.7484 61.8878 66.7484 61.3784C66.7484 60.8643 66.5731 60.4343 66.2226 60.0884C65.8721 59.7379 65.4374 59.5626 64.9186 59.5626C64.3998 59.5626 63.9628 59.7356 63.6076 60.0814C63.2571 60.4273 63.0818 60.8526 63.0818 61.3574C63.0818 61.8762 63.2548 62.3038 63.6006 62.6403ZM77.9024 67.6459C77.1452 68.1928 76.159 68.4662 74.9439 68.4662C73.7287 68.4662 72.7449 68.1928 71.9924 67.6459C71.2399 67.0991 70.8637 66.3864 70.8637 65.5077C70.8637 64.8721 71.0646 64.3205 71.4666 63.8532C71.8732 63.3811 72.4154 63.0703 73.0931 62.9208V62.7946C72.5415 62.6684 72.0999 62.4043 71.768 62.0024C71.4362 61.6004 71.2703 61.1307 71.2703 60.5932C71.2703 59.7847 71.6138 59.1233 72.3008 58.6092C72.9926 58.0904 73.8759 57.831 74.9509 57.831C76.0212 57.831 76.8998 58.0904 77.5869 58.6092C78.2786 59.1233 78.6245 59.7847 78.6245 60.5932C78.6245 61.1307 78.4585 61.6004 78.1267 62.0024C77.7995 62.3996 77.3579 62.6637 76.8017 62.7946V62.9208C77.4747 63.0469 78.0145 63.3461 78.4212 63.8181C78.8324 64.2855 79.0381 64.8417 79.0381 65.4867C79.0381 66.3747 78.6595 67.0944 77.9024 67.6459ZM73.5838 66.4331C73.9343 66.7229 74.3877 66.8678 74.9439 66.8678C75.5 66.8678 75.9534 66.7229 76.3039 66.4331C76.6545 66.1433 76.8297 65.7694 76.8297 65.3114C76.8297 64.8487 76.6545 64.4724 76.3039 64.1827C75.9534 63.8929 75.5 63.748 74.9439 63.748C74.3877 63.748 73.9343 63.8929 73.5838 64.1827C73.2379 64.4724 73.065 64.8487 73.065 65.3114C73.065 65.7694 73.2379 66.1433 73.5838 66.4331ZM73.8011 61.799C74.0956 62.0561 74.4765 62.1846 74.9439 62.1846C75.4112 62.1846 75.7922 62.0561 76.0866 61.799C76.3857 61.5373 76.5353 61.2031 76.5353 60.7965C76.5353 60.3852 76.3857 60.0511 76.0866 59.794C75.7922 59.5323 75.4112 59.4014 74.9439 59.4014C74.4765 59.4014 74.0956 59.5323 73.8011 59.794C73.5067 60.0511 73.3595 60.3852 73.3595 60.7965C73.3595 61.2031 73.5067 61.5373 73.8011 61.799ZM84.6186 68.4662C83.6605 68.4662 82.8402 68.2068 82.1578 67.688C81.4755 67.1645 81.0618 66.4822 80.9169 65.6409H83.0131C83.1113 65.9727 83.3052 66.2368 83.595 66.4331C83.8895 66.6294 84.2353 66.7275 84.6326 66.7275C85.3243 66.7275 85.8665 66.4167 86.2591 65.7951C86.6563 65.1735 86.8433 64.3369 86.8199 63.2853H86.7568H86.7077H86.6937C86.4647 63.762 86.1235 64.1313 85.6702 64.393C85.2215 64.65 84.7027 64.7786 84.1138 64.7786C83.151 64.7786 82.3541 64.4631 81.7232 63.8321C81.0969 63.1965 80.7837 62.395 80.7837 61.4275C80.7837 60.3759 81.146 59.5136 81.8704 58.8406C82.5948 58.1675 83.5226 57.831 84.6536 57.831C85.3827 57.831 86.0324 57.9876 86.6026 58.3007C87.1775 58.6092 87.6402 59.0602 87.9907 59.6538C88.5562 60.5325 88.839 61.6705 88.839 63.068C88.839 64.7505 88.4651 66.0709 87.7173 67.029C86.9695 67.9871 85.9366 68.4662 84.6186 68.4662ZM83.3567 62.6403C83.7025 62.9768 84.1395 63.1451 84.6676 63.1451C85.1958 63.1451 85.6328 62.9792 85.9786 62.6473C86.3292 62.3108 86.5044 61.8878 86.5044 61.3784C86.5044 60.8643 86.3292 60.4343 85.9786 60.0884C85.6281 59.7379 85.1934 59.5626 84.6747 59.5626C84.1559 59.5626 83.7189 59.7356 83.3637 60.0814C83.0131 60.4273 82.8379 60.8526 82.8379 61.3574C82.8379 61.8762 83.0108 62.3038 83.3567 62.6403ZM94.3283 61.119C94.3283 60.1422 94.6695 59.35 95.3519 58.7424C96.0343 58.1348 96.9223 57.831 98.0159 57.831C99.0722 57.831 99.9322 58.1068 100.596 58.6583C101.264 59.2051 101.598 59.9132 101.598 60.7825C101.598 61.334 101.425 61.8832 101.08 62.43C100.734 62.9722 100.124 63.6545 99.2498 64.4771L97.3149 66.3209V66.4471H101.746V68.2068H94.4475V66.7275L97.7495 63.4956C98.4599 62.8039 98.9343 62.2851 99.1727 61.9393C99.4111 61.5934 99.5302 61.2546 99.5302 60.9227C99.5302 60.5161 99.3807 60.1843 99.0816 59.9272C98.7871 59.6655 98.4085 59.5346 97.9458 59.5346C97.4551 59.5346 97.0555 59.6818 96.747 59.9763C96.4432 60.2661 96.2913 60.6446 96.2913 61.112V61.1541H94.3283V61.119ZM107.508 68.4662C106.419 68.4662 105.527 68.1741 104.83 67.5898C104.139 67.001 103.776 66.2485 103.744 65.3324H105.7C105.76 65.7531 105.959 66.0919 106.296 66.349C106.632 66.606 107.041 66.7345 107.522 66.7345C108.069 66.7345 108.511 66.5663 108.847 66.2298C109.189 65.8933 109.359 65.4516 109.359 64.9048C109.359 64.3486 109.189 63.8999 108.847 63.5587C108.506 63.2175 108.067 63.0469 107.529 63.0469C106.749 63.0469 106.172 63.3507 105.798 63.9583H103.905L104.41 58.0904H110.768V59.8501H106.05L105.826 62.451H105.952C106.41 61.792 107.125 61.4625 108.097 61.4625C109.055 61.4625 109.841 61.7804 110.453 62.416C111.07 63.0516 111.378 63.8649 111.378 64.8557C111.378 65.9307 111.023 66.8023 110.313 67.4707C109.602 68.1343 108.667 68.4662 107.508 68.4662ZM115.69 63.8181V62.2407H116.924C117.405 62.2407 117.793 62.1122 118.087 61.8551C118.387 61.5981 118.536 61.2639 118.536 60.8526C118.536 60.446 118.389 60.1235 118.094 59.8851C117.805 59.6421 117.412 59.5206 116.917 59.5206C116.426 59.5206 116.029 59.6491 115.725 59.9062C115.421 60.1632 115.255 60.5114 115.227 60.9508H113.271C113.309 59.9926 113.659 59.2331 114.323 58.6723C114.986 58.1114 115.87 57.831 116.973 57.831C118.01 57.831 118.863 58.0881 119.532 58.6022C120.205 59.1116 120.541 59.7636 120.541 60.5582C120.541 61.1424 120.371 61.6448 120.029 62.0655C119.693 62.4861 119.242 62.7548 118.676 62.8717V62.9979C119.373 63.0773 119.922 63.3344 120.324 63.769C120.73 64.199 120.934 64.7459 120.934 65.4095C120.934 65.9938 120.763 66.5196 120.422 66.9869C120.085 67.4496 119.613 67.8119 119.006 68.0736C118.398 68.3353 117.716 68.4662 116.959 68.4662C115.832 68.4662 114.916 68.1787 114.211 67.6039C113.505 67.029 113.129 66.2648 113.082 65.3114H115.108C115.141 65.7414 115.325 66.0826 115.662 66.3349C115.998 66.5827 116.438 66.7065 116.98 66.7065C117.508 66.7065 117.938 66.571 118.27 66.2999C118.606 66.0288 118.774 65.6783 118.774 65.2483C118.774 64.8043 118.611 64.4561 118.284 64.2037C117.957 63.9466 117.51 63.8181 116.945 63.8181H115.69ZM126.409 61.119C126.409 60.1422 126.75 59.35 127.433 58.7424C128.115 58.1348 129.003 57.831 130.097 57.831C131.153 57.831 132.013 58.1068 132.677 58.6583C133.345 59.2051 133.679 59.9132 133.679 60.7825C133.679 61.334 133.506 61.8832 133.16 62.43C132.815 62.9722 132.205 63.6545 131.331 64.4771L129.396 66.3209V66.4471H133.826V68.2068H126.528V66.7275L129.83 63.4956C130.541 62.8039 131.015 62.2851 131.253 61.9393C131.492 61.5934 131.611 61.2546 131.611 60.9227C131.611 60.5161 131.461 60.1843 131.162 59.9272C130.868 59.6655 130.489 59.5346 130.027 59.5346C129.536 59.5346 129.136 59.6818 128.828 59.9763C128.524 60.2661 128.372 60.6446 128.372 61.112V61.1541H126.409V61.119ZM138.236 63.8181V62.2407H139.47C139.951 62.2407 140.339 62.1122 140.634 61.8551C140.933 61.5981 141.082 61.2639 141.082 60.8526C141.082 60.446 140.935 60.1235 140.641 59.8851C140.351 59.6421 139.958 59.5206 139.463 59.5206C138.972 59.5206 138.575 59.6491 138.271 59.9062C137.967 60.1632 137.801 60.5114 137.773 60.9508H135.817C135.855 59.9926 136.205 59.2331 136.869 58.6723C137.533 58.1114 138.416 57.831 139.519 57.831C140.557 57.831 141.41 58.0881 142.078 58.6022C142.751 59.1116 143.087 59.7636 143.087 60.5582C143.087 61.1424 142.917 61.6448 142.576 62.0655C142.239 62.4861 141.788 62.7548 141.223 62.8717V62.9979C141.919 63.0773 142.468 63.3344 142.87 63.769C143.277 64.199 143.48 64.7459 143.48 65.4095C143.48 65.9938 143.309 66.5196 142.968 66.9869C142.632 67.4496 142.16 67.8119 141.552 68.0736C140.945 68.3353 140.262 68.4662 139.505 68.4662C138.379 68.4662 137.463 68.1787 136.757 67.6039C136.051 67.029 135.675 66.2648 135.628 65.3114H137.654C137.687 65.7414 137.872 66.0826 138.208 66.3349C138.545 66.5827 138.984 66.7065 139.526 66.7065C140.054 66.7065 140.484 66.571 140.816 66.2999C141.153 66.0288 141.321 65.6783 141.321 65.2483C141.321 64.8043 141.157 64.4561 140.83 64.2037C140.503 63.9466 140.057 63.8181 139.491 63.8181H138.236ZM148.955 61.119C148.955 60.1422 149.297 59.35 149.979 58.7424C150.661 58.1348 151.549 57.831 152.643 57.831C153.699 57.831 154.559 58.1068 155.223 58.6583C155.891 59.2051 156.225 59.9132 156.225 60.7825C156.225 61.334 156.052 61.8832 155.707 62.43C155.361 62.9722 154.751 63.6545 153.877 64.4771L151.942 66.3209V66.4471H156.373V68.2068H149.075V66.7275L152.377 63.4956C153.087 62.8039 153.561 62.2851 153.8 61.9393C154.038 61.5934 154.157 61.2546 154.157 60.9227C154.157 60.5161 154.008 60.1843 153.709 59.9272C153.414 59.6655 153.036 59.5346 152.573 59.5346C152.082 59.5346 151.683 59.6818 151.374 59.9763C151.07 60.2661 150.918 60.6446 150.918 61.112V61.1541H148.955V61.119ZM160.761 68.2068V60.1515H160.635L158.153 61.8621V59.8921L160.768 58.0904H162.879V68.2068H160.761Z" fill="white"/>
<rect x="212.347" y="53.3284" width="34.9063" height="5.81772" rx="2.90886" fill="#474747"/>
<rect x="212.347" y="66.903" width="34.9063" height="5.81772" rx="2.90886" fill="#474747"/>
<defs>
<clipPath id="clip0">
<rect x="11.6353" y="51.3896" width="21.3316" height="21.3316" fill="white"/>
</clipPath>
</defs>
</svg>
