<svg width="253" height="339" viewBox="0 0 253 339" fill="none" xmlns="http://www.w3.org/2000/svg">
<path d="M237.453 274.17H116.675C111.367 274.17 107.063 278.474 107.063 283.782V328.726C107.063 334.034 111.367 338.338 116.675 338.338H237.453C242.762 338.338 247.065 334.034 247.065 328.726V283.782C247.065 278.474 242.762 274.17 237.453 274.17Z" fill="#C251C0"/>
<path d="M152.306 72.5241C159.498 69.3624 164.533 62.199 164.533 53.8455C164.533 42.5695 155.392 33.4286 144.116 33.4286C135.756 33.4286 128.593 38.4628 125.437 45.6554L152.306 72.5241Z" fill="#FFD2AA"/>
<path d="M179.656 99.8748C186.849 96.7131 191.883 89.5497 191.883 81.1962C191.883 69.9202 182.742 60.7793 171.466 60.7793C163.107 60.7793 155.943 65.8135 152.788 73.0061L179.656 99.8748Z" fill="#FFD2AA"/>
<path d="M208.02 126.212C215.212 123.051 220.246 115.887 220.246 107.534C220.246 96.2579 211.105 87.1169 199.829 87.1169C191.47 87.1169 184.307 92.1512 181.151 99.3438L208.02 126.212Z" fill="#FFD2AA"/>
<path d="M234.596 152.969C241.789 149.808 246.823 142.644 246.823 134.291C246.823 123.015 237.682 113.874 226.406 113.874C218.047 113.874 210.883 118.908 207.728 126.101L234.596 152.969Z" fill="#FFD2AA"/>
<path d="M242.028 184.12L177.16 248.987C171.934 254.214 163.458 254.214 158.237 248.987L101.758 192.502H63.3214C59.9497 194.153 50.7504 188.197 54.2797 191.225L117.35 254.051C117.782 254.482 118.284 254.792 118.739 255.182V274.17H235.407V247.862C246.018 239.876 252.907 227.223 252.907 212.919C252.901 201.877 248.777 191.82 242.028 184.12Z" fill="#FABE8C"/>
<path d="M107.601 16.853L16.8506 107.603L61.1378 151.891C61.867 151.815 62.5728 151.669 63.3137 151.669H121.648C132.877 151.669 142.065 160.857 142.065 172.086C142.065 183.315 132.877 192.503 121.648 192.503H101.75L138.821 229.574L229.566 138.824L107.601 16.853Z" fill="#00B6C6"/>
<path d="M107.603 16.8527L94.6704 3.92005C89.4436 -1.30668 80.9677 -1.30668 75.7468 3.92005L3.92005 75.741C-1.30668 80.9677 -1.30668 89.4437 3.92005 94.6704L16.8527 107.603L107.603 16.8527Z" fill="#00B6C6"/>
<path d="M248.981 158.237L229.567 138.823L138.823 229.574L158.231 248.981C163.457 254.208 171.933 254.208 177.154 248.981L248.975 177.16C254.208 171.94 254.208 163.464 248.981 158.237Z" fill="#00B6C6"/>
<path d="M197.482 207.086C203.926 207.086 209.149 201.863 209.149 195.419C209.149 188.976 203.926 183.752 197.482 183.752C191.039 183.752 185.815 188.976 185.815 195.419C185.815 201.863 191.039 207.086 197.482 207.086Z" fill="#FFF8F8"/>
<path d="M48.7314 64.1675C47.238 64.1675 45.7446 63.5958 44.6071 62.4583C42.3263 60.1774 42.3263 56.4907 44.6071 54.2099L56.2739 42.543C58.5548 40.2622 62.2415 40.2622 64.5224 42.543C66.8033 44.8239 66.8033 48.5106 64.5224 50.7915L52.8556 62.4583C51.7181 63.5958 50.2247 64.1675 48.7314 64.1675Z" fill="#FFF8F8"/>
<path d="M105.871 44.3834L43.0214 107.233C38.4699 111.785 38.6325 119.328 43.3871 124.082L80.253 160.948C85.0064 165.701 92.5504 165.865 97.1019 161.314L159.952 98.4639C164.882 93.5333 164.705 85.3593 159.554 80.2088L124.125 44.7796C118.975 39.6291 110.802 39.4528 105.871 44.3834Z" fill="#FF5B55"/>
<path d="M46.9502 127.647L126.971 47.6264L138.281 58.9368L58.2606 138.957L46.9502 127.647Z" fill="#FFC100"/>
<path d="M126.241 193.481H64.8661C53.0513 193.481 43.3848 183.908 43.3848 172.208C43.3848 160.508 53.0513 150.935 64.8661 150.935H126.241C138.056 150.935 147.722 160.508 147.722 172.208C147.722 183.908 138.056 193.481 126.241 193.481Z" fill="#FFD2AA"/>
</svg>
