<svg width="157" height="154" viewBox="0 0 157 154" fill="none" xmlns="http://www.w3.org/2000/svg">
<path d="M148.147 106.862C144.902 102.228 138.515 101.101 133.88 104.346L102.477 126.335C101.247 127.197 99.7815 127.659 98.28 127.659H75.0732V148.146H100.125C104.63 148.146 109.026 146.761 112.716 144.177L145.631 121.129C150.266 117.884 151.392 111.496 148.147 106.862Z" fill="#FABE8C"/>
<path d="M102.477 126.335C101.247 127.197 99.782 127.658 98.2805 127.658L75.0737 125.859V136.439H98.7813C109.271 136.439 117.806 127.905 117.806 117.414C117.806 116.823 117.775 116.239 117.722 115.661L102.477 126.335Z" fill="#E6A578"/>
<path d="M148.147 106.862C144.902 102.228 138.514 101.101 133.88 104.346L107.469 122.84C108.453 121.266 109.024 119.407 109.024 117.414C109.024 111.757 104.438 107.17 98.7804 107.17H73.9021L71.0384 105.023C65.3355 100.745 58.2689 98.3899 51.1399 98.3899C45.1302 98.3899 39.2302 100.024 34.0772 103.116C34.0772 103.116 29.1949 106.045 26.2766 107.796C24.9542 108.59 24.1455 110.019 24.1455 111.561V143.756C24.1455 146.181 26.1112 148.146 28.5358 148.146H100.125C104.63 148.146 109.026 146.761 112.716 144.176L145.631 121.129C150.266 117.884 151.392 111.496 148.147 106.862Z" fill="#FFD2AA"/>
<path d="M75.0732 148.146H100.125C104.63 148.146 109.026 146.761 112.716 144.177L145.631 121.129C150.266 117.884 151.392 111.496 148.147 106.862C144.902 102.228 138.514 101.101 133.88 104.346L107.469 122.84C108.454 121.266 109.025 119.407 109.025 117.414C109.025 111.757 104.438 107.17 98.7808 107.17H75.0732V148.146Z" fill="#FABE8C"/>
<path d="M117.722 115.661L107.469 122.84C107.406 122.941 107.342 123.043 107.275 123.142C105.435 125.867 102.317 127.659 98.781 127.659H68.049C65.6244 127.659 63.6587 129.624 63.6587 132.049C63.6587 134.474 65.6244 136.439 68.049 136.439H98.781C109.271 136.439 117.806 127.905 117.806 117.415C117.806 116.823 117.775 116.239 117.722 115.661Z" fill="#FABE8C"/>
<path d="M28.536 154H4.53579C2.11118 154 0.145508 152.034 0.145508 149.61L0.145508 99.8532C0.145508 97.4286 2.11118 95.4629 4.53579 95.4629H28.536C30.9606 95.4629 32.9263 97.4286 32.9263 99.8532V149.61C32.9263 152.034 30.9606 154 28.536 154Z" fill="#C251C0"/>
<path d="M117.722 115.661L107.47 122.84C107.406 122.941 107.343 123.043 107.276 123.142C105.435 125.867 102.317 127.658 98.7813 127.658H75.0737V136.439H98.7813C109.271 136.439 117.806 127.905 117.806 117.414C117.806 116.823 117.775 116.239 117.722 115.661Z" fill="#E6A578"/>
<path d="M85.8288 35.6543C85.6199 34.3971 86.4703 33.212 87.7281 33.0072L107.435 29.7995C108.692 29.5947 109.543 28.4096 109.334 27.1524L108.38 21.4096C108.171 20.1524 109.022 18.9673 110.279 18.7626L133.64 14.96C134.898 14.7553 136.087 15.6084 136.295 16.8656L137.25 22.6084C137.458 23.8656 138.647 24.7187 139.905 24.514L146.421 23.4534C147.679 23.2486 148.868 24.1018 149.077 25.359L152.298 44.7484C152.507 46.0056 151.656 47.1908 150.399 47.3955L91.7056 56.9494C90.4477 57.1541 89.2587 56.301 89.0499 55.0438L85.8288 35.6543Z" fill="#FFC100"/>
<path d="M87.4395 45.3518L89.4282 57.3229L152.676 47.0276L150.687 35.0565L87.4395 45.3518Z" fill="#FFA400"/>
<path d="M92.2404 44.5702C95.0448 61.4508 83.4936 77.3856 66.4401 80.1615C49.3867 82.9374 33.2888 71.5033 30.4844 54.6227C27.6801 37.7421 39.2313 21.8073 56.2847 19.0314C73.3382 16.2555 89.4361 27.6896 92.2404 44.5702Z" fill="#FFC100"/>
<path d="M30.4868 54.6179L92.2425 44.5655C95.0469 61.446 83.4958 77.3809 66.4423 80.1568C49.3887 82.9327 33.2911 71.4984 30.4868 54.6179Z" fill="#FFA400"/>
<path d="M95.8705 43.9776C92.7417 25.1438 74.717 12.3411 55.6903 15.4382C36.6639 18.5355 23.7301 36.3776 26.8589 55.2112C29.9876 74.0448 48.0124 86.8477 67.0391 83.7506C86.0655 80.6536 98.9993 62.8115 95.8705 43.9776ZM34.1148 54.0301C31.6439 39.1566 41.8579 25.0664 56.8837 22.6205C71.9095 20.1747 86.144 30.2852 88.6149 45.1587C91.0858 60.0322 80.8717 74.1224 65.8459 76.5683C50.8201 79.0141 36.5857 68.9036 34.1148 54.0301Z" fill="#FFC100"/>
<path d="M26.8594 55.2095L34.1153 54.0284C36.5862 68.9019 50.8206 79.0124 65.8464 76.5665C80.8722 74.1207 91.0863 60.0305 88.6154 45.157L95.8713 43.9759C99.0001 62.8097 86.0663 80.6518 67.0396 83.7489C48.0129 86.846 29.9882 74.0433 26.8594 55.2095Z" fill="#FFA400"/>
<ellipse cx="60.1499" cy="49.492" rx="12.1089" ry="11.9861" fill="#C251C0"/>
</svg>
