<?xml version="1.0" encoding="utf-8"?>
<!-- Generator: Adobe Illustrator 17.1.0, SVG Export Plug-In . SVG Version: 6.00 Build 0)  -->
<!DOCTYPE svg PUBLIC "-//W3C//DTD SVG 1.1//EN" "http://www.w3.org/Graphics/SVG/1.1/DTD/svg11.dtd">
<svg version="1.1" id="Capa_1" xmlns="http://www.w3.org/2000/svg" xmlns:xlink="http://www.w3.org/1999/xlink" x="0px" y="0px"
	 viewBox="-266 0 1346 1080" enable-background="new -266 0 1346 1080" xml:space="preserve">
<g>
	<path fill="#010002" d="M562.6,476.4c-35.1,18.3-48.7,61.6-30.4,96.7c18.3,35.1,61.6,48.7,96.7,30.5c35.1-18.3,48.8-61.6,30.5-96.7
		C641.1,471.7,597.7,458.1,562.6,476.4z M632.7,96.2h-56.2v147.6h56.2V96.2z M576.5,983.8h56.2V836.2h-56.2V983.8z M932.4,511.9
		v56.2H1080v-56.2H932.4z M789.9,286l19.9,19.9l104.4-104.4l-19.9-19.9L789.9,286z M789.9,794l104.4,104.4l19.9-19.9L809.9,774.1
		L789.9,794z M446.7,919.2h72.1v-12.7v-12.7h-72.1v-31.4h77.8v-13.1v-13H415.9v147.6h112.1v-13.1v-13.1h-81.2V919.2z M450.1,243.8
		v-62.4h64.7v-12.7V156h-64.7v-33.6h74.2v-13.1V96.2h-105v147.6h15.4H450.1z"/>
</g>
</svg>
