<?xml version="1.0" encoding="utf-8"?>
<!-- Generator: Adobe Illustrator 17.1.0, SVG Export Plug-In . SVG Version: 6.00 Build 0)  -->
<!DOCTYPE svg PUBLIC "-//W3C//DTD SVG 1.1//EN" "http://www.w3.org/Graphics/SVG/1.1/DTD/svg11.dtd">
<svg version="1.1" id="Слой_1" xmlns="http://www.w3.org/2000/svg" xmlns:xlink="http://www.w3.org/1999/xlink" x="0px" y="0px"
	 viewBox="0 0 512 512" enable-background="new 0 0 512 512" xml:space="preserve">
<g>
	<path fill="#3DADC2" d="M425,235V69.3c0.1-16-12.8-29.1-28.9-29.3h-24.7V11c0-5.8-4.6-10.9-10.5-10.9h-64.6
		c-5.9,0.2-10.7,5-10.9,10.9v29H139.6V11c-0.1-5.9-4.9-10.7-10.8-10.9H64.1c-5.9,0.2-10.6,5-10.6,10.9v29H29
		C12.9,40.1,0,53.2,0,69.3v319.2c-0.1,16.1,12.9,29.2,29,29.3h203.5c20.5,54.6,73.4,94.1,135.4,94.1c79.5,0,144.2-64.7,144.2-144.4
		C512.1,309.9,477.9,257.8,425,235z M367.8,223c-4.6,0-9.1,0.6-13.6,0.6h-26.8v-61.9H404v61.9h-22.6C377,223.6,372.4,223,367.8,223z
		 M118.6,306.5v-61.9h84v61.9H118.6z M202.5,327.5v69.3h-84v-69.3H202.5z M306.4,161.7v61.9h-82.9v-61.9H306.4z M202.5,223.6h-84
		v-61.9h84V223.6z M97.6,223.6H21v-61.9h76.6V223.6z M97.6,244.6v61.9H21v-61.9H97.6z M223.5,244.6h68.4
		c-23.8,15-42.9,36.5-54.9,61.9h-13.5V244.6z M306.4,21.1h44.1v65.1h-44.1V21.1z M74.5,21.1h44.1v65.1H74.5V21.1z M29,61h24.6v35.4
		c0,5.9,4.7,10.7,10.6,10.8h64.6c5.9-0.1,10.7-4.9,10.8-10.8V61h145.9v35.4c0.2,5.9,5,10.7,10.9,10.8H361
		c5.9-0.1,10.5-4.9,10.5-10.8V61h24.7c4.5,0.1,8,3.8,7.9,8.3v71.5H21V69.3C21,64.8,24.5,61.1,29,61z M21,388.5v-61h76.6v69.3H29
		C24.5,396.7,20.9,393,21,388.5z M223.5,396.8v-69.3h5.7c-3.8,13-5.7,26.5-5.7,40.1c0,9.8,1,19.6,2.9,29.2H223.5z M367.8,490.8
		c-68,0-123.3-55.4-123.3-123.4c0-63.7,48.6-116.5,110.7-122.8h25.4c62.1,6.3,110.7,59.1,110.7,122.8
		C491.2,435.4,435.9,490.8,367.8,490.8z"/>
	<path fill="#FFFFFF" stroke="#FFFFFF" stroke-width="3" stroke-miterlimit="10" d="M367.8,511.5c79.6,0,144.2-64.5,144.2-144.1
		c0-1.6,0-3.2-0.1-4.8c0-0.4,0-0.8,0-1.2c-0.1-1.4-0.1-2.9-0.2-4.3c0-0.2,0-0.3,0-0.5c-0.1-1.7-0.3-3.4-0.5-5.1c0-0.1,0-0.2,0-0.3
		c-3.3-29.9-15.9-57.5-35.3-79.5c0,0,0,0,0,0c-13.8-15.5-31-28.2-50.8-36.8v-0.1c-13.9-6-29-9.9-44.8-11.3c-2.8-0.1-5.7-0.3-8.6-0.5
		c-1.3,0-2.6-0.1-3.9-0.1c-1.2,0-2.4,0-3.6,0c-3,0.2-5.9,0.4-8.9,0.5c-23.1,2-44.7,9.4-63.4,21h0c-23.8,15-42.9,36.5-54.9,61.9h-0.1
		c-3.1,6.7-5.8,13.7-7.8,21h0.1c-3.3,11.4-5.2,23.1-5.6,34.9c0,0,0,0.1,0,0.1c-0.1,1.6-0.1,3.3-0.1,4.9c0,1,0,2,0,2.9
		c0,0.2,0,0.4,0,0.7C225.6,449,289.4,511.5,367.8,511.5z M355.2,244.6h25.4c62.1,6.3,110.7,59.1,110.7,122.8
		c-0.1,68-55.4,123.4-123.5,123.4c-68,0-123.3-55.4-123.3-123.4C244.5,303.7,293.1,250.9,355.2,244.6z"/>
	<path fill="#FFFFFF" d="M399.8,334.8l-43,43l-20.9-21.1c-4.1-4.1-10.7-4.2-14.8-0.1c-4.1,4.1-4.2,10.7-0.1,14.8l28.3,28.5
		c2,2,4.7,3.1,7.5,3c2.8,0,5.5-1.1,7.5-3l50.5-50.5c2-2,3.1-4.6,3.1-7.4s-1.1-5.4-3.1-7.4C410.6,330.6,403.9,330.6,399.8,334.8z"/>
</g>
</svg>
