<?xml version="1.0" encoding="utf-8"?>
<!-- Generator: Adobe Illustrator 17.1.0, SVG Export Plug-In . SVG Version: 6.00 Build 0)  -->
<!DOCTYPE svg PUBLIC "-//W3C//DTD SVG 1.1//EN" "http://www.w3.org/Graphics/SVG/1.1/DTD/svg11.dtd">
<svg version="1.1" id="Layer_1" xmlns="http://www.w3.org/2000/svg" xmlns:xlink="http://www.w3.org/1999/xlink" x="0px" y="0px"
	 viewBox="235 238.8 35 35" enable-background="new 235 238.8 35 35" xml:space="preserve">
<g>
	<g>
		<path fill="#59267C" d="M252.5,239.3L252.5,239.3L252.5,239.3c-9.3,0-16.9,7.6-16.9,16.9c0,3.7,1.2,7.1,3.2,9.9l-2.1,6.3l6.5-2.1
			c2.7,1.8,5.9,2.8,9.3,2.8c9.3,0,16.9-7.6,16.9-16.9C269.4,246.9,261.8,239.3,252.5,239.3z"/>
	</g>
	<g id="XMLID_7_">
		<path id="XMLID_8_" fill="#FFFFFF" d="M259.8,254.6c0-2.9-2.4-5.6-5.5-5.9c-0.1,0-0.1,0-0.2,0c-0.2,0-0.3-0.1-0.5-0.1
			c-0.6,0-0.8,0.4-0.8,0.7c0,0.3,0,0.5,0.1,0.6c0.2,0.3,0.6,0.3,0.9,0.4c0.1,0,0.2,0,0.2,0c2.7,0.6,3.7,1.6,4.1,4.3
			c0,0.1,0,0.1,0,0.2c0,0.3,0.1,1,0.8,1h0c0.1,0,0.1,0,0.2,0c0.7-0.1,0.7-0.7,0.6-1C259.8,254.7,259.8,254.7,259.8,254.6
			C259.8,254.6,259.8,254.6,259.8,254.6z"/>
		<path id="XMLID_9_" fill="#FFFFFF" d="M253.5,247.6c0.1,0,0.2,0,0.2,0c4.5,0.7,6.6,2.8,7.2,7.4c0,0.1,0,0.2,0,0.3
			c0,0.4,0,1.1,0.8,1.1l0,0c0.2,0,0.4-0.1,0.6-0.2c0.2-0.3,0.2-0.6,0.2-1c0-0.1,0-0.1,0-0.2c0.1-4.7-4-8.9-8.6-9c0,0,0,0-0.1,0
			c0,0,0,0-0.1,0c0,0-0.1,0-0.2,0c-0.1,0-0.2,0-0.2,0c-0.7,0-0.9,0.5-0.9,0.8C252.4,247.5,253.1,247.6,253.5,247.6z"/>
		<path id="XMLID_10_" fill="#FFFFFF" d="M260.6,260.9c-0.1-0.1-0.2-0.1-0.3-0.2c-0.5-0.4-1-0.8-1.5-1.1c-0.1-0.1-0.2-0.1-0.3-0.2
			c-0.6-0.5-1.2-0.7-1.8-0.7c-0.7,0-1.4,0.4-1.9,1.2c-0.2,0.4-0.5,0.5-0.9,0.5c-0.2,0-0.4-0.1-0.7-0.2c-2.1-1-3.6-2.4-4.4-4.3
			c-0.4-0.9-0.3-1.5,0.4-2c0.4-0.3,1.2-0.8,1.1-1.8c-0.1-1.1-2.6-4.6-3.6-4.9c-0.4-0.2-0.9-0.2-1.4,0c-1.2,0.4-2.1,1.1-2.5,2.1
			c-0.4,0.9-0.4,2,0.1,3.1c1.3,3.2,3.2,6.1,5.5,8.4c2.3,2.3,5.1,4.1,8.4,5.5c0.3,0.1,0.6,0.2,0.8,0.2c0.1,0,0.1,0,0.2,0
			c0,0,0.1,0,0.1,0l0,0c0,0,0,0,0,0c1.5,0,3.4-1.4,3.9-3C262.3,262.1,261.4,261.4,260.6,260.9z"/>
		<path id="XMLID_11_" fill="#FFFFFF" d="M254.1,251.3c-0.3,0-0.8,0-1,0.6c-0.1,0.3-0.1,0.5,0,0.7c0.2,0.3,0.5,0.4,0.8,0.4
			c1,0.2,1.6,0.7,1.7,1.8c0,0.5,0.4,0.8,0.8,0.8h0c0,0,0.1,0,0.1,0c0.5-0.1,0.8-0.4,0.7-1.1c0-0.7-0.4-1.5-1-2.2
			C255.6,251.6,254.8,251.3,254.1,251.3z"/>
	</g>
</g>
</svg>
