<?xml version="1.0" encoding="iso-8859-1"?>
<!-- Generator: Adobe Illustrator 19.0.0, SVG Export Plug-In . SVG Version: 6.00 Build 0)  -->
<svg version="1.1" id="Capa_1" xmlns="http://www.w3.org/2000/svg" xmlns:xlink="http://www.w3.org/1999/xlink" x="0px" y="0px"
	 viewBox="0 0 431.52 431.52" style="enable-background:new 0 0 431.52 431.52;" xml:space="preserve">
<g>
	<g>
		<path d="M335.254,184.448c-1.232-1.28-2.856-2.113-4.614-2.368l0,0.24l-74.4-10.8l-33.28-67.76
			c-1.971-3.954-6.774-5.562-10.729-3.591c-1.555,0.775-2.816,2.036-3.591,3.591l-33.28,67.44l-74.4,10.8
			c-4.372,0.634-7.403,4.693-6.768,9.066c0.255,1.758,1.088,3.382,2.368,4.614l53.84,52.48l-12.72,74.08
			c-0.724,4.359,2.222,8.479,6.58,9.203c1.716,0.285,3.478,0.003,5.02-0.803l66.48-34.88l66.56,34.96
			c3.915,2.048,8.749,0.534,10.797-3.38c0.806-1.541,1.088-3.304,0.803-5.02l-12.72-74.08l53.84-52.48
			C338.223,192.696,338.319,187.631,335.254,184.448z M267.04,239.76c-1.879,1.825-2.746,4.455-2.32,7.04l10.64,62.32l-56-29.44
			c-2.329-1.223-5.111-1.223-7.44,0l-56,29.44l10.64-62.32c0.426-2.585-0.441-5.215-2.32-7.04l-45.28-44.08l62.56-9.12
			c2.602-0.391,4.845-2.036,6-4.4l28.24-56.48l28,56.64c1.155,2.364,3.398,4.009,6,4.4l62.56,9.12L267.04,239.76z"/>
	</g>
</g>
<g>
	<g>
		<path d="M429.92,205.6l-34.64-42.8l5.2-54.32c0.256-3.46-1.747-6.691-4.96-8L344.8,79.76l-22.72-49.6
			c-1.484-3.209-4.9-5.064-8.4-4.56l-54,8l-44.48-32c-2.844-2.133-6.756-2.133-9.6,0l-42.8,34.64l-54.32-5.2
			c-3.48-0.244-6.718,1.795-8,5.04L79.76,86.72l-49.6,22.72c-3.209,1.484-5.064,4.9-4.56,8.4l8,54l-32,44.48
			c-2.133,2.844-2.133,6.756,0,9.6l33.84,42.8l-5.2,54.32c-0.244,3.48,1.795,6.718,5.04,8l51.44,20.72l22.72,49.6
			c1.484,3.209,4.9,5.064,8.4,4.56l54-8l44.48,32c2.844,2.133,6.756,2.133,9.6,0l42.8-33.84l54.32,5.2
			c3.46,0.256,6.691-1.747,8-4.96l20.72-51.52l49.6-22.72c3.209-1.484,5.063-4.9,4.56-8.4l-8-54l32-44.48
			C432.053,212.356,432.053,208.445,429.92,205.6z M382.8,253.04c-1.173,1.676-1.66,3.737-1.36,5.76l7.44,51.2l-47.12,21.52
			c-1.864,0.863-3.325,2.41-4.08,4.32l-19.12,48l-51.52-4.88c-2.039-0.187-4.071,0.414-5.68,1.68l-40.64,32l-42.16-30
			c-1.351-0.978-2.973-1.509-4.64-1.52h-1.12l-51.2,7.44l-21.52-47.04c-0.863-1.864-2.41-3.325-4.32-4.08l-48-19.12l4.88-51.52
			c0.187-2.039-0.414-4.071-1.68-5.68l-32-40.64l30-42.16c1.173-1.676,1.66-3.737,1.36-5.76l-7.44-51.2L90,99.84
			c1.864-0.863,3.325-2.41,4.08-4.32l19.12-48l51.52,4.88c2.039,0.187,4.071-0.414,5.68-1.68l40.64-32l42.16,30
			c1.676,1.173,3.737,1.66,5.76,1.36l51.2-7.44l21.52,47.12c0.863,1.864,2.41,3.325,4.32,4.08l48,19.12l-4.88,51.52
			c-0.187,2.039,0.414,4.071,1.68,5.68l32,40.64L382.8,253.04z"/>
	</g>
</g>
<g>
</g>
<g>
</g>
<g>
</g>
<g>
</g>
<g>
</g>
<g>
</g>
<g>
</g>
<g>
</g>
<g>
</g>
<g>
</g>
<g>
</g>
<g>
</g>
<g>
</g>
<g>
</g>
<g>
</g>
</svg>
