<svg viewBox="0 -8 511.99946 511" xmlns="http://www.w3.org/2000/svg"><path d="m439.21875 81.933594h-374.582031c-4.21875 0-7.636719 3.417968-7.636719 7.632812v57.339844c0 4.21875 3.417969 7.636719 7.636719 7.636719 4.214843 0 7.632812-3.417969 7.632812-7.636719v-49.707031h359.316407v118.308593l-35.429688-41.335937c-3.011719-3.511719-8.617188-3.5-11.613281.023437l-133.300781 156.824219-91.875-84.21875c-3-2.75-7.632813-2.664062-10.523438.199219l-76.574219 75.703125v-139.828125c0-4.21875-3.417969-7.636719-7.632812-7.636719-4.21875 0-7.636719 3.417969-7.636719 7.636719v248.703125c0 4.214844 3.417969 7.632813 7.636719 7.632813h374.582031c4.21875 0 7.636719-3.417969 7.636719-7.632813v-68.878906c0-4.214844-3.417969-7.632813-7.636719-7.632813-4.214844 0-7.632812 3.417969-7.632812 7.632813v61.246093h-359.316407v-79.773437l82.140625-81.203125 92.359375 84.660156c3.148438 2.886719 8.210938 2.570313 10.976563-.679687l132.636718-156.050781 41.203126 48.066406v87.429687c0 4.21875 3.417968 7.636719 7.632812 7.636719 4.21875 0 7.636719-3.417969 7.636719-7.636719v-236.828125c0-4.214844-3.417969-7.632812-7.636719-7.632812zm0 0"/><path d="m300.277344 170.996094c0-26.65625-21.691406-48.347656-48.347656-48.347656-26.660157 0-48.351563 21.691406-48.351563 48.347656 0 26.660156 21.691406 48.351562 48.351563 48.351562 26.65625 0 48.347656-21.691406 48.347656-48.351562zm-81.429688 0c0-18.238282 14.839844-33.078125 33.082032-33.078125 18.238281 0 33.078124 14.839843 33.078124 33.078125 0 18.242187-14.839843 33.082031-33.078124 33.082031-18.242188 0-33.082032-14.839844-33.082032-33.082031zm0 0"/><path d="m471.792969 97.199219h24.429687c4.214844 0 7.632813-3.417969 7.632813-7.632813s-3.417969-7.632812-7.632813-7.632812h-24.429687c-4.21875 0-7.636719 3.417968-7.636719 7.632812s3.417969 7.632813 7.636719 7.632813zm0 0"/><path d="m439.21875 24.929688c-4.214844 0-7.632812 3.417968-7.632812 7.636718v24.425782c0 4.21875 3.417968 7.636718 7.632812 7.636718 4.21875 0 7.636719-3.417968 7.636719-7.636718v-24.425782c0-4.21875-3.417969-7.636718-7.636719-7.636718zm0 0"/><path d="m32.0625 81.933594h-24.429688c-4.214843 0-7.632812 3.417968-7.632812 7.632812s3.417969 7.632813 7.632812 7.632813h24.429688c4.21875 0 7.636719-3.417969 7.636719-7.632813s-3.417969-7.632812-7.636719-7.632812zm0 0"/><path d="m64.636719 64.628906c4.214843 0 7.632812-3.417968 7.632812-7.636718v-24.425782c0-4.21875-3.417969-7.636718-7.632812-7.636718-4.21875 0-7.636719 3.417968-7.636719 7.636718v24.425782c0 4.21875 3.417969 7.636718 7.636719 7.636718zm0 0"/><path d="m496.222656 423.945312h-24.429687c-4.21875 0-7.636719 3.417969-7.636719 7.632813s3.417969 7.632813 7.636719 7.632813h24.429687c4.214844 0 7.632813-3.417969 7.632813-7.632813s-3.417969-7.632813-7.632813-7.632813zm0 0"/><path d="m439.21875 456.515625c-4.214844 0-7.632812 3.417969-7.632812 7.632813v24.429687c0 4.21875 3.417968 7.636719 7.632812 7.636719 4.21875 0 7.636719-3.417969 7.636719-7.636719v-24.429687c0-4.214844-3.417969-7.632813-7.636719-7.632813zm0 0"/><path d="m32.0625 423.945312h-24.429688c-4.214843 0-7.632812 3.417969-7.632812 7.632813s3.417969 7.632813 7.632812 7.632813h24.429688c4.21875 0 7.636719-3.417969 7.636719-7.632813s-3.417969-7.632813-7.636719-7.632813zm0 0"/><path d="m64.636719 456.515625c-4.21875 0-7.636719 3.417969-7.636719 7.632813v24.429687c0 4.21875 3.417969 7.636719 7.636719 7.636719 4.214843 0 7.632812-3.417969 7.632812-7.636719v-24.429687c0-4.214844-3.417969-7.632813-7.632812-7.632813zm0 0"/><path d="m231.40625 63.34375c3.464844 2.3125 8.28125 1.34375 10.585938-2.117188l9.9375-14.898437 9.933593 14.898437c2.488281 3.738282 7.828125 4.496094 11.265625 1.609376 2.941406-2.46875 3.5625-6.886719 1.4375-10.078126l-13.464844-20.195312 13.464844-20.195312c2.339844-3.507813 1.390625-8.246094-2.117187-10.585938-3.507813-2.335938-8.25-1.390625-10.585938 2.117188l-9.933593 14.902343-9.9375-14.902343c-2.335938-3.507813-7.078126-4.453126-10.585938-2.117188-3.507812 2.339844-4.457031 7.078125-2.117188 10.585938l13.464844 20.195312-13.464844 20.195312c-2.339843 3.507813-1.390624 8.25 2.117188 10.585938zm0 0"/><path d="m508.597656 229.789062c-3.503906-2.339843-8.246094-1.390624-10.585937 2.117188l-9.933594 14.902344-9.933594-14.902344c-2.308593-3.460938-7.125-4.421875-10.585937-2.117188-3.460938 2.308594-4.425782 7.125-2.117188 10.585938l15.003906 22.507812v22.117188c0 4.214844 3.417969 7.632812 7.632813 7.632812 4.21875 0 7.632813-3.417968 7.632813-7.632812v-22.117188l15.003906-22.507812c2.339844-3.503906 1.390625-8.246094-2.117188-10.585938zm0 0"/></svg>