<?xml version="1.0" encoding="utf-8"?>
<!-- Generator: Adobe Illustrator 22.0.1, SVG Export Plug-In . SVG Version: 6.00 Build 0)  -->
<svg version="1.1" id="Capa_1" xmlns="http://www.w3.org/2000/svg" xmlns:xlink="http://www.w3.org/1999/xlink" x="0px" y="0px"
	 viewBox="0 0 505.1 505.1" style="enable-background:new 0 0 505.1 505.1;" xml:space="preserve">
<style type="text/css">
	.st0{fill:#7F7F7F;}
	.st1{fill:#FFFFFF;}
</style>
<g>
	<circle class="st0" cx="252.6" cy="252.6" r="252.6"/>
	<g>
		<g id="Layer_7_2_">
			<path class="st1" d="M407.6,289.3c0-22.1-9.8-41.7-25.2-54.3v-17.9c0-73.3-56.8-133-126.6-133c-69.8,0-126.6,59.7-126.6,133v13.1
				c-19,12.1-31.7,34.1-31.7,59.1c0,38.2,29.5,69.1,65.8,69.1V220.2c-4.7,0-9.2,0.5-13.6,1.5v-4.6c0-61.5,47.6-111.5,106.1-111.5
				c58.5,0,106.1,50,106.1,111.5v6.4c-6.4-2.2-13.1-3.3-20.2-3.3v138.3c4.3,0,8.4-0.5,12.5-1.3c-6.7,14.9-21.9,37.3-54.1,43.8
				c-2.1-2.5-5.1-4-8.5-4h-20.5c-6.4,0-11.5,5.4-11.5,12.1c0,6.7,5.1,12.1,11.5,12.1h20.5c4.9,0,9.1-3.3,10.7-7.9
				c45.3-8.9,61.6-45.9,66.5-61C391.7,341.4,407.6,317.3,407.6,289.3z"/>
		</g>
	</g>
</g>
</svg>
