<?xml version="1.0" encoding="utf-8"?>
<!-- Generator: Adobe Illustrator 22.0.1, SVG Export Plug-In . SVG Version: 6.00 Build 0)  -->
<svg version="1.1" id="Слой_1" xmlns="http://www.w3.org/2000/svg" xmlns:xlink="http://www.w3.org/1999/xlink" x="0px" y="0px"
	 viewBox="0 0 20 20" style="enable-background:new 0 0 20 20;" xml:space="preserve">
<style type="text/css">
	.st0{fill:#A3A3A3;}
</style>
<g>
	<path class="st0" d="M2.2,10.6C2.1,10.5,2,10.3,2,10.2c0-0.1,0.1-0.3,0.2-0.4L3,8.9c0.2-0.2,0.6-0.2,0.9,0L4,9l3.4,3.6
		c0.1,0.1,0.3,0.1,0.4,0L16,4h0.1l0,0c0.2-0.2,0.6-0.2,0.9,0l0.9,0.9c0.2,0.2,0.2,0.6,0,0.9l0,0L8,16c-0.1,0.1-0.2,0.2-0.4,0.2
		c-0.2,0-0.3-0.1-0.4-0.2l-4.8-5.2L2.2,10.6L2.2,10.6z"/>
</g>
</svg>
