<?xml version="1.0" encoding="utf-8"?>
<!-- Generator: Adobe Illustrator 24.0.1, SVG Export Plug-In . SVG Version: 6.00 Build 0)  -->
<svg version="1.1" id="Capa_1" xmlns="http://www.w3.org/2000/svg" xmlns:xlink="http://www.w3.org/1999/xlink" x="0px" y="0px"
	 viewBox="0 0 512 512" style="enable-background:new 0 0 512 512;" xml:space="preserve">
<style type="text/css">
	.st0{fill:#FFFFFF;}
</style>
<g>
	<path class="st0" d="M452,120h-60.9C383.1,52.5,325.6,0,256,0S128.9,52.5,120.9,120H60c-11,0-20,9-20,20v352c0,11,9,20,20,20h392
		c11,0,20-9,20-20V140C472,129,463,120,452,120z M256,40c47.5,0,87,34.7,94.7,80H161.3C169,74.7,208.5,40,256,40z M432,472H80V160
		h40v60c0,11,9,20,20,20s20-9,20-20v-60h192v60c0,11,9,20,20,20s20-9,20-20v-60h40V472z"/>
</g>
</svg>
