<svg id="Layer_1" enable-background="new 0 0 128 128" height="512" viewBox="0 0 128 128" width="512" xmlns="http://www.w3.org/2000/svg"><path d="m106.911 24.346c-.907-.342-1.896-.081-2.521.667-1.82 2.176-5.354 4.933-11.855 5.714-2.049.246-4.047.356-5.979.464-7.342.407-14.275.791-20.516 8.663-6.322-7.872-13.256-8.256-20.598-8.663-1.932-.107-3.93-.218-5.979-.464-6.503-.781-10.037-3.539-11.856-5.715-.625-.747-1.613-1.007-2.521-.666-.896.339-1.458 1.177-1.434 2.137.196 7.593.865 13.476 1.956 18.073v60.248c0 1.654 1.346 3 3 3s3-1.346 3-3v-48.215c1.989 1.94 4.306 3.179 6.91 4.076 2.468.85 4.969 1.213 7.443 1.213 7.499 0 14.744-3.34 19.998-6.612 7.064 4.354 17.574 8.824 27.518 5.399 8.712-3 14.237-9.765 14.866-34.182.027-.96-.536-1.799-1.432-2.137zm-71.894 15.874c.033-.033.086-.067.16-.067.017 0 .034.001.053.005.986.207 2.011.374 3.043.499 2.388.285 4.545.404 6.635.52 6.445.354 9.996.551 13.563 5.12.245.314.333.707.247 1.104-.088.403-.348.744-.712.935-3.095 1.61-7.704 3.53-12.093 3.53-1.482 0-2.875-.221-4.14-.656-2.142-.737-5.075-1.748-6.822-10.778-.019-.103.025-.172.066-.212zm38.511 6.076c3.567-4.569 7.118-4.766 13.567-5.121 2.086-.114 4.243-.233 6.632-.519 1.031-.125 2.056-.292 3.043-.499.019-.004.035-.005.052-.005.074 0 .127.034.16.067.041.04.085.109.065.211v.001c-1.747 9.029-4.681 10.04-6.823 10.778-1.264.435-2.656.655-4.139.655-4.389 0-8.998-1.92-12.093-3.53-.364-.19-.624-.531-.712-.935-.085-.396.003-.789.248-1.103z" fill="#e6e7e8"/><path d="m22.61 40.418v60.384c0 1.105.895 2 2 2s2-.895 2-2v-50.85c-1.618-2.225-2.981-5.269-4-9.534z" fill="#6dc9f7"/><path d="m101.157 21.654c-2.041 2.441-5.797 5.261-12.503 6.065-9.922 1.191-18.269-.76-25.916 8.76-.383.476-1.093.476-1.476 0-7.647-9.52-15.994-7.569-25.916-8.76-6.707-.805-10.463-3.625-12.504-6.066-.754-.902-2.218-.371-2.188.804.653 25.398 6.69 30.68 14.191 33.262 9.842 3.388 20.408-1.448 26.667-5.305.304-.187.67-.187.973 0 6.259 3.857 16.825 8.694 26.667 5.305 7.501-2.582 13.538-7.864 14.191-33.262.033-1.175-1.432-1.705-2.186-.803zm-46.688 23.567c-3.743 1.949-8.277 3.644-12.555 3.644-1.594 0-3.097-.239-4.464-.71-2.282-.786-5.623-1.935-7.48-11.534-.167-.866.601-1.623 1.464-1.442.944.198 1.93.36 2.958.484 2.341.28 4.489.399 6.566.514 6.503.358 10.453.575 14.3 5.504.905 1.157.513 2.862-.789 3.54zm39.561-8.6c-1.857 9.599-5.198 10.748-7.48 11.534-1.367.471-2.87.71-4.464.71-4.278 0-8.811-1.695-12.555-3.644-1.302-.678-1.694-2.383-.791-3.541 3.847-4.929 7.797-5.146 14.3-5.504 2.077-.114 4.226-.233 6.566-.514 1.028-.124 2.014-.286 2.958-.484.864-.18 1.633.577 1.466 1.443z" fill="#fa759e"/><path d="m22.842 24.653c2.041 2.441 5.797 5.261 12.504 6.066 9.922 1.191 18.269-.76 25.916 8.76.383.476 1.093.476 1.476 0 7.647-9.52 15.994-7.569 25.916-8.76 6.706-.805 10.462-3.625 12.503-6.065.642-.767 1.79-.492 2.101.33.035-.821.065-1.659.087-2.526.03-1.175-1.434-1.705-2.188-.804-2.041 2.441-5.797 5.261-12.503 6.065-9.922 1.191-18.269-.76-25.916 8.76-.383.476-1.093.476-1.476 0-7.647-9.52-15.994-7.569-25.916-8.76-6.707-.805-10.463-3.625-12.504-6.066-.754-.902-2.218-.371-2.188.804.022.867.052 1.705.087 2.526.312-.822 1.46-1.097 2.101-.33z" fill="#fff"/><path d="m96.859 48.974c-1.18 1.729-2.59 3.074-4.311 4.114-.473.285-.624.899-.338 1.373.188.311.518.482.856.482.176 0 .354-.046.517-.145 1.97-1.19 3.582-2.727 4.928-4.698.312-.456.193-1.078-.263-1.39-.453-.308-1.076-.193-1.389.264z" fill="#3a2c60"/><path d="m102.91 20.346c-.908-.342-1.896-.081-2.52.667-1.82 2.176-5.354 4.933-11.855 5.714-2.049.246-4.047.356-5.979.464-7.342.407-14.276.791-20.516 8.663-6.322-7.872-13.257-8.256-20.598-8.663-1.932-.107-3.93-.218-5.979-.464-6.503-.781-10.037-3.539-11.856-5.715-.625-.747-1.613-1.007-2.521-.666-.896.339-1.458 1.177-1.434 2.137.196 7.593.865 13.476 1.956 18.073v60.248c0 1.654 1.346 3 3 3s3-1.346 3-3v-48.215c1.989 1.94 4.306 3.179 6.91 4.076 2.468.85 4.969 1.213 7.443 1.213 7.499 0 14.744-3.34 19.998-6.612 6.627 4.083 16.536 8.408 26.121 5.827.533-.145.849-.692.705-1.227-.144-.533-.691-.848-1.227-.705-8.885 2.399-18.258-1.721-24.55-5.598-.624-.387-1.399-.387-2.023-.001-6.696 4.126-16.606 8.379-25.817 5.212-6.476-2.23-12.854-6.564-13.517-32.343-.001-.044-.005-.16.14-.215.073-.025.184-.039.28.078 2.052 2.453 5.998 5.559 13.152 6.418 2.112.253 4.143.365 6.106.475 7.182.398 13.385.742 19.149 7.918.373.465.926.731 1.518.731h.001c.592 0 1.145-.268 1.516-.731 5.765-7.176 11.968-7.52 19.15-7.918 1.964-.109 3.994-.222 6.106-.475 7.152-.859 11.1-3.964 13.151-6.417.096-.116.204-.106.28-.079.145.055.142.172.141.216-.251 9.748-1.302 16.959-3.214 22.044-.194.517.067 1.094.585 1.288.512.191 1.093-.067 1.288-.585 1.991-5.297 3.084-12.721 3.341-22.696.028-.961-.535-1.8-1.431-2.137zm-78.3 81.457c-.552 0-1-.448-1-1v-54.146c.604 1.356 1.272 2.54 2 3.577v50.569c0 .551-.448 1-1 1z" fill="#3a2c60"/><path d="m41.014 35.179c-2.054-.113-4.179-.23-6.501-.509-.976-.117-1.942-.275-2.873-.47-.737-.154-1.491.068-2.025.595-.534.525-.769 1.279-.626 2.017 1.967 10.164 5.679 11.442 8.137 12.289 1.473.508 3.084.765 4.789.765 4.793 0 9.724-2.043 13.017-3.757.893-.465 1.527-1.298 1.741-2.284.212-.974-.017-1.979-.625-2.759-4.126-5.287-8.464-5.526-15.034-5.887zm13.704 8.221c-.088.404-.348.745-.711.935-3.095 1.61-7.704 3.53-12.093 3.53-1.482 0-2.875-.221-4.14-.656-2.142-.737-5.075-1.748-6.823-10.777-.02-.103.025-.172.066-.212.033-.033.086-.067.16-.067.017 0 .034.001.053.005.986.207 2.011.374 3.043.499 2.388.285 4.545.404 6.635.52 6.445.354 9.996.551 13.563 5.12.245.313.333.706.247 1.103z" fill="#3a2c60"/><path d="m94.386 34.795c-.534-.526-1.292-.75-2.024-.595-.932.194-1.898.353-2.873.47-2.323.278-4.448.396-6.506.509-6.566.361-10.904.601-15.03 5.887-.608.779-.837 1.785-.625 2.759.214.986.85 1.819 1.742 2.284 3.293 1.714 8.224 3.757 13.017 3.757 1.705 0 3.316-.257 4.79-.765 2.456-.846 6.168-2.125 8.135-12.289.141-.737-.092-1.491-.626-2.017zm-8.161 12.415c-1.264.435-2.656.655-4.139.655-4.389 0-8.998-1.92-12.093-3.53-.364-.19-.624-.531-.712-.935-.086-.397.002-.79.247-1.104 3.567-4.569 7.118-4.766 13.567-5.121 2.086-.114 4.243-.233 6.632-.519 1.031-.125 2.056-.292 3.043-.499.019-.004.035-.005.052-.005.073 0 .127.034.16.067.04.04.085.109.065.211-1.747 9.031-4.68 10.042-6.822 10.78z" fill="#3a2c60"/><g fill="#ffd7e5"><circle cx="98.542" cy="29.802" r="2"/><circle cx="97.875" cy="34.469" r="1.5"/><circle cx="97.125" cy="38.386" r="1.25"/><circle cx="25.458" cy="29.802" r="2"/><circle cx="26.125" cy="34.469" r="1.5"/><circle cx="26.875" cy="38.386" r="1.25"/></g></svg>