<?xml version="1.0" encoding="utf-8"?>
<!-- Generator: Adobe Illustrator 17.1.0, SVG Export Plug-In . SVG Version: 6.00 Build 0)  -->
<!DOCTYPE svg PUBLIC "-//W3C//DTD SVG 1.1//EN" "http://www.w3.org/Graphics/SVG/1.1/DTD/svg11.dtd">
<svg version="1.1" id="Capa_1" xmlns="http://www.w3.org/2000/svg" xmlns:xlink="http://www.w3.org/1999/xlink" x="0px" y="0px"
	 viewBox="135 0 30 30" enable-background="new 135 0 30 30" xml:space="preserve">
<g>
	<g>
		<path fill="#3DADC2" d="M165,15c0-2.6-3.8-4.8-9.4-5.7C154.8,3.8,152.6,0,150,0s-4.8,3.8-5.7,9.4c-5.7,0.9-9.3,3.1-9.3,5.6
			s3.8,4.8,9.3,5.6c0.9,5.5,3.1,9.4,5.6,9.4c0.7,0,1.5-0.3,2-0.8c0.3-0.2,0.3-0.6,0.1-0.8c-0.2-0.3-0.6-0.3-0.8-0.1
			c-0.3,0.3-0.8,0.5-1.3,0.5c-1.7,0-3.6-3.1-4.4-8c1.5,0.2,2.9,0.3,4.4,0.3c1.5,0,2.9-0.1,4.4-0.3c-0.1,0.8-0.3,1.7-0.5,2.5
			l-0.8-1.2c-0.2-0.3-0.6-0.3-0.8-0.2c-0.3,0.2-0.3,0.5-0.2,0.8l1.5,2.3l0,0l0,0.1l0.1,0.1l0.1,0l0.1,0h0c0.1,0,0.1,0,0.2,0
			c0.1,0,0.2,0,0.2-0.1L157,24c0.3-0.1,0.5-0.5,0.3-0.8c-0.1-0.3-0.5-0.5-0.8-0.3c0,0-0.1,0-0.1,0l-1.5,0.7c0.3-1,0.5-2,0.6-2.9
			C161.2,19.8,165,17.6,165,15z M155.8,10.6c4.9,0.9,8,2.7,8,4.4s-3.1,3.6-8,4.4h0c0.2-1.5,0.3-2.9,0.3-4.4
			C156.1,13.5,156,12.1,155.8,10.6z M144.2,19.4L144.2,19.4c-4.9-0.8-8-2.7-8-4.4c0-1.9,3.3-3.6,8-4.4
			C143.8,13.5,143.8,16.5,144.2,19.4z M154.6,19.6L154.6,19.6c-1.5,0.2-3.1,0.3-4.6,0.3c-1.5,0-3.1-0.1-4.6-0.3
			c-0.4-3-0.4-6.1,0-9.2l0.7-0.1c0.3,0,0.6-0.3,0.5-0.7c0-0.3-0.3-0.6-0.7-0.5l-0.4,0.1c0.8-4.9,2.7-8,4.4-8c1.7,0,3.6,3.1,4.4,8
			c-0.7-0.1-1.5-0.2-2.3-0.2L153,8c0.2-0.2,0.2-0.6,0-0.8c-0.2-0.2-0.6-0.2-0.8,0l-1.9,2c0,0,0,0.1,0,0.1c0,0,0,0.1-0.1,0.1
			c0,0,0,0.1,0,0.1c0,0,0,0.1,0,0.1c0,0,0,0.1,0,0.1c0,0,0,0.1,0,0.1c0,0,0,0.1,0.1,0.1c0,0,0,0.1,0,0.1l1.9,2.4
			c0.2,0.3,0.6,0.3,0.8,0.1s0.3-0.6,0.1-0.8c0,0,0,0,0-0.1l-1.1-1.4c0.9,0,1.8,0.1,2.7,0.2c0.2,1.5,0.3,3.1,0.3,4.6
			C154.9,16.5,154.8,18.1,154.6,19.6z"/>
	</g>
</g>
</svg>
