<?xml version="1.0" encoding="utf-8"?>
<!-- Generator: Adobe Illustrator 17.1.0, SVG Export Plug-In . SVG Version: 6.00 Build 0)  -->
<!DOCTYPE svg PUBLIC "-//W3C//DTD SVG 1.1//EN" "http://www.w3.org/Graphics/SVG/1.1/DTD/svg11.dtd">
<svg version="1.1" id="Слой_1" xmlns="http://www.w3.org/2000/svg" xmlns:xlink="http://www.w3.org/1999/xlink" x="0px" y="0px"
	 viewBox="241 241 30 30" enable-background="new 241 241 30 30" xml:space="preserve">
<g>
	<path fill="#3DADC2" d="M253.5,271H243c-1.1,0-2-0.9-2-2v-10.5c0-1.1,0.9-2,2-2h10.5c1.1,0,2,0.9,2,2V269
		C255.4,270.1,254.5,271,253.5,271z M243,257.7c-0.4,0-0.8,0.4-0.8,0.8V269c0,0.4,0.4,0.8,0.8,0.8h10.5c0.4,0,0.8-0.4,0.8-0.8v-10.5
		c0-0.4-0.4-0.8-0.8-0.8H243z"/>
	<path fill="#3DADC2" d="M253.5,255.4H243c-1.1,0-2-0.9-2-2V243c0-1.1,0.9-2,2-2h10.5c1.1,0,2,0.9,2,2v0.5c0,0.3-0.3,0.6-0.6,0.6
		c-0.3,0-0.6-0.3-0.6-0.6V243c0-0.4-0.4-0.8-0.8-0.8H243c-0.4,0-0.8,0.4-0.8,0.8v10.5c0,0.4,0.4,0.8,0.8,0.8h10.5
		c0.4,0,0.8-0.4,0.8-0.8v-5.2c0-0.3,0.3-0.6,0.6-0.6c0.3,0,0.6,0.3,0.6,0.6v5.2C255.4,254.5,254.5,255.4,253.5,255.4z"/>
	<path fill="#3DADC2" d="M254.8,246.4c0,0-0.1,0-0.1,0s-0.1,0-0.1,0c0,0-0.1,0-0.1-0.1c0,0-0.1,0-0.1-0.1c0,0-0.1-0.1-0.1-0.1
		c0,0,0-0.1-0.1-0.1c0,0,0-0.1,0-0.1c0,0,0-0.1,0-0.1c0,0,0-0.1,0-0.1c0,0,0-0.1,0-0.1c0,0,0-0.1,0.1-0.1c0,0,0-0.1,0.1-0.1
		c0,0,0.1-0.1,0.1-0.1c0,0,0.1,0,0.1-0.1c0,0,0.1,0,0.1,0c0.1,0,0.2,0,0.2,0c0,0,0.1,0,0.1,0c0,0,0.1,0,0.1,0.1c0,0,0.1,0,0.1,0.1
		c0,0,0.1,0.1,0.1,0.1c0,0,0,0.1,0.1,0.1c0,0,0,0.1,0,0.1s0,0.1,0,0.1c0,0,0,0.1,0,0.1c0,0,0,0.1,0,0.1c0,0,0,0.1-0.1,0.1
		c0,0,0,0.1-0.1,0.1c0,0-0.1,0.1-0.1,0.1c0,0-0.1,0-0.1,0.1s-0.1,0-0.1,0C254.9,246.3,254.9,246.4,254.8,246.4z"/>
	<path fill="#3DADC2" d="M269,271h-10.5c-1.1,0-2-0.9-2-2v-10.5c0-1.1,0.9-2,2-2H269c1.1,0,2,0.9,2,2v5.2c0,0.3-0.3,0.6-0.6,0.6
		s-0.6-0.3-0.6-0.6v-5.2c0-0.4-0.4-0.8-0.8-0.8h-10.5c-0.4,0-0.8,0.4-0.8,0.8V269c0,0.4,0.4,0.8,0.8,0.8H269c0.4,0,0.8-0.4,0.8-0.8
		v-0.5c0-0.3,0.3-0.6,0.6-0.6s0.6,0.3,0.6,0.6v0.5C271,270.1,270.1,271,269,271z"/>
	<path fill="#3DADC2" d="M270.4,266.8c-0.2,0-0.3-0.1-0.4-0.2c0,0-0.1-0.1-0.1-0.1c0,0,0-0.1-0.1-0.1c0,0,0-0.1,0-0.1
		c0,0,0-0.1,0-0.1c0-0.2,0.1-0.3,0.2-0.4c0.1-0.1,0.3-0.2,0.5-0.2c0,0,0.1,0,0.1,0c0,0,0.1,0,0.1,0.1c0,0,0.1,0,0.1,0.1
		c0.1,0.1,0.2,0.3,0.2,0.4c0,0,0,0.1,0,0.1c0,0,0,0.1,0,0.1c0,0,0,0.1-0.1,0.1c0,0,0,0.1-0.1,0.1s-0.1,0.1-0.1,0.1
		c0,0-0.1,0-0.1,0.1c0,0-0.1,0-0.1,0C270.5,266.8,270.5,266.8,270.4,266.8z"/>
	<path fill="#3DADC2" d="M269,255.4h-10.5c-1.1,0-2-0.9-2-2V243c0-1.1,0.9-2,2-2H269c1.1,0,2,0.9,2,2v10.5
		C271,254.5,270.1,255.4,269,255.4z M258.5,242.2c-0.4,0-0.8,0.4-0.8,0.8v10.5c0,0.4,0.4,0.8,0.8,0.8H269c0.4,0,0.8-0.4,0.8-0.8V243
		c0-0.4-0.4-0.8-0.8-0.8H258.5z"/>
	<path fill="#3DADC2" d="M249.3,252.5h-2.3c-0.3,0-0.6-0.3-0.6-0.6v-2h-2c-0.3,0-0.6-0.3-0.6-0.6v-2.3c0-0.3,0.3-0.6,0.6-0.6h2v-2
		c0-0.3,0.3-0.6,0.6-0.6h2.3c0.3,0,0.6,0.3,0.6,0.6v2h2c0.3,0,0.6,0.3,0.6,0.6v2.3c0,0.3-0.3,0.6-0.6,0.6h-2v2
		C249.9,252.2,249.7,252.5,249.3,252.5z M247.7,251.3h1.1v-2c0-0.3,0.3-0.6,0.6-0.6h2v-1.1h-2c-0.3,0-0.6-0.3-0.6-0.6v-2h-1.1v2
		c0,0.3-0.3,0.6-0.6,0.6h-2v1.1h2c0.3,0,0.6,0.3,0.6,0.6V251.3z"/>
	<path fill="#3DADC2" d="M249.9,267.7c-0.2,0-0.3-0.1-0.4-0.2l-1.4-1.4l-1.4,1.4c-0.2,0.2-0.6,0.2-0.8,0l-1.6-1.6
		c-0.1-0.1-0.2-0.3-0.2-0.4c0-0.2,0.1-0.3,0.2-0.4l1.4-1.4l-1.4-1.4c-0.2-0.2-0.2-0.6,0-0.8l1.6-1.6c0.1-0.1,0.3-0.2,0.4-0.2
		s0.3,0.1,0.4,0.2l1.4,1.4l1.4-1.4c0.1-0.1,0.3-0.2,0.4-0.2c0.2,0,0.3,0.1,0.4,0.2l1.6,1.6c0.2,0.2,0.2,0.6,0,0.8l-1.4,1.4l1.4,1.4
		c0.2,0.2,0.2,0.6,0,0.8l-1.6,1.6C250.2,267.6,250,267.7,249.9,267.7z M248.1,264.7c0.1,0,0.3,0.1,0.4,0.2l1.4,1.4l0.8-0.8l-1.4-1.4
		c-0.2-0.2-0.2-0.6,0-0.8l1.4-1.4l-0.8-0.8l-1.4,1.4c-0.1,0.1-0.3,0.2-0.4,0.2c-0.2,0-0.3-0.1-0.4-0.2l-1.4-1.4l-0.8,0.8l1.4,1.4
		c0.1,0.1,0.2,0.3,0.2,0.4s-0.1,0.3-0.2,0.4l-1.4,1.4l0.8,0.8l1.4-1.4C247.8,264.7,247.9,264.7,248.1,264.7z"/>
	<path fill="#3DADC2" d="M267.4,261.1h-7.3c-0.3,0-0.6,0.3-0.6,0.6v4.5c0,0.3,0.3,0.6,0.6,0.6h7.3c0.3,0,0.6-0.3,0.6-0.6v-4.5
		C268,261.4,267.8,261.1,267.4,261.1z M260.7,262.3h6.2v1.1h-6.2V262.3z M266.9,265.6h-6.2v-1.1h6.2V265.6z"/>
	<path fill="#3DADC2" d="M267.4,250.2h-7.3c-0.3,0-0.6-0.3-0.6-0.6v-2.3c0-0.3,0.3-0.6,0.6-0.6h7.3c0.3,0,0.6,0.3,0.6,0.6v2.3
		C268,249.9,267.8,250.2,267.4,250.2z M260.7,249h6.2v-1.1h-6.2V249z"/>
</g>
</svg>
