<svg xmlns="http://www.w3.org/2000/svg" width="32.87" height="27.67" viewBox="0 0 32.87 27.67">
	<style type="text/css">
		.st1{stroke:#d82718;fill:none;stroke-width:1.26;stroke-linejoin:round;}
		.st0{fill:#d82718;}
	</style>
	<path class="st0" d="M15.28,22.2L26.05,22.2L24.51,23.59L14.2,23.59C14.05,23.59 13.92,23.56 13.82,23.5C8.52,22.97 4.4,18.84 4.4,13.83C4.4,8.45 9.14,4.1 14.99,4.1C18,4.1 20.63,5.25 22.62,7.09C23.33,7.74 22.27,8.72 21.56,8.07C19.81,6.46 17.56,5.48 14.99,5.48C9.97,5.48 5.91,9.22 5.91,13.83C5.91,18.44 9.97,22.18 14.98,22.18C15.08,22.18 15.18,22.18 15.28,22.2M15.48,18.77L29.93,18.77C30.94,18.77 30.94,20.15 29.93,20.15L14.69,20.15C14.53,20.15 14.4,20.12 14.29,20.06C10.86,19.74 8.17,17.07 8.17,13.83C8.17,10.37 11.22,7.56 14.99,7.56C16.98,7.56 18.66,8.35 19.97,9.56C20.68,10.21 19.61,11.19 18.9,10.53C17.83,9.54 16.51,8.95 14.99,8.95C12.06,8.95 9.68,11.13 9.68,13.83C9.68,16.52 12.04,18.7 14.96,18.71C15.15,18.7 15.33,18.72 15.48,18.77M19.03,15.16L31.48,15.16C32.49,15.16 32.49,16.55 31.48,16.55L19.03,16.55C18.02,16.55 18.02,15.16 19.03,15.16M15.23,27.03L14.99,27.03C7.06,27.03 0.63,21.12 0.63,13.83C0.63,6.54 7.06,0.63 14.99,0.63C19.11,0.63 22.74,2.23 25.43,4.77C26.13,5.43 25.05,6.4 24.35,5.74C21.91,3.44 18.67,2.02 14.99,2.02C7.89,2.02 2.14,7.3 2.14,13.83C2.14,20.36 7.88,25.65 14.98,25.65L15.23,25.64L23.18,25.64C23.35,25.64 23.49,25.68 23.6,25.75L22.17,27.03Z"/>
	<path class="st1" d="M15.28,22.2L26.05,22.2L24.51,23.59L14.2,23.59C14.05,23.59 13.92,23.56 13.82,23.5C8.52,22.97 4.4,18.84 4.4,13.83C4.4,8.45 9.14,4.1 14.99,4.1C18,4.1 20.63,5.25 22.62,7.09C23.33,7.74 22.27,8.72 21.56,8.07C19.81,6.46 17.56,5.48 14.99,5.48C9.97,5.48 5.91,9.22 5.91,13.83C5.91,18.44 9.97,22.18 14.98,22.18C15.08,22.18 15.18,22.18 15.28,22.2ZM15.48,18.77L29.93,18.77C30.94,18.77 30.94,20.15 29.93,20.15L14.69,20.15C14.53,20.15 14.4,20.12 14.29,20.06C10.86,19.74 8.17,17.07 8.17,13.83C8.17,10.37 11.22,7.56 14.99,7.56C16.98,7.56 18.66,8.35 19.97,9.56C20.68,10.21 19.61,11.19 18.9,10.53C17.83,9.54 16.51,8.95 14.99,8.95C12.06,8.95 9.68,11.13 9.68,13.83C9.68,16.52 12.04,18.7 14.96,18.71C15.15,18.7 15.33,18.72 15.48,18.77ZM19.03,15.16L31.48,15.16C32.49,15.16 32.49,16.55 31.48,16.55L19.03,16.55C18.02,16.55 18.02,15.16 19.03,15.16ZM15.23,27.03L14.99,27.03C7.06,27.03 0.63,21.12 0.63,13.83C0.63,6.54 7.06,0.63 14.99,0.63C19.11,0.63 22.74,2.23 25.43,4.77C26.13,5.43 25.05,6.4 24.35,5.74C21.91,3.44 18.67,2.02 14.99,2.02C7.89,2.02 2.14,7.3 2.14,13.83C2.14,20.36 7.88,25.65 14.98,25.65L15.23,25.64L23.18,25.64C23.35,25.64 23.49,25.68 23.6,25.75L22.17,27.03L15.23,27.03Z"/>
</svg>