<svg width="20" height="22" viewBox="0 0 20 22" fill="none" xmlns="http://www.w3.org/2000/svg">
<path d="M14.2933 1.00001C13.649 0.998811 13.0107 1.12937 12.4151 1.38421C11.8194 1.63905 11.2781 2.01318 10.8221 2.48518C10.366 2.95717 10.0042 3.51778 9.75739 4.13491C9.51054 4.75204 9.38348 5.41359 9.38348 6.08169C9.38096 6.90389 9.57404 7.71405 9.94561 8.44039L2.45349 16.2086C2.1623 16.5118 1.99918 16.9224 2 17.3502C2.00083 17.778 2.16553 18.188 2.45788 18.4899C2.75023 18.7918 3.14627 18.961 3.55889 18.9601C3.97151 18.9593 4.3669 18.7885 4.65809 18.4854L5.08847 18.0391L6.75729 19.7695C6.91814 19.918 7.126 20 7.34137 20C7.55675 20 7.76461 19.918 7.92546 19.7695L10.5604 17.0374C10.7061 16.87 10.7867 16.6526 10.7867 16.4272C10.7867 16.2018 10.7061 15.9844 10.5604 15.817L8.90919 14.0867L12.2029 10.6716C12.8555 11.0058 13.5743 11.1773 14.3021 11.1725C15.5672 11.1158 16.7622 10.5546 17.6376 9.60596C18.513 8.65737 19.0011 7.39478 19 6.08188C18.9989 4.76898 18.5086 3.5073 17.6315 2.56033C16.7545 1.61336 15.5585 1.05434 14.2933 1.00001ZM14.2933 8.06701C13.9143 8.06881 13.5432 7.95391 13.2272 7.73686C12.9111 7.51981 12.6644 7.21038 12.5181 6.84777C12.3718 6.48516 12.3326 6.0857 12.4055 5.69999C12.4784 5.31428 12.6601 4.95968 12.9275 4.68111C13.1949 4.40255 13.5361 4.21256 13.9078 4.13521C14.2794 4.05787 14.6649 4.09665 15.0152 4.24664C15.3656 4.39664 15.6652 4.65109 15.876 4.97777C16.0868 5.30445 16.1993 5.68865 16.1993 6.08169C16.197 6.60593 15.9957 7.10815 15.6391 7.47969C15.2824 7.85124 14.7989 8.06223 14.2933 8.06701Z" fill="#C251C0"/>
</svg>
