<svg width="23" height="21" viewBox="0 0 23 21" fill="none" xmlns="http://www.w3.org/2000/svg">
<path d="M21.2865 4.51615C21.338 4.84346 21.3116 5.17853 21.2095 5.49338C21.1075 5.80823 20.9328 6.09374 20.7 6.32609C20.378 6.55963 20.0445 6.51292 18.2045 6.13926C16.1805 5.73056 15.9045 5.6605 15.6285 5.3569C15.2312 4.95878 14.9901 4.42755 14.95 3.86224C14.9328 3.65362 14.8396 3.459 14.6886 3.31647C14.5376 3.17394 14.3397 3.09373 14.1335 3.09155C11.7913 3.14843 9.49335 3.75174 7.41751 4.85478C7.2768 4.93437 7.16241 5.05445 7.08875 5.19989C7.01508 5.34534 6.98542 5.50966 7.00351 5.67217L7.13001 6.58298C7.14493 6.70798 7.13201 6.83478 7.0922 6.95402C7.05239 7.07326 6.98671 7.18191 6.90001 7.27193C6.50901 7.65727 5.99152 8.18273 5.39351 8.82497C4.16301 10.1678 3.87551 10.6349 3.36951 10.5999C2.55301 10.5999 1.94351 9.3154 1.73651 8.52137C1.61434 8.04888 1.59084 7.55567 1.66751 7.07342C1.68463 6.97063 1.71968 6.87177 1.77101 6.78149C2.39201 5.76559 5.91101 0.40584 12.2935 0.0788835C15.3023 -0.0182767 18.2505 0.952038 20.631 2.82298C20.7687 2.92824 20.8695 3.07559 20.9185 3.24336L21.2865 4.51615Z" fill="#D584D1"/>
<path d="M16.1 6.32606C16.137 6.29941 16.1812 6.2851 16.2265 6.2851C16.2718 6.2851 16.3161 6.29941 16.353 6.32606C16.6716 6.71948 17.1009 7.00468 17.5835 7.14345C18.0059 7.25419 18.4491 7.25419 18.8715 7.14345C18.8972 7.13654 18.924 7.13503 18.9503 7.139C18.9766 7.14298 19.0018 7.15235 19.0244 7.16656C19.047 7.18077 19.0666 7.19951 19.0818 7.22164C19.097 7.24376 19.1076 7.26881 19.113 7.29525C19.1198 7.32135 19.1213 7.34858 19.1174 7.37528C19.1135 7.40198 19.1042 7.42758 19.0903 7.45054C19.0763 7.47349 19.0578 7.4933 19.036 7.50876C19.0142 7.52423 18.9896 7.53502 18.9635 7.54047C18.4732 7.66901 17.9588 7.66901 17.4685 7.54047C16.9419 7.37523 16.4691 7.06861 16.1 6.65302C16.0777 6.63223 16.0599 6.60697 16.0477 6.57883C16.0355 6.55068 16.0292 6.52028 16.0292 6.48954C16.0292 6.4588 16.0355 6.42839 16.0477 6.40025C16.0599 6.37211 16.0777 6.34684 16.1 6.32606Z" fill="#D584D1"/>
<path d="M4.20897 2.82297C4.232 2.90004 4.22988 2.9826 4.20294 3.05836C4.176 3.13411 4.12568 3.19899 4.05947 3.24334C2.74227 4.04554 1.73566 5.28195 1.20747 6.74645C0.890674 7.68784 0.7846 8.68911 0.896974 9.67738C0.909761 9.72751 0.911808 9.77984 0.902977 9.83083C0.894147 9.88183 0.874643 9.93031 0.845784 9.973C0.816925 10.0157 0.779382 10.0516 0.735688 10.0783C0.691995 10.105 0.643169 10.1219 0.592507 10.1278C0.541844 10.1337 0.490523 10.1285 0.442009 10.1125C0.393496 10.0966 0.348918 10.0702 0.311285 10.0353C0.273652 10.0003 0.24384 9.95761 0.223861 9.90997C0.203883 9.86232 0.194203 9.81088 0.195474 9.75912C0.0601809 8.65299 0.178248 7.53008 0.540474 6.47788C1.1193 4.85544 2.23244 3.48592 3.69147 2.60111C3.7312 2.57622 3.77548 2.55977 3.82165 2.55277C3.86781 2.54576 3.9149 2.54834 3.96005 2.56035C4.00521 2.57236 4.04749 2.59355 4.08435 2.62263C4.1212 2.65171 4.15187 2.68809 4.17447 2.72956L4.20897 2.82297Z" fill="#D584D1"/>
<path d="M22.655 16.8354C21.7404 13.406 19.5948 10.4485 16.6405 8.54469C16.4977 8.44944 16.328 8.40432 16.1575 8.41625L8.5215 8.54469C8.35687 8.54006 8.19404 8.58039 8.05 8.66146C7.05933 9.40147 6.1426 10.2384 5.313 11.1603C3.9215 12.7017 2.3575 14.5 2.1965 16.9171C2.0843 17.7975 2.27963 18.69 2.7485 19.4394C3.07314 19.9039 3.50832 20.2775 4.0135 20.5253C4.13949 20.597 4.28346 20.6295 4.4275 20.6187L21.068 20.4903C21.2388 20.4906 21.4062 20.442 21.551 20.3502C22.1093 19.9887 22.5282 19.4434 22.7376 18.8056C22.947 18.1678 22.9341 17.4763 22.701 16.8471L22.655 16.8354ZM9.0505 19.1708C8.87764 19.1708 8.70866 19.1187 8.56493 19.0212C8.4212 18.9237 8.30918 18.7851 8.24303 18.6229C8.17688 18.4608 8.15957 18.2823 8.1933 18.1102C8.22702 17.938 8.31026 17.7799 8.43249 17.6558C8.55472 17.5317 8.71045 17.4472 8.87999 17.4129C9.04953 17.3787 9.22526 17.3963 9.38497 17.4634C9.54467 17.5306 9.68117 17.6443 9.77721 17.7903C9.87324 17.9362 9.9245 18.1078 9.9245 18.2833C9.90188 18.5033 9.80024 18.707 9.63901 18.8556C9.47778 19.0043 9.26826 19.0874 9.0505 19.089V19.1708ZM9.0505 16.0297C8.93627 16.0312 8.82288 16.0097 8.7169 15.9664C8.61093 15.9231 8.51449 15.8588 8.43317 15.7773C8.35186 15.6958 8.2873 15.5988 8.24324 15.4917C8.19918 15.3847 8.17649 15.2699 8.1765 15.1539C8.17422 14.9779 8.22353 14.8052 8.31817 14.6577C8.41281 14.5102 8.5485 14.3947 8.70799 14.3257C8.86748 14.2567 9.04356 14.2375 9.21385 14.2704C9.38414 14.3033 9.54095 14.3869 9.66433 14.5105C9.78771 14.6342 9.8721 14.7923 9.90677 14.9647C9.94144 15.1372 9.92481 15.3162 9.85901 15.4791C9.79321 15.6419 9.68121 15.7812 9.53724 15.8792C9.39328 15.9773 9.22385 16.0296 9.0505 16.0297ZM9.0505 13.0871C8.93276 13.0871 8.81622 13.0631 8.70787 13.0163C8.59952 12.9695 8.50159 12.901 8.41997 12.8149C8.33834 12.7287 8.2747 12.6267 8.23286 12.5149C8.19102 12.4032 8.17185 12.284 8.1765 12.1646C8.1765 11.9292 8.26858 11.7035 8.43249 11.537C8.5964 11.3706 8.8187 11.2771 9.0505 11.2771C9.2823 11.2771 9.50461 11.3706 9.66851 11.537C9.83242 11.7035 9.9245 11.9292 9.9245 12.1646C9.91002 12.3908 9.81193 12.6031 9.64987 12.759C9.4878 12.9149 9.27373 13.0028 9.0505 13.0053V13.0871ZM12.328 19.1708C12.1551 19.1708 11.9862 19.1187 11.8424 19.0212C11.6987 18.9237 11.5867 18.7851 11.5205 18.6229C11.4544 18.4608 11.4371 18.2823 11.4708 18.1102C11.5045 17.938 11.5878 17.7799 11.71 17.6558C11.8322 17.5317 11.988 17.4472 12.1575 17.4129C12.327 17.3787 12.5028 17.3963 12.6625 17.4634C12.8222 17.5306 12.9587 17.6443 13.0547 17.7903C13.1507 17.9362 13.202 18.1078 13.202 18.2833C13.1794 18.5033 13.0777 18.707 12.9165 18.8556C12.7553 19.0043 12.5458 19.0874 12.328 19.089V19.1708ZM12.328 16.0297C12.2143 16.0312 12.1015 16.0097 11.9961 15.9662C11.8908 15.9227 11.7951 15.8583 11.7147 15.7767C11.6343 15.695 11.5708 15.5978 11.528 15.4909C11.4852 15.3839 11.464 15.2693 11.4655 15.1539C11.464 15.0379 11.4852 14.9228 11.5278 14.8152C11.5705 14.7075 11.6338 14.6096 11.714 14.5271C11.7943 14.4445 11.8899 14.3789 11.9953 14.3342C12.1007 14.2895 12.2138 14.2664 12.328 14.2664C12.5598 14.2664 12.7821 14.3599 12.946 14.5264C13.1099 14.6928 13.202 14.9185 13.202 15.1539C13.1817 15.3737 13.0804 15.5777 12.9184 15.7249C12.7563 15.8722 12.5454 15.9518 12.328 15.9479V16.0297ZM12.328 13.0871C12.2137 13.0826 12.1014 13.0551 11.9977 13.0061C11.8939 12.9571 11.8008 12.8877 11.7238 12.8019C11.6467 12.716 11.5872 12.6154 11.5488 12.506C11.5104 12.3966 11.4938 12.2806 11.5 12.1646C11.4985 12.0491 11.5197 11.9345 11.5625 11.8276C11.6053 11.7206 11.6688 11.6234 11.7492 11.5418C11.8296 11.4602 11.9253 11.3957 12.0306 11.3523C12.136 11.3088 12.2488 11.2872 12.3625 11.2888C12.4767 11.2872 12.5901 11.3088 12.6961 11.3521C12.8021 11.3954 12.8985 11.4597 12.9798 11.5411C13.0611 11.6226 13.1257 11.7197 13.1698 11.8267C13.2138 11.9337 13.2365 12.0486 13.2365 12.1646C13.2246 12.3979 13.1225 12.6171 12.9524 12.7745C12.7823 12.9319 12.5579 13.0149 12.328 13.0053V13.0871ZM15.778 19.1708C15.6051 19.1708 15.4362 19.1187 15.2924 19.0212C15.1487 18.9237 15.0367 18.7851 14.9705 18.6229C14.9044 18.4608 14.8871 18.2823 14.9208 18.1102C14.9545 17.938 15.0378 17.7799 15.16 17.6558C15.2822 17.5317 15.438 17.4472 15.6075 17.4129C15.777 17.3787 15.9528 17.3963 16.1125 17.4634C16.2722 17.5306 16.4087 17.6443 16.5047 17.7903C16.6007 17.9362 16.652 18.1078 16.652 18.2833C16.6305 18.4955 16.5355 18.6931 16.3838 18.8407C16.2321 18.9883 16.0337 19.0763 15.824 19.089L15.778 19.1708ZM15.778 16.0297C15.6643 16.0312 15.5515 16.0097 15.4461 15.9662C15.3408 15.9227 15.2451 15.8583 15.1647 15.7767C15.0843 15.695 15.0208 15.5978 14.978 15.4909C14.9352 15.3839 14.914 15.2693 14.9155 15.1539C14.914 15.0379 14.9352 14.9228 14.9778 14.8152C15.0205 14.7075 15.0838 14.6096 15.164 14.5271C15.2443 14.4445 15.3399 14.3789 15.4453 14.3342C15.5507 14.2895 15.6638 14.2664 15.778 14.2664C16.0098 14.2664 16.2321 14.3599 16.396 14.5264C16.5599 14.6928 16.652 14.9185 16.652 15.1539C16.6326 15.3658 16.5378 15.5633 16.3854 15.7094C16.233 15.8555 16.0335 15.9403 15.824 15.9479L15.778 16.0297ZM15.778 13.0871C15.6637 13.0826 15.5514 13.0551 15.4477 13.0061C15.3439 12.9571 15.2508 12.8877 15.1738 12.8019C15.0967 12.716 15.0372 12.6154 14.9988 12.506C14.9604 12.3966 14.9438 12.2806 14.95 12.1646C14.9485 12.0491 14.9697 11.9345 15.0125 11.8276C15.0553 11.7206 15.1188 11.6234 15.1992 11.5418C15.2796 11.4602 15.3753 11.3957 15.4806 11.3523C15.586 11.3088 15.6988 11.2872 15.8125 11.2888C15.9267 11.2872 16.0401 11.3088 16.1461 11.3521C16.2521 11.3954 16.3485 11.4597 16.4298 11.5411C16.5111 11.6226 16.5757 11.7197 16.6198 11.8267C16.6638 11.9337 16.6865 12.0486 16.6865 12.1646C16.6748 12.3897 16.5792 12.602 16.419 12.7581C16.2588 12.9143 16.0461 13.0027 15.824 13.0053L15.778 13.0871Z" fill="#D584D1"/>
</svg>
