<svg width="20" height="21" viewBox="0 0 20 21" fill="none" xmlns="http://www.w3.org/2000/svg">
<path d="M9.88 0.217285C7.92593 0.217285 6.01573 0.809334 4.39097 1.91856C2.76621 3.02779 1.49987 4.60438 0.752075 6.44896C0.00428087 8.29354 -0.191376 10.3233 0.189846 12.2815C0.571068 14.2397 1.51205 16.0384 2.89379 17.4502C4.27553 18.8619 6.03598 19.8234 7.95251 20.2129C9.86904 20.6024 11.8556 20.4025 13.6609 19.6384C15.4663 18.8744 17.0093 17.5805 18.0949 15.9204C19.1806 14.2604 19.76 12.3086 19.76 10.3121C19.76 7.63477 18.7191 5.06712 16.8662 3.17398C15.0134 1.28084 12.5003 0.217285 9.88 0.217285ZM6.12 5.41794C6.55291 5.42599 6.97386 5.56437 7.33013 5.81576C7.68641 6.06714 7.96216 6.42035 8.12285 6.83114C8.28355 7.24193 8.32203 7.69204 8.23349 8.12508C8.14494 8.55811 7.93331 8.95482 7.62509 9.26552C7.31688 9.57622 6.92579 9.78709 6.50081 9.87171C6.07583 9.95633 5.63586 9.91095 5.23601 9.74124C4.83617 9.57153 4.49422 9.28504 4.25301 8.91767C4.0118 8.55029 3.88204 8.11836 3.88 7.67598C3.87998 7.37685 3.93812 7.0807 4.05105 6.80473C4.16399 6.52875 4.32946 6.27845 4.53787 6.06837C4.74627 5.85828 4.99346 5.6926 5.26506 5.58094C5.53666 5.46928 5.82727 5.41388 6.12 5.41794ZM15.12 13.9392C14.4709 14.7091 13.6687 15.3287 12.7669 15.757C11.8651 16.1853 10.8843 16.4123 9.88987 16.4229C8.89545 16.4335 7.91022 16.2275 6.99981 15.8187C6.08941 15.4098 5.27471 14.8074 4.61 14.0516C4.49398 13.9264 4.42141 13.7658 4.40347 13.5944C4.38552 13.4229 4.42318 13.2502 4.51067 13.1028C4.59815 12.9554 4.73061 12.8414 4.88767 12.7784C5.04474 12.7154 5.21772 12.7068 5.38 12.754C6.84981 13.1399 8.3625 13.3288 9.88 13.316C11.3813 13.2927 12.8734 13.073 14.32 12.6621C14.4823 12.6038 14.6591 12.6027 14.8221 12.659C14.9851 12.7153 15.1249 12.8257 15.2193 12.9727C15.3136 13.1197 15.3571 13.2948 15.3427 13.4699C15.3284 13.6451 15.257 13.8103 15.14 13.9392H15.12ZM13.62 9.91359C13.1872 9.90152 12.7675 9.75924 12.4135 9.50458C12.0595 9.24992 11.7869 8.89419 11.6299 8.48195C11.4728 8.06971 11.4383 7.61929 11.5307 7.1871C11.623 6.75492 11.8381 6.36019 12.149 6.05234C12.46 5.7445 12.8529 5.53724 13.2786 5.45652C13.7042 5.37579 14.1438 5.4252 14.5421 5.59854C14.9404 5.77189 15.2799 6.06147 15.5178 6.43101C15.7558 6.80055 15.8818 7.23362 15.88 7.67598C15.8774 7.97338 15.8173 8.26733 15.7032 8.54094C15.5891 8.81455 15.4232 9.06243 15.2151 9.27035C15.0069 9.47827 14.7606 9.64213 14.4903 9.75251C14.22 9.8629 13.9311 9.91764 13.64 9.91359H13.62Z" fill="#C251C0"/>
</svg>
