<svg width="19" height="17" viewBox="0 0 19 17" fill="none" xmlns="http://www.w3.org/2000/svg">
<path d="M5.55856 5.0742C6.96534 4.11217 8.37211 3.45408 9.77888 1.4748C11.4364 -0.857296 12.1235 0.0317298 12.5924 1.04896C13.0614 2.06619 11.4983 4.25577 11.1857 4.41611L15.8749 4.41611C16.6564 4.41611 18.2195 4.6484 18.2195 5.85916C18.2195 7.06992 16.9691 7.30221 16.3438 7.30221C16.3438 7.30221 17.7506 7.48081 17.7506 9.22628C17.7506 10.1883 16.8128 10.509 16.3438 10.6693C16.3438 10.6693 17.2817 11.1503 17.2817 12.1124C17.2817 13.5554 16.0312 13.3951 15.406 13.5554C15.406 13.5554 16.2363 13.8381 15.8749 14.9433C15.5135 16.0485 14.4681 16.1376 13.5303 16.1376L7.90319 16.1376H5.55856H2.40039C1.29582 16.1376 0.400391 15.2422 0.400391 14.1376V7.0742C0.400391 5.96964 1.29582 5.0742 2.40039 5.0742H5.55856Z" fill="#CCF0F4"/>
</svg>
