<svg width="18" height="16" viewBox="0 0 18 16" fill="none" xmlns="http://www.w3.org/2000/svg">
<path d="M17.801 8.46856C18.0267 8.22056 18.0267 7.84155 17.801 7.59355L11.7666 0.963614C11.3669 0.524395 10.636 0.807212 10.636 1.40112V4.02911C10.636 4.38808 10.345 4.67908 9.986 4.67908H9.02796C4.04189 4.67908 0 8.72889 0 13.7247V15.2913C0 15.6664 0.461629 15.8451 0.714239 15.5678C3.14257 12.902 6.57853 11.383 10.1808 11.383C10.4322 11.383 10.636 11.5868 10.636 11.8382V14.661C10.636 15.2549 11.3669 15.5377 11.7666 15.0985L17.801 8.46856Z" fill="#CCF0F4"/>
</svg>
