<svg width="24" height="16" viewBox="0 0 24 16" fill="none" xmlns="http://www.w3.org/2000/svg">
<g clip-path="url(#clip0)">
<path d="M23.4705 6.7159C22.3206 5.15264 20.8928 3.81435 19.2585 2.7679C17.1332 1.39763 14.681 0.618875 12.1545 0.511902C9.19929 0.567858 6.33963 1.56874 3.99452 3.3679C2.73884 4.2955 1.64769 5.42721 0.766522 6.7159C0.463314 7.09724 0.28334 7.56182 0.250522 8.0479C0.242215 8.42483 0.333265 8.79731 0.514522 9.1279C1.42091 10.4081 2.52699 11.5344 3.79052 12.4639C6.21894 14.3204 9.19379 15.3205 12.2505 15.3079C15.6585 15.2479 17.9145 13.8679 20.3385 12.3679C21.6175 11.4564 22.7093 10.3076 23.5545 8.9839C23.7741 8.62368 23.8788 8.20509 23.8545 7.7839C23.824 7.40004 23.6914 7.03131 23.4705 6.7159ZM12.0945 12.8719C11.1452 12.8719 10.2171 12.5904 9.42778 12.063C8.63843 11.5355 8.0232 10.7859 7.6599 9.90878C7.2966 9.0317 7.20154 8.06658 7.38675 7.13547C7.57196 6.20436 8.02912 5.34908 8.70041 4.67779C9.3717 4.0065 10.227 3.54934 11.1581 3.36413C12.0892 3.17892 13.0543 3.27398 13.9314 3.63728C14.8085 4.00058 15.5581 4.61581 16.0856 5.40516C16.613 6.19452 16.8945 7.12255 16.8945 8.0719C16.8945 9.34494 16.3888 10.5658 15.4886 11.466C14.5885 12.3662 13.3676 12.8719 12.0945 12.8719Z" fill="#CCF0F4"/>
<path d="M15.0959 8.47988C14.9874 9.02309 14.7335 9.52667 14.3613 9.93689C13.9891 10.3471 13.5125 10.6486 12.9823 10.8092C12.4522 10.9698 11.8884 10.9835 11.3511 10.8488C10.8138 10.7141 10.3231 10.4361 9.93141 10.0444C9.53972 9.65269 9.2617 9.16202 9.127 8.62471C8.9923 8.08741 9.00599 7.52361 9.16658 6.99347C9.32718 6.46333 9.62867 5.98672 10.0389 5.61449C10.4491 5.24226 10.9527 4.98836 11.4959 4.87988C11.5632 4.86422 11.633 4.8629 11.7009 4.87601C11.7687 4.88913 11.833 4.91638 11.8896 4.956C11.9462 4.99563 11.9938 5.04672 12.0294 5.10597C12.0649 5.16522 12.0876 5.23129 12.0959 5.29988C12.1577 5.94867 12.4367 6.55758 12.8879 7.02788C13.3697 7.5069 14.0004 7.80742 14.6759 7.87988C14.7453 7.88631 14.8125 7.90776 14.8727 7.94277C14.933 7.97777 14.9849 8.02548 15.0249 8.08258C15.0649 8.13968 15.0919 8.2048 15.1042 8.27341C15.1165 8.34202 15.1136 8.41248 15.0959 8.47988Z" fill="#CCF0F4"/>
</g>
<defs>
<clipPath id="clip0">
<rect y="0.19989" width="24" height="15.456" fill="white"/>
</clipPath>
</defs>
</svg>
