<?xml version="1.0" encoding="utf-8"?>
<!-- Generator: Adobe Illustrator 22.0.1, SVG Export Plug-In . SVG Version: 6.00 Build 0)  -->
<svg version="1.1" id="Слой_1" focusable="false"
	 xmlns="http://www.w3.org/2000/svg" xmlns:xlink="http://www.w3.org/1999/xlink" x="0px" y="0px" viewBox="0 0 25 25"
	 style="enable-background:new 0 0 25 25;" xml:space="preserve">
<style type="text/css">
	.st0{fill:#FFAB00;}
</style>
<path class="st0" d="M22.7,12.5h-3.9V9.4c0-1.7,1.4-3.1,3.1-3.1h0.4c0.6,0,1.2-0.5,1.2-1.2V2.7c0-0.6-0.5-1.2-1.2-1.2h-0.4
	c-4.3,0-7.8,3.5-7.8,7.8v11.7c0,1.3,1,2.3,2.3,2.3h6.2c1.3,0,2.3-1,2.3-2.3v-6.2C25,13.5,24,12.5,22.7,12.5z M8.6,12.5H4.7V9.4
	c0-1.7,1.4-3.1,3.1-3.1h0.4c0.6,0,1.2-0.5,1.2-1.2V2.7c0-0.6-0.5-1.2-1.2-1.2H7.8C3.5,1.6,0,5.1,0,9.4v11.7c0,1.3,1,2.3,2.3,2.3h6.2
	c1.3,0,2.3-1,2.3-2.3v-6.2C10.9,13.5,9.9,12.5,8.6,12.5z"/>
</svg>
