<svg width="14" height="21" viewBox="0 0 14 21" fill="none" xmlns="http://www.w3.org/2000/svg">
<path d="M11.4414 20.9942C10.3691 20.9676 9.36589 20.8745 8.4319 20.7149C7.50655 20.5552 6.73254 20.4266 6.10988 20.329C5.49587 20.2226 5.18886 20.1694 5.18886 20.1694C5.18886 20.1694 5.20616 20.298 5.24075 20.5552C5.16291 20.6262 4.92509 20.6528 4.52728 20.635C4.12947 20.6262 3.67544 20.5907 3.1652 20.5286C2.66361 20.4754 2.22689 20.4089 1.85502 20.329C1.48315 20.2403 1.28857 20.1605 1.27127 20.0896C1.27127 19.6727 1.28857 18.9542 1.32316 17.9342C1.3664 16.9054 1.38802 16.0495 1.38802 15.3665C1.40532 15.0029 1.41829 14.4441 1.42694 13.6902C1.44423 12.9983 1.44856 11.832 1.43991 10.1911C1.43991 8.78973 1.44423 7.54356 1.45288 6.4526C1.46153 5.36165 1.48747 4.27069 1.53071 3.17974C1.57395 2.07991 1.64746 1.46348 1.75124 1.33043C1.84637 1.27722 2.09716 1.25948 2.50362 1.27722C2.91873 1.29496 3.37708 1.3393 3.87867 1.41026C4.38891 1.47235 4.82996 1.5433 5.20183 1.62313C5.58235 1.70296 5.77261 1.77835 5.77261 1.8493C5.77261 1.92026 5.74234 2.27061 5.6818 2.90035C5.62991 3.52121 5.56073 4.27513 5.47425 5.16208C5.30993 6.31513 5.15859 7.45043 5.02022 8.56799C5.14129 8.55912 5.56073 8.53252 6.27852 8.48817C6.99631 8.44382 7.73572 8.41278 8.49676 8.39504C9.26644 8.3773 10.114 8.38617 11.0393 8.42165C11.9733 8.45712 12.5441 8.55026 12.7516 8.70104C12.9851 8.96712 13.1927 9.73434 13.3743 11.0027C13.5559 12.271 13.7072 13.5394 13.8283 14.8077C13.958 16.0761 14.0142 17.3178 13.9969 18.5329C13.9883 19.7481 13.9105 20.4399 13.7634 20.6084C13.2878 20.9011 12.5138 21.0297 11.4414 20.9942ZM8.65242 11.5748C7.96922 11.5836 7.23846 11.6324 6.46013 11.7211C5.6818 11.8098 4.95536 11.9118 4.28081 12.0271C4.0819 12.1158 3.93921 12.4484 3.85273 13.0249C3.7749 13.5926 3.7403 14.1514 3.74895 14.7013C3.76625 15.2512 3.8484 15.6104 3.99542 15.7789C4.28946 15.9918 4.82996 16.2002 5.61694 16.4042C6.41257 16.6082 7.13036 16.759 7.77032 16.8566C8.41028 16.9542 9.10212 16.963 9.84586 16.8832C10.088 16.83 10.2739 16.5905 10.4037 16.1648C10.542 15.7302 10.6155 15.1581 10.6242 14.4485C10.6415 13.7301 10.6112 13.1092 10.5334 12.5859C10.4642 12.0626 10.3604 11.7655 10.2221 11.6945C9.86748 11.5969 9.34427 11.557 8.65242 11.5748ZM3.24304 4.56339C1.40099 4.80287 0.397813 4.91817 0.233499 4.9093C0.0778329 4.90043 0 4.87382 0 4.82947C0.0172962 4.182 0.0432405 3.50348 0.0778329 2.79391C0.112425 2.08435 0.142694 1.5433 0.168638 1.17078C1.0248 1.09096 2.33499 0.971217 4.0992 0.811565C5.87206 0.643043 7.65357 0.465652 9.44372 0.279391C11.2339 0.0931304 12.2327 0 12.4403 0C12.5441 0.0266087 12.6089 0.221739 12.6349 0.585391C12.6608 0.940173 12.6565 1.35704 12.6219 1.836C12.596 2.30609 12.5484 2.72295 12.4792 3.08661C12.41 3.45026 12.3279 3.65426 12.2327 3.69861C11.9646 3.70748 11.5712 3.74739 11.0523 3.81834C10.5334 3.88043 9.24914 4.00017 7.19954 4.17756C6.40392 4.1953 5.08508 4.32391 3.24304 4.56339Z" fill="#C251C0"/>
</svg>
