<svg width="24" height="24" viewBox="0 0 24 24" fill="none" xmlns="http://www.w3.org/2000/svg">
<path d="M18.7155 21.0001H5.28453C5.20664 21.0001 5.13217 20.9696 5.07873 20.9156C5.02529 20.8616 4.99686 20.789 5.00028 20.7143L5.63984 7.82799C5.64723 7.68236 5.77174 7.56836 5.9241 7.56836H18.0759C18.2277 7.56836 18.3528 7.68236 18.3602 7.82799L18.9997 20.7143C19.0031 20.789 18.9753 20.8616 18.9213 20.9156C18.8673 20.9696 18.7928 21.0001 18.7155 21.0001ZM5.58242 20.4547H18.417L17.8047 8.11381H6.1947L5.58242 20.4547Z" fill="black"/>
<path d="M15.0724 9.20453C14.9155 9.20453 14.7881 9.08234 14.7881 8.9318V6.2209C14.7881 4.74599 13.5374 3.54545 11.9996 3.54545C10.4618 3.54545 9.21108 4.74599 9.21108 6.2209V8.9318C9.21108 9.08234 9.08374 9.20453 8.92683 9.20453C8.76992 9.20453 8.64258 9.08234 8.64258 8.9318V6.2209C8.64258 4.4449 10.1485 3 11.9996 3C13.8507 3 15.3566 4.4449 15.3566 6.2209V8.9318C15.3566 9.08234 15.2298 9.20453 15.0724 9.20453Z" fill="black"/>
</svg>
