<svg width="34" height="33" viewBox="0 0 34 33" fill="none" xmlns="http://www.w3.org/2000/svg">
<path d="M9.45597 22.1719C8.54003 22.1719 7.64466 22.444 6.88308 22.954C6.1215 23.4639 5.52793 24.1886 5.17741 25.0366C4.8269 25.8846 4.73519 26.8176 4.91388 27.7178C5.09257 28.618 5.53364 29.4449 6.1813 30.0939C6.82897 30.7429 7.65415 31.1849 8.55249 31.364C9.45083 31.543 10.382 31.4511 11.2282 31.0999C12.0744 30.7486 12.7977 30.1538 13.3066 29.3907C13.8154 28.6275 14.0871 27.7303 14.0871 26.8125C14.0871 25.5817 13.5991 24.4014 12.7306 23.5311C11.8621 22.6608 10.6842 22.1719 9.45597 22.1719ZM9.45597 29.3906C8.94712 29.3906 8.44969 29.2394 8.02659 28.9561C7.60349 28.6728 7.27373 28.2702 7.07899 27.7991C6.88426 27.328 6.83331 26.8096 6.93259 26.3095C7.03186 25.8094 7.2769 25.35 7.63671 24.9895C7.99653 24.6289 8.45496 24.3834 8.95404 24.2839C9.45312 24.1844 9.97043 24.2355 10.4405 24.4306C10.9107 24.6258 11.3125 24.9562 11.5952 25.3802C11.8779 25.8041 12.0288 26.3026 12.0288 26.8125C12.0288 27.1511 11.9622 27.4863 11.833 27.7991C11.7037 28.1119 11.5141 28.3961 11.2752 28.6355C11.0363 28.8749 10.7527 29.0648 10.4405 29.1944C10.1284 29.3239 9.79384 29.3906 9.45597 29.3906Z" fill="#FFC100"/>
<path d="M12.5434 20.625L11.834 18.8478C11.6261 18.3271 11.5873 17.754 11.723 17.21C11.8163 16.8362 11.8113 16.4446 11.7087 16.0732C11.6061 15.7019 11.4092 15.3635 11.1373 15.0911C10.9305 14.8838 10.6851 14.7195 10.4149 14.6073C10.1447 14.4952 9.85518 14.4375 9.56275 14.4375H9.34921C9.05678 14.4375 8.76722 14.4952 8.49705 14.6073C8.22689 14.7195 7.98141 14.8838 7.77464 15.0911C7.50274 15.3635 7.30589 15.7019 7.20325 16.0732C7.10061 16.4446 7.09568 16.8362 7.18894 17.21C7.32467 17.754 7.28585 18.3271 7.07798 18.8478L6.36859 20.625C7.3272 21.1053 8.38423 21.3553 9.45598 21.3553C10.5277 21.3553 11.5848 21.1053 12.5434 20.625V20.625Z" fill="white"/>
<path d="M26.4366 31.4531H20.2618C19.443 31.4531 18.6577 31.1272 18.0787 30.547C17.4997 29.9668 17.1745 29.1799 17.1745 28.3594V16.9169C17.1744 15.6319 17.523 14.3711 18.1827 13.2692L18.7181 12.375H27.9803L28.5157 13.2692C29.1755 14.3711 29.524 15.6319 29.524 16.9169V28.3594C29.524 29.1799 29.1987 29.9668 28.6197 30.547C28.0407 31.1272 27.2554 31.4531 26.4366 31.4531Z" fill="#FFC100"/>
<path d="M19.2327 8.25H27.4657C27.7387 8.25 28.0005 8.35865 28.1935 8.55205C28.3865 8.74544 28.4949 9.00775 28.4949 9.28125V12.375H18.2036V9.28125C18.2036 9.00775 18.312 8.74544 18.505 8.55205C18.698 8.35865 18.9598 8.25 19.2327 8.25Z" fill="white"/>
<path d="M27.4657 8.25H19.2327C19.2327 7.75957 19.3291 7.27395 19.5164 6.82085C19.7037 6.36776 19.9782 5.95607 20.3243 5.60929L20.5632 5.36985C21.0292 4.90294 21.291 4.26968 21.291 3.60938C21.291 3.06237 21.5078 2.53776 21.8938 2.15097C22.2798 1.76417 22.8033 1.54688 23.3492 1.54688C23.8951 1.54688 24.4186 1.76417 24.8046 2.15097C25.1906 2.53776 25.4075 3.06237 25.4075 3.60938C25.4075 4.26968 25.6693 4.90294 26.1352 5.36985L26.3742 5.60929C26.7202 5.95607 26.9948 6.36776 27.1821 6.82085C27.3694 7.27395 27.4657 7.75957 27.4657 8.25Z" fill="#FFC100"/>
<path d="M13.8691 23.4303L13.3257 23.5293C10.7669 23.9955 8.14511 23.9955 5.58627 23.5293L5.04289 23.4303C4.69293 23.3666 4.37641 23.1818 4.1485 22.9081C3.9206 22.6345 3.79577 22.2894 3.79578 21.9329C3.79578 21.71 3.84465 21.4898 3.93893 21.2879C4.03322 21.086 4.17062 20.9073 4.34141 20.7645C4.51221 20.6217 4.71223 20.5182 4.92734 20.4613C5.14245 20.4045 5.36739 20.3957 5.58627 20.4356C8.14511 20.9018 10.7669 20.9018 13.3257 20.4356C13.5446 20.3957 13.7695 20.4045 13.9846 20.4613C14.1997 20.5182 14.3998 20.6217 14.5706 20.7645C14.7414 20.9073 14.8788 21.086 14.973 21.2879C15.0673 21.4898 15.1162 21.71 15.1162 21.9329C15.1162 22.2894 14.9914 22.6345 14.7635 22.9081C14.5356 23.1818 14.219 23.3666 13.8691 23.4303V23.4303Z" fill="#FFC100"/>
</svg>
