<svg width="25" height="25" viewBox="0 0 25 25" fill="none" xmlns="http://www.w3.org/2000/svg">
<path d="M21.1448 15.8248H2.74466L1.53239 22.128H22.3571L21.1448 15.8248ZM3.07104 20.8537L3.79374 17.099H20.0957L20.8184 20.8537H3.07104Z" fill="#FFC100"/>
<path d="M3.17736 25C4.83081 25 6.17119 23.6569 6.17119 22C6.17119 20.3431 4.83081 19 3.17736 19C1.52392 19 0.183533 20.3431 0.183533 22C0.183533 23.6569 1.52392 25 3.17736 25Z" fill="#FFC100"/>
<path d="M12.1589 25C13.8123 25 15.1527 23.6569 15.1527 22C15.1527 20.3431 13.8123 19 12.1589 19C10.5054 19 9.16502 20.3431 9.16502 22C9.16502 23.6569 10.5054 25 12.1589 25Z" fill="#FFC100"/>
<path d="M21.1403 25C22.7938 25 24.1342 23.6569 24.1342 22C24.1342 20.3431 22.7938 19 21.1403 19C19.4869 19 18.1465 20.3431 18.1465 22C18.1465 23.6569 19.4869 25 21.1403 25Z" fill="#FFC100"/>
<path d="M21.1639 17.1776H1.93083C0.60624 13.5418 1.53239 13.0108 1.53239 9.87835V2.76391C1.53239 1.98026 2.1682 0.975747 4.08409 0.419334C5.23099 0.117046 6.41445 -0.0230601 7.60008 0.00308593C9.86354 0.00308593 10.3934 0.236694 10.4082 3.6134V3.75994C10.4058 4.35029 10.4455 4.94005 10.5269 5.52474C10.777 7.24283 11.4319 8.56378 12.5233 9.632C13.0359 10.1237 13.6059 10.5516 14.2209 10.9062C14.24 10.919 14.2569 10.9296 14.276 10.9402C15.7659 11.8067 17.9404 12.1762 19.6676 12.7114C20.0243 12.8208 20.3751 12.9484 20.7188 13.0937C20.9752 13.2013 21.2219 13.3306 21.4564 13.4802C21.88 13.7231 22.2003 14.1128 22.3571 14.576C22.9378 16.5574 21.1639 17.1776 21.1639 17.1776V17.1776Z" fill="white"/>
<path d="M21.1647 17.1781H15.1259C15.9546 14.7207 17.2752 13.3805 19.6682 12.7114C20.0249 12.8208 20.3758 12.9484 20.7195 13.0937C20.9759 13.2014 21.2227 13.3307 21.4572 13.4803C21.8808 13.7232 22.2012 14.113 22.358 14.5763C22.9388 16.5579 21.1647 17.1781 21.1647 17.1781V17.1781Z" fill="white"/>
<path d="M10.9359 17.1776H1.93083C0.60624 13.5418 1.53239 13.0108 1.53239 9.87836V2.76392C1.53239 1.98027 2.1682 0.975755 4.08409 0.419342C4.30026 10.662 5.66936 13.0257 6.92189 14.2766C7.89043 15.245 8.91831 16.2686 10.9359 17.1776V17.1776Z" fill="#FFC100"/>
<path d="M22.568 16.5415H1.32152C0.970374 16.5415 0.685715 16.8267 0.685715 17.1786C0.685715 17.5305 0.970374 17.8157 1.32152 17.8157H22.568C22.9191 17.8157 23.2038 17.5305 23.2038 17.1786C23.2038 16.8267 22.9191 16.5415 22.568 16.5415Z" fill="#FFC100"/>
</svg>
