<?xml version="1.0" encoding="iso-8859-1"?>
<!-- Generator: Adobe Illustrator 19.0.0, SVG Export Plug-In . SVG Version: 6.00 Build 0)  -->
<svg version="1.1" id="Layer_1" xmlns="http://www.w3.org/2000/svg" xmlns:xlink="http://www.w3.org/1999/xlink" x="0px" y="0px"
	 viewBox="0 0 512.017 512.017" style="enable-background:new 0 0 512.017 512.017;" xml:space="preserve">
<g transform="translate(0 -1)">
	<g>
		<g>
			<path d="M392.512,128.748v-3.081L276.828,1.017h-3.182c-0.118-0.007-0.235,0.002-0.353,0H0.038v512h392.474V129.175
				C392.516,129.033,392.516,128.891,392.512,128.748z M364.415,120.484h-82.779V31.29L364.415,120.484z M17.105,495.951V18.084
				H264.57v110.933c0,4.713,3.82,8.533,8.533,8.533h102.342v358.4H17.105z"/>
			<path d="M341.312,222.884h-128c-4.713,0-8.533,3.82-8.533,8.533s3.821,8.533,8.533,8.533h128c4.713,0,8.533-3.82,8.533-8.533
				S346.025,222.884,341.312,222.884z"/>
			<path d="M213.312,205.817h110.933c4.713,0,8.533-3.82,8.533-8.533s-3.82-8.533-8.533-8.533H213.312
				c-4.713,0-8.533,3.82-8.533,8.533S208.599,205.817,213.312,205.817z"/>
			<path d="M141.566,190.451c-3.773-2.823-9.121-2.053-11.945,1.72l-19.639,26.247l-10.102-10.102
				c-3.332-3.332-8.735-3.332-12.068,0s-3.332,8.735,0,12.068l17.067,17.067c3.675,3.675,9.753,3.239,12.866-0.922l25.54-34.133
				C146.11,198.623,145.34,193.275,141.566,190.451z"/>
			<path d="M110.912,146.084c-37.703,0-68.267,30.564-68.267,68.267c0,37.703,30.564,68.267,68.267,68.267
				s68.267-30.564,68.267-68.267C179.179,176.648,148.615,146.084,110.912,146.084z M110.912,265.551
				c-28.277,0-51.2-22.923-51.2-51.2c0-28.277,22.923-51.2,51.2-51.2s51.2,22.923,51.2,51.2
				C162.112,242.628,139.189,265.551,110.912,265.551z"/>
			<path d="M341.312,402.084h-128c-4.713,0-8.533,3.82-8.533,8.533s3.821,8.533,8.533,8.533h128c4.713,0,8.533-3.82,8.533-8.533
				S346.025,402.084,341.312,402.084z"/>
			<path d="M213.312,385.017h110.933c4.713,0,8.533-3.82,8.533-8.533s-3.82-8.533-8.533-8.533H213.312
				c-4.713,0-8.533,3.82-8.533,8.533S208.599,385.017,213.312,385.017z"/>
			<path d="M141.566,369.651c-3.773-2.823-9.121-2.053-11.945,1.72l-19.639,26.247l-10.102-10.102
				c-3.332-3.332-8.735-3.332-12.068,0s-3.332,8.735,0,12.068l17.067,17.067c3.675,3.675,9.753,3.239,12.866-0.922l25.54-34.133
				C146.11,377.823,145.34,372.475,141.566,369.651z"/>
			<path d="M110.912,325.284c-37.703,0-68.267,30.564-68.267,68.267c0,37.703,30.564,68.267,68.267,68.267
				s68.267-30.564,68.267-68.267C179.179,355.848,148.615,325.284,110.912,325.284z M110.912,444.751
				c-28.277,0-51.2-22.923-51.2-51.2c0-28.277,22.923-51.2,51.2-51.2s51.2,22.923,51.2,51.2
				C162.112,421.828,139.189,444.751,110.912,444.751z"/>
			<path d="M486.507,1.017h-34.389c-14.065,0-25.472,11.407-25.472,25.472v34.261v51.2v318l34.133,59.733v14.8
				c0,4.713,3.82,8.533,8.533,8.533s8.533-3.82,8.533-8.533v-14.801l34.133-59.733v-318v-51.2V26.489
				C511.979,12.424,500.572,1.017,486.507,1.017z M443.712,77.817h51.2v17.067h-51.2V77.817z M469.312,470.218l-19.429-34.001
				h38.858L469.312,470.218z M494.912,419.151h-51.2v-307.2h51.2V419.151z M443.712,60.751V26.489c0-4.64,3.766-8.405,8.405-8.405
				h34.389c4.64,0,8.405,3.766,8.405,8.405v34.261H443.712z"/>
		</g>
	</g>
</g>
<g>
</g>
<g>
</g>
<g>
</g>
<g>
</g>
<g>
</g>
<g>
</g>
<g>
</g>
<g>
</g>
<g>
</g>
<g>
</g>
<g>
</g>
<g>
</g>
<g>
</g>
<g>
</g>
<g>
</g>
</svg>
