<svg width="38" height="56" viewBox="0 0 38 56" fill="none" xmlns="http://www.w3.org/2000/svg">
<path d="M32.5152 46.2728H35.5768C35.8712 46.9778 36.1038 47.7069 36.2721 48.4521C36.4994 49.4147 36.7133 50.3907 36.8871 51.3667C37.0454 52.2241 37.1525 53.0902 37.208 53.9604C37.208 54.7091 37.208 55.1102 37.0475 55.1637L31.8601 55.0434C29.8813 54.9097 25.1217 54.7938 17.5812 54.6957C10.0407 54.5977 4.29168 54.6824 0.334243 54.9498C0.187176 52.717 0.0935881 51.0324 0.0802184 49.896C0.0668486 48.7596 0.0802184 47.9039 0 47.3424L3.31569 47.2488C3.33036 47.0778 3.35717 46.908 3.39591 46.7408C4.07777 43.4251 4.90669 39.4944 5.89605 34.9219C6.88541 30.3495 7.87477 25.9642 8.83739 21.7527C9.80001 17.5413 10.6022 14.3325 11.2439 12.1399C11.4712 12.1399 12.0996 12.1399 13.1558 12.287C14.212 12.434 15.3618 12.5142 16.6186 12.6747C17.8753 12.8351 18.9716 12.9956 19.9075 13.1694C20.8434 13.3432 21.3916 13.517 21.4852 13.6908C21.5787 13.8646 22.2339 15.8567 23.3569 19.1724L27.2876 30.804C28.785 35.2606 30.1576 39.2715 31.4055 42.8368C31.8333 44.1871 32.2077 45.2835 32.5152 46.2728ZM11.6985 47.0616L14.934 46.9547C18.4992 46.8477 21.454 46.7497 23.7981 46.6605C23.5976 45.8717 23.397 45.0027 23.1831 44.0668C22.4522 40.7868 21.6768 37.3686 20.8568 33.8122C20.0368 30.2559 19.3148 27.1898 18.6909 24.6139C18.3858 23.1784 17.9929 21.763 17.5143 20.3756C17.2282 20.2696 16.9232 20.2241 16.6186 20.2419C16.2288 20.2388 15.8396 20.2701 15.4554 20.3355C15.0944 20.3355 14.8671 20.4826 14.8003 20.5896C14.7334 20.6965 14.5997 21.9265 14.3725 23.8518C14.1452 25.777 13.851 28.2905 13.5435 31.2319C13.1603 34.6545 12.7636 38.1351 12.3536 41.6736C12.1263 43.5989 11.9124 45.377 11.6985 47.0081V47.0616Z" fill="#C251C0"/>
<path d="M22.5829 7.27313C23.5588 7.27313 24.3209 7.36672 24.3744 7.07259C24.4279 6.77845 23.7059 6.25703 23.0374 5.80246C21.6304 4.80696 20.171 3.88759 18.6655 3.0483C16.3648 1.78813 13.9412 0.766714 11.4325 0C11.3701 1.25675 11.3166 2.52688 11.2721 3.81037C11.2052 5.388 11.1651 6.95226 11.125 8.48978C13.6833 7.9283 16.2797 7.55739 18.8928 7.38009C20.1228 7.29987 21.3528 7.24639 22.5829 7.27313Z" fill="#00B6C6"/>
</svg>
