<svg width="154" height="67" viewBox="0 0 154 67" fill="none" xmlns="http://www.w3.org/2000/svg">
<path d="M69.1334 13.0247C68.8133 13.1355 68.2652 13.2681 67.8294 13.0045C67.4338 12.7662 67.345 12.3331 67.04 11.1731C66.9226 10.7316 66.7315 10.0182 66.4701 9.1134C66.4347 8.85484 66.503 8.59277 66.6601 8.38452C66.8171 8.17626 67.0501 8.03878 67.3081 8.00214L69.41 7.7218L69.9782 11.9184C70.0125 12.1773 69.9428 12.4392 69.7844 12.6466C69.626 12.854 69.3919 12.99 69.1334 13.0247Z" fill="#FFA400"/>
<path d="M75.8193 12.5798C75.4958 12.6755 74.941 12.7812 74.5169 12.4976C74.1331 12.2407 74.066 11.8026 73.8163 10.6309C73.7207 10.1844 73.5615 9.45584 73.3436 8.54768C73.3208 8.28686 73.4022 8.02763 73.57 7.82686C73.7378 7.62608 73.9783 7.50016 74.2387 7.47671L76.3473 7.29205L76.716 11.5105C76.7273 11.6397 76.713 11.7698 76.6741 11.8935C76.6351 12.0172 76.5722 12.1319 76.4889 12.2313C76.4056 12.3306 76.3036 12.4124 76.1887 12.4723C76.0738 12.5321 75.9483 12.5686 75.8193 12.5798Z" fill="#FFA400"/>
<path d="M41.5152 22.9874C43.4495 23.4172 44.7446 24.2235 45.4005 25.4064C46.0564 26.5893 46.319 28.0587 46.1883 29.8145C46.0765 31.557 45.3206 32.9032 43.9205 33.8534C42.5203 34.8035 40.5755 35.2511 38.0858 35.1963C36.1516 35.1314 34.6263 34.9635 33.51 34.6927C32.392 34.4275 31.6914 34.2277 31.4064 34.0984H31.3863C31.4115 34.2143 31.4517 34.3586 31.5037 34.5265C31.5674 34.7346 31.6327 34.9562 31.6981 35.198C31.7595 35.4068 31.7922 35.6231 31.7953 35.8409C31.7953 35.9696 31.5456 36.1324 31.0461 36.3294C30.4882 36.5421 29.9191 36.7242 29.3414 36.8749C28.7045 37.0428 28.1458 37.1693 27.6653 37.2543C27.1848 37.3394 26.925 37.3427 26.8859 37.2644C26.7172 35.7681 26.4736 33.5187 26.1551 30.5162C25.8366 27.5137 25.5053 24.3472 25.1612 21.0167C24.8181 17.6863 24.5231 14.7923 24.2762 12.3347C24.0292 9.87718 23.8929 8.45984 23.8672 8.0827C23.8784 7.94057 24.1477 7.73242 24.6751 7.45824C25.2025 7.18406 25.8093 6.9082 26.4954 6.63067C27.1837 6.35089 27.7944 6.12707 28.3274 5.95921C28.8587 5.79134 29.1453 5.76113 29.1839 5.85177C29.1973 6.28151 29.204 6.662 29.204 6.99326C29.204 7.32451 29.1973 7.68542 29.1839 8.07599C29.1839 8.25896 29.3515 8.32275 29.6616 8.27071C30.1186 8.18503 30.5702 8.07294 31.0142 7.93498C31.716 7.72683 32.573 7.51252 33.5854 7.29206C34.7282 7.05358 35.8876 6.90318 37.0533 6.84218C38.7664 6.78958 40.1492 7.22211 41.2018 8.13977C42.2508 9.0509 42.9785 10.2765 43.2768 11.6347C43.611 13.0277 43.553 14.4862 43.1092 15.8481C42.6558 17.2592 41.757 18.4845 40.5481 19.3397C39.7558 19.8735 39.0804 20.3027 38.5216 20.6273C37.4824 21.1611 36.9628 21.616 36.9628 21.992C37.0031 22.2539 37.2042 22.4251 37.5679 22.509C38.0423 22.6088 38.5248 22.6649 39.0094 22.6769C39.8502 22.7296 40.687 22.8333 41.5152 22.9874ZM28.5034 14.386C28.1391 14.7374 27.9609 15.2444 27.9687 15.9069C27.9664 16.5407 28.1237 17.1648 28.4263 17.7215C28.7246 18.2676 29.1336 18.5603 29.6532 18.5995C30.86 18.5995 32.3367 18.3684 34.0832 17.9062C35.8298 17.444 37.1835 16.8229 38.1445 16.0429C38.9368 15.2237 39.2256 14.3558 39.0111 13.4393C38.7965 12.5227 38.2674 11.98 37.4238 11.811C36.7231 11.7461 35.7398 11.8664 34.4738 12.1719C33.2433 12.4676 32.0302 12.8313 30.8399 13.2613C29.6711 13.6855 28.8922 14.0604 28.5034 14.386ZM40.4626 29.133C40.6313 28.2097 40.4593 27.5528 39.9464 27.1623C39.4335 26.7717 38.5211 26.4399 37.2092 26.1668C34.3386 25.53 32.3194 25.3448 31.1517 25.6112C29.984 25.8775 29.3604 26.5311 29.2811 27.5718C29.1247 28.4045 29.2481 29.058 29.6515 29.5325C30.0549 30.007 31.0545 30.3427 32.6501 30.5397C34.857 30.8128 36.6622 30.8782 38.0657 30.7361C39.4692 30.594 40.2682 30.0596 40.4626 29.133Z" fill="#C451C2"/>
<path d="M61.9674 27.0112C62.1149 27.0515 62.1501 27.4275 62.0781 28.1409C61.976 28.9896 61.7953 29.8269 61.5383 30.6421C61.2745 31.5458 60.8846 32.4076 60.3801 33.202C59.894 33.9563 59.318 34.3928 58.652 34.5114C57.1531 34.5622 55.6525 34.5224 54.1583 34.3922C52.7111 34.2894 51.2822 34.0075 49.9043 33.5529C49.093 32.8322 48.5639 31.5889 48.317 29.8229C48.0662 27.8898 48.0229 25.9353 48.1879 23.993C48.3247 22.0226 48.6184 20.0664 49.0662 18.1429C49.4919 16.3624 49.978 15.1051 50.5244 14.3709C51.044 13.9714 52.076 13.8651 53.6203 14.052C55.1543 14.2362 56.6722 14.5364 58.1609 14.9501C59.646 15.363 60.5483 15.7099 60.8679 15.9908C61.2534 16.4978 61.4696 17.2207 61.5165 18.1596C61.5635 19.0997 61.4931 19.8383 61.307 20.3704C61.1746 20.4779 60.888 20.5635 60.4488 20.6306C60.0097 20.6978 59.527 20.7481 59.0007 20.78C58.5455 20.8127 58.0889 20.8194 57.6329 20.8002C57.2458 20.78 57.0396 20.7381 57.0128 20.6709L57.0329 20.6508C57.1133 20.3307 57.1899 19.939 57.2625 19.4757C57.3432 19.1033 57.3194 18.7158 57.1938 18.3561C57.074 18.1571 56.9161 17.9839 56.7291 17.8465C56.5421 17.709 56.3297 17.6101 56.1043 17.5553C55.6081 17.4225 55.0842 17.4365 54.5958 17.5956C53.9555 17.8754 53.4661 18.7086 53.1275 20.0951C52.7684 21.6462 52.5873 23.2333 52.5878 24.8256C52.5537 26.4412 52.7044 28.0553 53.037 29.6366C53.2236 30.289 53.5929 30.6757 54.1449 30.7965C54.7049 30.9132 55.2871 30.8546 55.8127 30.6287C56.1736 30.4429 56.4501 30.0825 56.6423 29.5476C56.8352 29.0137 56.9854 28.4653 57.0915 27.9076C57.1452 27.7078 57.1921 27.5282 57.2307 27.367C57.988 27.2369 58.7517 27.1472 59.5186 27.0985C60.4863 27.0268 61.3026 26.9977 61.9674 27.0112Z" fill="#C451C2"/>
<path d="M78.8872 27.785C79.1103 28.7016 79.1805 29.6488 79.0951 30.5884C79.0236 31.6896 78.8096 32.5048 78.4531 33.0342C78.0844 33.3386 77.0362 33.6183 75.3087 33.8735C73.5812 34.1286 71.772 34.3334 69.8814 34.4879C67.9885 34.6457 66.7788 34.7313 66.2525 34.7447C65.8167 34.7447 65.4407 34.395 65.1245 33.6955C64.7634 32.8465 64.4981 31.9597 64.3334 31.0517C64.1215 29.9781 63.9638 28.8946 63.8607 27.8052C63.7496 26.4418 63.7166 25.0731 63.7618 23.7059C63.7939 22.188 63.9261 20.674 64.1574 19.1735C64.3809 17.7556 64.7105 16.7485 65.1463 16.152C65.8045 15.4514 66.9314 14.9232 68.5271 14.5673C70.2666 14.1947 72.0383 13.9923 73.8169 13.963C75.7478 13.9171 77.1686 14.0134 78.0793 14.2517C78.514 14.5013 78.7906 15.1812 78.909 16.2913C79.0221 17.5372 78.9691 18.7927 78.7515 20.0246C78.5625 21.3072 78.1362 22.5431 77.4944 23.669C76.8809 24.7131 76.0535 25.2877 75.012 25.3929C71.9536 25.5049 69.673 25.5507 68.17 25.5306C68.1443 26.2724 68.1841 27.015 68.289 27.7498C68.3743 28.3923 68.493 29.0299 68.6444 29.6601C68.7762 30.1827 68.888 30.4569 68.9796 30.4826C69.611 30.2308 70.9491 29.8576 72.9939 29.363C75.0388 28.8683 77.0033 28.3423 78.8872 27.785ZM68.9612 18.2604C68.3812 18.3521 67.9594 18.7214 67.6957 19.3683C67.4543 19.8995 67.3357 20.4785 67.3487 21.062C67.3823 21.5444 67.5499 21.8577 67.8516 22.0021C68.287 22.1013 68.731 22.1575 69.1774 22.1699C69.7707 22.2018 70.3758 22.2052 70.996 22.1699C71.476 22.1636 71.9539 22.104 72.4207 21.992C72.7974 21.8521 73.1054 21.5718 73.2806 21.2097C73.4671 20.8511 73.5718 20.4555 73.5873 20.0515C73.599 19.6553 73.5404 19.3716 73.408 19.2004C73.1711 18.962 72.7856 18.774 72.2514 18.6364C71.6731 18.4888 71.0849 18.3828 70.4915 18.3191C69.984 18.2553 69.472 18.2356 68.9612 18.2604Z" fill="#C451C2"/>
<path d="M98.5365 28.992L100.03 28.9668C100.174 29.3124 100.286 29.6703 100.365 30.0361C100.477 30.5084 100.578 30.9851 100.669 31.4663C100.75 31.8856 100.806 32.3094 100.836 32.7354C100.858 33.0996 100.836 33.296 100.754 33.3212C100.014 33.3123 99.169 33.2932 98.2181 33.2642C97.2671 33.2351 94.9384 33.1959 91.2319 33.1466C87.5277 33.0996 84.7146 33.1405 82.7926 33.2692C82.7155 32.1781 82.6725 31.3538 82.6635 30.7965C82.6546 30.2392 82.6418 29.8224 82.625 29.5459C83.0452 29.5292 83.5854 29.5118 84.2458 29.4939C84.2458 29.4167 84.2676 29.3361 84.2844 29.2488C84.6196 27.625 85.0291 25.6946 85.513 23.4575C85.9968 21.2204 86.4773 19.0684 86.9545 17.0014C87.4305 14.9366 87.8216 13.3699 88.1277 12.3011C88.2395 12.3011 88.5529 12.3246 89.0681 12.3717C89.5832 12.4187 90.1469 12.4808 90.7593 12.558C91.3727 12.6352 91.9108 12.7169 92.3734 12.8031C92.8377 12.8887 93.0941 12.9709 93.1461 13.0616C93.2064 13.2238 93.5109 14.1191 94.0596 15.7474C94.6082 17.3757 95.2496 19.2743 95.9838 21.4431C96.7157 23.6119 97.3861 25.5899 97.9951 27.3771C98.203 27.9982 98.3834 28.5365 98.5365 28.992ZM88.3473 29.3764L89.9296 29.326C91.6962 29.2734 93.1416 29.2259 94.2657 29.1833C94.1702 28.7973 94.073 28.3709 93.9691 27.9076C93.6081 26.3017 93.2288 24.6269 92.831 22.8834C92.4332 21.1398 92.0795 19.6385 91.77 18.3795C91.4616 17.1206 91.2683 16.4267 91.19 16.298C91.0498 16.2482 90.9012 16.2266 90.7526 16.2342C90.5634 16.2336 90.3744 16.2488 90.1877 16.2796C90.0067 16.3098 89.8994 16.3501 89.8659 16.4004C89.8391 16.5045 89.7687 17.0383 89.653 18.0052C89.5374 18.9721 89.4016 20.1774 89.2474 21.6193C89.0597 23.298 88.8669 25.0035 88.6691 26.7359C88.5563 27.6994 88.449 28.5796 88.3473 29.3764Z" fill="#00B6C6"/>
<path d="M106.4 22.1347C106.4 22.1347 106.285 22.9404 106.055 24.5519C105.826 26.1634 105.618 27.6507 105.432 29.0138C105.246 30.3769 105.133 31.196 105.096 31.4512C105.061 31.5385 104.878 31.5536 104.55 31.4965C104.16 31.4246 103.775 31.3265 103.398 31.2028C102.99 31.0764 102.591 30.9245 102.202 30.7478C101.842 30.5833 101.618 30.4311 101.531 30.2912C101.583 30.1234 101.724 29.6332 101.954 28.8392C102.183 28.0452 102.425 27.1723 102.676 26.2256C102.927 25.2788 103.122 24.4965 103.261 23.8754C103.4 23.2543 103.563 22.4587 103.776 21.5035C103.988 20.5484 104.188 19.6855 104.374 18.9167C104.56 18.1479 104.679 17.7299 104.731 17.6594L106.397 17.7383C107.108 17.7719 107.745 17.811 108.31 17.8558C108.405 18.0639 108.556 18.3997 108.765 18.863C109.212 19.8702 109.771 21.1342 110.442 22.6551C111.112 24.1759 111.743 25.5983 112.336 26.9222C112.926 28.2461 113.317 29.1128 113.509 29.5224C113.162 29.7474 112.751 29.9891 112.274 30.2459C111.796 30.5028 111.345 30.7227 110.921 30.9174C110.648 31.0582 110.353 31.1524 110.049 31.196C109.84 30.6846 109.472 29.5924 108.943 27.9193C108.415 26.2463 107.898 24.6112 107.394 23.0143L106.64 20.6155C106.48 21.6294 106.4 22.1358 106.4 22.1347Z" fill="#00B6C6"/>
<path d="M120.744 18.6062C120.719 18.4383 120.697 18.2486 120.68 18.0505C120.782 18.017 121.084 17.9549 121.58 17.8642C122.152 17.7681 122.732 17.7232 123.312 17.7299C123.825 17.7365 124.338 17.7147 124.849 17.6645C124.9 18.3091 124.92 19.1316 124.907 20.1321C124.895 21.1326 124.895 22.3955 124.907 23.9208C124.925 25.445 124.939 27.019 124.948 28.6428C124.957 30.2667 124.943 31.2246 124.907 31.5167C124.573 31.5483 124.237 31.5567 123.902 31.5419C123.374 31.5335 122.948 31.5251 122.621 31.5167C122.365 31.5229 122.111 31.4743 121.875 31.374C121.875 31.186 121.875 30.8822 121.875 30.4659C121.875 30.0495 121.902 29.6265 121.921 29.2236C121.939 28.8208 121.951 28.5404 121.959 28.4112C121.967 28.2819 121.74 28.527 121.302 29.1448C120.865 29.7625 120.434 30.3383 120.01 30.8654C119.586 31.3925 119.18 31.9011 118.793 32.3862C118.406 32.8714 118.159 33.1316 118.047 33.1651C117.926 33.1394 117.647 32.9419 117.209 32.5726C116.745 32.1778 116.307 31.7539 115.897 31.3035C115.516 30.9259 115.238 30.4581 115.087 29.9438C115.379 29.7479 115.881 29.3915 116.595 28.8745C117.306 28.3591 117.777 28.0184 118.003 27.8505L118.976 27.1354C119.511 26.7347 120.024 26.3061 120.514 25.8512C120.558 25.8178 120.597 25.7789 120.63 25.7354C119.661 25.7533 118.525 25.7449 117.221 25.7102C116.543 25.6409 116.005 25.2671 115.607 24.5889C115.189 23.8589 114.912 23.0573 114.789 22.2254C114.647 21.4238 114.612 20.607 114.686 19.7963C114.763 19.0745 114.944 18.6314 115.226 18.4685C115.819 18.3141 116.661 18.2402 117.755 18.2503C118.755 18.2465 119.751 18.3677 120.72 18.6112L120.744 18.6062ZM121.233 22.8582C121.217 22.6433 121.2 22.4402 121.181 22.2522C121.142 22.0712 121.086 21.8942 121.014 21.7234C120.846 21.3021 120.568 21.062 120.189 21.0016C119.936 20.9851 119.681 21.0004 119.431 21.0469C119.195 21.0849 118.968 21.1656 118.761 21.2853C118.578 21.398 118.409 21.5321 118.258 21.6848C118.16 21.8517 118.119 22.0464 118.143 22.2388C118.152 22.5017 118.221 22.7591 118.342 22.9925C118.456 23.2266 118.657 23.4071 118.902 23.4961C119.045 23.5446 119.195 23.5729 119.346 23.58L120.047 23.5414C120.337 23.534 120.625 23.4974 120.908 23.4323C121.1 23.3417 121.209 23.1503 121.233 22.8582Z" fill="#00B6C6"/>
<path d="M95.4465 10.2683C96.0449 10.2817 96.5041 10.3187 96.5377 10.1407C96.5712 9.96279 96.1304 9.65056 95.718 9.37191C93.6581 7.98199 93.0513 7.69326 93.0513 7.69326C91.6522 6.9244 90.1778 6.3017 88.6514 5.83499C88.6146 6.59934 88.5822 7.37264 88.5542 8.15489C88.5185 9.12067 88.49 10.0719 88.4688 11.0086C90.0253 10.6664 91.6053 10.4419 93.1954 10.3371C93.9464 10.2851 94.7006 10.2498 95.4465 10.2683Z" fill="#FF5B55"/>
<path d="M28.8424 54.1432L30.899 54.108C31.1002 54.5838 31.2573 55.0772 31.3683 55.5818C31.5281 56.2331 31.6672 56.8901 31.7857 57.5526C31.8953 58.1308 31.972 58.7148 32.0153 59.3017C32.0455 59.8053 32.0069 60.075 31.8997 60.1108C30.8839 60.0996 29.7196 60.0728 28.4066 60.0303C27.0936 59.9877 23.8827 59.9346 18.7738 59.8708C13.6672 59.8048 9.78976 59.8607 7.14146 60.0386C7.02972 58.5357 6.9705 57.3992 6.96379 56.6293C6.95709 55.8594 6.93921 55.2853 6.91016 54.907C7.4901 54.8835 8.23486 54.86 9.14445 54.8365C9.15618 54.7291 9.17462 54.6166 9.19808 54.5008C9.65958 52.2615 10.2256 49.5997 10.896 46.5154C11.5665 43.4312 12.2285 40.4656 12.8822 37.6186C13.5393 34.7716 14.0801 32.6084 14.5047 31.1289C14.6589 31.1289 15.0897 31.1608 15.8004 31.2263C16.5111 31.2917 17.2854 31.3773 18.1319 31.4831C18.9783 31.5889 19.7192 31.703 20.3561 31.8188C20.9931 31.9347 21.3501 32.0555 21.4205 32.1747C21.502 32.3985 21.9216 33.6295 22.6792 35.8677C23.4369 38.1059 24.3207 40.7224 25.3309 43.7171C26.3366 46.7074 27.2612 49.4335 28.1049 51.8955C28.3843 52.7673 28.6301 53.5165 28.8424 54.1432ZM14.7981 54.6754L16.977 54.6049C19.4119 54.5343 21.4037 54.4694 22.9525 54.4101C22.8228 53.8763 22.6871 53.2899 22.5452 52.6509C22.049 50.4384 21.5261 48.1303 20.9763 45.7265C20.4265 43.3226 19.9388 41.2523 19.513 39.5154C19.0873 37.782 18.8213 36.8263 18.7152 36.6483C18.5222 36.5778 18.3169 36.5475 18.1118 36.5593C17.8507 36.5582 17.59 36.579 17.3324 36.6215C17.0843 36.6634 16.9351 36.7188 16.8882 36.7893C16.8524 36.9314 16.7552 37.6684 16.5965 39.0001C16.4379 40.3318 16.2524 41.992 16.0401 43.9807C15.7786 46.2894 15.5121 48.6395 15.2406 51.031C15.0886 52.3605 14.9411 53.5753 14.7981 54.6754Z" fill="#00B6C6"/>
<path d="M47.2103 51.2274C47.416 52.0749 47.4805 52.9506 47.4014 53.8192C47.3343 54.8381 47.1366 55.5935 46.808 56.0803C46.4661 56.3624 45.4967 56.6192 43.8999 56.8509C42.3031 57.0825 40.632 57.2716 38.8866 57.4182C37.1367 57.5648 36.0193 57.6443 35.5343 57.6566C35.1321 57.6566 34.7834 57.3326 34.4918 56.6847C34.1567 55.9001 33.911 55.0802 33.7593 54.2405C33.5637 53.2502 33.4177 52.2508 33.3218 51.2458C33.2176 49.9852 33.1868 48.7196 33.2297 47.4554C33.2601 46.054 33.3822 44.656 33.595 43.2706C33.8029 41.9601 34.1079 41.0296 34.5102 40.479C35.1181 39.831 36.1601 39.3425 37.6362 39.0135C39.2449 38.6673 40.8836 38.4801 42.5289 38.4545C44.3167 38.4131 45.6303 38.5015 46.4694 38.7197C46.8717 38.9536 47.1276 39.5826 47.2371 40.6065C47.3412 41.7584 47.2922 42.9189 47.0913 44.0579C46.9157 45.2395 46.5218 46.378 45.9297 47.4152C45.3632 48.3809 44.5983 48.912 43.6351 49.0082C40.8058 49.1201 38.6966 49.1632 37.3077 49.1375C37.2836 49.8231 37.32 50.5095 37.4166 51.1888C37.4967 51.783 37.6086 52.3725 37.7519 52.9547C37.8725 53.4382 37.9759 53.6916 38.062 53.7151C38.6475 53.4835 39.885 53.1388 41.7746 52.6811C43.6642 52.2234 45.4761 51.7388 47.2103 51.2274ZM38.0301 42.4195C37.4937 42.5057 37.1026 42.8475 36.8568 43.4451C36.6333 43.9363 36.5239 44.4718 36.5367 45.0113C36.5668 45.459 36.7222 45.7488 37.0026 45.8809C37.4051 45.9721 37.8154 46.0243 38.2279 46.037C38.7777 46.0672 39.3375 46.0706 39.904 46.0454C40.3479 46.0368 40.7896 45.9805 41.2215 45.8775C41.5693 45.7475 41.8538 45.4884 42.016 45.154C42.1883 44.8224 42.285 44.4566 42.2992 44.083C42.311 43.7171 42.2573 43.4535 42.1316 43.2957C41.8263 43.032 41.4578 42.8521 41.0622 42.7737C40.5273 42.6374 39.9835 42.5392 39.4347 42.4799C38.9691 42.4192 38.4992 42.399 38.0301 42.4195Z" fill="#00B6C6"/>
<path d="M65.535 39.1814C66.5021 38.8138 67.5194 38.5953 68.552 38.5335C69.5577 38.4797 70.2349 38.7203 70.5835 39.2553C70.7913 39.694 71.0405 40.8192 71.3311 42.631C71.6216 44.4429 71.9104 46.4656 72.1976 48.6994C72.4826 50.9376 72.7061 52.896 72.8681 54.5746C73.0301 56.2533 73.086 57.1749 73.0357 57.3394C72.6725 57.4255 71.6551 57.4776 69.9835 57.4955C68.3118 57.5134 67.3368 57.4496 67.0586 57.3041C67.0149 56.8248 66.9965 56.3435 67.0033 55.8622C66.9921 54.9859 66.9804 53.9759 66.9681 52.8322C66.9435 51.3483 66.9128 49.8062 66.8759 48.2058C66.839 46.6055 66.7876 45.2363 66.7217 44.0982C66.6546 42.9617 66.5541 42.349 66.4384 42.2651C66.244 42.2282 65.8797 42.3194 65.3456 42.5387C64.8115 42.7581 64.2829 43.0015 63.76 43.2689C63.3909 43.4489 63.0322 43.6496 62.6856 43.8699C62.7213 44.4417 62.7772 45.2632 62.8532 46.3341C62.9739 48.1471 63.0951 50.0546 63.2169 52.0567C63.3387 54.0587 63.4236 55.7592 63.4717 57.1581C63.3599 57.3047 63.0593 57.4166 62.5699 57.4938C61.8082 57.5864 61.0405 57.62 60.2736 57.5945C59.2344 57.5811 58.6662 57.5274 58.569 57.4267C58.5086 56.3188 58.4785 54.7184 58.4785 52.6257C58.4785 50.533 58.4818 48.4711 58.4885 46.4399C58.4885 44.4065 58.4975 42.9768 58.5153 42.1509C57.9084 42.3708 57.3176 42.6328 56.747 42.9349C56.1157 43.2639 55.5536 43.5739 55.0608 43.8648C54.5697 44.1586 54.268 44.3399 54.1591 44.4138C54.2563 46.3241 54.3842 48.4168 54.5429 50.6919C54.6759 52.5787 54.7759 54.1969 54.8429 55.5466C54.91 56.8962 54.9435 57.6203 54.9435 57.7188L49.5312 57.6818V53.9468C49.5435 52.3174 49.5614 50.4681 49.5849 48.3989C49.6084 46.3297 49.6329 44.468 49.6586 42.814C49.6821 41.1589 49.7184 40.1366 49.7676 39.7471C50.6623 39.3528 51.5968 39.0562 52.555 38.8625C53.3522 38.674 54.1607 38.5366 54.9753 38.4512C54.9753 38.8988 54.9385 39.605 54.8647 40.5697C55.5393 40.0337 56.2481 39.5425 56.9867 39.0992C57.618 38.7287 58.1589 38.5374 58.6092 38.5251C59.4115 38.5251 60.0188 38.8138 60.4312 39.3912C60.8435 39.9687 61.0502 40.7566 61.0513 41.7548L62.0352 41.0984C62.6062 40.6967 63.1409 40.3498 63.6393 40.0577C64.2464 39.7146 64.8804 39.4215 65.535 39.1814Z" fill="#00B6C6"/>
<path d="M91.4938 46.2099C91.3631 44.256 91.1815 42.9041 90.9491 42.1543C90.7942 41.7831 90.5522 41.4548 90.2434 41.1974C90.4779 40.7822 90.6651 40.3418 90.8016 39.8847C91.0413 39.084 91.4217 37.8015 90.7396 37.031C90.4429 36.6953 90.0691 36.6097 89.3081 36.4351C88.1684 36.1716 86.98 35.8963 86.0481 36.556C85.2972 37.0881 85.0809 37.9627 85.0122 38.4025C84.9227 38.7128 84.856 39.0292 84.8127 39.3493C84.6217 39.3235 84.439 39.3034 84.2647 39.2888C83.6545 39.2301 82.9925 39.1931 82.2868 39.1764C82.2544 38.7218 82.1752 38.2717 82.0505 37.8334C81.9818 37.3953 81.7655 36.519 81.0146 35.9869C80.0827 35.3272 78.8943 35.6008 77.7545 35.8661C76.9969 36.0339 76.6198 36.1279 76.3231 36.4603C75.6409 37.2258 76.0214 38.5099 76.2611 39.314C76.3262 39.533 76.4034 39.7482 76.4924 39.9586C76.2877 40.0819 76.1176 40.2552 75.998 40.4622C75.532 41.55 75.2035 42.9544 75.0124 44.6756C74.8193 46.4365 74.7812 48.2109 74.8984 49.9785C74.9751 51.5934 75.2728 53.1902 75.7834 54.724C76.2561 56.0669 76.9377 56.9102 77.8283 57.2537C78.8016 57.5346 80.2308 57.6253 82.1158 57.5257C83.9482 57.4324 85.7705 57.1973 87.5666 56.8223C89.3132 56.4553 90.4541 56.0138 90.9893 55.4979C91.3324 55.0066 91.5346 53.8243 91.5961 51.9509C91.6575 50.0775 91.6234 48.1638 91.4938 46.2099ZM86.9448 53.2602C86.8912 53.2837 86.1185 53.4281 84.5731 53.6933C82.3706 54.0828 83.6193 53.8612 82.6405 54.0005C81.9968 54.0878 81.5583 54.1376 81.3247 54.1499C80.766 54.1387 80.319 53.7 79.9838 52.8339C79.6486 51.9677 79.41 50.7512 79.2681 49.1845C79.1307 47.6177 79.0658 46.3621 79.0737 45.4176C79.0815 44.4731 79.1463 43.9202 79.2681 43.7591C79.543 43.4905 80.1291 43.2667 81.0264 43.0876C81.5795 42.9802 82.3472 42.8929 83.8758 42.7905C85.5787 42.6763 86.4386 42.6226 86.8208 42.913C87.2867 43.2639 87.3236 43.8245 87.3454 44.0881C87.7644 49.7317 88.6176 52.5048 86.9448 53.2569V53.2602Z" fill="#FFA100"/>
<path d="M86.082 51.2291C86.0402 51.202 85.9935 51.1832 85.9446 51.1737C85.8034 51.319 85.6316 51.4308 85.4417 51.501C85.3067 51.5441 85.1661 51.5667 85.0244 51.5682H85.0143C84.8026 51.5743 84.5961 51.502 84.4344 51.365C84.3875 51.0159 84.3606 50.7037 84.3472 50.43C84.8886 50.3276 85.4552 50.0456 85.5205 49.5773C85.5859 49.1089 85.1233 48.654 84.8065 48.4626C84.4713 48.2749 84.0834 48.204 83.7036 48.2612C83.3259 48.2819 82.9637 48.4184 82.6661 48.6523C82.4834 48.8001 82.1515 49.0703 82.1532 49.4027C82.1532 49.9264 82.9912 50.4183 83.7639 50.4703C83.7639 50.8212 83.7639 51.1686 83.7639 51.3818C83.6406 51.5431 83.461 51.6516 83.2611 51.6857C83.1306 51.6964 82.9994 51.6774 82.8773 51.6303C82.6581 51.5591 82.4553 51.445 82.2806 51.2945C82.2422 51.3059 82.2047 51.3199 82.1683 51.3365C82.0778 51.3798 81.9977 51.4422 81.9336 51.5195C82.2011 51.8212 82.566 52.0191 82.9644 52.0785C83.1674 52.1 83.3727 52.0787 83.567 52.016C83.7612 51.9533 83.9403 51.8504 84.0925 51.7142C84.3292 51.8967 84.6155 52.0032 84.9138 52.0197C85.0012 52.0215 85.0887 52.0159 85.1752 52.0029C85.5771 51.9249 85.9465 51.7285 86.2362 51.4389C86.2091 51.354 86.155 51.2803 86.082 51.2291Z" fill="#FFA100"/>
<path d="M107.482 38.5301C107.818 38.6252 108.126 38.8029 108.377 39.0471C108.739 39.3601 109.08 39.6965 109.397 40.0543C109.697 40.3882 109.976 40.7391 110.236 41.1051C110.458 41.4241 110.571 41.6087 110.571 41.6742C110.437 41.8443 109.976 42.2214 109.188 42.8056C108.4 43.3898 107.506 44.0355 106.506 44.7428L102.748 47.4169C103.929 48.2842 104.935 49.02 105.765 49.6243C106.595 50.2286 107.391 50.8094 108.15 51.3667C108.921 51.9263 109.511 52.3426 109.92 52.6156C109.713 53.3532 109.385 54.0514 108.95 54.6821C108.498 55.3948 107.996 56.0752 107.45 56.7183C106.947 57.2974 106.612 57.6063 106.444 57.6415C106.288 57.5945 105.854 57.172 105.143 56.3741C104.433 55.5762 103.64 54.6535 102.765 53.606C101.886 52.5574 100.777 51.2184 99.4395 49.589C99.4999 50.9029 99.5423 52.0035 99.5669 52.8909C99.5915 53.7784 99.6127 54.5987 99.6306 55.3518C99.6474 56.1072 99.6507 56.6159 99.639 56.8811C99.2328 57.0508 98.808 57.172 98.3735 57.242C97.7712 57.3629 97.1723 57.4591 96.5767 57.5307C96.1798 57.5975 95.7762 57.6161 95.3749 57.5861C95.3268 57.1765 95.3084 55.8336 95.3196 53.5574C95.3307 51.2811 95.3609 48.6479 95.4101 45.6576C95.4581 42.6719 95.4732 40.4728 95.4553 39.0605C95.4375 37.6482 95.466 36.4905 95.5408 35.5874C96.0582 35.6478 96.7286 35.7474 97.5522 35.8862C98.3757 36.025 99.135 36.1576 99.8301 36.284C100.53 36.4116 100.951 36.4995 101.094 36.5476C100.961 37.9823 100.849 39.0555 100.759 39.7672C100.668 40.479 100.49 42.2589 100.226 45.107C101.624 43.7641 102.78 42.6629 103.695 41.8034C104.61 40.944 105.436 40.1903 106.171 39.5423C106.899 38.891 107.336 38.5536 107.482 38.5301Z" fill="#00B6C6"/>
<path d="M114.421 56.3658C114.292 56.683 114.061 56.8307 113.668 56.8475C113.059 56.8498 112.452 56.7673 111.865 56.6024C111.449 56.5135 111.34 56.401 111.319 56.3691C111.297 56.3372 111.216 56.1777 111.238 55.7312C111.228 55.3549 111.265 54.9788 111.347 54.6116C111.422 54.2674 111.582 54.1717 111.717 54.1298C112.218 54.0472 112.73 54.0603 113.226 54.1684C113.59 54.2274 113.946 54.3294 114.287 54.4722C114.455 54.5679 114.564 54.7626 114.622 55.0732C114.67 55.5143 114.601 55.9602 114.421 56.3658Z" fill="#FF5B55"/>
<path d="M146.65 37.9576V39.1763C146.64 41.3619 146.619 44.0013 146.586 47.0945C146.558 50.1598 146.491 53.1612 146.389 56.0015C146.303 57.3444 145.928 58.2576 145.277 58.7091C144.627 59.1607 143.754 59.3806 142.751 59.2883C141.778 59.1977 140.814 59.0185 139.873 58.7528C138.7 58.4422 137.577 58.0998 136.553 57.7322C135.358 57.3058 134.877 57.0422 134.686 56.8928C134.563 56.7451 134.416 56.4346 134.351 55.8034C134.291 55.2352 134.28 54.663 134.315 54.0928C134.323 53.7834 134.363 53.4757 134.434 53.1746C134.616 53.1259 134.803 53.0983 134.991 53.0924C135.44 53.0622 135.963 53.0554 136.551 53.0689C137.14 53.0823 137.681 53.1125 138.16 53.1461C138.434 53.1679 138.618 53.1881 138.74 53.2048C138.697 53.5809 138.641 53.9871 138.573 54.4168C138.532 54.6938 138.496 54.9204 138.464 55.1101V55.1605V55.2092C138.502 55.4794 138.734 55.7043 139.218 55.9394C139.679 56.1526 140.164 56.3099 140.663 56.4077C141.236 56.5305 141.821 56.5924 142.408 56.5924H142.728V56.2768C142.771 55.0514 142.792 53.8192 142.792 52.6072V49.4799L142.346 49.6478C141.508 49.965 140.539 50.2924 139.496 50.6164C138.523 50.9246 137.532 51.1752 136.53 51.3667C136.387 51.3835 135.943 51.4423 135.49 50.5677C135.08 49.7013 134.792 48.7822 134.634 47.8365C134.413 46.6967 134.245 45.4864 134.131 44.2526C134.017 43.0188 133.933 41.8756 133.893 40.8785C133.859 40.056 133.838 39.4315 133.824 39.0051C134.084 38.9363 134.438 38.8574 134.879 38.7718C135.475 38.6526 136.082 38.5502 136.679 38.4646C137.104 38.4008 137.394 38.3723 137.592 38.3588C137.684 40.2339 137.793 42.1828 137.927 44.1569C138.019 45.6442 138.102 47.0218 138.175 48.2897L138.197 48.6758L138.574 48.5936L139.267 48.4408C139.769 48.3351 140.401 48.1957 141.132 48.0178C141.863 47.8399 142.597 47.6384 143.311 47.4068L143.561 47.3279L143.539 47.0643C143.496 46.5977 143.449 46.1232 143.4 45.6408L142.951 40.5847C142.833 39.2703 142.797 38.6492 142.783 38.3588C143.988 38.2078 145.291 38.0735 146.65 37.9576Z" fill="#FF5B55"/>
<path d="M131.065 40.0039C130.73 39.1293 129.994 38.6006 128.788 38.3924C127.366 38.1932 125.93 38.1247 124.497 38.1876C123.065 38.2241 121.642 38.4183 120.253 38.7667C119.829 38.8727 119.418 39.0229 119.026 39.2149C119.026 39.2149 119.016 39.2149 119.009 39.2149C118.906 39.2712 118.806 39.3329 118.709 39.3996L118.61 39.4667C118.32 39.6722 118.06 39.9162 117.836 40.1919C117.743 40.8986 117.641 41.7816 117.546 42.7955C117.008 48.4492 117.096 53.7924 117.318 55.7698C117.322 56.1434 117.359 56.5159 117.43 56.8828C117.505 56.8828 117.624 56.8928 117.812 56.8928C118.189 56.8928 118.64 56.8928 119.168 56.871C119.696 56.8492 120.211 56.8307 120.699 56.8005C121.02 56.7804 121.302 56.7585 121.537 56.7317C121.29 54.2221 121.049 51.59 120.824 48.9008L120.792 48.5248L121.171 48.5449C122.289 48.607 123.496 48.6406 124.755 48.654C125.853 48.6745 126.95 48.5924 128.033 48.4089C128.907 48.2746 129.56 47.9238 130.045 47.3329C130.529 46.742 130.91 45.5586 131.169 43.8581C131.441 42.2298 131.411 40.9322 131.065 40.0039ZM127.165 44.3382C126.986 44.9358 126.733 45.3219 126.386 45.5233L126.364 45.5334C125.657 45.8352 124.905 46.0141 124.138 46.0622C123.691 46.1047 123.262 46.1254 122.851 46.1243C122.427 46.125 122.003 46.102 121.582 46.0555C120.665 45.9497 120.16 45.7013 119.996 45.2782L119.983 45.243C119.822 44.5916 119.78 43.9168 119.857 43.2504C119.911 42.5402 120.161 41.8589 120.579 41.283L120.61 41.2461C120.903 40.9557 121.423 40.8046 122.209 40.7878C122.944 40.7722 123.68 40.8194 124.408 40.9289C125.022 41.0058 125.628 41.1384 126.218 41.325C126.491 41.4355 126.731 41.6155 126.913 41.8473C127.095 42.079 127.214 42.3543 127.257 42.6461C127.36 43.2095 127.329 43.7893 127.165 44.3382Z" fill="#FF5B55"/>
</svg>
