<svg width="254" height="56" viewBox="0 0 254 56" fill="none" xmlns="http://www.w3.org/2000/svg">
<path d="M16.1778 24.6173C17.9489 25.0105 19.1359 25.7505 19.7388 26.8372C20.3416 27.924 20.5825 29.2747 20.4615 30.8893C20.4366 31.6294 20.2347 32.3526 19.8729 32.9979C19.511 33.6432 18.9998 34.1916 18.3824 34.5968C17.1019 35.4803 15.3197 35.8934 13.036 35.836C11.6254 35.8181 10.2197 35.665 8.83806 35.3787C8.18359 35.2423 7.53953 35.0596 6.91071 34.8321H6.89421C6.91731 34.9381 6.95362 35.0706 6.99982 35.2263C7.04602 35.3821 7.11863 35.6206 7.17803 35.836C7.23403 36.0276 7.264 36.226 7.26714 36.4257C7.26714 36.545 7.03942 36.6941 6.58069 36.873C6.07043 37.0718 5.54924 37.2411 5.01967 37.3799C4.43553 37.5357 3.92399 37.6516 3.48176 37.7278C3.03953 37.804 2.80521 37.8107 2.76891 37.7278C2.61489 36.3517 2.39488 34.2843 2.10886 31.5254C1.82284 28.7666 1.51591 25.8609 1.18809 22.8083C0.882265 19.7513 0.611645 17.0919 0.376228 14.83C0.14081 12.5682 0.0154011 11.2694 0 10.9337C0 10.8011 0.260719 10.6023 0.742555 10.3605C1.22439 10.1186 1.78213 9.85356 2.41248 9.59844C3.04283 9.34332 3.60057 9.1379 4.089 8.9888C4.57744 8.83971 4.84146 8.80657 4.87446 8.88941C4.87446 9.28368 4.89426 9.63157 4.89426 9.93639C4.89426 10.2412 4.89426 10.5725 4.87446 10.9304C4.87446 11.096 5.01967 11.1557 5.31339 11.1093C5.73215 11.03 6.14637 10.9282 6.55429 10.8045C7.21434 10.6123 7.98329 10.4168 8.91066 10.2114C9.95791 9.99241 11.0205 9.85505 12.0888 9.80055C13.6597 9.75195 14.927 10.1495 15.8907 10.9933C16.8514 11.8258 17.5191 12.947 17.7949 14.1906C18.0978 15.4719 18.0419 16.8124 17.6332 18.0638C17.2162 19.3599 16.3917 20.4853 15.2834 21.271C14.5574 21.7613 13.9391 22.1556 13.4287 22.4538C12.476 22.9464 11.9997 23.3627 11.9997 23.7029C12.036 23.9414 12.2208 24.1005 12.5541 24.1767C12.9886 24.2679 13.4305 24.3189 13.8742 24.3291C14.6473 24.3772 15.4166 24.4734 16.1778 24.6173ZM4.25072 16.712C4.07589 16.8975 3.94179 17.1178 3.85708 17.3587C3.77238 17.5995 3.73896 17.8555 3.75898 18.1101C3.75957 18.6887 3.90361 19.258 4.17811 19.7668C4.27787 19.9893 4.43456 20.1813 4.63223 20.3233C4.8299 20.4653 5.06151 20.5522 5.30349 20.5752C6.67892 20.5351 8.04385 20.3214 9.3661 19.9391C10.9678 19.5216 12.2087 18.9495 13.0888 18.2228C13.8148 17.4718 14.0799 16.6744 13.8841 15.8306C13.8274 15.4598 13.6565 15.1161 13.3956 14.8476C13.1346 14.5791 12.7966 14.3992 12.4287 14.3331C11.515 14.3027 10.6022 14.4145 9.72252 14.6644C8.59196 14.9341 7.477 15.2659 6.38267 15.6583C5.62329 15.8999 4.90455 16.2551 4.25072 16.712ZM15.2141 30.2631C15.3681 29.4149 15.2097 28.8119 14.7389 28.4541C14.2681 28.0962 13.432 27.7914 12.2307 27.5396C9.59051 26.9521 7.74017 26.782 6.6797 27.0294C5.61922 27.2768 5.04717 27.8754 4.96357 28.8252C4.82276 29.5894 4.93277 30.1902 5.29359 30.6276C5.65442 31.0649 6.57079 31.373 8.0427 31.552C9.68165 31.7897 11.3413 31.8497 12.9931 31.7309C14.2956 31.6005 15.0359 31.1113 15.2141 30.2631Z" fill="#C451C2"/>
<path d="M34.9267 28.3149C35.062 28.3514 35.095 28.696 35.029 29.352C34.9334 30.1319 34.7677 30.9015 34.534 31.6514C34.291 32.4815 33.9333 33.2734 33.4713 34.0038C33.3067 34.3051 33.0805 34.5681 32.8075 34.7754C32.5345 34.9826 32.2208 35.1296 31.8872 35.2065C30.5134 35.2538 29.1379 35.2173 27.7685 35.0971C26.4426 35.0022 25.1334 34.7429 23.8709 34.3252C23.1251 33.6625 22.6399 32.5194 22.4155 30.896C22.1845 29.1196 22.1435 27.3235 22.2934 25.5385C22.4197 23.7283 22.6901 21.9312 23.1019 20.1644C23.4914 18.5276 23.9314 17.3724 24.422 16.6987C24.9006 16.331 25.8445 16.2316 27.2603 16.4039C28.6718 16.572 30.0685 16.8478 31.4384 17.2289C32.8014 17.6066 33.6264 17.9279 33.9201 18.1831C34.3113 18.7714 34.5181 19.4637 34.5142 20.171C34.5768 20.8541 34.5119 21.5429 34.3228 22.202C34.0827 22.341 33.8139 22.4226 33.5373 22.4406C33.1347 22.5035 32.6892 22.5499 32.2172 22.5797C31.7995 22.6039 31.3808 22.6039 30.9631 22.5797C30.61 22.5797 30.4219 22.5234 30.3955 22.4605L30.4153 22.4439C30.4879 22.149 30.5572 21.7812 30.6265 21.3571C30.7005 21.0153 30.6777 20.6595 30.5605 20.33C30.452 20.1479 30.3087 19.9891 30.1388 19.8628C29.9688 19.7366 29.7757 19.6454 29.5704 19.5945C29.1156 19.4726 28.6354 19.4853 28.1876 19.6309C27.6024 19.8894 27.1535 20.6547 26.8411 21.927C26.5129 23.3525 26.3479 24.8109 26.3494 26.274C26.3175 27.7592 26.4548 29.2432 26.7586 30.6972C26.8074 30.9542 26.9293 31.1915 27.1098 31.3803C27.2902 31.569 27.5213 31.7012 27.7751 31.7607C28.2883 31.8723 28.8233 31.8214 29.3064 31.6149C29.6749 31.3912 29.9459 31.0363 30.0655 30.621C30.2335 30.1434 30.3659 29.6538 30.4615 29.1565L30.5869 28.6595C31.2815 28.538 31.9822 28.455 32.6859 28.411C33.5703 28.3315 34.3162 28.3017 34.9267 28.3149Z" fill="#C451C2"/>
<path d="M50.4367 29.0273C50.6393 29.8693 50.7029 30.739 50.6248 31.6017C50.5588 32.6155 50.363 33.3643 50.0374 33.848C49.6986 34.1263 48.7382 34.3815 47.1563 34.6134C45.5744 34.8453 43.9154 35.0331 42.1795 35.1766C40.4436 35.3224 39.3347 35.4008 38.8529 35.4119C38.4546 35.4119 38.1103 35.0905 37.8199 34.4477C37.4882 33.668 37.2446 32.8534 37.0938 32.0191C36.8991 31.0252 36.7638 30.0511 36.6582 29.0372C36.5571 27.7842 36.5273 26.5265 36.5691 25.2701C36.5977 23.8775 36.719 22.4883 36.9321 21.112C37.1367 19.8098 37.4371 18.8821 37.8364 18.3355C38.4414 17.6927 39.4755 17.2079 40.9386 16.8809C42.5326 16.5369 44.1565 16.3516 45.7867 16.3276C47.5468 16.2857 48.8482 16.3729 49.6909 16.5894C50.0902 16.8213 50.3509 17.4442 50.4532 18.4647C50.5569 19.6091 50.5081 20.7624 50.308 21.8939C50.1363 23.0698 49.7456 24.2028 49.1562 25.2336C48.9399 25.6697 48.6187 26.0447 48.2217 26.3247C47.8246 26.6047 47.3643 26.7808 46.8824 26.8372C44.0816 26.9477 41.9914 26.9896 40.6119 26.9631C40.5862 27.6454 40.6227 28.3285 40.7208 29.0041C40.799 29.595 40.9091 30.1812 41.0508 30.7601C41.1696 31.2372 41.2719 31.489 41.3578 31.5155C42.5634 31.1033 43.7907 30.7582 45.0342 30.4818C46.9066 30.0224 48.7074 29.5375 50.4367 29.0273ZM41.3215 20.2737C41.054 20.3201 40.8044 20.4396 40.6 20.619C40.3957 20.7985 40.2445 21.0309 40.1631 21.2909C39.9382 21.7785 39.8254 22.3107 39.833 22.8481C39.8226 23.0211 39.8603 23.1936 39.9419 23.3463C40.0235 23.499 40.1458 23.6259 40.2951 23.7128C40.694 23.8032 41.1008 23.8542 41.5096 23.8653C42.0592 23.8946 42.61 23.8946 43.1597 23.8653C43.6042 23.8587 44.0468 23.8043 44.4798 23.7029C44.8286 23.5799 45.1161 23.3257 45.2817 22.9939C45.4542 22.6639 45.5512 22.2994 45.5656 21.927C45.5978 21.6552 45.5398 21.3804 45.4006 21.1451C45.0978 20.8838 44.7329 20.7057 44.3412 20.6282C43.811 20.4919 43.2716 20.3945 42.7274 20.3367C42.2615 20.274 41.791 20.2529 41.3215 20.2737Z" fill="#C451C2"/>
<path d="M75.314 31.8435L77.3602 31.8071C77.5599 32.2823 77.7168 32.7747 77.8288 33.2781C77.9872 33.9275 78.1247 34.5836 78.2413 35.2462C78.3491 35.8223 78.4229 36.4042 78.4624 36.989C78.4921 37.4926 78.4624 37.761 78.3469 37.7974C77.3371 37.7841 76.1787 37.7565 74.8718 37.7146C73.5649 37.6726 70.3746 37.6196 65.3011 37.5555C60.2187 37.4937 56.3596 37.55 53.7238 37.7245C53.6182 36.2225 53.5599 35.0883 53.5489 34.3218C53.5489 33.5565 53.5192 32.9965 53.4961 32.6056C54.0703 32.5824 54.8162 32.5559 55.7172 32.5327C55.7303 32.4214 55.7491 32.3108 55.7733 32.2013C56.2331 29.9682 56.7941 27.3176 57.4564 24.2496C58.1186 21.1815 58.7787 18.2228 59.4365 15.3734C60.0966 12.5306 60.6345 10.3715 61.0504 8.89603C61.2055 8.89603 61.6345 8.92916 62.3407 8.99542C63.047 9.06169 63.8193 9.14452 64.6509 9.25054C65.4826 9.35657 66.2317 9.46922 66.8654 9.58187C67.499 9.69452 67.8555 9.81711 67.9248 9.93638C68.0084 10.1573 68.4264 11.3887 69.1789 13.6306C69.9313 15.8726 70.8114 18.4823 71.8191 21.4598C72.8245 24.4462 73.7453 27.1663 74.5814 29.6203C74.8498 30.4751 75.094 31.2162 75.314 31.8435ZM61.3342 32.3736L63.5057 32.3041C65.9259 32.2312 67.9061 32.166 69.4462 32.1086C69.3186 31.5762 69.1833 30.992 69.0402 30.3559C68.5474 28.147 68.0271 25.8432 67.4792 23.4445C66.9314 21.0457 66.4463 18.9815 66.0238 17.252C65.8219 16.2812 65.5562 15.3249 65.2285 14.3894C65.036 14.3207 64.8317 14.2914 64.6278 14.3032C64.3681 14.3024 64.1088 14.3224 63.8523 14.3629C63.6047 14.4059 63.4595 14.4623 63.41 14.5318C63.377 14.6743 63.278 15.4099 63.1196 16.7385C62.9612 18.0671 62.7896 19.7204 62.5652 21.7083C62.3055 24.0099 62.0404 26.3546 61.7698 28.7423C61.6114 30.0632 61.4607 31.2736 61.3177 32.3736H61.3342Z" fill="#00B6C6"/>
<path d="M86.084 22.4141C86.084 22.4141 85.9289 23.5207 85.6121 25.7273C85.2952 27.9339 85.0114 29.9881 84.754 31.8634C84.4966 33.7387 84.3481 34.8453 84.3019 35.2131C84.2524 35.3324 84.0015 35.3556 83.5494 35.2761C83.0152 35.178 82.4882 35.0441 81.9719 34.8751C81.4095 34.6994 80.8585 34.4891 80.3218 34.2456C79.9672 34.1199 79.6512 33.9042 79.4043 33.6194C79.4747 33.3809 79.6683 32.7182 79.9851 31.6315C80.302 30.5447 80.632 29.3476 80.9752 28.0399C81.3184 26.7389 81.5858 25.6632 81.7772 24.8128C81.9686 23.9624 82.204 22.8757 82.4834 21.5526C82.7738 20.2406 83.0467 19.0555 83.3019 17.9975C83.4166 17.408 83.5811 16.8294 83.7936 16.268L86.0774 16.374C87.0543 16.4226 87.9288 16.4767 88.7011 16.5364C88.8331 16.8213 89.0421 17.2874 89.3281 17.9346C89.9332 19.3195 90.6966 21.0567 91.6185 23.1463C92.5404 25.2358 93.4061 27.1918 94.2158 29.014C95.0276 30.8363 95.5634 32.028 95.823 32.589C95.3478 32.9005 94.7823 33.2318 94.1267 33.583C93.471 33.9342 92.8528 34.2379 92.272 34.4941C91.8979 34.6891 91.4942 34.8201 91.0773 34.8818C90.7912 34.175 90.2852 32.673 89.5591 30.3758C88.8331 28.0786 88.1246 25.8289 87.4338 23.6267C86.9718 22.1468 86.6274 21.0479 86.4008 20.33C86.1918 21.7216 86.0862 22.4163 86.084 22.4141Z" fill="#00B6C6"/>
<path d="M105.76 17.5602C105.724 17.3249 105.694 17.0698 105.671 16.7981C105.813 16.7517 106.225 16.6656 106.908 16.543C107.692 16.4086 108.486 16.3454 109.281 16.3542C109.985 16.3641 110.689 16.3353 111.39 16.268C111.459 17.1526 111.486 18.2858 111.469 19.6608C111.453 21.0358 111.453 22.7719 111.469 24.8692C111.486 26.9664 111.509 29.13 111.522 31.3631C111.535 33.5962 111.522 34.9116 111.469 35.3125C111.009 35.359 110.545 35.3712 110.083 35.3489C109.36 35.3489 108.763 35.3257 108.327 35.3125C107.984 35.3179 107.644 35.2525 107.327 35.1203C107.327 34.8586 107.327 34.4577 107.327 33.8712C107.327 33.2848 107.367 32.7282 107.39 32.1616C107.413 31.595 107.43 31.2206 107.443 31.045C107.456 30.8694 107.143 31.2041 106.542 32.039C105.941 32.874 105.351 33.6956 104.77 34.4047C104.189 35.1137 103.631 35.8294 103.103 36.4953C102.575 37.1613 102.232 37.5224 102.077 37.5688C101.654 37.3665 101.266 37.0994 100.925 36.7769C100.288 36.2341 99.6859 35.6509 99.123 35.0309C98.6033 34.5105 98.221 33.8683 98.0108 33.1622C98.4135 32.8905 99.0999 32.4002 100.077 31.6911C101.054 30.9821 101.697 30.5149 102.011 30.283L103.331 29.289C104.062 28.736 104.764 28.1443 105.433 27.5164C105.492 27.4703 105.545 27.4168 105.592 27.3574C104.271 27.3839 102.713 27.3729 100.915 27.3243C100.447 27.2714 100 27.1026 99.6136 26.8331C99.227 26.5636 98.9133 26.2018 98.7006 25.7803C98.128 24.7766 97.7474 23.6742 97.5785 22.53C97.3828 21.4281 97.3351 20.3049 97.4366 19.1903C97.5422 18.2007 97.7897 17.5922 98.1792 17.3647C99.3186 17.1216 100.484 17.0204 101.648 17.0632C103.022 17.0596 104.391 17.2265 105.724 17.5602H105.76ZM106.42 23.408C106.397 23.1132 106.374 22.8348 106.351 22.5764C106.296 22.327 106.218 22.083 106.12 21.8475C106.039 21.6011 105.895 21.3808 105.701 21.2095C105.507 21.0382 105.271 20.9221 105.017 20.8734C104.669 20.8501 104.32 20.8713 103.978 20.9364C103.657 20.9903 103.348 21.1025 103.067 21.2677C102.814 21.4225 102.58 21.6071 102.37 21.8177C102.234 22.0467 102.178 22.3151 102.212 22.5797C102.225 22.9417 102.318 23.2962 102.486 23.6168C102.641 23.9409 102.916 24.1917 103.252 24.3159C103.449 24.3824 103.654 24.4214 103.862 24.4318L104.823 24.3788C105.222 24.3675 105.618 24.3165 106.007 24.2264C106.145 24.1416 106.258 24.0205 106.332 23.8763C106.407 23.7321 106.44 23.5701 106.43 23.408H106.42Z" fill="#00B6C6"/>
<path d="M135.402 31.8766L137.448 31.8402C137.646 32.316 137.803 32.8082 137.917 33.3113C138.075 33.9607 138.213 34.6167 138.329 35.2793C138.437 35.8554 138.511 36.4373 138.55 37.0221C138.58 37.5257 138.55 37.7941 138.435 37.8305C137.425 37.8173 136.267 37.7908 134.96 37.751C133.653 37.7113 130.463 37.6582 125.389 37.592C120.307 37.5257 116.447 37.5809 113.812 37.7576C113.706 36.2601 113.647 35.1236 113.637 34.3583C113.627 33.5929 113.607 33.033 113.584 32.6387C114.158 32.6155 114.904 32.5923 115.805 32.5691C115.805 32.4631 115.835 32.3504 115.858 32.2378C116.315 30.0047 116.878 27.3541 117.544 24.286C118.211 21.218 118.871 18.2592 119.524 15.4099C120.184 12.5693 120.722 10.4113 121.138 8.93579C121.293 8.93579 121.722 8.96561 122.429 9.03188C123.135 9.09814 123.907 9.18097 124.739 9.28699C125.57 9.39302 126.32 9.50567 126.953 9.61832C127.587 9.73097 127.943 9.85356 128.013 9.97283C128.096 10.1937 128.514 11.4251 129.267 13.6671C130.019 15.9091 130.899 18.5199 131.907 21.4996C132.912 24.4815 133.833 27.2006 134.669 29.6568C134.943 30.505 135.187 31.2504 135.402 31.8766ZM121.422 32.4068L123.594 32.3372C126.014 32.2687 127.994 32.2036 129.534 32.1417C129.405 31.6116 129.27 31.0251 129.128 30.389C128.633 28.1802 128.113 25.8764 127.567 23.4776C127.021 21.0788 126.536 19.0147 126.112 17.2851C125.685 15.5556 125.42 14.6025 125.316 14.4258C125.124 14.3557 124.92 14.3253 124.716 14.3364C124.456 14.335 124.196 14.356 123.94 14.3993C123.693 14.4391 123.544 14.4954 123.498 14.565C123.465 14.7075 123.366 15.443 123.207 16.7716C123.049 18.1002 122.877 19.7535 122.653 21.7415C122.398 24.0342 122.135 26.3789 121.864 28.7755C121.712 30.0985 121.565 31.309 121.422 32.4068Z" fill="#00B6C6"/>
<path d="M153.683 28.9743C153.888 29.8203 153.953 30.6947 153.874 31.5619C153.808 32.578 153.611 33.3301 153.284 33.8182C152.954 34.0965 151.98 34.355 150.389 34.5836C148.799 34.8122 147.135 35.0044 145.393 35.1501C143.65 35.2959 142.538 35.3754 142.053 35.3887C141.652 35.3887 141.307 35.0662 141.017 34.4212C140.684 33.6384 140.44 32.8204 140.291 31.9827C140.097 31.002 139.951 30.008 139.852 29.0008C139.75 27.7422 139.721 26.479 139.762 25.217C139.791 23.8189 139.912 22.4243 140.126 21.0424C140.33 19.7325 140.634 18.8037 141.036 18.2559C141.641 17.611 142.679 17.1239 144.149 16.7948C145.749 16.45 147.379 16.2624 149.016 16.2349C150.792 16.1907 152.099 16.279 152.937 16.4999C153.336 16.7318 153.597 17.358 153.703 18.3818C153.806 19.5307 153.757 20.6883 153.557 21.8243C153.383 23.0057 152.99 24.1441 152.399 25.1806C151.835 26.1448 151.079 26.6749 150.115 26.771C147.301 26.8814 145.202 26.9245 143.818 26.9002C143.796 27.5835 143.833 28.2674 143.927 28.9444C144.006 29.5374 144.117 30.1258 144.257 30.7071C144.376 31.1908 144.482 31.4426 144.564 31.4658C145.774 31.0546 147.004 30.7085 148.251 30.4288C150.138 29.9715 151.949 29.4867 153.683 28.9743ZM144.548 20.1876C144.28 20.2343 144.029 20.3538 143.824 20.5331C143.619 20.7123 143.466 20.9446 143.383 21.2047C143.157 21.6931 143.044 22.2267 143.053 22.7653C143.043 22.939 143.081 23.1121 143.163 23.2654C143.245 23.4186 143.368 23.546 143.518 23.6333C143.919 23.725 144.328 23.7771 144.739 23.789C145.285 23.82 145.843 23.82 146.412 23.789C146.857 23.7817 147.3 23.7261 147.733 23.6234C148.08 23.4953 148.364 23.2362 148.525 22.9011C148.696 22.5709 148.792 22.2064 148.805 21.8342C148.839 21.5617 148.783 21.2855 148.643 21.049C148.342 20.7923 147.979 20.6178 147.591 20.5421C147.058 20.4074 146.516 20.31 145.97 20.2505C145.499 20.1871 145.023 20.166 144.548 20.1876Z" fill="#00B6C6"/>
<path d="M153.683 28.9676C153.888 29.8126 153.953 30.6858 153.874 31.552C153.808 32.5691 153.61 33.3245 153.284 33.8116C152.945 34.0899 151.98 34.345 150.389 34.577C148.799 34.8089 147.133 34.9977 145.393 35.1435C143.653 35.2893 142.538 35.3688 142.053 35.3821C141.654 35.3821 141.307 35.0507 141.017 34.4146C140.684 33.6308 140.44 32.8116 140.291 31.9727C140.097 30.992 139.951 29.9981 139.852 28.9908C139.75 27.7323 139.721 26.469 139.762 25.2071C139.791 23.809 139.912 22.4144 140.126 21.0324C140.33 19.7248 140.634 18.796 141.036 18.246C141.641 17.5988 142.679 17.1118 144.149 16.7849C145.75 16.4434 147.38 16.2592 149.016 16.2349C150.792 16.1929 152.099 16.2813 152.937 16.4999C153.336 16.7319 153.597 17.3581 153.703 18.3818C153.806 19.5307 153.757 20.6883 153.557 21.8243C153.382 23.0056 152.99 24.1438 152.399 25.1806C151.835 26.1448 151.079 26.6749 150.115 26.771C147.301 26.8792 145.202 26.9212 143.818 26.8969C143.796 27.5813 143.832 28.2663 143.927 28.9444C144.006 29.5374 144.117 30.1258 144.257 30.7071C144.376 31.1908 144.482 31.4426 144.564 31.4658C145.773 31.0492 147.003 30.7007 148.251 30.4222C150.138 29.9649 151.949 29.4801 153.683 28.9676ZM144.548 20.1809C144.279 20.2272 144.027 20.3473 143.822 20.5279C143.616 20.7086 143.464 20.9428 143.383 21.2047C143.157 21.6944 143.044 22.229 143.053 22.7686C143.043 22.9423 143.082 23.1152 143.164 23.2684C143.246 23.4216 143.368 23.549 143.518 23.6366C143.919 23.7283 144.328 23.7805 144.739 23.7924C145.297 23.8206 145.855 23.8206 146.412 23.7924C146.857 23.7875 147.3 23.733 147.733 23.63C148.08 23.501 148.363 23.2422 148.525 22.9077C148.697 22.5765 148.792 22.2108 148.805 21.8376C148.838 21.5651 148.782 21.2892 148.643 21.0523C148.341 20.7955 147.979 20.62 147.591 20.5421C147.058 20.4074 146.516 20.31 145.97 20.2505C145.499 20.1849 145.023 20.1616 144.548 20.1809Z" fill="#00B6C6"/>
<path d="M171.923 16.9505C172.884 16.5818 173.896 16.3639 174.923 16.3044C175.922 16.247 176.596 16.4866 176.946 17.0234C177.151 17.4651 177.398 18.5872 177.689 20.3896C177.979 22.192 178.268 24.2109 178.554 26.4462C178.837 28.6727 179.057 30.6264 179.214 32.3074C179.375 33.9905 179.435 34.9116 179.385 35.0673C178.378 35.1928 177.363 35.2449 176.349 35.223C174.686 35.2385 173.714 35.1744 173.435 35.0308C173.412 34.948 173.395 34.4676 173.382 33.5929C173.369 32.7182 173.359 31.711 173.346 30.5712C173.322 29.0913 173.291 27.5517 173.253 25.9526C173.217 24.3589 173.168 22.9905 173.102 21.8574C173.036 20.7243 172.94 20.1113 172.821 20.0252C172.442 20.0299 172.068 20.1241 171.732 20.3002C171.197 20.5211 170.671 20.764 170.154 21.0291C169.786 21.2088 169.428 21.409 169.082 21.6288C169.118 22.1987 169.174 23.0203 169.247 24.0872C169.366 25.8962 169.487 27.7991 169.61 29.7959C169.733 31.7927 169.818 33.4891 169.864 34.885C169.755 35.0308 169.455 35.1435 168.966 35.2164C168.208 35.3093 167.443 35.3426 166.679 35.3158C165.646 35.3158 165.082 35.2495 164.983 35.1534C164.924 34.049 164.894 32.452 164.894 30.3625C164.894 28.2729 164.894 26.2154 164.894 24.1899C164.894 22.1622 164.903 20.7364 164.92 19.9125C164.316 20.1313 163.728 20.3926 163.161 20.6945C162.531 21.0258 161.973 21.3306 161.481 21.6222C160.99 21.9137 160.693 22.096 160.584 22.1688C160.683 24.0751 160.81 26.1635 160.967 28.4342C161.099 30.3161 161.198 31.9307 161.264 33.2781C161.33 34.6233 161.366 35.3456 161.366 35.445L155.977 35.4085V31.6811C155.99 30.0532 156.008 28.2078 156.033 26.1447C156.057 24.0817 156.081 22.2241 156.105 20.5719C156.129 18.9219 156.166 17.9025 156.214 17.5137C157.105 17.1203 158.036 16.8237 158.99 16.6291C159.791 16.445 160.604 16.3133 161.422 16.2348C161.422 16.6821 161.386 17.3878 161.313 18.3454C161.987 17.8071 162.694 17.3135 163.432 16.8677C163.915 16.5475 164.469 16.3507 165.046 16.2945C165.396 16.2741 165.746 16.3427 166.063 16.4938C166.381 16.6449 166.655 16.8738 166.861 17.1592C167.306 17.8618 167.522 18.6866 167.478 19.5183L168.468 18.8556C169.04 18.4536 169.572 18.1068 170.065 17.8152C170.661 17.479 171.283 17.1898 171.923 16.9505Z" fill="#00B6C6"/>
<path d="M213.671 16.3011C214.006 16.394 214.311 16.5707 214.559 16.8147C214.92 17.1224 215.26 17.4545 215.576 17.8087C215.876 18.151 216.155 18.5105 216.414 18.8855C216.553 19.0565 216.665 19.2489 216.744 19.4553C216.319 19.8706 215.858 20.2476 215.368 20.5818C214.582 21.1694 213.694 21.8144 212.704 22.5168L208.975 25.1806C210.15 26.0487 211.148 26.7831 211.968 27.3839C212.789 27.9847 213.583 28.5623 214.351 29.1167C215.121 29.6734 215.709 30.0886 216.113 30.3625C215.91 31.1005 215.586 31.7993 215.153 32.43C214.703 33.1415 214.204 33.8212 213.661 34.4643C213.163 35.0408 212.83 35.3489 212.671 35.3821C212.515 35.3357 212.084 34.9149 211.378 34.1197C210.668 33.3245 209.879 32.4035 209.001 31.3565C208.124 30.3095 207.021 28.9743 205.701 27.3475C205.761 28.6728 205.8 29.7595 205.827 30.6607C205.853 31.5619 205.87 32.3637 205.889 33.1158C205.909 33.8679 205.909 34.3782 205.889 34.6432C205.484 34.8112 205.061 34.9323 204.629 35.0044C204.028 35.1236 203.434 35.2197 202.84 35.2926C202.444 35.3591 202.042 35.3769 201.642 35.3456C201.596 34.937 201.578 33.5951 201.589 31.32C201.6 29.0449 201.63 26.4175 201.678 23.4378C201.729 20.4603 201.744 18.267 201.724 16.8578C201.705 15.4496 201.724 14.2933 201.804 13.3888C202.322 13.4517 202.985 13.5511 203.784 13.687C204.582 13.8228 205.355 13.9587 206.051 14.0846C206.747 14.2105 207.167 14.2999 207.312 14.3463C207.176 15.781 207.068 16.8511 206.982 17.5602C206.896 18.2692 206.714 20.0451 206.45 22.8878C207.839 21.5626 208.989 20.4581 209.902 19.5746C210.815 18.6911 211.637 17.939 212.368 17.3183C213.092 16.6645 213.526 16.3254 213.671 16.3011Z" fill="#00B6C6"/>
<path d="M221.027 34.852C220.969 35.0065 220.863 35.1381 220.724 35.2271C220.586 35.3161 220.422 35.3576 220.258 35.3456C219.635 35.3477 219.014 35.2641 218.413 35.0971C217.987 35.0044 217.875 34.8884 217.852 34.8553C217.759 34.6478 217.731 34.4164 217.773 34.1926C217.763 33.8064 217.799 33.4203 217.882 33.0429C217.961 32.6917 218.123 32.5923 218.261 32.5493C218.773 32.4652 219.296 32.4787 219.803 32.589C220.175 32.65 220.54 32.7545 220.888 32.9005C220.985 32.9725 221.065 33.065 221.122 33.1716C221.179 33.2781 221.212 33.3959 221.218 33.5167C221.275 33.971 221.209 34.432 221.027 34.852Z" fill="#FF5B55"/>
<path d="M253.999 15.9731V17.2288C253.999 19.4686 253.977 22.1755 253.933 25.3496C253.904 28.4905 253.838 31.5718 253.732 34.4842C253.643 35.8625 253.26 36.8034 252.593 37.2607C251.83 37.7586 250.916 37.9687 250.013 37.8537C249.016 37.7575 248.029 37.5712 247.066 37.2971C245.858 36.9658 244.719 36.6345 243.67 36.2501C242.448 35.8128 241.957 35.5444 241.759 35.392C241.546 35.0572 241.432 34.6691 241.429 34.2721C241.369 33.6899 241.357 33.1037 241.392 32.5194C241.398 32.2022 241.439 31.8866 241.515 31.5785C241.699 31.5255 241.89 31.4966 242.082 31.4923C242.541 31.4625 243.072 31.4559 243.679 31.4691C244.287 31.4824 244.835 31.5122 245.33 31.5453L245.924 31.6083C245.877 31.9926 245.821 32.4101 245.745 32.8507C245.706 33.1357 245.67 33.3709 245.637 33.5631V33.6128V33.6625C245.676 33.9408 245.91 34.1727 246.409 34.4113C246.88 34.6289 247.375 34.7901 247.884 34.8917C248.471 35.0185 249.069 35.0829 249.669 35.0839H249.999V34.7525C250.046 33.4968 250.065 32.2345 250.065 30.992V27.7914L249.61 27.9604C248.742 28.2917 247.762 28.6231 246.686 28.9544C245.693 29.2718 244.681 29.5285 243.656 29.7231C243.511 29.7429 243.056 29.8026 242.594 28.9047C242.172 28.0173 241.876 27.0749 241.716 26.105C241.488 24.9354 241.316 23.6996 241.194 22.4306C241.072 21.1616 240.993 19.9921 240.953 18.9683C240.92 18.1223 240.896 17.4817 240.881 17.0466C241.148 16.977 241.511 16.8942 241.963 16.8081C242.574 16.6855 243.194 16.5794 243.805 16.4933C244.237 16.427 244.534 16.3972 244.739 16.384C244.831 18.3089 244.943 20.3068 245.069 22.3478C245.163 23.8719 245.248 25.2844 245.323 26.5854L245.346 26.9797L245.729 26.8969L246.438 26.7411C246.957 26.6318 247.6 26.4893 248.349 26.3071C249.098 26.1249 249.844 25.9161 250.57 25.6809L250.828 25.5981L250.805 25.3297C250.758 24.8493 250.712 24.3622 250.663 23.8686L250.204 18.6833C250.082 17.3349 250.046 16.6954 250.039 16.4005C251.277 16.2349 252.61 16.0924 253.999 15.9731Z" fill="#FF5B55"/>
<path d="M18.9999 46.9055C19.0016 46.9254 19.0016 46.9453 18.9999 46.9652C19.0263 47.4423 19.0395 47.7438 19.0395 47.873V48.0685L19.7293 47.7371C20.3246 47.5153 20.961 47.4271 21.5939 47.4787C22.254 47.5814 22.6566 47.8531 22.8051 48.2904C22.9394 48.6469 23.0227 49.0205 23.0526 49.4004C23.0526 49.7019 23.079 50.063 23.0955 50.5302C23.1125 50.9537 23.0971 51.378 23.0493 51.7992C23.0129 52.1696 22.8872 52.5255 22.683 52.8362C22.5816 52.9896 22.4505 53.121 22.2974 53.2223C22.1443 53.3236 21.9723 53.3929 21.7919 53.426C21.4792 53.4751 21.1599 53.4638 20.8514 53.3928C20.57 53.3275 20.2974 53.2285 20.0395 53.098C19.8416 52.9976 19.6528 52.88 19.4752 52.7468C19.4213 52.7099 19.3695 52.6701 19.3201 52.6275V52.6507C19.3233 52.6926 19.3233 52.7347 19.3201 52.7766C19.3201 52.876 19.3201 53.0019 19.3432 53.1576C19.3663 53.3133 19.363 53.469 19.3729 53.6314C19.2078 53.6314 18.9834 53.5883 18.6963 53.5386C18.4092 53.4889 18.132 53.4425 17.8679 53.3862C17.6039 53.3299 17.4224 53.2901 17.3234 53.2603C17.2838 52.6352 17.1947 50.9333 17.0561 48.1546L16.9604 46.7829C16.9604 46.6338 16.9208 46.3158 16.8779 45.8287C16.8284 45.4609 16.9241 45.2721 17.1683 45.2621L18.429 45.2091C19.5115 45.1672 20.4421 45.1108 21.221 45.0402C21.452 45.07 21.6104 45.3715 21.6896 45.9745C21.7688 46.5775 21.6896 46.8724 21.4817 46.8889C21.0967 46.8889 20.4993 46.9055 19.6897 46.9386L18.9999 46.9055ZM20.7821 51.7727C20.9242 51.7013 21.0464 51.5955 21.1375 51.4647C21.2285 51.334 21.2856 51.1824 21.3035 51.0239C21.38 50.7164 21.4133 50.3997 21.4025 50.0829C21.3994 49.8928 21.3602 49.705 21.287 49.5296C21.1913 49.4004 20.957 49.3341 20.5841 49.3242C20.2115 49.3181 19.8401 49.3673 19.4818 49.47C19.1494 49.5568 18.8563 49.7542 18.6501 50.0299C18.5727 50.1953 18.5386 50.3777 18.5511 50.56C18.5469 50.769 18.577 50.9772 18.6402 51.1763C18.7514 51.3766 18.9343 51.527 19.1517 51.5971C19.4267 51.7117 19.7169 51.7854 20.0131 51.8157C20.2696 51.8549 20.5315 51.8402 20.7821 51.7727Z" fill="#FFA100"/>
<path d="M28.0362 45.3516C28.3353 45.3855 28.6312 45.4442 28.9206 45.5272C29.2553 45.615 29.5771 45.7464 29.8777 45.9181C30.1444 46.0588 30.3484 46.2955 30.4486 46.5808C30.5622 47.1474 30.6273 47.7226 30.6434 48.3003C30.6929 49.132 30.7028 49.957 30.683 50.7389C30.6632 51.5208 30.5873 52.0344 30.4618 52.2431C30.1098 52.5412 29.6827 52.7361 29.2276 52.8063C28.5777 52.9648 27.915 53.0646 27.2474 53.1045C26.7277 53.1611 26.202 53.1218 25.6963 52.9886C25.3663 52.8461 25.1287 52.4883 24.9603 51.9151C24.7721 51.26 24.6614 50.585 24.6303 49.904C24.5871 49.1541 24.6003 48.4021 24.6699 47.6543C24.7139 47.0453 24.8336 46.4442 25.0263 45.8651C25.0959 45.748 25.1919 45.649 25.3065 45.5759C25.4211 45.5028 25.5513 45.4577 25.6864 45.4443C26.0688 45.3579 26.4594 45.3135 26.8514 45.3118C27.2468 45.3009 27.6424 45.3142 28.0362 45.3516ZM28.6137 51.2856C28.7551 51.0496 28.8356 50.782 28.848 50.507C28.9076 49.9922 28.9385 49.4746 28.9404 48.9564C28.9547 48.4624 28.9437 47.9681 28.9074 47.4753C28.8744 47.144 28.8249 46.9353 28.7556 46.9022C28.474 46.8406 28.1853 46.8183 27.8976 46.8359C27.5499 46.8429 27.2038 46.8851 26.8646 46.9618C26.6309 46.993 26.411 47.0907 26.2309 47.2434C26.1639 47.4722 26.1404 47.7116 26.1616 47.9491C26.1616 48.35 26.1814 48.8835 26.2309 49.5461C26.256 50.0713 26.3424 50.5918 26.4884 51.0967C26.6072 51.4645 26.7689 51.6533 26.9735 51.6567C27.056 51.6567 27.2144 51.6301 27.4487 51.5937C27.683 51.5573 27.9141 51.5142 28.1451 51.4645C28.3129 51.4417 28.4732 51.3805 28.6137 51.2856Z" fill="#FFA100"/>
<path d="M35.0749 47.8895C35.0749 47.8895 35.0122 48.3368 34.8835 49.2314C34.7548 50.126 34.6426 50.951 34.5535 51.7064C34.4644 52.4618 34.3885 52.9124 34.3687 53.0582C34.3489 53.1079 34.2499 53.1145 34.0651 53.0847C33.8497 53.0434 33.637 52.9892 33.4281 52.9223C33.2035 52.8497 32.9832 52.7645 32.7681 52.6672C32.6255 52.6163 32.4983 52.5296 32.3984 52.4154C32.4281 52.3193 32.504 52.051 32.6328 51.6103C32.7615 51.1696 32.8935 50.6859 33.0321 50.1591C33.1707 49.6323 33.2796 49.1983 33.3621 48.857C33.4446 48.5157 33.5304 48.0718 33.6492 47.5317C33.768 46.9916 33.8769 46.5212 33.9793 46.0971C34.0245 45.8586 34.0908 45.6247 34.1773 45.398L35.098 45.441C35.4941 45.4609 35.8472 45.4841 36.1574 45.5073L36.4115 46.0706C36.6558 46.6294 36.9638 47.3307 37.3356 48.1745L38.3851 50.5434C38.7151 51.279 38.9263 51.7594 39.0451 51.9847C38.8537 52.1106 38.626 52.2464 38.362 52.3856C38.098 52.5248 37.8471 52.654 37.6128 52.7567C37.4607 52.8349 37.2968 52.8875 37.1277 52.9124C37.0122 52.6275 36.7977 52.0211 36.5171 51.0934C36.2366 50.1657 35.9396 49.2579 35.6591 48.37C35.471 47.7736 35.3291 47.3296 35.2432 47.0447C35.1178 47.6079 35.0749 47.8895 35.0749 47.8895Z" fill="#FFA100"/>
<path d="M45.2835 53.204L44.1251 53.1609C43.3949 53.1402 42.668 53.0526 41.9536 52.8992C41.277 52.7501 40.8744 52.5248 40.7457 52.2365C40.664 51.865 40.6056 51.4888 40.5708 51.11C40.5023 50.4796 40.4726 49.8456 40.4817 49.2115C40.4817 48.5268 40.4817 47.7537 40.4817 46.8923C40.4619 46.0374 40.4817 45.5438 40.5675 45.4146C40.6655 45.3897 40.7671 45.3819 40.8678 45.3914H41.5278L42.2671 45.4245C42.5014 45.4245 42.6895 45.4576 42.8281 45.4775C42.706 46.4317 42.6103 47.2965 42.5476 48.0718C43.0856 48.0419 43.6631 48.0254 44.2736 48.0188C44.8097 48.0096 45.3454 48.0495 45.8743 48.138C46.2861 48.1866 46.6633 48.3932 46.927 48.7145C47.1812 49.026 47.3693 49.6058 47.498 50.4573C47.6416 51.0263 47.6233 51.6244 47.4452 52.1835C47.3432 52.4279 47.1757 52.639 46.9613 52.7934C46.7468 52.9479 46.4939 53.0395 46.2307 53.0582L45.2835 53.204ZM44.5839 49.6489L43.9436 49.5892C43.5465 49.5477 43.1461 49.5477 42.7489 49.5892C42.3826 49.6323 42.1747 49.7218 42.1186 49.8609C42.0506 50.1213 42.0316 50.3921 42.0625 50.6594C42.1029 50.9374 42.2169 51.1994 42.3925 51.4181C42.5848 51.5534 42.8188 51.6156 43.0526 51.5937C43.397 51.6006 43.7415 51.5784 44.0822 51.5275C44.3663 51.4909 44.6468 51.4299 44.9205 51.3452C45.0139 51.3133 45.0983 51.2593 45.1667 51.1878C45.235 51.1163 45.2853 51.0294 45.3132 50.9344C45.3562 50.7237 45.3425 50.5053 45.2736 50.3016C45.2374 50.1101 45.13 49.9395 44.9733 49.8245L44.5839 49.6489Z" fill="#FFA100"/>
<path d="M51.8596 53.0118C51.4659 53.1614 51.052 53.2508 50.6319 53.2769C50.4802 53.3062 50.3234 53.2943 50.1778 53.2425C50.0322 53.1906 49.903 53.1007 49.8035 52.982C49.6571 52.5338 49.5554 52.0721 49.4999 51.6037C49.3811 50.8615 49.2634 50.0354 49.1468 49.1254C49.0302 48.2153 48.9389 47.4146 48.8729 46.7233C48.8211 46.349 48.7979 45.9713 48.8036 45.5935C49.2153 45.5447 49.6299 45.5236 50.0445 45.5305C50.4433 45.4975 50.8448 45.5243 51.2358 45.61C51.255 45.806 51.2627 46.0029 51.2589 46.1998C51.2589 46.5576 51.2589 46.9685 51.2589 47.4356C51.2589 48.0419 51.2787 48.6715 51.2952 49.3242C51.3117 49.9769 51.3315 50.5368 51.358 51.004C51.3437 51.2589 51.383 51.5141 51.4735 51.7528C51.6286 51.7498 51.781 51.7113 51.919 51.6401C52.1368 51.5507 52.3513 51.4513 52.579 51.3419C52.8068 51.2326 52.9355 51.1498 53.0147 51.0967C53.0147 50.8615 52.9784 50.5269 52.9487 50.1028C52.8981 49.365 52.8486 48.5919 52.8002 47.7835C52.7507 46.9651 52.7177 46.2727 52.6978 45.6995C52.8013 45.6137 52.9301 45.5648 53.0642 45.5603C53.3742 45.5252 53.6863 45.5119 53.9981 45.5206C54.2323 45.501 54.4681 45.5234 54.6945 45.5868C54.7165 46.0396 54.7286 46.6935 54.7308 47.5483C54.733 48.4031 54.733 49.2458 54.7308 50.0763C54.7308 50.9046 54.7308 51.4877 54.7308 51.8257C54.9794 51.7329 55.2209 51.6222 55.4536 51.4943C55.711 51.3618 55.9387 51.2359 56.14 51.1166C56.3413 50.9974 56.47 50.9211 56.5063 50.8913C56.4667 50.1138 56.415 49.259 56.3512 48.3269C56.2951 47.5582 56.2555 46.8956 56.2291 46.3389C56.2027 45.7823 56.1862 45.4907 56.1862 45.451L58.3941 45.4676V46.995C58.3941 47.6576 58.3864 48.413 58.371 49.2612C58.3556 50.1094 58.3457 50.8692 58.3413 51.5407C58.3413 52.2034 58.3149 52.6341 58.2951 52.7931C57.9312 52.9555 57.5504 53.0766 57.1598 53.1543C56.8334 53.2305 56.5028 53.2869 56.1697 53.3232C56.1697 53.1377 56.1697 52.8495 56.2126 52.4585C55.9391 52.6759 55.6526 52.8762 55.3545 53.0582C55.1568 53.1891 54.9303 53.2699 54.6945 53.2934C54.5511 53.3015 54.4079 53.2732 54.2782 53.2113C54.1484 53.1493 54.0363 53.0557 53.9519 52.9389C53.7697 52.6519 53.682 52.3146 53.7011 51.9748L53.2985 52.2431C53.0675 52.4055 52.8497 52.5479 52.6384 52.6672C52.3888 52.8037 52.1283 52.9189 51.8596 53.0118Z" fill="#FFA100"/>
<path d="M63.3057 45.3085C63.6043 45.3457 63.8999 45.4043 64.1902 45.4841C64.5248 45.5719 64.8466 45.7033 65.1472 45.8751C65.4132 46.0168 65.6168 46.2531 65.7182 46.5377C65.8319 47.1054 65.897 47.6818 65.9129 48.2606C65.9624 49.0889 65.9723 49.9172 65.9525 50.6958C65.9327 51.4744 65.8568 51.9946 65.7314 52.2033C65.3785 52.5001 64.9518 52.6949 64.4971 52.7666C63.8472 52.925 63.1845 53.0248 62.5169 53.0648C61.9983 53.1202 61.4739 53.0809 60.9691 52.9488C60.6391 52.803 60.3982 52.4452 60.2299 51.8753C60.0417 51.2191 59.9309 50.543 59.8998 49.8609C59.8566 49.1111 59.8698 48.359 59.9395 47.6112C59.9841 47.0023 60.1038 46.4013 60.2959 45.8221C60.366 45.7055 60.4621 45.6068 60.5767 45.5338C60.6912 45.4608 60.821 45.4154 60.9559 45.4013C61.3382 45.3144 61.729 45.2711 62.1209 45.2721C62.5162 45.2601 62.9119 45.2723 63.3057 45.3085ZM63.8832 51.2425C64.0246 51.0066 64.1051 50.739 64.1176 50.4639C64.1774 49.9492 64.2082 49.4315 64.21 48.9133C64.2242 48.4205 64.2132 47.9273 64.177 47.4356C64.144 47.1043 64.0945 46.8955 64.0252 46.8591C63.7433 46.7992 63.4548 46.7769 63.1671 46.7928C62.8195 46.8015 62.4736 46.8437 62.1341 46.9187C61.9 46.9507 61.6801 47.0496 61.5005 47.2037C61.4336 47.4314 61.4101 47.6697 61.4312 47.9061C61.4312 48.3081 61.4543 48.8415 61.5005 49.5064C61.5255 50.0316 61.6119 50.552 61.7579 51.057C61.8767 51.4247 62.0417 51.6103 62.243 51.6169C62.3255 51.6169 62.4839 51.5904 62.7183 51.5506C62.9526 51.5109 63.1836 51.4711 63.4146 51.4214C63.5824 51.3986 63.7427 51.3374 63.8832 51.2425Z" fill="#FFA100"/>
<path d="M71.7149 45.3914C71.8424 45.3847 71.9702 45.3847 72.0977 45.3914L72.8304 45.4212L73.5597 45.4609C73.6885 45.4643 73.8167 45.4798 73.9426 45.5073C73.8392 47.0093 73.7644 48.2518 73.7182 49.2347C73.6687 50.2287 73.6323 51.4579 73.6026 52.9588C73.5432 52.9588 73.4013 52.982 73.1835 52.9919L72.4509 53.035C72.2627 53.035 72.0911 53.0615 71.936 53.0681C71.8256 53.0714 71.7155 53.0802 71.606 53.0946C71.606 52.9886 71.606 52.8826 71.606 52.7633C71.606 52.644 71.606 52.5214 71.5829 52.369C71.1242 52.5181 70.7314 52.6374 70.408 52.7302C70.0846 52.823 69.7678 52.9025 69.4641 52.9687C69.2294 53.026 68.9894 53.0593 68.748 53.0681C68.4477 53.0483 68.2199 52.8395 68.0681 52.4419C67.8948 51.9298 67.7959 51.3953 67.7744 50.8549C67.7326 50.1392 67.7128 49.2336 67.715 48.138C67.712 47.2086 67.7572 46.2796 67.8503 45.3549C68.0087 45.3748 68.2397 45.4112 68.5434 45.4643C68.847 45.5173 69.1407 45.5703 69.4245 45.6233C69.7051 45.6796 69.8965 45.7161 69.9955 45.7426C69.9493 46.4052 69.9097 47.1949 69.8767 48.1115C69.8437 49.0282 69.8239 49.8421 69.8173 50.5534C69.7939 50.9349 69.8083 51.3178 69.8602 51.6965C70.045 51.6434 70.309 51.5606 70.6522 51.448L71.6192 51.1166C71.9162 51.0172 72.0878 50.9576 72.134 50.9377C72.0834 50.3082 72.0174 49.4479 71.936 48.3567C71.837 47.2799 71.771 46.2826 71.7149 45.3914ZM71.3552 42.5155C71.4408 42.5299 71.5196 42.5717 71.5796 42.6347C71.671 42.7104 71.757 42.7923 71.837 42.8799C71.9228 42.9694 71.9855 43.0423 72.0317 43.0953C72.0622 43.1207 72.0858 43.1535 72.1002 43.1906C72.1147 43.2277 72.1195 43.2679 72.1142 43.3073C72.0735 43.4258 71.9975 43.5287 71.8964 43.6022L71.7644 43.7314C71.6258 43.864 71.474 44.0097 71.3057 44.1655C71.1374 44.3212 70.9756 44.457 70.8502 44.573C70.7747 44.6493 70.6835 44.7081 70.5829 44.7453C70.5203 44.739 70.4607 44.7149 70.4113 44.6757C70.3405 44.63 70.2732 44.579 70.21 44.5233C70.1593 44.4812 70.1149 44.4321 70.078 44.3775C70.078 44.3378 70.1176 44.2251 70.2265 44.0462C70.3354 43.8673 70.4707 43.6453 70.6324 43.4067C70.7941 43.1682 70.9426 42.9661 71.0813 42.7938C71.2199 42.6215 71.2991 42.5188 71.3552 42.5155Z" fill="#FFA100"/>
<path d="M86.8237 52.6805C86.8237 52.6805 86.8237 52.5016 86.8072 52.1438C86.8072 51.5043 86.7775 50.7423 86.7643 49.861C86.7511 48.9796 86.7445 48.2607 86.7478 47.704C86.6059 48.0022 86.4178 48.3667 86.2297 48.8073C86.0415 49.248 85.8303 49.6688 85.6422 50.0796C85.431 50.5468 85.2726 50.8914 85.167 51.1167C84.4739 51.1962 83.9987 51.2393 83.7413 51.2426C83.6489 50.9709 83.1472 49.8477 82.2364 47.883C82.1011 49.036 82.0053 50.0266 81.9459 50.8649C81.8865 51.7031 81.8172 52.4552 81.738 53.1311C81.3387 53.0814 80.9691 53.0251 80.6324 52.9655C80.3455 52.9184 80.0658 52.8337 79.8008 52.7137C79.8536 52.3558 79.9757 51.6799 80.1605 50.6793C80.3453 49.6787 80.5301 48.6914 80.715 47.6775C80.8998 46.6637 81.045 45.9878 81.144 45.6266C81.2671 45.6347 81.3895 45.6513 81.5103 45.6763C81.6984 45.7062 81.8403 45.7327 81.9162 45.7492L82.5103 45.8718L84.0977 48.9962C84.4343 48.4307 84.7214 47.9525 84.9591 47.5616C85.1967 47.1706 85.4277 46.7995 85.6455 46.445C85.8633 46.0905 86.0349 45.8354 86.1538 45.6697C86.8138 45.5869 87.4738 45.5206 88.1141 45.4775C88.2395 46.9398 88.388 48.5125 88.5596 50.1956C88.6751 51.342 88.7675 52.3227 88.8434 53.1311C88.7176 53.1577 88.5885 53.1644 88.4606 53.151C88.2749 53.147 88.0897 53.1304 87.9062 53.1013L87.3187 53.0019C87.1479 52.9797 86.9812 52.9328 86.8237 52.8627V52.6805Z" fill="#FFA100"/>
<path d="M91.1565 45.4742C91.6986 45.3587 92.2549 45.3263 92.8067 45.3781C93.4726 45.4145 94.1346 45.5031 94.7868 45.6432C95.2564 45.7093 95.7064 45.8754 96.1069 46.1302C96.1399 46.826 96.1861 47.81 96.2455 49.0823C96.3049 50.3546 96.3544 51.4347 96.394 52.3227C96.394 52.5314 96.4138 52.707 96.4237 52.8461C96.3115 52.8693 96.1498 52.8958 95.9419 52.9224C95.734 52.9489 95.5162 52.9787 95.2818 53.0052C95.0475 53.0317 94.8627 53.0549 94.701 53.0648C94.6065 53.0707 94.5117 53.0707 94.4172 53.0648C94.4337 52.9091 94.4436 52.7335 94.4502 52.5281C94.4568 52.3227 94.4502 52.1371 94.4502 51.9681C94.2806 52.0314 94.1142 52.1033 93.9518 52.1835C93.5756 52.3624 93.1268 52.5513 92.6086 52.7501C92.1497 52.9367 91.6614 53.0399 91.1664 53.0549C90.975 53.035 90.8166 52.8428 90.6945 52.4718C90.5652 52.0482 90.4833 51.6114 90.4503 51.1697C90.4098 50.7288 90.4098 50.2852 90.4503 49.8444C90.4946 49.3473 90.6183 48.8607 90.8166 48.4031C90.8853 48.2303 91.0008 48.0803 91.1502 47.9702C91.2996 47.8601 91.4767 47.7943 91.6615 47.7802C92.0425 47.7708 92.4236 47.7963 92.8001 47.8564C93.2588 47.9194 93.6779 47.9856 94.0607 48.0486C94.2522 48.085 94.4106 48.1082 94.5327 48.1281C94.5992 48.1407 94.6675 48.1407 94.734 48.1281C94.7655 48.0527 94.7801 47.9713 94.7769 47.8895C94.7769 47.7504 94.7769 47.598 94.7769 47.429C94.7769 47.26 94.7769 47.1209 94.7769 47.0115C94.5751 46.9371 94.3676 46.8795 94.1565 46.8392C93.8638 46.773 93.5635 46.72 93.2555 46.6802C93.0265 46.6421 92.7945 46.6255 92.5624 46.6305C92.5624 46.7332 92.5393 46.8326 92.536 46.9221C92.5327 47.0115 92.536 47.0513 92.5195 47.1308C92.422 47.1424 92.3234 47.1424 92.2258 47.1308C92.0443 47.1308 91.8364 47.1308 91.5988 47.1308C91.3611 47.1308 91.1499 47.1043 90.9651 47.0844C90.7803 47.0645 90.6747 47.038 90.6549 47.0049C90.6343 46.8621 90.6343 46.717 90.6549 46.5742C90.6755 46.3419 90.7231 46.1128 90.7968 45.8917C90.8219 45.7995 90.8672 45.7142 90.9295 45.642C90.9917 45.5697 91.0693 45.5124 91.1565 45.4742ZM94.9782 50.7754C95.0363 50.7178 95.0822 50.6492 95.1134 50.5735C95.1446 50.4978 95.1603 50.4166 95.1597 50.3347C95.1762 50.1595 95.1762 49.9831 95.1597 49.8079C95.1597 49.6886 95.0046 49.5926 94.7406 49.5197C94.4161 49.4389 94.0845 49.3901 93.7505 49.3739C93.3589 49.3133 92.9582 49.3662 92.5954 49.5263C92.5095 49.5817 92.438 49.6569 92.3869 49.7456C92.3358 49.8344 92.3066 49.9341 92.3017 50.0365C92.3017 50.1691 92.2819 50.348 92.2819 50.5799C92.2833 50.795 92.3133 51.0089 92.371 51.216C92.4304 51.4082 92.5294 51.5109 92.6746 51.5209C92.9293 51.493 93.1804 51.4386 93.4238 51.3585C93.7538 51.2591 94.0839 51.1498 94.3842 51.0272C94.5901 50.9564 94.7898 50.8689 94.9815 50.7654L94.9782 50.7754Z" fill="#FFA100"/>
<path d="M103.955 45.4742C104.497 45.3587 105.054 45.3263 105.605 45.3781C106.271 45.4145 106.933 45.5031 107.586 45.6432C108.05 45.7107 108.494 45.8767 108.889 46.1302C108.922 46.826 108.972 47.81 109.031 49.0823C109.091 50.3546 109.14 51.4347 109.18 52.3227C109.18 52.5314 109.199 52.707 109.209 52.8461C109.094 52.8693 108.932 52.8958 108.724 52.9224L108.064 53.0052C107.836 53.0317 107.645 53.0549 107.48 53.0648C107.387 53.0706 107.293 53.0706 107.2 53.0648C107.2 52.9091 107.223 52.7335 107.233 52.5281C107.242 52.3227 107.233 52.1371 107.233 51.9681C107.133 52.0013 106.968 52.0742 106.734 52.1835C106.358 52.3624 105.912 52.5513 105.391 52.7501C104.933 52.9367 104.446 53.0399 103.952 53.0549C103.757 53.035 103.602 52.8428 103.48 52.4718C103.348 52.049 103.266 51.6119 103.236 51.1697C103.192 50.729 103.192 50.285 103.236 49.8444C103.278 49.3473 103.4 48.8604 103.599 48.4031C103.668 48.2303 103.783 48.0803 103.933 47.9702C104.082 47.8601 104.259 47.7943 104.444 47.7802C104.826 47.7707 105.208 47.7962 105.586 47.8564C106.041 47.9194 106.46 47.9856 106.843 48.0486C107.038 48.085 107.193 48.1082 107.315 48.1281C107.383 48.1407 107.452 48.1407 107.52 48.1281C107.551 48.0527 107.565 47.9711 107.559 47.8895C107.559 47.7504 107.559 47.598 107.559 47.429C107.559 47.26 107.559 47.1209 107.559 47.0115C107.358 46.9366 107.15 46.879 106.939 46.8392C106.644 46.773 106.344 46.72 106.038 46.6802C105.81 46.6422 105.579 46.6256 105.348 46.6305C105.332 46.727 105.322 46.8244 105.318 46.9221C105.318 46.9817 105.318 47.0513 105.302 47.1308C105.205 47.1425 105.108 47.1425 105.011 47.1308C104.83 47.1308 104.619 47.1308 104.381 47.1308C104.143 47.1308 103.932 47.1043 103.747 47.0844C103.563 47.0645 103.46 47.038 103.441 47.0049C103.418 46.8622 103.418 46.7169 103.441 46.5742C103.458 46.3418 103.505 46.1125 103.579 45.8917C103.607 45.7986 103.656 45.713 103.721 45.6408C103.786 45.5687 103.866 45.5118 103.955 45.4742ZM107.78 50.7754C107.895 50.6573 107.96 50.4995 107.962 50.3347C107.977 50.1594 107.977 49.9832 107.962 49.8079C107.945 49.6886 107.807 49.5926 107.543 49.5197C107.218 49.4392 106.887 49.3903 106.553 49.3739C106.161 49.3133 105.76 49.3662 105.398 49.5263C105.312 49.5817 105.24 49.6569 105.189 49.7456C105.138 49.8344 105.109 49.9341 105.104 50.0365C105.088 50.2172 105.083 50.3986 105.087 50.5799C105.087 50.7951 105.117 51.0093 105.176 51.216C105.233 51.4082 105.332 51.5109 105.477 51.5209C105.732 51.4937 105.983 51.4393 106.226 51.3585C106.556 51.2591 106.886 51.1498 107.186 51.0272C107.391 50.9552 107.589 50.8677 107.78 50.7654V50.7754Z" fill="#FFA100"/>
<path d="M111.486 45.5802C111.76 45.5537 112.119 45.5372 112.565 45.5272C113.007 45.5164 113.449 45.5497 113.885 45.6266C114.314 45.7028 114.717 45.7824 115.093 45.8619L115.753 46.011C115.8 46.1938 115.824 46.382 115.822 46.5709C115.828 46.8141 115.82 47.0574 115.799 47.2998C115.789 47.4792 115.755 47.6565 115.697 47.8266L114.987 48.4528C114.882 48.5456 114.779 48.6417 114.657 48.7344C114.705 48.7269 114.753 48.7158 114.799 48.7013C115.208 48.6218 115.542 48.5588 115.789 48.5191C115.878 48.539 115.951 48.6914 116.007 48.9829C116.024 49.0823 116.037 49.1817 116.05 49.2811L116.109 50.888C116.109 51.7826 116.067 52.6805 116.037 53.5784C116 54.2079 115.826 54.6386 115.519 54.8606C115.189 55.092 114.785 55.1913 114.387 55.1389C113.974 55.0976 113.567 55.0177 113.169 54.9004C112.674 54.7612 112.212 54.6121 111.783 54.4498C111.491 54.3592 111.214 54.2264 110.961 54.0555C110.85 53.8883 110.788 53.6931 110.783 53.4923C110.756 53.238 110.751 52.982 110.766 52.7269C110.767 52.5641 110.792 52.4023 110.839 52.2465C110.869 52.2001 110.981 52.1703 111.169 52.157C111.357 52.1438 111.581 52.157 111.829 52.157C112.077 52.157 112.301 52.1769 112.489 52.1902C112.616 52.1939 112.743 52.214 112.865 52.2498C112.849 52.4519 112.822 52.6706 112.783 52.9124C112.766 53.0317 112.75 53.1344 112.737 53.2139C112.723 53.2935 112.826 53.3465 112.974 53.4227C113.155 53.5091 113.346 53.5736 113.542 53.6148C113.769 53.6651 114.002 53.6906 114.235 53.691C114.235 53.426 114.251 53.1609 114.255 52.8992C114.258 52.6374 114.255 52.3923 114.255 52.104C114.255 51.7296 114.255 51.2127 114.255 50.5733L113.449 50.9908C113.409 51.0081 113.365 51.017 113.321 51.017C113.276 51.017 113.233 51.0081 113.192 50.9908C113.076 50.9377 113.05 50.792 113.027 50.739C112.756 50.0564 112.601 49.682 112.562 49.6158C112.443 49.3021 112.413 49.1133 112.473 49.0492C112.532 48.9829 112.581 48.9332 112.618 48.8968L113.677 47.9028L114.393 47.2402L113.189 47.3131H113.149C113 47.3294 112.853 47.3537 112.707 47.386C112.643 47.3981 112.582 47.4241 112.529 47.4622C112.565 47.6875 112.588 47.8929 112.608 48.0817C112.524 48.1103 112.436 48.1238 112.347 48.1215L111.793 48.1414C111.573 48.1535 111.352 48.1535 111.133 48.1414C110.941 48.1414 110.832 48.1016 110.803 48.0552C110.753 47.9 110.727 47.7379 110.727 47.5748C110.713 47.3274 110.713 46.9961 110.727 46.5808C110.702 46.3074 110.756 46.0327 110.882 45.789C110.93 45.7508 110.981 45.7154 111.034 45.683C111.182 45.6374 111.333 45.6031 111.486 45.5802Z" fill="#FFA100"/>
<path d="M121.977 45.3913C122.105 45.3847 122.232 45.3847 122.36 45.3913L123.089 45.4212L123.822 45.4609C123.951 45.4646 124.079 45.4801 124.205 45.5073C124.099 47.0093 124.023 48.2518 123.977 49.2347C123.931 50.2176 123.892 51.459 123.862 52.9588C123.802 52.9588 123.664 52.982 123.442 52.9919L122.713 53.035C122.525 53.035 122.353 53.0615 122.195 53.0681C122.036 53.0747 121.931 53.0847 121.865 53.0946C121.865 52.9886 121.865 52.8826 121.865 52.7633C121.865 52.644 121.865 52.5214 121.842 52.369C121.38 52.5181 120.99 52.6374 120.664 52.7302C120.337 52.8229 120.027 52.9024 119.723 52.9687C119.488 53.0257 119.248 53.059 119.007 53.0681C118.703 53.0482 118.476 52.8395 118.327 52.4419C118.152 51.9302 118.053 51.3955 118.033 50.8549C117.987 50.1392 117.967 49.2336 117.974 48.138C117.97 47.2086 118.014 46.2797 118.106 45.3549C118.264 45.3748 118.495 45.4112 118.802 45.4642C119.109 45.5172 119.4 45.5669 119.68 45.6233C119.961 45.6796 120.152 45.716 120.254 45.7425C120.208 46.4052 120.169 47.1948 120.136 48.1115C120.103 49.0282 120.083 49.8421 120.076 50.5534C120.049 50.9348 120.063 51.3181 120.119 51.6964C120.299 51.6434 120.563 51.5606 120.911 51.4479L121.875 51.1166C122.174 51.0172 122.346 50.9576 122.39 50.9377C122.34 50.3082 122.277 49.4467 122.195 48.3567C122.112 47.2666 122.03 46.2826 121.977 45.3913Z" fill="#FFA100"/>
<path d="M132.261 45.5338C132.156 47.0347 132.08 48.2739 132.034 49.2612C131.987 50.2486 131.948 51.4877 131.918 52.9853C131.859 52.9853 131.717 53.0052 131.499 53.0218L130.766 53.0615C130.582 53.0615 130.407 53.088 130.248 53.0947C130.09 53.1013 129.984 53.1112 129.918 53.1212C129.918 53.0814 129.918 52.9919 129.918 52.8495C129.918 52.6374 129.885 52.3425 129.849 51.8257C129.826 51.5109 129.799 51.11 129.766 50.6429H129.733C129.379 50.67 129.027 50.7242 128.681 50.8052C128.433 50.8648 128.166 50.9311 127.882 51.0073L127.862 51.12C127.844 51.2052 127.844 51.2932 127.862 51.3784C127.862 51.8124 127.898 52.3889 127.935 53.1112C127.654 53.1097 127.373 53.0931 127.093 53.0615C126.793 53.0284 126.522 52.9919 126.291 52.9555C126.141 52.9319 125.992 52.8987 125.846 52.8561C125.899 52.1206 125.982 51.184 126.097 50.0465C126.186 48.529 126.248 47.3959 126.291 46.6504C126.334 45.9049 126.357 45.4875 126.377 45.4013C126.707 45.4245 127.077 45.4643 127.466 45.5107C127.856 45.557 128.143 45.6001 128.334 45.6432C128.334 45.7492 128.304 45.8652 128.288 45.9745C128.271 46.0838 128.288 47.1573 128.308 49.1618V49.3938L128.608 49.3606C128.809 49.3374 129.06 49.3209 129.364 49.3109H129.44C129.549 49.2778 129.657 49.248 129.77 49.2082C130.07 49.1121 130.238 49.0525 130.285 49.0293C130.235 48.2176 130.195 47.6344 130.159 47.2832C130.123 46.932 130.08 46.3058 130.027 45.4013C130.154 45.3947 130.28 45.3947 130.407 45.4013L131.139 45.4311L131.872 45.4709C132.003 45.4818 132.133 45.5028 132.261 45.5338Z" fill="#FFA100"/>
<path d="M143.713 45.6233C143.797 45.9688 143.822 46.3263 143.785 46.6802C143.785 47.323 143.749 48.0486 143.7 48.8603C143.65 49.672 143.591 50.3745 143.528 50.9609C143.449 51.6799 143.353 52.3823 143.238 53.0615C143.167 53.5857 143.03 54.0989 142.832 54.5889C142.669 54.8282 142.423 54.9973 142.142 55.0627C141.762 55.1778 141.37 55.249 140.974 55.2747C140.547 55.3109 140.118 55.3208 139.69 55.3046C139.563 55.2974 139.439 55.2644 139.326 55.2074C139.212 55.1504 139.111 55.0707 139.03 54.9732C138.844 54.7578 138.703 54.5079 138.614 54.2377C138.522 53.9947 138.457 53.7426 138.419 53.4856C138.39 53.2636 138.393 53.1344 138.436 53.0946C138.642 53.016 138.855 52.9572 139.073 52.919C139.356 52.8627 139.621 52.8163 139.875 52.7799C140.029 52.7523 140.186 52.7401 140.343 52.7434C140.396 52.7633 140.429 52.8892 140.439 53.1178C140.439 53.1874 140.459 53.2603 140.469 53.3398C140.478 53.5134 140.522 53.6834 140.597 53.8401C140.638 53.9131 140.7 53.972 140.775 54.0093C140.85 54.0465 140.934 54.0603 141.017 54.0488C141.145 54.0389 141.273 54.0211 141.399 53.9958C141.53 53.9778 141.654 53.9264 141.759 53.8467C141.837 53.7004 141.881 53.5385 141.888 53.3729C141.911 53.141 141.927 52.8925 141.931 52.6208C141.934 52.3491 141.931 52.1139 141.931 51.9118C141.934 51.8008 141.927 51.6898 141.908 51.5805C141.628 51.6887 141.242 51.8146 140.749 51.9582C140.261 52.0973 139.779 52.2166 139.31 52.3061C138.971 52.3912 138.619 52.4159 138.271 52.379C138.109 52.3127 137.98 52.0675 137.888 51.6368C137.79 51.1638 137.726 50.6843 137.696 50.2022C137.657 49.6754 137.644 49.2347 137.647 48.8769C137.647 48.3236 137.696 47.7669 137.756 47.2203C137.794 46.7515 137.882 46.2883 138.02 45.8386C138.048 45.7549 138.103 45.6826 138.175 45.6325C138.248 45.5824 138.335 45.557 138.423 45.5603C138.676 45.5588 138.928 45.5855 139.175 45.6398H139.264L139.875 45.7591L140.587 45.9115L141.426 46.1037C141.426 45.9546 141.426 45.8221 141.426 45.7127C141.426 45.6034 141.426 45.4841 141.409 45.3648C141.822 45.388 142.238 45.4278 142.66 45.4775C143.082 45.5272 143.422 45.5669 143.713 45.6233ZM142.281 49.6422C142.306 49.5023 142.317 49.3603 142.314 49.2181C142.314 49.0127 142.314 48.8073 142.314 48.6052C142.311 48.4671 142.296 48.3295 142.267 48.1943C142.244 48.1413 142.109 48.0916 141.865 48.0486C141.58 48.0032 141.292 47.9777 141.003 47.9724C140.697 47.9601 140.39 47.9756 140.086 48.0187C139.875 48.0307 139.674 48.1136 139.515 48.254C139.437 48.4461 139.406 48.6537 139.423 48.8603C139.423 49.1684 139.423 49.4733 139.456 49.7814C139.467 49.987 139.491 50.1918 139.528 50.3943C139.564 50.4838 139.713 50.5169 139.977 50.4937C140.285 50.4629 140.589 50.4063 140.888 50.3248C141.203 50.2397 141.511 50.1288 141.809 49.9934C142.069 49.8808 142.231 49.7615 142.281 49.6422Z" fill="#FFA100"/>
<path d="M148.062 47.7106C148.062 47.7106 147.996 48.1712 147.867 49.0922C147.739 50.0133 147.616 50.8648 147.511 51.6467C147.405 52.4287 147.339 52.8892 147.319 53.0383C147.3 53.088 147.197 53.0979 147.009 53.0648C146.786 53.0243 146.565 52.9689 146.349 52.8992C146.117 52.8255 145.888 52.7381 145.666 52.6374C145.519 52.5837 145.387 52.4937 145.283 52.3757L145.524 51.544C145.656 51.0901 145.791 50.5931 145.937 50.0498C146.082 49.5064 146.191 49.0558 146.267 48.7079C146.343 48.36 146.438 47.8995 146.56 47.3528C146.683 46.8061 146.795 46.3124 146.89 45.8718C146.938 45.627 147.005 45.3865 147.092 45.1528L148.042 45.1992C148.448 45.2191 148.814 45.2389 149.135 45.2655C149.191 45.3847 149.276 45.5769 149.395 45.8453C149.646 46.4218 149.966 47.1474 150.349 48.0154C150.732 48.8835 151.092 49.6986 151.428 50.4573C151.765 51.216 151.989 51.7097 152.088 51.9449C151.89 52.0742 151.653 52.21 151.382 52.3558C151.111 52.5016 150.851 52.6308 150.61 52.7368C150.454 52.819 150.286 52.8739 150.111 52.8992C149.993 52.6043 149.781 51.9814 149.481 51.0239C149.181 50.0663 148.884 49.132 148.597 48.2175C148.405 47.6013 148.267 47.1441 148.168 46.8459C148.108 47.4224 148.062 47.7106 148.062 47.7106Z" fill="#FFA100"/>
<path d="M157.264 45.6067C157.248 45.5073 157.235 45.3969 157.224 45.2754C157.284 45.2555 157.458 45.2191 157.746 45.166C158.073 45.11 158.404 45.0834 158.736 45.0865C159.032 45.0914 159.328 45.0792 159.623 45.0501C159.653 45.4245 159.666 45.8983 159.656 46.4781C159.646 47.0579 159.656 47.8034 159.656 48.6681C159.656 49.5329 159.676 50.4606 159.679 51.4016C159.683 52.3425 159.679 52.8958 159.656 53.0582C159.463 53.0717 159.269 53.0717 159.076 53.0582H158.336C158.188 53.0604 158.041 53.0322 157.904 52.9753C157.904 52.866 157.904 52.6904 157.904 52.4485C157.904 52.2067 157.904 51.9681 157.93 51.7296C157.957 51.491 157.947 51.3353 157.95 51.2591C157.953 51.1829 157.825 51.3287 157.571 51.6865C157.317 52.0443 157.072 52.3756 156.825 52.6805L156.125 53.5585C156.01 53.734 155.863 53.8868 155.693 54.0091C155.516 53.9246 155.353 53.8128 155.211 53.6777C154.944 53.4491 154.691 53.2034 154.455 52.9422C154.235 52.7247 154.074 52.4544 153.987 52.157C154.155 52.0443 154.445 51.8257 154.855 51.5374L155.666 50.9476L156.227 50.5335C156.535 50.3009 156.83 50.052 157.112 49.788C157.137 49.7682 157.159 49.7447 157.178 49.7184C156.621 49.7184 155.961 49.7184 155.198 49.7184C155 49.6947 154.811 49.6216 154.649 49.5059C154.486 49.3901 154.355 49.2354 154.267 49.0558C154.025 48.6347 153.865 48.1716 153.795 47.6907C153.712 47.2263 153.692 46.7525 153.736 46.2826C153.779 45.8651 153.884 45.62 154.046 45.5172C154.525 45.4145 155.015 45.3711 155.505 45.388C156.082 45.3876 156.657 45.4577 157.218 45.5968L157.264 45.6067ZM157.544 48.0684C157.544 47.9425 157.524 47.8266 157.515 47.7172C157.491 47.6132 157.459 47.5113 157.419 47.4124C157.386 47.3056 157.324 47.21 157.24 47.1364C157.156 47.0627 157.053 47.0137 156.944 46.9949C156.797 46.9857 156.649 46.9946 156.505 47.0215C156.37 47.0433 156.24 47.0894 156.122 47.1573C156.015 47.2232 155.917 47.301 155.828 47.3892C155.77 47.4893 155.747 47.6058 155.762 47.7205C155.768 47.872 155.808 48.0203 155.878 48.1546C155.91 48.2232 155.957 48.2846 156.013 48.3352C156.07 48.3858 156.136 48.4246 156.208 48.4495C156.289 48.4786 156.375 48.4954 156.462 48.4992L156.868 48.476C157.035 48.4708 157.202 48.4497 157.366 48.413C157.424 48.3772 157.471 48.3262 157.503 48.2655C157.534 48.2048 157.548 48.1367 157.544 48.0684Z" fill="#FFA100"/>
<path d="M172.256 52.6805C172.256 52.6805 172.256 52.5016 172.256 52.1438C172.24 51.5043 172.227 50.7423 172.21 49.861C172.194 48.9796 172.19 48.2607 172.21 47.704C172.065 48.0022 171.88 48.3667 171.689 48.8073L171.104 50.0796L170.629 51.1167C169.936 51.1962 169.461 51.2393 169.204 51.2426C169.108 50.9709 168.606 49.8477 167.695 47.883C167.563 49.036 167.464 50.0266 167.405 50.8649C167.346 51.7031 167.276 52.4552 167.197 53.1311C166.798 53.0814 166.428 53.0251 166.091 52.9655C165.804 52.9184 165.525 52.8337 165.26 52.7137C165.316 52.3558 165.435 51.6799 165.619 50.6793C165.804 49.6787 165.989 48.6914 166.174 47.6775C166.359 46.6637 166.504 45.9878 166.603 45.6266C166.727 45.6348 166.851 45.6514 166.973 45.6763C167.157 45.7062 167.303 45.7327 167.375 45.7492L167.969 45.8718L169.56 48.9962C169.897 48.4307 170.184 47.9525 170.421 47.5616C170.659 47.1706 170.887 46.7995 171.108 46.445C171.329 46.0905 171.497 45.8354 171.616 45.6697C172.276 45.5869 172.936 45.5206 173.576 45.4775C173.697 46.9398 173.846 48.5125 174.022 50.1956C174.134 51.342 174.23 52.3227 174.302 53.1311C174.177 53.1579 174.047 53.1646 173.92 53.151C173.735 53.1472 173.551 53.1306 173.368 53.1013L172.778 53.0019C172.607 52.9797 172.44 52.9328 172.283 52.8627L172.256 52.6805Z" fill="#FFA100"/>
<path d="M176.593 45.4742C177.135 45.3587 177.692 45.3263 178.243 45.3781C178.909 45.4145 179.571 45.5031 180.223 45.6432C180.693 45.7084 181.143 45.8745 181.544 46.1302C181.577 46.826 181.626 47.81 181.685 49.0823C181.745 50.3546 181.794 51.4347 181.834 52.3227C181.834 52.5314 181.854 52.707 181.864 52.8461C181.748 52.8693 181.586 52.8958 181.379 52.9224L180.718 53.0052C180.491 53.0317 180.299 53.0549 180.134 53.0648C180.041 53.0706 179.947 53.0706 179.854 53.0648C179.854 52.9091 179.877 52.7335 179.887 52.5281C179.897 52.3227 179.887 52.1371 179.887 51.9681C179.788 52.0013 179.623 52.0742 179.388 52.1835C179.012 52.3624 178.567 52.5513 178.045 52.7501C177.587 52.9367 177.1 53.0399 176.606 53.0549C176.412 53.035 176.257 52.8428 176.134 52.4718C176.002 52.049 175.92 51.6119 175.89 51.1697C175.846 50.729 175.846 50.285 175.89 49.8444C175.932 49.3473 176.055 48.8604 176.253 48.4031C176.322 48.2303 176.437 48.0803 176.587 47.9702C176.736 47.8601 176.913 47.7943 177.098 47.7802C177.48 47.7707 177.862 47.7962 178.24 47.8564C178.695 47.9194 179.118 47.9856 179.497 48.0486C179.692 48.085 179.847 48.1082 179.969 48.1281C180.037 48.1407 180.106 48.1407 180.174 48.1281C180.205 48.0527 180.219 47.9711 180.214 47.8895C180.214 47.7504 180.214 47.598 180.214 47.429C180.214 47.26 180.214 47.1209 180.214 47.0115C180.012 46.9366 179.804 46.879 179.593 46.8392C179.298 46.773 178.998 46.72 178.692 46.6802C178.464 46.6422 178.233 46.6256 178.002 46.6305C177.987 46.727 177.977 46.8244 177.973 46.9221C177.973 46.9817 177.973 47.0513 177.956 47.1308C177.86 47.1425 177.762 47.1425 177.666 47.1308C177.484 47.1308 177.273 47.1308 177.035 47.1308C176.798 47.1308 176.587 47.1043 176.402 47.0844C176.217 47.0645 176.115 47.038 176.095 47.0049C176.072 46.8622 176.072 46.7169 176.095 46.5742C176.113 46.3418 176.159 46.1125 176.233 45.8917C176.26 45.8002 176.306 45.7156 176.368 45.6435C176.43 45.5715 176.507 45.5137 176.593 45.4742ZM180.418 50.7754C180.533 50.6573 180.598 50.4995 180.6 50.3347C180.614 50.1594 180.614 49.9832 180.6 49.8079C180.6 49.6886 180.445 49.5926 180.181 49.5197C179.856 49.4392 179.524 49.3903 179.19 49.3739C178.799 49.3133 178.398 49.3662 178.035 49.5263C177.949 49.5817 177.878 49.6569 177.827 49.7456C177.776 49.8344 177.747 49.9341 177.742 50.0365C177.726 50.2172 177.721 50.3986 177.725 50.5799C177.727 50.795 177.757 51.0089 177.814 51.216C177.87 51.4082 177.969 51.5109 178.115 51.5209C178.369 51.4937 178.62 51.4393 178.864 51.3585C179.194 51.2591 179.524 51.1498 179.824 51.0272C180.028 50.9552 180.227 50.8677 180.418 50.7654V50.7754Z" fill="#FFA100"/>
<path d="M186.021 47.7106L185.823 49.0922C185.691 50.0133 185.572 50.8648 185.467 51.6467L185.279 53.0383C185.259 53.088 185.153 53.0979 184.949 53.0648C184.725 53.0243 184.505 52.9689 184.289 52.8992C184.056 52.8255 183.828 52.7381 183.605 52.6374C183.458 52.5837 183.326 52.4937 183.223 52.3757C183.252 52.2763 183.335 51.998 183.467 51.544C183.599 51.0901 183.734 50.5931 183.876 50.0498C184.018 49.5064 184.134 49.0558 184.206 48.7079C184.279 48.36 184.378 47.8995 184.497 47.3528C184.615 46.8061 184.734 46.3124 184.827 45.8718C184.874 45.6267 184.943 45.3861 185.031 45.1528L185.982 45.1992C186.388 45.2191 186.751 45.2389 187.071 45.2655C187.127 45.3847 187.213 45.5769 187.331 45.8453L188.285 48.0154C188.668 48.8868 189.031 49.6986 189.368 50.4573C189.704 51.216 189.925 51.7097 190.028 51.9449C189.83 52.0742 189.595 52.21 189.322 52.3558C189.048 52.5016 188.793 52.6308 188.549 52.7368C188.395 52.8193 188.227 52.8742 188.054 52.8992C187.935 52.6043 187.724 51.9814 187.421 51.0239L186.539 48.2175C186.345 47.6013 186.209 47.1441 186.107 46.8459C186.064 47.4224 186.021 47.7106 186.021 47.7106Z" fill="#FFA100"/>
<path d="M196.813 50.5435C196.897 50.8879 196.924 51.2439 196.892 51.5971C196.892 51.9198 196.809 52.237 196.651 52.5181C196.282 52.7004 195.88 52.8063 195.47 52.8296C194.823 52.9268 194.144 53.0041 193.434 53.0615C192.724 53.1212 192.269 53.1543 192.071 53.1576C191.873 53.1609 191.767 53.0284 191.648 52.7633C191.512 52.4444 191.412 52.1109 191.351 51.7694C191.272 51.3685 191.213 50.9609 191.173 50.5501C191.131 50.0366 191.118 49.5211 191.133 49.0061C191.147 48.4357 191.197 47.8668 191.285 47.3031C191.323 46.9016 191.45 46.5135 191.655 46.1667C192.013 45.8498 192.454 45.6428 192.925 45.5703C193.577 45.4312 194.24 45.3557 194.905 45.345C195.441 45.3109 195.979 45.3465 196.506 45.451C196.671 45.5471 196.773 45.8022 196.82 46.2197C196.861 46.6886 196.841 47.1608 196.76 47.6245C196.689 48.106 196.529 48.57 196.288 48.9929C196.199 49.1716 196.068 49.3255 195.906 49.4411C195.743 49.5567 195.555 49.6303 195.358 49.6555C194.209 49.6975 193.352 49.714 192.787 49.7052C192.778 49.9843 192.793 50.2637 192.833 50.5401C192.864 50.782 192.908 51.022 192.965 51.2591C193.014 51.4579 193.057 51.5606 193.09 51.5706C193.585 51.4017 194.089 51.2601 194.599 51.1465C195.369 50.9521 196.107 50.7511 196.813 50.5435ZM193.087 46.9585C192.977 46.9773 192.875 47.0263 192.791 47.0999C192.707 47.1736 192.645 47.2692 192.612 47.376C192.521 47.5754 192.477 47.793 192.483 48.0121C192.479 48.0828 192.495 48.1533 192.528 48.2158C192.561 48.2783 192.611 48.3305 192.671 48.3667C192.835 48.4034 193.002 48.4245 193.17 48.4296C193.397 48.4412 193.625 48.4412 193.853 48.4296C194.033 48.4259 194.212 48.4037 194.387 48.3633C194.531 48.311 194.649 48.2055 194.717 48.0685C194.786 47.9323 194.825 47.7833 194.833 47.6311C194.849 47.516 194.824 47.3989 194.764 47.2998C194.641 47.1922 194.491 47.119 194.331 47.0877C194.114 47.0324 193.894 46.9915 193.671 46.9652C193.477 46.946 193.282 46.9438 193.087 46.9585Z" fill="#FFA100"/>
<path d="M200.77 50.8549L200.733 51.1166C200.715 51.203 200.715 51.292 200.733 51.3784C200.733 51.8091 200.77 52.3723 200.809 53.1079C200.528 53.1065 200.247 53.0899 199.968 53.0582C199.661 53.0251 199.393 52.9886 199.159 52.9488C199.009 52.9289 198.861 52.8968 198.717 52.8528C198.77 52.1172 198.853 51.1807 198.968 50.0431C199.056 48.5301 199.119 47.3981 199.159 46.6471C199.202 45.9016 199.228 45.4841 199.248 45.398C199.585 45.4245 199.948 45.4609 200.337 45.5073C200.727 45.5537 200.997 45.5968 201.202 45.6365C201.202 45.7492 201.179 45.8618 201.159 45.9679C201.139 46.0739 201.159 47.1507 201.179 49.1552V49.6986L200.786 50.5865L200.77 50.8549ZM201.482 49.3672C201.687 49.3407 201.938 49.3242 202.241 49.3142C202.36 49.3142 202.482 49.3142 202.604 49.3142V50.6196C202.25 50.6468 201.898 50.701 201.552 50.782L200.317 51.0901L200.898 49.4335C201.027 49.4202 201.222 49.3971 201.482 49.3672ZM201.75 49.4401H201.803C202.093 49.3927 202.38 49.3229 202.661 49.2314C202.961 49.1287 203.133 49.0724 203.175 49.0525C203.126 48.2374 203.086 47.6543 203.05 47.3031C203.014 46.9519 202.971 46.3257 202.918 45.4212C202.958 45.4212 203.083 45.4212 203.298 45.4212L204.03 45.451C204.301 45.451 204.545 45.4775 204.763 45.4941C204.89 45.4955 205.018 45.5099 205.142 45.5371C205.041 47.0391 204.966 48.2816 204.918 49.2645C204.87 50.2475 204.831 51.4899 204.802 52.9919C204.743 52.9919 204.604 53.0118 204.383 53.025L203.651 53.0648C203.463 53.0648 203.291 53.0913 203.136 53.0979C203.025 53.1012 202.915 53.11 202.806 53.1244C202.806 53.0217 202.773 52.591 202.72 51.8323C202.667 51.0736 202.637 50.6163 202.628 50.4639H202.39C202.173 50.4835 201.959 50.5234 201.75 50.5832V49.4401Z" fill="#FFA100"/>
<path d="M211.262 53.204L210.104 53.1609C209.374 53.14 208.647 53.0524 207.932 52.8992C207.256 52.7501 206.853 52.5248 206.725 52.2365C206.643 51.865 206.584 51.4888 206.55 51.11C206.481 50.4796 206.451 49.8456 206.461 49.2115C206.461 48.5257 206.461 47.7537 206.461 46.8923C206.461 46.0308 206.461 45.5438 206.546 45.4146C206.644 45.3897 206.746 45.3819 206.847 45.3914H207.507L208.246 45.4245C208.484 45.4245 208.672 45.4576 208.81 45.4775C208.685 46.4317 208.593 47.2965 208.527 48.0718C209.068 48.0419 209.642 48.0254 210.253 48.0188C210.789 48.0096 211.324 48.0495 211.853 48.138C212.265 48.1866 212.642 48.3932 212.906 48.7145C213.159 49.026 213.35 49.6069 213.48 50.4573C213.623 51.0266 213.603 51.6247 213.424 52.1835C213.322 52.4281 213.155 52.6394 212.941 52.7939C212.726 52.9484 212.473 53.0399 212.21 53.0582L211.262 53.204ZM210.563 49.6489L209.923 49.5892C209.526 49.5477 209.127 49.5477 208.731 49.5892C208.365 49.6323 208.154 49.7218 208.098 49.8609C208.029 50.1212 208.011 50.3923 208.045 50.6594C208.083 50.9379 208.198 51.2004 208.375 51.4181C208.567 51.5534 208.801 51.6156 209.035 51.5937C209.379 51.6006 209.724 51.5784 210.064 51.5275C210.349 51.4912 210.629 51.4302 210.903 51.3452C210.996 51.3133 211.081 51.2593 211.149 51.1878C211.217 51.1163 211.267 51.0294 211.295 50.9344C211.34 50.7238 211.326 50.5049 211.256 50.3016C211.22 50.1101 211.112 49.9395 210.956 49.8245L210.563 49.6489Z" fill="#FFA100"/>
<path d="M219.866 45.4344C220.002 45.4727 220.127 45.5444 220.229 45.6431C220.374 45.7696 220.511 45.9058 220.638 46.0507C220.756 46.186 220.866 46.3276 220.968 46.4747C221.026 46.5441 221.072 46.6225 221.104 46.7067C220.93 46.8737 220.744 47.0266 220.546 47.1639C220.216 47.3991 219.869 47.6609 219.467 47.9458L217.949 49.0226L219.163 49.9139C219.493 50.1591 219.823 50.3943 220.127 50.6163C220.43 50.8383 220.675 51.0106 220.84 51.1199C220.758 51.4193 220.626 51.7027 220.45 51.9582C220.275 52.2457 220.08 52.5203 219.866 52.7798C219.759 52.9316 219.622 53.0591 219.463 53.1542C219.266 53.0084 219.089 52.8355 218.939 52.6407C218.653 52.3204 218.333 51.9482 217.978 51.5241C217.624 51.1 217.177 50.5589 216.638 49.9006C216.662 50.4308 216.678 50.878 216.688 51.2259C216.698 51.5738 216.708 51.9151 216.714 52.2199C216.721 52.5247 216.714 52.7301 216.714 52.8362C216.552 52.9057 216.381 52.9547 216.206 52.9819C215.962 53.0316 215.721 53.0714 215.48 53.1012C215.32 53.1273 215.157 53.134 214.995 53.1211C214.975 52.9554 214.969 52.4121 214.975 51.491C214.982 50.5699 214.994 49.5064 215.011 48.3003C215.031 47.0943 215.035 46.2064 215.028 45.6497C215.021 45.0931 215.028 44.6127 215.061 44.2449C215.269 44.2714 215.539 44.3112 215.87 44.3675L216.787 44.5266C217.067 44.5796 217.239 44.6127 217.295 44.6326C217.242 45.2124 217.199 45.6464 217.163 45.9347C217.127 46.2229 217.054 46.9287 216.949 48.0916C217.51 47.5515 217.975 47.0976 218.345 46.7663C218.714 46.435 219.048 46.1037 219.335 45.8519C219.492 45.6888 219.671 45.5483 219.866 45.4344Z" fill="#FFA100"/>
<path d="M226.426 45.3913C226.554 45.3847 226.682 45.3847 226.809 45.3913L227.542 45.4212L228.271 45.4609C228.4 45.4643 228.528 45.4798 228.654 45.5073C228.553 47.0093 228.478 48.2518 228.43 49.2347C228.38 50.2287 228.344 51.4579 228.314 52.9588C228.255 52.9588 228.113 52.982 227.895 52.9919L227.162 53.035C226.974 53.035 226.802 53.0615 226.647 53.0681C226.537 53.0714 226.427 53.0802 226.317 53.0946C226.317 52.9886 226.317 52.8826 226.317 52.7633C226.317 52.644 226.317 52.5214 226.294 52.369C225.836 52.5181 225.443 52.6374 225.119 52.7302C224.796 52.8229 224.479 52.9024 224.176 52.9687C223.941 53.026 223.701 53.0593 223.459 53.0681C223.159 53.0482 222.931 52.8395 222.78 52.4419C222.606 51.9298 222.507 51.3953 222.486 50.8549C222.442 50.1392 222.422 49.2336 222.426 48.138C222.423 47.2086 222.469 46.2796 222.562 45.3549C222.72 45.3748 222.951 45.4112 223.255 45.4642C223.558 45.5172 223.852 45.5702 224.136 45.6233C224.416 45.6796 224.608 45.716 224.707 45.7425C224.664 46.4052 224.621 47.1971 224.588 48.1115C224.555 49.026 224.535 49.841 224.529 50.5534C224.505 50.9349 224.52 51.3178 224.572 51.6964C224.756 51.6434 225.02 51.5606 225.364 51.4479L226.331 51.1166C226.628 51.0172 226.799 50.9576 226.845 50.9377C226.795 50.3082 226.729 49.4478 226.647 48.3567C226.548 47.2799 226.482 46.2826 226.426 45.3913Z" fill="#FFA100"/>
<path d="M234.911 49.0359C235.495 49.4965 236.079 49.9504 236.657 50.3977L237.904 51.3618C237.931 51.3927 237.884 51.5032 237.766 51.6931C237.65 51.8787 237.505 52.0841 237.33 52.316C237.155 52.548 237 52.7534 236.835 52.9356C236.75 53.0513 236.65 53.1549 236.538 53.2437C236.083 52.7269 235.593 52.1603 235.069 51.544C234.546 50.9278 234.106 50.4065 233.749 49.9802C233.644 50.1525 233.359 50.5622 232.894 51.2094C232.43 51.8566 232.012 52.4408 231.64 52.9621C231.51 52.8765 231.388 52.7801 231.274 52.6739C231.093 52.5181 230.891 52.3425 230.673 52.1371C230.456 51.9317 230.264 51.7528 230.096 51.5904C229.989 51.4929 229.89 51.3877 229.799 51.2757C230.234 50.8052 230.657 50.3513 231.069 49.9206C231.663 49.301 232.215 48.7278 232.72 48.2076C232.013 47.4765 231.328 46.7476 230.663 46.0209C231.225 45.542 231.834 45.1234 232.482 44.7718C232.81 45.2136 233.15 45.6774 233.502 46.1633L234.162 47.1043L234.927 46.3423L235.736 45.5305C235.776 45.4841 235.818 45.4411 235.861 45.3947C235.962 45.4639 236.058 45.5403 236.149 45.6233L236.647 46.064L237.148 46.5179C237.297 46.6537 237.389 46.7432 237.429 46.7829L235.95 48.1082L234.911 49.0359Z" fill="#FFA100"/>
<path d="M99.6082 49.4236C99.6258 49.7129 99.6588 50.0906 99.7072 50.5567C99.76 51.0239 99.8128 51.501 99.8689 51.9946C99.9118 52.3525 99.9481 52.6838 99.9811 52.9886C99.7006 53.0184 99.3904 53.0449 99.0603 53.0648C98.7303 53.0847 98.4663 53.088 98.2782 53.0648C98.2782 52.6308 98.2485 51.998 98.2287 51.163C98.2089 50.3281 98.1924 49.5064 98.1759 48.6914C98.1594 47.8763 98.1495 47.3097 98.1429 46.9155C98.0659 46.9155 97.9834 46.9221 97.8954 46.9353H97.6544C97.5851 46.9353 97.5488 46.9353 97.5488 46.9055C97.5488 46.6537 97.5686 46.3887 97.5818 46.1137C97.595 45.8387 97.6115 45.6299 97.6214 45.4841L99.3409 45.3417L101.404 45.176C102.011 45.1263 102.357 45.1031 102.45 45.1031C102.493 45.1031 102.522 45.1893 102.532 45.3284C102.545 45.4894 102.545 45.6512 102.532 45.8122C102.522 45.9757 102.501 46.1385 102.469 46.2992C102.441 46.4406 102.405 46.5201 102.361 46.5378H101.885H101.037L100.083 46.5609L99.4663 46.5808C99.4465 46.8094 99.43 47.0778 99.4135 47.3793L99.4597 48.042L99.6082 49.4236Z" fill="#FFA100"/>
<path d="M41.498 15.4629C41.3083 15.5449 41.1034 15.5856 40.8969 15.5821C40.6904 15.5787 40.4869 15.5313 40.3 15.443C39.9403 15.2244 39.8578 14.8235 39.5773 13.7599C39.4716 13.3557 39.2934 12.6997 39.0558 11.868C39.0391 11.75 39.0459 11.6299 39.0757 11.5145C39.1056 11.3991 39.1579 11.2909 39.2298 11.196C39.3016 11.1011 39.3915 11.0214 39.4942 10.9616C39.5969 10.9018 39.7104 10.863 39.8281 10.8476L41.7521 10.6024L42.2703 14.459C42.2993 14.6947 42.2345 14.9324 42.0898 15.1204C41.9452 15.3084 41.7325 15.4315 41.498 15.4629Z" fill="#FFA400"/>
<path d="M197.754 23.9647C197.624 22.0121 197.444 20.6625 197.213 19.9159C197.062 19.5447 196.821 19.2169 196.513 18.9617C196.745 18.547 196.931 18.1081 197.068 17.653C197.305 16.8545 197.685 15.5722 197.005 14.8102C196.711 14.4789 196.345 14.3894 195.579 14.2138C194.447 13.9521 193.269 13.6771 192.335 14.3364C192.051 14.5605 191.814 14.8386 191.638 15.1547C191.461 15.4708 191.348 15.8187 191.305 16.1786C191.217 16.4872 191.149 16.8016 191.104 17.1195L190.563 17.0599C189.952 17.0002 189.299 16.9638 188.583 16.9472C188.551 16.4983 188.471 16.054 188.345 15.6219C188.302 15.2617 188.189 14.9135 188.012 14.5974C187.834 14.2812 187.597 14.0034 187.312 13.7798C186.385 13.1171 185.203 13.3954 184.068 13.6572C183.316 13.8328 182.939 13.9222 182.642 14.2536C181.962 15.0156 182.345 16.2978 182.58 17.0963C182.644 17.3146 182.72 17.5292 182.807 17.7391C182.612 17.8584 182.45 18.0247 182.335 18.2228C181.806 19.5695 181.473 20.9855 181.345 22.4273C181.153 24.1876 181.115 25.9616 181.233 27.7285C181.313 29.3421 181.612 30.9372 182.121 32.4698C182.592 33.8105 183.27 34.651 184.157 34.9911C185.127 35.2739 186.55 35.3644 188.424 35.2628C190.248 35.171 192.062 34.9372 193.85 34.5637C195.59 34.1948 196.726 33.7531 197.256 33.2384C197.599 32.7481 197.8 31.5686 197.86 29.6999C197.921 27.7876 197.886 25.8734 197.754 23.9647ZM193.233 30.992C193.177 31.0186 192.408 31.1544 190.873 31.4261C190.238 31.5664 189.596 31.6682 188.949 31.7309C188.289 31.8204 187.87 31.8701 187.629 31.8833C187.068 31.8701 186.621 31.4283 186.289 30.558C185.889 29.3811 185.652 28.1549 185.583 26.9135C185.444 25.3496 185.379 24.0972 185.388 23.1562C185.388 22.2153 185.457 21.6653 185.583 21.4996C185.853 21.2301 186.436 21.0093 187.332 20.837C188.274 20.683 189.224 20.5846 190.177 20.5421C191.87 20.4261 192.728 20.3764 193.107 20.6614C193.275 20.808 193.408 20.9895 193.498 21.1933C193.588 21.397 193.633 21.618 193.629 21.8409C194.048 27.4767 194.896 30.2433 193.233 30.992Z" fill="#FFA400"/>
<path d="M47.6265 15.0521C47.4336 15.1254 47.2273 15.1569 47.0214 15.1443C46.8155 15.1317 46.6145 15.0754 46.4318 14.9792C46.0787 14.7406 46.016 14.3397 45.7883 13.2629C45.6992 12.8521 45.5573 12.1894 45.356 11.3479C45.3442 11.2283 45.3561 11.1075 45.3912 10.9926C45.4262 10.8777 45.4836 10.771 45.56 10.6785C45.6365 10.5861 45.7304 10.5098 45.8365 10.454C45.9425 10.3983 46.0585 10.3643 46.1777 10.3539L48.1084 10.1849L48.4384 14.0614C48.4614 14.3008 48.3888 14.5396 48.2366 14.7253C48.0844 14.9111 47.865 15.0286 47.6265 15.0521Z" fill="#FFA400"/>
<path d="M71.0603 6.09636C71.8788 6.11624 72.5091 6.16594 72.5553 5.92076C72.6015 5.67558 71.9976 5.25811 71.4333 4.86383C68.605 2.9521 67.7733 2.54457 67.7733 2.54457C65.8528 1.49221 63.8303 0.639591 61.7371 0C61.6865 1.0514 61.6425 2.11495 61.6051 3.19065C61.5567 4.51594 61.5171 5.82357 61.4863 7.11352C63.6217 6.642 65.7896 6.33299 67.9713 6.18913C69.001 6.11955 70.034 6.07316 71.0603 6.09636Z" fill="#FF5B55"/>
<path d="M128.729 5.6325C129.389 5.64907 129.897 5.68883 129.933 5.49335C129.97 5.29787 129.485 4.94998 129.029 4.64185C128.085 3.96648 127.102 3.34696 126.085 2.78643C124.541 1.93606 122.915 1.24662 121.231 0.728912C121.191 1.57379 121.155 2.43192 121.125 3.29667C121.085 4.36353 121.053 5.41493 121.029 6.45087C122.747 6.0723 124.492 5.82421 126.247 5.70871C127.072 5.65238 127.9 5.61262 128.729 5.6325Z" fill="#C451C2"/>
<path d="M238.053 18.0737C237.723 17.1758 236.958 16.6358 235.723 16.4171C234.27 16.214 232.801 16.1441 231.334 16.2084C229.869 16.2447 228.413 16.4436 226.991 16.8014C226.558 16.9109 226.138 17.0653 225.737 17.262C225.631 17.3184 225.528 17.3814 225.43 17.4508C225.394 17.4717 225.36 17.495 225.328 17.5204C225.03 17.7304 224.764 17.9814 224.536 18.2659C224.44 18.9882 224.338 19.8927 224.239 20.9165C223.687 26.7146 223.78 32.1815 224.004 34.2224C224.011 34.606 224.05 34.9884 224.12 35.3655C224.199 35.3655 224.318 35.3655 224.513 35.3655C224.895 35.3655 225.357 35.3655 225.899 35.339C226.44 35.3125 226.965 35.2992 227.463 35.2694C227.793 35.2495 228.08 35.2263 228.324 35.1998C228.07 32.6255 227.826 29.9252 227.595 27.1686L227.562 26.7809L227.948 26.8041C229.093 26.867 230.328 26.9002 231.615 26.9134C232.739 26.9342 233.862 26.851 234.971 26.6649C235.771 26.576 236.506 26.1794 237.02 25.5583C237.519 24.9387 237.905 23.7427 238.172 21.9966C238.436 20.3565 238.403 19.0246 238.053 18.0737ZM234.057 22.53C233.956 23.0232 233.67 23.4586 233.258 23.746H233.235C232.513 24.0575 231.742 24.2414 230.958 24.2893C230.506 24.3324 230.067 24.3523 229.638 24.3523C229.203 24.3533 228.769 24.3301 228.338 24.2827C227.4 24.1734 226.885 23.9183 226.714 23.4875V23.4478C226.55 22.7805 226.508 22.0892 226.588 21.4068C226.643 20.6788 226.898 19.9802 227.324 19.3891L227.357 19.3526C227.658 19.0544 228.189 18.8987 228.991 18.8788C229.744 18.8648 230.497 18.9135 231.242 19.0246C231.87 19.1037 232.49 19.2401 233.093 19.4321C233.373 19.5452 233.618 19.7298 233.804 19.9675C233.991 20.2053 234.112 20.4879 234.156 20.7873C234.262 21.3678 234.228 21.9654 234.057 22.53Z" fill="#FF5B55"/>
<path d="M192.537 29.183C192.248 29.4713 191.881 29.6673 191.481 29.7463C191.394 29.7535 191.307 29.7535 191.22 29.7463C190.924 29.7302 190.639 29.6239 190.405 29.4414C190.183 29.6405 189.91 29.7716 189.616 29.8191C189.507 29.8321 189.396 29.8321 189.286 29.8191C188.889 29.7593 188.526 29.5611 188.26 29.2592C188.324 29.1828 188.404 29.1207 188.494 29.077C188.53 29.0589 188.567 29.0455 188.606 29.0372C188.78 29.1867 188.982 29.2994 189.2 29.3685C189.322 29.4172 189.453 29.4365 189.583 29.4249C189.783 29.3926 189.962 29.2847 190.085 29.1234C190.085 28.908 190.085 28.5601 190.085 28.2122C189.309 28.1625 188.487 27.6722 188.484 27.1487C188.484 26.8174 188.814 26.5457 188.992 26.3999C189.289 26.1664 189.649 26.0299 190.025 26.0089C190.403 25.9529 190.788 26.0239 191.121 26.211C191.451 26.4032 191.907 26.8505 191.834 27.321C191.761 27.7914 191.204 28.0731 190.662 28.1758C190.675 28.4874 190.703 28.7982 190.748 29.1068C190.909 29.2437 191.115 29.3157 191.326 29.3089C191.467 29.3063 191.607 29.284 191.742 29.2426C191.928 29.1699 192.096 29.0568 192.233 28.9113C192.283 28.9213 192.33 28.9404 192.372 28.9676C192.45 29.0186 192.508 29.0945 192.537 29.183Z" fill="#FFA400"/>
</svg>
