<svg width="217" height="97" viewBox="0 0 217 97" fill="none" xmlns="http://www.w3.org/2000/svg">
<path d="M216.58 57.93C216.474 57.5921 216.289 57.2844 216.04 57.0322C215.791 56.7801 215.486 56.5908 215.15 56.48C214.15 56.16 213.15 56.71 211.78 57.66C209.161 59.5106 206.653 61.5141 204.27 63.66C202.97 64.82 202.48 65.26 202.1 65.09C200.94 64.55 203.51 59.09 201.1 56.69C200.82 56.3774 200.478 56.1269 200.096 55.9546C199.713 55.7824 199.299 55.6922 198.88 55.69C197.23 55.84 196.88 57.98 194.59 60.5C192.65 62.66 190.04 64.3 189.39 63.78C188.58 63.15 191.27 59.61 189.86 57.78C189.345 57.1346 188.619 56.6919 187.81 56.53C187.458 56.4439 187.091 56.4439 186.74 56.53C185.56 56.85 185.04 58.27 184.8 58.92C184.29 60.31 184.69 60.65 184.36 61.44C183.64 63.12 181.01 63.51 177.76 63.99C175.899 64.2559 174.019 64.3629 172.14 64.31C170.148 64.2788 168.166 64.0272 166.23 63.56C163.87 62.97 162.5 62.63 162.4 61.92C162.17 60.33 168.61 59.33 168.91 56.25C169.07 54.67 167.54 53.25 167.25 52.96C166.283 52.0886 165.049 51.5704 163.75 51.49C162.01 51.3499 160.267 51.7367 158.75 52.6C157 53.49 156.06 54.6 155.75 54.33C155.44 54.06 155.98 53.33 156.34 52.54C157.35 50.2729 157.697 47.7661 157.34 45.31C157.074 43.6404 156.224 42.1197 154.94 41.02C154.5 40.67 153.07 39.55 152.05 40.02C151.34 40.34 150.99 41.35 150.88 45.6C150.75 51.11 151.3 51.43 150.77 52.93C149.77 55.82 146.77 57.2 144.04 58.49C139.25 60.73 134.15 60.91 134.04 60.36C133.97 60.07 135.24 59.46 136.6 58.81C138.16 58.07 140.02 57.36 140.02 57.36C141.42 56.82 141.67 56.79 141.84 56.46C142.36 55.46 141.18 53.72 139.96 52.79C138.983 52.0572 137.801 51.6513 136.58 51.63C134.84 51.63 134.16 52.46 131 54.24C129.047 55.4495 126.951 56.4103 124.76 57.1C123.13 57.5521 121.451 57.8073 119.76 57.86C116.32 58.07 114.6 58.17 113.07 57.14C111.07 55.79 111.46 53.93 109.94 53.55C109.19 53.36 108.62 53.7 103.94 57C102.7 57.9963 101.327 58.8143 99.8598 59.43C99.3798 59.62 96.3598 60.77 95.7798 59.94C95.0098 58.83 99.7798 55.5 98.8798 52.74C98.4783 51.7977 97.8285 50.9821 96.9998 50.38C96.6889 50.1745 96.3528 50.0098 95.9998 49.89C95.8196 49.8344 95.6359 49.791 95.4498 49.76C95.202 49.6955 94.9447 49.6752 94.6898 49.7C94.4768 49.7539 94.2808 49.8605 94.1198 50.01C93.6404 50.27 93.0864 50.3583 92.5498 50.26C91.0498 50.26 89.5498 50.26 88.0398 50.26C88.0398 50.26 87.4798 50.26 85.3098 50.26C80.9902 50.5137 76.7025 51.1597 72.4998 52.19C64.6998 54.19 60.9398 55.31 54.4998 57.02C46.5698 59.11 47.6798 58.48 40.7098 60.33C30.1898 63.12 26.4998 64.88 18.2098 65.91C11.4898 66.74 7.57983 66.37 6.11983 64.11C5.59849 63.2022 5.39441 62.1467 5.53983 61.11C6.61983 48.28 6.91983 29.11 6.90983 25.94C6.90983 22.08 6.74983 17.94 6.74983 17.94C6.66983 15.6 6.65983 15.94 6.63983 15C6.63983 15 6.42983 4.49999 5.82983 0.999991C5.81061 0.747401 5.69624 0.511519 5.50983 0.339991C5.39806 0.258345 5.26724 0.206702 5.12983 0.189991C4.59481 0.127507 4.05291 0.161376 3.52983 0.289991C1.97324 1.047 0.769396 2.37624 0.169833 3.99999C0.109833 5.78999 0.0698327 8.62999 0.259833 12.11C0.499833 16.39 0.899833 18.17 0.999833 21.92C1.09467 24.88 0.994454 27.8431 0.699833 30.79C0.359833 35.38 -0.000167254 44.77 0.169833 66.12C0.0890921 66.8006 0.189117 67.4904 0.459833 68.12C2.70983 72.92 16.8998 70.5 20.4598 69.89C29.1498 68.42 33.4598 66.08 40.7098 64.45C41.6098 64.25 45.0998 63.45 49.8698 62.09L50.4298 61.93C52.1198 61.43 56.5798 60.16 62.3398 58.74C67.4219 57.3979 72.5816 56.3693 77.7898 55.66C81.9446 55.1777 86.1292 55.0005 90.3098 55.13C90.1657 55.5987 90.0718 56.0814 90.0298 56.57C89.9776 57.3849 90.0416 58.2031 90.2198 59C90.7355 60.7012 91.7576 62.2047 93.1498 63.31C96.3198 65.82 100.37 65.31 101.49 65.1C104.951 64.5335 108.074 62.6885 110.24 59.93C110.381 59.823 110.543 59.7465 110.715 59.7051C110.887 59.6638 111.066 59.6587 111.24 59.69C111.425 59.7453 111.596 59.8409 111.74 59.97C112.676 60.8503 113.782 61.5308 114.99 61.97C115.815 62.2401 116.673 62.4014 117.54 62.45C122.96 62.87 125.83 61.74 127.64 63.35C127.934 63.6502 128.248 63.9308 128.58 64.19C129.459 64.8279 130.435 65.3208 131.47 65.65C132.17 65.87 134.06 66.27 140.06 65.04C144.76 64.04 148.97 62.74 149.78 62.19C149.86 62.13 150.38 61.76 150.51 61.89C150.64 62.02 150.51 62.05 150.51 62.08C150.42 62.52 150.43 65.36 151.56 66.71C152.43 67.71 154.12 68.18 154.33 67.9C154.47 67.23 154.19 61.18 154.58 61.05C154.77 60.99 155.16 62.37 156.08 63.52C157.17 64.89 158.7 65.52 161.53 66.23C165.28 67.15 167.65 67.73 171.16 67.66C174.03 67.66 178.02 67.54 180.77 66.34C182.149 65.674 183.701 65.4572 185.21 65.72C185.44 65.7699 185.667 65.8334 185.89 65.91C186.89 66.33 187.16 67.04 187.89 67.53C188.516 67.8965 189.236 68.0704 189.96 68.03C192.86 68.25 196.75 66.26 197.26 66.03C197.643 67.2376 197.554 68.5457 197.01 69.69C196.781 70.0893 196.487 70.4476 196.14 70.75C194.14 72.65 193.14 73.6 192.38 74.14C191.23 75 187.28 77.96 186.93 81.96C186.758 83.6376 187.253 85.3155 188.31 86.63C189.13 87.4873 190.17 88.103 191.316 88.4098C192.462 88.7166 193.671 88.7029 194.81 88.37C196.594 87.8175 198.098 86.6002 199.01 84.97C199.76 83.7 199.66 82.97 200.45 76.97C200.72 74.87 200.86 73.81 200.97 73.46C201.76 70.91 203.51 69.31 206.78 66.75C213.5 61.5 216.87 59.84 216.5 58.1L216.58 57.93ZM155 48C154.88 48 154.83 47.54 154.77 47.11C154.66 46.25 154.72 45.25 154.9 45.23C155.08 45.21 155.18 45.74 155.21 45.84C155.52 46.89 155.21 48.01 155 48ZM161.58 57.37C159.21 59.37 155.93 60.08 155.76 59.68C155.59 59.28 156.76 58.68 157.81 58.04C159.9 56.69 162.57 55.52 162.81 55.89C163.05 56.26 161.81 57.18 161.57 57.37H161.58ZM196.57 78.05C196.09 80.93 195.83 82.4 194.69 83.97C193.69 85.36 192.95 85.47 192.69 85.5C192.387 85.5308 192.08 85.4919 191.794 85.3861C191.508 85.2804 191.25 85.1107 191.04 84.89C190.808 84.5163 190.669 84.0926 190.634 83.6542C190.6 83.2159 190.67 82.7756 190.84 82.37C191.148 81.4536 191.646 80.6121 192.3 79.9C193.264 78.7829 194.314 77.743 195.44 76.79C195.91 76.37 196.26 76.06 196.44 76.17C196.62 76.28 196.65 77.03 196.44 78.05" fill="#FF0000"/>
<path d="M41.75 88.6H43.15V91.85H45.29L48.61 96.47H47.07L44.47 92.86H43.15V96.47H41.75V88.6ZM44.32 92.09L45.64 89.91C46.35 88.73 46.92 88.45 47.81 88.45C48.0005 88.4472 48.19 88.4777 48.37 88.54L48.13 89.65C48.0173 89.6325 47.9027 89.6325 47.79 89.65C47.38 89.65 47.11 89.78 46.64 90.56L45.55 92.36L44.32 92.09Z" fill="white"/>
<path d="M55 88.6H56.64L59.64 96.47H58.14L56.67 92.18C56.37 91.33 56.07 90.45 55.81 89.56H55.75C55.48 90.45 55.19 91.33 54.9 92.18L53.4 96.47H52L55 88.6ZM53.68 93.25H57.92V94.25H53.68V93.25Z" fill="white"/>
<path d="M64.1299 88.6H66.9999C68.9999 88.6 70.4399 89.19 70.4399 90.97C70.4399 92.75 68.9999 93.46 66.9999 93.46H65.5399V96.46H64.1299V88.6ZM66.8799 92.49C68.3599 92.49 69.0699 92.01 69.0699 90.97C69.0699 89.93 68.3399 89.57 66.8799 89.57H65.5399V92.49H66.8799Z" fill="white"/>
<path d="M77.3601 88.6H79.0001L82.0001 96.47H80.5201L79.0001 92.18C78.7001 91.33 78.4101 90.45 78.1401 89.56H78.0901C77.8101 90.45 77.5301 91.33 77.2301 92.18L75.7301 96.47H74.3401L77.3601 88.6ZM76.0001 93.25H80.2501V94.25H76.0001V93.25Z" fill="white"/>
<path d="M85.79 92.5C85.79 89.93 87.26 88.5 89.35 88.5C91.44 88.5 92.91 89.98 92.91 92.5C92.91 95.02 91.45 96.61 89.35 96.61C87.25 96.61 85.79 95.1 85.79 92.5ZM91.46 92.5C91.46 90.61 90.62 89.5 89.35 89.5C88.08 89.5 87.24 90.6 87.24 92.5C87.24 94.4 88.08 95.56 89.35 95.56C90.62 95.56 91.46 94.43 91.46 92.5Z" fill="white"/>
<path d="M97.6299 88.6H98.9999V91.85H101.14L104.45 96.47H103L100.4 92.86H98.9999V96.47H97.6299V88.6ZM100.21 92.09L101.53 89.91C102.24 88.73 102.8 88.45 103.69 88.45C103.884 88.4483 104.076 88.4787 104.26 88.54L104 89.65C103.887 89.633 103.773 89.633 103.66 89.65C103.25 89.65 102.98 89.78 102.5 90.56L101.42 92.36L100.21 92.09Z" fill="white"/>
<path d="M109.03 88.6H114.8V89.62H110.43V91.85H114.12V92.86H110.43V95.45H114.94V96.47H109.03V88.6Z" fill="white"/>
<path d="M125.95 92.06H119.83V92.94H125.95V92.06Z" fill="white"/>
<path d="M133.2 92.4L130.66 88.6H132.22L133.4 90.47C133.63 90.83 133.84 91.17 134.13 91.65H134.18C134.43 91.17 134.61 90.83 134.83 90.47L136 88.6H137.49L134.95 92.46L137.67 96.46H136.1L134.83 94.46L134 93.21C133.74 93.69 133.51 94.09 133.27 94.49L132.01 96.49H130.52L133.2 92.4Z" fill="white"/>
<path d="M141.68 92.5C141.68 89.93 143.14 88.5 145.24 88.5C147.34 88.5 148.8 89.98 148.8 92.5C148.8 95.02 147.33 96.61 145.24 96.61C143.15 96.61 141.68 95.1 141.68 92.5ZM147.35 92.5C147.35 90.61 146.51 89.5 145.24 89.5C143.97 89.5 143.13 90.6 143.13 92.5C143.13 94.4 143.97 95.56 145.24 95.56C146.51 95.56 147.35 94.43 147.35 92.5Z" fill="white"/>
<path d="M152.23 96.5L152.5 95.4C152.626 95.4409 152.758 95.4611 152.89 95.46C153.33 95.46 153.61 95.24 154.04 93.46C154.43 91.81 154.7 90.37 155.04 88.65H159.55V96.52H158.13V89.62H156.13C155.86 90.97 155.64 92.19 155.33 93.55C154.78 96.02 154.2 96.61 153.06 96.61C152.772 96.6232 152.485 96.5859 152.21 96.5" fill="white"/>
<path d="M163.4 96.5L163.68 95.4C163.806 95.4409 163.938 95.4611 164.07 95.46C164.51 95.46 164.79 95.24 165.22 93.46C165.61 91.81 165.87 90.37 166.22 88.65H170.73V96.52H169.31V89.62H167.31C167.04 90.97 166.83 92.19 166.52 93.55C165.97 96.02 165.39 96.61 164.25 96.61C163.959 96.6225 163.668 96.5853 163.39 96.5" fill="white"/>
</svg>
