<?xml version="1.0" encoding="utf-8"?>
<!-- Generator: Adobe Illustrator 22.0.1, SVG Export Plug-In . SVG Version: 6.00 Build 0)  -->
<svg version="1.1" xmlns="http://www.w3.org/2000/svg" xmlns:xlink="http://www.w3.org/1999/xlink" x="0px" y="0px"
	 viewBox="0 0 512 512" style="enable-background:new 0 0 512 512;" xml:space="preserve">
<style type="text/css">
	.st0{display:none;}
	.st1{display:inline;fill:#4F6BAA;}
	.st2{fill:#FFFFFF;}
	.st3{fill:#FF010C;}
	.st4{fill:none;stroke:#FFFFFF;stroke-width:4;stroke-miterlimit:10;}
</style>
<g id="Слой_4" class="st0">
	<rect x="-13.5" class="st1" width="525.5" height="525.5"/>
</g>
<g id="Слой_1">
</g>
<g id="Слой_2">
	<g>
		<path class="st2" d="M420.8,16.9c0,0-28.8,23.5-73.2,25.7c-38.6,1.9-82.3-19-92.9-24.4v-1.3c0,0-0.5,0.3-1.2,0.6
			c-0.7-0.4-1.2-0.6-1.2-0.6v1.3c-10.6,5.4-54.3,26.3-92.9,24.4C114.9,40.3,86,16.9,86,16.9S-38.2,158.2,43.9,321.9
			c75.5,150.6,190.4,179.6,208.3,183.3v0.5c0,0,0.5-0.1,1.2-0.2c0.8,0.1,1.2,0.2,1.2,0.2v-0.5c17.9-3.7,132.8-32.6,208.3-183.3
			C545,158.2,420.8,16.9,420.8,16.9z"/>
		<path class="st3" d="M413.7,30.2c0,0-27.6,22.2-70.1,24.3c-37,1.8-78.8-17.9-89-23.1v-1.2c0,0-0.5,0.3-1.2,0.6
			c-0.7-0.4-1.2-0.6-1.2-0.6v1.2c-10.2,5.1-52,24.9-89,23.1c-42.5-2.1-70.1-24.3-70.1-24.3s-119,133.6-40.4,288.4
			C125.1,461,235.1,488.4,252.2,491.8v0.4c0,0,0.4-0.1,1.2-0.2c0.7,0.1,1.2,0.2,1.2,0.2v-0.4c17.1-3.5,127.1-30.9,199.5-173.2
			C532.6,163.9,413.7,30.2,413.7,30.2z"/>
	</g>
</g>
<g id="Слой_3">
	<ellipse class="st2" cx="340.7" cy="106.7" rx="30.3" ry="30.4"/>
	<ellipse class="st4" cx="263.2" cy="87.9" rx="30.3" ry="30.4"/>
	<ellipse class="st2" cx="183.2" cy="106.7" rx="30.3" ry="30.4"/>
	<path class="st2" d="M151.3,163.6c-16.2,7.4-22.1,252.5,0,252.5s40.1,3.3,47.1,0c7-3.3-32.8-150.2-16.2-186
		c11.8-16.2,51.5,101.9,55.9,118.1c4.4,16.2,26.9,7.4,26.9,7.4c17.2-13.3,17.2-115.2,45.2-128.4c27.9-13.3,0,189,0,189
		s41.2,13.3,57.4,0c16.2-13.3,7.9-227.5-2.4-240.7c-10.3-13.3-32.9-19.1-56.4-11.7s-37.8,73.8-52.5,82.7
		c-14.7,8.9-34.3-72.3-53.4-82.7C183.7,153.3,167.5,156.3,151.3,163.6z"/>
</g>
</svg>
