<?xml version="1.0" encoding="utf-8"?>
<!-- Generator: Adobe Illustrator 22.0.1, SVG Export Plug-In . SVG Version: 6.00 Build 0)  -->
<svg version="1.1" id="Слой_1" xmlns="http://www.w3.org/2000/svg" xmlns:xlink="http://www.w3.org/1999/xlink" x="0px" y="0px"
	 viewBox="0 0 1833.6 458.8" style="enable-background:new 0 0 1833.6 458.8;" xml:space="preserve">
<style type="text/css">
	.st0{fill:#282E3D;}
	.st1{fill:#FFFFFF;}
	.st2{enable-background:new    ;}
	.st3{fill:#545658;}
</style>
<g>
	<path class="st0" d="M17.4,450.9l361.9,0.3c73,0,53.9-0.6,126.8-0.3c-0.2-0.5-6.3-6.5-6.8-6.8c-2.4-1.3-13.2-10.5-20.5-13.2
		c-3.9-1.4-7.3-5.4-11.4-6.3c-3-0.6-6,0.8-8.4,2.4c-3,1.9-5.4,4.1-9,4.4c-3.2,0.3-6.3-0.5-9.5-0.5c-5.2-0.2-8.8,2.8-13.7,3.3
		c-3.5,0.5-6.2-0.2-9.2-2.1c-1.3-0.8-2.2-1.9-3.6-2.4c-3.6-1.3-6.3,0.6-9.6,1.9c-2.8,1.1-5.7,1.4-8.2,0.5l0,0
		c-0.3-0.2-0.6-0.3-0.9-0.3c-1.3-0.6-2.5-1.6-3.6-3c-1.3-1.6-2.1-3.3-3.5-4.7c-2.1-1.7-3.8-2.8-6.5-1.6c-2.1,0.9-3.8,3.6-5.4,5.1
		c-1.7,1.4-3.6,2.7-5.7,3.5c-3.2-0.5-5.2-2.2-8.7-0.6c-3.3,1.6-4.6,2.1-7.3-1.4c-0.9-1.3-1.6-2.8-2.5-4.1c-0.5-0.6-1.4-0.6-2.1-0.2
		c-3.9,3-8.4,5.8-12.6,8.7c-0.3,0-0.6,0-1.1,0c-2.2,0-4.3-1.1-6.5-1.1c-1.4,0-3.2,0.8-4.4,0.8c-2.2-0.2-3.9-1.4-5.8-2.4
		c-4.9-2.8-7.7-0.2-13.1,1.1c-3.6,0.8-5.4,0.3-7.9-2.4c-0.8-0.8-1.3-2.1-2.2-2.5c-1.9-1.1-3.2-0.6-4.9,0.2c-5.4,2.2-7,4.6-13.1,4.4
		c-4.4-0.2,1.3-0.8-3-0.5c-1.4-1.6-3-3.2-4.6-4.9c-3.2-3.5-4.7-7.3-6.2-11.7c-2.2-6.6-4.6-13.3-5.7-20.2
		c-1.7-10.1,0.2-17.5,7.7-24.8c5.1-4.7,8.1-9.3,11.5-15.3c3.9-6.5,9.3-12.2,13.7-18.3c4.4-6.3,8.8-15,16.3-18
		c4.6-1.9,9.6-1.4,14.7-2.1c1.7,1.4,3.8,2.7,6,3.6c4.9,1.9,10.3,1.9,15.5,2.4c7.6,0.6,11.2,4.1,16.6,8.8
		c14.9,13.6,39.7,17.1,54.3,0.9c4.1-4.6,7.7-8.2,13.1-11.2c4.6-2.5,9.2-5.1,12.3-9.5c7.9-11.7,1.3-27.2,13.3-37.1
		c7.4-6.2,17.1-9.5,22.3-18.2c5.2-8.7,4.7-19.7-2.8-26.7c-2.1-1.9-4.6-3.3-6-5.8c-1.7-3.3-0.9-7.3-0.3-10.7
		c0.8-5.4,1.9-10.7,0.3-16.1c-1.3-4.1-3.6-8.4-6.6-11.4c-3.6-3.5-9.6-4.1-12.8-7.7c-3.6-4.3-3.9-11.4-5.4-16.6
		c-1.4-5.4-3.6-10.1-7.3-14.4c-4.1-4.7-9.5-7.9-14.2-12.2c-5.4-4.7-8.2-11.5-13.3-16.7c-7.1-7.4-16.3-9.5-25.9-12
		c-7.4-1.9-15.5-4.3-17.2-13c-1.1-6.2-0.8-11.5-3.8-17.2c-5.2-9.8-14.9-17.2-25-21.3c-9.8-3.9-21.6-4.4-25.1-16.1
		c-2.8-9.2-9.8-13-19.3-13.9c-6.6-0.6-12.3-1.4-18.5-4.4c-5.1-2.5-10.1-5.5-15.8-6.6c-5.4-1.1-10.1,0-14.7,2.1h-0.2h-0.2
		c-0.8,0.3-1.6,0.6-2.2,1.1c-17.1,6.5-36.2-13.9-52.3,0.5c-3.3,2.8-5.1,6.3-6.8,10.3c-3.8,8.2-10.3,9.2-17.9,12.3
		c-10,4.1-13.3,12.8-17.5,21.8c-3,6.2-6.6,10.7-13.3,13c-6,1.9-12.5,1.9-18.3,4.4c-10.4,4.6-14.2,15.2-21,23.5
		c-7.3,8.8-19.6,11.8-26.4,21.2c-7.3,10.1-4.7,21.5-3.8,33c1.1,13.7-7.3,20.4-17.1,28.3c-6.8,5.5-14.7,12.6-13.6,22.3
		c0.6,6.2,4.6,10,2.2,16.4c-1.7,4.9-3.9,8.7-3.6,14.2c0.5,10.1,6.3,20.4,14.1,26.9c9.3,7.7,21.3,9.6,32.9,11.7
		c3.9,0.6,10,0.9,13.4,3c5.4,3.2-2.5,9-4.7,12.5c-7.9,13,1.9,22,14.2,25.3c15.5,4.3,31.1,3.2,46.6-0.6c13.7-3.3,12-3.9,25.3-8.8
		c1.1-0.3,9-2.7,10-3c0.3,4.6,7,8.2,7.4,13c0.5,4.9,1.1,10.9,4.3,15.3c2.4,3.2,2.7,11.2,9.3,16.4c8.4,6.6,5.2,11.8,5.4,21.6
		c1.1,38.2,3.5-5.4-2.1,56.4c-2.2,1.6-3.5,4.3-5.5,6c-3.9,3.2-6.5-0.5-10.7-0.2c-0.9,0-1.7,0.8-2.5,0.8c-1.4,1.4-3,1.3-4.6-0.3
		c-0.3-0.8-0.8-1.4-1.1-2.2c-2.2-3-4.3-5.4-7.7-7.3c-0.8-0.5-2.1,0-2.5,0.8c-1.4,3.5-3.9,11.7-8.5,10.6c-3-0.6-5.1-6.5-8.7-5.7
		c-0.9,0.2-1.3,0.9-1.9,1.3c-2.7,1.4-3.3,2.8-6.8,3c-1.7,0-3.5-0.3-5.2-0.5c-6.2-0.6-12.6-1.9-18.8-1.3c-0.8-2.4-2.2-4.4-3.6-6.6
		c-1.1-1.7-3.5-0.9-4.1,0.6c-0.8,1.6-1.6,2.8-2.7,4.1c-1.6-4.1-2.4-8.4-6.3-11.4c-1.4-1.1-3,0.2-3,1.7c0.2,3.3-0.8,7.1-2.5,10.3
		c-1.4-2.4-3.6-3.8-7.1-4.4c-6.6-1.4-11.5-4.9-18.3-3.3c-5.2,1.3-10.1,0-15.5-0.5c-1.9-0.2-5.1-0.8-7,0.5c-0.6,0.5-0.6,1.4-0.8,1.6
		c-3.2,2.4-4.6,1.9-9.5,1.6c-1.4-0.2-2.4,0.9-2.4,2.4c0,1.7,0.2,3.3,0.5,4.9c-8.2-0.3-16.1-1.7-23.5-5.5
		c-8.2-4.1-20.4,23.4,5.2,23.4 M309.6,302.2c2.7,1.3,4.6,3.5,6.2,5.7c-4.9,1.3-9.8,2.4-13.9,5.2c-2.8,1.9-4.9,4.4-7,7.3
		c-3,3.5-5.7,7.1-8.5,10.7c-0.6,0.6-1.4,1.3-2.1,1.7c0-3.9,0.2-7.9-0.3-11.8c2.1-3,4.6-5.7,6.8-8.5c2.8-3.6,7.1-7.6,9.2-12
		C303.3,300.4,306.7,300.7,309.6,302.2z M282.6,299.9c1.3,0.2,2.5,0.5,3.8,0.5c2.2,0.2,4.6,0.2,7,0c-2.4,3.6-5.2,7-8.1,10.6
		c-3.8,4.9-9.2,10.1-10.3,16.6c-0.5,2.4,0,4.7,0.2,7.1c0.3,5.7-1.6,9.6-4.9,14.1c-5.8,8.2-5.8,13.1-9.2-1.4
		c-0.6-9.8-3.3-32.7,7.3-39.7C273.1,304.7,278.1,302.8,282.6,299.9z M241.8,291.6c8.5-1.9,16.6,1.3,24.6,3.8
		c0.8,0.3,1.6,0.5,2.4,0.8c-1.7,1.1-3.6,2.2-5.4,3.3c-3,2.1-4.4,4.1-5.5,7.6c-2.1,7.1-3.8,14.4-5.7,21.5c-0.8,3-1.4,6.6-2.4,1.3
		c-0.2-5.7-0.9-11.5-2.2-17.1c-1.7-7.6-6.6-13.4-10.9-19.6C238.3,292.7,240.1,292.1,241.8,291.6z M233.4,303.6
		c0.3,0.6,0.8,1.3,1.1,1.7c-1.4-2.1-2.8-3.9-4.3-6C231.4,300.7,232.5,302.2,233.4,303.6z M197.9,330.8c-0.5-0.3-0.6-0.9-0.9-1.7
		c0.8,1.1,1.9,2.1,3.3,2.8C199.1,331.7,198.4,331.4,197.9,330.8z M233.9,365.5L233.9,365.5v24.3h-12.2v-12.2
		C221.7,371,227.1,365.5,233.9,365.5z M236.4,365.5L236.4,365.5c6.6,0,12.2,5.5,12.2,12.2v12.2h-12.2V365.5z M236.4,392.4h12.2v24.3
		h-12.2V392.4z M221.7,392.4h12.2v24.3h-12.2V392.4z M213.2,328.4c-2.2-0.9-4.9-1.7-7-2.8c-3.3-1.7-3.9-1.4-4.6-4.9
		c-1.1-6.5-8.8-12.6-10.3-19c2.5-0.3,5.2-0.5,7.9-0.2c5.8,0.6,18.3-1.3,24.3-2.8c0.9-0.3,2.1-0.6,3-0.9c1.6,2.8,3.2,5.7,4.6,8.5
		C243.7,331.4,224.3,330.3,213.2,328.4z"/>
	<polygon class="st1" points="215.1,63.3 216.4,80.3 230.1,69.1 218.4,82.2 236.4,83.5 218.4,84.8 230.1,97.9 216.4,86.7 
		215.1,103.9 213.7,86.7 199.9,97.9 211.8,84.8 193.6,83.5 211.8,82.2 199.9,69.1 213.7,80.3 	"/>
	<polygon class="st1" points="159.5,86.8 159.8,88.4 160.9,87.3 160.4,88.7 161.9,88.7 160.6,89.5 161.9,90.3 160.4,90.1 
		160.9,91.6 159.8,90.6 159.5,92 159,90.6 157.9,91.6 158.5,90.1 157,90.3 158.2,89.5 157,88.7 158.5,88.7 157.9,87.3 159,88.4 	"/>
	<polygon class="st1" points="99.3,147.2 99.5,148.1 100.1,147.5 99.8,148.3 100.7,148.3 99.9,148.8 100.7,149.2 99.8,149.1 
		100.1,149.9 99.5,149.4 99.3,150.2 99.1,149.4 98.3,149.9 98.7,149.1 97.9,149.2 98.7,148.8 97.9,148.3 98.7,148.3 98.3,147.5 
		99.1,148.1 	"/>
	<polygon class="st1" points="206.7,152.4 207.2,154 208.3,152.9 207.7,154.3 209.3,154.3 208,155.1 209.3,155.9 207.7,155.7 
		208.3,157.1 207.2,156.2 206.7,157.6 206.4,156.2 205.3,157.1 205.8,155.7 204.4,155.9 205.6,155.1 204.4,154.3 205.8,154.3 
		205.3,152.9 206.4,154 	"/>
	<polygon class="st1" points="118.3,170.9 118.6,172.3 119.8,171.3 119.2,172.8 120.8,172.6 119.4,173.4 120.8,174.2 119.2,174 
		119.8,175.5 118.6,174.5 118.3,176.1 117.9,174.5 116.7,175.5 117.3,174 115.7,174.2 117.1,173.4 115.7,172.6 117.3,172.8 
		116.7,171.3 117.9,172.3 	"/>
	<polygon class="st1" points="177,184.9 177.3,186.4 178.4,185.4 178,186.8 179.4,186.7 178.1,187.5 179.4,188.3 178,188.3 
		178.4,189.7 177.3,188.6 177,190.1 176.6,188.6 175.4,189.7 176.1,188.3 174.5,188.3 175.8,187.5 174.5,186.7 176.1,186.8 
		175.4,185.4 176.6,186.4 	"/>
	<polygon class="st1" points="123.9,215 124.4,216.4 125.5,215.4 124.9,216.8 126.5,216.7 125.2,217.5 126.5,218.3 124.9,218.1 
		125.5,219.5 124.4,218.6 123.9,220.2 123.6,218.6 122.5,219.5 123.2,218.1 121.6,218.3 122.8,217.5 121.6,216.7 123.2,216.8 
		122.5,215.4 123.6,216.4 	"/>
	<polygon class="st1" points="80.2,211.2 80.5,212.7 81.8,211.6 81.1,213.1 82.7,213.1 81.3,213.8 82.7,214.6 81.1,214.5 
		81.8,215.9 80.5,215 80.2,216.4 79.9,215 78.6,215.9 79.2,214.5 77.7,214.6 79.1,213.8 77.7,213.1 79.2,213.1 78.6,211.6 
		79.9,212.7 	"/>
	<polygon class="st1" points="141.6,261.6 142,263 143.1,262 142.6,263.5 144,263.3 142.7,264.1 144,265 142.6,264.9 143.1,266.3 
		142,265.2 141.6,266.8 141.3,265.2 140.1,266.3 140.7,264.9 139.1,265 140.4,264.1 139.1,263.3 140.7,263.5 140.1,262 141.3,263 	
		"/>
	<polygon class="st1" points="80.2,211.2 80.5,212.7 81.8,211.6 81.1,213.1 82.7,213.1 81.3,213.8 82.7,214.6 81.1,214.5 
		81.8,215.9 80.5,215 80.2,216.4 79.9,215 78.6,215.9 79.2,214.5 77.7,214.6 79.1,213.8 77.7,213.1 79.2,213.1 78.6,211.6 
		79.9,212.7 	"/>
	<polygon class="st1" points="189.2,232.2 189.5,233.6 190.6,232.6 190.1,234.1 191.6,233.9 190.3,234.7 191.6,235.6 190.1,235.5 
		190.6,236.9 189.5,235.8 189.2,237.4 188.7,235.8 187.6,236.9 188.2,235.5 186.7,235.6 187.9,234.7 186.7,233.9 188.2,234.1 
		187.6,232.6 188.7,233.6 	"/>
	<polygon class="st1" points="80.2,211.2 80.5,212.7 81.8,211.6 81.1,213.1 82.7,213.1 81.3,213.8 82.7,214.6 81.1,214.5 
		81.8,215.9 80.5,215 80.2,216.4 79.9,215 78.6,215.9 79.2,214.5 77.7,214.6 79.1,213.8 77.7,213.1 79.2,213.1 78.6,211.6 
		79.9,212.7 	"/>
	<polygon class="st1" points="284.8,81.3 285.1,82.7 286.2,81.8 285.7,83.2 287.1,83 285.9,83.8 287.1,84.6 285.7,84.6 286.2,86 
		285.1,84.9 284.8,86.5 284.3,84.9 283.2,86 283.8,84.6 282.2,84.6 283.5,83.8 282.2,83 283.8,83.2 283.2,81.8 284.3,82.7 	"/>
	<polygon class="st1" points="247,118.1 247.3,119.5 248.6,118.6 248,120 249.5,119.8 248.3,120.6 249.5,121.6 248,121.4 
		248.6,122.8 247.3,121.7 247,123.3 246.7,121.7 245.4,122.8 246.1,121.4 244.5,121.6 245.9,120.6 244.5,119.8 246.1,120 
		245.4,118.6 246.7,119.5 	"/>
	<polygon class="st1" points="298.5,126.3 298.8,127.7 299.9,126.8 299.5,128.2 300.9,128.1 299.6,128.8 300.9,129.6 299.5,129.6 
		299.9,131.1 298.8,130 298.5,131.5 298,130 296.9,131.1 297.6,129.6 296,129.6 297.3,128.8 296,128.1 297.6,128.2 296.9,126.8 
		298,127.7 	"/>
	<polygon class="st1" points="243.5,165.2 244,166.8 245.1,165.7 244.5,167.1 246.1,166.9 244.8,167.9 246.1,168.7 244.5,168.5 
		245.1,169.9 244,169 243.5,170.4 243.2,169 242.1,169.9 242.6,168.5 241.2,168.7 242.4,167.9 241.2,166.9 242.6,167.1 242.1,165.7 
		243.2,166.8 	"/>
	<polygon class="st1" points="302.3,179.2 302.6,180.8 303.7,179.7 303.3,181.1 304.7,181.1 303.4,181.9 304.7,182.7 303.3,182.6 
		303.7,184 302.6,183 302.3,184.5 301.8,183 300.7,184 301.4,182.6 299.8,182.7 301,181.9 299.8,181.1 301.4,181.1 300.7,179.7 
		301.8,180.8 	"/>
	<polygon class="st1" points="249.4,209.3 249.7,210.8 250.8,209.7 250.3,211.2 251.8,211 250.5,212 251.8,212.7 250.3,212.6 
		250.8,214 249.7,213.1 249.4,214.5 248.9,213.1 247.8,214 248.4,212.6 246.9,212.7 248.1,212 246.9,211 248.4,211.2 247.8,209.7 
		248.9,210.8 	"/>
	<polygon class="st1" points="205.5,205.6 205.8,207.1 207,206.1 206.4,207.5 208,207.4 206.6,208.2 208,208.9 206.4,208.8 
		207,210.2 205.8,209.3 205.5,210.8 205.1,209.3 203.9,210.2 204.5,208.8 202.9,208.9 204.4,208.2 202.9,207.4 204.5,207.5 
		203.9,206.1 205.1,207.1 	"/>
	<polygon class="st1" points="266.9,255.9 267.2,257.5 268.5,256.5 267.9,257.9 269.4,257.8 268,258.6 269.4,259.3 267.9,259.2 
		268.5,260.6 267.2,259.7 266.9,261.1 266.6,259.7 265.3,260.6 266,259.2 264.4,259.3 265.8,258.6 264.4,257.8 266,257.9 
		265.3,256.5 266.6,257.5 	"/>
	<polygon class="st1" points="205.5,205.6 205.8,207.1 207,206.1 206.4,207.5 208,207.4 206.6,208.2 208,208.9 206.4,208.8 
		207,210.2 205.8,209.3 205.5,210.8 205.1,209.3 203.9,210.2 204.5,208.8 202.9,208.9 204.4,208.2 202.9,207.4 204.5,207.5 
		203.9,206.1 205.1,207.1 	"/>
	<polygon class="st1" points="314.5,226.5 314.8,228.1 315.9,227.1 315.4,228.5 316.8,228.4 315.6,229.2 316.8,230 315.4,229.8 
		315.9,231.2 314.8,230.3 314.5,231.7 314.2,230.3 312.9,231.2 313.5,229.8 311.9,230 313.2,229.2 311.9,228.4 313.5,228.5 
		312.9,227.1 314.2,228.1 	"/>
	<polygon class="st1" points="205.5,205.6 205.8,207.1 207,206.1 206.4,207.5 208,207.4 206.6,208.2 208,208.9 206.4,208.8 
		207,210.2 205.8,209.3 205.5,210.8 205.1,209.3 203.9,210.2 204.5,208.8 202.9,208.9 204.4,208.2 202.9,207.4 204.5,207.5 
		203.9,206.1 205.1,207.1 	"/>
	<polygon class="st1" points="391.9,152.1 392.2,153.7 393.5,152.5 392.8,154 394.4,154 393,154.8 394.4,155.5 392.8,155.4 
		393.5,156.8 392.2,155.9 391.9,157.3 391.6,155.9 390.3,156.8 390.9,155.4 389.4,155.5 390.8,154.8 389.4,154 390.9,154 
		390.3,152.5 391.6,153.7 	"/>
	<polygon class="st1" points="354.1,188.9 354.6,190.5 355.7,189.5 355.1,190.9 356.7,190.8 355.4,191.6 356.7,192.4 355.1,192.2 
		355.7,193.6 354.6,192.7 354.1,194.1 353.8,192.7 352.7,193.6 353.2,192.2 351.8,192.4 353,191.6 351.8,190.8 353.2,190.9 
		352.7,189.5 353.8,190.5 	"/>
	<polygon class="st1" points="405.6,197.1 406,198.7 407.2,197.7 406.6,199.2 408.2,199 406.7,199.8 408.2,200.6 406.6,200.4 
		407.2,201.8 406,200.9 405.6,202.3 405.3,200.9 404.1,201.8 404.7,200.4 403.1,200.6 404.5,199.8 403.1,199 404.7,199.2 
		404.1,197.7 405.3,198.7 	"/>
	<polygon class="st1" points="350.8,236.1 351.1,237.5 352.2,236.6 351.8,238 353.2,237.9 351.9,238.7 353.2,239.4 351.8,239.3 
		352.2,240.7 351.1,239.8 350.8,241.3 350.3,239.8 349.2,240.7 349.9,239.3 348.3,239.4 349.5,238.7 348.3,237.9 349.9,238 
		349.2,236.6 350.3,237.5 	"/>
	<polygon class="st1" points="409.4,250.2 409.7,251.6 411,250.7 410.4,252.1 412,251.9 410.5,252.7 412,253.5 410.4,253.5 
		411,254.9 409.7,253.8 409.4,255.4 409.1,253.8 407.8,254.9 408.5,253.5 406.9,253.5 408.3,252.7 406.9,251.9 408.5,252.1 
		407.8,250.7 409.1,251.6 	"/>
	<polygon class="st1" points="356.5,280.2 356.8,281.6 358.1,280.7 357.4,282.1 359,281.9 357.6,282.7 359,283.5 357.4,283.4 
		358.1,284.8 356.8,283.8 356.5,285.4 356.2,283.8 354.9,284.8 355.6,283.4 354,283.5 355.4,282.7 354,281.9 355.6,282.1 
		354.9,280.7 356.2,281.6 	"/>
	<polygon class="st1" points="161.2,148.3 161.5,149.5 162.5,148.8 162,149.9 163.1,149.7 162.2,150.3 163.1,151 162,150.8 
		162.5,151.9 161.5,151.1 161.2,152.2 161.1,151.1 160.1,151.9 160.6,150.8 159.5,151 160.4,150.3 159.5,149.7 160.6,149.9 
		160.1,148.8 161.1,149.5 	"/>
	<polygon class="st1" points="157,209.9 157.1,211 158.1,210.2 157.6,211.3 158.7,211.2 157.8,211.8 158.7,212.4 157.6,212.3 
		158.1,213.4 157.1,212.6 157,213.7 156.6,212.6 155.7,213.4 156.2,212.3 155.1,212.4 156,211.8 155.1,211.2 156.2,211.3 
		155.7,210.2 156.6,211 	"/>
	<polygon class="st1" points="322.8,151.1 323.2,152.4 324,151.6 323.5,152.7 324.7,152.5 323.6,153.2 324.7,153.8 323.5,153.7 
		324,154.8 323.2,154 322.8,155.1 322.5,154 321.7,154.8 322.1,153.7 321,153.8 321.9,153.2 321,152.5 322.1,152.7 321.7,151.6 
		322.5,152.4 	"/>
	<polygon class="st1" points="317.8,98 318,99.1 318.9,98.4 318.4,99.5 319.5,99.5 318.6,99.9 319.5,100.6 318.4,100.6 318.9,101.5 
		318,100.9 317.8,102 317.5,100.9 316.5,101.5 317,100.6 315.9,100.6 316.8,99.9 315.9,99.5 317,99.5 316.5,98.4 317.5,99.1 	"/>
	<polygon class="st1" points="322.8,151.1 323.2,152.4 324,151.6 323.5,152.7 324.7,152.5 323.6,153.2 324.7,153.8 323.5,153.7 
		324,154.8 323.2,154 322.8,155.1 322.5,154 321.7,154.8 322.1,153.7 321,153.8 321.9,153.2 321,152.5 322.1,152.7 321.7,151.6 
		322.5,152.4 	"/>
	<polygon class="st1" points="254.9,66 255.2,67.1 256.2,66.3 255.7,67.4 256.8,67.2 255.9,67.9 256.8,68.5 255.7,68.3 256.2,69.4 
		255.2,68.7 254.9,69.9 254.8,68.7 253.8,69.4 254.3,68.3 253.2,68.5 254.1,67.9 253.2,67.2 254.3,67.4 253.8,66.3 254.8,67.1 	"/>
	<polygon class="st1" points="225.2,249.4 225.4,250.5 226.3,249.7 225.8,250.8 226.9,250.7 226,251.3 226.9,251.9 225.8,251.8 
		226.3,252.9 225.4,252.1 225.2,253.2 224.9,252.1 223.9,252.9 224.4,251.8 223.3,251.9 224.3,251.3 223.3,250.7 224.4,250.8 
		223.9,249.7 224.9,250.5 	"/>
	<polygon class="st1" points="347.5,127.6 348.1,135.8 354.6,130.4 349.1,136.7 357.6,137.4 349.1,138 354.6,144.2 348.1,138.8 
		347.5,147 346.9,138.8 340.2,144.2 345.9,138 337.2,137.4 345.9,136.7 340.2,130.4 346.9,135.8 	"/>
	<polygon class="st1" points="272.8,142.4 273.6,151.9 281.1,145.8 274.7,152.9 284.6,153.5 274.7,154.3 281.1,161.4 273.6,155.2 
		272.8,164.7 272.1,155.2 264.6,161.4 271,154.3 261.1,153.5 271,152.9 264.6,145.8 272.1,151.9 	"/>
	<polygon class="st1" points="255.9,95.2 256,96.1 256.8,95.5 256.5,96.3 257.3,96.3 256.5,96.8 257.3,97.1 256.5,97.1 256.8,97.9 
		256,97.4 255.9,98.2 255.7,97.4 255.1,97.9 255.4,97.1 254.4,97.1 255.2,96.8 254.4,96.3 255.4,96.3 255.1,95.5 255.7,96.1 	"/>
	<polygon class="st1" points="284,208.8 284.1,209.7 284.8,209.1 284.5,209.9 285.4,209.9 284.6,210.4 285.4,210.8 284.5,210.7 
		284.8,211.5 284.1,211 284,211.8 283.8,211 283,211.5 283.5,210.7 282.6,210.8 283.4,210.4 282.6,209.9 283.5,209.9 283,209.1 
		283.8,209.7 	"/>
	<polygon class="st1" points="144,120.9 144.6,130 151.9,124 145.7,130.9 155.2,131.5 145.7,132.2 151.9,139 144.6,133.1 144,142.1 
		143.2,133.1 136.1,139 142.3,132.2 132.8,131.5 142.3,130.9 136.1,124 143.2,130 	"/>
	<polygon class="st1" points="151.1,232.5 151.6,239 156.8,234.7 152.4,239.8 159.2,240.2 152.4,240.7 156.8,245.6 151.6,241.3 
		151.1,248 150.5,241.3 145.3,245.6 149.9,240.7 142.9,240.2 149.9,239.8 145.3,234.7 150.5,239 	"/>
	<polygon class="st1" points="378.3,212.7 378.9,219.2 384.1,215 379.6,220 386.5,220.5 379.6,221 384.1,225.9 378.9,221.6 
		378.3,228.2 377.8,221.6 372.6,225.9 377,221 370.2,220.5 377,220 372.6,215 377.8,219.2 	"/>
</g>
<g>
	<path class="st0" d="M650.2,168.6c-3.6-13.6-8.3-28.9-27.7-28.9c-17.6,0-24.6,13.1-24.6,24.1c0,16.6,11,24.3,27.6,32.9
		c15.9,7.8,38,17.6,38,43c0,23.8-19.4,41.6-47.8,41.6c-9.3,0-16.6-2.2-21.7-3.7c-5-1.5-8.2-3.5-10.2-4.3c-1.9-5-4.5-22.4-6-33.9
		l7-1.4c3.6,13.3,12.5,34.8,34.9,34.8c17.2,0,26.9-10.6,26.9-26.4c0-17-12.3-24.6-28.6-33.4c-13-6.8-35.9-17.4-35.9-42.7
		c0-20.9,16.6-38.7,44.3-38.7c8.6,0,17.3,1.7,27.4,5.2c0.7,7.8,2,16.1,3.7,30.5L650.2,168.6z"/>
</g>
<g>
	<path class="st0" d="M792.6,169c-2.1-10.4-3.8-15.7-6.4-19.1c-3.5-5.1-6.5-6.6-23.1-6.6h-16.6v107.4c0,17.3,1.7,19.4,23.1,20.5v6.8
		h-62.3v-6.8c20.5-1.2,22.4-3,22.4-20.5V143.2h-15.4c-16.6,0-21.1,1.5-23.9,6.4c-2.4,3.7-4.2,9.7-6.7,19.4h-7.1
		c0.8-12.9,2.1-26.9,2.6-39.1h4.8c3.2,4.9,6,5.3,12.1,5.3h86.2c5.8,0,7.1-1.3,10.3-5.3h5.1c0,10.3,1,26,2.2,38L792.6,169z"/>
</g>
<g>
	<path class="st0" d="M885.6,278v-6.8c14.8-1.7,16.6-3.2,13.8-11.7l-12.1-33.2h-48.2c-3.2,8.9-6,17.9-9.3,26.9
		c-5,14.7-2.8,16.5,13.8,18v6.8h-48.5v-6.8c14.1-2,17.2-3,24.9-22.8l45-114.3l6.7-2.2c13.3,36.6,28.9,80.6,42.6,117.8
		c6.3,18.3,9.5,20.2,24,21.6v6.8H885.6z M864.2,158.6h-0.5c-7.1,19.4-14,38.8-20.9,57.5h41.2L864.2,158.6z"/>
	<path class="st0" d="M1080.4,279.7c-3.1,0-5.8,0-8.6-0.5c-13.6-0.6-22.8-5.1-33.7-19.6c-7.5-10.8-16-24.9-22.3-35.2
		c-3.8-6-7.5-8.5-19.7-8.5h-7.8v34.2c0,18.6,1.9,19.8,19.8,21v6.8h-56.9v-6.8c18.6-1.2,20.5-2.2,20.5-21v-87.5
		c0-18.8-2-19.1-19.4-20.6v-6.7h53.8c15.1,0,26.1,2,34,7.1c9,5.8,15.1,15.8,15.1,28.6c0,19.1-11.4,31.1-27.9,38.4
		c3.8,7.3,13.1,21.9,19.6,31.7c8.3,11.6,12.1,16.1,17.6,22.1c5.8,6.5,11.8,9.3,16.8,10.3L1080.4,279.7z M999.9,208.4
		c11.6,0,18.6-2.1,24.1-6.6c8.6-6.7,12.5-15.1,12.5-27.1c0-23.5-16.3-31.7-33.9-31.7c-6.5,0-10.1,0.8-11.8,2
		c-2,1.5-2.6,4.1-2.6,10.1v53.3H999.9z"/>
</g>
<g>
	<path class="st0" d="M1337.7,141.9c-15.5,2.1-17,3.4-23.4,20.9c-4.8,13.1-18.3,55.9-36.1,117.1h-7.1c-11.6-35.8-26.2-76.6-38-111
		h-0.5c-13,39.9-25,75-36.4,111h-6.7c-11.4-39.4-23.9-77.8-35.9-117.1c-5.3-17.7-8.6-19.2-21.9-20.9v-6.7h51.5v6.7
		c-16.2,1.9-16.3,3.1-13.3,13.9c8.6,30.1,17.4,60.1,27.2,92.6h0.5c12.1-39,24.8-75,35.9-111.1h6.5c12.1,36.5,24.7,71.7,38.3,110.8
		h0.5c8.8-29.3,22-73.6,25.6-89.4c2.6-12.6,1.5-14.8-14.6-16.9v-6.7h48V141.9z"/>
</g>
<g>
	<path class="st0" d="M1416.7,131.7c36.2,0,70.3,28.6,70.3,73c0,47.8-33.2,76.6-73.3,76.6c-38,0-70.4-30.4-70.4-73
		c0-40,28.1-76.6,73.3-76.6H1416.7z M1411.3,140.4c-23.9,0-47.3,19.7-47.3,61.6c0,41.3,23.7,70.7,54.6,70.7
		c24.8,0,47.4-19.7,47.4-62.1c0-46.5-25.6-70.2-54.5-70.2H1411.3z"/>
</g>
<g>
	<path class="st0" d="M1584.3,131.7c36.2,0,70.3,28.6,70.3,73c0,47.8-33.2,76.6-73.3,76.6c-38,0-70.4-30.4-70.4-73
		c0-40,28.1-76.6,73.3-76.6H1584.3z M1579,140.4c-23.9,0-47.3,19.7-47.3,61.6c0,41.3,23.7,70.7,54.6,70.7
		c24.8,0,47.4-19.7,47.4-62.1c0-46.5-25.6-70.2-54.5-70.2H1579z"/>
</g>
<g>
	<path class="st0" d="M1732.9,135.2c28.3,0,48.5,5.3,62,18.6c10.8,10.6,18.6,26.7,18.6,47.3c0,26.1-10.1,46-26.9,58.8
		c-16.6,12.8-37.7,18.1-64.6,18.1h-51.7v-6.7c19.4-1.3,21.1-2.3,21.1-20.9v-87.5c0-18.6-1.7-19.2-18.9-20.8v-6.8H1732.9z
		 M1708.5,248.5c0,16.6,7.3,20.9,24.1,20.9c42.8,0,61.6-31.1,61.6-65.5c0-21.9-8.7-42-27.1-52.5c-10-5.8-22.8-8.1-37.2-8.1
		c-10.4,0-16.2,1-18.3,2.8c-2.2,1.7-3,3.8-3,12.3V248.5z"/>
</g>
<g class="st2">
	<path class="st3" d="M580.6,324.7c5-5.1,11.2-7.7,18.7-7.7c7.4,0,13.6,2.6,18.6,7.7c5,5.1,7.5,11.5,7.5,19.1
		c0,7.7-2.5,14.1-7.5,19.2c-4.9,5.1-11.1,7.6-18.6,7.6c-7.5,0-13.7-2.5-18.7-7.6c-4.9-5.1-7.4-11.5-7.4-19.2
		C573.2,336.1,575.7,329.8,580.6,324.7z M584.7,359.3c3.9,4.2,8.8,6.2,14.6,6.2c5.8,0,10.7-2.1,14.6-6.2c4-4.2,5.9-9.4,5.9-15.5
		c0-6.1-2-11.3-5.9-15.5c-3.9-4.2-8.8-6.2-14.6-6.2c-5.8,0-10.7,2.1-14.6,6.2c-4,4.2-5.9,9.4-5.9,15.5
		C578.7,349.9,580.7,355.1,584.7,359.3z"/>
	<path class="st3" d="M638,317.9h5.5v22.5l24-22.5h7.3l-25.5,23.7l29.4,28.2H671l-27.5-26.4v26.4H638V317.9z"/>
</g>
<g class="st2">
	<path class="st3" d="M688.2,324.7c5-5.1,11.2-7.7,18.7-7.7c7.4,0,13.6,2.6,18.6,7.7c5,5.1,7.5,11.5,7.5,19.1
		c0,7.7-2.5,14.1-7.5,19.2c-4.9,5.1-11.1,7.6-18.6,7.6c-7.5,0-13.7-2.5-18.7-7.6c-4.9-5.1-7.4-11.5-7.4-19.2
		C680.8,336.1,683.3,329.8,688.2,324.7z M692.3,359.3c3.9,4.2,8.8,6.2,14.6,6.2c5.8,0,10.7-2.1,14.6-6.2c4-4.2,5.9-9.4,5.9-15.5
		c0-6.1-2-11.3-5.9-15.5c-3.9-4.2-8.8-6.2-14.6-6.2c-5.8,0-10.7,2.1-14.6,6.2c-4,4.2-5.9,9.4-5.9,15.5
		C686.4,349.9,688.4,355.1,692.3,359.3z"/>
	<path class="st3" d="M751.1,369.7h-5.5v-51.9h5.5v21.6h30.8v-21.6h5.5v51.9h-5.5v-25.4h-30.8V369.7z"/>
	<path class="st3" d="M807.5,369.7H802v-51.9h5.5v21.6h30.8v-21.6h5.5v51.9h-5.5v-25.4h-30.8V369.7z"/>
	<path class="st3" d="M877.6,369.7h-19.1v-51.9h5.5v19.3h13.6c5.9,0,10.4,1.5,13.6,4.5c3.3,3,5,6.9,5,11.8c0,4.9-1.7,8.9-5,11.8
		C887.9,368.3,883.4,369.7,877.6,369.7z M863.9,342.2v22.6h13.3c4.2,0,7.6-1,9.9-2.9c2.4-2,3.6-4.7,3.6-8.3s-1.2-6.4-3.5-8.4
		s-5.7-3-10-3H863.9z M909.6,369.7h-5.5v-51.9h5.5V369.7z"/>
	<path class="st3" d="M960.9,369.7h-36.7v-51.9h35.6v5h-30.1v16.6h24.7v5h-24.7v20.4h31.2V369.7z"/>
	<path class="st3" d="M1015.7,370.6c-7.6,0-13.9-2.5-19.1-7.6c-5-5-7.6-11.5-7.6-19.3c0-7.8,2.5-14.2,7.6-19.2
		c5.1-5.1,11.4-7.6,19.1-7.6c5.6,0,10.5,1.3,14.5,3.9v5.6c-4.5-2.9-9.4-4.4-14.5-4.4c-5.9,0-10.9,2.1-15,6.2
		c-4.1,4.1-6.1,9.2-6.1,15.5c0,6.3,2,11.5,6.1,15.6c4.1,4.1,9.2,6.2,15.2,6.2s11.2-1.7,15.4-5.2v5.7
		C1027.1,369.1,1021.9,370.6,1015.7,370.6z"/>
	<path class="st3" d="M1047,369.7h-4.6v-51.9h5.4v42.7l32.2-42.7h4.8v51.9h-5.4v-42.8L1047,369.7z"/>
	<path class="st3" d="M1123.9,370.6c-7.6,0-13.9-2.5-19.1-7.6c-5-5-7.6-11.5-7.6-19.3c0-7.8,2.5-14.2,7.6-19.2
		c5.1-5.1,11.4-7.6,19.1-7.6c5.6,0,10.5,1.3,14.5,3.9v5.6c-4.5-2.9-9.4-4.4-14.5-4.4c-5.9,0-10.9,2.1-15,6.2
		c-4.1,4.1-6.1,9.2-6.1,15.5c0,6.3,2,11.5,6.1,15.6c4.1,4.1,9.2,6.2,15.2,6.2s11.2-1.7,15.4-5.2v5.7
		C1135.3,369.1,1130.1,370.6,1123.9,370.6z"/>
	<path class="st3" d="M1169.3,369.7h-5.5v-46.9h-17.9v-5h41.4v5h-18.1V369.7z"/>
	<path class="st3" d="M1234,369.7h-36.7v-51.9h35.6v5h-30.1v16.6h24.7v5h-24.7v20.4h31.2V369.7z"/>
	<path class="st3" d="M1250.2,369.7h-5.4v-51.9h5.4l18.8,25.1l18.8-25.1h5.3v51.9h-5.4v-43.6l-17,22.7h-3.3l-17.1-22.7V369.7z"/>
	<path class="st3" d="M1326.7,369.7h-19.1v-51.9h5.5v19.3h13.6c5.9,0,10.4,1.5,13.6,4.5c3.3,3,5,6.9,5,11.8c0,4.9-1.7,8.9-5,11.8
		C1337.1,368.3,1332.5,369.7,1326.7,369.7z M1313.1,342.2v22.6h13.3c4.2,0,7.6-1,9.9-2.9c2.4-2,3.6-4.7,3.6-8.3s-1.2-6.4-3.5-8.4
		s-5.7-3-10-3H1313.1z M1358.8,369.7h-5.5v-51.9h5.5V369.7z"/>
	<path class="st3" d="M1397.5,369.7h-4.6v-51.9h5.4v42.7l32.2-42.7h4.8v51.9h-5.4v-42.8L1397.5,369.7z"/>
	<path class="st3" d="M1463.5,370.6c-6.9,0-12.8-1.3-17.5-4V361c5.1,3,10.6,4.5,16.7,4.5c4.9,0,8.9-1,11.8-3c2.9-2,4.3-4.7,4.3-8
		c0-3-1.3-5.5-4-7.4c-2.7-1.9-6.2-2.9-10.5-2.9h-6.4v-5h7c3.7,0,6.5-0.8,8.6-2.3c2-1.5,3.1-3.6,3.1-6.3c0-2.7-1.2-4.8-3.5-6.3
		c-2.3-1.5-5.4-2.3-9.2-2.3c-5.1,0-10.2,1.2-15.4,3.6v-5.2c5.1-2.4,10.3-3.6,15.6-3.6c5.2,0,9.5,1.2,12.8,3.6c3.4,2.5,5,5.7,5,9.7
		c0,3.1-0.9,5.5-2.7,7.4c-1.7,1.8-3.7,3.1-5.8,3.7c2.9,0.9,5.4,2.4,7.6,4.7c2.2,2.1,3.3,5,3.3,8.7c0,4.6-1.9,8.4-5.6,11.3
		C1475,369.2,1469.9,370.6,1463.5,370.6z"/>
	<path class="st3" d="M1515,381.3h-5.1v-16.5h4.9c3.2-4.5,5.5-9.8,6.9-15.8c1.4-6.1,2.2-14.4,2.2-24.9v-6.2h32v46.9h7.9v16.5h-5.1
		v-11.6H1515V381.3z M1521,364.8h29.4v-42h-21.1v3.5C1529.3,344,1526.5,356.8,1521,364.8z"/>
	<path class="st3" d="M1610.2,369.7h-36.7v-51.9h35.6v5H1579v16.6h24.7v5H1579v20.4h31.2V369.7z"/>
	<path class="st3" d="M1626.4,369.7h-5.5v-51.9h21.8c5.1,0,9.2,1.3,12.2,3.9c3,2.6,4.4,6.1,4.4,10.5c0,4.4-1.5,8-4.4,10.6
		c-3,2.6-7,4-12.2,4h-16.3V369.7z M1626.4,322.8v19.1h15.9c3.7,0,6.5-0.8,8.5-2.5c2-1.7,3-4,3-7c0-3.1-1-5.4-3-7.1
		c-2-1.7-4.9-2.5-8.6-2.5H1626.4z"/>
	<path class="st3" d="M1707,369.7h-36.7v-51.9h35.6v5h-30.1v16.6h24.7v5h-24.7v20.4h31.2V369.7z"/>
	<path class="st3" d="M1742.5,369.7h-24.8v-51.9h22.5c4.6,0,8.2,1.1,10.9,3.4s4,5.3,4,9.2c0,2.7-0.6,5-1.8,6.9s-2.9,3.3-5,4.1
		c3.5,0.5,6.2,2.1,8.2,4.5c2,2.5,3,5.6,3,9.3c0,4.4-1.5,7.9-4.6,10.5C1751.8,368.4,1747.7,369.7,1742.5,369.7z M1723.2,322.8v17
		h16.1c3.3,0,5.9-0.7,7.7-2.1c1.8-1.4,2.7-3.5,2.7-6.2c0-2.8-0.9-4.9-2.7-6.4c-1.8-1.5-4.4-2.2-7.7-2.2H1723.2z M1723.2,344.6v20.2
		h18.3c3.9,0,6.8-0.9,9-2.7c2.1-1.8,3.2-4.3,3.2-7.5c0-3.2-1.1-5.6-3.2-7.4c-2.1-1.8-5.1-2.6-9-2.6H1723.2z"/>
	<path class="st3" d="M1772.1,369.7h-5.7l23.1-52.2h5.1l23.2,52.2h-5.8l-6.4-14.3h-27.2L1772.1,369.7z M1792.1,324.5l-11.8,26.2
		h23.6L1792.1,324.5z"/>
</g>
</svg>
