<svg width="13" height="13" viewBox="0 0 13 13" fill="none" xmlns="http://www.w3.org/2000/svg">
<path opacity="0.5" d="M9.11194 0.0646973C7.94183 0.0738864 7.37977 0.354155 7.24181 0.491992C7.49219 1.31902 8.0287 3.08333 8.19221 3.54738C8.39659 4.1263 8.39659 4.67765 8.09001 5.32089C7.8428 5.83957 7.4597 6.77148 7.34351 7.50348C7.31489 7.68381 7.30131 7.85479 7.30824 8.00872C7.33379 8.64277 7.77322 9.91198 7.98782 11.8325C8.42725 11.8739 9.44406 11.9566 9.96014 11.9566C10.4762 11.9566 11.5339 11.8739 11.9989 11.8325C12.2135 9.94874 12.6529 8.72088 12.6785 7.91683C12.7095 6.87621 12.2697 6.08359 11.8609 5.26116C11.5339 4.59954 11.6361 3.94711 11.723 3.7036L12.7398 0.436857C11.9784 0.0968589 11.2018 0.0509131 10.9054 0.0692914C10.8594 0.386317 10.6142 1.01577 9.98569 1.01577C9.3572 1.01577 9.1426 0.381723 9.11194 0.0646973Z" fill="#666666"/>
<path fill-rule="evenodd" clip-rule="evenodd" d="M2.01777 12.1164L3.60876 10.5254C3.70639 10.4278 3.70639 10.2695 3.60876 10.1718C3.51113 10.0742 3.35284 10.0742 3.25521 10.1718L2.09099 11.336L2.09099 6.32859L2.09099 5.86101L2.09099 0.853553L3.25521 2.01777C3.35284 2.1154 3.51113 2.1154 3.60876 2.01777C3.70639 1.92014 3.70639 1.76184 3.60876 1.66421L2.01777 0.0732232C1.92014 -0.0244078 1.76185 -0.0244078 1.66422 0.0732231L0.0732266 1.66421C-0.0244046 1.76184 -0.0244046 1.92014 0.0732266 2.01777C0.170858 2.1154 0.329149 2.1154 0.42678 2.01777L1.59099 0.853553L1.59099 5.86101L1.59099 6.32859L1.59099 11.336L0.42678 10.1718C0.329149 10.0742 0.170857 10.0742 0.0732262 10.1718C-0.0244047 10.2695 -0.0244047 10.4278 0.0732262 10.5254L1.66422 12.1164C1.76185 12.214 1.92014 12.214 2.01777 12.1164Z" fill="#C6C6C7"/>
</svg>
