<svg width="34" height="84" viewBox="0 0 34 84" fill="none" xmlns="http://www.w3.org/2000/svg">
<path opacity="0.5" d="M11.8423 0C4.83238 0.0647652 1.46517 2.0401 0.638672 3.01158C2.13861 8.84045 5.35277 21.2754 6.33232 24.546C7.55676 28.6262 7.55676 32.5121 5.7201 37.0457C4.23911 40.7014 1.94401 47.2695 1.24794 52.4286C1.07645 53.6996 0.995121 54.9047 1.03662 55.9895C1.18967 60.4583 3.82221 69.4038 5.10787 82.9397C7.74042 83.2311 13.832 83.814 16.9237 83.814C20.0154 83.814 26.3519 83.2311 29.1375 82.9397C30.4232 69.6628 33.0557 61.0089 33.2088 55.3419C33.3944 48.0076 30.7599 42.4212 28.311 36.6247C26.3519 31.9616 26.9641 27.3633 27.4845 25.647L33.5761 2.62299C29.0151 0.226675 24.3622 -0.0971508 22.5868 0.0323797C22.3113 2.26678 20.8419 6.7032 17.0768 6.7032C13.3116 6.7032 12.026 2.2344 11.8423 0Z" fill="#666666"/>
<path d="M15.0459 21.4436H15.511L15.9877 20.3812H18.1756L18.6464 21.4436H19.1345L17.3027 17.3951H16.8778L15.0459 21.4436ZM16.1657 19.9735L17.0845 17.9235L17.9975 19.9735H16.1657Z" fill="#7E0C21"/>
<path d="M15.8887 36.1587H17.6746C18.5532 36.1587 19.1332 35.7509 19.1332 35.0618C19.1332 34.4991 18.7484 34.2234 18.2718 34.0799C18.5876 33.9421 18.9092 33.6722 18.9092 33.1496C18.9092 32.8797 18.8173 32.6672 18.6508 32.495C18.4268 32.2653 18.0593 32.1389 17.5999 32.1389H15.8887V36.1587ZM16.3366 35.7509V34.3325H17.6057C18.3063 34.3325 18.6738 34.5852 18.6738 35.0216C18.6738 35.481 18.2948 35.7509 17.6861 35.7509H16.3366ZM16.3366 33.9306V32.5466H17.5597C18.134 32.5466 18.4498 32.805 18.4498 33.2013C18.4498 33.6836 18.0708 33.9306 17.5253 33.9306H16.3366Z" fill="#7E0C21"/>
<path d="M17.6787 52.2247C18.408 52.2247 18.8674 51.9663 19.2866 51.5413L18.988 51.2255C18.6032 51.593 18.2415 51.8055 17.6902 51.8055C16.8058 51.8055 16.134 51.0762 16.134 50.1459C16.134 49.2099 16.8001 48.4863 17.6902 48.4863C18.2357 48.4863 18.6147 48.716 18.9535 49.0376L19.2521 48.716C18.8502 48.337 18.4252 48.0671 17.6959 48.0671C16.513 48.0671 15.6631 49.0089 15.6631 50.1459C15.6631 51.3116 16.5187 52.2247 17.6787 52.2247Z" fill="#7E0C21"/>
<path fill-rule="evenodd" clip-rule="evenodd" d="M30.0774 20.5859C29.7138 20.5052 29.3086 20.434 28.8776 20.3692L28.9672 20.0527C29.388 20.116 29.7858 20.1856 30.1472 20.264L30.1511 20.2648L30.1576 20.2662C30.7657 20.3954 31.3124 20.5567 31.6472 20.7821L31.6679 20.7997L31.68 20.81C31.8215 20.9302 31.9573 21.0525 32.0143 21.2025C32.102 21.3881 32.0782 21.5447 31.9959 21.7276L31.9839 21.7536C31.9252 21.8778 31.8101 22.0021 31.6387 22.1263L31.6166 22.1422L31.6033 22.1515C31.4213 22.2778 31.1811 22.4041 30.8827 22.5305L30.8819 22.5308L30.8743 22.534C30.2624 22.792 29.377 23.0498 28.1578 23.2755L28.1563 23.2758C25.8628 23.7364 22.3583 24.0804 17.1729 24.1976C17.07 24.1999 16.9664 24.2021 16.8621 24.2043L16.8128 24.2053L16.6807 24.2079L16.488 24.2115L16.3151 24.2146L16.311 24.2147L16.862 24.7976C16.8656 24.8013 16.8689 24.805 16.872 24.8088C16.8812 24.8198 16.8887 24.8308 16.8943 24.8418C16.9201 24.8918 16.9093 24.9418 16.862 24.9919C16.8008 25.0566 16.7396 25.0566 16.6784 24.9919L15.9402 24.2109L12.2598 24.3342L8.75123 24.2065L8.74694 24.206L8.45365 24.1745C7.04323 24.0228 5.58085 23.8656 4.46569 23.6236L4.46183 23.6228L4.45528 23.6214C3.84723 23.4922 3.30056 23.3309 2.96575 23.1055L2.94498 23.0879L2.9329 23.0776C2.79143 22.9574 2.65538 22.8346 2.59842 22.6845C2.51071 22.4989 2.53469 22.3429 2.61702 22.16L2.62903 22.134C2.68775 22.0097 2.80281 21.8855 2.97419 21.7613L2.99636 21.7454L3.00968 21.7361C3.19165 21.6098 3.43186 21.4834 3.73028 21.3571L3.73103 21.3568L3.73863 21.3536C4.14298 21.1831 4.66685 21.0127 5.32752 20.8516L5.40369 21.1728C4.74793 21.3328 4.24039 21.4975 3.85423 21.648L3.85347 21.6483C3.54736 21.7778 3.33308 21.9073 3.18003 22.0045L3.17942 22.005C3.04536 22.1185 2.95837 22.2071 2.91845 22.2708C2.9129 22.2796 2.90826 22.288 2.90453 22.2959C2.84348 22.4251 2.84357 22.4904 2.87392 22.555C2.87711 22.5617 2.88065 22.5689 2.88458 22.5763C2.91832 22.64 2.98174 22.727 3.11881 22.814C3.1284 22.8208 3.13825 22.8275 3.14836 22.8342C3.15826 22.8408 3.16841 22.8473 3.17879 22.8537C3.46254 23.0305 3.92838 23.1792 4.52691 23.2998L4.53388 23.3013L4.53555 23.3017C5.62285 23.543 7.08212 23.6999 8.49066 23.8513L8.7631 23.8806L8.78185 23.8827L12.2598 24.0143L15.9147 23.8891L16.6784 23.0813C16.7396 23.0165 16.8008 23.0165 16.862 23.0813C16.9033 23.1249 16.9168 23.1686 16.9024 23.2122C16.8967 23.2296 16.8866 23.247 16.872 23.2644C16.8689 23.2681 16.8656 23.2718 16.862 23.2756L16.311 23.8585L16.4603 23.8567L16.483 23.8564L16.6931 23.8535L16.8283 23.8515L16.8455 23.8513C16.9651 23.8494 17.0837 23.8474 17.2015 23.8453C22.3407 23.7519 25.8329 23.3812 28.0926 22.9525L28.0963 22.9518L28.0975 22.9515C29.3208 22.725 30.1773 22.4662 30.7587 22.2396L30.7595 22.2393C31.0656 22.1098 31.2799 21.9803 31.4329 21.8831L31.4335 21.8826C31.5676 21.7691 31.6546 21.6805 31.6945 21.6168C31.7 21.608 31.7047 21.5996 31.7084 21.5917C31.7694 21.4625 31.7696 21.3978 31.7393 21.3332C31.7361 21.3264 31.7323 21.3187 31.7283 21.3113C31.6946 21.2476 31.6312 21.1606 31.4941 21.0736C31.4845 21.0668 31.4747 21.0601 31.4646 21.0534C31.4547 21.0468 31.4445 21.0403 31.4341 21.0339C31.1504 20.8571 30.6845 20.7084 30.086 20.5878L30.0791 20.5863L30.0774 20.5859Z" fill="#7E0C21"/>
<path fill-rule="evenodd" clip-rule="evenodd" d="M28.6792 35.2636C28.4574 35.1254 28.1242 35.0044 27.7033 34.9005L27.6063 34.541C28.1317 34.6624 28.5953 34.8119 28.8923 35.0119L28.913 35.0294L28.9251 35.0397C29.0666 35.16 29.2024 35.2822 29.2594 35.4323C29.3471 35.6178 29.3233 35.7744 29.241 35.9573L29.229 35.9833C29.1703 36.1076 29.0552 36.2318 28.8838 36.3561L28.8617 36.3719L28.8484 36.3812C28.6664 36.5076 28.4262 36.6339 28.1278 36.7602L28.127 36.7605L28.1194 36.7637C27.5075 37.0217 26.6221 37.2795 25.4029 37.5053L25.4014 37.5056C23.1079 37.9661 19.6034 38.3102 14.418 38.4273C14.3151 38.4296 14.2115 38.4319 14.1073 38.434L14.058 38.435L13.9258 38.4377L13.7331 38.4413L13.5602 38.4444L13.5562 38.4444L14.1072 39.0273C14.1107 39.0311 14.114 39.0348 14.1171 39.0385C14.1264 39.0495 14.1338 39.0606 14.1395 39.0716C14.1652 39.1216 14.1544 39.1716 14.1072 39.2216C14.0459 39.2864 13.9847 39.2864 13.9235 39.2216L13.1582 38.412C13.1492 38.4026 13.1429 38.3875 13.1392 38.3669L13.1347 38.4144L11.9576 38.4105L11.0764 38.349L11.0721 38.3485L10.7789 38.3169C9.3685 38.1653 7.90607 38.0081 6.79089 37.7661L6.78702 37.7653L6.78048 37.7639C6.17243 37.6347 5.62576 37.4734 5.29095 37.248L5.27017 37.2304L5.25809 37.2201C5.11662 37.0999 4.98058 36.977 4.92361 36.827C4.83591 36.6414 4.85989 36.4854 4.94221 36.3025L4.95422 36.2765C5.01295 36.1522 5.128 36.028 5.29939 35.9037L5.32156 35.8879L5.33488 35.8786C6.06383 35.5859 6.17867 35.6914 6.17867 35.6914V35.7907C6.17867 35.7907 5.65767 36.0503 5.50462 36.1475C5.37056 36.261 5.28356 36.3496 5.24364 36.4133C5.23809 36.4221 5.23345 36.4305 5.22972 36.4384C5.16868 36.5676 5.16877 36.6329 5.19911 36.6975C5.20231 36.7042 5.20584 36.7113 5.20978 36.7188C5.24352 36.7825 5.30694 36.8695 5.444 36.9565C5.4536 36.9633 5.46345 36.97 5.47356 36.9767C5.48346 36.9832 5.4936 36.9898 5.50399 36.9962C5.78773 37.173 6.25358 37.3216 6.85211 37.4423L6.85907 37.4438L6.86074 37.4442C7.94808 37.6854 9.4074 37.8424 10.816 37.9938L11.0991 38.0243L11.107 38.0251L11.9576 38.0906H13.1653L13.163 38.1156L13.9235 37.311C13.9847 37.2463 14.0459 37.2463 14.1072 37.311C14.1484 37.3547 14.1619 37.3983 14.1475 37.442C14.1418 37.4594 14.1317 37.4767 14.1172 37.4941C14.114 37.4978 14.1107 37.5016 14.1072 37.5053L13.5562 38.0882L13.7054 38.0864L13.7281 38.0861L13.9382 38.0833L14.0734 38.0813L14.0906 38.081C14.2102 38.0792 14.3288 38.0772 14.4466 38.075C19.5858 37.9816 23.078 37.6109 25.3377 37.1822L25.3414 37.1815L25.3426 37.1813C26.5659 36.9547 27.4224 36.6959 28.0038 36.4694L28.0046 36.4691C28.3107 36.3396 28.525 36.21 28.678 36.1129L28.6786 36.1124C28.8127 35.9989 28.8997 35.9103 28.9396 35.8465C28.9451 35.8377 28.9498 35.8293 28.9535 35.8214C29.0145 35.6923 29.0147 35.6275 28.9844 35.5629C28.9812 35.5562 28.9774 35.5485 28.9734 35.541C28.9397 35.4773 28.8763 35.3903 28.7392 35.3033C28.7296 35.2965 28.7198 35.2898 28.7097 35.2831C28.6998 35.2766 28.6896 35.2701 28.6792 35.2636Z" fill="#7E0C21"/>
</svg>
