<svg width="75" height="27" viewBox="0 0 75 27" fill="none" xmlns="http://www.w3.org/2000/svg">
<path d="M10.1168 6.8978H11.4964C11.5884 6.8978 11.6803 6.80583 11.6803 6.71386C11.6803 6.62189 11.5884 6.52992 11.4964 6.52992H10.1168C10.0248 6.52992 9.93288 6.62189 9.93288 6.71386C9.93288 6.80583 10.0248 6.8978 10.1168 6.8978ZM10.8066 19.0379C10.3927 19.0379 10.0708 19.3598 10.0708 19.7737C10.0708 20.1876 10.3927 20.5095 10.8066 20.5095C11.2205 20.5095 11.5424 20.1876 11.5424 19.7737C11.4964 19.3598 11.1745 19.0379 10.8066 19.0379ZM7.26573 18.3942H14.3475V7.95546H7.26573V18.3942ZM29.9365 14.9912C29.6146 14.9912 29.2927 15.0832 29.0168 15.3131C28.7409 15.5431 28.557 15.819 28.465 16.1869C28.419 16.3708 28.419 16.5087 28.419 16.6007V17.6124C28.419 18.0723 28.557 18.4401 28.8329 18.762C29.1088 19.0839 29.4767 19.2219 29.8905 19.2219C30.3964 19.2219 30.8103 19.0379 31.0862 18.6241C31.3621 18.2102 31.5 17.7044 31.5 17.0606C31.5 16.4628 31.3621 15.9569 31.0862 15.589C30.8103 15.1752 30.4424 14.9912 29.9365 14.9912ZM54.7227 14.8993C54.1708 14.8993 53.757 15.1292 53.4811 15.635C53.2511 16.0489 53.1132 16.5087 53.1132 17.1066C53.1132 17.6584 53.2511 18.1642 53.4811 18.5321C53.757 19.0379 54.1708 19.2679 54.7227 19.2679C55.2285 19.2679 55.6424 19.0379 55.9183 18.5321C56.1942 18.1182 56.2862 17.6584 56.2862 17.0606C56.2862 16.4628 56.1482 16.0029 55.9183 15.635C55.6424 15.1292 55.2745 14.8993 54.7227 14.8993ZM36.6504 14.9912C36.3285 14.9912 36.0066 15.0832 35.7307 15.3131C35.4548 15.5431 35.2708 15.819 35.1789 16.1869C35.1329 16.3708 35.1329 16.5087 35.1329 16.6007V17.6124C35.1329 18.0723 35.2708 18.4401 35.5468 18.762C35.8227 19.0839 36.1905 19.2219 36.6044 19.2219C37.1103 19.2219 37.5241 19.0379 37.8 18.6241C38.0759 18.2102 38.2139 17.7044 38.2139 17.0606C38.2139 16.4628 38.0759 15.9569 37.8 15.589C37.5241 15.1752 37.1562 14.9912 36.6504 14.9912ZM22.6249 12.7839C22.5329 13.1518 22.3949 13.6577 22.211 14.3934L21.5212 16.6007H23.8205L23.0847 14.3934C22.9467 14.1635 22.8088 13.6117 22.6249 12.7839ZM65.0234 14.8073C64.5635 14.8073 64.2416 14.9912 63.9197 15.3591C63.6898 15.635 63.5519 16.0029 63.5059 16.4168H66.357C66.357 16.0029 66.265 15.681 66.0811 15.3591C65.8971 15.0372 65.5292 14.8073 65.0234 14.8073ZM28.603 8.7832C28.603 8.73722 28.603 8.64525 28.603 8.59926V8.18539C28.0511 8.18539 27.4993 8.27736 27.4993 8.7832C27.4993 9.1051 27.6832 9.24306 27.9592 9.24306C28.2811 9.24306 28.511 9.01313 28.603 8.7832ZM21.1993 6.80583C21.1073 6.52992 21.0613 6.25401 20.9694 5.97809C20.9234 6.20802 20.8314 6.52992 20.7394 6.80583L20.4176 7.86349H21.5212L21.1993 6.80583ZM66.311 6.48393C67.3227 6.48393 67.6905 7.31167 67.6905 8.00145C67.6905 8.13941 67.6905 8.27736 67.6446 8.32335H65.5292C65.5292 8.87517 65.9891 9.15109 66.4949 9.15109C66.8628 9.15109 67.1387 9.1051 67.3686 9.01313L67.5066 9.56495C67.2307 9.70291 66.8628 9.7489 66.403 9.7489C65.3913 9.7489 64.7935 9.1051 64.7935 8.13941C64.7475 7.31167 65.2993 6.48393 66.311 6.48393ZM53.665 6.5759L53.711 7.03576C53.8489 6.80583 54.2168 6.48393 54.7227 6.48393C55.2745 6.48393 55.8263 6.85182 55.8263 7.81751V9.70291H55.0446V7.90948C55.0446 7.44963 54.8606 7.12773 54.4468 7.12773C54.1249 7.12773 53.8949 7.35765 53.803 7.58758C53.757 7.63357 53.757 7.77152 53.757 7.81751V9.65692H52.9752V7.44963C52.9752 7.08174 52.9752 6.80583 52.9292 6.52992H53.665V6.5759ZM45.2957 6.48393C46.3073 6.48393 46.6752 7.31167 46.6752 8.00145C46.6752 8.13941 46.6752 8.27736 46.6292 8.32335H44.5139C44.5139 8.87517 44.9738 9.15109 45.4796 9.15109C45.8475 9.15109 46.1234 9.1051 46.3533 9.01313L46.4913 9.56495C46.2154 9.70291 45.8475 9.7489 45.3876 9.7489C44.3759 9.7489 43.7781 9.1051 43.7781 8.13941C43.7781 7.31167 44.284 6.48393 45.2957 6.48393ZM42.0307 5.10437H42.8124V9.70291H42.0307V5.10437ZM35.7307 7.08174C35.4088 7.08174 35.0869 7.17371 34.903 7.31167L34.765 6.80583C34.9949 6.66787 35.4088 6.52992 35.9146 6.52992C36.9263 6.52992 37.2022 7.17371 37.2022 7.86349V9.01313C37.2022 9.28904 37.2022 9.56495 37.2482 9.7489H36.5124L36.4665 9.38101C36.2825 9.61094 35.9606 9.79488 35.5468 9.79488C34.903 9.79488 34.5351 9.33503 34.5351 8.87517C34.5351 8.09342 35.2248 7.67955 36.4205 7.67955V7.63357C36.3745 7.40364 36.2825 7.08174 35.7307 7.08174ZM31.0402 5.24233C31.3161 5.24233 31.5 5.42627 31.5 5.65619C31.5 5.88612 31.3161 6.07006 31.0402 6.07006C30.7643 6.07006 30.5803 5.88612 30.5803 5.65619C30.5803 5.42627 30.7643 5.24233 31.0402 5.24233ZM31.4081 6.5759V9.7489H30.6263V6.5759H31.4081ZM20.4635 5.38028H21.4752L22.9008 9.7489H22.027L21.6132 8.50729H20.2336L19.8657 9.7489H19.038L20.4635 5.38028ZM15.1752 19.8197C15.1752 20.6014 14.5314 21.1993 13.7957 21.1993H7.81755C7.0358 21.1993 6.43799 20.5555 6.43799 19.8197V6.52992C6.43799 5.74817 7.08178 5.15036 7.81755 5.15036H13.7957C14.5774 5.15036 15.1752 5.79415 15.1752 6.52992V19.8197ZM24.7862 20.1416L24.0044 17.6584H21.2453L20.5095 20.1416H19.084L21.7971 11.6803H23.4986L26.2577 20.1416H24.7862ZM25.1081 9.70291H24.3263L23.1767 6.52992H24.0504L24.5562 8.13941C24.6482 8.41532 24.6942 8.69123 24.7862 8.92116C24.8321 8.64525 24.9241 8.41532 25.0161 8.13941L25.5219 6.52992H26.3497L25.1081 9.70291ZM26.7176 8.87517C26.7176 8.09342 27.4073 7.67955 28.603 7.67955V7.63357C28.603 7.44963 28.511 7.08174 27.9592 7.08174C27.6373 7.08174 27.3154 7.17371 27.1314 7.31167L26.9935 6.80583C27.2234 6.66787 27.6373 6.52992 28.1431 6.52992C29.1548 6.52992 29.4307 7.17371 29.4307 7.86349V9.01313C29.4307 9.28904 29.4307 9.56495 29.4767 9.7489H28.7409L28.6949 9.38101C28.511 9.61094 28.1891 9.79488 27.7752 9.79488C27.0854 9.79488 26.7176 9.33503 26.7176 8.87517ZM32.0519 19.4518C31.546 20.0036 30.9022 20.2336 30.1665 20.2336C29.3387 20.2336 28.7869 19.9577 28.419 19.3598V22.5788H27.0394V16.0489C27.0394 15.4051 27.0394 14.7153 26.9935 14.0255H28.1891L28.2811 14.9912H28.327C28.7869 14.2555 29.4767 13.8876 30.3964 13.8876C31.1321 13.8876 31.73 14.1635 32.1898 14.7613C32.6497 15.3131 32.9256 16.0949 32.9256 17.0146C32.8796 18.0263 32.6037 18.854 32.0519 19.4518ZM33.4774 9.70291H32.6497V5.10437H33.4314V9.70291H33.4774ZM38.7657 19.4518C38.2599 20.0036 37.6161 20.2336 36.8803 20.2336C36.0526 20.2336 35.5008 19.9577 35.1329 19.3598V22.5788H33.7533V16.0489C33.7533 15.4051 33.7533 14.7153 33.7073 14.0255H34.903L34.9949 14.9912H35.0409C35.5008 14.2555 36.1905 13.8876 37.1103 13.8876C37.846 13.8876 38.4438 14.1635 38.9037 14.7613C39.4095 15.3131 39.6395 16.0949 39.6395 17.0146C39.6395 18.0263 39.3176 18.854 38.7657 19.4518ZM39.6854 9.79488C39.2716 9.79488 38.9037 9.65693 38.6738 9.24306L38.6278 9.70291H37.938C37.938 9.47298 37.984 9.15109 37.984 8.82919V5.10437H38.7657V6.98977C38.9497 6.66787 39.3176 6.48393 39.7774 6.48393C40.5592 6.48393 41.111 7.12773 41.111 8.09342C41.157 9.24306 40.4212 9.79488 39.6854 9.79488ZM46.5373 19.5438C45.9854 20.0496 45.2037 20.2796 44.238 20.2796C43.3183 20.2796 42.5825 20.0956 42.0307 19.7737L42.3526 18.6241C42.9504 18.992 43.5942 19.1299 44.33 19.1299C44.8358 19.1299 45.2497 18.992 45.5256 18.762C45.8015 18.5321 45.9394 18.2102 45.9394 17.8423C45.9394 17.5204 45.8015 17.1985 45.5716 16.9686C45.3416 16.7387 44.9278 16.5087 44.4219 16.3248C42.9504 15.773 42.2146 14.9452 42.2146 13.8876C42.2146 13.1978 42.4905 12.6 42.9964 12.1861C43.5022 11.7263 44.238 11.5423 45.0657 11.5423C45.8475 11.5423 46.4913 11.6803 46.9971 11.9562L46.6752 13.0598C46.2154 12.7839 45.6635 12.692 45.0657 12.692C44.6059 12.692 44.192 12.8299 43.9621 13.0598C43.7322 13.2898 43.6402 13.5197 43.6402 13.8416C43.6402 14.1635 43.7781 14.4394 44.0081 14.6693C44.238 14.8533 44.6519 15.0832 45.2497 15.3131C45.9854 15.589 46.5373 15.9569 46.8592 16.3248C47.1811 16.7387 47.365 17.1985 47.365 17.7963C47.319 18.4861 47.0431 19.0839 46.5373 19.5438ZM51.3197 15.0372H49.8022V18.0263C49.8022 18.762 50.0781 19.1759 50.584 19.1759C50.8139 19.1759 51.0438 19.1759 51.1818 19.1299L51.2278 20.1416C50.9519 20.2336 50.63 20.2796 50.1701 20.2796C49.6183 20.2796 49.2044 20.0956 48.9285 19.7737C48.6066 19.4518 48.4686 18.9 48.4686 18.1182V15.0372H47.5949V14.0255H48.4686V12.9219L49.8022 12.508V14.0255H51.3197V15.0372ZM50.584 9.79488C49.7103 9.79488 49.0205 9.19707 49.0205 8.18539C49.0205 7.12773 49.7103 6.52992 50.63 6.52992C51.5497 6.52992 52.1935 7.17371 52.1935 8.13941C52.1935 9.28904 51.3657 9.79488 50.584 9.79488ZM56.93 19.3598C56.3781 19.9577 55.5964 20.2796 54.6767 20.2796C53.757 20.2796 53.0672 20.0036 52.5154 19.4058C51.9635 18.808 51.7336 18.0723 51.7336 17.1525C51.7336 16.1869 52.0095 15.4051 52.5613 14.8073C53.1132 14.2095 53.8489 13.8876 54.7686 13.8876C55.6884 13.8876 56.3781 14.1635 56.93 14.7613C57.4358 15.3591 57.7117 16.0949 57.7117 17.0146C57.7117 17.9803 57.4358 18.762 56.93 19.3598ZM58.3095 6.5759H58.7694V5.97809L59.5511 5.74817V6.5759H60.2869V7.17371H59.5511V8.55328C59.5511 8.92116 59.6431 9.15109 59.965 9.15109C60.103 9.15109 60.1949 9.15108 60.2869 9.1051V9.70291C60.1489 9.7489 59.965 9.79488 59.6891 9.79488C59.4132 9.79488 59.1373 9.70291 58.9993 9.51897C58.8154 9.33503 58.7694 9.05911 58.7694 8.64525V7.17371H58.3095V6.5759ZM61.8044 15.2212C61.6665 15.1752 61.5285 15.1752 61.3905 15.1752C60.9307 15.1752 60.5628 15.3591 60.2869 15.727C60.057 16.0489 59.965 16.4628 59.965 16.9226V20.1416H58.5854V15.9569C58.5854 15.2671 58.5854 14.6233 58.5395 14.0255H59.7351L59.7811 15.1752H59.827C59.965 14.7613 60.1949 14.4394 60.5168 14.2095C60.8387 13.9796 61.1606 13.8876 61.4825 13.8876C61.6205 13.8876 61.7124 13.8876 61.8044 13.8876V15.2212ZM62.0343 7.81751V9.70291H61.2526V5.10437H62.0343V6.98977C62.1263 6.85182 62.2643 6.71386 62.4482 6.62189C62.6322 6.52992 62.8161 6.48393 63 6.48393C63.5519 6.48393 64.1037 6.85182 64.1037 7.86349V9.70291H63.3219V7.90948C63.3219 7.44963 63.138 7.12773 62.7241 7.12773C62.4022 7.12773 62.1723 7.35765 62.0803 7.58758C62.0343 7.67955 62.0343 7.72554 62.0343 7.81751ZM67.6446 17.4285H63.5519C63.5519 18.0263 63.7818 18.4861 64.1497 18.808C64.4716 19.0839 64.9314 19.2219 65.4832 19.2219C66.0811 19.2219 66.6329 19.1299 67.1387 18.946L67.3686 19.9117C66.7708 20.1876 66.127 20.2796 65.2993 20.2796C64.3336 20.2796 63.5978 20.0036 63.046 19.4518C62.4942 18.9 62.2183 18.1642 62.2183 17.1985C62.2183 16.2788 62.4942 15.4971 62.954 14.8993C63.5059 14.2555 64.1957 13.9336 65.1154 13.9336C65.9891 13.9336 66.6789 14.2555 67.1387 14.8993C67.5066 15.4051 67.6905 16.0489 67.6905 16.8306C67.6905 17.0146 67.6446 17.2445 67.6446 17.4285ZM39.5475 7.12773C39.2256 7.12773 38.9037 7.35765 38.8577 7.72554C38.8577 7.77152 38.8117 7.86349 38.8117 7.95546V8.4613C38.8117 8.50729 38.8117 8.59926 38.8117 8.64525C38.9037 8.96714 39.1796 9.19707 39.5015 9.19707C40.0073 9.19707 40.2832 8.7832 40.2832 8.13941C40.3292 7.58758 40.0533 7.12773 39.5475 7.12773ZM45.2497 7.03576C44.7438 7.03576 44.5599 7.49561 44.5139 7.81751H45.8935C45.9395 7.5416 45.8015 7.03576 45.2497 7.03576ZM50.63 7.08174C50.0781 7.08174 49.8482 7.63357 49.8482 8.13941C49.8482 8.73722 50.1701 9.19707 50.63 9.19707C51.0898 9.19707 51.4117 8.73722 51.4117 8.13941C51.3657 7.63357 51.1358 7.08174 50.63 7.08174ZM35.2708 8.7832C35.2708 9.1051 35.4548 9.24306 35.7307 9.24306C36.0526 9.24306 36.2825 9.01313 36.3745 8.82919C36.3745 8.7832 36.3745 8.69123 36.3745 8.64525V8.23138C35.8227 8.18539 35.2708 8.27736 35.2708 8.7832ZM66.265 7.03576C65.7592 7.03576 65.5752 7.49561 65.5292 7.81751H66.9088C66.9088 7.5416 66.7708 7.03576 66.265 7.03576Z" fill="#818181"/>
<path d="M70.5416 26.3496H3.54088C1.5635 26.3496 0 24.7401 0 22.8088V3.54088C0 1.60949 1.60949 0 3.54088 0H70.5416C72.519 0 74.0825 1.60949 74.0825 3.54088V22.8088C74.0825 24.7401 72.519 26.3496 70.5416 26.3496ZM3.54088 0.919708C2.11533 0.919708 0.919708 2.11533 0.919708 3.54088V22.8088C0.919708 24.2803 2.11533 25.4299 3.54088 25.4299H70.5416C72.0131 25.4299 73.1628 24.2343 73.1628 22.8088V3.54088C73.1628 2.06934 71.9672 0.919708 70.5416 0.919708H3.54088Z" fill="#818181"/>
</svg>
