<svg width="78" height="26" viewBox="0 0 78 26" fill="none" xmlns="http://www.w3.org/2000/svg">
<path d="M73.7347 26H3.85689C1.72426 26 0 24.2757 0 22.1431V3.85689C0 1.72426 1.72426 0 3.85689 0H73.7347C75.8674 0 77.5916 1.72426 77.5916 3.85689V22.1431C77.5916 24.2757 75.8674 26 73.7347 26ZM3.85689 0.907504C2.22339 0.907504 0.907504 2.22339 0.907504 3.85689V22.1431C0.907504 23.7766 2.22339 25.0925 3.85689 25.0925H73.7347C75.3682 25.0925 76.6841 23.7766 76.6841 22.1431V3.85689C76.6841 2.22339 75.3682 0.907504 73.7347 0.907504H3.85689Z" fill="#818181"/>
<path d="M25.8183 7.57798H25.3192C25.3192 7.48723 25.2738 7.30573 25.183 6.9881H24.457C24.3663 7.30573 24.3209 7.53261 24.3209 7.57798H23.8218C23.8218 7.53261 23.9579 7.21498 24.1848 6.53435C24.457 5.8991 24.5478 5.5361 24.5478 5.49072H25.1377C25.1377 5.5361 25.2738 5.8991 25.5007 6.53435C25.6822 7.16961 25.8183 7.53261 25.8183 7.57798ZM25.0469 6.67048C24.8654 6.12598 24.7747 5.80835 24.7747 5.76297H24.7293C24.7293 5.80835 24.6385 6.12598 24.457 6.67048H25.0469Z" fill="#818181"/>
<path d="M27.8599 7.57798H27.4516C27.4516 7.53261 27.3154 7.30573 26.9978 6.89735C26.6802 6.4436 26.4987 6.17135 26.4533 5.98985H26.4079C26.4533 6.21673 26.4533 6.4436 26.4533 6.6251C26.4533 6.89735 26.4533 7.21498 26.4533 7.57798H26.0449C26.0449 7.26036 26.0903 6.89735 26.0903 6.48898C26.0903 6.0806 26.0903 5.76297 26.0449 5.49072H26.5441C26.5441 5.5361 26.6802 5.76297 26.9524 6.17135C27.2247 6.57973 27.4062 6.89735 27.4516 7.03348H27.4969C27.4516 6.8066 27.4516 6.57973 27.4516 6.39823C27.4516 6.12598 27.4516 5.80835 27.4516 5.49072H27.8599C27.8599 5.76297 27.8599 6.0806 27.8599 6.48898C27.8599 6.89735 27.8599 7.26036 27.8599 7.57798Z" fill="#818181"/>
<path d="M30.2199 6.44327C30.2199 6.7609 30.1291 7.03315 29.9476 7.26003C29.7661 7.4869 29.4939 7.62303 29.1309 7.62303C28.9947 7.62303 28.7679 7.62303 28.4956 7.62303C28.4956 7.3054 28.4956 6.9424 28.4956 6.53402C28.4956 6.12564 28.4956 5.80802 28.4956 5.53577H28.7679C28.8132 5.53577 28.904 5.53577 28.9947 5.53577C29.0855 5.53577 29.1309 5.53577 29.1762 5.53577C29.5846 5.53577 29.8569 5.62652 30.0384 5.80802C30.1291 5.94414 30.2199 6.17102 30.2199 6.44327ZM29.7661 6.53402C29.7661 6.30715 29.7207 6.17102 29.5846 6.03489C29.4485 5.89877 29.267 5.80802 29.0401 5.80802C28.9947 5.80802 28.9494 5.80802 28.8586 5.80802C28.8586 6.03489 28.8586 6.26177 28.8586 6.48865C28.8586 6.7609 28.8586 6.98777 28.8586 7.26003C28.9494 7.26003 28.9947 7.26003 29.0855 7.26003C29.3124 7.26003 29.4939 7.16928 29.5846 7.03315C29.7207 6.89702 29.7661 6.71552 29.7661 6.53402Z" fill="#818181"/>
<path d="M32.3522 7.57783H31.8531C31.7169 7.21482 31.6262 6.94257 31.5808 6.85182C31.5354 6.76107 31.3993 6.7157 31.2632 6.7157C31.2178 6.7157 31.1271 6.7157 31.0817 6.7157C31.0817 6.98795 31.0817 7.2602 31.0817 7.53245H30.6279C30.6279 7.21482 30.6279 6.85182 30.6279 6.44345C30.6279 6.03507 30.6279 5.71744 30.6279 5.44519H30.9002C30.9456 5.44519 30.9909 5.44519 31.0817 5.44519C31.1724 5.44519 31.2632 5.44519 31.3539 5.44519C31.8531 5.44519 32.0799 5.62669 32.0799 5.94432C32.0799 6.21657 31.9438 6.39807 31.6716 6.48882V6.5342C31.7623 6.57957 31.8531 6.67032 31.9438 6.80645C32.1253 6.94257 32.2161 7.21482 32.3522 7.57783ZM31.7623 6.08044C31.7623 5.85357 31.6262 5.76282 31.3539 5.76282C31.2632 5.76282 31.1724 5.76282 31.0817 5.76282C31.0817 5.94432 31.0817 6.12582 31.0817 6.39807C31.1271 6.39807 31.1724 6.39807 31.2178 6.39807C31.5808 6.44345 31.7623 6.35269 31.7623 6.08044Z" fill="#818181"/>
<path d="M34.6664 6.48891C34.6664 6.80653 34.5757 7.07879 34.3488 7.30566C34.1673 7.53254 33.895 7.62329 33.6228 7.62329C33.3505 7.62329 33.1236 7.53254 32.8968 7.30566C32.7153 7.12416 32.6245 6.85191 32.6245 6.53428C32.6245 6.21666 32.7153 5.94441 32.9421 5.71753C33.1236 5.49065 33.3959 5.3999 33.6681 5.3999C33.9404 5.3999 34.1673 5.49065 34.3942 5.71753C34.5757 5.94441 34.6664 6.17128 34.6664 6.48891ZM34.2127 6.53428C34.2127 6.30741 34.1673 6.12591 34.0312 5.98978C33.895 5.85365 33.7589 5.7629 33.6228 5.7629C33.4866 5.7629 33.3505 5.85365 33.2144 5.98978C33.1236 6.12591 33.0329 6.30741 33.0329 6.53428C33.0329 6.76116 33.0783 6.94266 33.2144 7.07879C33.3505 7.21491 33.4866 7.30566 33.6228 7.30566C33.7589 7.30566 33.895 7.21491 34.0312 7.07879C34.1673 6.94266 34.2127 6.76116 34.2127 6.53428Z" fill="#818181"/>
<path d="M35.5739 7.57798H35.1201C35.1201 7.26036 35.1201 6.89735 35.1201 6.48898C35.1201 6.0806 35.1201 5.76297 35.1201 5.49072H35.5739C35.5739 5.76297 35.5739 6.0806 35.5739 6.48898C35.5739 6.89735 35.5739 7.26036 35.5739 7.57798Z" fill="#818181"/>
<path d="M37.8878 6.44327C37.8878 6.7609 37.7971 7.03315 37.6156 7.26003C37.4341 7.4869 37.1618 7.62303 36.7988 7.62303C36.6173 7.62303 36.4358 7.62303 36.1636 7.62303C36.1636 7.3054 36.1636 6.9424 36.1636 6.53402C36.1636 6.12564 36.1636 5.80802 36.1636 5.53577H36.4358C36.4812 5.53577 36.572 5.53577 36.6627 5.53577C36.7535 5.53577 36.7988 5.53577 36.8442 5.53577C37.2526 5.53577 37.5248 5.62652 37.7063 5.80802C37.8425 5.94414 37.8878 6.17102 37.8878 6.44327ZM37.4795 6.53402C37.4795 6.30715 37.4341 6.17102 37.298 6.03489C37.1618 5.89877 36.9803 5.80802 36.7535 5.80802C36.7081 5.80802 36.6627 5.80802 36.572 5.80802C36.572 6.03489 36.572 6.26177 36.572 6.48865C36.572 6.7609 36.572 6.98777 36.572 7.26003C36.6627 7.26003 36.7081 7.26003 36.7988 7.26003C37.0257 7.26003 37.2072 7.16928 37.298 7.03315C37.4341 6.89702 37.4795 6.71552 37.4795 6.53402Z" fill="#818181"/>
<path d="M41.019 7.57798H40.5198C40.5198 7.48723 40.4745 7.30573 40.3837 6.9881H39.6577C39.567 7.30573 39.5216 7.53261 39.5216 7.57798H39.0225C39.0225 7.53261 39.1586 7.21498 39.3855 6.53435C39.6577 5.8991 39.7485 5.5361 39.7485 5.49072H40.3383C40.3383 5.5361 40.4745 5.8991 40.7013 6.53435C40.8828 7.16961 41.019 7.53261 41.019 7.57798ZM40.2476 6.67048C40.0661 6.12598 39.9753 5.80835 39.9753 5.76297H39.93C39.93 5.80835 39.8392 6.12598 39.6577 6.67048H40.2476Z" fill="#818181"/>
<path d="M42.8792 6.03489C42.8792 6.30715 42.7885 6.48865 42.607 6.62477C42.4255 6.7609 42.1986 6.80627 41.9263 6.80627C41.881 6.80627 41.8356 6.80627 41.8356 6.80627C41.8356 6.98777 41.8356 7.26003 41.8356 7.62303H41.3818C41.3818 7.3054 41.3818 6.9424 41.3818 6.53402C41.3818 6.12564 41.3818 5.80802 41.3818 5.53577H41.6541C41.6995 5.53577 41.7902 5.53577 41.881 5.53577C41.9717 5.53577 42.1078 5.53577 42.1532 5.53577C42.3347 5.53577 42.5162 5.58114 42.6523 5.67189C42.8338 5.71727 42.8792 5.85339 42.8792 6.03489ZM42.4708 6.12564C42.4708 5.89877 42.3347 5.76264 42.0171 5.76264C41.9263 5.76264 41.881 5.76264 41.7902 5.80802C41.7902 5.98952 41.7902 6.26177 41.7902 6.48865C41.8356 6.48865 41.8356 6.48865 41.881 6.48865C42.2893 6.48865 42.4708 6.35252 42.4708 6.12564Z" fill="#818181"/>
<path d="M44.8304 6.03489C44.8304 6.30715 44.7396 6.48865 44.5581 6.62477C44.3766 6.7609 44.1498 6.80627 43.8775 6.80627C43.8321 6.80627 43.7868 6.80627 43.7868 6.80627C43.7868 6.98777 43.7868 7.26003 43.7868 7.62303H43.333C43.333 7.3054 43.333 6.9424 43.333 6.53402C43.333 6.12564 43.333 5.80802 43.333 5.53577H43.6053C43.6506 5.53577 43.7414 5.53577 43.8321 5.53577C43.9229 5.53577 44.059 5.53577 44.1044 5.53577C44.2859 5.53577 44.4674 5.58114 44.6035 5.67189C44.7396 5.71727 44.8304 5.85339 44.8304 6.03489ZM44.3766 6.12564C44.3766 5.89877 44.2405 5.76264 43.9229 5.76264C43.8321 5.76264 43.7868 5.76264 43.696 5.80802C43.696 5.98952 43.696 6.26177 43.696 6.48865C43.7414 6.48865 43.7414 6.48865 43.7868 6.48865C44.1951 6.48865 44.3766 6.35252 44.3766 6.12564Z" fill="#818181"/>
<path d="M47.9613 6.48891C47.9613 6.80653 47.8706 7.07879 47.6437 7.30566C47.4622 7.53254 47.1899 7.62329 46.9177 7.62329C46.6454 7.62329 46.4186 7.53254 46.1917 7.30566C46.0102 7.12416 45.9194 6.85191 45.9194 6.53428C45.9194 6.21666 46.0102 5.94441 46.2371 5.71753C46.4186 5.49065 46.6908 5.3999 46.9631 5.3999C47.2353 5.3999 47.4622 5.49065 47.6891 5.71753C47.8706 5.94441 47.9613 6.17128 47.9613 6.48891ZM47.5076 6.53428C47.5076 6.30741 47.4622 6.12591 47.3261 5.98978C47.1899 5.85365 47.0538 5.7629 46.9177 5.7629C46.7816 5.7629 46.6454 5.85365 46.5093 5.98978C46.4186 6.12591 46.3278 6.30741 46.3278 6.53428C46.3278 6.76116 46.3732 6.94266 46.5093 7.07879C46.6454 7.21491 46.7816 7.30566 46.9177 7.30566C47.0538 7.30566 47.1899 7.21491 47.3261 7.07879C47.4622 6.94266 47.5076 6.76116 47.5076 6.53428Z" fill="#818181"/>
<path d="M50.1393 7.57798H49.7309C49.7309 7.53261 49.5948 7.30573 49.2772 6.89735C48.9595 6.4436 48.778 6.17135 48.7327 5.98985H48.778C48.8234 6.21673 48.8234 6.4436 48.8234 6.6251C48.8234 6.89735 48.8234 7.21498 48.8234 7.57798H48.415C48.415 7.26036 48.4604 6.89735 48.4604 6.48898C48.4604 6.0806 48.4604 5.76297 48.415 5.49072H48.9142C48.9142 5.5361 49.0503 5.76297 49.3225 6.17135C49.5948 6.57973 49.7763 6.89735 49.8217 7.03348H49.867C49.8217 6.8066 49.8217 6.57973 49.8217 6.39823C49.8217 6.12598 49.8217 5.80835 49.8217 5.49072H50.23C50.23 5.76297 50.23 6.0806 50.23 6.48898C50.1393 6.89735 50.1393 7.26036 50.1393 7.57798Z" fill="#818181"/>
<path d="M31.1729 14.2931C31.1729 15.3368 30.8553 16.1535 30.2654 16.7888C29.5848 17.5148 28.6319 17.8778 27.5429 17.8778C26.4539 17.8778 25.5464 17.5148 24.8204 16.7434C24.049 16.0174 23.686 15.0645 23.686 13.9755C23.686 12.8865 24.049 11.9336 24.8204 11.2076C25.5918 10.4816 26.4993 10.0732 27.5429 10.0732C28.0874 10.0732 28.5865 10.164 29.0857 10.3909C29.5848 10.6177 29.9478 10.89 30.2654 11.2076L29.6302 11.8429C29.131 11.253 28.4504 10.9807 27.5883 10.9807C26.8169 10.9807 26.1363 11.253 25.5464 11.7975C24.9565 12.342 24.6843 13.068 24.6843 13.9301C24.6843 14.7923 24.9565 15.5183 25.5464 16.0628C26.1363 16.6073 26.8169 16.8795 27.5883 16.8795C28.405 16.8795 29.131 16.6073 29.6755 16.0628C30.0385 15.6998 30.2654 15.2006 30.3108 14.5654H27.5883V13.6579H31.2183C31.1275 13.9301 31.1729 14.1116 31.1729 14.2931Z" fill="#818181"/>
<path d="M32.3076 13.2497C32.8067 12.7505 33.4419 12.4783 34.1679 12.4783C34.9393 12.4783 35.5746 12.7505 36.0283 13.2497C36.5274 13.7488 36.7543 14.4294 36.7543 15.2008C36.7543 15.9722 36.5274 16.6074 36.0283 17.1519C35.5292 17.651 34.8939 17.9233 34.1679 17.9233C33.3966 17.9233 32.7613 17.651 32.3076 17.1519C31.8084 16.6528 31.5816 15.9722 31.5816 15.2008C31.5362 14.384 31.8084 13.7488 32.3076 13.2497ZM32.9882 16.5167C33.3058 16.8343 33.7142 17.0158 34.1679 17.0158C34.6217 17.0158 35.0301 16.8343 35.3477 16.5167C35.6653 16.199 35.8468 15.7453 35.8468 15.2008C35.8468 14.6563 35.6653 14.2025 35.3477 13.8849C35.0301 13.5673 34.6217 13.3858 34.1679 13.3858C33.7142 13.3858 33.3058 13.5673 32.9882 13.8849C32.6706 14.2025 32.4891 14.6563 32.4891 15.2008C32.5344 15.7453 32.6706 16.1537 32.9882 16.5167Z" fill="#818181"/>
<path d="M37.8432 13.2497C38.3423 12.7505 38.9776 12.4783 39.7036 12.4783C40.475 12.4783 41.1102 12.7505 41.564 13.2497C42.0631 13.7488 42.29 14.4294 42.29 15.2008C42.29 15.9722 42.0631 16.6074 41.564 17.1519C41.0649 17.651 40.4296 17.9233 39.7036 17.9233C38.9322 17.9233 38.2969 17.651 37.8432 17.1519C37.3441 16.6528 37.1172 15.9722 37.1172 15.2008C37.1172 14.384 37.3894 13.7488 37.8432 13.2497ZM38.5692 16.5167C38.8868 16.8343 39.2952 17.0158 39.749 17.0158C40.2027 17.0158 40.6111 16.8343 40.9287 16.5167C41.2464 16.199 41.4278 15.7453 41.4278 15.2008C41.4278 14.6563 41.2464 14.2025 40.9287 13.8849C40.6111 13.5673 40.2027 13.3858 39.749 13.3858C39.2952 13.3858 38.8868 13.5673 38.5692 13.8849C38.2516 14.2025 38.0701 14.6563 38.0701 15.2008C38.0701 15.7453 38.2516 16.1537 38.5692 16.5167Z" fill="#818181"/>
<path d="M45.1938 20.1467C44.6039 20.1467 44.1048 20.0106 43.6964 19.6929C43.3334 19.3753 43.0612 19.0577 42.8797 18.6493L43.7418 18.2863C43.8326 18.5586 44.0141 18.7854 44.2863 18.9669C44.5586 19.1484 44.8308 19.2392 45.1938 19.2392C45.7383 19.2392 46.1467 19.1031 46.4189 18.7854C46.7366 18.4678 46.8727 18.0594 46.8727 17.5149V17.0158H46.8273C46.6458 17.2427 46.4189 17.4695 46.1013 17.651C45.7837 17.8325 45.4661 17.9233 45.0577 17.9233C44.377 17.9233 43.8326 17.651 43.3334 17.1519C42.8343 16.6528 42.6074 15.9722 42.6074 15.2008C42.6074 14.4294 42.8343 13.7942 43.3334 13.2497C43.8326 12.7505 44.377 12.4783 45.0577 12.4783C45.4207 12.4783 45.7837 12.569 46.1013 12.7051C46.4189 12.8866 46.6458 13.0681 46.8273 13.3404H46.8727V12.6144H47.7802V17.4695C47.7802 18.3317 47.5079 19.0123 47.0088 19.4661C46.5551 19.9198 45.9198 20.1467 45.1938 20.1467ZM45.2846 17.0158C45.7383 17.0158 46.1013 16.8343 46.4189 16.5167C46.7366 16.199 46.8727 15.7453 46.8727 15.1554C46.8727 14.6109 46.7366 14.1572 46.4189 13.7942C46.1013 13.4765 45.7383 13.295 45.2846 13.295C44.8308 13.295 44.4678 13.4765 44.1502 13.7942C43.8325 14.1118 43.6511 14.5655 43.6511 15.11C43.6511 15.6545 43.8325 16.1083 44.1502 16.4259C44.4224 16.8343 44.8308 17.0158 45.2846 17.0158Z" fill="#818181"/>
<path d="M49.6858 17.7419H48.7329V10.255H49.6858V17.7419Z" fill="#818181"/>
<path d="M52.8168 17.878C52.0455 17.878 51.4102 17.6058 50.9565 17.1066C50.4573 16.6075 50.2305 15.9269 50.2305 15.1555C50.2305 14.4295 50.4573 13.7942 50.9111 13.2497C51.3648 12.7052 51.9547 12.433 52.7261 12.433C53.4975 12.433 54.0874 12.6599 54.5411 13.159C54.9949 13.6581 55.2217 14.2934 55.2217 15.1555V15.337H51.1833C51.2287 15.8361 51.3648 16.2445 51.6825 16.5621C52.0001 16.8798 52.3631 17.0159 52.7715 17.0159C53.4521 17.0159 53.9059 16.7436 54.1781 16.1538L55.0402 16.5168C54.8587 16.9251 54.5865 17.2428 54.2235 17.515C53.8605 17.7419 53.4067 17.878 52.8168 17.878ZM54.2235 14.5656C54.2235 14.2934 54.0874 13.9757 53.8151 13.7489C53.5882 13.4766 53.2252 13.3405 52.7261 13.3405C52.3631 13.3405 52.0455 13.4312 51.8186 13.6581C51.5917 13.885 51.3648 14.1572 51.2741 14.5656H54.2235Z" fill="#818181"/>
<path d="M58.988 17.7419H58.0352V10.255H60.5762C61.2114 10.255 61.7559 10.4819 62.2097 10.8903C62.6634 11.2986 62.8903 11.8431 62.8903 12.4784C62.8903 13.1136 62.6634 13.6581 62.2097 14.0665C61.7559 14.4749 61.2114 14.7018 60.5762 14.7018H58.988V17.7419ZM58.988 13.7943H60.5762C60.9846 13.7943 61.3022 13.6581 61.5291 13.3859C61.7559 13.1136 61.8921 12.796 61.8921 12.4784C61.8921 12.1608 61.7559 11.8431 61.5291 11.5709C61.3022 11.2986 60.9846 11.1625 60.5762 11.1625H58.988V13.7943Z" fill="#818181"/>
<path d="M64.4783 17.7419H63.5254V10.255H64.4783V17.7419Z" fill="#818181"/>
<path d="M66.9287 17.8779C66.3842 17.8779 65.9305 17.7418 65.5675 17.4242C65.2045 17.1065 65.0229 16.6982 65.0229 16.199C65.0229 15.6545 65.2498 15.2008 65.6582 14.8832C66.0666 14.5655 66.6111 14.4294 67.2463 14.4294C67.7908 14.4294 68.29 14.5202 68.6076 14.747V14.6109C68.6076 14.2479 68.4715 13.9303 68.2446 13.7034C67.9723 13.4765 67.6547 13.3858 67.2917 13.3858C67.0195 13.3858 66.7472 13.4312 66.5203 13.5673C66.2935 13.7034 66.1573 13.8849 66.0666 14.1118L65.2045 13.7488C65.3406 13.4312 65.5675 13.1589 65.8851 12.8866C66.2481 12.6144 66.7018 12.4783 67.2463 12.4783C67.8816 12.4783 68.4261 12.6598 68.8798 13.0681C69.2882 13.4312 69.5151 13.9757 69.5151 14.7017V17.7872H68.6076V17.0612H68.5622C68.2446 17.6057 67.7001 17.8779 66.9287 17.8779ZM67.1102 17.0158C67.5186 17.0158 67.8816 16.8797 68.1992 16.562C68.5168 16.2898 68.6983 15.9268 68.6983 15.5184C68.4261 15.2915 68.0177 15.2008 67.4732 15.2008C67.0195 15.2008 66.6565 15.2915 66.4296 15.5184C66.2027 15.6999 66.0666 15.9722 66.0666 16.2444C66.0666 16.4713 66.1573 16.6982 66.3842 16.8343C66.5657 16.925 66.838 17.0158 67.1102 17.0158Z" fill="#818181"/>
<path d="M71.6475 19.9652H70.6492L71.8289 17.3788L69.7417 12.6144H70.7853L72.2827 16.2898L73.7801 12.6144H74.8237L71.6475 19.9652Z" fill="#818181"/>
<path d="M5.7627 13.885C5.7627 11.5255 5.7627 9.12058 5.7627 6.76107C5.7627 6.48882 5.80807 6.21657 6.03495 5.98969C6.1257 5.89894 6.17107 5.89894 6.26183 5.98969C7.84996 7.6232 9.48346 9.25671 11.0716 10.8902C12.1152 11.9338 13.1589 13.0229 14.2025 14.0665C14.2932 14.1572 14.2932 14.2026 14.2025 14.3387C11.6615 16.8797 9.12046 19.4208 6.57945 21.9618C6.44332 22.0979 6.3072 22.0979 6.17108 22.0071C5.89883 21.7803 5.80807 21.508 5.80807 21.1904C5.80807 19.7838 5.80807 18.3771 5.80807 16.9705C5.7627 15.8815 5.7627 14.8832 5.7627 13.885Z" fill="#818181"/>
<path d="M6.71533 5.67212C6.89683 5.67212 7.03296 5.71749 7.16908 5.80824C10.4361 7.62325 13.7031 9.43826 16.9248 11.2986C17.0609 11.3894 17.0609 11.4348 16.9701 11.5255C16.2441 12.2515 15.5181 12.9775 14.7921 13.7035C14.7014 13.7943 14.656 13.8397 14.5652 13.7035C11.9789 11.0718 9.39247 8.44001 6.7607 5.76287C6.7607 5.76287 6.76071 5.71749 6.71533 5.67212Z" fill="#818181"/>
<path d="M7.44141 21.8258C9.80092 19.4209 12.1604 17.0614 14.52 14.6565C14.6561 14.5204 14.7468 14.5204 14.883 14.6565C15.4728 15.2918 16.1081 15.8817 16.698 16.5169C16.7887 16.6077 16.8341 16.653 16.6526 16.7438C13.6124 18.4227 10.5723 20.0562 7.53216 21.7351C7.48679 21.7804 7.44141 21.8258 7.44141 21.8258Z" fill="#818181"/>
<path d="M20.9181 13.9305C20.9181 14.2027 20.782 14.3842 20.6005 14.5203C20.4643 14.6111 20.2828 14.7018 20.1467 14.7926C19.2392 15.2917 18.2863 15.7909 17.3788 16.3354C17.2427 16.4261 17.1973 16.3807 17.0612 16.29C16.4259 15.6094 15.7453 14.9287 15.1101 14.2935C15.0193 14.2027 15.0193 14.1573 15.1101 14.0666C15.8814 13.2952 16.6528 12.5238 17.4242 11.7978C17.5149 11.7071 17.5603 11.7071 17.6964 11.7525C18.6039 12.2516 19.5115 12.7507 20.419 13.2952C20.6912 13.386 20.9181 13.6128 20.9181 13.9305Z" fill="#818181"/>
</svg>
