<svg width="29" height="32" viewBox="0 0 29 32" fill="none" xmlns="http://www.w3.org/2000/svg">
<path d="M17.7532 25.5442C17.9758 25.5442 18.1984 25.4329 18.3097 25.2103C18.4766 24.8764 18.3653 24.4868 18.0871 24.3199L13.6906 21.8712C13.3566 21.7042 12.9671 21.8155 12.8001 22.0938C12.6332 22.4277 12.7445 22.8173 13.0227 22.9842L17.4193 25.4329C17.5306 25.5442 17.6419 25.5442 17.7532 25.5442Z" fill="#636363"/>
<path d="M18.9216 27.1582L14.525 24.7095C14.1911 24.5426 13.8016 24.6539 13.6346 24.9322C13.4676 25.2661 13.5789 25.6556 13.8572 25.8226L18.2537 28.2713C18.365 28.3269 18.4763 28.3269 18.5876 28.3269C18.8102 28.3269 19.0329 28.2156 19.1442 27.993C19.3668 27.7148 19.2555 27.3252 18.9216 27.1582Z" fill="#636363"/>
<path d="M28.2713 19.5339H20.5913V0.667826C20.5913 0.278261 20.313 0 19.9235 0H0.667826C0.278261 0 0 0.278261 0 0.667826V27.6035C0 27.9374 0.278261 28.2713 0.667826 28.2713H1.11304V29.44C1.11304 29.7739 1.3913 30.0522 1.78087 30.0522H3.67304C4.00696 30.0522 4.34087 29.7739 4.34087 29.3843V28.2157H9.46087V31.3322C9.46087 31.6661 9.73913 32 10.1287 32H28.2713C28.6052 32 28.9391 31.7217 28.9391 31.3322V20.1461C28.9391 19.8122 28.6052 19.5339 28.2713 19.5339ZM27.6035 21.927H24.0974V20.8139H27.6035V21.927ZM1.28 3.17217H19.2557V10.0174H1.28V3.17217ZM19.3113 1.28V1.83652H1.28V1.28H19.3113ZM3.00522 28.7722H2.4487V28.2713H3.00522V28.7722ZM1.28 26.9357V11.353H19.2557V19.5339H10.1287C9.79478 19.5339 9.46087 19.8122 9.46087 20.2017V26.9913H1.28V26.9357ZM10.7409 20.8139H22.8174V30.72H10.7409V20.8139ZM24.153 30.72V23.207H27.6591V30.72H24.153Z" fill="#636363"/>
<path d="M26.7129 27.1025H25.0433C24.7094 27.1025 24.3755 27.3808 24.3755 27.7704C24.3755 28.1043 24.6537 28.4382 25.0433 28.4382H26.7129C27.0468 28.4382 27.3807 28.1599 27.3807 27.7704C27.3251 27.3808 27.0468 27.1025 26.7129 27.1025Z" fill="#636363"/>
<path d="M26.7129 28.7722H25.0433C24.7094 28.7722 24.3755 29.0505 24.3755 29.44C24.3755 29.774 24.6537 30.1079 25.0433 30.1079H26.7129C27.0468 30.1079 27.3807 29.8296 27.3807 29.44C27.3251 29.0505 27.0468 28.7722 26.7129 28.7722Z" fill="#636363"/>
<path d="M2.55992 12.4104C2.226 12.4104 1.89209 12.6887 1.89209 13.0782V19.2C1.89209 19.5339 2.17035 19.8678 2.55992 19.8678C2.94948 19.8678 3.22774 19.5895 3.22774 19.2V13.0782C3.22774 12.6887 2.94948 12.4104 2.55992 12.4104Z" fill="#636363"/>
<path d="M2.55993 4.06274C2.22601 4.06274 1.94775 4.39666 1.94775 4.73057V8.45927C1.94775 8.79318 2.22601 9.12709 2.61558 9.12709C3.00515 9.12709 3.28341 8.84883 3.28341 8.45927V4.73057C3.22775 4.39666 2.94949 4.06274 2.55993 4.06274Z" fill="#636363"/>
</svg>
