<svg width="32" height="32" viewBox="0 0 32 32" fill="none" xmlns="http://www.w3.org/2000/svg">
<path d="M30.835 10.0736C27.6072 1.89276 18.2576 -2.1142 10.0767 1.16928C1.89585 4.39711 -2.11111 13.7467 1.11672 21.9275C2.67498 25.8788 5.73585 28.9954 9.68715 30.7206C11.6906 31.611 13.8611 32.0006 15.9758 32.0006C17.9793 32.0006 19.9828 31.611 21.9306 30.8319C30.1115 27.6041 34.1185 18.2545 30.835 10.0736ZM22.1532 29.1623L21.875 28.3832C21.708 27.9936 21.3185 27.8267 20.9289 27.9936C20.5393 28.1606 20.3724 28.5501 20.5393 28.9397L20.8732 29.7188C17.5898 30.8875 14.1393 30.7762 11.0785 29.6632L11.4124 28.8284C11.5793 28.4388 11.4124 28.0493 11.0228 27.8823C10.6332 27.7154 10.2437 27.8823 10.0767 28.2719L9.74281 29.1067C6.73759 27.6597 4.23324 25.211 2.78628 22.0388L3.67672 21.7049C4.06628 21.538 4.23324 21.1484 4.06628 20.7588C3.89933 20.3693 3.50976 20.2023 3.1202 20.3693L2.22976 20.7032C1.11672 17.3641 1.22802 13.9136 2.39672 10.8528L3.2315 11.1867C3.34281 11.2423 3.39846 11.2423 3.50976 11.2423C3.78802 11.2423 4.06628 11.0754 4.17759 10.7971C4.34455 10.4075 4.17759 10.018 3.78802 9.85102L2.95324 9.51711C4.4002 6.56754 6.84889 4.11885 10.0211 2.72754L10.355 3.50667C10.4663 3.78493 10.7445 3.95189 11.0228 3.95189C11.1341 3.95189 11.1898 3.95189 11.3011 3.89624C11.6906 3.72928 11.8576 3.33972 11.6906 2.95015L11.4124 2.22667C12.915 1.7258 14.4732 1.44754 15.9758 1.44754C17.7567 1.44754 19.4819 1.83711 21.1515 2.44928L20.8732 3.11711C20.7063 3.50667 20.8732 3.89624 21.2628 4.06319C21.3741 4.11885 21.4298 4.11885 21.5411 4.11885C21.8193 4.11885 22.0976 3.95189 22.2089 3.67363L22.4872 3.0058C25.3811 4.45276 27.7741 6.8458 29.2211 9.96232L28.6089 10.2406C28.2193 10.4075 28.0524 10.7971 28.2193 11.1867C28.3306 11.4649 28.6089 11.6319 28.8872 11.6319C28.9985 11.6319 29.0541 11.6319 29.1654 11.5762L29.8332 11.298C30.9463 14.5815 30.835 17.9762 29.7219 20.9815L29.0541 20.7032C28.6645 20.5362 28.275 20.7032 28.108 21.0928C27.9411 21.4823 28.108 21.8719 28.4976 22.0388L29.1654 22.3171C27.6628 25.211 25.2698 27.7154 22.1532 29.1623Z" fill="#636363"/>
<path d="M27.7186 11.2973C26.4942 8.18075 24.0455 5.67641 20.9847 4.39641C17.8681 3.06076 14.4734 3.0051 11.3012 4.2851C8.18466 5.50945 5.68031 7.95815 4.40031 11.019C3.06466 14.1355 3.00901 17.5303 4.28901 20.7025C5.51336 23.819 7.96205 26.2677 11.0229 27.6034C12.6368 28.2712 14.3064 28.6608 15.976 28.6608C17.5342 28.6608 19.1481 28.3825 20.6507 27.7703C23.7673 26.546 26.2716 24.0973 27.5516 21.0364C28.9429 17.8642 28.9986 14.4695 27.7186 11.2973ZM27.1621 15.4155L20.2612 15.3599C20.2055 15.026 20.1499 14.7477 20.0386 14.4138C19.9273 14.0799 19.7603 13.8016 19.5377 13.5234L24.4351 8.68162C25.2142 9.62771 25.8821 10.6851 26.3273 11.8538C26.8281 13.0225 27.1064 14.1912 27.1621 15.4155ZM14.8629 18.6434C14.1394 18.3651 13.5829 17.7529 13.3047 17.0295C13.0264 16.306 13.0264 15.5268 13.3603 14.8034C13.6942 14.0799 14.2507 13.5234 14.9742 13.2451C15.3081 13.0781 15.6977 13.0225 16.0316 13.0225C16.4212 13.0225 16.8107 13.0781 17.2003 13.2451C17.9238 13.5234 18.4803 14.1355 18.7586 14.859C19.0368 15.5825 19.0368 16.3616 18.7029 17.0851C18.369 17.8086 17.8125 18.3651 17.089 18.6434C16.3655 18.9773 15.5864 18.9773 14.8629 18.6434ZM23.489 7.67989L18.5916 12.5216C18.3134 12.3547 18.0351 12.1877 17.7568 12.0208C17.4229 11.9095 17.1447 11.7981 16.8107 11.7425L16.8664 4.84162C18.0907 4.95293 19.3151 5.23119 20.4281 5.73206C21.5412 6.17728 22.5986 6.8451 23.489 7.67989ZM11.8577 5.62076C13.0264 5.17554 14.1951 4.89728 15.4194 4.84162L15.3081 11.6868C14.9742 11.7425 14.696 11.7981 14.3621 11.9095C14.0281 12.0208 13.7499 12.1877 13.4716 12.4103L8.62988 7.51293C9.63162 6.7338 10.689 6.06597 11.8577 5.62076ZM7.68379 8.51467L12.5255 13.4121C12.3586 13.6903 12.1916 13.9686 12.0247 14.2468C11.9134 14.5808 11.8021 14.859 11.7464 15.1929L4.84553 15.1373C4.95684 13.9129 5.2351 12.6886 5.73597 11.5755C6.18118 10.4625 6.84901 9.4051 7.68379 8.51467ZM4.84553 16.5842L11.6907 16.6955C11.7464 17.0295 11.8021 17.3077 11.9134 17.6416C12.0247 17.9755 12.1916 18.2538 12.4142 18.5321L7.51684 23.3738C6.73771 22.4277 6.06988 21.3703 5.62466 20.2016C5.12379 18.9773 4.90118 17.8086 4.84553 16.5842ZM8.51857 24.3199L13.416 19.4781C13.6942 19.6451 13.9725 19.8121 14.2507 19.979C14.5847 20.0903 14.8629 20.2016 15.1968 20.2573L15.1412 27.1581C13.9168 27.0468 12.6925 26.7686 11.5794 26.2677C10.4664 25.7668 9.40901 25.099 8.51857 24.3199ZM20.1499 26.379C18.9812 26.8242 17.8125 27.1025 16.5881 27.1581L16.6994 20.2573C17.0334 20.2016 17.3116 20.146 17.6455 20.0347C17.9794 19.9234 18.2577 19.7564 18.536 19.5338L23.3777 24.4312C22.376 25.266 21.3186 25.9338 20.1499 26.379ZM24.3238 23.4851L19.4821 18.5877C19.649 18.3095 19.816 18.0312 19.9829 17.7529C20.0942 17.419 20.2055 17.1408 20.2612 16.8068L27.1621 16.8625C27.0507 18.0868 26.7725 19.3112 26.2716 20.4242C25.7708 21.5373 25.1029 22.5947 24.3238 23.4851Z" fill="#636363"/>
</svg>
