<svg width="32" height="32" viewBox="0 0 32 32" fill="none" xmlns="http://www.w3.org/2000/svg">
<path d="M6.42257 21.4634H4.71741C4.31955 21.4634 3.97852 21.7421 3.97852 22.1324C3.97852 22.5226 4.31955 22.8571 4.71741 22.8571H6.42257C6.82043 22.8571 7.16146 22.5226 7.16146 22.1324C7.16146 21.7421 6.82043 21.4634 6.42257 21.4634Z" fill="#636363"/>
<path d="M27.4528 21.4077H25.7477C25.3498 21.4077 25.0088 21.7422 25.0088 22.1325C25.0088 22.5227 25.3498 22.8572 25.7477 22.8572H27.4528C27.8507 22.8572 28.1917 22.5227 28.1917 22.1325C28.1349 21.7422 27.8507 21.4077 27.4528 21.4077Z" fill="#636363"/>
<path d="M31.2611 8.19512H29.4423V0.724739C29.4423 0.334495 29.1012 0 28.7034 0H3.23979C2.84192 0 2.50089 0.334495 2.50089 0.724739V8.19512H0.738899C0.34103 8.19512 0 8.52962 0 8.91986V14.2718C0 14.662 0.34103 14.9965 0.738899 14.9965H2.50089V20.1812C1.36412 21.2962 0.738899 22.9686 0.738899 24.9756V27.1498C0.738899 27.5401 1.07993 27.8746 1.4778 27.8746H1.59147C1.59147 30.1603 3.18295 32 5.05861 32C6.93428 32 8.52575 30.1603 8.52575 27.8746H23.7584C23.7584 30.1603 25.3499 32 27.2256 32C29.1581 32 30.6927 30.1603 30.6927 27.8746V27.8188C30.9769 27.7073 31.2043 27.4843 31.2043 27.1498V24.9756C31.2043 24.9756 31.2043 24.9756 31.2043 24.9199C31.2043 23.3031 30.579 21.7422 29.4423 20.5714V14.9408H31.2611C31.659 14.9408 32 14.6063 32 14.216V8.86411C32 8.47387 31.659 8.19512 31.2611 8.19512ZM3.92185 1.39373H28.0213V19.2892C27.5666 18.9547 27.1119 18.7317 26.4298 18.676V16.892V13.7143C26.4298 11.1498 24.3268 9.08711 21.7123 9.08711H10.4014C7.78686 9.08711 5.68384 11.1498 5.68384 13.7143V18.7317C5.05861 18.7875 4.49023 19.0105 3.92185 19.2334V14.3275V8.97561V1.39373ZM2.15986 26.4808V25.7003H29.8401V26.4808H2.15986ZM15.2895 17.5052V24.2509H13.0728V17.5052H15.2895ZM16.7105 24.2509V17.5052H18.9272V24.2509H16.7105ZM7.1048 16.1115V13.6028C7.1048 11.8188 8.58259 10.3693 10.4014 10.3693H21.7123C23.5311 10.3693 25.0089 11.8188 25.0089 13.6028V16.1115H7.1048ZM1.42096 13.547V9.58885H2.50089V13.547H1.42096ZM6.42274 20.0139C6.8206 20.0139 7.16163 19.6794 7.16163 19.2892V17.5052H11.6519V24.2509H2.2167C2.38721 22.1882 3.58082 20.0139 6.42274 20.0139ZM7.1048 27.8746C7.1048 29.3798 6.19538 30.6063 5.05861 30.6063C3.92185 30.6063 2.9556 29.3798 2.9556 27.8746H7.1048ZM27.2824 30.6063C26.1456 30.6063 25.2362 29.3798 25.2362 27.8746H29.3286C29.3286 29.3798 28.4192 30.6063 27.2824 30.6063ZM20.3481 24.2509V17.5052H25.0089V19.2892C25.0089 19.6794 25.3499 20.0139 25.7478 20.0139C26.8845 20.0139 27.2256 20.3484 28.0213 21.1847L28.3055 21.5192C29.1012 22.2997 29.6128 23.2474 29.7265 24.3066H20.3481V24.2509ZM30.579 13.547H29.4991V9.58885H30.579V13.547Z" fill="#636363"/>
</svg>
