<svg width="32" height="25" viewBox="0 0 32 25" fill="none" xmlns="http://www.w3.org/2000/svg">
<path d="M30.1176 6.98562H25.2235V4.51765C25.2235 4.22484 24.9725 3.93203 24.6379 3.93203H21.0824L18.698 0.25098C18.6144 0.0836601 18.4471 0 18.2379 0H6.94379C6.73464 0 6.56732 0.12549 6.44183 0.29281L4.3085 3.97386H0.585621C0.25098 3.93203 0 4.18301 0 4.51765V17.8196C0 18.1542 0.25098 18.4052 0.585621 18.4052H9.11895C10.081 19.1582 11.2941 19.6183 12.6327 19.6183C13.9712 19.6183 15.1843 19.1582 16.1464 18.4052H22.4627V22.2118C22.4627 23.2157 23.2993 24.0523 24.3033 24.0523H30.1595C31.1634 24.0523 32 23.2157 32 22.2118V8.82614C31.9582 7.78039 31.1634 6.98562 30.1176 6.98562ZM7.27843 1.12941H17.9033L19.702 3.93203H5.68889L7.27843 1.12941ZM4.68497 5.06144C4.68497 5.06144 4.68497 5.10327 4.68497 5.06144H20.8314H24.0941V6.98562C23.1739 7.06928 22.4209 7.86405 22.4209 8.82614V12.7582H18.2797C17.7359 10.1229 15.4353 8.11503 12.6327 8.11503C9.83007 8.11503 7.48758 10.1229 6.98562 12.7582H5.52157C5.52157 12.7582 5.52157 12.7582 5.47974 12.7582H1.12941V5.06144H4.68497ZM1.12941 13.8458H5.47974C5.47974 13.8458 5.47974 13.8458 5.52157 13.8458H6.8183C6.8183 15.1425 7.2366 16.3137 7.94771 17.234H1.12941V13.8458ZM7.98954 13.8458C7.98954 11.2941 10.0392 9.20261 12.5908 9.20261C15.1425 9.20261 17.234 11.2941 17.234 13.8458C17.234 16.3974 15.1425 18.4889 12.5908 18.4889C10.0392 18.4889 7.98954 16.3974 7.98954 13.8458ZM17.234 17.2758C17.9451 16.3137 18.3634 15.1425 18.3634 13.8876H22.4209V17.2758H17.234ZM30.8288 22.2118C30.8288 22.5882 30.4941 22.9229 30.1176 22.9229H24.2614C23.885 22.9229 23.5503 22.5882 23.5503 22.2118V17.8614V8.82614C23.5503 8.44967 23.885 8.11503 24.2614 8.11503H24.6379H25.349C25.2654 8.19869 25.2235 8.32418 25.2235 8.44967C25.2235 8.74248 25.4745 9.03529 25.8092 9.03529H28.5699C28.8627 9.03529 29.1556 8.78431 29.1556 8.44967C29.1556 8.32418 29.1137 8.19869 29.0301 8.11503H30.1176C30.4941 8.11503 30.8288 8.44967 30.8288 8.82614V22.2118Z" fill="#636363"/>
<path d="M14.5569 1.96606H10.6667C10.3739 1.96606 10.0811 2.21704 10.0811 2.55169C10.0811 2.88633 10.332 3.13731 10.6667 3.13731H14.5569C14.8497 3.13731 15.1425 2.88633 15.1425 2.55169C15.1425 2.21704 14.8497 1.96606 14.5569 1.96606Z" fill="#636363"/>
<path d="M3.05339 7.65488H6.94359C7.2364 7.65488 7.52921 7.4039 7.52921 7.06926C7.52921 6.73462 7.27823 6.48364 6.94359 6.48364H3.05339C2.76058 6.48364 2.46777 6.73462 2.46777 7.06926C2.46777 7.4039 2.71875 7.65488 3.05339 7.65488Z" fill="#636363"/>
</svg>
