<svg width="29" height="33" viewBox="0 0 29 33" fill="none" xmlns="http://www.w3.org/2000/svg">
<path d="M13.2816 18.699C11.9858 17.7529 10.4083 17.3633 8.83087 17.586C7.2534 17.8086 5.84495 18.6433 4.8872 19.9233C2.91537 22.539 3.47875 26.2677 6.12664 28.2155C7.19706 28.9946 8.4365 29.3842 9.67594 29.3842C11.4788 29.3842 13.2816 28.5494 14.4647 26.9912C16.4365 24.3199 15.8731 20.6468 13.2816 18.699ZM13.2816 26.0451C11.8168 27.9929 8.99988 28.3825 7.02805 26.9355C5.05622 25.4886 4.66185 22.706 6.12664 20.7581C6.85904 19.812 7.87312 19.1999 9.05622 19.0329C9.28157 18.9773 9.50692 18.9773 9.73227 18.9773C10.69 18.9773 11.5914 19.2555 12.3802 19.8677C14.352 21.3146 14.7464 24.0973 13.2816 26.0451Z" fill="#636363"/>
<path d="M26.352 1.27995C23.4788 -0.834831 19.3661 -0.222657 17.2252 2.6156C15.9858 4.28517 15.6478 6.3443 16.2112 8.29213C14.4083 7.90256 12.5492 8.06952 10.8027 8.73734L8.60552 7.12343C8.26749 6.90082 7.81679 6.95647 7.5351 7.29039L5.1689 10.4069C5.05622 10.5739 4.99988 10.7408 4.99988 10.9634C5.05622 11.186 5.11256 11.353 5.28157 11.4643L9.90129 14.8591C7.14073 14.7478 4.32383 15.9721 2.57735 18.3095C-0.126876 22.0939 0.661857 27.4921 4.49284 30.3304C6.01397 31.4434 7.81679 32.0556 9.67594 32.0556C10.1266 32.0556 10.521 32 10.9717 31.9443C13.2816 31.6104 15.3097 30.386 16.6619 28.5495C18.0703 26.713 18.6337 24.4313 18.2957 22.2052C18.2393 21.6486 18.0703 21.1478 17.9013 20.6469L22.521 24.0417C22.6337 24.153 22.8027 24.2086 22.9717 24.2086C23.1971 24.2086 23.4224 24.0973 23.5914 23.9304L25.9576 20.8139C26.0703 20.6469 26.1266 20.48 26.1266 20.2573C26.0703 20.0347 26.014 19.8678 25.845 19.7565L23.6478 18.1426C23.8168 16.306 23.4224 14.5252 22.521 12.9113C24.5492 12.9113 26.4647 11.9652 27.7041 10.2956C29.845 7.45734 29.2816 3.39473 26.352 1.27995ZM16.7745 22.3721C17.0562 24.2643 16.5492 26.1008 15.4224 27.6591C13.0562 30.7756 8.54918 31.4434 5.39425 29.106C2.23932 26.7686 1.56327 22.3165 3.92946 19.2C5.33791 17.3078 7.47876 16.3617 9.67594 16.3617C11.1407 16.3617 12.6619 16.8069 13.9576 17.753H14.014C15.5351 18.866 16.4928 20.5356 16.7745 22.3721ZM22.859 22.3721L14.859 16.5286L6.91538 10.6852L8.38017 8.73734L24.3238 20.4243L22.859 22.3721ZM26.521 9.40517C25.2816 11.0191 23.1971 11.7426 21.1689 11.2417H21.1126C21.0562 11.2417 20.9999 11.2417 20.9435 11.2417C20.8872 11.2417 20.8872 11.2417 20.8309 11.2417C20.7745 11.2417 20.7182 11.2973 20.6619 11.2973C20.6055 11.2973 20.6055 11.353 20.5492 11.353C20.5492 11.353 20.4928 11.353 20.4928 11.4086L20.4365 11.4643C20.3802 11.52 20.3802 11.52 20.3238 11.5756C20.2675 11.6313 20.2675 11.6869 20.2675 11.7426C20.2675 11.7426 20.2675 11.7982 20.2112 11.7982V11.8539C20.2112 11.9095 20.2112 11.9652 20.2112 12.0208C20.2112 12.0765 20.2112 12.1321 20.2112 12.1321C20.2112 12.1878 20.2112 12.2434 20.2675 12.2434C20.2675 12.2991 20.3238 12.3547 20.3238 12.3547C20.3238 12.3547 20.3238 12.4104 20.3802 12.4104C21.4506 13.6904 22.0703 15.3043 22.1266 16.9739L12.3238 9.79473C13.9576 9.40517 15.7041 9.46082 17.2816 10.1286H17.3379C17.3943 10.1286 17.4506 10.1286 17.5069 10.1843C17.5633 10.1843 17.6196 10.1843 17.6196 10.1843C17.6759 10.1843 17.7323 10.1843 17.7323 10.1843C17.7886 10.1843 17.845 10.1286 17.9013 10.1286H17.9576L18.014 10.073C18.0703 10.0173 18.0703 10.0173 18.1266 9.96169C18.183 9.90604 18.183 9.90604 18.2393 9.85039L18.2957 9.79473V9.73908C18.2957 9.68343 18.2957 9.62778 18.352 9.57213C18.352 9.51647 18.352 9.46082 18.352 9.40517C18.352 9.34952 18.352 9.29387 18.352 9.29387C18.352 9.23821 18.2957 9.18256 18.2957 9.12691V9.07126C17.1689 7.34604 17.2816 5.11995 18.521 3.50604C20.1548 1.3356 23.3097 0.834734 25.5633 2.5043C26.6337 3.28343 27.3661 4.45213 27.5351 5.78778C27.6478 7.01213 27.3097 8.34778 26.521 9.40517Z" fill="#636363"/>
<path d="M21.7326 2.2817C20.6058 2.44866 19.5354 3.06083 18.8593 4.00692C18.634 4.34083 18.6903 4.78605 19.0283 5.06431C19.141 5.17562 19.31 5.23127 19.479 5.23127C19.7044 5.23127 19.9298 5.11996 20.0988 4.95301C20.5495 4.34083 21.2255 3.95127 21.9579 3.83996C22.6903 3.72866 23.4791 3.89562 24.0988 4.39649C24.4368 4.61909 24.8875 4.56344 25.1692 4.22953C25.3945 3.89562 25.3382 3.4504 25.0002 3.17214C24.0424 2.39301 22.9157 2.11475 21.7326 2.2817Z" fill="#636363"/>
</svg>
