<svg width="32" height="25" viewBox="0 0 32 25" fill="#636363" xmlns="http://www.w3.org/2000/svg">
<path d="M29.0556 10.3872L27 4.64692C25.9444 1.8041 23.6667 0 21.1111 0H11.0556C8.55556 0 6.27778 1.74943 5.22222 4.48292L2.94444 10.3872C1.22222 10.9339 0 12.5194 0 14.3235V18.9157C0 19.3531 0.333333 19.6811 0.722222 19.6811H0.888889V19.7358C0.888889 22.0866 2.5 24.0547 4.5 24.0547C6.5 24.0547 8.11111 22.1412 8.11111 19.7358V19.6811H24.1667V19.7358C24.1667 22.0866 25.7778 24.0547 27.7778 24.0547C29.7778 24.0547 31.3889 22.1412 31.3889 19.7358V19.6264C31.6667 19.5171 31.8889 19.2984 31.8889 18.9704V14.3781C32 12.5194 30.7778 10.9339 29.0556 10.3872ZM6.61111 4.97494C7.44444 2.84282 9.22222 1.42141 11.0556 1.42141H21.1111C23.0556 1.42141 24.8333 2.89749 25.6111 5.13895L27.3889 10.0592C19.9444 8.4738 12.1111 8.4738 4.66667 10.0592L6.61111 4.97494ZM1.44444 14.3235C1.44444 13.0661 2.27778 12.0273 3.5 11.6993C3.61111 11.6993 3.66667 11.6446 3.77778 11.6446L4.11111 11.59C12 9.78588 20.3333 9.78588 28.2222 11.6446L28.4444 11.6993C29.7222 11.9727 30.6111 13.0661 30.6111 14.3781V18.2597H1.44444V14.3235ZM6.66667 19.7358C6.66667 21.3212 5.66667 22.6333 4.5 22.6333C3.33333 22.6333 2.27778 21.3212 2.27778 19.7358V19.6811L6.66667 19.7358ZM27.8333 22.5786C26.6111 22.5786 25.6667 21.2665 25.6667 19.6811H30V19.7358C30 21.3212 29.0556 22.5786 27.8333 22.5786Z" />
<path d="M7.05538 7.32565C7.1665 7.38032 7.22205 7.38032 7.33316 7.38032C7.61094 7.38032 7.88872 7.21631 7.99983 6.94296C8.83316 4.81084 10.5554 3.38943 12.4443 3.38943C12.8332 3.38943 13.1665 3.06141 13.1665 2.67872C13.1665 2.29604 12.8332 1.96802 12.4443 1.96802C9.94427 1.96802 7.6665 3.71745 6.61094 6.45093C6.49983 6.77895 6.6665 7.16164 7.05538 7.32565Z" />
<path d="M2.55572 15.417H5.44461C5.8335 15.417 6.16683 15.089 6.16683 14.7063C6.16683 14.3236 5.8335 13.9956 5.44461 13.9956H2.55572C2.16683 13.9956 1.8335 14.3236 1.8335 14.7063C1.8335 15.089 2.11127 15.417 2.55572 15.417Z" />
<path d="M26.6666 15.417H29.5554C29.9443 15.417 30.2777 15.089 30.2777 14.7063C30.2777 14.3236 29.9443 13.9956 29.5554 13.9956H26.6666C26.2777 13.9956 25.9443 14.3236 25.9443 14.7063C25.9443 15.089 26.2777 15.417 26.6666 15.417Z" />
<path d="M8.11089 15.417H24.222C24.6109 15.417 24.9442 15.089 24.9442 14.7063C24.9442 14.3236 24.6109 13.9956 24.222 13.9956H8.11089C7.72201 13.9956 7.38867 14.3236 7.38867 14.7063C7.38867 15.089 7.72201 15.417 8.11089 15.417Z" />
<path d="M23.0002 16.1821H9.33355C8.94466 16.1821 8.61133 16.5101 8.61133 16.8928C8.61133 17.2755 8.94466 17.6035 9.33355 17.6035H23.0002C23.3891 17.6035 23.7224 17.2755 23.7224 16.8928C23.7224 16.5101 23.3891 16.1821 23.0002 16.1821Z" />
</svg>
