<svg width="39" height="32" viewBox="0 0 39 32" fill="none" xmlns="http://www.w3.org/2000/svg">
<path d="M38.0043 20.885H29.3593V15.2714L35.3098 9.09637C35.4782 8.92796 35.5343 8.70341 35.5343 8.47887C35.5343 8.25432 35.422 8.02977 35.2536 7.9175L27.9559 2.41614C27.8998 2.36 27.8436 2.36 27.7875 2.30387L22.4545 0.0584109C22.1739 -0.0538618 21.8932 0.00227455 21.6686 0.170684C21.4441 0.339093 21.3318 0.619775 21.388 0.900456C21.388 0.900456 21.6125 2.52841 20.6582 3.595C20.0407 4.26864 19.0864 4.60546 17.7391 4.60546C16.3918 4.60546 15.4375 4.26864 14.82 3.595C13.8657 2.52841 14.0902 0.900456 14.0902 0.900456C14.1464 0.619775 14.0341 0.339093 13.8095 0.170684C13.585 0.00227455 13.3043 -0.0538618 13.0236 0.0584109L7.74682 2.24773C7.69068 2.24773 7.63455 2.30387 7.57841 2.36L0.336818 7.86137C0.112273 8.02977 0 8.19818 0 8.42273C0 8.64727 0.0561364 8.87182 0.224545 9.04023L6.175 15.2152V31.2141C6.175 31.6632 6.51182 32 6.96091 32H22.6791H28.5734H38.0043C38.4534 32 38.7902 31.6632 38.7902 31.2141V28.0143V24.8145V21.6148C38.7902 21.2218 38.4534 20.885 38.0043 20.885ZM23.465 25.6005H37.2184V27.2284H23.465V25.6005ZM37.2184 24.0286H23.465V22.4007H37.2184V24.0286ZM6.96091 9.71386C6.51182 9.71386 6.175 10.0507 6.175 10.4998V12.9698L1.96477 8.59114L8.47659 3.65114L12.6307 1.91091C12.743 2.69682 12.9675 3.70727 13.6973 4.54932C14.5955 5.61591 15.9989 6.12114 17.7952 6.12114C19.5916 6.12114 20.995 5.61591 21.8932 4.54932C22.623 3.70727 22.9036 2.69682 22.9598 1.91091L27.1139 3.65114L33.6257 8.59114L29.4155 12.9698V10.4998C29.4155 10.0507 29.0786 9.71386 28.6295 9.71386C28.1805 9.71386 27.8436 10.0507 27.8436 10.4998V20.885H22.7352C22.2861 20.885 21.9493 21.2218 21.9493 21.6709V24.8707V28.0705V30.4843H7.74682V10.4998C7.74682 10.0507 7.35386 9.71386 6.96091 9.71386ZM37.2184 30.4282H28.5734H23.465V28.8002H37.2184V30.4282Z" fill="#636363"/>
</svg>
