<svg width="27" height="26" viewBox="0 0 27 26" fill="none" xmlns="http://www.w3.org/2000/svg">
<path d="M2.46143 6.21444L1.01261 18.0373C0.905292 18.7601 1.49555 19.4313 2.30045 19.4313H18.7204C19.4716 19.4313 20.0619 18.8117 20.0082 18.0373L18.613 6.21444C18.5057 5.13025 17.5399 4.3042 16.413 4.3042H4.66148C3.53463 4.3042 2.56875 5.13025 2.46143 6.21444Z" stroke="#231863" stroke-miterlimit="10"/>
<path d="M14.9642 6.11118V3.11675C14.9642 1.92931 13.9447 1 12.7642 1H8.31041C7.07623 1 6.11035 1.98093 6.11035 3.11675V6.11118" stroke="#231863" stroke-miterlimit="10"/>
<path fill-rule="evenodd" clip-rule="evenodd" d="M5.89551 13.9072V17.4695H7.66629V14.2169C7.66629 13.5458 7.88093 12.8746 8.68583 12.8746C9.49074 12.8746 9.65172 13.5458 9.65172 14.2169V17.4695C10.081 17.4695 10.9396 17.4695 11.4225 17.4695V14.2169C11.4225 13.5974 11.6371 12.8746 12.3884 12.8746C13.1933 12.8746 13.4079 13.5458 13.4079 14.2169V17.4695H15.1787V13.9072C15.1787 10.8095 11.5298 10.8611 10.5639 12.3067C9.59806 10.8611 5.89551 10.8095 5.89551 13.9072Z" fill="#231863"/>
<path fill-rule="evenodd" clip-rule="evenodd" d="M8.63211 7.71191C9.59799 7.71191 10.4029 8.48634 10.4029 9.41564C10.4029 10.345 9.59799 11.1194 8.63211 11.1194C7.66623 11.1194 6.86133 10.345 6.86133 9.41564C6.86133 8.43471 7.66623 7.71191 8.63211 7.71191Z" fill="#231863"/>
<path fill-rule="evenodd" clip-rule="evenodd" d="M12.3884 7.71191C13.3543 7.71191 14.1592 8.48634 14.1592 9.41564C14.1592 10.345 13.3543 11.1194 12.3884 11.1194C11.4226 11.1194 10.6177 10.345 10.6177 9.41564C10.6177 8.43471 11.4226 7.71191 12.3884 7.71191Z" fill="#231863"/>
<circle cx="19.1909" cy="18.2573" r="7" fill="white"/>
<path d="M20.6766 14.1688C20.118 13.9277 19.4827 13.9449 18.935 14.2205L17.9985 14.6396L17.0619 14.2262C16.5197 13.9506 15.8844 13.9277 15.3258 14.1688C13.984 14.7487 13.5677 16.5285 14.5097 17.6882L17.9985 22L21.4927 17.6882C22.4292 16.5285 22.0185 14.7487 20.6766 14.1688Z" fill="#FF4141"/>
</svg>
