<svg width="32" height="25" viewBox="0 0 32 25" fill="none" xmlns="http://www.w3.org/2000/svg">
<path d="M24.6464 2.95661H25.8498C26.1617 2.95661 26.4291 2.69574 26.4291 2.39139C26.4291 2.08704 26.2063 1.82617 25.8498 1.82617H24.6018C24.2899 1.82617 24.0225 2.08704 24.0225 2.39139C24.0225 2.69574 24.3344 2.95661 24.6464 2.95661Z" fill="#636363"/>
<path d="M26.2953 18.8696H25.4485C25.1365 18.8696 24.8691 19.1305 24.8691 19.4348C24.8691 19.7392 25.1365 20.0001 25.4485 20.0001H26.2953C26.6073 20.0001 26.8747 19.7392 26.8747 19.4348C26.8747 19.1305 26.6073 18.8696 26.2953 18.8696Z" fill="#636363"/>
<path d="M30.1281 8H29.1922V3.47826C29.1922 1.56522 27.5877 0 25.5822 0H3.61003C1.60446 0 0 1.56522 0 3.47826V15.8696C0 17.7826 1.60446 19.3913 3.61003 19.3913H10.2953L9.44847 21.913H7.35376C7.04178 21.913 6.77437 22.1739 6.77437 22.4783V24.4348C6.77437 24.7391 7.04178 25 7.35376 25H9.31476C9.31476 25 9.31476 25 9.35933 25H20.1894C20.1894 25 20.1894 25 20.234 25H21.8384C22.1504 25 22.4178 24.7391 22.4178 24.4348V22.4783C22.4178 22.1739 22.1504 21.913 21.8384 21.913H19.7437L18.8524 19.3913H19.7883V19.6522C19.7883 20.6522 20.6351 21.4783 21.6602 21.4783H30.1281C31.1532 21.4783 32 20.6522 32 19.6522V9.82609C32 8.82609 31.1532 8 30.1281 8ZM30.8412 9.82609V17.2174H20.9025V9.82609C20.9025 9.43478 21.2145 9.13043 21.6156 9.13043H30.0836C30.5292 9.13043 30.8412 9.43478 30.8412 9.82609ZM3.61003 1.13043H25.5822C26.9192 1.13043 28.0334 2.17391 28.0334 3.47826V7.95652H21.6156C20.5905 7.95652 19.7437 8.78261 19.7437 9.78261V13.4348H1.15877V3.47826C1.15877 2.17391 2.22841 1.13043 3.61003 1.13043ZM21.2591 23.8696H7.88858V23.0435H21.2145V23.8696H21.2591ZM18.4958 21.913H10.6518L11.4986 19.3913H17.6045L18.4958 21.913ZM18.0056 18.2609H11.0529H3.61003C2.27298 18.2609 1.15877 17.1739 1.15877 15.8696V14.5652H19.7437V18.2609H18.0056ZM30.1281 20.3478H21.6602C21.2591 20.3478 20.9471 20.0435 20.9471 19.6522V18.3043H30.8858V19.6522C30.8412 20.0435 30.5292 20.3478 30.1281 20.3478Z" fill="#636363"/>
<path d="M3.9664 3.52184L11.9441 7.86967C12.0332 7.91315 12.1224 7.95662 12.2115 7.95662C12.4344 7.95662 12.6126 7.86967 12.7018 7.65228C12.8355 7.39141 12.7463 7.04358 12.4789 6.86967L4.50122 2.52184C4.27838 2.39141 3.92183 2.47836 3.74356 2.73923C3.60985 3.0001 3.69899 3.34793 3.9664 3.52184Z" fill="#636363"/>
<path d="M5.34805 5.91303C5.21434 6.1739 5.30348 6.52173 5.57089 6.69564L13.5486 11.0435C13.6377 11.0869 13.7269 11.1304 13.816 11.1304C14.0389 11.1304 14.2171 11.0435 14.3063 10.8261C14.44 10.5652 14.3508 10.2174 14.0834 10.0435L6.10571 5.69564C5.88287 5.52173 5.52632 5.65216 5.34805 5.91303Z" fill="#636363"/>
</svg>
