<?xml version="1.0" encoding="iso-8859-1"?>
<!-- Generator: Adobe Illustrator 21.0.0, SVG Export Plug-In . SVG Version: 6.00 Build 0)  -->
<svg version="1.1" id="Capa_1" xmlns="http://www.w3.org/2000/svg" xmlns:xlink="http://www.w3.org/1999/xlink" x="0px" y="0px"
	 viewBox="0 0 512 512" style="enable-background:new 0 0 512 512;" xml:space="preserve">
<g>
	<g>
		<g>
			<path d="M486.4,307.2H213.333c-14.139,0-25.6,11.462-25.6,25.6v153.6c0,14.138,11.461,25.6,25.6,25.6H486.4
				c14.138,0,25.6-11.461,25.6-25.6V332.8C512,318.662,500.539,307.2,486.4,307.2z M494.933,486.4c0,4.713-3.82,8.533-8.533,8.533
				H213.333c-4.713,0-8.533-3.82-8.533-8.533V332.8c0-4.713,3.821-8.533,8.533-8.533H486.4c4.713,0,8.533,3.821,8.533,8.533V486.4z"
				/>
			<path d="M281.6,426.667h-34.133c-9.426,0-17.067,7.641-17.067,17.067V460.8c0,9.426,7.641,17.067,17.067,17.067H281.6
				c9.426,0,17.067-7.641,17.067-17.067v-17.067C298.667,434.308,291.026,426.667,281.6,426.667z M281.6,460.8h-34.133v-17.067
				H281.6V460.8z"/>
			<path d="M366.933,426.667H332.8c-9.426,0-17.067,7.641-17.067,17.067V460.8c0,9.426,7.641,17.067,17.067,17.067h34.133
				c9.426,0,17.067-7.641,17.067-17.067v-17.067C384,434.308,376.359,426.667,366.933,426.667z M366.933,460.8H332.8v-17.067h34.133
				V460.8z"/>
			<path d="M452.267,426.667h-34.133c-9.426,0-17.067,7.641-17.067,17.067V460.8c0,9.426,7.641,17.067,17.067,17.067h34.133
				c9.426,0,17.067-7.641,17.067-17.067v-17.067C469.333,434.308,461.692,426.667,452.267,426.667z M452.267,460.8h-34.133v-17.067
				h34.133V460.8z"/>
			<path d="M247.467,366.933h196.267c4.713,0,8.533-3.82,8.533-8.533s-3.82-8.533-8.533-8.533H247.467
				c-4.713,0-8.533,3.82-8.533,8.533S242.754,366.933,247.467,366.933z"/>
			<path d="M247.467,401.067h119.467c4.713,0,8.533-3.821,8.533-8.533c0-4.713-3.82-8.533-8.533-8.533H247.467
				c-4.713,0-8.533,3.821-8.533,8.533C238.933,397.246,242.754,401.067,247.467,401.067z"/>
			<path d="M17.067,68.267h68.267c9.426,0,17.067-7.641,17.067-17.067v-8.533h56.201L147.567,53.7
				c-2.218,2.143-3.108,5.315-2.327,8.299c0.781,2.983,3.111,5.313,6.094,6.094c2.984,0.781,6.156-0.109,8.299-2.327l25.6-25.6
				c0.077-0.077,0.102-0.179,0.171-0.256c0.714-0.728,1.292-1.577,1.707-2.509c0-0.068,0-0.154,0.051-0.23
				c0.322-0.858,0.501-1.763,0.529-2.679c-0.001-0.285-0.018-0.57-0.051-0.853c-0.042-0.715-0.18-1.421-0.41-2.099
				c-0.081-0.291-0.181-0.576-0.299-0.853c-0.407-0.951-0.985-1.819-1.707-2.56l-25.6-25.6c-3.348-3.234-8.671-3.188-11.962,0.104
				c-3.292,3.292-3.338,8.614-0.104,11.962L158.601,25.6H102.4v-8.533C102.4,7.641,94.759,0,85.333,0H17.067
				C7.641,0,0,7.641,0,17.067V51.2C0,60.626,7.641,68.267,17.067,68.267z M17.067,17.067h68.267V51.2H17.067V17.067z"/>
			<path d="M17.067,238.933h25.6v56.201L31.633,284.1c-3.348-3.234-8.671-3.188-11.962,0.104c-3.292,3.292-3.338,8.614-0.104,11.962
				l25.6,25.6c0.077,0.077,0.179,0.102,0.256,0.171c0.728,0.714,1.577,1.292,2.509,1.707c3.182,1.31,6.84,0.579,9.276-1.852
				l25.6-25.6c3.234-3.348,3.188-8.671-0.104-11.962c-3.292-3.292-8.614-3.338-11.962-0.104l-11.008,11.008v-56.201h25.6
				c9.426,0,17.067-7.641,17.067-17.067v-34.133c0-9.426-7.641-17.067-17.067-17.067H17.067C7.641,170.667,0,178.308,0,187.733
				v34.133C0,231.292,7.641,238.933,17.067,238.933z M17.067,187.733h68.267v34.133H17.067V187.733z"/>
			<path d="M221.867,68.267h68.267c9.426,0,17.067-7.641,17.067-17.067v-8.533h56.201L352.367,53.7
				c-2.218,2.143-3.108,5.315-2.327,8.299c0.781,2.983,3.111,5.313,6.094,6.094c2.984,0.781,6.156-0.109,8.299-2.327l25.6-25.6
				c0.077-0.077,0.102-0.179,0.171-0.256c0.714-0.728,1.292-1.577,1.707-2.509c0-0.068,0-0.154,0.051-0.23
				c0.322-0.858,0.501-1.763,0.529-2.679c-0.001-0.285-0.018-0.57-0.051-0.853c-0.042-0.715-0.18-1.421-0.41-2.099
				c-0.081-0.291-0.181-0.576-0.299-0.853c-0.407-0.951-0.985-1.819-1.707-2.56l-25.6-25.6c-3.348-3.234-8.671-3.188-11.962,0.104
				c-3.292,3.292-3.338,8.614-0.104,11.962L363.401,25.6H307.2v-8.533C307.2,7.641,299.559,0,290.133,0h-68.267
				C212.441,0,204.8,7.641,204.8,17.067V51.2C204.8,60.626,212.441,68.267,221.867,68.267z M221.867,17.067h68.267V51.2h-68.267
				V17.067z"/>
			<path d="M494.933,0h-68.267C417.241,0,409.6,7.641,409.6,17.067V51.2c0,9.426,7.641,17.067,17.067,17.067h25.6v56.201
				l-11.034-11.034c-3.348-3.234-8.671-3.188-11.962,0.104c-3.292,3.292-3.338,8.614-0.104,11.962l25.6,25.6
				c0.077,0.077,0.179,0.102,0.256,0.171c0.728,0.714,1.577,1.292,2.509,1.707c3.182,1.31,6.84,0.579,9.276-1.852l25.6-25.6
				c3.234-3.348,3.188-8.671-0.104-11.962c-3.292-3.292-8.614-3.338-11.962-0.104l-11.008,11.008V68.267h25.6
				c9.426,0,17.067-7.641,17.067-17.067V17.067C512,7.641,504.359,0,494.933,0z M494.933,51.2h-68.267V17.067h68.267V51.2z"/>
			<path d="M494.933,170.667h-68.267c-9.426,0-17.067,7.641-17.067,17.067v8.533h-56.201l11.034-11.034
				c3.234-3.348,3.188-8.671-0.104-11.962c-3.292-3.292-8.614-3.338-11.962-0.104l-25.6,25.6c-0.721,0.741-1.3,1.609-1.707,2.56
				c-0.118,0.278-0.217,0.563-0.299,0.853c-0.229,0.678-0.367,1.384-0.41,2.099c-0.033,0.283-0.05,0.568-0.051,0.853
				c0.028,0.916,0.207,1.821,0.529,2.679c0,0.077,0,0.162,0.051,0.23c0.414,0.932,0.992,1.781,1.707,2.509
				c0.068,0.077,0.094,0.179,0.171,0.256l25.6,25.6c3.348,3.234,8.671,3.188,11.962-0.104c3.292-3.292,3.338-8.614,0.104-11.962
				l-11.025-11.008H409.6v8.533c0,9.426,7.641,17.067,17.067,17.067h68.267c9.426,0,17.067-7.641,17.067-17.067v-34.133
				C512,178.308,504.359,170.667,494.933,170.667z M494.933,221.867h-68.267v-34.133h68.267V221.867z"/>
			<path d="M159.633,185.233c3.234-3.348,3.188-8.671-0.104-11.962c-3.292-3.292-8.614-3.338-11.962-0.104l-25.6,25.6
				c-0.721,0.741-1.3,1.609-1.707,2.56c-0.118,0.278-0.217,0.563-0.299,0.853c-0.23,0.678-0.367,1.384-0.41,2.099
				c-0.033,0.283-0.05,0.568-0.051,0.853c0.028,0.916,0.207,1.821,0.529,2.679c0,0.077,0,0.162,0.051,0.23
				c0.414,0.932,0.992,1.781,1.707,2.509c0.068,0.077,0.094,0.179,0.171,0.256l25.6,25.6c3.348,3.234,8.671,3.188,11.962-0.104
				c3.292-3.292,3.338-8.614,0.104-11.962l-11.025-11.008H204.8v8.533c0,9.426,7.641,17.067,17.067,17.067h68.267
				c9.426,0,17.067-7.641,17.067-17.067v-34.133c0-9.426-7.641-17.067-17.067-17.067h-68.267c-9.426,0-17.067,7.641-17.067,17.067
				v8.533h-56.201L159.633,185.233z M221.867,187.733h68.267v34.133h-68.267V187.733z"/>
			<path d="M170.163,372.873c-0.081-0.291-0.181-0.576-0.299-0.853c-0.407-0.951-0.985-1.819-1.707-2.56l-25.6-25.6
				c-3.348-3.234-8.671-3.188-11.962,0.104c-3.292,3.292-3.338,8.614-0.104,11.962l11.042,11.008H102.4V358.4
				c0-9.426-7.641-17.067-17.067-17.067H17.067C7.641,341.333,0,348.974,0,358.4v34.133c0,9.426,7.641,17.067,17.067,17.067h68.267
				c9.426,0,17.067-7.641,17.067-17.067V384h39.134L130.5,395.034c-2.218,2.143-3.108,5.315-2.327,8.299
				c0.781,2.984,3.111,5.314,6.094,6.094c2.983,0.781,6.156-0.109,8.299-2.327l25.6-25.6c0.077-0.077,0.102-0.179,0.171-0.256
				c0.714-0.728,1.292-1.577,1.707-2.509c0-0.068,0-0.154,0.051-0.23c0.322-0.858,0.501-1.763,0.529-2.679
				c-0.001-0.285-0.018-0.57-0.051-0.853C170.531,374.257,170.393,373.551,170.163,372.873z M85.333,392.533H17.067V358.4h68.267
				V392.533z"/>
		</g>
	</g>
</g>
<g>
</g>
<g>
</g>
<g>
</g>
<g>
</g>
<g>
</g>
<g>
</g>
<g>
</g>
<g>
</g>
<g>
</g>
<g>
</g>
<g>
</g>
<g>
</g>
<g>
</g>
<g>
</g>
<g>
</g>
</svg>
