<svg width="34" height="41" viewBox="0 0 34 41" fill="none" xmlns="http://www.w3.org/2000/svg">
<rect width="22" height="41" rx="3" fill="#C251C0"/>
<rect x="34" y="14" width="27" height="19" rx="3" transform="rotate(90 34 14)" fill="#C251C0"/>
<rect x="34" y="37" width="4" height="34" rx="1" transform="rotate(90 34 37)" fill="#FFC100"/>
<rect x="5" y="5" width="3" height="6" fill="#FFF8F8"/>
<rect x="5" y="15" width="3" height="6" fill="#FFF8F8"/>
<rect x="5" y="25" width="3" height="6" fill="#FFF8F8"/>
<rect x="14" y="5" width="3" height="6" fill="#FFF8F8"/>
<rect x="14" y="15" width="3" height="6" fill="#FFF8F8"/>
<rect x="14" y="25" width="3" height="6" fill="#FFF8F8"/>
<path d="M27.4637 1.00034C26.2352 1.00125 25.0324 1.33923 23.996 1.97472C22.9596 2.61022 22.1324 3.51697 21.6112 4.5889C21.0899 5.66084 20.8962 6.85363 21.0527 8.02776C21.2092 9.20189 21.7094 10.3088 22.4948 11.219H22.4569L27.1607 15.9269C27.2283 15.9758 27.311 16.0015 27.3955 15.9999C27.4718 15.9948 27.5452 15.9696 27.6076 15.9269L31.8417 11.8541H31.8796L32.2507 11.4964C33.1175 10.6054 33.6935 9.48868 33.9073 8.28492C34.1211 7.08116 33.9632 5.84341 33.4533 4.72537C32.9434 3.60732 32.1039 2.65825 31.039 1.99602C29.9742 1.33378 28.7309 0.987559 27.4637 1.00034ZM27.4637 8.61327C27.0768 8.61327 26.6987 8.50264 26.3772 8.29539C26.0556 8.08814 25.8052 7.7936 25.6575 7.44907C25.5098 7.10454 25.4715 6.72553 25.5476 6.36003C25.6236 5.99454 25.8104 5.659 26.0845 5.39593C26.3586 5.13286 26.7075 4.95409 27.0871 4.88225C27.4666 4.81041 27.8598 4.84875 28.2168 4.9924C28.5737 5.13605 28.8784 5.37856 29.0922 5.6892C29.306 5.99984 29.4194 6.36465 29.4179 6.73741C29.4179 6.98437 29.3673 7.22889 29.269 7.45696C29.1707 7.68503 29.0266 7.89215 28.845 8.06643C28.6635 8.24072 28.448 8.37874 28.2109 8.47258C27.9739 8.56642 27.7199 8.61423 27.4637 8.61327Z" fill="#FFC100"/>
</svg>
