<?xml version="1.0" encoding="utf-8"?>
<!-- Generator: Adobe Illustrator 22.0.1, SVG Export Plug-In . SVG Version: 6.00 Build 0)  -->
<svg version="1.1" id="Capa_1" xmlns="http://www.w3.org/2000/svg" xmlns:xlink="http://www.w3.org/1999/xlink" x="0px" y="0px"
	 viewBox="0 0 512 512" style="enable-background:new 0 0 512 512;" xml:space="preserve">
<style type="text/css">
	.st0{fill:#60C977;}
</style>
<g>
	<path class="st0" d="M256,0C114.8,0,0,114.8,0,256s114.8,256,256,256s256-114.8,256-256S397.2,0,256,0z M256,492.3
		c-130.3,0-236.3-106-236.3-236.3S125.7,19.7,256,19.7s236.3,106,236.3,236.3S386.3,492.3,256,492.3z"/>
	<path class="st0" d="M376.6,151L225.3,321.2l-91.2-72.9c-4.2-3.4-10.4-2.7-13.8,1.5c-3.4,4.3-2.7,10.4,1.5,13.8l98.5,78.8
		c1.8,1.4,4,2.2,6.2,2.2c2.7,0,5.4-1.1,7.4-3.3l157.5-177.2c3.6-4.1,3.2-10.3-0.8-13.9C386.5,146.6,380.3,146.9,376.6,151z"/>
</g>
</svg>
