<?xml version="1.0" encoding="utf-8"?>
<!-- Generator: Adobe Illustrator 22.0.1, SVG Export Plug-In . SVG Version: 6.00 Build 0)  -->
<svg version="1.1" id="Capa_1" xmlns="http://www.w3.org/2000/svg" xmlns:xlink="http://www.w3.org/1999/xlink" x="0px" y="0px"
	 viewBox="0 0 512 512" style="enable-background:new 0 0 512 512;" xml:space="preserve">
<style type="text/css">
	.st0{fill:#60C977;}
</style>
<g>
	<path class="st0" d="M256,0C114.8,0,0,114.8,0,256s114.8,256,256,256s256-114.8,256-256S397.2,0,256,0z M256,492.3
		c-130.3,0-236.3-106-236.3-236.3S125.7,19.7,256,19.7s236.3,106,236.3,236.3S386.3,492.3,256,492.3z"/>
	<g>
		<path class="st0" d="M141.5,140.5h-0.9L92.7,169l-5.2-16.5l56.4-34.1h17.9V411h-20.3V140.5z"/>
		<path class="st0" d="M429.4,261.9c0,105.7-35.5,153.6-88.4,153.6c-42.2,0-81.1-44-82-149.8C259,158.9,301,114,347.4,114
			C393.7,114,429.4,158.9,429.4,261.9z M280.5,265.9c0,78.9,23.9,132,63.5,132c44.2,0,64-57.2,64-134.4c0-75.3-18.9-132-63.7-132
			C306,131.5,280.5,184,280.5,265.9z"/>
	</g>
</g>
</svg>
