<?xml version="1.0" encoding="utf-8"?>
<!-- Generator: Adobe Illustrator 22.0.1, SVG Export Plug-In . SVG Version: 6.00 Build 0)  -->
<svg version="1.1" id="Capa_1" xmlns="http://www.w3.org/2000/svg" xmlns:xlink="http://www.w3.org/1999/xlink" x="0px" y="0px"
	 viewBox="0 0 512 512" style="enable-background:new 0 0 512 512;" xml:space="preserve">
<style type="text/css">
	.st0{fill:#60C977;}
</style>
<g>
	<g>
		<path class="st0" d="M256,0c-84.7,0-153.6,68.9-153.6,153.6v281.6c0,4.7,3.8,8.5,8.5,8.5h290.1c4.7,0,8.5-3.8,8.5-8.5V153.6
			C409.6,68.9,340.7,0,256,0z M392.5,426.7H119.5V153.6c0-75.3,61.2-136.5,136.5-136.5s136.5,61.3,136.5,136.5V426.7z"/>
	</g>
</g>
<g>
	<g>
		<path class="st0" d="M256,34.1c-65.9,0-119.5,53.6-119.5,119.5v281.6c0,4.7,3.8,8.5,8.5,8.5h221.9c4.7,0,8.5-3.8,8.5-8.5V153.6
			C375.5,87.7,321.9,34.1,256,34.1z M358.4,426.7H153.6V153.6c0-56.5,45.9-102.4,102.4-102.4s102.4,45.9,102.4,102.4V426.7z"/>
	</g>
</g>
<g>
	<g>
		<path class="st0" d="M426.7,426.7H85.3c-4.7,0-8.5,3.8-8.5,8.5v34.1c0,4.7,3.8,8.5,8.5,8.5h341.3c4.7,0,8.5-3.8,8.5-8.5v-34.1
			C435.2,430.5,431.4,426.7,426.7,426.7z M418.1,460.8H93.9v-17.1h324.3L418.1,460.8L418.1,460.8z"/>
	</g>
</g>
<g>
	<g>
		<path class="st0" d="M416.9,464.9c-1.6-2.5-4.3-4.1-7.3-4.1H102.4c-3,0-5.7,1.5-7.3,4c-1.6,2.5-1.7,5.7-0.4,8.3l17.1,34.1
			c1.5,2.9,4.4,4.7,7.6,4.7h273.1c3.2,0,6.2-1.8,7.6-4.7l17.1-34.1C418.6,470.5,418.4,467.4,416.9,464.9z M387.3,494.9H124.7
			l-8.5-17.1h279.6L387.3,494.9z"/>
	</g>
</g>
<g>
	<g>
		<path class="st0" d="M256,145.1H145.1c-4.7,0-8.5,3.8-8.5,8.5v281.6c0,4.7,3.8,8.5,8.5,8.5H256c4.7,0,8.5-3.8,8.5-8.5V153.6
			C264.5,148.9,260.7,145.1,256,145.1z M247.5,426.7h-93.9V162.1h93.9L247.5,426.7L247.5,426.7z"/>
	</g>
</g>
<g>
	<g>
		<path class="st0" d="M256,145.1H145.1c-4.7,0-8.5,3.8-8.5,8.5v136.5c0,4.7,3.8,8.5,8.5,8.5H256c4.7,0,8.5-3.8,8.5-8.5V153.6
			C264.5,148.9,260.7,145.1,256,145.1z M247.5,281.6h-93.9V162.1h93.9L247.5,281.6L247.5,281.6z"/>
	</g>
</g>
<g>
	<g>
		<path class="st0" d="M256,281.6H145.1c-4.7,0-8.5,3.8-8.5,8.5v145.1c0,4.7,3.8,8.5,8.5,8.5H256c4.7,0,8.5-3.8,8.5-8.5V290.1
			C264.5,285.4,260.7,281.6,256,281.6z M247.5,426.7h-93.9v-128h93.9L247.5,426.7L247.5,426.7z"/>
	</g>
</g>
<g>
	<g>
		<path class="st0" d="M366.9,145.1H256c-4.7,0-8.5,3.8-8.5,8.5v281.6c0,4.7,3.8,8.5,8.5,8.5h110.9c4.7,0,8.5-3.8,8.5-8.5V153.6
			C375.5,148.9,371.6,145.1,366.9,145.1z M358.4,426.7h-93.9V162.1h93.9V426.7z"/>
	</g>
</g>
<g>
	<g>
		<path class="st0" d="M366.9,145.1H256c-4.7,0-8.5,3.8-8.5,8.5v136.5c0,4.7,3.8,8.5,8.5,8.5h110.9c4.7,0,8.5-3.8,8.5-8.5V153.6
			C375.5,148.9,371.6,145.1,366.9,145.1z M358.4,281.6h-93.9V162.1h93.9V281.6z"/>
	</g>
</g>
<g>
	<g>
		<path class="st0" d="M366.9,281.6H256c-4.7,0-8.5,3.8-8.5,8.5v145.1c0,4.7,3.8,8.5,8.5,8.5h110.9c4.7,0,8.5-3.8,8.5-8.5V290.1
			C375.5,285.4,371.6,281.6,366.9,281.6z M358.4,426.7h-93.9v-128h93.9V426.7z"/>
	</g>
</g>
<g>
	<g>
		<path class="st0" d="M338.8,70.8c-3.3-3.3-8.7-3.3-12.1,0L250,147.6c-3.3,3.3-3.3,8.7,0,12.1c1.7,1.7,3.8,2.5,6,2.5
			c2.2,0,4.4-0.8,6-2.5l76.8-76.8C342.2,79.5,342.2,74.1,338.8,70.8z"/>
	</g>
</g>
<g>
	<g>
		<path class="st0" d="M262,147.6l-76.8-76.8c-3.3-3.3-8.7-3.3-12.1,0c-3.3,3.3-3.3,8.7,0,12.1l76.8,76.8c1.7,1.7,3.8,2.5,6,2.5
			c2.2,0,4.4-0.8,6-2.5C265.4,156.3,265.4,150.9,262,147.6z"/>
	</g>
</g>
<g>
	<g>
		<path class="st0" d="M256,34.1c-4.7,0-8.5,3.8-8.5,8.5v110.9c0,4.7,3.8,8.5,8.5,8.5c4.7,0,8.5-3.8,8.5-8.5V42.7
			C264.5,37.9,260.7,34.1,256,34.1z"/>
	</g>
</g>
</svg>
