<?xml version="1.0" encoding="utf-8"?>
<!-- Generator: Adobe Illustrator 22.0.1, SVG Export Plug-In . SVG Version: 6.00 Build 0)  -->
<svg version="1.1" id="Capa_1" xmlns="http://www.w3.org/2000/svg" xmlns:xlink="http://www.w3.org/1999/xlink" x="0px" y="0px"
	 viewBox="0 0 512 512" style="enable-background:new 0 0 512 512;" xml:space="preserve">
<style type="text/css">
	.st0{fill:#60C977;}
</style>
<g>
	<g>
		<g>
			<path class="st0" d="M486.4,230.4h-0.3c-3.2-94.6-64.3-177.5-153.7-208.7C330.5,9.3,319.8,0,307.2,0H204.8
				c-12.6,0-23.3,9.3-25.2,21.7C90.2,52.9,29.2,135.8,25.9,230.4h-0.3C11.5,230.4,0,241.9,0,256v17.1c0,14.1,11.5,25.6,25.6,25.6
				h460.8c14.1,0,25.6-11.5,25.6-25.6V256C512,241.9,500.5,230.4,486.4,230.4z M179.2,40v147.7c0,4.7,3.8,8.5,8.5,8.5
				c4.7,0,8.5-3.8,8.5-8.5V25.6c0-4.7,3.8-8.5,8.5-8.5h42.7v187.7c0,4.7,3.8,8.5,8.5,8.5c4.7,0,8.5-3.8,8.5-8.5V17.1h42.7
				c4.7,0,8.5,3.8,8.5,8.5v162.1c0,4.7,3.8,8.5,8.5,8.5s8.5-3.8,8.5-8.5V40c79.4,30.4,133,105.4,136.2,190.4H43
				C46.2,145.4,99.8,70.5,179.2,40z M494.9,273.1c0,4.7-3.8,8.5-8.5,8.5H25.6c-4.7,0-8.5-3.8-8.5-8.5V256c0-4.7,3.8-8.5,8.5-8.5
				h460.8c4.7,0,8.5,3.8,8.5,8.5V273.1z"/>
			<path class="st0" d="M213.3,375.5H102.4c-14.1,0-25.6,11.5-25.6,25.6v34.1c0,4.7,3.8,8.5,8.5,8.5s8.5-3.8,8.5-8.5v-34.1
				c0-4.7,3.8-8.5,8.5-8.5h110.9c4.7,0,8.5-3.8,8.5-8.5S218,375.5,213.3,375.5z"/>
			<path class="st0" d="M503.5,375.5h-35c-4.1-19.9-21.5-34.1-41.8-34.1H85.3c-23.6,0-42.6,19.1-42.7,42.7H8.5
				c-4.7,0-8.5,3.8-8.5,8.5v68.3c0,4.7,3.8,8.5,8.5,8.5h36.7c7.6,25.3,30.8,42.6,57.2,42.7h51.2c39-0.1,75.2-20.6,95.3-54.1
				c2.4-3.9,7.6-5.1,11.5-2.7c1.1,0.7,2,1.6,2.7,2.7c20.1,33.5,56.3,54,95.3,54.1h51.2c29.7,0,54.8-21.8,59.1-51.2h34.8
				c4.7,0,8.5-3.8,8.5-8.5V384C512,379.3,508.2,375.5,503.5,375.5z M42.7,452.3H17.1v-25.6h25.6V452.3z M42.7,409.6H17.1v-8.5h25.6
				V409.6z M452.3,452.3c0,23.6-19.1,42.6-42.7,42.7h-51.2c-33-0.1-63.6-17.5-80.7-45.8c-7.3-12-22.9-15.9-34.9-8.6
				c-3.5,2.1-6.5,5.1-8.6,8.6c-17,28.3-47.6,45.7-80.6,45.8h-51.2c-23.6,0-42.6-19.1-42.7-42.7V384c0-14.1,11.5-25.6,25.6-25.6
				h341.3c14.1,0,25.6,11.5,25.6,25.6V452.3z M494.9,443.7h-25.6v-25.6h25.6V443.7z M494.9,401.1h-25.6v-8.5h25.6V401.1z"/>
			<path class="st0" d="M264.5,375.5h-17.1c-4.7,0-8.5,3.8-8.5,8.5s3.8,8.5,8.5,8.5h17.1c4.7,0,8.5-3.8,8.5-8.5
				S269.2,375.5,264.5,375.5z"/>
		</g>
	</g>
</g>
</svg>
