<?xml version="1.0" encoding="utf-8"?>
<!-- Generator: Adobe Illustrator 22.0.1, SVG Export Plug-In . SVG Version: 6.00 Build 0)  -->
<svg version="1.1" id="Capa_1" xmlns="http://www.w3.org/2000/svg" xmlns:xlink="http://www.w3.org/1999/xlink" x="0px" y="0px"
	 viewBox="0 0 100 100" style="enable-background:new 0 0 100 100;" xml:space="preserve">
<style type="text/css">
	.st0{fill:#FFFFFF;}
</style>
<g>
	<g>
		<g>
			<path class="st0" d="M60.2,4C39,4,21.7,17.3,20.6,33.9C8.2,37.9,0,47.5,0,58.2c0.2,7.9,4.3,15.1,10.9,19.5v16.8
				c0,0.8,0.7,1.5,1.5,1.5c0.4,0,0.7-0.1,1-0.4l12.8-11.7c2.2,0.4,4.4,0.5,6.7,0.5c14,0,26.3-6.9,30.9-17.4c1.6-0.1,3.1-0.3,4.7-0.5
				l15.7,14.4c0.6,0.6,1.6,0.5,2.1-0.1c0.3-0.3,0.4-0.6,0.4-1V59.2c8.4-6,13.3-14.6,13.3-23.6C100,18.2,82.2,4,60.2,4z M32.9,81.4
				c-2.3,0-4.6-0.2-6.9-0.6c-0.5-0.1-0.9,0-1.3,0.4l-10.8,10V76.9c0-0.5-0.2-1-0.7-1.2C6.7,71.3,3,64.8,3,58.2
				c0-9.1,7-17.4,17.5-21.1c0.1,1.3,0.3,2.7,0.7,4c1.5,6.1,4.8,11.5,9.6,15.6c0.3,0.3,10.4,10.2,29.7,10.5
				C55.8,75.8,45.1,81.4,32.9,81.4z M84.4,57.2c-0.4,0.3-0.7,0.7-0.7,1.2v18L69.9,63.8c-0.3-0.3-0.6-0.4-1-0.4h-0.3
				c-2.6,0.5-5.3,0.7-8,0.7c-14.5,0-23.3-5.6-27.5-9.2c-4.4-3.8-7.6-8.8-9.1-14.3c-0.4-1.6-0.6-3.3-0.6-5C23.5,19.8,40,7,60.2,7
				S97,19.8,97,35.6C97,43.8,92.4,51.7,84.4,57.2z"/>
		</g>
	</g>
</g>
</svg>
