<?xml version="1.0" encoding="utf-8"?>
<!-- Generator: Adobe Illustrator 22.0.1, SVG Export Plug-In . SVG Version: 6.00 Build 0)  -->
<svg version="1.1" id="Слой_1" xmlns="http://www.w3.org/2000/svg" xmlns:xlink="http://www.w3.org/1999/xlink" x="0px" y="0px"
	 viewBox="0 0 275.2 71.3" style="enable-background:new 0 0 275.2 71.3;" xml:space="preserve">
<style type="text/css">
	.st0{fill:#FFFFFF;}
</style>
<g>
	<path class="st0" d="M136.8,59.7c-0.2-0.2-0.5-0.4-0.8-0.4c-0.3-0.1-0.7-0.1-1.2-0.1h-4.9v7.4h1.7v-2.2h3.2c0.6,0,1.1-0.1,1.4-0.3
		c0.4-0.2,0.6-0.5,0.8-0.8c0.2-0.4,0.3-0.9,0.3-1.5c0-0.5,0-0.9-0.1-1.2C137.1,60.1,137,59.9,136.8,59.7L136.8,59.7z M135.5,62.3
		c-0.1,0.2-0.2,0.3-0.3,0.4c-0.2,0.1-0.4,0.1-0.7,0.1h-2.9v-2.3h2.9c0.4,0,0.7,0.1,0.9,0.3s0.2,0.5,0.2,0.9
		C135.6,61.9,135.6,62.2,135.5,62.3z"/>
	<path class="st0" d="M118.3,62.2c-0.3-0.1-0.8-0.2-1.4-0.2h-3.3v-1.5h5v-1.4h-6.7v7.4h5c0.6,0,1-0.1,1.4-0.2
		c0.3-0.1,0.6-0.4,0.8-0.7c0.2-0.3,0.3-0.8,0.3-1.3c0-0.6-0.1-1.1-0.2-1.4C118.9,62.6,118.7,62.3,118.3,62.2L118.3,62.2z
		 M117.6,64.7c-0.1,0.1-0.1,0.2-0.3,0.3c-0.1,0.1-0.4,0.1-0.7,0.1h-3v-1.7h3c0.3,0,0.5,0,0.6,0.1s0.2,0.1,0.3,0.3
		c0,0.1,0.1,0.3,0.1,0.5C117.6,64.4,117.6,64.6,117.6,64.7z"/>
	<path class="st0" d="M13.4,7.7c4-2.2,8.5-3.3,13.4-3.3H6.1v14.4C6.1,14,8.5,10.3,13.4,7.7z"/>
	<path class="st0" d="M65.5,7.7c4.9,2.7,7.3,6.4,7.3,11.1V40c0,2.3-0.7,4.4-2,6.4l4.3,4.2l-7.2,6.9l-5.2-5c-3.4,1.3-6.9,2-10.6,2
		H26.8c-5,0-9.5-1.1-13.4-3.3c-4.9-2.7-7.3-6.4-7.3-11.1v26.6h78V4.4h-32C57,4.4,61.5,5.5,65.5,7.7z"/>
	<path class="st0" d="M127.8,59.3c-0.4-0.2-0.9-0.2-1.5-0.2h-3.1c-0.5,0-0.9,0-1.2,0.1c-0.3,0.1-0.6,0.2-0.8,0.4
		c-0.2,0.2-0.4,0.5-0.4,0.8c-0.1,0.3-0.1,0.8-0.1,1.3v2.2c0,0.5,0.1,0.8,0.1,1.2c0.1,0.3,0.2,0.6,0.5,0.8c0.2,0.2,0.5,0.4,0.8,0.5
		s0.7,0.1,1.2,0.1h3.1c0.5,0,0.9,0,1.3-0.1c0.3-0.1,0.6-0.2,0.8-0.4c0.2-0.2,0.3-0.4,0.4-0.8c0.1-0.3,0.1-0.7,0.1-1.2v-2.2
		c0-0.7-0.1-1.2-0.3-1.6C128.4,59.7,128.2,59.4,127.8,59.3L127.8,59.3z M127.2,63.7c0,0.3,0,0.6-0.1,0.8s-0.2,0.3-0.4,0.4
		c-0.2,0.1-0.5,0.1-0.8,0.1h-2.3c-0.4,0-0.6,0-0.8-0.1c-0.2-0.1-0.3-0.2-0.4-0.4c-0.1-0.2-0.1-0.4-0.1-0.8v-1.9
		c0-0.4,0.1-0.6,0.1-0.8c0.1-0.2,0.2-0.3,0.4-0.4c0.2-0.1,0.5-0.1,0.8-0.1h2.2c0.4,0,0.6,0,0.8,0.1c0.2,0.1,0.3,0.2,0.4,0.4
		s0.1,0.5,0.1,0.8v1.9H127.2z"/>
	<path class="st0" d="M46.1,14.2H26.8c-2,0-4.1,0.3-6.2,1c-2.8,0.9-4.3,2.1-4.3,3.6V40c0,1.5,1.4,2.6,4.3,3.5c2.1,0.6,4.2,1,6.2,1
		H52c2,0,4.1-0.3,6.2-1c2.8-0.9,4.3-2,4.3-3.5V18.8c0-1.5-1.4-2.7-4.2-3.6c-2.1-0.6-4.2-1-6.3-1h-2.6l5.4-6.8l-3,2.5L31.2,36
		L19.8,21l11.7,5.5L46.1,14.2z"/>
	<path class="st0" d="M141.5,59.1l-3.8,7.4h2l0.9-1.9h4.2l0.9,1.9h2l-3.8-7.4H141.5L141.5,59.1z M141.3,63.2l1.4-2.8h0.1l1.4,2.8
		H141.3z"/>
	<path class="st0" d="M105,59.1l-3.8,7.4h2l0.9-1.9h4.2l0.9,1.9h2l-3.8-7.4H105L105,59.1z M104.8,63.2l1.4-2.8h0.1l1.4,2.8H104.8z"
		/>
	<path class="st0" d="M94.5,59.1h-1.3v4.5c0,0.4,0,0.7-0.1,0.9c-0.1,0.2-0.2,0.3-0.3,0.4C92.7,65,92.4,65,92.1,65v1.5h0.7
		c1.4,0,2-0.9,2-2.7v-3.2h4v5.9h1.7v-7.4h-1.7H94.5z"/>
	<path class="st0" d="M240.5,64.6c-0.1,0.2-0.2,0.3-0.4,0.3c-0.2,0.1-0.4,0.1-0.8,0.1h-2.2c-0.3,0-0.6,0-0.8-0.1s-0.3-0.2-0.4-0.4
		c-0.1-0.2-0.1-0.5-0.1-0.8v-1.8c0-0.4,0-0.7,0.1-0.9s0.2-0.3,0.4-0.3c0.2-0.1,0.5-0.1,0.9-0.1h2.2c0.5,0,0.8,0.1,1,0.2
		c0.2,0.2,0.3,0.4,0.3,0.8h1.8c0-0.7-0.1-1.2-0.3-1.6c-0.2-0.4-0.5-0.6-0.9-0.8c-0.4-0.1-0.9-0.2-1.5-0.2H237
		c-0.7,0-1.3,0.1-1.7,0.2c-0.4,0.2-0.7,0.4-0.8,0.8c-0.2,0.4-0.3,0.9-0.3,1.7v2.1c0,0.7,0.1,1.2,0.2,1.6c0.2,0.4,0.4,0.6,0.8,0.8
		c0.4,0.2,0.9,0.2,1.6,0.2h3.2c0.7,0,1.2-0.1,1.6-0.2c0.4-0.2,0.6-0.4,0.8-0.8c0.1-0.4,0.2-0.9,0.2-1.6h-1.8
		C240.6,64.2,240.6,64.4,240.5,64.6z"/>
	<polygon class="st0" points="225.6,66.5 232.9,66.5 232.9,65.1 227.3,65.1 227.3,63.4 232.7,63.4 232.7,62.1 227.3,62.1 
		227.3,60.5 232.9,60.5 232.9,59.1 225.6,59.1 	"/>
	<path class="st0" d="M210.1,59.1l-3.8,7.4h2l0.9-1.9h4.2l0.9,1.9h2l-3.8-7.4H210.1L210.1,59.1z M209.9,63.2l1.4-2.8h0.1l1.4,2.8
		H209.9z"/>
	<path class="st0" d="M222.7,61.5c-0.2,0.2-0.4,0.4-0.6,0.5c-0.2,0.1-0.6,0.1-1,0.1h-1.2c-0.3,0-0.6,0-0.8-0.1s-0.3-0.2-0.4-0.4
		c-0.1-0.2-0.1-0.5-0.1-0.8v-1.7h-1.7V61c0,0.9,0.2,1.6,0.6,2c0.4,0.4,1.1,0.6,2,0.6h1.3c0.4,0,0.8,0,1.1-0.1s0.6-0.2,0.8-0.4v3.4
		h1.7v-7.4h-1.7L222.7,61.5L222.7,61.5z"/>
	<polygon class="st0" points="243.2,60.5 246.2,60.5 246.2,66.5 247.9,66.5 247.9,60.5 251,60.5 251,59.1 243.2,59.1 	"/>
	<path class="st0" d="M266.7,59.1h-2.5l-3.8,7.4h2l0.9-1.9h4.2l0.9,1.9h2L266.7,59.1L266.7,59.1z M263.9,63.2l1.4-2.8h0.1l1.4,2.8
		H263.9z"/>
	<polygon class="st0" points="148.1,60.5 151.1,60.5 151.1,66.5 152.8,66.5 152.8,60.5 155.8,60.5 155.8,59.1 148.1,59.1 	"/>
	<path class="st0" d="M258.5,62.6c0.3-0.1,0.5-0.3,0.7-0.5c0.1-0.2,0.2-0.6,0.2-1.2c0-0.4-0.1-0.8-0.3-1.1c-0.2-0.3-0.5-0.5-0.8-0.6
		c-0.4-0.1-0.8-0.2-1.4-0.2h-5.2v7.4h5.5c0.5,0,1-0.1,1.3-0.2c0.4-0.1,0.6-0.4,0.8-0.7c0.2-0.3,0.3-0.7,0.3-1.3
		c0-0.5-0.1-0.9-0.3-1.2C259.2,62.9,258.9,62.7,258.5,62.6L258.5,62.6z M253.5,60.5h3.5c0.2,0,0.4,0.1,0.5,0.2
		c0.1,0.1,0.2,0.3,0.2,0.5c0,0.3-0.1,0.5-0.2,0.6c-0.1,0.2-0.3,0.2-0.5,0.2h-3.5V60.5L253.5,60.5z M257.9,64.7
		c0,0.1-0.1,0.2-0.3,0.3c-0.1,0.1-0.4,0.1-0.7,0.1h-3.4v-1.7l0,0h3.5c0.3,0,0.5,0,0.6,0.1s0.2,0.1,0.3,0.3c0,0.1,0.1,0.3,0.1,0.5
		C257.9,64.4,257.9,64.6,257.9,64.7z"/>
	<path class="st0" d="M172.8,59.7c-0.2-0.2-0.5-0.4-0.8-0.4c-0.3-0.1-0.7-0.1-1.2-0.1h-4.9v7.4h1.7v-2.2h3.2c0.6,0,1.1-0.1,1.4-0.3
		c0.4-0.2,0.6-0.5,0.8-0.8c0.2-0.4,0.3-0.9,0.3-1.5c0-0.5,0-0.9-0.1-1.2C173.1,60.1,173,59.9,172.8,59.7L172.8,59.7z M171.6,62.3
		c-0.1,0.2-0.2,0.3-0.3,0.4c-0.2,0.1-0.4,0.1-0.7,0.1h-2.9v-2.3h2.9c0.4,0,0.7,0.1,0.9,0.3s0.2,0.5,0.2,0.9
		C171.7,61.9,171.6,62.2,171.6,62.3z"/>
	<path class="st0" d="M163.8,59.3c-0.4-0.2-0.9-0.2-1.5-0.2h-3.1c-0.5,0-0.9,0-1.2,0.1s-0.6,0.2-0.8,0.4s-0.4,0.5-0.4,0.8
		c-0.1,0.3-0.1,0.8-0.1,1.3v2.2c0,0.5,0.1,0.8,0.1,1.2c0.1,0.3,0.2,0.6,0.5,0.8c0.2,0.2,0.5,0.4,0.8,0.5s0.7,0.1,1.2,0.1h3.1
		c0.5,0,0.9,0,1.2-0.1s0.6-0.2,0.8-0.4c0.2-0.2,0.3-0.4,0.4-0.8c0.1-0.3,0.1-0.7,0.1-1.2v-2.2c0-0.7-0.1-1.2-0.3-1.6
		C164.5,59.7,164.2,59.4,163.8,59.3L163.8,59.3z M163.2,63.7c0,0.3,0,0.6-0.1,0.8s-0.2,0.3-0.4,0.4s-0.5,0.1-0.8,0.1h-2.3
		c-0.4,0-0.6,0-0.8-0.1s-0.3-0.2-0.4-0.4c-0.1-0.2-0.1-0.4-0.1-0.8v-1.9c0-0.4,0.1-0.6,0.1-0.8c0.1-0.2,0.2-0.3,0.4-0.4
		c0.2-0.1,0.5-0.1,0.8-0.1h2.2c0.4,0,0.6,0,0.8,0.1s0.3,0.2,0.4,0.4c0.1,0.2,0.1,0.5,0.1,0.8v1.9H163.2z"/>
	<polygon class="st0" points="205.9,59.1 203.4,59.1 200.2,61.8 199.2,61.8 199.2,59.1 197.5,59.1 197.5,66.5 199.2,66.5 
		199.2,63.3 200.3,63.3 203.6,66.5 206.1,66.5 201.7,62.5 	"/>
	<polygon class="st0" points="176.3,65 176,65 176,59.1 174.3,59.1 174.3,66.5 177.3,66.5 181.6,60.5 181.8,60.5 181.8,66.5 
		183.5,66.5 183.5,59.1 180.6,59.1 	"/>
	<path class="st0" d="M186.1,59.3c-0.4,0.2-0.7,0.4-0.9,0.8c-0.2,0.4-0.3,0.9-0.3,1.6c0,0.4,0.1,0.7,0.2,1c0.1,0.3,0.3,0.6,0.6,0.8
		c0.2,0.2,0.5,0.3,0.8,0.4l-2.1,2.6h2.2l1.7-2.3h2.8v2.3h1.7v-7.4h-5.4C186.9,59.1,186.5,59.1,186.1,59.3L186.1,59.3z M191.2,60.5
		v2.3h-3.5c-0.4,0-0.6-0.1-0.8-0.3s-0.2-0.5-0.3-0.9c0-0.4,0.1-0.7,0.2-0.9c0.1-0.2,0.4-0.3,0.8-0.3h3.6V60.5z"/>
	<path class="st0" d="M198,37.8h1.1h0.8v16h3.9h6.3h39.3c13,0,19.4-4.3,19.4-12.9c0-3.7-1.3-6.7-3.8-8.8c2.5-2.4,3.8-5.2,3.8-8.3
		v-5.3c0-4.6-2.4-8.2-7.1-10.8c-3.9-2.1-8.2-3.2-13.1-3.2H210h-6.3h-14.8c-10.3,0-19,1.6-26.2,4.7c-9.2,4-14.9,10.3-17,18.9h-8.1
		l-5.5,9.7h12.8V44h-42.7V4.4H92.1v49.4H145h8.1h2.1v-16H184h9L198,37.8L198,37.8z M213.9,14.1h34.6c2,0,4,0.3,6,0.9
		c2.7,0.8,4.1,2,4.1,3.4v5.3c0,1.4-1.4,2.5-4.1,3.4c-2,0.6-4,0.9-6,0.9h-27.8v9.7h27.8c5.8,0,9,0.6,9.8,1.7c0.2,0.3,0.3,0.7,0.3,1.4
		s-0.1,1.1-0.3,1.4c-0.8,1.2-4.1,1.8-9.8,1.8h-34.6V14.1L213.9,14.1z M183.9,28h-27.5c2.1-5.1,6.6-8.9,13.5-11.2
		c5.3-1.8,11.6-2.7,19.1-2.7h10.9V28h-0.8H198h-5.1H183.9z"/>
</g>
</svg>
