<svg width="15" height="14" viewBox="0 0 15 14" fill="none" xmlns="http://www.w3.org/2000/svg">
<path fill-rule="evenodd" clip-rule="evenodd" d="M14.9922 11.0473C15.0093 11.1553 14.9982 11.2656 14.9599 11.3687C14.9216 11.4719 14.8572 11.5649 14.7722 11.6399L12.6621 13.5997C12.556 13.7038 12.4306 13.7891 12.292 13.8516C12.1466 13.9172 11.9915 13.9621 11.8319 13.9851L11.7419 13.9925C11.6819 13.9925 11.622 14 11.5319 14C10.6238 13.9713 9.7304 13.7776 8.9017 13.4298C8.12896 13.1161 7.38898 12.7362 6.69141 12.295C5.73497 11.6922 4.85002 10.9961 4.05128 10.2186C3.38354 9.61164 2.76815 8.95635 2.21102 8.25891C1.77325 7.71093 1.37891 7.13393 1.03098 6.53248C0.771077 6.06994 0.550348 5.58911 0.370882 5.09441C0.238791 4.7318 0.138404 4.35979 0.0708055 3.98203C0.0185179 3.74038 -0.00490668 3.49407 0.00085278 3.2476C0.0108537 3.06936 0.0208742 2.96764 0.0208742 2.95084C0.0451865 2.8043 0.0923723 2.66188 0.160902 2.5281C0.229954 2.3991 0.321188 2.28151 0.430946 2.18001L2.54113 0.208145C2.60667 0.143102 2.68566 0.0911257 2.77333 0.055358C2.86099 0.0195904 2.95551 0.000773655 3.05118 4.07501e-05C3.18434 -0.00144803 3.31434 0.0378934 3.42121 0.112025C3.52541 0.190376 3.61632 0.28286 3.69114 0.386389L5.39137 3.39691C5.48478 3.5552 5.50977 3.74082 5.46132 3.91577C5.42561 4.09592 5.33131 4.26144 5.19127 4.38984L4.42131 5.11681C4.39588 5.14459 4.37554 5.17613 4.36124 5.21013C4.351 5.24651 4.34429 5.28368 4.34122 5.32118C4.4001 5.56912 4.49431 5.80859 4.62127 6.03322C4.79635 6.33453 4.99347 6.6242 5.2113 6.90017C5.55355 7.32067 5.93147 7.71482 6.3414 8.07881C6.73202 8.46494 7.15692 8.81957 7.61154 9.13893C7.90588 9.34734 8.21686 9.53453 8.54168 9.69886C8.72161 9.79181 8.913 9.86389 9.11168 9.91349L9.31177 9.95082C9.346 9.9474 9.37959 9.93987 9.41176 9.92842C9.44937 9.91935 9.4838 9.90135 9.51174 9.87616L10.4219 9.01668C10.6044 8.86034 10.8441 8.77519 11.0918 8.77871C11.2385 8.77258 11.384 8.8049 11.5119 8.87203H11.5319L14.6022 10.563C14.7003 10.6133 14.7859 10.6824 14.8532 10.7659C14.9204 10.8495 14.9678 10.9454 14.9922 11.0473Z" fill="#1745A0"/>
</svg>
