<?xml version="1.0" encoding="utf-8"?>
<!-- Generator: Adobe Illustrator 17.1.0, SVG Export Plug-In . SVG Version: 6.00 Build 0)  -->
<!DOCTYPE svg PUBLIC "-//W3C//DTD SVG 1.1//EN" "http://www.w3.org/Graphics/SVG/1.1/DTD/svg11.dtd">
<svg version="1.1" id="Слой_1" xmlns="http://www.w3.org/2000/svg" xmlns:xlink="http://www.w3.org/1999/xlink" x="0px" y="0px"
	 viewBox="0 0 30 30" enable-background="new 0 0 30 30" xml:space="preserve">
<g>
	<path fill="#3DAFC4" d="M12.5,30H2c-1.1,0-2-0.9-2-2V17.5c0-1.1,0.9-2,2-2h10.5c1.1,0,2,0.9,2,2V28C14.4,29.1,13.5,30,12.5,30z
		 M2,16.7c-0.4,0-0.8,0.4-0.8,0.8V28c0,0.4,0.4,0.8,0.8,0.8h10.5c0.4,0,0.8-0.4,0.8-0.8V17.5c0-0.4-0.4-0.8-0.8-0.8H2z"/>
	<path fill="#3DAFC4" d="M12.5,14.4H2c-1.1,0-2-0.9-2-2V2c0-1.1,0.9-2,2-2h10.5c1.1,0,2,0.9,2,2v0.5c0,0.3-0.3,0.6-0.6,0.6
		s-0.6-0.3-0.6-0.6V2c0-0.4-0.4-0.8-0.8-0.8H2C1.6,1.2,1.2,1.6,1.2,2v10.5c0,0.4,0.4,0.8,0.8,0.8h10.5c0.4,0,0.8-0.4,0.8-0.8V7.3
		c0-0.3,0.3-0.6,0.6-0.6s0.6,0.3,0.6,0.6v5.2C14.4,13.5,13.5,14.4,12.5,14.4z"/>
	<path fill="#3DAFC4" d="M13.8,5.4h-0.1h-0.1c0,0-0.1,0-0.1-0.1c0,0-0.1,0-0.1-0.1l-0.1-0.1c0,0,0-0.1-0.1-0.1V4.9V4.8V4.7V4.6
		c0,0,0-0.1,0.1-0.1c0,0,0-0.1,0.1-0.1l0.1-0.1c0,0,0.1,0,0.1-0.1h0.1c0.1,0,0.2,0,0.2,0H14c0,0,0.1,0,0.1,0.1c0,0,0.1,0,0.1,0.1
		l0.1,0.1c0,0,0,0.1,0.1,0.1v0.1v0.1v0.1V5c0,0,0,0.1-0.1,0.1c0,0,0,0.1-0.1,0.1l-0.1,0.1c0,0-0.1,0-0.1,0.1S13.9,5.4,13.8,5.4
		C13.9,5.3,13.9,5.4,13.8,5.4z"/>
	<path fill="#3DAFC4" d="M28,30H17.5c-1.1,0-2-0.9-2-2V17.5c0-1.1,0.9-2,2-2H28c1.1,0,2,0.9,2,2v5.2c0,0.3-0.3,0.6-0.6,0.6
		s-0.6-0.3-0.6-0.6v-5.2c0-0.4-0.4-0.8-0.8-0.8H17.5c-0.4,0-0.8,0.4-0.8,0.8V28c0,0.4,0.4,0.8,0.8,0.8H28c0.4,0,0.8-0.4,0.8-0.8
		v-0.5c0-0.3,0.3-0.6,0.6-0.6s0.6,0.3,0.6,0.6V28C30,29.1,29.1,30,28,30z"/>
	<path fill="#3DAFC4" d="M29.4,25.8c-0.2,0-0.3-0.1-0.4-0.2l-0.1-0.1c0,0,0-0.1-0.1-0.1v-0.1v-0.1c0-0.2,0.1-0.3,0.2-0.4
		c0.1-0.1,0.3-0.2,0.5-0.2h0.1c0,0,0.1,0,0.1,0.1c0,0,0.1,0,0.1,0.1c0.1,0.1,0.2,0.3,0.2,0.4v0.1v0.1c0,0,0,0.1-0.1,0.1
		c0,0,0,0.1-0.1,0.1s-0.1,0.1-0.1,0.1s-0.1,0-0.1,0.1H29.4C29.5,25.8,29.5,25.8,29.4,25.8z"/>
	<path fill="#3DAFC4" d="M28,14.4H17.5c-1.1,0-2-0.9-2-2V2c0-1.1,0.9-2,2-2H28c1.1,0,2,0.9,2,2v10.5C30,13.5,29.1,14.4,28,14.4z
		 M17.5,1.2c-0.4,0-0.8,0.4-0.8,0.8v10.5c0,0.4,0.4,0.8,0.8,0.8H28c0.4,0,0.8-0.4,0.8-0.8V2c0-0.4-0.4-0.8-0.8-0.8H17.5z"/>
	<path fill="#3DAFC4" d="M8.3,11.5H6c-0.3,0-0.6-0.3-0.6-0.6v-2h-2c-0.3,0-0.6-0.3-0.6-0.6V6c0-0.3,0.3-0.6,0.6-0.6h2v-2
		c0-0.3,0.3-0.6,0.6-0.6h2.3c0.3,0,0.6,0.3,0.6,0.6v2h2c0.3,0,0.6,0.3,0.6,0.6v2.3c0,0.3-0.3,0.6-0.6,0.6h-2v2
		C8.9,11.2,8.7,11.5,8.3,11.5z M6.7,10.3h1.1v-2c0-0.3,0.3-0.6,0.6-0.6h2V6.6h-2C8.1,6.6,7.8,6.3,7.8,6V4H6.7v2
		c0,0.3-0.3,0.6-0.6,0.6h-2v1.1h2c0.3,0,0.6,0.3,0.6,0.6V10.3z"/>
	<path fill="#3DAFC4" d="M8.9,26.7c-0.2,0-0.3-0.1-0.4-0.2l-1.4-1.4l-1.4,1.4c-0.2,0.2-0.6,0.2-0.8,0l-1.6-1.6
		c-0.1-0.1-0.2-0.3-0.2-0.4c0-0.2,0.1-0.3,0.2-0.4l1.4-1.4l-1.4-1.4c-0.2-0.2-0.2-0.6,0-0.8l1.6-1.6c0.1-0.1,0.3-0.2,0.4-0.2
		c0.1,0,0.3,0.1,0.4,0.2l1.4,1.4l1.4-1.4c0.1-0.1,0.3-0.2,0.4-0.2c0.2,0,0.3,0.1,0.4,0.2l1.6,1.6c0.2,0.2,0.2,0.6,0,0.8l-1.4,1.4
		l1.4,1.4c0.2,0.2,0.2,0.6,0,0.8l-1.6,1.6C9.2,26.6,9,26.7,8.9,26.7z M7.1,23.7c0.1,0,0.3,0.1,0.4,0.2l1.4,1.4l0.8-0.8l-1.4-1.4
		c-0.2-0.2-0.2-0.6,0-0.8l1.4-1.4l-0.8-0.8l-1.4,1.4c-0.1,0.1-0.3,0.2-0.4,0.2c-0.2,0-0.3-0.1-0.4-0.2l-1.4-1.4l-0.8,0.8l1.4,1.4
		c0.1,0.1,0.2,0.3,0.2,0.4S6,23,5.9,23.1l-1.4,1.4l0.8,0.8l1.4-1.4C6.8,23.7,6.9,23.7,7.1,23.7z"/>
	<path fill="#3DAFC4" d="M26.4,20.1h-7.3c-0.3,0-0.6,0.3-0.6,0.6v4.5c0,0.3,0.3,0.6,0.6,0.6h7.3c0.3,0,0.6-0.3,0.6-0.6v-4.5
		C27,20.4,26.8,20.1,26.4,20.1z M19.7,21.3h6.2v1.1h-6.2V21.3z M25.9,24.6h-6.2v-1.1h6.2V24.6z"/>
	<path fill="#3DAFC4" d="M26.4,9.2h-7.3c-0.3,0-0.6-0.3-0.6-0.6V6.3c0-0.3,0.3-0.6,0.6-0.6h7.3C26.7,5.7,27,6,27,6.3v2.3
		C27,8.9,26.8,9.2,26.4,9.2z M19.7,8h6.2V6.9h-6.2V8z"/>
</g>
</svg>
