<svg width="406" height="203" viewBox="0 0 406 203" fill="none" xmlns="http://www.w3.org/2000/svg">
<path d="M107.706 3.03027C108.271 3.03027 108.506 5.89958 108.412 11.6382C108.412 17.2827 108.318 23.821 108.129 31.2529C107.753 39.6257 107.565 46.7754 107.565 52.7021C107.565 58.4408 107.8 70.6235 108.271 89.2505C108.741 107.783 109.258 127.069 109.823 147.107C110.481 167.145 111.046 183.138 111.516 195.085C110.669 195.18 108.835 195.462 106.013 195.932C103.285 196.308 100.133 196.779 96.5581 197.343C91.5721 198.096 87.0094 198.754 82.8701 199.319C78.8249 199.883 76.52 200.166 75.9556 200.166C76.3319 186.619 76.52 173.354 76.52 160.372C76.6141 147.389 76.6141 136.523 76.52 127.774C76.52 119.025 76.52 114.651 76.52 114.651C76.52 114.651 74.6855 114.839 71.0166 115.215C67.3477 115.498 61.8442 116.438 54.5063 118.038C49.5203 119.167 44.2521 120.295 38.7017 121.424C33.2453 122.459 28.4945 123.259 24.4492 123.823C20.404 124.388 18.005 124.529 17.2524 124.247C16.688 123.87 15.418 122.882 13.4424 121.283C11.5609 119.59 9.53825 117.802 7.37451 115.921C5.21077 113.945 3.3763 112.346 1.87109 111.123C0.930339 110.276 0.365885 109.759 0.177734 109.571C-0.0104167 109.1 0.836263 106.137 2.71777 100.681C4.50521 95.1302 6.66895 88.7331 9.20898 81.4893C12.5016 72.0817 15.2298 63.9912 17.3936 57.2178C19.2751 51.3851 21.627 44.2354 24.4492 35.7686C27.2715 27.2077 29.8586 19.4935 32.2104 12.626C34.6564 5.66439 36.0205 1.71322 36.3027 0.772461C39.3132 2.46582 42.841 4.72363 46.8862 7.5459C50.9315 10.3682 54.5534 13.0023 57.752 15.4482C61.0446 17.8942 63.0672 19.4465 63.8198 20.105C60.6213 28.9481 55.9645 40.9427 49.8496 56.0889C46.8392 63.6149 44.064 70.9998 41.5239 78.2437C40.1128 81.9126 38.9368 85.0171 37.9961 87.5571C37.0553 90.0031 36.4438 91.4613 36.1616 91.9316C35.5031 92.7783 37.2435 92.6842 41.3828 91.6494C44.0169 91.085 47.4977 90.4264 51.8252 89.6738C55.4941 89.1094 59.5394 88.4979 63.9609 87.8394C68.3825 87.1808 72.1925 86.6164 75.3911 86.146C78.6838 85.5815 80.3301 85.2993 80.3301 85.2993C80.3301 85.2993 80.283 82.2419 80.189 76.127C80.189 69.918 80.0949 62.6271 79.9067 54.2544C79.6245 49.0802 79.2012 42.495 78.6367 34.4985C78.1663 26.408 77.696 19.3053 77.2256 13.1904C76.8493 8.11035 76.6611 5.38216 76.6611 5.00586C76.6611 4.72363 78.1663 4.48844 81.1768 4.30029C84.1872 4.01807 87.668 3.78288 91.6191 3.59473C95.5703 3.40658 99.1452 3.26546 102.344 3.17139C105.542 3.07731 107.33 3.03027 107.706 3.03027ZM230.762 3.03027C239.511 3.50065 246.755 8.2985 252.494 17.4238C258.326 26.5492 262.701 38.2145 265.617 52.4199C268.534 66.5312 270.039 81.4422 270.133 97.1528C270.415 120.766 268.628 141.274 264.771 158.678C261.007 175.988 253.528 187.983 242.333 194.662C231.609 200.024 221.543 202.517 212.135 202.141C202.728 201.765 195.672 200.918 190.968 199.601C190.216 199.413 189.557 199.272 188.993 199.178C183.819 198.237 178.221 196.873 172.2 195.085C166.273 193.298 161.382 190.805 157.524 187.606C153.385 182.997 150.092 176.082 147.646 166.863C145.201 157.643 143.46 147.907 142.425 137.652C141.39 127.304 140.873 118.132 140.873 110.135C140.779 102.045 140.967 91.9316 141.438 79.7959C141.908 67.5661 142.943 55.8066 144.542 44.5176C146.141 33.1344 148.587 24.6206 151.88 18.9761C155.831 12.8612 160.817 8.81592 166.838 6.84033C172.859 4.86475 179.679 3.50065 187.299 2.74805C190.592 2.37174 194.214 2.18359 198.165 2.18359C202.21 2.18359 207.62 2.27767 214.393 2.46582C218.909 2.65397 224.365 2.84212 230.762 3.03027ZM232.456 142.027C234.807 125.846 235.795 108.489 235.419 89.9561C235.137 71.4232 233.443 58.9582 230.339 52.561C227.14 47.575 221.872 43.859 214.534 41.4131C207.196 38.9671 199.905 38.826 192.662 40.9897C185.512 43.1535 180.432 48.6099 177.421 57.3589C175.069 76.174 174.082 93.625 174.458 109.712C174.458 114.51 174.411 119.214 174.317 123.823C174.035 134.077 175.164 142.732 177.704 149.788C180.338 156.844 185.042 161.171 191.815 162.771C192.285 162.959 192.803 163.1 193.367 163.194C198.165 164.417 203.245 165.169 208.607 165.452C214.064 165.64 219.003 164.135 223.424 160.936C227.846 157.643 230.856 151.34 232.456 142.027ZM402.079 3.03027C402.644 3.03027 402.879 5.89958 402.785 11.6382C402.785 17.2827 402.691 23.821 402.502 31.2529C402.126 39.6257 401.938 46.7754 401.938 52.7021C401.938 58.4408 402.173 70.6235 402.644 89.2505C403.114 107.783 403.631 127.069 404.196 147.107C404.854 167.145 405.419 183.138 405.889 195.085C405.042 195.18 403.208 195.462 400.386 195.932C397.658 196.308 394.506 196.779 390.931 197.343C385.945 198.096 381.382 198.754 377.243 199.319C373.198 199.883 370.893 200.166 370.329 200.166C370.705 186.619 370.893 173.354 370.893 160.372C370.987 147.389 370.987 136.523 370.893 127.774C370.893 119.025 370.893 114.651 370.893 114.651C370.893 114.651 369.059 114.839 365.39 115.215C361.721 115.498 356.217 116.438 348.879 118.038C343.893 119.167 338.625 120.295 333.075 121.424C327.618 122.459 322.868 123.259 318.822 123.823C314.777 124.388 312.378 124.529 311.625 124.247C311.061 123.87 309.791 122.882 307.815 121.283C305.934 119.59 303.911 117.802 301.748 115.921C299.584 113.945 297.749 112.346 296.244 111.123C295.303 110.276 294.739 109.759 294.551 109.571C294.363 109.1 295.209 106.137 297.091 100.681C298.878 95.1302 301.042 88.7331 303.582 81.4893C306.875 72.0817 309.603 63.9912 311.767 57.2178C313.648 51.3851 316 44.2354 318.822 35.7686C321.645 27.2077 324.232 19.4935 326.583 12.626C329.029 5.66439 330.394 1.71322 330.676 0.772461C333.686 2.46582 337.214 4.72363 341.259 7.5459C345.305 10.3682 348.926 13.0023 352.125 15.4482C355.418 17.8942 357.44 19.4465 358.193 20.105C354.994 28.9481 350.338 40.9427 344.223 56.0889C341.212 63.6149 338.437 70.9998 335.897 78.2437C334.486 81.9126 333.31 85.0171 332.369 87.5571C331.428 90.0031 330.817 91.4613 330.535 91.9316C329.876 92.7783 331.617 92.6842 335.756 91.6494C338.39 91.085 341.871 90.4264 346.198 89.6738C349.867 89.1094 353.912 88.4979 358.334 87.8394C362.756 87.1808 366.566 86.6164 369.764 86.146C373.057 85.5815 374.703 85.2993 374.703 85.2993C374.703 85.2993 374.656 82.2419 374.562 76.127C374.562 69.918 374.468 62.6271 374.28 54.2544C373.998 49.0802 373.574 42.495 373.01 34.4985C372.539 26.408 372.069 19.3053 371.599 13.1904C371.222 8.11035 371.034 5.38216 371.034 5.00586C371.034 4.72363 372.539 4.48844 375.55 4.30029C378.56 4.01807 382.041 3.78288 385.992 3.59473C389.943 3.40658 393.518 3.26546 396.717 3.17139C399.915 3.07731 401.703 3.03027 402.079 3.03027Z" fill="#C251C0"/>
</svg>
