<svg width="393" height="57" viewBox="0 0 393 57" fill="none" xmlns="http://www.w3.org/2000/svg">
<path d="M13.5205 1.41895C13.9502 1.67285 14.2871 2.71289 14.5312 4.53906C14.7852 6.36523 14.9512 8.46973 15.0293 10.8525C15.1074 13.2256 15.1074 15.3691 15.0293 17.2832C14.9512 19.1973 14.7998 20.3691 14.5752 20.7988C14.0088 21.5605 13.042 22.0977 11.6748 22.4102C10.3174 22.7227 8.85742 22.8789 7.29492 22.8789C5.73242 22.8887 4.36035 22.8154 3.17871 22.6592C1.99707 22.5029 1.30371 22.3467 1.09863 22.1904C0.483398 21.4971 0.146484 19.4023 0.0878906 15.9062C0.078125 15.3203 0.0878906 14.2754 0.117188 12.7715C0.15625 11.2578 0.224609 9.62207 0.322266 7.86426C0.419922 6.09668 0.561523 4.52441 0.74707 3.14746C0.932617 1.77051 1.17188 0.911133 1.46484 0.569336C1.71875 0.422852 2.63184 0.393555 4.2041 0.481445C5.77637 0.55957 7.4707 0.696289 9.28711 0.891602C11.1133 1.07715 12.5244 1.25293 13.5205 1.41895ZM11.0449 16.4336C11.0742 15.3984 11.04 13.9531 10.9424 12.0977C10.8545 10.2422 10.7471 8.81152 10.6201 7.80566C10.4932 6.90723 10.3369 6.15527 10.1514 5.5498C9.97559 4.93457 9.78027 4.56348 9.56543 4.43652C9.28223 4.30957 8.81836 4.24609 8.17383 4.24609C7.53906 4.24609 6.85547 4.28516 6.12305 4.36328C5.40039 4.44141 4.77051 4.5293 4.2334 4.62695C3.70605 4.72461 3.4082 4.79785 3.33984 4.84668C3.25195 4.9248 3.17871 5.07129 3.12012 5.28613C3.06152 5.49121 3.0127 5.71582 2.97363 5.95996C2.94434 6.2041 2.92969 6.41895 2.92969 6.60449C2.93945 6.78027 2.97363 6.87793 3.03223 6.89746C3.15918 6.94629 3.34961 7 3.60352 7.05859C3.93555 7.13672 4.2627 7.22461 4.58496 7.32227C4.90723 7.41016 5.1123 7.50293 5.2002 7.60059C5.22949 7.66895 5.23438 8.04492 5.21484 8.72852C5.19531 9.41211 5.16602 10.2764 5.12695 11.3213C5.07812 12.6396 5.03418 14.0068 4.99512 15.4229C4.96582 16.8389 4.96582 18.0547 4.99512 19.0703C5.02441 20.0762 5.1123 20.623 5.25879 20.7109C5.5127 20.7793 5.94727 20.8037 6.5625 20.7842C7.1875 20.7646 7.81738 20.7158 8.45215 20.6377C9.09668 20.5498 9.5752 20.4521 9.8877 20.3447C10.3076 20.1494 10.5957 19.6855 10.752 18.9531C10.918 18.2109 11.0156 17.3711 11.0449 16.4336ZM26.1514 6.60449C26.2295 6.59473 26.4785 6.59961 26.8984 6.61914C27.3281 6.62891 27.8115 6.64844 28.3486 6.67773C28.8857 6.69727 29.3643 6.72168 29.7842 6.75098C30.2139 6.78027 30.4678 6.80957 30.5459 6.83887C30.3408 9.78809 30.1895 12.2295 30.0918 14.1631C30.0039 16.0967 29.9307 18.5381 29.8721 21.4873C29.7549 21.5068 29.4766 21.5312 29.0371 21.5605C28.6074 21.5801 28.1289 21.6045 27.6016 21.6338C27.2305 21.6631 26.8887 21.6875 26.5762 21.707C26.2734 21.7168 26.0586 21.7314 25.9316 21.751C25.9219 21.5459 25.9121 21.3359 25.9023 21.1211C25.8926 20.9062 25.8828 20.7256 25.873 20.5791C25.8633 20.4229 25.8584 20.3447 25.8584 20.3447C25.8584 20.3447 25.6289 20.418 25.1699 20.5645C24.7207 20.7109 24.1738 20.877 23.5293 21.0625C22.8945 21.2383 22.2744 21.3945 21.6689 21.5312C21.0732 21.6582 20.6045 21.7217 20.2627 21.7217C19.667 21.6826 19.2178 21.2725 18.915 20.4912C18.6221 19.71 18.4316 18.6699 18.3438 17.3711C18.2559 15.9648 18.2168 14.1875 18.2266 12.0391C18.2363 9.88086 18.3242 8.05469 18.4902 6.56055C18.8027 6.59961 19.2568 6.67285 19.8525 6.78027C20.458 6.87793 21.0391 6.98047 21.5957 7.08789C22.1523 7.19531 22.5283 7.27344 22.7236 7.32227C22.6357 8.63086 22.5576 10.1836 22.4893 11.9805C22.4209 13.7773 22.3818 15.3789 22.3721 16.7852C22.3623 18.1816 22.3916 18.9287 22.46 19.0264C22.8213 18.9189 23.3389 18.7578 24.0127 18.543C24.6963 18.3184 25.3311 18.1084 25.917 17.9131C26.5127 17.7178 26.8545 17.6006 26.9424 17.5615C26.8447 16.3213 26.7129 14.6318 26.5469 12.4932C26.3906 10.3447 26.2588 8.38184 26.1514 6.60449ZM25.4189 0.979492C25.5459 0.989258 25.6924 1.06738 25.8584 1.21387C26.0342 1.36035 26.2051 1.52148 26.3711 1.69727C26.5371 1.87305 26.6641 2.01465 26.752 2.12207C26.8887 2.25879 26.9424 2.40039 26.9131 2.54688C26.8936 2.68359 26.752 2.87402 26.4883 3.11816C26.4102 3.18652 26.3223 3.26953 26.2246 3.36719C25.9512 3.63086 25.6484 3.91895 25.3164 4.23145C24.9941 4.53418 24.6963 4.79785 24.4229 5.02246C24.1494 5.24707 23.9736 5.35938 23.8955 5.35938C23.8076 5.35938 23.6953 5.31543 23.5586 5.22754C23.4219 5.13965 23.29 5.04199 23.1631 4.93457C23.0361 4.81738 22.9482 4.71973 22.8994 4.6416C22.8799 4.56348 22.9775 4.33887 23.1924 3.96777C23.4072 3.59668 23.6709 3.18164 23.9834 2.72266C24.3057 2.25391 24.6035 1.84863 24.877 1.50684C25.1504 1.16504 25.3311 0.989258 25.4189 0.979492ZM36.1309 0.789062C36.1992 0.720703 36.4141 0.686523 36.7754 0.686523C37.1367 0.686523 37.5469 0.71582 38.0059 0.774414C38.4648 0.823242 38.8701 0.896484 39.2217 0.994141C39.583 1.08203 39.7979 1.18457 39.8662 1.30176C39.876 1.92676 39.8613 2.9082 39.8223 4.24609C39.7832 5.58398 39.7393 6.99023 39.6904 8.46484C39.6514 9.61719 39.6172 10.6523 39.5879 11.5703C39.5586 12.4785 39.5439 13.123 39.5439 13.5039C39.5537 14.0703 39.5488 14.6904 39.5293 15.3643C39.5098 16.0283 39.4854 16.6143 39.4561 17.1221C39.4268 17.6201 39.3975 17.8691 39.3682 17.8691C39.3584 17.8691 39.2998 17.8691 39.1924 17.8691C39.0459 17.8691 38.8506 17.874 38.6064 17.8838C38.3721 17.8838 38.1279 17.8838 37.874 17.8838C37.6299 17.8838 37.4199 17.8838 37.2441 17.8838C37.0684 17.8838 36.9707 17.8789 36.9512 17.8691C36.9316 17.8496 36.9023 17.6885 36.8633 17.3857C36.8242 17.083 36.7803 16.707 36.7314 16.2578C36.6924 15.8086 36.6533 15.3398 36.6143 14.8516C36.585 14.4414 36.5312 13.5283 36.4531 12.1123C36.3848 10.6963 36.3115 9.13379 36.2334 7.4248C36.1553 5.71582 36.1016 4.22168 36.0723 2.94238C36.043 1.66309 36.0625 0.945313 36.1309 0.789062ZM39.7197 20.0811C39.7783 20.1201 39.793 20.2812 39.7637 20.5645C39.7441 20.8379 39.7002 21.1553 39.6318 21.5166C39.5732 21.8682 39.5098 22.1807 39.4414 22.4541C39.373 22.7373 39.3242 22.8984 39.2949 22.9375C39.2656 22.9668 39.1289 22.9668 38.8848 22.9375C38.6406 22.918 38.3574 22.8838 38.0352 22.835C37.7129 22.7861 37.415 22.7275 37.1416 22.6592C36.8779 22.6006 36.7021 22.5518 36.6143 22.5127C36.5459 22.4541 36.4922 22.3174 36.4531 22.1025C36.4141 21.8877 36.3848 21.6436 36.3652 21.3701C36.3555 21.0869 36.3506 20.8379 36.3506 20.623C36.3604 20.3984 36.3701 20.2568 36.3799 20.1982C36.3994 20.1396 36.502 20.0957 36.6875 20.0664C36.8828 20.0371 37.1123 20.0176 37.376 20.0078C37.6396 19.998 37.8887 19.9883 38.123 19.9785C38.1621 19.9785 38.2012 19.9785 38.2402 19.9785C38.2402 19.9785 38.3037 19.9785 38.4307 19.9785C38.5674 19.9785 38.7236 19.9834 38.8994 19.9932C39.0752 20.0029 39.2412 20.0127 39.3975 20.0225C39.5537 20.0322 39.6611 20.0518 39.7197 20.0811ZM61.5537 1.58008C63.1162 2.72266 64.3174 3.69434 65.1572 4.49512C64.21 5.46191 63.1113 6.62402 61.8613 7.98145C60.6113 9.3291 59.459 10.5352 58.4043 11.5996C58.9805 12.1953 59.6445 12.9082 60.3965 13.7383C61.1582 14.5586 61.9492 15.4277 62.7695 16.3457C63.5996 17.2539 64.3125 18.04 64.9082 18.7041C65.5137 19.3584 65.8164 19.6855 65.8164 19.6855L62.1396 22.7031C62.1396 22.7031 61.9736 22.4395 61.6416 21.9121C61.3096 21.3848 60.8994 20.7451 60.4111 19.9932C59.9229 19.2314 59.4297 18.4795 58.9316 17.7373C58.4336 16.9951 58.0039 16.3848 57.6426 15.9062C57.2812 15.4277 57.0615 15.2129 56.9834 15.2617C57.0811 16.3457 57.1738 17.3662 57.2617 18.3232C57.4277 19.9346 57.5596 21.3555 57.6572 22.5859C56.1045 22.8594 54.6494 23.0791 53.292 23.2451C53.2334 22.5713 53.1211 21.0381 52.9551 18.6455C52.7891 16.2432 52.6084 13.626 52.4131 10.7939C52.2764 8.75293 52.1494 6.89746 52.0322 5.22754C51.915 3.55762 51.8271 2.32227 51.7686 1.52148C51.9932 1.45312 52.4082 1.39453 53.0137 1.3457C53.6191 1.29688 54.2295 1.27246 54.8447 1.27246C55.4697 1.27246 55.9238 1.30664 56.207 1.375C56.0898 2.69336 55.9678 4.26074 55.8408 6.07715C55.7236 7.89355 55.6406 9.29492 55.5918 10.2812C56.4023 9.29492 57.3789 7.95215 58.5215 6.25293C59.6641 4.55371 60.6748 2.99609 61.5537 1.58008ZM69.834 6.79492C70.625 6.58984 71.7041 6.52637 73.0713 6.60449C74.4385 6.68262 75.7471 6.8584 76.9971 7.13184C78.2568 7.39551 79.1162 7.71289 79.5752 8.08398C79.6436 9.45117 79.7363 11.3848 79.8535 13.8848C79.9707 16.3848 80.0684 18.5088 80.1465 20.2568C80.166 20.667 80.1855 21.0088 80.2051 21.2822C79.9805 21.3311 79.6631 21.3848 79.2529 21.4434C78.8428 21.4922 78.4131 21.5459 77.9639 21.6045C77.5244 21.6533 77.1436 21.6924 76.8213 21.7217C76.499 21.7412 76.3135 21.7461 76.2646 21.7363C76.2939 21.4336 76.3135 21.082 76.3232 20.6816C76.3428 20.2812 76.3525 19.915 76.3525 19.583C76.1572 19.6514 75.8301 19.793 75.3711 20.0078C74.6289 20.3594 73.7451 20.7305 72.7197 21.1211C71.6943 21.5117 70.7471 21.7119 69.8779 21.7217C69.4971 21.6826 69.1846 21.3018 68.9404 20.5791C68.7061 19.8467 68.5449 18.9922 68.457 18.0156C68.3789 17.0391 68.3838 16.1602 68.4717 15.3789C68.5986 14.2363 68.8379 13.2939 69.1895 12.5518C69.541 11.7998 70.0977 11.3896 70.8594 11.3213C71.4551 11.292 72.2021 11.3408 73.1006 11.4678C74.0088 11.5947 74.8389 11.7217 75.5908 11.8486C75.9717 11.917 76.2793 11.9707 76.5137 12.0098C76.7578 12.0391 76.8945 12.0439 76.9238 12.0244C76.9629 11.9854 76.9873 11.8291 76.9971 11.5557C77.0166 11.2822 77.0215 10.9795 77.0117 10.6475C77.0117 10.3154 77.0117 10.042 77.0117 9.82715C76.7773 9.72949 76.3672 9.61719 75.7812 9.49023C75.2051 9.36328 74.6143 9.26074 74.0088 9.18262C73.4033 9.09473 72.9492 9.06055 72.6465 9.08008C72.6172 9.28516 72.5977 9.47559 72.5879 9.65137C72.5781 9.76855 72.5684 9.90527 72.5586 10.0615C72.5293 10.0811 72.334 10.0957 71.9727 10.1055C71.6211 10.1055 71.2109 10.0957 70.7422 10.0762C70.2734 10.0566 69.8535 10.0273 69.4824 9.98828C69.1211 9.94922 68.9209 9.89551 68.8818 9.82715C68.8428 9.70996 68.8379 9.43164 68.8672 8.99219C68.9062 8.54297 68.999 8.09375 69.1455 7.64453C69.3018 7.19531 69.5312 6.91211 69.834 6.79492ZM77.3779 17.1953C77.583 17.0195 77.7002 16.7314 77.7295 16.3311C77.7686 15.9307 77.7734 15.584 77.7441 15.291C77.7148 15.0566 77.4365 14.8711 76.9092 14.7344C76.3916 14.5879 75.7373 14.4902 74.9463 14.4414C73.7939 14.3828 73.0322 14.4854 72.6611 14.749C72.2998 15.0029 72.1094 15.335 72.0898 15.7451C72.0605 15.999 72.0459 16.3555 72.0459 16.8145C72.0557 17.2637 72.1143 17.6787 72.2217 18.0596C72.3389 18.4404 72.5391 18.6406 72.8223 18.6602C73.1543 18.6406 73.6475 18.5332 74.3018 18.3379C74.9561 18.1426 75.5859 17.9326 76.1914 17.708C76.8066 17.4736 77.2021 17.3027 77.3779 17.1953ZM92.1328 15.3936L92.0156 14.8955L91.6934 15.2178C91.6934 15.2178 91.4346 15.5156 90.917 16.1113C90.4092 16.707 89.8184 17.3906 89.1445 18.1621C88.4707 18.9238 87.8604 19.5928 87.3135 20.1689C86.7764 20.7451 86.4492 21.0479 86.332 21.0771C86.127 21.0576 85.873 20.9404 85.5703 20.7256C85.2773 20.5107 84.9795 20.2666 84.6768 19.9932C84.374 19.71 84.1201 19.4512 83.915 19.2168C83.71 18.9727 83.6074 18.8262 83.6074 18.7773C83.6953 18.6309 84.0322 18.2939 84.6182 17.7666C85.2139 17.2295 85.8877 16.6387 86.6396 15.9941C87.3916 15.3496 88.0508 14.7832 88.6172 14.2949C89.1934 13.7969 89.4814 13.5479 89.4814 13.5479C89.4814 13.5479 89.2227 13.3965 88.7051 13.0938C88.1973 12.791 87.5869 12.4297 86.874 12.0098C86.1611 11.5801 85.4727 11.1748 84.8086 10.7939C84.1445 10.4033 83.6367 10.1104 83.2852 9.91504C83.3535 9.41699 83.5586 8.83594 83.9004 8.17188C84.252 7.50781 84.6035 6.92676 84.9551 6.42871C85.3164 5.9209 85.5654 5.64258 85.7021 5.59375C85.8291 5.62305 86.21 5.93066 86.8447 6.5166C87.4795 7.10254 88.1924 7.78613 88.9834 8.56738C89.7744 9.33887 90.4727 10.0469 91.0781 10.6914C91.6934 11.3262 91.9961 11.6289 91.9863 11.5996C91.9766 11.5605 92.0547 11.4238 92.2207 11.1895L92.5283 10.9551L95.2676 12.376C95.3848 13.0303 95.4727 13.7041 95.5312 14.3975C95.5508 14.6318 95.5703 14.8564 95.5898 15.0713C95.3066 14.6416 95.043 14.3682 94.7988 14.251L92.6602 15.3496L92.1328 15.3936ZM101.728 6.23828C101.933 6.27734 102.172 6.41895 102.445 6.66309C102.729 6.89746 103.007 7.1709 103.28 7.4834C103.554 7.78613 103.778 8.06934 103.954 8.33301C104.14 8.58691 104.232 8.73828 104.232 8.78711C104.125 8.92383 103.749 9.23145 103.104 9.70996C102.47 10.1787 101.747 10.7012 100.937 11.2773C100.136 11.8438 99.4277 12.3467 98.8125 12.7861C98.1973 13.2158 97.8896 13.4307 97.8896 13.4307C97.8896 13.4307 98.1289 13.6064 98.6074 13.958C99.0859 14.3096 99.6572 14.7295 100.321 15.2178C100.995 15.7061 101.645 16.1748 102.27 16.624C102.895 17.0732 103.373 17.4102 103.705 17.6348C103.588 18.123 103.324 18.6846 102.914 19.3193C102.514 19.9443 102.108 20.4912 101.698 20.96C101.298 21.4287 101.029 21.6777 100.893 21.707C100.766 21.668 100.414 21.3262 99.8379 20.6816C99.2617 20.0371 98.6172 19.29 97.9043 18.4404C97.1914 17.5908 96.5615 16.8389 96.0146 16.1846C95.4775 15.5205 95.209 15.1885 95.209 15.1885C95.209 15.1885 95.2188 15.457 95.2383 15.9941C95.2676 16.5215 95.292 17.1465 95.3115 17.8691C95.3311 18.582 95.3457 19.2461 95.3555 19.8613C95.375 20.4668 95.3799 20.877 95.3701 21.0918C95.1748 21.1895 94.833 21.2871 94.3447 21.3848C93.8564 21.4824 93.3682 21.5605 92.8799 21.6191C92.4014 21.6777 92.0791 21.6924 91.9131 21.6631C91.874 21.3311 91.8594 20.2422 91.8691 18.3965C91.8789 16.5508 91.9033 14.4219 91.9424 12.0098C91.9814 9.58789 91.9912 7.80566 91.9717 6.66309C91.9619 5.52051 91.9863 4.58301 92.0449 3.85059C92.4648 3.89941 93.0068 3.98242 93.6709 4.09961C94.335 4.20703 94.9502 4.31445 95.5166 4.42188C96.083 4.51953 96.4248 4.58789 96.542 4.62695C96.4346 5.78906 96.3418 6.6582 96.2637 7.23438C96.1953 7.81055 96.1074 8.6748 96 9.82715C95.8926 10.9795 95.8389 11.5557 95.8389 11.5557C95.8389 11.5557 96.1221 11.2871 96.6885 10.75C97.2549 10.2031 97.9092 9.58301 98.6514 8.88965C99.3936 8.18652 100.062 7.57617 100.658 7.05859C101.254 6.53125 101.61 6.25781 101.728 6.23828ZM116.775 16.7559C116.932 17.3223 116.98 18.0156 116.922 18.8359C116.873 19.6465 116.717 20.2471 116.453 20.6377C116.18 20.8623 115.403 21.0674 114.124 21.2529C112.845 21.4385 111.502 21.5898 110.096 21.707C108.699 21.8242 107.806 21.8877 107.415 21.8975C107.093 21.8975 106.814 21.6387 106.58 21.1211C106.346 20.6035 106.15 19.9541 105.994 19.1729C105.838 18.3818 105.721 17.5811 105.643 16.7705C105.564 15.9307 105.54 14.9199 105.569 13.7383C105.599 12.5566 105.696 11.4434 105.862 10.3984C106.028 9.34375 106.272 8.59668 106.595 8.15723C107.083 7.63965 107.918 7.24902 109.1 6.98535C110.281 6.72168 111.585 6.5752 113.011 6.5459C114.446 6.50684 115.501 6.5752 116.175 6.75098C116.497 6.93652 116.702 7.43945 116.79 8.25977C116.878 9.08008 116.839 10.0029 116.673 11.0283C116.507 12.0439 116.194 12.9375 115.735 13.709C115.286 14.4805 114.676 14.9053 113.904 14.9834C111.639 15.0713 109.949 15.1055 108.836 15.0859C108.816 15.623 108.846 16.1699 108.924 16.7266C109.002 17.2832 109.09 17.7568 109.188 18.1475C109.285 18.5283 109.368 18.7285 109.437 18.748C109.905 18.5625 110.896 18.2891 112.41 17.9277C113.924 17.5566 115.379 17.166 116.775 16.7559ZM109.422 9.70996C108.992 9.77832 108.68 10.0518 108.484 10.5303C108.289 11.0088 108.201 11.4287 108.221 11.79C108.25 12.1416 108.377 12.3711 108.602 12.4785C108.816 12.5371 109.144 12.5811 109.583 12.6104C110.022 12.6299 110.472 12.6299 110.931 12.6104C111.39 12.5908 111.741 12.5469 111.985 12.4785C112.269 12.3711 112.479 12.1807 112.615 11.9072C112.762 11.624 112.84 11.3359 112.85 11.043C112.859 10.75 112.815 10.54 112.718 10.4131C112.542 10.2373 112.254 10.1006 111.854 10.0029C111.463 9.89551 111.028 9.81738 110.55 9.76855C110.081 9.70996 109.705 9.69043 109.422 9.70996ZM132.922 7.10254C133.732 6.7998 134.538 6.62891 135.339 6.58984C136.149 6.54102 136.696 6.73145 136.979 7.16113C137.146 7.5127 137.346 8.41602 137.58 9.87109C137.814 11.3262 138.044 12.9521 138.269 14.749C138.503 16.5361 138.684 18.1084 138.811 19.4658C138.947 20.8135 138.996 21.5508 138.957 21.6777C138.664 21.7461 137.844 21.79 136.496 21.8096C135.158 21.8193 134.377 21.7656 134.152 21.6484C134.133 21.5801 134.118 21.1943 134.108 20.4912C134.099 19.7881 134.089 18.9775 134.079 18.0596C134.06 16.8682 134.035 15.6328 134.006 14.3535C133.977 13.0645 133.933 11.9658 133.874 11.0576C133.825 10.1396 133.752 9.64648 133.654 9.57812C133.498 9.54883 133.205 9.62207 132.775 9.79785C132.346 9.97363 131.921 10.1689 131.501 10.3838C131.081 10.5986 130.793 10.7598 130.637 10.8672C130.666 11.3262 130.71 11.9854 130.769 12.8447C130.866 14.2998 130.964 15.833 131.062 17.4443C131.159 19.0459 131.228 20.4082 131.267 21.5312C131.179 21.6484 130.935 21.7412 130.534 21.8096C130.144 21.8682 129.528 21.8926 128.688 21.8828C127.858 21.873 127.404 21.8291 127.326 21.751C127.277 20.8623 127.253 19.5781 127.253 17.8984C127.253 16.2188 127.253 14.5635 127.253 12.9326C127.263 11.3018 127.272 10.1543 127.282 9.49023C126.843 9.64648 126.369 9.85645 125.861 10.1201C125.354 10.3838 124.899 10.6328 124.499 10.8672C124.108 11.1016 123.869 11.248 123.781 11.3066C123.859 12.8398 123.962 14.5195 124.089 16.3457C124.196 17.8594 124.274 19.1582 124.323 20.2422C124.382 21.3262 124.411 21.9072 124.411 21.9854L120.061 21.9561C120.061 21.5264 120.061 20.5254 120.061 18.9531C120.07 17.6445 120.085 16.1602 120.104 14.5C120.124 12.8398 120.144 11.3457 120.163 10.0176C120.183 8.68945 120.212 7.86914 120.251 7.55664C120.866 7.27344 121.613 7.03906 122.492 6.85352C123.371 6.6582 124.021 6.5459 124.44 6.5166C124.44 6.87793 124.411 7.44434 124.353 8.21582C124.978 7.72754 125.544 7.33691 126.052 7.04395C126.56 6.74121 126.994 6.58496 127.355 6.5752C128 6.5752 128.488 6.80957 128.82 7.27832C129.152 7.7373 129.318 8.36719 129.318 9.16797C129.611 8.97266 129.875 8.79688 130.109 8.64062C130.568 8.31836 130.998 8.04004 131.398 7.80566C131.799 7.57129 132.307 7.33691 132.922 7.10254ZM152.071 16.1553C152.179 16.1846 152.203 16.4629 152.145 16.9902C152.096 17.5078 151.964 18.1182 151.749 18.8213C151.544 19.5146 151.261 20.1396 150.899 20.6963C150.548 21.2432 150.128 21.5605 149.64 21.6484C148.614 21.6875 147.516 21.6582 146.344 21.5605C145.172 21.4629 144.132 21.2578 143.224 20.9453C142.628 20.418 142.237 19.5098 142.052 18.2207C141.876 16.9219 141.847 15.4961 141.964 13.9434C142.081 12.3906 142.296 10.9648 142.608 9.66602C142.921 8.35742 143.277 7.43457 143.678 6.89746C144.059 6.60449 144.815 6.52637 145.948 6.66309C147.081 6.7998 148.189 7.01953 149.273 7.32227C150.367 7.625 151.031 7.87891 151.266 8.08398C151.549 8.45508 151.705 8.9873 151.734 9.68066C151.773 10.3643 151.725 10.9014 151.588 11.292C151.49 11.3701 151.28 11.4336 150.958 11.4824C150.636 11.5312 150.279 11.5703 149.889 11.5996C149.508 11.6191 149.176 11.624 148.893 11.6143C148.609 11.5947 148.458 11.5605 148.438 11.5117C148.448 11.502 148.453 11.4971 148.453 11.4971C148.512 11.2627 148.565 10.9746 148.614 10.6328C148.673 10.291 148.658 10.0176 148.57 9.8125C148.395 9.51953 148.126 9.32422 147.765 9.22656C147.413 9.12891 147.047 9.13867 146.666 9.25586C146.197 9.46094 145.836 10.0713 145.582 11.0869C145.338 12.1025 145.206 13.2598 145.187 14.5586C145.177 15.8477 145.289 17.0195 145.523 18.0742C145.66 18.5527 145.929 18.8359 146.329 18.9238C146.739 19.0117 147.149 18.9727 147.56 18.8066C147.823 18.6699 148.023 18.4062 148.16 18.0156C148.307 17.625 148.419 17.2246 148.497 16.8145C148.536 16.668 148.57 16.5361 148.6 16.4189C149.01 16.3408 149.566 16.2773 150.27 16.2285C150.982 16.1699 151.583 16.1455 152.071 16.1553ZM163.442 11.8926C163.423 11.6484 163.403 11.4189 163.384 11.2041C163.345 11.0186 163.281 10.8184 163.193 10.6035C162.998 10.125 162.686 9.85156 162.256 9.7832C161.973 9.76367 161.685 9.7832 161.392 9.8418C161.099 9.89062 160.845 9.97852 160.63 10.1055C160.425 10.2324 160.234 10.3838 160.059 10.5596C159.961 10.6865 159.917 10.8965 159.927 11.1895C159.937 11.4824 160.01 11.7705 160.146 12.0537C160.293 12.3271 160.508 12.5176 160.791 12.625C161.035 12.6934 161.201 12.7275 161.289 12.7275C161.387 12.7178 161.655 12.7031 162.095 12.6836C162.534 12.6543 162.861 12.6104 163.076 12.5518C163.291 12.4443 163.413 12.2246 163.442 11.8926ZM162.886 7.05859C162.856 6.86328 162.832 6.65332 162.812 6.42871C162.93 6.38965 163.271 6.32129 163.838 6.22363C164.404 6.11621 165.059 6.0625 165.801 6.0625C166.553 6.0625 167.139 6.03809 167.559 5.98926C167.617 6.72168 167.637 7.65918 167.617 8.80176C167.607 9.93457 167.612 11.3701 167.632 13.1084C167.651 14.8369 167.666 16.624 167.676 18.4697C167.686 20.3154 167.671 21.4043 167.632 21.7363C167.466 21.7656 167.08 21.7754 166.475 21.7656C165.879 21.7559 165.396 21.7461 165.024 21.7363C164.653 21.7266 164.37 21.6729 164.175 21.5752C164.165 21.3604 164.165 21.0186 164.175 20.5498C164.194 20.0713 164.214 19.5977 164.233 19.1289C164.253 18.6602 164.268 18.3525 164.277 18.2061C164.277 18.0596 164.028 18.3379 163.53 19.041C163.032 19.7441 162.539 20.3984 162.051 21.0039C161.572 21.5996 161.113 22.1709 160.674 22.7178C160.234 23.2744 159.951 23.5723 159.824 23.6113C159.688 23.582 159.37 23.3574 158.872 22.9375C158.374 22.5176 157.876 22.0391 157.378 21.502C156.88 20.9551 156.572 20.4375 156.455 19.9492C156.787 19.7246 157.358 19.3193 158.169 18.7334C158.979 18.1475 159.512 17.7617 159.766 17.5762C160.029 17.3809 160.4 17.1074 160.879 16.7559C161.357 16.4043 161.938 15.916 162.622 15.291C162.671 15.252 162.715 15.208 162.754 15.1592C161.65 15.1787 160.356 15.1689 158.872 15.1299C158.101 15.0518 157.485 14.627 157.026 13.8555C156.577 13.084 156.27 12.1904 156.104 11.1748C155.938 10.1494 155.898 9.22656 155.986 8.40625C156.074 7.58594 156.279 7.08301 156.602 6.89746C157.275 6.72168 158.232 6.63867 159.473 6.64844C160.723 6.6582 161.851 6.79492 162.856 7.05859H162.886ZM174.169 19.6562C174.296 19.7246 174.389 19.915 174.447 20.2275C174.516 20.54 174.545 20.8672 174.535 21.209C174.535 21.5508 174.501 21.7998 174.433 21.9561C174.081 22.4932 173.671 22.957 173.202 23.3477C172.733 23.7383 172.304 24.0508 171.913 24.2852C171.757 24.373 171.601 24.3828 171.444 24.3145C171.298 24.2461 171.171 24.1436 171.063 24.0068C170.966 23.8799 170.922 23.7773 170.932 23.6992C170.951 23.6113 171.02 23.4893 171.137 23.333C171.254 23.1768 171.386 23.0156 171.532 22.8496C171.669 22.6836 171.791 22.5322 171.898 22.3955C172.006 22.2588 172.06 22.1611 172.06 22.1025C172.05 22.0439 172.025 22.0098 171.986 22C171.947 22 171.898 22.0049 171.84 22.0146C171.791 22.0244 171.737 22.0293 171.679 22.0293C171.63 22.0391 171.581 22.0391 171.532 22.0293C171.396 21.9512 171.278 21.7363 171.181 21.3848C171.093 21.0234 171.049 20.6621 171.049 20.3008C171.049 19.9395 171.122 19.7197 171.269 19.6416C171.552 19.5244 171.991 19.4561 172.587 19.4365C173.183 19.4072 173.71 19.4805 174.169 19.6562ZM186.038 15.1738C185.999 14.7344 185.955 14.2852 185.906 13.8262C185.75 12.0684 185.608 10.4766 185.481 9.05078C185.354 7.61523 185.306 6.80957 185.335 6.63379C186.673 6.46777 188.104 6.32129 189.627 6.19434C189.627 6.62402 189.627 7.12207 189.627 7.68848C189.617 9.75879 189.598 12.2588 189.568 15.1885C189.539 18.1084 189.476 20.9209 189.378 23.626C189.29 25.0029 188.895 25.9355 188.191 26.4238C187.488 26.9121 186.624 27.1123 185.599 27.0244C184.876 26.9756 183.948 26.7998 182.815 26.4971C181.683 26.2041 180.623 25.8818 179.637 25.5303C178.66 25.1787 178.035 24.8906 177.762 24.666C177.547 24.4219 177.41 24.0117 177.352 23.4355C177.293 22.8691 177.278 22.3174 177.308 21.7803C177.347 21.2334 177.405 20.8818 177.483 20.7256C177.552 20.6279 177.806 20.5645 178.245 20.5352C178.685 20.5059 179.188 20.501 179.754 20.5205C180.32 20.5303 180.833 20.5547 181.292 20.5938C181.751 20.623 182.039 20.6621 182.156 20.7109C182.117 21.1504 182.054 21.6289 181.966 22.1465C181.927 22.4102 181.893 22.6299 181.863 22.8057C181.883 22.9424 182.063 23.0938 182.405 23.2598C182.747 23.4258 183.177 23.5625 183.694 23.6699C184.222 23.7871 184.754 23.8457 185.291 23.8457C185.33 22.6934 185.35 21.541 185.35 20.3887C185.35 19.2363 185.35 18.4453 185.35 18.0156C185.35 17.957 185.35 17.9131 185.35 17.8838C184.539 18.1865 183.631 18.4941 182.625 18.8066C181.619 19.1191 180.667 19.3584 179.769 19.5244C179.251 19.5928 178.816 19.2852 178.465 18.6016C178.113 17.918 177.83 17.0293 177.615 15.9355C177.41 14.8418 177.249 13.7041 177.132 12.5225C177.024 11.3311 176.951 10.2617 176.912 9.31445C176.873 8.35742 176.849 7.68359 176.839 7.29297C177.103 7.20508 177.522 7.10742 178.099 7C178.675 6.88281 179.246 6.78516 179.812 6.70703C180.389 6.61914 180.794 6.58008 181.028 6.58984C181.116 8.46484 181.224 10.3936 181.351 12.376C181.438 13.7822 181.517 15.0859 181.585 16.2871C181.722 16.2578 181.941 16.209 182.244 16.1406C182.723 16.043 183.309 15.9111 184.002 15.7451C184.695 15.5791 185.374 15.3887 186.038 15.1738ZM207.564 14.6025C207.594 14.5928 207.628 14.583 207.667 14.5732C208.204 14.4951 208.766 14.3584 209.352 14.1631C209.947 13.9678 210.289 13.8506 210.377 13.8115C210.279 12.21 210.196 11.0674 210.128 10.3838C210.06 9.69043 209.972 8.45508 209.864 6.67773C209.942 6.66797 210.191 6.67285 210.611 6.69238C211.041 6.70215 211.524 6.72168 212.062 6.75098C212.599 6.77051 213.077 6.79492 213.497 6.82422C213.927 6.85352 214.181 6.88281 214.259 6.91211C214.054 9.86133 213.902 12.3027 213.805 14.2363C213.717 16.1699 213.644 18.6113 213.585 21.5605C213.468 21.5801 213.189 21.6045 212.75 21.6338C212.32 21.6533 211.842 21.6777 211.314 21.707C210.943 21.7363 210.602 21.7607 210.289 21.7803C209.986 21.79 209.771 21.8047 209.645 21.8242C209.635 21.6191 209.576 20.7744 209.469 19.29C209.371 17.7959 209.317 16.9756 209.308 16.8291C209.298 16.6729 209.293 16.5947 209.293 16.5947C209.293 16.5947 209.137 16.5996 208.824 16.6094C208.541 16.6191 208.121 16.6973 207.564 16.8438V14.6025ZM205.631 17.3711L205.558 17.8838C205.528 18.1182 205.533 18.2891 205.572 18.3965C205.592 19.2461 205.641 20.3789 205.719 21.7949C205.211 21.7949 204.654 21.7656 204.049 21.707C203.453 21.6387 202.926 21.5654 202.467 21.4873C202.008 21.4092 201.715 21.3457 201.588 21.2969C201.695 19.8516 201.861 18.0107 202.086 15.7744C202.262 12.7959 202.389 10.5742 202.467 9.10938C202.545 7.63477 202.604 6.81445 202.643 6.64844C203.307 6.69727 204.02 6.77051 204.781 6.86816C205.553 6.95605 206.124 7.03906 206.495 7.11719C206.476 7.33203 206.446 7.56152 206.407 7.80566C206.368 8.04004 206.363 9.14355 206.393 11.1162C206.432 13.0791 206.451 14.0605 206.451 14.0605C206.451 14.0605 206.451 14.4023 206.451 15.0859L205.675 16.8291L205.631 17.3711ZM205.88 14.5879C206.134 14.5488 206.52 14.5049 207.037 14.4561C207.438 14.4072 207.936 14.373 208.531 14.3535C208.766 14.3535 209.005 14.3633 209.249 14.3828V16.9463C208.585 16.9951 207.892 17.1025 207.169 17.2686C206.446 17.4443 205.636 17.6445 204.737 17.8691L205.88 14.5879ZM217.5 6.79492C218.291 6.58984 219.37 6.52637 220.737 6.60449C222.104 6.68262 223.413 6.8584 224.663 7.13184C225.923 7.39551 226.782 7.71289 227.241 8.08398C227.31 9.45117 227.402 11.3848 227.52 13.8848C227.637 16.3848 227.734 18.5088 227.812 20.2568C227.832 20.667 227.852 21.0088 227.871 21.2822C227.646 21.3311 227.329 21.3848 226.919 21.4434C226.509 21.4922 226.079 21.5459 225.63 21.6045C225.19 21.6533 224.81 21.6924 224.487 21.7217C224.165 21.7412 223.979 21.7461 223.931 21.7363C223.96 21.4336 223.979 21.082 223.989 20.6816C224.009 20.2812 224.019 19.915 224.019 19.583C223.823 19.6514 223.496 19.793 223.037 20.0078C222.295 20.3594 221.411 20.7305 220.386 21.1211C219.36 21.5117 218.413 21.7119 217.544 21.7217C217.163 21.6826 216.851 21.3018 216.606 20.5791C216.372 19.8467 216.211 18.9922 216.123 18.0156C216.045 17.0391 216.05 16.1602 216.138 15.3789C216.265 14.2363 216.504 13.2939 216.855 12.5518C217.207 11.7998 217.764 11.3896 218.525 11.3213C219.121 11.292 219.868 11.3408 220.767 11.4678C221.675 11.5947 222.505 11.7217 223.257 11.8486C223.638 11.917 223.945 11.9707 224.18 12.0098C224.424 12.0391 224.561 12.0439 224.59 12.0244C224.629 11.9854 224.653 11.8291 224.663 11.5557C224.683 11.2822 224.688 10.9795 224.678 10.6475C224.678 10.3154 224.678 10.042 224.678 9.82715C224.443 9.72949 224.033 9.61719 223.447 9.49023C222.871 9.36328 222.28 9.26074 221.675 9.18262C221.069 9.09473 220.615 9.06055 220.312 9.08008C220.283 9.28516 220.264 9.47559 220.254 9.65137C220.244 9.76855 220.234 9.90527 220.225 10.0615C220.195 10.0811 220 10.0957 219.639 10.1055C219.287 10.1055 218.877 10.0957 218.408 10.0762C217.939 10.0566 217.52 10.0273 217.148 9.98828C216.787 9.94922 216.587 9.89551 216.548 9.82715C216.509 9.70996 216.504 9.43164 216.533 8.99219C216.572 8.54297 216.665 8.09375 216.812 7.64453C216.968 7.19531 217.197 6.91211 217.5 6.79492ZM225.044 17.1953C225.249 17.0195 225.366 16.7314 225.396 16.3311C225.435 15.9307 225.439 15.584 225.41 15.291C225.381 15.0566 225.103 14.8711 224.575 14.7344C224.058 14.5879 223.403 14.4902 222.612 14.4414C221.46 14.3828 220.698 14.4854 220.327 14.749C219.966 15.0029 219.775 15.335 219.756 15.7451C219.727 15.999 219.712 16.3555 219.712 16.8145C219.722 17.2637 219.78 17.6787 219.888 18.0596C220.005 18.4404 220.205 18.6406 220.488 18.6602C220.82 18.6406 221.313 18.5332 221.968 18.3379C222.622 18.1426 223.252 17.9326 223.857 17.708C224.473 17.4736 224.868 17.3027 225.044 17.1953ZM240.722 16.1553C240.829 16.1846 240.854 16.4629 240.795 16.9902C240.746 17.5078 240.614 18.1182 240.399 18.8213C240.194 19.5146 239.911 20.1396 239.55 20.6963C239.198 21.2432 238.778 21.5605 238.29 21.6484C237.265 21.6875 236.166 21.6582 234.994 21.5605C233.822 21.4629 232.782 21.2578 231.874 20.9453C231.278 20.418 230.888 19.5098 230.702 18.2207C230.526 16.9219 230.497 15.4961 230.614 13.9434C230.731 12.3906 230.946 10.9648 231.259 9.66602C231.571 8.35742 231.928 7.43457 232.328 6.89746C232.709 6.60449 233.466 6.52637 234.599 6.66309C235.731 6.7998 236.84 7.01953 237.924 7.32227C239.018 7.625 239.682 7.87891 239.916 8.08398C240.199 8.45508 240.355 8.9873 240.385 9.68066C240.424 10.3643 240.375 10.9014 240.238 11.292C240.141 11.3701 239.931 11.4336 239.608 11.4824C239.286 11.5312 238.93 11.5703 238.539 11.5996C238.158 11.6191 237.826 11.624 237.543 11.6143C237.26 11.5947 237.108 11.5605 237.089 11.5117C237.099 11.502 237.104 11.4971 237.104 11.4971C237.162 11.2627 237.216 10.9746 237.265 10.6328C237.323 10.291 237.309 10.0176 237.221 9.8125C237.045 9.51953 236.776 9.32422 236.415 9.22656C236.063 9.12891 235.697 9.13867 235.316 9.25586C234.848 9.46094 234.486 10.0713 234.232 11.0869C233.988 12.1025 233.856 13.2598 233.837 14.5586C233.827 15.8477 233.939 17.0195 234.174 18.0742C234.311 18.5527 234.579 18.8359 234.979 18.9238C235.39 19.0117 235.8 18.9727 236.21 18.8066C236.474 18.6699 236.674 18.4062 236.811 18.0156C236.957 17.625 237.069 17.2246 237.147 16.8145C237.187 16.668 237.221 16.5361 237.25 16.4189C237.66 16.3408 238.217 16.2773 238.92 16.2285C239.633 16.1699 240.233 16.1455 240.722 16.1553ZM258.264 14.6025C258.293 14.5928 258.327 14.583 258.366 14.5732C258.903 14.4951 259.465 14.3584 260.051 14.1631C260.646 13.9678 260.988 13.8506 261.076 13.8115C260.979 12.21 260.896 11.0674 260.827 10.3838C260.759 9.69043 260.671 8.45508 260.563 6.67773C260.642 6.66797 260.891 6.67285 261.311 6.69238C261.74 6.70215 262.224 6.72168 262.761 6.75098C263.298 6.77051 263.776 6.79492 264.196 6.82422C264.626 6.85352 264.88 6.88281 264.958 6.91211C264.753 9.86133 264.602 12.3027 264.504 14.2363C264.416 16.1699 264.343 18.6113 264.284 21.5605C264.167 21.5801 263.889 21.6045 263.449 21.6338C263.02 21.6533 262.541 21.6777 262.014 21.707C261.643 21.7363 261.301 21.7607 260.988 21.7803C260.686 21.79 260.471 21.8047 260.344 21.8242C260.334 21.6191 260.275 20.7744 260.168 19.29C260.07 17.7959 260.017 16.9756 260.007 16.8291C259.997 16.6729 259.992 16.5947 259.992 16.5947C259.992 16.5947 259.836 16.5996 259.523 16.6094C259.24 16.6191 258.82 16.6973 258.264 16.8438V14.6025ZM256.33 17.3711L256.257 17.8838C256.228 18.1182 256.232 18.2891 256.271 18.3965C256.291 19.2461 256.34 20.3789 256.418 21.7949C255.91 21.7949 255.354 21.7656 254.748 21.707C254.152 21.6387 253.625 21.5654 253.166 21.4873C252.707 21.4092 252.414 21.3457 252.287 21.2969C252.395 19.8516 252.561 18.0107 252.785 15.7744C252.961 12.7959 253.088 10.5742 253.166 9.10938C253.244 7.63477 253.303 6.81445 253.342 6.64844C254.006 6.69727 254.719 6.77051 255.48 6.86816C256.252 6.95605 256.823 7.03906 257.194 7.11719C257.175 7.33203 257.146 7.56152 257.106 7.80566C257.067 8.04004 257.062 9.14355 257.092 11.1162C257.131 13.0791 257.15 14.0605 257.15 14.0605C257.15 14.0605 257.15 14.4023 257.15 15.0859L256.374 16.8291L256.33 17.3711ZM256.579 14.5879C256.833 14.5488 257.219 14.5049 257.736 14.4561C258.137 14.4072 258.635 14.373 259.23 14.3535C259.465 14.3535 259.704 14.3633 259.948 14.3828V16.9463C259.284 16.9951 258.591 17.1025 257.868 17.2686C257.146 17.4443 256.335 17.6445 255.437 17.8691L256.579 14.5879ZM277.955 16.7559C278.111 17.3223 278.16 18.0156 278.102 18.8359C278.053 19.6465 277.896 20.2471 277.633 20.6377C277.359 20.8623 276.583 21.0674 275.304 21.2529C274.024 21.4385 272.682 21.5898 271.275 21.707C269.879 21.8242 268.985 21.8877 268.595 21.8975C268.272 21.8975 267.994 21.6387 267.76 21.1211C267.525 20.6035 267.33 19.9541 267.174 19.1729C267.018 18.3818 266.9 17.5811 266.822 16.7705C266.744 15.9307 266.72 14.9199 266.749 13.7383C266.778 12.5566 266.876 11.4434 267.042 10.3984C267.208 9.34375 267.452 8.59668 267.774 8.15723C268.263 7.63965 269.098 7.24902 270.279 6.98535C271.461 6.72168 272.765 6.5752 274.19 6.5459C275.626 6.50684 276.681 6.5752 277.354 6.75098C277.677 6.93652 277.882 7.43945 277.97 8.25977C278.058 9.08008 278.019 10.0029 277.853 11.0283C277.687 12.0439 277.374 12.9375 276.915 13.709C276.466 14.4805 275.855 14.9053 275.084 14.9834C272.818 15.0713 271.129 15.1055 270.016 15.0859C269.996 15.623 270.025 16.1699 270.104 16.7266C270.182 17.2832 270.27 17.7568 270.367 18.1475C270.465 18.5283 270.548 18.7285 270.616 18.748C271.085 18.5625 272.076 18.2891 273.59 17.9277C275.104 17.5566 276.559 17.166 277.955 16.7559ZM270.602 9.70996C270.172 9.77832 269.859 10.0518 269.664 10.5303C269.469 11.0088 269.381 11.4287 269.4 11.79C269.43 12.1416 269.557 12.3711 269.781 12.4785C269.996 12.5371 270.323 12.5811 270.763 12.6104C271.202 12.6299 271.651 12.6299 272.11 12.6104C272.569 12.5908 272.921 12.5469 273.165 12.4785C273.448 12.3711 273.658 12.1807 273.795 11.9072C273.941 11.624 274.02 11.3359 274.029 11.043C274.039 10.75 273.995 10.54 273.897 10.4131C273.722 10.2373 273.434 10.1006 273.033 10.0029C272.643 9.89551 272.208 9.81738 271.729 9.76855C271.261 9.70996 270.885 9.69043 270.602 9.70996ZM289.312 19.1729C289.839 18.9385 290.181 18.46 290.337 17.7373C290.503 17.0049 290.566 16.3848 290.527 15.877C290.498 15.3691 290.425 15.0078 290.308 14.793C290.122 14.5391 289.658 14.4072 288.916 14.3975C288.184 14.3779 287.461 14.4707 286.748 14.6758C286.035 14.8809 285.488 15.2471 285.107 15.7744C284.98 15.9893 284.917 16.3311 284.917 16.7998C284.917 17.2588 284.976 17.6592 285.093 18.001C285.239 18.333 285.576 18.6113 286.104 18.8359C286.631 19.0508 287.197 19.1924 287.803 19.2607C288.408 19.3291 288.911 19.2998 289.312 19.1729ZM285.796 9.60742C285.806 9.64648 285.811 9.68555 285.811 9.72461C285.859 10.6621 285.884 11.2578 285.884 11.5117V11.8926H285.898C285.957 11.8633 286.411 11.6582 287.261 11.2773C288.179 10.877 289.404 10.7061 290.938 10.7646C292.236 10.9697 293.032 11.502 293.325 12.3613C293.628 13.2207 293.789 13.9482 293.809 14.5439C293.838 15.1396 293.867 15.8818 293.896 16.7705C293.936 17.6494 293.906 18.4795 293.809 19.2607C293.73 20.0127 293.491 20.6914 293.091 21.2969C292.69 21.9023 292.104 22.2881 291.333 22.4541C290.688 22.5518 290.068 22.5273 289.473 22.3809C288.877 22.2441 288.345 22.0537 287.876 21.8096C287.407 21.5654 287.036 21.3359 286.763 21.1211H286.748C286.738 21.1113 286.729 21.1064 286.719 21.1064V21.0918H286.704V21.0771C286.694 21.0771 286.689 21.0723 286.689 21.0625C286.523 20.9453 286.421 20.8672 286.382 20.8281C286.372 20.8281 286.367 20.8232 286.367 20.8135H286.353V20.8574C286.362 20.8965 286.372 20.9795 286.382 21.1064C286.392 21.3018 286.406 21.5508 286.426 21.8535C286.445 22.1562 286.465 22.4688 286.484 22.791C286.162 22.7617 285.718 22.6982 285.151 22.6006C284.585 22.5127 284.038 22.415 283.511 22.3076C282.993 22.2002 282.637 22.1172 282.441 22.0586C282.363 20.8281 282.188 17.4834 281.914 12.0244L281.724 9.3291C281.704 9.03613 281.65 8.41113 281.562 7.4541C281.465 6.73145 281.655 6.36035 282.134 6.34082L284.624 6.23828C286.763 6.15039 288.599 6.03809 290.132 5.90137C290.591 5.95996 290.898 6.5752 291.055 7.74707C291.211 8.90918 291.074 9.50488 290.645 9.53418C289.883 9.54395 288.706 9.57812 287.114 9.63672C286.733 9.62695 286.294 9.61719 285.796 9.60742ZM303.437 6.47266C303.925 6.52148 304.506 6.63867 305.18 6.82422C305.863 7 306.493 7.25391 307.069 7.58594C307.646 7.91797 308.021 8.34277 308.197 8.86035C308.363 9.48535 308.49 10.6133 308.578 12.2441C308.676 13.875 308.7 15.4717 308.651 17.0342C308.612 18.5967 308.471 19.583 308.227 19.9932C307.846 20.4229 307.03 20.7939 305.78 21.1064C304.54 21.4092 303.246 21.6045 301.898 21.6924C300.561 21.7705 299.545 21.6924 298.852 21.458C298.217 21.1748 297.729 20.4717 297.387 19.3486C297.055 18.2256 296.845 16.9072 296.757 15.3936C296.679 13.8799 296.708 12.4053 296.845 10.9697C296.981 9.53418 297.216 8.3623 297.548 7.4541C297.724 7.06348 298.153 6.79004 298.837 6.63379C299.521 6.46777 300.287 6.37988 301.137 6.37012C301.986 6.36035 302.753 6.39453 303.437 6.47266ZM304.579 18.1328C304.784 17.8887 304.936 17.3809 305.033 16.6094C305.141 15.8281 305.204 14.8125 305.224 13.5625C305.243 12.3027 305.219 11.3311 305.15 10.6475C305.092 9.96387 304.994 9.58789 304.857 9.51953C304.447 9.41211 303.881 9.36816 303.158 9.3877C302.445 9.40723 301.767 9.49023 301.122 9.63672C300.487 9.7832 300.072 9.96875 299.877 10.1934C299.789 10.3301 299.74 10.7939 299.73 11.585C299.73 12.3662 299.779 13.4111 299.877 14.7197C299.975 16.0283 300.141 17.0439 300.375 17.7666C300.619 18.4893 300.941 18.8555 301.342 18.8652C301.508 18.8555 301.82 18.8164 302.279 18.748C302.738 18.6699 303.197 18.582 303.656 18.4844C304.115 18.3867 304.423 18.2695 304.579 18.1328ZM317.342 9.49023C317.166 10.623 316.946 12.0977 316.683 13.9141C316.429 15.7207 316.194 17.3906 315.979 18.9238C315.774 20.457 315.652 21.3701 315.613 21.6631C315.574 21.7607 315.369 21.7803 314.998 21.7217C314.627 21.6533 314.192 21.541 313.694 21.3848C313.206 21.2285 312.757 21.0576 312.347 20.8721C311.946 20.6865 311.697 20.5156 311.6 20.3594C311.658 20.1641 311.814 19.6221 312.068 18.7334C312.332 17.835 312.605 16.8535 312.889 15.7891C313.172 14.7246 313.392 13.8457 313.548 13.1523C313.694 12.4492 313.885 11.5605 314.119 10.4863C314.363 9.41211 314.588 8.44531 314.793 7.58594C315.008 6.7168 315.145 6.24316 315.203 6.16504C315.652 6.18457 316.277 6.21387 317.078 6.25293C317.879 6.29199 318.597 6.33594 319.231 6.38477C319.339 6.61914 319.51 7 319.744 7.52734C320.242 8.66016 320.867 10.0811 321.619 11.79C322.381 13.499 323.094 15.1006 323.758 16.5947C324.422 18.0791 324.861 19.0508 325.076 19.5098C324.686 19.7637 324.222 20.0371 323.685 20.3301C323.147 20.6133 322.64 20.8623 322.161 21.0771C321.683 21.2822 321.355 21.3848 321.18 21.3848C320.945 20.8086 320.53 19.583 319.935 17.708C319.339 15.8232 318.758 13.9824 318.191 12.1855C317.811 10.9746 317.527 10.0762 317.342 9.49023ZM338.879 21.707C337.658 21.8926 336.286 21.9609 334.763 21.9121C333.239 21.8535 331.809 21.6777 330.471 21.3848C329.143 21.0918 328.352 20.6523 328.098 20.0664C328 19.7344 327.883 18.9971 327.746 17.8545C327.619 16.7119 327.561 15.4668 327.57 14.1191C327.59 12.7715 327.58 11.2578 327.541 9.57812C327.512 7.88867 327.57 6.91699 327.717 6.66309C327.756 6.63379 327.951 6.61914 328.303 6.61914C328.664 6.61914 329.094 6.62891 329.592 6.64844C330.1 6.6582 330.588 6.67773 331.057 6.70703C331.525 6.73633 331.896 6.77051 332.17 6.80957C331.926 8.68457 331.74 10.3838 331.613 11.9072C332.678 11.8486 333.811 11.8145 335.012 11.8047C336.223 11.7949 337.277 11.873 338.176 12.0391C339.064 12.1758 339.758 12.5518 340.256 13.167C340.754 13.7822 341.13 14.9248 341.384 16.5947C341.657 17.9229 341.618 19.0557 341.267 19.9932C340.925 20.9209 340.129 21.4922 338.879 21.707ZM336.403 15.3496C335.915 15.1152 335.246 14.959 334.396 14.8809C333.557 14.8027 332.775 14.8076 332.053 14.8955C331.33 14.9736 330.915 15.1494 330.808 15.4229C330.671 15.9404 330.632 16.4629 330.69 16.9902C330.759 17.5176 330.969 18.0156 331.32 18.4844C331.535 18.6992 331.965 18.8164 332.609 18.8359C333.264 18.8457 333.942 18.8018 334.646 18.7041C335.349 18.5967 335.9 18.4746 336.301 18.3379C336.73 18.1523 336.989 17.8838 337.077 17.5322C337.165 17.1807 337.136 16.7656 336.989 16.2871C336.853 15.8086 336.657 15.4961 336.403 15.3496ZM349.737 22.1465C348.927 22.4492 348.116 22.6201 347.306 22.6592C346.505 22.708 345.963 22.5176 345.68 22.0879C345.514 21.7363 345.313 20.833 345.079 19.3779C344.845 17.9229 344.61 16.3018 344.376 14.5146C344.151 12.7178 343.971 11.1455 343.834 9.79785C343.707 8.44043 343.663 7.69824 343.702 7.57129C343.995 7.50293 344.811 7.46387 346.148 7.4541C347.496 7.43457 348.282 7.4834 348.507 7.60059C348.526 7.66895 348.541 8.05469 348.551 8.75781C348.561 9.46094 348.57 10.2715 348.58 11.1895C348.6 12.3809 348.624 13.6211 348.653 14.9102C348.683 16.1895 348.722 17.2881 348.771 18.2061C348.829 19.1143 348.907 19.6025 349.005 19.6709C349.161 19.7002 349.454 19.627 349.884 19.4512C350.313 19.2754 350.738 19.0801 351.158 18.8652C351.578 18.6504 351.866 18.4893 352.022 18.3818C351.993 17.9229 351.949 17.2637 351.891 16.4043C351.793 14.9492 351.695 13.4209 351.598 11.8193C351.5 10.208 351.432 8.84082 351.393 7.71777C351.48 7.60059 351.72 7.5127 352.11 7.4541C352.511 7.38574 353.126 7.35645 353.956 7.36621C354.796 7.37598 355.255 7.41992 355.333 7.49805C355.382 8.38672 355.406 9.6709 355.406 11.3506C355.406 13.0303 355.401 14.6855 355.392 16.3164C355.392 17.9473 355.387 19.0947 355.377 19.7588C355.816 19.6025 356.29 19.3926 356.798 19.1289C357.306 18.8652 357.755 18.6162 358.146 18.3818C358.546 18.1475 358.79 18.001 358.878 17.9424C358.8 16.4092 358.697 14.7295 358.57 12.9033C358.463 11.3896 358.38 10.0908 358.321 9.00684C358.272 7.92285 358.248 7.3418 358.248 7.26367L362.599 7.29297C362.599 7.72266 362.599 8.72363 362.599 10.2959C362.589 11.6045 362.574 13.0889 362.555 14.749C362.535 16.4092 362.516 17.9033 362.496 19.2314C362.477 20.5596 362.447 21.3799 362.408 21.6924C361.793 21.9756 361.046 22.21 360.167 22.3955C359.288 22.5908 358.639 22.7031 358.219 22.7324C358.219 22.3711 358.248 21.8047 358.307 21.0332C357.682 21.5215 357.115 21.9121 356.607 22.2051C356.1 22.5078 355.665 22.6641 355.304 22.6738C354.659 22.6738 354.171 22.4443 353.839 21.9854C353.507 21.5166 353.341 20.8818 353.341 20.0811C353.048 20.2764 352.784 20.4521 352.55 20.6084C352.091 20.9307 351.661 21.209 351.261 21.4434C350.86 21.6777 350.353 21.9121 349.737 22.1465ZM373.647 6.60449C373.726 6.59473 373.975 6.59961 374.395 6.61914C374.824 6.62891 375.308 6.64844 375.845 6.67773C376.382 6.69727 376.86 6.72168 377.28 6.75098C377.71 6.78027 377.964 6.80957 378.042 6.83887C377.837 9.78809 377.686 12.2295 377.588 14.1631C377.5 16.0967 377.427 18.5381 377.368 21.4873C377.251 21.5068 376.973 21.5312 376.533 21.5605C376.104 21.5801 375.625 21.6045 375.098 21.6338C374.727 21.6631 374.385 21.6875 374.072 21.707C373.77 21.7168 373.555 21.7314 373.428 21.751C373.418 21.5459 373.408 21.3359 373.398 21.1211C373.389 20.9062 373.379 20.7256 373.369 20.5791C373.359 20.4229 373.354 20.3447 373.354 20.3447C373.354 20.3447 373.125 20.418 372.666 20.5645C372.217 20.7109 371.67 20.877 371.025 21.0625C370.391 21.2383 369.771 21.3945 369.165 21.5312C368.569 21.6582 368.101 21.7217 367.759 21.7217C367.163 21.6826 366.714 21.2725 366.411 20.4912C366.118 19.71 365.928 18.6699 365.84 17.3711C365.752 15.9648 365.713 14.1875 365.723 12.0391C365.732 9.88086 365.82 8.05469 365.986 6.56055C366.299 6.59961 366.753 6.67285 367.349 6.78027C367.954 6.87793 368.535 6.98047 369.092 7.08789C369.648 7.19531 370.024 7.27344 370.22 7.32227C370.132 8.63086 370.054 10.1836 369.985 11.9805C369.917 13.7773 369.878 15.3789 369.868 16.7852C369.858 18.1816 369.888 18.9287 369.956 19.0264C370.317 18.9189 370.835 18.7578 371.509 18.543C372.192 18.3184 372.827 18.1084 373.413 17.9131C374.009 17.7178 374.351 17.6006 374.438 17.5615C374.341 16.3213 374.209 14.6318 374.043 12.4932C373.887 10.3447 373.755 8.38184 373.647 6.60449ZM391.889 16.7559C392.045 17.3223 392.094 18.0156 392.035 18.8359C391.986 19.6465 391.83 20.2471 391.566 20.6377C391.293 20.8623 390.517 21.0674 389.237 21.2529C387.958 21.4385 386.615 21.5898 385.209 21.707C383.812 21.8242 382.919 21.8877 382.528 21.8975C382.206 21.8975 381.928 21.6387 381.693 21.1211C381.459 20.6035 381.264 19.9541 381.107 19.1729C380.951 18.3818 380.834 17.5811 380.756 16.7705C380.678 15.9307 380.653 14.9199 380.683 13.7383C380.712 12.5566 380.81 11.4434 380.976 10.3984C381.142 9.34375 381.386 8.59668 381.708 8.15723C382.196 7.63965 383.031 7.24902 384.213 6.98535C385.395 6.72168 386.698 6.5752 388.124 6.5459C389.56 6.50684 390.614 6.5752 391.288 6.75098C391.61 6.93652 391.815 7.43945 391.903 8.25977C391.991 9.08008 391.952 10.0029 391.786 11.0283C391.62 12.0439 391.308 12.9375 390.849 13.709C390.399 14.4805 389.789 14.9053 389.018 14.9834C386.752 15.0713 385.062 15.1055 383.949 15.0859C383.93 15.623 383.959 16.1699 384.037 16.7266C384.115 17.2832 384.203 17.7568 384.301 18.1475C384.398 18.5283 384.481 18.7285 384.55 18.748C385.019 18.5625 386.01 18.2891 387.523 17.9277C389.037 17.5566 390.492 17.166 391.889 16.7559ZM384.535 9.70996C384.105 9.77832 383.793 10.0518 383.598 10.5303C383.402 11.0088 383.314 11.4287 383.334 11.79C383.363 12.1416 383.49 12.3711 383.715 12.4785C383.93 12.5371 384.257 12.5811 384.696 12.6104C385.136 12.6299 385.585 12.6299 386.044 12.6104C386.503 12.5908 386.854 12.5469 387.099 12.4785C387.382 12.3711 387.592 12.1807 387.729 11.9072C387.875 11.624 387.953 11.3359 387.963 11.043C387.973 10.75 387.929 10.54 387.831 10.4131C387.655 10.2373 387.367 10.1006 386.967 10.0029C386.576 9.89551 386.142 9.81738 385.663 9.76855C385.194 9.70996 384.818 9.69043 384.535 9.70996ZM12.9199 37.1025C13.7305 36.7998 14.5361 36.6289 15.3369 36.5898C16.1475 36.541 16.6943 36.7314 16.9775 37.1611C17.1436 37.5127 17.3438 38.416 17.5781 39.8711C17.8125 41.3262 18.042 42.9521 18.2666 44.749C18.501 46.5361 18.6816 48.1084 18.8086 49.4658C18.9453 50.8135 18.9941 51.5508 18.9551 51.6777C18.6621 51.7461 17.8418 51.79 16.4941 51.8096C15.1563 51.8193 14.375 51.7656 14.1504 51.6484C14.1309 51.5801 14.1162 51.1943 14.1064 50.4912C14.0967 49.7881 14.0869 48.9775 14.0771 48.0596C14.0576 46.8682 14.0332 45.6328 14.0039 44.3535C13.9746 43.0645 13.9307 41.9658 13.8721 41.0576C13.8232 40.1396 13.75 39.6465 13.6523 39.5781C13.4961 39.5488 13.2031 39.6221 12.7734 39.7979C12.3438 39.9736 11.9189 40.1689 11.499 40.3838C11.0791 40.5986 10.791 40.7598 10.6348 40.8672C10.6641 41.3262 10.708 41.9854 10.7666 42.8447C10.8643 44.2998 10.9619 45.833 11.0596 47.4443C11.1572 49.0459 11.2256 50.4082 11.2646 51.5312C11.1768 51.6484 10.9326 51.7412 10.5322 51.8096C10.1416 51.8682 9.52637 51.8926 8.68652 51.8828C7.85645 51.873 7.40234 51.8291 7.32422 51.751C7.27539 50.8623 7.25098 49.5781 7.25098 47.8984C7.25098 46.2188 7.25098 44.5635 7.25098 42.9326C7.26074 41.3018 7.27051 40.1543 7.28027 39.4902C6.84082 39.6465 6.36719 39.8564 5.85938 40.1201C5.35156 40.3838 4.89746 40.6328 4.49707 40.8672C4.10645 41.1016 3.86719 41.248 3.7793 41.3066C3.85742 42.8398 3.95996 44.5195 4.08691 46.3457C4.19434 47.8594 4.27246 49.1582 4.32129 50.2422C4.37988 51.3262 4.40918 51.9072 4.40918 51.9854L0.0585938 51.9561C0.0585938 51.5264 0.0585938 50.5254 0.0585938 48.9531C0.0683594 47.6445 0.0830078 46.1602 0.102539 44.5C0.12207 42.8398 0.141602 41.3457 0.161133 40.0176C0.180664 38.6895 0.209961 37.8691 0.249023 37.5566C0.864258 37.2734 1.61133 37.0391 2.49023 36.8535C3.36914 36.6582 4.01855 36.5459 4.43848 36.5166C4.43848 36.8779 4.40918 37.4443 4.35059 38.2158C4.97559 37.7275 5.54199 37.3369 6.0498 37.0439C6.55762 36.7412 6.99219 36.585 7.35352 36.5752C7.99805 36.5752 8.48633 36.8096 8.81836 37.2783C9.15039 37.7373 9.31641 38.3672 9.31641 39.168C9.60938 38.9727 9.87305 38.7969 10.1074 38.6406C10.5664 38.3184 10.9961 38.04 11.3965 37.8057C11.7969 37.5713 12.3047 37.3369 12.9199 37.1025ZM33.0801 46.7559C33.2363 47.3223 33.2852 48.0156 33.2266 48.8359C33.1777 49.6465 33.0215 50.2471 32.7578 50.6377C32.4844 50.8623 31.708 51.0674 30.4287 51.2529C29.1494 51.4385 27.8066 51.5898 26.4004 51.707C25.0039 51.8242 24.1104 51.8877 23.7197 51.8975C23.3975 51.8975 23.1191 51.6387 22.8848 51.1211C22.6504 50.6035 22.4551 49.9541 22.2988 49.1729C22.1426 48.3818 22.0254 47.5811 21.9473 46.7705C21.8691 45.9307 21.8447 44.9199 21.874 43.7383C21.9033 42.5566 22.001 41.4434 22.167 40.3984C22.333 39.3438 22.5771 38.5967 22.8994 38.1572C23.3877 37.6396 24.2227 37.249 25.4043 36.9854C26.5859 36.7217 27.8896 36.5752 29.3154 36.5459C30.751 36.5068 31.8057 36.5752 32.4795 36.751C32.8018 36.9365 33.0068 37.4395 33.0947 38.2598C33.1826 39.0801 33.1436 40.0029 32.9775 41.0283C32.8115 42.0439 32.499 42.9375 32.04 43.709C31.5908 44.4805 30.9805 44.9053 30.209 44.9834C27.9434 45.0713 26.2539 45.1055 25.1406 45.0859C25.1211 45.623 25.1504 46.1699 25.2285 46.7266C25.3066 47.2832 25.3945 47.7568 25.4922 48.1475C25.5898 48.5283 25.6729 48.7285 25.7412 48.748C26.21 48.5625 27.2012 48.2891 28.7148 47.9277C30.2285 47.5566 31.6836 47.166 33.0801 46.7559ZM25.7266 39.71C25.2969 39.7783 24.9844 40.0518 24.7891 40.5303C24.5938 41.0088 24.5059 41.4287 24.5254 41.79C24.5547 42.1416 24.6816 42.3711 24.9062 42.4785C25.1211 42.5371 25.4482 42.5811 25.8877 42.6104C26.3271 42.6299 26.7764 42.6299 27.2354 42.6104C27.6943 42.5908 28.0459 42.5469 28.29 42.4785C28.5732 42.3711 28.7832 42.1807 28.9199 41.9072C29.0664 41.624 29.1445 41.3359 29.1543 41.043C29.1641 40.75 29.1201 40.54 29.0225 40.4131C28.8467 40.2373 28.5586 40.1006 28.1582 40.0029C27.7676 39.8955 27.333 39.8174 26.8545 39.7686C26.3857 39.71 26.0098 39.6904 25.7266 39.71ZM45.7842 43.7676C46.9365 44.6758 48.084 45.5693 49.2266 46.4482C50.3691 47.3271 51.1895 47.957 51.6875 48.3379C51.7363 48.3965 51.6436 48.6064 51.4092 48.9678C51.1846 49.3291 50.8965 49.7393 50.5449 50.1982C50.2031 50.6475 49.8809 51.0527 49.5781 51.4141C49.2754 51.7656 49.0801 51.9658 48.9922 52.0146C48.0938 50.999 47.127 49.8857 46.0918 48.6748C45.0566 47.4639 44.1973 46.4385 43.5137 45.5986C43.3086 45.9404 42.7471 46.7461 41.8291 48.0156C40.9209 49.2852 40.0957 50.4326 39.3535 51.458C39.2266 51.3896 38.9824 51.2041 38.6211 50.9014C38.2695 50.5889 37.8789 50.2373 37.4492 49.8467C37.0195 49.4463 36.6387 49.085 36.3066 48.7627C35.9746 48.4404 35.7793 48.2354 35.7207 48.1475C36.5801 47.2197 37.415 46.3311 38.2256 45.4814C39.3975 44.2607 40.4863 43.1377 41.4922 42.1123C40.0957 40.6768 38.7432 39.2461 37.4346 37.8203C38.5088 36.9023 39.7051 36.082 41.0234 35.3594C41.668 36.2285 42.3369 37.1416 43.0303 38.0986C43.5186 38.7822 43.9629 39.3975 44.3633 39.9443C44.9102 39.4072 45.4131 38.9092 45.8721 38.4502C46.3311 37.9912 46.8633 37.459 47.4688 36.8535C47.5469 36.7656 47.6299 36.6777 47.7178 36.5898C47.8057 36.6387 47.9912 36.79 48.2744 37.0439C48.5674 37.2881 48.8945 37.5762 49.2559 37.9082C49.627 38.2305 49.959 38.5283 50.252 38.8018C50.5449 39.0654 50.7305 39.2363 50.8086 39.3145C49.6562 40.3301 48.6846 41.1895 47.8936 41.8926C47.249 42.4688 46.5459 43.0938 45.7842 43.7676ZM59.9824 44.6025C60.0117 44.5928 60.0459 44.583 60.085 44.5732C60.6221 44.4951 61.1836 44.3584 61.7695 44.1631C62.3652 43.9678 62.707 43.8506 62.7949 43.8115C62.6973 42.21 62.6143 41.0674 62.5459 40.3838C62.4775 39.6904 62.3896 38.4551 62.2822 36.6777C62.3604 36.668 62.6094 36.6729 63.0293 36.6924C63.459 36.7021 63.9424 36.7217 64.4795 36.751C65.0166 36.7705 65.4951 36.7949 65.915 36.8242C66.3447 36.8535 66.5986 36.8828 66.6768 36.9121C66.4717 39.8613 66.3203 42.3027 66.2227 44.2363C66.1348 46.1699 66.0615 48.6113 66.0029 51.5605C65.8857 51.5801 65.6074 51.6045 65.168 51.6338C64.7383 51.6533 64.2598 51.6777 63.7324 51.707C63.3613 51.7363 63.0195 51.7607 62.707 51.7803C62.4043 51.79 62.1895 51.8047 62.0625 51.8242C62.0527 51.6191 61.9941 50.7744 61.8867 49.29C61.7891 47.7959 61.7354 46.9756 61.7256 46.8291C61.7158 46.6729 61.7109 46.5947 61.7109 46.5947C61.7109 46.5947 61.5547 46.5996 61.2422 46.6094C60.959 46.6191 60.5391 46.6973 59.9824 46.8438V44.6025ZM58.0488 47.3711L57.9756 47.8838C57.9463 48.1182 57.9512 48.2891 57.9902 48.3965C58.0098 49.2461 58.0586 50.3789 58.1367 51.7949C57.6289 51.7949 57.0723 51.7656 56.4668 51.707C55.8711 51.6387 55.3438 51.5654 54.8848 51.4873C54.4258 51.4092 54.1328 51.3457 54.0059 51.2969C54.1133 49.8516 54.2793 48.0107 54.5039 45.7744C54.6797 42.7959 54.8066 40.5742 54.8848 39.1094C54.9629 37.6348 55.0215 36.8145 55.0605 36.6484C55.7246 36.6973 56.4375 36.7705 57.1992 36.8682C57.9707 36.9561 58.542 37.0391 58.9131 37.1172C58.8936 37.332 58.8643 37.5615 58.8252 37.8057C58.7861 38.04 58.7812 39.1436 58.8105 41.1162C58.8496 43.0791 58.8691 44.0605 58.8691 44.0605C58.8691 44.0605 58.8691 44.4023 58.8691 45.0859L58.0928 46.8291L58.0488 47.3711ZM58.2979 44.5879C58.5518 44.5488 58.9375 44.5049 59.4551 44.4561C59.8555 44.4072 60.3535 44.373 60.9492 44.3535C61.1836 44.3535 61.4229 44.3633 61.667 44.3828V46.9463C61.0029 46.9951 60.3096 47.1025 59.5869 47.2686C58.8643 47.4443 58.0537 47.6445 57.1553 47.8691L58.2979 44.5879ZM76.6123 36.6045C76.6904 36.5947 76.9395 36.5996 77.3594 36.6191C77.7891 36.6289 78.2725 36.6484 78.8096 36.6777C79.3467 36.6973 79.8252 36.7217 80.2451 36.751C80.6748 36.7803 80.9287 36.8096 81.0068 36.8389C80.8018 39.7881 80.6504 42.2295 80.5527 44.1631C80.4648 46.0967 80.3916 48.5381 80.333 51.4873C80.2158 51.5068 79.9375 51.5312 79.498 51.5605C79.0684 51.5801 78.5898 51.6045 78.0625 51.6338C77.6914 51.6631 77.3496 51.6875 77.0371 51.707C76.7344 51.7168 76.5195 51.7314 76.3926 51.751C76.3828 51.5459 76.373 51.3359 76.3633 51.1211C76.3535 50.9062 76.3438 50.7256 76.334 50.5791C76.3242 50.4229 76.3193 50.3447 76.3193 50.3447C76.3193 50.3447 76.0898 50.418 75.6309 50.5645C75.1816 50.7109 74.6348 50.877 73.9902 51.0625C73.3555 51.2383 72.7354 51.3945 72.1299 51.5312C71.5342 51.6582 71.0654 51.7217 70.7236 51.7217C70.1279 51.6826 69.6787 51.2725 69.376 50.4912C69.083 49.71 68.8926 48.6699 68.8047 47.3711C68.7168 45.9648 68.6777 44.1875 68.6875 42.0391C68.6973 39.8809 68.7852 38.0547 68.9512 36.5605C69.2637 36.5996 69.7178 36.6729 70.3135 36.7803C70.9189 36.8779 71.5 36.9805 72.0566 37.0879C72.6133 37.1953 72.9893 37.2734 73.1846 37.3223C73.0967 38.6309 73.0186 40.1836 72.9502 41.9805C72.8818 43.7773 72.8428 45.3789 72.833 46.7852C72.8232 48.1816 72.8525 48.9287 72.9209 49.0264C73.2822 48.9189 73.7998 48.7578 74.4736 48.543C75.1572 48.3184 75.792 48.1084 76.3779 47.9131C76.9736 47.7178 77.3154 47.6006 77.4033 47.5615C77.3057 46.3213 77.1738 44.6318 77.0078 42.4932C76.8516 40.3447 76.7197 38.3818 76.6123 36.6045ZM91.792 36.6045C91.8701 36.5947 92.1191 36.5996 92.5391 36.6191C92.9688 36.6289 93.4521 36.6484 93.9893 36.6777C94.5264 36.6973 95.0049 36.7217 95.4248 36.751C95.8545 36.7803 96.1084 36.8096 96.1865 36.8389C95.9814 39.7881 95.8301 42.2295 95.7324 44.1631C95.6445 46.0967 95.5713 48.5381 95.5127 51.4873C95.3955 51.5068 95.1172 51.5312 94.6777 51.5605C94.248 51.5801 93.7695 51.6045 93.2422 51.6338C92.8711 51.6631 92.5293 51.6875 92.2168 51.707C91.9141 51.7168 91.6992 51.7314 91.5723 51.751C91.5625 51.5459 91.5039 50.7012 91.3965 49.2168C91.2988 47.7227 91.2451 46.9023 91.2354 46.7559C91.2256 46.5996 91.2207 46.5215 91.2207 46.5215C91.2207 46.5215 91.0645 46.5264 90.752 46.5361C90.4395 46.5459 89.9609 46.6436 89.3164 46.8291C88.6816 47.0049 88.0615 47.1611 87.4561 47.2979C86.8604 47.4248 86.3916 47.4883 86.0498 47.4883C85.4541 47.4492 85.0049 47.0391 84.7021 46.2578C84.4092 45.4766 84.2188 44.4365 84.1309 43.1377C84.043 41.7314 83.9795 40.6572 83.9404 39.915C83.9014 39.1729 83.9648 38.0547 84.1309 36.5605C84.4434 36.5996 84.8975 36.6729 85.4932 36.7803C86.0986 36.8779 86.6797 36.9805 87.2363 37.0879C87.793 37.1953 88.1689 37.2734 88.3643 37.3223C88.2764 38.6309 88.2227 39.4805 88.2031 39.8711C88.1836 40.252 88.1689 41.1455 88.1592 42.5518C88.1494 43.9482 88.1787 44.6953 88.2471 44.793C88.6084 44.6855 89.0576 44.5928 89.5947 44.5146C90.1318 44.4268 90.6934 44.2852 91.2793 44.0898C91.875 43.8945 92.2168 43.7773 92.3047 43.7383C92.207 42.1367 92.124 40.9941 92.0557 40.3105C91.9873 39.6172 91.8994 38.3818 91.792 36.6045ZM109.623 46.7559C109.779 47.3223 109.828 48.0156 109.77 48.8359C109.721 49.6465 109.564 50.2471 109.301 50.6377C109.027 50.8623 108.251 51.0674 106.972 51.2529C105.692 51.4385 104.35 51.5898 102.943 51.707C101.547 51.8242 100.653 51.8877 100.263 51.8975C99.9404 51.8975 99.6621 51.6387 99.4277 51.1211C99.1934 50.6035 98.998 49.9541 98.8418 49.1729C98.6855 48.3818 98.5684 47.5811 98.4902 46.7705C98.4121 45.9307 98.3877 44.9199 98.417 43.7383C98.4463 42.5566 98.5439 41.4434 98.71 40.3984C98.876 39.3438 99.1201 38.5967 99.4424 38.1572C99.9307 37.6396 100.766 37.249 101.947 36.9854C103.129 36.7217 104.433 36.5752 105.858 36.5459C107.294 36.5068 108.349 36.5752 109.022 36.751C109.345 36.9365 109.55 37.4395 109.638 38.2598C109.726 39.0801 109.687 40.0029 109.521 41.0283C109.354 42.0439 109.042 42.9375 108.583 43.709C108.134 44.4805 107.523 44.9053 106.752 44.9834C104.486 45.0713 102.797 45.1055 101.684 45.0859C101.664 45.623 101.693 46.1699 101.771 46.7266C101.85 47.2832 101.938 47.7568 102.035 48.1475C102.133 48.5283 102.216 48.7285 102.284 48.748C102.753 48.5625 103.744 48.2891 105.258 47.9277C106.771 47.5566 108.227 47.166 109.623 46.7559ZM102.27 39.71C101.84 39.7783 101.527 40.0518 101.332 40.5303C101.137 41.0088 101.049 41.4287 101.068 41.79C101.098 42.1416 101.225 42.3711 101.449 42.4785C101.664 42.5371 101.991 42.5811 102.431 42.6104C102.87 42.6299 103.319 42.6299 103.778 42.6104C104.237 42.5908 104.589 42.5469 104.833 42.4785C105.116 42.3711 105.326 42.1807 105.463 41.9072C105.609 41.624 105.688 41.3359 105.697 41.043C105.707 40.75 105.663 40.54 105.565 40.4131C105.39 40.2373 105.102 40.1006 104.701 40.0029C104.311 39.8955 103.876 39.8174 103.397 39.7686C102.929 39.71 102.553 39.6904 102.27 39.71ZM123.001 46.1553C123.108 46.1846 123.133 46.4629 123.074 46.9902C123.025 47.5078 122.894 48.1182 122.679 48.8213C122.474 49.5146 122.19 50.1396 121.829 50.6963C121.478 51.2432 121.058 51.5605 120.569 51.6484C119.544 51.6875 118.445 51.6582 117.273 51.5605C116.102 51.4629 115.062 51.2578 114.153 50.9453C113.558 50.418 113.167 49.5098 112.981 48.2207C112.806 46.9219 112.776 45.4961 112.894 43.9434C113.011 42.3906 113.226 40.9648 113.538 39.666C113.851 38.3574 114.207 37.4346 114.607 36.8975C114.988 36.6045 115.745 36.5264 116.878 36.6631C118.011 36.7998 119.119 37.0195 120.203 37.3223C121.297 37.625 121.961 37.8789 122.195 38.084C122.479 38.4551 122.635 38.9873 122.664 39.6807C122.703 40.3643 122.654 40.9014 122.518 41.292C122.42 41.3701 122.21 41.4336 121.888 41.4824C121.565 41.5312 121.209 41.5703 120.818 41.5996C120.438 41.6191 120.105 41.624 119.822 41.6143C119.539 41.5947 119.388 41.5605 119.368 41.5117C119.378 41.502 119.383 41.4971 119.383 41.4971C119.441 41.2627 119.495 40.9746 119.544 40.6328C119.603 40.291 119.588 40.0176 119.5 39.8125C119.324 39.5195 119.056 39.3242 118.694 39.2266C118.343 39.1289 117.977 39.1387 117.596 39.2559C117.127 39.4609 116.766 40.0713 116.512 41.0869C116.268 42.1025 116.136 43.2598 116.116 44.5586C116.106 45.8477 116.219 47.0195 116.453 48.0742C116.59 48.5527 116.858 48.8359 117.259 48.9238C117.669 49.0117 118.079 48.9727 118.489 48.8066C118.753 48.6699 118.953 48.4062 119.09 48.0156C119.236 47.625 119.349 47.2246 119.427 46.8145C119.466 46.668 119.5 46.5361 119.529 46.4189C119.939 46.3408 120.496 46.2773 121.199 46.2285C121.912 46.1699 122.513 46.1455 123.001 46.1553ZM136.101 36.3115C136.306 36.3506 136.545 36.4922 136.818 36.7363C137.102 36.9707 137.38 37.2441 137.653 37.5566C137.927 37.8594 138.151 38.1426 138.327 38.4062C138.513 38.6602 138.605 38.8115 138.605 38.8604C138.498 38.9971 138.122 39.3047 137.478 39.7832C136.843 40.252 136.12 40.7744 135.31 41.3506C134.509 41.917 133.801 42.4199 133.186 42.8594C132.57 43.2891 132.263 43.5039 132.263 43.5039C132.263 43.5039 132.502 43.6797 132.98 44.0312C133.459 44.3828 134.03 44.8027 134.694 45.291C135.368 45.7793 136.018 46.248 136.643 46.6973C137.268 47.1465 137.746 47.4834 138.078 47.708C137.961 48.1963 137.697 48.7578 137.287 49.3926C136.887 50.0176 136.481 50.5645 136.071 51.0332C135.671 51.502 135.402 51.751 135.266 51.7803C135.139 51.7412 134.787 51.3994 134.211 50.7549C133.635 50.1104 132.99 49.3633 132.277 48.5137C131.564 47.6641 130.935 46.9121 130.388 46.2578C129.851 45.5938 129.582 45.2617 129.582 45.2617C129.582 45.2617 129.592 45.5303 129.611 46.0674C129.641 46.5947 129.665 47.2197 129.685 47.9424C129.704 48.6553 129.719 49.3193 129.729 49.9346C129.748 50.54 129.753 50.9502 129.743 51.165C129.548 51.2627 129.206 51.3604 128.718 51.458C128.229 51.5557 127.741 51.6338 127.253 51.6924C126.774 51.751 126.452 51.7656 126.286 51.7363C126.247 51.4043 126.232 50.3154 126.242 48.4697C126.252 46.624 126.276 44.4951 126.315 42.083C126.354 39.6611 126.364 37.8789 126.345 36.7363C126.335 35.5938 126.359 34.6562 126.418 33.9238C126.838 33.9727 127.38 34.0557 128.044 34.1729C128.708 34.2803 129.323 34.3877 129.89 34.4951C130.456 34.5928 130.798 34.6611 130.915 34.7002C130.808 35.8623 130.715 36.7314 130.637 37.3076C130.568 37.8838 130.48 38.748 130.373 39.9004C130.266 41.0527 130.212 41.6289 130.212 41.6289C130.212 41.6289 130.495 41.3604 131.062 40.8232C131.628 40.2764 132.282 39.6562 133.024 38.9629C133.767 38.2598 134.436 37.6494 135.031 37.1318C135.627 36.6045 135.983 36.3311 136.101 36.3115ZM148.761 36.6045C148.839 36.5947 149.088 36.5996 149.508 36.6191C149.938 36.6289 150.421 36.6484 150.958 36.6777C151.495 36.6973 151.974 36.7217 152.394 36.751C152.823 36.7803 153.077 36.8096 153.155 36.8389C152.95 39.7881 152.799 42.2295 152.701 44.1631C152.613 46.0967 152.54 48.5381 152.481 51.4873C152.364 51.5068 152.086 51.5312 151.646 51.5605C151.217 51.5801 150.738 51.6045 150.211 51.6338C149.84 51.6631 149.498 51.6875 149.186 51.707C148.883 51.7168 148.668 51.7314 148.541 51.751C148.531 51.5459 148.521 51.3359 148.512 51.1211C148.502 50.9062 148.492 50.7256 148.482 50.5791C148.473 50.4229 148.468 50.3447 148.468 50.3447C148.468 50.3447 148.238 50.418 147.779 50.5645C147.33 50.7109 146.783 50.877 146.139 51.0625C145.504 51.2383 144.884 51.3945 144.278 51.5312C143.683 51.6582 143.214 51.7217 142.872 51.7217C142.276 51.6826 141.827 51.2725 141.524 50.4912C141.231 49.71 141.041 48.6699 140.953 47.3711C140.865 45.9648 140.826 44.1875 140.836 42.0391C140.846 39.8809 140.934 38.0547 141.1 36.5605C141.412 36.5996 141.866 36.6729 142.462 36.7803C143.067 36.8779 143.648 36.9805 144.205 37.0879C144.762 37.1953 145.138 37.2734 145.333 37.3223C145.245 38.6309 145.167 40.1836 145.099 41.9805C145.03 43.7773 144.991 45.3789 144.981 46.7852C144.972 48.1816 145.001 48.9287 145.069 49.0264C145.431 48.9189 145.948 48.7578 146.622 48.543C147.306 48.3184 147.94 48.1084 148.526 47.9131C149.122 47.7178 149.464 47.6006 149.552 47.5615C149.454 46.3213 149.322 44.6318 149.156 42.4932C149 40.3447 148.868 38.3818 148.761 36.6045ZM167.002 46.7559C167.158 47.3223 167.207 48.0156 167.148 48.8359C167.1 49.6465 166.943 50.2471 166.68 50.6377C166.406 50.8623 165.63 51.0674 164.351 51.2529C163.071 51.4385 161.729 51.5898 160.322 51.707C158.926 51.8242 158.032 51.8877 157.642 51.8975C157.319 51.8975 157.041 51.6387 156.807 51.1211C156.572 50.6035 156.377 49.9541 156.221 49.1729C156.064 48.3818 155.947 47.5811 155.869 46.7705C155.791 45.9307 155.767 44.9199 155.796 43.7383C155.825 42.5566 155.923 41.4434 156.089 40.3984C156.255 39.3438 156.499 38.5967 156.821 38.1572C157.31 37.6396 158.145 37.249 159.326 36.9854C160.508 36.7217 161.812 36.5752 163.237 36.5459C164.673 36.5068 165.728 36.5752 166.401 36.751C166.724 36.9365 166.929 37.4395 167.017 38.2598C167.104 39.0801 167.065 40.0029 166.899 41.0283C166.733 42.0439 166.421 42.9375 165.962 43.709C165.513 44.4805 164.902 44.9053 164.131 44.9834C161.865 45.0713 160.176 45.1055 159.062 45.0859C159.043 45.623 159.072 46.1699 159.15 46.7266C159.229 47.2832 159.316 47.7568 159.414 48.1475C159.512 48.5283 159.595 48.7285 159.663 48.748C160.132 48.5625 161.123 48.2891 162.637 47.9277C164.15 47.5566 165.605 47.166 167.002 46.7559ZM159.648 39.71C159.219 39.7783 158.906 40.0518 158.711 40.5303C158.516 41.0088 158.428 41.4287 158.447 41.79C158.477 42.1416 158.604 42.3711 158.828 42.4785C159.043 42.5371 159.37 42.5811 159.81 42.6104C160.249 42.6299 160.698 42.6299 161.157 42.6104C161.616 42.5908 161.968 42.5469 162.212 42.4785C162.495 42.3711 162.705 42.1807 162.842 41.9072C162.988 41.624 163.066 41.3359 163.076 41.043C163.086 40.75 163.042 40.54 162.944 40.4131C162.769 40.2373 162.48 40.1006 162.08 40.0029C161.689 39.8955 161.255 39.8174 160.776 39.7686C160.308 39.71 159.932 39.6904 159.648 39.71ZM184.969 44.6025C184.998 44.5928 185.032 44.583 185.071 44.5732C185.608 44.4951 186.17 44.3584 186.756 44.1631C187.352 43.9678 187.693 43.8506 187.781 43.8115C187.684 42.21 187.601 41.0674 187.532 40.3838C187.464 39.6904 187.376 38.4551 187.269 36.6777C187.347 36.668 187.596 36.6729 188.016 36.6924C188.445 36.7021 188.929 36.7217 189.466 36.751C190.003 36.7705 190.481 36.7949 190.901 36.8242C191.331 36.8535 191.585 36.8828 191.663 36.9121C191.458 39.8613 191.307 42.3027 191.209 44.2363C191.121 46.1699 191.048 48.6113 190.989 51.5605C190.872 51.5801 190.594 51.6045 190.154 51.6338C189.725 51.6533 189.246 51.6777 188.719 51.707C188.348 51.7363 188.006 51.7607 187.693 51.7803C187.391 51.79 187.176 51.8047 187.049 51.8242C187.039 51.6191 186.98 50.7744 186.873 49.29C186.775 47.7959 186.722 46.9756 186.712 46.8291C186.702 46.6729 186.697 46.5947 186.697 46.5947C186.697 46.5947 186.541 46.5996 186.229 46.6094C185.945 46.6191 185.525 46.6973 184.969 46.8438V44.6025ZM183.035 47.3711L182.962 47.8838C182.933 48.1182 182.938 48.2891 182.977 48.3965C182.996 49.2461 183.045 50.3789 183.123 51.7949C182.615 51.7949 182.059 51.7656 181.453 51.707C180.857 51.6387 180.33 51.5654 179.871 51.4873C179.412 51.4092 179.119 51.3457 178.992 51.2969C179.1 49.8516 179.266 48.0107 179.49 45.7744C179.666 42.7959 179.793 40.5742 179.871 39.1094C179.949 37.6348 180.008 36.8145 180.047 36.6484C180.711 36.6973 181.424 36.7705 182.186 36.8682C182.957 36.9561 183.528 37.0391 183.899 37.1172C183.88 37.332 183.851 37.5615 183.812 37.8057C183.772 38.04 183.768 39.1436 183.797 41.1162C183.836 43.0791 183.855 44.0605 183.855 44.0605C183.855 44.0605 183.855 44.4023 183.855 45.0859L183.079 46.8291L183.035 47.3711ZM183.284 44.5879C183.538 44.5488 183.924 44.5049 184.441 44.4561C184.842 44.4072 185.34 44.373 185.936 44.3535C186.17 44.3535 186.409 44.3633 186.653 44.3828V46.9463C185.989 46.9951 185.296 47.1025 184.573 47.2686C183.851 47.4443 183.04 47.6445 182.142 47.8691L183.284 44.5879ZM204.66 46.7559C204.816 47.3223 204.865 48.0156 204.807 48.8359C204.758 49.6465 204.602 50.2471 204.338 50.6377C204.064 50.8623 203.288 51.0674 202.009 51.2529C200.729 51.4385 199.387 51.5898 197.98 51.707C196.584 51.8242 195.69 51.8877 195.3 51.8975C194.978 51.8975 194.699 51.6387 194.465 51.1211C194.23 50.6035 194.035 49.9541 193.879 49.1729C193.723 48.3818 193.605 47.5811 193.527 46.7705C193.449 45.9307 193.425 44.9199 193.454 43.7383C193.483 42.5566 193.581 41.4434 193.747 40.3984C193.913 39.3438 194.157 38.5967 194.479 38.1572C194.968 37.6396 195.803 37.249 196.984 36.9854C198.166 36.7217 199.47 36.5752 200.896 36.5459C202.331 36.5068 203.386 36.5752 204.06 36.751C204.382 36.9365 204.587 37.4395 204.675 38.2598C204.763 39.0801 204.724 40.0029 204.558 41.0283C204.392 42.0439 204.079 42.9375 203.62 43.709C203.171 44.4805 202.561 44.9053 201.789 44.9834C199.523 45.0713 197.834 45.1055 196.721 45.0859C196.701 45.623 196.73 46.1699 196.809 46.7266C196.887 47.2832 196.975 47.7568 197.072 48.1475C197.17 48.5283 197.253 48.7285 197.321 48.748C197.79 48.5625 198.781 48.2891 200.295 47.9277C201.809 47.5566 203.264 47.166 204.66 46.7559ZM197.307 39.71C196.877 39.7783 196.564 40.0518 196.369 40.5303C196.174 41.0088 196.086 41.4287 196.105 41.79C196.135 42.1416 196.262 42.3711 196.486 42.4785C196.701 42.5371 197.028 42.5811 197.468 42.6104C197.907 42.6299 198.356 42.6299 198.815 42.6104C199.274 42.5908 199.626 42.5469 199.87 42.4785C200.153 42.3711 200.363 42.1807 200.5 41.9072C200.646 41.624 200.725 41.3359 200.734 41.043C200.744 40.75 200.7 40.54 200.603 40.4131C200.427 40.2373 200.139 40.1006 199.738 40.0029C199.348 39.8955 198.913 39.8174 198.435 39.7686C197.966 39.71 197.59 39.6904 197.307 39.71ZM218.067 36.4141C218.399 36.4922 218.697 37.0488 218.961 38.084C219.234 39.1191 219.464 40.3936 219.649 41.9072C219.835 43.4111 219.977 44.915 220.074 46.4189C220.182 47.9131 220.24 49.168 220.25 50.1836C220.26 51.1895 220.221 51.7217 220.133 51.7803C219.449 51.7119 218.717 51.6191 217.936 51.502C217.154 51.3848 216.51 51.2627 216.002 51.1357C215.943 49.7295 215.846 47.918 215.709 45.7012C215.641 44.4609 215.577 43.2988 215.519 42.2148C215.46 41.1211 215.421 40.2666 215.401 39.6514C214.708 40.0322 213.985 40.4912 213.233 41.0283C212.481 41.5557 211.944 41.9463 211.622 42.2002C211.632 43.1377 211.671 44.6074 211.739 46.6094C211.817 48.6016 211.896 50.3057 211.974 51.7217C211.466 51.7217 210.909 51.6924 210.304 51.6338C209.708 51.5654 209.181 51.4922 208.722 51.4141C208.263 51.3359 207.97 51.2725 207.843 51.2236C207.95 49.7783 208.092 47.7324 208.268 45.0859C208.404 42.9668 208.531 41.0625 208.648 39.373C208.775 37.6738 208.858 36.7412 208.897 36.5752C209.562 36.624 210.274 36.6973 211.036 36.7949C211.808 36.8828 212.379 36.9658 212.75 37.0439C212.73 37.2588 212.701 37.4883 212.662 37.7324C212.623 37.9668 212.584 38.1719 212.545 38.3477C212.506 38.5234 212.486 38.6113 212.486 38.6113C212.486 38.6113 212.687 38.4941 213.087 38.2598C213.497 38.0254 214 37.7617 214.596 37.4688C215.191 37.166 215.802 36.9072 216.427 36.6924C217.052 36.4775 217.599 36.3848 218.067 36.4141ZM229.468 36.4727C229.956 36.5215 230.537 36.6387 231.211 36.8242C231.895 37 232.524 37.2539 233.101 37.5859C233.677 37.918 234.053 38.3428 234.229 38.8604C234.395 39.4854 234.521 40.6133 234.609 42.2441C234.707 43.875 234.731 45.4717 234.683 47.0342C234.644 48.5967 234.502 49.583 234.258 49.9932C233.877 50.4229 233.062 50.7939 231.812 51.1064C230.571 51.4092 229.277 51.6045 227.93 51.6924C226.592 51.7705 225.576 51.6924 224.883 51.458C224.248 51.1748 223.76 50.4717 223.418 49.3486C223.086 48.2256 222.876 46.9072 222.788 45.3936C222.71 43.8799 222.739 42.4053 222.876 40.9697C223.013 39.5342 223.247 38.3623 223.579 37.4541C223.755 37.0635 224.185 36.79 224.868 36.6338C225.552 36.4678 226.318 36.3799 227.168 36.3701C228.018 36.3604 228.784 36.3945 229.468 36.4727ZM230.61 48.1328C230.815 47.8887 230.967 47.3809 231.064 46.6094C231.172 45.8281 231.235 44.8125 231.255 43.5625C231.274 42.3027 231.25 41.3311 231.182 40.6475C231.123 39.9639 231.025 39.5879 230.889 39.5195C230.479 39.4121 229.912 39.3682 229.189 39.3877C228.477 39.4072 227.798 39.4902 227.153 39.6367C226.519 39.7832 226.104 39.9688 225.908 40.1934C225.82 40.3301 225.771 40.7939 225.762 41.585C225.762 42.3662 225.811 43.4111 225.908 44.7197C226.006 46.0283 226.172 47.0439 226.406 47.7666C226.65 48.4893 226.973 48.8555 227.373 48.8652C227.539 48.8555 227.852 48.8164 228.311 48.748C228.77 48.6699 229.229 48.582 229.688 48.4844C230.146 48.3867 230.454 48.2695 230.61 48.1328ZM243.373 39.4902C243.197 40.623 242.978 42.0977 242.714 43.9141C242.46 45.7207 242.226 47.3906 242.011 48.9238C241.806 50.457 241.684 51.3701 241.645 51.6631C241.605 51.7607 241.4 51.7803 241.029 51.7217C240.658 51.6533 240.224 51.541 239.726 51.3848C239.237 51.2285 238.788 51.0576 238.378 50.8721C237.978 50.6865 237.729 50.5156 237.631 50.3594C237.689 50.1641 237.846 49.6221 238.1 48.7334C238.363 47.835 238.637 46.8535 238.92 45.7891C239.203 44.7246 239.423 43.8457 239.579 43.1523C239.726 42.4492 239.916 41.5605 240.15 40.4863C240.395 39.4121 240.619 38.4453 240.824 37.5859C241.039 36.7168 241.176 36.2432 241.234 36.165C241.684 36.1846 242.309 36.2139 243.109 36.2529C243.91 36.292 244.628 36.3359 245.263 36.3848C245.37 36.6191 245.541 37 245.775 37.5273C246.273 38.6602 246.898 40.0811 247.65 41.79C248.412 43.499 249.125 45.1006 249.789 46.5947C250.453 48.0791 250.893 49.0508 251.107 49.5098C250.717 49.7637 250.253 50.0371 249.716 50.3301C249.179 50.6133 248.671 50.8623 248.192 51.0771C247.714 51.2822 247.387 51.3848 247.211 51.3848C246.977 50.8086 246.562 49.583 245.966 47.708C245.37 45.8232 244.789 43.9824 244.223 42.1855C243.842 40.9746 243.559 40.0762 243.373 39.4902ZM254.451 36.7949C255.242 36.5898 256.321 36.5264 257.688 36.6045C259.056 36.6826 260.364 36.8584 261.614 37.1318C262.874 37.3955 263.733 37.7129 264.192 38.084C264.261 39.4512 264.354 41.3848 264.471 43.8848C264.588 46.3848 264.686 48.5088 264.764 50.2568C264.783 50.667 264.803 51.0088 264.822 51.2822C264.598 51.3311 264.28 51.3848 263.87 51.4434C263.46 51.4922 263.03 51.5459 262.581 51.6045C262.142 51.6533 261.761 51.6924 261.438 51.7217C261.116 51.7412 260.931 51.7461 260.882 51.7363C260.911 51.4336 260.931 51.082 260.94 50.6816C260.96 50.2812 260.97 49.915 260.97 49.583C260.774 49.6514 260.447 49.793 259.988 50.0078C259.246 50.3594 258.362 50.7305 257.337 51.1211C256.312 51.5117 255.364 51.7119 254.495 51.7217C254.114 51.6826 253.802 51.3018 253.558 50.5791C253.323 49.8467 253.162 48.9922 253.074 48.0156C252.996 47.0391 253.001 46.1602 253.089 45.3789C253.216 44.2363 253.455 43.2939 253.807 42.5518C254.158 41.7998 254.715 41.3896 255.477 41.3213C256.072 41.292 256.819 41.3408 257.718 41.4678C258.626 41.5947 259.456 41.7217 260.208 41.8486C260.589 41.917 260.896 41.9707 261.131 42.0098C261.375 42.0391 261.512 42.0439 261.541 42.0244C261.58 41.9854 261.604 41.8291 261.614 41.5557C261.634 41.2822 261.639 40.9795 261.629 40.6475C261.629 40.3154 261.629 40.042 261.629 39.8271C261.395 39.7295 260.984 39.6172 260.398 39.4902C259.822 39.3633 259.231 39.2607 258.626 39.1826C258.021 39.0947 257.566 39.0605 257.264 39.0801C257.234 39.2852 257.215 39.4756 257.205 39.6514C257.195 39.7686 257.186 39.9053 257.176 40.0615C257.146 40.0811 256.951 40.0957 256.59 40.1055C256.238 40.1055 255.828 40.0957 255.359 40.0762C254.891 40.0566 254.471 40.0273 254.1 39.9883C253.738 39.9492 253.538 39.8955 253.499 39.8271C253.46 39.71 253.455 39.4316 253.484 38.9922C253.523 38.543 253.616 38.0938 253.763 37.6445C253.919 37.1953 254.148 36.9121 254.451 36.7949ZM261.995 47.1953C262.2 47.0195 262.317 46.7314 262.347 46.3311C262.386 45.9307 262.391 45.584 262.361 45.291C262.332 45.0566 262.054 44.8711 261.526 44.7344C261.009 44.5879 260.354 44.4902 259.563 44.4414C258.411 44.3828 257.649 44.4854 257.278 44.749C256.917 45.0029 256.727 45.335 256.707 45.7451C256.678 45.999 256.663 46.3555 256.663 46.8145C256.673 47.2637 256.731 47.6787 256.839 48.0596C256.956 48.4404 257.156 48.6406 257.439 48.6602C257.771 48.6406 258.265 48.5332 258.919 48.3379C259.573 48.1426 260.203 47.9326 260.809 47.708C261.424 47.4736 261.819 47.3027 261.995 47.1953ZM279.489 37.0879C279.597 37.2148 279.641 37.9082 279.621 39.168C279.611 40.4277 279.558 41.8584 279.46 43.46C279.362 45.0518 279.25 46.4238 279.123 47.5762C278.967 48.9922 278.776 50.3691 278.552 51.707C278.327 53.0449 278.059 54.0459 277.746 54.71C277.512 55.1201 277.058 55.4277 276.384 55.6328C275.72 55.8477 274.953 55.9893 274.084 56.0576C273.215 56.126 272.37 56.1455 271.55 56.1162C271.022 56.0771 270.583 55.8525 270.231 55.4424C269.88 55.0322 269.606 54.5488 269.411 53.9922C269.216 53.4453 269.089 52.9521 269.03 52.5127C268.972 52.083 268.981 51.8291 269.06 51.751C269.343 51.6338 269.763 51.5215 270.319 51.4141C270.876 51.2969 271.403 51.2041 271.901 51.1357C272.399 51.0674 272.707 51.043 272.824 51.0625C272.932 51.1016 272.995 51.3457 273.015 51.7949C273.034 51.9316 273.054 52.0781 273.073 52.2344C273.103 52.6055 273.186 52.9326 273.322 53.2158C273.469 53.499 273.747 53.6357 274.157 53.626C274.353 53.6162 274.602 53.582 274.904 53.5234C275.217 53.4648 275.456 53.3672 275.622 53.2305C275.739 53.0645 275.822 52.752 275.871 52.293C275.92 51.8438 275.949 51.3555 275.959 50.8281C275.969 50.291 275.969 49.8271 275.959 49.4365C275.949 49.0361 275.935 48.8164 275.915 48.7773C275.358 48.9922 274.597 49.2412 273.63 49.5244C272.663 49.7979 271.716 50.0273 270.788 50.2129C269.86 50.3887 269.177 50.4326 268.737 50.3447C268.415 50.2178 268.161 49.7344 267.976 48.8945C267.8 48.0449 267.673 47.1025 267.595 46.0674C267.526 45.0322 267.497 44.1631 267.507 43.46C267.536 42.376 267.604 41.2822 267.712 40.1787C267.829 39.0752 268.005 38.1719 268.239 37.4688C268.376 37.1172 268.64 36.9365 269.03 36.9268C269.431 36.9072 269.929 36.9561 270.524 37.0732C270.583 37.083 270.642 37.0928 270.7 37.1025C271.032 37.1611 271.433 37.2393 271.901 37.3369C272.37 37.4346 272.839 37.5371 273.308 37.6445C273.776 37.7422 274.167 37.8301 274.479 37.9082C274.802 37.9766 274.963 38.0107 274.963 38.0107C274.963 38.0107 274.958 37.9375 274.948 37.791C274.948 37.6445 274.943 37.4639 274.934 37.249C274.924 37.0244 274.914 36.7949 274.904 36.5605C275.715 36.6094 276.535 36.6826 277.365 36.7803C278.205 36.8779 278.913 36.9805 279.489 37.0879ZM276.662 44.9834C276.701 44.8369 276.721 44.5635 276.721 44.1631C276.73 43.7529 276.726 43.3477 276.706 42.9473C276.687 42.5469 276.657 42.2783 276.618 42.1416C276.569 42.0342 276.301 41.9414 275.812 41.8633C275.334 41.7754 274.768 41.7217 274.113 41.7021C273.469 41.6826 272.868 41.7168 272.312 41.8047C271.755 41.8828 271.379 42.0342 271.184 42.2588C271.066 42.4541 271.003 42.8545 270.993 43.46C270.993 44.0557 271.018 44.6562 271.066 45.2617C271.115 45.8672 271.164 46.2676 271.213 46.4629C271.281 46.6387 271.574 46.707 272.092 46.668C272.619 46.6191 273.22 46.5068 273.894 46.3311C274.567 46.1553 275.173 45.9453 275.71 45.7012C276.247 45.457 276.564 45.2178 276.662 44.9834ZM292.853 36.3115C293.058 36.3506 293.297 36.4922 293.57 36.7363C293.854 36.9707 294.132 37.2441 294.405 37.5566C294.679 37.8594 294.903 38.1426 295.079 38.4062C295.265 38.6602 295.357 38.8115 295.357 38.8604C295.25 38.9971 294.874 39.3047 294.229 39.7832C293.595 40.252 292.872 40.7744 292.062 41.3506C291.261 41.917 290.553 42.4199 289.938 42.8594C289.322 43.2891 289.015 43.5039 289.015 43.5039C289.015 43.5039 289.254 43.6797 289.732 44.0312C290.211 44.3828 290.782 44.8027 291.446 45.291C292.12 45.7793 292.77 46.248 293.395 46.6973C294.02 47.1465 294.498 47.4834 294.83 47.708C294.713 48.1963 294.449 48.7578 294.039 49.3926C293.639 50.0176 293.233 50.5645 292.823 51.0332C292.423 51.502 292.154 51.751 292.018 51.7803C291.891 51.7412 291.539 51.3994 290.963 50.7549C290.387 50.1104 289.742 49.3633 289.029 48.5137C288.316 47.6641 287.687 46.9121 287.14 46.2578C286.603 45.5938 286.334 45.2617 286.334 45.2617C286.334 45.2617 286.344 45.5303 286.363 46.0674C286.393 46.5947 286.417 47.2197 286.437 47.9424C286.456 48.6553 286.471 49.3193 286.48 49.9346C286.5 50.54 286.505 50.9502 286.495 51.165C286.3 51.2627 285.958 51.3604 285.47 51.458C284.981 51.5557 284.493 51.6338 284.005 51.6924C283.526 51.751 283.204 51.7656 283.038 51.7363C282.999 51.4043 282.984 50.3154 282.994 48.4697C283.004 46.624 283.028 44.4951 283.067 42.083C283.106 39.6611 283.116 37.8789 283.097 36.7363C283.087 35.5938 283.111 34.6562 283.17 33.9238C283.59 33.9727 284.132 34.0557 284.796 34.1729C285.46 34.2803 286.075 34.3877 286.642 34.4951C287.208 34.5928 287.55 34.6611 287.667 34.7002C287.56 35.8623 287.467 36.7314 287.389 37.3076C287.32 37.8838 287.232 38.748 287.125 39.9004C287.018 41.0527 286.964 41.6289 286.964 41.6289C286.964 41.6289 287.247 41.3604 287.813 40.8232C288.38 40.2764 289.034 39.6562 289.776 38.9629C290.519 38.2598 291.188 37.6494 291.783 37.1318C292.379 36.6045 292.735 36.3311 292.853 36.3115ZM305.513 36.6045C305.591 36.5947 305.84 36.5996 306.26 36.6191C306.689 36.6289 307.173 36.6484 307.71 36.6777C308.247 36.6973 308.726 36.7217 309.146 36.751C309.575 36.7803 309.829 36.8096 309.907 36.8389C309.702 39.7881 309.551 42.2295 309.453 44.1631C309.365 46.0967 309.292 48.5381 309.233 51.4873C309.116 51.5068 308.838 51.5312 308.398 51.5605C307.969 51.5801 307.49 51.6045 306.963 51.6338C306.592 51.6631 306.25 51.6875 305.938 51.707C305.635 51.7168 305.42 51.7314 305.293 51.751C305.283 51.5459 305.273 51.3359 305.264 51.1211C305.254 50.9062 305.244 50.7256 305.234 50.5791C305.225 50.4229 305.22 50.3447 305.22 50.3447C305.22 50.3447 304.99 50.418 304.531 50.5645C304.082 50.7109 303.535 50.877 302.891 51.0625C302.256 51.2383 301.636 51.3945 301.03 51.5312C300.435 51.6582 299.966 51.7217 299.624 51.7217C299.028 51.6826 298.579 51.2725 298.276 50.4912C297.983 49.71 297.793 48.6699 297.705 47.3711C297.617 45.9648 297.578 44.1875 297.588 42.0391C297.598 39.8809 297.686 38.0547 297.852 36.5605C298.164 36.5996 298.618 36.6729 299.214 36.7803C299.819 36.8779 300.4 36.9805 300.957 37.0879C301.514 37.1953 301.89 37.2734 302.085 37.3223C301.997 38.6309 301.919 40.1836 301.851 41.9805C301.782 43.7773 301.743 45.3789 301.733 46.7852C301.724 48.1816 301.753 48.9287 301.821 49.0264C302.183 48.9189 302.7 48.7578 303.374 48.543C304.058 48.3184 304.692 48.1084 305.278 47.9131C305.874 47.7178 306.216 47.6006 306.304 47.5615C306.206 46.3213 306.074 44.6318 305.908 42.4932C305.752 40.3447 305.62 38.3818 305.513 36.6045Z" fill="#00B6C6"/>
</svg>
