<?xml version="1.0" encoding="utf-8"?>
<!-- Generator: Adobe Illustrator 17.1.0, SVG Export Plug-In . SVG Version: 6.00 Build 0)  -->
<!DOCTYPE svg PUBLIC "-//W3C//DTD SVG 1.1//EN" "http://www.w3.org/Graphics/SVG/1.1/DTD/svg11.dtd">
<svg version="1.1" id="Слой_1" xmlns="http://www.w3.org/2000/svg" xmlns:xlink="http://www.w3.org/1999/xlink" x="0px" y="0px"
	 viewBox="0 817.8 1080 262.2" enable-background="new 0 817.8 1080 262.2" xml:space="preserve">
<g>
	<g>
		<path fill="#FFFFFF" d="M174.2,888.1c0.3,2.7,0.8,5.9,1.3,9.4c0.4,3.5,1.1,7.2,1.6,10.9c0.4,1.8,0.6,3.7,0.8,5.5s0.6,3.6,0.9,5.3
			c0.7,3.3,1.8,6.5,2.8,9.1c0.5,1.3,1,2.5,1.5,3.6c0.4,1.1,0.9,1.9,1.3,2.7c0.9,1.4,1.4,2.3,1.4,2.3l0.7-0.1c0,0,0.2-1,0.3-2.7
			c0.1-0.8,0.1-1.8,0.1-3s0-2.5-0.1-3.9c-0.2-2.8-0.5-6-1.3-9.4c-0.4-1.7-1-3.5-1.5-5.2s-1.1-3.5-1.6-5.3c-1-3.6-2-7.1-3-10.5
			c-1-3.3-1.9-6.4-2.8-9.1c-1.6-5.3-2.8-8.9-2.8-8.9l-0.8,0.1C173,878.9,173.4,882.6,174.2,888.1z"/>
		<polygon fill="#FFFFFF" points="87.2,845.8 143.7,848.9 152.8,872.2 149.1,844.9 145.9,845.7 145.9,842.5 87.1,845.7 83.8,844.9 
			80.1,872.2 90.1,846.6 		"/>
		<path fill="#FFFFFF" d="M64.4,879.5c3,0.3,7.6,0.8,12.9,1.2c5.4,0.4,11.6,0.7,18.3,0.9c3.4,0.1,6.8,0.2,10.3,0.2c3.4,0,7,0,10.6,0
			c3.5,0,7.1,0,10.6-0.1s6.9-0.2,10.3-0.3c6.7-0.2,13-0.7,18.3-1.1c5.3-0.4,9.8-0.9,12.9-1.3c1.5-0.1,2.7-0.3,3.6-0.4
			c0.9-0.1,1.3-0.2,1.3-0.2s-0.5,0-1.3-0.2c-0.8-0.1-2.1-0.3-3.6-0.4c-3-0.3-7.6-0.8-12.9-1.2c-5.4-0.4-11.6-0.7-18.3-0.9
			c-3.4-0.1-6.8-0.2-10.3-0.2c-3.4,0-7,0-10.6,0c-3.5,0-7.1,0-10.6,0.1s-6.9,0.2-10.3,0.3c-6.7,0.2-13,0.7-18.3,1.1
			s-9.8,0.9-12.9,1.3c-1.5,0.1-2.7,0.3-3.6,0.4c-0.9,0.1-1.3,0.2-1.3,0.2s0.4,0.1,1.3,0.2C61.6,879.1,62.9,879.4,64.4,879.5z"/>
		<path fill="#FFFFFF" d="M46.8,937c0,0,0.6-0.8,1.4-2.3c0.3-0.7,0.9-1.6,1.3-2.7c0.5-1.1,1-2.3,1.5-3.6c1.1-2.6,2-5.7,2.8-9.1
			c0.4-1.7,0.6-3.5,0.8-5.3c0.3-1.8,0.5-3.7,0.8-5.5c0.5-3.7,1.2-7.4,1.6-10.9c0.5-3.4,1-6.6,1.3-9.4c0.8-5.5,1.2-9.2,1.2-9.2
			l-0.6-0.1c0,0-1.2,3.6-2.8,8.9c-0.7,2.6-1.7,5.7-2.7,9.1c-1,3.3-2,6.9-3,10.5c-0.5,1.7-1.1,3.6-1.6,5.3c-0.6,1.7-1.1,3.5-1.5,5.2
			c-0.8,3.3-1.1,6.6-1.3,9.4c-0.1,1.4-0.1,2.7-0.1,3.9s0,2.1-0.1,3c0.1,1.7,0.3,2.7,0.3,2.7L46.8,937z"/>
		<path fill="#FFFFFF" d="M215.7,1074.5c-1.5-0.1-3.8-0.2-6.6-0.4c-2.9-0.3-6.3-0.5-10.3-0.7c-0.1,0-0.2,0-0.4,0
			c0.4-0.3,0.8-0.7,1.2-1.1c0.9-0.7,1.7-1.7,2.1-2.9c0.2-0.6,0.3-1.3,0.4-2c0.1-0.7,0.2-1.4,0.3-2.1c0.4-1.4,0.7-2.7,0.9-4
			c0.4-1.3,0.5-2.5,0.7-3.6c0.3-2.1,0.4-3.5,0.4-3.5h-0.5l0.7-0.1c0,0,0-0.1,0.1-0.4s0.2-0.8,0.3-1.3c0.1-0.6,0.2-1.2,0.3-2
			s0.2-1.6,0.2-2.5c0-1.8-0.1-3.8-0.5-5.9c-0.3-1-0.7-2-1.1-3.1c-0.4-1.1-0.9-2.2-1.2-3.3c-0.8-2.2-1.4-4.3-2.2-6.4
			c-0.7-1.9-1.5-3.9-2-5.5c-1.2-3.2-2.1-5.4-2.1-5.4l-0.5,0.1c0,0,0.1,2.3,0.4,5.8c0.1,1.8,0.3,3.7,0.5,5.9c0.3,2.1,0.5,4.4,0.8,6.7
			c0.1,1.2,0.2,2.4,0.3,3.5s0.2,2.2,0.4,3.3c0.5,2,1.3,3.9,2.1,5.5c0.4,0.9,0.8,1.5,1.2,2.2c0.3,0.6,0.8,1.2,1.1,1.6
			c0.4,0.5,0.7,0.8,0.9,1s0.3,0.3,0.3,0.3h-0.1c0,0-0.9,1.1-2.1,2.8c-0.6,0.8-1.3,1.9-2,3c-0.8,1.1-1.4,2.3-2.2,3.5
			c-0.4,0.5-0.8,1.2-1.2,1.7s-0.9,1.2-1.1,1.7c-0.4,1.2-0.5,2.5-0.5,3.6c0,0.5,0,1.1,0.1,1.5s0.2,0.9,0.3,1.2
			c-3-0.2-6.2-0.3-9.7-0.5c-4.8-0.2-10.1-0.4-15.7-0.5c-5.6-0.1-11.5-0.3-17.6-0.4s-12.4-0.3-18.8-0.3c-6.4,0-12.9-0.1-19.4-0.1
			s-13,0.1-19.4,0.1c-6.4,0.1-12.7,0.2-18.8,0.3s-12,0.3-17.6,0.4c-5.5,0.1-10.8,0.2-15.7,0.5c-1.6,0.1-3.2,0.2-4.8,0.3
			c0.1-0.4,0.2-0.8,0.3-1.2c0-0.4,0.1-1,0.1-1.5c0-1.1,0-2.4-0.5-3.6c-0.3-0.6-0.7-1.2-1.1-1.7c-0.4-0.5-0.9-1.2-1.2-1.7
			c-0.8-1.2-1.4-2.4-2.2-3.5c-0.7-1.2-1.5-2.1-2-3c-0.9-1.3-1.6-2.2-1.9-2.6l0,0c0,0,0.1-0.1,0.3-0.3c0.2-0.2,0.6-0.6,0.9-1
			s0.7-0.9,1.1-1.6s0.8-1.4,1.2-2.2c0.8-1.5,1.7-3.4,2.1-5.5c0.2-1,0.3-2.1,0.4-3.3c0.1-1.2,0.2-2.3,0.3-3.5
			c0.4-2.2,0.7-4.5,0.9-6.7c0.2-2.1,0.4-4.2,0.5-5.9c0.3-3.3,0.4-5.5,0.4-5.8c0.3,0,0.7,0.1,1.4,0.2c1.2,0.1,2.9,0.2,5.1,0.4
			c4.3,0.3,10.5,0.7,18,1.2s16.2,0.8,25.5,1c4.6,0.1,9.5,0.2,14.4,0.2c4.9,0.1,9.9,0.1,14.9,0.1s10,0,14.9-0.1
			c5-0.1,9.7-0.2,14.4-0.3c9.3-0.2,18-0.6,25.5-1c7.5-0.3,13.7-0.9,18-1.2c2.2-0.1,3.9-0.3,5.1-0.4c1-0.1,1.7-0.2,1.7-0.2
			s-0.7,0-1.7,0c-1.2-0.1-2.9-0.2-5.1-0.4c-2.9-0.2-6.6-0.4-11-0.7c0.2-0.6,0.5-1.3,0.8-2.3c0.4-1.1,0.8-2.4,1.2-3.9
			s0.9-3.3,1.3-5.1c0.9-3.7,1.7-8.1,2.2-12.9c0.2-2.4,0.3-4.9,0.4-7.4c0.1-2.5,0.2-5,0.3-7.6c0.4-5.1,0.7-10.2,0.9-15
			c0.4-4.7,0.5-9.3,0.7-13.1c0.4-7.7,0.5-12.8,0.5-12.8l-0.4-0.2c0,0-0.9,5-2.2,12.6c-0.7,3.8-1.4,8.1-2.2,12.9
			c-0.8,4.8-1.5,9.8-2.3,14.9c-0.4,2.5-0.9,5-1.3,7.5c-0.4,2.5-0.8,4.9-1.1,7.3c-0.6,4.7-0.7,9.2-0.7,13.1c0,1.9,0,3.8,0.1,5.3
			c0.1,1.6,0.2,3,0.3,4.1c0.1,1,0.2,1.9,0.3,2.5c-1.8-0.1-3.7-0.2-5.8-0.4c-7.5-0.5-16.2-0.8-25.5-1c-4.6-0.2-9.5-0.2-14.4-0.3
			s-9.9-0.1-14.9-0.1s-10,0-14.9,0.1c-5,0-9.7,0.1-14.4,0.2c-9.3,0.2-18,0.6-25.5,1c-2,0.1-3.8,0.2-5.6,0.3c0.1-0.6,0.1-1.3,0.2-2.2
			c0.1-1.2,0.2-2.5,0.3-4.1c0-1.6,0.1-3.3,0.1-5.3c0-3.9-0.2-8.3-0.7-13.1c-0.2-2.4-0.7-4.8-1.1-7.3c-0.5-2.4-0.9-5-1.3-7.5
			c-0.8-5.1-1.5-10.1-2.3-14.9c-0.8-4.7-1.5-9.1-2.2-12.9c-1.2-7.6-2.2-12.6-2.2-12.6l-0.4,0.2c0,0,0.2,5.1,0.5,12.8
			c0.3,3.9,0.4,8.3,0.7,13.1c0.2,4.8,0.6,9.9,0.9,15c0.1,2.5,0.2,5.1,0.3,7.6s0.2,5,0.4,7.4c0.6,4.8,1.3,9.1,2.2,12.9
			c0.4,1.8,0.9,3.6,1.3,5.1s0.9,2.8,1.2,3.9c0.3,0.8,0.5,1.5,0.7,2c-4.4,0.3-8.1,0.6-11,0.8c-2.2,0.1-3.9,0.3-5.1,0.4
			c-0.7,0.1-1.3,0.1-1.5,0.2l-0.4-0.1c0,0-0.9,2.1-2.1,5.4c-0.7,1.6-1.3,3.4-2.1,5.5c-0.8,2.1-1.4,4.2-2.2,6.4
			c-0.3,1.1-0.8,2.2-1.2,3.3c-0.4,1-0.9,2-1.1,3.1c-0.5,2.1-0.5,4.2-0.5,5.9c0.1,1,0.1,1.7,0.2,2.5s0.2,1.5,0.3,2s0.2,1,0.3,1.3
			c0,0.1,0.1,0.2,0.1,0.3h-0.1c0,0,0.1,1.4,0.4,3.5c0.3,1.1,0.5,2.3,0.7,3.6s0.6,2.6,0.9,4c0.1,0.7,0.2,1.4,0.3,2.1s0.2,1.3,0.4,2
			c0.6,1.2,1.3,2.1,2.1,2.9c0.4,0.4,0.8,0.7,1.1,1c-1.8,0.1-3.6,0.2-5.2,0.3c-4,0.1-7.5,0.3-10.3,0.5c-2.8,0.1-5.1,0.3-6.6,0.4
			c-1.6,0.1-2.4,0.2-2.4,0.2s0.8,0.1,2.4,0.6c1.5,0.1,3.8,0.2,6.6,0.4c2.9,0.1,6.3,0.3,10.3,0.5c4.1,0.3,8.5,0.5,13.4,0.7
			c4.8,0.2,10.1,0.4,15.7,0.5s11.5,0.3,17.6,0.4s12.4,0.3,18.8,0.3s12.9,0.1,19.4,0.1s13-0.1,19.4-0.1c6.4-0.1,12.7-0.2,18.8-0.3
			c6.1-0.1,12-0.2,17.6-0.4c5.5-0.1,10.8-0.3,15.7-0.5c4.9-0.3,9.4-0.5,13.4-0.7c4-0.3,7.5-0.5,10.3-0.7c2.8-0.1,5.1-0.3,6.6-0.4
			c1.6-0.1,2.4-0.2,2.4-0.2S217.2,1074.6,215.7,1074.5z"/>
	</g>
</g>
<g>
	<polygon fill="#4CC9AB" points="143.2,874.6 89.6,874.6 91.1,846.7 143.2,849.4 	"/>
	<rect x="69.9" y="882.5" fill="#4CC9AB" width="93" height="131.4"/>
	<rect x="48.9" y="1022.3" fill="#4CC9AB" width="134.9" height="48.1"/>
</g>
<g>
	<path fill="#4CC9AB" d="M226.1,1051.4c0,0,13.2-0.6,36.3-1.6c11.5-0.5,25.6-1,41.6-1.7c16.1-0.6,34.2-1.3,54-2s41.2-1.4,63.9-2.2
		c22.7-0.8,46.6-1.5,71.3-2.3s50.3-1.6,76.2-2.3c26-0.7,52.3-1.4,78.7-2c13.2-0.3,26.4-0.7,39.5-1.2s26.2-1,39.2-1.6
		c13-0.5,25.9-1,38.6-1.4c12.7-0.4,25.3-0.6,37.7-0.7c24.7-0.1,48.6,0.4,71.3,1.4c11.3,0.4,22.4,1,33,1.5c10.7,0.6,21,1.1,30.9,1.9
		c19.8,1.3,37.9,2.8,54,4.3s30.1,3.1,41.6,4.5c23.1,2.8,36.3,5.2,36.3,5.2v4c0,0-13.2,2.4-36.3,5.2c-11.5,1.4-25.6,3-41.6,4.5
		c-16.1,1.5-34.2,3.1-54,4.4c-9.9,0.7-20.2,1.2-30.9,1.9c-10.7,0.5-21.7,1.1-33,1.5c-22.7,1-46.6,1.5-71.3,1.4
		c-12.4-0.1-24.9-0.3-37.7-0.6c-12.7-0.4-25.6-0.9-38.6-1.4s-26.1-1.1-39.2-1.5c-13.1-0.5-26.3-0.9-39.5-1.2
		c-26.4-0.7-52.8-1.3-78.7-2c-26-0.6-51.5-1.5-76.2-2.2c-24.7-0.8-48.6-1.5-71.3-2.3c-22.7-0.8-44.1-1.5-63.9-2.2s-37.9-1.4-54-2
		s-30.1-1.2-41.6-1.6c-23.1-1-36.3-1.5-36.3-1.5L226.1,1051.4z"/>
</g>
<g>
	<path fill="#FFFFFF" d="M252.1,1039.2v-12.4c1.2-0.1,3.2-0.3,5.8-0.6c2.7-0.3,4.6-0.5,5.8-0.6v-70.5c-4.1-0.2-8-0.6-11.7-1.1v-12.4
		c17.4-2.1,34.8-2.1,52.2,0V954c-3.8,0.6-7.7,0.9-11.7,1.1v22.6h29.7V955c-1.2-0.2-3.1-0.4-5.7-0.6c-2.6-0.1-4.6-0.3-6-0.6v-12.4
		c14.2-2.1,31.5-2.1,52,0v12.4c-3.8,0.6-7.6,0.9-11.5,1.1v70.5c1.4,0.1,3.4,0.3,6,0.6c2.6,0.3,4.4,0.5,5.5,0.6v12.4
		c-17.3,2.3-34.7,2.3-52,0v-12.4c4.4-0.6,8.3-1,11.7-1.2V996h-29.7v29.4c1.2,0.1,3.2,0.3,5.8,0.6c2.7,0.3,4.6,0.5,5.8,0.6v12.4
		C286.9,1041.4,269.5,1041.4,252.1,1039.2z"/>
	<path fill="#FFFFFF" d="M378,1010.6c-0.2-11.6,3.4-20,11-25.2c5.9-3.9,14.1-5.9,24.4-6.1c7.7,0,15.1,1.3,22.2,4V977
		c0-6-1.5-10.8-4.6-14.5c-3-3.7-8-5.7-14.9-5.9c-5.4-0.1-10,1-13.9,3.4c-3.8,2.4-6.6,5.8-8.4,10.4h-11.2c-1-8.3-0.7-17.2,0.8-26.6
		c10.3-3.7,21.9-5.6,34.7-5.6c15.4,0.1,26.9,3.4,34.7,9.9c7.7,6.5,11.6,16.6,11.6,30.4v46.5c2.1,0.2,5.7,1.1,10.9,2.5v12.4
		c-3.3,0.4-6.2,0.8-8.8,1c-2.5,0.2-5.5,0.3-8.9,0.2c-3.4-0.1-6.5-0.6-9.4-1.5s-5.5-2.3-7.7-4c-4.4,2.5-8.6,4.3-12.7,5.5
		c-4.1,1.1-8.6,1.7-13.6,1.7c-6.7,0-12.8-1.2-18.1-3.7c-5.4-2.4-9.7-6.1-13-11.1C379.8,1023,378.1,1017.2,378,1010.6z M406.9,1008.2
		c-0.2,4.8,1.2,8.6,4.4,11.4c3.2,2.8,7.1,4.2,11.8,4.2c4-0.2,8.2-1,12.6-2.6v-22.5c-2.9-2.7-7.1-4.1-12.4-4.3
		c-4.5-0.2-8.3,0.9-11.4,3.1C408.7,999.9,407,1003.4,406.9,1008.2z"/>
	<path fill="#FFFFFF" d="M485.7,1039.6v-12.4c4.7-0.7,8.6-1.1,11.7-1.2v-69.3c-0.8-0.1-4.7-0.5-11.7-1.4v-12.4
		c11.3-2.6,24.8-3.7,40.5-3.2V980c5.5,0.2,9.5-0.9,12.2-3.2s5-6,6.8-10.8c2.8-7.7,4.7-12.4,5.6-14.2c3.1-6,7.4-9.7,12.8-11.3
		c2.4-0.7,5.1-1,8-1.1c3.7-0.1,9,0.6,16,2.1l-1.3,12.4c-2.1-0.3-3.9-0.1-5.4,0.5s-2.7,1.7-3.6,3.2c-0.9,1.5-1.6,3-2.1,4.4
		s-1,3.1-1.5,5.2c-0.5,2.1-1,3.5-1.3,4.4c-3.2,8-8.2,13.1-15.1,15.3v0.4c2.3,0.3,4.3,1,6.1,2.1s3.3,2.2,4.4,3.5
		c1.1,1.2,2.2,2.9,3.3,5.1c1,2.2,1.8,3.9,2.3,5.3c0.5,1.4,1.1,3.3,1.8,5.8c3.7,12.7,8.7,19.1,14.9,19.1v12.4
		c-5,0.7-9.8,0.9-14.4,0.7c-4-0.1-7.5-0.8-10.5-2.1c-3-1.3-5.6-3.1-7.7-5.5s-3.9-4.9-5.3-7.6c-1.4-2.7-2.8-6-4.2-10
		c-2.3-6.3-4.2-10.5-5.6-12.6c-3.6-5.2-9-7.6-16.3-7.2v30.1c3.1,0.1,7,0.5,11.7,1.2v12.4C520.5,1041.7,503.1,1041.7,485.7,1039.6z"
		/>
	<path fill="#FFFFFF" d="M597.7,953.9v-12.4c5.1-0.7,11-1.1,17.7-1.3c10.9-0.6,22.4-0.1,34.4,1.3v12.4c-3.8,0.6-7.6,0.9-11.5,1.1
		v50.9c0,5.4,1,9.4,3.1,12s5,3.8,8.8,3.7c7.1-0.1,13.7-4.1,19.8-12.1V955c-3.9-0.2-7.7-0.6-11.3-1.1v-12.4c17.3-2.1,34.6-2.1,51.9,0
		v12.4c-3.6,0.6-7.4,0.9-11.3,1.1v69.4c3.4,0.5,7.2,1.4,11.3,2.7v12.4c-7.5,1-19.2,1.2-35.2,0.7l-2.9-13c-5.5,5.5-11.2,9.5-17.1,12
		c-5.9,2.5-12.7,3.5-20.3,3.1c-8.7-0.5-15.2-3.6-19.6-9.3c-4-5.4-6-13.4-6-23.9v-54.2C605.3,954.9,601.4,954.5,597.7,953.9z"/>
	<path fill="#FFFFFF" d="M720.1,1021.6h11c3-12.6,5.2-24.3,6.8-34.9c1.6-10.6,2.2-21,1.8-31.1c-4.1-0.2-8-0.6-11.7-1.2v-13
		c5.5-0.6,13.2-1,23.1-1h52.3c4.8,0,9.9,0.3,15.3,0.9v13.1c-3.8,0.6-7.6,0.9-11.5,1.1v65.9H820c0.6,16.6-0.5,31-3.4,43h-17.1
		c-2-9.9-3.1-18.1-3.4-24.5h-51.9c-0.2,7.6-1.3,15.7-3.2,24.5h-17.2c-1.7-6.9-2.8-13.6-3.2-19.8
		C719.9,1038.5,719.8,1030.8,720.1,1021.6z M750.7,1021.6h27.5v-62.9h-18.8C759.2,976.9,756.3,997.9,750.7,1021.6z"/>
	<path fill="#FFFFFF" d="M834.4,1039.6v-12.4c4.7-0.7,8.6-1.1,11.7-1.2v-69.3c-0.8-0.1-4.7-0.5-11.7-1.4v-12.4
		c11.3-2.6,24.8-3.7,40.5-3.2V980c5.5,0.2,9.5-0.9,12.2-3.2s5-6,6.8-10.8c2.8-7.7,4.7-12.4,5.6-14.2c3.1-6,7.4-9.7,12.8-11.3
		c2.4-0.7,5.1-1,8-1.1c3.7-0.1,9,0.6,16,2.1l-1.3,12.4c-2.1-0.3-3.9-0.1-5.4,0.5s-2.7,1.7-3.6,3.2c-0.9,1.5-1.6,3-2.1,4.4
		s-1,3.1-1.5,5.2c-0.5,2.1-1,3.5-1.3,4.4c-3.2,8-8.2,13.1-15.1,15.3v0.4c2.3,0.3,4.3,1,6.1,2.1s3.3,2.2,4.4,3.5
		c1.1,1.2,2.2,2.9,3.3,5.1c1,2.2,1.8,3.9,2.3,5.3c0.5,1.4,1.1,3.3,1.8,5.8c3.7,12.7,8.7,19.1,14.9,19.1v12.4
		c-5,0.7-9.8,0.9-14.4,0.7c-4-0.1-7.5-0.8-10.5-2.1c-3-1.3-5.6-3.1-7.7-5.5s-3.9-4.9-5.3-7.6c-1.4-2.7-2.8-6-4.2-10
		c-2.3-6.3-4.2-10.5-5.6-12.6c-3.6-5.2-9-7.6-16.3-7.2v30.1c3.1,0.1,7,0.5,11.7,1.2v12.4C869.3,1041.7,851.9,1041.7,834.4,1039.6z"
		/>
	<path fill="#FFFFFF" d="M946.4,953.9v-12.4c5.1-0.7,11-1.1,17.7-1.3c10.9-0.6,22.4-0.1,34.4,1.3v12.4c-3.8,0.6-7.6,0.9-11.5,1.1
		v50.9c0,5.4,1,9.4,3.1,12s5,3.8,8.8,3.7c7.1-0.1,13.7-4.1,19.8-12.1V955c-3.9-0.2-7.7-0.6-11.3-1.1v-12.4c17.3-2.1,34.6-2.1,51.9,0
		v12.4c-3.6,0.6-7.4,0.9-11.3,1.1v69.4c3.4,0.5,7.2,1.4,11.3,2.7v12.4c-7.5,1-19.2,1.2-35.2,0.7l-2.9-13c-5.5,5.5-11.2,9.5-17.1,12
		c-5.9,2.5-12.7,3.5-20.3,3.1c-8.7-0.5-15.2-3.6-19.6-9.3c-4-5.4-6-13.4-6-23.9v-54.2C954.1,954.9,950.2,954.5,946.4,953.9z"/>
</g>
<text transform="matrix(1 0 0 1 241.3135 925.7883)" fill="#4CC9AB" font-family="'Orpheus'" font-size="80.0245">авто</text>
<g>
	<path fill="#FFFFFF" d="M992.2,928.8c0-1.2,0.3-2,0.9-2.5s1.4-0.7,2.5-0.7c1.1,0,2,0.2,2.6,0.7s0.9,1.3,0.9,2.5
		c0,1.2-0.3,2-0.9,2.5s-1.4,0.7-2.6,0.7c-1.1,0-1.9-0.2-2.5-0.7S992.2,929.9,992.2,928.8z"/>
	<path fill="#FFFFFF" d="M1001.9,931.6v-2.4c0.3,0,1-0.1,2.2-0.2v-13.1c-0.3,0-0.8-0.1-1.3-0.1c-0.6-0.1-0.9-0.1-0.9-0.1v-2.4
		c2.1-0.5,4.2-0.8,6.3-0.8c0.1,0,0.3,0,0.4,0c0.3,0.9,0.4,1.7,0.5,2.6c0.9-0.9,2-1.6,3.3-2.1c1.1-0.5,2.3-0.7,3.4-0.7
		c0.2,0,0.3,0,0.5,0c0.9,0.1,1.7,0.2,2.3,0.6s1.2,0.7,1.6,1.2c0.4,0.5,0.7,1.1,0.9,1.7c0.2,0.7,0.4,1.4,0.5,2.1s0.1,1.5,0.1,2.3v8.8
		c1.3,0.1,2,0.2,2.2,0.2v2.4c-1.7,0.2-3.3,0.3-5,0.3s-3.3-0.1-5-0.3v-2.4c0.3,0,1-0.1,2.2-0.2v-8c0-0.1,0-0.2,0-0.4
		c0-0.4,0-0.6,0-0.8c0-0.2,0-0.4,0-0.7s0-0.6-0.1-0.8c0-0.2-0.1-0.4-0.2-0.7s-0.2-0.4-0.3-0.6c-0.1-0.1-0.3-0.3-0.5-0.4
		c-0.2-0.1-0.4-0.2-0.7-0.3s-0.5-0.1-0.9-0.1c-1.4,0-2.7,0.8-4,2.4V929c1.2,0.1,2,0.2,2.2,0.2v2.4c-1.7,0.2-3.3,0.3-5,0.3
		S1003.6,931.8,1001.9,931.6z"/>
	<path fill="#FFFFFF" d="M1025.7,922.1c0-3.1,0.8-5.5,2.3-7.2s3.7-2.6,6.6-2.6c1.6,0,3,0.3,4.2,0.8s2.2,1.3,2.9,2.2
		c0.7,1,1.2,2.1,1.6,3.4c0.3,1.1,0.4,2.2,0.4,3.5c0,0.3,0,0.5,0,0.8c-1,0.2-2.2,0.3-3.5,0.3h-8.8c0,0,0,0.1,0,0.1
		c0,0.9,0.1,1.7,0.3,2.4c0.2,0.8,0.6,1.4,1.2,1.9c0.6,0.5,1.2,0.8,2.1,0.8c0,0,0,0,0.1,0c0.8,0,1.4-0.3,2-0.8c0.5-0.5,0.9-1.2,1.2-2
		c0.8-0.1,1.6-0.2,2.4-0.2s1.8,0.1,2.7,0.2c-0.1,0.6-0.3,1.2-0.5,1.8c-0.2,0.6-0.6,1.1-1,1.7c-0.4,0.6-1,1-1.6,1.4
		c-0.6,0.4-1.3,0.7-2.2,1c-0.9,0.3-1.8,0.4-2.8,0.4C1028.8,932.1,1025.7,928.8,1025.7,922.1z M1031.4,920.3h6.8
		c0-0.7-0.1-1.2-0.2-1.7s-0.3-0.9-0.5-1.4c-0.2-0.4-0.6-0.8-1.1-1s-1-0.3-1.7-0.3c-0.6,0-1.1,0.1-1.6,0.4s-0.8,0.6-1,1.1
		s-0.4,0.9-0.5,1.4C1031.4,919.2,1031.4,919.8,1031.4,920.3z"/>
	<path fill="#FFFFFF" d="M1045.4,915.4V913c0.6-0.1,1.1-0.3,1.5-0.5c0.5-0.2,0.9-0.4,1.2-0.6s0.6-0.5,0.9-0.8s0.5-0.6,0.6-0.8
		c0.1-0.2,0.3-0.5,0.4-0.8c0.1-0.3,0.2-0.6,0.3-0.8s0.1-0.4,0.2-0.8h2.5v4.7c1.2,0,2.6,0.1,4,0.1v2.6c-1.6,0.2-3,0.3-4,0.3v10
		c0,1.8,0.7,2.7,2.1,2.7c0.1,0,0.1,0,0.2,0c0.4,0,0.8,0,1.3-0.2c0.6-0.1,1.1-0.3,1.5-0.6c0.5,0.7,0.9,1.5,1.1,2.3
		c-0.5,0.5-1.2,0.9-2.1,1.3c-0.9,0.4-2,0.6-3.1,0.7c-0.1,0-0.2,0-0.3,0c-4.1,0-6.1-1.8-6.1-5.5v-10.9c-0.4,0-0.7-0.1-1.2-0.1
		C1046.1,915.5,1045.7,915.4,1045.4,915.4z"/>
</g>
</svg>
