<?xml version="1.0" encoding="utf-8"?>
<!-- Generator: Adobe Illustrator 17.1.0, SVG Export Plug-In . SVG Version: 6.00 Build 0)  -->
<!DOCTYPE svg PUBLIC "-//W3C//DTD SVG 1.1//EN" "http://www.w3.org/Graphics/SVG/1.1/DTD/svg11.dtd">
<svg version="1.1" id="Capa_1" xmlns="http://www.w3.org/2000/svg" xmlns:xlink="http://www.w3.org/1999/xlink" x="0px" y="0px"
	 viewBox="135 0 30 30" enable-background="new 135 0 30 30" xml:space="preserve">
<g>
	<g>
		<g>
			<polygon fill="#3DAFC4" points="155.6,5.6 155.6,7.5 163.1,7.5 163.1,13.1 165,13.1 165,5.6 			"/>
			<rect x="163.1" y="15" fill="#3DAFC4" width="1.9" height="1.9"/>
			<rect x="163.1" y="18.8" fill="#3DAFC4" width="1.9" height="1.9"/>
			<path fill="#3DAFC4" d="M163.1,28.1h-24.4c-1,0-1.9-0.8-1.9-1.9s0.8-1.9,1.9-1.9s1.9,0.8,1.9,1.9h1.9V7.5h2.8V5.6h-2.8V3.8
				c0-2.1-1.7-3.8-3.8-3.8S135,1.7,135,3.8v22.5c0,2.1,1.7,3.8,3.8,3.8H165v-7.5h-1.9V28.1z M136.9,3.8c0-1,0.8-1.9,1.9-1.9
				s1.9,0.8,1.9,1.9V23c-1.2-0.6-2.6-0.6-3.8,0V3.8z"/>
			<path fill="#3DAFC4" d="M146.2,18.1l2-5.9h3.7v6.6h1.9V1.9h-1.9V0H150v1.9h-1.9v4.5l-3.7,11.1L146.2,18.1z M150,3.8h1.9v1.9H150
				V3.8z M149.7,7.5h2.1v2.8h-3.1L149.7,7.5z"/>
			<path fill="#3DAFC4" d="M146.7,20.3L145,21c1.7,4.3,6.7,6.4,11,4.7c4.3-1.7,6.4-6.7,4.7-11c-0.9-2.1-2.5-3.8-4.7-4.7l-0.7,1.7
				c3.4,1.4,5,5.2,3.6,8.5c-1.4,3.4-5.2,5-8.5,3.6C148.7,23.2,147.4,21.9,146.7,20.3z"/>
			<rect x="151.9" y="20.6" fill="#3DAFC4" width="1.9" height="1.9"/>
			<rect x="155.6" y="16.9" fill="#3DAFC4" width="1.9" height="1.9"/>
		</g>
	</g>
</g>
</svg>
