<?xml version="1.0" encoding="utf-8"?>
<!-- Generator: Adobe Illustrator 17.1.0, SVG Export Plug-In . SVG Version: 6.00 Build 0)  -->
<!DOCTYPE svg PUBLIC "-//W3C//DTD SVG 1.1//EN" "http://www.w3.org/Graphics/SVG/1.1/DTD/svg11.dtd">
<svg version="1.1" id="Слой_1" xmlns="http://www.w3.org/2000/svg" xmlns:xlink="http://www.w3.org/1999/xlink" x="0px" y="0px"
	 viewBox="135 0 30 30" enable-background="new 135 0 30 30" xml:space="preserve">
<g>
	<path fill="#3DAFC4" d="M158,6.2c0.5-0.6,0.9-1.4,0.9-2.3c0-1.8-1.5-3.3-3.2-3.3c-1.3,0-4.5,2-5.7,3.8c-1.3-1.8-4.4-3.8-5.7-3.8
		c-1.8,0-3.2,1.5-3.2,3.3c0,0.8,0.3,1.6,0.8,2.2h-6.3v7.9h1.7v15.3h9h7.3h9V14.1h1.7V6.2C164.4,6.2,158,6.2,158,6.2z M155.7,1.9
		c1.1,0,2,0.9,2,2.1c0,1-0.7,1.9-1.7,2.1h-5c-0.3-0.1-0.4-0.2-0.4-0.3C150.7,4.8,154.3,1.9,155.7,1.9z M144.3,1.9c1.3,0,5,2.9,5,4
		c0,0.1-0.2,0.2-0.4,0.3h-5C143,5.9,142.3,5,142.3,4C142.3,2.8,143.2,1.9,144.3,1.9z M146.3,28.1h-7.8v-14h7.8V28.1z M146.3,12.9
		h-9.5V7.4h9.5L146.3,12.9L146.3,12.9z M152.4,28.1h-4.9V7.4h4.9V28.1z M161.4,28.1h-7.8v-14h7.8V28.1z M163.1,12.9h-9.5V7.4h9.5
		L163.1,12.9L163.1,12.9z"/>
</g>
</svg>
