<svg width="23" height="25" viewBox="0 0 23 25" fill="none" xmlns="http://www.w3.org/2000/svg">
<path d="M14.4991 1.99993C14.4991 1.99993 9.77264 0.146061 8.88589 0.0729957C7.99914 -6.94916e-05 6.98724 0.127433 6.3147 0.787517L5.16139 1.87531C4.72349 2.28833 4.2146 2.61888 3.65923 2.85106L2.80018 3.21019C1.2871 3.21019 0.0605469 4.41403 0.0605469 5.89909C0.0605469 5.89909 0.360976 9.41146 0.499146 10.4999C0.663306 11.7932 1.36382 15.3401 1.36382 15.3401H19.8777L22.0994 6.55702C22.6272 4.47051 21.6514 1.99993 19.4991 1.99993C17.9015 1.99993 16.0989 2.37336 14.4991 1.99993Z" fill="#FFC100"/>
<path d="M21.0103 14.9284V15.7875C21.0103 16.7906 20.1816 17.6039 19.1597 17.6039H18.532C18.4491 19.1075 17.9212 20.5218 17.1756 21.5638C17.1756 21.5648 17.1745 21.5648 17.1745 21.5659C15.6836 23.8165 12.6136 25.3571 9.41047 24.8819H9.4094C5.74295 24.3297 2.90516 21.31 2.70965 17.6038H2.08195C1.06001 17.6038 0.232422 16.7905 0.232422 15.7875V14.9283C0.232422 13.9253 1.06001 13.112 2.08195 13.112H2.69884V10.2532C4.82417 10.1125 5.51162 9.47291 5.51162 7.41675C5.51162 7.41675 8.2158 12.1441 16.12 10.735C16.8791 10.5996 17.686 10.4077 18.5439 10.1497V13.1119H19.1597C20.1816 13.1121 21.0103 13.9254 21.0103 14.9284Z" fill="#FFDCDC"/>
<path d="M10.6198 20.4519C9.58499 20.4519 8.61101 20.0562 7.87712 19.3378C7.50619 18.9736 7.21985 18.5496 7.02541 18.0769C6.88698 17.7402 7.05283 17.357 7.39589 17.2211C7.73895 17.085 8.12925 17.2481 8.26778 17.5848C8.39443 17.8927 8.58154 18.1695 8.82394 18.4075C9.30427 18.8777 9.94225 19.137 10.6198 19.137C11.6589 19.137 12.5822 18.5273 12.9722 17.5837C13.1113 17.2473 13.5016 17.0851 13.8448 17.2216C14.1875 17.3581 14.3528 17.7415 14.2137 18.0779C13.6177 19.52 12.207 20.4519 10.6198 20.4519Z" fill="#C251C0"/>
<path d="M6.99152 15.1245C6.43517 15.1245 5.98438 14.6819 5.98438 14.136V13.5713C5.98438 13.0253 6.43517 12.5828 6.99152 12.5828C7.54786 12.5828 7.99866 13.0253 7.99866 13.5713V14.136C7.99866 14.6819 7.54786 15.1245 6.99152 15.1245Z" fill="#C251C0"/>
<path d="M14.2976 14.9999C13.7685 14.9999 13.3398 14.579 13.3398 14.0598V13.5228C13.3398 13.0036 13.7685 12.5828 14.2976 12.5828C14.8267 12.5828 15.2554 13.0036 15.2554 13.5228V14.0598C15.2554 14.579 14.8267 14.9999 14.2976 14.9999Z" fill="#C251C0"/>
</svg>
