<svg width="30" height="29" viewBox="0 0 30 29" fill="none" xmlns="http://www.w3.org/2000/svg">
<g clip-path="url(#clip0)">
<path d="M19.9946 6.72319C19.9133 7.39447 19.738 8.04761 19.5547 8.59299C19.4399 8.93594 19.3216 9.23684 19.2216 9.47336C18.2423 9.41384 17.0196 9.51163 15.5201 9.84794C15.5201 9.84794 12.4444 10.338 10.9165 10.338C10.0744 10.338 9.40137 3.85753 9.02204 1.50451C8.85645 0.475685 8.07791 0.0026474 7.29033 0.000213623L17.2726 0.00508118L18.8023 2.77229C19.0487 3.21722 19.3156 3.65022 19.5797 4.08431C20.0425 4.84631 20.107 5.80212 19.9946 6.72319Z" fill="#FFC100"/>
<path d="M21.3741 11.7288C22.7049 13.1329 24.3414 15.6603 24.137 19.7667C23.9864 22.7937 22.6642 25.4825 20.3969 27.1446C20.3969 27.1446 18.9041 27.9517 18.8235 29H5.92911C5.92911 29 3.65644 24.7624 6.94412 18.2115C8.01344 16.0815 8.69504 14.7923 8.95779 13.6488L21.3741 11.7288Z" fill="#FFC100"/>
<path d="M16.2251 12.5251L8.95779 13.6488C8.69504 14.7923 8.01344 16.0815 6.94412 18.2115C3.65644 24.7623 5.92911 29 5.92911 29H16.2251V12.5251Z" fill="#FFC100"/>
<path d="M21.2418 12.522C20.7258 12.5005 19.5678 12.6705 18.6554 12.8172C17.9222 12.9351 17.1999 13.113 16.4967 13.3513C15.9065 13.5513 15.3594 13.7179 14.8506 13.8544C11.9233 14.6394 10.2645 14.4252 9.03329 13.9143L6.95029 0.0283203C7.05892 0.00973511 7.1691 0.00066376 7.27928 0H7.29009C8.0779 0.00287628 8.85643 0.475693 9.02203 1.5043C9.40114 3.85776 10.0743 10.338 10.9167 10.338C12.4444 10.338 15.5199 9.84817 15.5199 9.84817C17.0195 9.51164 18.2421 9.41363 19.2218 9.47314C23.2343 9.71829 23.1621 12.6032 21.2418 12.522Z" fill="white"/>
<path d="M9.03331 13.9143C8.80831 13.821 8.59745 13.7172 8.39564 13.6086C7.51621 13.1338 6.92094 12.2609 6.79332 11.2675L5.46765 1.99437C5.34621 0.86377 6.10134 0.172798 6.9503 0.0283203L9.03331 13.9143Z" fill="white"/>
<path d="M19.3359 17.2926L19.2867 17.2431C18.4413 16.3959 17.0706 16.3959 16.2251 17.2431C15.3797 16.3959 14.009 16.3959 13.1635 17.2431L13.1143 17.2926C12.2691 18.1396 12.2689 19.5127 13.1139 20.3601L16.2238 23.4782L16.2251 23.4769L16.2264 23.4782L19.3364 20.3601C20.1814 19.5129 20.1811 18.1396 19.3359 17.2926V17.2926Z" fill="white"/>
<path d="M13.1441 0.0030899L7.29033 0.000213623C8.07791 0.0026474 8.85644 0.475685 9.02204 1.50451C9.40137 3.85753 10.0741 10.338 10.9165 10.338C12.4444 10.338 15.5201 9.84794 15.5201 9.84794C15.6994 9.80767 15.8747 9.77116 16.046 9.73753L13.1441 0.0030899Z" fill="#FFC100"/>
<path d="M14.0827 7.97637C13.3285 8.66779 12.4917 9.01736 11.5923 9.01736C11.5263 9.01736 11.4596 9.01559 11.3921 9.01183C10.9511 8.98683 10.5409 8.87997 10.1731 8.73151C10.0057 8.02991 9.84959 7.16106 9.70651 6.25613C10.0141 6.56633 10.7436 7.15132 11.5031 7.1907C11.9748 7.21504 12.4157 7.03207 12.854 6.63005L14.0827 7.97637Z" fill="#FFC100"/>
<path d="M19.9946 6.72318C19.9133 7.39446 19.738 8.0476 19.5547 8.59299C18.9751 8.57462 18.3121 8.39297 17.7137 7.8779L18.9005 6.49463C19.3403 6.87341 19.8387 6.76942 19.9946 6.72318Z" fill="#FFC100"/>
<path d="M19.3359 17.2926L19.2867 17.2431C18.4413 16.3959 17.0705 16.3959 16.2251 17.2431V23.4769L16.2264 23.4782L19.3364 20.3601C20.1814 19.5129 20.1811 18.1396 19.3359 17.2926V17.2926Z" fill="white"/>
</g>
<defs>
<clipPath id="clip0">
<rect x="0.189697" width="28.9404" height="29" fill="white"/>
</clipPath>
</defs>
</svg>
