<svg width="26" height="23" viewBox="0 0 26 23" fill="none" xmlns="http://www.w3.org/2000/svg">
<path d="M20.3754 6.2083C20.3754 6.2083 22.6998 7.26562 24.4171 7.11608C24.9026 7.07389 25.2679 7.55886 25.0871 8.01256C24.5374 9.39099 23.0859 11.3201 19.3789 9.94715L20.3754 6.2083Z" fill="white"/>
<path d="M19.3791 9.94714C23.0856 11.3201 24.5375 9.39098 25.0871 8.01255C25.223 7.67053 25.0493 7.31062 24.7473 7.17294C24.2175 8.48433 22.8723 10.2707 19.5622 9.25915L19.3791 9.94714Z" fill="white"/>
<path d="M0.611067 12.9769C0.740376 11.9542 0.912162 10.8408 1.26776 9.82698C1.44255 9.32865 2.09699 9.22412 2.42816 9.63507C2.74598 10.0293 3.1059 10.3926 3.51262 10.6948C4.57924 11.4877 5.88304 11.5817 7.16372 11.5817C7.79241 11.5817 8.18222 10.8935 7.85726 10.3543C7.24511 9.33863 6.88932 8.15023 6.8803 6.87933C6.85361 3.14387 9.87132 0.0525132 13.5987 0.000908974C17.4069 -0.0520135 20.5105 3.02559 20.5105 6.82942C20.5105 8.4478 19.9488 9.93471 19.0098 11.105C18.7482 11.4312 18.7769 11.9032 19.0767 12.1948C21.371 14.4247 20.9729 18.9995 18.5016 20.917C17.5549 21.6517 16.3873 21.9084 15.2132 21.9664C12.6347 22.0933 10.0521 22.0551 7.4714 22.0459C5.58551 22.0391 3.32524 21.6765 2.05865 20.123C0.530813 18.249 0.319558 15.2816 0.611067 12.9769V12.9769Z" fill="#FFC100"/>
<path d="M2.05884 20.1228C3.32524 21.6765 5.5859 22.0391 7.47121 22.0459C8.69119 22.0504 9.28643 22.0489 8.36416 22.0459C6.47865 22.0391 4.21819 21.6765 2.95179 20.1228C2.01374 18.9726 1.68971 17.4719 1.60495 16.0214C1.53879 14.8885 1.58859 13.8007 1.64667 12.6716C1.66659 12.2848 1.73689 11.9057 2.00171 11.6068C2.30675 11.2625 2.9283 11.5693 3.23108 11.7499C4.05881 12.2437 4.93446 12.5206 5.88567 12.6914C6.28131 12.7624 6.68371 12.7961 7.08441 12.75C7.97135 12.6477 8.9998 12.4624 9.06126 11.341C9.09321 10.7585 8.77445 10.1199 8.50531 9.61963C8.01194 8.70262 7.85331 7.40385 7.87718 6.37384C7.90331 5.23384 8.23391 4.12115 8.84888 3.16044C10.0121 1.34319 12.0029 0.157796 14.1457 0.0150375C13.965 0.0026073 13.7825 -0.00191277 13.5985 0.000723912C9.87113 0.0523281 6.85361 3.14368 6.88049 6.87915C6.88951 8.15023 7.24511 9.33863 7.85726 10.3541C8.18222 10.8935 7.79223 11.5815 7.16373 11.5815C5.88286 11.5815 4.57924 11.4875 3.51282 10.6947C3.1061 10.3926 2.7458 10.0291 2.42835 9.63488C2.097 9.22393 1.44218 9.32884 1.26758 9.8268C0.912542 10.8408 0.740381 11.9542 0.610884 12.9767C0.319751 15.2818 0.531005 18.2492 2.05884 20.1228V20.1228Z" fill="#FFC100"/>
<path d="M14.5158 16.803C14.3972 17.1987 14.1989 17.5716 13.916 17.8951C11.2674 20.9243 6.41629 18.2145 4.82211 15.5093C4.64882 15.2151 4.81872 14.8367 5.15327 14.7706C5.96559 14.6102 6.64972 14.4695 7.36036 14.0623C8.1317 13.6203 8.88105 12.9816 9.66142 12.6238C10.9729 12.0224 12.5414 12.3435 13.5753 13.3321C14.5133 14.229 14.8706 15.6191 14.5158 16.803V16.803Z" fill="white"/>
<path d="M4.82189 15.5095C6.41626 18.2145 11.2676 20.9245 13.916 17.8953C14.1989 17.5714 14.3971 17.199 14.5157 16.8028C14.6552 16.337 14.6849 15.8391 14.6116 15.3524C14.5892 15.4965 14.5575 15.6392 14.5157 15.7788C14.3971 16.1745 14.1989 16.5474 13.916 16.871C11.3742 19.7777 6.804 17.3998 5.0307 14.8121C4.78017 14.9343 4.67153 15.2539 4.82189 15.5095V15.5095Z" fill="#FFC100"/>
<path d="M16.1527 8C16.7036 8 17.1506 7.63385 17.1506 7.18254V4.81746C17.1506 4.36615 16.7036 4 16.1527 4C15.6012 4 15.1547 4.36615 15.1547 4.81746V7.18254C15.1547 7.63385 15.6012 8 16.1527 8Z" fill="#C251C0"/>
</svg>
