<svg width="21" height="29" viewBox="0 0 21 29" fill="none" xmlns="http://www.w3.org/2000/svg">
<path d="M13.4821 5C13.1126 5 12.8129 4.67871 12.8129 4.28209C12.8129 2.71257 11.6227 1.43572 10.1595 1.43572C8.69638 1.43572 7.50615 2.71257 7.50615 4.28209C7.50615 4.67861 7.20657 5 6.83695 5C6.46733 5 6.16774 4.67871 6.16774 4.28209C6.16792 1.92097 7.95856 0 10.1596 0C12.3606 0 14.1513 1.92097 14.1513 4.28209C14.1513 4.67871 13.8516 5 13.4821 5Z" fill="white"/>
<path d="M10.1771 2.97324C4.67825 2.96339 0.179428 7.5487 0.179428 13.0589V26.9972C0.179428 28.1022 1.07342 28.9981 2.17625 28.9981H18.1415C19.2443 28.9981 20.1382 28.1023 20.1382 26.9972V12.9732C20.1382 7.45645 15.6801 2.98313 10.1771 2.97324Z" fill="#FFC100"/>
<path d="M20.1389 12.9733V26.9971C20.1389 28.1024 19.2448 28.9983 18.1418 28.9983H14.8438C15.9468 28.9983 16.8409 28.1024 16.8409 26.9971V12.9733C16.8409 8.017 13.2429 3.90373 8.52228 3.11136C9.06128 3.01949 9.6142 2.97219 10.1777 2.97329C15.6806 2.98324 20.1389 7.45627 20.1389 12.9733Z" fill="#FFC100"/>
<path d="M16.4286 25.9977H3.88983C3.73636 25.9977 3.61198 25.8731 3.61198 25.7193V18.193C3.61198 18.0392 3.73636 17.9146 3.88983 17.9146H16.4285C16.582 17.9146 16.7063 18.0392 16.7063 18.193V25.7193C16.7064 25.8731 16.5821 25.9977 16.4286 25.9977Z" fill="white"/>
<path d="M16.7065 19.521H3.61205V18.193C3.61205 18.0392 3.73642 17.9146 3.88989 17.9146H16.4286C16.582 17.9146 16.7064 18.0392 16.7064 18.193V19.521H16.7065Z" fill="#FFC100"/>
<path d="M13.9949 11.3785L10.5372 14.8433C10.3287 15.0523 9.99049 15.0523 9.78181 14.8433L6.32417 11.3785C6.1156 11.1695 6.1156 10.8306 6.32417 10.6215L9.78181 7.15676C9.99038 6.94777 10.3285 6.94777 10.5372 7.15676L13.9949 10.6215C14.2034 10.8306 14.2034 11.1695 13.9949 11.3785Z" fill="white"/>
</svg>
