<svg width="22" height="25" viewBox="0 0 22 25" fill="none" xmlns="http://www.w3.org/2000/svg">
<path d="M8.05977 0H12C13.0138 0 13.8276 0 14.7123 0.736468C14.9095 0.900596 15.0422 1.1267 15.1234 1.37008C15.3483 2.04486 15.9798 2.5 16.691 2.5H17.5C19.8187 2.5 21.0278 4.16731 21.0278 6.44311V21.5963C21.0278 23.2128 19.6926 24.5233 18.0456 24.5233H2.98223C1.33521 24.5233 0 23.2128 0 21.5963V7.9106C0 3.54169 3.60843 0 8.05977 0Z" fill="#FFC100"/>
<path d="M20.7937 15.0446V15.8948C20.7937 16.8874 19.9748 17.6922 18.9634 17.6922H18.3423C18.0941 22.3809 13.6632 25.6372 9.31585 24.8944H9.31479C5.68656 24.348 2.87836 21.3598 2.68489 17.6922H2.06373C1.05244 17.6922 0.232422 16.8874 0.232422 15.8948V15.0446C0.232422 14.052 1.05244 13.2472 2.06373 13.2472H2.67304V9.34657C2.67304 9.24212 2.67516 9.13881 2.68055 9.03645C3.7553 9.24004 4.86539 9.34552 6.00032 9.34552C9.45876 9.34552 12.6828 8.36242 15.3987 6.66419C15.994 6.29291 16.5658 5.88676 17.1096 5.448C17.8752 6.51004 18.353 7.88931 18.353 9.34657V13.2472H18.9634C19.9748 13.2472 20.7937 14.052 20.7937 15.0446Z" fill="#FFDCDC"/>
<path d="M10.5133 20.5106C9.48942 20.5106 8.5256 20.119 7.79935 19.4081C7.43212 19.0477 7.14877 18.628 6.95653 18.1603C6.81954 17.8271 6.98375 17.448 7.32323 17.3135C7.66271 17.1791 8.04904 17.3403 8.18594 17.6735C8.31118 17.9782 8.49635 18.2521 8.73622 18.4876C9.21154 18.9529 9.84287 19.2095 10.5133 19.2095C11.5416 19.2095 12.4553 18.6062 12.8412 17.6724C12.9789 17.3395 13.3651 17.179 13.7047 17.3141C14.0439 17.4491 14.2074 17.8286 14.0698 18.1615C13.4799 19.5885 12.084 20.5106 10.5133 20.5106Z" fill="#C251C0"/>
<path d="M6.82781 15.0001C6.32953 15.0001 5.92578 14.6037 5.92578 14.1148V13.609C5.92578 13.12 6.32953 12.7236 6.82781 12.7236C7.32609 12.7236 7.72983 13.12 7.72983 13.609V14.1148C7.72983 14.6037 7.32597 15.0001 6.82781 15.0001Z" fill="#C251C0"/>
<path d="M14.1989 15.0001C13.7006 15.0001 13.2969 14.6037 13.2969 14.1148V13.609C13.2969 13.12 13.7006 12.7236 14.1989 12.7236C14.6972 12.7236 15.1009 13.12 15.1009 13.609V14.1148C15.1009 14.6037 14.6972 15.0001 14.1989 15.0001Z" fill="#C251C0"/>
</svg>
