<svg width="18" height="25" viewBox="0 0 18 25" fill="none" xmlns="http://www.w3.org/2000/svg">
<path d="M17.535 8.57417C17.4502 8.42749 17.2676 8.33335 17.0664 8.33335H11.9672C11.5499 8.33335 11.3162 7.85239 11.5741 7.52434L16.9862 0.6396C17.0871 0.511279 17.0933 0.348779 17.0023 0.215869C16.9113 0.0825195 16.7375 0 16.5492 0H8.27473C8.07874 0 7.89977 0.0891602 7.81189 0.23042L0.0545324 12.7304C-0.0256472 12.8592 -0.0168596 13.0125 0.077259 13.1354C0.171923 13.2583 0.337919 13.3333 0.517368 13.3333H5.00982C5.38544 13.3333 5.62693 13.732 5.45296 14.0649L0.0405326 24.4216C-0.0582526 24.6112 0.0296845 24.8312 0.247375 24.9387C0.331131 24.98 0.424219 25 0.516823 25C0.665243 25 0.811602 24.9487 0.912994 24.8521L17.4621 9.0187C17.5918 8.89458 17.6197 8.72124 17.535 8.57417Z" fill="#FFC100"/>
</svg>
