<?xml version="1.0" encoding="utf-8"?>
<!-- Generator: Adobe Illustrator 24.0.1, SVG Export Plug-In . SVG Version: 6.00 Build 0)  -->
<svg version="1.1" id="Слой_1" xmlns="http://www.w3.org/2000/svg" xmlns:xlink="http://www.w3.org/1999/xlink" x="0px" y="0px"
	 viewBox="0 0 784.2 187.8" style="enable-background:new 0 0 784.2 187.8;" xml:space="preserve">
<style type="text/css">
	.st0{fill:#C451C2;}
	.st1{fill:#00B6C6;}
	.st2{fill:#FF5B55;}
	.st3{fill:#FFA100;}
	.st4{fill:#FFA400;}
</style>
<text transform="matrix(1 0 0 1 872.0065 73.2709)" style="fill:#666666; font-family:'MyriadPro-Regular'; font-size:9.5411px;">3 х</text>
<path class="st0" d="M55.2,85c5.4,1.2,9,3.4,10.8,6.7c1.8,3.3,2.6,7.4,2.2,12.2c-0.3,4.8-2.4,8.6-6.3,11.2
	c-3.9,2.6-9.3,3.9-16.2,3.7c-5.4-0.2-9.6-0.6-12.7-1.4c-3.1-0.7-5.1-1.3-5.8-1.6h-0.1c0.1,0.3,0.2,0.7,0.3,1.2
	c0.2,0.6,0.4,1.2,0.5,1.8c0.2,0.6,0.3,1.2,0.3,1.8c0,0.4-0.7,0.8-2.1,1.4c-1.4,0.5-3,1-4.7,1.5c-1.8,0.5-3.3,0.8-4.7,1.1
	c-1.3,0.2-2.1,0.2-2.2,0c-0.5-4.1-1.1-10.4-2-18.7c-0.9-8.3-1.8-17.1-2.8-26.3c-1-9.2-1.8-17.3-2.5-24.1S6.3,44.7,6.2,43.6
	c0-0.4,0.8-1,2.2-1.7s3.1-1.5,5.1-2.3c1.9-0.8,3.6-1.4,5.1-1.8c1.5-0.5,2.3-0.5,2.4-0.3c0,1.2,0.1,2.2,0.1,3.2c0,0.9,0,1.9-0.1,3
	c0,0.5,0.4,0.7,1.3,0.5c0.9-0.1,2.1-0.5,3.8-0.9c1.9-0.6,4.3-1.2,7.1-1.8c2.8-0.6,6-1,9.6-1.2c4.8-0.1,8.6,1.1,11.5,3.6
	c2.9,2.5,4.8,5.8,5.8,9.7c0.9,3.9,0.8,7.8-0.5,11.7s-3.6,7.1-7.1,9.7c-2.2,1.5-4.1,2.7-5.6,3.6c-2.9,1.5-4.3,2.7-4.3,3.8
	c0.1,0.7,0.7,1.2,1.7,1.4c1,0.2,2.3,0.4,4,0.5C50.3,84.2,52.6,84.5,55.2,85z M19.1,61.1c-1,1-1.5,2.4-1.5,4.2c0,1.8,0.4,3.5,1.3,5
	c0.8,1.5,2,2.3,3.4,2.4c3.4,0,7.5-0.6,12.3-1.9c4.9-1.3,8.6-3,11.3-5.2c2.2-2.3,3-4.7,2.4-7.2c-0.6-2.5-2.1-4-4.4-4.5
	c-1.9-0.2-4.7,0.2-8.2,1c-3.5,0.8-6.9,1.9-10.1,3C22.3,59.2,20.2,60.2,19.1,61.1z M52.3,102c0.5-2.6,0-4.4-1.4-5.5
	c-1.4-1.1-4-2-7.6-2.8c-8-1.8-13.6-2.3-16.8-1.5c-3.2,0.7-5,2.6-5.2,5.4c-0.4,2.3-0.1,4.1,1,5.4c1.1,1.3,3.9,2.2,8.3,2.8
	c6.1,0.8,11.1,0.9,15,0.5C49.6,106,51.8,104.6,52.3,102z"/>
<path class="st0" d="M112.1,96.1c0.4,0.1,0.5,1.2,0.3,3.1c-0.2,2-0.7,4.3-1.5,6.9c-0.8,2.6-1.9,5-3.2,7.1c-1.4,2.1-2.9,3.3-4.8,3.6
	c-3.9,0.1-8,0-12.5-0.3c-4.4-0.4-8.4-1.1-11.8-2.3c-2.3-2-3.7-5.4-4.4-10.3c-0.7-4.9-0.8-10.3-0.4-16.2c0.4-5.9,1.3-11.3,2.4-16.2
	c1.2-4.9,2.5-8.4,4-10.5c1.4-1.1,4.3-1.4,8.6-0.9c4.3,0.5,8.5,1.4,12.6,2.5c4.1,1.1,6.6,2.1,7.5,2.9c1.1,1.4,1.7,3.4,1.8,6
	c0.1,2.6-0.1,4.7-0.6,6.1c-0.4,0.3-1.2,0.5-2.4,0.7c-1.2,0.2-2.6,0.3-4,0.4c-1.5,0.1-2.7,0.1-3.8,0.1c-1.1-0.1-1.6-0.2-1.7-0.4
	l0.1-0.1c0.2-0.9,0.4-2,0.6-3.3c0.2-1.3,0.1-2.3-0.2-3.1c-0.7-1.1-1.7-1.8-3-2.2c-1.4-0.4-2.7-0.3-4.2,0.1c-1.8,0.8-3.1,3.1-4.1,6.9
	c-0.9,3.8-1.4,8.2-1.5,13.1c-0.1,4.9,0.4,9.3,1.2,13.3c0.5,1.8,1.5,2.9,3.1,3.2c1.5,0.3,3.1,0.2,4.6-0.4c1-0.5,1.8-1.5,2.3-3
	c0.5-1.5,1-3,1.2-4.5c0.1-0.6,0.3-1.1,0.4-1.5c1.6-0.3,3.7-0.5,6.4-0.7C107.9,96.2,110.2,96.1,112.1,96.1z"/>
<path class="st0" d="M159.1,98.3c0.6,2.1,0.8,4.7,0.6,7.8c-0.2,3.1-0.8,5.3-1.8,6.8c-1,0.8-3.9,1.6-8.7,2.3
	c-4.8,0.7-9.8,1.3-15.1,1.7c-5.3,0.4-8.6,0.7-10.1,0.7c-1.2,0-2.3-1-3.1-2.9c-0.9-1.9-1.6-4.4-2.2-7.3c-0.6-2.9-1-5.9-1.3-9
	c-0.3-3.1-0.4-6.9-0.3-11.4c0.1-4.4,0.5-8.6,1.1-12.6c0.6-3.9,1.5-6.7,2.7-8.4c1.8-1.9,5-3.4,9.4-4.4c4.4-1,9.3-1.5,14.7-1.7
	c5.4-0.1,9.3,0.1,11.8,0.8c1.2,0.7,2,2.6,2.3,5.7c0.3,3.1,0.2,6.5-0.4,10.4c-0.6,3.8-1.8,7.2-3.5,10.1c-1.7,2.9-4,4.5-6.9,4.8
	c-8.5,0.3-14.8,0.5-19,0.4c-0.1,2,0,4.1,0.3,6.2c0.3,2.1,0.6,3.9,1,5.3c0.4,1.4,0.7,2.2,0.9,2.3c1.8-0.7,5.5-1.7,11.1-3.1
	C148.4,101.3,153.8,99.8,159.1,98.3z M131.5,71.9c-1.6,0.3-2.8,1.3-3.5,3.1c-0.7,1.8-1.1,3.4-1,4.7c0.1,1.3,0.6,2.2,1.4,2.6
	c0.8,0.2,2,0.4,3.7,0.5s3.3,0.1,5.1,0c1.7-0.1,3-0.2,4-0.5c1.1-0.4,1.9-1.1,2.4-2.2c0.5-1,0.8-2.1,0.9-3.2c0-1.1-0.1-1.9-0.5-2.4
	c-0.7-0.7-1.7-1.2-3.2-1.6c-1.5-0.4-3.1-0.7-4.9-0.9C134,71.8,132.5,71.8,131.5,71.9z"/>
<path class="st1" d="M234.4,106.8c2,0,4-0.1,6.2-0.1c0.5,1,0.9,2.5,1.4,4.4c0.5,2,0.9,3.9,1.3,5.9c0.4,2,0.6,3.8,0.7,5.3
	c0.1,1.5,0,2.3-0.3,2.4c-3.1,0-6.6-0.1-10.5-0.2c-4-0.1-13.6-0.3-29-0.5c-15.4-0.2-27.1,0-35.1,0.5c-0.3-4.5-0.5-7.9-0.5-10.3
	c0-2.3-0.1-4-0.2-5.2c1.7-0.1,4-0.1,6.7-0.2c0-0.3,0.1-0.7,0.2-1c1.4-6.7,3.1-14.7,5.1-24c2-9.3,4-18.2,6-26.8
	c2-8.6,3.6-15.1,4.9-19.5c0.5,0,1.8,0.1,3.9,0.3c2.1,0.2,4.5,0.5,7,0.8c2.5,0.3,4.8,0.7,6.7,1s3,0.7,3.2,1.1
	c0.2,0.7,1.5,4.4,3.8,11.2c2.3,6.8,4.9,14.6,8,23.6c3,9,5.8,17.2,8.4,24.6C233,102.6,233.7,104.9,234.4,106.8z M192,108.4
	c2.1-0.1,4.3-0.1,6.6-0.2c7.3-0.2,13.4-0.4,18-0.6c-0.4-1.6-0.8-3.4-1.2-5.3c-1.5-6.7-3.1-13.6-4.7-20.9c-1.7-7.2-3.1-13.5-4.4-18.7
	c-1.3-5.2-2.1-8.1-2.4-8.6c-0.4-0.2-1-0.3-1.8-0.3c-0.8,0-1.6,0.1-2.4,0.2c-0.7,0.1-1.2,0.3-1.3,0.5c-0.1,0.4-0.4,2.6-0.9,6.7
	s-1,9-1.7,15c-0.8,7-1.6,14-2.4,21.2C192.9,101.4,192.5,105.1,192,108.4z"/>
<path class="st1" d="M267.1,78.3c0,0-0.5,3.3-1.4,10c-1,6.7-1.8,12.9-2.6,18.5c-0.8,5.7-1.2,9-1.4,10.1c-0.1,0.4-0.9,0.4-2.3,0.2
	c-1.4-0.2-3-0.6-4.8-1.2c-1.8-0.6-3.5-1.2-5-1.9c-1.5-0.7-2.4-1.3-2.8-1.9c0.2-0.7,0.8-2.7,1.8-6c1-3.3,2-6.9,3-10.8
	c1-3.9,1.9-7.2,2.4-9.7c0.5-2.6,1.3-5.9,2.1-9.8c0.9-4,1.7-7.5,2.5-10.7c0.8-3.2,1.3-4.9,1.5-5.2c1.7,0.1,4,0.2,6.9,0.3
	c3,0.1,5.6,0.3,7.9,0.5c0.4,0.9,1,2.3,1.9,4.2c1.8,4.2,4.2,9.4,6.9,15.7c2.8,6.3,5.4,12.2,7.9,17.7c2.5,5.5,4.1,9.1,4.9,10.8
	c-1.4,0.9-3.2,1.9-5.1,3c-2,1.1-3.9,2-5.6,2.8c-1.8,0.8-3,1.2-3.6,1.2c-0.9-2.1-2.4-6.7-4.6-13.6c-2.2-6.9-4.3-13.7-6.4-20.4
	c-1.4-4.5-2.5-7.8-3.1-10C267.4,76.2,267.1,78.3,267.1,78.3z"/>
<path class="st1" d="M326.7,63.7c-0.1-0.7-0.2-1.5-0.3-2.3c0.4-0.1,1.7-0.4,3.7-0.8c2.1-0.4,4.5-0.6,7.2-0.6c2.7,0,4.9-0.1,6.4-0.3
	c0.2,2.7,0.3,6.1,0.2,10.2c-0.1,4.2,0,9.4,0,15.7c0.1,6.3,0.1,12.9,0.2,19.6c0,6.7,0,10.7-0.2,11.9c-0.6,0.1-2,0.1-4.2,0.1
	c-2.2,0-4-0.1-5.3-0.1c-1.4,0-2.4-0.2-3.1-0.6c0-0.8,0-2,0-3.8c0.1-1.7,0.1-3.4,0.2-5.2c0.1-1.7,0.1-2.8,0.2-3.4
	c0-0.5-0.9,0.5-2.7,3c-1.8,2.6-3.6,4.9-5.4,7.1c-1.8,2.2-3.4,4.3-5.1,6.3c-1.6,2-2.6,3.1-3.1,3.2c-0.5-0.1-1.7-0.9-3.5-2.5
	c-1.8-1.5-3.6-3.3-5.5-5.3c-1.8-2-2.9-3.9-3.4-5.6c1.2-0.8,3.3-2.3,6.3-4.4c3-2.1,4.9-3.6,5.9-4.3c0.9-0.7,2.3-1.7,4-3
	c1.7-1.3,3.9-3.1,6.4-5.3c0.2-0.1,0.3-0.3,0.5-0.5c-4,0.1-8.8,0-14.2-0.1c-2.8-0.3-5.1-1.8-6.7-4.7c-1.7-2.8-2.8-6.1-3.4-9.8
	c-0.6-3.7-0.7-7.1-0.4-10.1c0.3-3,1.1-4.8,2.2-5.5c2.5-0.6,6-0.9,10.5-0.9c4.5,0,8.7,0.5,12.3,1.5H326.7z M328.7,81.3
	c-0.1-0.9-0.1-1.7-0.2-2.5c-0.1-0.7-0.4-1.4-0.7-2.2c-0.7-1.7-1.9-2.7-3.4-3c-1-0.1-2.1,0-3.2,0.2c-1.1,0.2-2,0.5-2.8,1
	c-0.8,0.5-1.5,1-2.1,1.7c-0.4,0.5-0.5,1.2-0.5,2.3c0,1.1,0.3,2.1,0.8,3.1c0.5,1,1.3,1.7,2.3,2.1c0.9,0.2,1.5,0.4,1.8,0.3
	c0.3,0,1.3-0.1,2.9-0.2c1.6-0.1,2.8-0.2,3.6-0.5C328.2,83.3,328.6,82.5,328.7,81.3z"/>
<path class="st1" d="M416.5,106.9c2,0,4-0.1,6.2-0.1c0.5,1,0.9,2.5,1.4,4.4c0.5,2,0.9,3.9,1.3,5.9c0.4,2,0.6,3.8,0.7,5.3
	c0.1,1.5,0,2.3-0.3,2.4c-3.1,0-6.6-0.1-10.5-0.2c-4-0.1-13.6-0.3-29-0.5c-15.4-0.2-27.1,0-35.1,0.5c-0.3-4.5-0.5-7.9-0.5-10.3
	c0-2.3-0.1-4-0.2-5.2c1.7-0.1,4-0.1,6.7-0.2c0-0.3,0.1-0.7,0.2-1c1.4-6.7,3.1-14.7,5.1-24c2-9.3,4-18.2,6-26.8
	c2-8.6,3.6-15.1,4.9-19.5c0.5,0,1.8,0.1,3.9,0.3c2.1,0.2,4.5,0.5,7,0.8c2.5,0.3,4.8,0.7,6.7,1c1.9,0.4,3,0.7,3.2,1.1
	c0.2,0.7,1.5,4.4,3.8,11.2c2.3,6.8,4.9,14.6,8,23.6c3,9,5.8,17.2,8.4,24.6C415.1,102.7,415.9,105,416.5,106.9z M374.1,108.5
	c2.1-0.1,4.3-0.1,6.6-0.2c7.3-0.2,13.4-0.4,18-0.6c-0.4-1.6-0.8-3.4-1.2-5.3c-1.5-6.7-3.1-13.6-4.7-20.9c-1.7-7.2-3.1-13.5-4.4-18.7
	c-1.3-5.2-2.1-8.1-2.4-8.6c-0.4-0.2-1-0.3-1.8-0.3c-0.8,0-1.6,0.1-2.4,0.2c-0.7,0.1-1.2,0.3-1.3,0.5c-0.1,0.4-0.4,2.6-0.9,6.7
	s-1,9-1.7,15c-0.8,7-1.6,14-2.4,21.2C375,101.5,374.6,105.2,374.1,108.5z"/>
<path class="st1" d="M471.9,98.1c0.6,2.1,0.8,4.7,0.6,7.8c-0.2,3.1-0.8,5.3-1.8,6.8c-1,0.8-4,1.6-8.8,2.3c-4.8,0.7-9.9,1.3-15.1,1.7
	c-5.3,0.4-8.6,0.7-10.1,0.7c-1.2,0-2.3-1-3.1-2.9c-0.9-1.9-1.6-4.4-2.2-7.4c-0.6-3-1-6-1.3-9c-0.3-3.2-0.4-7-0.3-11.4
	c0.1-4.4,0.5-8.6,1.1-12.6c0.6-4,1.5-6.8,2.8-8.4c1.8-1.9,5-3.4,9.4-4.4c4.4-1,9.4-1.6,14.8-1.7c5.4-0.1,9.3,0.1,11.9,0.8
	c1.2,0.7,2,2.6,2.3,5.7c0.3,3.1,0.2,6.6-0.4,10.4c-0.6,3.8-1.8,7.2-3.5,10.1c-1.7,2.9-4,4.5-6.9,4.8c-8.5,0.3-14.9,0.5-19.1,0.4
	c-0.1,2,0,4.1,0.3,6.2c0.3,2.1,0.6,3.9,1,5.3c0.4,1.5,0.7,2.2,0.9,2.3c1.8-0.7,5.5-1.7,11.2-3.1C461.2,101.1,466.6,99.7,471.9,98.1z
	 M444.2,71.6c-1.6,0.3-2.8,1.3-3.5,3.1c-0.7,1.8-1.1,3.4-1,4.7c0.1,1.3,0.6,2.2,1.4,2.6c0.8,0.2,2,0.4,3.7,0.5
	c1.7,0.1,3.3,0.1,5.1,0c1.7-0.1,3.1-0.2,4-0.5c1.1-0.4,1.9-1.1,2.4-2.2c0.5-1,0.8-2.1,0.9-3.2c0-1.1-0.1-1.9-0.5-2.4
	c-0.7-0.7-1.7-1.2-3.2-1.6c-1.5-0.4-3.1-0.7-4.9-0.9C446.7,71.6,445.3,71.5,444.2,71.6z"/>
<path class="st1" d="M471.9,98.1c0.6,2.1,0.8,4.7,0.6,7.8c-0.2,3.1-0.8,5.3-1.8,6.8c-1,0.8-4,1.6-8.8,2.3c-4.8,0.7-9.9,1.3-15.1,1.7
	c-5.3,0.4-8.6,0.7-10.1,0.7c-1.2,0-2.3-1-3.1-2.9c-0.9-1.9-1.6-4.4-2.2-7.4c-0.6-3-1-6-1.3-9c-0.3-3.2-0.4-7-0.3-11.4
	c0.1-4.4,0.5-8.6,1.1-12.6c0.6-4,1.5-6.8,2.8-8.4c1.8-1.9,5-3.4,9.4-4.4c4.4-1,9.4-1.6,14.8-1.7c5.4-0.1,9.3,0.1,11.9,0.8
	c1.2,0.7,2,2.6,2.3,5.7c0.3,3.1,0.2,6.6-0.4,10.4c-0.6,3.8-1.8,7.2-3.5,10.1c-1.7,2.9-4,4.5-6.9,4.8c-8.5,0.3-14.9,0.5-19.1,0.4
	c-0.1,2,0,4.1,0.3,6.2c0.3,2.1,0.6,3.9,1,5.3c0.4,1.5,0.7,2.2,0.9,2.3c1.8-0.7,5.5-1.7,11.2-3.1C461.2,101.1,466.6,99.6,471.9,98.1z
	 M444.2,71.6c-1.6,0.3-2.8,1.3-3.5,3.1c-0.7,1.8-1.1,3.4-1,4.7c0.1,1.3,0.6,2.2,1.4,2.6c0.8,0.2,2,0.4,3.7,0.5s3.3,0.1,5.1,0
	c1.7-0.1,3.1-0.2,4-0.5c1.1-0.4,1.9-1.1,2.4-2.2c0.5-1,0.8-2.1,0.9-3.2c0-1.1-0.1-1.9-0.5-2.4c-0.7-0.7-1.7-1.2-3.2-1.6
	c-1.5-0.4-3.1-0.7-4.9-0.9C446.7,71.6,445.3,71.5,444.2,71.6z"/>
<path class="st1" d="M527.2,61.8c3-1.1,6.1-1.8,9.1-2c3-0.2,5.1,0.6,6.1,2.2c0.6,1.3,1.4,4.7,2.3,10.2c0.9,5.5,1.7,11.6,2.6,18.3
	c0.9,6.7,1.5,12.6,2,17.7c0.5,5.1,0.7,7.9,0.5,8.3c-1.1,0.3-4.2,0.4-9.2,0.5c-5,0.1-8-0.1-8.8-0.6c-0.1-0.3-0.1-1.7-0.2-4.3
	c0-2.6-0.1-5.7-0.1-9.1c-0.1-4.5-0.2-9.1-0.3-13.9c-0.1-4.8-0.3-8.9-0.5-12.4c-0.2-3.4-0.5-5.3-0.9-5.5c-0.6-0.1-1.7,0.2-3.3,0.8
	c-1.6,0.7-3.2,1.4-4.8,2.2c-1.6,0.8-2.7,1.4-3.2,1.8c0.1,1.7,0.3,4.2,0.5,7.4c0.4,5.5,0.7,11.2,1.1,17.2c0.4,6,0.6,11.1,0.8,15.4
	c-0.3,0.4-1.2,0.8-2.7,1c-1.5,0.2-3.8,0.3-6.9,0.3c-3.1,0-4.8-0.2-5.1-0.5c-0.2-3.3-0.3-8.2-0.3-14.5c0-6.3,0-12.5,0-18.6
	c0-6.1,0-10.4,0.1-12.9c-1.6,0.6-3.4,1.4-5.3,2.4c-1.9,1-3.6,1.9-5.1,2.8c-1.5,0.9-2.4,1.4-2.7,1.6c0.3,5.8,0.7,12.1,1.2,18.9
	c0.4,5.7,0.7,10.6,0.9,14.6c0.2,4.1,0.3,6.2,0.3,6.5l-16.3-0.1c0-1.6,0-5.4,0-11.3c0-4.9,0.1-10.5,0.2-16.7
	c0.1-6.2,0.1-11.8,0.2-16.8c0.1-5,0.2-8.1,0.3-9.2c2.3-1.1,5.1-2,8.4-2.7c3.3-0.7,5.7-1.1,7.3-1.2c0,1.4-0.1,3.5-0.3,6.4
	c2.3-1.8,4.5-3.3,6.4-4.4c1.9-1.1,3.5-1.7,4.9-1.7c2.4,0,4.2,0.9,5.5,2.6c1.2,1.7,1.9,4.1,1.9,7.1c1.1-0.7,2.1-1.4,3-2
	c1.7-1.2,3.3-2.3,4.8-3.1C522.9,63.6,524.9,62.7,527.2,61.8z"/>
<path class="st1" d="M653.7,59.9c0.8,0.1,1.7,0.7,2.7,1.6c1,0.9,2.1,1.9,3.1,3.1c1,1.1,1.9,2.2,2.5,3.2c0.7,1,1,1.5,1,1.7
	c-0.4,0.5-1.8,1.6-4.2,3.4c-2.4,1.8-5.1,3.7-8.1,5.8c-3,2.1-6.8,4.8-11.4,8c3.6,2.6,6.6,4.8,9.1,6.6c2.5,1.8,4.9,3.6,7.2,5.2
	c2.3,1.7,4.1,2.9,5.3,3.8c-0.4,1.8-1.4,3.9-2.9,6.2c-1.5,2.3-3,4.4-4.5,6.1c-1.5,1.7-2.5,2.7-3,2.8c-0.5-0.1-1.8-1.4-3.9-3.8
	c-2.1-2.4-4.5-5.2-7.2-8.3c-2.7-3.2-6-7.2-10-12.1c0.2,4,0.3,7.3,0.4,9.9c0.1,2.7,0.1,5.1,0.2,7.4c0.1,2.3,0.1,3.8,0,4.6
	c-0.7,0.4-2,0.7-3.8,1.1c-1.8,0.4-3.6,0.7-5.4,0.9c-1.8,0.2-3,0.3-3.6,0.2c-0.1-1.2-0.2-5.3-0.2-12.2c0-6.9,0.1-14.8,0.3-23.8
	c0.1-9,0.2-15.6,0.1-19.9c-0.1-4.3,0-7.7,0.2-10.5c1.6,0.2,3.6,0.5,6,0.9c2.5,0.4,4.8,0.8,6.9,1.2c2.1,0.4,3.4,0.6,3.8,0.8
	c-0.4,4.3-0.7,7.6-1,9.7c-0.3,2.1-0.8,7.5-1.6,16.1c4.2-4,7.7-7.3,10.5-9.9c2.8-2.6,5.2-4.9,7.5-6.8
	C651.9,60.9,653.2,59.9,653.7,59.9z"/>
<path class="st2" d="M676,115.9c-0.4,1-1.1,1.4-2.3,1.5c-1.5,0.1-3.4-0.2-5.6-0.8c-1.3-0.3-1.6-0.6-1.7-0.7c-0.1-0.1-0.3-0.6-0.2-2
	c0-1.2,0.1-2.3,0.3-3.5c0.2-1.1,0.7-1.4,1.1-1.5c1.5-0.3,3.1-0.2,4.7,0.1c2.1,0.4,2.9,0.7,3.3,0.9c0.5,0.3,0.9,0.9,1,1.9
	C676.8,112.9,676.5,114.3,676,115.9z"/>
<path class="st2" d="M775.9,58.9v3.8c0,6.8-0.1,14.9-0.2,24.5c-0.1,9.5-0.3,18.8-0.6,27.6c-0.3,4.2-1.4,7-3.4,8.4
	c-2.1,1.5-4.7,2.1-7.8,1.8c-2.3-0.2-5.3-0.7-8.9-1.7c-3.7-1-7.1-2-10.3-3.2c-3.7-1.3-5.2-2.1-5.8-2.6c-0.4-0.5-0.8-1.4-1-3.4
	c-0.2-1.8-0.2-3.6-0.1-5.3c0.1-1.7,0.3-2.5,0.4-2.8c0.2-0.1,0.7-0.2,1.7-0.3c1.4-0.1,3-0.1,4.8-0.1c1.8,0.1,3.5,0.1,5,0.2
	c0.8,0.1,1.4,0.1,1.8,0.2c-0.1,1.2-0.3,2.4-0.5,3.8c-0.1,0.9-0.2,1.6-0.3,2.1l0,0.2l0,0.2c0.1,0.8,0.8,1.5,2.3,2.3
	c1.2,0.6,2.7,1.1,4.5,1.5c1.8,0.4,3.6,0.6,5.4,0.6h1l0-1c0.1-3.8,0.2-7.6,0.2-11.4v-9.7l-1.4,0.5c-2.6,1-5.6,2-8.9,3
	c-3.2,1-6.3,1.8-9.2,2.3c-0.4,0.1-1.8,0.2-3.2-2.5c-1.1-2.1-2-5-2.7-8.5c-0.7-3.5-1.2-7.3-1.6-11.1c-0.4-3.9-0.6-7.4-0.7-10.4
	c-0.1-2.5-0.2-4.5-0.2-5.8c0.8-0.2,1.9-0.5,3.3-0.7c1.9-0.4,3.7-0.7,5.6-1c1.3-0.2,2.2-0.3,2.8-0.3c0.3,5.8,0.6,11.8,1,17.9
	c0.3,4.6,0.5,8.9,0.8,12.8l0.1,1.2l1.2-0.3c0.4-0.1,1.2-0.3,2.1-0.5c1.6-0.3,3.5-0.8,5.8-1.3c2.3-0.5,4.5-1.2,6.7-1.9l0.8-0.2
	l-0.1-0.8c-0.1-1.4-0.3-2.9-0.4-4.4L764.3,67c-0.4-4.1-0.5-6-0.5-6.9C767.6,59.7,771.7,59.2,775.9,58.9z"/>
<g>
	<path class="st3" d="M63.8,152.2c0,0.1,0,0.1,0,0.2c0.1,1.4,0.1,2.4,0.1,2.7v0.6h0c0.1,0,0.8-0.4,2.1-0.9c1.4-0.6,3.3-0.9,5.6-0.8
		c2,0.3,3.2,1.1,3.7,2.5c0.5,1.3,0.7,2.4,0.7,3.4c0,0.9,0.1,2.1,0.1,3.4c0.1,1.4,0,2.6-0.1,3.8c-0.1,1.2-0.5,2.2-1.1,3.1
		c-0.6,0.9-1.5,1.5-2.7,1.8c-1,0.1-1.9,0.1-2.9-0.1c-0.9-0.2-1.7-0.5-2.5-0.9c-0.7-0.4-1.3-0.7-1.7-1.1h0c0,0,0,0,0,0v0h0v0
		c0,0,0,0,0,0c-0.3-0.2-0.4-0.3-0.5-0.4c0,0,0,0,0,0h0v0.1c0,0.1,0,0.2,0,0.4c0,0.3,0,0.7,0.1,1.1c0,0.5,0.1,0.9,0.1,1.4
		c-0.5,0-1.2-0.1-2-0.3c-0.9-0.1-1.7-0.3-2.5-0.5c-0.8-0.2-1.4-0.3-1.7-0.4c-0.1-1.9-0.4-7-0.8-15.4l-0.3-4.1c0-0.4-0.1-1.4-0.2-2.9
		c-0.2-1.1,0.1-1.7,0.9-1.7l3.8-0.2c3.3-0.1,6.1-0.3,8.5-0.5c0.7,0.1,1.2,1,1.4,2.8c0.2,1.8,0,2.7-0.6,2.8c-1.2,0-3,0.1-5.4,0.2
		C65.2,152.3,64.6,152.2,63.8,152.2z M69.2,166.9c0.8-0.4,1.3-1.1,1.6-2.2c0.2-1.1,0.3-2.1,0.3-2.8c-0.1-0.8-0.2-1.3-0.3-1.7
		c-0.3-0.4-1-0.6-2.1-0.6c-1.1,0-2.2,0.1-3.3,0.4s-1.9,0.9-2.5,1.7c-0.2,0.3-0.3,0.9-0.3,1.6c0,0.7,0.1,1.3,0.3,1.9
		c0.2,0.5,0.7,0.9,1.6,1.3c0.8,0.3,1.7,0.6,2.6,0.7C67.8,167.2,68.6,167.1,69.2,166.9z"/>
	<path class="st3" d="M91.2,147.5c0.8,0.1,1.6,0.3,2.7,0.5c1,0.3,2,0.7,2.9,1.2c0.9,0.5,1.5,1.2,1.7,2c0.3,1,0.5,2.7,0.6,5.2
		c0.1,2.5,0.2,5,0.1,7.4c-0.1,2.4-0.3,3.9-0.7,4.5c-0.6,0.7-1.8,1.2-3.7,1.7c-1.9,0.5-3.9,0.8-6,0.9c-2.1,0.1-3.6,0-4.7-0.3
		c-1-0.4-1.7-1.5-2.2-3.2c-0.5-1.7-0.8-3.7-1-6.1c-0.1-2.3-0.1-4.6,0.1-6.8c0.2-2.2,0.6-4,1.1-5.4c0.3-0.6,0.9-1,2-1.3
		c1-0.2,2.2-0.4,3.5-0.4C88.9,147.4,90.1,147.4,91.2,147.5z M92.9,165.4c0.3-0.4,0.6-1.2,0.7-2.4c0.2-1.2,0.3-2.8,0.3-4.7
		c0-1.9,0-3.4-0.1-4.5s-0.3-1.6-0.5-1.7c-0.6-0.2-1.5-0.2-2.6-0.2c-1.1,0-2.1,0.2-3.1,0.4c-1,0.2-1.6,0.5-1.9,0.9
		c-0.1,0.2-0.2,0.9-0.2,2.1c0,1.2,0.1,2.8,0.2,4.8c0.2,2,0.4,3.6,0.8,4.7c0.4,1.1,0.9,1.7,1.5,1.7c0.3,0,0.7-0.1,1.4-0.2
		c0.7-0.1,1.4-0.2,2.1-0.4S92.7,165.7,92.9,165.4z"/>
	<path class="st3" d="M112.5,155.2c0,0-0.2,1.3-0.6,4s-0.7,5.2-1,7.5c-0.3,2.3-0.5,3.6-0.6,4.1c-0.1,0.1-0.4,0.2-0.9,0.1
		c-0.6-0.1-1.2-0.3-1.9-0.5s-1.4-0.5-2-0.8s-1-0.5-1.1-0.8c0.1-0.3,0.3-1.1,0.7-2.4c0.4-1.3,0.8-2.8,1.2-4.4c0.4-1.6,0.7-2.9,1-3.9
		c0.2-1,0.5-2.4,0.9-4c0.4-1.6,0.7-3,1-4.3c0.3-1.3,0.5-2,0.6-2.1c0.7,0,1.6,0.1,2.8,0.1c1.2,0.1,2.3,0.1,3.2,0.2
		c0.2,0.3,0.4,0.9,0.8,1.7c0.7,1.7,1.7,3.8,2.8,6.4c1.1,2.5,2.2,4.9,3.2,7.1c1,2.2,1.6,3.7,2,4.4c-0.6,0.4-1.3,0.8-2.1,1.2
		c-0.8,0.4-1.6,0.8-2.3,1.1c-0.7,0.3-1.2,0.5-1.5,0.5c-0.3-0.9-1-2.7-1.9-5.5c-0.9-2.8-1.8-5.5-2.6-8.2c-0.6-1.8-1-3.1-1.3-4
		C112.6,154.4,112.5,155.2,112.5,155.2z"/>
	<path class="st3" d="M143.4,171.2c0,0-1.2,0-3.5-0.1s-4.5-0.3-6.6-0.8c-2-0.4-3.3-1.1-3.7-2c-0.2-0.5-0.3-1.6-0.5-3.4
		c-0.2-1.8-0.3-3.7-0.3-5.7c0-2.1,0-4.4,0-7c-0.1-2.6,0-4.1,0.3-4.5c0.1,0,0.4-0.1,0.9-0.1s1.2,0,2,0c0.8,0,1.5,0.1,2.2,0.1
		c0.7,0,1.3,0.1,1.7,0.2c-0.4,2.9-0.7,5.5-0.9,7.8c1.6-0.1,3.4-0.1,5.2-0.2c1.9,0,3.5,0.1,4.8,0.4c1.4,0.2,2.4,0.8,3.2,1.7
		c0.8,0.9,1.3,2.7,1.7,5.3c0.4,2,0.4,3.8-0.2,5.2c-0.5,1.4-1.8,2.3-3.7,2.6C144.3,171.1,143.4,171.2,143.4,171.2z M141.3,160.5
		c0,0-0.6-0.1-1.9-0.2c-1.3-0.1-2.5-0.1-3.6,0c-1.1,0.1-1.7,0.4-1.9,0.8c-0.2,0.8-0.3,1.6-0.2,2.4c0.1,0.8,0.4,1.6,1,2.3
		c0.3,0.3,1,0.5,2,0.5c1,0,2,0,3.1-0.2c1.1-0.2,1.9-0.3,2.5-0.6c0.7-0.3,1.1-0.7,1.2-1.2c0.1-0.5,0.1-1.2-0.1-1.9
		c-0.2-0.7-0.5-1.2-0.9-1.4C141.6,160.7,141.3,160.5,141.3,160.5z"/>
	<path class="st3" d="M163.4,170.7c-1.2,0.5-2.5,0.7-3.7,0.8c-1.2,0.1-2.1-0.2-2.5-0.9c-0.3-0.5-0.6-1.9-0.9-4.2
		c-0.4-2.2-0.7-4.7-1.1-7.5c-0.4-2.8-0.6-5.2-0.8-7.2c-0.2-2.1-0.3-3.2-0.2-3.4c0.4-0.1,1.7-0.2,3.8-0.2c2.1,0,3.3,0.1,3.6,0.2
		c0,0.1,0.1,0.7,0.1,1.8c0,1.1,0,2.3,0,3.7c0,1.8,0.1,3.7,0.1,5.7c0,2,0.1,3.7,0.2,5.1c0.1,1.4,0.2,2.2,0.3,2.3
		c0.2,0,0.7-0.1,1.4-0.3c0.7-0.3,1.3-0.6,2-0.9c0.6-0.3,1.1-0.6,1.3-0.7c0-0.7-0.1-1.7-0.2-3c-0.2-2.2-0.3-4.6-0.4-7.1
		c-0.2-2.5-0.3-4.6-0.3-6.3c0.1-0.2,0.5-0.3,1.1-0.4c0.6-0.1,1.6-0.1,2.8-0.1c1.3,0,2,0.1,2.1,0.2c0.1,1.4,0.1,3.3,0.1,5.9
		s0,5.1,0,7.6c0,2.5,0,4.3,0,5.3c0.7-0.2,1.4-0.6,2.2-1c0.8-0.4,1.5-0.8,2.1-1.1c0.6-0.4,1-0.6,1.1-0.7c-0.1-2.4-0.3-4.9-0.5-7.7
		c-0.2-2.3-0.3-4.3-0.4-6c-0.1-1.7-0.1-2.6-0.1-2.7l6.7,0c0,0.7,0,2.2,0,4.6c0,2,0,4.3-0.1,6.8c0,2.6-0.1,4.8-0.1,6.9
		c0,2-0.1,3.3-0.1,3.8c-0.9,0.4-2.1,0.8-3.4,1.1c-1.3,0.3-2.3,0.5-3,0.5c0-0.6,0-1.4,0.1-2.6c-1,0.8-1.8,1.4-2.6,1.8
		c-0.8,0.5-1.4,0.7-2,0.7c-1,0-1.7-0.4-2.2-1.1c-0.5-0.7-0.8-1.7-0.8-2.9c-0.4,0.3-0.9,0.6-1.2,0.8c-0.7,0.5-1.4,0.9-2,1.3
		C165.1,170,164.3,170.3,163.4,170.7z"/>
	<path class="st3" d="M198,147.4c0.8,0.1,1.6,0.3,2.7,0.5s2,0.7,2.9,1.2c0.9,0.5,1.5,1.2,1.7,2c0.3,1,0.5,2.7,0.6,5.2
		c0.1,2.5,0.2,5,0.1,7.4c-0.1,2.4-0.3,3.9-0.7,4.5c-0.6,0.7-1.8,1.2-3.7,1.7c-1.9,0.5-3.9,0.8-6,0.9c-2.1,0.1-3.6,0-4.7-0.3
		c-1-0.4-1.7-1.5-2.2-3.2c-0.5-1.7-0.8-3.7-1-6.1c-0.1-2.3-0.1-4.6,0.1-6.8c0.2-2.2,0.6-4,1.1-5.4c0.3-0.6,0.9-1,2-1.3
		c1-0.2,2.2-0.4,3.5-0.4C195.8,147.2,197,147.3,198,147.4z M199.8,165.3c0.3-0.4,0.6-1.2,0.7-2.4c0.2-1.2,0.3-2.8,0.3-4.7
		c0-1.9,0-3.4-0.1-4.5c-0.1-1-0.3-1.6-0.5-1.7c-0.6-0.2-1.5-0.2-2.6-0.2s-2.1,0.2-3.1,0.4c-1,0.2-1.6,0.5-1.9,0.9
		c-0.1,0.2-0.2,0.9-0.2,2.1c0,1.2,0.1,2.8,0.2,4.8c0.2,2,0.4,3.6,0.8,4.7c0.4,1.1,0.9,1.7,1.5,1.7c0.3,0,0.7-0.1,1.4-0.2
		c0.7-0.1,1.4-0.2,2.1-0.4C199.1,165.7,199.6,165.5,199.8,165.3z"/>
	<path class="st3" d="M223.5,147.6c0.1,0,0.5,0,1.2,0c0.7,0,1.4,0.1,2.2,0.1c0.8,0,1.6,0.1,2.2,0.1c0.7,0,1,0.1,1.2,0.1
		c-0.3,4.5-0.5,8.3-0.7,11.2c-0.1,3-0.3,6.7-0.3,11.2c-0.2,0-0.6,0.1-1.3,0.1c-0.7,0-1.4,0.1-2.2,0.1c-0.6,0-1.1,0.1-1.6,0.1
		c-0.5,0-0.8,0-1,0.1c0-0.3,0-0.6,0-1c0-0.3,0-0.7-0.1-1.2c-1.4,0.4-2.6,0.8-3.6,1.1c-1,0.3-1.9,0.5-2.9,0.7
		c-0.9,0.2-1.6,0.3-2.2,0.3c-0.9-0.1-1.6-0.7-2.1-1.9c-0.5-1.2-0.8-2.8-0.9-4.8c-0.1-2.2-0.2-4.9-0.2-8.2c0-3.3,0.2-6.1,0.4-8.4
		c0.5,0.1,1.2,0.2,2.1,0.3c0.9,0.2,1.8,0.3,2.7,0.5c0.9,0.2,1.4,0.3,1.7,0.4c-0.1,2-0.3,4.4-0.4,7.2c-0.1,2.8-0.2,5.2-0.2,7.4
		c0,2.2,0,3.3,0.1,3.5c0.6-0.2,1.4-0.4,2.4-0.8c1-0.3,2-0.7,2.9-1c0.9-0.3,1.4-0.5,1.6-0.5c-0.2-1.9-0.3-4.5-0.6-7.8
		C223.9,153.4,223.7,150.4,223.5,147.6z M222.4,139c0.2,0,0.4,0.1,0.7,0.4c0.3,0.2,0.5,0.5,0.8,0.7c0.3,0.3,0.4,0.5,0.6,0.7
		c0.2,0.2,0.3,0.4,0.3,0.6s-0.3,0.5-0.7,0.9c-0.1,0.1-0.3,0.2-0.4,0.4c-0.4,0.4-0.9,0.8-1.4,1.3c-0.5,0.5-1,0.9-1.4,1.2
		c-0.4,0.3-0.7,0.5-0.8,0.5c-0.1,0-0.3-0.1-0.5-0.2c-0.2-0.1-0.4-0.3-0.6-0.5c-0.2-0.2-0.3-0.3-0.4-0.4c0-0.1,0.1-0.5,0.4-1
		c0.3-0.6,0.7-1.2,1.2-1.9c0.5-0.7,0.9-1.3,1.4-1.9C222,139.3,222.3,139,222.4,139z"/>
	<path class="st3" d="M269.3,169.7c0,0,0-0.5,0-1.6c0-1.9-0.1-4.2-0.1-6.9c0-2.7-0.1-4.8,0-6.5c-0.4,0.9-1,2-1.6,3.3
		c-0.6,1.3-1.2,2.6-1.8,3.8c-0.6,1.4-1.1,2.5-1.4,3.1c-2.1,0.2-3.5,0.4-4.3,0.4c-0.3-0.8-1.8-4.2-4.6-10.1c-0.4,3.5-0.7,6.5-0.9,9
		c-0.2,2.5-0.4,4.8-0.6,6.8c-1.2-0.2-2.3-0.3-3.4-0.5c-1-0.2-1.9-0.4-2.5-0.8c0.2-1.1,0.5-3.1,1.1-6.1c0.6-3,1.1-6,1.7-9.1
		c0.6-3,1-5.1,1.3-6.2c0.2,0,0.6,0,1.1,0.1c0.6,0.1,1,0.2,1.2,0.2c0.3,0.1,0.9,0.2,1.8,0.4l4.8,9.4c1-1.7,1.9-3.2,2.6-4.3
		c0.7-1.2,1.4-2.3,2.1-3.4c0.7-1.1,1.2-1.8,1.5-2.3c2-0.3,4-0.4,5.9-0.6c0.4,4.4,0.8,9.2,1.3,14.2c0.3,3.5,0.6,6.4,0.9,8.9
		c-0.1,0.1-0.5,0.1-1.2,0.1c-0.7,0-1.2-0.1-1.7-0.1c-0.5-0.1-1.1-0.2-1.8-0.3c-0.7-0.1-1.2-0.3-1.5-0.4
		C269.3,169.8,269.3,169.7,269.3,169.7z"/>
	<path class="st3" d="M282.4,147.9c1.2-0.3,2.9-0.4,5-0.3c2.1,0.1,4.1,0.4,6,0.8c1.9,0.4,3.2,0.9,3.9,1.5c0.1,2.1,0.2,5.1,0.4,8.9
		c0.2,3.8,0.3,7.1,0.4,9.8c0,0.6,0.1,1.2,0.1,1.6c-0.3,0.1-0.8,0.2-1.5,0.2c-0.6,0.1-1.3,0.2-2,0.2s-1.3,0.1-1.8,0.2s-0.8,0-0.9,0
		c0-0.5,0.1-1,0.1-1.6c0-0.6,0-1.2,0-1.7c-0.3,0.1-0.8,0.3-1.5,0.7c-1.1,0.5-2.5,1.1-4.1,1.7c-1.6,0.6-3,0.9-4.4,0.9
		c-0.6-0.1-1.1-0.6-1.4-1.8c-0.4-1.1-0.6-2.4-0.7-3.9c-0.1-1.5-0.1-2.8,0-4c0.2-1.8,0.6-3.2,1.1-4.4c0.5-1.1,1.4-1.8,2.6-1.9
		c0.9,0,2.1,0,3.5,0.2c1.4,0.2,2.7,0.4,3.8,0.6c0.6,0.1,1.1,0.2,1.4,0.2c0.4,0.1,0.6,0.1,0.6,0c0.1-0.1,0.1-0.3,0.1-0.7
		c0-0.4,0-0.9,0-1.4c0-0.5,0-0.9,0-1.3c-0.4-0.2-1-0.3-1.9-0.5c-0.9-0.2-1.8-0.4-2.7-0.5c-0.9-0.1-1.6-0.2-2.1-0.1
		c0,0.3-0.1,0.6-0.1,0.9c0,0.2,0,0.4,0,0.6c0,0-0.3,0-0.9,0.1c-0.5,0-1.2,0-1.9,0c-0.7,0-1.4-0.1-1.9-0.1c-0.6-0.1-0.9-0.1-0.9-0.2
		c-0.1-0.2-0.1-0.6,0-1.3c0.1-0.7,0.2-1.4,0.4-2.1C281.6,148.5,282,148.1,282.4,147.9z M294,163.9c0.3-0.3,0.5-0.7,0.6-1.3
		c0.1-0.6,0.1-1.1,0-1.6c0-0.4-0.5-0.6-1.3-0.9c-0.8-0.2-1.8-0.4-3-0.4c-1.8-0.1-2.9,0.1-3.5,0.5c-0.6,0.4-0.9,0.9-0.9,1.5
		c0,0.4-0.1,0.9-0.1,1.6c0,0.7,0.1,1.3,0.3,1.9c0.2,0.6,0.5,0.9,0.9,0.9c0.5,0,1.3-0.2,2.3-0.5c1-0.3,2-0.6,2.9-1
		C293.2,164.3,293.8,164.1,294,163.9z"/>
	<path class="st3" d="M321.2,147.9c1.2-0.3,2.9-0.4,5-0.3c2.1,0.1,4.1,0.4,6,0.8c1.9,0.4,3.2,0.9,3.9,1.5c0.1,2.1,0.2,5.1,0.4,8.9
		c0.2,3.8,0.3,7.1,0.4,9.8c0,0.6,0.1,1.2,0.1,1.6c-0.3,0.1-0.8,0.2-1.5,0.2c-0.6,0.1-1.3,0.2-2,0.2c-0.7,0.1-1.3,0.1-1.8,0.2
		s-0.8,0-0.9,0c0-0.5,0.1-1,0.1-1.6c0-0.6,0-1.2,0-1.7c-0.3,0.1-0.8,0.3-1.5,0.7c-1.1,0.5-2.5,1.1-4.1,1.7c-1.6,0.6-3,0.9-4.4,0.9
		c-0.6-0.1-1.1-0.6-1.4-1.8c-0.4-1.1-0.6-2.4-0.7-3.9c-0.1-1.5-0.1-2.8,0-4c0.2-1.8,0.6-3.2,1.1-4.4c0.5-1.1,1.4-1.8,2.6-1.9
		c0.9,0,2.1,0,3.5,0.2c1.4,0.2,2.7,0.4,3.8,0.6c0.6,0.1,1.1,0.2,1.4,0.2c0.4,0.1,0.6,0.1,0.6,0c0.1-0.1,0.1-0.3,0.1-0.7
		c0-0.4,0-0.9,0-1.4c0-0.5,0-0.9,0-1.3c-0.4-0.2-1-0.3-1.9-0.5c-0.9-0.2-1.8-0.4-2.7-0.5c-0.9-0.1-1.6-0.2-2.1-0.1
		c0,0.3-0.1,0.6-0.1,0.9c0,0.2,0,0.4,0,0.6c0,0-0.3,0-0.9,0.1c-0.5,0-1.2,0-1.9,0c-0.7,0-1.4-0.1-1.9-0.1c-0.6-0.1-0.9-0.1-0.9-0.2
		c-0.1-0.2-0.1-0.6,0-1.3c0.1-0.7,0.2-1.4,0.4-2.1C320.4,148.5,320.7,148.1,321.2,147.9z M332.8,163.9c0.3-0.3,0.5-0.7,0.6-1.3
		c0.1-0.6,0.1-1.1,0-1.6c0-0.4-0.5-0.6-1.3-0.9c-0.8-0.2-1.8-0.4-3-0.4c-1.8-0.1-2.9,0.1-3.5,0.5c-0.6,0.4-0.9,0.9-0.9,1.5
		c0,0.4-0.1,0.9-0.1,1.6c0,0.7,0.1,1.3,0.3,1.9c0.2,0.6,0.5,0.9,0.9,0.9c0.5,0,1.3-0.2,2.3-0.5c1-0.3,2-0.6,2.9-1
		C331.9,164.3,332.5,164.1,332.8,163.9z"/>
	<path class="st3" d="M344,148.2c0.8-0.1,1.9-0.1,3.3-0.2c1.4,0,2.7,0.1,4,0.3c1.3,0.2,2.5,0.5,3.7,0.7c1.1,0.2,1.8,0.4,2,0.4
		c0.1,0.4,0.2,0.9,0.2,1.7c0,0.7,0,1.5-0.1,2.2c-0.1,0.7-0.2,1.3-0.3,1.6c-0.5,0.5-1.2,1.1-2.2,1.9c-0.3,0.3-0.6,0.6-1,0.9
		c0.1,0,0.3-0.1,0.4-0.1c1.2-0.2,2.2-0.4,3-0.5c0.3,0.1,0.5,0.5,0.7,1.4c0.1,0.3,0.1,0.6,0.1,0.9l0.2,4.9c-0.1,2.7-0.1,5.4-0.2,8.1
		c-0.1,1.9-0.6,3.2-1.6,3.9c-0.9,0.7-2.1,1-3.4,0.8c-1-0.1-2.2-0.3-3.7-0.7c-1.5-0.4-2.9-0.9-4.2-1.4c-1.3-0.5-2.1-0.9-2.5-1.2
		c-0.3-0.3-0.5-0.9-0.5-1.7c-0.1-0.8-0.1-1.6,0-2.3c0-0.8,0.1-1.2,0.2-1.5c0.1-0.1,0.4-0.2,1-0.3c0.6,0,1.2-0.1,2,0
		c0.7,0,1.4,0.1,2,0.1c0.6,0,1,0.1,1.1,0.2c-0.1,0.6-0.1,1.3-0.3,2c-0.1,0.4-0.1,0.7-0.1,0.9c0,0.2,0.3,0.4,0.7,0.6
		c0.5,0.2,1,0.4,1.7,0.6c0.7,0.2,1.4,0.2,2.1,0.2c0-0.8,0-1.6,0.1-2.4c0-0.8,0-1.5,0-2.4c0-1.1,0-2.7,0-4.6
		c-0.8,0.4-1.6,0.8-2.4,1.3c-0.2,0.1-0.5,0.2-0.8,0c-0.3-0.2-0.4-0.6-0.5-0.8c-0.8-2.1-1.3-3.2-1.4-3.4c-0.4-0.9-0.5-1.5-0.3-1.7
		c0.2-0.2,0.3-0.3,0.4-0.5c1-1,2.1-2,3.2-3c1.1-1,1.8-1.7,2.2-2c-1.2,0.1-2.5,0.2-3.6,0.2l-0.1,0c-0.7,0.1-1.2,0.2-1.3,0.2
		c-0.2,0.1-0.4,0.1-0.5,0.2l0,0c0.1,0.7,0.2,1.3,0.2,1.9c-0.2,0.1-0.4,0.1-0.8,0.1c-0.4,0-0.9,0-1.7,0.1c-0.7,0-1.4,0-2,0
		c-0.6,0-0.9-0.1-1-0.3c-0.1-0.2-0.2-0.7-0.2-1.5c0-0.8-0.1-1.8,0-3c0-1.3,0.2-2,0.5-2.4c0.1-0.1,0.3-0.2,0.5-0.3
		C343,148.4,343.5,148.3,344,148.2z"/>
	<path class="st3" d="M375.8,147.6c0.1,0,0.5,0,1.2,0c0.7,0,1.4,0.1,2.2,0.1c0.8,0,1.6,0.1,2.2,0.1c0.7,0,1,0.1,1.2,0.1
		c-0.3,4.5-0.5,8.3-0.7,11.2c-0.1,3-0.3,6.7-0.3,11.2c-0.2,0-0.6,0.1-1.3,0.1c-0.7,0-1.4,0.1-2.2,0.1c-0.6,0-1.1,0.1-1.6,0.1
		s-0.8,0-1,0.1c0-0.3,0-0.6,0-1c0-0.3,0-0.7-0.1-1.2c-1.4,0.4-2.6,0.8-3.6,1.1c-1,0.3-1.9,0.5-2.9,0.7c-0.9,0.2-1.6,0.3-2.2,0.3
		c-0.9-0.1-1.6-0.7-2.1-1.9c-0.5-1.2-0.8-2.8-0.9-4.8c-0.1-2.2-0.2-4.9-0.2-8.2c0-3.3,0.2-6.1,0.4-8.4c0.5,0.1,1.2,0.2,2.1,0.3
		c0.9,0.2,1.8,0.3,2.7,0.5c0.9,0.2,1.4,0.3,1.7,0.4c-0.1,2-0.3,4.4-0.4,7.2s-0.2,5.2-0.2,7.4c0,2.2,0,3.3,0.1,3.5
		c0.6-0.2,1.4-0.4,2.4-0.8c1-0.3,2-0.7,2.9-1c0.9-0.3,1.4-0.5,1.6-0.5c-0.2-1.9-0.3-4.5-0.6-7.8C376.2,153.4,376,150.4,375.8,147.6z
		"/>
	<path class="st3" d="M407,148.1c-0.3,4.5-0.5,8.3-0.7,11.2c-0.1,3-0.3,6.7-0.3,11.2c-0.2,0-0.6,0.1-1.3,0.1c-0.7,0-1.4,0.1-2.2,0.1
		c-0.6,0-1.1,0.1-1.6,0.1c-0.5,0-0.8,0.1-1,0.1c0-0.1,0-0.4-0.1-0.8c0-0.6-0.1-1.5-0.2-3.1c-0.1-1-0.1-2.2-0.2-3.6c0,0-0.1,0-0.1,0
		c-1,0.1-2.1,0.2-3.2,0.5c-0.7,0.2-1.6,0.4-2.4,0.6l-0.1,0.3c0,0.4,0,0.6,0,0.8c0,1.3,0.1,3,0.2,5.2c-0.8,0-1.6-0.1-2.6-0.1
		c-0.9-0.1-1.7-0.2-2.4-0.3c-0.7-0.1-1.2-0.2-1.3-0.3c0.2-2.2,0.4-5,0.8-8.5c0.3-4.6,0.5-8,0.6-10.2c0.1-2.3,0.2-3.5,0.3-3.8
		c1,0.1,2.1,0.2,3.3,0.3c1.2,0.1,2,0.3,2.6,0.4c0,0.3-0.1,0.7-0.1,1c-0.1,0.4,0,3.6,0.1,9.6v0.7c0.3,0,0.6-0.1,0.9-0.1
		c0.6-0.1,1.4-0.1,2.3-0.2c0.1,0,0.2,0,0.3,0c0.3-0.1,0.7-0.2,1-0.3c0.9-0.3,1.4-0.5,1.6-0.5c-0.1-2.5-0.3-4.2-0.4-5.3
		c-0.1-1.1-0.2-3-0.4-5.7c0.1,0,0.5,0,1.1,0c0.7,0,1.4,0.1,2.2,0.1c0.8,0,1.6,0.1,2.2,0.1C406.5,148,406.9,148.1,407,148.1z"/>
	<path class="st3" d="M441.7,148.4c0.2,0.2,0.2,1.3,0.2,3.2s-0.1,4.1-0.3,6.6c-0.2,2.5-0.3,4.6-0.5,6.3c-0.2,2.2-0.5,4.3-0.9,6.3
		s-0.8,3.6-1.2,4.6c-0.4,0.6-1.1,1.1-2.1,1.4c-1,0.3-2.2,0.5-3.5,0.6c-1.3,0.1-2.6,0.1-3.9,0.1c-0.8-0.1-1.5-0.4-2-1
		c-0.5-0.6-1-1.4-1.3-2.2c-0.3-0.8-0.5-1.6-0.6-2.3c-0.1-0.7-0.1-1.1,0-1.2c0.4-0.2,1.1-0.4,1.9-0.5c0.9-0.2,1.7-0.3,2.4-0.4
		c0.8-0.1,1.2-0.1,1.4-0.1c0.2,0.1,0.3,0.4,0.3,1.1c0,0.2,0.1,0.4,0.1,0.7c0,0.6,0.2,1.1,0.4,1.5c0.2,0.4,0.6,0.6,1.3,0.6
		c0.3,0,0.7-0.1,1.2-0.2c0.5-0.1,0.8-0.2,1.1-0.4c0.2-0.3,0.3-0.7,0.4-1.4c0.1-0.7,0.1-1.5,0.1-2.3c0-0.8,0-1.5,0-2.1
		c0-0.6,0-0.9-0.1-1c-0.9,0.3-2,0.7-3.5,1.1c-1.5,0.4-2.9,0.8-4.4,1.1c-1.4,0.3-2.5,0.3-3.1,0.2c-0.5-0.2-0.9-0.9-1.2-2.2
		c-0.3-1.3-0.5-2.7-0.6-4.3c-0.1-1.6-0.2-2.9-0.1-4c0-1.7,0.2-3.3,0.3-5c0.2-1.7,0.4-3.1,0.8-4.2c0.2-0.5,0.6-0.8,1.2-0.8
		c0.6,0,1.4,0.1,2.3,0.2c0.1,0,0.2,0,0.3,0c0.5,0.1,1.1,0.2,1.8,0.4c0.7,0.2,1.4,0.3,2.2,0.5c0.7,0.2,1.6,0.3,2.5,0.6
		c0-0.4,0-0.8,0-1.2c0-0.3,0-0.7,0-1c1.2,0.1,2.5,0.2,3.8,0.3C439.7,148,440.8,148.2,441.7,148.4z M437.3,160.5
		c0.1-0.2,0.1-0.6,0.1-1.3c0-0.6,0-1.2,0-1.9c0-0.6-0.1-1-0.1-1.2c-0.1-0.2-0.5-0.3-1.2-0.4c-0.7-0.1-1.6-0.2-2.6-0.2
		c-1,0-1.9,0-2.8,0.1c-0.9,0.1-1.4,0.4-1.7,0.7c-0.2,0.3-0.3,0.9-0.3,1.8c0,0.9,0,1.8,0.1,2.8c0.1,0.9,0.1,1.5,0.2,1.8
		c0.1,0.3,0.6,0.4,1.4,0.3c0.8-0.1,1.7-0.2,2.8-0.5c1-0.3,2-0.6,2.8-1C436.7,161.2,437.2,160.8,437.3,160.5z"/>
	<path class="st3" d="M454.9,154.7c0,0-0.2,1.4-0.6,4.2c-0.4,2.8-0.8,5.4-1.1,7.7c-0.3,2.4-0.5,3.8-0.6,4.2
		c-0.1,0.2-0.4,0.2-0.9,0.1c-0.6-0.1-1.2-0.3-2-0.5c-0.8-0.2-1.4-0.5-2.1-0.8s-1-0.5-1.2-0.8c0.1-0.3,0.3-1.1,0.7-2.5
		c0.4-1.4,0.8-2.9,1.2-4.5c0.4-1.6,0.8-3,1-4c0.2-1.1,0.5-2.4,0.9-4.1s0.7-3.1,1-4.5c0.3-1.3,0.5-2.1,0.6-2.2c0.7,0,1.6,0.1,2.9,0.1
		c1.2,0.1,2.3,0.1,3.3,0.2c0.2,0.4,0.4,0.9,0.8,1.8c0.8,1.7,1.7,3.9,2.9,6.5c1.2,2.6,2.3,5.1,3.3,7.4c1,2.3,1.7,3.8,2,4.5
		c-0.6,0.4-1.3,0.8-2.1,1.2c-0.8,0.4-1.6,0.8-2.3,1.1c-0.7,0.3-1.2,0.5-1.5,0.5c-0.4-0.9-1-2.8-1.9-5.7c-0.9-2.9-1.8-5.7-2.7-8.5
		c-0.6-1.9-1-3.2-1.3-4.1C455,153.8,454.9,154.7,454.9,154.7z"/>
	<path class="st3" d="M482.7,148.3c0-0.3-0.1-0.6-0.1-1c0.2-0.1,0.7-0.2,1.6-0.3c0.9-0.2,1.9-0.2,3-0.2c1.1,0,2,0,2.7-0.1
		c0.1,1.1,0.1,2.6,0.1,4.3c0,1.7,0,4,0,6.6c0,2.7,0.1,5.4,0.1,8.2c0,2.8,0,4.5-0.1,5c-0.3,0-0.8,0.1-1.8,0c-0.9,0-1.7,0-2.2,0
		c-0.6,0-1-0.1-1.3-0.2c0-0.3,0-0.9,0-1.6s0-1.5,0.1-2.2c0-0.7,0.1-1.2,0.1-1.4c0-0.2-0.4,0.2-1.1,1.3c-0.8,1.1-1.5,2.1-2.3,3
		c-0.7,0.9-1.5,1.8-2.1,2.7c-0.7,0.8-1.1,1.3-1.3,1.4c-0.2,0-0.7-0.4-1.5-1c-0.8-0.6-1.5-1.4-2.3-2.2c-0.8-0.8-1.2-1.6-1.4-2.4
		c0.5-0.3,1.4-1,2.6-1.9c1.2-0.9,2.1-1.5,2.5-1.8c0.4-0.3,1-0.7,1.7-1.2c0.7-0.5,1.6-1.3,2.7-2.2c0.1-0.1,0.1-0.1,0.2-0.2
		c-1.7,0-3.7,0-6,0c-1.2-0.1-2.1-0.8-2.8-2c-0.7-1.2-1.2-2.6-1.4-4.1c-0.3-1.6-0.3-3-0.2-4.2c0.1-1.3,0.4-2,0.9-2.3
		c1-0.3,2.5-0.4,4.4-0.4C479.4,147.7,481.2,147.9,482.7,148.3L482.7,148.3z M483.6,155.7c0-0.4-0.1-0.7-0.1-1.1
		c-0.1-0.3-0.2-0.6-0.3-0.9c-0.3-0.7-0.8-1.2-1.4-1.3c-0.4,0-0.9,0-1.3,0.1c-0.4,0.1-0.8,0.2-1.2,0.4c-0.3,0.2-0.6,0.4-0.9,0.7
		c-0.2,0.2-0.2,0.5-0.2,1c0,0.5,0.1,0.9,0.3,1.3c0.2,0.4,0.5,0.7,1,0.9c0.4,0.1,0.6,0.2,0.8,0.1c0.1,0,0.6,0,1.2-0.1
		c0.7,0,1.2-0.1,1.5-0.2C483.4,156.6,483.5,156.3,483.6,155.7z"/>
	<path class="st3" d="M528.2,169.7c0,0,0-0.5,0-1.6c0-1.9-0.1-4.2-0.1-6.9c0-2.7-0.1-4.8,0-6.5c-0.4,0.9-1,2-1.6,3.3
		c-0.6,1.3-1.2,2.6-1.8,3.8c-0.6,1.4-1.1,2.5-1.4,3.1c-2.1,0.2-3.5,0.4-4.3,0.4c-0.3-0.8-1.8-4.2-4.6-10.1c-0.4,3.5-0.7,6.5-0.9,9
		c-0.2,2.5-0.4,4.8-0.6,6.8c-1.2-0.2-2.3-0.3-3.4-0.5c-1-0.2-1.9-0.4-2.5-0.8c0.2-1.1,0.5-3.1,1.1-6.1c0.6-3,1.1-6,1.7-9.1
		c0.6-3,1-5.1,1.3-6.2c0.2,0,0.6,0,1.1,0.1c0.6,0.1,1,0.2,1.2,0.2c0.3,0.1,0.9,0.2,1.8,0.4l4.8,9.4c1-1.7,1.9-3.2,2.6-4.3
		c0.7-1.2,1.4-2.3,2.1-3.4c0.7-1.1,1.2-1.8,1.5-2.3c2-0.3,4-0.4,5.9-0.6c0.4,4.4,0.8,9.2,1.3,14.2c0.3,3.5,0.6,6.4,0.9,8.9
		c-0.1,0.1-0.5,0.1-1.2,0.1c-0.7,0-1.2-0.1-1.7-0.1c-0.5-0.1-1.1-0.2-1.8-0.3c-0.7-0.1-1.2-0.3-1.5-0.4
		C528.2,169.8,528.2,169.7,528.2,169.7z"/>
	<path class="st3" d="M541.3,147.9c1.2-0.3,2.9-0.4,5-0.3c2.1,0.1,4.1,0.4,6,0.8c1.9,0.4,3.2,0.9,3.9,1.5c0.1,2.1,0.2,5.1,0.4,8.9
		c0.2,3.8,0.3,7.1,0.4,9.8c0,0.6,0.1,1.2,0.1,1.6c-0.3,0.1-0.8,0.2-1.5,0.2c-0.6,0.1-1.3,0.2-2,0.2s-1.3,0.1-1.8,0.2
		c-0.5,0-0.8,0-0.9,0c0-0.5,0.1-1,0.1-1.6c0-0.6,0-1.2,0-1.7c-0.3,0.1-0.8,0.3-1.5,0.7c-1.1,0.5-2.5,1.1-4.1,1.7
		c-1.6,0.6-3,0.9-4.4,0.9c-0.6-0.1-1.1-0.6-1.4-1.8c-0.4-1.1-0.6-2.4-0.7-3.9c-0.1-1.5-0.1-2.8,0-4c0.2-1.8,0.6-3.2,1.1-4.4
		c0.5-1.1,1.4-1.8,2.6-1.9c0.9,0,2.1,0,3.5,0.2c1.4,0.2,2.7,0.4,3.8,0.6c0.6,0.1,1.1,0.2,1.4,0.2c0.4,0.1,0.6,0.1,0.6,0
		c0.1-0.1,0.1-0.3,0.1-0.7c0-0.4,0-0.9,0-1.4c0-0.5,0-0.9,0-1.3c-0.4-0.2-1-0.3-1.9-0.5c-0.9-0.2-1.8-0.4-2.7-0.5
		c-0.9-0.1-1.6-0.2-2.1-0.1c0,0.3-0.1,0.6-0.1,0.9c0,0.2,0,0.4,0,0.6c0,0-0.3,0-0.9,0.1c-0.5,0-1.2,0-1.9,0c-0.7,0-1.4-0.1-1.9-0.1
		c-0.6-0.1-0.9-0.1-0.9-0.2c-0.1-0.2-0.1-0.6,0-1.3c0.1-0.7,0.2-1.4,0.4-2.1C540.5,148.5,540.8,148.1,541.3,147.9z M552.9,163.9
		c0.3-0.3,0.5-0.7,0.6-1.3c0.1-0.6,0.1-1.1,0-1.6c0-0.4-0.5-0.6-1.3-0.9c-0.8-0.2-1.8-0.4-3-0.4c-1.8-0.1-2.9,0.1-3.5,0.5
		c-0.6,0.4-0.9,0.9-0.9,1.5c0,0.4-0.1,0.9-0.1,1.6c0,0.7,0.1,1.3,0.3,1.9c0.2,0.6,0.5,0.9,0.9,0.9c0.5,0,1.3-0.2,2.3-0.5
		c1-0.3,2-0.6,2.9-1C552,164.3,552.6,164.1,552.9,163.9z"/>
	<path class="st3" d="M569.9,154.7c0,0-0.2,1.4-0.6,4.2c-0.4,2.8-0.8,5.4-1.1,7.7c-0.3,2.4-0.5,3.8-0.6,4.2
		c-0.1,0.2-0.4,0.2-0.9,0.1c-0.6-0.1-1.2-0.3-2-0.5c-0.8-0.2-1.4-0.5-2.1-0.8c-0.6-0.3-1-0.5-1.2-0.8c0.1-0.3,0.3-1.1,0.7-2.5
		c0.4-1.4,0.8-2.9,1.2-4.5c0.4-1.6,0.8-3,1-4c0.2-1.1,0.5-2.4,0.9-4.1s0.7-3.1,1-4.5c0.3-1.3,0.5-2.1,0.6-2.2c0.7,0,1.6,0.1,2.9,0.1
		c1.2,0.1,2.3,0.1,3.3,0.2c0.2,0.4,0.4,0.9,0.8,1.8c0.8,1.7,1.7,3.9,2.9,6.5c1.2,2.6,2.3,5.1,3.3,7.4c1,2.3,1.7,3.8,2,4.5
		c-0.6,0.4-1.3,0.8-2.1,1.2c-0.8,0.4-1.6,0.8-2.3,1.1c-0.7,0.3-1.2,0.5-1.5,0.5c-0.4-0.9-1-2.8-1.9-5.7c-0.9-2.9-1.8-5.7-2.7-8.5
		c-0.6-1.9-1-3.2-1.3-4.1C570,153.8,569.9,154.7,569.9,154.7z"/>
	<path class="st3" d="M602.6,163.2c0.2,0.9,0.3,1.9,0.2,3.2c-0.1,1.3-0.3,2.2-0.7,2.8c-0.4,0.3-1.6,0.7-3.6,0.9
		c-2,0.3-4,0.5-6.2,0.7c-2.2,0.2-3.5,0.3-4.1,0.3c-0.5,0-0.9-0.4-1.3-1.2c-0.4-0.8-0.7-1.8-0.9-3c-0.2-1.2-0.4-2.4-0.5-3.7
		c-0.1-1.3-0.2-2.8-0.1-4.7c0-1.8,0.2-3.5,0.5-5.1c0.3-1.6,0.6-2.8,1.1-3.4c0.7-0.8,2-1.4,3.8-1.8c1.8-0.4,3.8-0.6,6-0.7
		c2.2-0.1,3.8,0.1,4.8,0.3c0.5,0.3,0.8,1.1,0.9,2.3c0.1,1.3,0.1,2.7-0.2,4.2c-0.3,1.6-0.7,2.9-1.4,4.1c-0.7,1.2-1.6,1.8-2.8,2
		c-3.5,0.1-6.1,0.2-7.8,0.2c0,0.8,0,1.7,0.1,2.5c0.1,0.9,0.3,1.6,0.4,2.2c0.2,0.6,0.3,0.9,0.4,0.9c0.7-0.3,2.2-0.7,4.6-1.3
		C598.2,164.4,600.4,163.8,602.6,163.2z M591.3,152.4c-0.7,0.1-1.1,0.5-1.4,1.3c-0.3,0.7-0.4,1.4-0.4,1.9c0,0.5,0.2,0.9,0.6,1.1
		c0.3,0.1,0.8,0.2,1.5,0.2c0.7,0,1.4,0,2.1,0c0.7,0,1.2-0.1,1.6-0.2c0.4-0.2,0.8-0.5,1-0.9c0.2-0.4,0.3-0.9,0.3-1.3
		c0-0.4-0.1-0.8-0.2-1c-0.3-0.3-0.7-0.5-1.3-0.6c-0.6-0.2-1.3-0.3-2-0.4C592.3,152.4,591.7,152.4,591.3,152.4z"/>
	<path class="st3" d="M614.6,164.2l-0.1,0.8c0,0.4,0,0.6,0,0.8c0,1.3,0.1,3,0.2,5.2c-0.8,0-1.6,0-2.6-0.1c-0.9-0.1-1.7-0.2-2.4-0.3
		c-0.7-0.1-1.2-0.2-1.3-0.3c0.2-2.2,0.4-5,0.8-8.5c0.3-4.6,0.5-8,0.6-10.2s0.2-3.5,0.3-3.8c1,0.1,2.1,0.2,3.3,0.3
		c1.2,0.1,2.1,0.3,2.6,0.4c0,0.3-0.1,0.7-0.1,1s0,3.6,0.1,9.6v1.6l-1.2,2.7L614.6,164.2z M616.7,159.7c0.6-0.1,1.4-0.1,2.3-0.2
		c0.4,0,0.7,0,1.1,0v3.9c-1,0.1-2.1,0.2-3.2,0.5c-1.1,0.3-2.4,0.6-3.7,0.9l1.8-5C615.4,159.8,615.9,159.8,616.7,159.7z M617.5,159.9
		c0,0,0.1,0,0.2,0c0.8-0.1,1.7-0.3,2.6-0.6c0.9-0.3,1.4-0.5,1.6-0.5c-0.2-2.5-0.3-4.2-0.4-5.3c-0.1-1.1-0.2-3-0.4-5.7
		c0.1,0,0.5,0,1.2,0c0.7,0,1.4,0.1,2.2,0.1c0.8,0,1.6,0.1,2.2,0.1c0.7,0,1,0.1,1.2,0.1c-0.3,4.5-0.5,8.3-0.7,11.2
		c-0.1,3-0.3,6.7-0.3,11.2c-0.2,0-0.6,0.1-1.3,0.1c-0.7,0-1.4,0.1-2.2,0.1c-0.6,0-1.1,0.1-1.6,0.1c-0.5,0-0.8,0-1,0.1
		c0-0.3-0.1-1.6-0.3-3.9c-0.2-2.3-0.3-3.7-0.3-4.1l-0.7,0c-0.4,0-1.1,0.1-1.9,0.4V159.9z"/>
	<path class="st3" d="M646.4,171.2c0,0-1.2,0-3.5-0.1s-4.5-0.3-6.6-0.8c-2-0.4-3.3-1.1-3.7-2c-0.2-0.5-0.3-1.6-0.5-3.4
		c-0.2-1.8-0.3-3.7-0.3-5.7c0-2.1,0-4.4,0-7c-0.1-2.6,0-4.1,0.3-4.5c0.1,0,0.4-0.1,0.9-0.1c0.5,0,1.2,0,2,0c0.8,0,1.5,0.1,2.2,0.1
		c0.7,0,1.3,0.1,1.7,0.2c-0.4,2.9-0.7,5.5-0.9,7.8c1.6-0.1,3.4-0.1,5.2-0.2c1.9,0,3.5,0.1,4.8,0.4c1.4,0.2,2.4,0.8,3.2,1.7
		c0.8,0.9,1.3,2.7,1.7,5.3c0.4,2,0.4,3.8-0.2,5.2c-0.5,1.4-1.8,2.3-3.7,2.6C647.3,171.1,646.4,171.2,646.4,171.2z M644.2,160.5
		c0,0-0.6-0.1-1.9-0.2c-1.3-0.1-2.5-0.1-3.6,0c-1.1,0.1-1.7,0.4-1.9,0.8c-0.2,0.8-0.3,1.6-0.2,2.4c0.1,0.8,0.4,1.6,1,2.3
		c0.3,0.3,1,0.5,2,0.5s2,0,3.1-0.2c1.1-0.2,1.9-0.3,2.5-0.6c0.7-0.3,1.1-0.7,1.2-1.2c0.1-0.5,0.1-1.2-0.1-1.9
		c-0.2-0.7-0.5-1.2-0.9-1.4C644.6,160.7,644.2,160.5,644.2,160.5z"/>
	<path class="st3" d="M672.4,147.8c0.3,0.1,0.7,0.3,1.1,0.6c0.4,0.4,0.8,0.8,1.2,1.2c0.4,0.5,0.8,0.9,1,1.3c0.3,0.4,0.4,0.6,0.4,0.7
		c-0.2,0.2-0.7,0.7-1.7,1.4c-1,0.7-2.1,1.5-3.3,2.4c-1.2,0.9-2.7,1.9-4.6,3.3c1.4,1.1,2.7,2,3.7,2.7s2,1.4,2.9,2.1
		c0.9,0.7,1.7,1.2,2.2,1.5c-0.2,0.7-0.6,1.6-1.2,2.5c-0.6,0.9-1.2,1.8-1.8,2.5c-0.6,0.7-1,1.1-1.2,1.1c-0.2-0.1-0.7-0.6-1.6-1.5
		c-0.9-1-1.8-2.1-2.9-3.4c-1.1-1.3-2.4-2.9-4.1-4.9c0.1,1.6,0.1,2.9,0.2,4c0,1.1,0.1,2.1,0.1,3c0,0.9,0,1.5,0,1.9
		c-0.3,0.1-0.8,0.3-1.5,0.4c-0.7,0.1-1.5,0.3-2.2,0.4c-0.7,0.1-1.2,0.1-1.5,0.1c-0.1-0.5-0.1-2.1-0.1-4.9c0-2.8,0.1-6,0.1-9.6
		c0.1-3.6,0.1-6.3,0.1-8c0-1.7,0-3.1,0.1-4.2c0.6,0.1,1.4,0.2,2.4,0.4c1,0.2,1.9,0.3,2.8,0.5c0.9,0.2,1.4,0.3,1.5,0.3
		c-0.2,1.8-0.3,3.1-0.4,3.9c-0.1,0.9-0.3,3-0.7,6.5c1.7-1.6,3.1-3,4.2-4c1.1-1.1,2.1-2,3-2.8C671.7,148.2,672.3,147.8,672.4,147.8z"
		/>
	<path class="st3" d="M692.3,147.6c0.1,0,0.5,0,1.2,0c0.7,0,1.4,0.1,2.2,0.1c0.8,0,1.6,0.1,2.2,0.1c0.7,0,1,0.1,1.2,0.1
		c-0.3,4.5-0.5,8.3-0.7,11.2c-0.1,3-0.3,6.7-0.3,11.2c-0.2,0-0.6,0.1-1.3,0.1c-0.7,0-1.4,0.1-2.2,0.1c-0.6,0-1.1,0.1-1.6,0.1
		c-0.5,0-0.8,0-1,0.1c0-0.3,0-0.6,0-1c0-0.3,0-0.7-0.1-1.2c-1.4,0.4-2.6,0.8-3.6,1.1c-1,0.3-1.9,0.5-2.9,0.7
		c-0.9,0.2-1.6,0.3-2.2,0.3c-0.9-0.1-1.6-0.7-2.1-1.9c-0.5-1.2-0.8-2.8-0.9-4.8c-0.1-2.2-0.2-4.9-0.2-8.2c0-3.3,0.2-6.1,0.4-8.4
		c0.5,0.1,1.2,0.2,2.1,0.3c0.9,0.2,1.8,0.3,2.7,0.5c0.9,0.2,1.4,0.3,1.7,0.4c-0.1,2-0.3,4.4-0.4,7.2s-0.2,5.2-0.2,7.4
		c0,2.2,0,3.3,0.1,3.5c0.6-0.2,1.4-0.4,2.4-0.8c1-0.3,2-0.7,2.9-1c0.9-0.3,1.4-0.5,1.6-0.5c-0.2-1.9-0.3-4.5-0.6-7.8
		C692.7,153.4,692.5,150.4,692.3,147.6z"/>
	<path class="st3" d="M718,158.6c1.8,1.4,3.5,2.8,5.3,4.1c1.8,1.3,3,2.3,3.8,2.9c0.1,0.1-0.1,0.4-0.4,1c-0.4,0.6-0.8,1.2-1.3,1.9
		c-0.5,0.7-1,1.3-1.5,1.9c-0.5,0.5-0.8,0.9-0.9,0.9c-1.4-1.6-2.9-3.3-4.5-5.1c-1.6-1.9-2.9-3.4-4-4.7c-0.3,0.5-1.2,1.8-2.6,3.7
		c-1.4,1.9-2.7,3.7-3.8,5.3c-0.2-0.1-0.6-0.4-1.1-0.9c-0.5-0.5-1.2-1-1.8-1.6c-0.7-0.6-1.2-1.2-1.8-1.7s-0.8-0.8-0.9-0.9
		c1.3-1.4,2.6-2.8,3.8-4.1c1.8-1.9,3.5-3.6,5-5.2c-2.1-2.2-4.2-4.4-6.2-6.6c1.6-1.4,3.5-2.7,5.5-3.8c1,1.3,2,2.7,3.1,4.2
		c0.8,1.1,1.4,2,2,2.8c0.8-0.8,1.6-1.6,2.3-2.3c0.7-0.7,1.5-1.5,2.5-2.5c0.1-0.1,0.2-0.3,0.4-0.4c0.1,0.1,0.4,0.3,0.9,0.7
		c0.4,0.4,0.9,0.8,1.5,1.3c0.6,0.5,1.1,1,1.5,1.4c0.4,0.4,0.7,0.7,0.9,0.8c-1.8,1.6-3.3,2.9-4.5,4
		C720.3,156.6,719.2,157.6,718,158.6z"/>
	<g>
		<g>
			<path class="st3" d="M308,159.8c0,0.9,0.1,2,0.3,3.4c0.2,1.4,0.3,2.9,0.5,4.3c0.1,1.1,0.2,2.1,0.3,3c-0.9,0.1-1.8,0.2-2.8,0.2
				s-1.8,0.1-2.4,0c0-1.3-0.1-3.2-0.2-5.7c-0.1-2.5-0.1-5-0.2-7.5c0-2.4-0.1-4.2-0.1-5.4c-0.2,0-0.5,0.1-0.8,0.1c-0.3,0-0.5,0-0.7,0
				c-0.2,0-0.3,0-0.3-0.1c0-0.8,0.1-1.6,0.1-2.4c0-0.8,0.1-1.5,0.1-1.9c1.1-0.1,2.9-0.2,5.2-0.4c2.3-0.2,4.4-0.4,6.3-0.5
				c1.8-0.1,2.9-0.2,3.2-0.2c0.1,0,0.2,0.3,0.3,0.7c0,0.4,0,0.9,0,1.5c0,0.6-0.1,1-0.2,1.5c-0.1,0.4-0.2,0.7-0.3,0.7
				c-0.4,0-0.8,0-1.4,0c-0.6,0-1.5,0-2.6,0c-1.1,0-2,0-2.9,0.1c-0.9,0-1.5,0-1.9,0.1c-0.1,0.7-0.1,1.5-0.2,2.4l0.1,2L308,159.8z"/>
		</g>
	</g>
</g>
<path class="st4" d="M132,57.3c-0.9,0.3-2.4,0.7-3.6-0.1c-1.1-0.7-1.3-1.9-2.2-5.1c-0.3-1.2-0.9-3.2-1.6-5.7
	c-0.2-1.5,0.8-2.9,2.3-3.1l5.8-0.8l1.6,11.6C134.5,55.8,133.5,57.1,132,57.3z"/>
<path class="st4" d="M605.4,83c-0.4-5.9-0.9-10-1.6-12.2c-0.4-1.1-1.1-2-2.1-2.9c0.9-1.6,1.4-3,1.7-3.9c0.7-2.4,1.9-6.3-0.2-8.6
	c-0.9-1-2-1.3-4.3-1.8c-3.4-0.8-7-1.6-9.8,0.4c-2.3,1.6-2.9,4.2-3.1,5.6c-0.2,0.8-0.5,1.7-0.6,2.8c-0.6-0.1-1.1-0.1-1.6-0.2
	c-1.8-0.2-3.8-0.3-6-0.3c-0.1-1.6-0.4-3-0.7-4c-0.2-1.3-0.9-4-3.1-5.6c-2.8-2-6.4-1.2-9.8-0.4c-2.3,0.5-3.4,0.8-4.3,1.8
	c-2.1,2.3-0.9,6.2-0.2,8.6c0.2,0.5,0.4,1.2,0.7,1.9c-0.7,0.4-1.2,1-1.5,1.5c-1.4,3.3-2.4,7.5-3,12.7c-0.6,5.2-0.7,10.5-0.3,16
	c0.4,5.5,1.2,10.2,2.7,14.3c1.4,4,3.5,6.6,6.2,7.6c2.9,0.8,7.2,1.1,12.9,0.8c5.7-0.3,11.2-1,16.4-2.1c5.3-1.1,8.7-2.4,10.3-4
	c1-1.5,1.6-5,1.8-10.7C605.9,94.6,605.8,88.9,605.4,83z M591.7,104.2c-0.2,0.1-2.5,0.5-7.2,1.3c-6.6,1.2-2.9,0.5-5.8,0.9
	c-2,0.3-3.3,0.4-4,0.5c-1.7,0-3-1.4-4.1-4c-1-2.6-1.7-6.3-2.1-11c-0.4-4.7-0.6-8.5-0.6-11.3c0-2.8,0.2-4.5,0.6-5
	c0.8-0.8,2.6-1.5,5.3-2c1.7-0.3,4-0.6,8.6-0.9c5.1-0.4,7.7-0.5,8.9,0.4c1.4,1.1,1.5,2.8,1.6,3.6C594.2,93.6,596.8,101.9,591.7,104.2
	z"/>
<path class="st4" d="M150.5,56.1c-0.9,0.3-2.4,0.6-3.6-0.2c-1.1-0.7-1.3-1.9-1.9-5.2c-0.3-1.2-0.7-3.2-1.3-5.8c-0.1-1.5,1-2.8,2.5-3
	l5.9-0.5l1,11.7C153.2,54.6,152,56,150.5,56.1z"/>
<path class="st4" d="M574.3,56.7"/>
<path class="st2" d="M221.5,29.1c2.5,0.1,4.4,0.2,4.5-0.5c0.1-0.8-1.7-2-3.4-3.2c-8.6-5.8-11.1-7-11.1-7c-6.6-3.6-12.8-6-18.3-7.7
	c-0.1,3.2-0.3,6.4-0.4,9.6c-0.1,4-0.3,7.9-0.4,11.8c6-1.3,12.6-2.3,19.7-2.8C215.3,29.1,218.4,29,221.5,29.1z"/>
<path class="st0" d="M396.3,27.7c2,0,3.5,0.2,3.6-0.4c0.1-0.6-1.4-1.6-2.7-2.6c-6.9-4.6-8.9-5.6-8.9-5.6c-5.3-2.9-10.3-4.9-14.7-6.2
	c-0.1,2.6-0.2,5.1-0.3,7.7c-0.1,3.2-0.2,6.4-0.3,9.5c4.8-1.1,10.1-1.9,15.8-2.2C391.3,27.7,393.8,27.6,396.3,27.7z"/>
<g>
	<path class="st2" d="M727.5,65.2c-1-2.7-3.3-4.3-7.1-5c-3.9-0.6-8.4-0.8-13.3-0.6c-4.9,0.2-9.3,0.8-13.2,1.8
		c-1.5,0.4-2.8,0.9-3.8,1.4v0c0,0,0,0-0.1,0c-0.3,0.2-0.6,0.3-0.9,0.6c-0.1,0.1-0.2,0.1-0.3,0.2c-1.1,0.7-1.8,1.6-2.4,2.2
		c-0.3,2.2-0.6,4.9-0.9,8.1c-1.7,17.5-1.4,34-0.7,40.2c0.1,2,0.2,3,0.3,3.4c0.2,0,0.6,0,1.2,0c1.2,0,2.6,0,4.2-0.1
		c1.6-0.1,3.2-0.1,4.7-0.2c1-0.1,1.9-0.1,2.6-0.2c-0.8-7.8-1.5-15.9-2.2-24.2l-0.1-1.2l1.2,0.1c3.5,0.2,7.2,0.3,11.1,0.3
		c3.9,0,7.3-0.2,10.2-0.8c2.7-0.4,4.7-1.5,6.2-3.3c1.5-1.9,2.7-5.5,3.5-10.8C728.7,72.1,728.6,68.1,727.5,65.2z M715.5,78.6
		c-0.6,1.9-1.3,3-2.4,3.7l-0.1,0c-1.7,0.8-4,1.4-6.9,1.6c-1.4,0.1-2.7,0.2-4,0.2c-1.4,0-2.7-0.1-3.9-0.2c-2.8-0.3-4.4-1.1-4.9-2.4
		l0-0.1c-0.5-1.8-0.6-3.9-0.4-6.2c0.2-2.4,1-4.4,2.2-6.1l0.1-0.1c0.9-0.9,2.5-1.4,5-1.4c2.2-0.1,4.5,0.1,6.8,0.4
		c2.4,0.3,4.2,0.7,5.6,1.2c1.8,0.8,2.9,2.2,3.2,4.1C716.1,75.2,716,76.9,715.5,78.6z"/>
	<path class="st2" d="M690.2,62.8L690.2,62.8C690.2,62.8,690.2,62.8,690.2,62.8C690.2,62.8,690.2,62.8,690.2,62.8z"/>
</g>
<g>
	<path class="st4" d="M589.6,98.7c-0.6,0.6-1.8,1.5-3.2,1.7c-0.4,0.1-0.7,0-0.8,0c-1.2,0-2-0.6-2.5-0.9c-0.4,0.3-1.2,0.9-2.4,1.1
		c-0.1,0-0.5,0.1-1,0c-1.6-0.2-2.7-1.2-3.1-1.7c0.1-0.2,0.4-0.4,0.7-0.5c0.1-0.1,0.2-0.1,0.3-0.1c0.7,0.6,1.4,0.9,1.8,1
		c0.4,0.1,0.7,0.2,1.2,0.2c0.8-0.1,1.4-0.7,1.5-0.9c0-0.7,0-1.7,0-2.8c-2.4-0.2-4.8-1.6-4.9-3.2c0-1,1-1.8,1.5-2.3
		c1.2-1,2.5-1.1,3.1-1.2c0.7-0.1,2-0.2,3.3,0.6c1,0.6,2.4,1.9,2.2,3.4c-0.2,1.4-1.9,2.3-3.5,2.6c0,0.8,0.1,1.8,0.3,2.8
		c0.4,0.3,0.9,0.6,1.8,0.6h0c0.1,0,0.7,0,1.3-0.2c0.8-0.3,1.3-0.8,1.5-1c0.1,0,0.3,0.1,0.4,0.2C589.5,98.3,589.6,98.6,589.6,98.7z"
		/>
</g>
</svg>
