<?xml version="1.0" encoding="utf-8"?>
<!-- Generator: Adobe Illustrator 17.1.0, SVG Export Plug-In . SVG Version: 6.00 Build 0)  -->
<!DOCTYPE svg PUBLIC "-//W3C//DTD SVG 1.1//EN" "http://www.w3.org/Graphics/SVG/1.1/DTD/svg11.dtd">
<svg version="1.1" id="Capa_1" xmlns="http://www.w3.org/2000/svg" xmlns:xlink="http://www.w3.org/1999/xlink" x="0px" y="0px"
	 viewBox="135 0 30 30" enable-background="new 135 0 30 30" xml:space="preserve">
<g>
	<g>
		<path fill="#3DAFC4" d="M144.6,3.2H142c-0.3,0-0.6,0.3-0.6,0.6s0.3,0.6,0.6,0.6h2.6c0.3,0,0.6-0.3,0.6-0.6S144.9,3.2,144.6,3.2z"
			/>
	</g>
</g>
<g>
	<g>
		<path fill="#3DAFC4" d="M148.1,3.3c-0.1-0.1-0.3-0.2-0.4-0.2s-0.3,0.1-0.4,0.2c-0.1,0.1-0.2,0.3-0.2,0.4c0,0.2,0.1,0.3,0.2,0.4
			c0.1,0.1,0.3,0.2,0.4,0.2c0.2,0,0.3-0.1,0.4-0.2c0.1-0.1,0.2-0.3,0.2-0.4S148.2,3.4,148.1,3.3z"/>
	</g>
</g>
<g>
	<g>
		<path fill="#3DAFC4" d="M158,8.9c-0.3,0-0.6,0.3-0.6,0.6v2.6h-14.8V7.1h10c0.3,0,0.6-0.3,0.6-0.6S153,6,152.6,6H142
			c-0.3,0-0.6,0.3-0.6,0.6v6.1c0,0.3,0.3,0.6,0.6,0.6H158c0.3,0,0.6-0.3,0.6-0.6V9.4C158.6,9.1,158.3,8.9,158,8.9z"/>
	</g>
</g>
<g>
	<g>
		<path fill="#3DAFC4" d="M158,18.2h-6.5c-0.3,0-0.6,0.3-0.6,0.6s0.3,0.6,0.6,0.6h6.5c0.3,0,0.6-0.3,0.6-0.6S158.3,18.2,158,18.2z"
			/>
	</g>
</g>
<g>
	<g>
		<path fill="#3DAFC4" d="M158,15.1h-6.5c-0.3,0-0.6,0.3-0.6,0.6s0.3,0.6,0.6,0.6h6.5c0.3,0,0.6-0.3,0.6-0.6S158.3,15.1,158,15.1z"
			/>
	</g>
</g>
<g>
	<g>
		<path fill="#3DAFC4" d="M158,21.2H154c-0.3,0-0.6,0.3-0.6,0.6s0.3,0.6,0.6,0.6h3.9c0.3,0,0.6-0.3,0.6-0.6S158.3,21.2,158,21.2z"/>
	</g>
</g>
<g>
	<g>
		<path fill="#3DAFC4" d="M151.8,21.4c-0.1-0.1-0.3-0.2-0.4-0.2c-0.2,0-0.3,0.1-0.4,0.2c-0.1,0.1-0.2,0.3-0.2,0.4s0.1,0.3,0.2,0.4
			c0.1,0.1,0.3,0.2,0.4,0.2c0.2,0,0.3-0.1,0.4-0.2c0.1-0.1,0.2-0.3,0.2-0.4S151.9,21.5,151.8,21.4z"/>
	</g>
</g>
<g>
	<g>
		<path fill="#3DAFC4" d="M148.6,15.1H142c-0.3,0-0.6,0.3-0.6,0.6v6.1c0,0.3,0.3,0.6,0.6,0.6h6.5c0.3,0,0.6-0.3,0.6-0.6v-6.1
			C149.2,15.4,148.9,15.1,148.6,15.1z M148,21.2h-5.4v-4.9h5.4V21.2z"/>
	</g>
</g>
<g>
	<g>
		<path fill="#3DAFC4" d="M164.4,25.1h-0.6V8.8c0-1.3-1-2.4-2.3-2.5V6c0-0.2-0.1-0.3-0.2-0.4l-5.4-5.4c-0.1-0.1-0.3-0.2-0.4-0.2
			h-15.2c-0.9,0-1.7,0.8-1.7,1.7v4.6c-1.3,0.1-2.3,1.1-2.3,2.5v16.3h-0.6c-0.3,0-0.6,0.3-0.6,0.6V27c0,1.7,1.4,3,3,3H162
			c1.7,0,3-1.4,3-3v-1.3C165,25.3,164.7,25.1,164.4,25.1z M161.5,7.5c0.7,0.1,1.2,0.6,1.2,1.3v16.3h-1.2V7.5z M156,2l3.4,3.4h-2.9
			c-0.3,0-0.5-0.2-0.5-0.5V2z M139.7,1.7c0-0.3,0.2-0.5,0.5-0.5h14.6v3.7c0,0.9,0.8,1.7,1.7,1.7h3.7v18.5h-20.6V1.7z M137.3,8.8
			c0-0.7,0.5-1.2,1.2-1.3v17.6h-1.2V8.8z M163.8,27c0,1-0.8,1.9-1.9,1.9H138c-1,0-1.9-0.8-1.9-1.9v-0.7h27.7V27z"/>
	</g>
</g>
<g>
	<g>
		<path fill="#3DAFC4" d="M152,27H148c-0.3,0-0.6,0.3-0.6,0.6s0.3,0.6,0.6,0.6h3.9c0.3,0,0.6-0.3,0.6-0.6S152.3,27,152,27z"/>
	</g>
</g>
</svg>
