<?xml version="1.0" encoding="utf-8"?>
<!-- Generator: Adobe Illustrator 22.0.1, SVG Export Plug-In . SVG Version: 6.00 Build 0)  -->
<svg version="1.1" id="Capa_1" xmlns="http://www.w3.org/2000/svg" xmlns:xlink="http://www.w3.org/1999/xlink" x="0px" y="0px"
	 viewBox="0 0 1871.9 512" style="enable-background:new 0 0 1871.9 512;" xml:space="preserve">
<style type="text/css">
	.st0{fill:#9BC53D;}
	.st1{fill:#FCB641;}
	.st2{fill:#B45150;}
	.st3{fill:#D63230;}
	.st4{fill:#36D9D9;}
	.st5{fill:#F26D76;}
	.st6{fill:#F9A926;}
	.st7{fill:#E65C64;}
	.st8{fill:#43BFBF;}
	.st9{fill:#FFC033;}
	.st10{fill:#B04C5C;}
	.st11{fill:#D85C72;}
	.st12{fill:#DE6E7F;}
	.st13{fill:#00948D;}
	.st14{fill:#00BCB4;}
	.st15{fill:#1ACEC6;}
	.st16{fill:#FFB819;}
	.st17{fill:#FFD26C;}
	.st18{fill:#FFDA8A;}
	.st19{fill:#022A3A;}
</style>
<g>
	<polyline class="st0" points="868.6,87.9 762.2,240.2 792.9,240.2 731.5,328.2 756.1,328.2 689.1,424.2 1091.3,424.2 1024.3,328.2 
		1048.9,328.2 987.5,240.2 1018.2,240.2 911.2,87 	"/>
	<polygon class="st1" points="890.7,8.2 905,37.1 936.9,41.8 913.8,64.3 919.3,96.2 890.7,81.1 862.1,96.2 867.5,64.3 844.4,41.8 
		876.4,37.1 	"/>
	<polygon class="st2" points="946.2,504.2 834.2,504.2 850.2,424.2 930.2,424.2 	"/>
	<circle class="st3" cx="858.2" cy="240.2" r="24"/>
	<circle class="st1" cx="954.2" cy="336.2" r="24"/>
	<path d="M1097.9,419.6l-58.3-83.4h9.3c3,0,5.7-1.7,7.1-4.3s1.2-5.8-0.5-8.3l-52.7-75.4h15.4c3,0,5.7-1.7,7.1-4.3
		c1.4-2.6,1.2-5.8-0.5-8.3L927.2,95.8c0-0.3,0-0.7,0-1l-4.8-27.7l20.1-19.6c2.2-2.1,3-5.3,2-8.2c-0.9-2.9-3.4-5-6.5-5.4l-27.8-4
		L897.8,4.6c-1.3-2.7-4.1-4.5-7.2-4.5c-3,0-5.8,1.7-7.2,4.5l-12.4,25.2l-27.8,4c-3,0.4-5.5,2.6-6.5,5.4c-0.9,2.9-0.2,6.1,2,8.2
		l20.1,19.6l-4.7,27.3l-98.6,141.2c-1.7,2.4-1.9,5.6-0.5,8.3c1.4,2.6,4.1,4.3,7.1,4.3h15.4l-52.7,75.4c-1.7,2.4-1.9,5.6-0.5,8.3
		s4.1,4.3,7.1,4.3h9.3l-58.3,83.4c-1.7,2.4-1.9,5.6-0.5,8.3c1.4,2.6,4.1,4.3,7.1,4.3h151.4l-14.1,70.4c-0.5,2.4,0.1,4.8,1.7,6.6
		c1.5,1.9,3.8,2.9,6.2,2.9h112c2.4,0,4.7-1.1,6.2-2.9c1.5-1.8,2.1-4.3,1.7-6.6L940,432.2h151.4c3,0,5.7-1.7,7.1-4.3
		C1099.8,425.2,1099.6,422,1097.9,419.6z M877.5,45.1c2.6-0.4,4.9-2,6-4.4l7.1-14.4l7.1,14.4c1.2,2.4,3.4,4,6,4.4l15.9,2.3
		l-11.5,11.2c-1.9,1.8-2.7,4.5-2.3,7.1l2.7,15.9l-14.2-7.5c-2.3-1.2-5.1-1.2-7.4,0l-14.2,7.5l2.7-15.9c0.4-2.6-0.4-5.2-2.3-7.1
		l-11.5-11.2L877.5,45.1z M936.5,496.2h-22.2v-16h-16v16H844l12.8-64h17.4v16h16v-16h33.4L936.5,496.2z M704.4,416.2l55.9-80h65.9
		v-16h-79.4l52.7-75.4c1.7-2.4,1.9-5.6,0.5-8.3c-1.4-2.6-4.1-4.3-7.1-4.3h-15.4l91.1-130.4l22-11.6l20.6,10.8l91.6,131.2h-64.7v16
		h45.1l50.3,72h-9.3c-3,0-5.7,1.7-7.1,4.3c-1.4,2.6-1.2,5.8,0.5,8.3l58.3,83.4H704.4z"/>
	<path d="M866.2,209.3v-9.1h-16v9.1c-13.8,3.6-24,16-24,30.9c0,17.6,14.4,32,32,32c17.6,0,32-14.4,32-32
		C890.2,225.3,880,212.9,866.2,209.3z M858.2,256.2c-8.8,0-16-7.2-16-16s7.2-16,16-16c8.8,0,16,7.2,16,16S867,256.2,858.2,256.2z"/>
	<path d="M962.2,305.3v-9.1h-16v9.1c-13.8,3.6-24,16-24,30.9c0,17.6,14.4,32,32,32s32-14.4,32-32C986.2,321.3,976,308.9,962.2,305.3
		z M954.2,352.2c-8.8,0-16-7.2-16-16s7.2-16,16-16c8.8,0,16,7.2,16,16S963,352.2,954.2,352.2z"/>
	<rect x="922.2" y="160.2" width="16" height="16"/>
	<rect x="906.2" y="192.2" width="16" height="16"/>
	<rect x="842.2" y="352.2" width="16" height="16"/>
	<rect x="810.2" y="368.2" width="16" height="16"/>
</g>
<g>
	<path class="st4" d="M1689.7,368.6c-27.7,0-50.2,22.5-50.2,50.2c0,27.7,22.5,50.2,50.2,50.2c27.7,0,50.2-22.5,50.2-50.2
		S1717.4,368.6,1689.7,368.6z M1689.7,435.6c-9.2,0-16.7-7.5-16.7-16.7s7.5-16.7,16.7-16.7s16.7,7.5,16.7,16.7
		S1698.9,435.6,1689.7,435.6z"/>
	<path class="st5" d="M1531.5,361.6c-3.2,3.2-4.9,7.4-4.9,11.8s1.7,8.7,4.9,11.8l1.1,1.2l18.4,18.4c19.6,19.7,19.6,51.5,0,71.1
		c-3.2,3.2-7.5,4.9-11.8,4.9c-2.2,0-4.5-0.4-6.6-1.5c-1.9-0.8-3.7-1.9-5.2-3.5c-6.5-6.6-6.5-17.2,0-23.8c6.6-6.5,6.6-17.1,0-23.7
		l-19.5-19.5c-9.5-9.5-14.7-22.1-14.7-35.6c0-13.4,5.2-26,14.7-35.5l19.5-19.7c6.6-6.5,6.6-17.1,0-23.7l-19.5-19.5
		c-9.5-9.5-14.7-22.1-14.7-35.6c0-13.4,5.2-26,14.7-35.5l19.5-19.7c6.6-6.5,6.6-17.1,0-23.7l-19.5-19.5
		c-9.5-9.5-14.7-22.1-14.7-35.6c0-13.4,5.2-26,14.7-35.5l24.8-24.8l1.3-1.5c5.1-5.1,6.4-12.8,3.2-19.3c-4.1-8.3-0.8-18.3,7.5-22.4
		c8.3-4.1,18.3-0.8,22.4,7.5c9.7,19.3,5.9,42.7-9.4,57.9l-26.2,26.2c-3.2,3.2-4.9,7.4-4.9,11.8c0,4.5,1.7,8.7,4.9,11.8l1.1,1.2
		l18.4,18.4c1.1,1.1,2.3,2.3,3.5,3.8c16.1,19.8,15,48.9-3.5,67.3l-19.5,19.5c-3.2,3.2-4.9,7.4-4.9,11.8s1.7,8.7,4.9,11.8l1.1,1.2
		l18.4,18.4c19.6,19.7,19.6,51.5,0,71.1l-18.4,18.4L1531.5,361.6z"/>
	<path class="st4" d="M1326.4,294.6l-19.6-19.6c-19.6-19.6-19.6-51.4,0-71.1l19.6-19.6c6.5-6.5,6.5-17.2,0-23.7l-19.6-19.6
		c-19.6-19.6-19.6-51.4,0-71.1l26.2-26.2c5.1-5.1,6.4-12.9,3.1-19.3c-4.1-8.3-0.8-18.3,7.5-22.5c8.3-4.1,18.3-0.8,22.5,7.5
		c9.7,19.4,5.9,42.7-9.4,58l-26.2,26.2c-6.6,6.6-6.5,17.1,0,23.7l19.6,19.6c19.6,19.6,19.6,51.5,0,71.1l-19.6,19.6
		c-6.6,6.6-6.5,17.1,0,23.7l19.6,19.6c6.5,6.5,6.5,17.1,0,23.7C1343.6,301.2,1333,301.2,1326.4,294.6z"/>
	<path class="st6" d="M1728.4,294.6l-19.6-19.6c-19.6-19.6-19.6-51.4,0-71.1l19.6-19.6c6.5-6.5,6.5-17.2,0-23.7l-19.6-19.6
		c-19.6-19.6-19.6-51.4,0-71.1l26.2-26.2c5.1-5.1,6.4-12.9,3.1-19.3c-4.1-8.3-0.8-18.3,7.5-22.5c8.3-4.1,18.3-0.8,22.5,7.5
		c9.7,19.4,5.9,42.7-9.4,58l-26.2,26.2c-6.6,6.6-6.5,17.1,0,23.7l19.6,19.6c19.6,19.6,19.6,51.5,0,71.1l-19.6,19.6
		c-6.6,6.6-6.5,17.1,0,23.7l19.6,19.6c6.5,6.5,6.5,17.1,0,23.7C1745.5,301.2,1734.9,301.2,1728.4,294.6z"/>
	<circle class="st5" cx="1404.9" cy="201.1" r="16.7"/>
	<circle class="st7" cx="1605.9" cy="268.1" r="16.7"/>
	<circle class="st4" cx="1438.4" cy="335.1" r="16.7"/>
	<circle class="st8" cx="1639.4" cy="134.1" r="16.7"/>
	<g>
		<circle class="st9" cx="1438.4" cy="67.2" r="16.7"/>
		<path class="st9" d="M1386.3,510.2l-31.6-16.6l-31.6,16.6c-12.2,6.4-26.6-4-24.3-17.7l6-35.2l-25.5-24.9
			c-9.9-9.7-4.4-26.6,9.3-28.6l35.3-5.1l15.8-32c6.2-12.5,23.9-12.4,30,0l15.8,32l35.3,5.1c13.7,2,19.2,18.9,9.3,28.6l-25.5,24.9
			l6,35.2C1412.9,506.2,1398.6,516.6,1386.3,510.2z"/>
	</g>
	<g>
		<path class="st7" d="M1551.1,342l-18.4,18.4v-108l18.4,18.4C1570.7,290.6,1570.7,322.4,1551.1,342z"/>
		<path class="st7" d="M1551.1,208.1l-18.4,18.4v-108l18.4,18.4c1.1,1.1,2.3,2.3,3.5,3.8C1570.6,160.5,1569.5,189.6,1551.1,208.1z"
			/>
		<path class="st7" d="M1557.8,67.4l-25.1,25.1V45.2l1.3-1.5c5.1-5.1,6.4-12.8,3.2-19.3c-4.1-8.3-0.8-18.3,7.5-22.4
			c8.3-4.1,18.3-0.8,22.4,7.5C1576.8,28.7,1573,52.1,1557.8,67.4z"/>
		<path class="st7" d="M1551.1,476c-3.2,3.2-7.5,4.9-11.8,4.9c-2.2,0-4.5-0.4-6.6-1.5v-93l18.4,18.4
			C1570.7,424.6,1570.7,456.4,1551.1,476z"/>
	</g>
</g>
<g>
	<path class="st10" d="M357.1,272.8c-4-4.7-10.6-4.7-14.6,0l-12.3,14.5c-4,4.7-2.2,8.6,4,8.6h31.4c6.2,0,8-3.9,4-8.6L357.1,272.8z"
		/>
	<path class="st11" d="M469.5,128.1C469.5,62,415.9,8.4,349.8,8.4S230.2,62,230.2,128.1c0,66.1,53.6,152.8,119.7,152.8
		S469.5,194.1,469.5,128.1z"/>
	<circle class="st12" cx="406.8" cy="84.3" r="33.9"/>
	<path class="st13" d="M214.4,306.2c-4-4.7-10.6-4.7-14.6,0l-12.3,14.5c-4,4.7-2.2,8.6,4,8.6h31.4c6.2,0,8-3.9,4-8.6L214.4,306.2z"
		/>
	<path class="st14" d="M326.8,161.5c0-66.1-53.6-119.7-119.7-119.7C141,41.8,87.4,95.4,87.4,161.5S141,314.3,207.1,314.3
		C273.2,314.3,326.8,227.6,326.8,161.5z"/>
	<circle class="st15" cx="264.1" cy="117.8" r="33.9"/>
	<path class="st16" d="M380.2,356.5c-4-4.7-10.6-4.7-14.6,0L353.3,371c-4,4.7-2.2,8.6,4,8.6h31.4c6.2,0,8-3.9,4-8.6L380.2,356.5z"/>
	<path class="st17" d="M492.6,211.7c0-66.1-53.6-119.7-119.7-119.7c-66.1,0-119.7,53.6-119.7,119.7c0,66.1,53.6,152.8,119.7,152.8
		C439,364.5,492.6,277.8,492.6,211.7z"/>
	<circle class="st18" cx="429.9" cy="168" r="33.9"/>
	<path class="st19" d="M477.4,138c0.2-3.4,0.4-6.7,0.4-9.9c0-70.5-57.4-127.9-127.9-127.9c-36.6,0-70.9,15.4-95.2,42.5
		c-14.8-5.9-30.9-9.1-47.5-9.1C136.6,33.6,79.2,91,79.2,161.5c0,34.7,13.7,74.3,36.6,106c18.4,25.5,40.4,42.7,63.5,50.4
		c-3.5,5.7-2.1,10.4-1.2,12.3c1,2.2,4.3,7.3,13.3,7.3h7.5v124.4h16.4V337.6h7.5c8.9,0,12.3-5.1,13.3-7.3c0.9-1.9,2.3-6.6-1.2-12.4
		c11.9-4,23.5-10.5,34.6-19.4c3.7,6.6,7.8,13.1,12.3,19.2c17.5,24.2,38.1,40.9,60,49.2v61.6h16.4v-40.7h6.7v124.4h16.4V387.8h7.5
		c8.9,0,12.3-5.1,13.3-7.3c0.9-1.9,2.3-6.6-1.2-12.3c23.2-7.7,45.1-25,63.5-50.4c22.9-31.7,36.6-71.3,36.6-106
		C500.8,184.3,492.1,158.8,477.4,138z M349.8,16.6c58.4,0,106.5,45.2,111.1,102.4c-22.9-21.8-53.9-35.2-88-35.2
		c-19.9,0-38.8,4.6-55.6,12.8c-11.6-19.7-27.9-35.6-47.1-46.5C291.1,28.7,319.6,16.6,349.8,16.6z M207.1,306.1
		c-16.1,0-47.6-6.3-78-48.2c-20.7-28.6-33.5-65.5-33.5-96.4C95.6,100,145.6,50,207.1,50c39.8,0,75.9,20.8,95.9,54.7
		c-34.9,22.9-58,62.3-58,107c0,23,6,48.1,16.7,71.7C244.4,298.2,225.6,306.1,207.1,306.1z M450.9,308.1
		c-30.3,41.9-61.9,48.2-78,48.2c-16.1,0-47.6-6.3-78-48.2c-20.7-28.6-33.5-65.5-33.5-96.4c0-61.5,50-111.5,111.5-111.5
		c61.5,0,111.5,50,111.5,111.5C484.4,242.6,471.5,279.5,450.9,308.1z"/>
</g>
</svg>
