<?xml version="1.0" encoding="utf-8"?>
<!-- Generator: Adobe Illustrator 22.0.1, SVG Export Plug-In . SVG Version: 6.00 Build 0)  -->
<svg version="1.1" id="Capa_1" xmlns="http://www.w3.org/2000/svg" xmlns:xlink="http://www.w3.org/1999/xlink" x="0px" y="0px"
	 viewBox="0 0 12 22" style="enable-background:new 0 0 12 22;" xml:space="preserve">
<g>
	<path d="M3.7,11l8.1-8.7C11.9,2.2,12,2,12,1.8c0-0.2-0.1-0.4-0.2-0.5l-1-1.1C10.6,0.1,10.5,0,10.3,0C10.1,0,10,0.1,9.8,0.2
		L0.2,10.5C0.1,10.6,0,10.8,0,11c0,0.2,0.1,0.4,0.2,0.5l9.6,10.3c0.1,0.1,0.3,0.2,0.5,0.2c0.2,0,0.3-0.1,0.5-0.2l1-1.1
		c0.1-0.1,0.2-0.3,0.2-0.5c0-0.2-0.1-0.4-0.2-0.5L3.7,11z"/>
</g>
</svg>
