<?xml version="1.0" encoding="utf-8"?>
<!-- Generator: Adobe Illustrator 22.0.1, SVG Export Plug-In . SVG Version: 6.00 Build 0)  -->
<svg version="1.1" id="Capa_1" xmlns="http://www.w3.org/2000/svg" xmlns:xlink="http://www.w3.org/1999/xlink" x="0px" y="0px"
	 viewBox="0 0 12 22" style="enable-background:new 0 0 12 22;" xml:space="preserve">
<g>
	<path d="M11.8,10.5L2.2,0.2C2,0.1,1.9,0,1.7,0C1.5,0,1.4,0.1,1.2,0.2l-1,1.1C0.1,1.5,0,1.6,0,1.8s0.1,0.4,0.2,0.5L8.3,11l-8.1,8.7
		C0.1,19.8,0,20,0,20.2c0,0.2,0.1,0.4,0.2,0.5l1,1.1C1.4,21.9,1.5,22,1.7,22c0.2,0,0.3-0.1,0.5-0.2l9.6-10.3
		c0.1-0.1,0.2-0.3,0.2-0.5S11.9,10.6,11.8,10.5z"/>
</g>
</svg>
