<?xml version="1.0" encoding="iso-8859-1"?>
<!-- Generator: Adobe Illustrator 19.0.0, SVG Export Plug-In . SVG Version: 6.00 Build 0)  -->
<svg version="1.1" id="Layer_1" xmlns="http://www.w3.org/2000/svg" xmlns:xlink="http://www.w3.org/1999/xlink" x="0px" y="0px"
	 viewBox="0 0 512 512" style="enable-background:new 0 0 512 512;" xml:space="preserve">
<path style="fill:#954927;" d="M0,86.243v17.861v17.861v270.404v32.264v1.128h215.887v-1.128v-32.264V121.964h262.722v303.795H512
	V121.964v-17.86V86.243H0z"/>
<polygon style="fill:#783C21;" points="107.943,86.243 512,86.243 512,104.104 512,121.964 512,425.759 478.609,425.759 
	478.609,121.964 215.887,121.964 215.887,425.759 107.943,425.759 "/>
<g>
	<rect x="33.391" y="222.821" style="fill:#C1DDDF;" width="149.103" height="68.63"/>
	<rect x="107.943" y="222.821" style="fill:#C1DDDF;" width="74.552" height="68.63"/>
</g>
<circle style="fill:#575759;" cx="107.943" cy="257.148" r="11.36"/>
<rect x="33.391" y="121.968" style="fill:#D7F6F8;" width="149.103" height="67.473"/>
<rect x="107.943" y="121.968" style="fill:#C1DDDF;" width="74.552" height="67.473"/>
<circle style="fill:#575759;" cx="107.943" cy="155.115" r="11.36"/>
<path style="fill:#474748;" d="M107.943,166.476c6.273,0,11.36-5.085,11.36-11.36c0-6.273-5.085-11.36-11.36-11.36V166.476z"/>
<rect x="33.391" y="324.898" style="fill:#D7F6F8;" width="149.103" height="67.473"/>
<rect x="107.943" y="324.898" style="fill:#C1DDDF;" width="74.552" height="67.473"/>
<circle style="fill:#575759;" cx="107.943" cy="359.214" r="11.36"/>
<g>
	<path style="fill:#474748;" d="M107.943,347.856c6.273,0,11.36,5.086,11.36,11.36c0,6.274-5.085,11.36-11.36,11.36V347.856z"/>
	<path style="fill:#474748;" d="M107.943,268.502c6.273,0,11.36-5.085,11.36-11.36c0-6.274-5.085-11.36-11.36-11.36V268.502z"/>
</g>
<rect y="86.24" style="fill:#69351D;" width="512" height="35.718"/>
<g>
</g>
<g>
</g>
<g>
</g>
<g>
</g>
<g>
</g>
<g>
</g>
<g>
</g>
<g>
</g>
<g>
</g>
<g>
</g>
<g>
</g>
<g>
</g>
<g>
</g>
<g>
</g>
<g>
</g>
</svg>
