<?xml version="1.0" encoding="iso-8859-1"?>
<!-- Generator: Adobe Illustrator 19.0.0, SVG Export Plug-In . SVG Version: 6.00 Build 0)  -->
<svg version="1.1" id="Layer_1" xmlns="http://www.w3.org/2000/svg" xmlns:xlink="http://www.w3.org/1999/xlink" x="0px" y="0px"
	 viewBox="0 0 512 512" style="enable-background:new 0 0 512 512;" xml:space="preserve">
<rect x="19.173" y="432.625" style="fill:#127481;" width="474.955" height="65.062"/>
<rect x="71.223" y="268.668" style="fill:#61ACD2;" width="123.618" height="163.957"/>
<rect x="194.836" y="203.606" style="fill:#F4A026;" width="123.618" height="229.019"/>
<polygon style="fill:#CA463D;" points="380.269,13.623 276.169,141.145 317.809,141.145 317.809,433.925 441.428,433.925 
	441.428,141.145 484.369,141.145 "/>
<path style="fill:#231F20;" d="M494.128,420.913H454.44V154.157h29.929c5.025,0,9.602-3.219,11.755-7.759
	c2.155-4.54,1.502-10.077-1.675-13.97L390.35,4.824C387.879,1.797,384.177,0,380.269,0c-3.908,0-7.61,1.736-10.081,4.764
	l-104.1,127.512c-3.176,3.893-3.83,9.588-1.675,14.128c2.154,4.54,6.73,7.754,11.755,7.754h28.627v37.736H194.841
	c-7.185,0-13.663,4.524-13.663,11.711v53.351H71.223c-7.185,0-13.663,4.524-13.663,11.711v152.246H19.173
	c-7.185,0-13.663,4.524-13.663,11.711v65.062c0,7.187,6.478,14.314,13.663,14.314h474.955c7.185,0,12.362-7.127,12.362-14.314
	v-65.062C506.49,425.437,501.315,420.913,494.128,420.913z M303.59,128.132l76.68-93.933l76.68,93.933H442.08
	c-7.185,0-13.663,5.175-13.663,12.362v280.419h-97.593V140.494c0-7.187-5.176-12.362-12.362-12.362
	C318.461,128.132,303.59,128.132,303.59,128.132z M207.203,217.918h97.593v202.994h-97.593V217.918z M83.585,282.981h97.593v137.932
	H83.585C83.585,420.913,83.585,282.981,83.585,282.981z M480.465,485.975H31.535v-39.037h448.93V485.975z"/>
<g>
</g>
<g>
</g>
<g>
</g>
<g>
</g>
<g>
</g>
<g>
</g>
<g>
</g>
<g>
</g>
<g>
</g>
<g>
</g>
<g>
</g>
<g>
</g>
<g>
</g>
<g>
</g>
<g>
</g>
</svg>
