<svg width="14" height="14" viewBox="0 0 14 14" fill="none" xmlns="http://www.w3.org/2000/svg">
<path d="M5.87587 1.36194C6.24701 0.634689 7.28616 0.63469 7.6573 1.36194L8.94973 3.89447C9.09503 4.17919 9.36769 4.37728 9.68337 4.42749L12.4913 4.87407C13.2977 5.00232 13.6188 5.99061 13.0418 6.56831L11.0326 8.58009C10.8067 8.80626 10.7026 9.12679 10.7524 9.44254L11.1954 12.2511C11.3226 13.0576 10.4819 13.6684 9.75418 13.2982L7.22 12.009C6.9351 11.8641 6.59807 11.8641 6.31316 12.009L3.77899 13.2982C3.05127 13.6684 2.21057 13.0576 2.33778 12.2511L2.78076 9.44254C2.83057 9.12679 2.72642 8.80626 2.50054 8.58009L0.491346 6.56832C-0.0856209 5.99061 0.235493 5.00232 1.04184 4.87407L3.84979 4.42749C4.16548 4.37728 4.43814 4.17918 4.58344 3.89446L5.87587 1.36194Z" fill="#DADADA"/>
</svg>
