<svg width="15" height="14" viewBox="0 0 15 14" fill="none" xmlns="http://www.w3.org/2000/svg">
<path d="M6.5291 0.745363C6.90024 0.0181115 7.93939 0.0181115 8.31053 0.745363L9.70322 3.47434C9.84852 3.75906 10.1212 3.95716 10.4369 4.00737L13.4626 4.48859C14.269 4.61684 14.5901 5.60512 14.0131 6.18283L11.8481 8.35066C11.6222 8.57683 11.5181 8.89737 11.5679 9.21311L12.0452 12.2395C12.1724 13.046 11.3317 13.6568 10.604 13.2866L7.87323 11.8974C7.58833 11.7525 7.2513 11.7525 6.96639 11.8974L4.23564 13.2866C3.50791 13.6568 2.66722 13.046 2.79443 12.2395L3.27178 9.21311C3.32158 8.89737 3.21743 8.57683 2.99155 8.35066L0.826501 6.18283C0.249534 5.60512 0.57065 4.61683 1.37699 4.48859L4.40277 4.00737C4.71845 3.95716 4.99111 3.75906 5.13641 3.47434L6.5291 0.745363Z" fill="#CCF0F4"/>
</svg>
