<svg width="15" height="14" viewBox="0 0 15 14" fill="none" xmlns="http://www.w3.org/2000/svg">
<path d="M6.49785 0.745363C6.86899 0.0181115 7.90814 0.0181115 8.27928 0.745363L9.67197 3.47434C9.81727 3.75906 10.0899 3.95716 10.4056 4.00737L13.4314 4.48859C14.2377 4.61684 14.5588 5.60512 13.9819 6.18283L11.8168 8.35066C11.5909 8.57683 11.4868 8.89737 11.5366 9.21311L12.0139 12.2395C12.1412 13.046 11.3005 13.6568 10.5727 13.2866L7.84198 11.8974C7.55708 11.7525 7.22005 11.7525 6.93514 11.8974L4.20439 13.2866C3.47666 13.6568 2.63597 13.046 2.76318 12.2395L3.24053 9.21311C3.29033 8.89737 3.18618 8.57683 2.9603 8.35066L0.795251 6.18283C0.218284 5.60512 0.5394 4.61683 1.34574 4.48859L4.37152 4.00737C4.6872 3.95716 4.95986 3.75906 5.10516 3.47434L6.49785 0.745363Z" fill="#FFC100"/>
</svg>
