<?xml version="1.0" encoding="utf-8"?>
<!-- Generator: Adobe Illustrator 17.0.0, SVG Export Plug-In . SVG Version: 6.00 Build 0)  -->
<!DOCTYPE svg PUBLIC "-//W3C//DTD SVG 1.1//EN" "http://www.w3.org/Graphics/SVG/1.1/DTD/svg11.dtd">
<svg version="1.1" id="Слой_1" xmlns:sketch="http://www.bohemiancoding.com/sketch/ns"
	 xmlns="http://www.w3.org/2000/svg" xmlns:xlink="http://www.w3.org/1999/xlink" x="0px" y="0px" width="130px" height="100px"
	 viewBox="0 0 130 100" enable-background="new 0 0 130 100" xml:space="preserve">
<title>feather</title>
<desc>Created with Sketch Beta.</desc>
<g id="Page-1" sketch:type="MSPage">
	<g id="feather" sketch:type="MSArtboardGroup">
		<path sketch:type="MSShapeGroup" stroke="#FFFFFF" stroke-width="1.5" d="M30.295,81.009l-7.411,7.411
			c-0.746,0.746-0.746,1.956,0,2.702c0.746,0.746,1.956,0.746,2.702,0l7.411-7.411l2.667,2.516c0.419,0.395,0.995,0.581,1.567,0.503
			l20.842-2.828c0.895-0.121,1.583-0.854,1.648-1.755l0.601-8.248l6.068,1.082c0.614,0.11,1.245-0.088,1.686-0.53l33.049-33.049
			c0.296-0.296,0.486-0.681,0.542-1.097l4.005-29.824c0.01-0.071-0.006-0.14-0.005-0.212c0.003-0.109,0.008-0.215-0.007-0.324
			c-0.015-0.102-0.05-0.195-0.08-0.291c-0.022-0.07-0.028-0.143-0.059-0.212c-0.077-0.143-0.14-0.224-0.2-0.308
			c-0.053-0.075-0.1-0.152-0.163-0.217c-0.062-0.066-0.137-0.117-0.209-0.175c-0.085-0.067-0.166-0.131-0.259-0.184
			c-0.118-0.073-0.177-0.077-0.234-0.099c-0.103-0.04-0.204-0.077-0.313-0.097c-0.092-0.018-0.182-0.022-0.274-0.025
			c-0.068-0.004-0.132-0.023-0.202-0.018L84.565,9.458c-0.729,0.044-1.369,0.499-1.65,1.173l-2.899,6.958l-4.71-4.71
			c-0.746-0.746-1.956-0.746-2.702,0L44.115,41.368c-0.343,0.343-0.542,0.803-0.558,1.288l-0.283,8.522l-11.773,3.165
			c-0.743,0.199-1.294,0.826-1.397,1.588l-2.828,20.842c-0.078,0.574,0.106,1.151,0.503,1.569L30.295,81.009z M58.906,69.767
			c-0.533-0.095-1.081,0.041-1.508,0.373c-0.428,0.332-0.694,0.83-0.732,1.37l-0.642,8.815l-18.403,2.497l-1.922-1.812l0.952-0.952
			l64.481-64.481l-3.167,23.582L66.077,71.046L58.906,69.767z M47.045,52.721l0.304-9.183l26.605-26.604l5.376,5.376
			c0.45,0.45,1.097,0.647,1.721,0.523c0.625-0.124,1.147-0.551,1.393-1.139l3.538-8.49l12.888-0.768L55.415,55.891l-0.939-7.606
			c-0.131-1.049-1.084-1.792-2.13-1.662c-1.047,0.129-1.792,1.083-1.662,2.13l1.305,10.566l-10.7,10.7l-0.94-7.605
			c-0.131-1.049-1.084-1.792-2.13-1.662c-1.047,0.129-1.792,1.083-1.662,2.13l1.306,10.565l-3.912,3.912l-0.952,0.952l-1.813-1.923
			l2.535-18.678l11.911-3.206C46.443,54.285,47.017,53.562,47.045,52.721z"/>
	</g>
</g>
</svg>
