<svg width="23" height="28" viewBox="0 0 23 28" fill="none" xmlns="http://www.w3.org/2000/svg">
<path d="M11.4357 0.000637651C9.26229 0.0023402 7.1343 0.633222 5.30063 1.81949C3.46697 3.00575 2.00345 4.69835 1.08127 6.69929C0.159093 8.70023 -0.183615 10.9268 0.0932348 13.1185C0.370085 15.3102 1.25505 17.3764 2.6446 19.0755H2.57759L10.8997 27.8636C11.0193 27.9549 11.1655 28.0029 11.3151 27.9999C11.4501 27.9903 11.5799 27.9432 11.6903 27.8636L19.1815 20.2609H19.2485L19.9052 19.5933C21.4386 17.9301 22.4577 15.8455 22.836 13.5985C23.2142 11.3515 22.9349 9.04103 22.0327 6.95402C21.1306 4.86701 19.6453 3.09541 17.7614 1.85924C15.8774 0.623063 13.6778 -0.0232235 11.4357 0.000637651ZM11.4357 14.2114C10.7513 14.2114 10.0823 14.0049 9.51344 13.6181C8.94458 13.2312 8.50144 12.6814 8.24015 12.0383C7.97886 11.3951 7.91117 10.6877 8.04567 10.0054C8.18017 9.32314 8.51079 8.69681 8.99567 8.20574C9.48055 7.71467 10.0979 7.38096 10.7694 7.24687C11.441 7.11277 12.1366 7.18433 12.7681 7.45248C13.3997 7.72063 13.9387 8.17331 14.317 8.75318C14.6953 9.33304 14.8958 10.014 14.8932 10.7098C14.8932 11.1708 14.8036 11.6273 14.6297 12.053C14.4558 12.4787 14.2009 12.8653 13.8797 13.1907C13.5585 13.516 13.1772 13.7736 12.7578 13.9488C12.3384 14.124 11.8891 14.2132 11.4357 14.2114Z" fill="#C251C0"/>
</svg>
