<svg width="24" height="25" viewBox="0 0 24 25" fill="none" xmlns="http://www.w3.org/2000/svg">
<path d="M17.3553 1.07383e-05C16.4456 -0.00156468 15.5445 0.170222 14.7036 0.505541C13.8627 0.84086 13.0985 1.33313 12.4547 1.95418C11.8109 2.57523 11.3001 3.31286 10.9516 4.12488C10.6031 4.9369 10.4237 5.80735 10.4237 6.68644C10.4202 7.76828 10.6928 8.83427 11.2173 9.78999L0.640215 20.0114C0.229132 20.4102 -0.00115835 20.9505 4.3816e-06 21.5134C0.00116711 22.0764 0.233688 22.6158 0.646415 23.0131C1.05914 23.4103 1.61827 23.6329 2.20079 23.6317C2.78331 23.6306 3.34151 23.4059 3.75259 23.0071L4.36019 22.4199L6.71617 24.6966C6.94325 24.892 7.23671 25 7.54076 25C7.84482 25 8.13828 24.892 8.36536 24.6966L12.0853 21.1018C12.291 20.8816 12.4048 20.5955 12.4048 20.2989C12.4048 20.0023 12.291 19.7163 12.0853 19.4961L9.75415 17.2194L14.4041 12.7258C15.3254 13.1655 16.3402 13.3912 17.3677 13.3848C19.1537 13.3103 20.8407 12.5718 22.0766 11.3236C23.3125 10.0755 24.0016 8.41418 24 6.68669C23.9984 4.95919 23.3062 3.29908 22.068 2.05307C20.8298 0.807057 19.1414 0.0714983 17.3553 1.07383e-05ZM17.3553 9.2987C16.8201 9.30107 16.2963 9.14988 15.8501 8.86429C15.404 8.5787 15.0556 8.17155 14.8491 7.69444C14.6426 7.21732 14.5873 6.69171 14.6902 6.1842C14.793 5.67668 15.0495 5.2101 15.4271 4.84357C15.8046 4.47704 16.2862 4.22705 16.811 4.12528C17.3357 4.02351 17.8798 4.07454 18.3745 4.2719C18.8691 4.46926 19.292 4.80407 19.5896 5.23391C19.8872 5.66374 20.0461 6.16927 20.0461 6.68644C20.0428 7.37622 19.7587 8.03704 19.2551 8.52591C18.7516 9.01479 18.0691 9.2924 17.3553 9.2987Z" fill="#C251C0"/>
</svg>
