<?xml version="1.0" encoding="utf-8"?>
<!-- Generator: Adobe Illustrator 17.1.0, SVG Export Plug-In . SVG Version: 6.00 Build 0)  -->
<!DOCTYPE svg PUBLIC "-//W3C//DTD SVG 1.1//EN" "http://www.w3.org/Graphics/SVG/1.1/DTD/svg11.dtd">
<svg version="1.1" id="Capa_1" xmlns="http://www.w3.org/2000/svg" xmlns:xlink="http://www.w3.org/1999/xlink" x="0px" y="0px"
	 viewBox="135 0 30 30" enable-background="new 135 0 30 30" xml:space="preserve">
<g>
	<g>
		<path fill="#3DAFC4" d="M163.2,19.5V2.6c0-1.5-1.2-2.6-2.6-2.6h-19.4c-1.5,0-2.6,1.2-2.6,2.6v0.9h-0.9c-1.5,0-2.6,1.2-2.6,2.6
			s1.2,2.6,2.6,2.6h0.9v3.5h-0.9c-1.5,0-2.6,1.2-2.6,2.6s1.2,2.6,2.6,2.6h0.9v3.5h-0.9c-1.5,0-2.6,1.2-2.6,2.6s1.2,2.6,2.6,2.6h0.9
			v0.9c0,0.7,0.3,1.4,0.8,1.9c0.5,0.5,1.2,0.8,1.9,0.8h17.6c3.4,0,6.2-2.8,6.2-6.2C165,22.1,164.3,20.6,163.2,19.5z M137.6,7.1
			c-0.5,0-0.9-0.4-0.9-0.9s0.4-0.9,0.9-0.9h1.8c0.5,0,0.9,0.4,0.9,0.9s-0.4,0.9-0.9,0.9H137.6z M137.6,15.9c-0.5,0-0.9-0.4-0.9-0.9
			s0.4-0.9,0.9-0.9h1.8c0.5,0,0.9,0.4,0.9,0.9s-0.4,0.9-0.9,0.9H137.6z M139.5,24.7h-1.8c-0.5,0-0.9-0.4-0.9-0.9s0.4-0.9,0.9-0.9
			h1.8c0.5,0,0.9,0.4,0.9,0.9S139.9,24.7,139.5,24.7z M141.2,28.2c-0.5,0-0.9-0.4-0.9-0.9v-1c1-0.4,1.8-1.3,1.8-2.5
			c0-1.1-0.7-2.1-1.8-2.5v-3.8c1-0.4,1.8-1.3,1.8-2.5s-0.7-2.1-1.8-2.5V8.7c1-0.4,1.8-1.3,1.8-2.5s-0.7-2.1-1.8-2.5V2.6
			c0-0.5,0.4-0.9,0.9-0.9h19.4c0.5,0,0.9,0.4,0.9,0.9v15.6c-0.8-0.4-1.7-0.6-2.6-0.6c-3.4,0-6.2,2.8-6.2,6.2c0,1.7,0.7,3.3,1.9,4.5
			H141.2z M158.8,28.2c-2.4,0-4.4-2-4.4-4.5c0-2.4,2-4.4,4.4-4.4s4.4,2,4.4,4.4C163.2,26.2,161.3,28.2,158.8,28.2z"/>
	</g>
</g>
<g>
	<g>
		<path fill="#3DAFC4" d="M158.8,7.1h-5.3c-0.5,0-0.9,0.4-0.9,0.9s0.4,0.9,0.9,0.9h5.3c0.5,0,0.9-0.4,0.9-0.9S159.3,7.1,158.8,7.1z"
			/>
	</g>
</g>
<g>
	<g>
		<path fill="#3DAFC4" d="M158.8,14.1h-5.3c-0.5,0-0.9,0.4-0.9,0.9s0.4,0.9,0.9,0.9h5.3c0.5,0,0.9-0.4,0.9-0.9
			S159.3,14.1,158.8,14.1z"/>
	</g>
</g>
<g>
	<g>
		<path fill="#3DAFC4" d="M160.6,22.9h-0.9V22c0-0.5-0.4-0.9-0.9-0.9S158,21.5,158,22v1.8c0,0.5,0.4,0.9,0.9,0.9h1.8
			c0.5,0,0.9-0.4,0.9-0.9S161.1,22.9,160.6,22.9z"/>
	</g>
</g>
<g>
	<g>
		<path fill="#3DAFC4" d="M150.6,5.6c-0.3-0.3-0.9-0.3-1.2,0l-2.9,2.9l-1.4-1.4c-0.3-0.3-0.9-0.3-1.2,0s-0.3,0.9,0,1.2l2,2
			c0.2,0.2,0.4,0.3,0.6,0.3s0.4-0.1,0.6-0.3l3.5-3.5C151,6.5,151,5.9,150.6,5.6z"/>
	</g>
</g>
<g>
	<g>
		<path fill="#3DAFC4" d="M150.6,12.6c-0.3-0.3-0.9-0.3-1.2,0l-2.9,2.9l-1.4-1.4c-0.3-0.3-0.9-0.3-1.2,0c-0.3,0.3-0.3,0.9,0,1.2l2,2
			c0.2,0.2,0.4,0.3,0.6,0.3s0.4-0.1,0.6-0.3l3.5-3.5C151,13.5,151,13,150.6,12.6z"/>
	</g>
</g>
<g>
	<g>
		<path fill="#3DAFC4" d="M150.6,19.7c-0.3-0.3-0.9-0.3-1.2,0l-2.9,2.9l-1.4-1.4c-0.3-0.3-0.9-0.3-1.2,0c-0.3,0.3-0.3,0.9,0,1.2l2,2
			c0.2,0.2,0.4,0.3,0.6,0.3s0.4-0.1,0.6-0.3l3.5-3.5C151,20.6,151,20,150.6,19.7z"/>
	</g>
</g>
</svg>
