<?xml version="1.0" encoding="utf-8"?>
<!-- Generator: Adobe Illustrator 22.0.1, SVG Export Plug-In . SVG Version: 6.00 Build 0)  -->
<svg version="1.1" id="Capa_1" xmlns="http://www.w3.org/2000/svg" xmlns:xlink="http://www.w3.org/1999/xlink" x="0px" y="0px"
	 viewBox="0 0 512 512" style="enable-background:new 0 0 512 512;" xml:space="preserve">
<style type="text/css">
	.st0{fill:#FFAB00;}
</style>
<path class="st0" d="M462.9,471.3h-63.4c-3.7,0-6.8-3-6.8-6.8v-29.4H119.2v29.4c0,3.7-3,6.8-6.8,6.8H49.1c-3.7,0-6.8-3-6.8-6.8V435
	C18.7,433.5,0,413.9,0,389.9V86C0,61,20.3,40.7,45.2,40.7h421.5C491.7,40.7,512,61,512,86v303.9c0,24-18.7,43.6-42.3,45.1v29.5
	C469.7,468.3,466.7,471.3,462.9,471.3z M406.3,457.8h49.9v-22.6h-49.9L406.3,457.8L406.3,457.8z M55.8,457.8h49.9v-22.6H55.8V457.8z
	 M462.9,421.6h3.8c17.5,0,31.7-14.2,31.7-31.7V86c0-17.5-14.2-31.7-31.7-31.7H45.2c-17.5,0-31.7,14.2-31.7,31.7v303.9
	c0,17.5,14.2,31.7,31.7,31.7H462.9z M438.8,396H73.2c-17,0-30.8-13.8-30.8-30.8V110.7c0-17,13.8-30.8,30.8-30.8h365.7
	c17,0,30.8,13.8,30.8,30.8v254.5C469.7,382.2,455.8,396,438.8,396z M73.2,93.4c-9.6,0-17.3,7.8-17.3,17.3v254.5
	c0,9.6,7.8,17.3,17.3,17.3h365.7c9.6,0,17.3-7.8,17.3-17.3V110.7c0-9.6-7.8-17.3-17.3-17.3H73.2z M171.4,311.9c-3.7,0-6.8-3-6.8-6.8
	v-8.9c-11.8-1.4-22.5-6.2-31.1-13.5l-7.3,7.3c-2.6,2.6-6.9,2.6-9.5,0c-2.6-2.6-2.6-6.9,0-9.6l7.6-7.6c-6-8-10-17.7-11.2-28.1h-8.7
	c-3.7,0-6.8-3-6.8-6.8s3-6.8,6.8-6.8h8.7c1.2-10.9,5.5-21,11.9-29.3l-6.5-6.5c-2.6-2.6-2.6-6.9,0-9.5c2.6-2.6,6.9-2.6,9.5,0l6.4,6.4
	c8.4-6.9,18.8-11.4,30.2-12.7v-8.7c0-3.7,3-6.8,6.8-6.8s6.8,3,6.8,6.8v8.7c11.8,1.4,22.6,6.2,31.2,13.6l7.2-7.2
	c2.6-2.6,6.9-2.6,9.5,0c2.6,2.6,2.6,6.9,0,9.5l-7.5,7.5c6,8,9.9,17.7,11.1,28.1h8.7c3.7,0,6.8,3,6.8,6.8c0,3.7-3,6.8-6.8,6.8h-8.7
	c-1.2,10.7-5.3,20.5-11.5,28.7l7.2,7.2c2.6,2.6,2.6,6.9,0,9.5c-2.6,2.6-6.9,2.6-9.5,0l-7-7c-8.5,7.1-19.1,11.8-30.7,13.1v8.9
	C178.2,308.8,175.1,311.9,171.4,311.9z M171.4,192.7c-24.9,0-45.2,20.3-45.2,45.2s20.3,45.2,45.2,45.2s45.2-20.3,45.2-45.2
	C216.6,213,196.3,192.7,171.4,192.7z M171.4,266.5c-15.8,0-28.6-12.8-28.6-28.6s12.8-28.6,28.6-28.6s28.6,12.8,28.6,28.6
	S187.2,266.5,171.4,266.5z M171.4,222.9c-8.3,0-15.1,6.8-15.1,15.1s6.8,15.1,15.1,15.1c8.3,0,15.1-6.8,15.1-15.1
	S179.7,222.9,171.4,222.9z M406.9,263.1H290.2c-3.7,0-6.8-3-6.8-6.8v-36.9c0-3.7,3-6.8,6.8-6.8h116.7c3.7,0,6.8,3,6.8,6.8v36.9
	C413.6,260.1,410.6,263.1,406.9,263.1z M297,249.6h103.2v-23.4H297V249.6z"/>
</svg>
