<svg xmlns="http://www.w3.org/2000/svg" viewBox="134.3 -0.9 31.5 30.9"><g fill="none" stroke="#000"><ellipse cx="145.6" cy="10.6" rx="9.9" ry="9.5"/><path d="M152.2 2.1v-1h3.4v19h-3.4V19m0-13.8v10.9m9.6-15l-6.2 11.8m9 7.2l-7.8-9.5"/></g><path d="M144.3 27.2c.2 0 .3.1.3.3s-.2.3-.3.3-.3-.1-.3-.3.1-.3.3-.3zm.8.3c0-.9.8-1.5 1.8-1.5s1.8.6 1.8 1.5-.8 1.5-1.8 1.5-1.8-.6-1.8-1.5zm.4 0c0 .7.6 1.2 1.4 1.2.8 0 1.4-.5 1.4-1.2s-.6-1.2-1.4-1.2c-.8 0-1.4.5-1.4 1.2zm4.3-.2l1.5-1.3h.5l-1.6 1.4 1.7 1.6h-.5l-1.4-1.4-.1.1V29h-.4v-3h.4v1.3zm2.7-.1c.2 0 .3.1.3.3s-.2.3-.3.3-.3-.1-.3-.3.1-.3.3-.3zm1.4 0h1.8V26h.4v3h-.4v-1.4h-1.8V29h-.4v-3h.4v1.2zm5 1h-1.5l-.4.8h-.4l1.6-3.1 1.6 3.1h-.4l-.5-.8zm-.2-.3l-.6-1.2-.6 1.2h1.2zm1.9-1.9v2.7h1v.3h-1.4v-3h.4zm1.9 0v2.7h1v.3h-1.4v-3h.4zm1.6 1.2c.2 0 .3.1.3.3s-.2.3-.3.3c-.2 0-.3-.1-.3-.3s.1-.3.3-.3z"/></svg>