<svg id="Layer_1" enable-background="new 0 0 128 128" height="512" viewBox="0 0 128 128" width="512" xmlns="http://www.w3.org/2000/svg"><path d="m119.554 55.398h-3.3-3.188c.225-.357.432-.727.611-1.117 1.345-2.924 1.141-6.304-.546-9.042-1.549-2.517-4.12-4.158-7.055-4.502-2.938-.345-5.816.658-7.905 2.746l-2.498 2.498c-.027-1.551-.561-3.059-1.558-4.3-1.352-1.684-3.366-2.649-5.525-2.649s-4.172.965-5.524 2.649c-.996 1.241-1.53 2.75-1.558 4.3l-1.878-1.878v-.553c0-1.796-1.461-3.258-3.258-3.258h-9.188c.958-.861 1.755-1.908 2.311-3.117 1.345-2.923 1.14-6.304-.547-9.042-1.549-2.517-4.12-4.158-7.055-4.502-2.938-.346-5.817.658-7.905 2.746l-3.563 3.563c.256-1.916-.268-3.842-1.492-5.366-1.352-1.684-3.366-2.649-5.524-2.649s-4.172.965-5.525 2.649c-1.224 1.525-1.747 3.451-1.492 5.366l-3.563-3.563c-2.09-2.091-4.973-3.09-7.906-2.746-2.934.344-5.504 1.985-7.054 4.5-1.687 2.74-1.892 6.121-.547 9.044.556 1.209 1.354 2.255 2.311 3.117h-9.188c-1.797 0-3.258 1.461-3.258 3.258v13.222c0 1.797 1.461 3.258 3.258 3.258h4.3v44.362c0 3.129 2.546 5.675 5.675 5.675h15.605 14.768 14.655c.052.001.102.008.154.008h45.978c3.129 0 5.675-2.545 5.675-5.674v-29.265h2.3c2.899 0 5.258-2.359 5.258-5.259v-9.221c-.001-2.899-2.359-5.258-5.259-5.258zm-77.642-26.055c-.101-.457.009-.927.301-1.292.293-.364.729-.573 1.196-.573s.903.209 1.195.573c.292.365.403.835.302 1.292l-.889 4.019c-.197-.038-.4-.061-.608-.061s-.411.024-.608.061zm16.13 8.348c-2.191.346-4.4.429-6.601.278-.208-.056-.423-.096-.648-.096h-.449l7.57-7.57c1.178-1.178 2.895-1.507 4.48-.858.541.222 1.033.583 1.423 1.044 1.048 1.239 1.299 2.84.671 4.283-.548 1.26-1.819 2.19-3.318 2.426zm-22.017.183c-.226 0-.44.04-.648.096-2.2.15-4.409.068-6.601-.278l-3.365-.531c-1.66-.261-2.904-1.426-3.329-3.115-.145-.578-.146-1.184-.005-1.752.424-1.712 1.795-2.947 3.493-3.146.162-.019.322-.028.482-.028 1.074 0 2.086.421 2.852 1.185l7.57 7.571h-.449zm51.069 8.575c-.101-.457.009-.928.301-1.292s.728-.573 1.195-.573.903.209 1.195.572c.293.365.403.836.302 1.292l-.767 3.467c-.236-.055-.478-.091-.73-.091s-.495.036-.73.091zm21.576 5.428c-.548 1.26-1.819 2.189-3.318 2.426l-3.128.494c-2.56.403-5.145.47-7.712.197l7.584-7.585c1.179-1.178 2.894-1.507 4.479-.858.541.222 1.033.583 1.423 1.044 1.049 1.238 1.3 2.84.672 4.282zm-29.039 3.266v-3.188l3.039 3.039c-1.011.107-2.025.147-3.039.149z" fill="#e6e7e8"/><path d="m44.154 21.2c-1.161-1.446-2.891-2.275-4.745-2.275s-3.584.829-4.745 2.275c-1.161 1.447-1.598 3.314-1.197 5.125l.597 2.702 3.154 3.154c.092-.586.409-1.093.865-1.433l-1.148-5.19c-.167-.754.015-1.532.498-2.134.484-.602 1.203-.947 1.975-.947s1.492.345 1.975.947.665 1.38.498 2.134l-1.148 5.19c.455.34.773.847.865 1.433l3.154-3.154.597-2.702c.403-1.811-.034-3.678-1.195-5.125z" fill="#6dc9f7"/><path d="m64.097 24.657c-1.387-2.254-3.69-3.724-6.319-4.033-2.626-.306-5.21.588-7.082 2.46l-9.097 9.097c.018.113.035.227.035.345v2.348h4.651c-.695-.072-1.39-.154-2.08-.275l9.003-9.003c1.433-1.433 3.575-1.892 5.566-1.076.697.286 1.321.748 1.808 1.323 1.312 1.551 1.6 3.545.825 5.327-.714 1.643-2.309 2.736-4.079 3.015l-3.129.494c-2.297.362-4.623.442-6.936.277.601.198 1.038.758 1.038 1.425v.912h11.234c2.217-.751 4.055-2.366 5.053-4.535 1.203-2.619 1.02-5.647-.491-8.101z" fill="#6dc9f7"/><path d="m30.518 36.381c0-.668.437-1.227 1.038-1.425-2.313.166-4.639.086-6.936-.277l-3.364-.531c-2.031-.32-3.616-1.762-4.143-3.86-.183-.73-.188-1.506-.006-2.236.539-2.176 2.27-3.655 4.347-3.899.2-.023.4-.035.598-.035 1.331 0 2.602.522 3.558 1.478l9.003 9.003c-.69.12-1.385.202-2.08.275h4.651v-2.348c0-.118.017-.232.035-.345l-9.097-9.097c-1.872-1.872-4.453-2.77-7.082-2.46-2.629.309-4.932 1.779-6.319 4.032-1.511 2.454-1.694 5.483-.49 8.101.998 2.169 2.835 3.784 5.053 4.535h11.234z" fill="#6dc9f7"/><path d="m11.746 55.03v45.362c0 2.582 2.093 4.675 4.675 4.675h45.977c2.582 0 4.675-2.093 4.675-4.675v-45.362z" fill="#fa759e"/><path d="m72.373 37.292h-65.927c-1.247 0-2.258 1.011-2.258 2.258v13.222c0 1.247 1.011 2.258 2.258 2.258h65.927c1.247 0 2.258-1.011 2.258-2.258v-13.222c0-1.247-1.011-2.258-2.258-2.258z" fill="#fa759e"/><path d="m41.634 34.874v-2.348c0-1.229-.996-2.225-2.225-2.225s-2.225.996-2.225 2.225v2.348z" fill="#6dc9f7"/><path d="m46.793 34.874h-14.767c-.832 0-1.507.675-1.507 1.507v67.179c0 .832.675 1.507 1.507 1.507h14.767c.832 0 1.507-.675 1.507-1.507v-67.179c0-.833-.675-1.507-1.507-1.507z" fill="#6dc9f7"/><path d="m33.518 103.56v-67.179c0-.832.675-1.507 1.507-1.507h-3c-.832 0-1.507.675-1.507 1.507v67.179c0 .832.675 1.507 1.507 1.507h3c-.832 0-1.507-.675-1.507-1.507z" fill="#fff"/><path d="m89.336 38.306c-1.161-1.446-2.891-2.275-4.745-2.275s-3.584.829-4.745 2.275c-1.161 1.447-1.598 3.314-1.197 5.125l.314 1.418 3.52 3.521c.128-.398.362-.743.673-1.008l-1.039-4.697c-.167-.754.015-1.532.498-2.134.484-.602 1.203-.947 1.975-.947s1.492.345 1.975.947.665 1.38.498 2.134l-1.039 4.697c.311.265.545.61.673 1.008l3.52-3.521.314-1.418c.402-1.811-.034-3.678-1.195-5.125z" fill="#d4fbff"/><path d="m108.279 41.763c-1.387-2.254-3.69-3.724-6.319-4.033-2.626-.306-5.21.588-7.082 2.46l-8.179 8.179c.07.216.117.441.117.68v3.349h20.17c.731-.72 1.34-1.573 1.783-2.535 1.204-2.618 1.021-5.646-.49-8.1zm-2.692 6.513c-.714 1.643-2.309 2.736-4.079 3.015l-3.129.494c-3.313.523-6.689.496-9.993-.08l9.003-9.003c1.433-1.433 3.575-1.892 5.566-1.076.697.286 1.321.748 1.808 1.323 1.312 1.551 1.599 3.545.824 5.327z" fill="#d4fbff"/><path d="m82.483 48.369-8.179-8.179c-1.872-1.872-4.453-2.77-7.082-2.46-2.629.309-4.932 1.779-6.319 4.032-1.511 2.454-1.694 5.483-.49 8.101.443.962 1.051 1.815 1.783 2.535h20.17v-3.348c0-.239.047-.465.117-.681zm-11.681 3.416-3.364-.531c-2.031-.32-3.616-1.762-4.143-3.86-.183-.73-.188-1.506-.006-2.236.539-2.176 2.27-3.655 4.347-3.899.2-.023.4-.035.598-.035 1.331 0 2.602.522 3.558 1.478l9.003 9.003c-3.304.575-6.68.602-9.993.08z" fill="#d4fbff"/><path d="m56.928 70.136v30.264c0 2.582 2.093 4.675 4.675 4.675h45.977c2.582 0 4.675-2.093 4.675-4.675v-30.264z" fill="#0089ef"/><g fill="#6dc9f7"><path d="m63.173 70.136h4.538v34.939h-4.538z"/><path d="m72.748 70.136h4.538v34.939h-4.538z"/><path d="m82.322 70.136h4.538v34.939h-4.538z"/><path d="m91.897 70.136h4.538v34.939h-4.538z"/><path d="m101.472 70.136h4.538v34.939h-4.538z"/></g><path d="m86.816 52.398v-3.348c0-1.229-.996-2.225-2.225-2.225s-2.225.996-2.225 2.225v3.349h4.45z" fill="#d4fbff"/><path d="m115.554 52.398h-61.926c-2.352 0-4.258 1.906-4.258 4.258v9.221c0 2.352 1.906 4.258 4.258 4.258h61.927c2.352 0 4.258-1.906 4.258-4.258v-9.221c0-2.351-1.907-4.258-4.259-4.258z" fill="#0089ef"/><path d="m30.519 72.179c.552 0 1-.447 1-1v-4.871c0-.553-.448-1-1-1s-1 .447-1 1v4.871c0 .553.447 1 1 1z" fill="#3a2c60"/><path d="m115.554 51.398h-6.488c.227-.355.432-.727.611-1.117 1.345-2.924 1.141-6.304-.546-9.042-1.549-2.517-4.12-4.158-7.055-4.502-2.938-.345-5.816.658-7.905 2.746l-2.498 2.498c-.026-1.551-.561-3.059-1.557-4.301-1.352-1.684-3.366-2.649-5.525-2.649s-4.172.965-5.524 2.649c-.997 1.242-1.531 2.75-1.557 4.301l-1.878-1.878v-.553c0-1.796-1.461-3.258-3.258-3.258h-9.205c.964-.859 1.77-1.904 2.328-3.117 1.345-2.923 1.14-6.304-.547-9.042-1.549-2.517-4.12-4.158-7.055-4.502-2.938-.346-5.817.658-7.905 2.746l-3.563 3.564c.256-1.916-.268-3.842-1.492-5.366-1.352-1.684-3.366-2.649-5.524-2.649s-4.172.965-5.525 2.649c-1.224 1.525-1.747 3.451-1.492 5.366l-3.563-3.563c-2.09-2.091-4.973-3.09-7.906-2.746-2.934.344-5.504 1.985-7.054 4.5-1.687 2.74-1.892 6.121-.547 9.044.558 1.213 1.364 2.257 2.328 3.117h-9.206c-1.797 0-3.258 1.461-3.258 3.258v13.222c0 1.797 1.461 3.258 3.258 3.258h4.3v44.362c0 3.129 2.546 5.675 5.675 5.675h15.605 14.768 14.655c.052.001.102.008.154.008h45.978c3.129 0 5.675-2.545 5.675-5.674v-29.266h2.3c2.899 0 5.258-2.359 5.258-5.259v-9.221c-.002-2.899-2.36-5.258-5.26-5.258zm-19.969-10.501c1.44-1.439 3.356-2.226 5.362-2.226.297 0 .596.017.896.052 2.323.272 4.358 1.572 5.584 3.564 1.335 2.168 1.497 4.844.432 7.158-.336.73-.791 1.379-1.32 1.953h-2.476c1.081-.652 1.95-1.595 2.441-2.723.938-2.157.572-4.539-.978-6.372-.597-.706-1.354-1.26-2.192-1.603-2.343-.961-4.893-.464-6.652 1.294l-8.867 8.867v-1.811c0-.119-.023-.232-.035-.348zm-48.144-6.928c-.208-.056-.423-.096-.648-.096h-.449l7.57-7.57c1.178-1.178 2.895-1.507 4.48-.858.541.222 1.033.583 1.423 1.044 1.048 1.239 1.299 2.84.671 4.283-.548 1.26-1.819 2.19-3.318 2.426l-3.129.494c-2.19.345-4.399.428-6.6.277zm1.859 4.323h13.594c-1.13.756-2.105 1.747-2.842 2.945-1.687 2.74-1.891 6.121-.546 9.044.179.389.384.761.611 1.117h-6.488c-1.795 0-3.379.907-4.328 2.283v-15.389zm13.342 13.106c-.529-.574-.984-1.222-1.321-1.953-1.064-2.314-.903-4.99.433-7.159 1.226-1.992 3.262-3.291 5.585-3.563.302-.036.604-.053.903-.053 2.001 0 3.915.787 5.354 2.227l7.804 7.804c-.013.116-.035.229-.035.349v1.812l-8.865-8.868c-1.311-1.31-3.109-1.946-4.98-1.729-2.533.298-4.575 2.124-5.201 4.652-.22.887-.217 1.828.007 2.72.408 1.629 1.389 2.942 2.71 3.761zm20.452-8.949c-.101-.457.009-.928.301-1.292s.728-.573 1.195-.573.903.209 1.195.572c.293.365.403.836.302 1.292l-.767 3.467c-.236-.055-.478-.091-.73-.091s-.495.036-.73.091zm7.418 8.545 7.584-7.585c1.179-1.178 2.894-1.507 4.479-.858.541.222 1.033.583 1.423 1.044 1.048 1.239 1.299 2.84.671 4.283-.548 1.26-1.819 2.189-3.318 2.426l-3.128.494c-2.558.402-5.144.469-7.711.196zm-14.881-3.04 3.039 3.039c-1.011.107-2.025.147-3.039.149zm-2 3.126c-.893-.059-1.784-.143-2.673-.283l-3.365-.531c-1.66-.261-2.904-1.426-3.328-3.116-.145-.576-.147-1.182-.005-1.751.424-1.712 1.795-2.947 3.493-3.147.161-.019.322-.028.481-.028 1.074 0 2.087.421 2.852 1.185l2.545 2.546zm9.735-2.03c0-.675.55-1.225 1.225-1.225s1.225.55 1.225 1.225v2.349h-2.45zm-3.74-5.835c-.335-1.512.03-3.074 1-4.283.97-1.208 2.416-1.901 3.965-1.901 1.55 0 2.995.693 3.965 1.901.97 1.209 1.335 2.771 1 4.283l-.251 1.133-2.041 2.041.776-3.509c.232-1.051-.021-2.136-.695-2.976-.674-.839-1.678-1.32-2.755-1.32s-2.081.481-2.755 1.321c-.673.839-.926 1.924-.694 2.975l.776 3.509-2.04-2.04zm-28.223-19.423c1.44-1.439 3.356-2.226 5.363-2.226.297 0 .596.017.896.052 2.323.272 4.358 1.572 5.584 3.564 1.335 2.168 1.498 4.844.433 7.158-.858 1.866-2.421 3.267-4.311 3.953h-10.077c-.003-.083-.014-.163-.025-.244.058 0 .116.004.174.004 1.641 0 3.282-.128 4.914-.386l3.129-.494c2.167-.341 4.022-1.722 4.84-3.604.938-2.157.572-4.539-.979-6.373-.597-.706-1.355-1.26-2.191-1.603-2.344-.959-4.893-.464-6.652 1.294l-8.984 8.985h-.882v-1.312zm-13.491 1.551c-.101-.457.009-.927.301-1.292.293-.364.729-.573 1.196-.573s.903.209 1.195.573c.292.365.403.835.302 1.292l-.889 4.019c-.197-.038-.4-.061-.608-.061s-.411.024-.608.061zm.272 7.183c0-.675.55-1.225 1.225-1.225s1.225.55 1.225 1.225v1.348h-2.45zm-3.74-6.417c-.334-1.513.03-3.074 1-4.283.971-1.208 2.416-1.901 3.965-1.901s2.995.693 3.965 1.901c.971 1.209 1.335 2.77 1 4.283l-.534 2.417-1.956 1.957c-.017-.021-.034-.042-.052-.063l1.027-4.646c.232-1.052-.021-2.136-.696-2.976-.674-.839-1.678-1.32-2.754-1.32s-2.08.481-2.755 1.321c-.674.839-.927 1.924-.695 2.976l1.027 4.646c-.018.02-.034.042-.052.063l-1.956-1.957zm-19.304 6.231c-1.065-2.313-.903-4.99.433-7.159 1.226-1.992 3.262-3.291 5.584-3.563.303-.036.604-.053.903-.053 2.001 0 3.915.787 5.355 2.227l8.769 8.769v1.313h-.882l-8.984-8.985c-1.311-1.31-3.108-1.946-4.98-1.729-2.533.298-4.575 2.124-5.201 4.651-.22.886-.217 1.826.007 2.721.617 2.456 2.516 4.22 4.957 4.604l3.365.531c1.631.257 3.272.386 4.914.386.058 0 .116-.003.174-.004-.011.081-.022.161-.025.244h-10.078c-1.89-.686-3.452-2.087-4.311-3.953zm16.885 1.534c-.226 0-.44.04-.648.096-2.2.15-4.409.068-6.601-.278l-3.365-.531c-1.66-.261-2.904-1.426-3.329-3.115-.145-.578-.146-1.184-.005-1.752.424-1.712 1.795-2.947 3.493-3.146.162-.019.322-.028.482-.028 1.074 0 2.086.421 2.852 1.185l7.57 7.571h-.449zm-26.838 18.898v-13.222c0-.693.564-1.258 1.258-1.258h23.073v15.738h-17.772-5.3c-.694 0-1.259-.564-1.259-1.258zm7.559 47.62v-44.362h16.773v5.237c0 .552.448 1 1 1s1-.448 1-1v-24.886c0-.28.228-.507.507-.507h14.768c.279 0 .507.228.507.507v67.179c0 .279-.228.507-.507.507h-14.769c-.279 0-.507-.228-.507-.507v-27.266c0-.553-.448-1-1-1s-1 .447-1 1v27.266c0 .174.018.343.052.507h-13.15c-2.026 0-3.674-1.649-3.674-3.675zm36.502 3.675c.034-.164.052-.333.052-.507v-34.707c.949 1.377 2.533 2.283 4.328 2.283h2.3v29.265c0 1.398.51 2.677 1.351 3.667 0 0 0 0-.001-.001zm8.421.415c.015.014.031.027.046.042-.015-.015-.031-.028-.046-.042zm3.142 1.531c.01.001.02.003.031.005-.011-.002-.021-.004-.031-.005zm-2.71-1.156c.022.018.046.034.068.051-.022-.017-.045-.033-.068-.051zm.472.334c.025.016.052.031.077.047-.025-.016-.051-.031-.077-.047zm.509.286c.026.013.052.025.078.038-.026-.013-.052-.025-.078-.038zm.544.236c.023.009.047.017.07.026-.024-.009-.047-.018-.07-.026zm.577.18c.018.005.036.01.054.014-.018-.004-.036-.009-.054-.014zm51.051-5.492c0 2.025-1.648 3.674-3.675 3.674h-45.977c-2.026 0-3.674-1.648-3.674-3.674v-29.265h53.327v29.265zm7.558-34.524c0 1.797-1.461 3.259-3.258 3.259h-61.926c-1.797 0-3.258-1.462-3.258-3.259v-9.221c0-1.797 1.461-3.258 3.258-3.258h61.926c1.797 0 3.258 1.461 3.258 3.258z" fill="#3a2c60"/></svg>