<svg height="512pt" viewBox="0 -13 512 512" width="512pt" xmlns="http://www.w3.org/2000/svg"><path d="m452.609375 0h-393.214844c-32.75 0-59.394531 26.644531-59.394531 59.390625v310.894531c0 4.199219 3.40625 7.605469 7.605469 7.605469s7.601562-3.40625 7.601562-7.605469v-253.671875h330.5625c4.199219 0 7.605469-3.40625 7.605469-7.605469 0-4.199218-3.40625-7.601562-7.605469-7.601562h-330.5625v-42.015625c0-24.363281 19.820313-44.183594 44.1875-44.183594h393.214844c24.363281 0 44.183594 19.820313 44.183594 44.183594v42.015625h-120.609375c-4.199219 0-7.601563 3.402344-7.601563 7.601562 0 4.199219 3.402344 7.605469 7.601563 7.605469h120.609375v309.691407c0 24.363281-19.820313 44.183593-44.183594 44.183593h-393.214844c-24.363281 0-44.1875-19.820312-44.1875-44.183593v-25.605469c0-4.199219-3.402343-7.601563-7.601562-7.601563s-7.605469 3.402344-7.605469 7.601563v25.605469c0 32.75 26.644531 59.394531 59.394531 59.394531h393.214844c32.746094 0 59.390625-26.644531 59.390625-59.394531v-366.914063c0-32.746094-26.644531-59.390625-59.390625-59.390625zm0 0"/><path d="m36.394531 58.304688c0 14.257812 11.597657 25.859374 25.855469 25.859374s25.855469-11.601562 25.855469-25.859374c0-14.257813-11.597657-25.855469-25.855469-25.855469s-25.855469 11.601562-25.855469 25.855469zm36.503907 0c0 5.875-4.777344 10.652343-10.648438 10.652343s-10.648438-4.777343-10.648438-10.652343c0-5.871094 4.777344-10.648438 10.648438-10.648438s10.648438 4.777344 10.648438 10.648438zm0 0"/><path d="m105.878906 58.304688c0 14.257812 11.601563 25.859374 25.859375 25.859374 14.253907 0 25.855469-11.601562 25.855469-25.859374 0-14.257813-11.597656-25.855469-25.855469-25.855469-14.257812 0-25.859375 11.601562-25.859375 25.855469zm36.507813 0c0 5.875-4.777344 10.652343-10.648438 10.652343-5.871093 0-10.648437-4.777343-10.648437-10.652343 0-5.871094 4.777344-10.648438 10.648437-10.648438 5.871094 0 10.648438 4.777344 10.648438 10.648438zm0 0"/><path d="m175.367188 58.304688c0 14.257812 11.601562 25.859374 25.859374 25.859374 14.253907 0 25.855469-11.601562 25.855469-25.859374 0-14.257813-11.601562-25.855469-25.855469-25.855469-14.257812 0-25.859374 11.601562-25.859374 25.855469zm36.507812 0c0 5.875-4.777344 10.652343-10.648438 10.652343-5.871093 0-10.648437-4.777343-10.648437-10.652343 0-5.871094 4.777344-10.648438 10.648437-10.648438 5.871094 0 10.648438 4.777344 10.648438 10.648438zm0 0"/><path d="m151.78125 138.46875c0-4.199219-3.40625-7.601562-7.605469-7.601562h-43.542969c-4.199218 0-7.605468 3.402343-7.605468 7.601562v43.542969c0 4.199219 3.40625 7.605469 7.605468 7.605469 4.199219 0 7.605469-3.40625 7.605469-7.605469v-25.183594l125.691407 125.695313c1.484374 1.484374 3.433593 2.226562 5.378906 2.226562 1.945312 0 3.890625-.742188 5.375-2.226562 2.96875-2.96875 2.96875-7.785157 0-10.753907l-125.695313-125.695312h25.1875c4.199219 0 7.605469-3.40625 7.605469-7.605469zm0 0"/><path d="m267.316406 315.90625 125.695313 125.695312h-25.1875c-4.199219 0-7.601563 3.40625-7.601563 7.605469s3.402344 7.601563 7.601563 7.601563h43.542969c4.199218 0 7.605468-3.402344 7.605468-7.601563v-43.542969c0-4.203124-3.40625-7.605468-7.605468-7.605468-4.199219 0-7.601563 3.402344-7.601563 7.605468v25.183594l-125.695313-125.695312c-2.96875-2.96875-7.785156-2.96875-10.753906 0s-2.96875 7.785156 0 10.753906zm0 0"/><path d="m93.027344 449.207031c0 4.199219 3.40625 7.601563 7.605468 7.601563h43.542969c4.199219 0 7.605469-3.402344 7.605469-7.601563s-3.40625-7.605469-7.605469-7.605469h-25.183593l125.691406-125.695312c2.972656-2.96875 2.972656-7.785156 0-10.753906-2.96875-2.96875-7.78125-2.96875-10.75 0l-125.695313 125.695312v-25.183594c0-4.203124-3.40625-7.605468-7.605469-7.605468-4.199218 0-7.605468 3.402344-7.605468 7.605468zm0 0"/><path d="m267.316406 282.523438c1.484375 1.484374 3.429688 2.226562 5.375 2.226562 1.945313 0 3.894532-.742188 5.378906-2.226562l125.691407-125.695313v25.183594c0 4.199219 3.40625 7.605469 7.605469 7.605469 4.199218 0 7.605468-3.40625 7.605468-7.605469v-43.542969c0-4.199219-3.40625-7.605469-7.605468-7.605469h-43.542969c-4.199219 0-7.605469 3.40625-7.605469 7.605469s3.40625 7.605469 7.605469 7.605469h25.183593l-125.691406 125.695312c-2.96875 2.96875-2.96875 7.785157 0 10.753907zm0 0"/></svg>