<?xml version="1.0" encoding="utf-8"?>
<!-- Generator: Adobe Illustrator 22.0.1, SVG Export Plug-In . SVG Version: 6.00 Build 0)  -->
<svg version="1.1" id="Слой_1" xmlns="http://www.w3.org/2000/svg" xmlns:xlink="http://www.w3.org/1999/xlink" x="0px" y="0px"
	 viewBox="0 0 300 300" style="enable-background:new 0 0 300 300;" xml:space="preserve">
<style type="text/css">
	.st0{fill:#EAEAEA;}
	.st1{fill:#D8D6D7;}
	.st2{fill:#FFFFFF;}
	.st3{fill:#757575;}
</style>
<g>
	<g>
		<path class="st0" d="M291.6,278.4H8.4c-3.3,0-6-2.7-6-6V27.6c0-3.3,2.7-6,6-6h283.3c3.3,0,6,2.7,6,6v244.9
			C297.6,275.7,294.9,278.4,291.6,278.4z"/>
		<path class="st1" d="M297.6,63.6v208.8c0,3.3-2.7,6-6,6H8.4c-3.3,0-6-2.7-6-6V27.6c0-3.3,2.7-6,6-6H80l30.5,37.9
			c2.1,2.6,5.3,4.2,8.7,4.2H297.6z"/>
		<path class="st2" d="M297.6,63.6v208.8c0,3.3-2.7,6-6,6H26.6c-3.3,0-6-2.7-6-6V27.6c0-3.3,2.7-6,6-6H80l30.5,37.9
			c2.1,2.6,5.3,4.2,8.7,4.2H297.6z"/>
		<path class="st2" d="M250.7,43c0,4.6-3.7,8.2-8.2,8.2c-4.6,0-8.2-3.7-8.2-8.2s3.7-8.2,8.2-8.2C247,34.7,250.7,38.4,250.7,43z"/>
		<path class="st2" d="M280.9,43c0,4.6-3.7,8.2-8.2,8.2c-4.6,0-8.2-3.7-8.2-8.2s3.7-8.2,8.2-8.2C277.2,34.7,280.9,38.4,280.9,43z"/>
		<g>
			<path class="st3" d="M291.6,19.2H8.4c-4.6,0-8.4,3.8-8.4,8.4v244.9c0,4.6,3.8,8.4,8.4,8.4h283.3c4.6,0,8.4-3.8,8.4-8.4V27.6
				C300,22.9,296.2,19.2,291.6,19.2z M295.2,27.6v33.7h-176c-2.7,0-5.2-1.2-6.8-3.3L85,24h206.6C293.6,24,295.2,25.6,295.2,27.6z
				 M8.6,276c-2.1,0-3.8-1.7-3.8-3.8V27.8c0-2.1,1.7-3.8,3.8-3.8h70.2l29.8,37c2.6,3.2,6.4,5.1,10.6,5.1h176v206.2
				c0,2.1-1.7,3.8-3.8,3.8H8.6z"/>
			<path class="st3" d="M67.2,42H26c-1.3,0-2.4,1.1-2.4,2.4s1.1,2.4,2.4,2.4h41.3c1.3,0,2.4-1.1,2.4-2.4S68.6,42,67.2,42z"/>
			<path class="st3" d="M242.4,53.6c5.9,0,10.6-4.8,10.6-10.6s-4.8-10.6-10.6-10.6c-5.9,0-10.6,4.8-10.6,10.6
				C231.8,48.8,236.6,53.6,242.4,53.6z M242.4,37.1c3.2,0,5.9,2.6,5.9,5.9s-2.6,5.9-5.9,5.9c-3.2,0-5.9-2.6-5.9-5.9
				C236.6,39.7,239.2,37.1,242.4,37.1z"/>
			<path class="st3" d="M272.6,53.6c5.9,0,10.6-4.8,10.6-10.6s-4.8-10.6-10.6-10.6c-5.9,0-10.6,4.8-10.6,10.6
				C262,48.8,266.7,53.6,272.6,53.6z M272.6,37.1c3.2,0,5.9,2.6,5.9,5.9s-2.6,5.9-5.9,5.9c-3.2,0-5.9-2.6-5.9-5.9
				C266.8,39.7,269.4,37.1,272.6,37.1z"/>
		</g>
	</g>
	<g>
		<path class="st3" d="M111.8,135.5c-2.3,7.9-10.2,13.7-19.6,13.7c-2.8,0-5.5-0.5-7.9-1.5c0,0.5-0.1,1-0.1,1.5
			c0,9.5,7.7,17.2,17.2,17.2s17.2-7.7,17.2-17.2C118.7,143.6,116,138.6,111.8,135.5z"/>
		<path class="st3" d="M188.2,135.5c2.3,7.9,10.2,13.7,19.6,13.7c2.8,0,5.5-0.5,7.9-1.5c0,0.5,0.1,1,0.1,1.5
			c0,9.5-7.7,17.2-17.2,17.2s-17.2-7.7-17.2-17.2C181.3,143.6,184,138.6,188.2,135.5z"/>
		<g>
			<g>
				<path class="st2" d="M111,158.7c5.8,0,5.8-9,0-9C105.2,149.7,105.2,158.7,111,158.7L111,158.7z"/>
			</g>
		</g>
		<g>
			<g>
				<path class="st2" d="M189.5,158.2c5.8,0,5.8-9,0-9C183.7,149.2,183.7,158.2,189.5,158.2L189.5,158.2z"/>
			</g>
		</g>
		<g>
			<g>
				<path class="st3" d="M185.5,113.2c11.4,15.1,30.3,25.4,49.3,24.8c3.9-0.1,3.9-6.1,0-6c-11.9,0.3-22.9-3.8-32.4-10.8
					c-3.1-2.3-6-4.9-8.7-7.7c-0.8-0.9-1.6-1.7-2.4-2.6c-0.2-0.2-1.4-1.7-0.6-0.7C188.4,107.2,183.2,110.2,185.5,113.2L185.5,113.2z"
					/>
			</g>
		</g>
		<g>
			<g>
				<path class="st3" d="M109.3,110.2c0.8-1-0.4,0.4-0.6,0.7c-0.7,0.8-1.4,1.6-2.1,2.4c-2.7,2.9-5.7,5.6-8.9,8
					c-9.5,7-20.5,11.1-32.4,10.8c-3.9-0.1-3.9,5.9,0,6c19,0.5,37.9-9.8,49.3-24.8C116.8,110.2,111.6,107.2,109.3,110.2L109.3,110.2z
					"/>
			</g>
		</g>
		<g>
			<g>
				<path class="st3" d="M116.9,227.3c6.3-5.7,14.5-10.1,22.6-12.7c18.9-6,35.9,1.1,48.5,15.8c2.5,2.9,6.7-1.3,4.2-4.2
					c-13.3-15.6-32.1-23.6-52.3-18c-9.8,2.7-19.6,8-27.2,14.8C109.8,225.6,114,229.9,116.9,227.3L116.9,227.3z"/>
			</g>
		</g>
	</g>
</g>
</svg>
