<?xml version="1.0" encoding="utf-8"?>
<!-- Generator: Adobe Illustrator 22.0.1, SVG Export Plug-In . SVG Version: 6.00 Build 0)  -->
<svg version="1.1" id="Capa_1" xmlns="http://www.w3.org/2000/svg" xmlns:xlink="http://www.w3.org/1999/xlink" x="0px" y="0px"
	 viewBox="0 0 512 271.2" style="enable-background:new 0 0 512 271.2;" xml:space="preserve">
<style type="text/css">
	.st0{fill:#FFFFFF;}
</style>
<g>
	<g>
		<g>
			<path class="st0" d="M111.3,182.7V263c0,0,76.9-32.1,145.2-32.1S401.6,263,401.6,263v-81.4c0,0-73.4-38.8-146.3-38.8
				C182.4,142.7,111.3,182.7,111.3,182.7z"/>
			<path class="st0" d="M483.1,163.6l28.9-15.5l-28.9-16v-7.6c0,0,8.1-41.2-38.1-19.7c-2.4,1.3-3.6,2.6-4.1,3.8L250.4,3L0,146.3
				l94.6,43v-13.9c0,0,79.3-44.5,160.6-44.5c81.3,0,163.1,43.3,163.1,43.3v24.3l52.2-28c0,32.5,0,101.9,0,113.5h-17.4v40.3l23.1-16
				l25.7,16v-40.4h-18.8L483.1,163.6L483.1,163.6z M470.5,117.5c0,1,0,3.7,0,7.6l-15.2-8.5C460.8,113,470.5,107.9,470.5,117.5z
				 M465.4,162c-6.7,0-12.2-5.5-12.2-12.2c0-6.7,5.5-12.2,12.2-12.2c6.8,0,12.2,5.5,12.2,12.2C477.6,156.6,472.1,162,465.4,162z"/>
		</g>
	</g>
</g>
</svg>
