<svg width="20" height="19" viewBox="0 0 20 19" fill="none" xmlns="http://www.w3.org/2000/svg">
<path fill-rule="evenodd" clip-rule="evenodd" d="M10.1913 1.7116C12.6699 1.7116 12.963 1.72134 13.9418 1.76646C14.8466 1.80869 15.3381 1.96338 15.6651 2.09351C16.0682 2.24578 16.4329 2.48855 16.7323 2.80399C17.0404 3.11058 17.2775 3.48394 17.4261 3.89664C17.5533 4.23138 17.7044 4.73424 17.7457 5.66028C17.7904 6.66134 17.7993 6.96234 17.7993 9.49843C17.7993 12.0345 17.7899 12.335 17.7457 13.3366C17.7044 14.2626 17.5533 14.7656 17.4261 15.1002C17.2717 15.5099 17.0352 15.8819 16.7318 16.1924C16.4285 16.5028 16.065 16.7449 15.6647 16.9029C15.3377 17.0329 14.8462 17.1878 13.9414 17.23C12.9633 17.2757 12.6692 17.2849 10.1909 17.2849C7.71254 17.2849 7.41899 17.2751 6.44055 17.23C5.53565 17.1878 5.04422 17.0329 4.71718 16.9029C4.31707 16.7448 3.95371 16.5028 3.65047 16.1923C3.34723 15.8819 3.11082 15.5099 2.95643 15.1004C2.82928 14.7658 2.67815 14.2628 2.63689 13.3367C2.59227 12.3357 2.5833 12.0347 2.5833 9.49857C2.5833 6.96248 2.59281 6.66202 2.63689 5.66042C2.67775 4.73438 2.82901 4.23138 2.95643 3.89664C3.10522 3.48409 3.34246 3.1109 3.65071 2.80454C3.94999 2.48902 4.31454 2.24615 4.71758 2.09379C5.04462 1.96365 5.53606 1.80897 6.44095 1.76673C7.41899 1.72107 7.71375 1.71188 10.1913 1.71188V1.7116ZM10.1913 0.000488281C7.67074 0.000488281 7.35468 0.0114587 6.36472 0.0576718C5.59473 0.0734769 4.83294 0.222779 4.11173 0.499233C3.49244 0.737715 2.93143 1.11158 2.46781 1.59477C1.99569 2.06919 1.63037 2.64331 1.39732 3.27709C1.12721 4.01513 0.981334 4.79471 0.965903 5.58267C0.920752 6.59579 0.910034 6.91914 0.910034 9.49884C0.910034 12.0785 0.920752 12.4019 0.965903 13.415C0.981334 14.203 1.12721 14.9826 1.39732 15.7206C1.6358 16.3516 2.00045 16.9246 2.46788 17.403C2.93531 17.8813 3.49522 18.2544 4.11173 18.4985C4.83292 18.775 5.59473 18.9243 6.36472 18.94C7.35468 18.9862 7.67074 18.9972 10.1913 18.9972C12.7118 18.9972 13.028 18.9862 14.018 18.94C14.7879 18.9243 15.5497 18.775 16.2708 18.4985C16.8874 18.2545 17.4473 17.8813 17.9147 17.403C18.3821 16.9246 18.7468 16.3516 18.9853 15.7206C19.2554 14.9826 19.4013 14.203 19.4167 13.415C19.4618 12.4019 19.4725 12.0784 19.4725 9.49884C19.4725 6.91928 19.4618 6.59579 19.4167 5.58267C19.4013 4.7947 19.2554 4.01511 18.9853 3.27709C18.7522 2.64331 18.3869 2.06919 17.9148 1.59477C17.4512 1.11156 16.8901 0.737683 16.2708 0.499233C15.5497 0.222782 14.7879 0.0734792 14.018 0.0576718C13.028 0.0114587 12.712 0.000488281 10.1913 0.000488281ZM10.1913 4.62179C9.2488 4.62193 8.32751 4.90811 7.54393 5.44415C6.76035 5.9802 6.14967 6.74203 5.78911 7.6333C5.42854 8.52458 5.33429 9.50527 5.51827 10.4514C5.70225 11.3975 6.1562 12.2665 6.82271 12.9485C7.48923 13.6306 8.33837 14.095 9.26277 14.2831C10.1872 14.4712 11.1453 14.3745 12.016 14.0053C12.8867 13.636 13.6309 13.0108 14.1544 12.2087C14.678 11.4065 14.9574 10.4635 14.9573 9.49884C14.9573 8.85825 14.834 8.22393 14.5945 7.6321C14.355 7.04027 14.0039 6.50253 13.5614 6.04957C13.1188 5.59661 12.5934 5.23732 12.0151 4.9922C11.4369 4.74708 10.8172 4.62093 10.1913 4.62097V4.62179ZM10.1913 12.6655C9.57953 12.6654 8.98155 12.4796 8.47294 12.1317C7.96433 11.7837 7.56794 11.2892 7.33388 10.7107C7.09982 10.1322 7.03861 9.4957 7.15798 8.88159C7.27735 8.26748 7.57195 7.70339 8.00452 7.26064C8.4371 6.81789 8.98822 6.51636 9.58821 6.39418C10.1882 6.272 10.8101 6.33465 11.3753 6.57422C11.9405 6.81378 12.4236 7.2195 12.7636 7.74008C13.1035 8.26065 13.285 8.8727 13.2851 9.49884C13.285 10.3386 12.959 11.1438 12.3788 11.7375C11.7986 12.3312 11.0117 12.6647 10.1913 12.6646V12.6655ZM16.2595 4.42912C16.2595 4.65459 16.1942 4.87501 16.0718 5.06249C15.9494 5.24998 15.7755 5.39611 15.572 5.48241C15.3685 5.56872 15.1445 5.59131 14.9285 5.54734C14.7124 5.50337 14.514 5.39481 14.3582 5.23539C14.2024 5.07597 14.0963 4.87284 14.0533 4.65171C14.0103 4.43057 14.0324 4.20136 14.1167 3.99305C14.201 3.78474 14.3437 3.60669 14.5269 3.48142C14.7101 3.35615 14.9254 3.28929 15.1457 3.28929C15.4409 3.28926 15.7241 3.40922 15.9329 3.6228C16.1418 3.83639 16.2592 4.12612 16.2595 4.4283V4.42912Z" fill="#5D3CDC"/>
</svg>
