<svg width="12" height="20" viewBox="0 0 12 20" fill="none" xmlns="http://www.w3.org/2000/svg">
<path fill-rule="evenodd" clip-rule="evenodd" d="M6.4133 9.93521C7.38276 9.93487 8.33036 9.64322 9.13626 9.09715C9.94216 8.55108 10.5702 7.77512 10.9409 6.86738C11.3116 5.95963 11.4084 4.96088 11.219 3.9974C11.0296 3.03392 10.5625 2.14899 9.87684 1.4545C9.19115 0.760006 8.31764 0.287148 7.36676 0.0957124C6.41588 -0.095723 5.43034 0.00286203 4.53475 0.379002C3.63915 0.755142 2.87374 1.39194 2.33528 2.20889C1.79682 3.02583 1.5095 3.98623 1.50966 4.96864C1.51117 6.28583 2.02837 7.54859 2.94772 8.47975C3.86708 9.4109 5.11347 9.93436 6.4133 9.93521ZM6.4133 2.91154C6.81465 2.9117 7.20695 3.03243 7.5406 3.25848C7.87424 3.48454 8.13426 3.80576 8.28778 4.18154C8.4413 4.55732 8.48143 4.97079 8.40309 5.36968C8.32475 5.76857 8.13147 6.13497 7.84767 6.42255C7.56387 6.71014 7.2023 6.90601 6.80867 6.98539C6.41504 7.06477 6.00702 7.02411 5.63619 6.86854C5.26536 6.71297 4.94837 6.44948 4.7253 6.11138C4.50222 5.77327 4.38308 5.37574 4.38293 4.96903C4.38339 4.42349 4.59745 3.90043 4.97812 3.51468C5.35879 3.12893 5.87495 2.91201 6.4133 2.91154ZM8.39698 13.988C9.40573 13.7551 10.3684 13.3511 11.2443 12.7932C11.5649 12.5865 11.7916 12.2597 11.875 11.8841C11.9584 11.5086 11.8916 11.1148 11.6893 10.789C11.4869 10.4632 11.1655 10.2318 10.7953 10.1455C10.4251 10.0592 10.0362 10.125 9.71372 10.3284C8.72396 10.9555 7.58019 11.288 6.41291 11.288C5.24564 11.288 4.10186 10.9555 3.11211 10.3284C2.78956 10.1227 2.39961 10.0553 2.02804 10.141C1.65646 10.2267 1.3337 10.4585 1.13075 10.7853C0.927804 11.1122 0.8613 11.5074 0.945867 11.8839C1.03043 12.2604 1.25914 12.5875 1.58169 12.7932C2.45768 13.3509 3.42024 13.7548 4.42885 13.988L1.68765 16.7655C1.41831 17.0386 1.26705 17.409 1.26717 17.7951C1.26729 18.1812 1.41877 18.5515 1.68828 18.8244C1.95779 19.0973 2.32327 19.2506 2.7043 19.2505C3.08533 19.2504 3.45071 19.0969 3.72006 18.8238L6.41272 16.0944L9.10761 18.8238C9.37841 19.0894 9.7414 19.2365 10.1183 19.2333C10.4951 19.2302 10.8557 19.077 11.1221 18.8069C11.3886 18.5368 11.5396 18.1714 11.5425 17.7895C11.5455 17.4076 11.4002 17.0398 11.138 16.7655L8.39698 13.988Z" fill="#5D3CDC"/>
</svg>
