<svg width="27" height="17" viewBox="0 0 27 17" fill="none" xmlns="http://www.w3.org/2000/svg">
<path fill-rule="evenodd" clip-rule="evenodd" d="M13.6312 16.1823H15.1851C15.1851 16.1823 15.6545 16.1256 15.8944 15.8427C16.115 15.5827 16.1079 15.0949 16.1079 15.0949C16.1079 15.0949 16.0776 12.8105 17.0451 12.4738C17.9994 12.1424 19.2246 14.6816 20.523 15.6584C21.505 16.3971 22.251 16.2355 22.251 16.2355L25.7232 16.1823C25.7232 16.1823 27.5396 16.0593 26.6782 14.4952C26.6076 14.3671 26.1761 13.3379 24.0965 11.2225C21.9191 9.00875 22.2111 9.3668 24.8337 5.53729C26.4307 3.205 27.0692 1.78153 26.8693 1.17188C26.6793 0.590925 25.5043 0.744231 25.5043 0.744231L21.5949 0.770848C21.4216 0.748318 21.246 0.782245 21.0901 0.868392C20.9416 0.987318 20.823 1.14542 20.7453 1.32801C20.3403 2.47889 19.8576 3.59511 19.3013 4.66742C17.5605 7.90572 16.8642 8.07731 16.5798 7.87598C15.9178 7.40699 16.0832 5.99334 16.0832 4.98875C16.0832 1.84993 16.5175 0.54141 15.2371 0.202681C14.8122 0.0902666 14.4991 0.0162161 13.4122 0.00387433C12.0172 -0.0109952 10.8368 0.00863246 10.1687 0.367584C9.72411 0.605498 9.38077 1.13768 9.5899 1.16846C9.84775 1.20593 10.4333 1.34124 10.7434 1.80369C11.1442 2.40085 11.1301 3.74179 11.1301 3.74179C11.1301 3.74179 11.3608 7.43629 10.5924 7.89516C10.0654 8.20995 9.34263 7.56803 7.79052 4.62906C7.26379 3.60682 6.79775 2.54843 6.39529 1.4605C6.32367 1.2758 6.21323 1.11225 6.07298 0.983185C5.89122 0.851144 5.68694 0.760804 5.47246 0.717614L1.75726 0.744082C1.75726 0.744082 1.19977 0.761182 0.994982 1.0266C0.812724 1.26348 0.980461 1.75165 0.980461 1.75165C0.980461 1.75165 3.88872 9.20636 7.1824 12.9633C10.2026 16.408 13.6315 16.182 13.6315 16.182L13.6312 16.1823Z" fill="#5D3CDC"/>
</svg>
