<svg width="175" height="61" viewBox="0 0 175 61" fill="none" xmlns="http://www.w3.org/2000/svg">
<g clip-path="url(#clip0)">
<path d="M38.8983 14.8266L46.0975 20.8346L25.0775 45.9134L17.8783 39.9054L38.8983 14.8266Z" fill="#121212"/>
<path d="M41.3356 29.9133L48.5348 35.9212L27.5148 61L20.3156 54.9921L41.3356 29.9133Z" fill="#121212"/>
<path d="M21.02 0L28.2192 6.00795L7.19921 31.0867L0 25.0788L21.02 0Z" fill="#121212"/>
<path d="M95.9778 45.5128V10.4348H114.659C118.857 10.4348 121.71 11.1375 123.218 12.5359C124.746 13.9202 125.507 16.246 125.507 19.4995C125.507 22.6686 124.887 24.7345 123.655 25.7112C122.436 26.6879 121.055 27.3274 119.513 27.6295C121.985 27.8895 123.704 28.6133 124.662 29.8008C125.62 30.9743 126.106 32.9488 126.106 35.7385C126.106 39.7438 125.225 42.3789 123.471 43.6367C121.731 44.8874 118.886 45.5058 114.934 45.5058H95.9778V45.5128ZM105.368 24.4112H111.912C113.624 24.4112 114.751 24.2004 115.3 23.7718C115.85 23.3291 116.124 22.4507 116.124 21.1227C116.124 19.9843 115.92 19.1903 115.504 18.7476C115.11 18.2909 114.025 18.066 112.257 18.066H105.368V24.4112ZM105.368 37.8817H112.553C114.046 37.8817 115.117 37.6287 115.758 37.1298C116.399 36.6309 116.716 35.6542 116.716 34.2066C116.716 32.8645 116.434 31.9862 115.871 31.5575C115.307 31.1148 114.483 30.897 113.398 30.897H112.806H105.368V37.8817Z" fill="#121212"/>
<path d="M130.572 10.4348H139.955V45.5128H130.572V10.4348Z" fill="#121212"/>
<path d="M82.0302 10.224H91.5962V45.6674H82.0302V10.224Z" fill="#121212"/>
<path d="M91.6033 36.3007V45.6604H58.8546V36.3007H91.6033Z" fill="#121212"/>
<path d="M153.529 34.1856C153.529 35.8299 153.895 36.919 154.628 37.4531C155.361 37.9871 156.995 38.2541 159.524 38.2541C162.039 38.2541 163.624 38.0293 164.265 37.5725C164.92 37.1158 165.251 36.1953 165.251 34.811C165.251 33.4126 164.969 32.5413 164.405 32.211C163.842 31.8738 162.426 31.684 160.172 31.6419C153.881 31.5084 149.718 30.7424 147.675 29.3581C145.633 27.9598 144.611 25.1772 144.611 21.0243C144.611 16.4709 145.71 13.5126 147.908 12.1424C150.106 10.7721 153.945 10.0905 159.425 10.0905C165.166 10.0905 168.935 10.8003 170.731 12.2127C172.535 13.625 173.471 16.218 173.549 19.9773V21.4178H164.624C164.546 19.8789 164.222 18.8811 163.638 18.4244C163.074 17.9536 161.736 17.7147 159.629 17.7147C157.249 17.7147 155.713 17.9255 155.03 18.3541C154.346 18.7617 154.001 19.626 154.001 20.933C154.001 21.9659 154.248 22.7248 154.734 23.1956C155.234 23.6523 156.389 23.9264 158.192 24.0177C161.919 24.2004 165.166 24.4745 167.942 24.8399C170.731 25.2053 172.626 26.449 173.619 28.5641C174.303 30.0397 174.648 32.2883 174.648 35.3029C174.648 39.0622 173.655 41.7746 171.675 43.4329C169.71 45.0772 165.652 45.8993 159.517 45.8993C152.677 45.8993 148.486 44.8804 146.929 42.8427C145.386 40.8049 144.618 37.9239 144.618 34.2137H153.529V34.1856Z" fill="#121212"/>
<path d="M63.8208 51.1694V53.2072H60.982V58.2455H58.8546V51.1694H63.8208Z" fill="#121212"/>
<path d="M68.9842 50.9727C69.921 50.9727 70.717 51.3311 71.3792 52.0548C72.0414 52.7786 72.3724 53.664 72.3724 54.711C72.3724 55.758 72.0414 56.6433 71.3792 57.3671C70.717 58.0909 69.921 58.4492 68.9842 58.4492C68.0754 58.4492 67.371 58.1611 66.8709 57.5849V61.0773H64.7435V51.1694H66.8709V51.837C67.371 51.2608 68.0754 50.9727 68.9842 50.9727ZM67.3428 55.9688C67.6598 56.278 68.0614 56.4325 68.5545 56.4325C69.0476 56.4325 69.4491 56.278 69.7661 55.9688C70.0831 55.6596 70.238 55.238 70.238 54.711C70.238 54.184 70.0831 53.7623 69.7661 53.4532C69.4491 53.144 69.0476 52.9894 68.5545 52.9894C68.0614 52.9894 67.6598 53.144 67.3428 53.4532C67.0259 53.7623 66.8709 54.184 66.8709 54.711C66.8709 55.238 67.0259 55.6526 67.3428 55.9688Z" fill="#121212"/>
<path d="M77.7614 51.1694H80.0296L77.6064 58.0347C76.8526 60.1638 75.5002 61.1827 73.563 61.0773V59.0957C74.042 59.0957 74.4153 59.0254 74.6689 58.8849C74.9225 58.7444 75.1339 58.4914 75.2959 58.119L72.5134 51.1694H74.7816L76.43 55.512L77.7614 51.1694Z" fill="#121212"/>
<path d="M87.4824 51.1694V58.2455H85.355V53.151H82.9459V58.2455H80.8185V51.1694H87.4824Z" fill="#121212"/>
<path d="M95.71 51.1694V58.2455H93.5827V53.151H91.1736V58.2455H89.0462V51.1694H95.71Z" fill="#121212"/>
<path d="M102.416 51.1694H104.544V58.2455H102.416V57.5779C101.916 58.1541 101.212 58.4422 100.303 58.4422C99.366 58.4422 98.57 58.0839 97.9079 57.3601C97.2457 56.6363 96.9146 55.7509 96.9146 54.7039C96.9146 53.6569 97.2457 52.7716 97.9079 52.0478C98.57 51.324 99.366 50.9657 100.303 50.9657C101.212 50.9657 101.916 51.2538 102.416 51.83V51.1694ZM99.5069 55.9688C99.8168 56.278 100.225 56.4325 100.726 56.4325C101.226 56.4325 101.634 56.278 101.944 55.9688C102.254 55.6596 102.416 55.238 102.416 54.711C102.416 54.184 102.261 53.7624 101.944 53.4532C101.634 53.144 101.226 52.9894 100.726 52.9894C100.225 52.9894 99.8168 53.144 99.5069 53.4532C99.1969 53.7624 99.042 54.184 99.042 54.711C99.042 55.238 99.1969 55.6526 99.5069 55.9688Z" fill="#121212"/>
<path d="M116.462 58.2455H114.053L111.785 55.1185V58.2455H109.658V51.1694H111.785V54.2683L113.912 51.1694H116.392L113.807 54.7039L116.462 58.2455Z" fill="#121212"/>
<path d="M122.887 57.3601C122.161 58.0839 121.267 58.4422 120.217 58.4422C119.167 58.4422 118.28 58.0839 117.547 57.3601C116.822 56.6363 116.455 55.7509 116.455 54.7039C116.455 53.6569 116.822 52.7716 117.547 52.0478C118.273 51.324 119.167 50.9657 120.217 50.9657C121.267 50.9657 122.154 51.324 122.887 52.0478C123.612 52.7716 123.979 53.6569 123.979 54.7039C123.979 55.7509 123.612 56.6363 122.887 57.3601ZM119.055 55.9126C119.365 56.2217 119.752 56.3763 120.217 56.3763C120.682 56.3763 121.069 56.2217 121.379 55.9126C121.689 55.6034 121.851 55.2029 121.851 54.711C121.851 54.2191 121.696 53.8186 121.379 53.5094C121.069 53.2002 120.682 53.0456 120.217 53.0456C119.752 53.0456 119.365 53.2002 119.055 53.5094C118.745 53.8186 118.59 54.2191 118.59 54.711C118.59 55.1958 118.745 55.5964 119.055 55.9126Z" fill="#121212"/>
<path d="M132.699 51.1694V58.2455H130.657V54.5915L129.065 57.0509H128.811L127.226 54.5915V58.2455H125.183V51.1694H127.226L128.945 53.8467L130.664 51.1694H132.699Z" fill="#121212"/>
<path d="M140.927 51.1694V58.2455H138.8V53.151H136.391V58.2455H134.263V51.1694H140.927Z" fill="#121212"/>
<path d="M147.64 51.1694H149.768V58.2455H147.64V57.5779C147.14 58.1541 146.436 58.4422 145.527 58.4422C144.59 58.4422 143.794 58.0839 143.132 57.3601C142.47 56.6363 142.139 55.7509 142.139 54.7039C142.139 53.6569 142.47 52.7716 143.132 52.0478C143.794 51.324 144.59 50.9657 145.527 50.9657C146.436 50.9657 147.14 51.2538 147.64 51.83V51.1694ZM144.731 55.9688C145.041 56.278 145.449 56.4325 145.95 56.4325C146.45 56.4325 146.858 56.278 147.168 55.9688C147.478 55.6596 147.64 55.238 147.64 54.711C147.64 54.184 147.485 53.7624 147.168 53.4532C146.858 53.144 146.45 52.9894 145.95 52.9894C145.449 52.9894 145.041 53.144 144.731 53.4532C144.421 53.7624 144.266 54.184 144.266 54.711C144.259 55.238 144.421 55.6526 144.731 55.9688Z" fill="#121212"/>
<path d="M155.868 51.1694H157.995V58.2455H155.868V55.7017H153.459V58.2455H151.331V51.1694H153.459V53.7132H155.868V51.1694Z" fill="#121212"/>
<path d="M164.659 51.1694H166.216V58.2455H164.145V54.711L161.109 58.2455H159.552V51.1694H161.623V54.7039L164.659 51.1694Z" fill="#121212"/>
<path d="M172.887 51.1694H174.444V58.2455H172.373V54.7039L169.336 58.2455H167.78V51.1694H169.851V54.7039L172.887 51.1694Z" fill="#121212"/>
<path d="M58.8546 10.224H68.2375V45.5128H58.8546V10.224Z" fill="#5D3CDC"/>
<path d="M91.6244 10.224V19.5838H58.8546V10.224H91.6244Z" fill="#5D3CDC"/>
<path d="M23.5418 15.0585L30.741 21.0665L9.72103 46.1452L2.52182 40.1373L23.5418 15.0585Z" fill="#5D3CDC"/>
<path d="M174.444 47.4733H167.78V49.5322H174.444V47.4733Z" fill="#5D3CDC"/>
</g>
<defs>
<clipPath id="clip0">
<rect width="175" height="61" fill="white"/>
</clipPath>
</defs>
</svg>
