<svg width="47" height="47" viewBox="0 0 47 47" fill="none" xmlns="http://www.w3.org/2000/svg">
<path d="M27.4464 35.879L27.4471 35.8793C28.4596 36.44 29.7295 36.176 30.4355 35.2598C30.4358 35.2594 30.4361 35.259 30.4364 35.2586L34.2667 30.3503C36.2993 31.7301 38.3342 33.1113 40.369 34.4924C42.3947 35.8673 44.4203 37.2422 46.4438 38.6158L44.8891 41.1465L43.1604 43.9605L43.1603 43.9604L43.1569 43.9663C42.5633 44.9757 41.6039 45.718 40.4778 46.0391C36.6287 47.0951 27.9132 47.3928 13.8044 33.2732C-0.304208 19.1539 -0.0081476 10.4307 1.04702 6.57826C1.36796 5.45101 2.10979 4.49065 3.11764 3.89666L3.11767 3.89673L3.12395 3.89284C3.63448 3.57718 4.14495 3.26157 4.65537 2.94599C5.89647 2.17866 7.13731 1.41149 8.37813 0.643952C9.42246 2.18651 10.4667 3.72921 11.511 5.27195C13.2173 7.7928 14.9237 10.3138 16.6307 12.8344L11.8189 16.6274C11.8184 16.6279 11.8178 16.6283 11.8172 16.6288C10.9008 17.3356 10.6387 18.6059 11.1985 19.6185L11.1989 19.6191C11.2911 19.7851 11.3834 19.9547 11.4785 20.1294C11.9223 20.9447 12.4266 21.8712 13.2628 23.0555C14.2786 24.4941 15.7814 26.3107 18.2691 28.8031C20.757 31.2956 22.5723 32.7997 24.0107 33.8156C25.1888 34.6477 26.1125 35.1506 26.9243 35.5927C27.1033 35.6901 27.2768 35.7846 27.4464 35.879Z" fill="white" stroke="black" stroke-width="0.695919"/>
</svg>
