<svg width="23" height="23" viewBox="0 0 23 23" fill="none" xmlns="http://www.w3.org/2000/svg">
<path d="M16.7288 14.6444C16.0663 15.4934 15.4037 16.3424 14.7412 17.1914C14.4449 17.5764 13.9117 17.6874 13.4866 17.452C12.5502 16.9309 11.4433 16.4399 9.00054 13.9926C6.55777 11.5453 6.06446 10.4402 5.54376 9.50312C5.30856 9.07772 5.41898 8.54405 5.80411 8.24757C6.63722 7.59082 7.46988 6.93452 8.30299 6.27777C6.8859 4.18533 5.4697 2.09244 4.05306 0C3.14319 0.562865 2.23332 1.12528 1.32301 1.68815C0.787952 2.00349 0.39429 2.51335 0.224167 3.11171C-0.317623 5.0887 -0.426699 9.44967 6.55687 16.4385C13.5404 23.4274 17.8977 23.3178 19.8731 22.7756C20.471 22.6054 20.9805 22.2114 21.2956 21.6755C21.8639 20.7505 22.4317 19.8261 23 18.9011C20.9096 17.4821 18.8192 16.0634 16.7288 14.6444Z" fill="#121212"/>
</svg>
