<svg width="67" height="67" viewBox="0 0 67 67" fill="none" xmlns="http://www.w3.org/2000/svg">
<path d="M33.7523 49.6269C28.3037 49.6269 22.8839 49.6269 17.4352 49.6269C14.4082 49.6269 12.246 47.4949 12.2172 44.4284C12.1884 37.0686 12.1884 29.6797 12.2172 22.32C12.2172 19.4287 14.437 17.2383 17.3199 17.2383C28.2749 17.2383 39.2298 17.2383 50.1559 17.2383C53.1253 17.2383 55.3163 19.3995 55.3163 22.3784C55.3451 29.7381 55.3451 37.1271 55.3163 44.4868C55.3163 47.4657 53.1253 49.6269 50.1559 49.6269C44.7073 49.6561 39.2298 49.6269 33.7523 49.6269ZM14.4947 18.6985C15.0136 19.2534 15.2442 19.5455 15.4749 19.7791C20.4623 24.9485 25.4496 30.1178 30.4082 35.2871C32.628 37.5943 34.5595 37.5943 36.7794 35.2871C41.8821 30.001 46.9848 24.6856 52.0875 19.3995C52.2604 19.2242 52.3758 19.0198 52.7217 18.6109C51.7415 18.4357 50.9631 18.1436 50.1559 18.1436C39.201 18.1144 28.2749 18.1144 17.3199 18.1436C16.5127 18.1144 15.6478 18.4649 14.4947 18.6985ZM52.9235 48.1959C48.1956 43.2894 43.7271 38.6749 39.2298 34.0021C37.5001 35.6376 36.2316 37.7696 33.637 37.7696C31.0136 37.7696 29.774 35.6084 28.0442 34.0313C23.5758 38.6749 19.1361 43.2602 14.4659 48.1082C15.5614 48.3711 16.3974 48.6923 17.2046 48.6923C28.246 48.7215 39.3163 48.7215 50.3577 48.6923C51.1361 48.7507 51.8857 48.4295 52.9235 48.1959ZM53.6442 47.7286C53.9902 46.5311 54.4803 45.6258 54.4803 44.7204C54.5379 37.2439 54.5091 29.7673 54.5091 22.2908C54.5091 21.2102 54.2496 20.2172 53.3271 19.3995C48.8298 24.0723 44.3613 28.6867 39.8352 33.3888C44.3613 38.0908 48.8586 42.7637 53.6442 47.7286ZM14.1487 19.5747C14.0046 19.5747 13.8605 19.6039 13.7163 19.6039C13.4857 20.4509 13.0821 21.327 13.0821 22.174C13.0244 29.6797 13.0244 37.1855 13.0821 44.6912C13.0821 45.5674 13.5433 46.4143 13.8605 47.5825C18.5884 42.6761 23.028 38.0616 27.4965 33.418C22.9704 28.7451 18.5595 24.1599 14.1487 19.5747Z" fill="black"/>
<path d="M33.7812 65.8357C51.4543 65.8357 65.7812 51.3217 65.7812 33.4178C65.7812 15.514 51.4543 1 33.7812 1C16.1081 1 1.78119 15.514 1.78119 33.4178C1.78119 51.3217 16.1081 65.8357 33.7812 65.8357Z" stroke="black" stroke-width="2" stroke-miterlimit="10"/>
</svg>
