<svg width="67" height="67" viewBox="0 0 67 67" fill="none" xmlns="http://www.w3.org/2000/svg">
<path d="M13.402 33.2116C13.402 29.0989 13.402 24.9617 13.402 20.849C13.4264 15.6281 16.876 12.1558 22.0625 12.1558C29.9891 12.1558 37.8912 12.1558 45.8178 12.1558C50.613 12.1558 54.1848 15.7266 54.1848 20.5535C54.2093 28.9512 54.2093 37.3489 54.1848 45.7466C54.1848 50.6966 50.613 54.2428 45.72 54.2428C37.7689 54.2428 29.8179 54.2428 21.8668 54.2428C16.9983 54.2428 13.4509 50.7458 13.402 45.8451C13.3775 41.6339 13.402 37.4228 13.402 33.2116ZM14.772 33.1131C14.772 37.4228 14.7231 41.7324 14.7965 46.0421C14.8698 49.9578 17.8056 52.7898 21.6955 52.7898C29.7689 52.7898 37.8423 52.8145 45.9157 52.7652C46.772 52.7652 47.7016 52.5928 48.509 52.2973C51.2246 51.2876 52.7903 48.7757 52.8148 45.6235C52.8393 37.4474 52.8148 29.2467 52.8148 21.0706C52.8148 16.4654 50.0258 13.6334 45.4753 13.6334C37.6466 13.6334 29.8179 13.6334 21.9891 13.6334C21.4753 13.6334 20.9371 13.6334 20.4478 13.7319C17.1206 14.3229 14.8454 17.0072 14.8209 20.5781C14.7475 24.74 14.772 28.9266 14.772 33.1131Z" fill="black"/>
<path d="M33.8546 23.6073C39.6283 23.6566 44.3744 28.5326 44.35 34.4677C44.3255 40.5012 39.5549 45.4019 33.7078 45.3773C27.9341 45.3527 23.2124 40.4027 23.2124 34.4184C23.2368 28.4341 28.0564 23.5581 33.8546 23.6073ZM33.7567 25.0603C28.717 25.0603 24.6069 29.3453 24.6313 34.5416C24.6558 39.6639 28.7904 43.9243 33.7812 43.9243C38.7965 43.9243 42.9555 39.6393 42.9555 34.4677C42.9555 29.2714 38.8209 25.0357 33.7567 25.0603Z" fill="black"/>
<path d="M48.6558 21.1692C48.6313 22.967 47.2123 24.3953 45.4509 24.3707C43.7139 24.3461 42.3683 22.9177 42.3683 21.1446C42.3683 19.3222 43.7628 17.8692 45.5243 17.8939C47.2368 17.8939 48.6558 19.3715 48.6558 21.1692ZM43.7383 21.12C43.7139 22.1297 44.5212 22.9423 45.5243 22.9423C46.4784 22.9423 47.2368 22.1543 47.2368 21.1692C47.2368 20.1841 46.5273 19.3961 45.5732 19.3468C44.5701 19.2976 43.7628 20.1103 43.7383 21.12Z" fill="black"/>
<path d="M40.6313 34.5165C40.5823 38.506 37.4998 41.5597 33.6343 41.5105C29.9157 41.4612 26.931 38.2597 26.9799 34.3687C27.0044 30.5023 30.0869 27.3993 33.83 27.424C37.6466 27.4486 40.6802 30.6254 40.6313 34.5165ZM33.7567 40.0821C36.8148 40.1067 39.2612 37.5948 39.2368 34.4672C39.2123 31.3889 36.8148 28.877 33.8056 28.8523C30.7964 28.8277 28.301 31.3642 28.3255 34.4918C28.3499 37.5702 30.7719 40.0575 33.7567 40.0821Z" fill="black"/>
<path d="M33.7812 65.4235C51.4543 65.4235 65.7812 51.0018 65.7812 33.2117C65.7812 15.4217 51.4543 1 33.7812 1C16.1081 1 1.78119 15.4217 1.78119 33.2117C1.78119 51.0018 16.1081 65.4235 33.7812 65.4235Z" stroke="black" stroke-width="2" stroke-miterlimit="10"/>
</svg>
