<svg width="64" height="64" viewBox="0 0 64 64" fill="none" xmlns="http://www.w3.org/2000/svg">
<path d="M16.3577 54.4001L16.8094 54.6825C21.3647 57.6566 26.6353 59.2189 32.0565 59.2189C47.4729 59.2189 60.0094 46.6825 60.0094 31.266C60.0094 15.8495 47.4541 3.31306 32.0377 3.31306C16.6212 3.31306 4.06589 15.8495 4.06589 31.266C4.06589 36.8566 5.70354 42.2589 8.82824 46.8707L9.14824 47.3413L4.85648 58.5037L16.3577 54.4001ZM1.18589 62.0801L6.75765 47.6048C3.61413 42.7295 1.93883 37.1013 1.93883 31.266C1.93883 14.6636 15.4353 1.16718 32.0377 1.16718C48.64 1.16718 62.1365 14.6636 62.1365 31.266C62.1365 47.8684 48.64 61.3648 32.0377 61.3648C26.3718 61.3648 20.8753 59.7648 16.0753 56.7719L1.18589 62.0801Z" fill="black"/>
<path d="M15.0333 23.2502C15.054 19.1805 17.8291 15.7996 21.7433 15.1109C23.3793 14.8187 24.3527 15.2987 25.0154 16.9057C25.8231 18.8675 26.5065 20.871 27.2314 22.8537C27.3556 23.2085 27.3971 23.605 27.3971 23.9807C27.4178 24.8781 27.045 25.5877 26.258 26.0259C25.7196 26.339 25.1811 26.6312 24.6219 26.9025C24.1663 27.1321 23.9178 27.4869 23.9592 27.9669C24.0006 28.4886 24.0421 29.073 24.2492 29.5321C26.4651 34.0609 29.7787 37.5254 34.2313 39.842C34.5834 40.0298 35.039 40.0924 35.4532 40.1341C36.0952 40.1968 36.613 39.9881 36.8615 39.2993C37.0479 38.8193 37.2964 38.3811 37.5449 37.9219C38.1455 36.7741 39.0774 36.2523 40.2993 36.6697C42.4739 37.421 44.6277 38.235 46.7194 39.195C48.3348 39.9463 48.6454 41.3029 48.0034 43.3273C46.4295 48.1691 42.2875 50.3188 37.2343 48.8578C34.3556 48.023 31.8497 46.4787 29.5302 44.6212C24.9326 40.9481 20.8942 36.7323 17.8084 31.6817C16.4415 29.4486 15.406 27.0486 15.1161 24.3981C15.0747 24.0224 15.054 23.6467 15.0333 23.2502ZM39.8851 48.2526C43.6336 48.2735 46.4502 45.9152 47.1336 42.4299C47.3821 41.1359 47.2164 40.5515 46.0981 40.0715C44.1514 39.2367 42.1632 38.4645 40.1751 37.7341C39.3053 37.421 38.8082 37.7132 38.394 38.548C38.1248 39.0906 37.9384 39.6959 37.5656 40.155C37.2343 40.5724 36.7165 41.0733 36.2402 41.115C35.4325 41.1985 34.5006 41.1568 33.7964 40.802C29.0953 38.4019 25.616 34.7705 23.2965 29.9913C22.9859 29.3652 22.9237 28.5721 22.903 27.8416C22.8616 26.986 23.2965 26.3181 24.1042 25.9216C24.5391 25.7129 24.974 25.4833 25.4089 25.2537C26.2787 24.7946 26.5065 24.2937 26.258 23.3337C26.1338 22.8746 25.9681 22.4363 25.8024 21.998C25.2225 20.4119 24.6634 18.8049 24.0214 17.2396C23.5864 16.1752 22.9859 15.9248 21.8882 16.1335C18.4297 16.8222 16.0895 19.6397 16.0895 23.1876C16.0895 25.7129 16.9593 27.9877 18.1397 30.1791C19.7137 33.1009 21.7847 35.6679 24.0421 38.068C27.0657 41.3029 30.2757 44.3082 34.1692 46.4369C36.0538 47.4804 38.0212 48.19 39.8851 48.2526Z" fill="black"/>
</svg>
