<svg width="24" height="26" viewBox="0 0 24 26" fill="none" xmlns="http://www.w3.org/2000/svg">
<path d="M18.4811 25.5948C16.3539 25.5948 11.1827 22.8744 6.84093 17.0347C2.78005 11.5729 0.805176 7.62756 0.805176 4.97281C0.805176 2.88244 2.24893 1.88494 3.02418 1.34856L3.2158 1.21469C4.07243 0.602189 5.40505 0.403564 5.91605 0.403564C6.81205 0.403564 7.18917 0.927689 7.41755 1.38444C7.6118 1.77119 9.22093 5.22569 9.38368 5.65531C9.63393 6.31594 9.55167 7.27844 8.77817 7.83231L8.64255 7.92681C8.25843 8.19281 7.54443 8.68719 7.44555 9.28919C7.39743 9.58144 7.49543 9.88769 7.7448 10.2237C8.98993 11.9019 12.9668 16.8299 13.6834 17.4984C14.2452 18.0234 14.9566 18.0978 15.4413 17.6892C15.9427 17.2666 16.1658 17.0172 16.1676 17.0137L16.2192 16.9638C16.2612 16.9279 16.6532 16.6173 17.2937 16.6173C17.7557 16.6173 18.2255 16.7766 18.6902 17.0907C19.8959 17.9053 22.6163 19.7253 22.6163 19.7253L22.66 19.7586C23.0083 20.0569 23.5114 20.9162 22.9243 22.0344C22.3162 23.1956 20.4305 25.5922 18.4802 25.5922L18.4811 25.5948ZM5.91517 1.33806C5.4733 1.33806 4.38743 1.52444 3.75743 1.97506L3.55443 2.11681C2.8308 2.61731 1.73793 3.37244 1.73793 4.97369C1.73793 7.42106 3.65242 11.1844 7.58905 16.4791C11.8888 22.2619 16.8046 24.6629 18.4802 24.6629C19.9056 24.6629 21.5401 22.6714 22.0983 21.6057C22.4413 20.9512 22.1604 20.5819 22.0633 20.4822C21.7483 20.2713 19.2948 18.6298 18.1669 17.8677C17.8598 17.6594 17.5649 17.5544 17.2928 17.5544C17.0452 17.5544 16.8824 17.6419 16.8273 17.6769C16.7363 17.7741 16.4861 18.0313 16.0407 18.4058C15.2086 19.1067 13.9424 19.0218 13.0447 18.1836C12.2371 17.4293 8.1578 12.3508 6.99318 10.7819C6.59067 10.2394 6.4323 9.68644 6.52242 9.13956C6.68605 8.14819 7.6118 7.50681 8.1088 7.16206L8.23305 7.07544C8.67755 6.75781 8.58305 6.18294 8.50955 5.98869C8.37217 5.62644 6.78317 2.20694 6.58192 1.80531C6.41742 1.47631 6.28792 1.33894 5.91342 1.33894L5.91517 1.33806Z" fill="black"/>
</svg>
