<?xml version="1.0" encoding="utf-8"?>
<!-- Generator: Adobe Illustrator 17.1.0, SVG Export Plug-In . SVG Version: 6.00 Build 0)  -->
<!DOCTYPE svg PUBLIC "-//W3C//DTD SVG 1.1//EN" "http://www.w3.org/Graphics/SVG/1.1/DTD/svg11.dtd">
<svg version="1.1" id="Capa_1" xmlns="http://www.w3.org/2000/svg" xmlns:xlink="http://www.w3.org/1999/xlink" x="0px" y="0px"
	 viewBox="135 0 30 30" enable-background="new 135 0 30 30" xml:space="preserve">
<g>
	<g>
		<path fill="#3DAFC4" d="M163.7,10.6c-0.8-0.9-2-1.4-3.2-1.4h-3.1V7.5c0-0.4-0.3-0.7-0.7-0.7h-14.7c-0.4,0-0.7,0.3-0.7,0.7v2.6
			h-2.9c-0.4,0-0.7,0.3-0.7,0.7s0.3,0.7,0.7,0.7h3.6c0,0,0,0,0,0c0,0,0,0,0,0c0.4,0,0.7-0.3,0.7-0.7V8.3h13.2v1.7v9.9h-6.9
			c0,0-0.1,0-0.1,0c-0.4-0.9-1.3-1.6-2.3-1.6c-1,0-1.9,0.7-2.3,1.6c-0.1,0-0.1,0-0.2,0h-1.5v-2.6c0-0.4-0.3-0.7-0.7-0.7c0,0,0,0,0,0
			c0,0,0,0,0,0h-3.5c-0.4,0-0.7,0.3-0.7,0.7c0,0.4,0.3,0.7,0.7,0.7h2.9v2.6c0,0.4,0.3,0.7,0.7,0.7h2.2c0,0,0,0,0,0
			c0.2,1.1,1.2,1.9,2.4,1.9c1.2,0,2.2-0.8,2.4-1.9h7.6h1.2c0.3,1.1,1.2,1.9,2.4,1.9c1.2,0,2.2-0.8,2.4-1.9h1.6
			c0.4,0,0.7-0.3,0.7-0.7v-6.1C165,12.8,164.5,11.5,163.7,10.6z M146.6,21.7c-0.6,0-1-0.4-1-1c0-0.6,0.4-1,1-1c0.6,0,1,0.4,1,1
			C147.6,21.3,147.1,21.7,146.6,21.7z M160.2,21.7c-0.6,0-1-0.4-1-1c0-0.6,0.4-1,1-1c0.6,0,1,0.4,1,1
			C161.2,21.3,160.8,21.7,160.2,21.7z M163.5,19.8h-1c-0.4-0.9-1.3-1.5-2.3-1.5s-1.9,0.6-2.3,1.5h-0.6v-9.1h3.1
			c1.9,0,3.1,1.4,3.1,3.8V19.8z"/>
		<path fill="#3DAFC4" d="M147.6,15.4c-0.3,0.3-0.3,0.8,0,1c0.1,0.1,0.3,0.2,0.5,0.2s0.4-0.1,0.5-0.2l1.9-1.9l0,0c0,0,0,0,0,0
			c0,0,0,0,0,0s0,0,0,0c0,0,0,0,0,0c0,0,0,0,0,0c0,0,0,0,0,0c0,0,0,0,0,0c0,0,0,0,0,0c0,0,0,0,0,0c0,0,0,0,0,0c0,0,0,0,0,0
			c0,0,0,0,0,0c0,0,0,0,0,0c0,0,0-0.1,0-0.1c0,0,0,0,0,0c0,0,0,0,0,0c0,0,0,0,0,0c0,0,0,0,0,0c0,0,0,0,0,0c0,0,0,0,0,0c0,0,0,0,0,0
			c0,0,0,0,0,0c0,0,0,0,0,0s0,0,0,0c0,0,0,0,0,0c0,0,0,0,0,0c0,0,0,0,0,0l0,0l-1.8-1.8c-0.3-0.3-0.8-0.3-1,0c-0.3,0.3-0.3,0.8,0,1
			l0.5,0.5h-12.6c-0.4,0-0.7,0.3-0.7,0.7s0.3,0.7,0.7,0.7h12.5L147.6,15.4z"/>
	</g>
</g>
</svg>
