<svg xmlns="http://www.w3.org/2000/svg" viewBox="0 0 512 512"><path fill="#3DADC2" d="M425 235V69.3c.1-16-12.8-29.1-28.9-29.3h-24.7V11c0-5.8-4.6-10.9-10.5-10.9h-64.6c-5.9.2-10.7 5-10.9 10.9v29H139.6V11C139.5 5.1 134.7.3 128.8.1H64.1c-5.9.2-10.6 5-10.6 10.9v29H29c-16.1.1-29 13.2-29 29.3v319.2c-.1 16.1 12.9 29.2 29 29.3h203.5c20.5 54.6 73.4 94.1 135.4 94.1 79.5 0 144.2-64.7 144.2-144.4 0-57.6-34.2-109.7-87.1-132.5zm-57.2-12c-4.6 0-9.1.6-13.6.6h-26.8v-61.9H404v61.9h-22.6c-4.4 0-9-.6-13.6-.6zm-249.2 83.5v-61.9h84v61.9h-84zm83.9 21v69.3h-84v-69.3h84zm103.9-165.8v61.9h-82.9v-61.9h82.9zm-103.9 61.9h-84v-61.9h84v61.9zm-104.9 0H21v-61.9h76.6v61.9zm0 21v61.9H21v-61.9h76.6zm125.9 0h68.4c-23.8 15-42.9 36.5-54.9 61.9h-13.5v-61.9zm82.9-223.5h44.1v65.1h-44.1V21.1zm-231.9 0h44.1v65.1H74.5V21.1zM29 61h24.6v35.4c0 5.9 4.7 10.7 10.6 10.8h64.6c5.9-.1 10.7-4.9 10.8-10.8V61h145.9v35.4c.2 5.9 5 10.7 10.9 10.8H361c5.9-.1 10.5-4.9 10.5-10.8V61h24.7c4.5.1 8 3.8 7.9 8.3v71.5H21V69.3c0-4.5 3.5-8.2 8-8.3zm-8 327.5v-61h76.6v69.3H29c-4.5-.1-8.1-3.8-8-8.3zm202.5 8.3v-69.3h5.7c-3.8 13-5.7 26.5-5.7 40.1 0 9.8 1 19.6 2.9 29.2h-2.9zm144.3 94c-68 0-123.3-55.4-123.3-123.4 0-63.7 48.6-116.5 110.7-122.8h25.4c62.1 6.3 110.7 59.1 110.7 122.8-.1 68-55.4 123.4-123.5 123.4z"/><path fill="#FFF" stroke="#FFF" stroke-width="3" stroke-miterlimit="10" d="M367.8 511.5c79.6 0 144.2-64.5 144.2-144.1 0-1.6 0-3.2-.1-4.8v-1.2c-.1-1.4-.1-2.9-.2-4.3v-.5c-.1-1.7-.3-3.4-.5-5.1v-.3c-3.3-29.9-15.9-57.5-35.3-79.5 0 0 0 0 0 0-13.8-15.5-31-28.2-50.8-36.8v-.1c-13.9-6-29-9.9-44.8-11.3-2.8-.1-5.7-.3-8.6-.5-1.3 0-2.6-.1-3.9-.1h-3.6c-3 .2-5.9.4-8.9.5-23.1 2-44.7 9.4-63.4 21h0c-23.8 15-42.9 36.5-54.9 61.9h-.1c-3.1 6.7-5.8 13.7-7.8 21h.1c-3.3 11.4-5.2 23.1-5.6 34.9v.1c-.1 1.6-.1 3.3-.1 4.9v3.6c2.1 78.2 65.9 140.7 144.3 140.7zm-12.6-266.9h25.4c62.1 6.3 110.7 59.1 110.7 122.8-.1 68-55.4 123.4-123.5 123.4-68 0-123.3-55.4-123.3-123.4 0-63.7 48.6-116.5 110.7-122.8z"/><path fill="#FFF" d="M399.8 334.8l-43 43-20.9-21.1c-4.1-4.1-10.7-4.2-14.8-.1-4.1 4.1-4.2 10.7-.1 14.8l28.3 28.5c2 2 4.7 3.1 7.5 3 2.8 0 5.5-1.1 7.5-3l50.5-50.5c2-2 3.1-4.6 3.1-7.4s-1.1-5.4-3.1-7.4c-4.2-4-10.9-4-15 .2z"/></svg>