<svg xmlns="http://www.w3.org/2000/svg" viewBox="0 0 512 512"><path fill="#3DADC2" d="M354 64h-54v-2.6c0-16-13-29-29-29h-18.5C244 13 224.6 0 203 0h-2c-21.7 0-41.1 13-49.5 32.4H133c-16 0-29 13-29 29V64H50C18.7 64 0 79 0 104v358c0 27.6 22.4 50 50 50h304c27.6 0 50-22.4 50-50V235.7c0-5.5-4.5-10-10-10s-10 4.5-10 10V462c0 16.5-13.5 30-30 30H50c-16.5 0-30-13.5-30-30V104c0-4.9 0-20 30-20h54v14c0 5.5 4.5 10 10 10h176c5.5 0 10-4.5 10-10V84h54c16.5 0 30 13.5 30 30v33.7c0 5.5 4.5 10 10 10s10-4.5 10-10V114c0-27.6-22.4-50-50-50zm-74 24H124V61.4c0-4.9 4-9 9-9h25.6c4.5 0 8.5-3 9.7-7.4 4-14.8 17.5-25.1 32.8-25.1h1.9c15.3 0 28.8 10.3 32.8 25.1 1.2 4.4 5.1 7.4 9.6 7.4H271c4.9 0 9 4 9 9V88z"/><path fill="#FFF" d="M394 179.5c-2.6 0-5.2 1.1-7.1 2.9-1.9 1.9-2.9 4.4-2.9 7.1 0 2.6 1.1 5.2 2.9 7.1 1.9 1.9 4.4 2.9 7.1 2.9s5.2-1.1 7.1-2.9c1.9-1.9 2.9-4.4 2.9-7.1 0-2.6-1.1-5.2-2.9-7.1s-4.5-2.9-7.1-2.9zM502 322c-2.6 0-5.2 1.1-7.1 2.9s-2.9 4.4-2.9 7.1 1.1 5.2 2.9 7.1 4.4 2.9 7.1 2.9 5.2-1.1 7.1-2.9 2.9-4.4 2.9-7.1-1.1-5.2-2.9-7.1-4.5-2.9-7.1-2.9z"/><path fill="#3DADC2" d="M511.1 185.4l-32-71.5c-1.6-3.6-5.2-5.9-9.1-5.9s-7.5 2.3-9.1 5.9l-32 71.5c-.6 1.3-.9 2.7-.9 4.1v298.6c0 13.2 10.7 23.9 23.9 23.9h36.3c13.2 0 23.9-10.7 23.9-23.9V375.7c0-5.5-4.5-10-10-10s-10 4.5-10 10v69.9h-44V199.5h44v92.3c0 5.5 4.5 10 10 10s10-4.5 10-10V189.5c-.1-1.4-.4-2.8-1-4.1zM470 142.5l16.6 37h-33.1l16.5-37zm22 323.1v22.5c0 2.1-1.7 3.9-3.9 3.9h-36.3c-2.1 0-3.9-1.7-3.9-3.9v-22.5H492z"/><path fill="#FFF" d="M117.7 144c-23.2 0-42 18.8-42 42s18.8 42 42 42 42-18.8 42-42-18.9-42-42-42zm0 64c-12.1 0-22-9.9-22-22s9.9-22 22-22 22 9.9 22 22-9.9 22-22 22zm0 56c-23.2 0-42 18.8-42 42s18.8 42 42 42 42-18.8 42-42-18.9-42-42-42zm0 64c-12.1 0-22-9.9-22-22s9.9-22 22-22 22 9.9 22 22-9.9 22-22 22zm0 56c-23.2 0-42 18.8-42 42s18.8 42 42 42 42-18.8 42-42-18.9-42-42-42zm0 64c-12.1 0-22-9.9-22-22s9.9-22 22-22 22 9.9 22 22-9.9 22-22 22zm200.6-240H203.7c-5.5 0-10 4.5-10 10s4.5 10 10 10h114.7c5.5 0 10-4.5 10-10s-4.5-10-10.1-10zm0-48H203.7c-5.5 0-10 4.5-10 10s4.5 10 10 10h114.7c5.5 0 10-4.5 10-10s-4.5-10-10.1-10zm0 168H203.7c-5.5 0-10 4.5-10 10s4.5 10 10 10h114.7c5.5 0 10-4.5 10-10s-4.5-10-10.1-10zm0-48H203.7c-5.5 0-10 4.5-10 10s4.5 10 10 10h114.7c5.5 0 10-4.5 10-10s-4.5-10-10.1-10zm0 168H203.7c-5.5 0-10 4.5-10 10s4.5 10 10 10h114.7c5.5 0 10-4.5 10-10s-4.5-10-10.1-10zm0-48H203.7c-5.5 0-10 4.5-10 10s4.5 10 10 10h114.7c5.5 0 10-4.5 10-10s-4.5-10-10.1-10z"/></svg>