<svg xmlns="http://www.w3.org/2000/svg" viewBox="0 0 512 512"><path fill="#3DADC2" d="M362.7 224H352v106.7h-96V352h106.7c5.9 0 10.7-4.8 10.7-10.7V234.7c-.1-5.9-4.8-10.7-10.7-10.7zM256 128v21.3c29.5 0 53.3 23.9 53.3 53.3 0 29.5-23.9 53.3-53.3 53.3v21.3c41.2 0 74.7-33.4 74.7-74.7 0-41.1-33.5-74.5-74.7-74.5zm234.7 256h-64c-29.4 0-53.3 23.9-53.3 53.3v64c0 5.9 4.8 10.7 10.7 10.7 2.8 0 5.5-1.1 7.5-3.1l106.7-106.7c2-2 3.1-4.7 3.1-7.5-.1-5.9-4.8-10.7-10.7-10.7zm-96 91.6v-38.3c0-17.7 14.3-32 32-32H465l-70.3 70.3z"/><path fill="#3DADC2" d="M448 42.7H245.3V64H448c17.7 0 32 14.3 32 32v294.3L379.6 490.7H256V512h128c2.8 0 5.5-1.1 7.5-3.1l106.7-106.7c2-2 3.1-4.7 3.1-7.5V96c0-29.4-23.9-53.3-53.3-53.3zM21.3 309.3H64v21.3H21.3zm0 128H64v21.3H21.3zm0-384H64v21.3H21.3zm0 128H64v21.3H21.3z"/><path fill="#3DADC2" d="M117.3 21.3V0H32C20.2 0 10.7 9.6 10.7 21.3v469.3c0 11.8 9.6 21.3 21.3 21.3h53.3v-21.3H32V21.3h85.3z"/><path fill="#3DADC2" d="M21.3 245.3h64v21.3h-64zm0 128h64v21.3h-64zm0-256h64v21.3h-64z"/><path fill="#FFF" d="M160 106.7h21.3v330.7H160z"/><path fill="#FFF" d="M222.9 91.2L180.2 5.9c-.9-1.6-2.3-2.9-3.9-3.9-5.3-3.1-12.1-1.4-15.2 3.9l-42.7 85.3c-.7 1.5-1.1 3.1-1.1 4.8v405.3c0 5.9 4.8 10.7 10.7 10.7h85.3c5.9 0 10.7-4.8 10.7-10.7V96c0-1.7-.4-3.3-1.1-4.8zm-20.2 399.5h-64V98.5l32-64 32 64v392.2z"/><path fill="#FFF" d="M184.5 88.5c-5.3 5.2-7.8 7.5-13.8 7.5-6 0-8.6-2.3-13.8-7.5-7.1-8.6-17.7-13.7-28.9-13.8V96c6 0 8.5 2.3 13.8 7.5 7.1 8.6 17.7 13.7 28.9 13.8 11.2-.1 21.7-5.2 28.9-13.8 5.3-5.2 7.8-7.5 13.8-7.5V74.7c-11.3.1-21.8 5.1-28.9 13.8zM149.3 32H192v21.3h-42.7zM128 426.7h85.3V448H128z"/></svg>