<svg xmlns="http://www.w3.org/2000/svg" viewBox="235 238.8 35 35"><path fill="#59267C" d="M252.5 239.3c-9.3 0-16.9 7.6-16.9 16.9 0 3.7 1.2 7.1 3.2 9.9l-2.1 6.3 6.5-2.1c2.7 1.8 5.9 2.8 9.3 2.8 9.3 0 16.9-7.6 16.9-16.9 0-9.3-7.6-16.9-16.9-16.9z"/><g fill="#FFF"><path d="M259.8 254.6c0-2.9-2.4-5.6-5.5-5.9h-.2c-.2 0-.3-.1-.5-.1-.6 0-.8.4-.8.7 0 .3 0 .5.1.6.2.3.6.3.9.4h.2c2.7.6 3.7 1.6 4.1 4.3v.2c0 .3.1 1 .8 1h.2c.7-.1.7-.7.6-1 .1-.1.1-.1.1-.2z"/><path d="M253.5 247.6h.2c4.5.7 6.6 2.8 7.2 7.4v.3c0 .4 0 1.1.8 1.1.2 0 .4-.1.6-.2.2-.3.2-.6.2-1v-.2c.1-4.7-4-8.9-8.6-9h-.6c-.7 0-.9.5-.9.8 0 .7.7.8 1.1.8zm7.1 13.3c-.1-.1-.2-.1-.3-.2-.5-.4-1-.8-1.5-1.1-.1-.1-.2-.1-.3-.2-.6-.5-1.2-.7-1.8-.7-.7 0-1.4.4-1.9 1.2-.2.4-.5.5-.9.5-.2 0-.4-.1-.7-.2-2.1-1-3.6-2.4-4.4-4.3-.4-.9-.3-1.5.4-2 .4-.3 1.2-.8 1.1-1.8-.1-1.1-2.6-4.6-3.6-4.9-.4-.2-.9-.2-1.4 0-1.2.4-2.1 1.1-2.5 2.1-.4.9-.4 2 .1 3.1 1.3 3.2 3.2 6.1 5.5 8.4 2.3 2.3 5.1 4.1 8.4 5.5.3.1.6.2.8.2h.3c1.5 0 3.4-1.4 3.9-3 .5-1.4-.4-2.1-1.2-2.6zm-6.5-9.6c-.3 0-.8 0-1 .6-.1.3-.1.5 0 .7.2.3.5.4.8.4 1 .2 1.6.7 1.7 1.8 0 .5.4.8.8.8h.1c.5-.1.8-.4.7-1.1 0-.7-.4-1.5-1-2.2-.6-.7-1.4-1-2.1-1z"/></g></svg>