<svg xmlns="http://www.w3.org/2000/svg" viewBox="235 238.8 35 35"><path fill="#4CAF50" d="M252.5 239.3c-9.3 0-16.9 7.6-16.9 16.9 0 3.7 1.2 7.1 3.2 9.9l-2.1 6.3 6.5-2.1c2.7 1.8 5.9 2.8 9.3 2.8 9.3 0 16.9-7.6 16.9-16.9-.1-9.3-7.6-16.9-16.9-16.9z"/><path fill="#FAFAFA" d="M262.3 263.2c-.4 1.1-2 2.1-3.3 2.4-.9.2-2 .3-5.9-1.3-5-2.1-8.2-7.1-8.4-7.4-.2-.3-2-2.7-2-5.1s1.2-3.6 1.7-4.1c.4-.4 1.1-.6 1.7-.6h.6c.5 0 .7.1 1.1.8.4 1 1.4 3.4 1.5 3.7.1.2.2.6.1.9-.2.3-.3.5-.5.8s-.5.5-.7.8c-.2.3-.5.6-.2 1.1.3.5 1.3 2.1 2.7 3.4 1.9 1.7 3.4 2.2 4 2.4.4.2.9.1 1.2-.2.4-.4.8-1.1 1.3-1.7.3-.5.8-.5 1.2-.4.5.2 2.9 1.4 3.4 1.6.5.2.8.4.9.6 0 .1 0 1.1-.4 2.3z"/></svg>