<svg width="30" height="31" viewBox="0 0 30 31" fill="none" xmlns="http://www.w3.org/2000/svg">
<path d="M14.9444 11.6055C12.3519 11.6055 10.2037 13.7166 10.2037 16.3462C10.2037 18.9758 12.3148 21.087 14.9444 21.087C17.5741 21.087 19.6852 18.9388 19.6852 16.3462C19.6852 13.7536 17.537 11.6055 14.9444 11.6055ZM14.9444 19.3832C13.2778 19.3832 11.9074 18.0129 11.9074 16.3462C11.9074 14.6795 13.2778 13.3092 14.9444 13.3092C16.6111 13.3092 17.9815 14.6795 17.9815 16.3462C17.9815 18.0129 16.6111 19.3832 14.9444 19.3832Z" fill="black"/>
<path d="M19.8704 12.5683C20.4636 12.5683 20.9444 12.0874 20.9444 11.4942C20.9444 10.901 20.4636 10.4202 19.8704 10.4202C19.2772 10.4202 18.7963 10.901 18.7963 11.4942C18.7963 12.0874 19.2772 12.5683 19.8704 12.5683Z" fill="black"/>
<path d="M22.6481 8.71652C21.6852 7.71652 20.3148 7.198 18.7592 7.198H11.1296C7.90739 7.198 5.75925 9.34615 5.75925 12.5684V20.161C5.75925 21.7536 6.27777 23.1239 7.3148 24.1239C8.3148 25.0869 9.64814 25.5684 11.1667 25.5684H18.7222C20.3148 25.5684 21.6481 25.0498 22.6111 24.1239C23.6111 23.161 24.1296 21.7906 24.1296 20.198V12.5684C24.1296 11.0128 23.6111 9.67948 22.6481 8.71652ZM22.5 20.198C22.5 21.3461 22.0926 22.2721 21.4259 22.9017C20.7592 23.5313 19.8333 23.8647 18.7222 23.8647H11.1667C10.0555 23.8647 9.12962 23.5313 8.46295 22.9017C7.79628 22.235 7.46295 21.3091 7.46295 20.161V12.5684C7.46295 11.4573 7.79628 10.5313 8.46295 9.86466C9.09258 9.23503 10.0555 8.9017 11.1667 8.9017H18.7963C19.9074 8.9017 20.8333 9.23503 21.5 9.9017C22.1296 10.5684 22.5 11.4943 22.5 12.5684V20.198Z" fill="black"/>
<path d="M28.986 1H0.5V30.1666H28.986V1Z" stroke="black" stroke-miterlimit="10"/>
</svg>
