<svg width="31" height="31" viewBox="0 0 31 31" fill="none" xmlns="http://www.w3.org/2000/svg">
<path d="M29.5833 1.2793H1.09729V30.4459H29.5833V1.2793Z" stroke="black" stroke-miterlimit="10"/>
<path d="M24.29 10.2907C23.6719 10.5655 23.0067 10.7508 22.3088 10.8337C23.0214 10.4071 23.5678 9.73135 23.8255 8.92521C23.1589 9.32077 22.4211 9.6078 21.6351 9.76275C21.0061 9.09245 20.1095 8.67334 19.1173 8.67334C17.2126 8.67334 15.6682 10.2177 15.6682 12.1228C15.6682 12.3928 15.6986 12.6559 15.7576 12.9088C12.8908 12.7648 10.3488 11.3917 8.64745 9.30473C8.35052 9.81394 8.18056 10.4064 8.18056 11.0392C8.18056 12.2358 8.78942 13.2917 9.71501 13.9102C9.14983 13.8921 8.61775 13.7368 8.15257 13.4784C8.15223 13.4928 8.15223 13.5074 8.15223 13.5221C8.15223 15.1931 9.3413 16.5869 10.9194 16.9043C10.63 16.9828 10.3252 17.0252 10.0106 17.0252C9.78805 17.0252 9.57201 17.0036 9.36143 16.963C9.80068 18.3333 11.0744 19.3309 12.5836 19.3586C11.4031 20.2838 9.91604 20.8354 8.29967 20.8354C8.02151 20.8354 7.74677 20.819 7.47681 20.7869C9.00376 21.7661 10.8167 22.3367 12.7645 22.3367C19.1095 22.3367 22.5787 17.0808 22.5787 12.5225C22.5787 12.373 22.5757 12.2238 22.5692 12.0757C23.2429 11.5904 23.8279 10.9825 24.29 10.2907Z" fill="black"/>
</svg>
