<svg height="480pt" viewBox="0 -40 480 480" width="480pt" xmlns="http://www.w3.org/2000/svg"><path d="m456 0h-432c-13.601562 0-24 10.398438-24 24v352c0 13.601562 10.398438 24 24 24h432c13.601562 0 24-10.398438 24-24v-352c0-13.601562-10.398438-24-24-24zm-432 16h432c4.800781 0 8 3.199219 8 8v40h-448v-40c0-4.800781 3.199219-8 8-8zm-8 360v-296h216v304h-208c-4.800781 0-8-3.199219-8-8zm440 8h-208v-304h216v296c0 4.800781-3.199219 8-8 8zm0 0"/><path d="m32 32h16v16h-16zm0 0"/><path d="m64 32h16v16h-16zm0 0"/><path d="m96 32h16v16h-16zm0 0"/><path d="m136 32h312v16h-312zm0 0"/><path d="m296 368h120v-48h-120zm16-32h88v16h-88zm0 0"/><path d="m272 96h72v16h-72zm0 0"/><path d="m272 176h168v-48h-168zm16-32h136v16h-136zm0 0"/><path d="m272 240h168v-48h-168zm16-32h136v16h-136zm0 0"/><path d="m272 304h168v-48h-168zm16-32h136v16h-136zm0 0"/><path d="m136 140.800781-42.398438 45.597657-13.601562-13.597657-40 40v51.199219h168v-51.199219zm56 107.199219h-136v-28.800781l24-24 34.398438 34.402343 11.203124-11.203124-20.800781-20.796876 31.199219-33.601562 56 56zm0 0"/><path d="m80 160c13.601562 0 24-10.398438 24-24s-10.398438-24-24-24-24 10.398438-24 24 10.398438 24 24 24zm0-32c4.800781 0 8 3.199219 8 8s-3.199219 8-8 8-8-3.199219-8-8 3.199219-8 8-8zm0 0"/><path d="m40 288h168v16h-168zm0 0"/><path d="m40 328h168v16h-168zm0 0"/></svg>