<?xml version="1.0" encoding="utf-8"?>
<!-- Generator: Adobe Illustrator 22.0.1, SVG Export Plug-In . SVG Version: 6.00 Build 0)  -->
<svg version="1.1" id="Capa_1" xmlns="http://www.w3.org/2000/svg" xmlns:xlink="http://www.w3.org/1999/xlink" x="0px" y="0px"
	 viewBox="0 0 512 512" style="enable-background:new 0 0 512 512;" xml:space="preserve">
<style type="text/css">
	.st0{fill:#FFFFFF;}
</style>
<g>
	<g>
		<g id="Menu_1_">
			<path class="st0" d="M512,144c0-8.8-7.2-16-16-16H16c-8.8,0-16,7.2-16,16c0,8.8,7.2,16,16,16h480C504.8,160,512,152.8,512,144z"
				/>
			<path class="st0" d="M0,256c0,8.8,7.2,16,16,16h480c8.8,0,16-7.2,16-16c0-8.8-7.2-16-16-16H16C7.2,240,0,247.2,0,256z"/>
			<path class="st0" d="M0,368c0,8.8,7.2,16,16,16h320c8.8,0,16-7.2,16-16c0-8.8-7.2-16-16-16H16C7.2,352,0,359.2,0,368z"/>
		</g>
	</g>
</g>
</svg>
