<svg width="88" height="88" viewBox="0 0 88 88" fill="none" xmlns="http://www.w3.org/2000/svg">
<path d="M67.7188 86.2812H5.15625C3.26562 86.2812 1.71875 84.7344 1.71875 82.8438V5.15625C1.71875 3.26562 3.26562 1.71875 5.15625 1.71875H67.7188C69.6094 1.71875 71.1562 3.26562 71.1562 5.15625V82.8438C71.1562 84.7344 69.6266 86.2812 67.7188 86.2812Z" fill="white"/>
<path d="M75.0406 27.6031L76.0203 25.9016C77.5328 23.2719 80.9016 22.3781 83.5312 23.8906C86.1609 25.4031 87.0547 28.7719 85.5422 31.4016L63.9203 68.8703L54.3984 63.3703L63.7312 47.2141L75.0406 27.6031Z" fill="#3498DB"/>
<path d="M83.5309 23.8906C80.9012 22.3781 77.5325 23.2719 76.02 25.9016L73.459 30.3187L82.9809 35.8187L85.5418 31.4016C87.0715 28.7719 86.1606 25.4031 83.5309 23.8906Z" fill="#3498DB"/>
<path d="M63.9207 68.8704L52.8691 77L54.3816 63.3704L63.9207 68.8704Z" fill="#3498DB"/>
<path d="M71.1562 68.4578C70.2109 68.4578 69.4375 69.2312 69.4375 70.1766V82.8438C69.4375 83.7891 68.6641 84.5625 67.7188 84.5625H5.15625C4.21094 84.5625 3.4375 83.7891 3.4375 82.8438V5.15625C3.4375 4.21094 4.21094 3.4375 5.15625 3.4375H67.7188C68.6641 3.4375 69.4375 4.21094 69.4375 5.15625V23.8563C69.4375 24.8016 70.2109 25.575 71.1562 25.575C72.1016 25.575 72.875 24.8016 72.875 23.8563V5.15625C72.875 2.32031 70.5547 0 67.7188 0H5.15625C2.32031 0 0 2.32031 0 5.15625V82.8438C0 85.6797 2.32031 88 5.15625 88H67.7188C70.5547 88 72.875 85.6797 72.875 82.8438V70.1766C72.875 69.2312 72.1016 68.4578 71.1562 68.4578Z" fill="black"/>
<path d="M52.25 25.0938C52.25 16.3797 45.1516 9.28125 36.4375 9.28125C27.7234 9.28125 20.625 16.3797 20.625 25.0938C20.625 29.6141 22.5328 33.7047 25.5922 36.5922C25.6437 36.6609 25.7125 36.7125 25.7812 36.7641C28.6 39.3422 32.3469 40.9062 36.4375 40.9062C40.5281 40.9062 44.2922 39.325 47.0938 36.7641C47.1625 36.7125 47.2141 36.6609 47.2828 36.5922C50.3422 33.7047 52.25 29.6141 52.25 25.0938ZM36.4375 12.7188C43.2609 12.7188 48.8125 18.2703 48.8125 25.0938C48.8125 27.8438 47.9187 30.3703 46.3891 32.4328C45.1172 30.5594 43.3641 29.0984 41.3187 28.1875C42.1266 27.1391 42.6078 25.8328 42.6078 24.4062V23.2891C42.6078 19.8687 39.8406 17.1016 36.4203 17.1016C33 17.1016 30.2328 19.8687 30.2328 23.2891V24.4062C30.2328 25.8328 30.7141 27.1391 31.5219 28.1875C29.4766 29.0984 27.7234 30.5594 26.4516 32.4328C24.9391 30.3703 24.0281 27.8438 24.0281 25.0938C24.0625 18.2703 29.6141 12.7188 36.4375 12.7188ZM33.6875 24.4062V23.2891C33.6875 21.7766 34.925 20.5391 36.4375 20.5391C37.95 20.5391 39.1875 21.7766 39.1875 23.2891V24.4062C39.1875 25.9188 37.95 27.1562 36.4375 27.1562C34.925 27.1562 33.6875 25.9188 33.6875 24.4062ZM28.9609 34.9422C30.4734 32.2609 33.2922 30.5938 36.4375 30.5938C39.5828 30.5938 42.4016 32.2609 43.9141 34.9422C41.8344 36.5234 39.2391 37.4688 36.4375 37.4688C33.6359 37.4688 31.0406 36.5234 28.9609 34.9422Z" fill="black"/>
<path d="M45.7188 75.2812H36.4375C35.4922 75.2812 34.7188 76.0547 34.7188 77C34.7188 77.9453 35.4922 78.7188 36.4375 78.7188H45.7188C46.6641 78.7188 47.4375 77.9453 47.4375 77C47.4375 76.0547 46.6641 75.2812 45.7188 75.2812Z" fill="black"/>
<path d="M45.7188 65.6562H21.3125C20.3672 65.6562 19.5938 66.4297 19.5938 67.375C19.5938 68.3203 20.3672 69.0938 21.3125 69.0938H45.7188C46.6641 69.0938 47.4375 68.3203 47.4375 67.375C47.4375 66.4297 46.6641 65.6562 45.7188 65.6562Z" fill="black"/>
<path d="M45.7188 56.0312H21.3125C20.3672 56.0312 19.5938 56.8047 19.5938 57.75C19.5938 58.6953 20.3672 59.4688 21.3125 59.4688H45.7188C46.6641 59.4688 47.4375 58.6953 47.4375 57.75C47.4375 56.8047 46.6641 56.0312 45.7188 56.0312Z" fill="black"/>
<path d="M15.1937 46.9047C14.8672 46.5781 14.4375 46.4062 13.9734 46.4062C13.5266 46.4062 13.0797 46.5953 12.7531 46.9047C12.4266 47.2312 12.2547 47.6609 12.2547 48.125C12.2547 48.5891 12.4437 49.0188 12.7531 49.3453C13.0797 49.6719 13.5094 49.8438 13.9734 49.8438C14.4203 49.8438 14.8672 49.6547 15.1937 49.3453C15.5203 49.0188 15.6922 48.5891 15.6922 48.125C15.6922 47.6609 15.5031 47.2312 15.1937 46.9047Z" fill="black"/>
<path d="M15.1937 56.5297C14.8672 56.2031 14.4375 56.0312 13.9734 56.0312C13.5266 56.0312 13.0797 56.2203 12.7531 56.5297C12.4266 56.8562 12.2547 57.2859 12.2547 57.75C12.2547 58.2141 12.4437 58.6438 12.7531 58.9703C13.0797 59.2969 13.5094 59.4688 13.9734 59.4688C14.4203 59.4688 14.8672 59.2797 15.1937 58.9703C15.5203 58.6438 15.6922 58.2141 15.6922 57.75C15.6922 57.2859 15.5031 56.8562 15.1937 56.5297Z" fill="black"/>
<path d="M13.9734 65.6562C13.5266 65.6562 13.0797 65.8453 12.7531 66.1547C12.4266 66.4812 12.2547 66.9109 12.2547 67.375C12.2547 67.8391 12.4437 68.2688 12.7531 68.5953C13.0797 68.9219 13.5094 69.0938 13.9734 69.0938C14.4203 69.0938 14.8672 68.9047 15.1937 68.5953C15.5203 68.2688 15.6922 67.8391 15.6922 67.375C15.6922 66.9109 15.5031 66.4812 15.1937 66.1547C14.8672 65.8453 14.4203 65.6562 13.9734 65.6562Z" fill="black"/>
<path d="M45.7188 46.4062H21.3125C20.3672 46.4062 19.5938 47.1797 19.5938 48.125C19.5938 49.0703 20.3672 49.8438 21.3125 49.8438H45.7188C46.6641 49.8438 47.4375 49.0703 47.4375 48.125C47.4375 47.1797 46.6641 46.4062 45.7188 46.4062Z" fill="black"/>
<path d="M84.3909 22.3953C82.7237 21.4328 80.7815 21.175 78.908 21.6734C77.0518 22.1719 75.4877 23.375 74.5252 25.0422L52.9033 62.5109C52.783 62.7172 52.7143 62.9406 52.6799 63.1813L51.1502 76.8109C51.0815 77.4812 51.408 78.1516 51.9924 78.4953C52.2674 78.65 52.5596 78.7188 52.8518 78.7188C53.2127 78.7188 53.5737 78.5984 53.8658 78.3922L64.9174 70.2625C65.1065 70.125 65.2612 69.9359 65.3815 69.7297L87.0034 32.2609C89.0315 28.8062 87.8455 24.3891 84.3909 22.3953ZM55.808 66.1719L60.7752 69.0422L55.0002 73.2875L55.808 66.1719ZM63.2846 66.5156L56.7362 62.7344L74.0955 32.6734L80.644 36.4547L63.2846 66.5156ZM84.0643 30.5422L82.3627 33.4812L75.8143 29.7L77.5159 26.7609C78.0143 25.8844 78.8393 25.2656 79.819 24.9906C80.7987 24.7328 81.8127 24.8703 82.6893 25.3687C83.5659 25.8672 84.1846 26.6922 84.4596 27.6719C84.7002 28.6516 84.5627 29.6656 84.0643 30.5422Z" fill="black"/>
</svg>
