<svg width="74" height="74" viewBox="0 0 74 74" fill="none" xmlns="http://www.w3.org/2000/svg">
<path d="M35.0205 21.0758C33.7132 21.7724 32.4494 22.5126 31.0984 23.0786C30.5755 23.2963 29.7039 23.3399 29.3117 23.0786C28.9195 22.7738 28.7016 21.9466 28.7888 21.3805C28.9631 19.6389 29.4424 17.9408 29.6168 16.2427C29.6603 15.6332 29.3553 14.7624 28.9195 14.3269C27.7429 13.0643 26.3919 11.9757 24.9974 10.7131C23.5157 12.0628 22.034 13.3255 20.6395 14.6753C20.3345 15.0236 20.2473 15.7638 20.3345 16.2863C20.5523 18.0279 20.9446 19.726 21.1625 21.4241C21.3803 23.2092 20.4216 23.9059 18.8092 23.0786C17.2404 22.2949 15.7587 21.3805 14.1463 20.7274C13.5797 20.4662 12.7082 20.4662 12.098 20.6839C10.5728 21.337 9.13469 22.2514 7.60943 22.948C7.0429 23.2092 6.04059 23.3834 5.69196 23.1222C5.25617 22.7303 5.08185 21.8159 5.12543 21.1628C5.29975 19.5083 5.73554 17.8537 5.86627 16.1557C5.90985 15.5896 5.64838 14.8059 5.25617 14.3705C3.90522 13.0207 2.37996 11.8887 1.02902 10.5389C0.636807 10.147 0.201018 9.31977 0.375334 8.9279C0.593228 8.40542 1.33407 7.92647 1.94417 7.79585C3.77449 7.44752 5.64838 7.36044 7.43511 6.96857C8.13237 6.79441 8.96037 6.22838 9.35258 5.57527C10.2242 4.22551 10.7907 2.65805 11.6187 1.26475C11.9237 0.698718 12.621 -0.0414737 13.0568 0.00206694C13.6669 0.0891483 14.3206 0.742259 14.6692 1.30829C15.4972 2.70159 16.0637 4.26905 16.9353 5.66235C17.2839 6.27192 18.0248 6.83795 18.722 6.96857C22.9056 7.92647 27.1328 7.88293 31.3163 6.96857C31.97 6.83795 32.7109 6.22838 33.1031 5.61881C33.9746 4.18197 34.5412 2.57097 35.4127 1.13412C35.7178 0.611636 36.4151 0.0456076 36.9816 0.00206694C37.4174 -0.0414737 38.0711 0.611636 38.3761 1.13412C39.2477 2.65805 39.9014 4.26905 40.7729 5.74944C41.1216 6.31546 41.8188 6.83795 42.4289 6.96857C46.6125 7.83939 50.8397 7.92647 55.0232 6.96857C55.6769 6.79441 56.4613 6.27192 56.81 5.66235C57.7251 4.18197 58.3352 2.52743 59.2068 1.04704C59.4683 0.568096 60.1655 0.00206694 60.6449 0.00206694C61.1243 0.00206694 61.7344 0.611636 62.0394 1.09058C62.8674 2.48389 63.6518 3.96427 64.2184 5.44465C64.6542 6.62025 65.4386 6.92503 66.5716 7.05566C68.3148 7.22982 70.0579 7.40398 71.7575 7.75231C72.3676 7.88293 73.1956 8.36187 73.3264 8.84082C73.4571 9.31977 73.0213 10.147 72.5855 10.5824C71.6268 11.5839 70.5809 12.5853 69.4043 13.4126C67.9226 14.414 67.3996 15.5896 67.9226 17.3748C68.3148 18.7246 68.4891 20.1614 68.6634 21.5547C68.8377 23.1222 67.8354 23.8188 66.4409 23.1222C64.8285 22.3384 63.3032 21.3805 61.6472 20.6839C61.0807 20.4226 60.2091 20.4226 59.599 20.6403C58.0737 21.2935 56.6356 22.2514 55.1104 22.9045C54.5439 23.1657 53.5415 23.3399 53.1929 23.0786C52.7571 22.6868 52.5392 21.7724 52.6264 21.0758C52.7571 19.5083 53.0622 17.9408 53.4108 16.4169C53.6287 15.459 53.4544 14.8059 52.7136 14.1528C51.4062 13.0643 50.186 11.9322 48.7915 10.626C47.179 12.1064 45.523 13.5432 43.8235 15.1107C44.2593 15.5896 44.5643 15.938 44.8694 16.2863C46.1767 17.6796 46.874 19.3341 46.9176 21.2935C47.0047 25.9523 46.5689 30.5241 45.1308 34.9652C45.0437 35.1829 45.0437 35.4006 44.9565 35.836C47.5712 35.836 50.0988 35.836 52.6264 35.836C53.803 35.836 55.0232 35.749 56.1999 35.9231C60.6013 36.5762 62.6059 41.3657 60.0348 44.9796C59.8605 45.2408 59.6426 45.5021 59.4247 45.7198C62.2573 49.2901 61.6472 53.3829 58.0302 55.2552C58.0302 57.1274 58.4224 58.9561 57.8994 60.4365C57.4201 61.9169 56.0255 63.049 55.1104 64.2246C55.1104 65.792 55.459 67.5772 55.0232 69.1446C54.3695 71.5829 52.3649 72.8456 49.8373 72.9327C39.422 73.2375 29.0502 72.7585 19.0271 69.4059C18.5477 69.2317 18.0684 69.1446 17.6326 68.9269C16.1073 68.1868 14.7564 67.7078 13.3618 69.3624C12.926 69.9284 11.793 70.059 10.965 70.1025C8.08879 70.1896 5.21259 70.1025 2.2928 70.1461C0.767544 70.1461 0.201019 69.4494 0.201019 67.9691C0.244598 58.9561 0.244598 49.8997 0.201019 40.8868C0.201019 39.3628 0.767544 38.7097 2.33638 38.7533C5.12543 38.7968 7.91448 38.6226 10.6599 38.8403C11.9237 38.9274 13.1004 39.7547 14.3206 40.2336C14.7128 40.4078 15.2357 40.7561 15.5408 40.6255C20.5523 38.1002 25.7382 35.9667 29.7911 31.8738C32.4494 29.1743 34.2797 26.0394 35.0641 22.2949C35.1077 22.0336 35.1513 21.7724 35.1948 21.5112C35.1513 21.3805 35.1077 21.2935 35.0205 21.0758ZM15.4536 54.4279C15.4536 57.5193 15.4972 60.6107 15.4536 63.7456C15.4536 64.7035 15.7587 65.1824 16.6738 65.5743C27.3942 70.0155 38.6376 70.5379 50.0552 70.1461C51.6241 70.1025 52.6264 68.7963 52.5828 67.2724C52.5392 65.7485 51.4498 64.66 49.8809 64.5729C48.6171 64.5293 47.3969 64.5729 46.1331 64.5293C45.0873 64.4858 44.0414 64.3116 44.1285 62.9619C44.1721 61.6992 45.1744 61.6121 46.1767 61.6557C48.3121 61.6557 50.4039 61.6992 52.5392 61.6557C54.326 61.6121 55.5026 60.393 55.5026 58.782C55.5026 57.171 54.326 56.0389 52.5392 55.9518C51.7112 55.9083 50.9268 55.9518 50.0988 55.9518C48.6171 55.9518 47.1355 56.0824 45.6974 55.8647C45.1308 55.7777 44.6515 54.9069 44.1285 54.3844C44.6515 53.949 45.1308 53.3829 45.7409 53.1652C46.3075 52.9475 47.0483 53.1217 47.702 53.1217C50.2731 53.1217 52.8007 53.1652 55.3719 53.0781C57.2458 52.9911 58.4224 51.7719 58.3352 50.0738C58.2916 48.5064 57.0714 47.4179 55.2847 47.3308C54.326 47.2872 53.3237 47.3308 52.3649 47.3308C50.1424 47.3308 47.8763 47.4179 45.6538 47.2437C45.1308 47.2001 44.6515 46.3729 44.1285 45.9375C44.6079 45.4585 45.0437 44.8925 45.6102 44.5442C46.0024 44.3265 46.5689 44.5006 47.0483 44.5006C49.7502 44.5006 52.4957 44.5442 55.1976 44.4571C57.2022 44.4136 58.3788 43.1944 58.2916 41.4528C58.2045 39.7982 56.9843 38.7968 55.0232 38.7968C49.2708 38.7968 43.4748 38.7968 37.7224 38.7968C36.7201 38.7968 35.6306 38.7968 35.5871 37.4035C35.5435 35.9231 36.6765 35.8796 37.766 35.8796C38.6812 35.8796 39.6399 35.7925 40.555 35.8796C41.4702 35.9667 41.906 35.5748 42.1675 34.704C43.6927 30.2628 44.2157 25.6911 44.0414 21.0322C43.9542 19.0729 42.5161 17.5054 40.6858 17.1571C39.1169 16.8523 38.3761 17.3748 38.3325 18.9423C38.1146 27.5633 33.6696 33.5719 26.6534 37.926C23.4721 39.8853 20.073 41.5399 16.7174 43.238C15.8023 43.7169 15.4536 44.2394 15.4972 45.2408C15.4972 48.3322 15.4536 51.3801 15.4536 54.4279ZM3.29512 41.6705C3.29512 50.3786 3.29512 58.782 3.29512 67.3595C5.64838 67.3595 7.8709 67.3595 10.0934 67.3595C12.1852 67.3595 12.5774 66.9676 12.5774 64.8777C12.5774 60.9155 12.5774 56.9533 12.5774 52.9911C12.5774 49.9432 12.5774 46.8954 12.5774 43.8475C12.5774 42.759 12.3595 41.714 10.965 41.6705C8.43742 41.6705 5.90985 41.6705 3.29512 41.6705ZM8.00164 19.3777C10.137 18.4198 11.6623 17.2442 13.1875 17.2442C14.7128 17.2442 16.238 18.4633 17.894 19.247C17.6761 18.0714 17.5454 16.9829 17.3275 15.938C17.0225 14.5882 17.2404 13.5432 18.4606 12.6724C19.3321 12.0193 20.073 11.192 21.1189 10.2341C19.6372 10.0164 18.5041 9.79872 17.4147 9.71164C16.1509 9.62455 15.2793 9.14561 14.7999 7.88293C14.3642 6.83795 13.754 5.83652 13.2311 4.79154C12.2288 6.40255 11.6623 8.31834 10.3549 9.23269C9.09111 10.1035 7.08648 9.97288 4.82038 10.3647C8.6989 12.4547 10.0934 15.1978 8.00164 19.3777ZM60.5578 4.57384C59.599 8.9279 56.81 10.4518 52.6264 10.3212C56.3742 12.4982 57.4201 15.4155 55.7641 19.4212C59.0325 16.6781 62.083 16.7652 65.395 19.6825C65.1335 18.0714 65.09 17.0265 64.7849 16.0686C64.3491 14.5882 64.7413 13.5868 65.9615 12.6724C66.8331 12.0193 67.5739 11.2356 68.4019 10.4954C68.4019 10.3212 68.4019 10.1906 68.4455 10.0164C64.2184 10.5389 61.6036 8.79728 60.5578 4.57384ZM29.0502 9.97288C29.0938 10.147 29.0938 10.3212 29.1374 10.4954C30.009 11.2791 30.837 12.1499 31.7521 12.8901C32.6673 13.6303 32.9723 14.414 32.6673 15.5896C32.3622 16.6781 32.3186 17.8537 32.1007 19.3341C33.7567 18.2891 35.282 17.9408 36.11 16.2427C36.5458 15.3284 37.9403 14.3705 38.8991 14.3705C41.8188 14.2834 42.5161 11.5839 44.5643 10.2341C40.3807 10.5389 37.8967 8.75374 36.8073 4.61738C35.7614 8.84082 33.1902 10.5389 29.0502 9.97288Z" fill="white"/>
<path d="M8.00169 19.3777C10.0935 15.1978 8.69895 12.4547 4.77685 10.3647C7.04295 9.97287 9.04758 10.1035 10.3114 9.23268C11.6187 8.36187 12.1853 6.44608 13.1876 4.79153C13.7541 5.83651 14.3642 6.83794 14.7564 7.88292C15.2358 9.10206 16.1074 9.62454 17.3711 9.71163C18.5042 9.79871 19.5937 10.0164 21.0754 10.2341C20.0295 11.192 19.2886 12.0193 18.417 12.6724C17.2404 13.5432 16.9789 14.5882 17.284 15.9379C17.5019 16.9829 17.6762 18.0279 17.8505 19.247C16.1509 18.4633 14.6693 17.2442 13.144 17.2442C11.6623 17.2442 10.1371 18.4198 8.00169 19.3777Z" fill="#3498DB"/>
<path d="M60.5578 4.57383C61.6037 8.79728 64.2184 10.5389 68.4455 9.97287C68.4455 10.147 68.4455 10.2777 68.402 10.4518C67.6175 11.192 66.8331 12.0193 65.9616 12.6289C64.7413 13.4997 64.3491 14.5446 64.7849 16.025C65.09 16.9829 65.1336 18.0279 65.395 19.6389C62.083 16.7217 58.9889 16.6346 55.7641 19.3777C57.4201 15.3719 56.3742 12.4547 52.6264 10.2777C56.81 10.4083 59.599 8.9279 60.5578 4.57383Z" fill="#3498DB"/>
<path d="M29.0502 9.97287C33.1902 10.4954 35.7614 8.79728 36.8073 4.61737C37.8967 8.75374 40.4243 10.5389 44.5643 10.2341C42.5161 11.5839 41.8624 14.2834 38.899 14.3705C37.8967 14.414 36.5458 15.3719 36.11 16.2427C35.282 17.9408 33.7132 18.2891 32.1007 19.3341C32.3186 17.8537 32.3622 16.6781 32.6673 15.5896C32.9723 14.414 32.6673 13.6303 31.7521 12.8901C30.837 12.1499 30.009 11.3226 29.1374 10.4954C29.1374 10.3647 29.0938 10.1906 29.0502 9.97287Z" fill="#3498DB"/>
<path d="M6.43273 51.5107C6.43273 50.248 6.43273 49.0289 6.43273 47.7662C6.43273 46.7648 6.78136 45.8504 7.82725 46.0246C8.39378 46.1116 9.1782 47.026 9.22178 47.592C9.35251 50.2915 9.35251 53.0346 9.22178 55.7341C9.1782 56.3002 8.26304 56.7791 7.78367 57.3016C7.34788 56.7356 6.60704 56.1695 6.51988 55.56C6.30199 54.2537 6.43273 52.8604 6.43273 51.5107Z" fill="white"/>
<path d="M7.82719 59.6092C8.48088 60.5671 9.22172 61.1332 9.13456 61.525C9.00382 62.091 8.30656 62.7442 7.78361 62.8748C7.47856 62.9619 6.5634 62.091 6.5634 61.6556C6.51983 61.1332 7.17351 60.5671 7.82719 59.6092Z" fill="white"/>
</svg>
