<?xml version="1.0" encoding="utf-8"?>
<!-- Generator: Adobe Illustrator 23.0.6, SVG Export Plug-In . SVG Version: 6.00 Build 0)  -->
<svg version="1.1" xmlns="http://www.w3.org/2000/svg" xmlns:xlink="http://www.w3.org/1999/xlink" x="0px" y="0px"
	 viewBox="0 0 34 34" style="enable-background:new 0 0 34 34;" xml:space="preserve">
<style type="text/css">
	.st0{display:none;}
	.st1{display:inline;}
	.st2{clip-path:url(#SVGID_2_);}
	.st3{clip-path:url(#SVGID_4_);}
	.st4{fill:#FFFFFF;}
	.st5{fill:none;stroke:#FFFFFF;stroke-miterlimit:10;}
	.st6{clip-path:url(#SVGID_6_);}
	.st7{clip-path:url(#SVGID_8_);}
	.st8{clip-path:url(#SVGID_10_);}
	.st9{clip-path:url(#SVGID_12_);}
	.st10{clip-path:url(#SVGID_14_);}
	.st11{clip-path:url(#SVGID_16_);}
	.st12{clip-path:url(#SVGID_18_);}
	.st13{clip-path:url(#SVGID_20_);fill:#FFFFFF;}
	.st14{clip-path:url(#SVGID_22_);fill:#FFFFFF;}
	.st15{clip-path:url(#SVGID_24_);fill:#FFFFFF;}
</style>
<g id="Слой_1">
	<circle class="st5" cx="17" cy="17" r="16"/>
	<g class="st0">
		<g class="st1">
			<defs>
				<rect id="SVGID_9_" x="2" y="2" width="30.24" height="30.24"/>
			</defs>
			<clipPath id="SVGID_2_">
				<use xlink:href="#SVGID_9_"  style="overflow:visible;"/>
			</clipPath>
			<g class="st2">
				<defs>
					<rect id="SVGID_11_" x="2" y="2" width="30.24" height="30.24"/>
				</defs>
				<clipPath id="SVGID_4_">
					<use xlink:href="#SVGID_11_"  style="overflow:visible;"/>
				</clipPath>
				<path class="st3" d="M19.01,13.34v-2.25c0-1.02,0.22-1.53,1.8-1.53h1.98V5.78h-3.3c-4.05,0-5.38,1.85-5.38,5.04v2.52h-2.66v3.78
					h2.66v11.34h4.9V17.12h3.33l0.45-3.78H19.01z"/>
			</g>
		</g>
	</g>
	<g>
		<defs>
			<rect id="SVGID_19_" x="2" y="2" width="30" height="30"/>
		</defs>
		<clipPath id="SVGID_6_">
			<use xlink:href="#SVGID_19_"  style="overflow:visible;"/>
		</clipPath>
		<path style="clip-path:url(#SVGID_6_);fill:#FFFFFF;" d="M18.88,13.25v-2.23c0-1.01,0.22-1.52,1.79-1.52h1.96V5.75h-3.28
			c-4.01,0-5.34,1.84-5.34,5v2.5h-2.64V17h2.64v11.25h4.86V17h3.3l0.45-3.75H18.88z"/>
	</g>
</g>
<g id="Слой_2">
</g>
</svg>
