<?xml version="1.0" encoding="utf-8"?>
<!-- Generator: Adobe Illustrator 23.0.6, SVG Export Plug-In . SVG Version: 6.00 Build 0)  -->
<svg version="1.1" xmlns="http://www.w3.org/2000/svg" xmlns:xlink="http://www.w3.org/1999/xlink" x="0px" y="0px"
	 viewBox="0 0 34 34" style="enable-background:new 0 0 34 34;" xml:space="preserve">
<style type="text/css">
	.st0{display:none;}
	.st1{display:inline;}
	.st2{clip-path:url(#SVGID_2_);}
	.st3{clip-path:url(#SVGID_4_);}
	.st4{fill:#FFFFFF;}
	.st5{fill:none;stroke:#FFFFFF;stroke-miterlimit:10;}
	.st6{clip-path:url(#SVGID_6_);}
	.st7{clip-path:url(#SVGID_8_);}
	.st8{clip-path:url(#SVGID_10_);}
	.st9{clip-path:url(#SVGID_12_);}
	.st10{clip-path:url(#SVGID_14_);}
	.st11{clip-path:url(#SVGID_16_);}
	.st12{clip-path:url(#SVGID_18_);}
	.st13{clip-path:url(#SVGID_20_);fill:#FFFFFF;}
	.st14{clip-path:url(#SVGID_22_);fill:#FFFFFF;}
	.st15{clip-path:url(#SVGID_24_);fill:#FFFFFF;}
</style>
<g id="Слой_1">
	<circle class="st5" cx="16.87" cy="17.43" r="16"/>
	<g class="st0">
		<g class="st1">
			<defs>
				<rect id="SVGID_5_" x="3" y="4" width="27.17" height="27.06"/>
			</defs>
			<clipPath id="SVGID_2_">
				<use xlink:href="#SVGID_5_"  style="overflow:visible;"/>
			</clipPath>
			<g class="st2">
				<defs>
					<rect id="SVGID_7_" x="3" y="4" width="27.17" height="27.06"/>
				</defs>
				<clipPath id="SVGID_4_">
					<use xlink:href="#SVGID_7_"  style="overflow:visible;"/>
				</clipPath>
				<path class="st3" d="M27.4,11.89h-3.73c-0.31,0-0.59,0.17-0.74,0.44c0,0-1.49,2.73-1.96,3.64c-1.28,2.47-2.12,1.69-2.12,0.55
					v-3.95c0-0.69-0.56-1.25-1.25-1.25h-2.8c-0.78-0.06-1.53,0.29-1.98,0.92c0,0,1.42-0.23,1.42,1.68c0,0.47,0.02,1.83,0.05,2.98
					c0.01,0.34-0.2,0.66-0.52,0.79c-0.32,0.13-0.69,0.04-0.92-0.22c-1.15-1.59-2.1-3.31-2.83-5.12c-0.13-0.28-0.41-0.45-0.71-0.45
					c-0.81,0-2.42,0-3.38,0c-0.19,0-0.37,0.09-0.48,0.24c-0.11,0.15-0.13,0.35-0.07,0.53C6.4,15.47,10.83,24.3,15.88,24.3h2.13
					c0.46,0,0.84-0.37,0.84-0.84v-1.28c0-0.33,0.2-0.62,0.5-0.75c0.3-0.13,0.65-0.07,0.89,0.16l2.55,2.38
					c0.23,0.21,0.53,0.33,0.84,0.33h3.34c1.61,0,1.61-1.11,0.73-1.98c-0.62-0.61-2.85-2.95-2.85-2.95c-0.4-0.41-0.43-1.04-0.09-1.49
					c0.72-0.95,1.9-2.49,2.4-3.16C27.86,13.81,29.09,11.89,27.4,11.89z"/>
			</g>
		</g>
	</g>
	<path class="st4" d="M27.68,11.36h-3.81c-0.32,0-0.61,0.17-0.76,0.45c0,0-1.52,2.8-2.01,3.74c-1.31,2.53-2.16,1.74-2.16,0.56v-4.06
		c0-0.71-0.57-1.28-1.28-1.28H14.8c-0.79-0.06-1.56,0.3-2.03,0.94c0,0,1.45-0.24,1.45,1.72c0,0.49,0.03,1.88,0.05,3.06
		c0.01,0.35-0.2,0.68-0.53,0.81c-0.33,0.13-0.7,0.04-0.94-0.22c-1.17-1.63-2.14-3.4-2.89-5.26c-0.13-0.28-0.42-0.47-0.73-0.47
		c-0.83,0-2.48,0-3.46,0c-0.19,0-0.37,0.09-0.49,0.25c-0.11,0.16-0.14,0.36-0.07,0.54c1.05,2.88,5.58,11.94,10.74,11.94h2.17
		c0.47,0,0.86-0.38,0.86-0.86v-1.31c0-0.34,0.2-0.64,0.51-0.77c0.31-0.13,0.67-0.07,0.91,0.16l2.6,2.44
		c0.23,0.22,0.54,0.34,0.86,0.34h3.42c1.65,0,1.65-1.14,0.75-2.03c-0.63-0.62-2.91-3.03-2.91-3.03c-0.4-0.42-0.44-1.07-0.09-1.53
		c0.74-0.97,1.94-2.56,2.46-3.24C28.15,13.33,29.41,11.36,27.68,11.36z"/>
</g>
<g id="Слой_2">
</g>
</svg>
