<?xml version="1.0" encoding="utf-8"?>
<!-- Generator: Adobe Illustrator 23.0.6, SVG Export Plug-In . SVG Version: 6.00 Build 0)  -->
<svg version="1.1" xmlns="http://www.w3.org/2000/svg" xmlns:xlink="http://www.w3.org/1999/xlink" x="0px" y="0px"
	 viewBox="0 0 34 34" style="enable-background:new 0 0 34 34;" xml:space="preserve">
<style type="text/css">
	.st0{display:none;}
	.st1{display:inline;}
	.st2{clip-path:url(#SVGID_2_);}
	.st3{clip-path:url(#SVGID_4_);}
	.st4{fill:#FFFFFF;}
	.st5{fill:none;stroke:#FFFFFF;stroke-miterlimit:10;}
	.st6{clip-path:url(#SVGID_6_);}
	.st7{clip-path:url(#SVGID_8_);}
	.st8{clip-path:url(#SVGID_10_);}
	.st9{clip-path:url(#SVGID_12_);}
	.st10{clip-path:url(#SVGID_14_);}
	.st11{clip-path:url(#SVGID_16_);}
	.st12{clip-path:url(#SVGID_18_);}
	.st13{clip-path:url(#SVGID_20_);fill:#FFFFFF;}
	.st14{clip-path:url(#SVGID_22_);fill:#FFFFFF;}
	.st15{clip-path:url(#SVGID_24_);fill:#FFFFFF;}
</style>
<g id="Слой_1">
	<g class="st0">
		<g class="st1">
			<defs>
				<rect id="SVGID_1_" x="4.24" y="4.24" width="25.76" height="25.76"/>
			</defs>
			<clipPath id="SVGID_2_">
				<use xlink:href="#SVGID_1_"  style="overflow:visible;"/>
			</clipPath>
			<g class="st2">
				<defs>
					<rect id="SVGID_3_" x="4.24" y="4.24" width="25.76" height="25.76"/>
				</defs>
				<clipPath id="SVGID_4_">
					<use xlink:href="#SVGID_3_"  style="overflow:visible;"/>
				</clipPath>
				<path class="st3" d="M12.14,14.6h1.41l0-4.88l1.67-4.18h-1.55l-0.89,3.11l-0.9-3.12h-1.53l1.78,4.19L12.14,14.6z M16.29,12.89
					c0,0.36,0.27,0.66,0.6,0.66c0.33,0,0.59-0.29,0.59-0.66V9.5c0-0.36-0.27-0.65-0.59-0.65c-0.33,0-0.6,0.29-0.6,0.65V12.89z
					 M15.12,10.36c0-0.61,0.05-1.09,0.15-1.43c0.1-0.34,0.29-0.62,0.55-0.83c0.26-0.21,0.6-0.31,1.02-0.31
					c0.35,0,0.64,0.07,0.89,0.2c0.25,0.13,0.44,0.31,0.57,0.52c0.14,0.22,0.23,0.44,0.28,0.66c0.05,0.23,0.07,0.58,0.07,1.04v1.61
					c0,0.59-0.02,1.03-0.07,1.3c-0.05,0.28-0.14,0.53-0.3,0.77c-0.15,0.24-0.34,0.42-0.58,0.53c-0.24,0.11-0.51,0.17-0.81,0.17
					c-0.34,0-0.63-0.05-0.87-0.15c-0.24-0.1-0.42-0.25-0.55-0.44c-0.13-0.2-0.23-0.44-0.28-0.71c-0.06-0.28-0.08-0.7-0.08-1.26
					L15.12,10.36z M19.65,13.96c0.07,0.17,0.18,0.31,0.32,0.41c0.14,0.1,0.33,0.15,0.55,0.15c0.19,0,0.37-0.05,0.51-0.16
					c0.15-0.11,0.27-0.27,0.38-0.48l-0.03,0.53h1.5V8.04h-1.18v4.96c0,0.27-0.22,0.49-0.49,0.49c-0.27,0-0.49-0.22-0.49-0.49V8.04
					H19.5v4.3c0,0.55,0.01,0.91,0.03,1.1C19.54,13.61,19.58,13.79,19.65,13.96 M24.82,24.32l-1.01,0.01c0,0.04,0,0.09,0,0.14v0.56
					c0,0.3-0.25,0.55-0.55,0.55h-0.2c-0.3,0-0.55-0.24-0.55-0.55v-0.06v-0.62v-0.8h2.31v-0.87c0-0.63-0.02-1.27-0.07-1.63
					c-0.17-1.15-1.78-1.33-2.59-0.74c-0.26,0.18-0.45,0.43-0.56,0.76c-0.11,0.33-0.17,0.78-0.17,1.35v1.91
					C21.43,27.5,25.28,27.05,24.82,24.32 M20.62,24.75l0-3.2c0-1.22-0.91-1.95-2.15-0.96l0.01-2.38l-1.34,0l-0.01,8.21l1.1-0.02
					l0.1-0.51C19.73,27.18,20.62,26.3,20.62,24.75 M16.32,20.34h-1.34v3.85c0,0.56,0.03,0.83,0,0.93c-0.11,0.3-0.6,0.62-0.79,0.03
					c-0.03-0.1,0-0.41,0-0.94l-0.01-3.87h-1.34l0,3.81c0,0.58-0.01,1.02,0,1.22c0.03,0.35,0.02,0.76,0.35,0.99
					c0.6,0.44,1.76-0.06,2.05-0.69l0,0.79l1.08,0L16.32,20.34z M11.49,26.47l0-7.2l1.61,0V18.2L8.8,18.2v1.05l1.34,0v7.22H11.49z
					 M26.78,18.89v6.84c0,1.64-1.42,2.98-3.16,2.98h-13c-1.74,0-3.16-1.34-3.16-2.98v-6.84c0-1.64,1.42-2.98,3.16-2.98h13
					C25.36,15.91,26.78,17.25,26.78,18.89 M19.03,20.9c-0.32,0-0.59,0.22-0.59,0.48v3.59c0,0.27,0.26,0.48,0.59,0.48
					c0.32,0,0.59-0.22,0.59-0.48v-3.59C19.62,21.12,19.35,20.9,19.03,20.9 M23.8,22.49h-1.27l0.01-0.74c0-0.33,0.27-0.6,0.6-0.6
					h0.08c0.33,0,0.6,0.27,0.6,0.6L23.8,22.49z"/>
			</g>
		</g>
	</g>
	<path class="st4" d="M12.91,14.92h1.26l0-4.37l1.49-3.74h-1.38l-0.79,2.78l-0.8-2.79h-1.37l1.59,3.75L12.91,14.92z M16.62,13.39
		c0,0.32,0.24,0.59,0.53,0.59c0.29,0,0.53-0.26,0.53-0.59v-3.03c0-0.32-0.24-0.59-0.53-0.59c-0.29,0-0.53,0.26-0.53,0.59V13.39z
		 M15.57,11.12c0-0.55,0.05-0.97,0.14-1.28c0.09-0.31,0.26-0.55,0.49-0.74c0.24-0.19,0.54-0.28,0.91-0.28c0.31,0,0.58,0.06,0.8,0.18
		c0.22,0.12,0.39,0.28,0.51,0.47c0.12,0.19,0.2,0.39,0.25,0.59c0.04,0.21,0.07,0.51,0.07,0.93v1.44c0,0.53-0.02,0.92-0.06,1.16
		c-0.04,0.25-0.13,0.48-0.26,0.69c-0.13,0.21-0.31,0.37-0.52,0.47c-0.21,0.1-0.45,0.15-0.73,0.15c-0.31,0-0.56-0.04-0.77-0.13
		c-0.21-0.09-0.38-0.22-0.49-0.39c-0.12-0.18-0.2-0.39-0.25-0.64c-0.05-0.25-0.07-0.62-0.07-1.12L15.57,11.12z M19.63,14.34
		c0.06,0.15,0.16,0.27,0.29,0.36c0.13,0.09,0.29,0.14,0.49,0.14c0.17,0,0.33-0.05,0.46-0.14c0.13-0.1,0.25-0.24,0.34-0.43
		l-0.02,0.47h1.34v-5.7h-1.05v4.43c0,0.24-0.2,0.44-0.44,0.44c-0.24,0-0.44-0.2-0.44-0.44V9.04h-1.1v3.84
		c0,0.49,0.01,0.82,0.02,0.98C19.53,14.03,19.56,14.19,19.63,14.34 M24.25,23.61l-0.9,0c0,0.04,0,0.08,0,0.12v0.5
		c0,0.27-0.22,0.49-0.49,0.49h-0.18c-0.27,0-0.49-0.22-0.49-0.49v-0.06v-0.55v-0.71h2.06v-0.78c0-0.57-0.01-1.13-0.06-1.46
		c-0.15-1.03-1.59-1.19-2.32-0.66c-0.23,0.16-0.4,0.38-0.5,0.68c-0.1,0.3-0.15,0.7-0.15,1.21v1.71
		C21.21,26.45,24.66,26.05,24.25,23.61 M20.49,23.99l0-2.86c0-1.09-0.82-1.74-1.92-0.86l0-2.13l-1.2,0l-0.01,7.35l0.99-0.01
		l0.09-0.46C19.7,26.17,20.49,25.38,20.49,23.99 M16.64,20.05h-1.2v3.44c0,0.5,0.03,0.75,0,0.83c-0.1,0.27-0.54,0.55-0.71,0.03
		c-0.03-0.09,0-0.37,0-0.84l0-3.46h-1.19l0,3.41c0,0.52-0.01,0.91,0,1.09c0.03,0.31,0.02,0.68,0.31,0.89
		c0.54,0.39,1.58-0.06,1.84-0.61l0,0.71l0.96,0L16.64,20.05z M12.32,25.53l0-6.44l1.44,0v-0.95l-3.84-0.01v0.94l1.2,0v6.46H12.32z
		 M26,18.75v6.12c0,1.47-1.27,2.67-2.83,2.67H11.55c-1.56,0-2.83-1.2-2.83-2.67v-6.12c0-1.47,1.27-2.67,2.83-2.67h11.62
		C24.73,16.08,26,17.29,26,18.75 M19.07,20.55c-0.29,0-0.52,0.19-0.52,0.43v3.21c0,0.24,0.24,0.43,0.52,0.43
		c0.29,0,0.53-0.19,0.53-0.43v-3.21C19.59,20.74,19.36,20.55,19.07,20.55 M23.34,21.97H22.2l0.01-0.66c0-0.29,0.24-0.53,0.54-0.53
		h0.07c0.3,0,0.54,0.24,0.54,0.53L23.34,21.97z"/>
	<circle class="st5" cx="17.36" cy="17.17" r="16"/>
</g>
<g id="Слой_2">
</g>
</svg>
