<?xml version="1.0" encoding="utf-8"?>
<!-- Generator: Adobe Illustrator 22.0.1, SVG Export Plug-In . SVG Version: 6.00 Build 0)  -->
<svg version="1.1" id="Layer_1" xmlns="http://www.w3.org/2000/svg" xmlns:xlink="http://www.w3.org/1999/xlink" x="0px" y="0px"
	 viewBox="0 0 27 27" style="enable-background:new 0 0 27 27;" xml:space="preserve">
<style type="text/css">
	.st0{fill:url(#SVGID_1_);}
	.st1{fill:url(#SVGID_2_);}
	.st2{fill:url(#SVGID_3_);}
</style>
<g>
	
		<linearGradient id="SVGID_1_" gradientUnits="userSpaceOnUse" x1="13.5" y1="272.9214" x2="13.5" y2="246.2097" gradientTransform="matrix(1 0 0 1 0 -246)">
		<stop  offset="0" style="stop-color:#E09B3D"/>
		<stop  offset="0.3" style="stop-color:#C74C4D"/>
		<stop  offset="0.6" style="stop-color:#C21975"/>
		<stop  offset="1" style="stop-color:#7024C4"/>
	</linearGradient>
	<path class="st0" d="M19,0H8C3.6,0,0,3.6,0,8V19c0,4.4,3.6,8,8,8H19c4.4,0,8-3.6,8-8V8C27,3.6,23.4,0,19,0z M24.3,19
		c0,2.9-2.4,5.3-5.3,5.3H8c-2.9,0-5.3-2.4-5.3-5.3V8c0-2.9,2.4-5.3,5.3-5.3H19c2.9,0,5.3,2.4,5.3,5.3L24.3,19L24.3,19z"/>
	
		<linearGradient id="SVGID_2_" gradientUnits="userSpaceOnUse" x1="13.5" y1="272.9214" x2="13.5" y2="246.2097" gradientTransform="matrix(1 0 0 1 0 -246)">
		<stop  offset="0" style="stop-color:#E09B3D"/>
		<stop  offset="0.3" style="stop-color:#C74C4D"/>
		<stop  offset="0.6" style="stop-color:#C21975"/>
		<stop  offset="1" style="stop-color:#7024C4"/>
	</linearGradient>
	<path class="st1" d="M13.5,6.5c-3.9,0-7,3.1-7,7s3.1,7,7,7s7-3.1,7-7S17.4,6.5,13.5,6.5z M13.5,17.8c-2.4,0-4.3-1.9-4.3-4.3
		s1.9-4.3,4.3-4.3c2.4,0,4.3,1.9,4.3,4.3C17.8,15.9,15.9,17.8,13.5,17.8z"/>
	
		<linearGradient id="SVGID_3_" gradientUnits="userSpaceOnUse" x1="20.4967" y1="272.9214" x2="20.4967" y2="246.2097" gradientTransform="matrix(1 0 0 1 0 -246)">
		<stop  offset="0" style="stop-color:#E09B3D"/>
		<stop  offset="0.3" style="stop-color:#C74C4D"/>
		<stop  offset="0.6" style="stop-color:#C21975"/>
		<stop  offset="1" style="stop-color:#7024C4"/>
	</linearGradient>
	<circle class="st2" cx="20.5" cy="6.6" r="1.7"/>
</g>
</svg>
