<svg width="96" height="84" viewBox="0 0 96 84" fill="none" xmlns="http://www.w3.org/2000/svg">
<path d="M13.9788 63.9809L1.99266 60.7656C0.565739 60.3636 -0.290412 58.9282 0.109125 57.4928L8.67064 25.512C9.07017 24.0766 10.4971 23.2153 11.924 23.6172L23.9101 26.8325C25.337 27.2344 26.1932 28.6699 25.7937 30.1053L17.2321 62.0861C16.8897 63.5215 15.4057 64.3254 13.9788 63.9809Z" fill="#3498DB"/>
<path d="M82.0143 63.9809L94.0004 60.7656C95.4273 60.3636 96.2835 58.9282 95.8839 57.4928L87.3224 25.512C86.9229 24.0766 85.496 23.2153 84.0691 23.6172L72.0829 26.8325C70.656 27.2344 69.7999 28.6699 70.1994 30.1053L78.7609 62.0861C79.1034 63.5215 80.5874 64.3254 82.0143 63.9809Z" fill="#3498DB"/>
<path d="M73.0533 30.5646C75.6789 40.4976 78.3044 50.2584 80.9299 60.2488C84.8682 59.2154 88.6924 58.2393 92.5165 57.2058C93.9434 56.8039 95.3703 56.5168 95.827 58.2967C96.2836 59.9618 94.9137 60.4785 93.601 60.823C89.3202 61.9713 85.0965 63.7512 80.8158 64.0957C76.0784 64.4402 72.2543 66.8517 67.9735 68.1149C66.7749 68.4594 66.1471 68.9761 66.1471 70.4689C66.2041 72.8804 63.9211 73.9139 62.7795 75.579C61.7521 77.1292 62.1517 79.713 60.2111 81.1484C59.412 81.7225 58.3846 82.4689 57.6997 82.1244C54.1609 80.5742 50.8505 84.7082 47.6542 82.6986C45.0857 81.0909 42.8027 79.1962 39.8347 78.2775C39.3781 78.1053 38.9214 77.5311 38.6361 77.0718C38.1224 76.0957 37.4945 75.6364 36.2959 75.6938C34.9832 75.7512 33.6133 75.2345 32.8713 74.1436C31.7869 72.5359 30.4741 71.9618 28.6476 71.6173C26.1933 71.1579 24.8806 69.3206 24.6523 66.9091C24.5381 65.8182 24.1386 65.3589 23.1683 65.2441C20.9423 64.8996 18.8304 63.3493 16.3761 64.4976C15.9766 64.6699 15.2917 64.3828 14.7209 64.2106C10.6114 63.1197 6.44479 61.9713 2.33526 60.8804C0.96542 60.5359 -0.29027 59.9618 0.166344 58.2967C0.622957 56.6316 1.93572 56.8039 3.30556 57.2058C7.12971 58.2967 11.0109 59.2728 15.0063 60.3063C17.6318 50.4307 20.2574 40.6699 22.94 30.5646C19.8578 29.7034 16.8328 28.8996 13.8648 28.0957C12.7232 27.7512 11.5246 27.5216 10.3831 27.1197C9.3557 26.7177 8.72785 25.9139 9.07031 24.7656C9.41278 23.6747 10.2689 23.1579 11.4105 23.5024C16.0908 24.7656 20.771 26.0288 25.4513 27.2919C27.2778 27.8087 27.3349 29.1866 26.7641 30.9666C29.7892 29.9331 32.5289 29.1292 35.0973 28.0383C38.8644 26.4307 42.289 26.9474 45.5994 29.3015C46.5127 29.9905 47.54 30.5072 48.6816 31.2536C50.7934 28.4977 53.7614 27.2919 56.9006 26.201C60.2682 24.9953 63.4645 25.1675 66.4895 27.1771C67.5169 27.8661 68.3731 28.268 70.0283 27.6938C74.8227 25.9139 79.8455 24.823 84.7541 23.5024C85.7815 23.2154 86.5805 23.8469 86.8659 24.8804C87.2084 26.201 86.4664 26.9474 85.3248 27.2919C82.0144 28.2106 78.7039 29.0718 75.3935 29.9331C74.7656 30.0479 74.0236 30.2776 73.0533 30.5646ZM76.9916 60.4211C76.8204 59.6173 76.7062 58.9283 76.535 58.2967C74.7656 51.6938 72.768 45.1484 71.341 38.4881C70.4849 34.6412 68.7726 32.2297 65.1767 30.6221C61.0101 28.7273 54.9029 29.5311 52.1062 33.2632C49.9373 36.1914 48.1679 39.4067 46.2843 42.5072C45.5994 43.6555 45.7707 44.8039 46.798 45.6077C47.8254 46.4689 48.9099 46.2393 49.8802 45.3206C50.2226 45.0335 50.508 44.689 50.7934 44.402C53.5331 41.7034 56.2728 38.9474 59.0125 36.2488C59.8686 35.3876 60.8389 34.9857 61.8092 35.9618C62.7225 36.8804 62.4941 37.9139 61.6951 38.8326C61.4097 39.1771 61.1243 39.4642 60.7818 39.7512C58.2134 42.335 55.6449 44.9187 53.0194 47.445C50.3368 50.0862 46.9122 50.5455 44.4008 48.5359C41.7753 46.4689 41.3758 43.311 43.3734 39.8661C44.4579 38.0288 45.5424 36.2488 46.6839 34.3541C45.5424 33.6077 44.515 33.0335 43.6017 32.402C41.3187 30.7369 39.0356 30.4498 36.353 31.5407C33.3279 32.8039 30.1887 33.8374 27.1066 34.8709C26.0221 35.2154 25.5084 35.7895 25.223 36.8804C23.5678 43.311 21.7984 49.7417 20.0861 56.1723C19.7437 57.4929 19.4583 58.756 19.1158 60.134C20.5427 60.5359 21.7984 60.7656 22.997 61.2249C25.1089 62.0287 26.4216 61.8565 27.7344 59.5024C29.8463 55.6555 34.8119 55.713 37.2662 59.3876C37.7799 60.134 38.1224 60.4785 39.0927 60.4785C41.4328 60.5359 42.7456 62.0862 44.3437 63.6938C45.6565 65.0144 48.5103 64.2106 49.8231 66.2776C50.0514 66.6221 50.2797 66.9665 50.508 67.3685C50.6793 67.6555 50.7934 68.0575 51.25 68C54.3892 67.6555 56.5011 69.9522 59.0125 71.1579C60.2111 71.7321 61.3526 72.3063 62.1517 70.9283C63.0078 69.4354 61.9805 68.5742 60.7818 67.8852C58.67 66.6795 56.5582 65.4737 54.5034 64.268C53.4189 63.6364 52.5628 62.8326 53.2477 61.512C53.9897 60.0766 55.1883 60.3063 56.3299 60.9953C58.4988 62.2584 60.6677 63.4642 62.8366 64.7273C63.9781 65.4163 65.2338 65.7608 65.9758 64.3828C66.7178 63.0048 65.8046 62.1436 64.6631 61.4546C62.6654 60.3637 60.6677 59.2154 58.7271 58.0096C57.5855 57.3206 56.1015 56.6316 57.0148 54.9091C57.928 53.2441 59.2408 53.9331 60.4965 54.6795C62.5512 55.8852 64.5489 57.0335 66.6037 58.1819C67.574 58.6986 68.7155 59.3302 69.3434 57.9522C69.857 56.8039 69.8 55.6555 68.3731 54.9091C66.09 53.7034 63.9211 52.3828 61.6951 51.0048C60.6106 50.3158 60.0398 49.3398 60.8389 48.134C61.5809 46.9857 62.6083 47.1579 63.6357 47.7895C66.09 49.2249 68.6014 50.6029 70.9986 52.0957C74.1378 54.0479 74.5944 58.1244 72.1401 60.823C71.7976 61.1675 71.2269 61.2823 71.284 62.0287C73.3958 62.2584 75.051 61.1675 76.9916 60.4211ZM34.2982 62.7177C34.2982 61.6268 33.9558 61.0527 33.2138 60.7082C32.4718 60.3637 31.7298 60.4211 31.2732 61.0527C30.1316 62.4881 29.1613 64.0957 28.5335 65.8182C28.2481 66.5646 28.5335 67.2536 29.1613 67.713C29.7892 68.1723 30.5312 68.3445 31.1019 67.8278C32.643 66.335 33.4992 64.3828 34.2982 62.7177ZM47.1976 70.2967C47.1976 69.1484 46.8551 68.4594 45.999 68.1723C45.1999 67.8852 44.4008 68.1149 43.9442 68.8613C43.0881 70.2393 42.289 71.6747 41.4899 73.1101C41.0333 73.9139 41.3758 74.6603 42.0036 75.2345C42.6885 75.8086 43.5447 75.9809 44.1154 75.3493C45.6565 73.8565 46.4556 71.9618 47.1976 70.2967ZM47.9396 77.0144C47.8254 78.1627 48.0537 78.8517 48.8528 79.2536C49.6519 79.5981 50.508 79.5407 50.9646 78.8517C51.8779 77.4163 52.734 75.9809 53.5331 74.4307C53.9897 73.5694 53.3048 72.7656 52.7911 72.1914C52.2774 71.6747 51.3642 71.6747 50.8505 72.2488C49.5948 73.7417 48.6245 75.4642 47.9396 77.0144ZM40.2913 66.7369C40.4625 65.3589 40.1201 64.7273 39.4351 64.3828C38.6931 64.0383 37.9511 64.3254 37.5516 64.957C36.6384 66.3924 35.7822 67.8278 34.9261 69.3206C34.4695 70.1244 34.869 70.8709 35.4398 71.445C35.9535 71.9043 36.6384 72.134 37.2662 71.5598C38.9214 70.067 39.7776 68.1723 40.2913 66.7369ZM55.9874 78.1627C57.186 78.7369 57.9851 78.3924 58.4417 77.4737C59.0125 76.4402 58.67 75.6364 57.6426 74.89C57.0148 76.0383 56.5011 77.0718 55.9874 78.1627Z" fill="#090909"/>
<path d="M46.2842 13.3972C46.2842 12.0192 46.2842 10.6986 46.2842 9.32061C46.2842 8.11487 46.7408 7.13879 48.1107 7.13879C49.4234 7.13879 49.9942 8.00004 49.9942 9.20578C49.9942 11.9618 49.9942 14.7752 49.9942 17.5311C49.9942 18.7943 49.4805 19.713 48.1677 19.713C46.855 19.713 46.2842 18.8517 46.2842 17.5886C46.2842 16.268 46.2842 14.8326 46.2842 13.3972Z" fill="black"/>
<path d="M67.9162 12.7656C66.7746 14.9474 65.6902 17.4737 63.8066 19.5407C63.293 20.1148 62.4939 19.9426 61.866 19.4833C61.2382 19.0239 60.8386 18.3349 61.124 17.6459C62.1514 15.2345 63.4642 12.9378 65.0623 10.8708C65.5189 10.2392 66.318 10.2967 67.0029 10.6986C67.6879 11.0431 67.9733 11.6747 67.9162 12.7656Z" fill="black"/>
<path d="M36.353 17.646C36.2959 18.6795 36.0105 19.311 35.2685 19.6555C34.4695 20.0575 33.6133 19.9426 33.1567 19.2536C31.7869 17.1866 30.417 15.1197 29.5038 12.7656C29.1613 11.9618 29.5038 11.2153 30.2458 10.6986C30.8736 10.2967 31.7298 10.1819 32.1864 10.756C34.0129 12.8804 35.1544 15.4067 36.353 17.646Z" fill="black"/>
<path d="M49.88 2.37322C49.7659 3.46413 49.1951 4.15313 48.1107 4.15313C46.912 4.15313 46.2271 3.46413 46.2842 2.25839C46.2842 1.16748 46.9691 0.535901 48.0536 0.478485C49.1951 0.478485 49.823 1.2249 49.88 2.37322Z" fill="black"/>
<path d="M86.0667 51.3493C87.1512 51.4641 87.9503 51.9809 87.9503 53.1866C87.9503 54.3924 87.2083 55.0239 86.0667 55.0239C85.0394 55.0239 84.3544 54.3349 84.2974 53.3015C84.2403 52.1531 84.8681 51.5216 86.0667 51.3493Z" fill="#090909"/>
<path d="M11.8097 53.1292C11.7526 54.3349 11.1248 55.0814 9.98325 55.0239C8.95587 55.0239 8.21386 54.3924 8.21386 53.244C8.15679 52.0383 8.89879 51.3493 10.0403 51.3493C11.1248 51.3493 11.6955 52.0383 11.8097 53.1292Z" fill="#090909"/>
</svg>
