<svg width="69" height="69" viewBox="0 0 69 69" fill="none" xmlns="http://www.w3.org/2000/svg">
<path d="M46.3596 20.5248V16.2796H44.0686C43.8125 15.1476 43.3678 14.083 42.7613 13.1396L44.3785 11.5224L41.3733 8.51714L39.7561 10.1343C38.8127 9.52788 37.7481 9.08315 36.616 8.8271C36.616 8.8271 36.6025 8.8271 36.6025 8.81362V6.54956H32.3574V8.84058C31.2254 9.09663 30.1608 9.54136 29.2174 10.1478L27.6002 8.53062L24.5949 11.5359L26.2121 13.1531C25.6057 14.0964 25.1609 15.1611 24.9184 16.2931H22.6273V20.5382H24.9318C25.1879 21.6703 25.6326 22.7214 26.2391 23.6783L24.6084 25.3089L27.6137 28.3142L29.2443 26.6835C30.1877 27.29 31.2524 27.7347 32.3844 27.9908V30.2953H36.6295V27.9908C37.7615 27.7347 38.8262 27.29 39.7695 26.697L41.3867 28.3142L44.392 25.3089L42.7748 23.6918C43.3813 22.7484 43.826 21.6837 44.082 20.5517L46.3596 20.5248Z" fill="#3498DB"/>
<path d="M68.9865 44.5129C68.9057 42.9766 68.1375 41.5616 66.8977 40.6452C64.8896 39.1628 62.1 39.311 60.2807 41.009L49.149 51.3725C49.2164 49.095 47.7205 47.087 45.4699 46.5075L31.8855 43.0575C29.5002 42.451 27.007 42.5319 24.6756 43.3001L15.2824 46.3458V43.637C15.2824 42.8958 14.676 42.2893 13.9348 42.2893H1.34766C0.606445 42.2893 0 42.8958 0 43.637V67.6522C0 68.3934 0.606445 68.9999 1.34766 68.9999H13.9348C14.676 68.9999 15.2824 68.3934 15.2824 67.6522V49.1893L25.5111 45.8741C27.3709 45.2676 29.3385 45.2137 31.2387 45.6854L44.823 49.1354C45.8742 49.4049 46.5615 50.3887 46.4537 51.4669C46.3459 52.5854 45.4025 53.4344 44.284 53.4344H33.4623C32.7211 53.4344 32.1147 54.0409 32.1147 54.7821C32.1147 55.5233 32.7211 56.1297 33.4623 56.1297H37.7074C37.7613 56.1297 37.8152 56.1432 37.8557 56.1432H44.54C46.7637 56.1432 48.893 55.3077 50.5236 53.7848L62.1 43.0036C62.976 42.1815 64.3102 42.1141 65.2805 42.8284C65.8734 43.2731 66.2373 43.9469 66.2777 44.6881C66.3182 45.4294 66.0352 46.1436 65.4826 46.6422L49.5533 61.4799C48.4482 62.5042 47.0197 63.0702 45.5104 63.0702H24.6217C23.8805 63.0702 23.274 63.6766 23.274 64.4178C23.274 65.159 23.8805 65.7655 24.6217 65.7655H45.5104C47.6936 65.7655 49.7824 64.9434 51.3861 63.461L67.3424 48.6098C68.4744 47.5452 69.0809 46.0628 68.9865 44.5129ZM12.5871 66.3045H2.69531V44.9981H12.5871V66.3045Z" fill="black"/>
<path d="M19.1908 63.0703C18.8404 63.0703 18.49 63.2186 18.234 63.4611C17.9779 63.7172 17.8432 64.0541 17.8432 64.418C17.8432 64.7818 17.9914 65.1188 18.234 65.3748C18.49 65.6309 18.827 65.7656 19.1908 65.7656C19.5412 65.7656 19.8916 65.6174 20.1477 65.3748C20.4037 65.1188 20.5385 64.7818 20.5385 64.418C20.5385 64.0541 20.3902 63.7172 20.1477 63.4611C19.9051 63.2186 19.5547 63.0703 19.1908 63.0703Z" fill="black"/>
<path d="M7.64112 64.3777C7.99151 64.3777 8.3419 64.2294 8.59795 63.9869C8.85401 63.7308 8.98877 63.3939 8.98877 63.03C8.98877 62.6796 8.84053 62.3292 8.59795 62.0732C8.3419 61.8171 7.99151 61.6824 7.64112 61.6824C7.29073 61.6824 6.94034 61.8306 6.68428 62.0732C6.42823 62.3292 6.29346 62.6796 6.29346 63.03C6.29346 63.3804 6.4417 63.7308 6.68428 63.9869C6.94034 64.2294 7.29073 64.3777 7.64112 64.3777Z" fill="black"/>
<path d="M16.7916 32.0472H17.3307C18.0719 32.0472 18.6783 31.4408 18.6783 30.6996V11.8863C18.6783 6.81909 22.8021 2.70874 27.8558 2.70874H29.3248C30.066 2.70874 30.6724 2.1023 30.6724 1.36108C30.6724 0.619873 30.066 0.0134277 29.3248 0.0134277H27.8558C21.3062 0.0134277 15.983 5.33667 15.983 11.8863V15.3902C11.7514 15.7945 8.43612 19.3658 8.43612 23.7052C8.43612 28.3007 12.1826 32.0472 16.7916 32.0472ZM15.983 18.099V27.0339V29.3115C13.2473 28.9207 11.1314 26.5623 11.1314 23.7052C11.1314 20.8482 13.2338 18.4898 15.983 18.099Z" fill="black"/>
<path d="M34.5 2.69531H34.5539C35.2951 2.69531 35.9016 2.08887 35.9016 1.34766C35.9016 0.606445 35.2951 0 34.5539 0H34.5C33.7588 0 33.1523 0.606445 33.1523 1.34766C33.1523 2.08887 33.7588 2.69531 34.5 2.69531Z" fill="black"/>
<path d="M39.6348 2.69531H41.1441C46.2113 2.69531 50.3217 6.81914 50.3217 11.8729V34.473C50.3217 34.9313 49.9443 35.3086 49.4861 35.3086H39.4596C38.934 34.0418 37.6807 33.1523 36.2252 33.1523H33.1391C31.2119 33.1523 29.6352 34.7291 29.6352 36.6562C29.6352 38.5834 31.2119 40.1602 33.1391 40.1602H36.2252C37.6807 40.1602 38.934 39.2707 39.4596 38.0039H49.4861C51.4268 38.0039 53.017 36.4272 53.017 34.473V32.0068C57.2486 31.6025 60.5639 28.0312 60.5639 23.6918C60.5639 19.3523 57.2486 15.7811 53.017 15.3768V11.8729C53.017 5.32324 47.6938 0 41.1441 0H39.6348C38.8936 0 38.2871 0.606445 38.2871 1.34766C38.2871 2.08887 38.8801 2.69531 39.6348 2.69531ZM36.2252 37.4648H33.1391C32.6943 37.4648 32.3305 37.101 32.3305 36.6562C32.3305 36.2115 32.6943 35.8477 33.1391 35.8477H36.2252C36.6699 35.8477 37.0338 36.2115 37.0338 36.6562C37.0338 37.101 36.6699 37.4648 36.2252 37.4648ZM57.8686 23.6918C57.8686 26.5354 55.7527 28.8937 53.017 29.298V27.0205V18.0855C55.7527 18.4898 57.8686 20.8482 57.8686 23.6918Z" fill="black"/>
<path d="M28.5703 7.5605C28.0447 7.03491 27.1957 7.03491 26.6701 7.5605L23.6648 10.5658C23.4088 10.8218 23.274 11.1587 23.274 11.5226C23.274 11.8865 23.4223 12.2234 23.6648 12.4794L24.5678 13.3824C24.3117 13.8945 24.0961 14.4066 23.9209 14.9457H22.6406C21.8994 14.9457 21.293 15.5521 21.293 16.2933V20.5384C21.293 21.2796 21.8994 21.8861 22.6406 21.8861H23.9209C24.0961 22.4251 24.3117 22.9507 24.5678 23.4494L23.6648 24.3523C23.4088 24.6083 23.274 24.9453 23.274 25.3091C23.274 25.673 23.4223 26.0099 23.6648 26.266L26.6701 29.2712C27.1957 29.7968 28.0447 29.7968 28.5703 29.2712L29.4732 28.3683C29.9719 28.6244 30.4975 28.84 31.0365 29.0152V30.2955C31.0365 31.0367 31.643 31.6431 32.3842 31.6431H36.6293C37.3705 31.6431 37.977 31.0367 37.977 30.2955V29.0287C38.516 28.8535 39.0416 28.6378 39.5402 28.3818L40.4432 29.2847C40.9688 29.8103 41.8178 29.8103 42.3434 29.2847L45.3486 26.2794C45.6047 26.0234 45.7395 25.6865 45.7395 25.3226C45.7395 24.9587 45.5912 24.6218 45.3486 24.3658L44.4592 23.4763C44.7152 22.9642 44.9309 22.4521 45.1061 21.8996H46.3729C47.1141 21.8996 47.7205 21.2931 47.7205 20.5519V16.3068C47.7205 15.5656 47.1141 14.9591 46.3729 14.9591H45.1195C44.9443 14.4201 44.7287 13.8945 44.4727 13.3824L45.3621 12.4929C45.6182 12.2369 45.7529 11.9 45.7529 11.5361C45.7529 11.1722 45.6047 10.8353 45.3621 10.5792L42.3568 7.57397C41.8312 7.04839 40.9822 7.04839 40.4566 7.57397L39.5672 8.46343C39.0551 8.20737 38.5295 7.99175 37.9904 7.81655V6.56323C37.9904 5.82202 37.384 5.21558 36.6428 5.21558H32.3977C31.6564 5.21558 31.05 5.82202 31.05 6.56323V7.83003C30.5109 8.00522 29.9854 8.22085 29.4732 8.4769L28.5703 7.5605ZM32.6402 10.148C33.2602 10.0267 33.7184 9.47417 33.7184 8.82729V7.88394H35.2682V8.81382C35.2682 9.43374 35.6994 9.98628 36.3193 10.1345H36.3328C37.2896 10.3501 38.2061 10.7275 39.0416 11.2531C39.5807 11.59 40.268 11.5226 40.7127 11.0644L41.373 10.4041L42.4646 11.4957L41.8043 12.156C41.3596 12.6007 41.2787 13.315 41.6291 13.8406C42.1547 14.6626 42.532 15.5656 42.7477 16.5224C42.8689 17.1423 43.4215 17.6005 44.0684 17.6005H45.0117V19.1503H44.0684C43.435 19.1503 42.8824 19.5951 42.7477 20.215C42.532 21.1718 42.1547 22.0882 41.6291 22.9238C41.2922 23.4628 41.3596 24.1501 41.8178 24.6083L42.4916 25.2822L41.4 26.3738L40.7262 25.6999C40.2814 25.2552 39.5807 25.1744 39.0551 25.5113C38.2195 26.0369 37.3166 26.4142 36.3463 26.6298C35.7264 26.7646 35.2816 27.3171 35.2816 27.9505V28.9074H33.7318V27.9505C33.7318 27.3171 33.2871 26.7781 32.6807 26.6298C31.7238 26.4142 30.8074 26.0369 29.9719 25.5113C29.4328 25.1744 28.7455 25.2417 28.2873 25.6999L27.6135 26.3738L26.5219 25.2822L27.1957 24.6083C27.6404 24.1636 27.7213 23.4628 27.3844 22.9238C26.8588 22.0882 26.4814 21.1853 26.2658 20.215C26.1311 19.5951 25.5785 19.1638 24.9451 19.1638H23.9883V17.614H24.9316C25.5381 17.614 26.0771 17.2097 26.2389 16.6167C26.2389 16.5898 26.2523 16.5763 26.2523 16.5494C26.468 15.5925 26.8453 14.6761 27.3709 13.8406C27.7078 13.3015 27.6404 12.6142 27.1822 12.1695L26.5084 11.4957L27.6 10.4041L28.2738 11.0779C28.7186 11.5226 29.4193 11.6035 29.9584 11.2666C30.7805 10.741 31.6834 10.3636 32.6402 10.148Z" fill="black"/>
<path d="M34.5 23.5166C37.3301 23.5166 39.6211 21.2256 39.6211 18.3955C39.6211 15.5654 37.3301 13.2744 34.5 13.2744C31.6699 13.2744 29.3789 15.5654 29.3789 18.3955C29.3789 21.2256 31.6699 23.5166 34.5 23.5166ZM34.5 15.9697C35.8342 15.9697 36.9258 17.0613 36.9258 18.3955C36.9258 19.7297 35.8342 20.8213 34.5 20.8213C33.1658 20.8213 32.0742 19.7297 32.0742 18.3955C32.0742 17.0613 33.1658 15.9697 34.5 15.9697Z" fill="black"/>
<path d="M7.64112 59.4316C8.38233 59.4316 8.98877 58.8252 8.98877 58.084V48.7852C8.98877 48.0439 8.38233 47.4375 7.64112 47.4375C6.89991 47.4375 6.29346 48.0439 6.29346 48.7852V58.084C6.29346 58.8252 6.89991 59.4316 7.64112 59.4316Z" fill="black"/>
</svg>
