<?xml version="1.0" encoding="utf-8"?>
<!-- Generator: Adobe Illustrator 22.0.1, SVG Export Plug-In . SVG Version: 6.00 Build 0)  -->
<svg version="1.1" id="Слой_1" xmlns="http://www.w3.org/2000/svg" xmlns:xlink="http://www.w3.org/1999/xlink" x="0px" y="0px"
	 viewBox="0 0 512 512" style="enable-background:new 0 0 512 512;" xml:space="preserve">
<style type="text/css">
	.st0{fill:#FFFFFF;}
</style>
<g>
	<path class="st0" d="M506.1,326.3l-2.6-7.9l-48.8-12.2c0.3-4.4,0.4-8.9,0.4-13.4c0-56.9-24.4-111.2-67.1-149l-19.9,22.4
		c36.2,32.1,57,78.2,57,126.6c0,2,0,4-0.1,5.9l-31.7-7.9c-0.4-31.1-11.5-61.3-31.3-85.3l-23.1,19.1c13.8,16.7,22.1,37.2,24.1,58.6
		l-32.3-8.1c-3.5-14.7-11.3-27.8-21.9-37.9l49.1-171.4l-5.6-6.2C328.5,33.2,293.4,18,256.1,18s-72.4,15.2-96.2,41.6l-5.6,6.2
		l13.8,48.3c-10.9,5.4-21.3,11.8-31.2,19.2c-33.4,25-58.6,60.6-71,100.3l28.6,8.9c13.6-43.8,43.5-78.8,81.9-99.1l9.1,31.6
		c-11.8,7.1-22.6,15.9-31.9,26.4l22.4,20c5.5-6.1,11.6-11.6,18.2-16.2l9.2,32.1c-10.6,10-18.3,23.1-21.9,37.7l-32.3,8
		c1.1-12.4,4.3-24.3,9.6-35.6l-27.2-12.7c-8.3,17.6-12.6,36.4-12.9,55.9L8.6,317.7L6,325.6C-5,359.4-0.7,397.4,17.9,429.8
		c18.6,32.3,49.2,55.2,84,62.6l8.1,1.7l35-36.1c32.6,21.9,71.2,33.8,111,33.8c13.7,0,27.4-1.4,40.8-4.2l-6.1-29.4
		c-11.3,2.4-23,3.5-34.7,3.5c-32.7,0-63.5-9.4-89.7-25.9l22.7-23.4c19.8,11.1,42.7,17.5,67,17.5v-30c-16.1,0-31.4-3.6-45.2-10
		l23.2-23.9c7,2.1,14.4,3.2,22,3.2c7.6,0,14.9-1.1,21.8-3.2l123.7,128.3l8.1-1.7c34.8-7.4,65.5-30.1,84.2-62.4
		C512.6,398.1,517.1,360.2,506.1,326.3z M305.3,351.4c13.5-11.3,23-27.2,26.2-45.2l148.2,37.1c5.4,23.8,1.3,49.6-11.7,72.1
		c-13,22.5-33.3,38.9-56.6,46.1L305.3,351.4z M187.9,73.9c17.9-16.6,42.3-26,68.2-26c26,0,50.4,9.4,68.2,26l-42.1,146.8
		c-8.2-3-17-4.6-26.1-4.6s-18,1.6-26.1,4.6L187.9,73.9z M100.4,461c-23.3-7.2-43.6-23.7-56.5-46.2s-17-48.3-11.5-72.1L180.6,306
		c3.2,18.1,12.6,33.9,26.1,45.3L100.4,461z M209.5,292.8c0-25.7,20.9-46.6,46.6-46.6c25.7,0,46.6,20.9,46.6,46.6
		c0,25.7-20.9,46.6-46.6,46.6C230.4,339.4,209.5,318.5,209.5,292.8z"/>
</g>
</svg>
