<?xml version="1.0" encoding="utf-8"?>
<!-- Generator: Adobe Illustrator 17.1.0, SVG Export Plug-In . SVG Version: 6.00 Build 0)  -->
<!DOCTYPE svg PUBLIC "-//W3C//DTD SVG 1.1//EN" "http://www.w3.org/Graphics/SVG/1.1/DTD/svg11.dtd">
<svg version="1.1" id="Слой_1" xmlns="http://www.w3.org/2000/svg" xmlns:xlink="http://www.w3.org/1999/xlink" x="0px" y="0px"
	 viewBox="240.5 240.5 30 30" enable-background="new 240.5 240.5 30 30" xml:space="preserve">
<path fill="#3DAFC4" d="M266.7,252.5h3.8l-2.1-7.4h-4.8l-2.4,7.4h3.8v2.8h-2.9v9.1h0.8v1.5h1.8v-1.5h2.5v1.5h1.8v-1.5h0.8v-9.1h-2.9
	V252.5z M264.8,246.9h2.2l1.1,3.9h-4.6L264.8,246.9z M267.9,262.6h-4v-1.9h4V262.6z M267.9,259h-4v-1.9h4V259z"/>
<path fill="#3DAFC4" d="M257.2,251.2v-5.9h-14.6v5.9c-1.2,0.4-2.1,1.5-2.1,2.8v10h1.4v1.8h1.8v-1.8h12.6v1.8h1.8v-1.8h1.4v-10
	C259.4,252.7,258.5,251.6,257.2,251.2z M255.5,247.1v4.1c-1.2,0.4-2.1,1.5-2.1,2.8v0.8h-7v-0.8c0-1.3-0.9-2.4-2.1-2.8v-4.1H255.5z
	 M246.4,256.7h7v2.5h-7V256.7z M242.3,254.1c0-0.7,0.5-1.2,1.2-1.2s1.2,0.5,1.2,1.2v5.1h-2.4V254.1z M257.6,262.3h-15.3v-1.4h15.3
	V262.3z M255.2,259.1v-5.1c0-0.7,0.5-1.2,1.2-1.2c0.7,0,1.2,0.5,1.2,1.2v5.1H255.2z"/>
<path fill="#3DAFC4" d="M247,249.8h1.8v1.8H247V249.8z"/>
<path fill="#3DAFC4" d="M251.1,249.8h1.8v1.8h-1.8V249.8z"/>
</svg>
