<?xml version="1.0" encoding="utf-8"?>
<!-- Generator: Adobe Illustrator 17.1.0, SVG Export Plug-In . SVG Version: 6.00 Build 0)  -->
<!DOCTYPE svg PUBLIC "-//W3C//DTD SVG 1.1//EN" "http://www.w3.org/Graphics/SVG/1.1/DTD/svg11.dtd">
<svg version="1.1" id="Layer_1" xmlns="http://www.w3.org/2000/svg" xmlns:xlink="http://www.w3.org/1999/xlink" x="0px" y="0px"
	 viewBox="135 0 30 30" enable-background="new 135 0 30 30" xml:space="preserve">
<g>
	<g>
		<path fill="#3DAFC4" d="M159.9,2.4h-4.4V1.5c0-0.8-0.7-1.5-1.5-1.5h-7.9c-0.8,0-1.5,0.7-1.5,1.5v0.9h-4.4c-0.5,0-1,0.4-1,1V29
			c0,0.5,0.4,1,1,1h19.8c0.5,0,1-0.4,1-1V3.4C160.9,2.8,160.4,2.4,159.9,2.4z M146.5,1.9h7c0,0.9,0,1.5,0,2.3h-7
			C146.5,3.4,146.5,2.8,146.5,1.9z M158.9,28.1h-17.8V4.3h3.5v0.4v0c0,0.8,0.7,1.5,1.5,1.5h0h7.9h0c0.8,0,1.5-0.7,1.5-1.5v0V4.3h3.5
			L158.9,28.1L158.9,28.1z"/>
	</g>
</g>
<g>
	<g>
		<path fill="#3DAFC4" d="M146.6,10.2l0.8-0.8c0.4-0.4,0.4-1,0-1.4c-0.4-0.4-1-0.4-1.4,0l-0.8,0.8L144.4,8c-0.4-0.4-1-0.4-1.4,0
			c-0.4,0.4-0.4,1,0,1.4l0.8,0.8L143,11c-0.4,0.4-0.4,1,0,1.4c0.4,0.4,1,0.4,1.4,0l0.8-0.8l0.8,0.8c0.4,0.4,1,0.4,1.4,0
			c0.4-0.4,0.4-1,0-1.4L146.6,10.2z"/>
	</g>
</g>
<g>
	<g>
		<path fill="#3DAFC4" d="M146.6,17.5l0.8-0.8c0.4-0.4,0.4-1,0-1.4c-0.4-0.4-1-0.4-1.4,0l-0.8,0.8l-0.8-0.8c-0.4-0.4-1-0.4-1.4,0
			c-0.4,0.4-0.4,1,0,1.4l0.8,0.8l-0.8,0.8c-0.4,0.4-0.4,1,0,1.4c0.4,0.4,1,0.4,1.4,0l0.8-0.8l0.8,0.8c0.4,0.4,1,0.4,1.4,0
			c0.4-0.4,0.4-1,0-1.4L146.6,17.5z"/>
	</g>
</g>
<g>
	<g>
		<path fill="#3DAFC4" d="M145.3,22c-1.5,0-2.7,1.2-2.7,2.7s1.2,2.7,2.7,2.7s2.7-1.2,2.7-2.7S146.8,22,145.3,22z M145.3,25.5
			c-0.4,0-0.8-0.3-0.8-0.8c0-0.4,0.3-0.8,0.8-0.8c0.4,0,0.8,0.3,0.8,0.8C146,25.1,145.7,25.5,145.3,25.5z"/>
	</g>
</g>
<g>
	<g>
		<path fill="#3DAFC4" d="M157,9.2h-6.4c-0.5,0-1,0.4-1,1s0.4,1,1,1h6.4c0.5,0,1-0.4,1-1C158,9.7,157.5,9.2,157,9.2z"/>
	</g>
</g>
<g>
	<g>
		<path fill="#3DAFC4" d="M157,16.5h-6.4c-0.5,0-1,0.4-1,1s0.4,1,1,1h6.4c0.5,0,1-0.4,1-1C158,16.9,157.5,16.5,157,16.5z"/>
	</g>
</g>
<g>
	<g>
		<path fill="#3DAFC4" d="M157,23.8h-6.4c-0.5,0-1,0.4-1,1s0.4,1,1,1h6.4c0.5,0,1-0.4,1-1C158,24.2,157.5,23.8,157,23.8z"/>
	</g>
</g>
</svg>
