<svg id="Layer_1" enable-background="new 0 0 128 128" height="512" viewBox="0 0 128 128" width="512" xmlns="http://www.w3.org/2000/svg"><path d="m119.693 70.593c-1.321 0-2.546.415-3.557 1.117-4.345-3.073-11.649-6.796-20.464-5.603-6.729.911-13.103 4.54-19.07 10.8-1.52-9.005-5.027-20.116-12.996-28.536-6.267-6.621-14.41-10.569-24.302-11.829-.252-3.218-2.945-5.761-6.226-5.761-3.446 0-6.25 2.804-6.25 6.251s2.804 6.251 6.25 6.251c2.071 0 3.904-1.016 5.042-2.572 3.877 2.108 8.666 5.707 12.036 11.628 3.727 6.547 5.037 14.591 3.96 24.006-5.815-5.925-12.014-9.355-18.545-10.239-8.592-1.162-15.742 2.342-20.122 5.365-.933-.554-2.018-.879-3.181-.879-3.447 0-6.251 2.804-6.251 6.25 0 3.447 2.804 6.251 6.251 6.251s6.251-2.804 6.251-6.251c0-.151-.012-.299-.023-.447 12.476.354 18.688 9.3 21.34 14.835h-.371c-1.321 0-2.568.521-3.511 1.463-.944.944-1.464 2.191-1.464 3.512 0 .638.12 1.261.359 1.851.757 1.869 2.612 3.124 4.616 3.124h52.313c1.321 0 2.568-.521 3.51-1.463.469-.468.851-1.04 1.108-1.662.237-.589.358-1.212.358-1.85 0-2.743-2.231-4.975-4.975-4.975h-.37c2.705-5.642 9.098-14.843 22.058-14.861-.012.157-.024.314-.024.473 0 3.447 2.804 6.251 6.251 6.251 3.446 0 6.25-2.804 6.25-6.251-.001-3.445-2.805-6.249-6.251-6.249z" fill="#e6e7e8"/><path d="m11.52 68.742c.876.676 1.524 1.615 1.837 2.707 14.855-.21 21.62 11.217 24.036 16.82h10.17c1.634-4.982 2.7-9.521 3.311-13.663-16.549-18.226-32.256-10.937-39.354-5.864z" fill="#0089ef"/><path d="m112.209 69.02c-6.973-5.121-23.202-13.121-40.24 6.159.927 6.503.835 11.581.778 13.09h13.207c2.456-5.693 9.393-17.409 24.751-16.811.271-.951.793-1.789 1.504-2.438z" fill="#6dc9f7"/><circle cx="8.32" cy="72.895" fill="#ffd7e5" r="5.264"/><path d="m115.745 67.631c-2.907 0-5.264 2.357-5.264 5.264s2.357 5.264 5.264 5.264 5.263-2.357 5.263-5.264-2.356-5.264-5.263-5.264z" fill="#ffd7e5"/><path d="m34.356 33.462c-.051.709-.238 1.375-.542 1.979 9.326 4.732 25.111 18.181 13.751 52.829h25.182c.19-5.077.785-50.527-38.391-54.808z" fill="#d4fbff"/><path d="m87.832 88.269h-52.317c-2.193 0-3.987 1.794-3.987 3.988 0 2.193 1.794 3.988 3.987 3.988h52.317c2.193 0 3.988-1.794 3.988-3.988 0-2.194-1.795-3.988-3.988-3.988z" fill="#fff"/><path d="m91.532 93.737c-.207.503-.513.957-.888 1.332-.721.721-1.717 1.175-2.813 1.175h-52.314c-1.668 0-3.109-1.046-3.701-2.507.207-.503.513-.957.888-1.333.721-.721 1.717-1.175 2.813-1.175h52.313c1.668.001 3.11 1.047 3.702 2.508z" fill="#fa759e"/><path d="m29.131 27.821c-2.907 0-5.264 2.356-5.264 5.263s2.357 5.264 5.264 5.264 5.263-2.357 5.263-5.264-2.356-5.263-5.263-5.263z" fill="#ffd7e5"/><g fill="#3a2c60"><path d="m115.745 66.631c-1.33 0-2.562.42-3.577 1.129-6.795-4.759-22.766-12.322-39.528 5.247-2.605-15.433-10.982-37.083-37.271-40.424-.257-3.22-2.953-5.763-6.237-5.763-3.454 0-6.264 2.81-6.264 6.264s2.81 6.264 6.264 6.264c2.076 0 3.915-1.02 5.055-2.581 7.931 4.303 18.441 14.157 15.968 35.656-16.404-16.665-32.016-9.424-38.631-4.902-.938-.562-2.031-.89-3.202-.89-3.454 0-6.264 2.81-6.264 6.264s2.81 6.264 6.264 6.264 6.264-2.81 6.264-6.264c0-.147-.012-.291-.022-.435 12.118.362 18.367 8.821 21.271 14.809h-.316c-1.323 0-2.573.521-3.52 1.468-.946.946-1.468 2.196-1.468 3.521 0 .642.121 1.266.359 1.856.76 1.873 2.62 3.131 4.628 3.131h24.842c.553 0 1-.447 1-1s-.447-1-1-1h-24.843c-1.202 0-2.317-.757-2.774-1.882-.142-.35-.213-.722-.213-1.105 0-.79.313-1.538.882-2.106s1.316-.882 2.105-.882h52.313c1.647 0 2.988 1.341 2.988 2.988 0 .382-.072.754-.212 1.1-.153.373-.385.721-.67 1.006-.568.568-1.316.882-2.106.882h-10.528c-.553 0-1 .447-1 1s.447 1 1 1h10.528c1.324 0 2.574-.521 3.521-1.468.47-.47.853-1.043 1.107-1.664.239-.591.36-1.216.36-1.855 0-2.751-2.237-4.988-4.988-4.988h-.316c2.976-6.144 9.417-14.814 21.991-14.831-.011.151-.023.302-.023.457 0 3.454 2.81 6.264 6.264 6.264 3.453 0 6.263-2.81 6.263-6.264s-2.811-6.266-6.264-6.266zm-86.614-29.283c-2.005 0-3.68-1.396-4.133-3.264h5.808c.553 0 1-.447 1-1s-.447-1-1-1h-5.808c.453-1.867 2.128-3.264 4.133-3.264 2.351 0 4.263 1.913 4.263 4.264 0 .097-.022.188-.029.283-.001.008-.006.015-.007.023-.041.566-.188 1.104-.438 1.6-.001.003-.001.006-.002.008-.704 1.387-2.128 2.35-3.787 2.35zm5.966-2.363c.043-.135.077-.275.111-.414 35.512 4.586 36.694 44.586 36.565 52.698h-22.837c10.348-33.032-3.76-46.839-13.839-52.284zm-25.777 42.042v-5.807c0-.553-.447-1-1-1s-1 .447-1 1v5.808c-1.867-.453-3.264-2.128-3.264-4.133 0-2.351 1.913-4.264 4.264-4.264.974 0 1.862.341 2.581.893.004.003.005.007.008.01.721.556 1.235 1.313 1.487 2.191.002.008.008.014.011.021.104.368.177.748.177 1.148 0 2.005-1.396 3.68-3.264 4.133zm4.767-6.578c-.247-.579-.579-1.112-.98-1.586 7.661-5.09 21.741-10.126 36.707 6.065-.003.021-.006.041-.01.062-.14.896-.303 1.808-.484 2.729-.022.111-.043.221-.066.333-.168.836-.358 1.683-.56 2.537-.046.196-.09.389-.138.587-.183.749-.385 1.507-.593 2.268-.084.309-.164.613-.253.926-.183.644-.384 1.295-.585 1.947-.098.318-.193.633-.296.955h-8.785c-2.502-5.497-9.377-16.659-23.957-16.823zm95.498-.012c-14.781 0-21.744 11.26-24.282 16.832h-11.53c0-.004 0-.009 0-.012.02-1.343.003-3.505-.183-6.207-.003-.042-.006-.083-.009-.125-.034-.48-.073-.977-.118-1.489-.01-.111-.02-.221-.03-.333-.043-.466-.091-.943-.145-1.432-.018-.165-.037-.331-.056-.498-.053-.46-.111-.927-.175-1.405-.012-.091-.021-.177-.033-.269 15.397-17.138 29.878-11.694 37.688-6.317-.288.389-.536.808-.729 1.259-.133-.002-.266-.004-.398-.004zm7.16 6.59v-5.807c0-.553-.447-1-1-1s-1 .447-1 1v5.808c-1.867-.453-3.264-2.128-3.264-4.133 0-.394.071-.768.172-1.131.003-.011.011-.019.014-.03.16-.562.431-1.077.792-1.522.015-.019.03-.037.046-.056.118-.14.243-.274.379-.398.001-.001.002-.003.003-.005.758-.69 1.755-1.122 2.858-1.122 2.351 0 4.263 1.913 4.263 4.264 0 2.004-1.395 3.679-3.263 4.132z"/><path d="m71.709 95.244h-5.759c-.553 0-1 .447-1 1s.447 1 1 1h5.759c.553 0 1-.447 1-1s-.447-1-1-1z"/></g></svg>