<?xml version="1.0" encoding="utf-8"?>
<!-- Generator: Adobe Illustrator 22.0.1, SVG Export Plug-In . SVG Version: 6.00 Build 0)  -->
<svg version="1.1" id="Слой_1" xmlns="http://www.w3.org/2000/svg" xmlns:xlink="http://www.w3.org/1999/xlink" x="0px" y="0px"
	 viewBox="0 0 200 200" style="enable-background:new 0 0 200 200;" xml:space="preserve">
<style type="text/css">
	.st0{fill:#FFAB00;}
</style>
<g>
	<path class="st0" d="M196.7,66.7H3.3c-1.8,0-3.3-1.5-3.3-3.3V36.7c0-1.4,0.9-2.7,2.2-3.1L98.9,0.2c0.7-0.2,1.5-0.2,2.2,0l96.7,33.3
		c1.3,0.5,2.2,1.7,2.2,3.1v26.7C200,65.2,198.5,66.7,196.7,66.7z M6.7,60h186.7V39L100,6.9L6.7,39V60z"/>
	<path class="st0" d="M183.3,53.3H16.7c-1.8,0-3.3-1.5-3.3-3.3v-3.8c0-1.4,0.9-2.7,2.2-3.1l83.3-28.7c0.7-0.2,1.5-0.2,2.2,0
		L184.4,43c1.3,0.5,2.2,1.7,2.2,3.1V50C186.7,51.8,185.2,53.3,183.3,53.3z M25.5,46.7h149.1L100,21L25.5,46.7z"/>
	<path class="st0" d="M196.7,180H190v-10c0-1.8-1.5-3.3-3.3-3.3h-3.3v-10c0-1.8-1.5-3.3-3.3-3.3h-3.3V92.9c5.9-1.5,10-6.8,10-12.9
		v-3.3c0-1.8-1.5-3.3-3.3-3.3h-46.7c-1.8,0-3.3,1.5-3.3,3.3V80c0,6.1,4.1,11.3,10,12.9v60.5h-26.7V92.9c5.9-1.5,10-6.8,10-12.9v-3.3
		c0-1.8-1.5-3.3-3.3-3.3H76.7c-1.8,0-3.3,1.5-3.3,3.3V80c0,6.1,4.1,11.3,10,12.9v60.5H56.7V92.9c5.9-1.5,10-6.8,10-12.9v-3.3
		c0-1.8-1.5-3.3-3.3-3.3H16.7c-1.8,0-3.3,1.5-3.3,3.3V80c0,6.1,4.1,11.3,10,12.9v60.5H20c-1.8,0-3.3,1.5-3.3,3.3v10h-3.3
		c-1.8,0-3.3,1.5-3.3,3.3v10H3.3c-1.8,0-3.3,1.5-3.3,3.3v13.3c0,1.8,1.5,3.3,3.3,3.3h193.3c1.8,0,3.3-1.5,3.3-3.3v-13.3
		C200,181.5,198.5,180,196.7,180z M140,80h40c0,3.7-3,6.7-6.7,6.7h-26.7C143,86.7,140,83.7,140,80z M150,93.3h20v60h-20V93.3z
		 M80,80h40c0,3.7-3,6.7-6.7,6.7H86.7C83,86.7,80,83.7,80,80z M90,93.3h20v60H90V93.3z M20,80h40c0,3.7-3,6.7-6.7,6.7H26.7
		C23,86.7,20,83.7,20,80z M30,93.3h20v60H30V93.3z M23.3,160h153.3v6.7H23.3V160z M16.7,173.3h166.7v6.7H16.7V173.3z M193.3,193.3
		H6.7v-6.7h186.7V193.3z"/>
</g>
</svg>
