<?xml version="1.0" encoding="utf-8"?>
<!-- Generator: Adobe Illustrator 22.0.1, SVG Export Plug-In . SVG Version: 6.00 Build 0)  -->
<svg version="1.1" id="Layer_1" xmlns="http://www.w3.org/2000/svg" xmlns:xlink="http://www.w3.org/1999/xlink" x="0px" y="0px"
	 viewBox="0 0 489.9 489.9" style="enable-background:new 0 0 489.9 489.9;" xml:space="preserve">
<style type="text/css">
	.st0{fill:#FFFFFF;}
</style>
<g>
	<g>
		<g>
			<path class="st0" d="M413.4,68.9l-22.8-0.1c0,0,0,0,0,0c0,0-0.1,0-0.1,0V53.6c0-4.2-3.4-7.7-7.7-7.7h-23V30.6
				c0-4.2-3.4-7.7-7.7-7.7H161.6c-1-12.8-11.7-23-24.8-23C123.7,0,113,10.1,112,23H76.6c-4.2,0-7.7,3.4-7.7,7.7V421
				c0,4.2,3.4,7.7,7.7,7.7h15.3v23c0,4.2,3.4,7.7,7.7,7.7h15.3v23c0,4.2,3.4,7.7,7.7,7.7h290.9c4.2,0,7.7-3.4,7.7-7.7V76.6
				C421,72.3,417.6,68.9,413.4,68.9z M136.8,15.3c4.6,0,8.5,3.3,9.4,7.7h-18.7C128.3,18.6,132.2,15.3,136.8,15.3z M84.2,413.4V38.3
				h27.7v55.4c0,13.7,11.2,24.9,24.9,24.9c13.7,0,24.9-11.2,24.9-24.9V59.3c0-4.2-3.4-7.7-7.7-7.7c-4.2,0-7.7,3.4-7.7,7.7v34.4
				c0,5.3-4.3,9.6-9.6,9.6s-9.6-4.3-9.6-9.6V38.3h217.3v375.1H84.2z M107.2,444v-15.3h0h245c4.2,0,7.7-3.4,7.7-7.7V61.2h15.3V444
				H107.2z M130.1,474.6v-15.3h252.6c4.2,0,7.7-3.4,7.7-7.7V84.1c0,0,0.1,0,0.1,0l15.2,0.1v390.5H130.1z"/>
			<path class="st0" d="M267.9,168.4H160.8c-4.2,0-7.7,3.4-7.7,7.7c0,4.2,3.4,7.7,7.7,7.7h107.2c4.2,0,7.7-3.4,7.7-7.7
				C275.6,171.8,272.2,168.4,267.9,168.4z"/>
			<path class="st0" d="M267.9,199H160.8c-4.2,0-7.7,3.4-7.7,7.7c0,4.2,3.4,7.7,7.7,7.7h107.2c4.2,0,7.7-3.4,7.7-7.7
				C275.6,202.5,272.2,199,267.9,199z"/>
			<path class="st0" d="M237.3,229.7h-45.9c-4.2,0-7.7,3.4-7.7,7.7c0,4.2,3.4,7.7,7.7,7.7h45.9c4.2,0,7.7-3.4,7.7-7.7
				S241.5,229.7,237.3,229.7z"/>
		</g>
	</g>
</g>
</svg>
