<?xml version="1.0" encoding="utf-8"?>
<!-- Generator: Adobe Illustrator 22.0.1, SVG Export Plug-In . SVG Version: 6.00 Build 0)  -->
<svg version="1.1" id="Capa_1" xmlns="http://www.w3.org/2000/svg" xmlns:xlink="http://www.w3.org/1999/xlink" x="0px" y="0px"
	 viewBox="0 0 512 512" style="enable-background:new 0 0 512 512;" xml:space="preserve">
<style type="text/css">
	.st0{fill:#F79292;}
	.st1{fill:#A80000;}
	.st2{font-family:'Roboto-Bold';}
	.st3{font-size:329.1515px;}
</style>
<g>
	<g>
		<polygon class="st0" points="273,144.2 273.4,146.9 269.3,147.8 268.8,153.6 273.6,153.6 280.1,152.9 283.5,149 279.9,147.6 
			278,145.3 275,140.6 273.6,133.9 268.1,135 266.6,137.4 266.6,140.1 269.3,141.9 		"/>
		<polygon class="st0" points="268.3,146.5 268.6,142.8 265.4,141.4 260.9,142.5 257.6,147.8 257.6,151.3 261.5,151.3 		"/>
		<path class="st0" d="M175.5,161.8l-1,2.6h-4.8v2.5h1.1c0,0,0.1,0.5,0.2,1.2l2.9-0.2l1.8-1.1l0.5-2.3l2.4-0.2l0.9-1.9l-2.2-0.5
			L175.5,161.8z"/>
		<polygon class="st0" points="163.2,166.3 163,168.8 166.5,168.5 166.8,166 164.7,164.4 		"/>
		<path class="st0" d="M372.1,243.8c-0.1-5.3-0.3-10.6-0.8-15.9c-1.7-17.4-5.9-34.1-12.1-49.7c-0.5-1.2-0.9-2.3-1.4-3.5
			c-8.3-19.6-20-37.5-34.3-52.9c-0.9-1-1.9-2-2.8-3c-2.7-2.8-5.5-5.5-8.3-8.2C279.9,81,236.7,63,189.5,63
			c-47.7,0-91.1,18.4-123.7,48.4c-7.6,7-14.6,14.6-20.9,22.8C21,165,6.8,203.7,6.8,245.6c0,100.7,82,182.7,182.7,182.7
			c70.9,0,132.4-40.6,162.7-99.7c6.5-12.6,11.5-26.1,14.9-40.2c0.9-3.6,1.6-7.2,2.3-10.8c1.8-10.4,2.8-21,2.8-31.9
			C372.2,245,372.1,244.4,372.1,243.8z M337.7,170.7l1.1-1.2c1.4,2.7,2.7,5.4,3.9,8.2l-1.7-0.1l-3.3,0.5V170.7z M311.3,138.9l0-8.2
			c2.9,3,5.6,6.2,8.3,9.4l-3.3,4.9l-11.5-0.1l-0.7-2.4L311.3,138.9z M91,118.6v-0.3h3.7l0.3-1.3h6v2.6l-1.7,2.3H91L91,118.6
			L91,118.6z M96.8,126.7c0,0,3.7-0.6,4-0.6c0.3,0,0,3.7,0,3.7l-8.3,0.5l-1.6-1.9L96.8,126.7z M349.4,199.3H336l-8.1-6.1l-8.6,0.8
			v5.2h-2.7l-2.9-2.1l-14.8-3.8v-9.6l-18.8,1.5l-5.8,3.1h-7.5L263,188l-9.1,5v9.5l-18.5,13.4l1.5,5.7h3.8l-1,5.4l-2.6,1l-0.1,14.2
			l16,18.2h7l0.4-1.1h12.5l3.6-3.3h7.1l3.9,3.9l10.6,1.1l-1.4,14.1l11.8,20.8l-6.2,11.8l0.4,5.6l4.9,4.9v13.4l6.4,8.6v11.1h5.5
			c-30.8,37.8-77.6,62-130,62c-92.4,0-167.6-75.2-167.6-167.6c0-23.3,4.8-45.5,13.4-65.6v-5.2l6-7.3c2.1-3.9,4.3-7.8,6.7-11.5l0.3,3
			l-7,8.5c-2.2,4.1-4.2,8.2-6,12.5v9.5l7,3.4v13.3l6.7,11.4l5.4,0.8l0.7-3.9l-6.4-9.9l-1.3-9.6h3.8l1.6,9.9l9.3,13.5l-2.4,4.4l5.9,9
			l14.6,3.6V233l5.9,0.8l-0.6,4.2l4.6,0.8l7.1,1.9l10,11.4l12.8,1l1.3,10.5l-8.8,6.1l-0.4,9.3l-1.3,5.7l12.7,15.9l1,5.4
			c0,0,4.6,1.2,5.2,1.2c0.6,0,10.3,7.4,10.3,7.4v28.7l3.5,1l-2.4,13.2l5.9,7.8l-1.1,13.1l7.7,13.6l9.9,8.7l10,0.2l1-3.2l-7.3-6.2
			l0.4-3.1l1.3-3.8l0.3-3.8l-5-0.2l-2.5-3.1l4.1-4l0.6-3l-4.6-1.3l0.3-2.8l6.6-1l10-4.8l3.3-6.1l10.5-13.4l-2.4-10.5l3.2-5.6
			l9.6,0.3l6.5-5.1l2.1-20.2l7.2-9.1l1.3-5.9l-6.5-2.1l-4.3-7.1l-14.8-0.2l-11.7-4.5l-0.6-8.3l-3.9-6.8l-10.6-0.2l-6.1-9.6l-5.4-2.7
			l-0.3,2.9l-9.9,0.6l-3.6-5l-10.3-2.1l-8.5,9.8l-13.4-2.3l-1-15.1l-9.8-1.7l3.9-7.4l-1.1-4.2L89,228.2l-8.1-1l-2.9-6.3l1.8-6.5
			l4.4-8.2l10.2-5.2l19.8,0l-0.1,6l7.1,3.3l-0.6-10.3l5.1-5.2l10.3-6.8l0.7-4.8l10.3-10.7l11-6.1l-1-0.8l7.4-7l2.7,0.7l1.2,1.6
			l2.8-3.1l0.7-0.3l-3.1-0.4l-3.1-1v-3l1.7-1.4h3.7l1.7,0.7l1.5,2.9l1.8-0.3v-0.3l0.5,0.2l5.1-0.8l0.7-2.5l2.9,0.7v2.7l-2.7,1.9h0
			l0.4,3l9.3,2.9c0,0,0,0,0,0.1l2.1-0.2l0.1-4l-7.4-3.4l-0.4-1.9l6.1-2.1l0.3-5.9l-6.4-3.9l-0.4-9.9l-8.8,4.3h-3.2l0.8-7.5
			l-11.9-2.8l-4.9,3.7v11.4l-8.9,2.8l-3.6,7.4l-3.9,0.6v-9.5l-8.4-1.2l-4.2-2.7l-1.7-6.2l14.9-8.7l7.3-2.2l0.7,4.9l4.1-0.2l0.3-2.5
			l4.3-0.6l0.1-0.9l-1.8-0.8l-0.4-2.6l5.2-0.4l3.2-3.3l0.2-0.2l0,0l1-1l11-1.4l4.9,4.1l-12.8,6.8l16.2,3.8l2.1-5.4h7.1l2.5-4.7
			l-5-1.3v-6l-15.7-7l-10.9,1.3l-6.1,3.2l0.4,7.8l-6.4-1l-1-4.3l6.1-5.6l-11.1-0.6l-3.2,1l-1.4,3.8l4.2,0.7l-0.8,4.2l-7.1,0.4
			l-1.1,2.8l-10.3,0.3c0,0-0.3-5.8-0.7-5.8s8.1-0.1,8.1-0.1l6.1-6l-3.4-1.7l-4.5,4.3l-7.4-0.4l-4.5-6.1h-9.5l-9.9,7.4h9.1l0.8,2.7
			l-2.4,2.2l10,0.3l1.5,3.6l-11.3-0.4l-0.5-2.8l-7.1-1.5l-3.8-2.1l-8.5,0.1C118.7,89.9,152.7,78,189.5,78
			c42.4,0,81.1,15.8,110.7,41.9l-2,3.6l-7.7,3l-3.3,3.5l0.8,4.1l4,0.6l2.4,6l6.9-2.8l1.1,8h-2.1l-5.7-0.8l-6.3,1.1l-6.1,8.6
			l-8.7,1.4l-1.3,7.4l3.7,0.9l-1.1,4.8l-8.6-1.7l-7.9,1.7l-1.7,4.4l1.4,9.2l4.6,2.2l7.8,0l5.3-0.5l1.6-4.2l8.2-10.7l5.4,1.1l5.3-4.8
			l1,3.8l13.1,8.8l-1.6,2.1l-5.9-0.3l2.3,3.2l3.6,0.8l4.3-1.8l-0.1-5.1l1.9-0.9l-1.5-1.6l-8.7-4.9l-2.3-6.5h7.3l2.3,2.3l6.3,5.4
			l0.3,6.5l6.5,6.9l2.4-9.5l4.5-2.4l0.8,7.7l4.4,4.8l8.7-0.2c1.7,4.4,3.2,8.8,4.5,13.3L349.4,199.3z M106.4,146l4.4-2.1l4,0.9
			l-1.4,5.3l-4.3,1.4L106.4,146z M129.7,158.5v3.4h-10l-3.8-1l0.9-2.4l4.8-2h6.6v2H129.7z M134.3,163.3v3.3l-2.5,1.6l-3.1,0.6
			c0,0,0-5,0-5.5H134.3z M131.5,162v-4l3.4,3.1L131.5,162z M133.1,170v3.3l-2.4,2.4h-5.3l0.8-3.7l2.5-0.2l0.5-1.3L133.1,170z
			 M119.8,163.3h5.5l-7.1,9.9l-2.9-1.6l0.6-4.2L119.8,163.3z M142.5,168.9v3.2h-5.3l-1.5-2.1v-3h0.4L142.5,168.9z M137.6,164.4
			l1.5-1.6l2.6,1.6l-2.1,1.7L137.6,164.4z M352.1,207.7l0.5-0.6c0.2,0.9,0.5,1.9,0.7,2.9L352.1,207.7z"/>
		<path class="st0" d="M35.2,174.8v5.2c1.8-4.3,3.8-8.4,6-12.5L35.2,174.8z"/>
	</g>
</g>
<text transform="matrix(1 0 0 1 300.748 428.709)" class="st1 st2 st3">T</text>
<path class="st1" d="M248.7,295h65.5c-2.7,16.9-9.5,31.8-20.5,44.9c-11,13.1-24.7,23.2-41.4,30.3c-16.6,7.1-34.6,10.6-54,10.6
	c-25.5,0-48.3-5.8-68.2-17.5c-19.9-11.7-35.5-28-46.7-48.9c-11.2-21-16.8-45-16.8-72.1c0-25.9,5.3-48.9,16-69.3
	c10.6-20.3,25.6-36.3,44.8-47.9c19.2-11.6,41.1-17.4,65.7-17.4c24.7,0,48.4,6.9,70.8,20.6c13.3,8.1,24.4,17.8,33.5,29.1l44.3-13.9
	c-29.4-44.9-77.8-76.2-133.8-82.4c-6.4-0.6-13-0.9-19.7-0.9c-12,0-23.5,1-34.6,2.8c-41.9,7.8-78.8,29.6-105.6,60.6
	c-6.2,7.6-11.8,15.9-16.8,24.8C15.8,176.2,8,207.6,8,242.8c0,36.9,7.8,69.3,23.3,97.2c6.6,11.8,14.4,22.5,23.4,32.2
	c6.9,7.2,14.4,13.8,22.4,19.7c0,0,0,0,0.1,0.1c0.3,0.2,0.6,0.4,0.9,0.6c6.3,4.6,13,8.7,20.2,12.5c27.9,14.9,60.2,22.6,96.8,23.2
	c96.3-3.9,173.5-81.7,176.5-178.2H248.7V295z"/>
</svg>
