<?xml version="1.0" encoding="utf-8"?>
<!-- Generator: Adobe Illustrator 22.0.1, SVG Export Plug-In . SVG Version: 6.00 Build 0)  -->
<svg version="1.1" id="Слой_1" xmlns="http://www.w3.org/2000/svg" xmlns:xlink="http://www.w3.org/1999/xlink" x="0px" y="0px"
	 viewBox="0 0 1200.4 2547.3" style="enable-background:new 0 0 1200.4 2547.3;" xml:space="preserve">
<style type="text/css">
	.st0{fill:#23DBD2;}
	.st1{fill:#B4F476;}
	.st2{fill:#CC5050;}
	.st3{fill:#006697;}
	.st4{font-family:'NotoSerif-Bold';}
	.st5{font-size:72px;}
	.st6{fill:#B7B7B7;}
	.st7{font-family:'NotoSerif';}
	.st8{font-size:47px;}
	.st9{font-size:48px;}
	.st10{font-size:28.5px;}
	.st11{fill:#FFFFFF;}
	.st12{font-size:29px;}
</style>
<g>
	<g>
		<g>
			<path class="st0" d="M181.8,406.8c1.4-2.7,4.2-4.6,7.5-4.6s6.1,1.9,7.5,4.6v-64.9h7.5l-15-13.9l-15,13.9h7.5V406.8z"/>
			<path class="st1" d="M154.1,414.3c1.4-2.7,4.2-4.6,7.5-4.6s6.1,1.9,7.5,4.6v-50.9h7.5l-14.9-13.9l-15.1,13.9h7.5V414.3z"/>
			<path class="st2" d="M209.5,399.2c1.4-2.7,4.2-4.6,7.5-4.6s6.1,1.9,7.5,4.6v-76.1h7.5l-15.1-13.9l-15.1,13.9h7.5v76.1H209.5z"/>
			<circle class="st0" cx="189.3" cy="412.9" r="7.3"/>
			<circle class="st1" cx="161.7" cy="420.4" r="7.3"/>
			<circle class="st2" cx="217" cy="405.4" r="7.3"/>
			<path class="st1" d="M178.8,420.7l-4.1,1.1c-1.6,0.4-3.2-0.5-3.7-2.1l0,0c-0.4-1.6,0.5-3.2,2.1-3.7l4.1-1.1
				c1.6-0.4,3.2,0.5,3.7,2.1l0,0C181.4,418.6,180.4,420.3,178.8,420.7z"/>
			<path class="st0" d="M206.8,412.7l-4.1,1.1c-1.6,0.4-3.2-0.5-3.7-2.1l0,0c-0.4-1.6,0.5-3.2,2.1-3.7l4.1-1.1
				c1.6-0.4,3.2,0.5,3.7,2.1l0,0C209.4,410.6,208.4,412.3,206.8,412.7z"/>
		</g>
		<path class="st3" d="M190.9,274.4c-42.4,0-76.7,34.3-76.7,76.7c0,19.6,6.9,36.3,19,49.9c0,0,0.5,0.5,0.9,0.8
			c1.4,1.6,3.3,2.5,5.4,2.5c4.3,0,7.7-4,7.7-9c0-2.5-0.9-4.8-2.3-6.4l0,0c-9.2-10.5-13.5-22.8-13.5-37.8c0-32.9,26.7-59.6,59.6-59.6
			s59.6,26.7,59.6,59.6c0,15.8-6.1,30.1-16.1,40.7c-0.2,0.2-0.4,0.5-0.6,0.8c-1.4,1.6-2.3,3.9-2.3,6.4c0,5,3.5,9,7.7,9
			c1.9,0,3.7-0.8,5-2.2c0.9-0.8,1.9-1.6,2.7-2.4c12.9-13.7,20.7-32.2,20.7-52.4C267.6,308.7,233.3,274.4,190.9,274.4z"/>
	</g>
	<g>
		<text transform="matrix(1 0 0 1 302.8948 355.2144)" class="st4 st5">ФОРУМ ИНВЕСТОРА</text>
		<text transform="matrix(1 0 0 1 302.8949 400.5179)" class="st6 st7 st8">Как заработать на инвестициях</text>
	</g>
</g>
<g>
	<g>
		<g>
			<path class="st0" d="M181.8,206.8c1.4-2.7,4.2-4.6,7.5-4.6s6.1,1.9,7.5,4.6v-64.9h7.5l-15-13.9l-15,13.9h7.5V206.8z"/>
			<path class="st1" d="M154.1,214.3c1.4-2.7,4.2-4.6,7.5-4.6s6.1,1.9,7.5,4.6v-50.9h7.5l-14.9-13.9l-15.1,13.9h7.5V214.3z"/>
			<path class="st2" d="M209.5,199.2c1.4-2.7,4.2-4.6,7.5-4.6s6.1,1.9,7.5,4.6v-76.1h7.5l-15.1-13.9l-15.1,13.9h7.5v76.1H209.5z"/>
			<circle class="st0" cx="189.3" cy="212.9" r="7.3"/>
			<circle class="st1" cx="161.7" cy="220.4" r="7.3"/>
			<circle class="st2" cx="217" cy="205.4" r="7.3"/>
			<path class="st1" d="M178.8,220.7l-4.1,1.1c-1.6,0.4-3.2-0.5-3.7-2.1l0,0c-0.4-1.6,0.5-3.2,2.1-3.7l4.1-1.1
				c1.6-0.4,3.2,0.5,3.7,2.1l0,0C181.4,218.6,180.4,220.3,178.8,220.7z"/>
			<path class="st0" d="M206.8,212.7l-4.1,1.1c-1.6,0.4-3.2-0.5-3.7-2.1l0,0c-0.4-1.6,0.5-3.2,2.1-3.7l4.1-1.1
				c1.6-0.4,3.2,0.5,3.7,2.1l0,0C209.4,210.6,208.4,212.3,206.8,212.7z"/>
		</g>
		<path class="st3" d="M190.9,74.4c-42.4,0-76.7,34.3-76.7,76.7c0,19.6,6.9,36.3,19,49.9c0,0,0.5,0.5,0.9,0.8
			c1.4,1.6,3.3,2.5,5.4,2.5c4.3,0,7.7-4,7.7-9c0-2.5-0.9-4.8-2.3-6.4l0,0c-9.2-10.5-13.5-22.8-13.5-37.8c0-32.9,26.7-59.6,59.6-59.6
			s59.6,26.7,59.6,59.6c0,15.8-6.1,30.1-16.1,40.7c-0.2,0.2-0.4,0.5-0.6,0.8c-1.4,1.6-2.3,3.9-2.3,6.4c0,5,3.5,9,7.7,9
			c1.9,0,3.7-0.8,5-2.2c0.9-0.8,1.9-1.6,2.7-2.4c12.9-13.7,20.7-32.2,20.7-52.4C267.6,108.7,233.3,74.4,190.9,74.4z"/>
	</g>
	<g>
		<text transform="matrix(1 0 0 1 302.8948 155.2144)" class="st4 st5">ШКОЛА ИНВЕСТОРА</text>
		<text transform="matrix(1 0 0 1 302.8949 200.3601)" class="st6 st7 st9">Как заработать на инвестициях</text>
	</g>
</g>
<g>
	<g>
		<g>
			<path class="st0" d="M213.5,677c2.2-4.2,6.6-7.1,11.7-7.1c5.1,0,9.5,2.9,11.7,7.1V576.4h11.6l-23.4-21.6l-23.4,21.6h11.8V677z"/>
			<path class="st1" d="M170.6,688.7c2.2-4.2,6.6-7.1,11.7-7.1c5.1,0,9.5,2.9,11.7,7.1v-79h11.7l-23.4-21.6l-23.4,21.6h11.7
				L170.6,688.7L170.6,688.7z"/>
			<path class="st2" d="M256.4,665.3c2.2-4.2,6.6-7.1,11.7-7.1c5.1,0,9.5,2.9,11.7,7.1V547.2h11.7l-23.4-21.6l-23.4,21.6h11.7V665.3
				L256.4,665.3z"/>
			<circle class="st0" cx="225.2" cy="686.5" r="11.4"/>
			<circle class="st1" cx="182.2" cy="698.2" r="11.4"/>
			<circle class="st2" cx="268.1" cy="674.8" r="11.4"/>
			<path class="st1" d="M210.4,697.2l-9.5,2.5c-1.6,0.4-3.2-0.5-3.7-2.1l-0.9-3.2c-0.4-1.6,0.5-3.2,2.1-3.7l9.5-2.5
				c1.6-0.4,3.2,0.5,3.7,2.1l0.9,3.2C213,695.1,212,696.8,210.4,697.2z"/>
			<path class="st0" d="M252.9,684.8l-9.5,2.5c-1.6,0.4-3.2-0.5-3.7-2.1l-0.9-3.2c-0.4-1.6,0.5-3.2,2.1-3.7l9.5-2.5
				c1.6-0.4,3.2,0.5,3.7,2.1l0.9,3.2C255.4,682.7,254.5,684.4,252.9,684.8z"/>
		</g>
		<path class="st3" d="M227.6,471.6c-65.7,0-119,53.3-119,119c0,30.4,10.6,56.4,29.4,77.4c0.1,0.1,0.8,0.8,1.3,1.3
			c2.2,2.4,5.1,3.9,8.3,3.9c6.6,0,12-6.3,12-14c0-3.9-1.3-7.4-3.5-9.9l0,0c-14.3-16.3-21-35.4-21-58.7c0-51,41.4-92.4,92.4-92.4
			s92.4,41.4,92.4,92.4c0,24.4-9.5,46.7-25,63.2c-0.4,0.4-0.7,0.8-1,1.3c-2.2,2.5-3.6,6.1-3.6,10c0,7.7,5.4,14,12,14
			c3,0,5.7-1.3,7.8-3.4c1.3-1.2,3-2.5,4.2-3.8c19.9-21.3,32.2-49.9,32.2-81.3C346.6,524.8,293.3,471.6,227.6,471.6z"/>
	</g>
	<g>
		<text transform="matrix(1 0 0 1 377.8948 559.2144)" class="st4 st5">ШКОЛА </text>
		<text transform="matrix(1 0 0 1 377.8948 645.6144)" class="st4 st5">ИНВЕСТОРА</text>
		<text transform="matrix(1 0 0 1 377.6103 688.7073)" class="st6 st7 st10">Как заработать на инвестициях</text>
	</g>
</g>
<rect y="1085.6" width="1199.1" height="1461.7"/>
<g>
	<g>
		<g>
			<path class="st0" d="M243.5,1719c2.2-4.2,6.6-7.1,11.7-7.1c5.1,0,9.5,2.9,11.7,7.1v-100.6h11.6l-23.4-21.6l-23.4,21.6h11.8V1719z
				"/>
			<path class="st1" d="M200.6,1730.7c2.2-4.2,6.6-7.1,11.7-7.1c5.1,0,9.5,2.9,11.7,7.1v-79h11.7l-23.4-21.6l-23.4,21.6h11.7
				C200.6,1651.7,200.6,1730.7,200.6,1730.7z"/>
			<path class="st2" d="M286.4,1707.3c2.2-4.2,6.6-7.1,11.7-7.1c5.1,0,9.5,2.9,11.7,7.1v-118.1h11.7l-23.4-21.6l-23.4,21.6h11.7
				V1707.3L286.4,1707.3z"/>
			<circle class="st0" cx="255.2" cy="1728.5" r="11.4"/>
			
				<ellipse transform="matrix(6.652064e-02 -0.9978 0.9978 6.652064e-02 -1538.3136 1836.1)" class="st1" cx="212.1" cy="1740.2" rx="11.4" ry="11.4"/>
			<circle class="st2" cx="298.1" cy="1716.8" r="11.4"/>
			<path class="st1" d="M240.4,1739.2l-9.5,2.5c-1.6,0.4-3.2-0.5-3.7-2.1l-0.9-3.2c-0.4-1.6,0.5-3.2,2.1-3.7l9.5-2.5
				c1.6-0.4,3.2,0.5,3.7,2.1l0.9,3.2C243,1737.1,242,1738.8,240.4,1739.2z"/>
			<path class="st0" d="M282.9,1726.8l-9.5,2.5c-1.6,0.4-3.2-0.5-3.7-2.1l-0.9-3.2c-0.4-1.6,0.5-3.2,2.1-3.7l9.5-2.5
				c1.6-0.4,3.2,0.5,3.7,2.1l0.9,3.2C285.4,1724.7,284.5,1726.4,282.9,1726.8z"/>
		</g>
		<path class="st3" d="M257.6,1513.6c-65.7,0-119,53.3-119,119c0,30.4,10.6,56.4,29.4,77.4c0.1,0.1,0.8,0.8,1.3,1.3
			c2.2,2.4,5.1,3.9,8.3,3.9c6.6,0,12-6.3,12-14c0-3.9-1.3-7.4-3.5-9.9l0,0c-14.3-16.3-21-35.4-21-58.7c0-51,41.4-92.4,92.4-92.4
			s92.4,41.4,92.4,92.4c0,24.4-9.5,46.7-25,63.2c-0.4,0.4-0.7,0.8-1,1.3c-2.2,2.5-3.6,6.1-3.6,10c0,7.7,5.4,14,12,14
			c3,0,5.7-1.3,7.8-3.4c1.3-1.2,3-2.5,4.2-3.8c19.9-21.3,32.2-49.9,32.2-81.3C376.6,1566.8,323.3,1513.6,257.6,1513.6z"/>
	</g>
	<g>
		<text transform="matrix(1 0 0 1 407.8948 1601.2144)" class="st11 st4 st5">ШКОЛА </text>
		<text transform="matrix(1 0 0 1 407.8948 1687.6144)" class="st11 st4 st5">ИНВЕСТОРА</text>
		<text transform="matrix(1 0 0 1 407.6106 1731.2018)" class="st6 st7 st12">Как заработать на инвестициях</text>
	</g>
</g>
<g>
	<g>
		<g>
			<path class="st0" d="M186.8,1422.8c1.4-2.7,4.2-4.6,7.5-4.6s6.1,1.9,7.5,4.6V1358h7.5l-15.1-13.9l-15.1,13.9h7.5v64.8H186.8z"/>
			<path class="st1" d="M159.1,1430.3c1.4-2.7,4.2-4.6,7.5-4.6s6.1,1.9,7.5,4.6v-50.9h7.5l-15.1-13.9l-15.1,13.9h7.5v50.9
				L159.1,1430.3L159.1,1430.3z"/>
			<path class="st2" d="M214.5,1415.2c1.4-2.7,4.2-4.6,7.5-4.6s6.1,1.9,7.5,4.6v-76.1h7.5l-15.1-13.9l-15.1,13.9h7.5v76.1H214.5z"/>
			<circle class="st0" cx="194.3" cy="1428.9" r="7.3"/>
			<circle class="st1" cx="166.7" cy="1436.4" r="7.3"/>
			<circle class="st2" cx="222" cy="1421.4" r="7.3"/>
			<path class="st1" d="M183.8,1436.7l-4.1,1.1c-1.6,0.4-3.2-0.5-3.7-2.1l0,0c-0.4-1.6,0.5-3.2,2.1-3.7l4.1-1.1
				c1.6-0.4,3.2,0.5,3.7,2.1l0,0C186.4,1434.6,185.4,1436.3,183.8,1436.7z"/>
			<path class="st0" d="M211.8,1428.7l-4.1,1.1c-1.6,0.4-3.2-0.5-3.7-2.1l0,0c-0.4-1.6,0.5-3.2,2.1-3.7l4.1-1.1
				c1.6-0.4,3.2,0.5,3.7,2.1l0,0C214.4,1426.6,213.4,1428.3,211.8,1428.7z"/>
		</g>
		<path class="st3" d="M195.9,1290.4c-42.4,0-76.7,34.3-76.7,76.7c0,19.6,6.9,36.3,19,49.9c0,0,0.5,0.5,0.9,0.8
			c1.4,1.6,3.3,2.5,5.4,2.5c4.3,0,7.7-4,7.7-9c0-2.5-0.9-4.8-2.3-6.4l0,0c-9.2-10.5-13.5-22.8-13.5-37.8c0-32.9,26.7-59.6,59.6-59.6
			s59.6,26.7,59.6,59.6c0,15.8-6.1,30.1-16.1,40.7c-0.2,0.2-0.4,0.5-0.6,0.8c-1.4,1.6-2.3,3.9-2.3,6.4c0,5,3.5,9,7.7,9
			c1.9,0,3.7-0.8,5-2.2c0.9-0.8,1.9-1.6,2.7-2.4c12.9-13.7,20.7-32.2,20.7-52.4C272.6,1324.7,238.3,1290.4,195.9,1290.4z"/>
	</g>
	<g>
		<text transform="matrix(1 0 0 1 307.8948 1371.2145)" class="st11 st4 st5">ШКОЛА ИНВЕСТОРА</text>
		<text transform="matrix(1 0 0 1 307.8953 1417.1191)" class="st6 st7 st9">Как заработать на инвестициях</text>
	</g>
</g>
<g>
	<g>
		<g>
			<path class="st0" d="M243.5,2289c2.2-4.2,6.6-7.1,11.7-7.1c5.1,0,9.5,2.9,11.7,7.1v-100.6h11.6l-23.4-21.6l-23.4,21.6h11.8V2289z
				"/>
			<path class="st1" d="M200.6,2300.7c2.2-4.2,6.6-7.1,11.7-7.1c5.1,0,9.5,2.9,11.7,7.1v-79h11.7l-23.4-21.6l-23.4,21.6h11.7
				C200.6,2221.7,200.6,2300.7,200.6,2300.7z"/>
			<path class="st2" d="M286.4,2277.3c2.2-4.2,6.6-7.1,11.7-7.1c5.1,0,9.5,2.9,11.7,7.1v-118.1h11.7l-23.4-21.6l-23.4,21.6h11.7
				V2277.3L286.4,2277.3z"/>
			<circle class="st0" cx="255.2" cy="2298.5" r="11.4"/>
			
				<ellipse transform="matrix(2.308099e-02 -0.9997 0.9997 2.308099e-02 -2102.3628 2468.9246)" class="st1" cx="212.1" cy="2310.2" rx="11.4" ry="11.4"/>
			<circle class="st2" cx="298.1" cy="2286.8" r="11.4"/>
			<path class="st1" d="M240.4,2309.2l-9.5,2.5c-1.6,0.4-3.2-0.5-3.7-2.1l-0.9-3.2c-0.4-1.6,0.5-3.2,2.1-3.7l9.5-2.5
				c1.6-0.4,3.2,0.5,3.7,2.1l0.9,3.2C243,2307.1,242,2308.8,240.4,2309.2z"/>
			<path class="st0" d="M282.9,2296.8l-9.5,2.5c-1.6,0.4-3.2-0.5-3.7-2.1l-0.9-3.2c-0.4-1.6,0.5-3.2,2.1-3.7l9.5-2.5
				c1.6-0.4,3.2,0.5,3.7,2.1l0.9,3.2C285.4,2294.7,284.5,2296.4,282.9,2296.8z"/>
		</g>
		<path class="st3" d="M257.6,2083.6c-65.7,0-119,53.3-119,119c0,30.4,10.6,56.4,29.4,77.4c0.1,0.1,0.8,0.8,1.3,1.3
			c2.2,2.4,5.1,3.9,8.3,3.9c6.6,0,12-6.3,12-14c0-3.9-1.3-7.4-3.5-9.9l0,0c-14.3-16.3-21-35.4-21-58.7c0-51,41.4-92.4,92.4-92.4
			s92.4,41.4,92.4,92.4c0,24.4-9.5,46.7-25,63.2c-0.4,0.4-0.7,0.8-1,1.3c-2.2,2.5-3.6,6.1-3.6,10c0,7.7,5.4,14,12,14
			c3,0,5.7-1.3,7.8-3.4c1.3-1.2,3-2.5,4.2-3.8c19.9-21.3,32.2-49.9,32.2-81.3C376.6,2136.8,323.3,2083.6,257.6,2083.6z"/>
	</g>
	<g>
		<text transform="matrix(1 0 0 1 407.8948 2171.2144)" class="st11 st4 st5">ФОРУМ </text>
		<text transform="matrix(1 0 0 1 407.8948 2257.6145)" class="st11 st4 st5">ИНВЕСТОРА</text>
		<text transform="matrix(1 0 0 1 407.6106 2301.2019)" class="st6 st7 st12">Как заработать на инвестициях</text>
	</g>
</g>
<g>
	<g>
		<g>
			<path class="st0" d="M186.8,1972.8c1.4-2.7,4.2-4.6,7.5-4.6s6.1,1.9,7.5,4.6V1908h7.5l-15.1-13.9l-15.1,13.9h7.5v64.8H186.8z"/>
			<path class="st1" d="M159.1,1980.3c1.4-2.7,4.2-4.6,7.5-4.6s6.1,1.9,7.5,4.6v-50.9h7.5l-15.1-13.9l-15.1,13.9h7.5v50.9
				L159.1,1980.3L159.1,1980.3z"/>
			<path class="st2" d="M214.5,1965.2c1.4-2.7,4.2-4.6,7.5-4.6s6.1,1.9,7.5,4.6v-76.1h7.5l-15.1-13.9l-15.1,13.9h7.5v76.1H214.5z"/>
			<circle class="st0" cx="194.3" cy="1978.9" r="7.3"/>
			<circle class="st1" cx="166.7" cy="1986.4" r="7.3"/>
			<circle class="st2" cx="222" cy="1971.4" r="7.3"/>
			<path class="st1" d="M183.8,1986.7l-4.1,1.1c-1.6,0.4-3.2-0.5-3.7-2.1l0,0c-0.4-1.6,0.5-3.2,2.1-3.7l4.1-1.1
				c1.6-0.4,3.2,0.5,3.7,2.1l0,0C186.4,1984.6,185.4,1986.3,183.8,1986.7z"/>
			<path class="st0" d="M211.8,1978.7l-4.1,1.1c-1.6,0.4-3.2-0.5-3.7-2.1l0,0c-0.4-1.6,0.5-3.2,2.1-3.7l4.1-1.1
				c1.6-0.4,3.2,0.5,3.7,2.1l0,0C214.4,1976.6,213.4,1978.3,211.8,1978.7z"/>
		</g>
		<path class="st3" d="M195.9,1840.4c-42.4,0-76.7,34.3-76.7,76.7c0,19.6,6.9,36.3,19,49.9c0,0,0.5,0.5,0.9,0.8
			c1.4,1.6,3.3,2.5,5.4,2.5c4.3,0,7.7-4,7.7-9c0-2.5-0.9-4.8-2.3-6.4l0,0c-9.2-10.5-13.5-22.8-13.5-37.8c0-32.9,26.7-59.6,59.6-59.6
			s59.6,26.7,59.6,59.6c0,15.8-6.1,30.1-16.1,40.7c-0.2,0.2-0.4,0.5-0.6,0.8c-1.4,1.6-2.3,3.9-2.3,6.4c0,5,3.5,9,7.7,9
			c1.9,0,3.7-0.8,5-2.2c0.9-0.8,1.9-1.6,2.7-2.4c12.9-13.7,20.7-32.2,20.7-52.4C272.6,1874.7,238.3,1840.4,195.9,1840.4z"/>
	</g>
	<g>
		<text transform="matrix(1 0 0 1 307.8948 1921.2145)" class="st11 st4 st5">ФОРУМ ИНВЕСТОРА</text>
		<text transform="matrix(1 0 0 1 307.8953 1970.1191)" class="st6 st7 st8">Как заработать на инвестициях</text>
	</g>
</g>
<g>
	<g>
		<g>
			<path class="st0" d="M215.5,960c2.2-4.2,6.6-7.1,11.7-7.1c5.1,0,9.5,2.9,11.7,7.1V859.4h11.6l-23.4-21.6l-23.4,21.6h11.8V960z"/>
			<path class="st1" d="M172.6,971.7c2.2-4.2,6.6-7.1,11.7-7.1c5.1,0,9.5,2.9,11.7,7.1v-79h11.7l-23.4-21.6l-23.4,21.6h11.7
				L172.6,971.7L172.6,971.7z"/>
			<path class="st2" d="M258.4,948.3c2.2-4.2,6.6-7.1,11.7-7.1c5.1,0,9.5,2.9,11.7,7.1V830.2h11.7l-23.4-21.6l-23.4,21.6h11.7V948.3
				L258.4,948.3z"/>
			
				<ellipse transform="matrix(3.327798e-02 -0.9994 0.9994 3.327798e-02 -749.3059 1164.3041)" class="st0" cx="227.2" cy="969.5" rx="11.4" ry="11.4"/>
			<circle class="st1" cx="184.2" cy="981.2" r="11.4"/>
			<circle class="st2" cx="270.1" cy="957.8" r="11.4"/>
			<path class="st1" d="M212.4,980.2l-9.5,2.5c-1.6,0.4-3.2-0.5-3.7-2.1l-0.9-3.2c-0.4-1.6,0.5-3.2,2.1-3.7l9.5-2.5
				c1.6-0.4,3.2,0.5,3.7,2.1l0.9,3.2C215,978.1,214,979.8,212.4,980.2z"/>
			<path class="st0" d="M254.9,967.8l-9.5,2.5c-1.6,0.4-3.2-0.5-3.7-2.1l-0.9-3.2c-0.4-1.6,0.5-3.2,2.1-3.7l9.5-2.5
				c1.6-0.4,3.2,0.5,3.7,2.1l0.9,3.2C257.4,965.7,256.5,967.4,254.9,967.8z"/>
		</g>
		<path class="st3" d="M229.6,754.6c-65.7,0-119,53.3-119,119c0,30.4,10.6,56.4,29.4,77.4c0.1,0.1,0.8,0.8,1.3,1.3
			c2.2,2.4,5.1,3.9,8.3,3.9c6.6,0,12-6.3,12-14c0-3.9-1.3-7.4-3.5-9.9l0,0c-14.3-16.3-21-35.4-21-58.7c0-51,41.4-92.4,92.4-92.4
			s92.4,41.4,92.4,92.4c0,24.4-9.5,46.7-25,63.2c-0.4,0.4-0.7,0.8-1,1.3c-2.2,2.5-3.6,6.1-3.6,10c0,7.7,5.4,14,12,14
			c3,0,5.7-1.3,7.8-3.4c1.3-1.2,3-2.5,4.2-3.8c19.9-21.3,32.2-49.9,32.2-81.3C348.6,807.8,295.3,754.6,229.6,754.6z"/>
	</g>
	<g>
		<text transform="matrix(1 0 0 1 379.8948 842.2144)" class="st4 st5">ФОРУМ </text>
		<text transform="matrix(1 0 0 1 379.8948 928.6144)" class="st4 st5">ИНВЕСТОРА</text>
		<text transform="matrix(1 0 0 1 379.6103 971.7073)" class="st6 st7 st10">Как заработать на инвестициях</text>
	</g>
</g>
</svg>
