<svg xmlns="http://www.w3.org/2000/svg" viewBox="136 0 104.3 30"><path fill="#F9C869" d="M156 16.1s-1.7-11.8 16.9-13.4c0 0-.5.9-1.7 4-1.9 5-3.9 7.2-11.7 9.2-1.4.3-3.7 1.1-3 5.1 0 0-2.8-8.4 8.2-14.1 0-.2-8.2 2.4-8.7 9.2z"/><path fill="#F9C869" d="M137.5 8.8s.5 1.7 2.2 4.2c2.2 3.1 5.8 3.4 8.4 3.3 4.4-.2 5.1 2 5.1 2s-.5-4-8.1-6.8c0 0 9.2 1.6 8.9 8.5 0 1.6 3.4-13.6-16.5-11.2zM153.4 21s.3 2.3-2.2 4.7c0 0 3-1.6 2.8-4.8 0 0 1.6 7.8-6.2 8.1 0 0 .2 0 1.6-4 1.2-3.3 4-4 4-4zm3.9-.8s.5 3.6 3.9 5c0 0-3.6-.5-4.7-3.9 0 0 .9 8.4 9.2 6.1 0 0-1.2-1.2-3.3-4.2-2-3.2-5.1-3-5.1-3z"/><circle fill="#F9C869" cx="154.2" cy="10.7" r="1.4"/><g fill="#F9C869"><path d="M181.1 28.5s-.1-1.3 0-2.7.3-2.8.5-4.2c.2-1.5.4-3 .7-4.6s.5-3.1.8-4.7v-.2c0-.2-.1-.3-.2-.4-.1-.1-.2-.1-.4-.1s-.5 0-.8.1c-.3.1-.6.2-.8.3-.3.1-.5.3-.7.6-.2.2-.4.5-.5.9-.2.4-.3.9-.4 1.5-.1.6-.2 1.2-.2 1.8-.1.7-.1 1.3-.1 2v2c0 .3-.1.5-.2.7-.1.1-.2.2-.4.2s-.3-.1-.4-.4c-.1-.3-.2-.6-.2-1s-.1-.8-.1-1.3v-4.4c0-.3-.1-.5-.3-.5-.1 0-.2.1-.3.2-.3.2-.7.5-1.1.7s-.7.5-1.1.7c-.4.2-.7.4-1.1.5-.4.1-.7.2-.9.2-.2 0-.3 0-.4-.1s-.2-.1-.2-.2c0-.2.2-.5.7-.9.5-.4 1-.8 1.6-1.2.6-.4 1.2-.8 1.7-1.1.6-.3 1-.6 1.2-.7.5-.3.7-.7.9-1.1.1-.4.2-.9.2-1.4V7.9c0-.4.1-.6.1-1 .1-.3.1-.6.3-.8.1-.2.3-.3.4-.3.2 0 .3.2.4.7.1.5.1 1 .2 1.6 0 .6.1 1.1.2 1.6s.2.7.4.7c.1 0 .4-.1.7-.2.4-.1.8-.2 1.2-.4.4-.2.8-.3 1.2-.5.4-.2.6-.3.6-.5.1-.2.2-.7.4-1.3s.4-1.3.5-2.1c.2-.7.4-1.4.5-2.1.2-.7.3-1.2.4-1.5.1-.2.2-.4.4-.6.2-.2.4-.3.6-.3.1 0 .2.1.2.3 0 .2-.1.5-.2.9s-.2.7-.3 1c-.2.8-.4 1.6-.7 2.5s-.4 1.8-.5 2.6c0 .4.2.5.5.5h.4c1-.2 2.1-.3 3.3-.4 1.2-.1 2.4-.2 3.5-.2.4 0 .7 0 .9.1.3 0 .4.2.4.4 0 .1-.2.2-.6.3s-.9.2-1.4.2c-.5.1-1 .1-1.5.2-.5 0-.8.1-1 .1-.7.1-1.3.2-1.8.3-.5.1-1 .1-1.6.2-.7.1-1.2.3-1.5.7-.3.4-.5.7-.5 1-.3 1.4-.6 2.9-.9 4.5-.3 1.6-.5 3.1-.8 4.7l-.6 4.5c-.1 1.2-.3 3-.8 3.3-.5.3-.5 1-.5 1"/><path d="M186.5 20.6V20c0-.8.3-1.6.8-2.3s1.2-1.3 2-1.9c0-.1 0-.2-.1-.3v-.3c0-.2.1-.3.2-.4.1-.1.3-.2.6-.2.4 0 .8.2 1 .6.2.4.4.8.6 1.3.2.5.3 1 .5 1.5.1.5.4.9.6 1.2.1.1.2.2.4.3.2.1.4.3.6.4s.4.3.5.4c.1.1.2.2.2.3 0 .2-.1.4-.4.5s-.5.1-.7.1c-.3 0-.6 0-.8-.1s-.4-.2-.5-.4c-.1-.1-.3-.3-.4-.5-.1-.2-.3-.4-.4-.5l-1.5 1.2c-.5.4-1 .5-1.6.5-.3 0-.6-.1-.9-.3-.5-.1-.7-.3-.7-.5zm3.8-2.4c0-.3-.1-.7-.2-1-.2-.3-.3-.6-.5-.9-.2 0-.4.1-.6.4s-.4.5-.6.9c-.2.3-.3.7-.4 1-.1.3-.2.6-.2.7v.2c0 .1 0 .2.1.3 0 .1.1.2.1.2s.1.1.2.1c.2 0 .5-.1.7-.2.2-.2.5-.3.7-.6.2-.2.4-.4.5-.7.1-.1.2-.2.2-.4z"/><path d="M194 29.5c.3-.5.2-1.1.8-1.6.5-.5 1.1-1.1 1.7-1.6.6-.5 1.2-1 1.7-1.5s1-1 1.4-1.5c.4-.5.6-.9.7-1.3 0-.2-.1-.3-.2-.4s-.3-.1-.5-.1h-1.8c-.3 0-.7 0-1.1-.1-.4 0-.8-.1-1.1-.2-.3-.1-.6-.3-.9-.5-.2-.2-.3-.5-.3-.8 0-.3.2-.6.6-.9s.9-.6 1.4-.8 1-.5 1.4-.8c.4-.3.6-.6.6-.9 0-.1-.1-.2-.2-.3-.1-.1-.2-.1-.4-.2-.1 0-.3-.1-.5-.1h-1.1c-.3 0-.5 0-.7.1l-.6.1c-.2 0-.3 0-.3-.1v-.3c0-.2.2-.4.5-.5s.7-.3 1-.3c.4-.1.9-.1 1.5-.2.6 0 1.1.1 1.6.4.4.3.7.7.7 1.2 0 .4-.2.7-.5 1.1l-1.2.9c-.4.3-.8.5-1.2.7-.4.2-.5.4-.5.5 0 .2.1.3.3.4.2.1.4.2.7.2.3.1.6.1 1 .1h1.7c.5 0 1 .1 1.3.2.4.2.5.5.5 1 0 .3-.1.7-.3 1s-.5.7-.8 1.1c-.3.4-.7.7-1.1 1.1-.4.4-.9.8-1.3 1.2l-.2.2c-.5.4-.9.8-1.4 1.2l-1.2 1.2c-.4.4-1.5.7-1.7 1.1m13-24.6c.2.8.4 1.5.5 2.2s.2 1.3.2 1.9c0 .7-.1 1.3-.2 1.9s-.3 1.2-.6 1.8-.6 1.2-1 1.8c-.4.6-.9 1.3-1.5 2 0 .3.1.6.1.9 0 .3.1.7.2 1 .1.3.2.6.3.8s.3.4.4.5c.1 0 .2-.1.3-.1h.2c.3-.1.5-.4.6-.8.1-.4.2-.8.2-1 0-.4-.1-.7-.2-.8-.1-.2-.3-.3-.4-.3s-.3-.1-.4-.2-.2-.2-.2-.5.1-.5.3-.7c.2-.2.4-.3.7-.4.2 0 .4.1.6.2.2.2.3.3.4.5.1.2.2.4.3.7.1.2.1.4.1.6v.2c0 .3 0 .7-.1 1.1-.1.5-.2.9-.3 1.4-.2.5-.4.8-.7 1.2-.3.3-.6.5-1.1.5-.4 0-.8-.1-1.1-.4s-.5-.6-.7-1c-.2-.4-.3-.8-.4-1.3-.1-.4-.2-.9-.2-1.2v-.1s-.1 0-.2.1-.2.1-.3.1c-.1 0-.2-.1-.2-.4 0-.2.1-.3.2-.4.2-.1.2-.2.3-.2v-4.8c0-.6.1-1.4.2-2.3 0-.2.1-.5.1-1 .1-.4.1-.9.2-1.4.1-.5.2-1 .4-1.5.1-.5.3-1 .5-1.4.2-.4.4-.8.6-1.1.2-.3.5-.4.7-.4.1 0 .3.1.4.2.1.2.3.4.4.6.1.2.2.5.3.7 0 .4.1.6.1.8zm-.4 1.8c-.1-.4-.2-.7-.3-.9-.1-.2-.2-.5-.4-.9-.5 1.6-.9 3.1-1.2 4.5-.3 1.4-.5 2.9-.5 4.6v1.6c.9-1 1.6-2 2-3.1.4-1.1.6-2.2.6-3.4.1-.7 0-1.5-.2-2.4zm2.7 13.9V20c0-.8.3-1.6.8-2.3s1.2-1.3 2-1.9c0-.1 0-.2-.1-.3v-.3c0-.2.1-.3.2-.4.1-.1.3-.2.6-.2.4 0 .8.2 1 .6.2.4.4.8.6 1.3.2.5.3 1 .5 1.5.1.5.4.9.6 1.2.1.1.2.2.4.3.2.1.4.3.6.4s.4.3.5.4c.1.1.2.2.2.3 0 .2-.1.4-.4.5s-.5.1-.7.1c-.3 0-.6 0-.8-.1s-.4-.2-.5-.4c-.1-.1-.3-.3-.4-.5-.1-.2-.3-.4-.4-.5l-1.5 1.2c-.5.4-1 .5-1.6.5-.3 0-.6-.1-.9-.3-.6-.1-.7-.3-.7-.5zm3.8-2.4c0-.3-.1-.7-.2-1-.2-.3-.3-.6-.5-.9-.2 0-.4.1-.6.4s-.4.5-.6.9c-.2.3-.3.7-.4 1-.1.3-.2.6-.2.7v.2c0 .1 0 .2.1.3 0 .1.1.2.1.2s.1.1.2.1c.2 0 .5-.1.7-.2.2-.2.5-.3.7-.6.2-.2.4-.4.5-.7.1-.1.2-.2.2-.4zm8.3.5c-.8 0-1.2.4-1.2 1.2 0 .4 0 .6.1.8.1.2.1.4.1.6 0 .2-.2.3-.5.3-.2 0-.4-.1-.5-.2s-.2-.3-.3-.5c-.1-.2-.1-.4-.1-.6v-1.2c0-.1 0-.2-.1-.2h-.3c-.4 0-.6 0-.8.1h-.6c-.3 0-.4-.1-.4-.2 0-.2.1-.3.3-.4s.5-.2.8-.3c.3-.1.5-.2.8-.3.2-.1.4-.3.4-.5v-.2c0-.2 0-.4-.1-.7-.1-.2-.2-.3-.6-.3-.1 0-.2 0-.3.1-.1.1-.2.1-.4.1s-.4-.1-.4-.3c0-.1.1-.2.2-.4.2-.2.3-.3.6-.5.2-.2.4-.3.7-.4s.4-.2.5-.2c.2 0 .4.1.6.2.2.1.3.3.4.4.1.2.1.3.2.5v1.1c0 .5.1.8.2.9.1.1.3.1.6.1.4 0 .7-.1.9-.4.2-.2.3-.7.4-1.3 0-.4.2-.8.4-1.2.2-.4.4-.6.7-.6.1 0 .2 0 .3.1.1.1.2.2.2.3l-.3 1.9c-.1.3-.1.7-.2 1.3-.1.5-.1 1.1-.1 1.8 0 .5 0 1 .1 1.6 0 .1.1.2.2.3.1.1.1.2.1.3 0 .1 0 .2-.1.4s-.2.3-.4.3c-.4 0-.7-.1-.9-.4-.1-.2-.2-.6-.2-.9v-1.3c0-.2-.1-.5-.1-.7-.1-.2-.2-.3-.3-.4s-.3-.1-.6-.1zm5 1.8c-.2-.2-.3-.5-.5-.8-.2-.3-.3-.7-.4-1-.1-.4-.2-.7-.3-1.1-.1-.4-.1-.7-.1-1.1v-.8c0-.3.1-.6.1-.9.1-.3.2-.5.4-.7.2-.2.4-.3.7-.3.1 0 .3.1.3.4.1.3.1.6.2 1 0 .4.1.8.1 1.3s.1.9.2 1.3.2.7.4 1c.2.3.4.4.7.4.4 0 .6-.2.8-.6.2-.4.3-.8.4-1.3.1-.5.2-.9.4-1.3.1-.4.4-.6.7-.6.3 0 .6.1.8.3.2.2.4.4.5.7.1.3.3.5.4.8.1.3.2.6.3.8.1.2.3.6.4.9s.2.7.2 1c0 .4-.2.5-.5.5-.2 0-.3-.1-.5-.2-.1-.1-.3-.3-.4-.5-.1-.2-.3-.4-.4-.5-.1-.1-.3-.2-.4-.2h-.1c-.2.1-.4.3-.5.6-.1.3-.3.5-.4.8-.1.3-.3.5-.5.7-.2.2-.5.3-.8.3-.4 0-.8-.1-1.1-.2-.5 0-.8-.2-1.1-.7zm7.4-1.8c0-.3 0-.7.1-1.2s.3-.9.5-1.4c.2-.4.5-.8.9-1.1.4-.3.9-.5 1.5-.5.7 0 1.3.1 1.6.4s.5.7.5 1.1c0 .4-.1.8-.2 1-.1.2-.3.4-.5.5-.2.1-.5.2-.8.2h-1.8c-.2 0-.4.1-.5.2-.1.1-.2.4-.2.7 0 .3 0 .6.1.8.1.2.2.3.4.3s.5-.1.9-.3c.4-.2.7-.3 1-.3h.3c.2 0 .3.1.5.3s.2.3.2.5v.2c0 .1-.1.1-.2.2s-.2.1-.3.2l-.3.2c-.4.3-.8.5-1.2.6-.4.1-.8.2-1.1.2h-.3c-.4-.1-.7-.5-1-1 .1-.6-.1-1.2-.1-1.8zm3.9-2.4c0-.1-.1-.2-.2-.4s-.3-.3-.6-.3c-.4 0-.8.1-1 .4-.2.3-.4.6-.4 1h.8c.3 0 .5 0 .7-.1.2 0 .4-.1.5-.2s.2-.2.2-.4z"/></g></svg>