<?xml version="1.0" encoding="utf-8"?>
<!-- Generator: Adobe Illustrator 17.1.0, SVG Export Plug-In . SVG Version: 6.00 Build 0)  -->
<!DOCTYPE svg PUBLIC "-//W3C//DTD SVG 1.1//EN" "http://www.w3.org/Graphics/SVG/1.1/DTD/svg11.dtd">
<svg version="1.1" id="Слой_1" xmlns="http://www.w3.org/2000/svg" xmlns:xlink="http://www.w3.org/1999/xlink" x="0px" y="0px"
	 viewBox="241 241 30 30" enable-background="new 241 241 30 30" xml:space="preserve">
<g>
	<path fill="#FFAE04" d="M270.7,259.5c-0.2-0.1-0.4,0-0.6,0.1l-2.1,2.2v-13.3h0l2-2.2c0.2-0.2,0.2-0.5,0-0.7c0,0,0,0,0,0l-0.7-0.7
		l1-1.1c0.2-0.2,0.2-0.5,0-0.7l-2.2-2c-0.2-0.2-0.5-0.2-0.7,0l-3.6,3.8h-17.3c0-1.4-1.1-2.5-2.5-2.5h-0.5c-1.4,0-2.5,1.1-2.5,2.5
		v21.5c0,0.3,0.2,0.5,0.5,0.5h7.6l-1.1,1.3c-0.2,0.2-0.1,0.5,0.1,0.7l2.3,1.9c0.2,0.2,0.5,0.1,0.7-0.1l0,0l2.6-3.1
		c0.2-0.2,0.3-0.5,0.3-0.7h9.2l-3,3.2c-0.2,0.2-0.2,0.5,0,0.7c0.1,0.1,0.2,0.1,0.3,0.1h10c0.3,0,0.5-0.2,0.5-0.5V260
		C271,259.8,270.9,259.6,270.7,259.5z M269,246l-1,1v-0.7l0.6-0.7L269,246z M267,246L267,246l-4.2,4.6l-1.5-1.4l5.1-5.5l1.5,1.4
		L267,246L267,246z M261.8,251l-1.2,0.3l0.2-1.2L261.8,251z M267.8,242.2l1.5,1.4l-0.7,0.7l-1.5-1.4L267.8,242.2z M243.5,243.5h0.5
		c0.8,0,1.5,0.7,1.5,1.5v19c-0.4-0.3-1-0.5-1.5-0.5h-0.5c-0.5,0-1.1,0.2-1.5,0.5v-19C242,244.2,242.7,243.5,243.5,243.5z
		 M243.5,264.5h0.5c0.8,0,1.5,0.7,1.5,1.5H242C242,265.2,242.7,264.5,243.5,264.5z M252.9,267.1l-0.3,0.4l-1.5-1.3l0.3-0.4
		c0.2-0.2,0.5-0.2,0.7-0.1c0,0,0,0,0,0l0.8,0.6C253,266.6,253.1,266.9,252.9,267.1C252.9,267.1,252.9,267.1,252.9,267.1L252.9,267.1
		z M250.6,269.8l-1.5-1.3l1.3-1.5l1.5,1.3L250.6,269.8z M253.8,266c-0.1-0.1-0.2-0.3-0.3-0.4l-0.8-0.6c-0.6-0.5-1.6-0.4-2.1,0.2
		l-0.7,0.8h-3.4v-20h16.4l-2.7,2.9c0,0-0.1,0.1-0.1,0.1c0,0,0,0,0,0c0,0,0,0,0,0l-0.6,2.9c-0.1,0.3,0.1,0.5,0.4,0.6
		c0.1,0,0.2,0,0.2,0l2.8-0.8c0,0,0,0,0,0c0,0,0,0,0,0c0.1,0,0.1-0.1,0.1-0.1l3.8-4.1v15.5l-2.9,3.1H253.8z M270,270h-8.3l8.3-8.7
		V270z"/>
	<path fill="#FFAE04" d="M264.5,268.7c0.1,0.2,0.3,0.3,0.5,0.3h3.5c0.3,0,0.5-0.2,0.5-0.5V265c0-0.3-0.2-0.5-0.5-0.5
		c-0.1,0-0.3,0.1-0.4,0.1l-3.5,3.5C264.5,268.3,264.5,268.5,264.5,268.7z M268,266.2v1.8h-1.8L268,266.2z"/>
	<path fill="#FFAE04" d="M263,260h-3.5v-5.5c0-0.1-0.1-0.3-0.1-0.4l-3-3c-0.2-0.2-0.5-0.2-0.7,0l-3,3c-0.1,0.1-0.1,0.2-0.1,0.4v5.5
		H249c-0.3,0-0.5,0.2-0.5,0.5c0,0.3,0.2,0.5,0.5,0.5h14c0.3,0,0.5-0.2,0.5-0.5C263.5,260.2,263.3,260,263,260z M256,252.2l1.8,1.8
		h-3.6L256,252.2z M253.5,255h5v5h-5V255z"/>
	<path fill="#FFAE04" d="M255.5,249h1v1h-1V249z"/>
	<path fill="#FFAE04" d="M255.5,262h1v1h-1V262z"/>
</g>
</svg>
