<?xml version="1.0" encoding="utf-8"?>
<!-- Generator: Adobe Illustrator 17.1.0, SVG Export Plug-In . SVG Version: 6.00 Build 0)  -->
<!DOCTYPE svg PUBLIC "-//W3C//DTD SVG 1.1//EN" "http://www.w3.org/Graphics/SVG/1.1/DTD/svg11.dtd">
<svg version="1.1" id="Capa_1" xmlns="http://www.w3.org/2000/svg" xmlns:xlink="http://www.w3.org/1999/xlink" x="0px" y="0px"
	 viewBox="135 0 30 30" enable-background="new 135 0 30 30" xml:space="preserve">
<g>
	<g>
		<path fill="#FFAE04" d="M165,9.2c0-0.1-0.1-0.3-0.1-0.4l-7-7c-0.2-0.2-0.5-0.2-0.7,0l-3.5,3.5c-1.2-0.9-2.8-0.8-3.9,0.1
			c-1.1-0.6-2.4-0.5-3.4,0.2l-3.5-3.5c-0.1-0.1-0.2-0.1-0.4-0.1s-0.3,0.1-0.4,0.1l-7,7c-0.1,0.1-0.1,0.2-0.1,0.4s0.1,0.3,0.1,0.4
			l3.5,3.5c-1.2,1.3-1.2,3.3,0,4.5l0.6,0.6c-0.6,0.7-0.8,1.6-0.5,2.5c0.4,0.8,1.2,1.4,2.1,1.4c0.1,0,0.2,0,0.3,0
			c-0.1,0.7,0.1,1.3,0.6,1.8c0.4,0.5,1.1,0.8,1.7,0.8c0,0,0.1,0,0.1,0c-0.1,0.7,0.2,1.5,0.9,1.9c0.6,0.4,1.5,0.3,2-0.1
			c0.1,0.3,0.2,0.6,0.5,0.8c0.7,0.7,1.9,0.7,2.6,0l0.3-0.3l0.6,0.6c0.5,0.5,1.1,0.7,1.8,0.5c0.6-0.2,1.1-0.6,1.3-1.3
			c0.6,0.5,1.4,0.5,2.1,0.1c0.6-0.4,1-1.1,0.9-1.9c0,0,0.1,0,0.1,0c1.3,0,2.3-1,2.3-2.3c0-0.1,0-0.2,0-0.3c0.1,0,0.2,0,0.3,0
			c0.9,0,1.8-0.6,2.1-1.4c0.4-0.9,0.2-1.9-0.5-2.5l-0.3-0.3l0.9-0.9c1.2-1.2,1.2-3.2,0-4.5l3.5-3.5C164.9,9.5,165,9.4,165,9.2z
			 M140,21c-0.5-0.5-0.5-1.3,0-1.8l1.9-1.9c0.3-0.3,0.8-0.5,1.3-0.3c0.4,0.1,0.8,0.5,0.9,0.9c0.1,0.4,0,0.9-0.3,1.3l-1.9,1.9
			C141.3,21.5,140.5,21.5,140,21z M144.4,23.5c-0.5,0.5-1.3,0.5-1.8,0l0,0c-0.5-0.5-0.5-1.3,0-1.8l1.9-1.9c0.5-0.5,1.3-0.5,1.8,0
			c0.5,0.5,0.5,1.3,0,1.8L144.4,23.5z M146.9,24.8l-1,1c-0.3,0.3-0.9,0.3-1.2,0c-0.3-0.3-0.3-0.9,0-1.2l0.3-0.3l0,0l1.9-1.9l0,0
			l0.3-0.3c0.3-0.3,0.9-0.3,1.2,0c0.3,0.3,0.3,0.9,0,1.2L146.9,24.8L146.9,24.8z M148.8,26.7c-0.3,0.3-0.9,0.3-1.2,0
			c-0.3-0.3-0.3-0.9,0-1.2l1.6-1.6l0,0l1-1c0.2-0.2,0.5-0.3,0.8-0.2c0.3,0.1,0.5,0.3,0.6,0.6c0.1,0.3,0,0.6-0.2,0.8L148.8,26.7z
			 M152.4,27L152.4,27c-0.3,0.3-0.9,0.3-1.2,0l-0.6-0.6l1.2-1.2l0.6,0.6C152.7,26.2,152.7,26.7,152.4,27z M160,21.3L160,21.3
			c-0.5,0.5-1.3,0.5-1.8,0l-4.1-4.1c-0.2-0.2-0.5-0.2-0.7,0c-0.2,0.2-0.2,0.5,0,0.7l4.1,4.1c0.2,0.2,0.4,0.6,0.4,0.9
			s-0.1,0.7-0.4,0.9c-0.5,0.5-1.3,0.5-1.9,0l-1.3-1.2c-0.2-0.2-0.5-0.2-0.7,0c-0.2,0.2-0.2,0.5,0,0.7l1.3,1.2l0.3,0.3
			c0.2,0.2,0.3,0.5,0.2,0.8c-0.1,0.3-0.3,0.5-0.6,0.6c-0.3,0.1-0.6,0-0.8-0.2l-1.6-1.6c0.4-0.8,0.3-1.7-0.4-2.3
			c-0.7-0.6-1.6-0.6-2.3-0.1c-0.2-0.9-1.1-1.4-2-1.3c0-0.7-0.2-1.3-0.7-1.8c-0.5-0.5-1.2-0.7-1.8-0.6c0.1-1-0.4-1.9-1.3-2.3
			c-0.9-0.4-1.9-0.3-2.6,0.4l-1.2,1.2l-0.6-0.6c-0.9-0.9-0.9-2.3,0-3.1l0.3-0.3c0.1-0.1,0.1-0.2,0.1-0.4c0,0,0,0,0,0
			c0-0.1-0.1-0.2-0.1-0.3l0,0l-3.5-3.5l6.3-6.3l3.5,3.5c0.1,0.1,0.2,0.1,0.4,0.1s0.3-0.1,0.4-0.1c0.6-0.6,1.5-0.8,2.3-0.5l-4.3,4.3
			c-0.9,0.9-0.9,2.4,0,3.3c0.9,0.9,2.4,0.9,3.3,0l3.2-3.2l8.9,8.9c0.2,0.2,0.4,0.6,0.4,0.9C160.4,20.7,160.2,21.1,160,21.3z
			 M160.3,12.7c-0.1,0.1-0.1,0.2-0.1,0.4s0.1,0.3,0.1,0.4l0.3,0.3c0.9,0.9,0.9,2.3,0,3.1l-0.9,0.9l-7.9-7.9l0.9-0.9
			c0.2-0.2,0.2-0.5,0-0.7c-0.2-0.2-0.5-0.2-0.7,0l-1.3,1.3l0,0l0,0l-3.5,3.5c-0.5,0.5-1.3,0.5-1.8,0c-0.2-0.2-0.4-0.6-0.4-0.9
			c0-0.3,0.1-0.7,0.4-0.9l4.8-4.8c0.9-0.9,2.3-0.9,3.1,0l0.6,0.6c0.2,0.2,0.5,0.2,0.7,0s0.2-0.5,0-0.7L154.4,6l3.1-3.1l6.3,6.3
			L160.3,12.7z"/>
	</g>
</g>
</svg>
