<?xml version="1.0" encoding="utf-8"?>
<!-- Generator: Adobe Illustrator 17.1.0, SVG Export Plug-In . SVG Version: 6.00 Build 0)  -->
<!DOCTYPE svg PUBLIC "-//W3C//DTD SVG 1.1//EN" "http://www.w3.org/Graphics/SVG/1.1/DTD/svg11.dtd">
<svg version="1.1" id="Слой_1" xmlns="http://www.w3.org/2000/svg" xmlns:xlink="http://www.w3.org/1999/xlink" x="0px" y="0px"
	 viewBox="135 0 30 30" enable-background="new 135 0 30 30" xml:space="preserve">
<g>
	<g>
		<ellipse fill="none" stroke="#FFFFFF" cx="145.6" cy="10.7" rx="9.6" ry="9.2"/>
		<polyline fill="none" stroke="#FFFFFF" points="152,2.4 152,1.5 155.3,1.5 155.3,19.9 152,19.9 152,18.8 		"/>
		<line fill="none" stroke="#FFFFFF" x1="152" y1="5.4" x2="152" y2="16"/>
		<line fill="none" stroke="#FFFFFF" x1="161.3" y1="1.5" x2="155.3" y2="12.9"/>
		<line fill="none" stroke="#FFFFFF" x1="164" y1="19.9" x2="156.5" y2="10.7"/>
	</g>
	<g enable-background="new    ">
		<path fill="#FFFFFF" d="M144.3,26.8c0.2,0,0.3,0.1,0.3,0.3c0,0.2-0.2,0.3-0.3,0.3c-0.1,0-0.3-0.1-0.3-0.3
			C144,26.9,144.1,26.8,144.3,26.8z"/>
		<path fill="#FFFFFF" d="M145.1,27.1c0-0.9,0.8-1.5,1.7-1.5c1,0,1.7,0.6,1.7,1.5c0,0.9-0.8,1.5-1.7,1.5
			C145.9,28.5,145.1,28,145.1,27.1z M145.5,27.1c0,0.7,0.6,1.2,1.4,1.2c0.8,0,1.4-0.5,1.4-1.2c0-0.7-0.6-1.2-1.4-1.2
			S145.5,26.4,145.5,27.1z"/>
		<path fill="#FFFFFF" d="M149.7,26.9l1.5-1.3h0.5L150,27l1.7,1.6h-0.5l-1.4-1.4l-0.1,0.1v1.3h-0.4v-2.9h0.4L149.7,26.9L149.7,26.9z
			"/>
		<path fill="#FFFFFF" d="M152.3,26.8c0.2,0,0.3,0.1,0.3,0.3c0,0.2-0.2,0.3-0.3,0.3s-0.3-0.1-0.3-0.3
			C152,26.9,152.1,26.8,152.3,26.8z"/>
		<path fill="#FFFFFF" d="M153.6,26.8h1.7v-1.2h0.4v2.9h-0.4v-1.4h-1.7v1.4h-0.4v-2.9h0.4V26.8z"/>
		<path fill="#FFFFFF" d="M158.5,27.8H157l-0.4,0.8h-0.4l1.6-3l1.6,3H159L158.5,27.8z M158.3,27.5l-0.6-1.2l-0.6,1.2H158.3z"/>
		<path fill="#FFFFFF" d="M160.1,25.6v2.6h1v0.3h-1.4v-2.9H160.1z"/>
		<path fill="#FFFFFF" d="M162,25.6v2.6h1v0.3h-1.4v-2.9H162z"/>
		<path fill="#FFFFFF" d="M163.5,26.8c0.2,0,0.3,0.1,0.3,0.3c0,0.2-0.2,0.3-0.3,0.3c-0.2,0-0.3-0.1-0.3-0.3
			C163.3,26.9,163.3,26.8,163.5,26.8z"/>
	</g>
</g>
<g id="Слой_2">
</g>
</svg>
