<svg width="199" height="38" viewBox="0 0 199 38" fill="none" xmlns="http://www.w3.org/2000/svg">
<path d="M12.8268 30.0722C12.7213 30.125 12.6949 30.2571 12.7741 30.3364C12.8005 30.3893 12.8796 30.4421 12.9588 30.4421H29.9556C30.3251 30.4421 30.6154 30.1514 30.6154 29.7815V18.8677C30.6154 18.6827 30.4571 18.5242 30.2459 18.5242C30.1668 18.5242 30.114 18.5506 30.0612 18.577L12.8268 30.0722Z" fill="white"/>
<path d="M23.1199 5.76078C23.331 5.62865 23.3838 5.33797 23.2519 5.15299C23.2255 5.10014 23.1727 5.07371 23.1199 5.02086L15.8619 0.158554C15.5188 -0.0528512 15.0966 -0.0528512 14.7534 0.158554L0.554244 9.64534C0.211141 9.88317 0 10.2531 0 10.6759V20.5327C0 20.7177 0.158355 20.8762 0.369496 20.8762C0.448674 20.8762 0.501459 20.8498 0.554244 20.8234L23.1199 5.76078Z" fill="white"/>
<path d="M30.0611 15.8025C30.4042 15.5646 30.6154 15.1947 30.6154 14.7719V10.6759C30.6154 10.2531 30.4042 9.88313 30.0611 9.6453L26.287 7.13487C25.9439 6.92347 25.5216 6.92347 25.1785 7.13487L0.554244 23.5716C0.211141 23.8094 0 24.2058 0 24.6022V29.7552C0 30.1251 0.290318 30.4158 0.659814 30.4158H7.4691C7.89138 30.4158 8.34005 30.2837 8.68316 30.0459L30.0611 15.8025Z" fill="white"/>
<path d="M52.099 30.4423H40.8293V2.21973H59.4625V7.13489H46.319V12.8428H52.099C57.747 12.8428 61.2308 16.4895 61.2308 21.6425C61.2308 26.7955 57.7998 30.4423 52.099 30.4423ZM51.8087 17.758H46.2926V25.5271H51.8087C54.2632 25.5271 55.7148 23.9944 55.7148 21.6425C55.7148 19.3435 54.2632 17.758 51.8087 17.758Z" fill="white"/>
<path d="M74.9286 30.4422V28.6452C74.0048 29.5173 73.5825 29.8344 72.7908 30.1515C71.8406 30.495 70.8641 30.6536 69.8612 30.6272C65.48 30.6272 62.8936 28.2489 62.8936 24.2057C62.8936 20.4797 65.5856 18.1807 69.9404 18.1807H74.823V17.1501C74.823 14.8511 73.6617 13.8998 70.8905 13.8998C69.0694 13.8998 68.2512 14.2433 67.0108 15.6174L63.7381 12.3935C64.9258 11.2044 65.48 10.7551 66.5093 10.2795C67.697 9.75096 69.1222 9.53955 71.0489 9.53955C76.9872 9.53955 79.9432 11.9971 79.9432 16.833V30.4158L74.9286 30.4422ZM70.7321 21.7217C68.9111 21.7217 67.829 22.5674 67.829 24.0472C67.829 25.6327 68.8847 26.4255 71.0752 26.4255C73.7145 26.4255 74.7966 25.3949 74.7966 22.8052V21.6953H70.7321V21.7217ZM91.1864 33.7718C90.0779 36.7579 88.336 37.9999 85.2217 37.9999H83.2158V33.3754H84.4035C85.9079 33.3754 86.4621 32.979 86.99 31.5256L87.8609 28.9888L80.7613 9.77738H86.1718L90.4474 22.5409L94.5646 9.77738H100.002L91.1864 33.7718ZM116.682 35.5159V30.4422H101.849V9.77738H107.022V25.8706H113.62V9.77738H118.793V25.8706H121.564V35.4895H116.682V35.5159ZM127.898 21.7217C128.057 24.8135 129.614 26.3198 132.623 26.3198C133.441 26.3198 134.233 26.1877 134.998 25.8706C135.763 25.5535 136.186 25.2363 137.109 24.3643L140.224 27.4297C138.693 28.9095 137.98 29.3587 136.661 29.9137C135.315 30.4422 133.89 30.68 132.438 30.6536C126.104 30.6536 122.857 27.0333 122.857 20.0305C122.857 13.5827 126.289 9.53955 131.831 9.53955C137.294 9.53955 140.804 13.4241 140.804 19.3963V21.6953L127.898 21.7217ZM131.805 13.8469C129.429 13.8469 128.004 15.4325 127.872 18.2071H135.711C135.579 15.3796 134.18 13.8469 131.805 13.8469ZM155.426 30.4422V22.1446H148.828V30.4158H143.628V9.77738H148.828V17.5729H155.426V9.77738H160.599V30.4158C160.599 30.4422 155.426 30.4422 155.426 30.4422ZM173.822 14.349V30.4422H168.622V14.349H162.578V9.77738H179.76V14.349H173.822ZM191.795 9.56598C193.854 9.56598 195.701 10.2266 196.889 11.4158C197.786 12.3935 198.393 13.6091 198.631 14.9039C198.894 16.4102 198.974 17.4408 198.974 20.1891C198.974 25.0249 198.419 27.2711 196.862 28.8302C195.675 30.0194 193.827 30.68 191.768 30.68C189.631 30.68 188.337 30.0722 186.859 28.6188V37.9999H181.713V9.77738H186.701V11.7064C188.311 10.1473 189.552 9.53955 191.795 9.56598ZM190.37 14.1905C186.807 14.1905 186.886 17.7579 186.886 20.4005C186.886 24.4436 187.889 26.0291 190.37 26.0291C192.956 26.0291 193.854 24.4436 193.854 20.0569C193.854 15.7231 192.93 14.1905 190.37 14.1905Z" fill="white"/>
</svg>
