<svg width="113" height="113" viewBox="0 0 113 113" fill="none" xmlns="http://www.w3.org/2000/svg">
<path fill-rule="evenodd" clip-rule="evenodd" d="M56.5042 0.516357C87.4522 0.516357 112.543 25.6077 112.543 56.5556C112.543 87.5035 87.4522 112.595 56.5042 112.595C25.5563 112.595 0.465027 87.5035 0.465027 56.5556C0.465027 25.6077 25.5563 0.516357 56.5042 0.516357ZM56.5042 2.27505C86.4789 2.27505 110.785 26.5809 110.785 56.5556C110.785 86.5303 86.4789 110.836 56.5042 110.836C26.5296 110.836 2.22372 86.5303 2.22372 56.5556C2.22372 26.5724 26.521 2.27505 56.5042 2.27505Z" fill="white"/>
<path fill-rule="evenodd" clip-rule="evenodd" d="M48.8548 38.9686L48.8462 38.9601L48.8548 38.9686ZM64.1452 38.9686L64.1537 38.9601L64.1452 38.9686ZM73.2972 47.4547C72.7679 47.3181 72.9387 47.3011 72.5374 46.8827C72.2557 46.601 72.0849 46.6437 72.0679 46.157C72.5972 46.3193 73.0923 46.8998 73.2972 47.4547ZM55.0614 66.3394C55.07 66.3308 55.087 66.3138 55.1127 66.3052L55.1212 66.2881C55.2151 66.1601 55.9664 66.2113 56.2225 66.2198C56.325 66.2198 56.4274 66.2198 56.5128 66.2198H56.5299H56.5384H56.5555C56.6408 66.2198 56.7347 66.2198 56.8372 66.2198C57.0933 66.2113 57.8361 66.1601 57.9385 66.2881L57.9471 66.3052C57.9727 66.3138 57.9897 66.3223 57.9983 66.3394C58.0239 66.3906 58.0324 66.4333 58.0239 66.476C58.0324 66.5613 57.9812 66.6211 57.8958 66.6638C57.8873 66.6723 57.8788 66.6723 57.8788 66.6723H57.8702C57.6824 66.7492 57.3665 66.7321 57.2128 66.6809C57.0933 66.6467 56.9823 66.6211 56.8713 66.6126C56.7604 66.604 56.6494 66.5955 56.5384 66.5955C56.4274 66.5955 56.3164 66.604 56.2054 66.6126C56.0944 66.6296 55.9749 66.6467 55.8639 66.6809C55.7103 66.7235 55.3944 66.7406 55.2066 66.6723H55.198C55.198 66.6723 55.1895 66.6638 55.181 66.6638C55.0956 66.6211 55.0444 66.5613 55.0529 66.476C55.0273 66.4333 55.0358 66.3906 55.0614 66.3394ZM39.7027 47.4547C40.232 47.3181 40.0613 47.3011 40.4625 46.8827C40.7443 46.601 40.915 46.6437 40.9321 46.157C40.4028 46.3193 39.9161 46.8998 39.7027 47.4547ZM42.6652 50.033C42.4517 50.3147 42.1273 50.6733 41.6578 50.4684C41.7773 50.0501 42.1615 49.8623 42.5969 49.7001C42.9213 49.0939 43.6299 48.206 43.6555 47.1388C43.2201 47.3352 43.2201 47.6511 42.7249 47.9926L39.3441 49.9135C39.3441 48.5731 41.931 48.1121 42.2468 47.0279C39.7539 47.4462 38.6014 48.8975 37.4232 50.3574C36.9025 51.0063 34.2303 54.609 35.1096 55.9579C35.5877 55.6933 35.8182 54.6944 36.0487 54.2078C36.7829 52.6369 38.7551 51.1087 40.1381 51.0233C40.3686 51.0063 40.2832 51.0233 40.4455 51.049C40.4711 51.049 40.5308 51.1087 40.5479 51.0746C40.565 51.0404 40.6162 51.0916 40.6504 51.1087C40.2833 51.638 37.3037 51.9881 36.7488 55.0444C36.4841 56.4958 35.1096 59.7314 34.0766 60.0217L34.3242 58.8948C34.6059 58.0411 34.3583 57.1702 34.3156 56.2141C34.2729 55.2493 34.6144 54.2419 34.5718 53.4565L34.6827 53.2601C34.6998 53.2345 34.7169 53.1918 34.734 53.1662L35.6902 51.3051C36.117 50.6818 36.6719 50.0159 36.6805 49.1195C35.0498 49.1964 33.479 50.955 32.8899 51.0404C32.6338 49.2476 37.7733 48.0523 39.0026 47.0705C39.8052 46.4217 40.4796 44.9447 41.0772 44.0312C41.8712 42.836 42.52 42.597 43.9458 41.914L43.7494 41.8372C43.7153 41.8286 43.6811 41.8115 43.647 41.8115L43.1177 41.8542C42.8957 41.914 42.6054 42.0591 42.4091 42.1701C39.5832 43.7581 40.804 45.3631 37.2781 47.1218C36.8 47.3608 36.3134 47.5401 35.8865 47.7791C35.306 48.095 35.2377 48.4194 34.6401 48.4194C34.7425 47.8731 35.0157 47.7877 35.3487 47.4547C35.8438 47.1474 36.1256 46.8827 36.7317 46.5839C37.2781 46.3107 37.6281 46.1144 38.0977 45.7814C38.9173 45.2009 39.4466 44.3642 39.993 43.3824C40.121 43.1775 40.3174 42.8872 40.3857 42.6994C40.5906 42.136 40.3601 42.4262 40.4625 42.0335C40.6247 41.7176 41.2736 41.6152 41.5553 41.1542C41.0858 40.5565 40.0271 40.2577 39.2417 40.087C38.7038 39.976 38.7209 40.0955 38.6099 39.754C39.4722 39.3613 40.8894 40.0699 41.4699 40.4199C42.4944 41.0432 42.9725 41.1712 44.4239 40.898C43.7409 40.437 42.9981 40.9322 42.4176 40.5139C42.5969 40.0187 43.4165 40.1467 44.1934 40.1894C45.013 40.2321 45.2264 40.3773 45.8838 40.5139C45.5508 39.6004 44.4495 39.1991 44.1678 38.3539C45.4227 38.721 45.7642 39.9162 46.5838 40.1553C46.3789 39.6601 45.5423 38.499 45.1752 38.1149C44.7483 37.6624 44.1165 37.3892 43.6555 37.0733C43.2713 36.8086 43.4335 36.9965 43.3311 36.6977L43.9799 36.7403L47.5059 37.8758L48.7694 38.1832C48.573 36.8599 45.6874 37.4063 45.2861 35.6476C45.8838 35.7842 45.9264 35.9805 46.4558 36.211L48.6328 37.0989C49.4012 37.4404 49.2475 37.0392 49.7085 37.7051C50.0244 37.7221 50.0329 37.927 50.4086 38.2002C49.7256 35.7756 49.0767 36.3476 47.2327 34.1621C46.4302 33.2059 46.157 33.2913 44.9617 32.7278C44.347 32.4375 43.075 31.7204 42.3322 31.857C42.8103 32.4119 44.919 33.3766 45.7301 33.8803C45.1922 34.2389 44.0824 33.5986 43.5531 33.5559C43.1347 33.0266 42.17 32.7022 41.4785 32.5058L41.4102 32.8473C41.6834 33.2315 42.0078 33.5218 42.3493 33.8291C41.7346 33.8547 41.6748 33.5303 41.0175 33.4705C41.4358 34.1023 42.0761 34.0425 42.4005 34.6658L40.121 34.0682L39.3954 34.0596C39.4295 34.5889 40.8126 34.8194 41.3248 34.9731C42.8445 35.4256 42.7335 35.6988 43.3994 35.7159L43.3823 36.0147C41.7261 35.4854 40.3772 35.1695 38.5075 35.4597C38.8746 36.1854 40.7955 36.2196 40.9236 37.6624C41.5126 37.6709 41.4529 37.466 41.6151 37.8331C40.9492 38.2258 39.8649 37.0562 37.6964 37.4319C36.7317 37.6026 35.1779 38.5076 34.9132 39.2759C36.0658 38.9174 37.5684 39.1991 38.6612 38.8235C38.2599 38.4478 37.9355 38.5161 37.261 38.4905L37.7989 38.1917C38.1233 38.0636 37.944 38.0892 38.3197 38.0892C39.4807 38.0978 40.804 39.0113 41.3077 39.0625C41.5212 39.6004 41.7944 39.4467 41.9736 39.9931C41.359 40.2407 40.5735 38.721 38.4221 39.3186C37.4403 39.5918 35.989 40.7956 35.7755 41.4274L38.9258 40.8212C39.6259 40.6846 39.5746 40.6505 39.9076 40.9151C37.2525 41.3676 36.7488 42.6397 34.845 43.2714C34.2473 43.4678 33.6241 43.7666 33.5473 44.2703C34.3327 44.0227 38.4306 41.564 39.4637 42.4177C39.2417 42.725 38.7721 42.6226 38.277 42.7506C37.2013 43.0409 36.2451 43.4422 35.3316 44.0227C34.4778 44.5606 32.6765 45.8582 32.4886 46.7376C33.5473 46.4473 35.9548 43.9032 38.2001 43.4422C38.3794 43.5788 38.3965 43.1775 38.3197 43.7666L35.3572 45.4911C34.4352 45.8156 32.4118 47.4803 32.1045 48.317C33.0009 48.0353 33.6241 47.0876 34.4181 46.9083C33.6241 48.1889 31.9422 48.9232 31.5581 50.9977C31.2849 52.4576 31.4471 52.5515 30.7214 53.7382L29.8677 56.2055L31.8483 53.7126C32.352 53.1748 33.3936 51.5441 34.0168 51.5271C33.9315 51.8515 33.8461 51.8515 33.6924 52.1759C33.0777 52.4149 31.8227 54.609 31.78 55.4115C32.0959 55.3091 31.9764 55.3603 32.2325 55.1213L32.7106 54.6432C32.5228 55.3091 31.1397 56.8629 31.2763 59.7912C31.6434 59.4497 31.7203 59.0485 32.0105 58.5106C32.2581 57.9642 32.0703 58.2289 32.4289 58.1264C32.6423 58.6045 32.5399 58.3996 32.3777 58.6045C32.3606 59.3643 32.0874 60.0132 32.1642 61.1743L32.4118 61.2682C32.5655 60.9694 32.7448 60.5766 32.8984 60.2352C33.0692 59.851 33.1375 59.4412 33.3765 59.0997L33.5558 59.518C33.59 60.2352 33.5046 61.2084 33.829 61.789C34.5035 61.5499 34.4864 60.5169 35.0072 60.1583C35.2547 59.5522 35.7328 59.0228 36.1341 58.6301C36.6549 58.1179 38.7465 57.2385 39.0368 54.1651C37.9269 54.4212 37.594 56.6751 36.7744 57.119C36.7402 57.0422 36.7232 57.0507 36.7317 56.8714C36.7402 56.6665 36.7146 56.8373 36.7915 56.6153L37.4403 54.9505C37.7733 54.148 38.055 53.7638 38.6355 53.2089C39.3954 52.4832 39.2758 52.4405 40.4455 51.9539C41.0943 51.6807 41.9993 51.1343 42.5798 51.0319C42.4347 51.6124 42.3664 51.51 41.9993 51.86L42.3493 52.0478C42.6908 52.2442 42.3066 51.86 42.6396 52.2442C42.3834 52.5857 41.7346 52.7052 41.3163 52.9613C39.0026 54.37 39.6344 56.658 37.0049 58.485C36.2024 59.0399 36.1853 58.9631 35.5792 59.9876L35.1864 60.551L34.9474 61.7207C35.4426 61.4645 35.5536 61.0718 35.8865 60.6791C36.1085 60.4144 36.4841 59.9961 36.8 59.8595C37.0903 59.3217 37.5854 58.9802 37.9952 58.5789C38.6782 57.913 38.7551 57.5032 39.1051 57.1873C39.0368 56.8458 39.0795 57.0422 39.1734 57.0336C39.7966 55.3518 40.9577 54.37 42.1273 53.3797C42.5115 53.0552 42.8957 52.432 43.1518 52.2527C44.0909 53.226 40.7016 54.8054 40.4284 56.7434C41.9651 56.1628 43.4592 54.1224 43.536 54.0797C43.9799 54.7371 42.52 55.5481 42.281 56.2055C43.1689 56.1884 43.3482 55.8299 43.9885 55.753C43.9372 56.3165 43.5531 56.2653 43.3567 57.2983C42.2639 57.3068 42.0676 57.4605 41.2907 57.7422L41.137 57.9301C40.804 58.2033 40.7699 58.3142 40.454 58.4252C40.215 59.0741 39.7027 59.629 39.3527 60.4486C38.9258 61.4389 38.8404 61.7292 38.2257 62.3951C38.0123 62.0365 38.4648 61.2938 38.6185 60.7218C38.7295 60.3205 38.9173 58.9802 38.9514 58.5106C38.1574 58.818 37.9013 59.8083 37.2354 60.2949C37.2098 60.7132 36.9281 61.1316 36.8171 61.2596C36.6463 62.2927 36.1939 63.1549 36.2109 64.3075C36.8939 63.7525 36.8085 62.7195 37.2781 62.1817C37.8501 62.9671 36.4158 65.3405 37.3122 66.4589C37.4745 65.6478 37.2781 63.9062 37.9184 63.411C38.277 63.8806 37.8757 64.8795 38.6014 66.715C38.7892 65.8783 38.1148 64.4782 38.6868 63.8123C39.199 64.2819 38.8319 66.0747 39.5832 66.8004C39.5832 66.8004 39.2844 60.6364 40.7528 59.7656C40.6418 61.5243 40.3174 62.4976 40.6162 64.3672C40.7955 65.4771 41.2736 67.2529 41.8797 67.8932C41.931 67.7651 41.4614 66.1772 41.3846 65.7759C41.0175 63.9233 41.6322 64.5038 41.6492 63.505C41.6834 61.0718 41.6322 60.6193 42.3493 58.3996C42.4774 58.152 42.3664 58.2545 42.6054 58.1862C42.6908 58.6557 41.9054 62.2329 42.6566 62.9671C43.6897 62.489 43.4335 58.8436 43.8092 58.2972C44.3385 58.8521 44.5861 63.1805 44.3043 64.0428L44.4239 64.2392C44.4409 64.2733 44.5007 64.3928 44.5178 64.4355C44.5605 64.5465 44.6032 64.7258 44.6288 64.8368C44.7824 65.3917 44.6202 65.1783 44.9532 65.4856C45.4484 65.0844 45.2947 62.6171 45.1752 61.8658C44.9788 60.662 44.3983 59.0826 44.8251 58.5021C45.1837 59.0655 46.507 64.2392 46.6094 64.3928C47.0875 63.4025 46.4814 61.5243 46.285 60.4998C47.2241 61.1316 47.3266 62.4805 47.3949 63.7611C47.429 64.427 47.5315 64.888 47.6425 65.5283C47.762 66.1942 48.0266 66.5528 48.0779 67.159L48.4962 67.6114C48.6328 67.8334 48.6584 67.9102 48.795 68.0895C49.0511 68.4225 49.2475 68.5762 49.7683 68.5591C49.9049 67.8419 49.5548 68.081 49.5975 67.3297C49.2219 67.0053 49.0938 66.5357 48.8121 66.0235C48.0437 64.5977 47.2412 62.0451 48.9572 61.6694C48.8121 62.6427 48.334 62.6171 48.5901 63.9233C48.7182 64.5977 48.9657 65.3149 49.4012 65.6905C49.7426 65.9808 51.8855 66.9967 52.8844 66.5699C53.243 66.4162 52.9442 66.5528 53.1405 66.4077L53.2942 66.2625C53.704 66.254 53.9601 66.0235 54.2675 65.7759C54.4126 65.6564 54.5236 65.5283 54.6772 65.4173C54.9504 65.221 55.087 65.1527 55.2066 64.9307C55.2578 64.8453 55.3005 64.777 55.3602 64.7002C55.531 64.4782 55.5566 64.5294 55.7444 64.2136L55.8042 63.744C55.198 63.3854 54.7029 63.1122 54.5919 62.2329C55.1639 61.9085 54.4638 62.3866 55.0187 62.2073C54.9163 61.8999 54.9078 61.6609 54.7968 61.3535C54.3101 61.4304 54.165 61.7292 53.5589 61.4048C52.6197 60.9011 51.655 60.0132 51.6465 58.7838C52.1502 58.374 54.3272 58.152 56.5213 58.135H56.5299C58.7154 58.1435 60.901 58.374 61.4047 58.7838C61.3961 60.0132 60.44 60.9011 59.4923 61.4048C58.8862 61.7292 58.741 61.4304 58.2544 61.3535C58.1434 61.6609 58.1434 61.8999 58.0324 62.2073C58.5874 62.3866 57.8958 61.8999 58.4593 62.2329C58.3483 63.1208 57.8531 63.3854 57.247 63.744L57.3067 64.2136C57.486 64.5294 57.5116 64.4782 57.6909 64.7002C57.7507 64.777 57.8019 64.8368 57.8446 64.9307C57.9641 65.1527 58.1093 65.221 58.3739 65.4173C58.5276 65.5283 58.6386 65.6564 58.7837 65.7759C59.0911 66.0235 59.3386 66.2625 59.757 66.2625L59.9106 66.4077C60.107 66.5443 59.7997 66.4162 60.1668 66.5699C61.1656 66.9967 63.3085 65.9808 63.65 65.6905C64.0854 65.3149 64.333 64.5892 64.4611 63.9233C64.7086 62.6085 64.2391 62.6342 64.094 61.6694C65.81 62.0451 65.0075 64.5977 64.2391 66.0235C63.9574 66.5357 63.8293 66.9967 63.4537 67.3297C63.4878 68.081 63.1463 67.8334 63.2829 68.5591C63.8037 68.5762 64.0086 68.431 64.2562 68.0895C64.3842 67.9188 64.4184 67.8334 64.555 67.6114L64.9733 67.159C65.016 66.5613 65.2892 66.1942 65.4087 65.5283C65.5197 64.888 65.6307 64.427 65.6648 63.7611C65.7246 62.4805 65.8356 61.1316 66.7747 60.4998C66.5783 61.5158 65.9722 63.394 66.4503 64.3928C66.5527 64.2392 67.876 59.0655 68.2346 58.5021C68.6614 59.0826 68.0894 60.6706 67.8845 61.8658C67.7565 62.6171 67.6028 65.0844 68.1065 65.4856C68.4395 65.1868 68.2773 65.3917 68.4309 64.8368C68.4651 64.7258 68.4992 64.5465 68.5419 64.4355C68.559 64.3928 68.6188 64.2733 68.6358 64.2392L68.7554 64.0428C68.4736 63.1805 68.7212 58.8521 69.2505 58.2972C69.6176 58.8521 69.37 62.4976 70.4031 62.9671C71.1544 62.2329 70.3689 58.6472 70.4458 58.1862C70.6763 58.2545 70.5738 58.152 70.7019 58.3996C71.419 60.6193 71.3593 61.0718 71.4019 63.505C71.419 64.5038 72.0337 63.9318 71.6666 65.7759C71.5898 66.1772 71.1202 67.7651 71.1714 67.8932C71.7776 67.2529 72.2557 65.4771 72.435 64.3672C72.7338 62.4976 72.4008 61.5243 72.2984 59.7656C73.7668 60.6279 73.468 66.7918 73.468 66.8004C74.2107 66.0747 73.8522 64.2819 74.3644 63.8123C74.9364 64.4782 74.262 65.8783 74.4498 66.715C75.1669 64.8795 74.7742 63.8806 75.1328 63.411C75.7731 63.9148 75.5767 65.6478 75.7389 66.4589C76.6353 65.3405 75.2011 62.9671 75.7731 62.1817C76.2426 62.7195 76.1487 63.744 76.8402 64.3075C76.8573 63.1549 76.4048 62.2927 76.2341 61.2596C76.1231 61.1316 75.8414 60.7132 75.8158 60.2949C75.1498 59.8168 74.8937 58.8265 74.0997 58.5106C74.1339 58.9716 74.3303 60.312 74.4327 60.7218C74.5864 61.2938 75.0389 62.0365 74.8254 62.3951C74.2107 61.7292 74.1168 61.4389 73.6985 60.4486C73.3485 59.629 72.8362 59.0741 72.5972 58.4252C72.2813 58.3142 72.2471 58.2118 71.9142 57.9301L71.7605 57.7422C70.9751 57.4605 70.7872 57.3068 69.6945 57.2983C69.4981 56.2653 69.1139 56.3165 69.0627 55.753C69.703 55.8299 69.8823 56.1884 70.7702 56.2055C70.5311 55.5567 69.0712 54.7371 69.5152 54.0797C69.5835 54.1224 71.0775 56.1628 72.6228 56.7434C72.3496 54.8054 68.9688 53.226 69.8994 52.2527C70.164 52.432 70.5482 53.0552 70.9324 53.3797C72.102 54.37 73.2545 55.3518 73.8863 57.0336C73.9802 57.0507 74.0229 56.8544 73.9546 57.1873C74.3132 57.4947 74.39 57.913 75.0645 58.5789C75.4743 58.9802 75.9694 59.3217 76.2597 59.8595C76.5756 59.9961 76.9512 60.4144 77.1732 60.6791C77.4976 61.0718 77.6086 61.4645 78.1123 61.7207L77.8733 60.551L77.4805 59.9876C76.8744 58.9631 76.8488 59.0399 76.0548 58.485C73.4253 56.6665 74.0571 54.37 71.7434 52.9613C71.3251 52.7052 70.6763 52.5771 70.4201 52.2442C70.7531 51.86 70.3775 52.2442 70.7189 52.0478L71.069 51.86C70.7019 51.5014 70.6336 51.6039 70.4884 51.0319C71.069 51.1343 71.9739 51.6807 72.6228 51.9539C73.7924 52.4405 73.6729 52.4832 74.4327 53.2089C75.0132 53.7638 75.295 54.1566 75.6279 54.9505L76.2768 56.6153C76.3536 56.8458 76.328 56.6665 76.3365 56.8714C76.3451 57.0593 76.328 57.0422 76.2938 57.119C75.4743 56.6751 75.1413 54.4212 74.0314 54.1651C74.3217 57.2385 76.4134 58.1179 76.9341 58.6301C77.3354 59.0228 77.8135 59.5607 78.0611 60.1583C78.5819 60.5254 78.5562 61.5584 79.2307 61.789C79.5551 61.2084 79.4697 60.2352 79.5039 59.518L79.6832 59.0997C79.9222 59.4412 79.9905 59.851 80.1613 60.2352C80.3149 60.5766 80.5028 60.9694 80.6479 61.2682L80.8955 61.1743C80.9723 60.0132 80.6991 59.3643 80.6821 58.6045C80.5198 58.3911 80.4174 58.596 80.6308 58.1264C80.9894 58.2289 80.8016 57.9728 81.0492 58.5106C81.3394 59.0485 81.4077 59.4497 81.7834 59.7912C81.92 56.8629 80.5284 55.3006 80.3491 54.6432L80.8186 55.1213C81.0748 55.3603 80.9552 55.3006 81.2711 55.4115C81.2284 54.6176 79.9734 52.4235 79.3588 52.1759C79.2051 51.8515 79.1197 51.8515 79.0343 51.5271C79.6576 51.5356 80.6991 53.1748 81.2028 53.7126L83.1835 56.2055L82.3298 53.7382C81.5956 52.5515 81.7663 52.4576 81.4931 50.9977C81.1089 48.9232 79.4271 48.1889 78.6331 46.9083C79.4356 47.0876 80.0588 48.0267 80.9467 48.317C80.6394 47.4718 78.616 45.8156 77.694 45.4911L74.7144 43.7581C74.6291 43.1775 74.6461 43.5702 74.834 43.4336C77.0793 43.9032 79.4868 46.4473 80.5455 46.7291C80.3491 45.8497 78.5477 44.552 77.7025 44.0142C76.789 43.4336 75.8414 43.0324 74.7571 42.7421C74.2705 42.614 73.7924 42.7165 73.5704 42.4091C74.6034 41.5554 78.7014 44.0142 79.4868 44.2618C79.41 43.7666 78.7868 43.4592 78.1891 43.2629C76.2853 42.6397 75.7816 41.3591 73.1265 40.9066C73.4594 40.6419 73.4082 40.6761 74.1083 40.8127L77.2586 41.4188C77.0366 40.7871 75.5852 39.5747 74.612 39.3101C72.4606 38.7125 71.6751 40.2321 71.0604 39.9845C71.2312 39.4382 71.5129 39.5918 71.7264 39.054C72.2301 39.0027 73.5534 38.0892 74.7144 38.0807C75.0901 38.0807 74.9108 38.0551 75.2352 38.1832L75.7731 38.482C75.0986 38.5076 74.7742 38.4393 74.3729 38.8149C75.4657 39.1906 76.9683 38.9174 78.1208 39.2674C77.8562 38.499 76.3024 37.5941 75.3377 37.4233C73.1606 37.0477 72.0849 38.2173 71.419 37.8246C71.5812 37.4575 71.5215 37.6709 72.1105 37.6538C72.2386 36.2025 74.1595 36.1769 74.5266 35.4512C72.6569 35.1524 71.308 35.4768 69.6518 36.0061L69.6347 35.7073C70.3006 35.6988 70.1896 35.4256 71.7093 34.9646C72.2215 34.8109 73.6131 34.5804 73.6387 34.0511L72.9131 34.0596L70.6336 34.6572C70.958 34.034 71.5983 34.0938 72.0166 33.462C71.3593 33.5218 71.2995 33.8462 70.6848 33.8206C71.0263 33.5132 71.3507 33.223 71.6239 32.8388L71.5556 32.4973C70.8641 32.6936 69.8908 33.0181 69.481 33.5474C68.9432 33.5901 67.8419 34.2304 67.304 33.8718C68.1151 33.3766 70.2238 32.4119 70.7019 31.8484C69.9506 31.7118 68.6871 32.429 68.0724 32.7192C66.8771 33.2827 66.6039 33.1973 65.8014 34.1535C63.9574 36.3391 63.3085 35.7756 62.6255 38.1917C62.9926 37.9185 63.0097 37.7136 63.3256 37.6965C63.7781 37.0306 63.6329 37.4319 64.4013 37.0904L66.5783 36.2025C67.1076 35.9634 67.1418 35.7671 67.7394 35.639C67.3382 37.3977 64.4525 36.8599 64.2562 38.1746L65.5197 37.8673L69.0456 36.7318L69.6945 36.6891C69.592 36.9965 69.7542 36.8001 69.37 37.0648C68.909 37.3806 68.2773 37.6538 67.8504 38.1063C67.4918 38.4905 66.6466 39.643 66.4417 40.1467C67.2613 39.8992 67.6028 38.7125 68.8578 38.3454C68.5846 39.1906 67.4748 39.5918 67.1418 40.5053C67.7992 40.3687 68.0126 40.2236 68.8322 40.1809C69.6091 40.1382 70.4287 40.0187 70.6165 40.5053C70.036 40.9151 69.2932 40.4285 68.6102 40.8895C70.0616 41.1542 70.5397 41.0346 71.5641 40.4114C72.1361 40.0614 73.5534 39.3613 74.4242 39.7455C74.3132 40.0955 74.3303 39.9675 73.7924 40.0785C73.007 40.2492 71.9483 40.548 71.4788 41.1456C71.769 41.6066 72.4093 41.7091 72.5801 42.025C72.6825 42.4177 72.452 42.1274 72.6569 42.6909C72.7252 42.8787 72.9216 43.169 73.0496 43.3739C73.6046 44.3642 74.1254 45.2009 74.9449 45.7729C75.423 46.1058 75.7731 46.3107 76.3195 46.5754C76.9256 46.8742 77.1988 47.1474 77.7025 47.4462C78.0269 47.7791 78.3087 47.8645 78.4111 48.4109C77.8135 48.4109 77.7452 48.0865 77.1647 47.7706C76.7378 47.5401 76.2512 47.3608 75.7731 47.1132C72.2471 45.3545 73.468 43.7495 70.6421 42.1616C70.4458 42.0506 70.1555 41.9054 69.9335 41.8457L69.4042 41.803C69.37 41.8115 69.3359 41.8201 69.3017 41.8286L69.1054 41.9054C70.5311 42.5884 71.18 42.8275 71.9739 44.0227C72.5801 44.9362 73.246 46.4132 74.0485 47.062C75.2694 48.0438 80.4089 49.239 80.1613 51.0319C79.5722 50.9465 78.0013 49.1878 76.3707 49.111C76.3792 49.9989 76.9341 50.6648 77.361 51.2965L78.3172 53.1577C78.3343 53.1918 78.3513 53.226 78.3684 53.2516L78.4794 53.448C78.4367 54.2334 78.7782 55.2408 78.7355 56.2055C78.6928 57.1617 78.4538 58.0325 78.727 58.8862L78.9746 60.0132C77.9501 59.7314 76.567 56.4958 76.3024 55.0359C75.756 51.9795 72.7679 51.621 72.4008 51.1002C72.435 51.0831 72.4862 51.0404 72.5033 51.066C72.5203 51.1002 72.5801 51.0404 72.6057 51.0404C72.7679 51.0233 72.6825 51.0063 72.9131 51.0148C74.2961 51.1002 76.2768 52.6284 77.0024 54.1992C77.233 54.6859 77.4635 55.6847 77.933 55.9494C78.8124 54.609 76.1402 50.9977 75.6194 50.3489C74.4327 48.889 73.2802 47.4462 70.7958 47.0193C71.1117 48.1036 73.707 48.5646 73.6985 49.905L70.2835 47.9926C69.7884 47.6596 69.7798 47.3352 69.353 47.1388C69.3871 48.206 70.0872 49.0939 70.4116 49.7001C70.847 49.8623 71.2312 50.0501 71.3507 50.4684C70.8812 50.6818 70.5567 50.3147 70.3433 50.033L69.925 49.9391L68.9517 48.4194C68.6614 46.8315 66.4673 44.3813 64.9989 44.1935C65.4855 45.2606 67.4491 45.1667 67.5772 47.4206C66.954 47.173 66.9967 46.7632 66.5613 46.3449C66.271 46.0717 63.3 44.7569 63.3683 43.1007C64.0598 42.6823 64.1879 43.2287 64.7257 42.4006C65.1526 41.7432 65.6904 41.7091 65.5453 41.2395C64.794 40.9834 64.4781 42.1957 63.7098 41.7859C64.0171 41.4017 67.0137 39.2076 66.1685 38.5588C65.9807 38.8064 63.7354 41.0346 62.9756 41.0176C63.1292 39.6687 65.1099 39.3101 65.7075 38.4649C65.1867 38.1832 64.6489 38.7722 64.1623 38.9601L64.1366 38.9686C63.9659 39.3784 63.6159 39.5918 63.2744 39.9419C62.9585 40.2577 62.7365 40.6931 62.1047 40.5907C62.1901 39.8992 62.728 40.1553 62.9756 39.3528C62.2243 39.4979 62.3438 39.754 61.6693 39.9333C61.251 39.6601 61.5925 39.8992 61.2852 39.5235C60.0216 39.9931 59.9448 39.0369 58.2629 38.9344L57.9641 38.1917C57.469 38.482 57.1872 39.515 57.1104 40.1553C57.0336 40.2919 56.8372 40.9663 56.5555 41.2395C56.5299 41.231 56.5128 41.2225 56.4872 41.2139C56.4616 41.2225 56.4445 41.231 56.4189 41.2395C56.1371 40.9749 55.9408 40.2919 55.8639 40.1553C55.7871 39.5235 55.5139 38.482 55.0102 38.1917L54.7114 38.9344C53.0295 39.0454 52.9612 39.9931 51.6892 39.5235C51.3818 39.8906 51.7233 39.6516 51.305 39.9333C50.622 39.754 50.7415 39.4979 49.9988 39.3528C50.2549 40.1553 50.7927 39.8992 50.8696 40.5907C50.2378 40.7017 50.0158 40.2577 49.7 39.9419C49.3499 39.5918 49.0084 39.3784 48.8377 38.9686L48.8121 38.9601C48.3254 38.7722 47.7876 38.1832 47.2668 38.4649C47.873 39.3101 49.8536 39.6687 49.9988 41.0176C49.2475 41.0346 46.9936 38.8064 46.8058 38.5588C45.9606 39.2076 48.9572 41.4017 49.2646 41.7859C48.4962 42.1957 48.1803 40.992 47.429 41.2395C47.2839 41.7091 47.8217 41.7432 48.2486 42.4006C48.7865 43.2287 48.9145 42.6738 49.6061 43.1007C49.6829 44.7569 46.7033 46.0717 46.4131 46.3449C45.9777 46.7632 46.0204 47.173 45.3971 47.4206C45.5252 45.1753 47.4888 45.2692 47.9754 44.1935C46.507 44.3813 44.3129 46.823 44.0226 48.4194L43.0579 49.9391L42.6652 50.033ZM56.5042 60.4742C55.9578 60.8413 56.2481 62.4378 56.3079 62.5829C56.4274 62.5317 56.4701 62.5573 56.4957 62.5488V62.5402H56.5042H56.5128V62.5488C56.5384 62.5573 56.5811 62.5232 56.7006 62.5829C56.7604 62.4378 57.0421 60.8413 56.5042 60.4742ZM56.5042 68.7384L56.4359 68.7554C56.0774 68.3798 55.8213 68.0554 55.4115 67.7139C55.181 67.5175 55.0273 67.4492 54.8651 67.2272C54.6516 66.937 54.7626 66.9114 54.498 66.5955C53.9345 66.6552 53.6442 67.0821 52.8503 67.3041C51.1513 67.7651 51.8941 67.7566 51.2879 68.3627L51.305 69.7458L51.1684 70.8983L51.766 71.1203C51.7831 71.0861 51.8343 71.1374 51.8685 71.1544C51.9965 71.8545 52.3465 72.0935 52.6368 72.657C52.8929 72.4777 52.7563 72.2984 53.1064 72.1362C53.5162 72.7424 54.515 74.151 54.5492 74.817C54.9675 73.9888 55.07 74.5608 55.5139 74.2193C55.3602 73.4254 54.9078 73.69 54.5577 73.1949C54.5919 72.4692 55.1468 72.4521 55.8383 72.4948L56.3079 73.0497C56.3335 73.0412 56.4018 73.007 56.4957 72.9558V72.9473H56.5042H56.5128V72.9558C56.6067 73.007 56.675 73.0412 56.7006 73.0497L57.1702 72.4948C57.8617 72.4521 58.4166 72.4692 58.4508 73.1949C58.1007 73.6815 57.6397 73.4168 57.4946 74.2193C57.9385 74.5694 58.0324 73.9974 58.4593 74.817C58.4934 74.151 59.4838 72.7509 59.9021 72.1362C60.2607 72.2984 60.1155 72.4777 60.3717 72.657C60.6619 72.0935 61.012 71.8545 61.14 71.1544C61.1742 71.1374 61.2254 71.0861 61.2425 71.1203L61.8401 70.8983L61.7035 69.7458L61.7206 68.3627C61.1144 67.748 61.8572 67.7651 60.1582 67.3041C59.3643 67.0907 59.074 66.6552 58.5105 66.5955C58.2459 66.9028 58.3568 66.937 58.1434 67.2272C57.9812 67.4492 57.8275 67.5175 57.597 67.7139C57.1872 68.0554 56.9311 68.3798 56.5725 68.7554L56.5042 68.7384ZM56.5042 75.0645V75.0816V75.0645L56.4957 75.0816L56.5042 75.0645L56.342 74.8767L55.7956 74.9962C55.0017 74.9109 54.9419 74.6974 54.8992 74.6804L54.6346 75.4743C53.1491 75.3377 53.8577 74.2962 52.4575 73.4339C52.6112 73.9291 52.7649 74.0144 52.8759 74.4669C51.6038 74.1169 51.6038 72.1618 51.2708 71.5898C50.8184 73.0327 52.9271 75.2353 53.3369 76.4647C53.832 76.7123 53.6357 76.9001 54.2589 77.6684C54.6089 78.1038 54.8224 78.3173 55.2492 78.7868C55.4968 78.5478 55.4883 78.3856 55.5651 77.9502C56.3335 78.2404 55.753 78.1551 56.4359 77.7794L56.5042 77.7965L56.5725 77.7794C57.2555 78.1551 56.675 78.2319 57.4433 77.9502C57.5202 78.3941 57.5202 78.5478 57.7592 78.7868C58.1861 78.3258 58.3995 78.1038 58.7496 77.6684C59.3728 76.9001 59.1764 76.7123 59.6716 76.4647C60.0814 75.2353 62.1901 73.0327 61.7376 71.5898C61.4047 72.1533 61.3961 74.1084 60.1326 74.4669C60.2351 74.0144 60.3973 73.9291 60.5509 73.4339C59.1508 74.2962 59.8594 75.3377 58.3739 75.4743L58.1093 74.6804C58.0666 74.6974 58.0068 74.9109 57.2128 74.9962L56.6664 74.8767L56.5042 75.0645ZM56.4957 87.3413C56.4786 87.3413 56.4616 87.3413 56.4359 87.3413C56.231 87.3583 55.7786 87.9901 55.8554 87.051C55.8725 86.8205 55.9664 86.9229 55.9493 86.479C55.9237 85.6765 54.8992 84.9423 54.2333 84.5837C53.1917 84.0202 51.527 83.8068 50.8013 83.2946C50.3915 83.4995 50.2805 83.7043 49.6744 83.4055C49.4012 83.2689 49.0084 82.9701 48.8377 82.825C48.5047 82.5518 48.3937 82.3811 48.0523 82.0737C47.5229 81.6042 47.5998 81.8603 47.079 81.8688C46.0972 81.8859 44.6288 79.615 43.775 79.3162C43.3909 79.8284 43.5957 80.2382 43.1347 80.5541C42.5713 79.8711 43.4335 79.5467 42.2212 78.5819C41.6834 78.1551 41.0345 77.7453 40.5564 77.3611C39.9588 76.8232 39.8649 76.3964 39.3356 75.7731C38.8148 74.2791 37.0476 72.6997 36.1682 72.4692C36.2451 73.5705 37.6281 74.0486 37.7733 74.8511C37.1074 74.8426 36.7488 74.3389 36.2195 74.0315L35.9548 73.6303C33.94 71.1886 34.8791 70.369 33.7351 68.5676C33.3595 67.9871 33.0863 67.9273 32.7362 67.6456L32.4801 67.3553L31.7886 67.0736C31.3446 68.1578 33.3424 68.9945 33.4107 70.0787C32.907 70.0702 32.9667 69.8226 32.5484 69.4896C31.5922 68.7213 31.1483 68.4737 30.7299 66.8004C30.5592 66.0576 30.4482 65.238 29.953 64.777L29.6969 66.6296C29.2615 65.7076 29.603 65.4429 28.8176 64.5209C28.4334 64.0684 27.7504 63.3001 27.7248 62.6171L27.4431 61.9426C27.2552 60.7901 27.3662 58.1777 26.6662 57.2129C26.4783 57.8362 26.6491 57.9728 26.41 58.3484C26.2991 58.2118 26.3588 58.3399 26.2734 58.1179C25.5478 56.3421 28.2541 53.4223 28.3736 49.6574C27.8102 49.8708 27.5967 50.477 27.3662 51.0233C27.1528 51.527 27.093 51.9625 26.7942 52.3893L26.6662 52.5345C26.1966 51.8002 27.3577 49.7427 27.776 49.1366C28.3651 48.2914 29.4067 47.5486 29.6201 46.3193C28.8432 46.5583 29.2957 46.8315 28.4761 46.8998C28.8346 45.679 29.5006 46.2851 30.0128 43.6812C30.4653 41.3932 30.175 41.8798 32.907 39.7113L35.0242 37.227C35.8097 36.4245 35.9975 36.4757 35.9633 35.9378C35.2291 36.0659 35.5536 36.3903 34.8193 36.5696C35.1011 34.8621 37.0305 34.8109 37.261 33.8291C36.5097 34.0169 37.1927 34.1706 36.3305 34.2645C36.4414 33.3083 37.6367 32.096 38.627 31.8997C38.738 31.7972 39.1819 31.6265 39.3954 31.4984C39.8052 31.2508 39.7198 31.1398 40.104 30.9862C40.3259 30.3117 40.5991 30.5251 40.6674 29.7909C39.7027 29.6031 39.9503 30.5849 39.0197 30.8154C39.0709 29.9617 39.643 29.3128 40.0954 28.9201C40.2833 28.8006 40.2833 28.7665 40.4967 28.6299C40.8723 28.3908 40.6589 28.4762 41.0089 28.4079C41.8541 27.281 44.6202 28.3737 45.141 26.615C44.5861 26.7346 44.4836 26.9821 44.0824 26.6833C44.7398 25.2661 49.2304 25.1978 49.6914 25.0442C49.4353 24.8051 49.2133 24.8393 49.1706 24.8307C49.0597 24.8051 49.034 24.8563 48.795 24.7624C48.9231 24.3356 49.128 24.3526 49.6146 24.2075C51.3818 23.6696 52.3465 24.7795 53.0637 24.7197C52.9271 24.216 52.6368 24.0111 52.9612 23.4733C53.1405 23.3111 53.2771 23.405 53.4735 23.6099C53.7552 23.9002 53.4223 23.8233 53.943 24.0538C54.1052 24.1221 55.2322 24.327 55.4371 24.3441C56.4359 24.4551 55.9408 24.0794 56.4957 24.199C57.0506 24.0794 56.5555 24.4551 57.5458 24.3441C57.7592 24.3185 58.8862 24.1221 59.0398 24.0538C59.5606 23.8233 59.2277 23.9087 59.5094 23.6099C59.7058 23.405 59.8338 23.3111 60.0216 23.4733C60.3461 24.0111 60.0558 24.2075 59.9192 24.7197C60.6278 24.7795 61.601 23.6696 63.3683 24.2075C63.8549 24.3526 64.0683 24.3356 64.1879 24.7624C63.9488 24.8563 63.9147 24.7966 63.8122 24.8307C63.7695 24.8393 63.5476 24.8137 63.2914 25.0442C63.7525 25.1893 68.2431 25.2661 68.9005 26.6833C68.4992 26.9821 68.3968 26.7346 67.8419 26.615C68.3626 28.3737 71.1287 27.2724 71.9739 28.4079C72.324 28.4762 72.1105 28.3908 72.4862 28.6299C72.6996 28.7665 72.6996 28.8006 72.8874 28.9201C73.3399 29.3128 73.9034 29.9617 73.9631 30.8154C73.0326 30.5849 73.2802 29.6031 72.3154 29.7909C72.3837 30.5251 72.6569 30.3117 72.8789 30.9862C73.2716 31.1398 73.1777 31.2508 73.5875 31.4984C73.8095 31.6265 74.2449 31.8058 74.3559 31.8997C75.3462 32.096 76.5414 33.3083 76.6524 34.2645C75.7901 34.1706 76.4646 34.0169 75.7218 33.8291C75.9524 34.8109 77.8818 34.8621 78.1635 36.5696C77.4208 36.3903 77.7537 36.0744 77.0195 35.9378C76.9854 36.4671 77.1732 36.4159 77.9586 37.227L80.0759 39.7113C82.8079 41.8798 82.5176 41.3932 82.9701 43.6812C83.4823 46.2851 84.1482 45.679 84.5068 46.8998C83.6787 46.8315 84.1397 46.5583 83.3628 46.3193C83.5762 47.5486 84.6263 48.2914 85.2069 49.1366C85.6252 49.7427 86.7863 51.8002 86.3167 52.5345L86.1887 52.3893C85.8984 51.9625 85.8301 51.527 85.6166 51.0233C85.3861 50.477 85.1727 49.8708 84.6092 49.6574C84.7288 53.4309 87.4351 56.3421 86.7094 58.1179C86.6155 58.3399 86.6838 58.2118 86.5728 58.3484C86.3338 57.9813 86.5045 57.8362 86.3167 57.2129C85.6166 58.1691 85.7276 60.7901 85.5398 61.9426L85.2581 62.6171C85.2325 63.3001 84.5495 64.0684 84.1653 64.5209C83.3799 65.4429 83.7214 65.6991 83.2859 66.6296L83.0298 64.777C82.5347 65.238 82.4322 66.0576 82.2529 66.8004C81.8431 68.4737 81.3907 68.7213 80.4345 69.4896C80.0247 69.8226 80.0759 70.0702 79.5722 70.0787C79.649 68.9945 81.6468 68.1578 81.1943 67.0736L80.5028 67.3553L80.2466 67.6456C79.9051 67.9273 79.6234 67.9785 79.2478 68.5676C78.0952 70.369 79.0343 71.1886 77.0281 73.6303L76.7634 74.0315C76.2341 74.3389 75.8755 74.8426 75.2011 74.8511C75.3377 74.0486 76.7207 73.5705 76.8061 72.4692C75.9267 72.6997 74.151 74.2791 73.6387 75.7731C73.1094 76.3964 73.0155 76.8232 72.4179 77.3611C71.9398 77.7453 71.291 78.1551 70.7531 78.5819C69.5323 79.5467 70.3945 79.8711 69.8311 80.5541C69.3786 80.2296 69.5749 79.8199 69.1908 79.3162C68.337 79.615 66.8686 81.8859 65.8868 81.8688C65.366 81.8603 65.4429 81.6127 64.9135 82.0737C64.572 82.3811 64.4525 82.5518 64.1281 82.825C63.9574 82.9701 63.5646 83.2689 63.2914 83.4055C62.6853 83.7043 62.5743 83.508 62.1645 83.2946C61.4474 83.8068 59.774 84.0288 58.7325 84.5837C58.0666 84.9423 57.0421 85.6765 57.0165 86.479C57.0079 86.9229 57.0933 86.8205 57.1104 87.051C57.1872 87.9901 56.7262 87.3583 56.5299 87.3413C56.5384 87.3413 56.5213 87.3413 56.4957 87.3413ZM56.5042 29.2872L56.4957 29.2958L56.5042 29.2872C56.1115 29.1592 56.0688 28.6896 55.5395 28.3054C55.4285 28.4847 55.4712 28.3225 55.42 28.6384C55.3432 29.1762 55.5822 29.2872 55.42 29.8934C54.7882 29.4836 54.7712 27.3151 53.6442 26.948C53.8662 27.6993 54.4382 28.5103 54.737 29.4324C55.0102 30.269 55.2578 31.6777 55.3005 32.6253C54.9419 32.4119 54.8821 32.3692 54.8395 31.8058C54.7712 30.952 54.3443 29.4324 53.5332 29.0653C53.2515 31.3874 54.8736 32.0448 55.0273 34.1023C54.2675 33.6071 54.7199 33.3083 54.1992 32.8729C54.0711 31.8143 53.1234 30.952 52.6027 30.1666C52.0477 29.347 51.6721 27.9981 50.622 27.6822C50.6818 28.2286 51.416 29.808 51.7575 30.3715C51.9538 30.6874 52.0733 30.8837 52.0477 31.2508C51.8172 30.8581 51.7831 30.9179 51.5611 30.5678C51.1342 29.9019 50.4427 28.4164 49.5975 28.3993L49.8536 29.1677L49.0767 28.8774C49.4097 29.4921 51.5355 31.6179 51.0745 32.2924C50.6732 31.8826 50.3232 31.1228 49.9305 30.6617C49.6061 30.2776 48.9145 29.5775 48.2913 29.5434C48.3767 29.9617 49.3926 31.1228 49.8622 32.6424C49.2902 32.3607 49.4012 32.2582 49.1109 31.746C48.6157 30.8666 47.6595 29.9361 46.7631 29.5604C46.6692 30.3117 47.0534 30.6874 47.3437 31.0801L48.1974 32.2497C47.9754 32.1899 46.9082 31.2167 46.5753 30.952C45.0727 29.7568 45.4569 31.4386 44.5434 30.2434C43.9714 30.141 44.108 29.8678 43.4165 29.7824C43.536 30.1837 43.6811 30.141 43.7665 30.3629C44.2531 30.5508 44.4922 30.7813 44.8507 31.0374C45.1922 31.285 45.5508 31.4386 45.6959 31.6862C46.0118 31.7118 46.1399 31.7204 46.3533 31.8399C46.6521 32.0021 46.6948 32.1216 46.7716 32.3265C46.3362 32.2155 45.9521 32.0619 45.6959 31.6862C45.0642 31.5838 44.0738 30.7983 43.3311 31.1825C43.6726 31.7972 44.9361 31.8997 45.6703 32.2753C47.2583 33.0778 48.3852 33.8718 49.5634 35.1439C49.8707 35.4768 50.7501 36.7062 51.1513 36.766L50.6647 35.622C51.766 36.0488 51.9709 37.9953 52.7649 38.8405C52.8076 37.2184 51.3733 36.0147 51.2025 35.3829C51.7916 35.5366 51.9709 36.0232 52.4831 36.322C52.3465 35.5878 51.3306 34.2474 51.0062 33.2827C51.3904 33.3681 51.5184 33.6413 51.8514 34.1365C52.338 34.8365 52.227 34.8707 52.5856 34.9816C53.2259 34.2474 52.4405 33.8974 51.9965 33.0864C51.6379 32.429 51.988 32.2753 51.988 32.2753C52.4405 32.4887 52.6368 32.9071 52.8929 33.223C53.2174 33.6242 53.4052 33.8206 53.6015 34.3072C53.8747 34.9817 54.1906 36.2708 54.7626 36.5354C54.5919 35.2036 52.9185 33.1034 52.9015 32.3521C53.6271 32.4631 53.482 32.9839 54.054 33.2656L55.6932 36.766C56.1201 36.0232 55.2663 31.6521 56.1371 31.1313C56.1713 31.6521 56.3591 32.0021 56.3506 32.7278C56.3335 33.8889 55.9493 36.2025 56.5384 37.1245C57.1189 36.2025 56.7347 33.8974 56.7262 32.7278C56.7177 32.0106 56.9055 31.6521 56.9396 31.1313C57.8105 31.6521 56.9482 36.0317 57.3751 36.766L59.0142 33.2656C59.5862 32.9754 59.4411 32.4546 60.1668 32.3521C60.1497 33.1034 58.4764 35.2036 58.3056 36.5354C58.8862 36.2623 59.202 34.9817 59.4667 34.3072C59.6631 33.8206 59.8509 33.6242 60.1753 33.223C60.44 32.8985 60.6278 32.4887 61.0803 32.2753C61.0803 32.2753 61.4303 32.429 61.0717 33.0864C60.6278 33.8974 59.8338 34.2474 60.4827 34.9816C60.8412 34.8792 60.7302 34.8451 61.2169 34.1365C61.5584 33.6413 61.6779 33.3681 62.0621 33.2827C61.7376 34.2474 60.7217 35.5878 60.5851 36.322C61.0888 36.0232 61.2766 35.5366 61.8657 35.3829C61.695 36.0147 60.2607 37.2184 60.3034 38.8405C61.0973 37.9953 61.3108 36.0488 62.4121 35.622L61.9255 36.766C62.3182 36.7062 63.2061 35.4768 63.5134 35.1439C64.6916 33.8718 65.8185 33.0778 67.4065 32.2753C68.1407 31.9082 69.4042 31.8058 69.7457 31.1825C68.9944 30.7983 68.0126 31.5838 67.3808 31.6862C67.1247 32.0619 66.7405 32.2155 66.3051 32.3265C66.3905 32.1216 66.4247 32.0106 66.7235 31.8399C66.9369 31.7204 67.065 31.7118 67.3808 31.6862C67.526 31.4386 67.8845 31.285 68.226 31.0374C68.5761 30.7813 68.8237 30.5508 69.3017 30.3629C69.3871 30.1324 69.5323 30.1837 69.6518 29.7824C68.9603 29.8763 69.0883 30.141 68.5248 30.2434C67.6113 31.4386 67.987 29.7568 66.493 30.952C66.1685 31.2167 65.0928 32.1899 64.8709 32.2497L65.7246 31.0801C66.0149 30.6788 66.399 30.3117 66.3051 29.5604C65.4087 29.9446 64.4611 30.8666 63.9574 31.746C63.6671 32.2582 63.7781 32.3521 63.2061 32.6424C63.6756 31.1313 64.683 29.9617 64.7769 29.5434C64.1537 29.5775 63.4622 30.269 63.1378 30.6617C62.7451 31.1228 62.395 31.8741 61.9938 32.2924C61.5327 31.6179 63.6586 29.4921 63.9915 28.8774L63.2146 29.1677L63.4707 28.3993C62.6255 28.4079 61.9255 29.8934 61.5071 30.5678C61.2852 30.9179 61.251 30.8496 61.0205 31.2508C60.9949 30.8837 61.123 30.6959 61.3108 30.3715C61.6523 29.8165 62.3865 28.2286 62.4462 27.6822C61.3961 27.9896 61.0205 29.3385 60.4656 30.1666C59.9448 30.952 58.9972 31.8143 58.8691 32.8729C58.3398 33.3169 58.7923 33.6071 58.041 34.1023C58.1946 32.0448 59.8167 31.3789 59.535 29.0653C58.724 29.4324 58.2886 30.952 58.2288 31.8058C58.1861 32.3778 58.1263 32.4204 57.7678 32.6253C57.8105 31.6777 58.058 30.269 58.3312 29.4324C58.63 28.5103 59.202 27.6993 59.424 26.948C58.2971 27.3236 58.2885 29.4836 57.6482 29.8934C57.486 29.2872 57.7251 29.1762 57.6482 28.6384C57.6056 28.3225 57.6482 28.4847 57.5287 28.3054C56.9311 28.6896 56.8884 29.1592 56.5042 29.2872ZM47.1729 56.4702C47.1814 57.0336 47.3607 56.7519 47.7364 56.6238C48.001 57.2556 48.0693 57.1532 48.2571 57.5032C48.4791 57.913 48.2913 57.8447 48.4023 58.3825C48.5986 59.3558 48.1035 59.4753 47.1558 59.5778C46.8826 59.0911 46.7973 58.7411 46.5411 58.3143C46.4045 58.0837 46.3362 58.024 46.1911 57.7593C46.0204 57.4349 46.1826 57.5288 45.9521 57.3666L45.9008 56.9483L46.4728 57.2983C46.3619 56.7775 46.4302 56.9141 46.0716 56.5812C45.9606 55.9152 45.2605 55.0444 45.5764 54.498C46.0374 54.6688 45.713 54.5407 45.9264 54.9676C46.0289 55.1725 45.9947 55.1383 46.1228 55.292L46.729 55.9665C46.8399 56.1031 46.8826 56.1799 46.9595 56.2653C47.0875 56.419 46.9851 56.3336 47.1729 56.4702ZM54.8907 60.6962C54.8992 60.1498 54.8138 60.1498 54.2845 60.1583C54.3955 60.5937 54.387 60.6706 54.8907 60.6962ZM56.5042 46.029C56.3676 46.0205 56.2225 46.0119 56.0518 45.9948C54.9419 46.0973 54.626 45.4655 54.3699 45.124C54.0711 44.7313 54.1308 45.0728 53.9772 44.4667L55.4115 43.9886C55.4456 44.0739 55.4029 44.0569 55.4285 44.1678L55.5395 44.4752C56.0688 44.0739 56.2737 43.8605 56.5042 43.8776C56.7262 43.8605 56.9396 44.0739 57.469 44.4752L57.5799 44.1678C57.6056 44.0654 57.5629 44.0825 57.597 43.9886L59.0313 44.4667C58.8776 45.0728 58.9374 44.7313 58.6386 45.124C58.3825 45.457 58.0666 46.0973 56.9567 45.9948C56.7774 46.0034 56.6323 46.0205 56.5042 46.029ZM52.1673 45.6021C52.3465 46.0375 52.1929 45.7643 52.4405 45.8156C52.6453 46.2253 52.9015 46.4644 53.2003 46.8827C52.3807 47.395 51.6209 46.5668 51.3647 46.4559C50.1951 45.9607 49.7597 47.0449 49.1109 46.9339C48.9572 46.268 49.7 46.1912 50.3147 45.8839C51.2964 45.3887 50.6476 45.107 52.1673 45.6021ZM53.1149 51.1087C52.7051 50.7928 51.9794 50.605 51.4501 51.0063C50.9891 51.1343 50.5452 51.1941 50.0158 51.0063C49.3243 50.7587 48.6157 50.1013 48.6072 49.3244C48.5986 49.0256 48.5986 48.9061 48.7267 48.65C48.9145 48.2829 48.9316 48.3768 49.0682 48.2658L49.2304 48.0865C49.3243 47.984 49.3585 47.8901 49.6829 47.8048C49.828 47.7621 50.0158 47.7706 50.1695 47.7791C52.0733 47.8731 51.6892 48.778 52.0307 49.2647C52.2356 49.5549 52.2526 49.461 52.5258 49.9135C53.0039 50.6818 54.9761 51.1087 53.1149 51.1087ZM49.828 49.222C48.6926 48.7097 49.1621 50.5538 50.2634 50.4513C50.0415 49.8879 50.0671 50.2038 49.6744 49.8623L49.7341 49.3159L49.828 49.222ZM50.6135 49.8281L50.6903 50.3489L51.2025 50.3318L51.1513 49.8708C51.1257 49.5037 50.5622 49.8281 50.5622 49.8281H50.6135ZM56.5042 53.0467C56.4786 53.0296 56.453 53.0211 56.4359 53.0125C56.0688 53.4053 56.1627 53.6614 56.0518 54.1822C55.7188 53.576 55.9493 52.3979 55.0443 52.5088C55.0614 51.6039 55.4541 51.8515 56.4359 51.86H56.4957H56.5042H56.564C57.5458 51.8515 57.9471 51.6039 57.9556 52.5088C57.0506 52.3979 57.2811 53.576 56.9482 54.1822C56.8372 53.6614 56.9311 53.4053 56.564 53.0125C56.5469 53.0211 56.5299 53.0296 56.5042 53.0467ZM55.0443 50.5965C55.1383 50.9209 55.2407 51.177 55.0785 51.5356C54.959 51.7917 55.0529 51.5612 54.8651 51.8429C54.6687 52.1332 54.7882 51.9283 54.6516 52.21C54.4894 52.2698 54.3357 52.3466 54.1052 52.2954C54.0626 52.1844 54.0455 52.4149 54.0455 52.0222C54.0455 51.9454 54.0796 51.7832 54.0967 51.6636C54.3528 51.4673 54.1223 51.8429 54.404 51.3734C54.4638 51.2795 54.4894 51.1941 54.5065 51.0746C54.5492 50.8099 54.5577 50.4855 54.3101 50.4172C54.2931 49.9989 54.1479 49.811 54.387 49.4866C54.6346 49.811 54.7882 50.2635 55.0443 50.5965ZM48.2145 53.4138C47.8047 52.6967 47.318 50.4599 48.2571 49.9903C48.6243 50.3916 48.0352 50.4343 48.1803 51.049C48.3425 51.749 50.1781 53.5163 48.2145 53.4138ZM46.9851 49.3329C45.5423 48.9658 46.3704 47.3864 47.4973 46.8998C47.8132 46.7632 47.5485 46.7974 48.0096 46.7547C47.8815 47.2328 47.6339 47.4889 47.4461 47.9926L47.1388 48.9488C47.1302 48.9829 47.1131 49.0171 47.1046 49.0512L46.9851 49.3329ZM52.8417 54.5322C52.7649 54.6603 52.3039 55.8726 52.1758 56.1799C51.7404 57.2471 52.2441 57.3922 51.8343 58.024C51.5526 57.9215 51.5782 58.1691 51.4501 57.6142C51.3477 57.1532 51.527 56.4019 51.7148 55.9579C51.9709 55.3347 52.1843 54.7969 52.8417 54.5322ZM50.7244 54.7542L50.6818 54.5066L50.7757 53.7809C50.844 53.6955 50.9123 54.0541 50.9891 53.354L51.0147 53.3199L51.9197 53.2943C51.8855 53.7894 51.6636 54.2249 51.433 54.5407C51.1172 54.9505 50.9891 55.2323 50.5793 55.3347L50.7244 54.7542ZM51.3989 61.1486C50.5964 61.345 50.0415 60.6791 50.511 60.2608C50.955 59.8595 51.3391 60.8669 51.3989 61.1486ZM50.8013 62.5915C50.6305 62.7622 50.4427 62.7195 50.3488 62.5488C50.1439 62.1817 50.4171 62.0621 50.4171 62.0536C50.9635 61.8743 51.0489 62.3439 50.8013 62.5915ZM53.5845 68.7127C54.0199 68.9091 54.5321 69.2848 54.4723 69.8311C54.3784 69.8397 52.91 69.7372 52.7649 69.7116C52.3551 68.7128 51.9197 67.7224 52.8076 67.9785C53.3113 68.1237 53.0893 68.1664 53.2174 68.3456L53.5845 68.7127ZM49.4609 75.9866C49.2987 75.7988 49.4182 76.0122 49.2389 75.6707C49.1877 75.5682 49.1023 75.3292 49.0597 75.2097C48.9316 74.8426 48.8804 74.5779 48.8035 74.1937C48.7267 73.8181 48.6584 73.5534 48.5474 73.1607C48.2742 72.2301 48.2828 72.4948 48.0096 72.418L48.0437 73.3229C48.2742 74.0742 48.3852 74.7657 48.6243 75.5085C48.8548 76.2256 49.3072 77.0025 49.828 77.2586L49.4609 75.9866ZM46.6094 72.307C46.8229 71.0008 46.9851 70.5227 46.8058 69.0799C46.0716 69.4043 46.4387 70.4544 46.2338 71.3166C45.7728 71.0776 45.6191 69.7714 45.5167 69.3104C45.3459 68.5249 44.791 67.9273 44.7398 67.3041C44.3556 66.9797 44.4239 66.8687 44.2446 66.3564C44.1934 66.2113 44.1421 66.0832 44.0653 65.904L43.7921 65.4344C43.5787 65.9637 44.5519 68.2176 44.7227 68.9859C45.013 69.2762 45.585 71.9057 45.5679 72.5887C45.0556 72.2643 44.919 71.5898 44.4324 71.1459L44.3983 71.5813C44.4836 72.0082 45.3032 73.2205 45.585 73.7071C46.1655 74.7145 45.8582 74.3474 46.2594 74.4499C46.1655 73.7925 46.4045 72.8534 46.6094 72.307ZM44.3043 76.2768C44.8422 76.072 44.4409 76.4561 44.5178 76.0207C44.5434 75.8927 44.4922 75.7988 44.4239 75.6536C44.1507 75.0816 43.775 74.8084 43.7665 73.579C43.758 72.8192 43.7921 71.0691 43.075 70.8215C42.8103 72.6229 43.4592 74.1596 44.0141 75.5768L44.3043 76.2768ZM30.2177 58.3484C29.8421 59.4668 29.1932 61.5243 29.9957 62.6342L30.175 61.567C30.2006 60.884 30.3884 60.662 30.4397 59.5266L30.4055 58.6387C30.3116 58.3655 30.3543 58.5106 30.2177 58.3484ZM35.0669 66.9028C35.0584 65.9552 34.5035 66.4418 33.7692 65.221C33.368 64.5465 33.4704 64.7429 33.1631 64.5721C33.2314 65.2893 33.59 65.5368 33.9058 65.9723C34.1534 66.3052 34.623 66.8943 35.0669 66.9028ZM28.5444 55.1298C29.3981 54.592 30.3628 53.0211 30.4482 51.6978C29.7311 52.0478 28.7664 54.1822 28.5444 55.1298ZM46.9424 42.7165C45.6959 42.1701 43.9287 42.153 42.8786 43.0494C41.137 44.5435 41.7858 46.029 42.9298 46.1485C43.9202 44.7313 42.5115 45.1496 43.8689 44.0483C44.7995 43.297 45.7813 43.7837 46.8741 43.4507L46.9424 42.7165ZM65.8356 56.4702C65.827 57.0336 65.6478 56.7519 65.2721 56.6238C65.0075 57.2556 64.9392 57.1532 64.7513 57.5032C64.5294 57.913 64.7172 57.8447 64.6062 58.3825C64.4098 59.3558 64.905 59.4753 65.8527 59.5778C66.1258 59.0911 66.2112 58.7411 66.4673 58.3143C66.6039 58.0837 66.6722 58.024 66.8174 57.7593C66.9881 57.4349 66.8259 57.5288 67.0564 57.3666L67.1076 56.9483L66.5356 57.2983C66.6466 56.7775 66.5783 56.9141 66.9369 56.5812C67.0479 55.9152 67.7394 55.0444 67.4321 54.498C66.971 54.6688 67.2955 54.5407 67.082 54.9676C66.9796 55.1725 67.0137 55.1383 66.8857 55.292L66.2795 55.9665C66.1685 56.1031 66.1258 56.1799 66.049 56.2653C65.9124 56.419 66.0149 56.3336 65.8356 56.4702ZM58.1178 60.6962C58.1093 60.1498 58.1946 60.1498 58.7325 60.1583C58.6044 60.5937 58.613 60.6706 58.1178 60.6962ZM60.8327 45.6021C60.6534 46.0375 60.8071 45.7643 60.5595 45.8156C60.3546 46.2253 60.0985 46.4644 59.7997 46.8827C60.6192 47.395 61.3705 46.5668 61.6267 46.4559C62.7963 45.9607 63.2317 47.0449 63.8805 46.9339C64.0342 46.268 63.2914 46.1912 62.6768 45.8839C61.7035 45.3887 62.3523 45.107 60.8327 45.6021ZM59.885 51.1087C60.2948 50.7928 61.0205 50.605 61.5498 51.0063C62.0108 51.1343 62.4548 51.1941 62.9841 51.0063C63.6756 50.7587 64.3842 50.1013 64.3928 49.3244C64.4013 49.0256 64.4013 48.9061 64.2732 48.65C64.0854 48.2829 64.0683 48.3768 63.9317 48.2658L63.7695 48.0865C63.6756 47.984 63.6415 47.8901 63.3171 47.8048C63.1719 47.7621 62.9841 47.7706 62.8304 47.7791C60.9266 47.8731 61.3108 48.778 60.9693 49.2647C60.7644 49.5549 60.7473 49.461 60.4741 49.9135C60.0046 50.6818 58.0239 51.1087 59.885 51.1087ZM63.1719 49.222C64.3074 48.7097 63.8378 50.5538 62.7365 50.4513C62.9585 49.8879 62.9329 50.2038 63.3171 49.8623L63.2573 49.3159L63.1719 49.222ZM62.3865 49.8281L62.3096 50.3489L61.7974 50.3318L61.8486 49.8708C61.8742 49.5037 62.4377 49.8281 62.4377 49.8281H62.3865ZM57.9556 50.5965C57.8617 50.9209 57.7592 51.177 57.9214 51.5356C58.041 51.7917 57.9471 51.5612 58.1349 51.8429C58.3312 52.1332 58.2117 51.9283 58.3483 52.21C58.5105 52.2698 58.6642 52.3466 58.8947 52.2954C58.9374 52.1844 58.9545 52.4149 58.9545 52.0222C58.9545 51.9454 58.9203 51.7832 58.9032 51.6636C58.6471 51.4673 58.8776 51.8429 58.5959 51.3734C58.5361 51.2795 58.5105 51.1941 58.4934 51.0746C58.4508 50.8099 58.4422 50.4855 58.6898 50.4172C58.7069 49.9989 58.852 49.811 58.613 49.4866C58.3654 49.811 58.2202 50.2635 57.9556 50.5965ZM64.7855 53.4138C65.1953 52.6967 65.6819 50.4599 64.7428 49.9903C64.3757 50.3916 64.9648 50.4343 64.8196 51.049C64.6574 51.749 62.8304 53.5163 64.7855 53.4138ZM66.0234 49.3329C67.4662 48.9658 66.6381 47.3864 65.5112 46.8998C65.1953 46.7632 65.4599 46.7974 64.9989 46.7547C65.127 47.2328 65.3746 47.4889 65.5624 47.9926L65.8697 48.9488C65.8783 48.9829 65.8953 49.0171 65.9039 49.0512L66.0234 49.3329ZM60.1582 54.5322C60.2351 54.6603 60.6961 55.8726 60.8241 56.1799C61.2595 57.2471 60.7558 57.3922 61.1656 58.024C61.4474 57.9215 61.4218 58.1691 61.5498 57.6142C61.6523 57.1532 61.473 56.4019 61.2937 55.9579C61.0376 55.3347 60.8156 54.7969 60.1582 54.5322ZM62.2755 54.7542L62.3182 54.5066L62.2243 53.7809C62.156 53.6955 62.0877 54.0541 62.0108 53.354L61.9767 53.3199L61.0717 53.2943C61.1059 53.7894 61.3279 54.2249 61.5584 54.5407C61.8742 54.9505 62.0023 55.2323 62.4121 55.3347L62.2755 54.7542ZM61.601 61.1486C62.4036 61.345 62.9585 60.6791 62.4889 60.2608C62.045 59.8595 61.6693 60.8669 61.601 61.1486ZM62.1987 62.5915C62.3694 62.7622 62.5572 62.7195 62.6511 62.5488C62.856 62.1817 62.5828 62.0621 62.5828 62.0536C62.045 61.8743 61.9511 62.3439 62.1987 62.5915ZM59.4155 68.7127C58.9801 68.9091 58.4678 69.2848 58.5276 69.8311C58.6215 69.8397 60.0899 69.7372 60.2351 69.7116C60.6449 68.7128 61.0803 67.7224 60.1924 67.9785C59.6887 68.1237 59.9106 68.1664 59.7826 68.3456L59.4155 68.7127ZM63.539 75.9866C63.7012 75.7988 63.5817 76.0122 63.761 75.6707C63.8122 75.5682 63.8976 75.3292 63.9403 75.2097C64.0683 74.8426 64.1196 74.5779 64.2049 74.1937C64.2818 73.8181 64.3501 73.5534 64.4611 73.1607C64.7343 72.2301 64.7257 72.4948 64.9989 72.418L64.9648 73.3229C64.7343 74.0742 64.6233 74.7657 64.3842 75.5085C64.1537 76.2256 63.7012 77.0025 63.1805 77.2586L63.539 75.9866ZM66.3905 72.307C66.1771 71.0008 66.0149 70.5227 66.1941 69.0799C66.9284 69.4043 66.5613 70.4544 66.7662 71.3166C67.2272 71.0776 67.3808 69.7714 67.4833 69.3104C67.654 68.5249 68.209 67.9273 68.2602 67.3041C68.6444 66.9797 68.5761 66.8687 68.7554 66.3564C68.8066 66.2113 68.8578 66.0832 68.9346 65.904L69.2078 65.4344C69.4213 65.9637 68.448 68.2176 68.2773 68.9859C67.987 69.2762 67.415 71.9057 67.4321 72.5887C67.9443 72.2643 68.0809 71.5898 68.5675 71.1459L68.6017 71.5813C68.5163 72.0082 67.6967 73.2205 67.415 73.7071C66.8344 74.7145 67.1418 74.3474 66.7405 74.4499C66.8344 73.7925 66.5954 72.8534 66.3905 72.307ZM68.7041 76.2768C68.1663 76.072 68.5675 76.4561 68.4907 76.0207C68.4651 75.8927 68.5248 75.7988 68.5846 75.6536C68.8578 75.0816 69.2334 74.8084 69.242 73.579C69.2505 72.8192 69.2164 71.0691 69.9335 70.8215C70.1982 72.6229 69.5493 74.1596 68.9944 75.5768L68.7041 76.2768ZM82.7822 58.3484C83.1579 59.4668 83.8067 61.5243 83.0042 62.6342L82.8249 61.567C82.7993 60.884 82.6115 60.662 82.5603 59.5266L82.5944 58.6387C82.6883 58.3655 82.6456 58.5106 82.7822 58.3484ZM77.933 66.9028C77.9416 65.9552 78.4965 66.4418 79.2307 65.221C79.6405 64.5465 79.538 64.7429 79.8454 64.5721C79.7771 65.2893 79.4185 65.5368 79.1026 65.9723C78.8551 66.3052 78.3855 66.8943 77.933 66.9028ZM84.4556 55.1298C83.6018 54.592 82.6371 53.0211 82.5517 51.6978C83.2689 52.0478 84.2421 54.1822 84.4556 55.1298ZM66.0575 42.7165C67.304 42.1701 69.0712 42.153 70.1213 43.0494C71.863 44.5435 71.2141 46.029 70.0701 46.1485C69.0798 44.7313 70.4884 45.1496 69.131 44.0483C68.2004 43.297 67.2186 43.7837 66.1259 43.4507L66.0575 42.7165Z" fill="white"/>
<path fill-rule="evenodd" clip-rule="evenodd" d="M10.7525 52.5771H17.6592V53.465H10.7525V52.5771ZM10.7525 57.7935H17.6592V58.6814H10.7525V57.7935ZM7.3205 54.7286H21.0913V56.5214H7.3205V54.7286Z" fill="white"/>
<path fill-rule="evenodd" clip-rule="evenodd" d="M36.1683 23.8831L35.7243 22.7562L36.3049 22.5257C36.7488 22.3549 36.9964 22.1927 37.0647 22.0476C37.133 21.9024 37.0818 21.6292 36.9196 21.2194L34.6059 15.3543C34.4437 14.9445 34.29 14.714 34.1449 14.6542C33.9998 14.5944 33.701 14.6457 33.257 14.825L32.6765 15.0555L32.2325 13.9285L37.8928 11.7003C39.6344 11.0173 41.1114 10.9148 42.3408 11.4015C43.5616 11.8881 44.5007 12.9553 45.141 14.5859C45.7813 16.2165 45.824 17.6337 45.2691 18.8375C44.7056 20.0413 43.5531 20.9804 41.82 21.6634L36.1683 23.8831ZM39.3783 21.3133L40.6845 20.8011C41.4614 20.4938 42.0249 20.2035 42.3578 19.9303C42.6993 19.6571 42.9555 19.3156 43.1177 18.9229C43.2799 18.5216 43.3396 18.0179 43.2884 17.4118C43.2372 16.8056 43.075 16.1653 42.8189 15.4994C42.5542 14.8335 42.2383 14.2615 41.8627 13.7919C41.487 13.3224 41.1029 12.9894 40.7101 12.8101C40.3174 12.6308 39.8991 12.554 39.4637 12.5882C39.0283 12.6138 38.4221 12.7845 37.6452 13.0919L36.339 13.6041L39.3783 21.3133Z" fill="white"/>
<path fill-rule="evenodd" clip-rule="evenodd" d="M53.7296 18.9314V17.7191H54.4126C54.8822 17.7191 55.181 17.6679 55.3005 17.5569C55.4115 17.4459 55.4712 17.1727 55.4712 16.7373L55.4883 10.4282C55.4883 9.99282 55.4371 9.71962 55.3176 9.60864C55.2066 9.49765 54.9078 9.43789 54.4382 9.43789H53.7552V8.22559L59.535 8.24266V9.45497H58.852C58.3739 9.45497 58.0837 9.50619 57.9641 9.61717C57.8532 9.72816 57.7934 10.0014 57.7934 10.4368L57.7763 16.7459C57.7763 17.1813 57.8275 17.4545 57.9471 17.5654C58.0581 17.6764 58.3569 17.7362 58.835 17.7362H59.5179V18.9485L53.7296 18.9314Z" fill="white"/>
<path fill-rule="evenodd" clip-rule="evenodd" d="M74.3217 23.593L74.8083 22.4831L75.4657 22.7734C75.9011 22.9697 76.1914 23.0295 76.3365 22.9783C76.4817 22.9185 76.6524 22.6966 76.8232 22.2953L79.6234 15.9691L72.7764 22.9185L71.8117 22.4917L72.6057 12.6652L69.7371 19.1621C69.5579 19.5633 69.4981 19.8365 69.5579 19.9817C69.6176 20.1268 69.8652 20.2976 70.3006 20.4939L70.8811 20.75L70.3945 21.8599L65.827 19.8365L66.3137 18.7267L66.843 18.9572C67.2698 19.145 67.5686 19.2133 67.7138 19.1621C67.8675 19.1109 68.0297 18.8804 68.2004 18.4791L70.7531 12.7078C70.9324 12.3066 70.9921 12.0334 70.9324 11.8883C70.8726 11.7431 70.625 11.5724 70.1982 11.376L69.6688 11.1455L70.1555 10.0356L74.7144 12.0505L74.0827 19.3755L79.3246 14.0909L83.6872 16.0203L83.2006 17.1302L82.6456 16.8826C82.2102 16.6862 81.9114 16.6179 81.7578 16.6777C81.6041 16.7375 81.4419 16.9594 81.2626 17.3522L78.7099 23.1234C78.5392 23.5161 78.4794 23.7893 78.5392 23.943C78.5989 24.0967 78.8465 24.2674 79.2819 24.4552L79.8368 24.7028L79.3502 25.8127L74.3217 23.593Z" fill="white"/>
<path fill-rule="evenodd" clip-rule="evenodd" d="M25.8807 88.5451L26.8369 89.6549C25.6161 90.5684 24.4208 90.9782 23.2512 90.9014C22.0901 90.8245 21.04 90.2525 20.1265 89.1939C19.5801 88.5621 19.1789 87.9048 18.9313 87.2218C18.6837 86.5388 18.5898 85.8217 18.6496 85.0704C18.7008 84.2423 18.9228 83.4654 19.2984 82.7397C19.6741 82.014 20.1948 81.3652 20.8607 80.7846C21.5267 80.2041 22.2353 79.7858 22.978 79.5296C23.7293 79.2735 24.5147 79.1711 25.3514 79.2308C26.1112 79.2821 26.8113 79.4699 27.4516 79.7943C28.0919 80.1187 28.6639 80.5712 29.1676 81.1432C29.5689 81.6042 29.8677 82.0994 30.0811 82.6372C30.286 83.1751 30.4141 83.7642 30.4567 84.4215L31.4556 84.0117L32.2581 84.9423L28.7151 88.0072L27.8528 87.0169C28.5956 86.1973 29.0054 85.3777 29.0822 84.5581C29.1591 83.7386 28.9115 82.9873 28.3224 82.3043C27.6394 81.5103 26.7857 81.1688 25.7612 81.2627C24.7367 81.3652 23.6695 81.8945 22.5511 82.8677C21.484 83.7898 20.8607 84.7203 20.6729 85.6765C20.4766 86.6327 20.7412 87.5121 21.4413 88.3231C21.9877 88.9549 22.6365 89.2878 23.3963 89.322C24.1647 89.3647 24.9843 89.1 25.8807 88.5451ZM32.924 92.3698C32.1898 93.6504 31.891 94.8029 32.0362 95.836C32.1728 96.869 32.7362 97.6629 33.718 98.2264C34.6998 98.7899 35.6645 98.8753 36.6293 98.474C37.5854 98.0813 38.4392 97.2446 39.1734 95.9555C39.9076 94.6749 40.2064 93.5223 40.0698 92.4979C39.9332 91.4734 39.3697 90.6794 38.3879 90.1159C37.4062 89.5525 36.4329 89.4671 35.4767 89.8598C34.5034 90.2525 33.6583 91.0892 32.924 92.3698ZM30.5848 91.0294C31.4898 89.4586 32.7106 88.4853 34.2644 88.1011C35.8182 87.717 37.4147 87.9987 39.0453 88.9378C40.6845 89.8769 41.7261 91.1148 42.17 92.6515C42.6139 94.1797 42.392 95.7335 41.487 97.3044C40.5821 98.8752 39.3527 99.857 37.7989 100.241C36.2451 100.634 34.6571 100.352 33.018 99.4131C31.3788 98.474 30.3372 97.2361 29.8933 95.6908C29.4579 94.1456 29.6884 92.5918 30.5848 91.0294ZM43.536 103.528L43.7665 102.256L44.4239 102.376C44.919 102.461 45.2435 102.461 45.38 102.367C45.5166 102.273 45.6276 101.991 45.713 101.53L46.8912 94.9054C46.968 94.4529 46.968 94.1541 46.8655 94.0175C46.7631 93.8809 46.4643 93.7614 45.9691 93.676L45.3117 93.5565L45.5423 92.2844L56.0005 94.1456L55.1724 98.8069L53.8833 98.5764C53.9857 97.9959 54.0369 97.4837 54.0369 97.0653C54.0369 96.6385 53.9772 96.2714 53.8747 95.9469C53.7637 95.6225 53.5332 95.3579 53.1832 95.1615C52.8332 94.9651 52.2868 94.8029 51.5355 94.6663L49.4438 94.2907L48.8291 97.7398L49.1194 97.791C49.8195 97.9191 50.3061 97.8764 50.5708 97.6715C50.8354 97.4666 51.0659 96.9287 51.2794 96.0665L52.5514 96.2884L51.544 101.932L50.272 101.693C50.3915 100.719 50.3744 100.07 50.1951 99.7546C50.0244 99.4302 49.5975 99.2082 48.8974 99.0887L48.5901 99.0375L48.0693 101.949C47.9839 102.401 48.001 102.7 48.1035 102.845C48.2059 102.99 48.5047 103.101 49.0084 103.195L49.7939 103.332L49.5634 104.604L43.536 103.528ZM59.2106 105.355L58.9801 104.083L59.6374 103.963C60.1326 103.878 60.4314 103.759 60.5339 103.622C60.6363 103.485 60.6363 103.187 60.5595 102.726L59.3813 96.1006C59.3045 95.6481 59.1935 95.3664 59.0484 95.2725C58.9118 95.1786 58.5873 95.17 58.0922 95.264L57.4348 95.3835L57.2043 94.1114L67.6626 92.2503L68.4907 96.9117L67.2015 97.1422C67.0991 96.5616 66.971 96.0665 66.8174 95.6737C66.6722 95.2725 66.4929 94.9481 66.2795 94.6834C66.0575 94.4102 65.7587 94.248 65.3575 94.1797C64.9648 94.1114 64.3927 94.1456 63.6415 94.2822L61.5498 94.6578L62.1645 98.1154L62.4548 98.0642C63.1548 97.9361 63.5988 97.7312 63.7695 97.4495C63.9403 97.1678 63.983 96.5872 63.8805 95.6994L65.1526 95.4603L66.16 101.103L64.8879 101.325C64.6659 100.369 64.4184 99.7717 64.1537 99.5326C63.8805 99.2936 63.4024 99.2338 62.7109 99.3533L62.4035 99.4046L62.9243 102.316C63.0012 102.768 63.1207 103.05 63.2658 103.144C63.411 103.246 63.7354 103.246 64.2391 103.161L65.0245 103.024L65.255 104.296L59.2106 105.355ZM74.6973 102.06L74.057 100.941L74.629 100.608C75.0644 100.361 75.312 100.147 75.3547 99.9851C75.3974 99.8229 75.3035 99.5326 75.073 99.1314L71.7263 93.3004C71.4958 92.8991 71.2995 92.6771 71.1373 92.6345C70.9751 92.5918 70.6677 92.6942 70.2323 92.9503L69.6603 93.2833L69.02 92.1564L78.7697 86.5559L81.0321 90.5001L79.9137 91.1404C79.2392 90.0306 78.616 89.3817 78.0696 89.2024C77.5147 89.0232 76.7207 89.2281 75.6877 89.8257L73.3058 91.1916L75.0559 94.2309L75.6194 93.9065C76.2426 93.548 76.5841 93.2065 76.6524 92.882C76.7207 92.5576 76.5585 91.9942 76.1658 91.2002L77.2842 90.5513L80.1356 95.5201L79.0087 96.1604C78.4794 95.3408 78.044 94.8542 77.711 94.7176C77.3781 94.581 76.9 94.692 76.2853 95.042L75.7133 95.3749L77.711 98.8582L80.3064 97.3641C81.1687 96.869 81.6553 96.3226 81.7407 95.7335C81.8346 95.1444 81.5614 94.2053 80.9382 92.9162L82.0565 92.2673L84.4641 96.4592L74.6973 102.06ZM88.9889 93.1467L88.0071 92.3015L88.4425 91.7978C88.7755 91.4136 88.9377 91.1404 88.9206 90.9697C88.912 90.7989 88.7242 90.5599 88.3742 90.2525L83.2945 85.8473C82.9444 85.5485 82.6883 85.3948 82.5176 85.4119C82.3468 85.4289 82.0992 85.6253 81.7663 86.0095L81.3309 86.5132L80.3491 85.668L87.7083 77.1733L91.1403 80.1529L90.2951 81.1261C89.2877 80.298 88.4937 79.8967 87.9132 79.9053C87.3326 79.9138 86.6496 80.3748 85.8642 81.2798L84.0714 83.3544L86.7179 85.6509L87.1448 85.1643C87.6144 84.6264 87.8278 84.191 87.7851 83.8581C87.7424 83.5337 87.4095 83.0556 86.7692 82.4238L87.6144 81.442L91.9428 85.1984L91.0891 86.1717C90.3122 85.5655 89.7487 85.2582 89.3901 85.2411C89.0316 85.2241 88.6132 85.4802 88.1522 86.018L87.7168 86.5217L90.7561 89.1512L92.7197 86.8888C93.3771 86.1375 93.6503 85.4631 93.5393 84.8826C93.4369 84.302 92.8734 83.4995 91.8489 82.4836L92.6941 81.5018L96.3481 84.6691L88.9889 93.1467Z" fill="white"/>
<path fill-rule="evenodd" clip-rule="evenodd" d="M95.3407 52.5771H102.247V53.465H95.3407V52.5771ZM95.3407 57.7935H102.247V58.6814H95.3407V57.7935ZM91.9087 54.7286H105.68V56.5214H91.9087V54.7286Z" fill="white"/>
</svg>
