<svg width="130" height="32" viewBox="0 0 130 32" fill="none" xmlns="http://www.w3.org/2000/svg">
<path fill-rule="evenodd" clip-rule="evenodd" d="M11.5541 0C9.14424 0 6.27222 2.28571 3.92839 6.13878C1.48553 10.1551 0 15.0857 0 19.3633C0 25.6653 3.56526 32 11.5541 32C19.5429 32 23.1082 25.6653 23.1082 19.3633C23.1082 15.0857 21.6557 10.1224 19.2128 6.13878C16.836 2.28571 13.9639 0 11.5541 0ZM73.9462 9.43673H82.034V30.302H90.7161V9.43673H98.804V1.73061H73.9462V9.43673ZM117.257 9.43673H129.967V1.73061H117.257C105.604 1.73061 99.3652 7.4449 99.3652 16C99.3652 24.5551 105.604 30.302 117.29 30.302H130V22.5633H117.29C111.877 22.5633 108.344 20.6367 108.344 16C108.344 11.3633 111.877 9.43673 117.257 9.43673ZM56.3179 1.73061L51.6963 18.7755L47.0747 1.73061H31.7902V30.302H40.4393V7.05306L46.7445 30.302H56.6811L62.9863 7.05306V30.302H71.6353V1.73061H56.3179Z" fill="white"/>
</svg>
