<svg width="31" height="32" viewBox="0 0 31 32" fill="none" xmlns="http://www.w3.org/2000/svg">
<path d="M16.2153 7.63062C11.4224 7.63062 9.00555 11.0667 9.00555 13.9326C9.00555 15.6676 9.66243 17.211 11.0711 17.7857C11.3021 17.8809 11.5092 17.7892 11.5762 17.5334C11.6228 17.357 11.7332 16.9104 11.7823 16.7238C11.8496 16.4709 11.8235 16.3827 11.6369 16.1615C11.2309 15.6828 10.9709 15.0626 10.9709 14.1835C10.9709 11.6343 12.8783 9.35217 15.9376 9.35217C18.6466 9.35217 20.135 11.0074 20.135 13.2175C20.135 16.1265 18.8477 18.5815 16.937 18.5815C15.8815 18.5815 15.092 17.7091 15.3446 16.6384C15.6476 15.3603 16.235 13.9817 16.235 13.0584C16.235 12.2329 15.7916 11.5443 14.8747 11.5443C13.7959 11.5443 12.9291 12.6605 12.9291 14.1552C12.9291 15.1074 13.2509 15.7515 13.2509 15.7515C13.2509 15.7515 12.147 20.4294 11.9534 21.2485C11.5681 22.8801 11.8955 24.8797 11.9234 25.0814C11.9396 25.2014 12.0934 25.2303 12.1633 25.14C12.2624 25.0098 13.5479 23.4237 13.9843 21.8384C14.1081 21.39 14.6937 19.0659 14.6937 19.0659C15.0444 19.7348 16.0689 20.3225 17.1582 20.3225C20.4006 20.3225 22.6009 17.3666 22.6009 13.4098C22.6012 10.4172 20.0669 7.63062 16.2153 7.63062Z" fill="black"/>
<path d="M29.5833 1.44434H1.09729V30.6109H29.5833V1.44434Z" stroke="black" stroke-miterlimit="10"/>
</svg>
