<?xml version="1.0" encoding="utf-8"?>
<!-- Generator: Adobe Illustrator 17.1.0, SVG Export Plug-In . SVG Version: 6.00 Build 0)  -->
<!DOCTYPE svg PUBLIC "-//W3C//DTD SVG 1.1//EN" "http://www.w3.org/Graphics/SVG/1.1/DTD/svg11.dtd">
<svg version="1.1" id="Слой_1" xmlns="http://www.w3.org/2000/svg" xmlns:xlink="http://www.w3.org/1999/xlink" x="0px" y="0px"
	 viewBox="136 0 104.3 30" enable-background="new 136 0 104.3 30" xml:space="preserve">
<path fill="#F9C869" d="M156,16.1c0,0-1.7-11.8,16.9-13.4c0,0-0.5,0.9-1.7,4c-1.9,5-3.9,7.2-11.7,9.2c-1.4,0.3-3.7,1.1-3,5.1
	c0,0-2.8-8.4,8.2-14.1C164.7,6.7,156.5,9.3,156,16.1z"/>
<path fill="#F9C869" d="M137.5,8.8c0,0,0.5,1.7,2.2,4.2c2.2,3.1,5.8,3.4,8.4,3.3c4.4-0.2,5.1,2,5.1,2s-0.5-4-8.1-6.8
	c0,0,9.2,1.6,8.9,8.5C154,21.6,157.4,6.4,137.5,8.8z"/>
<path fill="#F9C869" d="M153.4,21c0,0,0.3,2.3-2.2,4.7c0,0,3-1.6,2.8-4.8c0,0,1.6,7.8-6.2,8.1c0,0,0.2,0,1.6-4
	C150.6,21.7,153.4,21,153.4,21z"/>
<path fill="#F9C869" d="M157.3,20.2c0,0,0.5,3.6,3.9,5c0,0-3.6-0.5-4.7-3.9c0,0,0.9,8.4,9.2,6.1c0,0-1.2-1.2-3.3-4.2
	C160.4,20,157.3,20.2,157.3,20.2z"/>
<circle fill="#F9C869" cx="154.2" cy="10.7" r="1.4"/>
<g enable-background="new    ">
	<path fill="#F9C869" d="M181.1,28.5c0,0-0.1-1.3,0-2.7s0.3-2.8,0.5-4.2c0.2-1.5,0.4-3,0.7-4.6s0.5-3.1,0.8-4.7c0,0,0-0.1,0-0.2
		c0-0.2-0.1-0.3-0.2-0.4c-0.1-0.1-0.2-0.1-0.4-0.1c-0.2,0-0.5,0-0.8,0.1c-0.3,0.1-0.6,0.2-0.8,0.3c-0.3,0.1-0.5,0.3-0.7,0.6
		c-0.2,0.2-0.4,0.5-0.5,0.9c-0.2,0.4-0.3,0.9-0.4,1.5c-0.1,0.6-0.2,1.2-0.2,1.8c-0.1,0.7-0.1,1.3-0.1,2c0,0.7,0,1.4,0,2
		c0,0.3-0.1,0.5-0.2,0.7c-0.1,0.1-0.2,0.2-0.4,0.2c-0.2,0-0.3-0.1-0.4-0.4c-0.1-0.3-0.2-0.6-0.2-1s-0.1-0.8-0.1-1.3
		c0-0.4,0-0.8,0-1.1c0-0.6,0-1.3,0-1.8c0-0.6,0-1.1,0-1.5c0-0.3-0.1-0.5-0.3-0.5c-0.1,0-0.2,0.1-0.3,0.2c-0.3,0.2-0.7,0.5-1.1,0.7
		s-0.7,0.5-1.1,0.7c-0.4,0.2-0.7,0.4-1.1,0.5c-0.4,0.1-0.7,0.2-0.9,0.2c-0.2,0-0.3,0-0.4-0.1s-0.2-0.1-0.2-0.2
		c0-0.2,0.2-0.5,0.7-0.9c0.5-0.4,1-0.8,1.6-1.2c0.6-0.4,1.2-0.8,1.7-1.1c0.6-0.3,1-0.6,1.2-0.7c0.5-0.3,0.7-0.7,0.9-1.1
		c0.1-0.4,0.2-0.9,0.2-1.4V8.7c0-0.2,0-0.4,0-0.8s0.1-0.6,0.1-1c0.1-0.3,0.1-0.6,0.3-0.8c0.1-0.2,0.3-0.3,0.4-0.3
		c0.2,0,0.3,0.2,0.4,0.7c0.1,0.5,0.1,1,0.2,1.6c0,0.6,0.1,1.1,0.2,1.6c0.1,0.5,0.2,0.7,0.4,0.7c0.1,0,0.4-0.1,0.7-0.2
		c0.4-0.1,0.8-0.2,1.2-0.4c0.4-0.2,0.8-0.3,1.2-0.5c0.4-0.2,0.6-0.3,0.6-0.5c0.1-0.2,0.2-0.7,0.4-1.3s0.4-1.3,0.5-2.1
		c0.2-0.7,0.4-1.4,0.5-2.1c0.2-0.7,0.3-1.2,0.4-1.5c0.1-0.2,0.2-0.4,0.4-0.6c0.2-0.2,0.4-0.3,0.6-0.3c0.1,0,0.2,0.1,0.2,0.3
		c0,0.2-0.1,0.5-0.2,0.9c-0.1,0.4-0.2,0.7-0.3,1c-0.2,0.8-0.4,1.6-0.7,2.5s-0.4,1.8-0.5,2.6c0,0.4,0.2,0.5,0.5,0.5
		c0.2,0,0.3,0,0.4,0h0c1-0.2,2.1-0.3,3.3-0.4c1.2-0.1,2.4-0.2,3.5-0.2c0.4,0,0.7,0,0.9,0.1c0.3,0,0.4,0.2,0.4,0.4
		c0,0.1-0.2,0.2-0.6,0.3s-0.9,0.2-1.4,0.2c-0.5,0.1-1,0.1-1.5,0.2c-0.5,0-0.8,0.1-1,0.1c-0.7,0.1-1.3,0.2-1.8,0.3
		c-0.5,0.1-1,0.1-1.6,0.2c-0.7,0.1-1.2,0.3-1.5,0.7c-0.3,0.4-0.5,0.7-0.5,1c-0.3,1.4-0.6,2.9-0.9,4.5c-0.3,1.6-0.5,3.1-0.8,4.7
		c-0.2,1.5-0.4,3-0.6,4.5c-0.1,1.2-0.3,3-0.8,3.3c-0.5,0.3-0.5,1-0.5,1"/>
	<path fill="#F9C869" d="M186.5,20.6c0-0.1,0-0.2,0-0.3c0-0.1,0-0.2,0-0.3c0-0.8,0.3-1.6,0.8-2.3s1.2-1.3,2-1.9c0-0.1,0-0.2-0.1-0.3
		c0-0.1,0-0.2,0-0.3c0-0.2,0.1-0.3,0.2-0.4c0.1-0.1,0.3-0.2,0.6-0.2c0.4,0,0.8,0.2,1,0.6c0.2,0.4,0.4,0.8,0.6,1.3
		c0.2,0.5,0.3,1,0.5,1.5c0.1,0.5,0.4,0.9,0.6,1.2c0.1,0.1,0.2,0.2,0.4,0.3c0.2,0.1,0.4,0.3,0.6,0.4s0.4,0.3,0.5,0.4
		c0.1,0.1,0.2,0.2,0.2,0.3c0,0.2-0.1,0.4-0.4,0.5s-0.5,0.1-0.7,0.1c-0.3,0-0.6,0-0.8-0.1s-0.4-0.2-0.5-0.4c-0.1-0.1-0.3-0.3-0.4-0.5
		c-0.1-0.2-0.3-0.4-0.4-0.5c-0.5,0.4-1,0.8-1.5,1.2c-0.5,0.4-1,0.5-1.6,0.5c-0.3,0-0.6-0.1-0.9-0.3C186.7,21,186.5,20.8,186.5,20.6z
		 M190.3,18.2c0-0.3-0.1-0.7-0.2-1c-0.2-0.3-0.3-0.6-0.5-0.9c-0.2,0-0.4,0.1-0.6,0.4s-0.4,0.5-0.6,0.9c-0.2,0.3-0.3,0.7-0.4,1
		c-0.1,0.3-0.2,0.6-0.2,0.7c0,0,0,0.1,0,0.2c0,0.1,0,0.2,0.1,0.3c0,0.1,0.1,0.2,0.1,0.2s0.1,0.1,0.2,0.1c0.2,0,0.5-0.1,0.7-0.2
		c0.2-0.2,0.5-0.3,0.7-0.6c0.2-0.2,0.4-0.4,0.5-0.7C190.2,18.5,190.3,18.4,190.3,18.2z"/>
	<path fill="#F9C869" d="M194,29.5c0.3-0.5,0.2-1.1,0.8-1.6c0.5-0.5,1.1-1.1,1.7-1.6c0.6-0.5,1.2-1,1.7-1.5c0.5-0.5,1-1,1.4-1.5
		c0.4-0.5,0.6-0.9,0.7-1.3c0-0.2-0.1-0.3-0.2-0.4s-0.3-0.1-0.5-0.1s-0.3,0-0.4,0c-0.1,0-0.2,0-0.4,0c-0.1,0-0.3,0-0.4,0
		c-0.2,0-0.4,0-0.6,0c-0.3,0-0.7,0-1.1-0.1c-0.4,0-0.8-0.1-1.1-0.2c-0.3-0.1-0.6-0.3-0.9-0.5c-0.2-0.2-0.3-0.5-0.3-0.8
		c0-0.3,0.2-0.6,0.6-0.9s0.9-0.6,1.4-0.8s1-0.5,1.4-0.8c0.4-0.3,0.6-0.6,0.6-0.9c0-0.1-0.1-0.2-0.2-0.3c-0.1-0.1-0.2-0.1-0.4-0.2
		c-0.1,0-0.3-0.1-0.5-0.1c-0.2,0-0.3,0-0.4,0c-0.2,0-0.4,0-0.7,0c-0.3,0-0.5,0-0.7,0.1l-0.6,0.1c-0.2,0-0.3,0-0.3-0.1v-0.3
		c0-0.2,0.2-0.4,0.5-0.5s0.7-0.3,1-0.3c0.4-0.1,0.9-0.1,1.5-0.2c0.6,0,1.1,0.1,1.6,0.4c0.4,0.3,0.7,0.7,0.7,1.2
		c0,0.4-0.2,0.7-0.5,1.1c-0.4,0.3-0.8,0.6-1.2,0.9s-0.8,0.5-1.2,0.7c-0.4,0.2-0.5,0.4-0.5,0.5c0,0.2,0.1,0.3,0.3,0.4
		c0.2,0.1,0.4,0.2,0.7,0.2c0.3,0.1,0.6,0.1,1,0.1c0.4,0,0.7,0,1,0h0.7c0.5,0,1,0.1,1.3,0.2c0.4,0.2,0.5,0.5,0.5,1
		c0,0.3-0.1,0.7-0.3,1s-0.5,0.7-0.8,1.1c-0.3,0.4-0.7,0.7-1.1,1.1c-0.4,0.4-0.9,0.8-1.3,1.2v0l-0.2,0.2c-0.5,0.4-0.9,0.8-1.4,1.2
		c-0.4,0.4-0.8,0.8-1.2,1.2S194.2,29.1,194,29.5"/>
	<path fill="#F9C869" d="M207,4.9c0.2,0.8,0.4,1.5,0.5,2.2s0.2,1.3,0.2,1.9c0,0.7-0.1,1.3-0.2,1.9s-0.3,1.2-0.6,1.8s-0.6,1.2-1,1.8
		c-0.4,0.6-0.9,1.3-1.5,2c0,0.3,0.1,0.6,0.1,0.9c0,0.3,0.1,0.7,0.2,1c0.1,0.3,0.2,0.6,0.3,0.8s0.3,0.4,0.4,0.5
		c0.1,0,0.2-0.1,0.3-0.1c0,0,0,0,0.1,0c0,0,0,0,0.1,0c0.3-0.1,0.5-0.4,0.6-0.8c0.1-0.4,0.2-0.8,0.2-1c0-0.4-0.1-0.7-0.2-0.8
		c-0.1-0.2-0.3-0.3-0.4-0.3s-0.3-0.1-0.4-0.2s-0.2-0.2-0.2-0.5c0-0.3,0.1-0.5,0.3-0.7c0.2-0.2,0.4-0.3,0.7-0.4
		c0.2,0,0.4,0.1,0.6,0.2c0.2,0.2,0.3,0.3,0.4,0.5c0.1,0.2,0.2,0.4,0.3,0.7c0.1,0.2,0.1,0.4,0.1,0.6v0.2c0,0.3,0,0.7-0.1,1.1
		c-0.1,0.5-0.2,0.9-0.3,1.4c-0.2,0.5-0.4,0.8-0.7,1.2c-0.3,0.3-0.6,0.5-1.1,0.5c-0.4,0-0.8-0.1-1.1-0.4s-0.5-0.6-0.7-1
		c-0.2-0.4-0.3-0.8-0.4-1.3c-0.1-0.4-0.2-0.9-0.2-1.2l0-0.1v0c0,0-0.1,0-0.2,0.1s-0.2,0.1-0.3,0.1c-0.1,0-0.2-0.1-0.2-0.4
		c0-0.2,0.1-0.3,0.2-0.4c0.2-0.1,0.2-0.2,0.3-0.2c0-0.5,0-1,0-1.5c0-0.4,0-1,0-1.7c0-0.4,0-1,0-1.6s0.1-1.4,0.2-2.3
		c0-0.2,0.1-0.5,0.1-1c0.1-0.4,0.1-0.9,0.2-1.4c0.1-0.5,0.2-1,0.4-1.5c0.1-0.5,0.3-1,0.5-1.4c0.2-0.4,0.4-0.8,0.6-1.1
		c0.2-0.3,0.5-0.4,0.7-0.4c0.1,0,0.3,0.1,0.4,0.2c0.1,0.2,0.3,0.4,0.4,0.6c0.1,0.2,0.2,0.5,0.3,0.7C206.9,4.5,207,4.7,207,4.9z
		 M206.6,6.7c-0.1-0.4-0.2-0.7-0.3-0.9c-0.1-0.2-0.2-0.5-0.4-0.9c-0.5,1.6-0.9,3.1-1.2,4.5c-0.3,1.4-0.5,2.9-0.5,4.6
		c0,0.3,0,0.6,0,0.8c0,0.3,0,0.5,0,0.8c0.9-1,1.6-2,2-3.1c0.4-1.1,0.6-2.2,0.6-3.4C206.9,8.4,206.8,7.6,206.6,6.7z"/>
	<path fill="#F9C869" d="M209.3,20.6c0-0.1,0-0.2,0-0.3c0-0.1,0-0.2,0-0.3c0-0.8,0.3-1.6,0.8-2.3s1.2-1.3,2-1.9c0-0.1,0-0.2-0.1-0.3
		c0-0.1,0-0.2,0-0.3c0-0.2,0.1-0.3,0.2-0.4c0.1-0.1,0.3-0.2,0.6-0.2c0.4,0,0.8,0.2,1,0.6c0.2,0.4,0.4,0.8,0.6,1.3
		c0.2,0.5,0.3,1,0.5,1.5c0.1,0.5,0.4,0.9,0.6,1.2c0.1,0.1,0.2,0.2,0.4,0.3c0.2,0.1,0.4,0.3,0.6,0.4s0.4,0.3,0.5,0.4
		c0.1,0.1,0.2,0.2,0.2,0.3c0,0.2-0.1,0.4-0.4,0.5s-0.5,0.1-0.7,0.1c-0.3,0-0.6,0-0.8-0.1s-0.4-0.2-0.5-0.4c-0.1-0.1-0.3-0.3-0.4-0.5
		c-0.1-0.2-0.3-0.4-0.4-0.5c-0.5,0.4-1,0.8-1.5,1.2c-0.5,0.4-1,0.5-1.6,0.5c-0.3,0-0.6-0.1-0.9-0.3C209.4,21,209.3,20.8,209.3,20.6z
		 M213.1,18.2c0-0.3-0.1-0.7-0.2-1c-0.2-0.3-0.3-0.6-0.5-0.9c-0.2,0-0.4,0.1-0.6,0.4s-0.4,0.5-0.6,0.9c-0.2,0.3-0.3,0.7-0.4,1
		c-0.1,0.3-0.2,0.6-0.2,0.7c0,0,0,0.1,0,0.2c0,0.1,0,0.2,0.1,0.3c0,0.1,0.1,0.2,0.1,0.2s0.1,0.1,0.2,0.1c0.2,0,0.5-0.1,0.7-0.2
		c0.2-0.2,0.5-0.3,0.7-0.6c0.2-0.2,0.4-0.4,0.5-0.7C213,18.5,213.1,18.4,213.1,18.2z"/>
	<path fill="#F9C869" d="M221.4,18.7c-0.8,0-1.2,0.4-1.2,1.2c0,0.4,0,0.6,0.1,0.8c0.1,0.2,0.1,0.4,0.1,0.6c0,0.2-0.2,0.3-0.5,0.3
		c-0.2,0-0.4-0.1-0.5-0.2s-0.2-0.3-0.3-0.5c-0.1-0.2-0.1-0.4-0.1-0.6s0-0.4,0-0.6v-0.6c0-0.1,0-0.2-0.1-0.2c-0.1,0-0.2,0-0.3,0
		c-0.4,0-0.6,0-0.8,0.1c-0.1,0-0.3,0-0.6,0c-0.3,0-0.4-0.1-0.4-0.2c0-0.2,0.1-0.3,0.3-0.4s0.5-0.2,0.8-0.3c0.3-0.1,0.5-0.2,0.8-0.3
		c0.2-0.1,0.4-0.3,0.4-0.5v-0.2c0-0.2,0-0.4-0.1-0.7c-0.1-0.2-0.2-0.3-0.6-0.3c-0.1,0-0.2,0-0.3,0.1c-0.1,0.1-0.2,0.1-0.4,0.1
		c-0.2,0-0.4-0.1-0.4-0.3c0-0.1,0.1-0.2,0.2-0.4c0.2-0.2,0.3-0.3,0.6-0.5c0.2-0.2,0.4-0.3,0.7-0.4s0.4-0.2,0.5-0.2
		c0.2,0,0.4,0.1,0.6,0.2c0.2,0.1,0.3,0.3,0.4,0.4c0.1,0.2,0.1,0.3,0.2,0.5c0,0.2,0,0.3,0,0.5v0.6c0,0.5,0.1,0.8,0.2,0.9
		c0.1,0.1,0.3,0.1,0.6,0.1c0.4,0,0.7-0.1,0.9-0.4c0.2-0.2,0.3-0.7,0.4-1.3c0-0.4,0.2-0.8,0.4-1.2c0.2-0.4,0.4-0.6,0.7-0.6h0
		c0.1,0,0.2,0,0.3,0.1c0.1,0.1,0.2,0.2,0.2,0.3l-0.3,1.9c-0.1,0.3-0.1,0.7-0.2,1.3c-0.1,0.5-0.1,1.1-0.1,1.8c0,0.5,0,1,0.1,1.6
		c0,0.1,0.1,0.2,0.2,0.3c0.1,0.1,0.1,0.2,0.1,0.3c0,0.1,0,0.2-0.1,0.4s-0.2,0.3-0.4,0.3c-0.4,0-0.7-0.1-0.9-0.4
		c-0.1-0.2-0.2-0.6-0.2-0.9v-0.5c0-0.3,0-0.5,0-0.8c0-0.2-0.1-0.5-0.1-0.7c-0.1-0.2-0.2-0.3-0.3-0.4S221.7,18.7,221.4,18.7z"/>
	<path fill="#F9C869" d="M226.4,20.5c-0.2-0.2-0.3-0.5-0.5-0.8c-0.2-0.3-0.3-0.7-0.4-1c-0.1-0.4-0.2-0.7-0.3-1.1
		c-0.1-0.4-0.1-0.7-0.1-1.1c0-0.2,0-0.5,0-0.8c0-0.3,0.1-0.6,0.1-0.9c0.1-0.3,0.2-0.5,0.4-0.7c0.2-0.2,0.4-0.3,0.7-0.3
		c0.1,0,0.3,0.1,0.3,0.4c0.1,0.3,0.1,0.6,0.2,1c0,0.4,0.1,0.8,0.1,1.3c0,0.5,0.1,0.9,0.2,1.3c0.1,0.4,0.2,0.7,0.4,1
		c0.2,0.3,0.4,0.4,0.7,0.4c0.4,0,0.6-0.2,0.8-0.6c0.2-0.4,0.3-0.8,0.4-1.3c0.1-0.5,0.2-0.9,0.4-1.3c0.1-0.4,0.4-0.6,0.7-0.6
		c0.3,0,0.6,0.1,0.8,0.3c0.2,0.2,0.4,0.4,0.5,0.7c0.1,0.3,0.3,0.5,0.4,0.8c0.1,0.3,0.2,0.6,0.3,0.8c0.1,0.2,0.3,0.6,0.4,0.9
		s0.2,0.7,0.2,1c0,0.4-0.2,0.5-0.5,0.5c-0.2,0-0.3-0.1-0.5-0.2c-0.1-0.1-0.3-0.3-0.4-0.5c-0.1-0.2-0.3-0.4-0.4-0.5
		c-0.1-0.1-0.3-0.2-0.4-0.2l-0.1,0c-0.2,0.1-0.4,0.3-0.5,0.6c-0.1,0.3-0.3,0.5-0.4,0.8c-0.1,0.3-0.3,0.5-0.5,0.7
		c-0.2,0.2-0.5,0.3-0.8,0.3c-0.4,0-0.8-0.1-1.1-0.2C227,21.2,226.7,21,226.4,20.5z"/>
	<path fill="#F9C869" d="M233.8,18.7c0-0.3,0-0.7,0.1-1.2s0.3-0.9,0.5-1.4c0.2-0.4,0.5-0.8,0.9-1.1c0.4-0.3,0.9-0.5,1.5-0.5
		c0.7,0,1.3,0.1,1.6,0.4s0.5,0.7,0.5,1.1c0,0.4-0.1,0.8-0.2,1c-0.1,0.2-0.3,0.4-0.5,0.5c-0.2,0.1-0.5,0.2-0.8,0.2c-0.3,0-0.6,0-1,0
		h-0.8c-0.2,0-0.4,0.1-0.5,0.2c-0.1,0.1-0.2,0.4-0.2,0.7c0,0.3,0,0.6,0.1,0.8c0.1,0.2,0.2,0.3,0.4,0.3c0.2,0,0.5-0.1,0.9-0.3
		c0.4-0.2,0.7-0.3,1-0.3c0.1,0,0.2,0,0.3,0c0.2,0,0.3,0.1,0.5,0.3s0.2,0.3,0.2,0.5c0,0.1,0,0.2,0,0.2c0,0.1-0.1,0.1-0.2,0.2
		s-0.2,0.1-0.3,0.2l-0.3,0.2c-0.4,0.3-0.8,0.5-1.2,0.6c-0.4,0.1-0.8,0.2-1.1,0.2c-0.1,0-0.2,0-0.3,0c-0.4-0.1-0.7-0.5-1-1
		C234,19.9,233.8,19.3,233.8,18.7z M237.7,16.3c0-0.1-0.1-0.2-0.2-0.4s-0.3-0.3-0.6-0.3c-0.4,0-0.8,0.1-1,0.4
		c-0.2,0.3-0.4,0.6-0.4,1c0.3,0,0.5,0,0.8,0c0.3,0,0.5,0,0.7-0.1c0.2,0,0.4-0.1,0.5-0.2S237.7,16.5,237.7,16.3z"/>
</g>
</svg>
