<?xml version="1.0" encoding="utf-8"?>
<!-- Generator: Adobe Illustrator 17.1.0, SVG Export Plug-In . SVG Version: 6.00 Build 0)  -->
<!DOCTYPE svg PUBLIC "-//W3C//DTD SVG 1.1//EN" "http://www.w3.org/Graphics/SVG/1.1/DTD/svg11.dtd">
<svg version="1.1" id="Слой_1" xmlns="http://www.w3.org/2000/svg" xmlns:xlink="http://www.w3.org/1999/xlink" x="0px" y="0px"
	 viewBox="0 0 771 300" enable-background="new 0 0 771 300" xml:space="preserve">
<path fill="#FFFFFF" d="M131.4,156.8c0,0-11-76.1,108.6-86.3c0,0-3.1,5.6-10.9,25.7c-12.4,31.8-25,46.1-75.3,58.7
	c-9.3,2.3-24,7.2-19.3,33.2c0,0-18.4-53.8,52.8-91.4C187.2,96.7,135,113.3,131.4,156.8z"/>
<path fill="#FFFFFF" d="M12.4,110.4c0,0,3.3,11.3,14.2,27c14.1,20.2,37,21.8,53.9,21.2c28.5-1.1,33,12.9,33,12.9s-3-25.7-51.6-44.1
	c0,0,58.6,10.4,56.8,54.5C118.3,192.5,140.9,94.2,12.4,110.4z"/>
<path fill="#FFFFFF" d="M114.9,188.6c0,0,1.8,15.3-13.9,30.1c0,0,19.2-10.3,18.2-31.4c0,0,9.5,50-39.6,51.9c0,0,1.3,0.5,10.2-25.8
	C96.7,193.3,114.9,188.6,114.9,188.6z"/>
<path fill="#FFFFFF" d="M140,182.9c0,0,3.5,22.6,24.9,31.6c0,0-23.2-3.2-30.2-24.8c0,0,5.6,53.9,59.3,38.9c0,0-8.4-7.6-21.5-27.3
	C159.8,182.4,140,182.9,140,182.9z"/>
<circle fill="#FFFFFF" cx="119.8" cy="121.8" r="9.3"/>
<g>
	<path fill="#FFFFFF" d="M268.2,149.2c-2.6-0.1-4.9-0.6-7.2-1.7c-2.2-1-4.2-2.4-5.8-4.2c-1.6-1.7-2.9-3.8-3.9-6.2
		c-0.9-2.4-1.4-5-1.4-7.8c0-2.9,0.5-5.5,1.5-8c1-2.5,2.2-4.8,3.8-6.9c1.6-2.1,3.4-3.9,5.5-5.5c2.1-1.6,4.3-2.9,6.6-4
		c4.8-2.2,9.8-3.6,15.2-4.3c5.4-0.6,10.7-0.6,15.8,0.1c5,0.6,9.7,2.3,14.1,5c4.4,2.7,7.8,6.5,10.2,11.5c1.6,3.2,2.6,6.6,3.1,10.1
		c0.4,3.5,0.4,7-0.1,10.5c-0.5,3.5-1.5,6.8-2.9,10.1c-1.4,3.3-3.2,6.3-5.3,8.9c-3.7,4.5-8,8-12.8,10.4c-4.8,2.5-9.9,4.2-15.3,5.1
		c2.9,0.6,5.6,1.7,8,3.2c2.4,1.5,4.2,4,5.2,7.4c0.8,2.6,0.9,5.2,0.4,7.8c-0.5,2.5-1.5,4.9-2.9,7.1c-1.4,2.2-3.1,4.1-5.1,5.7
		c-2,1.6-4.1,2.9-6.3,3.9c-2.1,0.9-4.3,1.4-6.6,1.8c-2.3,0.3-4.6,0.4-7,0.3c-2.3-0.1-4.7-0.4-7-0.9c-2.3-0.5-4.5-1.1-6.6-1.9
		c-2.3-0.9-4.6-2.1-6.7-3.6c-2.1-1.5-3.9-3.3-5.4-5.4c-1.5-2-2.7-4.3-3.5-6.8c-0.8-2.5-1.2-5.1-1.1-7.9c0.1-2.7,0.7-5.2,1.8-7.4
		c0.3-0.2,0.6-0.4,0.9-0.5c0.3-0.1,0.6,0,0.9,0.4c0.3,0.4,0.3,0.9,0,1.4c-0.3,0.5-0.6,0.9-0.8,1.3c-1.1,2.3-1.6,4.7-1.5,7.3
		c0.2,2.6,0.7,5.1,1.7,7.3c1.1,2.4,2.5,4.5,4.3,6.2c1.8,1.7,3.8,3.1,6,4.2c2.2,1.1,4.5,1.8,6.9,2.2c2.4,0.4,4.9,0.6,7.3,0.4
		c2.3-0.1,4.5-0.5,6.7-1.2c2.2-0.7,4.2-1.7,6.2-2.9c1.9-1.3,3.7-2.8,5.3-4.5c1.6-1.7,3-3.7,4-5.9c0.5-1.1,1-2.4,1.4-3.6
		c0.4-1.3,0.6-2.6,0.6-3.8c0-1.2-0.1-2.5-0.5-3.7c-0.4-1.2-1.1-2.3-2.1-3.3c-0.7-0.8-1.6-1.4-2.6-1.9c-1-0.5-2-0.9-3-1.3
		c-1.2-0.4-2.3-0.5-3.3-0.5c-0.5-0.1-1.1-0.1-1.7,0.1c-0.6,0.1-1.1,0.1-1.7-0.1c-0.7-0.1-1.1-0.5-1-1.1c0-0.6,0.3-1,1-1v-0.1
		l0.3,0.1h1c1.4,0,2.8-0.1,4.2-0.3c1.4-0.2,2.8-0.4,4.1-0.8c4.7-1.3,9-3.6,13-7.1c3.8-3.4,6.9-7.5,9.1-12.3c2.2-4.9,3.7-9.9,4.4-15
		c0.6-5.3,0.1-10.4-1.5-15.4c-1.6-5-4.5-9.1-8.8-12.2c-2.1-1.6-4.4-2.8-6.8-3.6c-2.4-0.9-4.9-1.4-7.5-1.8c-2.6-0.3-5.2-0.4-7.7-0.3
		c-2.6,0.1-5.1,0.4-7.6,0.9c-2.9,0.5-5.8,1.3-8.7,2.4c-2.9,1.1-5.6,2.6-8.1,4.4c-2.5,1.8-4.5,4-6.3,6.6c-1.7,2.6-2.9,5.5-3.5,8.9
		c-0.5,3.2-0.4,6.4,0.5,9.5c0.9,3.1,2.5,5.7,4.8,7.9c1.1,1,2.4,1.8,3.7,2.5c1.3,0.6,2.7,1.1,4.1,1.4c0.5,0.1,0.9,0.1,1.3,0.2
		c0.4,0,0.8,0.1,1.2,0.1c0.3,0,0.7,0,1.1-0.1c0.4,0,0.7,0.1,1,0.4c0.3,0.4,0.4,0.7,0.3,1.2C269,149,268.7,149.2,268.2,149.2z
		 M290.2,119.7c-0.9,5.6-2.1,11-3.6,16.3c-1.5,5.3-3,10.7-4.6,16c-1.3,4.3-2.6,8.5-3.9,12.6c-1.3,4.1-2.7,8.2-4.1,12.4
		c-0.8,2.5-1.7,4.9-2.6,7.3c-0.9,2.4-1.9,4.8-3,7.1c-0.2,0.4-0.4,0.9-0.7,1.5c-0.2,0.6-0.5,1.1-0.8,1.7c-0.3,0.5-0.6,1-1,1.4
		c-0.4,0.4-0.8,0.6-1.3,0.6c-0.7,0.1-1.3-0.1-1.6-0.4c-0.3-0.4-0.5-0.8-0.6-1.3c-0.1-0.5-0.1-1.1,0-1.8c0.1-0.6,0.1-1.2,0.2-1.6
		c0.6-4,1.4-7.9,2.4-11.7c1-3.8,2-7.7,3.1-11.5c1.5-5.4,3.2-10.7,4.9-15.9c1.7-5.2,3.4-10.5,5.2-15.8c0.8-2.4,1.6-4.7,2.5-7
		c0.9-2.3,1.8-4.6,2.7-6.9c0.3-0.9,0.7-2,1.2-3.3c0.5-1.3,1.2-2.1,2.1-2.6c0.9-0.4,1.8-0.2,2.6,0.4
		C290,117.8,290.3,118.6,290.2,119.7z"/>
	<path fill="#FFFFFF" d="M374.2,173.6c-1,2.3-2.1,4.5-3.2,6.6c-1.1,2.1-2.4,4.2-3.8,6.1c-1.4,1.9-3,3.7-4.7,5.3
		c-1.7,1.6-3.6,3-5.8,4.1c-2,1.1-4.1,2-6.3,2.5c-2.2,0.5-4.4,0.7-6.6,0.6c-2.3-0.1-4.4-0.8-6.1-2.2c-1.7-1.4-3.2-3.2-4.2-5.4
		c-1.2-2.4-2-5-2.3-7.7c-0.3-2.7-0.4-5.5-0.1-8.2c0.3-2.8,0.9-5.5,1.7-8.2c0.8-2.7,1.8-5.2,3-7.4c1.1-2,2.3-4,3.8-6.1
		c1.5-2,3.1-3.9,5-5.5c1.8-1.6,3.8-2.9,6-3.9c2.1-1,4.4-1.4,6.7-1.4c2.2,0,4.1,0.6,5.7,1.8c1.6,1.2,2.8,2.7,3.7,4.6
		c0.9,1.8,1.5,3.8,1.7,6c0.2,2.2,0,4.3-0.5,6.3c-0.5,2.1-1.3,4.1-2.4,6.1c-1,2-2.3,3.8-3.8,5.4c-1.5,1.6-3.1,2.9-4.9,3.9
		c-1.8,1-3.8,1.6-5.9,1.7c-2.1,0.1-4.1-0.2-6-1.1c-1.9-0.9-3.4-2.2-4.6-4c-0.5,2.1-1,4.1-1.3,6.2c-0.3,2.1-0.5,4.2-0.6,6.3
		c0,1.1,0.1,2.3,0.2,3.4c0.1,1.1,0.4,2.2,0.9,3.2c0.4,1,1,1.8,1.8,2.5c0.7,0.7,1.7,1.2,2.8,1.5c2.3,0.6,4.6,0.5,6.8-0.1
		c2.3-0.6,4.4-1.7,6.4-3.1c2-1.4,3.9-3,5.6-4.9c1.7-1.9,3.2-3.8,4.4-5.6c0.9-1.5,1.8-3,2.6-4.6c0.8-1.6,1.5-3.2,2.2-4.8
		c0.2-0.6,0.5-1.2,0.9-1.8c0.4-0.6,0.9-0.7,1.7-0.4c0.4,0.1,0.5,0.4,0.4,0.9C374.6,172.7,374.4,173.2,374.2,173.6z M349.1,174.9
		c2.3-0.4,4.4-1.4,6.1-3.2c1.7-1.8,3.1-3.7,4.2-5.8c0.6-1.1,1.1-2.3,1.6-3.4c0.4-1.1,0.9-2.3,1.3-3.5c0.4-1.2,0.8-2.5,1.2-3.7
		c0.4-1.3,0.6-2.6,0.6-3.9c0-1.9-0.6-3.5-1.8-4.7c-1.2-1.2-2.7-1.7-4.6-1.6c-1.1,0.1-2.2,0.5-3.2,1.2c-1,0.6-1.9,1.4-2.7,2.4
		c-0.8,0.9-1.5,1.9-2.2,3c-0.6,1.1-1.2,2.1-1.8,3c-2.6,4.6-4.7,9.5-6.4,14.8l-0.2,0.5c0.6,1.6,1.6,2.8,3.1,3.7
		C345.8,174.7,347.4,175.1,349.1,174.9z"/>
	<path fill="#FFFFFF" d="M433.9,173.5c-1.2,2.3-2.4,4.6-3.7,6.9c-1.2,2.3-2.6,4.6-4.1,6.7c-1.5,2.2-3.1,4.2-4.7,6.1
		c-1.7,1.9-3.6,3.6-5.6,5c-0.7,0.6-1.5,1.1-2.3,1.4c-0.8,0.4-1.6,0.6-2.4,0.7c-0.8,0.1-1.5-0.1-2.3-0.4c-0.7-0.3-1.4-0.9-2.1-1.9
		c-0.7-0.9-1.3-2-1.8-3.2c-0.4-1.2-0.8-2.5-1-3.8c-0.2-1.3-0.3-2.6-0.4-4c0-1.3,0-2.6,0-3.8c0-0.5,0-1,0.1-1.4c0-0.5,0.1-1,0.1-1.6
		c-0.9,1.6-1.9,3.1-2.8,4.6c-0.9,1.5-1.9,2.9-2.9,4.3c-1.1,1.5-2.5,3.1-4.2,4.8c-1.7,1.7-3.5,3-5.4,4c-1.9,0.9-3.8,1.2-5.6,0.9
		c-1.8-0.3-3.5-1.8-4.9-4.3c-1.3-2.3-2.1-4.7-2.4-7.4c-0.3-2.6-0.3-5.3,0.1-8.1c0.3-2.7,0.9-5.4,1.7-8c0.8-2.6,1.6-5.1,2.6-7.3
		c0.9-2.1,2-4.4,3.3-6.6c1.3-2.3,2.7-4.4,4.4-6.3c1.6-1.9,3.5-3.6,5.5-4.9c2-1.4,4.2-2.2,6.6-2.7c2.6-0.4,4.9,0,6.9,1.3
		c2.1,1.3,3.5,3.3,4.2,5.9c0.1,0.6,0.2,1.1,0.3,1.7l0.2,1.7l1.2-2.1c0.5-0.9,1.1-1.8,1.8-2.9c0.7-1.1,1.5-2.1,2.4-3
		c0.9-0.9,1.8-1.7,2.8-2.3c1-0.6,2.1-0.9,3.2-0.8c0.9,0.1,1.2,0.5,1.1,1.2c-0.2,0.7-0.4,1.4-0.6,1.9c-0.4,1.1-0.8,2.1-1.3,3.2
		c-0.4,1-0.8,2.1-1.2,3.1c-1.1,3.1-2.1,6.1-3.1,9.2c-1,3-1.9,6.2-2.8,9.4l-1.6,5.8c-0.5,1.9-1,3.9-1.4,5.9c-0.2,1-0.4,2.1-0.7,3.2
		c-0.3,1.1-0.5,2.2-0.7,3.3c-0.2,1.1-0.3,2.2-0.4,3.3c-0.1,1.1,0,2.2,0.1,3.3c0.2,1.1,0.8,1.8,1.7,1.9c0.9,0.1,1.8-0.1,2.7-0.5
		c1.5-0.7,3-1.9,4.3-3.5c1.3-1.6,2.5-3.1,3.5-4.4c1.2-1.6,2.3-3.3,3.4-5.1c1.1-1.7,2.1-3.6,3-5.4c0.5-1,1.1-2,1.6-2.9
		c0.5-0.9,1-1.9,1.6-2.9c0.1-0.3,0.3-0.5,0.6-0.5c0.3-0.1,0.5,0,0.8,0.1c0.3,0.1,0.5,0.4,0.6,0.6C434,172.9,434,173.2,433.9,173.5z
		 M409.7,157.5c0.2-1,0.3-2.1,0.3-3.2c0-1.1-0.2-2.2-0.5-3.3c-0.3-1.1-0.7-2-1.3-2.9c-0.6-0.9-1.3-1.5-2.2-1.9
		c-1.9-0.9-3.8-0.9-5.4,0.1c-1.7,1-3.1,2.3-4.2,4c-1.4,2.1-2.7,4.4-3.8,6.8c-1.1,2.4-2.2,4.8-3.1,7.1c-1.1,2.6-2,5.2-2.9,7.8
		c-0.9,2.6-1.7,5.3-2.4,8c-0.3,1.2-0.6,2.4-0.9,3.6c-0.3,1.2-0.5,2.4-0.7,3.6c-0.3,1.2-0.5,2.5-0.7,4c-0.2,1.4,0.1,2.7,0.7,3.9
		c0.6,1.1,1.4,1.7,2.3,1.8c0.9,0.1,1.8-0.1,2.8-0.5c1-0.4,1.9-1,2.8-1.7c0.9-0.7,1.6-1.3,2.2-1.9c1.8-1.9,3.5-3.9,4.9-6.2
		c1.5-2.2,2.9-4.5,4.2-6.8l3-5.8c0.5-2.9,1.2-5.7,2-8.4C407.6,162.9,408.6,160.2,409.7,157.5z"/>
	<path fill="#FFFFFF" d="M491.2,173.5c-1.1,2.3-2.3,4.6-3.6,6.9c-1.2,2.3-2.6,4.6-4.1,6.7c-1.5,2.2-3.1,4.2-4.7,6.1
		c-1.7,1.9-3.6,3.6-5.6,5c-0.8,0.6-1.6,1.1-2.5,1.4c-0.9,0.4-1.7,0.6-2.6,0.6c-0.8,0-1.6-0.2-2.4-0.6c-0.8-0.4-1.5-1.1-2.2-2.1
		c-1.3-2-2.1-4.3-2.3-6.9c-0.2-2.6-0.2-5.1-0.1-7.4l0.4-4.1c0.1-1.2,0.3-2.5,0.5-3.7c-1.3,2.4-2.6,4.8-4,7.2
		c-1.4,2.4-2.8,4.6-4.4,6.9c-1.4,1.9-3.1,3.9-4.9,6.1c-1.9,2.1-3.9,3.6-6.1,4.4c-1.8,0.7-3.4,0.6-4.9-0.3c-1.4-0.9-2.5-2.3-3.1-4.2
		c-0.8-2.5-1.1-5.1-1-7.8c0.1-2.7,0.5-5.3,1-7.8c0.5-2.8,1.2-5.5,2-8.2c0.8-2.7,1.7-5.3,2.7-8c0.9-2.6,1.9-5.1,3-7.7
		c1.1-2.5,2.3-5,3.6-7.4c0.5-1,1.1-2,1.7-2.9c0.6-0.9,1.2-1.8,2-2.7c0.7-0.8,1.6-1,2.6-0.6c1,0.4,1.5,1.1,1.7,2.1
		c0.1,0.9-0.1,1.9-0.4,2.9c-0.3,1-0.6,2-0.8,2.8c-0.7,2.6-1.5,5.4-2.4,8.1c-0.8,2.3-1.6,4.6-2.3,7c-0.7,2.4-1.5,4.8-2.3,7.1
		c-0.6,1.9-1.2,3.7-1.8,5.6c-0.6,1.9-1.2,3.8-1.7,5.7c-0.5,1.9-1.1,3.8-1.8,5.8c-0.6,2-0.9,3.9-0.8,5.8c0.1,1.1,0.5,1.6,1.3,1.7
		c0.8,0,1.6-0.2,2.6-0.6c0.9-0.4,1.8-1,2.7-1.6c0.8-0.6,1.4-1.1,1.7-1.4c1.7-1.9,3.4-3.9,4.8-6.2c1.5-2.2,2.9-4.5,4.2-6.8
		c2.5-4.4,5-9,7.2-14c0.7-2.7,1.6-5.4,2.6-8c1-2.6,2-5.2,3.1-7.8c0.2-0.5,0.5-1.4,1-2.6c0.5-1.2,1-2.4,1.7-3.5
		c0.6-1.1,1.4-1.9,2.2-2.4c0.8-0.5,1.6-0.2,2.5,0.9c0.3,0.4,0.5,0.9,0.6,1.4c0.1,0.5,0.1,1.1-0.1,1.7c-0.1,0.6-0.2,1.1-0.4,1.7
		c-0.1,0.6-0.2,1.1-0.3,1.5c-0.3,1.4-0.6,2.7-0.9,4c-0.3,1.3-0.6,2.7-0.9,4l-3.6,15.9l-2.5,11.1c-0.2,1-0.4,2-0.6,2.9
		c-0.2,1-0.4,1.9-0.5,2.9c-0.1,0.9-0.3,1.8-0.4,2.8c-0.1,1,0,1.9,0.3,2.7c0.2,0.6,0.5,0.9,1,1.1c0.5,0.2,1,0.2,1.6,0.1
		c0.6-0.1,1.1-0.3,1.7-0.5c0.5-0.2,1-0.5,1.3-0.7c1.3-1.1,2.6-2.4,3.8-3.9c1.2-1.4,2.3-2.9,3.3-4.3c1.1-1.6,2.2-3.3,3.3-5
		c1-1.7,2-3.5,3-5.2l2.7-5c0.3-0.6,0.8-0.8,1.4-0.4C491.4,172.3,491.6,172.8,491.2,173.5z"/>
	<path fill="#FFFFFF" d="M519.8,174.3c-0.9,2.1-2,4.4-3.1,6.9c-1.1,2.4-2.3,4.8-3.7,7c-1.4,2.2-2.9,4.2-4.6,6.1
		c-1.7,1.8-3.7,3.3-5.9,4.3c-1.6,0.8-3.2,1.1-4.6,1c-1.5-0.1-2.8-1.1-3.8-3c-1.2-2.2-1.8-4.7-1.8-7.6c0-2.8,0.1-5.5,0.3-8
		c0.3-3,0.8-6,1.4-8.9c0.6-3,1.1-5.9,1.7-8.9c0.9-5,1.9-10,3-14.9c1-5,2.3-9.9,3.7-14.8l0.4-1.4h-13.9c-0.3,0-0.6-0.1-0.9-0.3
		c-0.3-0.2-0.4-0.5-0.5-0.7c0-0.3,0-0.5,0.2-0.7c0.1-0.2,0.4-0.3,0.9-0.3h14.8c1.3-4.2,2.7-8.2,4.2-12.1c1.1-2.5,2.3-4.9,3.6-7.1
		c1.3-2.2,2.9-4.3,4.9-6.1c0.5-0.4,1.1-0.9,1.8-1.5c0.7-0.6,1.5-1,2.4-1.4c0.8-0.4,1.7-0.6,2.5-0.6c0.8,0,1.6,0.3,2.3,0.9
		c0.7,0.8,1.1,1.7,1,2.8c-0.1,1.1-0.2,2.1-0.4,3c-0.3,1.4-0.7,2.7-1.1,4c-0.4,1.3-0.9,2.6-1.4,3.8c-0.9,2.4-1.9,4.8-3,7.2
		c-1,2.4-2.1,4.7-3.3,7.1H536c0.7,0,1,0.4,1,1.1c0,0.7-0.3,1.1-1,1.1h-20.4c-1.1,2.4-2.3,4.8-3.5,7.2c-1.2,2.4-2.4,4.7-3.5,7.1
		l-2.4,4.7c-0.5,1.9-1,3.7-1.5,5.5c-0.4,1.8-0.9,3.6-1.4,5.5c-1.1,4.2-2.3,8.4-3.5,12.7c-1.2,4.3-2,8.6-2.6,12.9
		c-0.1,1.1-0.2,2.2-0.3,3.3c-0.1,1.1,0,2.2,0.3,3.3c0.3,0.8,0.6,1.3,1.1,1.7c0.4,0.3,1,0.5,1.8,0.6c1.2,0.2,2.3,0,3.4-0.5
		c1-0.6,2-1.3,3-2.2c0.9-0.9,1.8-1.9,2.5-3.1c0.7-1.1,1.4-2.1,2-2.9c1-1.6,1.9-3.2,2.8-4.8c0.9-1.6,1.7-3.3,2.4-4.9
		c0.3-0.6,0.5-1.4,0.8-2.2c0.2-0.8,0.6-1.5,1-2.1c0.1-0.4,0.3-0.6,0.6-0.6c0.3-0.1,0.5-0.1,0.8,0.1c0.3,0.1,0.5,0.3,0.6,0.6
		C520,173.8,520,174.1,519.8,174.3z M514.3,131.9h-2.7c-0.7,2.2-1.3,4.4-2,6.6c-0.6,2.2-1.3,4.4-1.9,6.6c1.1-2.1,2.2-4.3,3.3-6.5
		C512.1,136.4,513.2,134.2,514.3,131.9z M520.6,116.7c0.4-1.1,0.8-2.2,1.2-3.3c0.4-1.1,0.7-2.2,1-3.4c0.1-0.6,0.3-1.1,0.4-1.7
		c0.1-0.5,0.2-1.1,0.3-1.7c0.1-0.5,0.1-0.9-0.1-1.3c-0.1-0.4-0.2-0.7-0.3-1.1c-0.1,0.1-0.5,0.4-1,0.7c-0.5,0.3-0.8,0.6-1,0.7
		c-0.7,1-1.3,2.1-1.8,3.3c-0.5,1.2-0.9,2.4-1.3,3.6c-0.9,2.6-1.9,5.1-2.8,7.7c-0.9,2.5-1.8,5.1-2.6,7.8c-0.3,0.7-0.4,1.3-0.5,1.6
		h2.9c0.9-2.1,1.9-4.3,2.8-6.5C519,121.1,519.8,118.9,520.6,116.7z"/>
	<path fill="#FFFFFF" d="M568.2,173.7c-0.9,2.1-2.1,4.1-3.4,5.9c-1.3,1.8-2.8,3.5-4.4,5c-1.6,1.6-3.3,3-5.1,4.3
		c-1.8,1.3-3.6,2.6-5.4,3.8c-0.5,1.8-1.1,3.5-1.6,5.2c-0.5,1.7-1,3.5-1.6,5.2c-1.7,5.4-3.4,10.7-5.3,16c-1.8,5.3-4.2,10.4-7,15.2
		c-1.2,2.1-2.6,4.2-4.2,6.1c-1.6,1.9-3.4,3.5-5.5,4.7c-2.2,1.2-4.6,1.7-7,1.6c-2.5-0.2-4.5-1.4-6.1-3.6c-1.2-1.6-2-3.4-2.3-5.4
		c-0.3-2-0.4-3.9-0.1-5.9c0.3-2,0.8-4,1.5-5.9c0.7-2,1.5-3.8,2.5-5.4c2.1-3.8,4.7-7.1,7.7-9.9c3.1-2.8,6.3-5.4,9.8-7.9
		c1.5-1,2.9-2,4.4-2.9c1.4-1,2.9-1.9,4.5-2.9c0.7-2.6,1.3-5.1,2-7.7c0.6-2.6,1.3-5.1,2.1-7.6c-0.9,1.4-2,2.8-3.3,4.3
		c-1.3,1.6-3,3-4.9,4.4c-1.9,1.4-3.9,2.2-5.9,2.6c-1,0.1-1.9,0.1-2.7-0.3c-0.8-0.3-1.5-0.8-2.1-1.4c-0.6-0.6-1.1-1.4-1.5-2.2
		c-0.4-0.9-0.7-1.7-0.9-2.7c-0.6-2.6-0.7-5.3-0.4-8.1c0.3-2.7,0.8-5.4,1.5-8c0.7-2.7,1.5-5.4,2.4-7.9c0.9-2.6,2-5.1,3.1-7.6
		c0.9-2.1,1.8-4.1,2.9-6.1c1-2,2.3-3.8,3.8-5.5c0.7-0.8,1.6-1,2.6-0.6c1,0.4,1.5,1.1,1.6,2.2c0.1,0.8,0.1,1.6-0.2,2.4
		c-0.2,0.8-0.4,1.6-0.6,2.4c-0.9,3.8-1.9,7.5-3.2,11.1s-2.5,7.3-3.6,11c-0.4,1.3-0.8,2.6-1.2,3.9c-0.4,1.3-0.8,2.7-1.1,4.1
		c-0.2,0.6-0.4,1.3-0.6,1.9c-0.2,0.6-0.3,1.3-0.5,1.9c-0.1,0.4-0.2,0.8-0.3,1.3c-0.1,0.5-0.3,1-0.4,1.6c-0.1,0.6-0.1,1.1-0.1,1.6
		c0.1,0.5,0.3,0.9,0.6,1.2c0.5,0.4,1.1,0.6,1.8,0.6c0.7,0,1.3-0.1,2-0.3c0.7-0.2,1.3-0.5,2-0.9c0.6-0.4,1.2-0.8,1.6-1.2
		c1.5-1.4,2.9-3,4.2-4.7c1.2-1.7,2.4-3.4,3.6-5.3c0.4-0.7,0.8-1.4,1.2-2.1c0.4-0.7,0.7-1.4,1.1-2.1l0.1-0.1c0.8-2.7,1.6-5.4,2.5-8.1
		c0.9-2.7,1.8-5.3,2.9-8c0.9-2.3,2-4.7,3.2-7.2c1.2-2.5,2.8-4.5,4.7-6c0.3-0.2,0.6-0.4,1.1-0.6c0.4-0.2,0.9-0.3,1.3-0.4
		c0.4,0,0.8,0,1.2,0.2c0.3,0.2,0.6,0.6,0.7,1.1c0.1,0.4,0,0.8-0.3,1.2c-0.2,0.4-0.6,0.6-1.1,0.6c0.1,0.1,0.1,0.5-0.2,1
		c-0.3,0.5-0.4,0.8-0.5,1c-0.7,1.9-1.3,3.9-1.8,5.8c-0.4,2-0.9,3.9-1.5,5.9c-1.3,5.1-2.6,10.1-3.8,15.1c-1.3,5-2.6,9.9-3.9,14.9
		l2.7-2c1.7-1.2,3.3-2.5,4.9-4c1.6-1.4,3-3,4.4-4.7c0.7-0.9,1.3-1.7,1.9-2.6c0.6-0.9,1.1-1.8,1.6-2.8c0.1-0.4,0.3-0.7,0.6-1
		c0.2-0.3,0.6-0.4,1.1-0.2C568.3,172.6,568.5,173.1,568.2,173.7z M520.7,213.8c-1.8,1.9-3.4,3.9-4.9,6.2c-1.4,2.2-2.6,4.6-3.5,7.1
		c-0.4,1.2-0.8,2.5-1.1,3.9c-0.3,1.4-0.4,2.7-0.4,4c0,1.3,0.3,2.6,0.7,3.9c0.4,1.3,1.1,2.4,2,3.3c0.9,0.9,1.8,1.5,2.9,1.7
		c1.1,0.2,2.1,0.2,3.2-0.1c1-0.3,2.1-0.7,3.1-1.4c1-0.7,1.9-1.4,2.6-2.3c1.7-1.9,3.1-4.1,4-6.5c0.9-2.4,1.7-4.8,2.5-7.3
		c1.3-4.4,2.5-8.8,3.6-13.2c1.1-4.4,2.2-8.8,3.4-13.2c-3.2,2.1-6.4,4.2-9.4,6.4C526.3,208.5,523.4,211,520.7,213.8z"/>
	<path fill="#FFFFFF" d="M657.7,125.6c1.9-1.6,3.1-3.5,3.7-5.8c0.6-2.3,0.3-4.6-0.8-6.9c-1.1-2.2-2.8-3.9-4.9-5.1
		c-2.1-1.2-4.3-1.6-6.7-1.2c-2.3,0.4-4.3,1.4-5.7,2.9c-1.5,1.5-2.6,3.3-3.4,5.3c-0.8,2-1.3,4.2-1.5,6.5c-0.2,2.3-0.3,4.6-0.2,6.7
		c0.3,5.6,1,11.2,1.9,16.8c0.9,5.5,1.6,11.1,2.1,16.8c0.5,5.6,0.5,11.2,0.2,16.8c-0.3,5.6-1.6,11-3.9,16.2
		c-2.3,5.1-5.5,9.2-9.7,12.3c-4.2,3-8.8,5.2-13.8,6.5c-2.5,0.6-5,1.1-7.6,1.5c-2.6,0.4-5.2,0.4-7.8,0.3c-2.6-0.2-5.1-0.6-7.5-1.4
		c-2.4-0.7-4.8-1.9-7-3.6c-3-2.1-5.3-4.7-7-7.7c-1.7-3-3-6.2-3.8-9.7c-0.8-3.5-1-7.1-0.8-10.8c0.2-3.7,0.9-7.3,2-10.8
		c1.1-3.5,2.5-6.8,4.4-9.9c1.8-3.1,4-5.7,6.6-7.9c1.9-1.6,3.9-3,6.1-4.1c2.2-1.1,4.5-1.9,6.9-2.4c2.4-0.5,4.8-0.7,7.3-0.6
		c2.4,0.1,4.8,0.6,7.2,1.3c2.3,0.8,4.5,2,6.4,3.6c1.9,1.6,3.6,3.6,4.8,5.8c1.3,2.3,2.1,4.6,2.5,7c0.1,0.6,0.2,1,0.2,1.3
		c0.1,0.6-0.1,1-0.7,1.2c-0.6,0.2-1,0-1.3-0.5c-0.3-0.4-0.4-0.9-0.4-1.6c0-0.6-0.1-1.2-0.2-1.7c-0.3-1.3-0.8-2.5-1.3-3.7
		c-0.5-1.2-1.2-2.3-1.9-3.3c-1.5-2.1-3.4-3.7-5.5-5c-2.1-1.2-4.3-2.1-6.7-2.5c-5-0.9-9.9-0.4-14.6,1.3c-4.7,1.7-8.7,4.6-12,8.7
		c-2.1,2.6-3.9,5.5-5.2,8.9c-1.3,3.4-2.3,6.8-2.8,10.4c-0.5,3.6-0.6,7.2-0.3,10.9c0.4,3.6,1.2,7,2.6,10.1c1.4,3.1,3.3,5.8,5.7,8.2
		c2.4,2.4,5.5,4.1,9,5.1c2.3,0.7,4.8,1.1,7.4,1.1c2.6,0,5.1-0.2,7.7-0.7c2.5-0.5,5-1.2,7.4-2.2c2.4-1,4.7-2.1,6.7-3.5
		c4.6-3,8-6.9,10-11.6c2-4.7,3.2-9.9,3.4-15.5c0.2-5.6,0-11.1-0.7-16.6c-0.7-5.5-1.3-11-1.8-16.6c-0.2-2.6-0.4-5.3-0.6-8.1
		c-0.2-2.8-0.2-5.6-0.1-8.4c0.1-2.8,0.5-5.5,1.1-8.2c0.6-2.7,1.5-5.2,2.7-7.6c1.1-2,2.4-3.8,4.1-5.3c1.7-1.5,3.5-2.7,5.5-3.4
		c2-0.7,4-1,6.1-0.9c2.1,0.2,4.1,1,6.1,2.4c1.9,1.4,3.5,3.3,4.5,5.6c1.1,2.3,1.4,4.7,1,7.2c-0.2,1.2-0.6,2.4-1.1,3.5
		c-0.5,1.1-1.1,2.1-1.9,3.1c-0.3,0.3-0.6,0.6-0.9,1c-0.3,0.4-0.7,0.5-1.1,0.5c-0.5,0-0.8-0.2-0.9-0.7
		C657.3,126.4,657.4,126,657.7,125.6z"/>
	<path fill="#FFFFFF" d="M671.7,144.9c0.1,2,0.1,4-0.2,6c-0.3,2-0.6,4-0.9,5.9c-0.3,1.2-0.5,2.4-0.7,3.7c-0.2,1.3-0.4,2.5-0.6,3.7
		c1.1-1.9,2.2-3.8,3.3-5.7c1.1-1.9,2.3-3.7,3.7-5.5c1.1-1.5,2.5-3.1,4.2-4.8c1.7-1.7,3.6-3,5.5-4c1.9-0.9,3.8-1.2,5.6-0.9
		c1.8,0.3,3.5,1.8,4.9,4.3c1.2,2.3,2,4.8,2.3,7.4c0.3,2.6,0.3,5.3,0,8.1c-0.3,2.8-0.9,5.4-1.7,8.1c-0.8,2.6-1.7,5.1-2.6,7.3
		c-0.9,2.1-2,4.4-3.3,6.6c-1.2,2.3-2.7,4.4-4.3,6.3c-1.6,1.9-3.5,3.6-5.5,4.9c-2,1.4-4.2,2.2-6.6,2.7c-2.5,0.4-4.9,0-6.9-1.3
		c-2.1-1.3-3.5-3.2-4.2-5.9c-0.1-0.3-0.2-0.5-0.2-0.7c-1.1,4.1-2.2,8.1-3.3,12.1c-1.1,4-2.3,8-3.6,12.1c-0.9,2.8-1.8,5.6-2.7,8.4
		s-1.9,5.5-2.9,8.2c-0.9,2.5-1.9,5-3,7.4c-1.1,2.5-2.4,4.8-3.9,7c-0.6,0.9-1.3,1.8-2.1,2.8c-0.8,1-1.6,2-2.5,2.8
		c-0.9,0.9-1.9,1.6-2.9,2.2c-1,0.6-2.1,0.9-3.2,0.9c-1.1,0-2-0.3-2.5-0.9c-0.5-0.6-0.9-1.3-1.1-2.1c-0.2-0.9-0.2-1.8-0.1-2.8
		c0.1-1,0.3-1.9,0.5-2.7c0.6-2.7,1.4-5.3,2.4-7.8c1-2.5,2-5,3.1-7.5c1.1-2.7,2.3-5.4,3.5-7.9c1.2-2.6,2.4-5.2,3.7-7.8
		c1.7-3.7,3.5-7.4,5.4-11c1.8-3.6,3.7-7.3,5.5-10.9c0.7-2.5,1.3-5,1.9-7.5l1.8-7.5c0.5-2,0.9-4,1.4-5.9c0.5-2,1-3.9,1.5-5.8
		c0.7-2.7,1.5-5.5,2.4-8.2c0.8-2.8,1.8-5.5,3-8c0.5-1.1,1.1-2.4,2-3.9l1.7-2.4c0.3-0.4,0.8-0.6,1.4-0.6
		C671.3,143.7,671.6,144.1,671.7,144.9z M644.4,214.9c-1.2,2.6-2.4,5.3-3.6,7.9c-1.2,2.6-2.3,5.3-3.4,8c-1,2.6-2,5.2-2.9,7.8
		c-0.9,2.6-1.7,5.3-2.2,8c-0.1,0.3-0.2,0.7-0.3,1.3c-0.1,0.6-0.2,1.2-0.2,1.8c0,0.6,0,1.1,0.1,1.6c0.1,0.5,0.4,0.7,0.8,0.8
		c0.5,0.1,0.9-0.1,1.4-0.7c0.4-0.6,0.8-1.1,1-1.4c1.3-2.1,2.4-4.3,3.1-6.7c0.7-2.4,1.5-4.7,2.4-7c2.3-6.1,4.5-12.2,6.4-18.3
		c1.9-6.1,3.7-12.4,5.4-18.6C649.5,204.5,646.9,209.7,644.4,214.9z M668.4,196.1c1.9,0.9,3.8,0.9,5.4-0.1c1.7-1,3.1-2.3,4.2-4
		c1.4-2.1,2.7-4.4,3.8-6.8c1.1-2.4,2.2-4.8,3.1-7.1c1-2.6,2-5.2,2.9-7.8c0.9-2.6,1.7-5.3,2.5-8c0.3-1.2,0.6-2.4,0.9-3.6
		c0.2-1.2,0.5-2.4,0.8-3.6c0.3-1.2,0.5-2.5,0.7-4c0.2-1.4-0.1-2.7-0.7-3.9c-0.6-1.1-1.4-1.7-2.3-1.8c-0.9-0.1-1.8,0.1-2.8,0.5
		c-1,0.4-1.9,1-2.8,1.7c-0.9,0.7-1.6,1.3-2.2,1.8c-1.8,1.9-3.5,3.9-4.9,6.2c-1.5,2.2-2.9,4.5-4.2,6.8c-0.6,1.1-1.2,2.3-1.8,3.4
		c-0.6,1.1-1.2,2.3-1.7,3.5c-0.3,0.6-0.5,1.1-0.7,1.7c-0.2,0.6-0.4,1.1-0.7,1.7l-2.2,9.3l-1.1,4.5c-0.1,1.9,0.1,3.7,0.7,5.6
		C665.7,194,666.8,195.3,668.4,196.1z"/>
	<path fill="#FFFFFF" d="M765.9,173.5c-1.2,2.3-2.4,4.6-3.7,6.9c-1.2,2.3-2.6,4.6-4.1,6.7c-1.5,2.2-3.1,4.2-4.7,6.1
		c-1.7,1.9-3.6,3.6-5.6,5c-0.7,0.6-1.5,1.1-2.3,1.4c-0.8,0.4-1.6,0.6-2.4,0.7c-0.8,0.1-1.5-0.1-2.3-0.4c-0.7-0.3-1.4-0.9-2.1-1.9
		c-0.7-0.9-1.3-2-1.8-3.2c-0.4-1.2-0.8-2.5-1-3.8c-0.2-1.3-0.3-2.6-0.4-4c0-1.3,0-2.6,0.1-3.8c0-0.5,0-1,0.1-1.4
		c0-0.5,0.1-1,0.2-1.6c-0.9,1.6-1.9,3.1-2.8,4.6c-0.9,1.5-1.9,2.9-2.9,4.3c-1.1,1.5-2.5,3.1-4.2,4.8c-1.7,1.7-3.5,3-5.4,4
		c-1.9,0.9-3.8,1.2-5.6,0.9c-1.8-0.3-3.5-1.8-4.9-4.3c-1.3-2.3-2.1-4.7-2.4-7.4c-0.3-2.6-0.3-5.3,0.1-8.1c0.3-2.7,0.9-5.4,1.7-8
		c0.8-2.6,1.6-5.1,2.6-7.3c0.9-2.1,2-4.4,3.3-6.6c1.3-2.3,2.7-4.4,4.4-6.3c1.6-1.9,3.5-3.6,5.5-4.9c2-1.4,4.2-2.2,6.6-2.7
		c2.5-0.4,4.9,0,6.9,1.3c2.1,1.3,3.5,3.3,4.2,5.9c0.1,0.6,0.2,1.1,0.3,1.7l0.2,1.7l1.2-2.1c0.5-0.9,1.1-1.8,1.8-2.9
		c0.7-1.1,1.5-2.1,2.4-3c0.9-0.9,1.8-1.7,2.8-2.3c1-0.6,2.1-0.9,3.2-0.8c0.9,0.1,1.2,0.5,1.1,1.2c-0.2,0.7-0.4,1.4-0.6,1.9
		c-0.4,1.1-0.8,2.1-1.3,3.2c-0.4,1-0.8,2.1-1.2,3.1c-1.1,3.1-2.1,6.1-3.1,9.2c-1,3-1.9,6.2-2.8,9.4l-1.6,5.8c-0.5,1.9-1,3.9-1.4,5.9
		c-0.2,1-0.4,2.1-0.7,3.2c-0.3,1.1-0.5,2.2-0.7,3.3c-0.2,1.1-0.3,2.2-0.4,3.3c-0.1,1.1,0,2.2,0.1,3.3c0.2,1.1,0.8,1.8,1.7,1.9
		c0.9,0.1,1.8-0.1,2.7-0.5c1.5-0.7,3-1.9,4.3-3.5c1.3-1.6,2.5-3.1,3.5-4.4c1.2-1.6,2.3-3.3,3.4-5.1c1.1-1.7,2.1-3.6,3-5.4
		c0.5-1,1.1-2,1.6-2.9c0.5-0.9,1-1.9,1.6-2.9c0.1-0.3,0.3-0.5,0.6-0.5c0.3-0.1,0.5,0,0.8,0.1c0.3,0.1,0.5,0.4,0.6,0.6
		C766,172.9,766,173.2,765.9,173.5z M741.7,157.5c0.2-1,0.3-2.1,0.3-3.2c0-1.1-0.2-2.2-0.5-3.3c-0.3-1.1-0.7-2-1.3-2.9
		c-0.6-0.9-1.3-1.5-2.2-1.9c-1.9-0.9-3.8-0.9-5.4,0.1c-1.7,1-3.1,2.3-4.2,4c-1.4,2.1-2.7,4.4-3.8,6.8c-1.1,2.4-2.2,4.8-3.1,7.1
		c-1.1,2.6-2,5.2-2.9,7.8c-0.9,2.6-1.7,5.3-2.4,8c-0.3,1.2-0.6,2.4-0.9,3.6c-0.3,1.2-0.5,2.4-0.7,3.6c-0.3,1.2-0.5,2.5-0.7,4
		c-0.2,1.4,0.1,2.7,0.7,3.9c0.6,1.1,1.4,1.7,2.3,1.8c0.9,0.1,1.8-0.1,2.8-0.5c1-0.4,1.9-1,2.8-1.7c0.9-0.7,1.6-1.3,2.2-1.9
		c1.8-1.9,3.5-3.9,4.9-6.2c1.5-2.2,2.9-4.5,4.2-6.8l3-5.8c0.5-2.9,1.2-5.7,2-8.4C739.6,162.9,740.6,160.2,741.7,157.5z"/>
</g>
</svg>
