<?xml version="1.0" encoding="utf-8"?>
<!-- Generator: Adobe Illustrator 17.1.0, SVG Export Plug-In . SVG Version: 6.00 Build 0)  -->
<!DOCTYPE svg PUBLIC "-//W3C//DTD SVG 1.1//EN" "http://www.w3.org/Graphics/SVG/1.1/DTD/svg11.dtd">
<svg version="1.1" id="Слой_1" xmlns="http://www.w3.org/2000/svg" xmlns:xlink="http://www.w3.org/1999/xlink" x="0px" y="0px"
	 viewBox="0 0 259.7 61.7" enable-background="new 0 0 259.7 61.7" xml:space="preserve">
<g>
	<g>
		<text transform="matrix(1 0 0 1 126.849 33.1249)" fill="#735247" font-family="'DancingScriptOT'" font-size="32.4485">Spa Salon</text>
	</g>
	<text transform="matrix(1 0 0 1 126.849 50.1725)" fill="#735247" font-family="'FrenteH1-Regular'" font-size="13.9379">WELLNESS CENTER</text>
	<g>
		<path fill="#F4B2C1" d="M67.3,45.6c4.5-3,8.6-5.2,10-10.9c1.2-4.8,0.1-9.6-2.3-13.9c-2.4-3.3-5.3-6.4-8.2-9
			c-0.5-0.4-1.3-0.3-1.5,0.4c-2,7.6-7.7,15-7.5,23.1c0.1,4.1,3.2,9.3,7.3,10.4c0.1,0.3,0.3,0.5,0.7,0.5c0.4,0,0.7,0,1.1,0
			C67,45.9,67.1,45.7,67.3,45.6z"/>
		<path fill="#F4B2C1" d="M85.4,37.5c1.8-2.7,3-5.9,3.3-9.1c0.7-5.8-2.1-11-2.3-16.6c-3.6,2-6.7,4.4-9.3,7.7
			c-0.2,0.1-0.3,0.3-0.4,0.5c-0.1,0.2-0.1,0.4-0.1,0.6c5.7,7.4,4.2,18.8-3.2,24c0,0.1,0.1,0.3,0.2,0.4
			C78.7,43.6,82.3,42.2,85.4,37.5z"/>
		<path fill="#F4B2C1" d="M100.1,27.4c-3.4,0.6-6.4,1.7-9.2,3.7c-0.4,0.3-0.3,0.9,0.1,1c-0.8,4.7-4,7.7-7,11.1
			c-0.4,0.5-0.2,1.2,0.4,1.4c10.4,3.8,14.1-9.3,16.7-16.3C101.3,27.8,100.6,27.3,100.1,27.4z"/>
		<path fill="#F4B2C1" d="M55.7,38.8c-3.5-3.7,0-12.3,1-16.7c0.2-0.1,0.3-0.3,0.2-0.6c0-0.1,0-0.2-0.1-0.3c0,0,0,0,0,0
			c0.1-0.3,0-0.6-0.2-0.8c-1.4-5.5-7.6-8.6-12.7-9.9c-0.6-0.2-1,0.3-1.1,0.8c-1,7.4-1.6,16.6,1.5,23.7c2.1,4.8,7.1,8.3,12.4,6.3
			C56.3,40.7,55.8,39.8,55.7,38.8z"/>
		<path fill="#F4B2C1" d="M48.7,42c-5.1-2.5-7.4-7.3-7.8-12.7c0-0.2-0.1-0.4-0.3-0.6c0-0.2-0.1-0.4-0.4-0.5c-2.8-1-5.8-1.4-8.6-2
			c-0.7-0.1-1.2,0.4-1.1,1.1c0.8,5,2.5,11.1,5.8,15.1c3.3,3.9,7.9,2.9,12.1,1.2C49.1,43.2,49.4,42.3,48.7,42z"/>
		<path fill="#CEDF6D" d="M59.3,44.4c-1.8-1.3-2.8-1.8-4.6-1.2C54.5,43,54.3,42.9,54,43c-3.8,2.1-5.4,7-6.8,10.9
			c-0.1,0.3,0.2,0.6,0.5,0.5c3.2-0.8,6.6-1.6,9.6-2.8c1.6-0.6,4.5-2,4.9-3.9C62.7,45.9,60.4,45.2,59.3,44.4z"/>
		<path fill="#CEDF6D" d="M87.6,54.9c-0.8-2.2-1.4-4.4-2.3-6.6c-0.5-1.1-1-2.9-2.2-3.5c-1-0.5-1.5-0.2-2.4,0.2
			c-2.8,1.3-4.6,1.7-7.8,1c-0.2,0-0.3,0-0.4,0c-0.3-0.3-0.9-0.3-0.9,0.2c0.2,2.7,2.6,4.7,4.6,6.3c2.9,2.2,6.9,2.6,10.3,3.4
			C87.1,56.1,87.8,55.5,87.6,54.9z"/>
		<path fill="#CEDF6D" d="M23.7,44.4c0,0-0.1,0-0.1,0c-0.1,0-0.1,0-0.2-0.1c-4.6-0.7-9.1-1.3-13.6,0.1c0,0,0,0-0.1,0
			c-0.1,0-0.3,0.1-0.4,0.1c-0.6,0.2-0.4,1,0.2,0.9c0.1,0.2,0.3,0.3,0.5,0.3c4.7,0.1,8.8,1.1,13.4,0c0.2-0.1,0.4-0.2,0.5-0.5
			C24.3,45.1,24.3,44.4,23.7,44.4z"/>
		<path fill="#CEDF6D" d="M23.5,46.1c-2.6,0.8-4.6,1.8-6.8,3.5c-2.4,1.9-4.5,4.1-6.8,6.1c-0.7,0.6,0,1.8,0.9,1.5
			c5-1.6,9.1-4.6,11.9-9c0.1-0.2,0.2-0.4,0.1-0.6c0.3-0.2,0.7-0.4,1.1-0.5C24.4,46.8,24,45.9,23.5,46.1z"/>
		<path fill="#CEDF6D" d="M108.8,46.4c3.5-0.8,7.1-1.1,10.6-0.9c1,0,1-1.5,0-1.6c-1.7-0.2-3.4-0.2-5-0.2c-3.2-0.1-6.4,0-9.4,1.1
			c0,0,0,0,0,0c-0.1-0.1-0.1-0.2-0.2-0.2c-0.5-0.3-1-0.3-1.5,0c-0.9,0.5-0.3,1.7,0.6,1.6c0.1,0.1,0.2,0.1,0.4,0.1c0,0,0,0,0,0
			c0,0,0,0,0,0c-0.4,0-0.8,0.4-0.5,0.8c3.3,5.6,9.2,9.2,15.1,11.3c1,0.3,1.6-1.1,0.7-1.6c-2.8-1.7-5.3-3.7-7.9-5.7
			c-1.8-1.4-3.7-3.3-5.9-3.8c-0.2-0.2-0.5-0.3-0.8-0.5C106.1,47.1,107.3,46.8,108.8,46.4z"/>
		<path fill="#735247" d="M103.6,22.7c-4.1,0.6-7.8,2-11.1,4.4c0.8-6.8,0.1-14.1-0.3-20.3c0-0.5-0.5-0.8-0.9-0.5
			c-5.4,2.9-12.9,4.5-16.3,10.1c-2.9-4-6.5-7.7-8.6-11.9c0-0.1-0.1-0.1-0.1-0.1c-0.1-0.3-0.6-0.3-0.7,0c-1.7,4.1-4.3,8.1-6.7,12.2
			c-0.9-2.4-3.5-4.3-5.4-5.6C50,8.6,45.1,7.5,41.5,5.4c-0.4-0.2-0.9-0.3-1.1,0.2c-1.2,4.8-2,12.4-1.5,19.6c-3.2-1.8-7-2.5-10.6-2.8
			c-0.5,0-0.7,0.5-0.7,0.9c1.2,7.2,1.3,18.9,8.5,23.3c3.7,2.3,9,2.1,12.8-0.2c-2,2.7-3.4,6.4-5,9c-0.2,0.4,0.2,0.9,0.6,0.8
			c6-1.9,17.9-0.7,19.1-9.1c1.9,0.5,4,0.7,5.9,0.3c-0.8,7.8,14.3,8.6,19.1,8.9c0.3,0,0.4-0.3,0.4-0.5c-0.7-2.6-1.1-6.6-2.8-9
			c10.4,3.5,16.8-15.4,18.3-23C104.7,23,104.2,22.6,103.6,22.7z M81.6,11.7c2-1.2,7.5-3.4,8.2-3.6c0.7,0.6,0.9,3.7,0.9,5.9
			c0,2.7,0,5.4-0.1,8.1c0,5.7-0.6,10.9-3.8,15.7c-3.1,4.7-7.2,6.8-12.2,7.2c3.4-2.7,6-7,6.4-11.2c0.5-5.3-1.4-9.9-4-14.3
			c-0.5-0.9-1.1-1.7-1.7-2.6C77.2,14.9,79.2,13.2,81.6,11.7z M41.4,6.5c2.6,1.8,6.3,3.4,9,5c1.7,0.9,3.3,2,4.7,3.4
			c1.1,1.1,1.7,2.3,2.7,3.2c-3.1,5.6-5.5,11.3-4.4,17.9c0.4,2.2,1.3,4.3,2.7,6.1c-9,1.6-14.4-6.2-15-14.5
			C40.5,20.8,41.8,13.2,41.4,6.5z M33.8,41.1c-2.9-4.8-3.6-11.5-4.6-17.1c3.4,0.6,6.5,1.7,9.9,2.5C40,34.6,42.8,42,49.4,43.8
			C44.1,46.9,37.5,47.2,33.8,41.1z M45.5,54.8c2-3.8,3.7-8.6,7.5-10.6c1.4,0,2.8-0.2,4.4-0.7c0.4,0.4,0.8,0.8,1.3,1.1
			c1.1,0.8,2.4,1.5,3.8,2C59.9,53.3,51.5,52.8,45.5,54.8z M56.8,39.7c-2.5-4.2-2.3-9.5-0.8-14c2.4-7,7.6-12.9,9.8-19.8
			c0.8,2.4,2.4,4.1,4,6.2c2.5,3.3,5,6.7,7,10.3c2.7,5.1,3.5,10.3,1,15.6c-1.5,3.1-4,5.6-7.5,6.5C65.4,45.5,59.5,44.1,56.8,39.7z
			 M87.6,53.2c0.8,3-1.3,1.3-3.6,1c-2.5-0.4-5-0.6-7.4-1.5c-3-1.1-4.3-3-5.6-5.6c0.2-0.1,0.4-0.1,0.6-0.2c3.7,1.5,7.5,0.4,10.7-1.7
			C85.8,46.1,86.7,50,87.6,53.2z M84.2,43.7c2.2-1.8,4-4,5.2-6.2c1.6-2.9,2.5-6.2,3-9.7c3.4-1.5,6.8-2.6,10.3-3.3
			C100.8,33.5,95,48.5,84.2,43.7z"/>
		<path fill="#735247" d="M26.4,45.2c0,0,0-0.1-0.1-0.1c-2.1-1.7-4.5-2.9-7-3.7c-2.4-0.7-5-1-7.5-0.6c-2.5,0.4-4.8,1.4-6.7,3.1
			c-0.3,0.3-0.6,0.5-0.8,0.8c-0.4,0.5,0,1.2,0.6,1.2c3.9,0.4,8.3,1.4,12.5,1.5c-4.7,2.2-8.7,5.9-11.6,10.5c-0.2,0.4,0.1,0.9,0.5,0.8
			c3.7-0.8,8-1.8,11.2-4c1.9-1.2,3.4-2.9,5-4.6c1.3-1.4,2.7-2.9,3.7-4.5C26.3,45.6,26.5,45.3,26.4,45.2z M6.9,44.6
			c5.6-4.1,11.5-1.1,17.6,0.8c-1,0.1-1.9,0.3-2.8,0.5C16.9,46.3,11.5,45.2,6.9,44.6z M15.7,54.1c-2.5,1.5-5.4,2.3-8.2,3.2
			c3.6-5.5,9.6-8.3,15.7-10.4c0,0,0.1,0,0.1,0C21,49.5,18.5,52.4,15.7,54.1z"/>
		<path fill="#735247" d="M100.9,45.7c1,1.6,2.4,3.1,3.7,4.5c1.5,1.6,3.1,3.3,5,4.6c3.2,2.1,7.5,3.2,11.2,4c0.5,0.1,0.8-0.4,0.5-0.8
			c-2.9-4.6-6.8-8.3-11.6-10.5c4.2-0.1,8.6-1.1,12.5-1.5c0.5-0.1,1-0.8,0.6-1.2c-0.3-0.3-0.5-0.6-0.8-0.8c-1.8-1.7-4.2-2.7-6.7-3.1
			c-2.5-0.4-5.1-0.1-7.5,0.6c-2.6,0.7-4.9,2-7,3.7c0,0-0.1,0.1-0.1,0.1C100.6,45.3,100.8,45.6,100.9,45.7z M105.5,46
			c-0.9-0.2-1.8-0.4-2.8-0.5c6-1.9,12-4.9,17.6-0.8C115.6,45.2,110.3,46.3,105.5,46z M103.9,46.9c0,0,0.1,0,0.1,0
			c6.1,2.1,12.1,4.9,15.7,10.4c-2.8-0.9-5.7-1.7-8.2-3.2C108.7,52.4,106.2,49.5,103.9,46.9z"/>
	</g>
</g>
</svg>
