<svg width="38" height="37" viewBox="0 0 38 37" fill="none" xmlns="http://www.w3.org/2000/svg">
<rect width="38" height="37" rx="5" fill="#FFC100"/>
<path d="M18.0815 7.13426C18.4284 6.32803 19.5716 6.32802 19.9185 7.13426L22.6372 13.4511C22.7796 13.782 23.089 14.0107 23.4471 14.0499L30.1468 14.7823C30.9972 14.8752 31.3458 15.9237 30.7204 16.5074L25.6677 21.2235C25.4132 21.4611 25.3006 21.814 25.3704 22.1551L26.7738 29.0082C26.9483 29.8599 26.0277 30.5131 25.2813 30.0673L19.5128 26.6214C19.197 26.4327 18.803 26.4327 18.4872 26.6214L12.7187 30.0673C11.9723 30.5131 11.0517 29.8599 11.2262 29.0082L12.6296 22.1551C12.6994 21.814 12.5868 21.4611 12.3323 21.2235L7.27955 16.5074C6.65418 15.9237 7.00283 14.8752 7.85322 14.7823L14.5529 14.0499C14.911 14.0107 15.2204 13.782 15.3628 13.4511L18.0815 7.13426Z" fill="white"/>
</svg>
