<?xml version="1.0" encoding="utf-8"?>
<!-- Generator: Adobe Illustrator 17.1.0, SVG Export Plug-In . SVG Version: 6.00 Build 0)  -->
<!DOCTYPE svg PUBLIC "-//W3C//DTD SVG 1.1//EN" "http://www.w3.org/Graphics/SVG/1.1/DTD/svg11.dtd">
<svg version="1.1" id="Слой_1" xmlns="http://www.w3.org/2000/svg" xmlns:xlink="http://www.w3.org/1999/xlink" x="0px" y="0px"
	 viewBox="0 0 86.1 76.4" enable-background="new 0 0 86.1 76.4" xml:space="preserve">
<path fill-rule="evenodd" clip-rule="evenodd" d="M42.6,6.7c11.9,0,22.8,3.1,31.1,8.2v13.8c-4-3.6-10.6-5.8-18-5.8
	c-9.9,0-19.3,4.4-19.3,15.8c0,10.9,9,15.8,19.3,15.8c7.4,0,13.7-2,18-6v14.3C65.4,67.9,54.5,71,42.6,71C20.8,71,1.8,61,1.8,38.9
	C1.8,15.6,21.6,6.7,42.6,6.7L42.6,6.7z"/>
<polygon fill-rule="evenodd" clip-rule="evenodd" fill="#2E3192" points="83.3,35.2 78.6,35.2 78.6,45.4 69.5,45.4 69.5,35.2 
	64.7,35.2 64.7,32 83.3,32 83.3,35.2 "/>
<path fill-rule="evenodd" clip-rule="evenodd" d="M57.1,10.1c1.6,0.4,3.2,0.8,4.7,1.3c2.1,0.7,4.1,1.5,6.2,2.4
	c1.3,0.6,2.6,1.3,3.9,2.1v9.3L70,24.2l-2.3-1l-2.4-0.8l-2.6-0.6l-2.7-0.4l-2.8-0.2l-2.4,0c-1.6,0.1-3.2,0.2-4.8,0.5
	C49,21.8,48,22,47.1,22.3c-0.9,0.3-1.8,0.6-2.6,1l-1.6,0.8c-0.8,0.5-1.5,1-2.3,1.5l-1.4,1.2l-1.2,1.4l-1.1,1.6L36,31.5l-0.7,1.9
	l-0.5,2l-0.2,2.2l0,2.2l0.2,2.1l0.4,2l0.7,1.8l0.9,1.7l1,1.5l1.2,1.4l1.3,1.2c0.7,0.6,1.5,1.1,2.3,1.6c0.8,0.5,1.6,0.9,2.5,1.2
	c0.9,0.3,1.8,0.6,2.7,0.9c1,0.2,1.9,0.4,2.8,0.6c1,0.1,2,0.2,3,0.3l2,0.1c1.4,0,2.8-0.1,4.2-0.2l2.7-0.4l2.6-0.6l2.4-0.8l2.3-1
	l2-1.1v9.7c-1.8,1-3.7,2-5.6,2.8c-1.8,0.7-3.6,1.4-5.4,2c-1.9,0.6-3.8,1.1-5.8,1.5c-2,0.4-4.1,0.7-6.1,0.9c-1.8,0.2-3.5,0.3-5.3,0.3
	c-1.7,0-3.3,0-5-0.1l-3.8-0.3L31,68.2l-3.6-0.8l-3.4-1l-1.6-0.6l-1.6-0.7l-1.5-0.7l-1.5-0.8l-1.4-0.8L15,61.8l-1.3-1l-1.2-1
	l-1.2-1.1l-1.1-1.1l-1-1.2l-0.9-1.3l-0.9-1.3l-0.8-1.4L6,51l-0.6-1.5l-0.5-1.6l-0.4-1.7L4,44.5l-0.3-1.8l-0.2-1.9l-0.1-1.9l0.1-2
	l0.2-2L4,33l0.4-1.8l0.5-1.7l0.6-1.6l0.6-1.6l0.7-1.5l0.8-1.4l0.9-1.3l1-1.3l1-1.2l1.1-1.1l1.2-1.1l1.2-1l1.3-0.9l1.4-0.9l1.4-0.8
	l1.5-0.8l1.5-0.7l1.6-0.6l3.3-1.1l3.5-0.9l3.6-0.6l3.7-0.4l3.8-0.2l3,0c2.8,0.1,5.6,0.3,8.4,0.7C53.8,9.4,55.4,9.7,57.1,10.1
	L57.1,10.1z"/>
<polygon fill-rule="evenodd" clip-rule="evenodd" points="85.1,30.2 63,30.2 63,36.9 67.7,36.9 67.7,47.2 80.4,47.2 80.4,36.9 
	85.1,36.9 85.1,30.2 "/>
<path fill-rule="evenodd" clip-rule="evenodd" fill="#FFFFFF" d="M21.1,20.9c6.4,0,11.7,5.2,11.7,11.7c0,6.4-5.2,11.7-11.7,11.7
	c-0.8,0-1.5-0.1-2.2-0.2v-6.7c0.7,0.3,1.4,0.5,2.2,0.5c2.9,0,5.2-2.3,5.2-5.2c0-2.9-2.3-5.2-5.2-5.2c-2.9,0-5.2,2.3-5.2,5.2h0v10.4
	v14.3c-2.7-0.9-4.9-2.7-6.4-5.5V32.8c0-0.1,0-0.2,0-0.3C9.5,26.1,14.7,20.9,21.1,20.9L21.1,20.9z"/>
</svg>
