<?xml version="1.0" encoding="utf-8"?>
<!-- Generator: Adobe Illustrator 17.1.0, SVG Export Plug-In . SVG Version: 6.00 Build 0)  -->
<!DOCTYPE svg PUBLIC "-//W3C//DTD SVG 1.1//EN" "http://www.w3.org/Graphics/SVG/1.1/DTD/svg11.dtd">
<svg version="1.1" id="Layer_1" xmlns="http://www.w3.org/2000/svg" xmlns:xlink="http://www.w3.org/1999/xlink" x="0px" y="0px"
	 viewBox="0 0 1080 1080" enable-background="new 0 0 1080 1080" xml:space="preserve">
<path fill="#4CC9AB" d="M0,1080l74.5-270C26.1,726.2,0,633.1,0,536.3C0,242.1,242.1,0,538.1,0S1080,242.1,1080,536.3
	S834.2,1080,538.1,1080c-93.1,0-182.5-29.8-262.6-74.5L0,1080z"/>
<path fill="#4CC9AB" d="M290.5,908.7l16.8,9.3c68.9,42.8,149,68.9,232.8,68.9c243.9,0,446.9-203,446.9-450.6S783.9,93.1,538.1,93.1
	s-445,197.4-445,443.2c0,85.7,24.2,169.4,68.9,240.2l11.2,16.8l-42.8,156.4L290.5,908.7z"/>
<path fill="#FEFEFE" d="M394.8,286.8l-35.4-1.9c-11.2,0-22.3,3.7-29.8,11.2c-16.8,14.9-44.7,42.8-52.1,80.1
	c-13,55.9,7.4,122.9,55.9,189.9s141.5,175,305.4,221.6c52.1,14.9,93.1,5.6,126.6-14.9c26.1-16.8,42.8-42.8,48.4-70.8l5.6-26.1
	c1.9-7.4-1.9-16.8-9.3-20.5l-117.3-54c-7.4-3.7-16.8-1.9-22.3,5.6l-46.6,59.6c-3.7,3.7-9.3,5.6-14.9,3.7
	c-31.7-11.2-137.8-55.9-195.5-167.6c-1.9-5.6-1.9-11.2,1.9-14.9l44.7-50.3c3.7-5.6,5.6-13,3.7-18.6l-54-121
	C407.8,292.3,402.2,286.8,394.8,286.8"/>
</svg>
