<?xml version="1.0" encoding="utf-8"?>
<!-- Generator: Adobe Illustrator 17.1.0, SVG Export Plug-In . SVG Version: 6.00 Build 0)  -->
<!DOCTYPE svg PUBLIC "-//W3C//DTD SVG 1.1//EN" "http://www.w3.org/Graphics/SVG/1.1/DTD/svg11.dtd">
<svg version="1.1" id="Capa_1" xmlns="http://www.w3.org/2000/svg" xmlns:xlink="http://www.w3.org/1999/xlink" x="0px" y="0px"
	 viewBox="135 0 30 30" enable-background="new 135 0 30 30" xml:space="preserve">
<g>
	<g>
		<path fill="#FFFFFF" d="M161.2,4.4c-2.6-2.8-6.1-4.4-9.7-4.4c-3.7,0-7.2,1.6-9.9,4.5c-0.3,0.3-0.3,0.8,0,1.1s0.8,0.3,1,0
			c2.3-2.6,5.5-4,8.8-4c6.8,0,12.3,6,12.3,13.4s-5.5,13.4-12.3,13.4c-6.8,0-12.3-6-12.3-13.4v-0.2l1.2,1.3c0.1,0.2,0.3,0.2,0.5,0.2
			s0.4-0.1,0.5-0.2c0.3-0.3,0.3-0.8,0-1.1l-2.5-2.7c-0.3-0.3-0.8-0.3-1,0l-2.5,2.7c-0.3,0.3-0.3,0.8,0,1.1c0.3,0.3,0.8,0.3,1,0
			l1.2-1.3V15c0,4,1.4,7.8,4,10.6c2.6,2.8,6.1,4.4,9.7,4.4c3.7,0,7.1-1.6,9.7-4.4s4-6.6,4-10.6C165.2,11,163.8,7.2,161.2,4.4z"/>
		<path fill="#FFAE04" d="M155.4,9.5l-9.1,9.9c-0.3,0.3-0.3,0.8,0,1.1c0.1,0.2,0.3,0.2,0.5,0.2s0.4-0.1,0.5-0.2l9.1-9.9
			c0.3-0.3,0.3-0.8,0-1.1C156.1,9.2,155.7,9.2,155.4,9.5z"/>
		<path fill="#FFAE04" d="M153,16.2c-1,1.1-1,3,0,4.1c0.5,0.5,1.2,0.8,1.9,0.8s1.4-0.3,1.9-0.8c1-1.1,1-3,0-4.1
			c-0.5-0.5-1.2-0.8-1.9-0.8S153.5,15.7,153,16.2z M155.7,19.2c-0.2,0.2-0.5,0.4-0.8,0.4s-0.6-0.1-0.8-0.4c-0.5-0.5-0.5-1.3,0-1.8
			c0.2-0.2,0.5-0.4,0.8-0.4s0.6,0.1,0.8,0.4C156.2,17.9,156.2,18.7,155.7,19.2z"/>
		<path fill="#FFAE04" d="M148,8.8c-0.7,0-1.4,0.3-1.9,0.8s-0.8,1.3-0.8,2s0.3,1.5,0.8,2s1.2,0.8,1.9,0.8s1.4-0.3,1.9-0.8
			c0.5-0.5,0.8-1.3,0.8-2s-0.3-1.5-0.8-2C149.4,9.1,148.7,8.8,148,8.8z M148.9,12.6c-0.2,0.2-0.5,0.4-0.8,0.4s-0.6-0.1-0.8-0.4
			c-0.2-0.2-0.3-0.6-0.3-0.9s0.1-0.7,0.3-0.9s0.5-0.4,0.8-0.4s0.6,0.1,0.8,0.4c0.2,0.2,0.3,0.6,0.3,0.9
			C149.2,12.1,149.1,12.4,148.9,12.6z"/>
	</g>
</g>
</svg>
