<svg width="80" height="85" viewBox="0 0 80 85" fill="none" xmlns="http://www.w3.org/2000/svg">
<path d="M3.36719 43.5375C3.36719 42.4329 4.26262 41.5375 5.36719 41.5375H74.8617C75.9663 41.5375 76.8617 42.4329 76.8617 43.5375V82.4849C76.8617 83.5894 75.9663 84.4849 74.8617 84.4849H5.36718C4.26261 84.4849 3.36719 83.5894 3.36719 82.4849V43.5375Z" fill="#C251C0"/>
<path d="M8.96875 74C8.14032 74 7.46875 73.3284 7.46875 72.5C7.46875 71.6716 8.14032 71 8.96875 71L50.5508 71C51.3792 71 52.0508 71.6716 52.0508 72.5C52.0508 73.3284 51.3792 74 50.5508 74L8.96875 74Z" fill="#FF5C57"/>
<path d="M9.01953 57.8279H50.0068V71.1564H9.01953V57.8279Z" fill="white"/>
<path d="M72.8113 26.2232C72.6829 25.9542 72.6163 25.6599 72.6163 25.3619V21.8909C72.6163 20.7863 71.7209 19.8909 70.6163 19.8909H9.60193C8.49737 19.8909 7.60193 20.7863 7.60193 21.8909V25.3619C7.60193 25.6599 7.53532 25.9542 7.40696 26.2232L0.73013 40.2155C0.601771 40.4845 0.535156 40.7787 0.535156 41.0768V41.586C0.535156 42.6905 1.43059 43.586 2.53516 43.586H77.6831C78.7876 43.586 79.6831 42.6905 79.6831 41.586V41.0768C79.6831 40.7787 79.6165 40.4845 79.4881 40.2155L72.8113 26.2232Z" fill="#FFC100"/>
<path d="M0.535156 41.5375V46.7208C0.535156 49.5344 2.79666 51.9041 5.48189 51.9041C8.16712 51.9041 10.4286 49.5344 10.4286 46.7208V41.5375" fill="#FF5F5A"/>
<path d="M20.3271 41.5375V46.7208C20.3271 49.5344 18.0656 51.9041 15.3803 51.9041C12.6951 51.9041 10.4336 49.5344 10.4336 46.7208V41.5375" fill="#FFC100"/>
<path d="M30.2138 41.5375V46.7208C30.2138 49.5344 27.9523 51.9041 25.2671 51.9041C22.5818 51.9041 20.3203 49.5344 20.3203 46.7208V41.5375" fill="#FF5F5A"/>
<path d="M40.1083 41.5375V46.7208C40.1083 49.5344 37.8468 51.9041 35.1616 51.9041C32.4764 51.9041 30.2148 49.5344 30.2148 46.7208V41.5375" fill="#FFC100"/>
<path d="M40.1094 41.5375V46.7208C40.1094 49.5344 42.3709 51.9041 45.0561 51.9041C47.7414 51.9041 50.0029 49.5344 50.0029 46.7208V41.5375" fill="#FF5F5A"/>
<path d="M50 41.5375V46.7208C50 49.5344 52.2615 51.9041 54.9467 51.9041C57.632 51.9041 59.8935 49.5344 59.8935 46.7208V41.5375" fill="#FFC100"/>
<path d="M59.8984 41.5375V46.7208C59.8984 49.5344 62.1599 51.9041 64.8452 51.9041C67.5304 51.9041 69.7919 49.5344 69.7919 46.7208V41.5375" fill="#FF5F5A"/>
<path d="M69.7891 41.5375V46.7208C69.7891 49.5344 72.0506 51.9041 74.7358 51.9041C77.421 51.9041 79.6825 49.5344 79.6825 46.7208V41.5375" fill="#FFC100"/>
<path d="M30.2198 71.1564H24.5664L37.2866 57.8279H42.94L30.2198 71.1564Z" fill="#E4E7EA"/>
<path d="M59.8984 54.8659H74.032V81.5229H59.8984V54.8659Z" fill="white"/>
<path d="M59.8984 65.165C59.8984 64.3844 60.5312 63.7516 61.3118 63.7516C62.0924 63.7516 62.7251 64.3844 62.7251 65.165V65.3002C62.7251 66.0808 62.0924 66.7135 61.3118 66.7135C60.5312 66.7135 59.8984 66.0808 59.8984 65.3002V65.165Z" fill="#00B6C6"/>
<path d="M59.8984 78.5611V72.6373L74.032 57.8279V63.7517L59.8984 78.5611Z" fill="#E4E7EA"/>
<path d="M40.5091 0.00079374C37.9149 0.00291306 35.3749 0.788226 33.1863 2.26487C30.9976 3.74152 29.2507 5.84844 28.15 8.33918C27.0493 10.8299 26.6402 13.6015 26.9707 16.3297C27.3011 19.0579 28.3574 21.63 30.016 23.745H29.936L39.8693 34.6843C40.0121 34.7979 40.1867 34.8576 40.3652 34.8539C40.5263 34.842 40.6813 34.7833 40.8131 34.6843L49.7546 25.2205H49.8346L50.6184 24.3895C52.4487 22.3191 53.6652 19.7243 54.1166 16.9273C54.5681 14.1302 54.2347 11.2542 53.1579 8.65627C52.0811 6.05839 50.3082 3.85312 48.0595 2.31435C45.8108 0.77558 43.1853 -0.0289083 40.5091 0.00079374ZM40.5091 17.6902C39.6922 17.6902 38.8937 17.4331 38.2147 16.9516C37.5357 16.47 37.0068 15.7856 36.6949 14.9851C36.383 14.1845 36.3022 13.3038 36.4628 12.4546C36.6233 11.6053 37.0179 10.8257 37.5967 10.2144C38.1755 9.60313 38.9123 9.18772 39.7139 9.02081C40.5155 8.85389 41.3457 8.94296 42.0995 9.27675C42.8533 9.61054 43.4968 10.174 43.9483 10.8958C44.3998 11.6176 44.6392 12.4653 44.636 13.3315C44.636 13.9053 44.5292 14.4735 44.3216 15.0034C44.114 15.5333 43.8097 16.0146 43.4263 16.4196C43.0429 16.8245 42.5878 17.1453 42.0872 17.3633C41.5866 17.5814 41.0503 17.6924 40.5091 17.6902Z" fill="#C251C0"/>
</svg>
