<svg width="41" height="40" viewBox="0 0 41 40" fill="none" xmlns="http://www.w3.org/2000/svg">
<rect x="1.44763" y="1" width="38" height="38" rx="5" stroke="#FF0000" stroke-width="2"/>
<path d="M9.75177 14.5588C11.0985 14.5588 11.6035 15.5183 12.0364 16.2379C12.4693 16.9575 14.832 21.1553 15.6437 21.875C16.7259 22.8345 17.1395 21.1202 17.1395 18.948C17.1395 17.2939 16.7259 15.6382 15.5234 14.7987C17.1395 13.8392 19.5455 13.5344 21.1749 13.8392C22.5932 14.1044 22.8182 15.0385 22.738 15.6382C22.6979 17.6372 22.6899 21.6831 22.9785 21.875C24.6619 22.5946 26.9465 16.9575 27.668 15.6382C28.2451 14.5828 29.0307 14.4788 29.3514 14.5588H34.0409C35.4838 14.5588 35.0429 15.5983 34.6421 16.118C33.6401 17.5572 31.4196 20.7476 30.5538 21.9949C29.6881 23.2423 30.2732 24.0339 30.6741 24.2737C31.7562 25.2332 34.0409 27.512 34.6421 28.5915C35.2688 29.7167 34.4818 30.1906 34.0409 30.2706C32.5579 30.3506 29.3995 30.4625 28.6299 30.2706C27.668 30.0307 24.7821 26.6725 23.4595 26.5525C22.1368 26.4326 22.9785 28.4715 22.1368 29.3111C21.2951 30.1507 17.4524 30.4641 13.3591 27.512C8.8688 24.2737 6.1918 17.3173 5.71083 16.2379C5.32605 15.3744 5.41004 14.5588 6.5052 14.5588H9.75177Z" stroke="#FF0000" stroke-width="2"/>
</svg>
