<?xml version="1.0" encoding="utf-8"?>
<!-- Generator: Adobe Illustrator 22.0.1, SVG Export Plug-In . SVG Version: 6.00 Build 0)  -->
<svg version="1.1" id="Слой_1" xmlns="http://www.w3.org/2000/svg" xmlns:xlink="http://www.w3.org/1999/xlink" x="0px" y="0px"
	 viewBox="0 0 64 64" style="enable-background:new 0 0 64 64;" xml:space="preserve">
<style type="text/css">
	.st0{opacity:0.2;}
	.st1{fill:#C13854;}
	.st2{font-family:'GeometricSlab703BT-BoldCond';}
	.st3{font-size:14px;}
</style>
<g class="st0">
	<path class="st1" d="M24.3,31.7h7.8V19.3h-3.9H12.6v29.3H49V2.4c-4.1,0-8.3,0-12.3,0l0,0v33.9H24.3C24.3,36.3,24.3,31.7,24.3,31.7z
		 M40.5,40.1V6.2h4.6v38.4H16.5v-3.4v-1.1v-3.9l0,0v-4.6v-3.9v-1.1v-3.4h11.7v4.6h-3.9h-3.9v3.9v4.6v3.9h3.9L40.5,40.1L40.5,40.1z"
		/>
	<text transform="matrix(1 0 0 1 1.3101 61)" class="st1 st2 st3">partadami.ru</text>
</g>
</svg>
