<svg width="41" height="47" viewBox="0 0 41 47" fill="none" xmlns="http://www.w3.org/2000/svg">
<path d="M21.3125 13.25C20.9142 13.25 20.4922 13.25 20.0701 13.2967H19.9999C12.3126 14.0233 6 21.3204 6 29.453C6 38.8985 14.7735 39.9999 21.3125 39.9999C27.8048 39.9999 35.375 39.0157 36.4297 31.2578C37.5311 22.1639 30.3124 13.25 21.3125 13.25Z" fill="#C251C0"/>
<path d="M36.4297 31.2578C35.375 39.0157 27.8048 39.9999 21.3125 39.9999V13.25C30.3124 13.25 37.5311 22.1639 36.4297 31.2578Z" fill="#C251C0"/>
<path d="M29.4451 3.89069L27.1013 11.0001H15.5236L13.1798 3.89069C13.0388 3.53912 13.1093 3.14056 13.3202 2.836C13.5546 2.53143 13.9061 2.34375 14.2812 2.34375H18.0077C18.4765 0.984192 19.789 0 21.3125 0C22.8359 0 24.125 0.984192 24.6172 2.34375H28.3437C28.7188 2.34375 29.0703 2.53143 29.3047 2.836C29.5156 3.14056 29.5861 3.53912 29.4451 3.89069Z" fill="#C251C0"/>
<path d="M29.4451 3.89069L27.1014 11.0001H21.3125V0C22.8359 0 24.125 0.984192 24.6172 2.34375H28.3437C28.7188 2.34375 29.0704 2.53143 29.3047 2.836C29.5156 3.14056 29.5861 3.53912 29.4451 3.89069Z" fill="#C251C0"/>
<path d="M29.5156 11.7969C29.5156 13.0859 28.4609 14.1406 27.1719 14.1406H15.4531C14.1641 14.1406 13.1094 13.0859 13.1094 11.7969C13.1094 10.5078 14.1641 9.45312 15.4531 9.45312H27.1719C28.4609 9.45312 29.5156 10.5078 29.5156 11.7969Z" fill="#00B6C6"/>
<g clip-path="url(#clip0)">
<path d="M5.92371 33.752C10 32 14 32 18 33.9999L24.0345 34C25.4483 33.752 27 34.9004 27 36.5C27 38.0996 25.596 39.0346 24.0345 39.0346H25.4483L36.459 33.3864C37.5049 32.8497 38.7571 32.9653 39.6929 33.6845L39.7284 33.7114C40.5292 34.3245 41.0007 35.2891 41 36.3134V36.3894C40.9993 37.5743 40.3673 38.664 39.3515 39.2308L27.3463 45.9393C26.1006 46.6352 24.7041 47.0001 23.2851 47.0001H5.65517V33.9656L5.92371 33.752Z" fill="#FFC100"/>
<path d="M5.65527 33.9656H0.000110626V47.0001H5.65527V33.9656Z" fill="#FF5B55"/>
<path d="M5.65527 42.6552H0.000110626V47H5.65527V42.6552Z" fill="#FF5B55"/>
<path d="M17.5714 40H24.4286C24.7441 40 25.5 39.5522 25.5 39C25.5 38.4478 24.7441 38 24.4286 38H17.5714C17.2559 38 16.5 38.4478 16.5 39C16.5 39.5522 17.2559 40 17.5714 40Z" fill="#C251C0"/>
<path d="M20.3127 20.9784H21.9359C23.5407 20.9784 24.38 21.7531 24.38 22.9982C24.38 24.2618 23.5315 25.0365 21.9267 25.0365H20.3127V20.9784ZM23.0381 30.2568C23.5245 30.2568 23.9189 29.8624 23.9189 29.376C23.9189 28.8895 23.5245 28.4952 23.0381 28.4952H20.3127V27.2224H22.6277C25.3485 27.2224 27.2023 25.4423 27.2023 22.9706C27.2023 20.4711 25.4315 18.691 22.766 18.691H18.5273C17.975 18.691 17.5273 19.1388 17.5273 19.691V25.0734H16.8579C16.3056 25.0734 15.8579 25.5211 15.8579 26.0734V26.1763C15.8579 26.7286 16.3056 27.1763 16.8579 27.1763H17.5273V28.4952H16.7387C16.2523 28.4952 15.8579 28.8895 15.8579 29.376C15.8579 29.8624 16.2523 30.2568 16.7387 30.2568H17.5273V31C17.5273 31.5522 17.975 32 18.5273 32H19.3127C19.8649 32 20.3127 31.5522 20.3127 31V30.2568H23.0381Z" fill="#FFC100"/>
</g>
<defs>
<clipPath id="clip0">
<rect width="41" height="42" transform="matrix(-1 0 0 1 41 5)" fill="white"/>
</clipPath>
</defs>
</svg>
