<?xml version="1.0" encoding="utf-8"?>
<!-- Generator: Adobe Illustrator 17.1.0, SVG Export Plug-In . SVG Version: 6.00 Build 0)  -->
<!DOCTYPE svg PUBLIC "-//W3C//DTD SVG 1.1//EN" "http://www.w3.org/Graphics/SVG/1.1/DTD/svg11.dtd">
<svg version="1.1" id="Capa_1" xmlns="http://www.w3.org/2000/svg" xmlns:xlink="http://www.w3.org/1999/xlink" x="0px" y="0px"
	 viewBox="0 0 512 512" enable-background="new 0 0 512 512" xml:space="preserve">
<g>
	<g>
		<path fill="#3DADC2" d="M362.7,224H352v106.7h-96V352h106.7c5.9,0,10.7-4.8,10.7-10.7V234.7C373.3,228.8,368.6,224,362.7,224z"/>
	</g>
</g>
<g>
	<g>
		<path fill="#3DADC2" d="M256,128v21.3c29.5,0,53.3,23.9,53.3,53.3c0,29.5-23.9,53.3-53.3,53.3v21.3c41.2,0,74.7-33.4,74.7-74.7
			C330.7,161.4,297.2,128,256,128z"/>
	</g>
</g>
<g>
	<g>
		<path fill="#3DADC2" d="M490.7,384h-64c-29.4,0-53.3,23.9-53.3,53.3v64c0,5.9,4.8,10.7,10.7,10.7c2.8,0,5.5-1.1,7.5-3.1
			l106.7-106.7c2-2,3.1-4.7,3.1-7.5C501.3,388.8,496.6,384,490.7,384z M394.7,475.6v-38.3c0-17.7,14.3-32,32-32h38.3L394.7,475.6z"
			/>
	</g>
</g>
<g>
	<g>
		<path fill="#3DADC2" d="M448,42.7H245.3V64H448c17.7,0,32,14.3,32,32v294.3L379.6,490.7H256V512h128c2.8,0,5.5-1.1,7.5-3.1
			l106.7-106.7c2-2,3.1-4.7,3.1-7.5V96C501.3,66.6,477.4,42.7,448,42.7z"/>
	</g>
</g>
<g>
	<g>
		<rect x="21.3" y="309.3" fill="#3DADC2" width="42.7" height="21.3"/>
	</g>
</g>
<g>
	<g>
		<rect x="21.3" y="437.3" fill="#3DADC2" width="42.7" height="21.3"/>
	</g>
</g>
<g>
	<g>
		<rect x="21.3" y="53.3" fill="#3DADC2" width="42.7" height="21.3"/>
	</g>
</g>
<g>
	<g>
		<rect x="21.3" y="181.3" fill="#3DADC2" width="42.7" height="21.3"/>
	</g>
</g>
<g>
	<g>
		<path fill="#3DADC2" d="M117.3,21.3V0H32C20.2,0,10.7,9.6,10.7,21.3v469.3c0,11.8,9.6,21.3,21.3,21.3h53.3v-21.3H32V21.3H117.3z"
			/>
	</g>
</g>
<g>
	<g>
		<rect x="21.3" y="245.3" fill="#3DADC2" width="64" height="21.3"/>
	</g>
</g>
<g>
	<g>
		<rect x="21.3" y="373.3" fill="#3DADC2" width="64" height="21.3"/>
	</g>
</g>
<g>
	<g>
		<rect x="21.3" y="117.3" fill="#3DADC2" width="64" height="21.3"/>
	</g>
</g>
<g>
	<g>
		<rect x="160" y="106.7" fill="#FFFFFF" width="21.3" height="330.7"/>
	</g>
</g>
<g>
	<g>
		<path fill="#FFFFFF" d="M222.9,91.2L180.2,5.9c-0.9-1.6-2.3-2.9-3.9-3.9c-5.3-3.1-12.1-1.4-15.2,3.9l-42.7,85.3
			c-0.7,1.5-1.1,3.1-1.1,4.8v405.3c0,5.9,4.8,10.7,10.7,10.7h85.3c5.9,0,10.7-4.8,10.7-10.7V96C224,94.3,223.6,92.7,222.9,91.2z
			 M202.7,490.7h-64V98.5l32-64l32,64V490.7z"/>
	</g>
</g>
<g>
	<g>
		<path fill="#FFFFFF" d="M184.5,88.5c-5.3,5.2-7.8,7.5-13.8,7.5c-6,0-8.6-2.3-13.8-7.5c-7.1-8.6-17.7-13.7-28.9-13.8V96
			c6,0,8.5,2.3,13.8,7.5c7.1,8.6,17.7,13.7,28.9,13.8c11.2-0.1,21.7-5.2,28.9-13.8c5.3-5.2,7.8-7.5,13.8-7.5V74.7
			C202.1,74.8,191.6,79.8,184.5,88.5z"/>
	</g>
</g>
<g>
	<g>
		<rect x="149.3" y="32" fill="#FFFFFF" width="42.7" height="21.3"/>
	</g>
</g>
<g>
	<g>
		<rect x="128" y="426.7" fill="#FFFFFF" width="85.3" height="21.3"/>
	</g>
</g>
</svg>
