<?xml version="1.0" encoding="utf-8"?>
<!-- Generator: Adobe Illustrator 17.1.0, SVG Export Plug-In . SVG Version: 6.00 Build 0)  -->
<!DOCTYPE svg PUBLIC "-//W3C//DTD SVG 1.1//EN" "http://www.w3.org/Graphics/SVG/1.1/DTD/svg11.dtd">
<svg version="1.1" id="Слой_1" xmlns="http://www.w3.org/2000/svg" xmlns:xlink="http://www.w3.org/1999/xlink" x="0px" y="0px"
	 viewBox="135 0 30 30" enable-background="new 135 0 30 30" xml:space="preserve">
<path fill="#3DAFC4" d="M163.4,15.5l0.3-0.5l-0.3-0.5c0-0.1-1.2-1.9-3.4-3.7c-2.9-2.4-6.4-3.7-10-3.7c-3.6,0-7,1.3-10,3.7
	c-2.2,1.8-3.4,3.7-3.4,3.7l-0.3,0.5l0.3,0.5c0,0.1,1.2,1.9,3.4,3.7c2.9,2.4,6.4,3.7,10,3.7c3.6,0,7-1.3,10-3.7
	C162.2,17.4,163.3,15.5,163.4,15.5z M158.8,17.9c-2.6,2.2-5.6,3.3-8.8,3.3c-3.2,0-6.2-1.1-8.8-3.3c-1.4-1.1-2.3-2.3-2.8-2.9
	c0.5-0.6,1.4-1.8,2.8-2.9c2.6-2.2,5.6-3.3,8.8-3.3c3.2,0,6.2,1.1,8.8,3.3c1.4,1.1,2.3,2.3,2.7,2.9C161.1,15.6,160.2,16.8,158.8,17.9
	z"/>
<path fill="#3DAFC4" d="M150,9.7c-2.9,0-5.3,2.4-5.3,5.3s2.4,5.3,5.3,5.3s5.3-2.4,5.3-5.3S152.9,9.7,150,9.7z M150,18.5
	c-1.9,0-3.5-1.6-3.5-3.5s1.6-3.5,3.5-3.5s3.5,1.6,3.5,3.5S151.9,18.5,150,18.5z"/>
<path fill="#3DAFC4" d="M136.8,1.8h3.7V0H135v5.4h1.8V1.8z"/>
<path fill="#3DAFC4" d="M159.6,0v1.8h3.7v3.6h1.8V0H159.6z"/>
<path fill="#3DAFC4" d="M136.8,24.6H135V30h5.4v-1.8h-3.7V24.6z"/>
<path fill="#3DAFC4" d="M163.2,28.2h-3.7V30h5.4v-5.4h-1.8V28.2z"/>
</svg>
