<?xml version="1.0" encoding="iso-8859-1"?>
<!-- Generator: Adobe Illustrator 19.0.0, SVG Export Plug-In . SVG Version: 6.00 Build 0)  -->
<svg version="1.1" id="Capa_1" xmlns="http://www.w3.org/2000/svg" xmlns:xlink="http://www.w3.org/1999/xlink" x="0px" y="0px"
	 viewBox="0 0 512 512" style="enable-background:new 0 0 512 512;" xml:space="preserve">
<g>
	<path id="SVGCleanerId_0" style="fill:#FBCCAD;" d="M429.559,425.22v-47.009c0-23.483-15.716-44.058-38.374-50.237l-77.911-21.235
		c-12.921-1.736-22.563-12.765-22.563-25.808v-46.627h-69.424v46.627c0,13.043-9.641,24.073-22.563,25.808l-77.876,21.235
		c-22.667,6.161-38.409,26.746-38.409,50.237v47.009h60.746v78.102h225.627V425.22H429.559z"/>
</g>
<g>
	<path id="SVGCleanerId_0_1_" style="fill:#FBCCAD;" d="M429.559,425.22v-47.009c0-23.483-15.716-44.058-38.374-50.237
		l-77.911-21.235c-12.921-1.736-22.563-12.765-22.563-25.808v-46.627h-69.424v46.627c0,13.043-9.641,24.073-22.563,25.808
		l-77.876,21.235c-22.667,6.161-38.409,26.746-38.409,50.237v47.009h60.746v78.102h225.627V425.22H429.559z"/>
</g>
<g>
	<path id="SVGCleanerId_0_2_" style="fill:#FBCCAD;" d="M429.559,425.22v-47.009c0-23.483-15.716-44.058-38.374-50.237
		l-77.911-21.235c-12.921-1.736-22.563-12.765-22.563-25.808v-46.627h-69.424v46.627c0,13.043-9.641,24.073-22.563,25.808
		l-77.876,21.235c-22.667,6.161-38.409,26.746-38.409,50.237v47.009h60.746v78.102h225.627V425.22H429.559z"/>
</g>
<g>
	<rect x="82.441" y="416.542" style="fill:#FBCCAD;" width="52.068" height="95.458"/>
	<rect x="377.492" y="416.542" style="fill:#FBCCAD;" width="52.068" height="95.458"/>
</g>
<path style="fill:#FFC096;" d="M290.712,269.885v-35.58h-69.424v35.58c10.709,5.545,22.658,8.235,34.712,7.81
	C268.054,278.12,280.003,275.43,290.712,269.885z"/>
<path style="fill:#A2DAEB;" d="M391.185,327.975l-77.911-21.235c-2.057-0.295-4.07-0.85-5.996-1.631L256,399.186l-51.313-94.078
	c-1.926,0.781-3.94,1.336-5.996,1.631l-77.876,21.235c-22.658,6.179-38.374,26.754-38.374,50.237v47.009h60.746V512h225.627v-86.78
	h60.746v-47.009C429.559,354.729,413.844,334.154,391.185,327.975z"/>
<path style="fill:#8DCFE3;" d="M391.185,327.975l-17.191-4.686C323.888,426.956,215.214,457.685,143.186,468.61V512h225.627v-86.78
	h60.746v-47.009C429.559,354.729,413.844,334.154,391.185,327.975z"/>
<path style="fill:#F8AC4F;" d="M334.857,36.899l-18.111-10.865C316.746,11.655,305.091,0,290.712,0H177.898l17.356,26.034
	l-18.111,10.865c-15.69,9.416-25.288,26.372-25.279,44.674v57.275h208.271V81.573C360.144,63.271,350.546,46.314,334.857,36.899z"/>
<path style="fill:#FBCCAD;" d="M334.102,182.237c0,43.138-34.964,78.102-78.102,78.102l0,0l0,0
	c-43.138,0-78.102-34.964-78.102-78.102l0,0v-60.746l17.356-52.068h121.492l17.356,52.068V182.237z"/>
<rect x="247.322" y="390.508" style="fill:#7BBDD1;" width="17.356" height="121.492"/>
<g>
	<path style="fill:#FAB98F;" d="M169.22,121.492h8.678l0,0v52.068l0,0h-8.678c-14.379,0-26.034-11.655-26.034-26.034l0,0
		C143.186,133.146,154.841,121.492,169.22,121.492z"/>
	<path style="fill:#FAB98F;" d="M342.78,173.559h-8.678l0,0v-52.068l0,0h8.678c14.379,0,26.034,11.655,26.034,26.034l0,0
		C368.814,161.905,357.159,173.559,342.78,173.559z"/>
</g>
<g>
	<path style="fill:#4398D1;" d="M221.288,156.203c-9.589,0-17.356-7.767-17.356-17.356s7.767-17.356,17.356-17.356
		c9.589,0,17.356,7.767,17.356,17.356S230.877,156.203,221.288,156.203z"/>
	<path style="fill:#4398D1;" d="M290.712,156.203c-9.589,0-17.356-7.767-17.356-17.356s7.767-17.356,17.356-17.356
		c9.589,0,17.356,7.767,17.356,17.356S300.301,156.203,290.712,156.203z"/>
</g>
<g>
	<rect x="134.508" y="390.508" style="fill:#7BBDD1;" width="17.356" height="121.492"/>
	<rect x="360.136" y="390.508" style="fill:#7BBDD1;" width="17.356" height="121.492"/>
	<rect x="282.034" y="433.898" style="fill:#7BBDD1;" width="60.746" height="17.356"/>
</g>
<path style="fill:#F7A6A6;" d="M229.966,190.915h52.068c9.589,0,17.356,7.767,17.356,17.356l0,0c0,9.589-7.767,17.356-17.356,17.356
	h-52.068c-9.589,0-17.356-7.767-17.356-17.356l0,0C212.61,198.682,220.377,190.915,229.966,190.915z"/>
<rect x="264.678" y="190.915" style="fill:#FFFFFF;" width="17.356" height="17.356"/>
<path style="fill:#A2DAEB;" d="M177.898,173.559v8.678c0,43.138,34.964,78.102,78.102,78.102s78.102-34.964,78.102-78.102v-8.678
	H177.898z"/>
<g>
</g>
<g>
</g>
<g>
</g>
<g>
</g>
<g>
</g>
<g>
</g>
<g>
</g>
<g>
</g>
<g>
</g>
<g>
</g>
<g>
</g>
<g>
</g>
<g>
</g>
<g>
</g>
<g>
</g>
</svg>
