<?xml version="1.0" encoding="iso-8859-1"?>
<!-- Generator: Adobe Illustrator 19.0.0, SVG Export Plug-In . SVG Version: 6.00 Build 0)  -->
<svg version="1.1" id="Capa_1" xmlns="http://www.w3.org/2000/svg" xmlns:xlink="http://www.w3.org/1999/xlink" x="0px" y="0px"
	 viewBox="0 0 511.997 511.997" style="enable-background:new 0 0 511.997 511.997;" xml:space="preserve">
<polygon style="fill:#4398D1;" points="94.126,34.639 17.454,9.081 8.935,26.12 60.05,51.677 43.012,145.388 25.973,469.115 
	60.05,503.191 94.126,469.115 77.088,145.388 "/>
<g>
	<polygon style="fill:#3570AB;" points="79.329,187.983 40.771,187.983 39.877,205.022 80.223,205.022 	"/>
	<polygon style="fill:#3570AB;" points="81.126,222.06 38.974,222.06 38.079,239.098 82.021,239.098 	"/>
	<polygon style="fill:#3570AB;" points="82.915,256.136 37.185,256.136 36.29,273.175 83.81,273.175 	"/>
	<polygon style="fill:#3570AB;" points="35.387,290.213 34.492,307.251 85.607,307.251 84.713,290.213 	"/>
	<polygon style="fill:#3570AB;" points="32.695,341.328 87.405,341.328 86.502,324.289 33.598,324.289 	"/>
	<polygon style="fill:#3570AB;" points="30.906,375.404 89.194,375.404 88.299,358.366 31.8,358.366 	"/>
</g>
<rect x="153.769" y="102.826" style="fill:#A2DAEB;" width="34.077" height="306.689"/>
<g>
	<path style="fill:#4398D1;" d="M179.318,102.792h-17.038V60.196c0-2.258,0.895-4.43,2.496-6.023l18.614-18.614l-26.222-19.662
		l10.223-13.631l34.077,25.557c3.765,2.82,4.524,8.161,1.704,11.927c-0.239,0.324-0.503,0.63-0.792,0.912l-23.061,23.061V102.792z"
		/>
	<path style="fill:#4398D1;" d="M179.318,511.71h-25.719c-18.734,0.009-33.932-15.173-33.94-33.906
		c-0.009-13.878,8.442-26.358,21.323-31.512l21.298-8.519v-28.292h17.038v34.077c0,3.484-2.121,6.619-5.359,7.914l-26.631,10.649
		c-8.655,3.45-12.872,13.273-9.422,21.928c2.564,6.423,8.783,10.632,15.692,10.623h25.719V511.71z"/>
</g>
<g>
	<rect x="153.769" y="136.903" style="fill:#8DCFE3;" width="34.077" height="17.038"/>
	<rect x="153.769" y="358.4" style="fill:#8DCFE3;" width="34.077" height="17.038"/>
</g>
<ellipse transform="matrix(-0.3717 -0.9283 0.9283 -0.3717 556.0991 513.8481)" style="fill:#A2DAEB;" cx="451.93" cy="68.747" rx="61.105" ry="49.315"/>
<rect x="460.458" y="213.575" style="fill:#4398D1;" width="34.077" height="289.651"/>
<rect x="468.977" y="102.826" style="fill:#8DCFE3;" width="17.038" height="110.749"/>
<rect x="460.458" y="239.132" style="fill:#3570AB;" width="34.077" height="17.038"/>
<g>
	<path style="fill:#8DCFE3;" d="M481.125,25.353l-63.621,80.932c16.433,20.131,41.394,27.917,61.261,17.183
		c24.024-12.966,31.521-48.014,16.655-78.274C491.825,37.808,486.986,31.103,481.125,25.353z"/>
	<path style="fill:#8DCFE3;" d="M382.61,410.069l-41.539-257.516c-0.349-2.181-1.525-4.14-3.297-5.461l-30.379-22.789l8.229-123.178
		L298.586,0l-8.519,127.787c-0.187,2.879,1.099,5.657,3.408,7.378l31.325,23.496l40.611,251.792
		c-27.781,5.367-45.952,32.245-40.577,60.026c5.367,27.781,32.245,45.952,60.026,40.577c27.781-5.367,45.952-32.245,40.577-60.026
		C421.304,429.663,404.138,413.246,382.61,410.069z M375.258,494.672c-18.819,0-34.077-15.258-34.077-34.077
		c0-18.819,15.258-34.077,34.077-34.077s34.077,15.258,34.077,34.077C409.334,479.414,394.077,494.672,375.258,494.672z"/>
</g>
<g>
	<path style="fill:#4398D1;" d="M255.99,511.71c-28.232,0-51.115-22.882-51.115-51.115c0-28.232,22.882-51.115,51.115-51.115
		s51.115,22.882,51.115,51.115C307.079,488.811,284.205,511.685,255.99,511.71z M255.99,426.519
		c-18.819,0-34.077,15.258-34.077,34.077c0,18.819,15.258,34.077,34.077,34.077s34.077-15.258,34.077-34.077
		C290.066,441.777,274.809,426.519,255.99,426.519z"/>
	<path style="fill:#4398D1;" d="M264.398,419.354l-16.817-2.709l42.596-264.093c0.349-2.181,1.525-4.14,3.297-5.461l30.379-22.789
		L315.624,1.125L332.662,0l8.519,127.787c0.187,2.879-1.099,5.657-3.408,7.378l-31.325,23.496L264.398,419.354z"/>
	<rect x="298.594" y="452.111" style="fill:#4398D1;" width="25.557" height="17.038"/>
</g>
<g>
	<rect x="162.288" y="85.788" style="fill:#3570AB;" width="17.038" height="17.038"/>
	<rect x="162.288" y="409.515" style="fill:#3570AB;" width="17.038" height="17.038"/>
</g>
<g>
</g>
<g>
</g>
<g>
</g>
<g>
</g>
<g>
</g>
<g>
</g>
<g>
</g>
<g>
</g>
<g>
</g>
<g>
</g>
<g>
</g>
<g>
</g>
<g>
</g>
<g>
</g>
<g>
</g>
</svg>
