<?xml version="1.0" encoding="iso-8859-1"?>
<!-- Generator: Adobe Illustrator 19.0.0, SVG Export Plug-In . SVG Version: 6.00 Build 0)  -->
<svg version="1.1" id="Capa_1" xmlns="http://www.w3.org/2000/svg" xmlns:xlink="http://www.w3.org/1999/xlink" x="0px" y="0px"
	 viewBox="0 0 512 512" style="enable-background:new 0 0 512 512;" xml:space="preserve">
<path style="fill:#F7A6A6;" d="M503.467,268.8l-33.673-26.189c-23.91-18.603-58.334-14.532-77.261,9.122h-74.138
	c-12.382,0-23.996-5.982-31.198-16.051l0,0c-12.297-17.229-36.241-21.222-53.47-8.926c-3.447,2.458-6.468,5.478-8.926,8.926l0,0
	c-7.202,10.069-18.816,16.051-31.198,16.051h-74.138c-18.927-23.654-53.35-27.725-77.261-9.122L8.533,268.8v238.933h494.933V268.8z"
	/>
<path style="fill:#F59A9A;" d="M8.533,444.535v63.198h494.933V268.8l-4.958-3.857C368.469,398.874,134.289,434.927,8.533,444.535z"
	/>
<path style="fill:#E6E6E6;" d="M214.963,20.813L214.963,20.813c-12.339-5.282-25.617-8.013-39.04-8.013l0,0
	c-54.741,0-99.123,44.382-99.123,99.123l0,0c0,46.754,13.141,92.57,37.922,132.215l4.745,7.595l22.383,179.038
	c1.835,14.72,14.353,25.762,29.184,25.762l0,0c14.515,0,26.863-10.59,29.073-24.943l26.402-171.622
	c2.253-14.549,14.771-25.293,29.491-25.301l0,0c14.72,0.009,27.238,10.752,29.491,25.301l26.402,171.622
	c2.21,14.353,14.558,24.943,29.073,24.943l0,0c14.831,0,27.349-11.042,29.184-25.762l22.383-179.038l4.745-7.595
	c24.781-39.646,37.922-85.461,37.922-132.215l0,0c0-54.741-44.382-99.123-99.123-99.123l0,0l0,0c-13.423,0-26.701,2.731-39.04,8.013
	l0,0C270.831,32.043,241.169,32.043,214.963,20.813z"/>
<path style="fill:#DEDEDE;" d="M369.69,18.773c-51.2,138.24-176.64,213.333-248.559,246.272l20.719,165.726
	c2.014,16.119,16.708,27.554,32.828,25.549c13.039-1.63,23.415-11.708,25.429-24.695l26.402-171.622
	c2.611-16.29,17.929-27.375,34.21-24.772c12.74,2.039,22.733,12.032,24.772,24.772l26.402,171.588
	c2.483,16.051,17.51,27.059,33.562,24.576c12.988-2.005,23.066-12.39,24.695-25.429l22.383-179.004l4.745-7.595
	c24.781-39.646,37.922-85.461,37.922-132.215l0,0C435.174,70.17,408.977,32.913,369.69,18.773z"/>
<g>
	<path style="fill:#F2F2F2;" d="M128,115.2h-17.067c0-46.037,32.427-64.674,49.493-68.096l3.413,16.725l-1.707-8.363l1.707,8.354
		C162.389,64.137,128,71.927,128,115.2z"/>
	<rect x="179.2" y="46.933" style="fill:#F2F2F2;" width="17.067" height="17.067"/>
</g>
<g>
	<rect x="477.867" y="157.867" style="fill:#F9BC61;" width="17.067" height="51.2"/>
	<rect x="460.8" y="174.933" style="fill:#F9BC61;" width="51.2" height="17.067"/>
	<rect x="17.067" y="4.267" style="fill:#F9BC61;" width="17.067" height="51.2"/>
	<rect y="21.333" style="fill:#F9BC61;" width="51.2" height="17.067"/>
</g>
<g>
</g>
<g>
</g>
<g>
</g>
<g>
</g>
<g>
</g>
<g>
</g>
<g>
</g>
<g>
</g>
<g>
</g>
<g>
</g>
<g>
</g>
<g>
</g>
<g>
</g>
<g>
</g>
<g>
</g>
</svg>
