<?xml version="1.0" encoding="iso-8859-1"?>
<!-- Generator: Adobe Illustrator 19.0.0, SVG Export Plug-In . SVG Version: 6.00 Build 0)  -->
<svg version="1.1" id="Capa_1" xmlns="http://www.w3.org/2000/svg" xmlns:xlink="http://www.w3.org/1999/xlink" x="0px" y="0px"
	 viewBox="0 0 512 512" style="enable-background:new 0 0 512 512;" xml:space="preserve">
<path style="fill:#F7A6A6;" d="M426.372,293.332c-22.007-6.294-45.374,3.99-55.614,24.461h-61.793
	c-21.937-29.255-63.435-35.178-92.69-13.241c-5.023,3.761-9.481,8.218-13.241,13.241h-61.793
	c-10.24-20.471-33.607-30.755-55.614-24.461L0,317.793V512h512V317.793L426.372,293.332z"/>
<path style="fill:#F59A9A;" d="M0,512h512V317.793l-11.97-3.416C351.585,443.666,107.123,460.306,0,464.649V512z"/>
<path style="fill:#E6E6E6;" d="M206.645,128.883L206.645,128.883c-8.21-3.505-17.046-5.314-25.971-5.297l0,0
	c-36.405,0-65.916,29.511-65.916,65.916l0,0l0,0c0,38.135,6.859,75.961,20.25,111.669l6.232,16.622l7.292,131.213
	c0.865,15.528,13.709,27.683,29.263,27.683l0,0c14.504,0,26.827-10.62,28.981-24.964l18.812-125.352
	c2.242-15.069,15.175-26.227,30.411-26.236l0,0c15.219,0,28.151,11.14,30.411,26.191l18.812,125.352
	c2.127,14.362,14.46,25,28.981,25.009l0,0c15.554,0,28.398-12.156,29.263-27.683l7.292-131.213l6.232-16.622
	c13.391-35.708,20.25-73.534,20.25-111.669l0,0c0-36.405-29.511-65.916-65.916-65.916l0,0c-8.925-0.018-17.761,1.792-25.971,5.297
	l0,0C273.841,142.389,238.159,142.389,206.645,128.883z"/>
<path style="fill:#F2F2F2;" d="M158.897,211.862h-17.655v-10.593c0.468-21.063,12.288-40.218,30.897-50.079l8.757,15.325
	c-13.082,6.771-21.495,20.074-21.998,34.798V211.862z"/>
<g>
	<path style="fill:#DEDEDE;" d="M148.533,449.006c0.856,16.163,14.654,28.575,30.817,27.719c13.93-0.733,25.415-11.193,27.445-25
		l14.548-96.98c-24.108,13.444-49.708,24.029-76.279,31.532L148.533,449.006z"/>
	<path style="fill:#DEDEDE;" d="M280.982,313.141c2.825,3.902,4.687,8.422,5.429,13.188l18.812,125.352
		c2.357,16.013,17.249,27.083,33.262,24.726c13.806-2.03,24.267-13.515,25-27.445l7.274-131.169l6.232-16.622
		c13.391-35.708,20.25-73.534,20.25-111.669c0-9.446-2.048-18.785-5.994-27.366C366.08,219.983,328.422,271.554,280.982,313.141z"/>
</g>
<polygon style="fill:#F9BC61;" points="512,97.103 459.034,97.103 512,0 361.931,97.103 423.724,97.103 361.931,211.862 "/>
<g>
</g>
<g>
</g>
<g>
</g>
<g>
</g>
<g>
</g>
<g>
</g>
<g>
</g>
<g>
</g>
<g>
</g>
<g>
</g>
<g>
</g>
<g>
</g>
<g>
</g>
<g>
</g>
<g>
</g>
</svg>
