<?xml version="1.0" encoding="iso-8859-1"?>
<!-- Generator: Adobe Illustrator 19.0.0, SVG Export Plug-In . SVG Version: 6.00 Build 0)  -->
<svg version="1.1" id="Capa_1" xmlns="http://www.w3.org/2000/svg" xmlns:xlink="http://www.w3.org/1999/xlink" x="0px" y="0px"
	 viewBox="0 0 512 512" style="enable-background:new 0 0 512 512;" xml:space="preserve">
<path style="fill:#E6E6E6;" d="M100.361,170.704L100.361,170.704c-8.956-3.844-18.588-5.823-28.334-5.823l0,0
	C32.247,164.881,0,197.129,0,236.908l0,0c0.009,32.534,7.585,64.625,22.129,93.722l12.583,25.166l14.917,134.222
	C51.018,502.532,61.588,512,74.179,512l0,0c12.227,0,22.623-8.947,24.437-21.044l19.013-126.768
	c2.222-14.796,14.935-25.748,29.896-25.748l0,0c14.961,0,27.674,10.952,29.896,25.748l19.013,126.768
	c1.814,12.097,12.21,21.044,24.437,21.044l0,0c12.592,0,23.161-9.468,24.55-21.981l14.917-134.222l12.583-25.166
	c14.544-29.097,22.12-61.188,22.129-93.722l0,0c0-39.78-32.247-72.027-72.027-72.027l0,0c-9.754,0-19.395,1.979-28.36,5.823l0,0
	C164.552,183.6,130.473,183.6,100.361,170.704z"/>
<path style="fill:#F2F2F2;" d="M43.39,260.339H26.034v-12.106c-0.026-22.45,11.203-43.425,29.896-55.86l9.633,14.44
	c-13.867,9.216-22.19,24.767-22.172,41.42V260.339z"/>
<g>
	<path style="fill:#DEDEDE;" d="M49.629,490.019c1.51,13.564,13.729,23.335,27.284,21.825c11.134-1.241,20.037-9.806,21.704-20.888
		l14.536-96.933c-21.981,16.532-45.117,31.458-69.233,44.674L49.629,490.019z"/>
	<path style="fill:#DEDEDE;" d="M270.084,182.446c-20.246,62.152-55.287,118.454-102.114,164.057
		c5.077,4.643,8.409,10.882,9.45,17.686l19.013,126.768c2.022,13.494,14.605,22.788,28.099,20.766
		c11.073-1.666,19.647-10.57,20.888-21.704l14.917-134.222l12.583-25.166c14.544-29.097,22.12-61.188,22.129-93.722l0,0
		C295.068,215.986,285.948,196.096,270.084,182.446z"/>
</g>
<circle style="fill:#3E8CC7;" cx="216.949" cy="242.983" r="34.712"/>
<path style="fill:#4398D1;" d="M364.475,399.186H251.661c-23.96,0-43.39-19.43-43.39-43.39V251.661c0-4.79,3.888-8.678,8.678-8.678
	l0,0c4.79,0,8.678,3.888,8.678,8.678v104.136c0,14.379,11.655,26.034,26.034,26.034h112.814c14.379,0,26.034-11.654,26.034-26.034
	V199.593h17.356v156.203C407.864,379.757,388.434,399.186,364.475,399.186z"/>
<rect x="390.508" y="199.593" style="fill:#3E8CC7;" width="17.356" height="26.034"/>
<path style="fill:#4398D1;" d="M399.186,208.271c-62.273-0.069-112.744-50.54-112.814-112.814V8.678c0-4.79,3.888-8.678,8.678-8.678
	h43.39v17.356h-34.712v78.102c0,52.719,42.739,95.458,95.458,95.458s95.458-42.739,95.458-95.458V17.356h-34.712V0h43.39
	C508.112,0,512,3.888,512,8.678v86.78C511.931,157.731,461.46,208.202,399.186,208.271z"/>
<g>
</g>
<g>
</g>
<g>
</g>
<g>
</g>
<g>
</g>
<g>
</g>
<g>
</g>
<g>
</g>
<g>
</g>
<g>
</g>
<g>
</g>
<g>
</g>
<g>
</g>
<g>
</g>
<g>
</g>
</svg>
