<?xml version="1.0" encoding="utf-8"?>
<!-- Generator: Adobe Illustrator 17.1.0, SVG Export Plug-In . SVG Version: 6.00 Build 0)  -->
<!DOCTYPE svg PUBLIC "-//W3C//DTD SVG 1.1//EN" "http://www.w3.org/Graphics/SVG/1.1/DTD/svg11.dtd">
<svg version="1.1" id="Слой_1" xmlns="http://www.w3.org/2000/svg" xmlns:xlink="http://www.w3.org/1999/xlink" x="0px" y="0px"
	 viewBox="135 0 30 30" enable-background="new 135 0 30 30" xml:space="preserve">
<path fill="#3DAFC4" d="M155.6,21c-0.3,0-0.6,0.3-0.6,0.6s0.3,0.6,0.6,0.6c0.3,0,0.6-0.3,0.6-0.6S156,21,155.6,21z"/>
<path fill="#3DAFC4" d="M150.6,10.7c0-0.3-0.3-0.6-0.6-0.6c-0.3,0-0.6,0.3-0.6,0.6c0,0.3,0.3,0.6,0.6,0.6
	C150.3,11.3,150.6,11,150.6,10.7z"/>
<path fill="#3DAFC4" d="M144.4,22.2c0.3,0,0.6-0.3,0.6-0.6s-0.3-0.6-0.6-0.6c-0.3,0-0.6,0.3-0.6,0.6S144,22.2,144.4,22.2z"/>
<path fill="#3DAFC4" d="M164.7,25l-3.2-1.4V10.7c0-0.2-0.1-0.4-0.4-0.5l-10.6-4.5V1.3c0-0.3-0.3-0.6-0.6-0.6c-0.3,0-0.6,0.3-0.6,0.6
	v4.3l-10.6,4.5c-0.2,0.1-0.4,0.3-0.4,0.5v12.9l-3.2,1.4c-0.3,0.1-0.4,0.5-0.3,0.8c0.1,0.3,0.5,0.4,0.8,0.3l3.3-1.5l10.7,4.6
	c0.1,0.1,0.3,0.1,0.5,0l10.7-4.6l3.3,1.5c0.3,0.1,0.6,0,0.8-0.3C165.1,25.5,165,25.1,164.7,25z M149.4,6.9v1.5
	c0,0.3,0.3,0.6,0.6,0.6c0.3,0,0.6-0.3,0.6-0.6V6.9l8.8,3.8l-9.4,4.1l-9.4-4.1L149.4,6.9z M142.8,22.3c-0.1-0.3-0.5-0.4-0.8-0.3
	l-2.3,1V11.6l9.7,4.2v12l-8.9-3.8l1.9-0.8C142.8,23,142.9,22.6,142.8,22.3z M150.6,27.8v-12l9.7-4.2v11.5l-2.3-1
	c-0.3-0.1-0.6,0-0.8,0.3c-0.1,0.3,0,0.6,0.3,0.8l1.9,0.8L150.6,27.8z"/>
</svg>
