<?xml version="1.0" encoding="utf-8"?>
<!-- Generator: Adobe Illustrator 17.1.0, SVG Export Plug-In . SVG Version: 6.00 Build 0)  -->
<!DOCTYPE svg PUBLIC "-//W3C//DTD SVG 1.1//EN" "http://www.w3.org/Graphics/SVG/1.1/DTD/svg11.dtd">
<svg version="1.1" id="Слой_1" xmlns="http://www.w3.org/2000/svg" xmlns:xlink="http://www.w3.org/1999/xlink" x="0px" y="0px"
	 viewBox="241 241 30 30" enable-background="new 241 241 30 30" xml:space="preserve">
<path fill="#3DAFC4" d="M261.5,247.1l-2.1,1.2c-0.3-0.2-0.5-0.3-0.8-0.5v-2.4h-5.3v2.4c-0.3,0.1-0.6,0.3-0.8,0.5l-2.1-1.2l-2.6,4.6
	l2,1.2c0,0.3,0,0.6,0,1l-2,1.2l2.6,4.6l2.1-1.2c0.3,0.2,0.5,0.3,0.8,0.5v2.4h5.3v-2.4c0.3-0.1,0.6-0.3,0.8-0.5l2.1,1.2l2.6-4.6
	l-2-1.2c0-0.3,0-0.6,0-1l2-1.2L261.5,247.1z M260.2,254.8l1.6,0.9l-0.9,1.5l-1.6-0.9c-1.1,1-1.2,1-2.4,1.4v1.8h-1.8v-1.8
	c-1.4-0.5-1.4-0.6-2.4-1.4l-1.6,0.9l-0.9-1.5l1.6-0.9c-0.3-1.4-0.3-1.4,0-2.8l-1.6-0.9l0.9-1.5l1.6,0.9c1.1-1,1.2-1,2.4-1.4v-1.8
	h1.8v1.8c1.4,0.5,1.4,0.5,2.4,1.4l1.6-0.9l0.9,1.5l-1.6,0.9C260.5,253.4,260.5,253.4,260.2,254.8z"/>
<path fill="#3DAFC4" d="M256,250.7c-1.5,0-2.6,1.2-2.6,2.6s1.2,2.6,2.6,2.6s2.6-1.2,2.6-2.6S257.5,250.7,256,250.7z M256,254.2
	c-0.5,0-0.9-0.4-0.9-0.9s0.4-0.9,0.9-0.9c0.5,0,0.9,0.4,0.9,0.9S256.5,254.2,256,254.2z"/>
<path fill="#3DAFC4" d="M264.8,241.9h-17.7c-3.4,0-6.2,2.8-6.2,6.2v10.5c0,3.1,2.3,5.7,5.3,6.1v5.3h1.6l5-5.3h11.9
	c3.4,0,6.2-2.8,6.2-6.2v-10.5C271,244.7,268.2,241.9,264.8,241.9z M269.2,258.6c0,2.4-2,4.4-4.4,4.4h-12.7l-4.1,4.4V263h-0.9
	c-2.4,0-4.4-2-4.4-4.4v-10.5c0-2.4,2-4.4,4.4-4.4h17.7c2.4,0,4.4,2,4.4,4.4V258.6z"/>
</svg>
