<?xml version="1.0" encoding="utf-8"?>
<!-- Generator: Adobe Illustrator 17.1.0, SVG Export Plug-In . SVG Version: 6.00 Build 0)  -->
<!DOCTYPE svg PUBLIC "-//W3C//DTD SVG 1.1//EN" "http://www.w3.org/Graphics/SVG/1.1/DTD/svg11.dtd">
<svg version="1.1" id="Capa_1" xmlns="http://www.w3.org/2000/svg" xmlns:xlink="http://www.w3.org/1999/xlink" x="0px" y="0px"
	 viewBox="135 0 30 30" enable-background="new 135 0 30 30" xml:space="preserve">
<g>
	<g>
		<path fill="#3DAFC4" d="M162.5,18.6c0.4-0.5,0.7-1.1,0.7-1.8c0-1.5-1.2-2.6-2.6-2.6h-5.1c0.5-1.5,0.7-3.6,0.7-4.5V8.8
			c0-1.9-1.6-3.5-3.5-3.5h-0.9c-0.4,0-0.8,0.3-0.9,0.7l-0.5,1.9c-0.7,2.7-2.8,5.6-5,6.2c-0.4-1-1.3-1.7-2.5-1.7h-5.3
			c-0.5,0-0.9,0.4-0.9,0.9v15.8c0,0.5,0.4,0.9,0.9,0.9h5.3c1,0,2-0.6,2.4-1.5l3,1c1,0.3,2,0.5,3.1,0.5h7.4c1.5,0,2.6-1.2,2.6-2.6
			c0-0.3-0.1-0.7-0.2-1c1.1-0.3,1.9-1.3,1.9-2.5c0-0.7-0.3-1.3-0.7-1.8c0.4-0.5,0.7-1.1,0.7-1.8S162.9,19,162.5,18.6z M143.8,27.4
			c0,0.5-0.4,0.9-0.9,0.9h-4.4V14.2h4.4c0.5,0,0.9,0.4,0.9,0.9V27.4z M158.8,19.5h1.8c0.5,0,0.9,0.4,0.9,0.9s-0.4,0.9-0.9,0.9h-1.8
			c-0.5,0-0.9,0.4-0.9,0.9s0.4,0.9,0.9,0.9h1.8c0.5,0,0.9,0.4,0.9,0.9s-0.4,0.9-0.9,0.9h-1.8c-0.5,0-0.9,0.4-0.9,0.9
			s0.4,0.9,0.9,0.9c0.5,0,0.9,0.4,0.9,0.9s-0.4,0.9-0.9,0.9h-7.4c-0.9,0-1.7-0.1-2.5-0.4l-3.3-1.1V15.9c1.4-0.3,2.7-1.1,3.9-2.6
			c1.2-1.4,2.2-3.2,2.6-5l0.3-1.2h0.2c1,0,1.8,0.8,1.8,1.8v0.9c0,1.2-0.4,3.4-0.8,4.5h-1.8c-0.5,0-0.9,0.4-0.9,0.9s0.4,0.9,0.9,0.9
			h8.8c0.5,0,0.9,0.4,0.9,0.9s-0.4,0.9-0.9,0.9h-1.8c-0.5,0-0.9,0.4-0.9,0.9S158.3,19.5,158.8,19.5z"/>
	</g>
</g>
<g>
	<g>
		<circle fill="#3DAFC4" cx="141.2" cy="25.6" r="0.9"/>
	</g>
</g>
<g>
	<g>
		<path fill="#3DAFC4" d="M153.5,0c-0.5,0-0.9,0.4-0.9,0.9v1.8c0,0.5,0.4,0.9,0.9,0.9s0.9-0.4,0.9-0.9V0.9C154.4,0.4,154,0,153.5,0z
			"/>
	</g>
</g>
<g>
	<g>
		<path fill="#3DAFC4" d="M149.8,3.9l-1.2-1.2c-0.3-0.3-0.9-0.3-1.2,0c-0.3,0.3-0.3,0.9,0,1.2l1.2,1.2c0.3,0.3,0.9,0.3,1.2,0
			C150.1,4.8,150.1,4.2,149.8,3.9z"/>
	</g>
</g>
<g>
	<g>
		<path fill="#3DAFC4" d="M159.7,2.6c-0.3-0.3-0.9-0.3-1.2,0l-1.2,1.2c-0.3,0.3-0.3,0.9,0,1.2c0.3,0.3,0.9,0.3,1.2,0l1.2-1.2
			C160.1,3.5,160.1,3,159.7,2.6z"/>
	</g>
</g>
</svg>
