<svg width="27" height="16" viewBox="0 0 27 16" fill="none" xmlns="http://www.w3.org/2000/svg">
<path d="M25.3613 0.00317383H0.588379V15.9969H26.4114V0.00317383H25.3613ZM24.3276 1.00255L14.3514 10.6569C13.8961 11.0975 13.1027 11.0975 12.6474 10.6569L2.66925 1.00255H24.3266H24.3276ZM1.62107 1.40099L8.32772 7.89036L1.62107 14.3807V1.40005V1.40099ZM2.44547 14.9975L9.05913 8.59817L11.9179 11.3638C12.3403 11.7725 12.9022 11.9985 13.4999 11.9985C14.0976 11.9985 14.6595 11.7725 15.0818 11.3638L17.9406 8.59724L24.5533 14.9966H2.4445L2.44547 14.9975ZM25.3787 14.3816L18.672 7.89036L25.3787 1.39911V14.3816Z" fill="black"/>
</svg>
