<svg width="191" height="87" viewBox="0 0 191 87" fill="none" xmlns="http://www.w3.org/2000/svg">
<path d="M26.7896 51.1337C27.462 51.7886 28.1521 52.4435 28.8068 53.1161C30.7533 55.0807 32.6643 57.0808 34.6462 59.0278C35.2655 59.6295 35.4779 60.249 35.4779 61.1163C35.4425 67.8068 35.4602 74.515 35.4602 81.2055C35.4602 81.6125 35.4602 82.0019 35.4602 82.4975C35.0886 82.4975 34.8231 82.4975 34.5577 82.4975C28.0105 82.4975 21.4633 82.4975 14.9161 82.4798C14.5092 82.4798 13.9783 82.2851 13.6952 82.0019C10.8286 79.0284 8.01504 76.0194 5.18383 73.0282C5.05996 72.9043 4.97148 72.7627 4.70605 72.4441C9.28909 72.4441 13.6598 72.4441 18.2605 72.4441C18.0305 72.0547 17.942 71.86 17.8181 71.683C14.0845 66.9749 12.2442 61.6473 12.8458 55.6117C13.2528 51.5054 15.1993 48.0362 17.6943 44.8326C19.8177 42.1069 22.0119 39.3988 23.976 36.5492C25.6748 34.0712 26.5418 31.2393 26.825 28.2303C27.2673 23.5222 26.5241 19.0442 24.3299 14.8316C24.2592 14.7077 24.2415 14.5662 24.153 14.3184C24.4538 14.283 24.7015 14.2299 24.9493 14.2299C27.5151 14.2299 30.0809 14.2476 32.6467 14.2122C33.2483 14.2122 33.5314 14.4069 33.7614 14.9378C35.0709 17.9645 35.7787 21.0973 35.7964 24.4249C35.8141 28.4073 35.6548 32.3366 34.3808 36.1775C33.1244 39.9475 31.0718 43.2396 28.5591 46.2663C26.9311 48.2132 25.2324 50.0894 23.7814 52.1603C20.5609 56.7445 21.4456 62.1252 25.0908 66.1253C25.4801 66.5501 25.8871 66.9749 26.4711 67.5944C26.4711 62.0013 26.4711 56.656 26.4711 51.293C26.5595 51.2576 26.6657 51.2045 26.7896 51.1337Z" fill="#0092E0"/>
<path d="M9.74928 15.6456C9.74928 21.044 9.74928 26.4424 9.74928 31.8408C9.6785 31.8762 9.60772 31.9116 9.53694 31.947C8.81144 31.239 8.08594 30.531 7.37813 29.823C5.39628 27.8053 3.39672 25.7875 1.45026 23.752C1.20253 23.5042 0.972487 23.1148 0.972487 22.7785C0.954792 15.6633 0.954796 8.5657 0.954796 1.45043C0.954796 1.39733 0.972489 1.34423 1.00788 1.18493C1.23792 1.16723 1.48565 1.13184 1.73338 1.13184C8.36906 1.13184 15.0047 1.13184 21.6404 1.14954C21.9766 1.14954 22.419 1.29113 22.649 1.52123C25.4449 4.38858 28.2053 7.29132 30.9835 10.1941C31.0719 10.3003 31.1427 10.4242 31.3374 10.7074C26.7897 10.7074 22.4013 10.7074 17.7652 10.7074C18.1545 11.2561 18.3845 11.6101 18.6322 11.9463C21.7112 16.0704 23.64 20.6015 23.5338 25.8406C23.4453 30.0177 21.9766 33.7347 19.4816 37.0445C17.6767 39.4517 15.7125 41.7349 13.9076 44.1244C8.2275 51.5759 7.92668 59.5762 11.5896 67.9481C11.6781 68.1605 11.8019 68.3729 11.8904 68.5853C11.9081 68.6207 11.8727 68.6915 11.8373 68.8862C11.5188 68.8862 11.1826 68.8862 10.8464 68.8862C8.54601 68.8862 6.24564 68.8508 3.94528 68.9039C3.18438 68.9216 2.79509 68.6915 2.49427 67.9835C1.00788 64.3905 0.353158 60.6382 0.459329 56.762C0.583195 52.5317 1.25561 48.39 3.02513 44.4784C4.44074 41.3455 6.47568 38.6729 8.68757 36.0887C10.0678 34.478 11.4834 32.8851 12.669 31.1328C15.4471 26.9911 15.2348 22.283 12.2443 18.2828C11.5365 17.327 10.7225 16.4598 9.96163 15.5394C9.90854 15.5748 9.82006 15.6102 9.74928 15.6456Z" fill="#DA251C"/>
<path d="M40.769 29.5755V1.20288H47.4932C49.7759 1.20288 51.4392 1.73387 52.5009 2.81355C53.5626 3.87554 54.0935 5.52161 54.0935 7.73407V8.74295C54.0935 11.6457 53.1379 13.5573 51.2092 14.46C53.4211 15.3095 54.5359 17.345 54.5359 20.5309V22.8496C54.5359 25.0444 53.9696 26.7081 52.8194 27.8586C51.6692 29.0091 49.9882 29.5755 47.7763 29.5755H40.769ZM45.2105 12.7608H46.9623C47.8471 12.7608 48.5195 12.5307 48.9619 12.0705C49.4043 11.6103 49.6343 10.8492 49.6343 9.76953V8.19426C49.6343 7.18538 49.4574 6.44199 49.1035 5.9641C48.7495 5.50391 48.1656 5.25611 47.3693 5.25611H45.2105V12.7608ZM45.2105 25.5223H47.7586C48.5372 25.5223 49.1211 25.3099 49.4927 24.8851C49.882 24.4603 50.059 23.7523 50.059 22.7257V20.2478C50.059 18.9557 49.8466 18.053 49.4043 17.5574C48.9619 17.0618 48.2187 16.814 47.1924 16.814H45.1928V25.5223H45.2105Z" fill="#0091DD"/>
<path d="M56.2168 22.7611V7.99955C56.2168 5.73399 56.8007 3.98172 57.9686 2.74274C59.1365 1.50377 60.8175 0.884277 62.994 0.884277C65.1705 0.884277 66.8516 1.50377 68.0018 2.74274C69.1696 3.98172 69.7359 5.73399 69.7359 7.99955V22.7611C69.7359 25.0266 69.152 26.7789 68.0018 28.0179C66.8339 29.2569 65.1705 29.8764 62.994 29.8764C60.8175 29.8764 59.1365 29.2569 57.9686 28.0179C56.8007 26.7966 56.2168 25.0266 56.2168 22.7611ZM60.6583 23.0443C60.6583 24.9205 61.4369 25.8585 62.9763 25.8585C64.5158 25.8585 65.2767 24.9205 65.2767 23.0443V7.73405C65.2767 5.87559 64.5158 4.9375 62.9763 4.9375C61.4192 4.9375 60.6583 5.87559 60.6583 7.73405V23.0443Z" fill="#0091DD"/>
<path d="M71.7886 22.7612V19.6284H76.2301V23.0267C76.2301 24.9029 76.9909 25.841 78.5127 25.841C79.2736 25.841 79.8399 25.6109 80.2292 25.133C80.6185 24.6551 80.8131 23.8232 80.8131 22.6373V20.4072C80.8131 19.1151 80.5831 18.1947 80.123 17.646C79.6629 17.0973 78.9197 16.8141 77.8934 16.8141H76.7786V12.7609H78.1234C79.0082 12.7609 79.6806 12.5308 80.123 12.0706C80.5654 11.6104 80.7954 10.8493 80.7954 9.76964V8.19437C80.7954 6.97309 80.6008 6.14121 80.2115 5.66332C79.8222 5.18543 79.2559 4.95533 78.495 4.95533C76.9379 4.95533 76.177 5.89341 76.177 7.75188V10.0705H71.8417V7.94658C71.8417 5.66332 72.4256 3.92875 73.5935 2.70747C74.7614 1.50389 76.4424 0.9021 78.6012 0.9021C80.7777 0.9021 82.4234 1.52159 83.5558 2.76057C84.6883 3.99954 85.2546 5.75182 85.2546 8.03508V8.76076C85.2546 11.7874 84.2106 13.7344 82.1579 14.6017C84.2283 15.5043 85.2546 17.4867 85.2546 20.5487V22.7789C85.2546 25.0622 84.6883 26.8144 83.5558 28.0534C82.4234 29.2924 80.7777 29.9119 78.6012 29.9119C76.4247 29.9119 74.7437 29.2924 73.5404 28.0534C72.3902 26.7967 71.7886 25.0445 71.7886 22.7612Z" fill="#0091DD"/>
<path d="M86.3867 33.3279V25.5401H88.1916C88.5809 25.0799 88.8463 24.5666 89.0056 24.0179C89.1648 23.4515 89.271 22.7435 89.3064 21.8762L90.1204 1.2207H102.772V25.5401H104.719V33.3279H100.277V29.5756H90.8459V33.3279H86.3867ZM92.4915 25.5401H98.3309V5.25623H94.5796L93.7656 21.7877C93.7125 22.832 93.5886 23.6108 93.3763 24.1595C93.1816 24.7082 92.8808 25.1684 92.4915 25.5401Z" fill="#0091DD"/>
<path d="M105.303 1.20288H109.745L112.151 10.8669L113.531 17.5043L114.575 10.9377L116.61 1.20288H121.052L116.292 22.3186C116.08 23.3983 115.832 24.3364 115.549 25.0975C115.283 25.8585 114.929 26.5665 114.487 27.2037C114.045 27.8409 113.514 28.3542 112.894 28.7082C112.275 29.0622 111.514 29.3277 110.629 29.487C109.727 29.6463 108.683 29.6994 107.48 29.6109V25.5753C108.701 25.6461 109.603 25.5399 110.24 25.2214C110.859 24.9028 111.249 24.2656 111.426 23.2921L111.461 23.0443L105.303 1.20288Z" fill="#0091DD"/>
<path d="M122.521 29.5755V1.20288H126.962V25.5223H130.82V1.20288H135.261V25.5223H139.119V1.20288H143.56V29.5755H122.521Z" fill="#0091DD"/>
<path d="M146.197 29.5755V1.20288H150.638V13.3626H155.699V1.20288H160.141V29.5755H155.699V17.4335H150.638V29.5755H146.197Z" fill="#0091DD"/>
<path d="M162.494 22.7611V7.99955C162.494 5.73399 163.078 3.98172 164.245 2.74274C165.413 1.50377 167.094 0.884277 169.271 0.884277C171.447 0.884277 173.128 1.50377 174.279 2.74274C175.446 3.98172 176.013 5.73399 176.013 7.99955V22.7611C176.013 25.0266 175.429 26.7789 174.279 28.0179C173.111 29.2569 171.447 29.8764 169.271 29.8764C167.094 29.8764 165.413 29.2569 164.245 28.0179C163.078 26.7966 162.494 25.0266 162.494 22.7611ZM166.935 23.0443C166.935 24.9205 167.714 25.8585 169.253 25.8585C170.793 25.8585 171.554 24.9205 171.554 23.0443V7.73405C171.554 5.87559 170.793 4.9375 169.253 4.9375C167.696 4.9375 166.935 5.87559 166.935 7.73405V23.0443Z" fill="#0091DD"/>
<path d="M178.295 29.5755V1.20288H190.434V5.25611H182.737V13.1679H188.842V17.2034H182.737V25.5046H190.434V29.5578H178.295V29.5755Z" fill="#0091DD"/>
<path d="M40.8403 58.7268V42.8678C40.8403 40.4253 41.4597 38.5491 42.716 37.2039C43.9724 35.8764 45.7773 35.2039 48.113 35.2039C50.4488 35.2039 52.2537 35.8764 53.4924 37.2039C54.7487 38.5314 55.3681 40.4253 55.3681 42.8678V58.7268C55.3681 61.1693 54.7487 63.0455 53.4924 64.3907C52.236 65.7182 50.4488 66.3907 48.113 66.3907C45.7773 66.3907 43.9724 65.7182 42.716 64.3907C41.4597 63.0632 40.8403 61.1693 40.8403 58.7268ZM45.618 59.0277C45.618 61.0454 46.4497 62.0543 48.113 62.0543C49.7587 62.0543 50.5904 61.0454 50.5904 59.0277V42.5669C50.5904 40.5669 49.7587 39.5757 48.113 39.5757C46.4497 39.5757 45.618 40.5669 45.618 42.5669V59.0277Z" fill="#D9241C"/>
<path d="M56.4292 39.912V35.5579H71.2577V39.912H66.2323V66.0544H61.4546V39.912H56.4292Z" fill="#D9241C"/>
<path d="M72.2661 58.7268V42.8678C72.2661 40.4253 72.8854 38.5491 74.1418 37.2039C75.3982 35.8764 77.2031 35.2039 79.5388 35.2039C81.8746 35.2039 83.6795 35.8764 84.9182 37.2039C86.1745 38.5314 86.7939 40.4253 86.7939 42.8678V58.7268C86.7939 61.1693 86.1745 63.0455 84.9182 64.3907C83.6618 65.7182 81.8746 66.3907 79.5388 66.3907C77.2031 66.3907 75.3982 65.7182 74.1418 64.3907C72.9031 63.0632 72.2661 61.1693 72.2661 58.7268ZM77.0615 59.0277C77.0615 61.0454 77.8932 62.0543 79.5565 62.0543C81.2022 62.0543 82.0339 61.0454 82.0339 59.0277V42.5669C82.0339 40.5669 81.2022 39.5757 79.5565 39.5757C77.8932 39.5757 77.0615 40.5669 77.0615 42.5669V59.0277Z" fill="#D9241C"/>
<path d="M89.271 66.0544V35.5579H104.276V66.0544H99.4988V39.912H94.0487V66.0544H89.271Z" fill="#D9241C"/>
<path d="M105.887 66.0898V61.7357C106.471 61.7357 106.931 61.7003 107.25 61.6472C107.568 61.5941 107.851 61.4525 108.117 61.2401C108.365 61.0277 108.541 60.7091 108.648 60.302C108.754 59.895 108.807 59.3286 108.842 58.6206L109.373 35.5579H123.087V66.0544H118.309V39.912H114.169L113.638 58.3551C113.549 61.1339 112.965 63.1163 111.886 64.3022C110.806 65.4881 109.055 66.0898 106.666 66.0898H105.887Z" fill="#D9241C"/>
<path d="M126.13 66.0544V35.5579H139.189V39.912H130.926V48.4255H137.491V52.762H130.926V61.7003H139.189V66.0544H126.13Z" fill="#D9241C"/>
<path d="M141.49 66.0544V35.5579H146.267V48.6379H151.718V35.5579H156.495V66.0544H151.718V52.9921H146.267V66.0544H141.49Z" fill="#D9241C"/>
<path d="M159.415 66.0544V35.5579H163.697V54.8682L165.449 48.1423L169.36 35.5579H175.093V66.0544H170.315V44.6201L168.386 52.0894L164.352 66.0544H159.415Z" fill="#D9241C"/>
<path d="M177.358 66.0544V35.5579H190.417V39.912H182.153V48.4255H188.718V52.762H182.153V61.7003H190.417V66.0544H177.358Z" fill="#D9241C"/>
<path d="M43.1576 77.4711H42.1136V82.3916H40.7334V71.4355H42.1136V76.2676H42.963L46.0419 71.4355H47.7584L44.2901 76.7277L48.0238 82.3916H46.3428L43.1576 77.4711Z" fill="#0091DD"/>
<path d="M55.8807 77.8781C55.8807 79.3649 55.5622 80.5154 54.9252 81.3296C54.2882 82.1437 53.3857 82.5331 52.2178 82.5331C51.0853 82.5331 50.2006 82.1437 49.5458 81.365C48.8911 80.5862 48.5549 79.4711 48.5195 78.0374V75.9842C48.5195 74.5152 48.838 73.3647 49.4928 72.5505C50.1475 71.7186 51.0499 71.3115 52.2001 71.3115C53.3503 71.3115 54.2528 71.7009 54.8898 72.4974C55.5268 73.2939 55.863 74.4267 55.8807 75.8957V77.8781ZM54.5005 75.9665C54.5005 74.8161 54.3058 73.9488 53.9342 73.3824C53.5626 72.816 52.9787 72.5328 52.2001 72.5328C51.4392 72.5328 50.873 72.816 50.4837 73.3824C50.0944 73.9488 49.8998 74.7984 49.8998 75.9134V77.8781C49.8998 78.9932 50.0944 79.8428 50.4837 80.4269C50.873 81.0109 51.4569 81.3118 52.2178 81.3118C52.9964 81.3118 53.5626 81.0464 53.9342 80.4977C54.3058 79.949 54.5005 79.1348 54.5182 78.002V75.9665H54.5005Z" fill="#0091DD"/>
<path d="M64.8697 82.3916H63.4894V77.3295H59.0833V82.3916H57.7031V71.4355H59.0833V76.1437H63.4894V71.4355H64.8697V82.3916Z" fill="#0091DD"/>
<path d="M74.3011 81.2057H75.5928L75.5751 85.0642H74.1949V82.3738H67.7362V85.0642H66.356V81.188H67.1522C67.5061 80.7455 67.7893 80.0729 68.0193 79.1702C68.2493 78.2675 68.3909 77.2763 68.444 76.1612L68.6563 71.4177H74.3188V81.2057H74.3011ZM68.6032 81.2057H72.9032V72.6213H69.9658L69.8065 76.1612C69.7534 77.3117 69.6119 78.3206 69.3995 79.1525C69.1872 80.0021 68.9218 80.6924 68.6032 81.2057Z" fill="#0091DD"/>
<path d="M82.6711 71.4355H84.0513V82.3916H82.6711V73.9489L78.4066 82.3916H77.0264V71.4355H78.4066V79.8783L82.6711 71.4355Z" fill="#0091DD"/>
<path d="M86.2451 71.4355H87.6253V81.2058H91.9076V71.4355H93.2878V81.1704H94.2787L94.1372 85.0289H92.8985V82.3917H86.2451V71.4355Z" fill="#0091DD"/>
<path d="M101.428 71.4355H102.808V82.3916H101.428V73.9489L97.1634 82.3916H95.7832V71.4355H97.1634V79.8783L101.428 71.4355Z" fill="#0091DD"/>
<path d="M112.062 77.8781C112.062 79.3649 111.744 80.5154 111.107 81.3296C110.47 82.1437 109.567 82.5331 108.399 82.5331C107.267 82.5331 106.382 82.1437 105.727 81.365C105.073 80.5862 104.737 79.4711 104.701 78.0374V75.9842C104.701 74.5152 105.02 73.3647 105.674 72.5505C106.329 71.7186 107.232 71.3115 108.382 71.3115C109.532 71.3115 110.434 71.7009 111.071 72.4974C111.708 73.2939 112.045 74.4267 112.062 75.8957V77.8781ZM110.682 75.9665C110.682 74.8161 110.487 73.9488 110.116 73.3824C109.744 72.816 109.16 72.5328 108.382 72.5328C107.621 72.5328 107.055 72.816 106.665 73.3824C106.276 73.9488 106.081 74.7984 106.081 75.9134V77.8781C106.081 78.9932 106.276 79.8428 106.665 80.4269C107.055 81.0109 107.639 81.3118 108.399 81.3118C109.16 81.3118 109.744 81.0464 110.116 80.4977C110.487 79.949 110.682 79.1348 110.7 78.002V75.9665H110.682Z" fill="#0091DD"/>
<path d="M121.052 82.3916H119.672V77.3295H115.265V82.3916H113.885V71.4355H115.265V76.1437H119.672V71.4355H121.052V82.3916Z" fill="#0091DD"/>
<path d="M128.82 71.4355H130.2V82.3916H128.82V73.9489L124.556 82.3916H123.175V71.4355H124.556V79.8783L128.82 71.4355Z" fill="#0091DD"/>
<path d="M133.722 78.1083V82.3916H132.341V71.4355H135.827C136.854 71.4355 137.65 71.7364 138.234 72.3559C138.818 72.9577 139.101 73.7719 139.101 74.7808C139.101 75.8251 138.818 76.6393 138.269 77.2056C137.721 77.772 136.942 78.0729 135.933 78.0906H133.722V78.1083ZM133.722 76.9224H135.827C136.447 76.9224 136.907 76.7454 137.225 76.3738C137.544 76.0021 137.721 75.4888 137.721 74.7985C137.721 74.1436 137.544 73.6126 137.225 73.2232C136.889 72.8338 136.429 72.6214 135.845 72.6214H133.722V76.9224Z" fill="#0091DD"/>
<path d="M147.701 77.8781C147.701 79.3649 147.382 80.5154 146.745 81.3296C146.108 82.1437 145.206 82.5331 144.038 82.5331C142.905 82.5331 142.02 82.1437 141.366 81.365C140.711 80.5862 140.375 79.4711 140.339 78.0374V75.9842C140.339 74.5152 140.658 73.3647 141.313 72.5505C141.967 71.7186 142.87 71.3115 144.02 71.3115C145.17 71.3115 146.073 71.7009 146.71 72.4974C147.347 73.2939 147.683 74.4267 147.701 75.8957V77.8781ZM146.32 75.9665C146.32 74.8161 146.126 73.9488 145.754 73.3824C145.382 72.816 144.799 72.5328 144.02 72.5328C143.259 72.5328 142.693 72.816 142.304 73.3824C141.914 73.9488 141.72 74.7984 141.72 75.9134V77.8781C141.72 78.9932 141.914 79.8428 142.304 80.4269C142.693 81.0109 143.277 81.3118 144.038 81.3118C144.799 81.3118 145.382 81.0464 145.754 80.4977C146.126 79.949 146.32 79.1348 146.338 78.002V75.9665H146.32Z" fill="#0091DD"/>
<path d="M149.505 82.3916V71.4355H152.62C153.611 71.4355 154.372 71.6833 154.867 72.1612C155.363 72.6391 155.628 73.3825 155.628 74.356C155.628 74.8693 155.504 75.3118 155.239 75.7012C154.991 76.0906 154.637 76.3915 154.195 76.6038C154.69 76.7454 155.097 77.064 155.38 77.5242C155.681 77.9844 155.823 78.5508 155.823 79.2057C155.823 80.1969 155.557 80.958 155.009 81.5244C154.478 82.0907 153.699 82.3739 152.708 82.3739H149.505V82.3916ZM150.886 76.1083H152.655C153.133 76.1083 153.522 75.949 153.805 75.6304C154.106 75.3118 154.248 74.887 154.248 74.356C154.248 73.7542 154.106 73.3117 153.841 73.0462C153.575 72.7807 153.168 72.6391 152.62 72.6391H150.868V76.1083H150.886ZM150.886 77.2764V81.2235H152.761C153.274 81.2235 153.699 81.0465 154 80.7102C154.301 80.3739 154.46 79.8783 154.46 79.2588C154.46 77.949 153.912 77.2764 152.797 77.2764H150.886Z" fill="#0091DD"/>
<path d="M162.706 79.5243H159.008L158.158 82.3916H156.743L160.264 71.4355H161.45L164.989 82.3916H163.573L162.706 79.5243ZM159.362 78.3384H162.352L160.848 73.3648L159.362 78.3384Z" fill="#0091DD"/>
<path d="M173.323 82.3916H171.943V77.3295H167.536V82.3916H166.156V71.4355H167.536V76.1437H171.943V71.4355H173.323V82.3916Z" fill="#0091DD"/>
<path d="M181.109 71.4355H182.489V82.3916H181.109V73.9489L176.845 82.3916H175.464V71.4355H176.845V79.8783L181.109 71.4355Z" fill="#0091DD"/>
<path d="M189.886 77.3295H186.011V81.2058H190.523V82.3916H184.63V71.4355H190.434V72.6214H186.011V76.1437H189.886V77.3295Z" fill="#0091DD"/>
</svg>
