<?xml version="1.0" encoding="utf-8"?>
<!-- Generator: Adobe Illustrator 22.0.1, SVG Export Plug-In . SVG Version: 6.00 Build 0)  -->
<svg version="1.1" id="Слой_1" xmlns="http://www.w3.org/2000/svg" xmlns:xlink="http://www.w3.org/1999/xlink" x="0px" y="0px"
	 viewBox="0 0 512 512" style="enable-background:new 0 0 512 512;" xml:space="preserve">
<style type="text/css">
	.st0{fill:#FFFFFF;}
</style>
<path class="st0" d="M512,259c0-68.4-26.6-132.7-75-181S324.4,3,256,3S123.3,29.6,75,78S0,190.6,0,259c0,20.8,2.5,41.5,7.5,61.6
	c-0.2,5.2,0.7,10.5,2.6,15.7l23.6,62.9c3.9,10.3,11.5,18.4,21.4,23c5.4,2.5,11.2,3.7,17,3.7c4,0,8-0.6,11.9-1.8
	c4.6,7.9,11.5,14.1,19.9,18c5.9,2.7,12.1,4,18.3,4c5.2,0,10.5-0.9,15.6-2.8l25.4-9.5c22.9-8.6,34.5-34.2,25.9-57.1L142.1,251
	c-4.2-11.1-12.4-19.9-23.2-24.8c-10.8-4.9-22.8-5.3-33.9-1.2l-25.4,9.5c-20.5,7.7-31.9,29-28,49.8c-5.4,2.4-10,5.9-13.8,10.1
	c-1.7-11.7-2.6-23.6-2.6-35.5c0-63,24-122.3,67.8-167.4c0.4,0.5,0.8,1,1.2,1.5c6,7.3,14.8,11.1,23.6,11.1c6.6,0,13.3-2.2,18.8-6.6
	c7.6-6.1,15.7-11.7,24-16.6c3.6-2.1,4.8-6.8,2.7-10.4c-2.1-3.6-6.8-4.8-10.4-2.7c-9,5.3-17.6,11.3-25.8,17.9
	c-6.4,5.1-15.8,4.1-21.1-2.3c-0.7-0.8-1.3-1.7-2-2.5C138.4,40.4,195.5,18.2,256,18.2s117.6,22.2,162.1,62.7c-0.7,0.8-1.3,1.7-2,2.5
	c-5.3,6.4-14.7,7.5-21.1,2.3c-39.2-31.5-88.6-48.9-139-48.9c-30.3,0-59.7,6-87.4,17.8c-3.9,1.7-5.7,6.1-4,10c1.7,3.9,6.1,5.6,10,4
	c25.7-11,53.1-16.6,81.4-16.6c47.6,0,92.4,15.7,129.5,45.5c5.5,4.4,12.2,6.6,18.8,6.6c8.8,0,17.6-3.8,23.6-11.2
	c0.4-0.5,0.8-1,1.2-1.5c43.7,45.1,67.8,104.4,67.8,167.4c0,11.9-0.9,23.8-2.6,35.5c-3.8-4.3-8.5-7.7-13.8-10.1
	c4-20.8-7.5-42.1-28-49.8l-25.4-9.5c-22.9-8.6-48.5,3.1-57.1,25.9l-25.3,67.5c-1.5,3.9,0.5,8.3,4.4,9.8c3.9,1.5,8.3-0.5,9.8-4.5
	l25.3-67.5c5.6-15,22.5-22.7,37.5-17l25.4,9.5c7.3,2.7,13.1,8.1,16.3,15.2c3.2,7.1,3.5,15,0.8,22.3c0,0,0,0,0,0l-47.1,125.5
	c-5.6,15-22.4,22.7-37.5,17l-25.4-9.5c-15-5.6-22.7-22.5-17-37.5l11.4-30.5c1.5-3.9-0.5-8.3-4.4-9.8c-3.9-1.5-8.3,0.5-9.8,4.5
	l-11.4,30.5c-8.6,22.9,3.1,48.5,25.9,57.1l25.4,9.5c5.1,1.9,10.3,2.8,15.6,2.8c5.3,0,10.5-1,15.5-2.8l-7.6,20.2
	c-3.9,10.3-14.5,16.5-25.4,14.9l-59.9-9c-1.1-20-17.7-36-37.9-36c-21,0-38,17-38,38c0,21,17,38,38,38c16.4,0,30.4-10.4,35.7-25
	l59.9,9c1.9,0.3,3.8,0.4,5.6,0.4c15.8,0,30.5-9.9,36.2-25l16.7-44.5c3.7,1.1,7.5,1.6,11.3,1.6c5.8,0,11.5-1.2,17-3.7
	c10-4.5,17.6-12.7,21.4-23l23.6-62.9c1.9-5.1,2.8-10.5,2.6-15.9C509.5,300.4,512,279.8,512,259z M64.9,248.9l25.4-9.5
	c3.4-1.3,6.8-1.9,10.2-1.9c11.8,0,22.9,7.2,27.3,18.9l47.1,125.5c2.7,7.3,2.5,15.2-0.8,22.3c-3.2,7.1-9,12.5-16.3,15.2l-25.4,9.5
	c-7.3,2.7-15.2,2.5-22.3-0.8c-7.1-3.2-12.5-9-15.2-16.3c0,0,0,0,0,0L47.9,286.3C42.2,271.3,49.9,254.5,64.9,248.9z M36.4,299
	L78,409.9c-5.5,1.3-11.3,0.8-16.6-1.6c-6.3-2.9-11.1-8-13.5-14.4l-23.6-62.9C19.7,318.6,25.1,305,36.4,299z M274.6,494.1
	c-12.6,0-22.8-10.2-22.8-22.8s10.2-22.8,22.8-22.8s22.8,10.2,22.8,22.8S287.2,494.1,274.6,494.1z M487.7,330.9l-23.6,62.9
	c-4.6,12.3-17.6,19-30.1,16.1L475.6,299c5,2.7,9,6.9,11.4,12.1c1.3,2.9,2.1,5.9,2.3,9c0,0.1,0,0.3,0,0.4
	C489.5,324,489,327.5,487.7,330.9z"/>
</svg>
