<?xml version="1.0" encoding="utf-8"?>
<!-- Generator: Adobe Illustrator 22.0.1, SVG Export Plug-In . SVG Version: 6.00 Build 0)  -->
<svg version="1.1" id="Слой_1" xmlns="http://www.w3.org/2000/svg" xmlns:xlink="http://www.w3.org/1999/xlink" x="0px" y="0px"
	 viewBox="0 0 512 512" style="enable-background:new 0 0 512 512;" xml:space="preserve">
<style type="text/css">
	.st0{fill:#FFFFFF;}
</style>
<path class="st0" d="M87.9,393.2c-21.8,0-39.5,17.7-39.5,39.5c0,21.8,17.7,39.5,39.5,39.5s39.5-17.7,39.5-39.5
	C127.4,410.9,109.7,393.2,87.9,393.2z M87.9,457c-13.4,0-24.3-10.9-24.3-24.3c0-13.4,10.9-24.3,24.3-24.3
	c13.4,0,24.3,10.9,24.3,24.3C112.2,446.1,101.3,457,87.9,457z"/>
<path class="st0" d="M290.4,393.2c-21.8,0-39.5,17.7-39.5,39.5c0,21.8,17.7,39.5,39.5,39.5s39.5-17.7,39.5-39.5
	C329.9,410.9,312.2,393.2,290.4,393.2z M290.4,457c-13.4,0-24.3-10.9-24.3-24.3c0-13.4,10.9-24.3,24.3-24.3s24.3,10.9,24.3,24.3
	C314.7,446.1,303.8,457,290.4,457z"/>
<path class="st0" d="M512,205.4v-97.9c0-17.4-14.1-31.5-31.5-31.5h-97.9c-5.9,0-11.5,1.7-16.3,4.5v-70c0-4.2-3.4-7.6-7.6-7.6h-31.7
	c-4.2,0-7.6,3.4-7.6,7.6v55.3c0,4.2,3.4,7.6,7.6,7.6c4.2,0,7.6-3.4,7.6-7.6V18.2h16.5v332.8c0,17.4,14.1,31.5,31.5,31.5h46.8V399
	h-71c-5.5-11.2-13.8-20.8-23.8-28V96.4c0-4.2-3.4-7.6-7.6-7.6c-4.2,0-7.6,3.4-7.6,7.6v235.3h-21l-82.6-231.5
	c-5.1-14.4-18.9-24.1-34.1-24.1H53.1c-20,0-36.2,16.3-36.2,36.2V275c0,4.2,3.4,7.6,7.6,7.6c4.2,0,7.6-3.4,7.6-7.6V112.3
	c0-11.6,9.4-21,21-21h128.6c8.9,0,16.8,5.6,19.8,14l80.8,226.4H32.1v-26.2c0-4.2-3.4-7.6-7.6-7.6c-4.2,0-7.6,3.4-7.6,7.6v26.2H7.6
	c-4.2,0-7.6,3.4-7.6,7.6v93.5c0,4.2,3.4,7.6,7.6,7.6h4.7c3.8,38.3,36.3,68.4,75.6,68.4c39.3,0,71.8-30,75.6-68.4h51.3
	c3.8,38.3,36.3,68.4,75.6,68.4c41.9,0,76-34.1,76-76c0-6.4-0.8-12.6-2.3-18.5H437c4.2,0,7.6-3.4,7.6-7.6v-24.1h35.9
	c17.4,0,31.5-14.1,31.5-31.5v-97.9c0-9.5-4.3-18.1-11-23.9C507.7,223.5,512,215,512,205.4z M319.5,346.8v15.7
	c-9-3.7-18.8-5.8-29.1-5.8c-39.3,0-71.8,30-75.6,68.4h-51.3c-3.8-38.3-36.3-68.4-75.6-68.4c-34.3,0-63.3,22.8-72.7,54v-63.9H319.5z
	 M87.9,493.5c-33.5,0-60.8-27.3-60.8-60.8c0-33.5,27.3-60.8,60.8-60.8c33.5,0,60.8,27.3,60.8,60.8
	C148.7,466.2,121.5,493.5,87.9,493.5z M290.4,493.5c-33.5,0-60.8-27.3-60.8-60.8c0-33.5,27.3-60.8,60.8-60.8s60.8,27.3,60.8,60.8
	C351.2,466.2,323.9,493.5,290.4,493.5z M496.8,253.2v97.9c0,9-7.3,16.3-16.3,16.3l-97.9,0c0,0,0,0,0,0c-9,0-16.2-7.3-16.2-16.3
	v-97.9c0-9,7.3-16.3,16.3-16.3h97.9C489.5,236.9,496.8,244.2,496.8,253.2z M382.6,221.7c-9,0-16.3-7.3-16.3-16.3v-97.9
	c0-9,7.3-16.3,16.3-16.3h97.9c9,0,16.3,7.3,16.3,16.3v97.9c0,9-7.3,16.3-16.3,16.3H382.6z"/>
<path class="st0" d="M173.3,131.8c-1.1-3-3.9-5-7.2-5h-91c-4.2,0-7.6,3.4-7.6,7.6V252c0,4.2,3.4,7.6,7.6,7.6h132.9
	c2.5,0,4.8-1.2,6.2-3.2s1.8-4.6,0.9-6.9L173.3,131.8z M82.8,244.4V142h78l36.6,102.5H82.8z"/>
<path class="st0" d="M178.4,284.7c0,4.2,3.4,7.6,7.6,7.6h33.7c4.2,0,7.6-3.4,7.6-7.6s-3.4-7.6-7.6-7.6H186
	C181.8,277.1,178.4,280.5,178.4,284.7z"/>
</svg>
