<?xml version="1.0" encoding="utf-8"?>
<!-- Generator: Adobe Illustrator 22.0.1, SVG Export Plug-In . SVG Version: 6.00 Build 0)  -->
<svg version="1.1" id="Слой_1" xmlns="http://www.w3.org/2000/svg" xmlns:xlink="http://www.w3.org/1999/xlink" x="0px" y="0px"
	 viewBox="0 0 511 511" style="enable-background:new 0 0 511 511;" xml:space="preserve">
<style type="text/css">
	.st0{fill:#FFFFFF;}
</style>
<path class="st0" d="M199.3,91.8c16.6,0,31.4,10.6,36.7,26.3c1.3,3.9,5.6,6,9.5,4.7c3.9-1.3,6-5.6,4.7-9.5
	c-7.4-21.8-27.8-36.5-50.9-36.5c-29.6,0-53.7,24.1-53.7,53.7s24.1,53.7,53.7,53.7c23.1,0,43.5-14.7,50.9-36.5
	c1.3-3.9-0.8-8.2-4.7-9.5c-3.9-1.3-8.2,0.8-9.5,4.7c-5.3,15.8-20.1,26.3-36.7,26.3c-21.3,0-38.7-17.4-38.7-38.7
	S177.9,91.8,199.3,91.8z"/>
<path class="st0" d="M317.1,130.5c0-38.4-18.5-72.6-47-94.1c-0.2-0.2-0.4-0.4-0.7-0.6c-41.5-30.8-98.6-31-140.4,0
	c-0.2,0.2-0.5,0.4-0.7,0.6c-28.5,21.5-47,55.7-47,94.1v19.2H69.2c-8.4,0-15.3,6.8-15.3,15.3v45.8c0,8.4,6.8,15.3,15.3,15.3h12.2
	v193.8c0,4.1,3.3,7.5,7.5,7.5c4.1,0,7.5-3.4,7.5-7.5V288.5h16.8v182c0,6-4.9,10.9-10.9,10.9h-5.9v-31.6c0-4.1-3.4-7.5-7.5-7.5
	c-4.1,0-7.5,3.4-7.5,7.5v31.6h-31c-4.1,0-7.5,3.4-7.5,7.5c0,4.1,3.3,7.5,7.5,7.5h54.4c1,0,1.9-0.2,2.8-0.5
	c11.7-2.5,20.5-12.9,20.5-25.3v-182h5c2.8,0,5.4-1.6,6.6-4c11.6-22.3,34.4-36.1,59.5-36.1C264.3,248.4,317.1,195.5,317.1,130.5z
	 M141,45.7c35-24.1,81.4-24.2,116.5,0v12.9c0,3.6-2.5,5.3-3.6,5.8c-1.1,0.5-3.9,1.6-6.8-0.5c-14-10.1-30.6-15.4-47.9-15.4
	s-33.9,5.3-47.9,15.4c-2.9,2.1-5.7,1.1-6.8,0.5c-1.1-0.5-3.6-2.2-3.6-5.8L141,45.7L141,45.7z M69.2,211.1c-0.2,0-0.3-0.1-0.3-0.3
	V165c0-0.2,0.1-0.3,0.3-0.3h12.2v46.4H69.2z M199.3,233.4c-29.1,0-55.8,15.3-70.5,40.1H96.4v-143c0-28.1,11.3-53.6,29.7-72.2v0.3
	c0,8.1,4.5,15.5,11.7,19.2c3.1,1.6,6.5,2.4,9.8,2.4c4.4,0,8.8-1.4,12.5-4.1c11.4-8.2,25-12.6,39.1-12.6c14.2,0,27.7,4.4,39.1,12.6
	c6.6,4.7,15.1,5.4,22.4,1.7c7.2-3.7,11.7-11,11.7-19.2v-0.3c18.3,18.6,29.7,44.1,29.7,72.2C302.2,187.2,256,233.4,199.3,233.4z"/>
<path class="st0" d="M468.5,71.5c0-0.1,0-0.1,0-0.2V38.1c0-0.1,0-0.1,0-0.2s0-0.1,0-0.2V6.5c0-4.1-3.3-7.5-7.5-7.5h-88.3
	c-4.1,0-7.5,3.4-7.5,7.5v105.2c0,4.1,3.4,7.5,7.5,7.5c4.1,0,7.5-3.4,7.5-7.5V14h73.3v16.5H437c-4.1,0-7.5,3.4-7.5,7.5
	s3.3,7.5,7.5,7.5h16.6V64H437c-4.1,0-7.5,3.3-7.5,7.5c0,4.1,3.3,7.5,7.5,7.5h16.6v18.6h-36.6c-4.1,0-7.5,3.4-7.5,7.5
	s3.4,7.5,7.5,7.5h36.6v18.6H437c-4.1,0-7.5,3.3-7.5,7.5c0,4.1,3.3,7.5,7.5,7.5h16.6v18.6H437c-4.1,0-7.5,3.3-7.5,7.5
	c0,4.1,3.3,7.5,7.5,7.5h16.6v18.6h-36.6c-4.1,0-7.5,3.4-7.5,7.5c0,4.1,3.4,7.5,7.5,7.5h36.6v18.6H437c-4.1,0-7.5,3.4-7.5,7.5
	c0,4.1,3.3,7.5,7.5,7.5h16.6v18.6H437c-4.1,0-7.5,3.4-7.5,7.5c0,4.1,3.3,7.5,7.5,7.5h16.6V299h-36.6c-4.1,0-7.5,3.4-7.5,7.5
	s3.4,7.5,7.5,7.5h36.6v18.6H437c-4.1,0-7.5,3.4-7.5,7.5c0,4.1,3.3,7.5,7.5,7.5h16.6v18.6H437c-4.1,0-7.5,3.4-7.5,7.5
	s3.3,7.5,7.5,7.5h16.6v67.6l-18.8-38.1c-4.3-8.6-12.9-14-22.5-14h-31.9V141.6c0-4.1-3.3-7.5-7.5-7.5c-4.1,0-7.5,3.4-7.5,7.5v255.1
	h-137c-11.5,0-20.8,9.3-20.8,20.8v71.7c0,11.5,9.3,20.8,20.8,20.8h215c8.8,0,16.8-4.4,21.4-11.9c1.8-2.9,2.9-6,3.5-9.2
	c0.2-0.7,0.3-1.4,0.3-2.2v-1.6c0-0.2,0-0.3,0-0.5V373.8c0-0.1,0-0.1,0-0.2c0-0.1,0-0.1,0-0.2v-33.2c0-0.1,0-0.1,0-0.2
	c0-0.1,0-0.1,0-0.2v-33.2c0-0.1,0-0.1,0-0.2c0-0.1,0-0.1,0-0.2v-33.2c0-0.1,0-0.1,0-0.2c0-0.1,0-0.1,0-0.2v-33.2c0-0.1,0-0.1,0-0.2
	c0-0.1,0-0.1,0-0.2V206c0-0.1,0-0.1,0-0.2s0-0.1,0-0.2v-33.2c0-0.1,0-0.1,0-0.2c0-0.1,0-0.1,0-0.2v-33.2c0-0.1,0-0.1,0-0.2
	c0-0.1,0-0.1,0-0.2v-33.2c0-0.1,0-0.1,0-0.2c0-0.1,0-0.1,0-0.2V71.7C468.5,71.6,468.5,71.6,468.5,71.5z M443.3,495h-215
	c-3.2,0-5.8-2.6-5.8-5.8v-71.7c0-3.2,2.6-5.8,5.8-5.8h144.3c0.1,0,0.1,0,0.2,0c0.1,0,0.1,0,0.2,0h39.2c3.9,0,7.4,2.2,9.1,5.7
	l31.2,63c0.7,1.3,1,2.8,1.1,4.2v0.8c0,0.1,0,0.2,0,0.3c0,0.3-0.1,0.5-0.1,0.8c-0.2,1.4-0.7,2.7-1.5,3.9
	C450.1,493.3,446.9,495,443.3,495z"/>
</svg>
