<svg width="64" height="64" viewBox="0 0 64 64" fill="none" xmlns="http://www.w3.org/2000/svg">
<path d="M28.8465 39.0206H27.4562H25.7892H24.3988H15.8314H14.4411H12.7739H11.3835C10.9474 39.0206 10.5938 39.3744 10.5938 39.8106V50.4738C10.5938 50.9099 10.9473 51.2635 11.3835 51.2635H12.774H14.441H15.8313H24.3986H25.7891H27.4561H28.8464C29.2829 51.2635 29.6364 50.91 29.6364 50.4738V39.8106C29.6365 39.3745 29.2829 39.0206 28.8465 39.0206Z" fill="#C251C0"/>
<path d="M34.8757 14.2452H36.2662H37.9332H39.3234H47.8908H49.2813H50.9486H52.3388C52.7753 14.2452 53.1288 14.599 53.1288 15.0352V25.6984C53.1288 26.1345 52.7753 26.4881 52.3388 26.4881H50.9486H49.2813H47.8908H39.3234H37.9332H36.2662H34.8757C34.4396 26.4881 34.0859 26.1346 34.0859 25.6984V15.0352C34.0861 14.5991 34.4396 14.2452 34.8757 14.2452Z" fill="#C251C0"/>
<path d="M53.1285 35.7759C53.1285 35.0044 52.503 34.3786 51.7312 34.3786H31.034C30.2625 34.3786 29.6367 35.0044 29.6367 35.7759V49.866C29.6367 50.638 30.2625 51.2632 31.034 51.2632H51.7313C52.5031 51.2632 53.1286 50.638 53.1286 49.866V35.7759H53.1285Z" fill="#FFC100"/>
<path d="M10.5938 11.0004C10.5938 10.2288 11.2193 9.60313 11.991 9.60313H32.688C33.4598 9.60313 34.0856 10.2288 34.0856 11.0004V25.0906C34.0856 25.8625 33.4599 26.4879 32.688 26.4879H11.9911C11.2194 26.4879 10.5939 25.8625 10.5939 25.0906V11.0004H10.5938Z" fill="#FFC100"/>
<path d="M13.3764 50.4736V39.8105C13.3764 39.3744 13.7299 39.0205 14.1661 39.0205H12.774H11.3835C10.9474 39.0205 10.5938 39.3743 10.5938 39.8105V50.4736C10.5938 50.9097 10.9473 51.2634 11.3835 51.2634H12.774H14.1661C13.73 51.2632 13.3764 50.9097 13.3764 50.4736Z" fill="#C251C0"/>
<path d="M36.8686 25.6982V15.0351C36.8686 14.599 37.2221 14.2451 37.6583 14.2451H36.2662H34.8757C34.4396 14.2451 34.0859 14.5989 34.0859 15.0351V25.6982C34.0859 26.1344 34.4394 26.488 34.8757 26.488H36.2662H37.6583C37.2222 26.4879 36.8686 26.1344 36.8686 25.6982Z" fill="#C251C0"/>
<path d="M43.5757 47.9778H39.1902C38.729 47.9778 38.3555 48.3516 38.3555 48.8125V51.2633H44.4106V48.8125C44.4105 48.3515 44.0367 47.9778 43.5757 47.9778Z" fill="#00B6C6"/>
<path d="M38.3555 34.3786V40.2236C38.3555 40.5436 38.5383 40.8354 38.8265 40.9749C39.1145 41.1144 39.4568 41.0769 39.708 40.8785L41.3828 39.5544L43.0582 40.8786C43.2085 40.9972 43.3915 41.0585 43.576 41.0585C43.6998 41.0585 43.8241 41.0311 43.9397 40.975C44.2277 40.8355 44.4108 40.5435 44.4108 40.2237V34.3786H38.3555Z" fill="#00B6C6"/>
<path d="M19.3125 9.60325V15.4482C19.3125 15.7682 19.4954 16.06 19.7835 16.1995C19.8991 16.2556 20.0235 16.283 20.147 16.283C20.3315 16.283 20.5146 16.2219 20.6649 16.1031L22.3402 14.779L24.0152 16.103C24.2661 16.3014 24.6085 16.339 24.8966 16.1994C25.1846 16.06 25.3677 15.7681 25.3677 15.4481V9.60325H19.3125Z" fill="#00B6C6"/>
<path d="M24.5328 23.2023H20.1472C19.6861 23.2023 19.3125 23.576 19.3125 24.037V26.4879H25.3676V24.037C25.3676 23.5759 24.9939 23.2023 24.5328 23.2023Z" fill="#00B6C6"/>
<path d="M10.1461 30.2648L3.77734 36.6335V30.2648H10.1461Z" fill="#FFC100"/>
<path d="M53.8555 30.2648L60.2238 36.6335V30.2648H53.8555Z" fill="#FFC100"/>
<path d="M10.1461 5.48938L3.77734 11.8581V5.48938H10.1461Z" fill="#FFC100"/>
<path d="M53.8555 5.48938L60.2238 11.8581V5.48938H53.8555Z" fill="#FFC100"/>
<path d="M10.1461 55.0403L3.77734 61.409V55.0403H10.1461Z" fill="#FFC100"/>
<path d="M53.8555 55.0403L60.2238 61.409V55.0403H53.8555Z" fill="#FFC100"/>
<path d="M23.4441 48.1947H17.4615C16.8851 48.1947 16.418 47.7277 16.418 47.1512C16.418 46.5749 16.885 46.1077 17.4615 46.1077H23.4441C24.0203 46.1077 24.4876 46.5747 24.4876 47.1512C24.4876 47.7277 24.0202 48.1947 23.4441 48.1947Z" fill="#FFC100"/>
<path d="M46.2605 23.4194H40.2779C39.7015 23.4194 39.2344 22.9521 39.2344 22.3759C39.2344 21.7996 39.7014 21.3324 40.2779 21.3324H46.2605C46.8367 21.3324 47.304 21.7996 47.304 22.3759C47.304 22.9521 46.8367 23.4194 46.2605 23.4194Z" fill="#FFC100"/>
<path d="M11.138 26.4879H2.30078V30.4039H11.138H47.2957H51.1925H53.2064H62.0442V26.4879H53.2064H11.138Z" fill="#FF5C57"/>
<path d="M11.138 51.2632H2.30078V55.1794H11.138H53.2064H62.0442V51.2632H53.2064H11.138Z" fill="#FF5C57"/>
<path d="M53.2064 1.7125H11.138H2.30078V5.6285H11.138H47.2957H51.1925H53.2064H62.0442V1.7125H53.2064Z" fill="#FFC100"/>
<path d="M63.998 11.316V1.74388C63.998 0.780625 63.2174 0 62.2543 0H61.8258C60.8628 0 60.082 0.780625 60.082 1.74375V12.2247V51.7754V62.2564C60.082 63.2194 60.8627 64.0001 61.8258 64.0001H62.2543C63.2173 64.0001 63.998 63.2195 63.998 62.2564V51.7754V14.887" fill="#C251C0"/>
<path d="M0 1.74375V12.2247V51.7754V62.2564C0 63.2194 0.780625 64 1.74375 64H2.17225C3.13525 64 3.916 63.2194 3.916 62.2562V51.7752V12.2247V1.74375C3.916 0.780625 3.13525 0 2.17225 0H1.74375C0.780625 0 0 0.780625 0 1.74375Z" fill="#C251C0"/>
<path d="M28.8465 39.0206H27.4562H25.7892H24.3988H15.8314H14.4411H12.7739H11.3835C10.9474 39.0206 10.5938 39.3744 10.5938 39.8106V43.3261H29.6364V39.8106C29.6365 39.3745 29.2829 39.0206 28.8465 39.0206Z" fill="#00B6C6"/>
<path d="M34.8756 14.2452H36.2661H37.9331H39.3233H47.8907H49.2812H50.9484H52.3387C52.7752 14.2452 53.1287 14.599 53.1287 15.0352V18.5507H34.0859V15.0352C34.0859 14.5991 34.4394 14.2452 34.8756 14.2452Z" fill="#FF5C57"/>
<path d="M22.34 23.2023H20.1472C19.6861 23.2023 19.3125 23.576 19.3125 24.037V26.4879H22.34V23.2023Z" fill="#00B6C6"/>
<path d="M22.34 9.60325H19.3125V15.4482C19.3125 15.7682 19.4954 16.06 19.7835 16.1995C19.8991 16.2556 20.0235 16.283 20.147 16.283C20.3315 16.283 20.5146 16.2219 20.6649 16.1031L22.34 14.7791V9.60325Z" fill="#00B6C6"/>
<path d="M41.3831 47.9778H39.1902C38.729 47.9778 38.3555 48.3516 38.3555 48.8125V51.2633H41.3831V47.9778Z" fill="#00B6C6"/>
<path d="M41.3831 34.3786H38.3555V40.2236C38.3555 40.5436 38.5383 40.8354 38.8265 40.9749C39.1145 41.1144 39.4568 41.0769 39.708 40.8785L41.3828 39.5544L41.3831 39.5546V34.3786Z" fill="#00B6C6"/>
</svg>
