<svg width="65" height="65" viewBox="0 0 65 65" fill="none" xmlns="http://www.w3.org/2000/svg">
<g clip-path="url(#clip0)">
<path d="M56.8843 32.4937C56.3723 30.5116 54.584 29.129 52.5368 29.1323L38.1051 28.0118V22.4094H26.9004V28.0118L12.4687 29.1323C10.4216 29.129 8.63333 30.5116 8.12121 32.4937L4.21094 48.1804H60.7949L56.8843 32.4937Z" fill="#F2BB80"/>
<path d="M12.3335 60.5055V57.1441C12.3335 55.9059 11.3307 54.9031 10.0925 54.9031C8.85437 54.9031 7.85156 55.9059 7.85156 57.1441V64.9874C8.10483 65.0041 8.36026 65.0041 8.61353 64.9874H17.936C20.411 64.9874 22.4179 62.9806 22.4179 60.5054H12.3335V60.5055Z" fill="#E8A864"/>
<path d="M54.9112 54.9032C53.673 54.9032 52.6702 55.906 52.6702 57.1442V60.5057H42.5859C42.5859 62.9807 44.5927 64.9876 47.0679 64.9876H56.3903C56.6436 65.0044 56.899 65.0044 57.1523 64.9876V57.1443C57.1522 55.906 56.1492 54.9032 54.9112 54.9032Z" fill="#E8A864"/>
<path d="M13.4549 60.5056L15.6959 48.1803H4.21096L2.09325 56.6287C1.16662 60.2242 3.33028 63.8905 6.92585 64.8171C7.23066 64.8956 7.53992 64.9527 7.85248 64.9875V57.1442C7.85248 55.9061 8.85528 54.9032 10.0935 54.9032C11.3316 54.9032 12.3344 55.9061 12.3344 57.1442V60.5057H13.4549V60.5056Z" fill="#E8A864"/>
<path d="M62.9118 56.6288L60.7941 48.1805H50.4297L52.6707 57.1442C52.6707 55.9061 53.6735 54.9032 54.9116 54.9032C56.1498 54.9032 57.1526 55.9061 57.1526 57.1442V64.9875C60.8424 64.5729 63.4967 61.2451 63.0822 57.5554C63.0474 57.2427 62.9903 56.9335 62.9118 56.6288Z" fill="#E8A864"/>
<path d="M38.1032 25.771C34.5065 27.2052 30.4951 27.2052 26.8984 25.771V22.4095H38.1032V25.771Z" fill="#E8A864"/>
<path d="M56.8843 32.4938C56.3723 30.5116 54.584 29.129 52.5368 29.1323L38.1051 28.0118L32.5027 33.6142L26.9003 28.0118L12.4686 29.1323C10.4215 29.129 8.63321 30.5116 8.12108 32.4938L4.21094 48.1804H60.7949L56.8843 32.4938Z" fill="#C251C0"/>
<path d="M12.3335 57.1442C12.3335 55.906 11.3307 54.9032 10.0925 54.9032C8.85437 54.9032 7.85156 55.906 7.85156 57.1442V64.9875C8.10483 65.0042 8.36026 65.0042 8.61353 64.9875H17.936C20.411 64.9875 22.4179 62.9807 22.4179 60.5055H12.3335V57.1442Z" fill="#F2BB80"/>
<path d="M54.9112 54.9032C53.673 54.9032 52.6702 55.906 52.6702 57.1442V60.5057H42.5859C42.5859 62.9807 44.5927 64.9876 47.0679 64.9876H56.3903C56.6436 65.0044 56.899 65.0044 57.1523 64.9876V57.1443C57.1522 55.906 56.1492 54.9032 54.9112 54.9032Z" fill="#F2BB80"/>
<path d="M2.09325 56.6288C1.16662 60.2244 3.33028 63.8906 6.92585 64.8173C7.23066 64.8957 7.53992 64.9529 7.85248 64.9876V57.1444C7.85248 55.9062 8.85528 54.9034 10.0935 54.9034C11.3316 54.9034 12.3344 55.9062 12.3344 57.1444V60.5058H13.4549L15.6959 48.1806H4.21096L2.09325 56.6288Z" fill="#E8A864"/>
<path d="M62.9118 56.6288L60.7941 48.1805H50.4297L52.6707 57.1442C52.6707 55.9061 53.6735 54.9032 54.9116 54.9032C56.1498 54.9032 57.1526 55.9061 57.1526 57.1442V64.9875C60.8424 64.5729 63.4967 61.2451 63.0822 57.5554C63.0474 57.2427 62.9903 56.9335 62.9118 56.6288Z" fill="#E8A864"/>
<path d="M50.8164 33.5156H14.1914C13.0868 33.5156 12.1914 34.4111 12.1914 35.5156V55.8906C12.1914 56.9952 13.0868 57.8906 14.1914 57.8906H50.8164C51.921 57.8906 52.8164 56.9952 52.8164 55.8906V35.5156C52.8164 34.4111 51.921 33.5156 50.8164 33.5156Z" fill="#FF5C57"/>
<path d="M52.8164 41.6406H12.1914V58.9062H52.8164V41.6406Z" fill="#FFC100"/>
<path d="M52.673 41.6406H12.3359V60.5056H52.673V41.6406Z" fill="#FFC100"/>
<path d="M23.5391 10.0843V15.6867C23.5391 20.637 27.5526 24.6505 32.5028 24.6505C37.4531 24.6505 41.4666 20.637 41.4666 15.6867V10.0843H23.5391Z" fill="#F2BB80"/>
<path d="M41.4688 16.5975L41.4688 10.995C41.4688 6.04475 37.4553 2.03125 32.505 2.03125C27.5547 2.03125 23.5412 6.04475 23.5412 10.995L23.5412 16.5975L41.4688 16.5975Z" fill="#F2BB80"/>
<path d="M33.6232 17.9277H31.3822C30.7637 17.9277 30.2617 17.4257 30.2617 16.8072V11.2048H32.5027V15.6867H33.6232V17.9277Z" fill="#E8A864"/>
<path d="M48.3113 54.9032H48.0703C47.518 54.9032 47.0703 55.3509 47.0703 55.9032V56.1442C47.0703 56.6965 47.518 57.1442 48.0703 57.1442H48.3113C48.8636 57.1442 49.3113 56.6965 49.3113 56.1442V55.9032C49.3113 55.3509 48.8636 54.9032 48.3113 54.9032Z" fill="#00B6C6"/>
<path d="M43.8308 54.9032H43.5898C43.0376 54.9032 42.5898 55.3509 42.5898 55.9032V56.1442C42.5898 56.6965 43.0376 57.1442 43.5898 57.1442H43.8308C44.3831 57.1442 44.8308 56.6965 44.8308 56.1442V55.9032C44.8308 55.3509 44.3831 54.9032 43.8308 54.9032Z" fill="#00B6C6"/>
<path d="M37.582 33.5156H27.4258V41.6406H37.582V33.5156Z" fill="#00B6C6"/>
<path d="M27.9297 1.01562H37.0703C39.5942 1.01562 41.6406 2.2889 41.6406 3.85941V8.125H23.3594V3.85941C23.3594 2.2889 25.4057 1.01562 27.9297 1.01562Z" fill="#C251C0"/>
<path d="M22.3646 7.58592L23.0625 6.53905C23.248 6.26085 23.5602 6.09375 23.8946 6.09375H41.1054C41.4398 6.09375 41.752 6.26085 41.9375 6.53905L42.6354 7.58592C43.0784 8.25048 42.6021 9.14062 41.8034 9.14062H23.1966C22.3979 9.14062 21.9216 8.25048 22.3646 7.58592Z" fill="#00B6C6"/>
<path d="M27.4219 40.625V46.8458C27.4219 47.1864 27.7286 47.4969 28.2119 47.6454C28.6949 47.7938 29.2691 47.7539 29.6903 47.5428L32.4995 46.1335L35.3095 47.5429C35.5615 47.6692 35.8684 47.7344 36.1778 47.7344C36.3856 47.7344 36.594 47.7052 36.7879 47.6455C37.271 47.497 37.5781 47.1863 37.5781 46.846V40.625H27.4219Z" fill="#00B6C6"/>
</g>
<defs>
<clipPath id="clip0">
<rect width="65" height="65" fill="white"/>
</clipPath>
</defs>
</svg>
