<?xml version="1.0" encoding="utf-8"?>
<!-- Generator: Adobe Illustrator 17.1.0, SVG Export Plug-In . SVG Version: 6.00 Build 0)  -->
<!DOCTYPE svg PUBLIC "-//W3C//DTD SVG 1.1//EN" "http://www.w3.org/Graphics/SVG/1.1/DTD/svg11.dtd">
<svg version="1.1" xmlns="http://www.w3.org/2000/svg" xmlns:xlink="http://www.w3.org/1999/xlink" x="0px" y="0px"
	 viewBox="135 0 30 30" enable-background="new 135 0 30 30" xml:space="preserve">
<g id="Слой_2">
</g>
<g id="Слой_1" focusable="false">
	<path fill="#3DAFC4" d="M160.3,28.1h-20.6c-1.6,0-2.8-1.3-2.8-2.8V4.7c0-1.6,1.3-2.8,2.8-2.8h20.6c1.6,0,2.8,1.3,2.8,2.8v20.6
		C163.1,26.9,161.9,28.1,160.3,28.1z M148.3,22.4l10.8-10.8c0.4-0.4,0.4-1,0-1.3l-1.3-1.3c-0.4-0.4-1-0.4-1.3,0l-8.8,8.8l-4.1-4.1
		c-0.4-0.4-1-0.4-1.3,0l-1.3,1.3c-0.4,0.4-0.4,1,0,1.3l6.1,6.1C147.4,22.7,148,22.7,148.3,22.4z"/>
	<path fill="#FFFFFF" d="M156.4,8.9l-8.8,8.8l-4.1-4.1c-0.4-0.4-1-0.4-1.3,0l-1.3,1.3c-0.4,0.4-0.4,1,0,1.3l6.1,6.1
		c0.4,0.4,1,0.4,1.3,0l10.8-10.8c0.4-0.4,0.4-1,0-1.3l-1.3-1.3C157.4,8.6,156.8,8.6,156.4,8.9z"/>
</g>
</svg>
