<svg width="161" height="156" viewBox="0 0 161 156" fill="none" xmlns="http://www.w3.org/2000/svg">
<g clip-path="url(#clip0)">
<path d="M148.145 108.402C144.896 103.733 138.503 102.598 133.864 105.868L102.43 128.023C101.199 128.891 99.7321 129.357 98.2292 129.357H75V150H100.076C104.586 150 108.986 148.604 112.679 146L145.626 122.777C150.265 119.508 151.393 113.072 148.145 108.402Z" fill="#FABE8C"/>
<path d="M102.575 127.788C101.337 128.659 99.8631 129.126 98.3522 129.126L75 127.307V138H98.8562C109.412 138 118 129.374 118 118.772C118 118.174 117.969 117.584 117.915 117L102.575 127.788Z" fill="#E6A578"/>
<path d="M148.159 108.514C144.936 103.856 138.592 102.725 133.989 105.986L107.757 124.569C108.735 122.988 109.302 121.12 109.302 119.118C109.302 113.432 104.747 108.824 99.1279 108.824H74.4186L71.5744 106.665C65.9102 102.367 58.8916 100 51.811 100C45.8422 100 39.9823 101.642 34.8642 104.749C34.8642 104.749 30.0151 107.693 27.1166 109.452C25.8032 110.25 25 111.686 25 113.235V145.588C25 148.025 26.9523 150 29.3605 150H100.463C104.938 150 109.303 148.607 112.969 146.011L145.66 122.85C150.263 119.589 151.382 113.171 148.159 108.514Z" fill="#FFD2AA"/>
<path d="M75 150H100.077C104.586 150 108.986 148.604 112.68 146L145.627 122.777C150.266 119.508 151.393 113.072 148.145 108.402C144.897 103.733 138.503 102.598 133.864 105.868L107.427 124.501C108.413 122.915 108.985 121.043 108.985 119.035C108.985 113.334 104.394 108.713 98.7306 108.713H75V150Z" fill="#FABE8C"/>
<path d="M117.916 117L107.692 124.255C107.628 124.358 107.565 124.461 107.498 124.561C105.663 127.315 102.553 129.126 99.027 129.126H68.3784C65.9603 129.126 64 131.112 64 133.563C64 136.013 65.9603 138 68.3784 138H99.027C109.489 138 118 129.374 118 118.772C118 118.174 117.969 117.584 117.916 117Z" fill="#FABE8C"/>
<path d="M117.915 117L107.599 124.255C107.535 124.358 107.471 124.461 107.404 124.561C105.552 127.315 102.414 129.126 98.8562 129.126H75V138H98.8562C109.412 138 118 129.374 118 118.772C118 118.174 117.969 117.584 117.915 117Z" fill="#E6A578"/>
<path d="M30.4481 155.718H4.70888C2.10859 155.718 0.000488281 153.741 0.000488281 151.302L0.000488281 101.259C0.000488281 98.8205 2.10859 96.8435 4.70888 96.8435H30.4481C33.0484 96.8435 35.1565 98.8205 35.1565 101.259V151.302C35.1565 153.741 33.0484 155.718 30.4481 155.718Z" fill="#00B6C6"/>
</g>
<g clip-path="url(#clip1)">
<path d="M139.281 30.1943L112.688 27.8752L102.124 4.81062C101.384 3.19561 98.949 3.19561 98.2095 4.81062L87.6458 27.875L61.0524 30.1943C59.1902 30.3566 58.4378 32.5343 59.8426 33.6948L79.9074 50.2685L74.0354 74.7663C73.6242 76.4818 75.5945 77.8275 77.2024 76.9299L100.167 64.1086L123.131 76.9299C124.739 77.8277 126.709 76.4818 126.298 74.7663L120.426 50.2685L140.491 33.6948C141.896 32.5343 141.143 30.3566 139.281 30.1943Z" fill="#FFC100"/>
<path d="M72.9827 4.01669C74.3383 5.78715 78.1646 13.3906 80.3522 17.8218C80.6961 18.5184 79.7666 19.1477 79.1731 18.6199C75.3979 15.2637 68.9428 9.43969 67.5872 7.66904C66.5145 6.26818 66.8527 4.31488 68.3427 3.30626C69.8326 2.29763 71.91 2.61583 72.9827 4.01669Z" fill="#FFC100"/>
<path d="M127.353 4.01669C125.997 5.78715 122.171 13.3906 119.983 17.8218C119.639 18.5184 120.569 19.1477 121.163 18.6199C124.938 15.2637 131.393 9.4395 132.748 7.66904C133.821 6.26818 133.483 4.31488 131.993 3.30626C130.503 2.29763 128.426 2.61583 127.353 4.01669Z" fill="#FFC100"/>
<path d="M148.777 55.9377C146.571 55.2613 137.704 54.1438 132.549 53.5305C131.739 53.4341 131.384 54.4581 132.099 54.8294C136.647 57.1917 144.51 61.2047 146.715 61.8811C148.461 62.4164 150.337 61.5199 150.907 59.8786C151.476 58.2372 150.523 56.473 148.777 55.9377Z" fill="#FFC100"/>
<path d="M51.559 55.9377C53.765 55.2613 62.6323 54.1438 67.7869 53.5305C68.5972 53.4341 68.9523 54.4581 68.2375 54.8294C63.6894 57.1917 55.8266 61.2047 53.6206 61.8811C51.8752 62.4164 49.9987 61.5199 49.4294 59.8786C48.8601 58.2372 49.8136 56.473 51.559 55.9377Z" fill="#FFC100"/>
<path d="M96.9429 91.2146C96.9429 89.0329 98.5624 80.7597 99.5407 75.9617C99.6945 75.2074 100.84 75.2074 100.994 75.9617C101.972 80.7597 103.592 89.0329 103.592 91.2146C103.592 92.9409 102.103 94.3403 100.267 94.3403C98.4312 94.3405 96.9429 92.9409 96.9429 91.2146Z" fill="#FFC100"/>
<path d="M105.965 13.1979L102.124 4.81062C101.384 3.19561 98.9488 3.19561 98.2093 4.81062L87.6456 27.875L61.0524 30.1943C59.1902 30.3566 58.4378 32.5343 59.8426 33.6948L79.9074 50.2685L74.0354 74.7663C73.6242 76.4817 75.5945 77.8275 77.2024 76.9299L80.2588 75.2235C85.2694 44.7257 99.3558 22.3382 105.965 13.1979Z" fill="#FFA400"/>
</g>
<defs>
<clipPath id="clip0">
<rect y="5" width="160.713" height="150.718" fill="white"/>
</clipPath>
<clipPath id="clip1">
<rect x="49.2656" y="0.680664" width="101.807" height="95.726" fill="white"/>
</clipPath>
</defs>
</svg>
