<svg width="150" height="150" viewBox="0 0 150 150" fill="none" xmlns="http://www.w3.org/2000/svg">
<g clip-path="url(#clip0)">
<path d="M148.338 56.3462C147.783 55.7496 146.982 55.442 146.167 55.442H137.221C133.609 40.4927 125.162 26.9452 113.231 17.0645C100.444 6.47542 84.2452 0.640086 67.6145 0.631348C67.3407 0.631348 67.0643 0.689896 66.831 0.8335C66.2015 1.2212 65.9757 1.96398 66.2137 2.59898L74.1996 23.9115C74.4126 24.4804 74.9561 24.857 75.5634 24.857C94.4484 24.857 110.995 37.5367 116.096 55.442H108.415C107.6 55.442 106.8 55.7496 106.244 56.3462C105.197 57.4706 105.203 59.1187 106.12 60.2194L125.054 82.9397C125.607 83.6039 126.427 83.9881 127.291 83.9881C128.156 83.9881 128.976 83.6041 129.529 82.9397L148.463 60.2194C149.38 59.1187 149.385 57.4706 148.338 56.3462Z" fill="#FF5B55"/>
<path d="M66.1215 69.0836C83.8175 69.0836 98.163 54.7382 98.163 37.0422C98.163 19.3462 83.8175 5.00073 66.1215 5.00073C48.4255 5.00073 34.0801 19.3462 34.0801 37.0422C34.0801 54.7382 48.4255 69.0836 66.1215 69.0836Z" fill="#FFC100"/>
<path d="M98.163 37.0422C98.163 19.3463 83.8175 5.00073 66.1216 5.00073V69.0836C83.8175 69.0836 98.163 54.7381 98.163 37.0422Z" fill="#FCD232"/>
<path d="M66.1217 73.4531C46.0448 73.4531 29.7109 57.1192 29.7109 37.0423C29.7109 16.9655 46.0448 0.631592 66.1217 0.631592C86.1986 0.631592 102.532 16.9655 102.532 37.0423C102.532 57.1192 86.1986 73.4531 66.1217 73.4531ZM66.1217 9.37017C50.8632 9.37017 38.4495 21.7839 38.4495 37.0423C38.4495 52.3008 50.8632 64.7145 66.1217 64.7145C81.3801 64.7145 93.7938 52.3008 93.7938 37.0423C93.7938 21.7839 81.3801 9.37017 66.1217 9.37017Z" fill="#FFA400"/>
<path d="M93.7933 37.0421C93.7933 52.3005 81.3795 64.7143 66.1211 64.7143V73.4529C86.198 73.4529 102.532 57.119 102.532 37.0421C102.532 16.9652 86.198 0.631348 66.1211 0.631348V9.36993C81.3795 9.36993 93.7933 21.7837 93.7933 37.0421Z" fill="#FFA400"/>
<path d="M147.293 102.857C144.063 98.2448 137.706 97.1239 133.094 100.353L101.841 122.237C100.617 123.094 99.1584 123.554 97.6641 123.554H74.5684V143.944H99.5007C103.984 143.944 108.359 142.565 112.031 139.993L144.789 117.056C149.401 113.826 150.523 107.469 147.293 102.857Z" fill="#FABE8C"/>
<path d="M101.841 122.237C100.617 123.094 99.1584 123.554 97.6641 123.554L74.5684 121.763V132.292H98.1625C108.602 132.292 117.096 123.799 117.096 113.359C117.096 112.77 117.065 112.189 117.013 111.614L101.841 122.237Z" fill="#E6A578"/>
<path d="M147.293 102.857C144.064 98.2446 137.707 97.1238 133.095 100.353L106.81 118.758C107.79 117.192 108.358 115.342 108.358 113.359C108.358 107.728 103.794 103.164 98.1632 103.164H73.4039L70.5539 101.026C64.8782 96.7696 57.8454 94.4253 50.7506 94.4253C44.7696 94.4253 38.8978 96.0515 33.7695 99.1287C33.7695 99.1287 28.9105 102.044 26.0061 103.787C24.6901 104.576 23.8853 105.998 23.8853 107.533V139.575C23.8853 141.988 25.8415 143.944 28.2545 143.944H99.5013C103.985 143.944 108.359 142.565 112.032 139.993L144.79 117.056C149.402 113.826 150.523 107.469 147.293 102.857Z" fill="#FFD2AA"/>
<path d="M74.5684 143.944H99.5007C103.984 143.944 108.359 142.565 112.031 139.993L144.789 117.056C149.401 113.826 150.522 107.469 147.293 102.857C144.063 98.2448 137.706 97.1239 133.094 100.353L106.809 118.758C107.789 117.192 108.358 115.342 108.358 113.359C108.358 107.728 103.793 103.164 98.1625 103.164H74.5684V143.944Z" fill="#FABE8C"/>
<path d="M117.013 111.614L106.81 118.758C106.746 118.859 106.683 118.96 106.617 119.059C104.785 121.771 101.682 123.554 98.1628 123.554H67.5778C65.1648 123.554 63.2085 125.51 63.2085 127.923C63.2085 130.336 65.1648 132.292 67.5778 132.292H98.1628C108.603 132.292 117.096 123.799 117.096 113.359C117.096 112.77 117.066 112.189 117.013 111.614Z" fill="#FABE8C"/>
<path d="M28.2547 149.77H4.36929C1.95628 149.77 0 147.814 0 145.401L0 95.882C0 93.469 1.95628 91.5127 4.36929 91.5127H28.2547C30.6678 91.5127 32.624 93.469 32.624 95.882V145.401C32.624 147.814 30.6678 149.77 28.2547 149.77Z" fill="#FF5F5A"/>
<path d="M117.013 111.614L106.809 118.758C106.746 118.859 106.683 118.961 106.616 119.059C104.784 121.771 101.682 123.554 98.1625 123.554H74.5684V132.292H98.1625C108.602 132.292 117.096 123.799 117.096 113.359C117.096 112.77 117.065 112.189 117.013 111.614Z" fill="#E6A578"/>
</g>
<defs>
<clipPath id="clip0">
<rect y="0.631592" width="149.138" height="149.138" fill="white"/>
</clipPath>
</defs>
</svg>
