<?xml version="1.0" encoding="utf-8"?>
<!-- Generator: Adobe Illustrator 22.0.1, SVG Export Plug-In . SVG Version: 6.00 Build 0)  -->
<svg version="1.1" id="Layer_1" xmlns="http://www.w3.org/2000/svg" xmlns:xlink="http://www.w3.org/1999/xlink" x="0px" y="0px"
	 viewBox="0 0 512 512" style="enable-background:new 0 0 512 512;" xml:space="preserve">
<style type="text/css">
	.st0{fill:#FFFFFF;}
</style>
<g>
	<path class="st0" d="M367.3,409.8c2.7-1.2,4.4-3.9,4.5-6.8c0.1-2.9-1.5-5.6-4.1-7c-32.5-17.2-45-40.1-38.3-70.1
		c9.2-3.9,14.1-14.3,10.8-24l-9.7-28.7c-1.7-4.9-5.1-8.8-9.7-11.1c-4.6-2.3-9.9-2.6-14.8-1l-46.6,15.7c-4,1.4-6.2,5.7-4.8,9.8
		c1.4,4,5.7,6.2,9.8,4.8l46.6-15.7c2.1-0.7,4.3,0.4,5,2.5l9.7,28.7c0.7,2.1-0.4,4.3-2.5,5l-282,95.3c-1,0.3-2.1,0.3-3-0.2
		c-0.9-0.5-1.6-1.3-2-2.3L26.5,376c-0.7-2.1,0.4-4.3,2.5-5L233.2,302c4-1.4,6.2-5.7,4.8-9.8c-1.4-4-5.7-6.2-9.8-4.8l-30.6,10.4
		L104.9,23.4C102,14.7,95.8,7.7,87.5,3.6S70-1.1,61.2,1.8c-18,6.1-27.7,25.7-21.6,43.7l13.8,40.9c1.4,4,5.7,6.2,9.8,4.8
		c4-1.4,6.2-5.7,4.8-9.8L54.2,40.6c-3.4-10,2-20.8,11.9-24.1c4.8-1.6,10-1.3,14.5,1c4.6,2.3,8,6.2,9.6,11l92.7,274.4L147,314.9
		L77.4,109.3c-1.4-4-5.7-6.2-9.8-4.8c-4,1.4-6.2,5.7-4.8,9.8l69.5,205.6L24,356.5c-10.1,3.4-15.5,14.4-12.1,24.5l9.7,28.7
		c2.7,8,10.3,13.1,18.3,13.1c1.6,0,3.2-0.2,4.8-0.6c23.5,19.7,27.5,45.6,12.1,78.9c-1.2,2.7-0.8,5.8,1,8.1c1.5,1.8,3.7,2.9,6,2.9
		c0.6,0,1.1-0.1,1.7-0.2c60.4-13.4,120.3-30.7,178.2-51.4c1.1,0.3,2.2,0.6,3.4,0.8c4.6,11.8,13.2,21.4,24.6,27.1
		c7.2,3.6,15,5.4,22.8,5.4c5.4,0,10.8-0.9,16-2.6c19.9-6.6,33.5-24.6,34.8-45c8.1-3.5,13.8-11.6,13.8-20.9c0-3.8-0.9-7.4-2.6-10.5
		C360,413.1,363.6,411.5,367.3,409.8z M347.6,401.9c-1.4,0.6-2.7,1.2-4.1,1.8c-2.3-0.8-4.7-1.2-7.2-1.2c-3,0-6,0.6-8.8,1.8
		c-3.5-3-7.3-5.4-11.3-7.3c-16.3-16.8-23.3-36.3-21.2-59.4l17.8-6c-1.7,14.3,0.3,27.4,6.2,39.2C324.8,382.5,334.4,392.9,347.6,401.9
		z M194.8,460.7c-4.6-28.1-12.7-55.3-24.2-81.1l32.8-11.1c4.3,18,10.1,35.7,17.3,52.6c-1.3,5.7-1.1,11.9,0.8,17.9
		c1.3,4,3.4,7.6,6,10.7C216.8,453.5,205.8,457.2,194.8,460.7z M118.5,397.2c15.2,23.2,21.7,49.7,19.3,78.8c0,0.6-0.1,1.2-0.3,1.9
		c-8.7,2.4-17.4,4.7-26.1,7c7-30.6,1.4-57.3-16.6-79.7L118.5,397.2z M133.6,392.2l22.5-7.6c11.3,25.2,19.9,53.6,24.4,80.8
		c-8.9,2.8-17.9,5.5-26.9,8.1C155.2,443.7,148.5,416.4,133.6,392.2z M230.6,404.2c-5-13.2-9.2-26.8-12.4-40.7l22.5-7.6
		c1.4,13.8,4.7,27,10,39.4c-2.6,0.2-5.3,0.7-7.8,1.6C238.1,398.5,234,401,230.6,404.2z M269.3,398.8c-7.9-14.7-12.5-30.8-13.7-47.9
		l23.6-8c-0.5,18,4,34.5,13.4,49.2c-4.8,0.2-9.6,1-14.2,2.5C275.3,395.7,272.2,397.1,269.3,398.8z M80.2,451.5
		c-2.5-13-8.8-24.7-18.9-34.9l17.8-6c19.7,21.4,24.7,47.2,15.3,78.7c-6,1.5-12.1,2.9-18.1,4.3C81.4,478.4,82.7,464.3,80.2,451.5z
		 M336.9,432.6c-4.2,0.3-7.3,4-7,8.1c1,16-9,30.8-24.2,35.8c-9,3-18.6,2.3-27-2c-8.5-4.2-14.8-11.5-17.7-20.5
		c-0.2-0.6-0.4-1.3-0.6-1.9c-0.9-3.3-3.9-5.6-7.3-5.7c-7.6-0.1-14.3-5.1-16.7-12.3c-3.1-9.4,2-19.5,11.4-22.6
		c1.8-0.6,3.7-0.9,5.6-0.9c3.9,0,7.7,1.3,10.9,3.7c2.7,2.1,6.5,2.1,9.3,0.1c3-2.2,6.4-4,9.9-5.2c13.3-4.4,28-0.5,37.4,9.8
		c2.8,3.1,7.6,3.4,10.7,0.6c0.9-0.8,2.6-1.8,4.8-1.8c4.1,0,7.3,3.3,7.3,7.3C343.6,429.1,340.6,432.3,336.9,432.6z"/>
	<path class="st0" d="M467.1,384.2c-11.2,0-21.4,6.1-26.9,15.6c-24.6,1.4-44.2,21.9-44.2,46.8c0,25.9,21,46.9,46.9,46.9
		s46.9-21,46.9-46.9c0-3.2-0.3-6.4-1-9.5c5.8-5.8,9.2-13.7,9.2-22C498,398.1,484.1,384.2,467.1,384.2z M475.8,428
		c-2.8,1.9-4,5.5-3,8.8c1,3.2,1.6,6.5,1.6,9.8c0,17.4-14.1,31.5-31.5,31.5c-17.4,0-31.5-14.1-31.5-31.5s14.1-31.5,31.5-31.5
		c0.6,0,1.2,0,1.8,0.1c3.4,0.2,6.6-1.9,7.7-5.1c2.2-6.2,8.1-10.4,14.7-10.4c8.6,0,15.6,7,15.6,15.6
		C482.6,420.3,480.1,425.1,475.8,428z"/>
	<path class="st0" d="M445.5,331.3c0-17.5-14.3-31.8-31.8-31.8c-17.5,0-31.8,14.3-31.8,31.8s14.3,31.8,31.8,31.8
		C431.2,363.1,445.5,348.9,445.5,331.3z M397.3,331.3c0-9,7.3-16.4,16.4-16.4s16.4,7.3,16.4,16.4s-7.3,16.4-16.4,16.4
		S397.3,340.4,397.3,331.3z"/>
	<path class="st0" d="M473.6,310.7c-4.9,4.7-1.4,13.2,5.3,13.2c3.8,0,7.1-2.9,7.6-6.6c0.4-3-1-6.1-3.7-7.7
		C479.9,307.9,476,308.4,473.6,310.7z"/>
	<path class="st0" d="M363.7,463.7c-5,4.6-1.6,13.4,5.2,13.4c4,0,7.5-3.3,7.7-7.3C376.9,463,368.6,459.2,363.7,463.7z"/>
	<path class="st0" d="M386.2,264.6c1.3-6.8-6.8-11.7-12.3-7.5c-5.7,4.4-2.4,13.8,4.7,13.8C382.3,270.8,385.5,268.1,386.2,264.6z"/>
	<path class="st0" d="M423.1,239.3c0,0.7-0.1,1.4-0.1,2.1c0,21.5,17.5,39,39,39s39-17.5,39-39c0-10.2-4-19.9-11-27.2
		c1-3,1.5-6.1,1.5-9.3c0-16.4-13.4-29.8-29.8-29.8c-11.2,0-21.2,6.3-26.3,15.9c-13.8,0.6-24.9,12.1-24.9,26
		C410.7,226.3,415.6,234.6,423.1,239.3z M436.7,206.4c0.7,0,1.5,0.1,2.2,0.2c4,0.8,8-1.6,9-5.5c1.7-6.2,7.4-10.6,13.8-10.6
		c7.9,0,14.4,6.4,14.4,14.4c0,2.6-0.7,5.1-2,7.3c-2,3.4-1.2,7.8,2,10.1c6.1,4.5,9.6,11.4,9.6,19c0,13-10.6,23.6-23.6,23.6
		c-13,0-23.6-10.6-23.6-23.6c0-1.7,0.2-3.4,0.5-5c0.9-3.9-1.5-7.9-5.3-9c-4.5-1.3-7.6-5.5-7.6-10.2
		C426.1,211.2,430.9,206.4,436.7,206.4z"/>
</g>
</svg>
