<?xml version="1.0" encoding="utf-8"?>
<!-- Generator: Adobe Illustrator 22.0.1, SVG Export Plug-In . SVG Version: 6.00 Build 0)  -->
<svg version="1.1" id="Capa_1" xmlns="http://www.w3.org/2000/svg" xmlns:xlink="http://www.w3.org/1999/xlink" x="0px" y="0px"
	 viewBox="0 0 512 512" style="enable-background:new 0 0 512 512;" xml:space="preserve">
<style type="text/css">
	.st0{fill:#FFFFFF;}
</style>
<g>
	<g>
		<path class="st0" d="M107.7,168.3c-17.4,0-31.6,14.2-31.6,31.6s14.2,31.6,31.6,31.6s31.6-14.2,31.6-31.6S125.1,168.3,107.7,168.3z
			 M107.7,216.4c-9.1,0-16.5-7.4-16.5-16.5s7.4-16.5,16.5-16.5s16.5,7.4,16.5,16.5S116.8,216.4,107.7,216.4z"/>
		<path class="st0" d="M171.8,192.4c-4.2,0-7.5,3.4-7.5,7.5s3.4,7.5,7.5,7.5h56.1c4.2,0,7.5-3.4,7.5-7.5s-3.4-7.5-7.5-7.5H171.8z"/>
		<path class="st0" d="M356.2,192.4H260c-4.2,0-7.5,3.4-7.5,7.5s3.4,7.5,7.5,7.5h96.2c4.2,0,7.5-3.4,7.5-7.5
			S360.3,192.4,356.2,192.4z"/>
		<path class="st0" d="M171.8,232.5h-32.1c-4.2,0-7.5,3.4-7.5,7.5V272c0,4.2,3.4,7.5,7.5,7.5h32.1c4.2,0,7.5-3.4,7.5-7.5V240
			C179.4,235.8,176,232.5,171.8,232.5z M164.3,264.5h-17v-17h17V264.5z"/>
		<path class="st0" d="M260,248.5h-56.1c-4.2,0-7.5,3.4-7.5,7.5c0,4.2,3.4,7.5,7.5,7.5H260c4.2,0,7.5-3.4,7.5-7.5
			C267.5,251.8,264.2,248.5,260,248.5z"/>
		<path class="st0" d="M356.2,248.5h-64.1c-4.2,0-7.5,3.4-7.5,7.5c0,4.2,3.4,7.5,7.5,7.5h64.1c4.2,0,7.5-3.4,7.5-7.5
			C363.7,251.8,360.3,248.5,356.2,248.5z"/>
		<path class="st0" d="M171.8,296.6h-32.1c-4.2,0-7.5,3.4-7.5,7.5v32.1c0,4.2,3.4,7.5,7.5,7.5h32.1c4.2,0,7.5-3.4,7.5-7.5v-32.1
			C179.4,299.9,176,296.6,171.8,296.6z M164.3,328.6h-17v-17h17V328.6z"/>
		<path class="st0" d="M203.9,327.6H244c4.2,0,7.5-3.4,7.5-7.5s-3.4-7.5-7.5-7.5h-40.1c-4.2,0-7.5,3.4-7.5,7.5
			S199.7,327.6,203.9,327.6z"/>
		<path class="st0" d="M363.7,320.1c0-4.2-3.4-7.5-7.5-7.5H276c-4.2,0-7.5,3.4-7.5,7.5s3.4,7.5,7.5,7.5h80.2
			C360.3,327.6,363.7,324.3,363.7,320.1z"/>
		<path class="st0" d="M171.8,360.7h-32.1c-4.2,0-7.5,3.4-7.5,7.5v32.1c0,4.2,3.4,7.5,7.5,7.5h32.1c4.2,0,7.5-3.4,7.5-7.5v-32.1
			C179.4,364.1,176,360.7,171.8,360.7z M164.3,392.8h-17v-17h17V392.8z"/>
		<path class="st0" d="M260,376.7h-56.1c-4.2,0-7.5,3.4-7.5,7.5s3.4,7.5,7.5,7.5H260c4.2,0,7.5-3.4,7.5-7.5S264.2,376.7,260,376.7z"
			/>
		<path class="st0" d="M363.7,384.3c0-4.2-3.4-7.5-7.5-7.5h-64.1c-4.2,0-7.5,3.4-7.5,7.5s3.4,7.5,7.5,7.5h64.1
			C360.3,391.8,363.7,388.4,363.7,384.3z"/>
		<path class="st0" d="M83.7,151.3H280c4.2,0,7.5-3.4,7.5-7.5s-3.4-7.5-7.5-7.5H91.2v-25h257.5v25h-32c-4.2,0-7.5,3.4-7.5,7.5
			s3.4,7.5,7.5,7.5h39.5c4.2,0,7.5-3.4,7.5-7.5v-40.1c0-4.2-3.4-7.5-7.5-7.5H83.7c-4.2,0-7.5,3.4-7.5,7.5v40.1
			C76.1,147.9,79.5,151.3,83.7,151.3z"/>
		<path class="st0" d="M292.1,79.2h64.1c4.2,0,7.5-3.4,7.5-7.5c0-4.2-3.4-7.5-7.5-7.5h-64.1c-4.2,0-7.5,3.4-7.5,7.5
			C284.6,75.8,287.9,79.2,292.1,79.2z"/>
		<path class="st0" d="M147.8,79.2H260c4.2,0,7.5-3.4,7.5-7.5c0-4.2-3.4-7.5-7.5-7.5H147.8c-4.2,0-7.5,3.4-7.5,7.5
			C140.3,75.8,143.6,79.2,147.8,79.2z"/>
		<path class="st0" d="M469.9,368.5c-8.7-9.6-23.6-10.4-33.3-1.8l-32.8,29.6V7.5c0-4.2-3.4-7.5-7.5-7.5H107.7c-2,0-3.9,0.8-5.3,2.2
			L38.3,66.3c-1.4,1.4-2.2,3.3-2.2,5.3v432.8c0,4.2,3.4,7.5,7.5,7.5h352.7c4.2,0,7.5-3.4,7.5-7.5v-44.8l64.3-57.9
			c4.7-4.2,7.4-10,7.8-16.3C476.2,379.2,474.1,373.2,469.9,368.5z M100.2,25.7v38.5H61.7L100.2,25.7z M388.8,497H51.1V79.2h56.6
			c4.2,0,7.5-3.4,7.5-7.5V15h273.5v394.8l-15.7,14.1l-8.3-8.3c-9.1-9.1-24.2-9.1-33.3,0c-9.1,9.1-9.1,24.2,0,33.3l24,24
			c4.5,4.5,10.6,6.8,16.7,6.8c5.7,0,11.3-2,15.7-5.9l0.8-0.7L388.8,497L388.8,497z M460.9,384.7c-0.1,2.3-1.1,4.4-2.8,5.9
			l-80.2,72.1c-3.3,3-8.6,2.8-11.7-0.3l-24-24c-3.3-3.3-3.3-8.8,0-12c3.3-3.3,8.8-3.3,12,0l13.3,13.3c2.8,2.8,7.4,2.9,10.3,0.3
			l68.9-62C452.2,373,461.3,377.3,460.9,384.7z"/>
	</g>
</g>
</svg>
