<?xml version="1.0" encoding="utf-8"?>
<!-- Generator: Adobe Illustrator 22.0.1, SVG Export Plug-In . SVG Version: 6.00 Build 0)  -->
<svg version="1.1" id="Layer_1" xmlns="http://www.w3.org/2000/svg" xmlns:xlink="http://www.w3.org/1999/xlink" x="0px" y="0px"
	 viewBox="0 0 512 512" style="enable-background:new 0 0 512 512;" xml:space="preserve">
<style type="text/css">
	.st0{fill:#60C977;}
</style>
<g>
	<g>
		<path class="st0" d="M426,93.6c-4.1,0-7.5,3.4-7.5,7.5v396h-227V282.6h47.6c14.1,21.4,38.4,35.5,65.9,35.5c43.5,0,79-35.4,79-79
			s-35.4-79-79-79c-27.5,0-51.7,14.1-65.9,35.5h-47.6V15h227v31.4c0,4.1,3.4,7.5,7.5,7.5s7.5-3.4,7.5-7.5V12.3
			C433.5,5.5,428,0,421.2,0H188.7c-6.8,0-12.3,5.5-12.3,12.3v183.4H122c-24,0-43.5,19.5-43.5,43.5c0,19.7,13.4,37,32.5,42.1
			c4,1.1,8.1-1.3,9.2-5.3s-1.3-8.1-5.3-9.2c-12.5-3.3-21.3-14.6-21.3-27.6c0-15.7,12.8-28.5,28.5-28.5H290
			c15.7,0,28.5,12.8,28.5,28.5s-12.8,28.5-28.5,28.5H165.3c-4.1,0-7.5,3.4-7.5,7.5s3.4,7.5,7.5,7.5h11.1v217.1
			c0,6.8,5.5,12.3,12.3,12.3h232.4c6.8,0,12.3-5.5,12.3-12.3V101.1C433.5,96.9,430.1,93.6,426,93.6z M290,282.6
			c24,0,43.5-19.5,43.5-43.5S314,195.6,290,195.6h-31.9c11.7-12.6,28.4-20.5,46.9-20.5c35.3,0,64,28.7,64,64s-28.7,64-64,64
			c-18.5,0-35.2-7.9-46.9-20.5H290z"/>
	</g>
</g>
<g>
	<g>
		<path class="st0" d="M305,352.9c-16.3,0-29.5,13.2-29.5,29.5c0,8.2,3.4,15.9,9.3,21.5v15.8c0,11.1,9.1,20.2,20.2,20.2
			s20.2-9.1,20.2-20.2v-15.8c5.9-5.5,9.3-13.3,9.3-21.5C334.5,366.1,321.2,352.9,305,352.9z M313.4,394.2c-2,1.4-3.2,3.7-3.2,6.1
			v19.3c0,2.8-2.4,5.2-5.2,5.2s-5.2-2.4-5.2-5.2v-19.3c0-2.4-1.2-4.7-3.2-6.1c-3.8-2.7-6.1-7.1-6.1-11.8c0-8,6.5-14.5,14.5-14.5
			s14.5,6.5,14.5,14.5C319.5,387,317.2,391.5,313.4,394.2z"/>
	</g>
</g>
</svg>
