<?xml version="1.0" encoding="utf-8"?>
<!-- Generator: Adobe Illustrator 22.0.1, SVG Export Plug-In . SVG Version: 6.00 Build 0)  -->
<svg version="1.1" id="Слой_1" xmlns="http://www.w3.org/2000/svg" xmlns:xlink="http://www.w3.org/1999/xlink" x="0px" y="0px"
	 viewBox="0 0 512 512" style="enable-background:new 0 0 512 512;" xml:space="preserve">
<style type="text/css">
	.st0{fill:#60C977;}
</style>
<path class="st0" d="M504.3,308.9c4.2,0,7.6-3.4,7.6-7.6v-30c0-4.2-3.4-7.6-7.6-7.6h-40.9l-6.1-202.1c12.6-4.2,21.7-16,21.7-30
	C479,14.2,464.9,0,447.4,0H339c-17.4,0-31.6,14.2-31.6,31.6c0,14,9.1,25.8,21.7,30l-4.6,153.2L256,257.6V196c0-2.8-1.5-5.3-3.9-6.7
	c-2.4-1.3-5.4-1.3-7.7,0.2l-108.8,68V196c0-2.8-1.5-5.3-3.9-6.7c-2.4-1.3-5.4-1.3-7.7,0.2L3.6,264.8c-2.2,1.4-3.6,3.8-3.6,6.4v233.1
	c0,4.2,3.4,7.6,7.6,7.6h496.7c4.2,0,7.6-3.4,7.6-7.6V331.7c0-4.2-3.4-7.6-7.6-7.6s-7.6,3.4-7.6,7.6v165.1H15.2V275.5l105.2-65.8
	v61.6c0,2.8,1.5,5.3,3.9,6.6s5.4,1.3,7.7-0.2l108.8-68v61.6c0,2.8,1.5,5.3,3.9,6.6c2.4,1.3,5.4,1.3,7.7-0.2l108.8-68v61.6
	c0,4.2,3.4,7.6,7.6,7.6h127.8v22.4C496.7,305.5,500.1,308.9,504.3,308.9z M442.2,63.2l0.8,28h-99.5l0.8-28
	C344.3,63.2,442.2,63.2,442.2,63.2z M343,106.4h100.4l0.7,24.4H342.3L343,106.4z M322.7,31.6c0-9,7.4-16.4,16.4-16.4h108.4
	c9,0,16.4,7.4,16.4,16.4S456.5,48,447.4,48H339C330,48,322.7,40.6,322.7,31.6z M372.6,189.3c-2.4-1.3-5.4-1.3-7.7,0.2L340,205.1
	l1.8-59h102.8l3.5,117.6h-71.7V196C376.5,193.2,375,190.7,372.6,189.3z"/>
<path class="st0" d="M100.5,406c-4.2,0-7.6,3.4-7.6,7.6s3.4,7.6,7.6,7.6h347.4c13.6,0,24.7-11.1,24.7-24.7v-50
	c0-13.6-11.1-24.7-24.7-24.7H64c-13.6,0-24.7,11.1-24.7,24.7v50c0,13.6,11.1,24.7,24.7,24.7h6c4.2,0,7.6-3.4,7.6-7.6
	S74.2,406,70,406h-6c-5.2,0-9.5-4.3-9.5-9.5v-50c0-5.2,4.3-9.5,9.5-9.5h57.1v69H100.5z M290.7,406h-69.6v-69h69.6V406z M305.9,337
	h69.6v69h-69.6V337z M457.4,346.5v50c0,5.2-4.3,9.5-9.5,9.5h-57.1v-69h57.1C453.1,337,457.4,341.3,457.4,346.5z M136.3,337h69.6v69
	h-69.6L136.3,337L136.3,337z"/>
<path class="st0" d="M28.4,92.3h107.3c3,0,5.6-1.7,6.9-4.4c3-6.5,4.5-13.4,4.5-20.5c0-26.8-21.8-48.7-48.7-48.7
	c-18,0-34.2,9.8-42.7,25.3c-19.5,0.4-35.3,16.4-35.3,36c0,1.9,0.2,3.9,0.5,5.8C21.5,89.6,24.7,92.3,28.4,92.3z M56.4,59.3
	c0.9,0,1.9,0.1,2.9,0.2c3.4,0.5,6.8-1.4,8.1-4.7C72.6,42.2,84.8,34,98.4,34c18.4,0,33.5,15,33.5,33.5c0,3.3-0.5,6.6-1.4,9.7H35.9
	C37.3,67.1,46,59.3,56.4,59.3z"/>
<path class="st0" d="M135.4,149.4c0,1.9,0.2,3.9,0.5,5.8c0.6,3.7,3.8,6.4,7.5,6.4h107.3c3,0,5.6-1.7,6.9-4.4
	c3-6.5,4.5-13.4,4.5-20.5c0-26.8-21.8-48.7-48.7-48.7c-18,0-34.2,9.8-42.7,25.3C151.1,113.8,135.4,129.8,135.4,149.4z M171.4,128.6
	c0.9,0,1.9,0.1,2.9,0.2c3.4,0.5,6.8-1.4,8.1-4.7c5.2-12.7,17.3-20.9,31-20.9c18.4,0,33.5,15,33.5,33.5c0,3.3-0.5,6.6-1.4,9.7h-94.6
	C152.2,136.4,160.9,128.6,171.4,128.6z"/>
</svg>
