<?xml version="1.0" encoding="utf-8"?>
<!-- Generator: Adobe Illustrator 22.0.1, SVG Export Plug-In . SVG Version: 6.00 Build 0)  -->
<svg version="1.1" id="Capa_1" xmlns="http://www.w3.org/2000/svg" xmlns:xlink="http://www.w3.org/1999/xlink" x="0px" y="0px"
	 viewBox="0 0 512 512" style="enable-background:new 0 0 512 512;" xml:space="preserve">
<style type="text/css">
	.st0{fill:#60C977;}
</style>
<g>
	<path class="st0" d="M256,0C114.8,0,0,114.8,0,256s114.8,256,256,256s256-114.8,256-256S397.2,0,256,0z M256,494.9
		C124.3,494.9,17.1,387.7,17.1,256S124.3,17.1,256,17.1S494.9,124.3,494.9,256S387.7,494.9,256,494.9z"/>
	<path class="st0" d="M256,51.2c-4.7,0-8.5,3.8-8.5,8.5V256h-128c-4.7,0-8.5,3.8-8.5,8.5s3.8,8.5,8.5,8.5H256c4.7,0,8.5-3.8,8.5-8.5
		V59.7C264.5,55,260.7,51.2,256,51.2z"/>
</g>
</svg>
