<svg id="Layer_1" enable-background="new 0 0 128 128" height="512" viewBox="0 0 128 128" width="512" xmlns="http://www.w3.org/2000/svg"><path d="m119.858 64.596c-.848-6.36-6.698-10.846-13.071-10l-.66.088c-1.435.195-2.765-.823-2.956-2.26l-.062-.465c-.835-6.277-6.525-10.901-12.684-10.301-3.179.309-6.02 1.853-8 4.349-.274.345-.521.704-.752 1.071.612-1.982.947-4.097.947-6.288 0-.588-.033-1.173-.081-1.756-.012-.144-.024-.288-.039-.432-.057-.556-.131-1.109-.232-1.657-.018-.1-.043-.198-.063-.298-.095-.477-.207-.95-.334-1.418-.034-.124-.065-.248-.101-.37-.159-.546-.338-1.085-.541-1.614-.014-.037-.031-.073-.045-.11-.207-.531-.438-1.051-.688-1.56-.017-.035-.033-.07-.05-.104-.054-.109-.102-.221-.159-.329-.02-.038-.054-.061-.077-.095-.588-1.109-1.272-2.146-2.042-3.102-.025-.042-.036-.089-.067-.128-.134-.165-.288-.309-.428-.469-.187-.215-.378-.424-.574-.629-.251-.263-.505-.519-.77-.766-.211-.197-.431-.381-.651-.567-.196-.166-.379-.35-.58-.506-.029-.023-.064-.028-.095-.047-1.028-.788-2.128-1.47-3.298-2.009-.011-.005-.017-.015-.028-.02-.49-.224-.989-.415-1.492-.59-.03-.01-.058-.025-.088-.035-.489-.166-.985-.3-1.484-.419-.077-.018-.151-.046-.229-.063-.484-.108-.974-.182-1.467-.246-.101-.013-.199-.038-.301-.049-.597-.065-1.198-.1-1.805-.1-9.636 0-17.49 8.425-17.78 18.895-1.949-.443-3.976-.22-5.801.663-1.844.893-3.297 2.375-4.154 4.22-2.748-.112-5.483.447-7.947 1.64s-4.6 2.988-6.215 5.217c-1.978-.471-4.043-.25-5.887.643-4.388 2.125-6.23 7.425-4.105 11.814 1.583 3.268 5.062 5.228 8.631 4.96 3.085 6.022 9.413 9.539 16.102 9.025.063.428.19.846.382 1.242.498 1.028 1.366 1.8 2.445 2.175.459.16.934.239 1.406.239.637 0 1.271-.144 1.86-.43.466-.225.875-.532 1.224-.903l19.284 29.544c.001.002.004.004.005.006.006.009.014.015.02.024.024.034.052.064.08.094.014.016.025.033.041.047.036.035.075.062.115.09.012.008.018.021.03.029.011.007.024.009.035.016.031.019.063.035.096.05.022.01.045.017.068.026.002.001.005.002.007.003.027.01.052.023.079.03.081.022.164.034.249.036.004 0 .008.002.011.002h.001s0 0 0 0h.001c.004 0 .008-.002.011-.002.084-.001.168-.014.249-.036.027-.007.052-.02.079-.03.002-.001.005-.002.007-.003.023-.009.046-.016.068-.026.033-.015.065-.031.096-.05.011-.007.024-.009.035-.016.012-.008.018-.021.03-.029.04-.028.079-.056.115-.09.015-.015.026-.032.041-.047.028-.03.056-.06.08-.094.006-.009.015-.015.02-.024.001-.002.004-.004.005-.006l18.778-28.768c.252.374.564.711.933.994.76.581 1.656.862 2.547.862 1.265 0 2.516-.567 3.342-1.646.38-.498.643-1.076.771-1.685.024-.003.049-.006.072-.009l17.484-2.327c6.361-.847 10.847-6.71 10.001-13.071zm-39.853-9.82 2.334 17.542c.002.011.003.021.005.031-.565.284-1.063.694-1.45 1.2-1.407 1.839-1.057 4.48.783 5.889.455.348.968.581 1.506.719l-17.089 26.181v-42.74c.134.013.265.041.4.041 2.405 0 4.362-1.957 4.362-4.362 0-.05-.001-.101-.003-.152 4.041-1.586 7.3-4.638 9.356-8.508-.311 1.344-.393 2.746-.204 4.159zm-32.571 25.045c2.122-1.028 3.012-3.59 1.984-5.711-.192-.396-.44-.755-.737-1.07 4.551-4.93 5.714-12.075 2.903-18.228.142-.154.256-.327.386-.49 1.857 2.106 4.164 3.767 6.804 4.802-.002.051-.003.102-.003.152 0 2.405 1.957 4.362 4.361 4.362.327 0 .646-.047.961-.121v42.82l-17.173-26.309c.175-.058.346-.126.514-.207z" fill="#e6e7e8"/><path d="m105.726 72.675c5.823-.775 9.916-6.124 9.141-11.948-.775-5.824-6.124-9.916-11.948-9.141l-.66.088c-1.988.265-3.814-1.133-4.079-3.12l-.062-.464c-.761-5.718-5.855-9.995-11.596-9.438-6.027.585-10.318 6.041-9.526 11.992l2.334 17.54c.037.274.087.543.15.807-.689.165-1.329.559-1.793 1.166-1.074 1.404-.807 3.412.597 4.486.802.614 1.802.788 2.712.563.022.937.451 1.856 1.253 2.47 1.404 1.074 3.412.807 4.486-.597.459-.6.671-1.311.656-2.012.281-.007.565-.028.85-.066z" fill="#fa759e"/><path d="m77.62 36.789c0-10.211-7.525-18.488-16.808-18.488s-16.808 8.278-16.808 18.488c0 .26.019.514.029.771 1.736.704 3.23 2.021 4.111 3.84 1.159 2.393.988 5.083-.216 7.241 2.061 2.707 4.806 4.763 7.952 5.824-.065.262-.11.531-.11.813 0 1.857 1.505 3.362 3.362 3.362.615 0 1.185-.177 1.681-.466.496.289 1.065.466 1.681.466 1.857 0 3.362-1.505 3.362-3.362 0-.282-.045-.551-.11-.813 6.874-2.319 11.874-9.354 11.874-17.676z" fill="#0089ef"/><path d="m58.771 55.277c0-.282.045-.551.11-.813-4.334-1.461-7.919-4.799-9.98-9.15-.076 1.169-.403 2.307-.972 3.326 2.061 2.707 4.806 4.763 7.952 5.824-.065.262-.11.531-.11.813 0 1.857 1.505 3.362 3.362 3.362.541 0 1.042-.143 1.493-.372-1.096-.554-1.855-1.678-1.855-2.99z" fill="#fff"/><path d="m47.26 39.984c-.165-1.039-.255-2.105-.255-3.196 0-9.654 6.729-17.569 15.308-18.405-.495-.048-.994-.083-1.5-.083-9.283 0-16.808 8.278-16.808 18.488 0 .26.019.514.029.771 1.247.506 2.368 1.326 3.226 2.425z" fill="#fff"/><path d="m48.145 41.4c-1.888-3.899-6.579-5.529-10.478-3.641-1.907.923-3.266 2.519-3.942 4.363-2.717-.233-5.528.222-8.16 1.497-2.633 1.275-4.733 3.197-6.235 5.474-1.865-.614-3.96-.537-5.867.387-3.899 1.888-5.529 6.579-3.641 10.478 1.551 3.203 4.993 4.87 8.334 4.318.046.099.079.201.127.3 3.055 6.309 9.78 9.644 16.366 8.689-.097.633-.013 1.301.287 1.921.788 1.628 2.747 2.309 4.375 1.52.701-.339 1.213-.902 1.521-1.556.704.164 1.463.111 2.164-.228 1.628-.788 2.309-2.747 1.52-4.375-.3-.62-.772-1.101-1.329-1.417 4.833-4.575 6.387-11.919 3.332-18.228-.048-.099-.107-.188-.156-.285 2.507-2.28 3.333-6.015 1.782-9.217z" fill="#ffd7e5"/><g fill="#3a2c60"><path d="m115.858 60.596c-.848-6.361-6.709-10.843-13.071-10l-.66.088c-.697.091-1.388-.091-1.946-.519-.558-.427-.916-1.045-1.009-1.744l-.063-.462c-.835-6.278-6.526-10.902-12.684-10.301-3.178.308-6.02 1.853-8 4.348-.274.345-.521.704-.751 1.071.611-1.982.947-4.096.947-6.287 0-3.386-.807-6.722-2.332-9.648-.256-.489-.857-.681-1.349-.424-.49.255-.68.859-.425 1.349 1.377 2.642 2.105 5.658 2.105 8.724 0 7.703-4.449 14.388-11.081 16.684l-9.475-.008c-2.761-.961-5.136-2.688-6.972-4.93 1.086-2.358 1.126-5.149-.047-7.571-.866-1.789-2.281-3.198-4.036-4.063 0-.037-.004-.074-.004-.112 0-9.643 7.091-17.488 15.808-17.488 2.09 0 4.12.444 6.034 1.319.504.231 1.096.008 1.325-.493.229-.502.009-1.096-.493-1.325-2.177-.996-4.486-1.501-6.866-1.501-9.636 0-17.49 8.425-17.78 18.895-1.949-.443-3.976-.221-5.8.664-1.845.893-3.298 2.375-4.155 4.22-2.747-.111-5.482.447-7.947 1.64-2.464 1.193-4.6 2.988-6.215 5.217-1.978-.471-4.042-.25-5.887.643-4.389 2.125-6.23 7.425-4.104 11.814 1.582 3.268 5.059 5.225 8.631 4.96 3.084 6.022 9.408 9.535 16.101 9.025.063.428.19.846.382 1.242.498 1.028 1.366 1.8 2.445 2.175.459.16.934.239 1.406.239.637 0 1.271-.144 1.86-.43.466-.225.876-.532 1.224-.903l19.284 29.544c.001.002.004.004.005.006.006.009.014.015.02.024.024.034.052.064.08.094.014.016.025.033.041.047.036.035.075.062.115.09.012.008.018.021.03.029.011.007.024.009.035.016.031.019.063.035.096.05.022.01.045.017.068.026.002.001.005.002.007.003.027.01.052.023.079.03.081.022.164.034.249.036.004 0 .008.002.011.002h.001s0 0 0 0h.001c.004 0 .008-.002.011-.002.084-.001.168-.014.249-.036.027-.007.052-.02.079-.03.002-.001.005-.002.007-.003.023-.009.046-.016.068-.026.033-.015.065-.031.096-.05.011-.007.024-.009.035-.016.012-.008.018-.021.03-.029.04-.028.079-.056.115-.09.015-.015.026-.032.041-.047.028-.03.056-.06.08-.094.006-.009.015-.015.02-.024.001-.002.004-.004.005-.006l18.778-28.768c.252.374.564.711.933.994.76.581 1.656.862 2.547.862 1.265 0 2.516-.567 3.342-1.646.38-.498.643-1.076.771-1.685.024-.003.049-.006.072-.009l17.484-2.327c6.358-.849 10.845-6.712 9.999-13.073zm-39.649-13.979c-.31 1.344-.392 2.745-.204 4.159l2.335 17.539c.001.012.003.023.004.035-.564.284-1.063.693-1.45 1.2-1.407 1.839-1.057 4.48.783 5.889.455.348.968.581 1.506.719l-17.089 26.181v-42.741c.134.013.265.041.401.041 2.405 0 4.361-1.957 4.361-4.362 0-.05-.001-.101-.003-.152 4.04-1.586 7.299-4.638 9.356-8.508zm-11.374 8.855c-.101 1.21-1.106 2.167-2.342 2.167-.404 0-.801-.111-1.179-.331-.311-.181-.694-.18-1.005 0-.377.219-.773.331-1.178.331-1.238 0-2.245-.961-2.342-2.174zm-10.061-.347c-.002.051-.003.102-.003.152 0 2.405 1.957 4.362 4.361 4.362.326 0 .646-.047.961-.121v42.82l-17.173-26.311c.174-.057.346-.126.514-.207 2.121-1.027 3.012-3.589 1.984-5.712-.192-.396-.44-.754-.737-1.068 4.551-4.93 5.714-12.075 2.903-18.229.145-.158.263-.334.395-.501 1.856 2.109 4.155 3.779 6.795 4.815zm-35.59 9.013-.117-.278c-.187-.411-.626-.643-1.073-.572-2.968.491-5.959-1.059-7.271-3.767-1.645-3.396-.22-7.497 3.176-9.142 1.603-.775 3.421-.895 5.119-.336.43.141.899-.022 1.147-.399 1.458-2.21 3.477-3.982 5.836-5.125s5.001-1.63 7.639-1.4c.449.037.869-.229 1.024-.653.615-1.679 1.836-3.031 3.439-3.807 1.644-.796 3.5-.905 5.229-.305 1.727.6 3.116 1.836 3.913 3.482 1.312 2.708.673 6.015-1.553 8.041-.334.304-.423.794-.217 1.196l.146.265c2.803 5.788 1.549 12.646-3.12 17.065-.033.032-.045.077-.073.112-1.797 1.602-6.267 3.228-7.986 3.766-6.336.889-12.465-2.373-15.258-8.143zm20.745 10.586c-.159.338-.471.8-1.052 1.082-.547.264-1.164.301-1.738.102-.574-.2-1.036-.611-1.301-1.158-.116-.239-.174-.494-.201-.754 1.567-.525 5.392-1.912 7.602-3.566.152.164.281.349.38.552.546 1.129.073 2.493-1.056 3.04-.582.281-1.138.239-1.502.154-.454-.106-.931.121-1.132.548zm42.927 2.159c-.531-.407-.845-1.026-.86-1.699-.007-.303-.151-.587-.393-.771-.176-.135-.39-.206-.607-.206-.08 0-.16.01-.239.029-.651.162-1.333.02-1.865-.386-.963-.738-1.147-2.121-.409-3.085.217-.285.494-.502.811-.649l7.059 5.418c-.061.339-.197.659-.411.939-.739.963-2.122 1.146-3.086.41zm22.737-5.199-17.485 2.327c-.138.018-.275.022-.412.032l-7.303-5.606c-.024-.128-.053-.253-.071-.384l-2.335-17.541c-.348-2.616.364-5.196 2.005-7.264 1.641-2.066 3.994-3.345 6.627-3.601 5.096-.493 9.813 3.351 10.508 8.576l.063.462c.162 1.227.793 2.316 1.776 3.067.982.752 2.202 1.077 3.425.913l.66-.088c5.259-.7 10.123 3.013 10.825 8.282.7 5.268-3.015 10.124-8.283 10.825z"/><path d="m72.553 25.079c.197.242.485.368.775.368.222 0 .445-.074.631-.225.429-.349.492-.979.143-1.407-.896-1.099-1.906-2.086-3.003-2.937-.435-.338-1.065-.257-1.402.178-.339.437-.259 1.065.178 1.403.976.757 1.878 1.638 2.678 2.62z"/></g></svg>