<?xml version="1.0" encoding="utf-8"?>
<!-- Generator: Adobe Illustrator 17.1.0, SVG Export Plug-In . SVG Version: 6.00 Build 0)  -->
<!DOCTYPE svg PUBLIC "-//W3C//DTD SVG 1.1//EN" "http://www.w3.org/Graphics/SVG/1.1/DTD/svg11.dtd">
<svg version="1.1" id="Capa_1" xmlns="http://www.w3.org/2000/svg" xmlns:xlink="http://www.w3.org/1999/xlink" x="0px" y="0px"
	 viewBox="135 0 30 30" enable-background="new 135 0 30 30" xml:space="preserve">
<path fill="#FFAE04" d="M159.7,12l5.3-3l-15-8.5L135,9l5.3,3l-5.3,3l5.3,3l-5.3,3l15,8.6l15-8.6l-5.3-3l5.3-3L159.7,12z M150,1.7
	L162.8,9L150,16.3L137.2,9L150,1.7z M141.4,12.6l8.6,4.9l8.6-4.9l4.2,2.4L150,22.3L137.2,15L141.4,12.6z M162.8,21L150,28.3
	L137.2,21l4.2-2.4l8.6,4.9l8.6-4.9L162.8,21z"/>
</svg>
