<?xml version="1.0" encoding="utf-8"?>
<!-- Generator: Adobe Illustrator 22.0.1, SVG Export Plug-In . SVG Version: 6.00 Build 0)  -->
<svg version="1.1" id="Слой_1" xmlns="http://www.w3.org/2000/svg" xmlns:xlink="http://www.w3.org/1999/xlink" x="0px" y="0px"
	 viewBox="0 0 512 512" style="enable-background:new 0 0 512 512;" xml:space="preserve">
<style type="text/css">
	.st0{display:none;}
	.st1{display:inline;fill:#4F6BAA;}
	.st2{fill:#FF010C;}
	.st3{fill:#FFFFFF;}
	.st4{font-family:'HelveticaNeue-Medium';}
	.st5{font-size:282.7031px;}
	.st6{fill:none;stroke:#FFFFFF;stroke-width:5;stroke-miterlimit:10;}
</style>
<g id="Слой_4" class="st0">
	<rect x="-13.5" class="st1" width="525.5" height="525.5"/>
</g>
<g id="Слой_1_1_">
</g>
<g>
	<path class="st2" d="M70.1,216.3c0,45.2,0,182,173.9,260.7c173.9-78.7,173.9-215.5,173.9-260.7l0-87.2c-17-5.7-32.2-15.9-43.8-29.6
		c-12.2-15-20.1-33.1-22.7-52.2C322.2,42.9,265.9,35,244,35c-21.9,0-78.1,8-107.4,12.4c-2.7,19.2-10.5,37.2-22.7,52.2
		c-11.6,13.7-26.7,24-43.8,29.6V216.3z"/>
	<path class="st3" d="M88.1,76.6C76.3,90.8,59,98.8,36.7,100.5v114.4c0,52.3,0,211,207.4,297.2c207.4-86.2,207.4-244.8,207.4-297.2
		V100.5c-22.4-1.7-39.7-9.6-51.5-23.8c-16.4-19.7-17.3-46-16.4-59.7C356.9,12.7,274.6,0,244,0c-30.5,0-112.8,12.7-139.4,16.9
		C105.5,30.6,104.6,56.9,88.1,76.6z M127.2,29.1C160.5,24,220,15.5,244,15.5c24,0,83.5,8.5,116.8,13.6c4,0.6,7.2,3.9,7.6,8
		c1.4,18.1,8.2,35.4,19.6,49.5c10.7,12.7,25.2,21.7,41.3,25.8c3.9,1.1,6.6,4.6,6.6,8.7v93.8c0,48.4,0,195.6-188.2,278.8
		c-2.3,1-5,1-7.3,0C52.1,410.5,52.1,263.2,52.1,214.8v-93.8c0-4.1,2.7-7.6,6.6-8.7c16.1-4.1,30.6-13.1,41.3-25.8
		c11.4-14.2,18.2-31.4,19.6-49.5C120.1,33,123.2,29.7,127.2,29.1z"/>
	<text transform="matrix(1 0 0 1 118.3613 375.1211)" class="st3 st4 st5">M</text>
	<circle class="st3" cx="163.7" cy="116.7" r="30"/>
	<circle class="st3" cx="324.5" cy="116.7" r="30"/>
	<circle class="st6" cx="244" cy="74.9" r="30"/>
</g>
</svg>
