<?xml version="1.0" encoding="utf-8"?>
<!-- Generator: Adobe Illustrator 22.0.1, SVG Export Plug-In . SVG Version: 6.00 Build 0)  -->
<svg version="1.1" id="Capa_1" xmlns="http://www.w3.org/2000/svg" xmlns:xlink="http://www.w3.org/1999/xlink" x="0px" y="0px"
	 viewBox="0 0 58 58" style="enable-background:new 0 0 58 58;" xml:space="preserve">
<style type="text/css">
	.st0{fill:#FFFFFF;}
</style>
<g>
	<path class="st0" d="M0,28h28V0H0V28z M8,12h4V8c0-1.1,0.9-2,2-2s2,0.9,2,2v4h4c1.1,0,2,0.9,2,2s-0.9,2-2,2h-4v4c0,1.1-0.9,2-2,2
		s-2-0.9-2-2v-4H8c-1.1,0-2-0.9-2-2S6.9,12,8,12z"/>
	<path class="st0" d="M30,0v28h28V0H30z M50,16H38c-1.1,0-2-0.9-2-2s0.9-2,2-2h12c1.1,0,2,0.9,2,2S51.1,16,50,16z"/>
	<path class="st0" d="M30,58h28V30H30V58z M38,39h12c1.1,0,2,0.9,2,2s-0.9,2-2,2H38c-1.1,0-2-0.9-2-2S36.9,39,38,39z M38,45h12
		c1.1,0,2,0.9,2,2s-0.9,2-2,2H38c-1.1,0-2-0.9-2-2S36.9,45,38,45z"/>
	<path class="st0" d="M0,58h28V30H0V58z M7.6,40.4c-0.8-0.8-0.8-2,0-2.8c0.8-0.8,2-0.8,2.8,0l3.6,3.6l3.6-3.6c0.8-0.8,2-0.8,2.8,0
		c0.8,0.8,0.8,2,0,2.8L16.8,44l3.6,3.6c0.8,0.8,0.8,2,0,2.8C20,50.8,19.5,51,19,51s-1-0.2-1.4-0.6L14,46.8l-3.6,3.6
		C10,50.8,9.5,51,9,51s-1-0.2-1.4-0.6c-0.8-0.8-0.8-2,0-2.8l3.6-3.6L7.6,40.4z"/>
</g>
</svg>
