<?xml version="1.0" encoding="utf-8"?>
<!-- Generator: Adobe Illustrator 17.0.0, SVG Export Plug-In . SVG Version: 6.00 Build 0)  -->
<!DOCTYPE svg PUBLIC "-//W3C//DTD SVG 1.1//EN" "http://www.w3.org/Graphics/SVG/1.1/DTD/svg11.dtd">
<svg version="1.1" xmlns="http://www.w3.org/2000/svg" xmlns:xlink="http://www.w3.org/1999/xlink" x="0px" y="0px" width="80px"
	 height="80px" viewBox="0 0 80 80" enable-background="new 0 0 80 80" xml:space="preserve">
<g id="Слой_1" display="none">
	
		<line display="inline" fill="none" stroke="#000000" stroke-width="1.0001" stroke-miterlimit="22.9256001" x1="10.190567" y1="60.9925766" x2="49.2512665" y2="60.9925766"/>
	
		<line display="inline" fill="none" stroke="#000000" stroke-width="1.0001" stroke-miterlimit="22.9256001" x1="61.1281128" y1="22.025116" x2="61.1281128" y2="49.6051979"/>
	<path display="inline" fill="none" stroke="#000000" stroke-width="1.0001" stroke-miterlimit="22.9256001" d="
		M61.1281128,49.6051979c0,6.2936859-6.1123199,11.3873787-13.667572,11.3873787"/>
	
		<line display="inline" fill="none" stroke="#010101" stroke-width="1.0001" stroke-miterlimit="22.9256001" x1="0.790484" y1="69.8803482" x2="70.5403366" y2="69.8803482"/>
	<path display="inline" fill="none" stroke="#000000" stroke-width="1.0001" stroke-miterlimit="22.9256001" d="
		M0.790484,68.1980896c0-0.9299393,1.7894924-1.682045,4.001349-1.682045"/>
	<path display="inline" fill="none" stroke="#000000" stroke-width="1.0001" stroke-miterlimit="22.9256001" d="
		M70.5403366,68.5704422c0-1.1359863-3.874527-2.0543976-8.6642036-2.0543976"/>
	
		<line display="inline" fill="none" stroke="#000000" stroke-width="1.0001" stroke-miterlimit="22.9256001" x1="5.005897" y1="20.0804272" x2="72.3368301" y2="20.0804272"/>
	
		<line display="inline" fill="none" stroke="#000000" stroke-width="1.0001" stroke-miterlimit="22.9256001" x1="5.005897" y1="20.0804272" x2="5.005897" y2="66.5160446"/>
	
		<line display="inline" fill="none" stroke="#000000" stroke-width="1.0001" stroke-miterlimit="22.9256001" x1="10.190567" y1="66.1963882" x2="10.190567" y2="22.025116"/>
	
		<line display="inline" fill="none" stroke="#000000" stroke-width="1.0001" stroke-miterlimit="22.9256001" x1="0.790484" y1="68.1980896" x2="0.790484" y2="69.8803482"/>
	
		<line display="inline" fill="none" stroke="#000000" stroke-width="1.0001" stroke-miterlimit="22.9256001" x1="70.5403366" y1="68.5704422" x2="70.5403366" y2="69.8803482"/>
	
		<line display="inline" fill="none" stroke="#000000" stroke-width="1.0001" stroke-miterlimit="22.9256001" x1="4.7918329" y1="66.5160446" x2="61.876133" y2="66.5160446"/>
	<g display="inline">
		<path fill="#FFFFFF" d="M77.4287033,13.234704v26.1073647V13.234704z"/>
		<path fill="none" stroke="#000000" stroke-width="1.0001" stroke-miterlimit="22.9256001" d="M77.4287033,13.234704v26.1073647
			V13.234704z"/>
		
			<line fill="none" stroke="#000000" stroke-width="1.0001" stroke-miterlimit="22.9256001" x1="77.4287033" y1="13.234704" x2="75.6467896" y2="16.0358543"/>
		
			<line fill="none" stroke="#000000" stroke-width="1.0001" stroke-miterlimit="22.9256001" x1="79.2095184" y1="36.5409164" x2="77.4287033" y2="39.3420677"/>
		
			<line fill="none" stroke="#000000" stroke-width="1.0001" stroke-miterlimit="22.9256001" x1="77.4287033" y1="13.234704" x2="79.2095184" y2="16.0358543"/>
		
			<line fill="none" stroke="#000000" stroke-width="1.0001" stroke-miterlimit="22.9256001" x1="75.6467896" y1="36.5409164" x2="77.4287033" y2="39.3420677"/>
	</g>
	
		<line display="inline" fill="none" stroke="#6B6966" stroke-width="1.0001" stroke-miterlimit="22.9256001" x1="5.005897" y1="10.1196547" x2="5.005897" y2="18.234333"/>
	
		<line display="inline" fill="none" stroke="#6B6966" stroke-width="1.0001" stroke-miterlimit="22.9256001" x1="5.005897" y1="10.1196547" x2="72.3368301" y2="10.1196547"/>
	
		<line display="inline" fill="none" stroke="#6B6966" stroke-width="1.0001" stroke-miterlimit="22.9256001" x1="10.190567" y1="11.6401339" x2="10.190567" y2="18.234333"/>
	
		<line display="inline" fill="none" stroke="#6B6966" stroke-width="1.0001" stroke-miterlimit="22.9256001" x1="60.7534981" y1="11.6401339" x2="60.7534981" y2="18.234333"/>
</g>
<g id="Слой_2" display="none">
	<g display="inline">
		
			<line fill="none" stroke="#000000" stroke-width="1.0001" stroke-miterlimit="22.9256001" x1="12.995204" y1="30.946207" x2="69.4098892" y2="30.946207"/>
		
			<line fill="none" stroke="#000000" stroke-width="1.0001" stroke-miterlimit="22.9256001" x1="20.553009" y1="2.7553394" x2="69.4098892" y2="30.946207"/>
		<path fill="none" stroke="#000000" stroke-width="1.0001" stroke-miterlimit="22.9256001" d="M31.0986786,31.1974773
			c0-7.1621819,6.7853394-12.9590187,15.1707726-12.9590187"/>
		
			<line fill="none" stroke="#000000" stroke-width="1.0001" stroke-miterlimit="22.9256001" x1="17.3397694" y1="65.0534286" x2="50.0668068" y2="65.0534286"/>
		
			<line fill="none" stroke="#000000" stroke-width="1.0001" stroke-miterlimit="22.9256001" x1="60.0185051" y1="32.4045143" x2="60.0185051" y2="55.5128708"/>
		<path fill="none" stroke="#000000" stroke-width="1.0001" stroke-miterlimit="22.9256001" d="M60.0185051,55.5128708
			c0,5.2737694-5.1221809,9.5405579-11.4510498,9.5405579"/>
		
			<line fill="none" stroke="#010101" stroke-width="1.0001" stroke-miterlimit="22.9256001" x1="9.4627428" y1="74.816803" x2="67.9043274" y2="74.816803"/>
		<path fill="none" stroke="#000000" stroke-width="1.0001" stroke-miterlimit="22.9256001" d="M9.4627428,73.4069595
			c0-0.7791672,1.5009041-1.4093323,3.3541393-1.4093323"/>
		<path fill="none" stroke="#000000" stroke-width="1.0001" stroke-miterlimit="22.9256001" d="M67.9043274,73.7189331
			c0-0.9514542-3.2465286-1.7213058-7.2591095-1.7213058"/>
		
			<line fill="none" stroke="#000000" stroke-width="1.0001" stroke-miterlimit="22.9256001" x1="12.995204" y1="30.7751274" x2="12.995204" y2="71.9976273"/>
		
			<line fill="none" stroke="#000000" stroke-width="1.0001" stroke-miterlimit="22.9256001" x1="17.3397694" y1="71.9976273" x2="17.3397694" y2="32.4045143"/>
		
			<line fill="none" stroke="#000000" stroke-width="1.0001" stroke-miterlimit="22.9256001" x1="9.4627428" y1="73.4069595" x2="9.4627428" y2="74.816803"/>
		
			<line fill="none" stroke="#000000" stroke-width="1.0001" stroke-miterlimit="22.9256001" x1="67.9043274" y1="73.7189331" x2="67.9043274" y2="74.816803"/>
		
			<line fill="none" stroke="#000000" stroke-width="1.0001" stroke-miterlimit="22.9256001" x1="12.8168821" y1="71.9976273" x2="60.6452179" y2="71.9976273"/>
	</g>
</g>
<g id="Слой_3">
	<g>
		
			<line fill="none" stroke="#050404" stroke-width="1.0001" stroke-miterlimit="22.9256001" x1="24.2266674" y1="74.7288284" x2="59.5275536" y2="75.3855209"/>
		
			<line fill="none" stroke="#050404" stroke-width="1.0001" stroke-miterlimit="22.9256001" x1="24.2266674" y1="3.6749303" x2="29.1103439" y2="47.4226723"/>
		
			<line fill="none" stroke="#050404" stroke-width="1.0001" stroke-miterlimit="22.9256001" x1="33.0175095" y1="51.6672859" x2="61.0279999" y2="63.9398651"/>
		<path fill="none" stroke="#050404" stroke-width="1.0001" stroke-miterlimit="22.9256001" d="M29.1103439,47.4226723
			c0.4190922,2.1223068,1.9526844,3.67593,3.9071655,4.2446136"/>
		<path fill="none" stroke="#050404" stroke-width="1.0001" stroke-miterlimit="22.9256001" d="M65.1093597,69.7959137
			c0,3.0902481-2.4965591,5.5896072-5.5818062,5.5896072"/>
		<path fill="none" stroke="#050404" stroke-width="1.0001" stroke-miterlimit="22.9256001" d="M65.1093597,69.7959137
			c0-3.2370682-1.335392-4.7516861-4.0813599-5.8560486"/>
		
			<line fill="none" stroke="#050404" stroke-width="1.0001" stroke-miterlimit="22.9256001" x1="25.6566448" y1="4.8469" x2="28.3778381" y2="27.8562355"/>
		
			<line fill="none" stroke="#050404" stroke-width="1.0001" stroke-miterlimit="22.9256001" x1="28.3778381" y1="27.8562355" x2="26.66819" y2="27.8562355"/>
		<path fill="none" stroke="#050404" stroke-width="1.0001" stroke-miterlimit="22.9256001" d="M25.6566448,4.8469
			c0-0.6484938-0.6394939-1.1719697-1.4299774-1.1719697"/>
		
			<line fill="none" stroke="#050404" stroke-width="1.0001" stroke-miterlimit="22.9256001" x1="28.0755939" y1="38.1493263" x2="62.3189583" y2="38.1493263"/>
		
			<line fill="none" stroke="#050404" stroke-width="1.0001" stroke-miterlimit="22.9256001" x1="32.0405693" y1="36.8779411" x2="61.0279999" y2="36.8779411"/>
		<path fill="none" stroke="#050404" stroke-width="1.0001" stroke-miterlimit="22.9256001" d="M62.3189583,38.1493263
			c0-0.7031021-0.5770836-1.2713852-1.2909584-1.2713852"/>
		<path fill="none" stroke="#050404" stroke-width="1.0001" stroke-miterlimit="22.9256001" d="M31.6217384,38.1493263
			c0-0.7031021,0.1869965-1.2713852,0.4188309-1.2713852"/>
		<g>
			<path fill="#FFFFFF" d="M30.5103474,7.5214877l2.3111362,15.123991L30.5103474,7.5214877z"/>
			<path fill="none" stroke="#000000" stroke-width="1.0001" stroke-miterlimit="22.9256001" d="M30.5103474,7.5214877
				l2.3111362,15.123991L30.5103474,7.5214877z"/>
			
				<line fill="none" stroke="#000000" stroke-width="1.0001" stroke-miterlimit="22.9256001" x1="30.5103474" y1="7.5214877" x2="29.0955429" y2="10.7337532"/>
			
				<line fill="none" stroke="#000000" stroke-width="1.0001" stroke-miterlimit="22.9256001" x1="34.1482735" y1="18.8595314" x2="32.7334709" y2="22.0715961"/>
			
				<line fill="none" stroke="#000000" stroke-width="1.0001" stroke-miterlimit="22.9256001" x1="30.5103474" y1="7.5214877" x2="32.820282" y2="10.1660709"/>
			
				<line fill="none" stroke="#000000" stroke-width="1.0001" stroke-miterlimit="22.9256001" x1="30.4241352" y1="19.4282131" x2="32.7334709" y2="22.0715961"/>
		</g>
		<g>
			<path fill="#FFFFFF" d="M12.6341572,18.9985504v27.6054001V18.9985504z"/>
			<path fill="none" stroke="#000000" stroke-width="1.0001" stroke-miterlimit="22.9256001" d="M12.6341572,18.9985504v27.6054001
				V18.9985504z"/>
			
				<line fill="none" stroke="#000000" stroke-width="1.0001" stroke-miterlimit="22.9256001" x1="12.6341572" y1="18.9985504" x2="10.7504845" y2="21.9605808"/>
			
				<line fill="none" stroke="#000000" stroke-width="1.0001" stroke-miterlimit="22.9256001" x1="14.5172596" y1="43.6413231" x2="12.6341572" y2="46.6039505"/>
			
				<line fill="none" stroke="#000000" stroke-width="1.0001" stroke-miterlimit="22.9256001" x1="12.6341572" y1="18.9985504" x2="14.5172596" y2="21.9605808"/>
			
				<line fill="none" stroke="#000000" stroke-width="1.0001" stroke-miterlimit="22.9256001" x1="10.7504845" y1="43.6413231" x2="12.6341572" y2="46.6039505"/>
		</g>
		<g>
			<path fill="#FFFFFF" d="M38.8805618,32.3952942H54.188179H38.8805618z"/>
			<path fill="none" stroke="#000000" stroke-width="1.0001" stroke-miterlimit="22.9256001" d="M38.8805618,32.3952942H54.188179
				H38.8805618z"/>
			
				<line fill="none" stroke="#000000" stroke-width="1.0001" stroke-miterlimit="22.9256001" x1="38.8805618" y1="32.3952942" x2="41.8437881" y2="34.2777672"/>
			
				<line fill="none" stroke="#000000" stroke-width="1.0001" stroke-miterlimit="22.9256001" x1="50.6442642" y1="30.5122204" x2="53.6074944" y2="32.3952942"/>
			
				<line fill="none" stroke="#000000" stroke-width="1.0001" stroke-miterlimit="22.9256001" x1="38.8805618" y1="32.3952942" x2="41.8437881" y2="30.5122204"/>
			
				<line fill="none" stroke="#000000" stroke-width="1.0001" stroke-miterlimit="22.9256001" x1="50.6442642" y1="34.2777672" x2="53.6074944" y2="32.3952942"/>
		</g>
	</g>
</g>
<g id="Слой_4" display="none">
	<g display="inline">
		<g>
			<path fill="#1B1917" d="M56.7229462,13.5726805h-2.8188324v-3.2983627c0-0.7720299-0.3926773-1.4746695-1.0484467-1.878377
				c-0.647953-0.3998017-1.472599-0.4351864-2.1529503-0.0916786c-2.1076889,1.0645285-6.3770638,1.7524624-10.8768959,1.7524624
				c-4.5000648,0-8.7694397-0.6879339-10.8780479-1.7529221c-0.6787453-0.3423591-1.5027027-0.3078933-2.1513462,0.0909891
				c-0.6569157,0.4048567-1.0491352,1.1072664-1.0491352,1.8795261v3.2983627h-2.8188267
				c-1.9888973,0-3.606945,1.6180468-3.606945,3.6069441v2.5068016c0,1.9888973,1.6180477,3.606945,3.606945,3.606945h2.8188286
				v1.64608c0,1.3064766,0.7635288,2.5100174,1.94524,3.0662937c3.9869862,1.8765392,10.806818,1.9716644,12.1335163,1.9716644
				c3.8316612,0,9.0299988-0.5176735,12.1286888-1.9707451c1.1842422-0.555357,1.9496078-1.7595844,1.9496078-3.0683613v-1.6449299
				h2.8188324c1.9888954,0,3.6069412-1.6180477,3.6069412-3.606945v-2.5068035
				C60.329895,15.1907272,58.7118454,13.5726805,56.7229462,13.5726805z M56.8833275,19.6864262
				c0,0.0884609-0.0719185,0.1603813-0.1603775,0.1603813h-4.5421143c-0.9519424,0-1.7232819,0.7713394-1.7232819,1.7232819
				v3.3316784c-2.5964127,1.2019329-7.3439407,1.6290779-10.6317329,1.6290779
				c-3.2951431,0-8.047266-0.4266853-10.6319599-1.6279278v-3.3325996c0-0.9519424-0.7713432-1.7232819-1.7232838-1.7232819
				h-4.5421124c-0.0884628,0-0.1603794-0.0719185-0.1603794-0.1603813v-2.5070305
				c0-0.0884609,0.0719185-0.1603794,0.1603794-0.1603794h4.5421124c0.9519405,0,1.7232819-0.7713413,1.7232819-1.7232828
				v-3.1876125c2.7025661,0.8855371,6.5052757,1.3947096,10.6319618,1.3947096s7.9298515-0.5091724,10.6317291-1.3944798v3.1873827
				c0,0.9519415,0.7713394,1.7232828,1.7232819,1.7232828h4.5421143c0.088459,0,0.1603813,0.0719166,0.1603813,0.1603794V19.6864262
				L56.8833275,19.6864262z"/>
		</g>
		<g>
			<path fill="#1B1917" d="M56.2852325,34.8508492h-2.3808861v-3.2983608c0-0.7607708-0.4023323-1.4806442-1.0484467-1.8783779
				c-0.6479568-0.3998013-1.472599-0.4351864-2.1529541-0.0916805c-2.1076889,1.0645294-6.3770599,1.7524643-10.8768959,1.7524643
				c-4.5000648,0-8.7694378-0.6879349-10.878046-1.7529221c-0.6803513-0.3430481-1.5050011-0.3078938-2.1495056,0.0902996
				c-0.6481838,0.3981934-1.050972,1.1187553-1.050972,1.8804436v3.2983627h-2.3813477
				c-2.2303867,0-4.0448875,1.81427-4.0448875,4.0448875v1.6316032c0,2.2301559,1.81427,4.0446587,4.0448875,4.0446587h2.3808861
				v1.64608c0,1.3064766,0.7635288,2.5100136,1.9452419,3.0662918c3.9869843,1.8765411,10.8068199,1.9716644,12.1335144,1.9716644
				c3.8321152,0,9.0306892-0.5176773,12.1286888-1.9707451c1.1842384-0.5553589,1.949604-1.7595863,1.949604-3.0683632v-1.644928
				h2.3808861c2.2303886,0,4.0448914-1.81427,4.0448914-4.0446587v-1.6316032
				C60.329895,36.665123,58.5156212,34.8508492,56.2852325,34.8508492z M56.8833275,40.5271111
				c0,0.3297195-0.2683716,0.5980911-0.5983238,0.5980911h-4.1041679c-0.9519424,0-1.7232819,0.7713394-1.7232819,1.7232819
				v3.3316803c-2.5957222,1.201931-7.343708,1.6290741-10.6317329,1.6290741c-3.2951431,0-8.047266-0.4266815-10.6319599-1.6279297
				v-3.3328285c0-0.9519424-0.7713432-1.7232819-1.7232838-1.7232819h-4.1043987
				c-0.3299503,0-0.5983257-0.2683716-0.5983257-0.5980911V38.895504c0-0.3299522,0.2683735-0.5983238,0.5983257-0.5983238
				h4.1041679c0.9519405,0,1.7232819-0.7713432,1.7232819-1.7232857v-3.1876106
				c2.7025661,0.8855362,6.5052738,1.3947105,10.6319637,1.3947105s7.9298553-0.5091743,10.6317291-1.3944817v3.1873817
				c0,0.9519424,0.7713394,1.7232857,1.7232819,1.7232857h4.1041718c0.3299522,0,0.5983238,0.2683716,0.5983238,0.5983238v1.6316071
				H56.8833275z"/>
		</g>
		<g>
			<path fill="#1B1917" d="M32.4998016,14.2665882c-0.9519386,0-1.72328,0.7713413-1.72328,1.7232828v6.6247568
				c0,0.9519405,0.7713413,1.7232819,1.72328,1.7232819c0.9519424,0,1.7232819-0.7713413,1.7232819-1.7232819V15.989871
				C34.2230835,15.0379295,33.4517441,14.2665882,32.4998016,14.2665882z"/>
		</g>
		<g>
			<path fill="#1B1917" d="M32.4998016,35.7092743c-0.9519386,0-1.72328,0.7713394-1.72328,1.7232819v6.3949852
				c0,0.9519424,0.7713413,1.7232819,1.72328,1.7232819c0.9519424,0,1.7232819-0.7713394,1.7232819-1.7232819v-6.3949852
				C34.2230835,36.4806137,33.4517441,35.7092743,32.4998016,35.7092743z"/>
		</g>
		<g>
			<path fill="#1B1917" d="M56.2852325,56.211277h-2.3808861v-3.2985916c0-0.7607727-0.4023323-1.4806442-1.0500565-1.879528
				c-0.647953-0.3984222-1.4719124-0.4335785-2.1513443-0.0907631c-2.1076927,1.0645294-6.3770638,1.7524643-10.8768997,1.7524643
				c-4.500061,0-8.7694378-0.6879349-10.878046-1.7529221c-0.6803513-0.3430481-1.5050011-0.3078918-2.1495056,0.0903015
				c-0.6481838,0.3981934-1.050972,1.1187553-1.050972,1.8804474v3.2985916h-2.3813438
				c-2.2303867,0-4.0448875,1.81427-4.0448875,4.0446587v1.6316032c0,2.2303886,1.81427,4.0448875,4.0448875,4.0448875h2.3808861
				v1.6458511c0,1.306015,0.763298,2.5095596,1.9454708,3.0665283c3.9874439,1.8765335,10.806591,1.9716644,12.1332855,1.9716644
				c3.8318901,0,9.0302238-0.5176773,12.1286888-1.9709778c1.1842384-0.5553589,1.949604-1.7595825,1.949604-3.068367v-1.6446991
				h2.3808861c2.2303886,0,4.0448914-1.81427,4.0448914-4.0448875v-1.6316032
				C60.329895,58.0257797,58.5156212,56.211277,56.2852325,56.211277z M56.8833275,61.88731
				c0,0.3299522-0.2683716,0.5983238-0.5983238,0.5983238h-4.1041679c-0.9519424,0-1.7232819,0.7713394-1.7232819,1.7232819
				v3.3314514c-2.59618,1.2021561-7.3439407,1.629303-10.6317329,1.629303c-3.2951431,0-8.047266-0.4266815-10.6319599-1.6279221
				v-3.3328323c0-0.9519424-0.7713432-1.7232819-1.7232838-1.7232819h-4.1043987
				c-0.3299503,0-0.5983257-0.2683716-0.5983257-0.5983238v-1.6316032c0-0.3299522,0.2683735-0.5980911,0.5983257-0.5980911
				h4.1041679c0.9519405,0,1.7232819-0.7713432,1.7232819-1.7232857v-3.1876106
				c2.7025661,0.8855362,6.5052738,1.3944778,10.6319637,1.3944778s7.9298553-0.5091705,10.6317291-1.3944778V57.93433
				c0,0.9519424,0.7713394,1.7232857,1.7232819,1.7232857h4.1041718c0.3299522,0,0.5983238,0.2681427,0.5983238,0.5980911V61.88731
				H56.8833275z"/>
		</g>
		<g>
			<path fill="#1B1917" d="M32.4998016,57.0696983c-0.9519386,0-1.72328,0.7713432-1.72328,1.7232857v6.3952179
				c0,0.9519424,0.7713413,1.7232819,1.72328,1.7232819c0.9519424,0,1.7232819-0.7713394,1.7232819-1.7232819V58.792984
				C34.2230835,57.8410416,33.4517441,57.0696983,32.4998016,57.0696983z"/>
		</g>
	</g>
</g>
</svg>
