<?xml version="1.0" encoding="utf-8"?>
<!-- Generator: Adobe Illustrator 22.0.1, SVG Export Plug-In . SVG Version: 6.00 Build 0)  -->
<svg version="1.1" id="Слой_1" xmlns="http://www.w3.org/2000/svg" xmlns:xlink="http://www.w3.org/1999/xlink" x="0px" y="0px"
	 viewBox="0 0 27 27" style="enable-background:new 0 0 27 27;" xml:space="preserve">
<style type="text/css">
	.st0{fill:#FEFEFE;}
</style>
<path class="st0" d="M23.2,10.2H3.8c-0.2,0-0.3-0.1-0.3-0.3V7.2c0-0.1,0.1-0.3,0.2-0.3l9.7-3.3c0.1,0,0.1,0,0.2,0l9.7,3.3
	c0.1,0,0.2,0.2,0.2,0.3v2.7C23.5,10,23.4,10.2,23.2,10.2z M4.2,9.5h18.7V7.4l-9.3-3.2L4.2,7.4V9.5z"/>
<path class="st0" d="M21.8,8.8H5.2C5,8.8,4.8,8.7,4.8,8.5V8.1c0-0.1,0.1-0.3,0.2-0.3l8.3-2.9c0.1,0,0.1,0,0.2,0l8.3,2.9
	c0.1,0,0.2,0.2,0.2,0.3v0.4C22.2,8.7,22,8.8,21.8,8.8z M6.1,8.2H21l-7.5-2.6L6.1,8.2z"/>
<path class="st0" d="M23.2,21.5h-0.7v-1c0-0.2-0.1-0.3-0.3-0.3h-0.3v-1c0-0.2-0.1-0.3-0.3-0.3h-0.3v-6c0.6-0.2,1-0.7,1-1.3v-0.3
	c0-0.2-0.1-0.3-0.3-0.3h-4.7c-0.2,0-0.3,0.1-0.3,0.3v0.3c0,0.6,0.4,1.1,1,1.3v6h-2.7v-6c0.6-0.2,1-0.7,1-1.3v-0.3
	c0-0.2-0.1-0.3-0.3-0.3h-4.7c-0.2,0-0.3,0.1-0.3,0.3v0.3c0,0.6,0.4,1.1,1,1.3v6H9.2v-6c0.6-0.2,1-0.7,1-1.3v-0.3
	c0-0.2-0.1-0.3-0.3-0.3H5.2c-0.2,0-0.3,0.1-0.3,0.3v0.3c0,0.6,0.4,1.1,1,1.3v6H5.5c-0.2,0-0.3,0.1-0.3,0.3v1H4.8
	c-0.2,0-0.3,0.1-0.3,0.3v1H3.8c-0.2,0-0.3,0.1-0.3,0.3v1.3c0,0.2,0.1,0.3,0.3,0.3h19.3c0.2,0,0.3-0.1,0.3-0.3v-1.3
	C23.5,21.6,23.4,21.5,23.2,21.5z M17.5,11.5h4c0,0.4-0.3,0.7-0.7,0.7h-2.7C17.8,12.2,17.5,11.9,17.5,11.5z M18.5,12.8h2v6h-2V12.8z
	 M11.5,11.5h4c0,0.4-0.3,0.7-0.7,0.7h-2.7C11.8,12.2,11.5,11.9,11.5,11.5z M12.5,12.8h2v6h-2V12.8z M5.5,11.5h4
	c0,0.4-0.3,0.7-0.7,0.7H6.2C5.8,12.2,5.5,11.9,5.5,11.5z M6.5,12.8h2v6h-2V12.8z M5.8,19.5h15.3v0.7H5.8V19.5z M5.2,20.8h16.7v0.7
	H5.2V20.8z M22.8,22.8H4.2v-0.7h18.7V22.8z"/>
</svg>
