<svg width="26" height="26" viewBox="0 0 26 26" fill="none" xmlns="http://www.w3.org/2000/svg">
<path d="M11.6465 1.834C12.19 0.695958 13.81 0.695957 14.3536 1.834L17.0652 7.51147C17.2798 7.96086 17.7035 8.27443 18.196 8.34838L24.3386 9.2707C25.5536 9.45314 26.046 10.939 25.1803 11.8109L20.6739 16.35C20.3342 16.6921 20.1797 17.1767 20.2587 17.6524L21.3139 24.01C21.5184 25.2421 20.2156 26.1699 19.1181 25.5737L13.7161 22.639C13.2695 22.3964 12.7305 22.3964 12.284 22.639L6.88191 25.5737C5.78443 26.1699 4.48161 25.2421 4.68611 24.01L5.74136 17.6524C5.82031 17.1767 5.66579 16.6921 5.32609 16.35L0.819698 11.8109C-0.0459438 10.939 0.446423 9.45314 1.66145 9.2707L7.80404 8.34838C8.29654 8.27443 8.72022 7.96086 8.93486 7.51147L11.6465 1.834Z" fill="#FFC100"/>
</svg>
