<svg width="23" height="29" viewBox="0 0 23 29" fill="none" xmlns="http://www.w3.org/2000/svg">
<path d="M4.42327 12.9453C4.52275 13.1565 4.73534 13.2917 4.9685 13.2917H18.3606C18.5938 13.2917 18.8063 13.1566 18.9058 12.9453C19.6713 11.3204 20.6917 8.82886 21.2074 6.18561C21.4906 4.73244 21.0914 3.21436 20.1111 2.02196C19.0707 0.755813 17.488 0 15.8783 0H7.43731C5.83168 0 4.25426 0.752867 3.21744 2.01488C2.23709 3.20784 1.83729 4.7283 2.12172 6.18561C2.6375 8.82886 3.65788 11.3205 4.42327 12.9453ZM10.452 3.625C10.8771 3.625 11.2922 3.74004 11.6578 3.95482C12.0234 3.74004 12.4386 3.625 12.8636 3.625C14.1938 3.625 15.2753 4.70882 15.2753 6.04169C15.2753 7.68664 12.0935 10.6909 12.0611 10.7199C11.9469 10.8231 11.802 10.8751 11.6578 10.8751C11.5135 10.8751 11.3687 10.8231 11.2545 10.7199C11.2221 10.6909 8.04025 7.68659 8.04025 6.04169C8.04025 4.70882 9.12184 3.625 10.452 3.625Z" fill="white"/>
<path d="M22.5105 16.9167C22.5105 15.5838 21.4289 14.5 20.0987 14.5H3.21691C1.88678 14.5 0.805191 15.5838 0.805191 16.9167C0.805191 18.2496 1.88678 19.3334 3.21691 19.3334H4.28651L2.41438 24.2115C2.14707 24.909 2.01108 25.6417 2.01108 26.3898C2.01108 27.8288 3.17983 29 4.62588 29C5.85585 29 6.90155 28.1598 7.16891 26.9562L8.8592 19.3334H14.4566L16.1469 26.9562C16.4142 28.1598 17.4599 29 18.6999 29C20.1359 29 21.3047 27.8288 21.3047 26.3892C21.3047 25.6411 21.1687 24.9089 20.9014 24.2115L19.0293 19.3333H20.0989C21.4289 19.3333 22.5105 18.2495 22.5105 16.9167Z" fill="#FFC100"/>
</svg>
