<svg width="33" height="32" viewBox="0 0 33 32" fill="none" xmlns="http://www.w3.org/2000/svg">
<g clip-path="url(#clip0)">
<path d="M13.4935 10.4821H0.853018C0.853018 6.00564 3.88378 2.20419 7.99076 1.03625C8.83658 0.795753 9.72787 0.666815 10.6479 0.666815H12.4936C13.0458 0.666815 13.4936 1.11453 13.4936 1.66682L13.4935 10.4821Z" fill="#FFC100"/>
<path d="M0.852909 10.4821H13.4935H25.1341C25.6864 10.4821 26.1395 10.931 26.0834 11.4805C25.5801 16.4144 21.3902 20.2971 16.3393 20.2971H10.6477C5.26052 20.297 0.852909 15.8802 0.852909 10.4821Z" fill="#FFC100"/>
<rect width="1.30488" height="14.6723" rx="0.652438" transform="matrix(-0.736009 0.676972 0.756108 0.654446 10.1295 19)" fill="#FFC100"/>
<rect width="1.30566" height="9.8139" rx="0.652832" transform="matrix(-0.499228 -0.866471 -0.801896 0.597464 13.6989 23.1313)" fill="#FFC100"/>
<path d="M11.2646 9.07635C11.6132 8.65157 12.1417 8.38095 12.7332 8.38095C13.783 8.38095 14.6341 9.23367 14.6341 10.2856C14.6341 11.3376 13.783 12.1905 12.7332 12.1905C11.6833 12.1905 10.8324 11.3376 10.8324 10.2856C10.8324 9.82639 10.9945 9.40514 11.2646 9.07635Z" fill="white"/>
<path d="M18.1363 27.0511C18.6902 26.376 19.5301 25.9459 20.4702 25.9459C22.1384 25.9459 23.491 27.3011 23.491 28.9728C23.491 30.6446 22.1384 32 20.4702 32C18.8017 32 17.4494 30.6446 17.4494 28.9728C17.4494 28.243 17.7071 27.5736 18.1363 27.0511Z" fill="white"/>
<path d="M2.33109 27.0511C2.88496 26.376 3.72485 25.9459 4.66493 25.9459C6.33318 25.9459 7.68573 27.3011 7.68573 28.9728C7.68573 30.6446 6.33318 32 4.66493 32C2.99647 32 1.64413 30.6446 1.64413 28.9728C1.6442 28.243 1.90184 27.5736 2.33109 27.0511Z" fill="white"/>
<rect width="1.77159" height="7.0107" rx="0.885796" transform="matrix(-0.665873 -0.746065 -0.746065 0.665873 27.5484 8.32293)" fill="white"/>
</g>
<defs>
<clipPath id="clip0">
<rect width="31.9342" height="32" transform="matrix(-1 0 0 1 32.1218 0)" fill="white"/>
</clipPath>
</defs>
</svg>
