<?xml version="1.0" encoding="utf-8"?>
<!-- Generator: Adobe Illustrator 22.0.1, SVG Export Plug-In . SVG Version: 6.00 Build 0)  -->
<svg version="1.1" id="Capa_1" xmlns="http://www.w3.org/2000/svg" xmlns:xlink="http://www.w3.org/1999/xlink" x="0px" y="0px"
	 viewBox="0 0 512 512" style="enable-background:new 0 0 512 512;" xml:space="preserve">
<style type="text/css">
	.st0{fill:#F79292;}
	.st1{enable-background:new    ;}
	.st2{fill:#A80000;}
</style>
<g>
	<g>
		<polygon class="st0" points="274.7,142.8 275.1,145.5 271.1,146.3 270.6,152 275.3,152 281.7,151.3 285,147.5 281.5,146.1 
			279.6,143.9 276.7,139.3 275.3,132.7 269.9,133.8 268.4,136.1 268.4,138.8 271.1,140.5 		"/>
		<polygon class="st0" points="270.1,145.1 270.4,141.4 267.2,140 262.8,141.1 259.6,146.3 259.6,149.8 263.4,149.8 		"/>
		<path class="st0" d="M178.9,160.1l-1,2.6h-4.7v2.5h1.1c0,0,0.1,0.5,0.2,1.2l2.8-0.2l1.8-1.1l0.5-2.3l2.4-0.2l0.9-1.9l-2.2-0.5
			L178.9,160.1z"/>
		<polygon class="st0" points="166.8,164.5 166.6,167 170,166.7 170.3,164.2 168.3,162.7 		"/>
		<path class="st0" d="M372.1,240.7c-0.1-5.2-0.3-10.4-0.8-15.6c-1.7-17.1-5.8-33.5-11.9-48.8c-0.5-1.2-0.9-2.3-1.4-3.4
			c-8.2-19.3-19.7-36.9-33.7-52c-0.9-1-1.9-2-2.8-2.9c-2.7-2.8-5.4-5.4-8.2-8.1C281.5,80.7,239,63,192.7,63
			c-46.9,0-89.5,18.1-121.6,47.6c-7.5,6.9-14.3,14.3-20.5,22.4c-23.5,30.3-37.4,68.3-37.4,109.5c0,99,80.6,179.5,179.5,179.5
			c69.7,0,130.1-39.9,159.9-98c6.4-12.4,11.3-25.6,14.6-39.5c0.9-3.5,1.6-7.1,2.3-10.6c1.8-10.2,2.8-20.6,2.8-31.3
			C372.2,241.9,372.1,241.3,372.1,240.7z M338.3,168.8l1.1-1.2c1.4,2.7,2.7,5.3,3.8,8.1l-1.7-0.1l-3.2,0.5V168.8z M312.4,137.6v-8.1
			c2.8,2.9,5.5,6.1,8.2,9.2l-3.2,4.8l-11.3-0.1l-0.7-2.4L312.4,137.6z M95.8,117.6v-0.3h3.6l0.3-1.3h5.9v2.6l-1.7,2.3h-8.2V117.6
			L95.8,117.6z M101.5,125.6c0,0,3.6-0.6,3.9-0.6s0,3.6,0,3.6l-8.2,0.5l-1.6-1.9L101.5,125.6z M349.8,196.9h-13.2l-8-6l-8.5,0.8v5.1
			h-2.7l-2.9-2.1l-14.5-3.7v-9.4l-18.5,1.5l-5.7,3h-7.4l-3.7-0.3l-8.9,4.9v9.3l-18.2,13.2l1.5,5.6h3.7l-1,5.3l-2.6,1l-0.1,14
			l15.7,17.9h6.9l0.4-1.1h12.3l3.5-3.2h7l3.8,3.8l10.4,1.1l-1.4,13.9l11.6,20.4l-6.1,11.6l0.4,5.5l4.8,4.8V327l6.3,8.5v10.9h5.4
			c-30.3,37.1-76.3,60.9-127.8,60.9c-90.8,0-164.7-73.9-164.7-164.7c0-22.9,4.7-44.7,13.2-64.5V173l5.9-7.2
			c2.1-3.8,4.2-7.7,6.6-11.3l0.3,2.9l-6.9,8.4c-2.2,4-4.1,8.1-5.9,12.3v9.3l6.9,3.3v13.1l6.6,11.2l5.3,0.8l0.7-3.8l-6.3-9.7
			l-1.3-9.4h3.7l1.6,9.7l9.1,13.3l-2.4,4.3l5.8,8.8l14.3,3.5v-2.5l5.8,0.8l-0.6,4.1l4.5,0.8l7,1.9l9.8,11.2l12.6,1l1.3,10.3l-8.6,6
			l-0.4,9.1l-1.3,5.6l12.5,15.6l1,5.3c0,0,4.5,1.2,5.1,1.2c0.6,0,10.1,7.3,10.1,7.3v28.2l3.4,1l-2.4,13l5.8,7.7l-1.1,12.9l7.6,13.4
			l9.7,8.5l9.8,0.2l1-3.1l-7.2-6.1l0.4-3l1.3-3.7l0.3-3.7l-4.9-0.2l-2.5-3l4-3.9l0.6-2.9l-4.5-1.3l0.3-2.8l6.5-1l9.8-4.7l3.2-6
			l10.3-13.2l-2.4-10.3l3.1-5.5l9.4,0.3l6.4-5l2.1-19.9l7.1-8.9l1.3-5.8l-6.4-2.1l-4.2-7l-14.5-0.2l-11.5-4.4l-0.6-8.2l-3.8-6.7
			l-10.4-0.2l-6-9.4l-5.3-2.7l-0.3,2.8l-9.7,0.6l-3.5-4.9l-10.1-2.1l-8.4,9.6l-13.2-2.3l-1-14.8l-9.6-1.7l3.8-7.3l-1.1-4.1l-12.9,9
			l-8-1l-2.8-6.2l1.8-6.4l4.3-8.1l10-5.1h19.5l-0.1,5.9l7,3.2l-0.6-10.1l5-5.1l10.1-6.7l0.7-4.7l10.1-10.5l10.8-6l-1-0.8l7.3-6.9
			l2.7,0.7l1.2,1.6l2.8-3l0.7-0.3l-3-0.4l-3-1v-2.9l1.7-1.4h3.6l1.7,0.7l1.5,2.8l1.8-0.3v-0.3l0.5,0.2l5-0.8l0.7-2.5l2.8,0.7v2.7
			l-2.7,1.9l0,0l0.4,2.9l9.1,2.8c0,0,0,0,0,0.1l2.1-0.2l0.1-3.9l-7.3-3.3l-0.4-1.9l6-2.1l0.3-5.8l-6.3-3.8l-0.4-9.7l-8.6,4.2h-3.1
			l0.8-7.4l-11.7-2.8l-4.8,3.6v11.2l-8.7,2.8l-3.5,7.3l-3.8,0.6v-9.3l-8.3-1.2l-4.1-2.7l-1.7-6.1l14.6-8.5l7.2-2.2l0.7,4.8l4-0.2
			l0.3-2.5l4.2-0.6l0.1-0.9l-1.8-0.8l-0.4-2.6l5.1-0.4l3.1-3.2l0.2-0.2l0,0l1-1l10.8-1.4l4.8,4l-12.6,6.7l15.9,3.7l2.1-5.3h7
			l2.5-4.6l-4.9-1.3v-5.9l-15.4-6.9l-10.7,1.3l-6,3.1l0.4,7.7l-6.3-1l-1-4.2l6-5.5l-10.9-0.6l-3.1,1l-1.4,3.7l4.1,0.7l-0.8,4.1
			l-7,0.4l-1.1,2.8l-10.1,0.3c0,0-0.3-5.7-0.7-5.7s8-0.1,8-0.1l6-5.9l-3.3-1.7l-4.4,4.2l-7.3-0.4l-4.4-6h-9.3l-9.7,7.3h8.9l0.8,2.7
			l-2.4,2.2l9.8,0.3l1.5,3.5l-11.1-0.4l-0.5-2.8l-7-1.5l-3.7-2.1l-8.4,0.1c27.9-19.8,61.3-31.4,97.5-31.4
			c41.7,0,79.7,15.5,108.8,41.2l-2,3.5l-7.6,2.9l-3.2,3.4l0.8,4l3.9,0.6l2.4,5.9l6.8-2.8l1.1,7.9h-2.1l-5.6-0.8l-6.2,1.1l-6,8.5
			l-8.5,1.4l-1.3,7.3l3.6,0.9l-1.1,4.7l-8.5-1.7l-7.8,1.7l-1.7,4.3l1.4,9l4.5,2.2h7.7l5.2-0.5l1.6-4.1l8.1-10.5l5.3,1.1l5.2-4.7
			l1,3.7l12.9,8.6l-1.6,2.1l-5.8-0.3l2.3,3.1l3.5,0.8l4.2-1.8l-0.1-5l1.9-0.9l-1.5-1.6l-8.5-4.8l-2.3-6.4h7.2l2.3,2.3l6.2,5.3
			l0.3,6.4l6.4,6.8l2.4-9.3l4.4-2.4l0.8,7.6l4.3,4.7l8.5-0.2c1.7,4.3,3.1,8.6,4.4,13.1L349.8,196.9z M111,144.6l4.3-2.1l3.9,0.9
			l-1.4,5.2l-4.2,1.4L111,144.6z M133.9,156.9v3.3h-9.8l-3.7-1l0.9-2.4l4.7-2h6.5v2H133.9z M138.4,161.6v3.2l-2.5,1.6l-3,0.6
			c0,0,0-4.9,0-5.4L138.4,161.6L138.4,161.6z M135.7,160.3v-3.9l3.3,3L135.7,160.3z M137.2,168.2v3.2l-2.4,2.4h-5.2l0.8-3.6l2.5-0.2
			l0.5-1.3L137.2,168.2z M124.2,161.6h5.4l-7,9.7l-2.8-1.6l0.6-4.1L124.2,161.6z M146.5,167.1v3.1h-5.2l-1.5-2.1v-2.9h0.4
			L146.5,167.1z M141.6,162.7l1.5-1.6l2.6,1.6l-2.1,1.7L141.6,162.7z M352.4,205.2l0.5-0.6c0.2,0.9,0.5,1.9,0.7,2.8L352.4,205.2z"/>
		<path class="st0" d="M41,172.9v5.1c1.8-4.2,3.7-8.3,5.9-12.3L41,172.9z"/>
	</g>
</g>
<g class="st1">
	<path class="st2" d="M506.8,233.8h-71.7v195h-48.2v-195h-70.7v-39.1h190.6L506.8,233.8L506.8,233.8z"/>
</g>
<path class="st2" d="M248.7,295h65.5c-2.7,16.9-9.5,31.8-20.5,44.9s-24.7,23.2-41.4,30.3c-16.6,7.1-34.6,10.6-54,10.6
	c-25.5,0-48.3-5.8-68.2-17.5s-35.5-28-46.7-48.9c-11.2-21-16.8-45-16.8-72.1c0-25.9,5.3-48.9,16-69.3c10.6-20.3,25.6-36.3,44.8-47.9
	s41.1-17.4,65.7-17.4c24.7,0,48.4,6.9,70.8,20.6c13.3,8.1,24.4,17.8,33.5,29.1l44.3-13.9c-29.4-44.9-77.8-76.2-133.8-82.4
	c-6.4-0.6-13-0.9-19.7-0.9c-12,0-23.5,1-34.6,2.8C111.7,70.8,74.8,92.6,48,123.6c-6.2,7.6-11.8,15.9-16.8,24.8
	C15.8,176.2,8,207.6,8,242.8c0,36.9,7.8,69.3,23.3,97.2c6.6,11.8,14.4,22.5,23.4,32.2c6.9,7.2,14.4,13.8,22.4,19.7c0,0,0,0,0.1,0.1
	c0.3,0.2,0.6,0.4,0.9,0.6c6.3,4.6,13,8.7,20.2,12.5c27.9,14.9,60.2,22.6,96.8,23.2c96.3-3.9,173.5-81.7,176.5-178.2H248.7V295z"/>
</svg>
