<svg width="32" height="16" viewBox="0 0 32 16" fill="none" xmlns="http://www.w3.org/2000/svg">
<path d="M32.5 0H0V16H32.5V0Z" fill="#219E42"/>
<path d="M16 14.5C19.5899 14.5 22.5 11.5899 22.5 8C22.5 4.41015 19.5899 1.5 16 1.5C12.4101 1.5 9.5 4.41015 9.5 8C9.5 11.5899 12.4101 14.5 16 14.5Z" fill="url(#paint0_radial)"/>
<path d="M16.0001 11.4001C17.8779 11.4001 19.4001 9.87787 19.4001 8.0001C19.4001 6.12233 17.8779 4.6001 16.0001 4.6001C14.1223 4.6001 12.6001 6.12233 12.6001 8.0001C12.6001 9.87787 14.1223 11.4001 16.0001 11.4001Z" fill="url(#paint1_radial)"/>
<path d="M32.5001 15.5H-0.199951V16.5H32.5001V15.5Z" fill="#003F0C"/>
<path d="M32.5001 -0.5H-0.199951V0.5H32.5001V-0.5Z" fill="#003F0C"/>
<defs>
<radialGradient id="paint0_radial" cx="0" cy="0" r="1" gradientUnits="userSpaceOnUse" gradientTransform="translate(16 8) scale(6.5)">
<stop offset="0.4153" stop-color="#8AFF8A"/>
<stop offset="1" stop-color="#219E42"/>
</radialGradient>
<radialGradient id="paint1_radial" cx="0" cy="0" r="1" gradientUnits="userSpaceOnUse" gradientTransform="translate(16.0001 8.0001) scale(3.41525)">
<stop offset="0.695" stop-color="white"/>
<stop offset="1" stop-color="#00EA73"/>
</radialGradient>
</defs>
</svg>
