<svg width="32" height="16" viewBox="0 0 32 16" fill="none" xmlns="http://www.w3.org/2000/svg">
<path d="M32 0H0V16H32V0Z" fill="#E12727"/>
<path d="M16 14.5C19.5899 14.5 22.5 11.5899 22.5 8C22.5 4.41015 19.5899 1.5 16 1.5C12.4101 1.5 9.5 4.41015 9.5 8C9.5 11.5899 12.4101 14.5 16 14.5Z" fill="url(#paint0_radial)"/>
<path d="M16 11.4001C17.8777 11.4001 19.4 9.87787 19.4 8.0001C19.4 6.12233 17.8777 4.6001 16 4.6001C14.1222 4.6001 12.6 6.12233 12.6 8.0001C12.6 9.87787 14.1222 11.4001 16 11.4001Z" fill="url(#paint1_radial)"/>
<path d="M32 15.5H0V16H32V15.5Z" fill="#7A0000"/>
<path d="M32 0H0V0.5H32V0Z" fill="#7A0000"/>
<defs>
<radialGradient id="paint0_radial" cx="0" cy="0" r="1" gradientUnits="userSpaceOnUse" gradientTransform="translate(16 8) scale(6.5)">
<stop offset="0.4153" stop-color="#FFF1B8"/>
<stop offset="1" stop-color="#E12727"/>
</radialGradient>
<radialGradient id="paint1_radial" cx="0" cy="0" r="1" gradientUnits="userSpaceOnUse" gradientTransform="translate(16 8.0001) scale(3.41525)">
<stop offset="0.695" stop-color="white"/>
<stop offset="1" stop-color="#FFC899"/>
</radialGradient>
</defs>
</svg>
