<svg width="32" height="16" viewBox="0 0 32 16" fill="none" xmlns="http://www.w3.org/2000/svg">
<path opacity="0.81" d="M32 0H0V16H32V0Z" fill="url(#paint0_linear)"/>
<path d="M32 0H0V0.5H32V0Z" fill="#333333"/>
<path d="M32 15.5H0V16H32V15.5Z" fill="#333333"/>
<path d="M15.65 14.55C19.2399 14.55 22.15 11.528 22.15 7.80005C22.15 4.07213 19.2399 1.05005 15.65 1.05005C12.0602 1.05005 9.15002 4.07213 9.15002 7.80005C9.15002 11.528 12.0602 14.55 15.65 14.55Z" fill="url(#paint1_radial)"/>
<path d="M15.65 11.35C17.5278 11.35 19.05 9.76061 19.05 7.8C19.05 5.83939 17.5278 4.25 15.65 4.25C13.7722 4.25 12.25 5.83939 12.25 7.8C12.25 9.76061 13.7722 11.35 15.65 11.35Z" fill="url(#paint2_radial)"/>
<defs>
<linearGradient id="paint0_linear" x1="4" y1="20" x2="28" y2="-4" gradientUnits="userSpaceOnUse">
<stop stop-color="white"/>
<stop offset="0.125" stop-color="#FFFF00"/>
<stop offset="0.3801" stop-color="#47FF33"/>
<stop offset="0.7274" stop-color="#FF0000"/>
<stop offset="0.8958" stop-color="#2B15FF"/>
</linearGradient>
<radialGradient id="paint1_radial" cx="0" cy="0" r="1" gradientUnits="userSpaceOnUse" gradientTransform="translate(15.6667 7.80804) scale(6.5 6.75025)">
<stop offset="0.4051" stop-color="white" stop-opacity="0.7"/>
<stop offset="0.5251" stop-color="white" stop-opacity="0.8"/>
<stop offset="0.7374" stop-color="white" stop-opacity="0.6"/>
<stop offset="0.8228" stop-color="white" stop-opacity="0.5"/>
<stop offset="0.8851" stop-color="white" stop-opacity="0.4"/>
<stop offset="0.9463" stop-color="white" stop-opacity="0.3"/>
<stop offset="0.9905" stop-color="white" stop-opacity="0.2"/>
<stop offset="1" stop-color="#219E42" stop-opacity="0"/>
</radialGradient>
<radialGradient id="paint2_radial" cx="0" cy="0" r="1" gradientUnits="userSpaceOnUse" gradientTransform="translate(15.6666 7.80835) scale(3.4817)">
<stop offset="0.695" stop-color="white"/>
<stop offset="1" stop-color="#FCFCFC" stop-opacity="0"/>
</radialGradient>
</defs>
</svg>
