<svg width="17" height="13" viewBox="0 0 17 13" fill="none" xmlns="http://www.w3.org/2000/svg">
<path d="M17 0.240723H0V12.7594H17V0.240723Z" fill="#F0F0F0"/>
<path d="M9.5625 0.240479H7.4375V5.3261H0V7.67333H7.4375V12.7589H9.5625V7.67333H17V5.3261H9.5625V0.240479Z" fill="#D80027"/>
<path d="M13.0749 8.677L17 11.0857V8.677H13.0749Z" fill="#0052B4"/>
<path d="M10.3478 8.677L17 12.7591V11.6048L12.229 8.677H10.3478Z" fill="#0052B4"/>
<path d="M15.2281 12.7592L10.3478 9.76416V12.7592H15.2281Z" fill="#0052B4"/>
<path d="M10.3478 8.677L17 12.7591V11.6048L12.229 8.677H10.3478Z" fill="#F0F0F0"/>
<path d="M10.3478 8.677L17 12.7591V11.6048L12.229 8.677H10.3478Z" fill="#D80027"/>
<path d="M2.9996 8.677L0 10.5177V8.677H2.9996Z" fill="#0052B4"/>
<path d="M6.65217 9.19604V12.7591H0.846375L6.65217 9.19604Z" fill="#0052B4"/>
<path d="M4.77106 8.677L0 11.6048V12.7591L6.65218 8.677H4.77106Z" fill="#D80027"/>
<path d="M3.92511 4.32251L0 1.91382V4.32251H3.92511Z" fill="#0052B4"/>
<path d="M6.65218 4.32259L0 0.240479V1.3948L4.77106 4.32259H6.65218Z" fill="#0052B4"/>
<path d="M1.77191 0.240479L6.65217 3.23553V0.240479H1.77191Z" fill="#0052B4"/>
<path d="M6.65218 4.32259L0 0.240479V1.3948L4.77106 4.32259H6.65218Z" fill="#F0F0F0"/>
<path d="M6.65218 4.32259L0 0.240479V1.3948L4.77106 4.32259H6.65218Z" fill="#D80027"/>
<path d="M14.0004 4.32291L17 2.48218V4.32291H14.0004Z" fill="#0052B4"/>
<path d="M10.3478 3.80377V0.240723H16.1536L10.3478 3.80377Z" fill="#0052B4"/>
<path d="M12.229 4.32259L17 1.3948V0.240479L10.3478 4.32259H12.229Z" fill="#D80027"/>
</svg>
