<svg width="27" height="25" viewBox="0 0 27 25" fill="none" xmlns="http://www.w3.org/2000/svg">
<path d="M19.8769 18.8752C18.1984 18.8752 16.8145 20.2298 16.8145 21.9377C16.8145 23.6161 18.169 25.0001 19.8769 25.0001C21.5553 25.0001 22.9393 23.6456 22.9393 21.9377C22.9099 20.2592 21.5553 18.8752 19.8769 18.8752Z" fill="#C251C0"/>
<path d="M25.265 4.26973C25.2061 4.26973 25.1178 4.24028 25.0295 4.24028H6.47821L6.18375 2.26737C6.00707 0.971732 4.88811 0 3.56302 0H1.17786C0.530035 0 0 0.530036 0 1.17786C0 1.82568 0.530035 2.35571 1.17786 2.35571H3.56302C3.71025 2.35571 3.82803 2.4735 3.85748 2.62073L5.68316 15.0471C5.91873 16.6078 7.27326 17.7856 8.86337 17.7856H21.1131C22.6443 17.7856 23.9694 16.6961 24.2933 15.1944L26.2073 5.62427C26.3251 5.00589 25.9128 4.38752 25.265 4.26973Z" fill="#C251C0"/>
<path d="M12.3682 21.7904C12.3093 20.1709 10.9548 18.8752 9.33524 18.8752C7.62735 18.9636 6.33171 20.377 6.3906 22.0555C6.44949 23.675 7.77458 24.9707 9.39414 24.9707H9.45303C11.1315 24.8823 12.4566 23.4689 12.3682 21.7904Z" fill="#C251C0"/>
</svg>
