<svg width="17" height="20" viewBox="0 0 17 20" fill="none" xmlns="http://www.w3.org/2000/svg">
<path d="M8.45247 0.000455465C6.84604 0.00167157 5.27318 0.452301 3.91786 1.29963C2.56254 2.14696 1.48081 3.35596 0.799201 4.7852C0.117591 6.21445 -0.135715 7.80484 0.0689127 9.37035C0.273541 10.9359 0.927642 12.4117 1.9547 13.6254H1.90518L8.05627 19.9026C8.14469 19.9678 8.25279 20.0021 8.36333 19.9999C8.46311 19.9931 8.55907 19.9594 8.64067 19.9026L14.1776 14.4721H14.2272L14.7125 13.9952C15.8459 12.8072 16.5992 11.3182 16.8788 9.71323C17.1583 8.10822 16.9519 6.45788 16.2851 4.96716C15.6183 3.47643 14.5204 2.21101 13.128 1.32803C11.7355 0.445045 10.1097 -0.0165882 8.45247 0.000455465ZM8.45247 10.151C7.94662 10.151 7.45214 10.0035 7.03167 9.72718C6.61121 9.45085 6.28367 9.05813 6.09054 8.59876C5.89742 8.13939 5.84739 7.63404 5.9468 7.14671C6.04621 6.65938 6.29059 6.21201 6.64897 5.86124C7.00736 5.51048 7.46364 5.27211 7.96001 5.17633C8.45639 5.08055 8.97053 5.13167 9.43731 5.3232C9.9041 5.51474 10.3025 5.83808 10.5821 6.25227C10.8617 6.66646 11.01 7.15287 11.008 7.64988C11.008 7.97916 10.9418 8.30519 10.8133 8.60928C10.6847 8.91337 10.4963 9.18953 10.2589 9.42191C10.0215 9.65429 9.73967 9.83832 9.42968 9.96344C9.11969 10.0886 8.7876 10.1523 8.45247 10.151Z" fill="#C251C0"/>
</svg>
