<svg width="17" height="19" viewBox="0 0 17 19" fill="none" xmlns="http://www.w3.org/2000/svg">
<path d="M12.2933 8.1611e-06C11.649 -0.00118916 11.0107 0.129369 10.4151 0.384211C9.81944 0.639054 9.27811 1.01318 8.82208 1.48518C8.36604 1.95717 8.00424 2.51778 7.75739 3.13491C7.51054 3.75204 7.38348 4.41359 7.38348 5.08169C7.38096 5.90389 7.57404 6.71405 7.94561 7.44039L0.453485 15.2086C0.162302 15.5118 -0.000820494 15.9224 3.10363e-06 16.3502C0.000826702 16.778 0.165529 17.188 0.457877 17.4899C0.750225 17.7918 1.14627 17.961 1.55889 17.9601C1.97151 17.9593 2.3669 17.7885 2.65809 17.4854L3.08847 17.0391L4.75729 18.7695C4.91814 18.918 5.126 19 5.34137 19C5.55675 19 5.76461 18.918 5.92546 18.7695L8.56044 16.0374C8.7061 15.87 8.78673 15.6526 8.78673 15.4272C8.78673 15.2018 8.7061 14.9844 8.56044 14.817L6.90919 13.0867L10.2029 9.6716C10.8555 10.0058 11.5743 10.1773 12.3021 10.1725C13.5672 10.1158 14.7622 9.55456 15.6376 8.60596C16.513 7.65737 17.0011 6.39478 17 5.08188C16.9989 3.76898 16.5086 2.5073 15.6315 1.56033C14.7545 0.613363 13.5585 0.0543387 12.2933 8.1611e-06ZM12.2933 7.06701C11.9143 7.06881 11.5432 6.95391 11.2272 6.73686C10.9111 6.51981 10.6644 6.21038 10.5181 5.84777C10.3718 5.48516 10.3326 5.0857 10.4055 4.69999C10.4784 4.31428 10.6601 3.95968 10.9275 3.68111C11.1949 3.40255 11.5361 3.21256 11.9078 3.13521C12.2794 3.05787 12.6649 3.09665 13.0152 3.24664C13.3656 3.39664 13.6652 3.65109 13.876 3.97777C14.0868 4.30445 14.1993 4.68865 14.1993 5.08169C14.197 5.60593 13.9957 6.10815 13.6391 6.47969C13.2824 6.85124 12.7989 7.06223 12.2933 7.06701Z" fill="#D584D1"/>
</svg>
