<svg width="23" height="21" viewBox="0 0 23 21" fill="none" xmlns="http://www.w3.org/2000/svg">
<path d="M21.2861 4.51618C21.3376 4.8435 21.3112 5.17856 21.2092 5.49341C21.1072 5.80826 20.9325 6.09377 20.6996 6.32612C20.3776 6.55966 20.0441 6.51295 18.2041 6.13929C16.1802 5.73059 15.9042 5.66053 15.6281 5.35693C15.2309 4.95881 14.9897 4.42758 14.9496 3.86227C14.9325 3.65365 14.8393 3.45903 14.6883 3.3165C14.5373 3.17397 14.3393 3.09377 14.1331 3.09158C11.7909 3.14846 9.49298 3.75177 7.41715 4.85481C7.27643 4.9344 7.16205 5.05448 7.08838 5.19992C7.01471 5.34537 6.98506 5.50969 7.00315 5.67221L7.12965 6.58301C7.14456 6.70801 7.13164 6.83481 7.09183 6.95405C7.05202 7.07329 6.98634 7.18194 6.89965 7.27196C6.50865 7.6573 5.99115 8.18277 5.39315 8.825C4.16265 10.1679 3.87515 10.6349 3.36915 10.5999C2.55265 10.5999 1.94315 9.31544 1.73615 8.5214C1.61397 8.04891 1.59047 7.5557 1.66715 7.07345C1.68426 6.97066 1.71931 6.8718 1.77065 6.78152C2.39165 5.76562 5.91065 0.40587 12.2931 0.078914C15.302 -0.0182462 18.2501 0.952068 20.6306 2.82301C20.7683 2.92828 20.8691 3.07563 20.9181 3.24339L21.2861 4.51618Z" fill="#C251C0"/>
<path d="M16.1001 6.32612C16.137 6.29947 16.1812 6.28516 16.2266 6.28516C16.2719 6.28516 16.3161 6.29947 16.3531 6.32612C16.6716 6.71955 17.101 7.00474 17.5836 7.14351C18.006 7.25425 18.4492 7.25425 18.8716 7.14351C18.8973 7.1366 18.9241 7.13509 18.9504 7.13906C18.9767 7.14304 19.0019 7.15242 19.0245 7.16662C19.0471 7.18083 19.0666 7.19957 19.0819 7.2217C19.0971 7.24383 19.1077 7.26887 19.1131 7.29531C19.1199 7.32141 19.1214 7.34864 19.1175 7.37534C19.1135 7.40204 19.1043 7.42765 19.0903 7.4506C19.0763 7.47355 19.0579 7.49336 19.0361 7.50883C19.0143 7.52429 18.9896 7.53508 18.9636 7.54053C18.4733 7.66907 17.9589 7.66907 17.4686 7.54053C16.942 7.37529 16.4692 7.06867 16.1001 6.65308C16.0778 6.63229 16.06 6.60703 16.0478 6.57889C16.0356 6.55075 16.0293 6.52034 16.0293 6.4896C16.0293 6.45886 16.0356 6.42845 16.0478 6.40031C16.06 6.37217 16.0778 6.3469 16.1001 6.32612Z" fill="#C251C0"/>
<path d="M4.20849 2.82288C4.23151 2.89995 4.2294 2.98251 4.20246 3.05826C4.17552 3.13401 4.12519 3.1989 4.05899 3.24325C2.74178 4.04545 1.73517 5.28186 1.20699 6.74636C0.890185 7.68775 0.784111 8.68902 0.896486 9.67729C0.909273 9.72742 0.91132 9.77975 0.902489 9.83074C0.893658 9.88174 0.874155 9.93022 0.845296 9.97291C0.816437 10.0156 0.778893 10.0515 0.7352 10.0782C0.691507 10.1049 0.642681 10.1218 0.592018 10.1277C0.541355 10.1336 0.490035 10.1284 0.441521 10.1124C0.393007 10.0965 0.348429 10.0701 0.310796 10.0352C0.273163 10.0002 0.243351 9.95751 0.223373 9.90987C0.203394 9.86223 0.193714 9.81079 0.194986 9.75903C0.0596926 8.6529 0.177759 7.52998 0.539986 6.47779C1.11881 4.85535 2.23195 3.48583 3.69099 2.60102C3.73071 2.57613 3.77499 2.55968 3.82116 2.55268C3.86732 2.54567 3.91441 2.54825 3.95956 2.56026C4.00472 2.57227 4.047 2.59345 4.08386 2.62254C4.12072 2.65162 4.15138 2.688 4.17399 2.72946L4.20849 2.82288Z" fill="#C251C0"/>
<path d="M22.6554 16.8353C21.7408 13.406 19.5952 10.4484 16.6409 8.54463C16.4981 8.44938 16.3284 8.40426 16.1579 8.41618L8.52193 8.54463C8.3573 8.54 8.19447 8.58033 8.05043 8.6614C7.05976 9.40141 6.14303 10.2384 5.31343 11.1603C3.92193 12.7017 2.35793 14.4999 2.19693 16.9171C2.08473 17.7975 2.28005 18.69 2.74893 19.4393C3.07357 19.9039 3.50875 20.2775 4.01393 20.5253C4.13991 20.597 4.28389 20.6294 4.42793 20.6187L21.0684 20.4902C21.2392 20.4905 21.4066 20.442 21.5514 20.3501C22.1097 19.9887 22.5287 19.4434 22.7381 18.8056C22.9474 18.1678 22.9345 17.4763 22.7014 16.847L22.6554 16.8353ZM9.05093 19.1707C8.87807 19.1707 8.70909 19.1187 8.56536 19.0212C8.42163 18.9236 8.30961 18.785 8.24346 18.6229C8.17731 18.4607 8.16 18.2823 8.19372 18.1101C8.22745 17.938 8.31069 17.7799 8.43292 17.6557C8.55515 17.5316 8.71088 17.4471 8.88042 17.4129C9.04996 17.3786 9.22569 17.3962 9.38539 17.4634C9.5451 17.5305 9.6816 17.6443 9.77763 17.7902C9.87367 17.9362 9.92493 18.1077 9.92493 18.2833C9.90231 18.5032 9.80067 18.7069 9.63944 18.8556C9.47821 19.0042 9.26869 19.0873 9.05093 19.089V19.1707ZM9.05093 16.0296C8.9367 16.0311 8.82331 16.0096 8.71733 15.9663C8.61136 15.923 8.51491 15.8587 8.4336 15.7773C8.35229 15.6958 8.28773 15.5987 8.24367 15.4917C8.1996 15.3847 8.17692 15.2698 8.17693 15.1538C8.17465 14.9778 8.22396 14.8051 8.3186 14.6576C8.41324 14.5102 8.54893 14.3946 8.70842 14.3256C8.86791 14.2567 9.04399 14.2374 9.21428 14.2703C9.38457 14.3033 9.54137 14.3868 9.66476 14.5105C9.78814 14.6341 9.87253 14.7922 9.9072 14.9647C9.94186 15.1371 9.92524 15.3162 9.85944 15.479C9.79364 15.6419 9.68164 15.7811 9.53767 15.8792C9.3937 15.9772 9.22428 16.0296 9.05093 16.0296ZM9.05093 13.087C8.93319 13.0871 8.81665 13.063 8.7083 13.0163C8.59995 12.9695 8.50202 12.901 8.42039 12.8148C8.33877 12.7286 8.27513 12.6266 8.23329 12.5149C8.19145 12.4031 8.17228 12.284 8.17693 12.1645C8.17693 11.9291 8.26901 11.7034 8.43292 11.537C8.59682 11.3706 8.81913 11.2771 9.05093 11.2771C9.28273 11.2771 9.50503 11.3706 9.66894 11.537C9.83285 11.7034 9.92493 11.9291 9.92493 12.1645C9.91045 12.3907 9.81235 12.603 9.65029 12.7589C9.48823 12.9148 9.27416 13.0028 9.05093 13.0053V13.087ZM12.3284 19.1707C12.1556 19.1707 11.9866 19.1187 11.8429 19.0212C11.6991 18.9236 11.5871 18.785 11.521 18.6229C11.4548 18.4607 11.4375 18.2823 11.4712 18.1101C11.5049 17.938 11.5882 17.7799 11.7104 17.6557C11.8326 17.5316 11.9884 17.4471 12.1579 17.4129C12.3275 17.3786 12.5032 17.3962 12.6629 17.4634C12.8226 17.5305 12.9591 17.6443 13.0551 17.7902C13.1512 17.9362 13.2024 18.1077 13.2024 18.2833C13.1798 18.5032 13.0782 18.7069 12.9169 18.8556C12.7557 19.0042 12.5462 19.0873 12.3284 19.089V19.1707ZM12.3284 16.0296C12.2147 16.0312 12.1019 16.0096 11.9965 15.9661C11.8912 15.9227 11.7955 15.8582 11.7151 15.7766C11.6347 15.695 11.5712 15.5978 11.5284 15.4908C11.4856 15.3839 11.4644 15.2693 11.4659 15.1538C11.4644 15.0378 11.4856 14.9227 11.5283 14.8151C11.5709 14.7075 11.6342 14.6096 11.7144 14.527C11.7947 14.4444 11.8903 14.3789 11.9957 14.3341C12.1011 14.2894 12.2142 14.2664 12.3284 14.2664C12.5602 14.2664 12.7825 14.3599 12.9464 14.5263C13.1103 14.6927 13.2024 14.9185 13.2024 15.1538C13.1822 15.3737 13.0809 15.5776 12.9188 15.7249C12.7567 15.8721 12.5459 15.9518 12.3284 15.9479V16.0296ZM12.3284 13.087C12.2141 13.0825 12.1018 13.055 11.9981 13.006C11.8944 12.9571 11.8013 12.8876 11.7242 12.8018C11.6471 12.7159 11.5877 12.6154 11.5493 12.506C11.5108 12.3966 11.4942 12.2805 11.5004 12.1645C11.4989 12.0491 11.5201 11.9345 11.5629 11.8275C11.6057 11.7205 11.6692 11.6234 11.7496 11.5417C11.83 11.4601 11.9257 11.3957 12.031 11.3522C12.1364 11.3087 12.2492 11.2872 12.3629 11.2887C12.4772 11.2872 12.5906 11.3087 12.6965 11.352C12.8025 11.3953 12.8989 11.4596 12.9803 11.5411C13.0616 11.6226 13.1261 11.7196 13.1702 11.8266C13.2143 11.9337 13.2369 12.0485 13.2369 12.1645C13.225 12.3979 13.1229 12.617 12.9528 12.7744C12.7827 12.9319 12.5584 13.0148 12.3284 13.0053V13.087ZM15.7784 19.1707C15.6056 19.1707 15.4366 19.1187 15.2929 19.0212C15.1491 18.9236 15.0371 18.785 14.971 18.6229C14.9048 18.4607 14.8875 18.2823 14.9212 18.1101C14.9549 17.938 15.0382 17.7799 15.1604 17.6557C15.2826 17.5316 15.4384 17.4471 15.6079 17.4129C15.7775 17.3786 15.9532 17.3962 16.1129 17.4634C16.2726 17.5305 16.4091 17.6443 16.5051 17.7902C16.6012 17.9362 16.6524 18.1077 16.6524 18.2833C16.631 18.4955 16.5359 18.693 16.3842 18.8406C16.2326 18.9882 16.0341 19.0762 15.8244 19.089L15.7784 19.1707ZM15.7784 16.0296C15.6647 16.0312 15.5519 16.0096 15.4465 15.9661C15.3412 15.9227 15.2455 15.8582 15.1651 15.7766C15.0847 15.695 15.0212 15.5978 14.9784 15.4908C14.9356 15.3839 14.9144 15.2693 14.9159 15.1538C14.9144 15.0378 14.9356 14.9227 14.9783 14.8151C15.0209 14.7075 15.0842 14.6096 15.1644 14.527C15.2447 14.4444 15.3403 14.3789 15.4457 14.3341C15.5511 14.2894 15.6642 14.2664 15.7784 14.2664C16.0102 14.2664 16.2325 14.3599 16.3964 14.5263C16.5603 14.6927 16.6524 14.9185 16.6524 15.1538C16.633 15.3657 16.5382 15.5632 16.3859 15.7093C16.2335 15.8555 16.0339 15.9403 15.8244 15.9479L15.7784 16.0296ZM15.7784 13.087C15.6641 13.0825 15.5518 13.055 15.4481 13.006C15.3444 12.9571 15.2513 12.8876 15.1742 12.8018C15.0971 12.7159 15.0377 12.6154 14.9993 12.506C14.9608 12.3966 14.9442 12.2805 14.9504 12.1645C14.9489 12.0491 14.9701 11.9345 15.0129 11.8275C15.0557 11.7205 15.1192 11.6234 15.1996 11.5417C15.28 11.4601 15.3757 11.3957 15.481 11.3522C15.5864 11.3087 15.6992 11.2872 15.8129 11.2887C15.9272 11.2872 16.0406 11.3087 16.1465 11.352C16.2525 11.3953 16.3489 11.4596 16.4303 11.5411C16.5116 11.6226 16.5761 11.7196 16.6202 11.8266C16.6643 11.9337 16.6869 12.0485 16.6869 12.1645C16.6753 12.3897 16.5796 12.6019 16.4194 12.7581C16.2592 12.9142 16.0465 13.0026 15.8244 13.0053L15.7784 13.087Z" fill="#C251C0"/>
</svg>
