<svg id="Слой_1" data-name="Слой 1" xmlns="http://www.w3.org/2000/svg" viewBox="0 0 20 21"><defs><style>.cls-1{fill:#9ab9cd;}</style></defs><title>tell</title><path class="cls-1" d="M18.51,5.45A1.78,1.78,0,0,1,18,7c-.28.2-.57.16-2.17-.16-1.76-.35-2-.41-2.24-.67A2,2,0,0,1,13,4.89a.72.72,0,0,0-.71-.66A13.28,13.28,0,0,0,6.45,5.74a.71.71,0,0,0-.36.7l.11.78A.72.72,0,0,1,6,7.81c-.34.33-.79.78-1.31,1.33-1.07,1.15-1.32,1.55-1.76,1.52-.71,0-1.24-1.1-1.42-1.78a3,3,0,0,1-.06-1.24.75.75,0,0,1,.09-.25c.54-.87,3.6-5.46,9.15-5.74A11.26,11.26,0,0,1,17.94,4a.7.7,0,0,1,.25.36Z"/><path class="cls-1" d="M14,7a.19.19,0,0,1,.22,0,2.14,2.14,0,0,0,1.07.7,2.24,2.24,0,0,0,1.12,0,.17.17,0,0,1,.21.13.17.17,0,0,1-.13.21,2.6,2.6,0,0,1-1.3,0A2.66,2.66,0,0,1,14,7.28.19.19,0,0,1,14,7Z"/><path class="cls-1" d="M3.66,4a.32.32,0,0,1-.13.36,5.84,5.84,0,0,0-2.48,3A5.73,5.73,0,0,0,.78,9.87a.31.31,0,1,1-.61.07,6.2,6.2,0,0,1,.3-2.81A6.41,6.41,0,0,1,3.21,3.81a.3.3,0,0,1,.42.11Z"/><path class="cls-1" d="M19.7,16a12.18,12.18,0,0,0-5.23-7.1.68.68,0,0,0-.42-.11l-6.64.11A.8.8,0,0,0,7,9a16.34,16.34,0,0,0-2.38,2.14C3.41,12.46,2.05,14,1.91,16.07a3.25,3.25,0,0,0,.48,2.16,2.89,2.89,0,0,0,1.1.93.64.64,0,0,0,.36.08l14.47-.11a.79.79,0,0,0,.42-.12,2.51,2.51,0,0,0,1-3Zm-11.83,2a.76.76,0,1,1,.76-.76A.77.77,0,0,1,7.87,17.93Zm0-2.69a.75.75,0,0,1-.76-.75.76.76,0,1,1,.76.75Zm0-2.52A.76.76,0,0,1,7.11,12a.76.76,0,0,1,1.52,0A.77.77,0,0,1,7.87,12.72Zm2.85,5.21a.76.76,0,1,1,.76-.76A.77.77,0,0,1,10.72,17.93Zm0-2.69a.74.74,0,0,1-.75-.75.75.75,0,0,1,.75-.76.76.76,0,0,1,.76.76A.75.75,0,0,1,10.72,15.24Zm0-2.52A.75.75,0,0,1,10,12a.74.74,0,0,1,.75-.75.75.75,0,0,1,.76.75A.76.76,0,0,1,10.72,12.72Zm3,5.21a.76.76,0,1,1,.76-.76A.77.77,0,0,1,13.76,17.93Zm0-2.69a.74.74,0,0,1-.75-.75.75.75,0,0,1,.75-.76.76.76,0,0,1,.76.76A.75.75,0,0,1,13.76,15.24Zm0-2.52A.75.75,0,0,1,13,12a.74.74,0,0,1,.75-.75.75.75,0,0,1,.76.75A.76.76,0,0,1,13.76,12.72Z"/></svg>