<svg width="16" height="16" viewBox="0 0 16 16" fill="none" xmlns="http://www.w3.org/2000/svg">
<path fill-rule="evenodd" clip-rule="evenodd" d="M1.39234 11.9553L11.7252 1.51513C12.7764 0.452805 14.2373 0.20679 14.9882 0.965601C15.7391 1.72397 15.4956 3.20045 14.4443 4.26235L4.11151 14.703C3.06026 15.7653 1.59937 16.0113 0.84851 15.2525C0.0976366 14.4937 0.341106 13.0177 1.39234 11.9553ZM12.3806 9.71695C14.0656 9.71695 15.4314 11.0536 15.4314 12.7022C15.4314 14.3512 14.0656 15.6879 12.3806 15.6879C10.6958 15.6879 9.32989 14.3512 9.32989 12.7022C9.32989 11.0536 10.6958 9.71695 12.3806 9.71695ZM6.51752 3.74601C6.51752 2.09741 5.15161 0.760751 3.46676 0.760751C1.78178 0.760751 0.416024 2.09741 0.416024 3.74601C0.416024 5.39459 1.78178 6.73125 3.46676 6.73125C5.15161 6.73125 6.51752 5.39459 6.51752 3.74601Z" fill="#FFC100"/>
</svg>
