<svg width="20" height="21" viewBox="0 0 20 21" fill="none" xmlns="http://www.w3.org/2000/svg">
<path d="M9.88 0.217377C7.92593 0.217377 6.01573 0.809425 4.39097 1.91865C2.76621 3.02788 1.49987 4.60447 0.752075 6.44905C0.00428087 8.29363 -0.191376 10.3234 0.189846 12.2816C0.571068 14.2397 1.51205 16.0385 2.89379 17.4502C4.27553 18.862 6.03598 19.8235 7.95251 20.213C9.86904 20.6025 11.8556 20.4026 13.6609 19.6385C15.4663 18.8745 17.0093 17.5806 18.0949 15.9205C19.1806 14.2604 19.76 12.3087 19.76 10.3122C19.76 7.63486 18.7191 5.06721 16.8662 3.17407C15.0134 1.28093 12.5003 0.217377 9.88 0.217377ZM6.12 5.41803C6.55291 5.42608 6.97386 5.56446 7.33013 5.81585C7.68641 6.06723 7.96216 6.42045 8.12285 6.83124C8.28355 7.24203 8.32203 7.69213 8.23349 8.12517C8.14494 8.5582 7.93331 8.95492 7.62509 9.26561C7.31688 9.57631 6.92579 9.78718 6.50081 9.8718C6.07583 9.95642 5.63586 9.91104 5.23601 9.74133C4.83617 9.57162 4.49422 9.28514 4.25301 8.91776C4.0118 8.55038 3.88204 8.11845 3.88 7.67607C3.87998 7.37695 3.93812 7.08079 4.05105 6.80482C4.16399 6.52884 4.32946 6.27854 4.53787 6.06846C4.74627 5.85837 4.99346 5.69269 5.26506 5.58103C5.53666 5.46938 5.82727 5.41397 6.12 5.41803ZM15.12 13.9393C14.4709 14.7092 13.6687 15.3288 12.7669 15.7571C11.8651 16.1853 10.8843 16.4124 9.88987 16.423C8.89545 16.4336 7.91022 16.2276 6.99981 15.8188C6.08941 15.4099 5.27471 14.8075 4.61 14.0517C4.49398 13.9265 4.42141 13.7659 4.40347 13.5944C4.38552 13.423 4.42318 13.2503 4.51067 13.1029C4.59815 12.9555 4.73061 12.8415 4.88767 12.7785C5.04474 12.7154 5.21772 12.7069 5.38 12.7541C6.84981 13.14 8.3625 13.3289 9.88 13.3161C11.3813 13.2928 12.8734 13.0731 14.32 12.6622C14.4823 12.6038 14.6591 12.6028 14.8221 12.6591C14.9851 12.7154 15.1249 12.8258 15.2193 12.9728C15.3136 13.1198 15.3571 13.2949 15.3427 13.47C15.3284 13.6452 15.257 13.8104 15.14 13.9393H15.12ZM13.62 9.91368C13.1872 9.90161 12.7675 9.75934 12.4135 9.50467C12.0595 9.25001 11.7869 8.89428 11.6299 8.48204C11.4728 8.0698 11.4383 7.61938 11.5307 7.1872C11.623 6.75501 11.8381 6.36028 12.149 6.05244C12.46 5.74459 12.8529 5.53733 13.2786 5.45661C13.7042 5.37588 14.1438 5.42529 14.5421 5.59863C14.9404 5.77198 15.2799 6.06156 15.5178 6.4311C15.7558 6.80064 15.8818 7.23371 15.88 7.67607C15.8774 7.97348 15.8173 8.26742 15.7032 8.54103C15.5891 8.81464 15.4232 9.06253 15.2151 9.27044C15.0069 9.47836 14.7606 9.64222 14.4903 9.7526C14.22 9.86299 13.9311 9.91773 13.64 9.91368H13.62Z" fill="#D584D1"/>
</svg>
