<svg width="31" height="28" viewBox="0 0 31 28" fill="none" xmlns="http://www.w3.org/2000/svg">
<path d="M28.5408 2.69907C26.936 0.95858 24.7341 0 22.3401 0C20.5507 0 18.9119 0.565735 17.4692 1.68136C16.7412 2.24449 16.0816 2.93345 15.5 3.73759C14.9187 2.93369 14.2588 2.24449 13.5306 1.68136C12.0881 0.565735 10.4493 0 8.65986 0C6.26589 0 4.06374 0.95858 2.45901 2.69907C0.873436 4.41921 0 6.76919 0 9.31641C0 11.9381 0.977028 14.338 3.07465 16.8692C4.95113 19.1333 7.64806 21.4317 10.7712 24.0932C11.8376 25.0021 13.0464 26.0323 14.3016 27.1297C14.6332 27.4202 15.0587 27.58 15.5 27.58C15.9411 27.58 16.3668 27.4202 16.6979 27.1302C17.9531 26.0326 19.1626 25.0018 20.2295 24.0925C23.3522 21.4315 26.0491 19.1333 27.9256 16.8689C30.0232 14.338 31 11.9381 31 9.31618C31 6.76919 30.1266 4.41921 28.5408 2.69907Z" fill="#EAF6F6"/>
</svg>
