<svg width="28" height="26" viewBox="0 0 28 26" fill="none" xmlns="http://www.w3.org/2000/svg">
<path d="M25.7787 2.96912C24.3293 1.39706 22.3405 0.53125 20.1782 0.53125C18.5619 0.53125 17.0817 1.04224 15.7786 2.0499C15.1211 2.55853 14.5253 3.18082 14 3.90714C13.4749 3.18103 12.8789 2.55853 12.2212 2.0499C10.9183 1.04224 9.43808 0.53125 7.82181 0.53125C5.65952 0.53125 3.67047 1.39706 2.22104 2.96912C0.78891 4.5228 0 6.64536 0 8.94608C0 11.3141 0.882477 13.4817 2.7771 15.7679C4.47198 17.8129 6.90793 19.8889 9.72882 22.2928C10.692 23.1138 11.7839 24.0443 12.9176 25.0355C13.2171 25.2979 13.6014 25.4423 14 25.4423C14.3984 25.4423 14.7829 25.2979 15.082 25.0359C16.2157 24.0445 17.3082 23.1136 18.2718 22.2922C21.0923 19.8887 23.5282 17.8129 25.2231 15.7677C27.1177 13.4817 28 11.3141 28 8.94586C28 6.64536 27.2111 4.5228 25.7787 2.96912Z" fill="#C4C4C4"/>
</svg>
