<?xml version="1.0" encoding="utf-8"?>
<!-- Generator: Adobe Illustrator 22.0.1, SVG Export Plug-In . SVG Version: 6.00 Build 0)  -->
<svg version="1.1" id="Layer_1" xmlns="http://www.w3.org/2000/svg" xmlns:xlink="http://www.w3.org/1999/xlink" x="0px" y="0px"
	 viewBox="0 0 27 27" style="enable-background:new 0 0 27 27;" xml:space="preserve">
<style type="text/css">
	.st0{fill:#FFFFFF;}
</style>
<g>
	<g id="Link-chains">
		<path class="st0" d="M23.7,4.4c-0.2-0.7-0.7-1.3-1.3-1.7l-4.1-2.4c-0.6-0.4-1.4-0.5-2.1-0.3c-0.7,0.2-1.3,0.7-1.7,1.3l-5.2,9
			c-0.4,0.6-0.5,1.4-0.3,2.1c0.2,0.7,0.7,1.3,1.3,1.7l3.2,1.8c0.1,0,0.1,0.1,0.2,0.1c0.1,0,0.3-0.1,0.4-0.2c0.1-0.2,0-0.5-0.2-0.6
			l-3.2-1.8c-0.5-0.3-0.8-0.7-0.9-1.2c-0.1-0.5-0.1-1,0.2-1.5l5.2-9c0.3-0.5,0.7-0.8,1.2-0.9c0.5-0.1,1-0.1,1.5,0.2L22,3.5
			c0.5,0.3,0.8,0.7,0.9,1.2s0.1,1-0.2,1.5L20,10.8c-0.1,0.2,0,0.5,0.2,0.6c0.2,0.1,0.5,0,0.6-0.2l2.7-4.7
			C23.8,5.9,23.9,5.2,23.7,4.4z"/>
		<path class="st0" d="M16.7,12.8L13,10.6c-0.2-0.1-0.5,0-0.6,0.2c-0.1,0.2,0,0.5,0.2,0.6l3.7,2.2c0.9,0.5,1.2,1.7,0.7,2.7l-5.2,9
			c-0.3,0.5-0.7,0.8-1.2,0.9c-0.5,0.1-1,0.1-1.5-0.2L5,23.5c-0.9-0.5-1.2-1.7-0.7-2.7L7,16.2c0.1-0.2,0-0.5-0.2-0.6
			c-0.2-0.1-0.5,0-0.6,0.2l-2.7,4.7c-0.8,1.3-0.3,3,1,3.8l4.1,2.4c0.4,0.2,0.9,0.4,1.4,0.4c0.2,0,0.5,0,0.7-0.1
			c0.7-0.2,1.3-0.7,1.7-1.3l5.2-9C18.5,15.2,18,13.5,16.7,12.8z"/>
	</g>
</g>
</svg>
