<svg width="198" height="64" viewBox="0 0 198 64" fill="none" xmlns="http://www.w3.org/2000/svg">
<path fill-rule="evenodd" clip-rule="evenodd" d="M22.6138 49.4183C18.959 45.2106 21.7325 37.6938 22.3891 31.2743C21.7238 31.9396 13.3171 51.7425 5.67936 50.9649C-1.06848 49.0814 -0.187201 41.2276 1.92096 35.4734H12.5395C9.43776 44.8823 13.9824 41.003 17.1878 34.9204C23.3827 21.753 23.6074 20.6471 30.6835 0.844238H42.745C39.2026 12.1281 35.7725 23.0836 34.2259 34.6958C34.2259 35.2487 34.3382 35.6894 34.7789 35.4734C37.4314 34.9204 51.264 3.05608 52.4822 0.844238H64.0944C63.9821 1.95016 51.3677 38.0135 53.3635 41.3313C54.3571 43.2148 55.8 39.6724 57.1219 38.1258L59.0054 40.2254C55.1347 44.433 50.711 52.0622 44.5075 50.9562C43.6262 50.6193 42.8486 50.075 42.071 49.522C35.7638 43.8801 47.713 22.9713 46.1664 21.3124C45.9418 21.2001 44.8358 23.6366 44.7235 23.9649C41.0688 31.4903 32.8867 51.1809 26.2512 51.1809C25.1539 51.1895 23.1667 50.0836 22.6138 49.4183ZM111.779 50.1959C110.56 49.8676 109.895 49.2023 109.454 47.7594C109.342 47.5348 109.342 47.4225 109.342 47.0942C109.342 46.4289 109.454 45.7636 109.567 44.9946C109.679 44.4417 110.007 43.7764 110.007 43.1111C110.12 43.1111 110.12 42.9988 110.12 42.8865L109.895 43.1111C109.558 43.1111 108.901 43.9924 108.461 44.3294C107.796 44.8823 107.13 45.4353 106.69 45.7636C105.584 46.6535 104.478 47.5348 103.035 48.3124C103.035 48.3124 102.698 48.6407 102.154 49.09C101.488 49.4183 100.935 49.7553 100.382 49.8676C99.7171 50.1441 98.9914 50.2218 98.2829 50.0922C96.9523 49.7553 95.9587 48.7617 95.4058 47.5434C95.2934 46.6622 95.4058 45.5562 95.8464 44.4503C96.287 42.5668 97.0646 41.2449 97.6176 39.5774C97.8422 38.6961 98.1706 37.9185 98.6112 36.8126C98.9395 35.7066 99.3888 34.4884 99.8294 33.3825C99.9418 32.4926 100.382 31.499 100.495 30.8337C100.607 30.7214 100.495 30.609 100.607 30.5054C100.495 30.2807 100.495 30.2807 100.166 30.2807C99.5011 30.609 98.8358 31.0583 98.3952 31.3866C97.6176 31.8273 96.9523 32.2679 96.1834 32.4926C95.9587 32.6049 96.071 32.1642 96.071 31.8273C96.071 31.162 96.1834 30.609 96.071 29.6154C96.071 29.6154 96.1834 29.6154 96.1834 29.5031C96.1834 29.2785 96.408 29.1748 96.5117 29.1748C99.3888 27.4036 102.266 25.1918 105.143 23.5329C105.368 23.5329 105.696 23.3082 106.249 22.9799C106.914 22.6516 108.348 22.7553 109.014 22.9799C109.679 23.2046 110.12 23.7575 110.232 24.3105C110.457 25.641 109.014 27.9652 108.573 29.5118C108.685 29.6241 108.348 30.2894 108.348 30.2894C107.908 31.6199 107.683 32.5012 107.13 34.0478C106.577 35.819 105.912 37.7025 105.247 39.5774C105.022 40.2426 104.469 42.0138 104.365 42.6791C104.141 43.0074 104.365 43.1198 104.59 43.2321C104.702 43.4567 105.255 43.1198 105.584 43.0074C106.249 42.5668 107.355 41.4609 108.02 40.7956C108.245 40.6833 108.573 40.355 108.798 40.1303C109.679 38.9121 110.569 37.9185 111.675 36.3719C111.787 35.7066 111.9 35.5943 112.452 34.4884C112.565 34.0478 113.334 32.7172 113.671 31.9396C113.895 31.6113 114.111 30.7214 114.111 30.7214C114.448 30.1684 114.664 29.3908 114.993 28.3972C115.105 27.7319 115.105 27.5159 115.658 26.073C115.77 25.4078 115.883 25.0794 116.099 24.5265C116.099 24.4142 116.323 24.3018 116.323 24.0858L116.548 23.9735C118.872 24.0858 121.196 24.0858 123.52 24.3018L123.745 24.4142V24.6388C123.633 24.8634 123.633 25.0794 123.52 25.4164C123.183 26.194 122.855 27.2999 122.527 28.4058C121.861 31.1706 119.209 39.249 117.991 43.2321C117.878 43.4567 117.991 43.6727 117.878 43.785C117.766 44.2257 117.541 44.338 117.654 44.675H118.094L118.319 44.4503C118.647 44.338 119.097 44.0097 119.537 43.6727C119.762 43.5604 119.866 43.4481 120.09 43.1198H120.643C120.756 43.1198 121.084 44.338 121.196 44.6663C121.196 45.107 121.196 45.107 121.308 45.3316C121.308 45.6686 121.308 45.7722 121.196 45.8846L120.972 45.9969C120.082 46.5498 119.2 47.2151 118.423 47.7681C117.541 48.2087 117.541 48.321 116.539 48.874C115.874 49.3147 115.209 49.7553 114.552 49.9799C113.999 50.2046 113.671 50.2046 113.334 50.2046C112.444 50.3082 112.219 50.1959 111.779 50.1959ZM131.581 62.8103L131.469 62.698C131.581 61.9204 131.694 61.2638 132.022 60.3739C133.24 56.1662 134.459 52.0794 136.005 48.0964C136.333 47.3188 136.333 47.3188 136.446 46.7658H136.109C135.772 47.1028 135.003 47.6558 134.45 48.2001C132.791 49.5306 130.355 50.7489 127.702 49.4183C127.149 49.1937 126.933 49.09 126.268 48.537C125.715 47.9841 125.274 47.3188 124.834 46.5498C124.393 45.7722 124.056 44.1134 123.84 43.0074C123.952 41.0202 124.065 38.5838 124.73 36.1473C125.171 34.4884 126.389 31.7236 127.607 29.7278C128.713 27.9566 129.931 26.7383 131.815 25.6324C132.143 25.1918 134.251 24.0858 134.908 23.8612C135.685 23.7489 136.342 23.4206 137.12 23.3082C138.338 23.1959 139.772 22.9799 141.215 23.8612C142.209 24.8548 142.105 25.5201 142.649 25.6324C142.874 25.5201 142.874 25.4078 142.874 25.1918C143.202 24.6388 143.315 23.7489 143.643 23.4206C144.084 23.1959 148.067 23.3082 150.175 23.4206C150.615 23.4206 150.952 23.7489 150.728 24.1982L147.522 34.1514L147.082 35.698C145.863 39.5687 144.757 43.5518 143.323 47.4225L140.999 55.3886C140.558 56.4945 139.012 62.2487 138.459 63.13C138.666 63.1387 133.353 63.251 131.581 62.8103ZM133.353 35.0327C133.69 34.1514 134.243 33.2615 134.683 32.4839C135.124 31.715 135.564 30.9374 136.117 30.1598C137.111 29.4945 138.001 28.8292 139.107 29.0538C140.437 29.6068 139.988 31.8186 139.548 33.9182C138.882 36.2423 138.113 39.2318 136.342 41.5473C135.124 43.0938 134.355 43.4308 133.577 43.6468C131.806 43.4222 131.918 40.9943 132.031 39.7761C132.031 39.7761 132.143 39.5514 132.143 39.2231C132.359 38.0222 132.912 36.3633 133.353 35.0327ZM151.168 47.8718C150.831 47.8718 149.397 48.7531 148.732 49.306C148.507 49.306 148.395 49.5306 148.179 49.5306C147.289 49.306 147.073 47.9841 146.745 47.3188C146.745 46.9818 146.632 46.7658 146.632 46.2129C147.185 45.3316 150.062 45.8846 149.069 43.5604C148.844 40.355 149.406 36.8126 150.728 33.9354C151.618 32.2766 153.389 29.6241 153.492 29.6241C154.045 28.7428 154.927 28.0775 155.704 27.2999C156.041 26.8593 156.482 26.6346 157.035 26.4186C158.253 25.425 161.13 23.7662 162.901 23.3169C165.226 22.9886 167.213 22.5393 169.321 23.0922C170.652 23.4206 172.414 24.8634 172.639 26.0817C172.863 27.0753 172.639 27.9652 172.302 29.3994C171.308 32.2766 171.42 32.1642 170.643 33.3825C169.762 34.6007 169.425 35.1537 167.55 36.9249C166.884 37.4778 166.444 37.9185 165.666 38.5838C163.567 40.571 162.348 40.9079 160.249 42.4545C160.137 42.4545 158.918 43.1198 158.702 43.1198C157.268 43.8974 158.478 44.4503 159.255 44.6663C161.692 45.3316 165.122 43.0074 166.781 41.4609C166.893 41.3486 167.887 40.355 168.111 40.355C168.664 41.1326 169.546 42.2385 169.77 43.0074L169.546 43.4481C167.446 45.7722 163.904 48.3124 162.357 48.9777C160.258 50.0836 156.94 50.3083 154.944 50.0836C153.484 49.643 152.274 48.6407 151.168 47.8718ZM157.692 40.234C157.467 40.234 157.467 40.1217 157.467 40.0094C157.692 36.9076 158.901 34.0305 160.672 31.6026C161.45 30.3844 162.996 28.1726 164.655 27.6196C165.424 27.2913 166.09 27.2913 166.755 27.5073C167.42 27.7319 167.196 29.6068 166.314 30.9374C164.543 33.7022 162.219 36.1386 161.338 37.1322C160.24 38.3591 158.797 39.5687 157.692 40.234ZM78.7046 49.859C77.711 49.522 76.8211 48.8654 75.8275 48.2001C74.8339 47.4225 74.281 46.5412 73.6157 45.4353C73.5034 45.2106 73.391 44.77 73.0627 44.3294C72.8122 43.569 72.6307 42.7915 72.5098 42.0052C72.3974 40.8993 72.3974 40.571 72.2851 39.7934V39.1281L72.0605 39.0158C71.5075 39.0158 71.1792 39.2404 70.6176 39.4564C69.7363 39.7934 68.6304 40.234 67.8528 40.3377C67.6282 40.45 66.7469 40.5623 66.5222 40.6746L66.4099 40.45C66.4099 39.7847 66.6346 39.6724 66.7382 39.3441L67.4035 37.4606C67.8442 36.7953 67.7318 36.5793 68.1811 35.914C68.6217 35.6894 68.7341 35.6894 70.0646 35.4734C70.8422 35.361 71.9482 35.2487 72.8294 35.0327C72.9417 34.9204 73.0541 34.2551 73.0541 34.1514V34.0391C73.0541 33.7022 73.1664 33.4862 73.1664 33.2615C73.391 32.5962 73.7194 31.8273 73.7194 31.2743C74.0477 30.8337 74.2723 30.1684 74.497 29.7278C74.7216 29.2871 74.8253 28.8465 75.1622 28.3972C75.7152 27.2913 76.2682 26.073 76.9334 24.9671C77.2617 24.4142 77.5987 23.8612 78.264 22.9799C78.9293 22.2023 79.5946 21.2087 79.9229 20.7681C80.2512 20.6558 80.2512 20.5434 80.3635 20.4398C80.8042 19.9991 81.1411 19.4462 81.6941 18.9969C82.6877 17.891 83.5776 16.785 84.8995 15.5668C85.3402 15.0138 85.4525 15.0138 85.6771 15.0138C86.0054 14.4609 86.4547 14.2362 87.2237 13.6833C87.8717 13.1735 88.5283 12.6983 89.2109 12.2404C91.3104 10.5815 94.6282 8.81032 97.0646 8.14504C97.2893 8.03272 98.9482 7.59208 99.8294 7.59208C100.382 7.59208 102.819 7.36744 103.7 7.47976C104.037 7.59208 104.478 7.59208 105.031 7.80808C105.255 8.03272 105.255 8.24872 105.584 8.36104C105.696 8.80168 105.584 9.24232 105.584 9.6916C105.471 10.2446 105.143 10.9098 105.031 11.4628C104.806 12.1281 103.7 14.2276 103.26 14.8929C103.052 15.273 102.836 15.6446 102.594 15.9988C101.601 17.3294 100.935 18.4353 99.9418 19.5412C99.3888 20.2065 98.3952 21.4247 98.2829 21.5284C97.2893 22.6343 96.071 23.7402 95.2934 24.6215C94.6282 25.5028 93.9629 26.0644 93.0816 26.8334C91.9757 27.7146 91.535 28.0516 90.5328 28.9329C89.6515 29.7105 89.4269 29.7105 88.8739 30.2634C88.7616 30.2634 88.0963 31.041 87.768 31.1447C86.7744 31.81 85.8845 32.4753 84.6749 33.1406C84.1219 33.5812 83.3443 33.6935 83.016 34.1342C82.5754 34.4625 82.3507 34.5748 81.5818 34.6871C81.5818 34.7994 81.4694 35.1278 81.3571 35.2401C81.2448 35.577 81.2448 35.577 80.9165 36.2337C80.4758 37.3396 80.6918 37.3396 80.4758 38.0049C80.5882 38.9985 80.4758 39.6638 80.7005 40.6574C80.7005 40.7697 80.8128 41.7633 80.9251 41.7633V41.8756C81.0374 42.6532 81.1497 43.3098 82.031 43.6468H82.584C84.0182 42.6532 84.1306 41.7633 84.5712 40.2167C84.6835 38.5578 84.8995 36.346 84.4589 34.7994C84.4589 34.6871 84.3466 34.2465 84.3466 34.1342V34.0218C84.3466 33.9095 84.7872 33.6849 85.2278 33.4689C85.5562 33.3566 86.0054 33.0282 86.4461 32.9159C87.6643 32.363 89.4355 31.257 90.4291 30.8164C90.5414 30.8164 90.5414 30.7041 90.8698 30.7041L90.9821 30.8164C91.0944 31.1447 91.2067 31.3694 91.4227 31.81C91.535 32.363 91.535 32.8036 91.6474 33.1406C91.872 34.4711 91.7597 35.9054 91.7597 37.1236C91.6474 38.5578 91.2067 40.2254 90.8784 41.5473C90.3254 43.2062 89.4355 44.9774 88.3296 46.4116C87.552 47.6298 86.8867 48.2951 86.0054 48.8481C85.5648 49.1764 85.1242 49.401 84.8995 49.5134C84.3466 49.954 83.9059 49.954 83.569 50.0663C82.9037 50.0663 82.1261 50.291 81.4694 50.291C80.4672 50.0836 79.6982 50.0836 78.7046 49.859ZM83.6813 29.5031V29.1748C83.9059 28.2935 84.4589 27.4036 84.8995 26.626C86.4461 24.5265 88.105 22.2023 89.6602 20.3188C90.9907 18.6599 92.6496 16.6641 93.7555 16.0074C94.7491 15.3422 95.855 14.5646 96.961 14.0202C97.1856 13.7956 97.6262 13.7956 97.8422 13.6919C98.0669 13.4673 98.1706 13.4673 98.3952 13.3636C98.3952 13.3636 98.5075 13.5882 98.7235 13.5882V13.7006C98.7235 14.0289 98.7235 14.0289 98.4989 14.3658C98.2742 15.2471 97.6176 16.2494 97.1683 17.1306C96.6154 17.6836 95.9501 18.7895 95.6218 19.0142C95.2934 19.7918 94.4035 20.5607 93.7382 21.226C93.4099 21.6666 92.6323 22.6689 92.4077 22.8849C91.5264 23.4378 90.5242 24.4314 89.6429 25.0967C88.4246 26.0903 87.2064 26.9802 85.8845 27.9738C85.3315 28.5268 84.7786 28.9674 84.001 29.3044C84.0096 29.2871 83.785 29.5031 83.6813 29.5031ZM175.283 30.0561C175.395 29.8314 175.723 29.3908 176.172 28.9502C177.166 27.2913 178.609 25.9607 180.268 24.6388C180.38 24.5265 180.492 24.4142 180.821 24.4142C180.821 24.4142 180.933 24.3018 181.261 24.3018H181.486C183.033 24.0772 187.569 23.7489 188.787 23.8612C188.899 24.3018 188.346 24.8548 188.009 25.1918C186.575 26.1854 185.357 27.5159 184.139 28.8465C181.261 31.8359 178.272 39.3527 179.715 42.7828C180.052 44.001 181.261 44.9946 182.704 44.6663C183.37 44.554 183.81 44.4417 184.476 44.001C185.469 43.3358 187.465 40.2426 187.569 39.6897C188.675 37.7025 190.662 32.3889 190.333 30.2894C190.333 30.0647 189.996 29.8487 189.996 29.6241C189.996 29.5118 189.772 29.5118 189.668 29.3994C188.338 29.5118 186.463 31.8359 186.013 32.9418C185.901 33.1665 185.901 33.2702 185.789 33.3825H185.564C184.899 32.9418 184.234 32.1642 183.793 31.499V30.946C185.34 28.8465 186.998 26.6346 189.21 24.9671C189.763 24.3018 192.312 22.9799 193.193 22.7553C194.187 22.643 195.405 22.9799 196.183 23.7489C198.066 25.8484 197.176 30.0561 196.623 32.5962C196.286 34.3674 195.958 35.145 195.405 36.467C194.412 38.7911 194.299 39.0158 193.859 39.897C191.647 43.7678 187.439 48.5284 183.015 49.7466C180.916 50.1873 179.145 50.4119 177.149 50.0836C175.265 49.306 173.39 47.4225 172.5 45.7636C172.172 44.9082 171.956 44.0183 171.835 43.1111C171.507 42.4458 171.723 39.0158 171.948 38.5751C171.948 38.0222 172.613 35.2574 172.941 34.8167C173.399 33.7108 174.617 30.946 175.283 30.0561ZM62.3232 44.4417C63.9821 44.4417 65.4249 45.8759 65.5286 47.6471C65.5286 49.306 63.9821 50.8526 62.3232 50.8526C60.6643 50.8526 59.1178 49.306 59.1178 47.6471C59.1178 45.8759 60.6643 44.4417 62.3232 44.4417Z" fill="white"/>
</svg>
