<svg width="85" height="85" viewBox="0 0 85 85" fill="none" xmlns="http://www.w3.org/2000/svg">
<g clip-path="url(#clip0)">
<path d="M46.916 53.54H78.9238C81.3643 53.54 83.3398 55.5156 83.3398 57.9561V78.9238C83.3398 81.3643 81.3643 83.3398 78.9238 83.3398H46.916C44.4756 83.3398 42.5 81.3643 42.5 78.9238V57.9561C42.5 55.5156 44.4756 53.54 46.916 53.54Z" fill="#3498DB"/>
<path d="M78.9238 53.54H46.916C44.4756 53.54 42.5 55.5156 42.5 57.9561V65.2607H83.3398V57.9561C83.3398 55.5156 81.3643 53.54 78.9238 53.54Z" fill="#3498DB"/>
<path d="M62.9197 69.959C61.3923 69.959 60.1638 68.7305 60.1638 67.2031V63.335H65.6755V67.2031C65.6755 68.7139 64.447 69.959 62.9197 69.959Z" fill="#3498DB"/>
<path d="M34.8963 61.1768C34.4647 61.1768 34.033 61.3594 33.7176 61.6582C33.4022 61.9736 33.2361 62.3887 33.2361 62.8369C33.2361 63.2686 33.4188 63.7002 33.7176 64.0156C34.033 64.3311 34.4481 64.4971 34.8963 64.4971C35.3279 64.4971 35.7596 64.3145 36.075 64.0156C36.3904 63.7002 36.5565 63.2852 36.5565 62.8369C36.5565 62.4053 36.3738 61.9736 36.075 61.6582C35.7596 61.3428 35.3279 61.1768 34.8963 61.1768Z" fill="white"/>
<path d="M72.8809 28.6045H67.1533C69.2119 26.5459 70.4902 23.707 70.4902 20.5693V7.35449V1.66016C70.4902 0.74707 69.7432 0 68.8301 0H55.9141C51.4316 0 47.7793 3.65234 47.7793 8.13477V13.5967C47.7793 13.6133 47.7793 13.6133 47.7793 13.6299C47.7793 13.6465 47.7793 13.6465 47.7793 13.6631V20.5693C47.7793 23.707 49.0576 26.5459 51.1162 28.6045H33.2197C35.2783 26.5459 36.5566 23.707 36.5566 20.5693V7.35449V1.66016C36.5566 0.74707 35.8096 0 34.8965 0H21.9805C17.498 0 13.8457 3.65234 13.8457 8.13477V13.5967C13.8457 13.6133 13.8457 13.6133 13.8457 13.6299C13.8457 13.6465 13.8457 13.6465 13.8457 13.6631V20.5693C13.8457 23.707 15.124 26.5459 17.1826 28.6045H13.4307C6.02637 28.6045 0 34.6309 0 42.0352V62.8369C0 63.75 0.74707 64.4971 1.66016 64.4971H27.8906C28.8037 64.4971 29.5508 63.75 29.5508 62.8369C29.5508 61.9238 28.8037 61.1768 27.8906 61.1768H10.8242V50.4521C10.8242 49.5391 10.0771 48.792 9.16406 48.792C8.25098 48.792 7.50391 49.5391 7.50391 50.4521V61.1768H3.32031V42.0352C3.32031 36.457 7.85254 31.9248 13.4307 31.9248H18.0957L23.541 40.0762V49.9707C23.541 50.8838 24.2881 51.6309 25.2012 51.6309C26.1143 51.6309 26.8613 50.8838 26.8613 49.9707V40.126L32.9209 31.9414H38.9307C43.7783 31.9414 47.7295 35.8926 47.7295 40.7402V47.5469C47.7295 48.46 48.4766 49.207 49.3896 49.207C50.3027 49.207 51.0498 48.46 51.0498 47.5469V40.7402C51.0498 37.2705 49.5889 34.1494 47.248 31.9414H51.6807L57.4082 40.5078C57.707 40.9561 58.2051 41.2383 58.7529 41.2383C58.7695 41.2383 58.7861 41.2383 58.7861 41.2383C59.3174 41.2383 59.7988 40.9893 60.1143 40.5742L66.5059 31.9414H72.8809C77.7285 31.9414 81.6797 35.8926 81.6797 40.7402V47.5469C81.6797 48.46 82.4268 49.207 83.3398 49.207C84.2529 49.207 85 48.46 85 47.5469V40.7402C85 34.0332 79.5547 28.6045 72.8809 28.6045ZM17.166 8.13477C17.166 5.47852 19.3242 3.32031 21.9805 3.32031H33.2363V7.35449C33.2363 9.87793 31.1777 11.9365 28.6543 11.9365H17.166V8.13477ZM17.166 20.5693V15.2568H28.6543C30.3643 15.2568 31.9414 14.709 33.2363 13.7793V20.5527C33.2363 24.9854 29.6338 28.5879 25.2012 28.5879C20.7686 28.5879 17.166 25.002 17.166 20.5693ZM25.2676 36.6729L22.0801 31.9248H28.7871L25.2676 36.6729ZM51.0996 8.13477C51.0996 5.47852 53.2578 3.32031 55.9141 3.32031H67.1699V7.35449C67.1699 9.87793 65.1113 11.9365 62.5879 11.9365H51.0996V8.13477ZM51.0996 20.5693V15.2568H62.5879C64.2979 15.2568 65.875 14.709 67.1699 13.7793V20.5527C67.1699 24.9854 63.5674 28.5879 59.1348 28.5879C54.7022 28.5879 51.0996 25.002 51.0996 20.5693ZM58.8691 36.6729L55.6816 31.9082H62.3887L58.8691 36.6729Z" fill="white"/>
<path d="M78.9238 51.8799H71.2041V48.6924C71.2041 46.501 69.4277 44.7246 67.2363 44.7246H58.6035C56.4121 44.7246 54.6357 46.501 54.6357 48.6924V51.8799H46.916C43.5625 51.8799 40.8398 54.6025 40.8398 57.9561V78.9238C40.8398 82.2773 43.5625 85 46.916 85H78.9238C82.2773 85 85 82.2773 85 78.9238V57.9561C85 54.6025 82.2773 51.8799 78.9238 51.8799ZM57.9561 48.6924C57.9561 48.3437 58.2383 48.0449 58.6035 48.0449H67.2363C67.585 48.0449 67.8838 48.3271 67.8838 48.6924V51.8799H57.9561V48.6924ZM46.916 55.2002H56.2959H69.5439H78.9238C80.4346 55.2002 81.6797 56.4287 81.6797 57.9561V63.6006H67.3359V63.335C67.3359 62.4219 66.5889 61.6748 65.6758 61.6748H60.1641C59.251 61.6748 58.5039 62.4219 58.5039 63.335V63.6006H44.1602V57.9561C44.1602 56.4287 45.3887 55.2002 46.916 55.2002ZM64.0156 64.9951V67.2031C64.0156 67.8008 63.5176 68.2988 62.9199 68.2988C62.3223 68.2988 61.8242 67.8008 61.8242 67.2031V64.9951H64.0156ZM78.9238 81.6797H46.916C45.4053 81.6797 44.1602 80.4512 44.1602 78.9238V66.9209H58.5039V67.1865C58.5039 69.627 60.4795 71.6025 62.9199 71.6025C65.3604 71.6025 67.3359 69.627 67.3359 67.1865V66.9209H81.6797V78.9238C81.6797 80.4512 80.4512 81.6797 78.9238 81.6797Z" fill="white"/>
</g>
<defs>
<clipPath id="clip0">
<rect width="85" height="85" fill="white"/>
</clipPath>
</defs>
</svg>
