<?xml version="1.0" encoding="utf-8"?>
<!-- Generator: Adobe Illustrator 22.0.1, SVG Export Plug-In . SVG Version: 6.00 Build 0)  -->
<svg version="1.1" id="Слой_1" xmlns="http://www.w3.org/2000/svg" xmlns:xlink="http://www.w3.org/1999/xlink" x="0px" y="0px"
	 viewBox="0 0 512 279.6" style="enable-background:new 0 0 512 279.6;" xml:space="preserve">
<style type="text/css">
	.st0{display:none;}
	.st1{display:inline;}
	.st2{enable-background:new    ;}
	.st3{fill:#00BAF0;}
	.st4{fill:#FFFFFF;}
	.st5{fill:#2B3238;}
	.st6{opacity:0.4;}
	.st7{opacity:0.6;}
	.st8{opacity:0.8;}
	.st9{fill:#E7F1F7;}
</style>
<g id="logo" class="st0">
	<g class="st1">
		<g class="st2">
			<path class="st3" d="M118,167c-2.8,2-6.6,3.4-11.2,4.3c-4.7,0.9-9.4,1.4-14.3,1.4c-5.8,0-11.3-0.9-16.6-2.6
				c-5.3-1.7-10-4.5-14.1-8.3c-4.1-3.8-7.3-8.7-9.8-14.6c-2.4-5.9-3.6-13.1-3.6-21.6c0-8.8,1.4-16.2,4.1-22.2
				c2.8-6,6.3-10.8,10.6-14.5c4.3-3.7,9.1-6.3,14.3-7.9c5.3-1.6,10.4-2.5,15.5-2.5c5.6,0,10.3,0.3,14.1,1c3.8,0.7,7,1.5,9.5,2.5
				l-3.7,16c-2.2-0.9-4.7-1.6-7.6-2.1c-2.9-0.4-6.5-0.6-10.9-0.6c-3.9,0-7.4,0.6-10.5,1.9c-3.1,1.2-5.8,3.1-8.1,5.6
				c-2.2,2.5-4,5.6-5.2,9.4c-1.2,3.8-1.9,8.2-1.9,13.3c0,4.5,0.6,8.6,1.7,12.3c1.1,3.7,2.8,6.9,5,9.6c2.2,2.7,5.1,4.7,8.5,6.2
				c3.4,1.5,7.5,2.2,12,2.2c4.2,0,7.8-0.4,10.7-1.2c2.9-0.8,5.4-1.8,7.7-3L118,167z"/>
			<path class="st3" d="M183.8,97.2h-34.6v73.7H130V80.4h72.9v90.4h-19.1V97.2z"/>
			<path class="st3" d="M271.1,97.2h-20.8c-0.4,8.2-0.9,15.6-1.4,22.2c-0.5,6.6-1.1,12.5-1.9,17.8c-0.8,5.3-1.9,9.9-3.3,14
				c-1.4,4.1-3.1,7.7-5.2,10.8c-1.4,2-2.9,3.6-4.6,4.9c-1.7,1.3-3.4,2.3-5.2,3c-1.8,0.7-3.6,1.2-5.3,1.5c-1.7,0.3-3.3,0.5-4.8,0.5
				c-2.2,0-4-0.2-5.2-0.5c-1.2-0.3-2.6-0.9-4.1-1.6l2.1-16c0.9,0.3,2.1,0.5,3.4,0.5c1.5,0,2.9-0.3,4.4-1c1.5-0.7,2.8-1.8,3.9-3.4
				c1.4-1.9,2.6-4.6,3.7-8.1c1.1-3.5,2-8.1,2.7-13.8c0.7-5.6,1.3-12.4,1.8-20.2c0.5-7.8,0.8-17,1-27.4h58v90.4h-19.1V97.2z"/>
			<path class="st3" d="M364.5,121l1-11.5h-0.6l-6.6,11.6l-37.1,49.7H307V80.4h19.1v48.7l-1.3,12h0.8l7-12l36.7-48.7h14.3v90.4
				h-19.1V121z"/>
			<path class="st3" d="M470.1,97.2h-28.7v73.7h-19.1V97.2h-28.7V80.4h76.5V97.2z"/>
		</g>
		<rect x="89.2" y="204.3" class="st3" width="83.7" height="2"/>
		<path class="st3" d="M490,41.5H22.2C13.3,41.5,6,48.8,6,57.6v147.8c0,8.9,7.3,16.2,16.2,16.2h150.7v-3.6H22.2
			c-6.9,0-12.6-5.6-12.6-12.6V57.6c0-6.9,5.6-12.6,12.6-12.6H490c6.9,0,12.6,5.6,12.6,12.6v147.8c0,6.9-5.6,12.6-12.6,12.6h-41.9
			v3.6H490c8.9,0,16.2-7.3,16.2-16.2V57.6C506.1,48.8,498.8,41.5,490,41.5z"/>
		<g>
			<rect x="72.4" y="195.8" class="st3" width="100.5" height="2.4"/>
		</g>
		<rect x="448.1" y="235.4" class="st3" width="34.9" height="2"/>
		<g>
			<rect x="448.1" y="228.1" class="st3" width="41.9" height="2.4"/>
		</g>
		<rect x="384.7" y="13.9" class="st4" width="92.1" height="56.2"/>
		<g>
			<path class="st5" d="M217.4,205.4H195v46.4h-12.3v-56.9h47v56.9h-12.3V205.4z"/>
			<path class="st5" d="M240.6,195.3c2.5-0.5,5.3-0.7,8.4-1c3.1-0.2,6.1-0.4,9.2-0.4c3.1,0,6.2,0.2,9.5,0.7c3.1,0.5,6,1.4,8.5,2.8
				c2.5,1.4,4.5,3.3,6.2,5.7c1.6,2.5,2.4,5.7,2.4,9.8c0,3.6-0.7,6.6-2,9.2c-1.4,2.5-3.2,4.5-5.5,6.1c-2.3,1.6-4.9,2.8-7.9,3.5
				s-6,1.1-9.1,1.1c-0.2,0-0.7,0-1.4,0c-0.7,0-1.3,0-2.2,0c-0.7,0-1.4-0.1-2.2-0.1c-0.7,0-1.2-0.1-1.6-0.1v19.1h-12.3L240.6,195.3
				L240.6,195.3z M258.9,204.5c-1.2,0-2.3,0-3.3,0.1c-1.1,0-1.9,0.1-2.6,0.4v16.9c0.2,0,0.6,0.1,1.1,0.1s1.1,0.1,1.6,0.1
				c0.6,0,1.1,0,1.6,0.1c0.5,0,0.8,0,1.1,0c1.6,0,3.2-0.1,4.8-0.4c1.6-0.2,3-0.7,4.3-1.4c1.2-0.7,2.3-1.7,3-2.9
				c0.8-1.2,1.2-2.9,1.2-4.9c0-1.8-0.4-3.1-1.1-4.2c-0.7-1.1-1.7-1.9-2.9-2.5c-1.2-0.6-2.5-1-4.1-1.2
				C262,204.6,260.5,204.5,258.9,204.5z"/>
			<path class="st5" d="M316.6,239.6H297l-4.8,12.1h-12.3l22.9-57.3h9.1l23,57.3h-13L316.6,239.6z M300.4,230.1h13.4l-4.5-11.8l-2-9
				h-0.4l-2,9.1L300.4,230.1z"/>
			<path class="st5" d="M377.3,220.3l0.7-7.3h-0.5l-4.3,7.3l-23.9,31.3H340v-56.9h12.3v30.6l-0.8,7.5h0.5l4.5-7.5l23.7-30.6h9.2
				v56.9h-12.3v-31.3H377.3z"/>
			<path class="st5" d="M443.3,249.3c-1.8,1.2-4.3,2.2-7.3,2.8s-6.1,0.8-9.2,0.8c-3.7,0-7.3-0.6-10.8-1.7c-3.5-1.1-6.5-2.9-9.1-5.3
				c-2.6-2.4-4.8-5.5-6.3-9.2c-1.6-3.7-2.4-8.3-2.4-13.6c0-5.5,0.8-10.2,2.6-14c1.8-3.8,4.1-6.8,6.8-9.1s5.9-3.9,9.2-5
				c3.3-1.1,6.7-1.6,10-1.6c3.6,0,6.7,0.2,9.1,0.6c2.5,0.5,4.5,1,6.1,1.6l-2.4,10c-1.4-0.6-3-1.1-4.9-1.3s-4.2-0.4-7.1-0.4
				c-2.5,0-4.8,0.4-6.8,1.2c-2,0.8-3.7,1.9-5.3,3.6c-1.4,1.6-2.5,3.6-3.3,6c-0.8,2.4-1.2,5.1-1.2,8.4c0,2.9,0.4,5.4,1.1,7.8
				c0.7,2.3,1.8,4.3,3.2,6s3.2,3,5.5,3.9s4.8,1.4,7.8,1.4c2.8,0,5-0.2,6.8-0.7c1.9-0.5,3.5-1.1,4.9-1.9L443.3,249.3z"/>
		</g>
		<g>
			<g>
				<g>
					<g class="st6">
						<polygon class="st3" points="403.1,36.6 403.1,39.3 401.8,37.9 400.2,39.4 403.1,42.3 403.1,48.2 398.2,45.3 397.1,41.2 
							395,41.8 395.4,43.7 393,42.3 392,44.2 394.4,45.5 392.6,46.1 393,48.2 397,47.1 402,50 397,52.9 393,51.9 392.6,53.9 
							394.4,54.5 392,55.8 393,57.7 395.4,56.3 395,58.2 397.1,58.7 398.2,54.7 403.1,51.9 403.1,57.7 400.2,60.6 401.8,62.2 
							403.1,60.7 403.1,63.5 404.2,63.5 404.2,36.6 						"/>
					</g>
					<g class="st7">
						<polygon class="st3" points="415.9,53.9 415.4,51.9 411.5,52.9 406.4,50 411.5,47.1 415.4,48.2 415.9,46.1 414.1,45.5 
							416.5,44.2 415.4,42.3 413,43.7 413.5,41.8 411.3,41.2 410.3,45.3 405.4,48.2 405.4,42.3 408.2,39.4 406.7,37.9 405.4,39.3 
							405.4,36.6 404.2,36.6 404.2,63.5 405.4,63.5 405.4,60.7 406.7,62.2 408.2,60.6 405.4,57.7 405.4,51.9 410.3,54.7 411.3,58.7 
							413.5,58.2 413,56.3 415.4,57.7 416.5,55.8 414.1,54.5 						"/>
					</g>
				</g>
				<g>
					<g class="st8">
						<polygon class="st3" points="448.2,14.3 448.2,19.2 445.8,16.7 442.9,19.4 448.2,24.7 448.2,35.1 439.2,30 437.3,22.8 
							433.5,23.7 434.3,27.1 430.1,24.7 428.1,28.1 432.4,30.6 429.1,31.4 430.1,35.2 437.2,33.3 446.3,38.5 437.2,43.7 430.1,41.8 
							429.1,45.6 432.4,46.5 428.1,49 430.1,52.3 434.3,50 433.5,53.2 437.3,54.3 439.2,47.1 448.2,41.9 448.2,52.3 442.9,57.5 
							445.8,60.4 448.2,57.8 448.2,62.8 450.1,62.8 450.1,14.3 						"/>
					</g>
					<g>
						<polygon class="st3" points="471.3,45.6 470.2,41.8 463.2,43.7 454.1,38.5 463.2,33.3 470.2,35.2 471.3,31.4 467.9,30.6 
							472.1,28.1 470.2,24.7 465.9,27.1 466.9,23.7 463,22.8 461.1,30 452.1,35.1 452.1,24.7 457.3,19.4 454.5,16.7 452.1,19.2 
							452.1,14.3 450.1,14.3 450.1,62.8 452.1,62.8 452.1,57.8 454.5,60.4 457.3,57.5 452.1,52.3 452.1,41.9 461.1,47.1 463,54.3 
							466.9,53.2 465.9,50 470.2,52.3 472.1,49 467.9,46.5 						"/>
					</g>
				</g>
			</g>
		</g>
		<g>
			<path class="st5" d="M360.6,181.7c0.2,1.3,0.7,2.3,1.7,2.8c0.8,0.6,2,0.8,3.5,0.8c3.1,0,4.8-1.2,5.1-3.6l7.8,1.1
				c-0.5,2.8-1.8,4.8-4.1,6c-2.2,1.2-5.1,1.8-9,1.8c-1.9,0-3.6-0.1-5.1-0.4c-1.6-0.2-3-0.6-4.2-1.2c-1.2-0.6-2.2-1.3-2.9-2.3
				c-0.7-1-1.2-2.2-1.4-3.7L360.6,181.7z"/>
		</g>
	</g>
</g>
<g id="logo-white">
	<g class="st2">
		<path class="st3" d="M118,167c-2.8,2-6.6,3.4-11.2,4.3s-9.4,1.4-14.3,1.4c-5.8,0-11.3-0.9-16.6-2.6c-5.3-1.7-10-4.5-14.1-8.3
			c-4.1-3.8-7.3-8.7-9.8-14.6c-2.4-5.9-3.6-13.1-3.6-21.6c0-8.8,1.4-16.2,4.1-22.2c2.8-6,6.3-10.8,10.6-14.5
			c4.3-3.7,9.1-6.3,14.3-7.9c5.3-1.6,10.4-2.5,15.5-2.5c5.6,0,10.3,0.3,14.1,1c3.8,0.7,7,1.5,9.5,2.5l-3.7,16
			c-2.2-0.9-4.7-1.6-7.6-2.1c-2.9-0.4-6.5-0.6-10.9-0.6c-3.9,0-7.4,0.6-10.5,1.9c-3.1,1.2-5.8,3.1-8.1,5.6c-2.2,2.5-4,5.6-5.2,9.4
			c-1.2,3.8-1.9,8.2-1.9,13.3c0,4.5,0.6,8.6,1.7,12.3c1.1,3.7,2.8,6.9,5,9.6c2.2,2.7,5.1,4.7,8.5,6.2c3.4,1.5,7.5,2.2,12,2.2
			c4.2,0,7.8-0.4,10.7-1.2c2.9-0.8,5.4-1.8,7.7-3L118,167z"/>
		<path class="st3" d="M183.8,97.2h-34.6v73.7H130V80.4h72.9v90.4h-19.1V97.2z"/>
		<path class="st3" d="M271.1,97.2h-20.8c-0.4,8.2-0.9,15.6-1.4,22.2c-0.5,6.6-1.1,12.5-1.9,17.8c-0.8,5.3-1.9,9.9-3.3,14
			c-1.4,4.1-3.1,7.7-5.2,10.8c-1.4,2-2.9,3.6-4.6,4.9s-3.4,2.3-5.2,3c-1.8,0.7-3.6,1.2-5.3,1.5c-1.7,0.3-3.3,0.5-4.8,0.5
			c-2.2,0-4-0.2-5.2-0.5c-1.2-0.3-2.6-0.9-4.1-1.6l2.1-16c0.9,0.3,2.1,0.5,3.4,0.5c1.5,0,2.9-0.3,4.4-1c1.5-0.7,2.8-1.8,3.9-3.4
			c1.4-1.9,2.6-4.6,3.7-8.1c1.1-3.5,2-8.1,2.7-13.8c0.7-5.6,1.3-12.4,1.8-20.2c0.5-7.8,0.8-17,1-27.4h58v90.4h-19.1V97.2z"/>
		<path class="st3" d="M364.5,121l1-11.5h-0.6l-6.6,11.6l-37.1,49.7H307V80.4h19.1v48.7l-1.3,12h0.8l7-12l36.7-48.7h14.3v90.4h-19.1
			V121z"/>
		<path class="st3" d="M470.1,97.2h-28.7v73.7h-19.1V97.2h-28.7V80.4h76.5V97.2z"/>
	</g>
	<rect x="89.2" y="204.3" class="st3" width="83.7" height="2"/>
	<g>
		<rect x="72.4" y="195.8" class="st3" width="100.5" height="2.4"/>
	</g>
	<rect x="448.1" y="235.4" class="st3" width="34.9" height="2"/>
	<g>
		<rect x="448.1" y="228.1" class="st3" width="41.9" height="2.4"/>
	</g>
	<g>
		<path class="st3" d="M490,41.5h-13.2V45H490c6.9,0,12.6,5.6,12.6,12.6v147.8c0,6.9-5.6,12.6-12.6,12.6h-41.9v3.6H490
			c8.9,0,16.2-7.3,16.2-16.2V57.6C506.1,48.8,498.8,41.5,490,41.5z"/>
		<path class="st3" d="M9.6,205.4V57.6c0-6.9,5.6-12.6,12.6-12.6h362.5v-3.6H22.2C13.3,41.5,6,48.8,6,57.6v147.8
			c0,8.9,7.3,16.2,16.2,16.2h150.7v-3.6H22.2C15.2,217.9,9.6,212.3,9.6,205.4z"/>
	</g>
	<g>
		<path class="st9" d="M217.4,205.4H195v46.4h-12.3v-56.9h47v56.9h-12.3V205.4z"/>
		<path class="st9" d="M240.6,195.3c2.5-0.5,5.3-0.7,8.4-1c3.1-0.2,6.1-0.4,9.2-0.4c3.1,0,6.2,0.2,9.5,0.7c3.1,0.5,6,1.4,8.5,2.8
			c2.5,1.4,4.5,3.3,6.2,5.7c1.6,2.5,2.4,5.7,2.4,9.8c0,3.6-0.7,6.6-2,9.2c-1.4,2.5-3.2,4.5-5.5,6.1c-2.3,1.6-4.9,2.8-7.9,3.5
			s-6,1.1-9.1,1.1c-0.2,0-0.7,0-1.4,0c-0.7,0-1.3,0-2.2,0c-0.7,0-1.4-0.1-2.2-0.1c-0.7,0-1.2-0.1-1.6-0.1v19.1h-12.3L240.6,195.3
			L240.6,195.3z M258.9,204.5c-1.2,0-2.3,0-3.3,0.1c-1.1,0-1.9,0.1-2.6,0.4v16.9c0.2,0,0.6,0.1,1.1,0.1c0.5,0,1.1,0.1,1.6,0.1
			c0.6,0,1.1,0,1.6,0.1c0.5,0,0.8,0,1.1,0c1.6,0,3.2-0.1,4.8-0.4c1.6-0.2,3-0.7,4.3-1.4c1.2-0.7,2.3-1.7,3-2.9
			c0.7-1.2,1.2-2.9,1.2-4.9c0-1.8-0.4-3.1-1.1-4.2c-0.7-1.1-1.7-1.9-2.9-2.5c-1.2-0.6-2.5-1-4.1-1.2
			C262,204.6,260.5,204.5,258.9,204.5z"/>
		<path class="st9" d="M316.6,239.6H297l-4.8,12.1h-12.3l22.9-57.3h9.1l23,57.3h-13L316.6,239.6z M300.4,230.1h13.4l-4.5-11.8l-2-9
			h-0.4l-2,9.1L300.4,230.1z"/>
		<path class="st9" d="M377.3,220.3l0.7-7.3h-0.5l-4.3,7.3l-23.9,31.3H340v-56.9h12.3v30.6l-0.8,7.5h0.5l4.5-7.5l23.7-30.6h9.2v56.9
			h-12.3v-31.3H377.3z"/>
		<path class="st9" d="M443.3,249.3c-1.8,1.2-4.3,2.2-7.3,2.8s-6.1,0.8-9.2,0.8c-3.7,0-7.3-0.6-10.8-1.7c-3.5-1.1-6.5-2.9-9.1-5.3
			c-2.6-2.4-4.8-5.5-6.3-9.2c-1.6-3.7-2.4-8.3-2.4-13.6c0-5.5,0.8-10.2,2.6-14c1.8-3.8,4.1-6.8,6.8-9.1c2.8-2.3,5.9-3.9,9.2-5
			c3.3-1.1,6.7-1.6,10-1.6c3.6,0,6.7,0.2,9.1,0.6c2.5,0.5,4.5,1,6.1,1.6l-2.4,10c-1.4-0.6-3-1.1-4.9-1.3s-4.2-0.4-7.1-0.4
			c-2.5,0-4.8,0.4-6.8,1.2s-3.7,1.9-5.3,3.6c-1.4,1.6-2.5,3.6-3.3,6c-0.8,2.4-1.2,5.1-1.2,8.4c0,2.9,0.4,5.4,1.1,7.8
			c0.7,2.3,1.8,4.3,3.2,6c1.4,1.7,3.2,3,5.5,3.9c2.3,1,4.8,1.4,7.8,1.4c2.8,0,5-0.2,6.8-0.7c1.9-0.5,3.5-1.1,4.9-1.9L443.3,249.3z"
			/>
	</g>
	<g>
		<g>
			<g>
				<g class="st6">
					<polygon class="st3" points="403.1,36.6 403.1,39.3 401.8,37.9 400.2,39.4 403.1,42.3 403.1,48.2 398.2,45.3 397.1,41.2 
						395,41.8 395.4,43.7 393,42.3 392,44.2 394.4,45.5 392.6,46.1 393,48.2 397,47.1 402,50 397,52.9 393,51.9 392.6,53.9 
						394.4,54.5 392,55.8 393,57.7 395.4,56.3 395,58.2 397.1,58.7 398.2,54.7 403.1,51.9 403.1,57.7 400.2,60.6 401.8,62.2 
						403.1,60.7 403.1,63.5 404.2,63.5 404.2,36.6 					"/>
				</g>
				<g class="st7">
					<polygon class="st3" points="415.9,53.9 415.4,51.9 411.5,52.9 406.4,50 411.5,47.1 415.4,48.2 415.9,46.1 414.1,45.5 
						416.5,44.2 415.4,42.3 413,43.7 413.5,41.8 411.3,41.2 410.3,45.3 405.4,48.2 405.4,42.3 408.2,39.4 406.7,37.9 405.4,39.3 
						405.4,36.6 404.2,36.6 404.2,63.5 405.4,63.5 405.4,60.7 406.7,62.2 408.2,60.6 405.4,57.7 405.4,51.9 410.3,54.7 411.3,58.7 
						413.5,58.2 413,56.3 415.4,57.7 416.5,55.8 414.1,54.5 					"/>
				</g>
			</g>
			<g>
				<g class="st8">
					<polygon class="st3" points="448.2,14.3 448.2,19.2 445.8,16.7 442.9,19.4 448.2,24.7 448.2,35.1 439.2,30 437.3,22.8 
						433.5,23.7 434.3,27.1 430.1,24.7 428.1,28.1 432.4,30.6 429.1,31.4 430.1,35.2 437.2,33.3 446.3,38.5 437.2,43.7 430.1,41.8 
						429.1,45.6 432.4,46.5 428.1,49 430.1,52.3 434.3,50 433.5,53.2 437.3,54.3 439.2,47.1 448.2,41.9 448.2,52.3 442.9,57.5 
						445.8,60.4 448.2,57.8 448.2,62.8 450.1,62.8 450.1,14.3 					"/>
				</g>
				<g>
					<polygon class="st3" points="471.3,45.6 470.2,41.8 463.2,43.7 454.1,38.5 463.2,33.3 470.2,35.2 471.3,31.4 467.9,30.6 
						472.1,28.1 470.2,24.7 465.9,27.1 466.9,23.7 463,22.8 461.1,30 452.1,35.1 452.1,24.7 457.3,19.4 454.5,16.7 452.1,19.2 
						452.1,14.3 450.1,14.3 450.1,62.8 452.1,62.8 452.1,57.8 454.5,60.4 457.3,57.5 452.1,52.3 452.1,41.9 461.1,47.1 463,54.3 
						466.9,53.2 465.9,50 470.2,52.3 472.1,49 467.9,46.5 					"/>
				</g>
			</g>
		</g>
	</g>
	<g>
		<path class="st9" d="M360.6,181.7c0.2,1.3,0.7,2.3,1.7,2.8c0.8,0.6,2,0.8,3.5,0.8c3.1,0,4.8-1.2,5.1-3.6l7.8,1.1
			c-0.5,2.8-1.8,4.8-4.1,6c-2.2,1.2-5.1,1.8-9,1.8c-1.9,0-3.6-0.1-5.1-0.4c-1.6-0.2-3-0.6-4.2-1.2c-1.2-0.6-2.2-1.3-2.9-2.3
			c-0.7-1-1.2-2.2-1.4-3.7L360.6,181.7z"/>
	</g>
</g>
</svg>
