<svg width="31" height="32" viewBox="0 0 31 32" fill="none" xmlns="http://www.w3.org/2000/svg">
<path fill-rule="evenodd" clip-rule="evenodd" d="M15.7987 22.0657C16.4558 22.0657 16.4558 21.16 16.4558 20.7483C16.4558 20.0896 17.1129 19.4309 17.7701 19.4309C18.4272 19.4309 19.4951 20.5013 20.3165 21.3247C20.9736 21.9834 20.9736 21.9834 21.6307 21.9834C22.2879 21.9834 23.52 21.9834 23.52 21.9834C23.52 21.9834 24.8343 21.901 24.8343 20.666C24.8343 20.2543 24.4236 19.5956 22.945 18.1136C21.6307 16.7962 20.9736 17.4549 22.945 14.9025C24.095 13.3381 24.9986 11.9383 24.8343 11.5267C24.67 11.115 21.3843 10.5386 21.0558 11.115C19.7415 13.0087 19.5772 13.5027 19.1665 14.3261C18.5094 15.6435 18.4272 16.2198 17.8522 16.2198C17.2772 16.2198 17.1951 14.9848 17.1951 14.3261C17.1951 12.1854 17.5236 10.7033 16.5379 10.4563C16.5379 10.4563 15.2237 10.4563 14.6487 10.4563C13.5808 10.4563 12.7594 11.115 12.7594 11.115C12.7594 11.115 11.938 11.7737 12.1023 11.7737C12.2666 11.7737 13.4166 11.5267 13.4166 12.4324C13.4166 13.0911 13.4166 13.7497 13.4166 13.7497C13.4166 13.7497 13.4166 16.3022 12.7594 16.3022C12.1023 16.3022 10.8702 13.7497 9.55588 11.7737C8.89874 11.0327 8.73446 11.1973 8.07732 11.1973C7.42019 11.1973 6.76305 11.1973 6.18806 11.1973C5.53092 11.1973 5.44878 11.609 5.53092 11.7737C6.8452 14.9848 7.74876 16.9609 10.1309 19.5133C12.3487 21.8187 13.8273 21.9834 15.0594 21.9834C15.4701 22.0657 15.1415 22.0657 15.7987 22.0657Z" fill="black"/>
<path d="M29.5833 1.42676H1.09729V30.5933H29.5833V1.42676Z" stroke="black" stroke-miterlimit="10"/>
</svg>
