<?xml version="1.0" encoding="utf-8"?>
<!-- Generator: Adobe Illustrator 17.1.0, SVG Export Plug-In . SVG Version: 6.00 Build 0)  -->
<!DOCTYPE svg PUBLIC "-//W3C//DTD SVG 1.1//EN" "http://www.w3.org/Graphics/SVG/1.1/DTD/svg11.dtd">
<svg version="1.1" id="Слой_1" xmlns="http://www.w3.org/2000/svg" xmlns:xlink="http://www.w3.org/1999/xlink" x="0px" y="0px"
	 viewBox="135 0 30 30" enable-background="new 135 0 30 30" xml:space="preserve">
<g>
	<path fill="#FFFFFF" d="M147.5,30H137c-1.1,0-2-0.9-2-2V17.5c0-1.1,0.9-2,2-2h10.5c1.1,0,2,0.9,2,2V28
		C149.4,29.1,148.5,30,147.5,30z M137,16.7c-0.4,0-0.8,0.4-0.8,0.8V28c0,0.4,0.4,0.8,0.8,0.8h10.5c0.4,0,0.8-0.4,0.8-0.8V17.5
		c0-0.4-0.4-0.8-0.8-0.8H137z"/>
	<path fill="#FFFFFF" d="M147.5,14.4H137c-1.1,0-2-0.9-2-2V2c0-1.1,0.9-2,2-2h10.5c1.1,0,2,0.9,2,2v0.5c0,0.3-0.3,0.6-0.6,0.6
		s-0.6-0.3-0.6-0.6V2c0-0.4-0.4-0.8-0.8-0.8H137c-0.4,0-0.8,0.4-0.8,0.8v10.5c0,0.4,0.4,0.8,0.8,0.8h10.5c0.4,0,0.8-0.4,0.8-0.8V7.3
		c0-0.3,0.3-0.6,0.6-0.6s0.6,0.3,0.6,0.6v5.2C149.4,13.5,148.5,14.4,147.5,14.4z"/>
	<path fill="#FFFFFF" d="M148.8,5.4h-0.1h-0.1c0,0-0.1,0-0.1-0.1c0,0-0.1,0-0.1-0.1l-0.1-0.1c0,0,0-0.1-0.1-0.1V4.9V4.8V4.7V4.6
		c0,0,0-0.1,0.1-0.1c0,0,0-0.1,0.1-0.1l0.1-0.1c0,0,0.1,0,0.1-0.1h0.1c0.1,0,0.2,0,0.2,0h0.1c0,0,0.1,0,0.1,0.1c0,0,0.1,0,0.1,0.1
		l0.1,0.1c0,0,0,0.1,0.1,0.1v0.1v0.1v0.1V5c0,0,0,0.1-0.1,0.1c0,0,0,0.1-0.1,0.1l-0.1,0.1c0,0-0.1,0-0.1,0.1S148.9,5.4,148.8,5.4
		C148.9,5.3,148.9,5.4,148.8,5.4z"/>
	<path fill="#FFFFFF" d="M163,30h-10.5c-1.1,0-2-0.9-2-2V17.5c0-1.1,0.9-2,2-2H163c1.1,0,2,0.9,2,2v5.2c0,0.3-0.3,0.6-0.6,0.6
		s-0.6-0.3-0.6-0.6v-5.2c0-0.4-0.4-0.8-0.8-0.8h-10.5c-0.4,0-0.8,0.4-0.8,0.8V28c0,0.4,0.4,0.8,0.8,0.8H163c0.4,0,0.8-0.4,0.8-0.8
		v-0.5c0-0.3,0.3-0.6,0.6-0.6s0.6,0.3,0.6,0.6V28C165,29.1,164.1,30,163,30z"/>
	<path fill="#FFFFFF" d="M164.4,25.8c-0.2,0-0.3-0.1-0.4-0.2l-0.1-0.1c0,0,0-0.1-0.1-0.1v-0.1v-0.1c0-0.2,0.1-0.3,0.2-0.4
		s0.3-0.2,0.5-0.2h0.1c0,0,0.1,0,0.1,0.1c0,0,0.1,0,0.1,0.1c0.1,0.1,0.2,0.3,0.2,0.4v0.1v0.1c0,0,0,0.1-0.1,0.1c0,0,0,0.1-0.1,0.1
		s-0.1,0.1-0.1,0.1s-0.1,0-0.1,0.1h-0.1C164.5,25.8,164.5,25.8,164.4,25.8z"/>
	<path fill="#FFFFFF" d="M163,14.4h-10.5c-1.1,0-2-0.9-2-2V2c0-1.1,0.9-2,2-2H163c1.1,0,2,0.9,2,2v10.5
		C165,13.5,164.1,14.4,163,14.4z M152.5,1.2c-0.4,0-0.8,0.4-0.8,0.8v10.5c0,0.4,0.4,0.8,0.8,0.8H163c0.4,0,0.8-0.4,0.8-0.8V2
		c0-0.4-0.4-0.8-0.8-0.8H152.5z"/>
	<path fill="#FAB303" d="M143.3,11.5H141c-0.3,0-0.6-0.3-0.6-0.6v-2h-2c-0.3,0-0.6-0.3-0.6-0.6V6c0-0.3,0.3-0.6,0.6-0.6h2v-2
		c0-0.3,0.3-0.6,0.6-0.6h2.3c0.3,0,0.6,0.3,0.6,0.6v2h2c0.3,0,0.6,0.3,0.6,0.6v2.3c0,0.3-0.3,0.6-0.6,0.6h-2v2
		C143.9,11.2,143.7,11.5,143.3,11.5z M141.7,10.3h1.1v-2c0-0.3,0.3-0.6,0.6-0.6h2V6.6h-2c-0.3,0-0.6-0.3-0.6-0.6V4h-1.1v2
		c0,0.3-0.3,0.6-0.6,0.6h-2v1.1h2c0.3,0,0.6,0.3,0.6,0.6V10.3z"/>
	<path fill="#FAB303" d="M143.9,26.7c-0.2,0-0.3-0.1-0.4-0.2l-1.4-1.4l-1.4,1.4c-0.2,0.2-0.6,0.2-0.8,0l-1.6-1.6
		c-0.1-0.1-0.2-0.3-0.2-0.4c0-0.2,0.1-0.3,0.2-0.4l1.4-1.4l-1.4-1.4c-0.2-0.2-0.2-0.6,0-0.8l1.6-1.6c0.1-0.1,0.3-0.2,0.4-0.2
		s0.3,0.1,0.4,0.2l1.4,1.4l1.4-1.4c0.1-0.1,0.3-0.2,0.4-0.2c0.2,0,0.3,0.1,0.4,0.2l1.6,1.6c0.2,0.2,0.2,0.6,0,0.8l-1.4,1.4l1.4,1.4
		c0.2,0.2,0.2,0.6,0,0.8l-1.6,1.6C144.2,26.6,144,26.7,143.9,26.7z M142.1,23.7c0.1,0,0.3,0.1,0.4,0.2l1.4,1.4l0.8-0.8l-1.4-1.4
		c-0.2-0.2-0.2-0.6,0-0.8l1.4-1.4l-0.8-0.8l-1.4,1.4c-0.1,0.1-0.3,0.2-0.4,0.2c-0.2,0-0.3-0.1-0.4-0.2l-1.4-1.4l-0.8,0.8l1.4,1.4
		c0.1,0.1,0.2,0.3,0.2,0.4s-0.1,0.3-0.2,0.4l-1.4,1.4l0.8,0.8l1.4-1.4C141.8,23.7,141.9,23.7,142.1,23.7z"/>
	<path fill="#FAB303" d="M161.4,20.1h-7.3c-0.3,0-0.6,0.3-0.6,0.6v4.5c0,0.3,0.3,0.6,0.6,0.6h7.3c0.3,0,0.6-0.3,0.6-0.6v-4.5
		C162,20.4,161.8,20.1,161.4,20.1z M154.7,21.3h6.2v1.1h-6.2V21.3z M160.9,24.6h-6.2v-1.1h6.2V24.6z"/>
	<path fill="#FAB303" d="M161.4,9.2h-7.3c-0.3,0-0.6-0.3-0.6-0.6V6.3c0-0.3,0.3-0.6,0.6-0.6h7.3c0.3,0,0.6,0.3,0.6,0.6v2.3
		C162,8.9,161.8,9.2,161.4,9.2z M154.7,8h6.2V6.9h-6.2V8z"/>
</g>
</svg>
