<?xml version="1.0" encoding="utf-8"?>
<!-- Generator: Adobe Illustrator 17.1.0, SVG Export Plug-In . SVG Version: 6.00 Build 0)  -->
<!DOCTYPE svg PUBLIC "-//W3C//DTD SVG 1.1//EN" "http://www.w3.org/Graphics/SVG/1.1/DTD/svg11.dtd">
<svg version="1.1" id="Capa_1" xmlns="http://www.w3.org/2000/svg" xmlns:xlink="http://www.w3.org/1999/xlink" x="0px" y="0px"
	 viewBox="241 241 30 30" enable-background="new 241 241 30 30" xml:space="preserve">
<g>
	<g>
		<path fill="#FFFFFF" d="M267,245.4c-2.6-2.8-6.1-4.4-9.7-4.4c-3.7,0-7.2,1.6-9.9,4.5c-0.3,0.3-0.3,0.8,0,1.1c0.3,0.3,0.8,0.3,1,0
			c2.3-2.6,5.5-4,8.8-4c6.8,0,12.3,6,12.3,13.4s-5.5,13.4-12.3,13.4c-6.8,0-12.3-6-12.3-13.4v-0.2l1.2,1.3c0.1,0.2,0.3,0.2,0.5,0.2
			s0.4-0.1,0.5-0.2c0.3-0.3,0.3-0.8,0-1.1l-2.5-2.7c-0.3-0.3-0.8-0.3-1,0l-2.5,2.7c-0.3,0.3-0.3,0.8,0,1.1c0.3,0.3,0.8,0.3,1,0
			l1.2-1.3v0.2c0,4,1.4,7.8,4,10.6c2.6,2.8,6.1,4.4,9.7,4.4c3.7,0,7.1-1.6,9.7-4.4s4-6.6,4-10.6C271,252,269.6,248.2,267,245.4z"/>
		<path fill="#FAB303" d="M261.2,250.5l-9.1,9.9c-0.3,0.3-0.3,0.8,0,1.1c0.1,0.2,0.3,0.2,0.5,0.2s0.4-0.1,0.5-0.2l9.1-9.9
			c0.3-0.3,0.3-0.8,0-1.1C261.9,250.2,261.5,250.2,261.2,250.5z"/>
		<path fill="#FAB303" d="M258.8,257.2c-1,1.1-1,3,0,4.1c0.5,0.5,1.2,0.8,1.9,0.8s1.4-0.3,1.9-0.8c1-1.1,1-3,0-4.1
			c-0.5-0.5-1.2-0.8-1.9-0.8S259.3,256.7,258.8,257.2z M261.5,260.2c-0.2,0.2-0.5,0.4-0.8,0.4s-0.6-0.1-0.8-0.4
			c-0.5-0.5-0.5-1.3,0-1.8c0.2-0.2,0.5-0.4,0.8-0.4s0.6,0.1,0.8,0.4C262,258.9,262,259.7,261.5,260.2z"/>
		<path fill="#FAB303" d="M253.8,249.8c-0.7,0-1.4,0.3-1.9,0.8s-0.8,1.3-0.8,2s0.3,1.5,0.8,2s1.2,0.8,1.9,0.8s1.4-0.3,1.9-0.8
			c0.5-0.5,0.8-1.3,0.8-2s-0.3-1.5-0.8-2C255.2,250.1,254.5,249.8,253.8,249.8z M254.7,253.6c-0.2,0.2-0.5,0.4-0.8,0.4
			s-0.6-0.1-0.8-0.4c-0.2-0.2-0.3-0.6-0.3-0.9s0.1-0.7,0.3-0.9c0.2-0.2,0.5-0.4,0.8-0.4s0.6,0.1,0.8,0.4c0.2,0.2,0.3,0.6,0.3,0.9
			C255,253.1,254.9,253.4,254.7,253.6z"/>
	</g>
</g>
</svg>
