<?xml version="1.0" encoding="utf-8"?>
<!-- Generator: Adobe Illustrator 17.1.0, SVG Export Plug-In . SVG Version: 6.00 Build 0)  -->
<!DOCTYPE svg PUBLIC "-//W3C//DTD SVG 1.1//EN" "http://www.w3.org/Graphics/SVG/1.1/DTD/svg11.dtd">
<svg version="1.1" id="Слой_1" xmlns="http://www.w3.org/2000/svg" xmlns:xlink="http://www.w3.org/1999/xlink" x="0px" y="0px"
	 viewBox="272.3 -1.6 18.8 26.6" enable-background="new 272.3 -1.6 18.8 26.6" xml:space="preserve">
<rect x="277.3" y="3.7" width="9" height="7.8"/>
<g>
	<path d="M281.6,24.2l7.1-10.2c2.7-3.5,2.3-9.3-0.8-12.5c-1.7-1.7-3.9-2.6-6.3-2.6c-2.4,0-4.6,0.9-6.3,2.6c-3.1,3.1-3.5,9-0.8,12.5
		L281.6,24.2z M281.7,4.4c1.8,0,3.2,1.5,3.2,3.2s-1.5,3.2-3.2,3.2c-1.8,0-3.2-1.5-3.2-3.2S280,4.4,281.7,4.4z"/>
</g>
<g>
	<ellipse fill="none" stroke="#FFFFFF" stroke-width="0.5" cx="280.2" cy="9.1" rx="3.5" ry="3.4"/>
	<polyline fill="none" stroke="#FFFFFF" stroke-width="0.5" points="282.5,6.1 282.5,5.7 283.7,5.7 283.7,12.4 282.5,12.4 282.5,12 
			"/>
	<line fill="none" stroke="#FFFFFF" stroke-width="0.5" x1="282.5" y1="7.1" x2="282.5" y2="11"/>
	<line fill="none" stroke="#FFFFFF" stroke-width="0.5" x1="285.9" y1="5.7" x2="283.7" y2="9.8"/>
	<line fill="none" stroke="#FFFFFF" stroke-width="0.5" x1="286.8" y1="12.4" x2="284.1" y2="9.1"/>
</g>
</svg>
