<svg height="512pt" viewBox="-55 0 512 512" width="512pt" xmlns="http://www.w3.org/2000/svg"><path d="m318.488281 488.507812c-4.269531 0-7.726562-3.460937-7.726562-7.726562v-99.902344c0-4.265625 3.460937-7.726562 7.726562-7.726562s7.726563 3.460937 7.726563 7.726562v99.902344c0 4.265625-3.460938 7.726562-7.726563 7.726562zm0 0" fill="#def4f8"/><path d="m174.878906 62.4375v117.253906c0 17.25 5.359375 34.074219 15.332032 48.148438l23.777343 33.539062c12.46875 17.589844 19.167969 38.621094 19.167969 60.183594v169.625c0 11.496094-9.320312 20.8125-20.8125 20.8125h-137.367188c-11.496093 0-20.8125-9.316406-20.8125-20.8125v-169.625c0-21.5625 6.695313-42.59375 19.167969-60.183594l23.777344-33.539062c9.972656-14.074219 15.332031-30.898438 15.332031-48.148438v-117.253906zm0 0" fill="#82cd64"/><path d="m213.988281 261.378906-23.777343-33.539062c-9.976563-14.074219-15.332032-30.898438-15.332032-48.148438v-117.253906h-17.691406v123.5c0 17.25 5.355469 34.074219 15.332031 48.144531l23.777344 33.542969c12.46875 17.589844 19.167969 38.617188 19.167969 60.179688v163.382812c0 11.496094-9.320313 20.8125-20.8125 20.8125h17.6875c11.496094 0 20.816406-9.316406 20.816406-20.8125v-169.625c0-21.5625-6.699219-42.59375-19.167969-60.183594zm0 0" fill="#5db33a"/><path d="m54.164062 333.007812h178.992188v124.878907h-178.992188zm0 0" fill="#828282"/><path d="m215.464844 333.007812h17.691406v124.878907h-17.691406zm0 0" fill="#5a5a5a"/><path d="m151.382812 201.457031 23.496094-26.628906v-112.390625h-62.441406v112.390625l23.496094 26.628906c4.101562 4.648438 11.347656 4.648438 15.449218 0zm0 0" fill="#ffe046"/><path d="m157.210938 194.851562 17.667968-20.023437v-112.390625h-17.691406v131.125c0 .429688.019531.859375.023438 1.289062zm0 0" fill="#ffd508"/><path d="m174.878906 62.4375h-62.4375c-5.75 0-10.410156-4.65625-10.410156-10.40625v-10.40625c0-5.746094 4.660156-10.40625 10.410156-10.40625h62.4375c5.746094 0 10.40625 4.660156 10.40625 10.40625v10.40625c0 5.75-4.660156 10.40625-10.40625 10.40625zm0 0" fill="#82cd64"/><path d="m174.878906 31.21875h-16.648437c5.746093 0 10.40625 4.660156 10.40625 10.410156v10.40625c0 5.746094-4.660157 10.40625-10.40625 10.40625h16.648437c5.746094 0 10.40625-4.660156 10.40625-10.40625v-10.410156c0-5.746094-4.660156-10.40625-10.40625-10.40625zm0 0" fill="#5db33a"/><path d="m174.878906 31.21875h-62.4375v-20.8125c0-5.746094 4.65625-10.40625 10.402344-10.40625h41.628906c5.746094 0 10.40625 4.660156 10.40625 10.40625zm0 0" fill="#c47e4e"/><path d="m164.472656 0h-14.570312c5.746094 0 10.40625 4.660156 10.40625 10.40625v20.8125h14.570312v-20.8125c0-5.746094-4.660156-10.40625-10.40625-10.40625zm0 0" fill="#b56d3c"/><path d="m179.039062 395.445312c0 19.542969-15.839843 35.382813-35.378906 35.382813-19.542968 0-35.382812-15.839844-35.382812-35.382813 0-19.539062 15.839844-35.378906 35.382812-35.378906 19.539063 0 35.378906 15.839844 35.378906 35.378906zm0 0" fill="#ffe046"/><path d="m337.21875 380.878906h-37.460938c-18.394531 0-33.300781-14.910156-33.300781-33.300781v-162.445313c0-5.691406 4.609375-10.304687 10.300781-10.304687h83.460938c5.691406 0 10.300781 4.613281 10.300781 10.304687v162.445313c0 18.390625-14.90625 33.300781-33.300781 33.300781zm0 0" fill="#def4f8"/><path d="m349.707031 174.828125v172.75c0 18.390625-14.910156 33.300781-33.300781 33.300781h20.8125c18.394531 0 33.300781-14.910156 33.300781-33.300781v-162.445313c0-5.691406-4.609375-10.304687-10.300781-10.304687zm0 0" fill="#bce8f1"/><path d="m266.457031 237.269531v110.308594c0 18.390625 14.90625 33.300781 33.300781 33.300781h37.460938c18.394531 0 33.300781-14.910156 33.300781-33.300781v-110.308594zm0 0" fill="#ffe046"/><path d="m349.707031 347.578125c0 18.390625-14.910156 33.300781-33.300781 33.300781h20.8125c18.394531 0 33.300781-14.910156 33.300781-33.300781v-110.308594h-20.8125zm0 0" fill="#ffd508"/><path d="m364.804688 512h-92.632813c-2.8125 0-4.796875-2.757812-3.910156-5.425781l3.855469-11.5625c2.835937-8.5 10.789062-14.230469 19.746093-14.230469h53.25c8.960938 0 16.914063 5.734375 19.746094 14.230469l3.855469 11.5625c.886718 2.667969-1.097656 5.425781-3.910156 5.425781zm0 0" fill="#def4f8"/><path d="m364.859375 495.011719c-2.835937-8.5-10.789063-14.230469-19.746094-14.230469h-22.894531c8.957031 0 16.910156 5.730469 19.746094 14.230469l5.660156 16.988281h17.179688c2.8125 0 4.796874-2.757812 3.90625-5.425781zm0 0" fill="#bce8f1"/><path d="m284.457031 84.582031c-6.285156-9.421875-21.511719-35.058593-14.46875-53.007812 3.171875-8.089844 12.269531-11.726563 20.359375-8.5625 6.640625 2.597656 11.410156 7.738281 13.417969 14.398437.394531 1.308594 1.933594 1.867188 3.074219 1.121094 5.824218-3.8125 12.78125-4.683594 19.535156-2.40625 8.234375 2.773438 12.863281 11.410156 10.09375 19.644531-6.140625 18.277344-34.285156 28.128907-45.15625 31.304688-2.585938.757812-5.359375-.25-6.855469-2.492188zm0 0" fill="#f76c57"/><path d="m326.941406 36.324219c-1.027344-.375-2.058594-.671875-3.09375-.898438-.351562 2.132813-.894531 4.261719-1.660156 6.363281-6.683594 18.363282-26.988281 27.832032-45.351562 21.148438-1.671876-.609375-3.265626-1.332031-4.785157-2.15625 3.710938 10.023438 9.207031 18.996094 12.402344 23.789062 1.496094 2.246094 4.269531 3.265626 6.859375 2.507813 10.820312-3.164063 38.738281-12.933594 45.066406-31.03125 2.816406-8.0625-1.414062-16.804687-9.4375-19.722656zm0 0" fill="#e5554e"/><path d="m45.96875 184.078125c-10.863281-3.171875-39.027344-13.023437-45.171875-31.304687-2.757813-8.214844 1.882813-16.878907 10.097656-19.648438 6.757813-2.277344 13.710938-1.40625 19.535157 2.40625 1.140624.746094 2.679687.1875 3.074218-1.117188 2.007813-6.664062 6.777344-11.804687 13.417969-14.402343 8.070313-3.15625 17.195313.496093 20.359375 8.5625 7.046875 17.953125-8.195312 43.601562-14.476562 53.015625-1.492188 2.238281-4.257813 3.242187-6.835938 2.488281zm0 0" fill="#f76c57"/><path d="m47.484375 119.800781c-1.027344.375-2.011719.808594-2.949219 1.300781 1.097656 1.859376 2.050782 3.839844 2.820313 5.945313 6.679687 18.359375-2.785157 38.664063-21.148438 45.347656-1.671875.609375-3.359375 1.082031-5.054687 1.425781 9.289062 5.289063 19.265625 8.632813 24.792968 10.25 2.589844.757813 5.371094-.246093 6.867188-2.488281 6.253906-9.378906 21.359375-34.804687 14.574219-52.738281-3.023438-7.984375-11.882813-11.964844-19.902344-9.042969zm0 0" fill="#e5554e"/><g fill="#ffe046"><path d="m374.683594 116.992188c-4.269532 0-7.726563-3.457032-7.726563-7.722657v-6.246093c0-4.265626 3.460938-7.726563 7.726563-7.726563s7.726562 3.460937 7.726562 7.726563v6.246093c0 4.265625-3.457031 7.722657-7.726562 7.722657zm0 0"/><path d="m393.414062 129.480469h-6.242187c-4.269531 0-7.726563-3.457031-7.726563-7.722657 0-4.269531 3.457032-7.726562 7.726563-7.726562h6.242187c4.269532 0 7.726563 3.457031 7.726563 7.726562 0 4.265626-3.457031 7.722657-7.726563 7.722657zm0 0"/><path d="m374.683594 148.214844c-4.269532 0-7.726563-3.460938-7.726563-7.726563v-6.246093c0-4.265626 3.460938-7.722657 7.726563-7.722657s7.726562 3.457031 7.726562 7.722657v6.246093c0 4.265625-3.457031 7.726563-7.726562 7.726563zm0 0"/><path d="m362.195312 129.480469h-6.242187c-4.269531 0-7.726563-3.457031-7.726563-7.722657 0-4.269531 3.457032-7.726562 7.726563-7.726562h6.242187c4.269532 0 7.726563 3.457031 7.726563 7.726562 0 4.265626-3.457031 7.722657-7.726563 7.722657zm0 0"/><path d="m222.746094 147.175781c-4.265625 0-7.722656-3.460937-7.722656-7.726562v-6.246094c0-4.265625 3.457031-7.726563 7.722656-7.726563 4.269531 0 7.726562 3.460938 7.726562 7.726563v6.246094c0 4.265625-3.457031 7.726562-7.726562 7.726562zm0 0"/><path d="m241.480469 159.660156h-6.242188c-4.269531 0-7.726562-3.457031-7.726562-7.726562 0-4.265625 3.457031-7.722656 7.726562-7.722656h6.242188c4.265625 0 7.726562 3.457031 7.726562 7.722656 0 4.269531-3.460937 7.726562-7.726562 7.726562zm0 0"/><path d="m222.746094 178.394531c-4.265625 0-7.722656-3.460937-7.722656-7.726562v-6.246094c0-4.265625 3.457031-7.726563 7.722656-7.726563 4.269531 0 7.726562 3.460938 7.726562 7.726563v6.246094c0 4.265625-3.457031 7.726562-7.726562 7.726562zm0 0"/><path d="m210.261719 159.660156h-6.246094c-4.265625 0-7.726563-3.457031-7.726563-7.726562 0-4.265625 3.460938-7.722656 7.726563-7.722656h6.246094c4.265625 0 7.726562 3.457031 7.726562 7.722656 0 4.269531-3.460937 7.726562-7.726562 7.726562zm0 0"/></g></svg>