<svg width="114" height="48" viewBox="0 0 114 48" fill="none" xmlns="http://www.w3.org/2000/svg">
<g clip-path="url(#clip0)">
<path d="M34.8746 12.399H4.40215C3.26494 12.399 2.1743 11.9496 1.37017 11.1497C0.566044 10.3497 0.114288 9.26482 0.114288 8.13357C0.114288 7.00231 0.566044 5.91739 1.37017 5.11747C2.1743 4.31755 3.26494 3.86816 4.40215 3.86816H34.8746C36.0118 3.86816 37.1024 4.31755 37.9065 5.11747C38.7107 5.91739 39.1624 7.00231 39.1624 8.13357C39.1624 9.26482 38.7107 10.3497 37.9065 11.1497C37.1024 11.9496 36.0118 12.399 34.8746 12.399Z" fill="#C251C0"/>
<path d="M34.8746 28.833H13.8926C12.7554 28.833 11.6648 28.3837 10.8607 27.5837C10.0565 26.7838 9.60477 25.6989 9.60477 24.5676C9.60477 23.4364 10.0565 22.3515 10.8607 21.5516C11.6648 20.7516 12.7554 20.3022 13.8926 20.3022H34.8746C36.0118 20.3022 37.1024 20.7516 37.9066 21.5516C38.7107 22.3515 39.1624 23.4364 39.1624 24.5676C39.1624 25.6989 38.7107 26.7838 37.9066 27.5837C37.1024 28.3837 36.0118 28.833 34.8746 28.833Z" fill="#C251C0"/>
<path d="M34.8746 45.7813H24.6409C23.5037 45.7813 22.4131 45.3319 21.6089 44.532C20.8048 43.7321 20.3531 42.6471 20.3531 41.5159C20.3531 40.3846 20.8048 39.2997 21.6089 38.4998C22.4131 37.6999 23.5037 37.2505 24.6409 37.2505H34.8746C36.0118 37.2505 37.1025 37.6999 37.9066 38.4998C38.7107 39.2997 39.1625 40.3846 39.1625 41.5159C39.1625 42.6471 38.7107 43.7321 37.9066 44.532C37.1025 45.3319 36.0118 45.7813 34.8746 45.7813Z" fill="#C251C0"/>
<path d="M105.253 0H55.2277C52.9533 0 50.772 0.898779 49.1637 2.49862C47.5555 4.09845 46.652 6.2683 46.652 8.53081V39.2986C46.652 41.5611 47.5555 43.7309 49.1637 45.3308C50.772 46.9306 52.9533 47.8294 55.2277 47.8294H105.253C107.527 47.8294 109.708 46.9306 111.317 45.3308C112.925 43.7309 113.829 41.5611 113.829 39.2986V8.75829C113.859 7.63791 113.667 6.52254 113.264 5.47593C112.861 4.42932 112.255 3.47197 111.479 2.65861C110.704 1.84524 109.775 1.1918 108.746 0.735626C107.717 0.279449 106.608 0.0294788 105.481 0L105.253 0ZM102.909 36.8531C102.492 37.2976 101.918 37.5629 101.308 37.5924C101.044 37.5962 100.781 37.5479 100.536 37.4503C100.291 37.3526 100.067 37.2077 99.8787 37.0237L87.8726 26.3886L81.4694 32.0758C81.0907 32.4081 80.6023 32.5903 80.0973 32.5877C79.5745 32.5937 79.067 32.412 78.668 32.0758L72.322 26.7299L60.4875 37.0237C60.2988 37.2077 60.0753 37.3526 59.83 37.4503C59.5847 37.5479 59.3224 37.5962 59.0582 37.5924C58.4481 37.5629 57.8738 37.2976 57.4574 36.8531C57.0757 36.4431 56.8636 35.9048 56.8636 35.346C56.8636 34.7871 57.0757 34.2489 57.4574 33.8389L68.8917 23.7156L57.4574 14.1043C57.2534 13.9033 57.0915 13.6642 56.981 13.4006C56.8705 13.137 56.8136 12.8543 56.8136 12.5687C56.8136 12.2832 56.8705 12.0004 56.981 11.7369C57.0915 11.4733 57.2534 11.2341 57.4574 11.0332C57.8303 10.7606 58.281 10.6136 58.7438 10.6136C59.2065 10.6136 59.6572 10.7606 60.0301 11.0332L80.0401 27.4123L99.5356 10.8626C99.7755 10.6394 100.063 10.4733 100.377 10.3767C100.691 10.2801 101.022 10.2555 101.347 10.3048C101.672 10.354 101.981 10.4759 102.251 10.6611C102.522 10.8464 102.747 11.0903 102.909 11.3744C103.268 11.8139 103.439 12.376 103.385 12.9396C103.332 13.5033 103.058 14.0236 102.623 14.3886L91.4744 23.6019L102.909 34.1232C103.215 34.5131 103.381 34.9935 103.381 35.4882C103.381 35.9828 103.215 36.4632 102.909 36.8531Z" fill="#C251C0"/>
</g>
<defs>
<clipPath id="clip0">
<rect width="114" height="48" fill="white"/>
</clipPath>
</defs>
</svg>
