<?xml version="1.0" encoding="utf-8"?>
<!-- Generator: Adobe Illustrator 24.0.1, SVG Export Plug-In . SVG Version: 6.00 Build 0)  -->
<svg version="1.1" id="Слой_1" xmlns="http://www.w3.org/2000/svg" xmlns:xlink="http://www.w3.org/1999/xlink" x="0px" y="0px"
	 viewBox="0 0 200 145" style="enable-background:new 0 0 200 145;" xml:space="preserve">
<style type="text/css">
	.st0{fill-rule:evenodd;clip-rule:evenodd;fill:#8E9292;}
</style>
<path id="instagram" class="st0" d="M99.8,15.9c18.5,0,20.7,0.1,28,0.4c6.8,0.3,10.4,1.4,12.9,2.4c3,1.1,5.7,2.9,8,5.2
	c2.3,2.2,4.1,5,5.2,8c0.9,2.4,2.1,6.1,2.4,12.9c0.3,7.3,0.4,9.5,0.4,28s-0.1,20.7-0.4,28c-0.3,6.8-1.4,10.4-2.4,12.9
	c-2.3,6-7.1,10.8-13.1,13.1c-2.4,0.9-6.1,2.1-12.9,2.4c-7.3,0.3-9.5,0.4-28,0.4s-20.7-0.1-28-0.4c-6.8-0.3-10.4-1.4-12.9-2.4
	c-6-2.3-10.8-7.1-13.1-13.1c-0.9-2.4-2.1-6.1-2.4-12.9c-0.3-7.3-0.4-9.5-0.4-28s0.1-20.7,0.4-28c0.3-6.8,1.4-10.4,2.4-12.9
	c1.1-3,2.9-5.7,5.2-8c2.2-2.3,5-4.1,8-5.2c2.4-0.9,6.1-2.1,12.9-2.4C79.1,16,81.3,15.9,99.8,15.9 M99.8,3.5
	c-18.8,0-21.2,0.1-28.6,0.4C65.4,4,59.8,5.1,54.4,7.1c-4.6,1.7-8.8,4.5-12.3,8c-3.5,3.5-6.3,7.6-8,12.3c-2,5.4-3.1,11.1-3.2,16.8
	c-0.3,7.4-0.4,9.7-0.4,28.6s0.1,21.2,0.4,28.6c0.1,5.7,1.2,11.4,3.2,16.8c3.6,9.3,11,16.7,20.3,20.3c5.4,2,11.1,3.1,16.8,3.2
	c7.4,0.3,9.7,0.4,28.6,0.4s21.2-0.1,28.6-0.4c5.7-0.1,11.4-1.2,16.8-3.2c9.3-3.6,16.7-11,20.3-20.3c2-5.4,3.1-11.1,3.2-16.8
	c0.3-7.4,0.4-9.7,0.4-28.6s-0.1-21.2-0.4-28.6c-0.1-5.7-1.2-11.4-3.2-16.8c-1.7-4.6-4.5-8.8-8-12.3c-3.5-3.5-7.6-6.3-12.3-8
	c-5.4-2-11.1-3.1-16.8-3.2C120.9,3.5,118.6,3.5,99.8,3.5L99.8,3.5L99.8,3.5z M99.8,37.2c-19.6,0-35.6,15.9-35.6,35.6
	s15.9,35.6,35.6,35.6c19.6,0,35.6-15.9,35.6-35.6C135.3,53.1,119.4,37.1,99.8,37.2C99.8,37.1,99.8,37.1,99.8,37.2L99.8,37.2z
	 M99.8,95.8c-12.8,0-23.1-10.3-23.1-23.1C76.7,60,87,49.6,99.8,49.6c12.7,0,23.1,10.3,23.1,23.1C122.8,85.5,112.5,95.8,99.8,95.8
	L99.8,95.8z M145,35.7c0,4.6-3.7,8.3-8.3,8.3s-8.3-3.7-8.3-8.3c0-4.6,3.7-8.3,8.3-8.3c0,0,0,0,0,0C141.3,27.4,145,31.2,145,35.7
	L145,35.7z"/>
</svg>
