<?xml version="1.0" encoding="utf-8"?>
<!-- Generator: Adobe Illustrator 24.0.1, SVG Export Plug-In . SVG Version: 6.00 Build 0)  -->
<svg version="1.1" id="Слой_1" xmlns="http://www.w3.org/2000/svg" xmlns:xlink="http://www.w3.org/1999/xlink" x="0px" y="0px"
	 viewBox="0 0 200 145" style="enable-background:new 0 0 200 145;" xml:space="preserve">
<style type="text/css">
	.st0{fill-rule:evenodd;clip-rule:evenodd;fill:#8E9292;}
</style>
<path id="ok" class="st0" d="M99.8,75c20.3,0,36.8-16.5,36.8-36.8S120.1,1.4,99.7,1.4C79.4,1.4,63,17.9,63,38.2
	C63,58.5,79.5,75,99.8,75z M99.8,23c8.4,0,15.2,6.8,15.2,15.2s-6.8,15.2-15.2,15.2c-8.4,0-15.2-6.8-15.2-15.2
	C84.5,29.8,91.4,23,99.8,23z M114.7,105c7.6-1.7,14.8-4.7,21.4-8.8c5-3.2,6.5-9.9,3.3-14.9c-3.2-5-9.8-6.5-14.8-3.4
	c-15.2,9.5-34.4,9.5-49.5,0c-5-3.2-11.7-1.7-14.9,3.4c-3.2,5-1.7,11.7,3.4,14.9c6.6,4.1,13.8,7.1,21.4,8.8l-20.6,20.6
	c-4.2,4.2-4.2,11,0,15.2c4.2,4.2,11,4.2,15.2,0l0,0l20.2-20.2l20.2,20.2c4.3,4.1,11.1,4,15.2-0.2c4-4.2,4-10.8,0-15L114.7,105z"/>
</svg>
