<?xml version="1.0" encoding="utf-8"?>
<!-- Generator: Adobe Illustrator 24.0.1, SVG Export Plug-In . SVG Version: 6.00 Build 0)  -->
<svg version="1.1" id="Слой_1" xmlns="http://www.w3.org/2000/svg" xmlns:xlink="http://www.w3.org/1999/xlink" x="0px" y="0px"
	 viewBox="0 0 30 29" style="enable-background:new 0 0 30 29;" xml:space="preserve">
<style type="text/css">
	.st0{fill-rule:evenodd;clip-rule:evenodd;fill:#C251C0;}
</style>
<path class="st0" d="M29.5,7.9c-0.2-0.7-0.6-1.4-1.2-1.9S27,5.2,26.2,5.1C22.5,4.7,18.8,4.7,15,4.7c-3.7,0-7.5,0-11.2,0.4
	C3,5.2,2.3,5.5,1.7,6c-0.6,0.5-1,1.2-1.2,1.9C0,10.1,0,12.5,0,14.7c0,2.2,0,4.6,0.5,6.8c0.2,0.7,0.6,1.4,1.2,1.9
	c0.6,0.5,1.3,0.8,2.1,0.9c3.7,0.4,7.5,0.4,11.2,0.4c3.7,0,7.5,0,11.2-0.4c0.8-0.1,1.5-0.4,2.1-0.9c0.6-0.5,1-1.2,1.2-1.9
	C30,19.3,30,17,30,14.7C30,12.5,30,10.1,29.5,7.9z M11.9,18.6v-8l7.9,4L11.9,18.6z"/>
</svg>
