<?xml version="1.0" encoding="utf-8"?>
<!-- Generator: Adobe Illustrator 24.0.1, SVG Export Plug-In . SVG Version: 6.00 Build 0)  -->
<svg version="1.1" id="Слой_1" xmlns="http://www.w3.org/2000/svg" xmlns:xlink="http://www.w3.org/1999/xlink" x="0px" y="0px"
	 viewBox="0 0 200 145" style="enable-background:new 0 0 200 145;" xml:space="preserve">
<style type="text/css">
	.st0{fill-rule:evenodd;clip-rule:evenodd;fill:#8E9292;}
</style>
<path id="youtube_alt" class="st0" d="M194.9,26.1C192.6,15.8,184.1,8,173.6,6.8C149.2,4,124.4,4,99.8,4C75.1,4,50.4,4,26,6.8
	c-10.5,1.3-19,9-21.3,19.4C1.2,41.1,1.2,57.3,1.2,72.7s0,31.7,3.4,46.6c2.3,10.3,10.8,18.1,21.3,19.4c24.4,2.7,49.2,2.7,73.8,2.7
	c24.6,0,49.4,0,73.8-2.7c10.5-1.3,19-9,21.3-19.4c3.4-14.9,3.5-31.2,3.5-46.6S198.3,41.1,194.9,26.1z M79.1,99.6V44.9l52.1,27.3
	L79.1,99.6z"/>
</svg>
