<svg xmlns="http://www.w3.org/2000/svg" width="200" height="145" viewBox="0 0 200 145">
  <defs>
    <style>
      .cls-1 {
        fill: #8e9292;
        fill-rule: evenodd;
      }
    </style>
  </defs>
  <path id="youtube_alt" class="cls-1" d="M195.29,26.466A24.905,24.905,0,0,0,173.981,7.1C149.536,4.369,124.8,4.357,100.163,4.369c-24.636-.012-49.381,0-73.824,2.729a24.893,24.893,0,0,0-21.3,19.367C1.6,41.4,1.563,57.689,1.563,73.062s0,31.665,3.43,46.6A24.9,24.9,0,0,0,26.3,139.026c24.442,2.728,49.187,2.743,73.821,2.728,24.633,0.015,49.376,0,73.819-2.73a24.9,24.9,0,0,0,21.31-19.365c3.432-14.932,3.454-31.225,3.454-46.6S198.721,41.4,195.29,26.466ZM79.457,99.933V45.278L131.576,72.6Z"/>
</svg>
