<svg xmlns="http://www.w3.org/2000/svg" width="200" height="145" viewBox="0 0 200 145">
  <defs>
    <style>
      .cls-1 {
        fill: #8e9292;
        fill-rule: evenodd;
      }
    </style>
  </defs>
  <path id="ok" class="cls-1" d="M102.841,72.482A50.7,50.7,0,1,0,52.149,123.2,50.751,50.751,0,0,0,102.841,72.482Zm-71.688,0a20.992,20.992,0,1,1,21,21A21.018,21.018,0,0,1,31.153,72.482ZM144.206,51.965a95,95,0,0,0-12.195-29.45,14.862,14.862,0,0,0-25.157,15.831,64.4,64.4,0,0,1,0,68.28,14.861,14.861,0,0,0,25.157,15.829,95.13,95.13,0,0,0,12.195-29.448l28.349,28.352a14.859,14.859,0,0,0,21.008-21.021L165.705,72.488l27.858-27.873a14.854,14.854,0,0,0-21.008-21Z"/>
</svg>
