<svg xmlns="http://www.w3.org/2000/svg" width="200" height="145" viewBox="0 0 200 145">
  <defs>
    <style>
      .cls-1 {
        fill: #8e9292;
        fill-rule: evenodd;
      }
    </style>
  </defs>
  <path id="instagram" class="cls-1" d="M100,15.713c18.5,0,20.688.071,27.993,0.4,6.754,0.308,10.422,1.436,12.863,2.385a21.467,21.467,0,0,1,7.965,5.181A21.467,21.467,0,0,1,154,31.647c0.949,2.441,2.077,6.108,2.385,12.861,0.334,7.3.4,9.495,0.4,27.989s-0.07,20.685-.4,27.989c-0.308,6.753-1.436,10.421-2.385,12.861a22.944,22.944,0,0,1-13.147,13.146c-2.441.948-6.109,2.077-12.863,2.385-7.3.333-9.495,0.4-27.993,0.4s-20.689-.071-27.992-0.4c-6.754-.308-10.422-1.437-12.863-2.385A22.944,22.944,0,0,1,46,113.348c-0.949-2.44-2.077-6.108-2.385-12.861-0.333-7.3-.4-9.495-0.4-27.989s0.071-20.685.4-27.989C43.92,37.756,45.049,34.088,46,31.647a21.46,21.46,0,0,1,5.182-7.964A21.463,21.463,0,0,1,59.145,18.5c2.441-.949,6.109-2.077,12.863-2.385,7.3-.333,9.5-0.4,27.992-0.4m0-12.48c-18.813,0-21.172.08-28.561,0.417a50.855,50.855,0,0,0-16.816,3.22,33.958,33.958,0,0,0-12.27,7.989,33.953,33.953,0,0,0-7.99,12.268,50.833,50.833,0,0,0-3.22,16.813c-0.337,7.388-.417,9.746-0.417,28.558s0.08,21.17.417,28.558a50.833,50.833,0,0,0,3.22,16.813,35.421,35.421,0,0,0,20.26,20.257,50.823,50.823,0,0,0,16.816,3.22c7.389,0.337,9.748.417,28.561,0.417s21.173-.08,28.562-0.417a50.818,50.818,0,0,0,16.815-3.22,35.419,35.419,0,0,0,20.26-20.257,50.81,50.81,0,0,0,3.22-16.813c0.337-7.388.417-9.747,0.417-28.558s-0.08-21.17-.417-28.558a50.81,50.81,0,0,0-3.22-16.813,33.951,33.951,0,0,0-7.99-12.268,33.95,33.95,0,0,0-12.27-7.989,50.85,50.85,0,0,0-16.815-3.22c-7.389-.337-9.748-0.417-28.562-0.417h0Zm0,33.7A35.568,35.568,0,1,0,135.573,72.5,35.571,35.571,0,0,0,100,36.929Zm0,58.657A23.088,23.088,0,1,1,123.092,72.5,23.09,23.09,0,0,1,100,95.586Zm45.292-60.062a8.313,8.313,0,1,1-8.313-8.312A8.312,8.312,0,0,1,145.292,35.524Z"/>
</svg>
