<?xml version="1.0" encoding="utf-8"?>
<!-- Generator: Adobe Illustrator 17.1.0, SVG Export Plug-In . SVG Version: 6.00 Build 0)  -->
<!DOCTYPE svg PUBLIC "-//W3C//DTD SVG 1.1//EN" "http://www.w3.org/Graphics/SVG/1.1/DTD/svg11.dtd">
<svg version="1.1" id="Слой_1" xmlns="http://www.w3.org/2000/svg" xmlns:xlink="http://www.w3.org/1999/xlink" x="0px" y="0px"
	 viewBox="241 241 30 30" enable-background="new 241 241 30 30" xml:space="preserve">
<path fill="#3DAFC4" d="M241.2,263.6c0.2,0.2,0.4,0.3,0.7,0.3h28.2c0.3,0,0.5-0.1,0.7-0.3c0.2-0.2,0.2-0.5,0.2-0.8l-5.3-21.2
	c-0.1-0.4-0.4-0.7-0.9-0.7h-17.7c-0.4,0-0.8,0.3-0.9,0.7l-5.3,21.2C241,263.1,241,263.4,241.2,263.6z M247.8,242.8h16.3l4.8,19.5
	h-26L247.8,242.8z"/>
<path fill="#3DAFC4" d="M266.6,271c1.5,0,2.6-1.2,2.6-2.6c0-1.5-1.2-2.6-2.6-2.6c-0.4,0-16.7,0-17.7,0c-0.1,0-0.2,0-0.3,0l-5.3,1.8
	c-0.4,0.1-0.6,0.5-0.6,0.8c0,0.4,0.2,0.7,0.6,0.8l5.3,1.8c0.1,0,0.2,0,0.3,0H266.6z M249.8,269.2v-1.8H264v1.8
	C263.7,269.2,250.4,269.2,249.8,269.2z M267.5,268.4c0,0.5-0.4,0.9-0.9,0.9h-0.9v-1.8h0.9C267.1,267.5,267.5,267.9,267.5,268.4z
	 M248,267.8v1.1l-1.6-0.5L248,267.8z"/>
<path fill="#3DAFC4" d="M266.5,259.4l-3.5-14.2c-0.1-0.4-0.4-0.7-0.9-0.7h-12.2c-0.4,0-0.8,0.3-0.9,0.7l-3.5,14.2
	c-0.1,0.3,0,0.5,0.2,0.8c0.2,0.2,0.4,0.3,0.7,0.3h7.9c0.5,0,0.9-0.4,0.9-0.9v-2.5c1,0.4,1.8,1.3,1.8,2.5c0,0.5,0.4,0.9,0.9,0.9h7.9
	c0.3,0,0.5-0.1,0.7-0.3S266.5,259.6,266.5,259.4z M258.5,258.7c-0.4-2-2.2-3.5-4.3-3.5c-0.5,0-0.9,0.4-0.9,0.9v2.6h-5.9l1.8-7.1h5
	c0.5,0,0.9-0.4,0.9-0.9V249c0-0.5-0.4-0.9-0.9-0.9c-0.5,0-0.9,0.4-0.9,0.9v0.9h-3.7l0.9-3.6h10.8l0.9,3.6h-3.7V249
	c0-0.5-0.4-0.9-0.9-0.9c-0.5,0-0.9,0.4-0.9,0.9v1.8c0,0.5,0.4,0.9,0.9,0.9h5l0.5,1.8h-3.7c-0.5,0-0.9,0.4-0.9,0.9
	c0,0.5,0.4,0.9,0.9,0.9h4.1l0.9,3.5H258.5z"/>
</svg>
