<?xml version="1.0" encoding="utf-8"?>
<!-- Generator: Adobe Illustrator 17.1.0, SVG Export Plug-In . SVG Version: 6.00 Build 0)  -->
<!DOCTYPE svg PUBLIC "-//W3C//DTD SVG 1.1//EN" "http://www.w3.org/Graphics/SVG/1.1/DTD/svg11.dtd">
<svg version="1.1" id="Capa_1" xmlns="http://www.w3.org/2000/svg" xmlns:xlink="http://www.w3.org/1999/xlink" x="0px" y="0px"
	 viewBox="135 0 30 30" enable-background="new 135 0 30 30" xml:space="preserve">
<g>
	<g>
		<path fill="#3DAFC4" d="M162.1,2.8h-2.9v2.6h-18.3V2.8h-2.9c-1.6,0-2.9,1.3-2.9,2.9v18.6c0,1.6,1.3,2.9,2.9,2.9h24.2
			c1.6,0,2.9-1.3,2.9-2.9V5.7C165,4.1,163.7,2.8,162.1,2.8z M136.8,5.7c0-0.6,0.5-1.2,1.2-1.2h1.2v16.9h-1.2c-0.4,0-0.8,0.1-1.2,0.2
			C136.8,21.6,136.8,5.7,136.8,5.7z M162.1,25.5h-24.2c-0.6,0-1.2-0.5-1.2-1.2c0-0.6,0.5-1.2,1.2-1.2h2.9v-16h18.3v16h2.9
			c0.6,0,1.2,0.5,1.2,1.2S162.7,25.5,162.1,25.5z M163.2,21.6c-0.4-0.2-0.7-0.2-1.2-0.2h-1.2V4.5h1.2c0.6,0,1.2,0.5,1.2,1.2V21.6z"
			/>
	</g>
</g>
<g>
	<g>
		<path fill="#3DAFC4" d="M150,10.6l-6.9,5.7l1.1,1.4l1.2-1v4.9h9.3v-4.9l1.2,1l1.1-1.4L150,10.6z M150.4,19.8h-0.8v-1.1h0.8V19.8z
			 M152.9,19.8h-0.8V17h-4.3v2.9h-0.8v-4.6l2.9-2.4l2.9,2.4V19.8z"/>
	</g>
</g>
</svg>
