<?xml version="1.0" encoding="utf-8"?>
<!-- Generator: Adobe Illustrator 17.1.0, SVG Export Plug-In . SVG Version: 6.00 Build 0)  -->
<!DOCTYPE svg PUBLIC "-//W3C//DTD SVG 1.1//EN" "http://www.w3.org/Graphics/SVG/1.1/DTD/svg11.dtd">
<svg version="1.1" id="Capa_1" xmlns="http://www.w3.org/2000/svg" xmlns:xlink="http://www.w3.org/1999/xlink" x="0px" y="0px"
	 viewBox="251.7 251.7 30 30" enable-background="new 251.7 251.7 30 30" xml:space="preserve">
<g>
	<path fill="#FFAE04" d="M261,281.7c-2-4.2-0.9-6.5,0.6-8.8c1.7-2.5,2.1-4.9,2.1-4.9s1.3,1.7,0.8,4.4c2.3-2.6,2.8-6.7,2.4-8.3
		c5.3,3.7,7.5,11.7,4.5,17.6c16.2-9.2,4-22.9,1.9-24.4c0.7,1.5,0.8,4.2-0.6,5.4c-2.4-9.1-8.4-11-8.4-11c0.7,4.7-2.6,9.9-5.7,13.7
		c-0.1-1.9-0.2-3.2-1.2-5c-0.2,3.4-2.8,6.2-3.5,9.6C252.9,274.7,254.6,278.1,261,281.7z"/>
</g>
</svg>
