<svg width="89" height="24" viewBox="0 0 89 24" fill="none" xmlns="http://www.w3.org/2000/svg">
<path d="M40.6959 18.391C39.9613 18.3732 39.274 18.311 38.6342 18.2044C38.0003 18.0978 37.47 18.0118 37.0435 17.9467C36.6228 17.8756 36.4125 17.84 36.4125 17.84C36.4125 17.84 36.4243 17.9259 36.448 18.0978C36.3947 18.1451 36.2318 18.1629 35.9593 18.1511C35.6868 18.1451 35.3757 18.1215 35.0262 18.08C34.6826 18.0444 34.3834 18 34.1286 17.9467C33.8739 17.8874 33.7406 17.8341 33.7287 17.7867C33.7287 17.5083 33.7406 17.0284 33.7643 16.3471C33.7939 15.6598 33.8087 15.0881 33.8087 14.6319C33.8205 14.389 33.8294 14.0158 33.8354 13.5122C33.8472 13.0501 33.8502 12.271 33.8442 11.175C33.8442 10.2389 33.8472 9.40654 33.8531 8.67783C33.859 7.94912 33.8768 7.22041 33.9064 6.4917C33.9361 5.75706 33.9864 5.34531 34.0575 5.25644C34.1227 5.2209 34.2945 5.20905 34.5729 5.2209C34.8573 5.23275 35.1713 5.26237 35.5149 5.30977C35.8645 5.35124 36.1666 5.39863 36.4214 5.45195C36.6821 5.50527 36.8124 5.55563 36.8124 5.60303C36.8124 5.65042 36.7917 5.88444 36.7502 6.30508C36.7146 6.71979 36.6673 7.22337 36.608 7.81582C36.4954 8.586 36.3918 9.34434 36.297 10.0908C36.3799 10.0849 36.6673 10.0671 37.159 10.0375C37.6507 10.0079 38.1573 9.98714 38.6786 9.97529C39.2059 9.96344 39.7865 9.96937 40.4204 9.99307C41.0603 10.0168 41.4513 10.079 41.5935 10.1797C41.7534 10.3574 41.8956 10.8699 42.02 11.7171C42.1444 12.5643 42.2481 13.4115 42.3311 14.2587C42.4199 15.1059 42.4584 15.9353 42.4466 16.747C42.4407 17.5586 42.3873 18.0207 42.2866 18.1333C41.9608 18.3288 41.4305 18.4147 40.6959 18.391ZM38.7853 12.0992C38.3172 12.1051 37.8166 12.1377 37.2834 12.197C36.7502 12.2562 36.2525 12.3243 35.7904 12.4014C35.6542 12.4606 35.5564 12.6828 35.4972 13.0679C35.4438 13.447 35.4201 13.8203 35.4261 14.1876C35.4379 14.5549 35.4942 14.7949 35.5949 14.9074C35.7964 15.0496 36.1666 15.1888 36.7058 15.3251C37.2508 15.4614 37.7425 15.5621 38.181 15.6272C38.6194 15.6924 39.0933 15.6983 39.6028 15.645C39.7687 15.6095 39.8961 15.4495 39.985 15.1651C40.0798 14.8748 40.1301 14.4927 40.136 14.0187C40.1479 13.5389 40.1271 13.1242 40.0738 12.7746C40.0264 12.4251 39.9553 12.2266 39.8605 12.1792C39.6176 12.114 39.2592 12.0874 38.7853 12.0992ZM35.0795 7.41592C33.8176 7.57588 33.1303 7.6529 33.0178 7.64697C32.9111 7.64105 32.8578 7.62327 32.8578 7.59365C32.8697 7.16116 32.8874 6.70794 32.9111 6.23398C32.9348 5.76003 32.9556 5.39863 32.9733 5.1498C33.5599 5.09648 34.4574 5.0165 35.666 4.90986C36.8805 4.7973 38.101 4.67881 39.3273 4.55439C40.5537 4.42998 41.238 4.36777 41.3802 4.36777C41.4513 4.38555 41.4957 4.51588 41.5135 4.75879C41.5313 4.99577 41.5283 5.27422 41.5046 5.59414C41.4868 5.90814 41.4542 6.18659 41.4068 6.42949C41.3594 6.6724 41.3032 6.80866 41.238 6.83828C41.0543 6.84421 40.7848 6.87087 40.4293 6.91826C40.0738 6.95973 39.194 7.03971 37.7899 7.1582C37.2449 7.17005 36.3414 7.25596 35.0795 7.41592ZM47.0144 8.58008C47.3106 8.6097 47.6631 8.68079 48.0719 8.79336C48.4866 8.9 48.8687 9.05404 49.2183 9.25547C49.5678 9.4569 49.7959 9.71462 49.9025 10.0286C50.0033 10.4078 50.0803 11.0921 50.1336 12.0814C50.1928 13.0708 50.2077 14.0395 50.178 14.9874C50.1543 15.9353 50.0684 16.5337 49.9203 16.7825C49.6893 17.0432 49.1946 17.2683 48.4362 17.4579C47.6838 17.6416 46.8988 17.7601 46.0813 17.8134C45.2696 17.8608 44.6535 17.8134 44.2328 17.6712C43.8477 17.4994 43.5515 17.0728 43.3441 16.3915C43.1427 15.7102 43.0153 14.9104 42.962 13.9921C42.9146 13.0738 42.9324 12.1792 43.0153 11.3083C43.0983 10.4374 43.2405 9.72646 43.4419 9.17549C43.5485 8.93851 43.8092 8.77262 44.2239 8.67783C44.6386 8.57712 45.1037 8.5238 45.6191 8.51787C46.1346 8.51195 46.5996 8.53268 47.0144 8.58008ZM47.7075 15.6539C47.8319 15.5058 47.9238 15.1977 47.983 14.7297C48.0482 14.2557 48.0867 13.6396 48.0985 12.8812C48.1104 12.117 48.0956 11.5275 48.0541 11.1128C48.0186 10.6981 47.9593 10.47 47.8764 10.4285C47.6275 10.3633 47.2839 10.3367 46.8455 10.3485C46.413 10.3604 46.0013 10.4107 45.6103 10.4996C45.2252 10.5885 44.9734 10.701 44.8549 10.8373C44.8016 10.9202 44.7719 11.2017 44.766 11.6815C44.766 12.1555 44.7956 12.7894 44.8549 13.5833C44.9141 14.3772 45.0148 14.9933 45.157 15.4317C45.3051 15.8701 45.5007 16.0923 45.7436 16.0982C45.8443 16.0923 46.0339 16.0686 46.3123 16.0271C46.5908 15.9798 46.8692 15.9264 47.1477 15.8672C47.4261 15.8079 47.6127 15.7368 47.7075 15.6539ZM55.2879 13.5122C55.3057 13.5063 55.3264 13.5004 55.3501 13.4944C55.6759 13.447 56.0166 13.3641 56.3721 13.2456C56.7335 13.1271 56.9408 13.056 56.9941 13.0323C56.9349 12.0607 56.8845 11.3675 56.8431 10.9528C56.8016 10.5322 56.7483 9.78275 56.6831 8.70449C56.7305 8.69857 56.8816 8.70153 57.1363 8.71338C57.397 8.7193 57.6903 8.73115 58.0161 8.74893C58.342 8.76077 58.6323 8.77559 58.887 8.79336C59.1477 8.81113 59.3017 8.82891 59.3491 8.84668C59.2247 10.6359 59.1329 12.117 59.0736 13.29C59.0203 14.4631 58.9759 15.9442 58.9403 17.7334C58.8692 17.7452 58.7004 17.7601 58.4338 17.7778C58.1731 17.7897 57.8828 17.8045 57.5629 17.8223C57.3378 17.84 57.1304 17.8549 56.9408 17.8667C56.7572 17.8726 56.6268 17.8815 56.5498 17.8934C56.5439 17.7689 56.5083 17.2565 56.4432 16.356C56.3839 15.4495 56.3513 14.9519 56.3454 14.863C56.3395 14.7682 56.3365 14.7208 56.3365 14.7208C56.3365 14.7208 56.2417 14.7238 56.0522 14.7297C55.8803 14.7356 55.6256 14.783 55.2879 14.8719V13.5122ZM54.1148 15.1918L54.0704 15.5028C54.0526 15.645 54.0556 15.7487 54.0793 15.8139C54.0911 16.3293 54.1208 17.0165 54.1682 17.8756C53.8601 17.8756 53.5224 17.8578 53.1551 17.8223C52.7937 17.7808 52.4738 17.7364 52.1953 17.689C51.9169 17.6416 51.7391 17.6031 51.6621 17.5734C51.7273 16.6966 51.828 15.5799 51.9643 14.2231C52.0709 12.4162 52.1479 11.0684 52.1953 10.1797C52.2427 9.28509 52.2783 8.78743 52.302 8.68672C52.7048 8.71634 53.1373 8.76077 53.5994 8.82002C54.0674 8.87334 54.414 8.9237 54.6392 8.97109C54.6273 9.10143 54.6095 9.24066 54.5858 9.38877C54.5621 9.53096 54.5592 10.2004 54.577 11.3972C54.6007 12.588 54.6125 13.1834 54.6125 13.1834C54.6125 13.1834 54.6125 13.3908 54.6125 13.8055L54.1415 14.863L54.1148 15.1918ZM54.2659 13.5033C54.42 13.4796 54.654 13.453 54.968 13.4233C55.2109 13.3937 55.513 13.373 55.8744 13.3611C56.0166 13.3611 56.1618 13.3671 56.3099 13.3789V14.9341C55.907 14.9637 55.4864 15.0289 55.048 15.1296C54.6095 15.2362 54.1178 15.3577 53.5728 15.4939L54.2659 13.5033ZM65.3743 13.8588C65.3506 13.5922 65.324 13.3197 65.2943 13.0412C65.1995 11.9748 65.1136 11.0091 65.0366 10.1441C64.9596 9.27324 64.93 8.78447 64.9478 8.67783C65.7594 8.57712 66.6273 8.48825 67.5516 8.41123C67.5516 8.67191 67.5516 8.97406 67.5516 9.31768C67.5456 10.5737 67.5338 12.0903 67.516 13.8677C67.4982 15.6391 67.4597 17.3453 67.4005 18.9864C67.3472 19.8218 67.1072 20.3876 66.6807 20.6838C66.2541 20.98 65.7298 21.1015 65.1077 21.0481C64.6693 21.0185 64.1065 20.9119 63.4192 20.7282C62.732 20.5505 62.0892 20.355 61.4908 20.1417C60.8984 19.9284 60.5192 19.7536 60.3533 19.6174C60.223 19.4693 60.14 19.2204 60.1045 18.8709C60.0689 18.5273 60.0601 18.1925 60.0778 17.8667C60.1015 17.5349 60.1371 17.3216 60.1845 17.2269C60.2259 17.1676 60.38 17.1291 60.6466 17.1113C60.9132 17.0936 61.2183 17.0906 61.5619 17.1024C61.9055 17.1084 62.2166 17.1232 62.495 17.1469C62.7735 17.1646 62.9482 17.1883 63.0193 17.218C62.9956 17.4846 62.9571 17.7749 62.9038 18.0889C62.8801 18.2488 62.8594 18.3821 62.8416 18.4888C62.8535 18.5717 62.9631 18.6635 63.1704 18.7643C63.3778 18.865 63.6384 18.9479 63.9524 19.0131C64.2724 19.0842 64.5953 19.1197 64.9211 19.1197C64.9448 18.4206 64.9566 17.7215 64.9566 17.0225C64.9566 16.3234 64.9566 15.8435 64.9566 15.5828C64.9566 15.5473 64.9566 15.5206 64.9566 15.5028C64.4649 15.6865 63.9139 15.8731 63.3037 16.0627C62.6935 16.2523 62.1159 16.3974 61.5708 16.4981C61.2568 16.5396 60.9932 16.353 60.7799 15.9383C60.5666 15.5236 60.3948 14.9844 60.2645 14.3209C60.14 13.6574 60.0423 12.9672 59.9712 12.2503C59.906 11.5275 59.8616 10.8788 59.8379 10.3041C59.8142 9.7235 59.7994 9.31471 59.7935 9.07773C59.9534 9.02441 60.2082 8.96517 60.5577 8.9C60.9073 8.82891 61.2538 8.76966 61.5975 8.72227C61.947 8.66894 62.1929 8.64525 62.3351 8.65117C62.3884 9.78867 62.4536 10.9588 62.5306 12.1614C62.5839 13.0146 62.6313 13.8055 62.6728 14.5342C62.7557 14.5164 62.889 14.4868 63.0727 14.4453C63.363 14.3861 63.7184 14.3061 64.1391 14.2054C64.5597 14.1047 64.9715 13.9891 65.3743 13.8588ZM75.0431 14.4542C75.1082 14.472 75.1231 14.6408 75.0875 14.9607C75.0579 15.2747 74.9779 15.645 74.8476 16.0716C74.7231 16.4922 74.5513 16.8714 74.3321 17.2091C74.1189 17.5409 73.8641 17.7334 73.5679 17.7867C72.9458 17.8104 72.2793 17.7926 71.5684 17.7334C70.8574 17.6742 70.2265 17.5497 69.6755 17.3602C69.3141 17.0402 69.0771 16.4893 68.9646 15.7072C68.8579 14.9193 68.8401 14.0543 68.9112 13.1123C68.9823 12.1703 69.1127 11.3053 69.3023 10.5174C69.4918 9.7235 69.7081 9.16364 69.951 8.83779C70.182 8.66006 70.6412 8.61266 71.3284 8.69561C72.0157 8.77855 72.6881 8.91185 73.3457 9.09551C74.0092 9.27917 74.4121 9.4332 74.5543 9.55762C74.7261 9.78275 74.8209 10.1056 74.8387 10.5263C74.8624 10.941 74.8328 11.2668 74.7498 11.5038C74.6906 11.5512 74.5632 11.5897 74.3677 11.6193C74.1722 11.649 73.9559 11.6727 73.719 11.6904C73.4879 11.7023 73.2865 11.7052 73.1147 11.6993C72.9428 11.6875 72.851 11.6667 72.8392 11.6371C72.8451 11.6312 72.8481 11.6282 72.8481 11.6282C72.8836 11.486 72.9162 11.3113 72.9458 11.1039C72.9814 10.8965 72.9725 10.7307 72.9191 10.6062C72.8125 10.4285 72.6496 10.31 72.4304 10.2508C72.2171 10.1915 71.9949 10.1975 71.7639 10.2686C71.4795 10.393 71.2603 10.7632 71.1063 11.3794C70.9581 11.9955 70.8782 12.6976 70.8663 13.4855C70.8604 14.2676 70.9285 14.9785 71.0707 15.6184C71.1537 15.9087 71.3166 16.0805 71.5595 16.1338C71.8083 16.1871 72.0571 16.1634 72.306 16.0627C72.4659 15.9798 72.5874 15.8198 72.6703 15.5828C72.7592 15.3458 72.8273 15.1029 72.8747 14.8541C72.8984 14.7652 72.9191 14.6853 72.9369 14.6142C73.1857 14.5668 73.5234 14.5283 73.95 14.4986C74.3825 14.4631 74.7468 14.4483 75.0431 14.4542ZM83.3344 17.8223C82.5938 17.9348 81.7614 17.9763 80.8372 17.9467C79.913 17.9111 79.0451 17.8045 78.2334 17.6268C77.4277 17.449 76.9478 17.1824 76.7938 16.827C76.7345 16.6255 76.6634 16.1782 76.5805 15.4851C76.5035 14.7919 76.4679 14.0365 76.4738 13.2189C76.4857 12.4014 76.4798 11.4831 76.4561 10.4641C76.4383 9.43913 76.4738 8.84964 76.5627 8.69561C76.5864 8.67783 76.7049 8.66894 76.9182 8.66894C77.1374 8.66894 77.398 8.67487 77.7002 8.68672C78.0083 8.69264 78.3045 8.70449 78.5889 8.72227C78.8732 8.74004 79.0984 8.76077 79.2643 8.78447C79.1161 9.92197 79.0036 10.9528 78.9266 11.8771C79.5723 11.8415 80.2596 11.8208 80.9883 11.8148C81.7229 11.8089 82.3628 11.8563 82.9078 11.957C83.4469 12.04 83.8676 12.2681 84.1697 12.6413C84.4719 13.0146 84.7 13.7077 84.854 14.7208C85.0199 15.5265 84.9962 16.2138 84.7829 16.7825C84.5756 17.3453 84.0927 17.6919 83.3344 17.8223ZM81.8325 13.9654C81.5363 13.8232 81.1305 13.7285 80.615 13.6811C80.1055 13.6337 79.6316 13.6366 79.1932 13.6899C78.7548 13.7373 78.503 13.844 78.4378 14.0099C78.3549 14.3239 78.3312 14.6408 78.3667 14.9607C78.4082 15.2807 78.5355 15.5828 78.7488 15.8672C78.8792 15.9975 79.1398 16.0686 79.5309 16.0805C79.9278 16.0864 80.3396 16.0597 80.7661 16.0005C81.1927 15.9353 81.5274 15.8613 81.7703 15.7783C82.031 15.6658 82.188 15.5028 82.2413 15.2896C82.2946 15.0763 82.2769 14.8245 82.188 14.5342C82.105 14.2439 81.9866 14.0543 81.8325 13.9654ZM85.4494 8.74004C85.485 8.69264 85.6005 8.66006 85.796 8.64228C85.9915 8.61859 86.2463 8.59193 86.5603 8.5623C86.8743 8.53268 87.126 8.52676 87.3156 8.54453C87.5052 8.55638 87.6148 8.58008 87.6444 8.61562C87.6563 9.1429 87.68 9.92197 87.7155 10.9528C87.7807 12.7124 87.8311 14.1461 87.8666 15.254C87.9081 16.356 87.9347 17.3542 87.9466 18.2488C87.4549 18.2607 86.972 18.2399 86.498 18.1866C86.03 18.1392 85.6449 18.0741 85.3428 17.9911C85.3369 17.2091 85.328 16.5159 85.3161 15.9116C85.3043 15.3014 85.3161 14.2291 85.3517 12.6946C85.3872 11.1543 85.4168 10.002 85.4405 9.23769C85.4465 8.99479 85.4494 8.82891 85.4494 8.74004Z" fill="#C251C0"/>
<path d="M6.89007 6.68662C7.48997 6.75458 8.08478 6.86172 8.67069 7.00734C9.3336 7.14925 9.97743 7.36895 10.5888 7.66188C11.0983 7.87268 11.5096 8.26762 11.741 8.76805C11.9719 9.73169 12.1036 10.7165 12.1337 11.7069C12.2313 13.0923 12.2575 14.4817 12.2123 15.8698C12.1665 17.2312 12.0225 18.0887 11.7737 18.4421C11.0353 18.9607 10.1813 19.291 9.28605 19.4043C7.99193 19.6757 6.67871 19.8464 5.3582 19.9148C4.29768 20.0173 3.22754 19.9466 2.18974 19.7054C1.82152 19.5293 1.49712 19.2735 1.24009 18.9565C0.983049 18.6395 0.799828 18.2693 0.70371 17.8727C0.331722 16.7619 0.111516 15.606 0.0490691 14.4363C-0.0377795 13.1557 -0.00929882 11.8698 0.134171 10.5942C0.232894 9.54656 0.484317 8.51897 0.880461 7.54406C1.03318 7.33606 1.22946 7.16388 1.45559 7.03952C1.68172 6.91517 1.93226 6.84164 2.18974 6.82407C2.96184 6.67377 3.74677 6.59923 4.53336 6.60153C5.41058 6.59499 6.1896 6.62116 6.89007 6.68662ZM8.85399 16.8123C10.0651 16.2625 9.44971 14.2531 9.14858 10.1622C9.1519 10.0012 9.11959 9.84139 9.05395 9.69429C8.98831 9.54719 8.89097 9.41642 8.76889 9.31132C8.49394 9.10186 7.87203 9.14114 6.63476 9.21968C5.93946 9.25191 5.24658 9.32403 4.55955 9.43568C4.08803 9.47884 3.63632 9.64594 3.25026 9.92004C3.11807 10.3069 3.06899 10.7173 3.10624 11.1244C3.10624 11.7789 3.14552 12.7149 3.25026 13.8538C3.30231 14.7455 3.47406 15.6261 3.76088 16.472C4.00965 17.1265 4.33042 17.421 4.74284 17.4276C4.91305 17.4276 5.22728 17.3818 5.69862 17.3229C6.16943 17.2753 6.63716 17.201 7.09955 17.1003C8.23208 16.9301 8.79507 16.8254 8.83435 16.8254L8.85399 16.8123Z" fill="#FFA100"/>
<path d="M23.7415 6.13689C23.9882 6.20295 24.2136 6.33145 24.3961 6.50998C24.9078 6.9539 25.3649 7.45706 25.7578 8.00887C25.8621 8.13103 25.9441 8.27062 26 8.42123C25.6897 8.72153 25.3546 8.99522 24.9984 9.2394C24.4223 9.66485 23.7742 10.1296 23.0345 10.6401C22.2947 11.1506 21.4044 11.7986 20.2981 12.6037L22.4846 14.2073L24.2259 15.4641C24.7824 15.8633 25.2079 16.1644 25.5352 16.3673C25.384 16.9035 25.1475 17.4118 24.8348 17.8728C24.5053 18.3887 24.14 18.8808 23.7415 19.3455C23.3793 19.7818 23.1371 20 23.0149 20C22.6587 19.7408 22.3413 19.4323 22.0722 19.0836C21.555 18.5077 20.9789 17.84 20.3374 17.0742C19.6958 16.3084 18.8972 15.3462 17.9283 14.1681C17.9676 15.1171 18.0003 15.9157 18.0199 16.5571C18.0396 17.1986 18.0199 17.7942 18.0658 18.344C18.1116 18.8938 18.0658 19.2604 18.0658 19.4502C17.7693 19.5729 17.4595 19.6608 17.1427 19.712C16.7107 19.8036 16.272 19.8691 15.8334 19.9215C15.5458 19.9694 15.2535 19.9826 14.9628 19.9607C14.9235 19.664 14.9104 18.6887 14.9235 17.0349C14.9235 15.3855 14.9235 13.4743 14.989 11.3143C15.0544 9.15431 15.0348 7.55724 14.989 6.52961C14.9431 5.50199 14.989 4.67072 15.0479 4.00964C15.4188 4.05328 15.9033 4.12528 16.5012 4.22564L18.1574 4.52018C18.4661 4.56719 18.772 4.63055 19.0739 4.71C18.9757 5.75071 18.8972 6.52961 18.8317 7.04015C18.7662 7.55069 18.6353 8.84668 18.4455 10.915C19.458 9.94194 20.2981 9.1434 20.9658 8.51941C21.6205 7.86487 22.2293 7.34778 22.7595 6.87652C23.051 6.58562 23.3815 6.33669 23.7415 6.13689Z" fill="#00B6C5"/>
<path d="M2.19079 4.20604C3.01564 4.01623 3.87977 3.81987 4.55405 4.29768C4.75973 4.45541 4.93214 4.65229 5.06136 4.87697C5.19057 5.10165 5.27401 5.34968 5.30689 5.60676C5.44874 6.11755 5.50188 6.64889 5.464 7.17765C5.4515 7.49794 5.40543 7.81605 5.32652 8.12673L2.29554 8.74199C1.73185 8.17123 1.31416 7.47294 1.0779 6.70638C0.907695 6.12384 0.626199 5.1944 1.12373 4.63804C1.33976 4.38932 1.61471 4.33695 2.19079 4.20604Z" fill="#FFA40D"/>
<path d="M10.5498 4.62485C9.72496 4.42849 8.86084 4.23213 8.18001 4.70994C7.97554 4.86826 7.80435 5.06541 7.67628 5.29006C7.54821 5.5147 7.46578 5.76243 7.43372 6.01902C7.28601 6.51991 7.22404 7.04217 7.25043 7.56372C7.26341 7.88613 7.30948 8.20635 7.3879 8.51935L10.4189 9.12807C10.9826 8.5573 11.4003 7.85902 11.6365 7.09246C11.8067 6.50992 12.0817 5.58047 11.5907 5.03066C11.355 4.81466 11.0997 4.74921 10.5498 4.62485Z" fill="#FFA40D"/>
<path d="M6.64908 13.9062C6.62696 13.9478 6.6094 13.9917 6.59671 14.0371C6.53523 14.5561 6.51553 15.0793 6.53779 15.6014L7.02878 15.5163C6.97456 15.1413 6.94613 14.7629 6.94367 14.384C6.94367 14.0698 6.94367 13.7949 6.8913 13.7295C6.83893 13.664 6.71454 13.7949 6.64908 13.9062Z" fill="#FFA100"/>
<path d="M6.49122 13.1863C6.21622 13.2007 5.95279 13.3015 5.73838 13.4743C5.60745 13.579 5.36523 13.7754 5.36523 14.0175C5.36523 14.4168 6.01987 14.7899 6.62869 14.7964C7.08039 14.7964 7.74158 14.5804 7.80704 14.1419C7.85942 13.8015 7.519 13.4874 7.28988 13.3368C7.04637 13.2032 6.76667 13.1505 6.49122 13.1863Z" fill="#FFA100"/>
<path d="M5.9545 15.9614C5.66519 15.9142 5.4001 15.7713 5.20166 15.5556C5.24861 15.4989 5.3065 15.4521 5.37187 15.4182H5.45697C5.58319 15.5272 5.73016 15.6096 5.88904 15.6603C5.97886 15.6939 6.07496 15.7073 6.17053 15.6996C6.31568 15.6724 6.44597 15.5933 6.53713 15.4771H7.00192C7.12296 15.5838 7.27915 15.6421 7.44053 15.6407C7.54276 15.6364 7.64399 15.6188 7.74167 15.5883C7.87869 15.5395 8.00211 15.4587 8.10172 15.3527C8.13701 15.3582 8.17059 15.3716 8.19992 15.392C8.25709 15.4297 8.30068 15.4848 8.3243 15.5491C8.11229 15.7573 7.84361 15.8984 7.55183 15.9549H7.36198C7.14565 15.9418 6.93819 15.8643 6.76625 15.7323C6.60243 15.8717 6.40287 15.9624 6.19017 15.9942C6.11073 15.991 6.0318 15.98 5.9545 15.9614Z" fill="#FFA100"/>
</svg>
