<svg width="40" height="40" viewBox="0 0 40 40" fill="none" xmlns="http://www.w3.org/2000/svg">
<path d="M39.3847 27.7924C38.5212 26.5877 36.8214 26.2949 35.5881 27.1384L27.2313 32.8547C26.9039 33.0786 26.514 33.1987 26.1144 33.1987H19.9388V38.5247H26.6055C27.8044 38.5247 28.9741 38.1645 29.9561 37.4927L38.7152 31.5013C39.9485 30.6577 40.2483 28.9972 39.3847 27.7924Z" fill="#FABE8C"/>
<path d="M27.2699 32.7941C26.9408 33.0187 26.5488 33.1391 26.1472 33.1391L19.9388 32.6699V35.4287H26.2811C29.0875 35.4287 31.3706 33.2033 31.3706 30.4679C31.3706 30.3137 31.3623 30.1613 31.3481 30.0107L27.2699 32.7941Z" fill="#E6A578"/>
<path d="M39.3889 27.8211C38.5321 26.6196 36.8454 26.3276 35.6217 27.1689L28.6479 31.9636C28.9079 31.5556 29.0587 31.0737 29.0587 30.557C29.0587 29.0902 27.8476 27.9011 26.3538 27.9011H19.7847L19.0285 27.3443C17.5227 26.2353 15.6567 25.6246 13.7743 25.6246C12.1875 25.6246 10.6296 26.0483 9.26894 26.8499C9.26894 26.8499 7.97978 27.6094 7.20918 28.0633C6.86002 28.2691 6.64648 28.6395 6.64648 29.0393V37.3865C6.64648 38.0151 7.16552 38.5247 7.80574 38.5247H26.7088C27.8983 38.5247 29.059 38.1654 30.0334 37.4955L38.7246 31.52C39.9484 30.6787 40.2458 29.0226 39.3889 27.8211Z" fill="#FFD2AA"/>
<path d="M19.9388 38.5247H26.6056C27.8044 38.5247 28.9741 38.1645 29.9561 37.4927L38.7153 31.5013C39.9486 30.6577 40.2483 28.9972 39.3847 27.7924C38.5212 26.5877 36.8214 26.2949 35.5881 27.1384L28.5598 31.946C28.8218 31.5369 28.9738 31.0537 28.9738 30.5356C28.9738 29.0649 27.7533 27.8726 26.2477 27.8726H19.9388V38.5247Z" fill="#FABE8C"/>
<path d="M31.3485 30.0107L28.6303 31.8826C28.6135 31.9091 28.5967 31.9356 28.5789 31.9614C28.0909 32.672 27.2643 33.1391 26.3268 33.1391H18.1787C17.5358 33.1391 17.0146 33.6517 17.0146 34.2839C17.0146 34.9162 17.5358 35.4287 18.1787 35.4287H26.3268C29.1081 35.4287 31.3708 33.2033 31.3708 30.4679C31.3708 30.3137 31.3626 30.1613 31.3485 30.0107Z" fill="#FABE8C"/>
<path d="M31.3481 30.0107L28.6055 31.8826C28.5885 31.9091 28.5715 31.9356 28.5535 31.9614C28.0611 32.672 27.2271 33.1391 26.2811 33.1391H19.9388V35.4287H26.2811C29.0875 35.4287 31.3706 33.2033 31.3706 30.4679C31.3706 30.3137 31.3623 30.1613 31.3481 30.0107Z" fill="#E6A578"/>
<path d="M8.09464 40H1.25175C0.56045 40 0 39.4899 0 38.8608L0 25.9496C0 25.3204 0.56045 24.8103 1.25175 24.8103H8.09464C8.78594 24.8103 9.34639 25.3204 9.34639 25.9496V38.8608C9.34639 39.4899 8.78594 40 8.09464 40Z" fill="#FF5B56"/>
<path d="M35.878 0.109534L29.5433 1.47996C29.4033 1.51024 29.3152 1.64487 29.3464 1.7807L29.3965 1.99882C29.5182 2.52843 29.2034 3.0749 28.664 3.21778C28.0882 3.37032 27.5042 3.02412 27.3758 2.46515L27.3193 2.21924C27.2881 2.08341 27.1494 1.99786 27.0094 2.02814L7.49838 6.24909C7.21851 6.30964 7.04217 6.57897 7.10455 6.85057L10.4937 21.6049C10.5561 21.8765 10.8336 22.0477 11.1135 21.9871L30.6245 17.7662C30.7645 17.7359 30.8526 17.6013 30.8214 17.4654L30.7713 17.2473C30.6497 16.7177 30.9644 16.1712 31.5038 16.0284C32.0797 15.8758 32.6637 16.222 32.792 16.781L32.8485 17.0269C32.8797 17.1627 33.0185 17.2483 33.1584 17.218L39.4932 15.8476C39.7731 15.787 39.9494 15.5177 39.887 15.2461L36.4978 0.49166C36.4354 0.220072 36.1579 0.0489889 35.878 0.109534ZM31.7204 14.4315C31.7828 14.7031 31.6067 14.9724 31.3265 15.033C31.0464 15.0936 30.7692 14.9224 30.7068 14.6508L30.4808 13.6672C30.4184 13.3956 30.5945 13.1263 30.8746 13.0657C31.1547 13.0051 31.432 13.1763 31.4944 13.4479L31.7204 14.4315ZM31.0425 11.4806C31.1049 11.7522 30.9289 12.0215 30.6487 12.0821C30.3686 12.1427 30.0913 11.9715 30.0289 11.6999L29.803 10.7163C29.7406 10.4447 29.9167 10.1754 30.1968 10.1148C30.4769 10.0542 30.7542 10.2254 30.8166 10.497L31.0425 11.4806ZM30.3647 8.52977C30.4271 8.80137 30.251 9.07064 29.9709 9.13125C29.6908 9.19184 29.4135 9.02065 29.3511 8.74905L29.1252 7.76544C29.0628 7.49384 29.2388 7.22457 29.519 7.16396C29.7991 7.10337 30.0764 7.27456 30.1388 7.54616L30.3647 8.52977ZM29.6869 5.57888C29.7493 5.85048 29.5732 6.11974 29.293 6.18035C29.0129 6.24095 28.7356 6.06976 28.6733 5.79816L28.4473 4.81454C28.3849 4.54294 28.561 4.27368 28.8411 4.21307C29.1212 4.15247 29.3985 4.32366 29.4609 4.59526L29.6869 5.57888Z" fill="#FFC100"/>
<path d="M15.5314 18.0631C15.369 18.0982 15.1935 18.0732 15.0422 17.9799C14.7396 17.7933 14.6502 17.4042 14.8425 17.1105L21.931 6.28446C22.1233 5.99081 22.5242 5.90408 22.8268 6.09066C23.1295 6.27724 23.2188 6.6663 23.0265 6.96001L15.938 17.7861C15.8418 17.9329 15.6938 18.028 15.5314 18.0631Z" fill="white"/>
<path d="M15.8086 12.3239C14.3418 12.6413 12.882 11.7413 12.5549 10.3175C12.2278 8.89369 13.1555 7.47723 14.6224 7.15989C16.0893 6.84254 17.5491 7.74252 17.8761 9.16632C18.2032 10.5901 17.2755 12.0066 15.8086 12.3239ZM14.9048 8.38947C14.1363 8.55575 13.6505 9.29758 13.8219 10.0435C13.9932 10.7893 14.7576 11.2607 15.5262 11.0945C16.2948 10.9282 16.7805 10.1864 16.6092 9.44046C16.4378 8.69452 15.6734 8.2232 14.9048 8.38947Z" fill="white"/>
<path d="M23.2459 16.9103C21.779 17.2276 20.3192 16.3276 19.9922 14.9038C19.6651 13.48 20.5927 12.0636 22.0597 11.7462C23.5266 11.4289 24.9863 12.3289 25.3134 13.7527C25.6404 15.1765 24.7128 16.5929 23.2459 16.9103ZM22.3421 12.9758C21.5735 13.1421 21.0878 13.8839 21.2591 14.6298C21.4305 15.3757 22.1949 15.8471 22.9634 15.6808C23.732 15.5145 24.2178 14.7727 24.0464 14.0268C23.8751 13.2809 23.1107 12.8095 22.3421 12.9758Z" fill="white"/>
<path d="M29.4608 4.59562L29.6867 5.57923C29.7491 5.85083 29.573 6.1201 29.2929 6.18071L29.5188 7.16432C29.7989 7.10372 30.0762 7.27491 30.1386 7.54651L30.3645 8.53013C30.4269 8.80173 30.2509 9.07099 29.9707 9.1316L30.1967 10.1152C30.4768 10.0546 30.7541 10.2258 30.8164 10.4974L31.0424 11.481C31.1048 11.7526 30.9287 12.0219 30.6486 12.0825L30.8745 13.0661C31.1546 13.0055 31.4319 13.1767 31.4943 13.4483L31.7202 14.4319C31.7826 14.7035 31.6065 14.9728 31.3264 15.0334L31.5523 16.017C32.1121 15.8959 32.6671 16.2381 32.7918 16.7814L32.8483 17.0273C32.8795 17.1631 33.0182 17.2486 33.1582 17.2184L39.493 15.8479C39.7728 15.7874 39.9492 15.518 39.8868 15.2464L36.4976 0.492028C36.4352 0.220427 36.1577 0.0492886 35.8778 0.109834L29.5431 1.48026C29.4032 1.51054 29.315 1.64517 29.3462 1.781L29.4027 2.02692C29.5275 2.57012 29.1748 3.10871 28.6151 3.2298L28.841 4.21341C29.1212 4.15287 29.3984 4.32402 29.4608 4.59562Z" fill="#C251C0"/>
</svg>
