<svg width="55" height="51" viewBox="0 0 55 51" fill="none" xmlns="http://www.w3.org/2000/svg">
<path d="M55 32V36C55 38.21 53.3592 40 51.3333 40H3.66667C1.64083 40 0 38.21 0 36V32H55Z" fill="#00B6C6"/>
<path d="M55 3.36842V32H0V3.36842C0 1.50737 1.64083 0 3.66667 0H51.3333C53.3592 0 55 1.50737 55 3.36842Z" fill="#C251C0"/>
<path d="M39.2443 47.5555C39.2443 48.9791 37.6778 50.1333 35.7458 50.1333H18.2538C16.3209 50.1333 14.7554 48.9798 14.7554 47.5555H39.2443Z" fill="#00B6C6"/>
<path d="M32.585 38.5333L35.3776 47.5556H18.6221L21.4147 38.5333H32.585Z" fill="#00B6C6"/>
<path d="M32.8002 41.1112L32.2729 39.8223H21.7275L21.2002 41.1112H32.8002Z" fill="#00B6C6"/>
<path d="M47.488 27.0783H23.3236C21.9387 27.0783 20.812 25.9242 20.812 24.5057V9.14359C20.812 7.72506 21.9387 6.57104 23.3236 6.57104H47.4881C48.8729 6.57104 49.9996 7.72514 49.9996 9.14359V24.5056C49.9996 25.9242 48.8728 27.0783 47.488 27.0783Z" fill="#FF5B55"/>
<path d="M49.9996 10.5325H20.812V15.3548H49.9996V10.5325Z" fill="white"/>
<rect x="42" y="19" width="4" height="4" rx="1" fill="white"/>
<rect x="36" y="19" width="4" height="4" rx="1" fill="white"/>
<rect x="30" y="19" width="4" height="4" rx="1" fill="white"/>
<path d="M20.9097 17.0334H26.1371C27.7402 17.0334 29.0412 18.3284 29.0412 19.924C29.0412 20.7218 28.7159 21.4502 28.1932 21.9705C27.6705 22.4908 26.9386 22.8145 26.1371 22.8145H0V6.6274H11.0405L15.2859 4.05212C15.5858 3.87019 15.8906 3.6996 16.2078 3.54984C17.1776 3.09197 19.428 2.09978 20.9097 2.0025C22.8425 1.87559 30.2028 6.6274 30.2028 6.6274H23.233C21.9551 6.6274 20.9097 7.668 20.9097 8.93985V17.0334Z" fill="#FFC100"/>
</svg>
