<svg width="56" height="47" viewBox="0 0 56 47" fill="none" xmlns="http://www.w3.org/2000/svg">
<path d="M19.0718 44.7915C30.6996 44.7915 37.7349 36.4355 37.7349 22.3514C37.7349 8.20833 30.6019 0 19.0718 0C7.50914 0 0.408691 8.20833 0.408691 22.3219C0.408691 36.465 7.444 44.7915 19.0718 44.7915ZM19.0718 37.528C13.6976 37.528 10.3754 32.2723 10.3754 22.3219C10.3754 12.4306 13.7302 7.29301 19.0718 7.29301C24.446 7.29301 27.7682 12.4011 27.7682 22.3219C27.7682 32.3018 24.4786 37.528 19.0718 37.528Z" fill="#C251C0"/>
<rect x="48.5625" y="15.9948" width="5.63545" height="37.1981" rx="2.81772" transform="rotate(43.6442 48.5625 15.9948)" fill="#FF5B55"/>
<path d="M37.2243 19.3971C36.6746 29.2301 23.1479 28.5938 22.8892 19.3971C23.4375 9.56546 36.9655 10.2071 37.2243 19.3971Z" fill="#FFC100"/>
<path d="M55.7483 39.2422C55.2052 48.9818 41.8037 48.3515 41.5474 39.2422C42.0919 29.5013 55.492 30.1276 55.7483 39.2422Z" fill="#00B6C6"/>
</svg>
