<svg width="40" height="40" viewBox="0 0 40 40" fill="none" xmlns="http://www.w3.org/2000/svg">
<path d="M19.3241 0.339775C19.6831 0.80264 20.6962 2.79047 21.2754 3.94895C21.3664 4.13106 21.1203 4.29558 20.9632 4.1576C19.9636 3.28016 18.2545 1.75755 17.8955 1.29464C17.6115 0.928401 17.7011 0.417734 18.0956 0.154043C18.4901 -0.109649 19.0401 -0.0264599 19.3241 0.339775Z" fill="#FFC100"/>
<path d="M33.7197 0.339775C33.3607 0.80264 32.3476 2.79047 31.7684 3.94895C31.6774 4.13106 31.9235 4.29558 32.0806 4.1576C33.0802 3.28016 34.7893 1.7575 35.1483 1.29464C35.4323 0.9284 35.3427 0.417734 34.9482 0.154043C34.5537 -0.109648 34.0037 -0.0264599 33.7197 0.339775Z" fill="#FFC100"/>
<path d="M39.3925 13.9139C38.8084 13.737 36.4606 13.4449 35.0958 13.2845C34.8813 13.2593 34.7872 13.527 34.9765 13.6241C36.1807 14.2417 38.2626 15.2908 38.8467 15.4677C39.3088 15.6076 39.8056 15.3733 39.9564 14.9441C40.1071 14.515 39.8547 14.0538 39.3925 13.9139Z" fill="#FFC100"/>
<path d="M13.6517 13.9139C14.2357 13.737 16.5836 13.4449 17.9484 13.2845C18.1629 13.2593 18.2569 13.527 18.0677 13.6241C16.8635 14.2417 14.7816 15.2908 14.1975 15.4677C13.7354 15.6076 13.2385 15.3733 13.0878 14.9441C12.9371 14.515 13.1895 14.0538 13.6517 13.9139Z" fill="#FFC100"/>
<path d="M25.6682 23.1366C25.6682 22.5662 26.097 20.4033 26.3561 19.1489C26.3968 18.9517 26.7001 18.9517 26.7408 19.1489C26.9998 20.4033 27.4286 22.5662 27.4286 23.1366C27.4286 23.5879 27.0345 23.9537 26.5484 23.9537C26.0623 23.9538 25.6682 23.5879 25.6682 23.1366Z" fill="#FFC100"/>
<path d="M36.878 7.18361L29.8368 6.57731L27.0398 0.547379C26.844 0.125158 26.1992 0.125158 26.0034 0.547379L23.2064 6.57726L16.1653 7.18361C15.6722 7.22604 15.473 7.79539 15.8449 8.09878L21.1575 12.4318L19.6028 18.8364C19.4939 19.2849 20.0156 19.6367 20.4413 19.402L26.5216 16.0501L32.602 19.402C33.0277 19.6368 33.5493 19.2849 33.4405 18.8364L31.8857 12.4318L37.1983 8.09878C37.5703 7.79539 37.371 7.22604 36.878 7.18361Z" fill="#FFC100"/>
<path d="M39.2247 27.6301C38.3647 26.4093 36.6718 26.1126 35.4436 26.9674L27.1208 32.7598C26.7947 32.9867 26.4064 33.1083 26.0085 33.1083H19.858V38.5053H26.4976C27.6915 38.5053 28.8565 38.1402 29.8345 37.4595L38.5579 31.3883C39.7862 30.5335 40.0848 28.8509 39.2247 27.6301Z" fill="#FABE8C"/>
<path d="M27.1592 32.6982C26.8315 32.9258 26.4411 33.0478 26.0411 33.0478L19.858 32.5723V35.3679H26.1745C28.9694 35.3679 31.2432 33.1128 31.2432 30.341C31.2432 30.1847 31.235 30.0304 31.2209 29.8777L27.1592 32.6982Z" fill="#E6A578"/>
<path d="M39.2285 27.659C38.3751 26.4415 36.6954 26.1456 35.4766 26.9981L28.5312 31.8566C28.7901 31.4432 28.9403 30.9549 28.9403 30.4313C28.9403 28.945 27.7342 27.7401 26.2464 27.7401H19.7041L18.951 27.1758C17.4513 26.0521 15.5929 25.4333 13.7182 25.4333C12.1378 25.4333 10.5863 25.8626 9.23116 26.6749C9.23116 26.6749 7.94725 27.4445 7.17979 27.9045C6.83205 28.1129 6.61938 28.4883 6.61938 28.8935V37.3517C6.61938 37.9887 7.13631 38.5051 7.77392 38.5051H26.6C27.7847 38.5051 28.9406 38.141 29.911 37.4621L38.5669 31.4072C39.7857 30.5547 40.0819 28.8765 39.2285 27.659Z" fill="#FFD2AA"/>
<path d="M19.858 38.5053H26.4976C27.6916 38.5053 28.8565 38.1402 29.8345 37.4595L38.558 31.3883C39.7863 30.5335 40.0848 28.8509 39.2247 27.6301C38.3647 26.4093 36.6718 26.1126 35.4436 26.9674L28.4438 31.839C28.7049 31.4244 28.8562 30.9348 28.8562 30.4098C28.8562 28.9195 27.6407 27.7114 26.1412 27.7114H19.858V38.5053Z" fill="#FABE8C"/>
<path d="M31.2208 29.8777L28.5137 31.7745C28.4969 31.8014 28.4802 31.8283 28.4625 31.8544C27.9764 32.5744 27.1532 33.0478 26.2195 33.0478H18.1046C17.4644 33.0478 16.9453 33.5672 16.9453 34.2079C16.9453 34.8485 17.4644 35.3679 18.1046 35.3679H26.2195C28.9895 35.3679 31.243 33.1128 31.243 30.341C31.243 30.1847 31.2348 30.0304 31.2208 29.8777Z" fill="#FABE8C"/>
<path d="M31.2209 29.8777L28.4893 31.7745C28.4724 31.8014 28.4555 31.8283 28.4376 31.8544C27.9472 32.5744 27.1166 33.0478 26.1745 33.0478H19.858V35.3679H26.1745C28.9694 35.3679 31.2432 33.1128 31.2432 30.341C31.2432 30.1847 31.235 30.0304 31.2209 29.8777Z" fill="#E6A578"/>
<path d="M8.06168 40H1.24665C0.558168 40 0 39.4832 0 38.8456L0 25.7625C0 25.125 0.558168 24.6082 1.24665 24.6082H8.06168C8.75017 24.6082 9.30833 25.125 9.30833 25.7625V38.8456C9.30833 39.4832 8.75017 40 8.06168 40Z" fill="#00B6C6"/>
</svg>
