<svg width="60" height="45" viewBox="0 0 60 45" fill="none" xmlns="http://www.w3.org/2000/svg">
<path d="M15.2906 11.7586L5.87854 18.1827C2.63169 18.1827 0 9.12641 0 5.87956C0 4.25512 0.65805 2.78561 1.72233 1.72183C2.78611 0.65805 4.25512 0 5.87854 0H44.1635C46.9183 0 49.1499 2.23152 49.1499 4.98634V7.48683" fill="#C251C0"/>
<path d="M43.488 2.66785H15.5671C13.5451 2.66785 11.9058 4.37941 11.9058 6.4916V22.8692C11.9058 24.9809 13.5451 26.693 15.5671 26.693H43.488C45.6788 26.693 47.4546 24.8379 47.4546 22.5498V6.81046C47.4546 4.52238 45.6788 2.66785 43.488 2.66785Z" fill="#00B6C6"/>
<path d="M46.3029 2.66785H18.382C16.36 2.66785 14.7207 4.37941 14.7207 6.4916V22.8692C14.7207 24.9809 16.36 26.693 18.382 26.693H46.3029C48.4933 26.693 50.2695 24.8379 50.2695 22.5498V6.81046C50.2695 4.52238 48.4933 2.66785 46.3029 2.66785Z" fill="#FF5B55"/>
<path d="M14.7207 8.07507H50.2695V13.0997H14.7207V8.07507Z" fill="#FFC100"/>
<path d="M11.9058 11.9281H56.6136V37.6536H11.9058V11.9281Z" fill="#00B6C6"/>
<path d="M14.854 11.9281H59.5618V37.6536H14.854V11.9281Z" fill="#C251C0"/>
<path d="M55.694 29.0301V20.552C53.0681 20.552 50.9388 18.4227 50.9388 15.7968H23.4784C23.4784 18.4227 21.3496 20.552 18.7236 20.552V29.0301C21.3496 29.0301 23.4784 31.1589 23.4784 33.7848H50.9388C50.9388 31.1589 53.0676 29.0301 55.694 29.0301Z" fill="#FFC100"/>
<path d="M49.8589 25.712H46.9111C46.402 25.712 45.9897 25.2998 45.9897 24.7907C45.9897 24.2821 46.402 23.8694 46.9111 23.8694H49.8589C50.3675 23.8694 50.7803 24.2821 50.7803 24.7907C50.7803 25.2998 50.3675 25.712 49.8589 25.712Z" fill="#C251C0"/>
<path d="M55.6942 16.718C54.8835 16.718 54.4687 15.6949 55.0565 15.1319C55.323 14.8768 55.7305 14.8053 56.0677 14.9553C56.4334 15.1182 56.6596 15.5104 56.6082 15.9101C56.5499 16.3657 56.1558 16.718 55.6942 16.718Z" fill="#FFC100"/>
<path d="M55.6944 34.7071C54.8676 34.7071 54.4579 33.645 55.0842 33.0953C55.3645 32.8498 55.7751 32.7957 56.1082 32.9627C56.4643 33.1417 56.6698 33.5436 56.6033 33.9377C56.529 34.3754 56.1394 34.7071 55.6944 34.7071Z" fill="#FFC100"/>
<path d="M49.1499 16.7449V40.0133C49.1499 42.7682 46.9183 44.9997 44.1635 44.9997H5.87854C2.63169 44.9997 0 42.368 0 39.1201V5.87952C0 9.12637 2.63169 11.7586 5.87854 11.7586H44.1635C46.9183 11.7586 49.1499 13.9916 49.1499 16.7449Z" fill="#00B6C6"/>
<path d="M6.40438 11.7586V44.9997H5.87854C2.63169 44.9997 0 42.368 0 39.1201V5.87952C0 9.12637 2.63169 11.7586 5.87854 11.7586H6.40438Z" fill="#00B6C6"/>
<path d="M43.4739 28.1149C43.4739 29.9028 42.2562 31.4061 40.6045 31.8401C40.2906 31.9224 39.9611 31.9673 39.6215 31.9673C37.4939 31.9673 35.769 30.2424 35.769 28.1149C35.769 25.9868 37.4939 24.2625 39.6215 24.2625C39.9611 24.2625 40.2906 24.3069 40.6045 24.3891C42.2562 24.8231 43.4739 26.3264 43.4739 28.1149Z" fill="#FFBE1D"/>
</svg>
