<?xml version="1.0" encoding="utf-8"?>
<!-- Generator: Adobe Illustrator 22.0.1, SVG Export Plug-In . SVG Version: 6.00 Build 0)  -->
<svg version="1.1" id="Слой_1" xmlns="http://www.w3.org/2000/svg" xmlns:xlink="http://www.w3.org/1999/xlink" x="0px" y="0px"
	 viewBox="0 0 512 512" style="enable-background:new 0 0 512 512;" xml:space="preserve">
<style type="text/css">
	.st0{fill:#FFAB00;}
</style>
<path class="st0" d="M484.2,23H27.8C12.5,23,0,35.5,0,50.8v100.5c0,4.2,3.4,7.6,7.6,7.6s7.6-3.4,7.6-7.6V50.8
	c0-7,5.7-12.6,12.6-12.6h456.5c7,0,12.6,5.7,12.6,12.6v303c0,7-5.7,12.6-12.6,12.6H327.4c0.5-3.5,0.8-7,0.8-10.6
	c0-3.6-0.3-7.1-0.8-10.6h98.2c4.2,0,7.6-3.4,7.6-7.6c0-19.2,15.6-34.8,34.8-34.8c4.2,0,7.6-3.4,7.6-7.6V166.3c0-4.2-3.4-7.6-7.6-7.6
	s-7.6,3.4-7.6,7.6v121.8c-21.5,3.3-38.6,20.3-41.8,41.8h-95.2c-10.4-27.1-36.7-46.5-67.4-46.5s-57,19.3-67.4,46.5H93.3
	c-3.3-21.5-20.3-38.6-41.8-41.8V116.3C73,113.1,90.1,96,93.3,74.5h325.3c3.3,21.5,20.3,38.6,41.8,41.8V131c0,4.2,3.4,7.6,7.6,7.6
	c4.2,0,7.6-3.4,7.6-7.6v-21.6c0-4.2-3.4-7.6-7.6-7.6c-19.2,0-34.8-15.6-34.8-34.8c0-4.2-3.4-7.6-7.6-7.6H86.3
	c-4.2,0-7.6,3.4-7.6,7.6c0,19.2-15.6,34.8-34.8,34.8c-4.2,0-7.6,3.4-7.6,7.6v185.8c0,4.2,3.4,7.6,7.6,7.6
	c19.2,0,34.8,15.6,34.8,34.8c0,4.2,3.4,7.6,7.6,7.6h98.2c-0.5,3.5-0.8,7-0.8,10.6s0.3,7.1,0.8,10.6H27.8c-7,0-12.6-5.7-12.6-12.6
	V186.5c0-4.2-3.4-7.6-7.6-7.6S0,182.4,0,186.5v167.2c0,15.3,12.5,27.8,27.8,27.8h160.8c2.6,6.7,6.1,12.9,10.4,18.4V481
	c0,2.5,1.3,4.9,3.4,6.3s4.8,1.7,7.1,0.7l46.6-19l46.6,19c0.9,0.4,1.9,0.6,2.9,0.6c1.5,0,3-0.4,4.2-1.3c2.1-1.4,3.4-3.8,3.4-6.3
	v-21.7c0-4.2-3.4-7.6-7.6-7.6c-4.2,0-7.6,3.4-7.6,7.6v10.4l-39-15.9c-1.8-0.7-3.9-0.7-5.7,0l-39,15.9v-55.2
	C225.9,423,240.4,428,256,428s30.1-5,41.9-13.5v9.4c0,4.2,3.4,7.6,7.6,7.6c4.2,0,7.6-3.4,7.6-7.6v-24c4.3-5.6,7.8-11.8,10.4-18.4
	h160.8c15.3,0,27.8-12.5,27.8-27.8v-303C512,35.5,499.5,23,484.2,23z M256,412.8c-31.5,0-57.1-25.6-57.1-57.1s25.6-57.1,57.1-57.1
	s57.1,25.6,57.1,57.1S287.5,412.8,256,412.8z"/>
<path class="st0" d="M322.7,123c4.2,0,7.6-3.4,7.6-7.6s-3.4-7.6-7.6-7.6H189.3c-4.2,0-7.6,3.4-7.6,7.6s3.4,7.6,7.6,7.6H322.7z"/>
<path class="st0" d="M373.1,148.2H138.9c-4.2,0-7.6,3.4-7.6,7.6s3.4,7.6,7.6,7.6h234.3c4.2,0,7.6-3.4,7.6-7.6
	S377.3,148.2,373.1,148.2z"/>
<path class="st0" d="M373.1,188.6H138.9c-4.2,0-7.6,3.4-7.6,7.6s3.4,7.6,7.6,7.6h234.3c4.2,0,7.6-3.4,7.6-7.6
	S377.3,188.6,373.1,188.6z"/>
<path class="st0" d="M373.1,235.1h-36.4c-4.2,0-7.6,3.4-7.6,7.6s3.4,7.6,7.6,7.6h36.4c4.2,0,7.6-3.4,7.6-7.6
	S377.3,235.1,373.1,235.1z"/>
<path class="st0" d="M138.9,235.1c-4.2,0-7.6,3.4-7.6,7.6s3.4,7.6,7.6,7.6h36.4c4.2,0,7.6-3.4,7.6-7.6s-3.4-7.6-7.6-7.6H138.9z"/>
<path class="st0" d="M256,315.9c-22,0-39.9,17.9-39.9,39.9s17.9,39.9,39.9,39.9s39.9-17.9,39.9-39.9S278,315.9,256,315.9z
	 M256,380.5c-13.6,0-24.7-11.1-24.7-24.7c0-13.6,11.1-24.7,24.7-24.7s24.7,11.1,24.7,24.7C280.7,369.4,269.6,380.5,256,380.5z"/>
<path class="st0" d="M230.2,242.6c0,14.2,11.6,25.8,25.8,25.8s25.8-11.6,25.8-25.8s-11.6-25.8-25.8-25.8S230.2,228.4,230.2,242.6z
	 M266.6,242.6c0,5.8-4.8,10.6-10.6,10.6s-10.6-4.8-10.6-10.6S250.2,232,256,232S266.6,236.8,266.6,242.6z"/>
</svg>
