<svg width="29" height="27" viewBox="0 0 29 27" fill="none" xmlns="http://www.w3.org/2000/svg">
<path d="M2.08179 8.40337C4.12579 7.75127 6.17658 7.11518 8.21445 6.44553C9.29205 8.05286 10.6209 9.23533 12.5325 9.76614C13.1749 9.94468 13.8535 10.0377 14.5349 10.0403C15.2163 10.0377 15.8951 9.94468 16.5373 9.76614C18.4489 9.23533 19.778 8.05286 20.8554 6.44553C22.8933 7.11518 24.9443 7.75127 26.988 8.40337C27.0679 8.42881 28.0549 8.74774 28.6118 8.92475C28.8175 8.99033 28.9292 9.2123 28.8593 9.41717C28.4189 10.7062 26.9705 14.9466 26.4971 16.3328C26.4185 16.5627 26.1506 16.6633 25.9406 16.5425L24.7547 15.8592C24.5218 15.725 24.2267 15.8649 24.1827 16.1306L22.5139 26.2117C22.4833 26.3979 22.3224 26.5346 22.1339 26.5346H6.93591C6.74745 26.5346 6.58678 26.3979 6.55592 26.2117L4.88709 16.1306C4.8431 15.8649 4.54803 15.725 4.31513 15.8592L3.1294 16.5425C2.91927 16.6633 2.65135 16.5624 2.57298 16.3328C2.0993 14.9466 0.650904 10.7062 0.210715 9.41717C0.14067 9.2123 0.252305 8.99033 0.458281 8.92475C1.01492 8.74774 2.00212 8.42903 2.08179 8.40337V8.40337Z" fill="#FFC100"/>
<path d="M8.12363 6.49027L14.1315 4.83315V3.70442C14.1131 3.65616 14.1024 3.60396 14.1024 3.54934C14.1024 3.45678 14.1315 3.37124 14.181 3.30083C14.2832 3.15475 14.4073 3.05517 14.5719 3.06372C14.7893 3.07469 15.0084 3.03257 15.1857 2.90579C15.5 2.68141 15.6942 2.29888 15.6513 1.87489C15.5992 1.359 15.1901 0.938957 14.6766 0.875567C13.9973 0.791779 13.4168 1.32083 13.4129 1.98434C13.4114 2.20829 13.2424 2.40328 13.0198 2.42302C12.763 2.44583 12.5476 2.24382 12.5476 1.99136C12.5476 0.846176 13.5175 -0.0763754 14.6772 0.00500037C15.6454 0.0729963 16.434 0.85144 16.515 1.82049C16.5997 2.83319 15.9229 3.70617 14.9966 3.92771V4.83403L20.9646 6.4951C21.1949 6.55915 21.3295 6.79801 21.2656 7.02876C21.2124 7.22068 21.0386 7.34615 20.8491 7.34615C20.8107 7.34615 20.7718 7.3411 20.733 7.33035L14.5636 5.61313L8.33595 7.33057C8.10109 7.3955 7.85855 7.25336 7.80077 7.01472C7.74473 6.78419 7.89533 6.55301 8.12363 6.49027Z" fill="white"/>
<path d="M5.62979 7.2788C6.40576 8.39547 7.42579 9.43712 8.46224 10.3092C9.63505 11.2965 10.9545 12.0118 12.4552 12.3434C13.8761 12.6575 15.2073 12.6544 16.6148 12.3434C18.1155 12.0118 19.4348 11.2965 20.6076 10.3092C21.6443 9.43712 22.6641 8.39525 23.4403 7.2788C22.5772 7.00462 21.7152 6.72803 20.8552 6.44574C19.7778 8.05264 18.4491 9.23533 16.5375 9.76635C15.8949 9.9449 15.2161 10.0377 14.5351 10.0403C13.8539 10.0377 13.1752 9.9449 12.5325 9.76635C10.6209 9.23533 9.29227 8.05286 8.21489 6.44574C7.35487 6.72803 6.49288 7.00462 5.62979 7.2788Z" fill="#FFC100"/>
</svg>
