<svg width="25" height="24" viewBox="0 0 25 24" fill="none" xmlns="http://www.w3.org/2000/svg">
<g clip-path="url(#clip0)">
<path d="M23.3104 3.31034C23.3104 2.85331 22.9406 2.48276 22.4845 2.48276H1.83736C1.38127 2.48276 1.01147 2.85331 1.01147 3.31034V9.93103H1.83736C4.57411 9.93103 6.79266 12.1542 6.79266 14.8965V16.1379C6.79266 19.1088 9.19612 21.5172 12.1609 21.5172C15.1257 21.5172 17.5292 19.1088 17.5292 16.1379V14.8965C17.5292 12.1542 19.7477 9.93103 22.4845 9.93103H23.3104V3.31034Z" fill="#FFC100"/>
<path d="M6.79266 16.1379V14.8965C6.79266 12.1542 4.57411 9.93103 1.83736 9.93103H1.01147V10.3448C1.01147 16.5151 6.00328 21.5172 12.1609 21.5172C9.19692 21.5154 6.79448 19.108 6.79266 16.1379Z" fill="white"/>
<path d="M17.5292 14.8965V16.1379C17.5292 19.1088 15.1257 21.5172 12.1609 21.5172C18.3186 21.5172 23.3104 16.5151 23.3104 10.3448V9.93103H22.4845C19.7477 9.93103 17.5292 12.1542 17.5292 14.8965Z" fill="white"/>
<path d="M5.1409 7.03448C5.1409 6.34894 4.58621 5.79311 3.90207 5.79311H1.01148C0.555386 5.79311 0.185593 6.16366 0.185593 6.62069V7.44828C0.185593 7.90531 0.555386 8.27586 1.01148 8.27586H3.90207C4.58621 8.27586 5.1409 7.72003 5.1409 7.03448Z" fill="white"/>
<path d="M5.1409 7.03448C5.1409 6.34894 4.58621 5.79311 3.90207 5.79311H1.01148C0.555386 5.79311 0.185593 6.16366 0.185593 6.62069V7.44828C0.185593 7.90531 0.555386 8.27586 1.01148 8.27586H3.90207C4.58621 8.27586 5.1409 7.72003 5.1409 7.03448Z" fill="white"/>
<path d="M23.3104 5.79311H20.4198C19.7356 5.79311 19.1809 6.34894 19.1809 7.03448C19.1809 7.72003 19.7356 8.27586 20.4198 8.27586H23.3104C23.7664 8.27586 24.1362 7.90531 24.1362 7.44828V6.62069C24.1362 6.16366 23.7664 5.79311 23.3104 5.79311Z" fill="white"/>
</g>
<defs>
<clipPath id="clip0">
<rect x="0.185593" width="23.9506" height="24" fill="white"/>
</clipPath>
</defs>
</svg>
