<svg width="26" height="25" viewBox="0 0 26 25" fill="none" xmlns="http://www.w3.org/2000/svg">
<g clip-path="url(#clip0)">
<path d="M20.3601 9.93688C19.8706 10.1764 19.337 10.3767 18.7692 10.5272C18.7272 10.5385 18.6849 10.5489 18.6427 10.5596C17.4279 10.8638 16.2415 10.8921 15.2195 10.6905C13.6751 10.3849 12.5074 9.55369 12.1901 8.35245C11.7713 6.76725 12.9564 5.00887 14.9797 3.92569C15.2369 3.78855 15.4499 3.59076 15.6048 3.35368C15.7594 3.11774 15.8559 2.84251 15.8795 2.55183C15.9577 1.59072 15.2715 0.735087 14.3169 0.608249C13.0085 0.433536 11.1097 0.345226 9.23481 0.842661C2.93639 2.51349 -0.7888 9.15296 0.792943 15.4863C2.44054 22.0828 9.15029 26.0333 15.6887 24.2898C21.0589 22.8582 24.6527 17.9651 24.7026 12.6283C24.703 12.5856 24.702 12.5383 24.6992 12.486C24.5817 10.3384 22.2894 8.99293 20.3601 9.93688ZM19.8445 17.3528C18.9049 17.6021 17.9426 17.0415 17.6942 16.1006C17.4454 15.1592 18.0048 14.1948 18.9443 13.9457C19.8833 13.6966 20.8457 14.2572 21.0943 15.1987C21.3428 16.1394 20.7834 17.1037 19.8445 17.3528Z" fill="#FFC100"/>
<path d="M16.6961 20.0346C16.6961 21.2236 15.7343 22.1874 14.5477 22.1874C13.3611 22.1874 12.3993 21.2236 12.3993 20.0346C12.3993 18.8456 13.3611 17.8816 14.5477 17.8816C15.7343 17.8816 16.6961 18.8456 16.6961 20.0346Z" fill="#C251C0"/>
<path d="M10.6598 18.5364C10.6598 19.7254 9.69782 20.6892 8.51141 20.6892C7.32481 20.6892 6.36282 19.7254 6.36282 18.5364C6.36282 17.3473 7.32481 16.3834 8.51141 16.3834C9.69782 16.3834 10.6598 17.3473 10.6598 18.5364Z" fill="#C251C0"/>
<path d="M7.08878 13.2845C7.08878 14.4735 6.12698 15.4373 4.94038 15.4373C3.75379 15.4373 2.79179 14.4735 2.79179 13.2845C2.79179 12.0954 3.75379 11.1315 4.94038 11.1315C6.12698 11.1315 7.08878 12.0954 7.08878 13.2845Z" fill="white"/>
<path d="M8.88239 7.21722C8.88239 8.40626 7.9204 9.37023 6.7338 9.37023C5.5472 9.37023 4.5854 8.40626 4.5854 7.21722C4.5854 6.02818 5.5472 5.06439 6.7338 5.06439C7.9204 5.06439 8.88239 6.02818 8.88239 7.21722Z" fill="white"/>
<path d="M23.4129 9.79877L23.0516 14.442L22.2845 24.2946C22.2693 24.4936 22.1363 24.6704 21.9322 24.7974C21.7285 24.9244 21.4524 25.0013 21.1505 25C20.5469 24.9975 20.0505 24.6828 20.0231 24.2851L19.3388 14.4264L19.0164 9.78027L23.4129 9.79877Z" fill="white"/>
<path d="M23.0516 14.442L23.4129 9.79877L20.2563 9.78561L19.0162 9.78027L19.339 14.4264L20.4923 14.4312L23.0516 14.442Z" fill="white"/>
<path d="M19.0162 9.7805C17.0043 8.87432 16.793 5.84354 18.5923 4.0556C20.3916 2.26765 21.18 1.20773 21.185 0C21.185 0 27.6698 6.65493 23.4129 9.799L19.0162 9.7805Z" fill="white"/>
<path d="M20.8367 9.78794L19.0162 9.78031C17.0045 8.87394 16.793 5.84316 18.5923 4.05598C20.3918 2.26784 21.18 1.20754 21.185 0C21.8362 3.59573 18.2248 5.72529 20.8367 9.78794Z" fill="white"/>
<path d="M20.4923 14.4312L20.2563 9.78561L19.0162 9.78027L19.339 14.4264L20.4923 14.4312Z" fill="white"/>
</g>
<defs>
<clipPath id="clip0">
<rect x="0.185593" width="24.9486" height="25" fill="white"/>
</clipPath>
</defs>
</svg>
