<svg width="24" height="24" viewBox="0 0 24 24" fill="none" xmlns="http://www.w3.org/2000/svg">
<path fill-rule="evenodd" clip-rule="evenodd" d="M12 2.1615C15.2047 2.1615 15.5837 2.1738 16.8491 2.23079C18.0191 2.28415 18.6544 2.47954 19.0773 2.64394C19.5985 2.83628 20.0699 3.14295 20.457 3.54142C20.8554 3.9287 21.162 4.40034 21.3542 4.92167C21.5186 5.34452 21.7139 5.97973 21.7673 7.14952C21.8252 8.41407 21.8366 8.7943 21.8366 11.9979C21.8366 15.2015 21.8245 15.5811 21.7673 16.8463C21.7139 18.0161 21.5186 18.6515 21.3542 19.0742C21.1545 19.5916 20.8487 20.0616 20.4565 20.4538C20.0642 20.846 19.5943 21.1517 19.0768 21.3514C18.6539 21.5156 18.0185 21.7112 16.8486 21.7645C15.584 21.8222 15.2038 21.8338 11.9995 21.8338C8.79516 21.8338 8.41562 21.8215 7.15056 21.7645C5.9806 21.7112 5.34521 21.5156 4.92237 21.3514C4.40505 21.1517 3.93526 20.8459 3.54319 20.4537C3.15112 20.0616 2.84545 19.5917 2.64584 19.0743C2.48145 18.6517 2.28605 18.0163 2.2327 16.8465C2.17502 15.582 2.16341 15.2017 2.16341 11.9981C2.16341 8.79447 2.17571 8.41493 2.2327 7.14969C2.28553 5.97991 2.4811 5.34452 2.64584 4.92167C2.83822 4.40052 3.14495 3.92911 3.54349 3.54211C3.93044 3.14354 4.40179 2.83675 4.92289 2.64428C5.34573 2.47989 5.98112 2.28449 7.15108 2.23114C8.41563 2.17346 8.79672 2.16185 12 2.16185V2.1615ZM12 0C8.74112 0 8.33248 0.013858 7.05252 0.0722349C6.05699 0.0922002 5.07205 0.280801 4.13956 0.63002C3.33887 0.931274 2.61352 1.40355 2.01409 2.01392C1.40368 2.61321 0.931344 3.33844 0.63002 4.13904C0.280787 5.07134 0.0921853 6.05611 0.0722349 7.05148C0.013858 8.33126 0 8.73973 0 11.9984C0 15.2572 0.013858 15.6656 0.0722349 16.9454C0.0921853 17.9408 0.280787 18.9255 0.63002 19.8578C0.93837 20.6549 1.40983 21.3787 2.01418 21.983C2.61854 22.5873 3.34246 23.0586 4.13956 23.3669C5.07202 23.7162 6.05698 23.9048 7.05252 23.9246C8.33248 23.983 8.74112 23.9969 12 23.9969C15.2589 23.9969 15.6677 23.983 16.9477 23.9246C17.9431 23.9048 18.928 23.7162 19.8604 23.3669C20.6576 23.0586 21.3815 22.5873 21.9858 21.983C22.5902 21.3788 23.0616 20.6549 23.37 19.8578C23.7193 18.9256 23.9079 17.9408 23.9278 16.9454C23.9861 15.6656 24 15.257 24 11.9984C24 8.7399 23.9861 8.33126 23.9278 7.05148C23.9079 6.05611 23.7193 5.07132 23.37 4.13904C23.0687 3.33844 22.5963 2.6132 21.9859 2.01392C21.3865 1.40351 20.6612 0.931234 19.8604 0.63002C18.928 0.280804 17.9431 0.092203 16.9477 0.0722349C15.6677 0.013858 15.2591 0 12 0ZM12 5.83769C10.7814 5.83786 9.59028 6.19937 8.57716 6.87651C7.56405 7.55364 6.77448 8.51599 6.30829 9.64186C5.84211 10.7677 5.72025 12.0066 5.95813 13.2017C6.196 14.3968 6.78292 15.4946 7.64468 16.3561C8.50643 17.2177 9.60432 17.8044 10.7995 18.042C11.9947 18.2796 13.2335 18.1574 14.3592 17.691C15.485 17.2246 16.4472 16.4348 17.1241 15.4215C17.801 14.4082 18.1622 13.217 18.1621 11.9984C18.1621 11.1892 18.0027 10.388 17.6931 9.64034C17.3834 8.89274 16.9295 8.21345 16.3573 7.64127C15.7851 7.06909 15.1057 6.61523 14.3581 6.30559C13.6105 5.99595 12.8092 5.8366 12 5.83665V5.83769ZM12 15.9986C11.209 15.9984 10.4359 15.7638 9.7783 15.3242C9.12071 14.8847 8.6082 14.2601 8.30558 13.5293C8.00296 12.7986 7.92381 11.9945 8.07815 11.2187C8.23249 10.443 8.61339 9.7304 9.17268 9.17111C9.73196 8.61183 10.4445 8.23093 11.2203 8.07659C11.996 7.92225 12.8001 8.0014 13.5309 8.30402C14.2617 8.60664 14.8863 9.11915 15.3258 9.77674C15.7653 10.4343 16 11.2075 16.0001 11.9984C15.9999 13.0592 15.5784 14.0764 14.8282 14.8264C14.0781 15.5763 13.0607 15.9976 12 15.9975V15.9986ZM19.8457 5.59431C19.8458 5.87912 19.7613 6.15755 19.6031 6.39439C19.4449 6.63122 19.22 6.81582 18.9569 6.92484C18.6938 7.03385 18.4042 7.0624 18.1249 7.00685C17.8455 6.95131 17.5889 6.81417 17.3875 6.61279C17.1861 6.41141 17.0489 6.15482 16.9934 5.87548C16.9378 5.59614 16.9663 5.30659 17.0753 5.04345C17.1843 4.78031 17.3688 4.5554 17.6056 4.39716C17.8425 4.23892 18.1209 4.15446 18.4057 4.15446C18.7874 4.15441 19.1535 4.30595 19.4236 4.57575C19.6936 4.84556 19.8454 5.21155 19.8457 5.59327V5.59431Z" fill="#C251C0"/>
</svg>
