<svg width="17" height="29" viewBox="0 0 17 29" fill="none" xmlns="http://www.w3.org/2000/svg">
<path fill-rule="evenodd" clip-rule="evenodd" d="M8.40147 14.9668C9.88149 14.9663 11.3281 14.5269 12.5584 13.7043C13.7887 12.8816 14.7475 11.7126 15.3135 10.3451C15.8794 8.97755 16.0272 7.47291 15.738 6.02141C15.4489 4.56991 14.7358 3.23675 13.689 2.19049C12.6422 1.14423 11.3087 0.431857 9.85705 0.143457C8.40541 -0.144944 6.90084 0.0035761 5.53361 0.570237C4.16637 1.1369 2.99786 2.09625 2.17583 3.32699C1.3538 4.55773 0.91517 6.00458 0.915404 7.48459C0.917711 9.46896 1.70728 11.3713 3.1108 12.7741C4.51432 14.1769 6.4171 14.9655 8.40147 14.9668ZM8.40147 4.38555C9.01419 4.38578 9.61308 4.56767 10.1224 4.90822C10.6318 5.24878 11.0287 5.7327 11.2631 6.29882C11.4975 6.86494 11.5587 7.48784 11.4392 8.08877C11.3196 8.6897 11.0245 9.24169 10.5912 9.67494C10.158 10.1082 9.60599 10.4033 9.00506 10.5229C8.40413 10.6425 7.78123 10.5812 7.21511 10.3468C6.64899 10.1125 6.16506 9.71551 5.82451 9.20615C5.48396 8.69679 5.30207 8.0979 5.30183 7.48519C5.30254 6.66333 5.62933 5.87533 6.21047 5.29419C6.79162 4.71304 7.57961 4.38625 8.40147 4.38555ZM11.4298 21.0724C12.9698 20.7215 14.4394 20.1129 15.7767 19.2724C16.266 18.9611 16.6122 18.4687 16.7395 17.9029C16.8668 17.3371 16.7648 16.7439 16.4559 16.2531C16.1471 15.7623 15.6564 15.4137 15.0912 15.2837C14.526 15.1536 13.9323 15.2527 13.44 15.5592C11.929 16.5038 10.1829 17.0048 8.40088 17.0048C6.61887 17.0048 4.87275 16.5038 3.36176 15.5592C2.86935 15.2493 2.27404 15.1478 1.70678 15.2769C1.13952 15.406 0.646776 15.7552 0.336951 16.2476C0.0271275 16.74 -0.0744007 17.3353 0.054702 17.9025C0.183805 18.4698 0.532962 18.9625 1.02537 19.2724C2.36268 20.1125 3.83216 20.7211 5.37194 21.0724L1.18714 25.2567C0.775943 25.6682 0.545039 26.2261 0.545218 26.8078C0.545399 27.3895 0.776648 27.9473 1.1881 28.3585C1.59955 28.7697 2.15749 29.0006 2.73919 29.0004C3.32088 29.0003 3.87868 28.769 4.28987 28.3576L8.40059 24.2457L12.5147 28.3576C12.9281 28.7577 13.4823 28.9793 14.0576 28.9746C14.6329 28.9698 15.1834 28.7391 15.5901 28.3322C15.9969 27.9253 16.2274 27.3748 16.2319 26.7994C16.2365 26.2241 16.0146 25.67 15.6143 25.2567L11.4298 21.0724Z" fill="#C251C0"/>
</svg>
