<svg width="30" height="18" viewBox="0 0 30 18" fill="none" xmlns="http://www.w3.org/2000/svg">
<path fill-rule="evenodd" clip-rule="evenodd" d="M14.6783 17.0407H16.4712C16.4712 17.0407 17.0128 16.981 17.2897 16.683C17.5442 16.4093 17.536 15.8956 17.536 15.8956C17.536 15.8956 17.5011 13.4899 18.6174 13.1354C19.7185 12.7863 21.1322 15.4604 22.6303 16.489C23.7634 17.267 24.6241 17.0967 24.6241 17.0967L28.6306 17.0407C28.6306 17.0407 30.7264 16.9112 29.7325 15.264C29.6511 15.1292 29.1531 14.0453 26.7536 11.8177C24.2413 9.4864 24.5781 9.86346 27.6042 5.83069C29.4469 3.3746 30.1837 1.87558 29.953 1.23357C29.7338 0.621777 28.378 0.783219 28.378 0.783219L23.8672 0.811249C23.6671 0.787524 23.4645 0.823251 23.2847 0.91397C23.1134 1.03921 22.9765 1.2057 22.8868 1.39799C22.4195 2.60995 21.8626 3.78542 21.2207 4.91465C19.2121 8.32483 18.4087 8.50553 18.0805 8.29351C17.3166 7.79963 17.5075 6.31094 17.5075 5.25303C17.5075 1.94761 18.0086 0.569633 16.5312 0.212924C16.0409 0.0945436 15.6797 0.0165626 14.4255 0.00356578C12.816 -0.0120931 11.454 0.00857645 10.6831 0.386581C10.1701 0.637122 9.77392 1.19755 10.0152 1.22997C10.3127 1.26943 10.9884 1.41192 11.3462 1.89891C11.8086 2.52777 11.7923 3.93988 11.7923 3.93988C11.7923 3.93988 12.0585 7.83048 11.1719 8.31371C10.5639 8.64521 9.72992 7.96921 7.93902 4.87425C7.33126 3.79774 6.79352 2.68319 6.32914 1.53751C6.2465 1.343 6.11907 1.17077 5.95724 1.03486C5.74752 0.895807 5.51182 0.800672 5.26434 0.75519L0.977574 0.783063C0.977574 0.783063 0.334308 0.80107 0.0980167 1.08058C-0.112282 1.33003 0.0812616 1.84411 0.0812616 1.84411C0.0812616 1.84411 3.43695 9.69451 7.23735 13.6509C10.7222 17.2784 14.6786 17.0404 14.6786 17.0404L14.6783 17.0407Z" fill="#C251C0"/>
</svg>
