<svg width="33" height="24" viewBox="0 0 33 24" fill="none" xmlns="http://www.w3.org/2000/svg">
<path fill-rule="evenodd" clip-rule="evenodd" d="M32.439 4.48165C32.2568 3.65403 31.822 2.90342 31.1949 2.33346C30.5678 1.7635 29.7791 1.40232 28.9379 1.29978C24.9216 0.851078 20.8574 0.849106 16.8095 0.851078C12.7618 0.849106 8.69613 0.851078 4.68011 1.29946C3.83903 1.40201 3.05056 1.76325 2.42366 2.33326C1.79675 2.90328 1.36235 3.65392 1.18049 4.48148C0.615454 6.93533 0.609375 9.61163 0.609375 12.1374C0.609375 14.6632 0.609375 17.34 1.17293 19.7939C1.35511 20.6215 1.78976 21.372 2.41686 21.9419C3.04395 22.5118 3.83254 22.873 4.6737 22.9754C8.68956 23.4236 12.7552 23.4261 16.8026 23.4236C20.8498 23.4261 24.9152 23.4236 28.9312 22.9751C29.7724 22.8727 30.5612 22.5116 31.1884 21.9417C31.8155 21.3717 32.2503 20.6211 32.4324 19.7934C32.9963 17.34 32.9999 14.6631 32.9999 12.1369C32.9999 9.61081 33.0027 6.93533 32.439 4.48165ZM13.4075 16.5524V7.57249L21.9707 12.0615L13.4075 16.5524Z" fill="#C251C0"/>
</svg>
