<?xml version="1.0" encoding="utf-8"?>
<!-- Generator: Adobe Illustrator 17.1.0, SVG Export Plug-In . SVG Version: 6.00 Build 0)  -->
<!DOCTYPE svg PUBLIC "-//W3C//DTD SVG 1.1//EN" "http://www.w3.org/Graphics/SVG/1.1/DTD/svg11.dtd">
<svg version="1.1" id="Layer_1" xmlns="http://www.w3.org/2000/svg" xmlns:xlink="http://www.w3.org/1999/xlink" x="0px" y="0px"
	 viewBox="0 0 1080 1080" enable-background="new 0 0 1080 1080" xml:space="preserve">
<path fill="#222222" d="M329.1,0H751c46.4,0,84.4,38,84.4,84.4v911.2c0,46.4-38,84.4-84.4,84.4H329.1c-46.4,0-84.4-38-84.4-84.4
	V84.4C244.7,38,282.7,0,329.1,0z"/>
<path fill="#E4E7E7" d="M312.2,151.9h455.6c9.3,0,16.9,7.6,16.9,16.9v742.5c0,9.3-7.6,16.9-16.9,16.9H312.2
	c-9.3,0-16.9-7.6-16.9-16.9V168.7C295.3,159.5,302.9,151.9,312.2,151.9z"/>
<path fill="#BFC3C5" d="M540,961.9c23.6,0,42.2,18.6,42.2,42.2s-18.6,42.2-42.2,42.2c-23.6,0-42.2-18.6-42.2-42.2
	C497.8,980.4,516.4,961.9,540,961.9z M489.4,59.1h101.3c9.3,0,16.9,7.6,16.9,16.9s-7.6,16.9-16.9,16.9H489.4
	c-9.3,0-16.9-7.6-16.9-16.9S480.1,59.1,489.4,59.1z"/>
</svg>
