<?xml version="1.0" encoding="utf-8"?>
<!-- Generator: Adobe Illustrator 17.1.0, SVG Export Plug-In . SVG Version: 6.00 Build 0)  -->
<!DOCTYPE svg PUBLIC "-//W3C//DTD SVG 1.1//EN" "http://www.w3.org/Graphics/SVG/1.1/DTD/svg11.dtd">
<svg version="1.1" id="Слой_1" xmlns="http://www.w3.org/2000/svg" xmlns:xlink="http://www.w3.org/1999/xlink" x="0px" y="0px"
	 viewBox="20.9 -39.9 1071.4 1160.4" enable-background="new 20.9 -39.9 1071.4 1160.4" xml:space="preserve">
<g id="Слой_2_1_">
	<polygon fill="#FFFFFF" points="805.5,107.9 556.6,-19.9 556.6,-19.8 298,107.9 39.3,233.6 139.7,1018.8 556.6,1100.7 
		556.6,1100.5 973.4,1018.6 1073.8,233.4 	"/>
</g>
<path fill="#222222" d="M814.4,92.5L556.6-39.9v0.2L288.8,92.5L20.9,222.7l104,813.2l431.7,84.8v-0.2l431.7-84.8l104-813.2
	L814.4,92.5z M966.5,1010.7l-409.9,80.5v0.2l-409.9-80.5L48,238.7l254.4-123.6L556.6-10.4v-0.2l244.8,125.7l263.8,123.4
	L966.5,1010.7z"/>
<g id="Слой_1_1_">
	<g>
		<path fill="#4CC9AB" d="M206.8,927.4c0,0,10.9-0.9,30.1-2.3c9.5-0.7,21.2-1.4,34.4-2.4c13.4-0.9,28.4-1.9,44.8-2.9
			c16.4-1,34.1-2,53-3.2c18.9-1.2,38.6-2.2,59-3.3s41.6-2.3,63.2-3.3c21.6-1,43.3-2,65.2-2.9c10.9-0.4,21.9-1,32.7-1.7
			c10.8-0.7,21.7-1.4,32.5-2.3c10.8-0.7,21.5-1.4,32-2s21-0.9,31.2-1c20.4-0.1,40.3,0.6,59,2c9.4,0.6,18.6,1.4,27.4,2.2
			c8.9,0.9,17.4,1.6,25.6,2.7c16.4,1.9,31.4,4,44.8,6.2c13.4,2.2,24.9,4.5,34.4,6.5c19.2,4,30.1,7.5,30.1,7.5v5.8
			c0,0-10.9,3.5-30.1,7.5c-9.5,2-21.2,4.3-34.4,6.5c-13.4,2.2-28.4,4.5-44.8,6.3c-8.2,1-16.7,1.7-25.6,2.7c-8.9,0.7-18,1.6-27.4,2.2
			c-18.9,1.4-38.6,2.2-59,2c-10.2-0.1-20.6-0.4-31.2-0.9c-10.5-0.6-21.2-1.3-32-2c-10.8-0.7-21.6-1.6-32.5-2.2
			c-10.8-0.7-21.7-1.3-32.7-1.7c-21.9-1-43.8-1.9-65.2-2.9c-21.6-0.9-42.6-2.2-63.2-3.2c-20.4-1.2-40.3-2.2-59-3.3s-36.6-2.2-53-3.2
			c-16.4-1-31.4-2-44.8-2.9c-13.4-0.9-24.9-1.7-34.4-2.3c-19.2-1.4-30.1-2.2-30.1-2.2V927.4z"/>
	</g>
	<g>
		<g>
			<g>
				<polygon fill="#010101" points="640.4,172.7 649.2,237.7 625.4,176.8 				"/>
			</g>
			<g>
				<path fill="#010101" d="M699.1,253.4c0,0,2.9,8.5,6.6,21.2c2.2,6.5,4.3,13.8,6.6,21.6c2.4,8.1,4.8,16.4,7.2,25.1
					c1.2,4.3,2.6,8.5,3.7,12.7c1.2,4,2.6,8.4,3.6,12.4c1.9,8.1,2.6,15.7,3,22.3c0.3,3.3,0.3,6.5,0.3,9.2s0,5.2-0.3,7.2
					c-0.3,4-0.7,6.5-0.7,6.5l-1.7,0.3c0,0-1.2-2.2-3.3-5.5c-1-1.9-2.2-3.7-3-6.5c-1.2-2.6-2.4-5.5-3.6-8.5c-2.4-6.2-5-13.8-6.6-21.6
					c-0.7-4-1.7-8.4-2.2-12.7c-0.4-4.3-1-8.8-1.9-13.1c-1.2-8.8-2.9-17.6-3.7-25.9c-1.2-8.4-2.4-16-3-22.3
					c-1.9-13.1-2.9-21.9-2.9-21.9L699.1,253.4z"/>
			</g>
			<g>
				<path fill="#010101" d="M729.7,392c0,0-0.3,12.1-1.2,30.5c-0.4,9.1-0.7,20-1.7,31.1c-0.4,11.4-1.2,23.6-2.2,35.7
					c-0.3,6.2-0.4,12.1-0.7,18.1c-0.3,5.9-0.4,12-1,17.6c-1.2,11.4-3,21.9-5.2,30.7c-1,4.3-2.2,8.5-3,12.1c-1,3.6-1.9,6.6-2.9,9.2
					c-1.7,5.2-2.9,8.1-2.9,8.1l-1.7-0.3c0,0-0.4-3-1-8.5c-0.3-2.6-0.4-5.9-0.7-9.8c-0.3-3.6-0.3-8.1-0.3-12.7c0-9.2,0.3-20,1.7-31.1
					c0.7-5.8,1.7-11.4,2.6-17.4c1-5.9,2.2-12,3-17.9c1.9-12.1,3.6-24,5.5-35.4c1.9-11.4,3.6-21.6,5.2-30.7c3-18.1,5.2-30,5.2-30
					L729.7,392z"/>
			</g>
			<g>
				<path fill="#010101" d="M753,585.3c0,0,2.2,5.2,5,12.8c1.2,3.7,3,8.5,4.8,13.1c1.9,5,3.3,9.9,5.2,15.3c0.7,2.6,1.9,5.2,2.9,7.9
					c1,2.6,1.9,5,2.6,7.3c1,5,1.2,9.8,1.2,14.1c0,2.2-0.3,4-0.4,5.9c-0.3,1.9-0.4,3.3-0.7,4.8c-0.3,1.2-0.4,2.4-0.7,3
					c-0.3,0.6-0.3,1-0.3,1l-1.7,0.3c0,0-0.3-0.3-0.7-0.7c-0.4-0.4-1.2-1.2-2.2-2.4c-0.7-1-1.9-2.4-2.6-3.7c-1-1.7-1.9-3-2.9-5.2
					c-1.9-3.7-3.7-8.4-5-13.1c-0.4-2.6-0.7-5.2-1-7.9c-0.3-2.6-0.4-5.5-0.7-8.4c-0.7-5.5-1.2-10.9-1.9-16c-0.4-5.2-1-9.8-1.2-14.1
					c-0.7-8.4-1-13.8-1-13.8L753,585.3z"/>
			</g>
			<g>
				<polygon fill="#010101" points="632.7,182.7 492.6,174.9 632.7,167 				"/>
			</g>
			<g>
				<polygon fill="#010101" points="500,176.8 476.2,237.7 485,172.7 				"/>
			</g>
			<g>
				<path fill="#010101" d="M698.4,252.4c0,0-1,0.3-3,0.4c-2,0.1-5,0.7-8.5,1c-7.3,1-18.1,2.2-30.7,3c-12.7,1-27.6,2.2-43.5,2.6
					c-8.1,0.3-16.1,0.4-24.5,0.7c-8.4,0.3-16.8,0.3-25.2,0.3c-8.5,0-17.1,0-25.2,0c-8.4,0-16.4-0.3-24.5-0.4
					c-16-0.4-30.7-1.2-43.5-2.2c-12.7-1-23.6-2.2-30.7-2.9c-3.6-0.3-6.6-0.7-8.5-1c-2.2-0.3-3-0.4-3-0.4s1-0.3,3-0.4
					c2.2-0.3,5-0.7,8.5-1c7.3-1,18.1-2.2,30.7-3c12.7-1,27.6-2.2,43.5-2.6c8.1-0.3,16.1-0.4,24.5-0.7s16.8-0.3,25.2-0.3
					c8.5,0,17.1,0,25.2,0c8.4,0,16.4,0.3,24.5,0.4c16,0.4,30.7,1.2,43.5,2.2c12.7,1,23.6,2.2,30.7,2.9c3.6,0.3,6.6,0.7,8.5,1
					C697.3,252.4,698.4,252.4,698.4,252.4z"/>
			</g>
			<g>
				<path fill="#010101" d="M427.1,253.8c0,0-1,8.8-2.9,21.9c-0.7,6.6-1.9,14.3-3,22.3c-1,8.4-2.6,17.1-3.7,25.9
					c-0.7,4.3-1.2,8.8-1.9,13.1c-0.4,4.3-1,8.5-1.9,12.7c-1.9,8.1-4,15.4-6.6,21.6c-1.2,3-2.4,5.9-3.6,8.5c-1,2.6-2.4,4.8-3,6.5
					c-1.9,3.6-3.3,5.5-3.3,5.5l-1.7-0.3c0,0-0.4-2.4-0.7-6.5c0.3-2.2,0.3-4.3,0.3-7.2s0-5.9,0.3-9.2c0.4-6.6,1.2-14.5,3-22.3
					c1-4,2.2-8.4,3.6-12.4c1.2-4,2.6-8.5,3.7-12.7c2.4-8.5,4.8-17.1,7.2-25.1c2.4-8.1,4.8-15.4,6.5-21.6c3.7-12.7,6.6-21.2,6.6-21.2
					L427.1,253.8z"/>
			</g>
			<g>
				<path fill="#010101" d="M397.2,391.9c0,0,2.4,12,5.2,30c1.7,9.1,3.3,19.6,5.2,30.7c1.9,11.4,3.6,23.3,5.5,35.4
					c1,5.9,1.9,12.1,3,17.9c1,5.9,2.2,11.7,2.6,17.4c1.2,11.4,1.7,21.9,1.7,31.1c0,4.8-0.3,8.8-0.3,12.7c-0.3,3.7-0.4,6.9-0.7,9.8
					c-0.4,5.5-1,8.5-1,8.5l-1.7,0.3c0,0-1.2-2.9-2.9-8.1c-0.7-2.6-1.9-5.8-2.9-9.2c-1-3.6-2.2-7.9-3-12.1
					c-2.2-9.1-3.7-19.3-5.2-30.7c-0.4-5.8-0.7-11.7-1-17.6c-0.3-5.9-0.4-12.1-0.7-18.1c-0.7-12.1-1.7-24.3-2.2-35.7
					c-0.7-11.4-1-21.9-1.7-31.1c-0.7-18.3-1.2-30.5-1.2-30.5L397.2,391.9z"/>
			</g>
			<g>
				<path fill="#010101" d="M752.3,585.3c0,0-1.7,0.3-4,0.4c-2.9,0.3-6.9,0.7-12.1,1c-10.2,0.7-25.1,2.2-42.8,2.9
					c-17.9,1-38.6,1.9-60.6,2.4c-11.2,0.3-22.3,0.4-34.3,0.7c-11.7,0.3-23.6,0.3-35.4,0.3c-12,0-23.8,0-35.4-0.3
					c-11.7,0-23.3-0.3-34.3-0.4c-22.2-0.4-42.8-1.2-60.6-2.4c-17.9-1.2-32.5-2.2-42.8-2.9c-5.2-0.4-9.2-0.7-12.1-1s-4-0.4-4-0.4
					s1.7-0.3,4-0.4c2.9-0.3,6.9-0.7,12.1-1c10.2-0.7,25.1-2.2,42.8-2.9c17.9-1,38.6-1.9,60.6-2.4c11.2-0.3,22.3-0.4,34.3-0.4
					c11.7-0.3,23.6-0.3,35.4-0.3c12,0,23.8,0,35.4,0.3c11.7,0.3,23.3,0.3,34.3,0.7c22.2,0.4,42.8,1.2,60.6,2.4
					c17.9,1.2,32.5,2.2,42.8,2.9c5.2,0.4,9.2,0.7,12.1,1C750.5,585.3,752.3,585.3,752.3,585.3z"/>
			</g>
			<g>
				<path fill="#010101" d="M374.1,585.6c0,0-0.3,5.5-1,13.8c-0.3,4-0.7,9.1-1.2,14.1c-0.4,5.2-1.2,10.7-2.2,16
					c-0.3,2.9-0.4,5.5-0.7,8.4c-0.3,2.9-0.4,5.5-1,7.9c-1,5-3,9.5-5,13.1c-1,1.9-1.9,3.6-2.9,5.2c-1,1.7-1.9,2.9-2.6,3.7
					c-0.7,1-1.7,1.9-2.2,2.4c-0.4,0.4-0.7,0.7-0.7,0.7l-1.7-0.3c0,0,0-0.3-0.3-1c-0.3-0.7-0.4-1.9-0.7-3s-0.4-2.9-0.7-4.8
					c-0.3-1.9-0.3-3.6-0.4-5.9c0-4,0-9.1,1.2-14.1c0.4-2.6,1.7-5,2.6-7.3c1-2.6,2.2-5.2,2.9-7.9c1.9-5.2,3.3-10.2,5.2-15.3
					c1.9-5,3.3-9.2,5-13.1c2.9-7.9,5-12.8,5-12.8L374.1,585.6z"/>
			</g>
			<g>
				<path fill="#010101" d="M308.6,719.1c0,0,1.9-0.3,5.8-0.4c3.6-0.3,9.1-0.7,15.7-1c6.6-0.4,15-1,24.5-1.2
					c9.5-0.4,20.2-1,31.8-1.7c11.7-0.7,24.3-1,37.3-1.2c13.4-0.3,27.4-0.7,41.9-1s29.5-0.4,44.8-0.7c15.3,0,30.7-0.3,46.2-0.3
					c15.4,0,31,0.3,46.2,0.3s30.2,0.4,44.8,0.7c14.5,0.3,28.5,0.7,41.9,1s25.9,0.7,37.3,1.2c11.7,0.4,22.2,1,31.8,1.7
					c9.5,0.4,17.6,1,24.5,1.7c6.6,0.4,12.1,0.7,15.7,1c3.6,0.3,5.8,0.4,5.8,0.4s-1.9,0.3-5.8,0.4c-3.6,0.3-9.1,0.7-15.7,1
					c-6.6,0.4-15,1-24.5,1.7c-9.5,0.4-20.2,1-31.8,1.7c-11.7,0.4-24.3,1-37.3,1.2c-13.4,0.4-27.4,0.7-41.9,1
					c-14.5,0.3-29.5,0.4-44.8,0.7c-15.3,0-30.7,0.3-46.2,0.3c-15.4,0-31-0.3-46.2-0.3s-30.2-0.4-44.8-0.7s-28.5-0.7-41.9-1
					c-13.4-0.3-25.9-0.7-37.3-1.2c-11.7-0.4-22.2-1-31.8-1.7c-9.5-0.4-17.6-1-24.5-1.2c-6.6-0.4-12.1-0.7-15.7-1
					C310.6,719.4,308.6,719.1,308.6,719.1z"/>
			</g>
			<g>
				<path fill="#010101" d="M354.4,670.2c0,0,2.2,2.6,5,6.6c1.2,2.2,3,4.3,4.8,7.2c1.9,2.6,3.3,5.5,5.2,8.4c0.7,1.2,1.9,2.9,2.9,4
					c1,1.2,1.9,2.6,2.6,4c1.2,2.9,1.2,5.9,1.2,8.5c0,1.2-0.3,2.6-0.3,3.6c-0.3,1-0.4,2.2-0.7,3c-0.3,0.7-0.4,1.7-0.7,2.2
					c-0.3,0.4-0.3,0.7-0.3,0.7l-1.7,0.4c0,0-0.3,0-0.7-0.3s-1-0.4-1.9-1c-0.7-0.4-1.7-1-2.6-1.9c-1-0.7-1.9-1.7-2.9-2.6
					c-1.9-1.9-3.6-4-5-6.9c-0.4-1.7-0.7-3-1-4.8c-0.3-1.7-0.4-3.3-0.7-5c-0.7-3.3-1.7-6.5-2.2-9.5c-0.4-3-1-5.9-1.7-8.5
					c-0.7-5-1-8.4-1-8.4h1.9V670.2z"/>
			</g>
			<g>
				<path fill="#010101" d="M772,670.8c0,0-0.3,3.3-1,8.4c-0.4,2.6-0.7,5.5-1.7,8.5c-0.4,3-1.2,6.2-2.2,9.5c-0.3,1.7-0.4,3.3-0.7,5
					s-0.4,3.3-1,4.8c-1,2.9-2.9,5.2-5,6.9c-1,1-1.9,1.9-2.9,2.6c-1,0.7-1.9,1.2-2.6,1.9c-0.7,0.4-1.7,0.7-1.9,1
					c-0.4,0.3-0.7,0.3-0.7,0.3l-1.7-0.4c0,0,0-0.3-0.3-0.7c-0.3-0.4-0.4-1.2-0.7-2.2c-0.3-0.7-0.4-1.9-0.7-3c-0.3-1-0.3-2.4-0.3-3.6
					c0-2.6,0.3-5.8,1.2-8.5c0.4-1.2,1.7-2.9,2.6-4c1-1.2,1.9-2.9,2.9-4c1.9-2.9,3.3-5.8,5.2-8.4c1.7-2.6,3.3-5.2,4.8-7.2
					c2.9-4,5-6.6,5-6.6h1.9V670.8z"/>
			</g>
		</g>
		<g>
			<polygon fill="#4CC9AB" points="626.3,243.4 498.8,243.4 502.3,177 626.3,183.4 			"/>
			<rect x="451.9" y="262.2" fill="#4CC9AB" width="221.3" height="312.6"/>
			<rect x="401.9" y="594.8" fill="#4CC9AB" width="321" height="114.5"/>
		</g>
	</g>
	<g>
		<path fill="#222222" d="M207.2,920.1v-10.8c1-0.1,2.7-0.3,5-0.6c2.3-0.3,4-0.4,5-0.6v-61.1c-3.6-0.1-6.9-0.6-10.1-1v-10.8
			c15.1-1.9,30.1-1.9,45.2,0v10.8c-3.3,0.6-6.6,0.7-10.1,1v19.6h25.8v-19.6c-1-0.1-2.7-0.3-4.9-0.6c-2.3-0.1-4-0.3-5.2-0.6v-10.8
			c12.2-1.9,27.2-1.9,45.1,0v10.8c-3.3,0.6-6.6,0.7-9.9,1v61.2c1.2,0.1,2.9,0.3,5.2,0.6s3.7,0.4,4.8,0.6v10.8c-15,2-30.1,2-45.1,0
			v-10.8c3.7-0.6,7.2-0.9,10.1-1v-25.5h-25.8v25.3c1,0.1,2.7,0.3,5,0.6c2.3,0.3,4,0.4,5,0.6v10.8C237.3,922,222.3,922,207.2,920.1z"
			/>
		<path fill="#222222" d="M316.2,895.3c-0.1-10.1,2.9-17.3,9.5-21.9c5-3.3,12.2-5,21.2-5.3c6.6,0,13.1,1.2,19.2,3.5v-5.5
			c0-5.2-1.3-9.4-4-12.5c-2.6-3.2-6.9-4.9-13-5c-4.6-0.1-8.6,0.9-12.1,2.9c-3.3,2-5.8,5-7.3,9.1h-9.4c-0.9-7.2-0.6-14.8,0.7-23
			c8.9-3.2,19-4.9,30.1-4.9c13.4,0.1,23.3,2.9,30.1,8.6c6.6,5.6,10.1,14.4,10.1,26.4v40.3c1.9,0.1,4.9,1,9.5,2.2v10.8
			c-2.9,0.3-5.3,0.7-7.6,0.9c-2.2,0.1-4.8,0.3-7.8,0.1c-2.9-0.1-5.6-0.6-8.2-1.3c-2.4-0.7-4.8-2-6.6-3.5c-3.7,2.2-7.5,3.7-10.9,4.8
			c-3.6,1-7.5,1.4-11.8,1.4c-5.8,0-11.1-1-15.7-3.2c-4.6-2-8.4-5.3-11.2-9.6C317.7,906.1,316.3,901.1,316.2,895.3z M341.2,893.3
			c-0.1,4.2,1,7.5,3.7,9.9c2.7,2.4,6.2,3.6,10.2,3.6c3.5-0.1,7.1-0.9,10.9-2.3v-19.4c-2.4-2.3-6.2-3.6-10.8-3.7
			c-3.9-0.1-7.2,0.7-9.9,2.7C342.8,886.1,341.2,889.1,341.2,893.3z"/>
		<path fill="#222222" d="M409.5,920.4v-10.8c4-0.6,7.5-1,10.1-1v-60c-0.7-0.1-4-0.4-10.1-1.2v-10.8c9.8-2.3,21.5-3.2,35-2.7v34.8
			c4.8,0.1,8.2-0.7,10.5-2.7c2.3-2,4.3-5.2,5.9-9.4c2.4-6.6,4-10.8,4.9-12.2c2.7-5.2,6.3-8.4,11.1-9.8c2-0.6,4.5-0.9,6.9-1
			c3.2-0.1,7.8,0.6,13.8,1.9l-1.2,10.8c-1.9-0.3-3.3-0.1-4.6,0.4c-1.3,0.6-2.3,1.4-3.2,2.7c-0.7,1.3-1.4,2.6-1.9,3.7
			c-0.4,1.2-0.9,2.7-1.3,4.5c-0.4,1.7-0.9,3-1.2,3.7c-2.7,6.9-7.1,11.4-13.1,13.2v0.3c2,0.3,3.7,0.9,5.3,1.9c1.6,1,2.9,1.9,3.7,3
			c1,1,1.9,2.4,2.9,4.5c0.9,1.9,1.6,3.3,2,4.6c0.4,1.2,1,2.9,1.6,5c3.2,10.9,7.5,16.6,13,16.6v10.8c-4.3,0.6-8.5,0.7-12.5,0.6
			c-3.5-0.1-6.5-0.7-9.1-1.9s-4.9-2.7-6.6-4.8c-1.7-2-3.3-4.2-4.6-6.6c-1.2-2.3-2.4-5.2-3.6-8.6c-2-5.5-3.6-9.1-4.9-10.9
			c-3.2-4.5-7.8-6.6-14.1-6.2v26.1c2.7,0.1,6,0.4,10.1,1v10.8C439.6,922.2,424.5,922.2,409.5,920.4z"/>
		<path fill="#222222" d="M506.4,846.2v-10.8c4.5-0.6,9.5-1,15.3-1.2c9.5-0.6,19.4-0.1,29.8,1.2v10.8c-3.3,0.6-6.6,0.7-9.9,1v44.1
			c0,4.6,0.9,8.2,2.7,10.4c1.9,2.3,4.3,3.3,7.6,3.2c6.2-0.1,11.8-3.6,17.1-10.5v-47.2c-3.3-0.1-6.6-0.6-9.8-1v-10.8
			c15-1.9,30-1.9,44.9,0v10.8c-3.2,0.6-6.3,0.7-9.8,1v60c2.9,0.4,6.2,1.2,9.8,2.3v10.8c-6.5,0.9-16.6,1-30.5,0.6l-2.4-11.2
			c-4.8,4.8-9.6,8.2-14.8,10.4c-5,2.2-10.9,3-17.6,2.7c-7.5-0.4-13.1-3.2-17-8.1c-3.5-4.6-5.2-11.7-5.2-20.7v-46.9
			C513,847.1,509.6,846.8,506.4,846.2z"/>
		<path fill="#222222" d="M612.4,904.8h9.5c2.6-10.9,4.5-21,5.9-30.2c1.4-9.2,1.9-18.1,1.6-26.9c-3.6-0.1-6.9-0.6-10.1-1v-11.2
			c4.8-0.6,11.4-0.9,20-0.9h45.2c4.2,0,8.6,0.3,13.2,0.7v11.4c-3.3,0.6-6.6,0.7-9.9,1v57h11.1c0.6,14.4-0.4,26.8-2.9,37.3h-14.8
			c-1.7-8.6-2.7-15.7-2.9-21.2h-44.9c-0.1,6.6-1.2,13.5-2.7,21.2h-14.8c-1.4-5.9-2.4-11.8-2.7-17.1
			C612.2,919.5,612.1,912.7,612.4,904.8z M638.9,904.8h23.8v-54.4h-16.3C646.2,866.1,643.6,884.4,638.9,904.8z"/>
		<path fill="#222222" d="M711.3,920.4v-10.8c4-0.6,7.5-1,10.1-1v-60c-0.7-0.1-4-0.4-10.1-1.2v-10.8c9.8-2.3,21.5-3.2,35-2.7v34.8
			c4.8,0.1,8.2-0.7,10.5-2.7c2.3-2,4.3-5.2,5.9-9.4c2.4-6.6,4-10.8,4.9-12.2c2.7-5.2,6.3-8.4,11.1-9.8c2-0.6,4.5-0.9,6.9-1
			c3.2-0.1,7.8,0.6,13.8,1.9l-1.2,10.8c-1.9-0.3-3.3-0.1-4.6,0.4c-1.3,0.6-2.3,1.4-3.2,2.7c-0.7,1.3-1.4,2.6-1.9,3.7
			c-0.4,1.2-0.9,2.7-1.3,4.5c-0.4,1.7-0.9,3-1.2,3.7c-2.7,6.9-7.1,11.4-13.1,13.2v0.3c2,0.3,3.7,0.9,5.3,1.9c1.6,1,2.9,1.9,3.7,3
			c1,1,1.9,2.4,2.9,4.5c0.9,1.9,1.6,3.3,2,4.6c0.4,1.2,1,2.9,1.6,5c3.2,10.9,7.5,16.6,13,16.6v10.8c-4.3,0.6-8.5,0.7-12.5,0.6
			c-3.5-0.1-6.5-0.7-9.1-1.9c-2.6-1.2-4.9-2.7-6.6-4.8c-1.7-2-3.3-4.2-4.6-6.6c-1.2-2.3-2.4-5.2-3.6-8.6c-2-5.5-3.6-9.1-4.9-10.9
			c-3.2-4.5-7.8-6.6-14.1-6.2v26.1c2.7,0.1,6,0.4,10.1,1v10.8C741.5,922.2,726.4,922.2,711.3,920.4z"/>
		<path fill="#222222" d="M808.2,846.2v-10.8c4.5-0.6,9.5-1,15.3-1.2c9.5-0.6,19.4-0.1,29.8,1.2v10.8c-3.3,0.6-6.6,0.7-9.9,1v44.1
			c0,4.6,0.9,8.2,2.7,10.4c1.9,2.3,4.3,3.3,7.6,3.2c6.2-0.1,11.8-3.6,17.1-10.5v-47.2c-3.3-0.1-6.6-0.6-9.8-1v-10.8
			c15-1.9,30-1.9,44.9,0v10.8c-3.2,0.6-6.3,0.7-9.8,1v60c2.9,0.4,6.2,1.2,9.8,2.3v10.8c-6.5,0.9-16.6,1-30.5,0.6l-2.4-11.2
			c-4.8,4.8-9.6,8.2-14.8,10.4c-5,2.2-10.9,3-17.6,2.7c-7.5-0.4-13.1-3.2-17-8.1c-3.5-4.6-5.2-11.7-5.2-20.7v-46.9
			C815,847.1,811.5,846.8,808.2,846.2z"/>
	</g>
	<text transform="matrix(1 0 0 1 399.7421 815.6838)" fill="#4CC9AB" font-family="'Orpheus'" font-size="115.8477">авто</text>
	<text transform="matrix(1 0 0 1 789.336 827.6834)" font-family="'Orpheus'" font-size="60">.net</text>
</g>
</svg>
