<svg width="59" height="25" viewBox="0 0 59 25" fill="none" xmlns="http://www.w3.org/2000/svg">
<g clip-path="url(#clip0)">
<path d="M28.5359 4H13.0733C12.4962 4 11.9428 3.78929 11.5347 3.41421C11.1267 3.03914 10.8975 2.53043 10.8975 2C10.8975 1.46957 11.1267 0.960859 11.5347 0.585786C11.9428 0.210714 12.4962 0 13.0733 0H28.5359C29.113 0 29.6664 0.210714 30.0744 0.585786C30.4825 0.960859 30.7117 1.46957 30.7117 2C30.7117 2.53043 30.4825 3.03914 30.0744 3.41421C29.6664 3.78929 29.113 4 28.5359 4Z" fill="#FFC100"/>
<path d="M27.5652 14H17.0162C16.4444 14 15.8961 13.7893 15.4918 13.4142C15.0875 13.0391 14.8604 12.5304 14.8604 12C14.8604 11.4696 15.0875 10.9609 15.4918 10.5858C15.8961 10.2107 16.4444 10 17.0162 10H27.5652C28.137 10 28.6853 10.2107 29.0896 10.5858C29.4939 10.9609 29.721 11.4696 29.721 12C29.721 12.5304 29.4939 13.0391 29.0896 13.4142C28.6853 13.7893 28.137 14 27.5652 14Z" fill="#FFC100"/>
<path d="M27.4631 25H22.0729C21.4739 25 20.8995 24.7893 20.4759 24.4142C20.0524 24.0391 19.8145 23.5304 19.8145 23C19.8145 22.4696 20.0524 21.9609 20.4759 21.5858C20.8995 21.2107 21.4739 21 22.0729 21H27.4631C28.0621 21 28.6365 21.2107 29.0601 21.5858C29.4836 21.9609 29.7216 22.4696 29.7216 23C29.7216 23.5304 29.4836 24.0391 29.0601 24.4142C28.6365 24.7893 28.0621 25 27.4631 25Z" fill="#FFC100"/>
<path d="M53.9667 0H28.317C27.1508 0 26.0324 0.468114 25.2078 1.30136C24.3832 2.13461 23.9199 3.26474 23.9199 4.44313V20.468C23.9199 21.6464 24.3832 22.7765 25.2078 23.6098C26.0324 24.443 27.1508 24.9111 28.317 24.9111H53.9667C55.1329 24.9111 56.2513 24.443 57.0759 23.6098C57.9005 22.7765 58.3638 21.6464 58.3638 20.468V4.56161C58.3794 3.97808 58.2811 3.39716 58.0744 2.85205C57.8677 2.30694 57.5568 1.80832 57.1593 1.38469C56.7618 0.961065 56.2857 0.620731 55.758 0.383139C55.2303 0.145546 54.6615 0.0153535 54.084 0L53.9667 0ZM52.7648 19.1943C52.5513 19.4258 52.2568 19.564 51.944 19.5794C51.8086 19.5813 51.6741 19.5562 51.5483 19.5053C51.4225 19.4545 51.308 19.379 51.2112 19.2832L45.0553 13.7441L41.7721 16.7062C41.5779 16.8792 41.3275 16.9741 41.0686 16.9728C40.8005 16.9759 40.5403 16.8812 40.3357 16.7062L37.0819 13.9218L31.0139 19.2832C30.9171 19.379 30.8026 19.4545 30.6768 19.5053C30.551 19.5562 30.4165 19.5813 30.281 19.5794C29.9683 19.564 29.6738 19.4258 29.4603 19.1943C29.2645 18.9808 29.1558 18.7004 29.1558 18.4094C29.1558 18.1183 29.2645 17.838 29.4603 17.6244L35.323 12.3519L29.4603 7.34597C29.3557 7.24131 29.2727 7.11675 29.216 6.97947C29.1593 6.8422 29.1302 6.69494 29.1302 6.54621C29.1302 6.39748 29.1593 6.25022 29.216 6.11294C29.2727 5.97567 29.3557 5.85111 29.4603 5.74645C29.6515 5.60448 29.8825 5.52792 30.1198 5.52792C30.3571 5.52792 30.5882 5.60448 30.7794 5.74645L41.0393 14.2773L51.0353 5.65758C51.1583 5.54137 51.3058 5.45486 51.4667 5.40454C51.6275 5.35422 51.7976 5.34141 51.9641 5.36706C52.1305 5.39272 52.2891 5.45619 52.4278 5.55268C52.5665 5.64918 52.6817 5.77619 52.7648 5.92417C52.9488 6.15309 53.0365 6.44582 53.0091 6.73939C52.9817 7.03297 52.8413 7.30395 52.6183 7.49408L46.9021 12.2927L52.7648 17.7725C52.9217 17.9756 53.007 18.2258 53.007 18.4834C53.007 18.741 52.9217 18.9913 52.7648 19.1943Z" fill="#C251C0"/>
</g>
<defs>
<clipPath id="clip0">
<rect width="58.452" height="25" fill="white"/>
</clipPath>
</defs>
</svg>
