<svg width="41" height="37" viewBox="0 0 41 37" fill="none" xmlns="http://www.w3.org/2000/svg">
<path d="M37.8737 8.14158C37.9382 8.71329 37.8712 9.29237 37.6778 9.83342C37.4845 10.3745 37.1701 10.8628 36.7593 11.26C36.1771 11.6814 35.6116 11.5803 32.3349 10.9229C28.7755 10.1981 28.2765 10.1138 27.8108 9.55752C27.3576 9.02688 27.027 8.4005 26.8428 7.72399C26.6587 7.04748 26.6257 6.33787 26.7463 5.64682C21.7663 5.48696 16.8394 6.72358 12.5086 9.22039L12.941 12.5917C12.2424 13.266 11.1114 14.3953 9.76414 15.8281C7.58524 18.188 7.10288 19.014 6.18808 18.9634C4.75765 18.7949 3.65988 16.6035 3.32723 15.1707C3.09597 14.2499 3.06758 13.2889 3.24406 12.3557C3.70978 11.5466 9.98037 0.943856 21.9727 0.303309C27.4455 0.112806 32.8061 1.90577 37.0919 5.36026L37.8737 8.14158Z" fill="#FFC100"/>
<path d="M28.7085 11.3612C28.7728 11.3107 28.8518 11.2832 28.9331 11.2832C29.0144 11.2832 29.0934 11.3107 29.1576 11.3612C29.7226 12.053 30.483 12.553 31.3365 12.794C32.0786 12.9867 32.8566 12.9867 33.5986 12.794C33.6434 12.7813 33.6902 12.7778 33.7364 12.7837C33.7825 12.7896 33.827 12.8048 33.8673 12.8283C33.9076 12.8519 33.9428 12.8833 33.9709 12.9209C33.9991 12.9584 34.0195 13.0012 34.0311 13.0469C34.0436 13.0923 34.0471 13.1397 34.0413 13.1865C34.0354 13.2332 34.0205 13.2784 33.9972 13.3192C33.974 13.36 33.943 13.3957 33.9059 13.4242C33.8689 13.4527 33.8266 13.4734 33.7816 13.4852C32.9144 13.7136 32.0041 13.7136 31.1369 13.4852C30.1506 13.1839 29.2721 12.5982 28.6087 11.7995C28.5756 11.7665 28.5492 11.7272 28.5312 11.6838C28.5132 11.6404 28.5039 11.5937 28.5039 11.5467C28.5039 11.4996 28.5132 11.4529 28.5312 11.4095C28.5492 11.3661 28.5756 11.3268 28.6087 11.2938L28.7085 11.3612Z" fill="#C251C0"/>
<path d="M7.70021 5.05683C7.74225 5.19546 7.73906 5.34412 7.69112 5.48077C7.64318 5.61741 7.55304 5.73475 7.43409 5.81537C5.12293 7.22461 3.36093 9.39721 2.44423 11.968C1.87089 13.6447 1.68315 15.432 1.89535 17.1935C1.89677 17.3512 1.84075 17.5038 1.73803 17.6223C1.63531 17.7407 1.4931 17.8165 1.33863 17.8353C1.18416 17.8541 1.02827 17.8145 0.900823 17.7241C0.773373 17.6336 0.683312 17.4987 0.647882 17.3452C0.406216 15.4105 0.599547 13.4454 1.2134 11.5971C2.26482 8.77564 4.22906 6.39874 6.78541 4.85455C6.85418 4.81128 6.9307 4.78219 7.01059 4.76893C7.09048 4.75568 7.17216 4.75853 7.25096 4.77732C7.32975 4.79611 7.40412 4.83047 7.4698 4.87843C7.53547 4.9264 7.59116 4.98702 7.63368 5.05683C7.65582 5.05503 7.67807 5.05503 7.70021 5.05683Z" fill="#C251C0"/>
<path d="M40.3014 29.8191C39.5242 26.9868 38.2693 24.3121 36.5923 21.9134C34.6428 19.1285 32.1524 16.7767 29.2739 15.0022L14.8199 15.1708C12.9068 16.5496 11.1448 18.1319 9.56392 19.8906C7.18542 22.5539 4.42436 25.7061 4.15824 30.0045C3.95561 31.5544 4.29075 33.1275 5.10631 34.4546C5.76688 35.3918 6.67898 36.1173 7.7343 36.5448L37.9396 36.3088C39.0448 35.6989 39.8937 34.7027 40.3282 33.5057C40.7627 32.3088 40.7532 30.9926 40.3014 29.8022V29.8191ZM16.2503 23.0765C16.0348 23.0992 15.817 23.0758 15.6111 23.0078C15.4051 22.9398 15.2155 22.8287 15.0545 22.6817C14.8936 22.5347 14.7649 22.3551 14.6769 22.1545C14.5888 21.9539 14.5433 21.7368 14.5433 21.5172C14.5433 21.2977 14.5888 21.0806 14.6769 20.88C14.7649 20.6794 14.8936 20.4997 15.0545 20.3528C15.2155 20.2058 15.4051 20.0947 15.6111 20.0267C15.817 19.9587 16.0348 19.9353 16.2503 19.958C16.6308 19.9982 16.9831 20.1797 17.2392 20.4677C17.4953 20.7557 17.637 21.1296 17.637 21.5172C17.637 21.9049 17.4953 22.2788 17.2392 22.5668C16.9831 22.8547 16.6308 23.0363 16.2503 23.0765ZM28.2759 28.3188C27.9686 28.3222 27.6672 28.2326 27.4103 28.0617C27.1534 27.8907 26.9526 27.646 26.8334 27.3589C26.7143 27.0718 26.6822 26.7552 26.7414 26.4495C26.8006 26.1439 26.9482 25.863 27.1655 25.6428C27.3829 25.4225 27.66 25.2729 27.9616 25.2129C28.2632 25.153 28.5756 25.1854 28.8589 25.3062C29.1422 25.4269 29.3837 25.6304 29.5524 25.8908C29.7211 26.1512 29.8094 26.4566 29.8061 26.768C29.8018 27.178 29.6392 27.5699 29.3531 27.8598C29.0671 28.1496 28.6804 28.3144 28.2759 28.3188Z" fill="#C251C0"/>
<path d="M22.0546 23.1101C22.8998 23.1101 23.5849 22.4158 23.5849 21.5593C23.5849 20.7029 22.8998 20.0085 22.0546 20.0085C21.2095 20.0085 20.5244 20.7029 20.5244 21.5593C20.5244 22.4158 21.2095 23.1101 22.0546 23.1101Z" fill="#FFC100"/>
<path d="M28.2265 23.1101C29.0716 23.1101 29.7567 22.4158 29.7567 21.5593C29.7567 20.7029 29.0716 20.0085 28.2265 20.0085C27.3814 20.0085 26.6963 20.7029 26.6963 21.5593C26.6963 22.4158 27.3814 23.1101 28.2265 23.1101Z" fill="#FFC100"/>
<path d="M16.2519 33.8311C17.097 33.8311 17.7821 33.1368 17.7821 32.2803C17.7821 31.4238 17.097 30.7295 16.2519 30.7295C15.4068 30.7295 14.7217 31.4238 14.7217 32.2803C14.7217 33.1368 15.4068 33.8311 16.2519 33.8311Z" fill="#FFC100"/>
<path d="M22.0546 33.8311C22.8998 33.8311 23.5849 33.1368 23.5849 32.2803C23.5849 31.4238 22.8998 30.7295 22.0546 30.7295C21.2095 30.7295 20.5244 31.4238 20.5244 32.2803C20.5244 33.1368 21.2095 33.8311 22.0546 33.8311Z" fill="#FFC100"/>
<path d="M28.2265 33.8311C29.0716 33.8311 29.7567 33.1368 29.7567 32.2803C29.7567 31.4238 29.0716 30.7295 28.2265 30.7295C27.3814 30.7295 26.6963 31.4238 26.6963 32.2803C26.6963 33.1368 27.3814 33.8311 28.2265 33.8311Z" fill="#FFC100"/>
<path d="M16.2519 28.302C17.097 28.302 17.7821 27.6077 17.7821 26.7512C17.7821 25.8948 17.097 25.2004 16.2519 25.2004C15.4068 25.2004 14.7217 25.8948 14.7217 26.7512C14.7217 27.6077 15.4068 28.302 16.2519 28.302Z" fill="#FFC100"/>
<path d="M22.0546 28.302C22.8998 28.302 23.5849 27.6077 23.5849 26.7512C23.5849 25.8948 22.8998 25.2004 22.0546 25.2004C21.2095 25.2004 20.5244 25.8948 20.5244 26.7512C20.5244 27.6077 21.2095 28.302 22.0546 28.302Z" fill="#FFC100"/>
</svg>
